  0
SECTION
  2
HEADER
  9
$ACADVER
  1
AC1009
  9
$EXTMIN
 10
0.0
 20
0.0
 30
0.0
  9
$EXTMAX
 10
1000.0
 20
1000.0
 30
0.0
  9
$FILLMODE
 70
 0
  9
$SPLFRAME
 70
 1
  0
ENDSEC
  0
SECTION
  2
TABLES
  0
TABLE
  2
LAYER
 70
1
  0
LAYER
  2
0
 70
     0
 62
     7
  6
CONTINUOUS
  0
ENDTAB
  0
ENDSEC
  0
SECTION
  2
ENTITIES
  0
POLYLINE
  8
0
 62
     13
 66
     1
 10
0
 20
0
 30
0.0
 40
0.864
 41
0.864
  0
VERTEX
  8
0
 10
0.00607639
 20
1.03608
 30
0.0
 40
0.012
 41
0.012
  0
VERTEX
  8
0
 10
1.25608
 20
1.03608
 30
0.0
 40
0.012
 41
0.012
  0
SEQEND
 8
0
  0
POLYLINE
  8
0
 62
     13
 66
     1
 10
0
 20
0
 30
0.0
 40
0.864
 41
0.864
  0
VERTEX
  8
0
 10
1.25608
 20
1.03608
 30
0.0
 40
0.012
 41
0.012
  0
VERTEX
  8
0
 10
1.25608
 20
0.8361
 30
0.0
 40
0.012
 41
0.012
  0
SEQEND
 8
0
  0
POLYLINE
  8
0
 62
     13
 66
     1
 10
0
 20
0
 30
0.0
 40
0.864
 41
0.864
  0
VERTEX
  8
0
 10
1.25608
 20
0.8361
 30
0.0
 40
0.012
 41
0.012
  0
VERTEX
  8
0
 10
1.23606
 20
0.816081
 30
0.0
 40
0.012
 41
0.012
  0
SEQEND
 8
0
  0
POLYLINE
  8
0
 62
     13
 66
     1
 10
0
 20
0
 30
0.0
 40
0.864
 41
0.864
  0
VERTEX
  8
0
 10
1.23606
 20
0.816081
 30
0.0
 40
0.012
 41
0.012
  0
VERTEX
  8
0
 10
0.846029
 20
0.816081
 30
0.0
 40
0.012
 41
0.012
  0
SEQEND
 8
0
  0
POLYLINE
  8
0
 62
     13
 66
     1
 10
0
 20
0
 30
0.0
 40
0.864
 41
0.864
  0
VERTEX
  8
0
 10
0.0260417
 20
0.00607639
 30
0.0
 40
0.012
 41
0.012
  0
VERTEX
  8
0
 10
0.0260417
 20
0.816081
 30
0.0
 40
0.012
 41
0.012
  0
SEQEND
 8
0
  0
POLYLINE
  8
0
 62
     13
 66
     1
 10
0
 20
0
 30
0.0
 40
0.864
 41
0.864
  0
VERTEX
  8
0
 10
0.0260417
 20
0.816081
 30
0.0
 40
0.012
 41
0.012
  0
VERTEX
  8
0
 10
0.00607639
 20
0.8361
 30
0.0
 40
0.012
 41
0.012
  0
SEQEND
 8
0
  0
POLYLINE
  8
0
 62
     13
 66
     1
 10
0
 20
0
 30
0.0
 40
0.864
 41
0.864
  0
VERTEX
  8
0
 10
0.00607639
 20
0.8361
 30
0.0
 40
0.012
 41
0.012
  0
VERTEX
  8
0
 10
0.00607639
 20
1.03608
 30
0.0
 40
0.012
 41
0.012
  0
SEQEND
 8
0
  0
POLYLINE
  8
0
 62
     13
 66
     1
 10
0
 20
0
 30
0.0
 40
0.864
 41
0.864
  0
VERTEX
  8
0
 10
0.846029
 20
0.816081
 30
0.0
 40
0.012
 41
0.012
  0
VERTEX
  8
0
 10
0.786079
 20
0.756076
 30
0.0
 40
0.012
 41
0.012
  0
SEQEND
 8
0
  0
POLYLINE
  8
0
 62
     13
 66
     1
 10
0
 20
0
 30
0.0
 40
0.864
 41
0.864
  0
VERTEX
  8
0
 10
0.786079
 20
0.756076
 30
0.0
 40
0.012
 41
0.012
  0
VERTEX
  8
0
 10
0.786079
 20
0.00607639
 30
0.0
 40
0.012
 41
0.012
  0
SEQEND
 8
0
  0
POLYLINE
  8
0
 62
     13
 66
     1
 10
0
 20
0
 30
0.0
 40
0.864
 41
0.864
  0
VERTEX
  8
0
 10
0.786079
 20
0.00607639
 30
0.0
 40
0.012
 41
0.012
  0
VERTEX
  8
0
 10
0.0260417
 20
0.00607639
 30
0.0
 40
0.012
 41
0.012
  0
SEQEND
 8
0
  0
POLYLINE
  8
0
 62
     173
 66
     1
 10
0
 20
0
 30
0.0
 70
     1
 40
0
 41
0
  0
VERTEX
  8
0
 10
0.122559
 20
0.806099
 30
0.0
 40
0
 41
0
  0
VERTEX
  8
0
 10
0.116048
 20
0.812608
 30
0.0
 40
0
 41
0
  0
VERTEX
  8
0
 10
0.109538
 20
0.806099
 30
0.0
 40
0
 41
0
  0
VERTEX
  8
0
 10
0.116048
 20
0.799588
 30
0.0
 40
0
 41
0
  0
VERTEX
  8
0
 10
0.122559
 20
0.806099
 30
0.0
 40
0
 41
0
  0
SEQEND
 8
0
  0
POLYLINE
  8
0
 62
     173
 66
     1
 10
0
 20
0
 30
0.0
 70
     1
 40
0
 41
0
  0
VERTEX
  8
0
 10
0.0900608
 20
0.946072
 30
0.0
 40
0
 41
0
  0
VERTEX
  8
0
 10
0.0856663
 20
0.956597
 30
0.0
 40
0
 41
0
  0
VERTEX
  8
0
 10
0.0760633
 20
0.960069
 30
0.0
 40
0
 41
0
  0
VERTEX
  8
0
 10
0.0664063
 20
0.956597
 30
0.0
 40
0
 41
0
  0
VERTEX
  8
0
 10
0.062066
 20
0.946072
 30
0.0
 40
0
 41
0
  0
VERTEX
  8
0
 10
0.0664063
 20
0.935601
 30
0.0
 40
0
 41
0
  0
VERTEX
  8
0
 10
0.0760633
 20
0.932075
 30
0.0
 40
0
 41
0
  0
VERTEX
  8
0
 10
0.0856663
 20
0.935601
 30
0.0
 40
0
 41
0
  0
VERTEX
  8
0
 10
0.0900608
 20
0.946072
 30
0.0
 40
0
 41
0
  0
SEQEND
 8
0
  0
POLYLINE
  8
0
 62
     173
 66
     1
 10
0
 20
0
 30
0.0
 70
     1
 40
0
 41
0
  0
VERTEX
  8
0
 10
0.19005
 20
0.946072
 30
0.0
 40
0
 41
0
  0
VERTEX
  8
0
 10
0.185656
 20
0.956597
 30
0.0
 40
0
 41
0
  0
VERTEX
  8
0
 10
0.176053
 20
0.960069
 30
0.0
 40
0
 41
0
  0
VERTEX
  8
0
 10
0.166396
 20
0.956597
 30
0.0
 40
0
 41
0
  0
VERTEX
  8
0
 10
0.162056
 20
0.946072
 30
0.0
 40
0
 41
0
  0
VERTEX
  8
0
 10
0.166396
 20
0.935601
 30
0.0
 40
0
 41
0
  0
VERTEX
  8
0
 10
0.176053
 20
0.932075
 30
0.0
 40
0
 41
0
  0
VERTEX
  8
0
 10
0.185656
 20
0.935601
 30
0.0
 40
0
 41
0
  0
VERTEX
  8
0
 10
0.19005
 20
0.946072
 30
0.0
 40
0
 41
0
  0
SEQEND
 8
0
  0
POLYLINE
  8
0
 62
     173
 66
     1
 10
0
 20
0
 30
0.0
 70
     1
 40
0
 41
0
  0
VERTEX
  8
0
 10
0.290039
 20
0.946072
 30
0.0
 40
0
 41
0
  0
VERTEX
  8
0
 10
0.285644
 20
0.956597
 30
0.0
 40
0
 41
0
  0
VERTEX
  8
0
 10
0.276042
 20
0.960069
 30
0.0
 40
0
 41
0
  0
VERTEX
  8
0
 10
0.266385
 20
0.956597
 30
0.0
 40
0
 41
0
  0
VERTEX
  8
0
 10
0.262044
 20
0.946072
 30
0.0
 40
0
 41
0
  0
VERTEX
  8
0
 10
0.266385
 20
0.935601
 30
0.0
 40
0
 41
0
  0
VERTEX
  8
0
 10
0.276042
 20
0.932075
 30
0.0
 40
0
 41
0
  0
VERTEX
  8
0
 10
0.285644
 20
0.935601
 30
0.0
 40
0
 41
0
  0
VERTEX
  8
0
 10
0.290039
 20
0.946072
 30
0.0
 40
0
 41
0
  0
SEQEND
 8
0
  0
POLYLINE
  8
0
 62
     173
 66
     1
 10
0
 20
0
 30
0.0
 70
     1
 40
0
 41
0
  0
VERTEX
  8
0
 10
0.390028
 20
0.946072
 30
0.0
 40
0
 41
0
  0
VERTEX
  8
0
 10
0.385633
 20
0.956597
 30
0.0
 40
0
 41
0
  0
VERTEX
  8
0
 10
0.376031
 20
0.960069
 30
0.0
 40
0
 41
0
  0
VERTEX
  8
0
 10
0.366374
 20
0.956597
 30
0.0
 40
0
 41
0
  0
VERTEX
  8
0
 10
0.362033
 20
0.946072
 30
0.0
 40
0
 41
0
  0
VERTEX
  8
0
 10
0.366374
 20
0.935601
 30
0.0
 40
0
 41
0
  0
VERTEX
  8
0
 10
0.376031
 20
0.932075
 30
0.0
 40
0
 41
0
  0
VERTEX
  8
0
 10
0.385633
 20
0.935601
 30
0.0
 40
0
 41
0
  0
VERTEX
  8
0
 10
0.390028
 20
0.946072
 30
0.0
 40
0
 41
0
  0
SEQEND
 8
0
  0
POLYLINE
  8
0
 62
     173
 66
     1
 10
0
 20
0
 30
0.0
 70
     1
 40
0
 41
0
  0
VERTEX
  8
0
 10
0.490072
 20
0.946072
 30
0.0
 40
0
 41
0
  0
VERTEX
  8
0
 10
0.485678
 20
0.956597
 30
0.0
 40
0
 41
0
  0
VERTEX
  8
0
 10
0.476074
 20
0.960069
 30
0.0
 40
0
 41
0
  0
VERTEX
  8
0
 10
0.466417
 20
0.956597
 30
0.0
 40
0
 41
0
  0
VERTEX
  8
0
 10
0.462076
 20
0.946072
 30
0.0
 40
0
 41
0
  0
VERTEX
  8
0
 10
0.466417
 20
0.935601
 30
0.0
 40
0
 41
0
  0
VERTEX
  8
0
 10
0.476074
 20
0.932075
 30
0.0
 40
0
 41
0
  0
VERTEX
  8
0
 10
0.485678
 20
0.935601
 30
0.0
 40
0
 41
0
  0
VERTEX
  8
0
 10
0.490072
 20
0.946072
 30
0.0
 40
0
 41
0
  0
SEQEND
 8
0
  0
POLYLINE
  8
0
 62
     173
 66
     1
 10
0
 20
0
 30
0.0
 70
     1
 40
0
 41
0
  0
VERTEX
  8
0
 10
0.590061
 20
0.946072
 30
0.0
 40
0
 41
0
  0
VERTEX
  8
0
 10
0.585667
 20
0.956597
 30
0.0
 40
0
 41
0
  0
VERTEX
  8
0
 10
0.576064
 20
0.960069
 30
0.0
 40
0
 41
0
  0
VERTEX
  8
0
 10
0.566407
 20
0.956597
 30
0.0
 40
0
 41
0
  0
VERTEX
  8
0
 10
0.562067
 20
0.946072
 30
0.0
 40
0
 41
0
  0
VERTEX
  8
0
 10
0.566407
 20
0.935601
 30
0.0
 40
0
 41
0
  0
VERTEX
  8
0
 10
0.576064
 20
0.932075
 30
0.0
 40
0
 41
0
  0
VERTEX
  8
0
 10
0.585667
 20
0.935601
 30
0.0
 40
0
 41
0
  0
VERTEX
  8
0
 10
0.590061
 20
0.946072
 30
0.0
 40
0
 41
0
  0
SEQEND
 8
0
  0
POLYLINE
  8
0
 62
     173
 66
     1
 10
0
 20
0
 30
0.0
 70
     1
 40
0
 41
0
  0
VERTEX
  8
0
 10
0.69005
 20
0.946072
 30
0.0
 40
0
 41
0
  0
VERTEX
  8
0
 10
0.685656
 20
0.956597
 30
0.0
 40
0
 41
0
  0
VERTEX
  8
0
 10
0.676053
 20
0.960069
 30
0.0
 40
0
 41
0
  0
VERTEX
  8
0
 10
0.666396
 20
0.956597
 30
0.0
 40
0
 41
0
  0
VERTEX
  8
0
 10
0.662056
 20
0.946072
 30
0.0
 40
0
 41
0
  0
VERTEX
  8
0
 10
0.666396
 20
0.935601
 30
0.0
 40
0
 41
0
  0
VERTEX
  8
0
 10
0.676053
 20
0.932075
 30
0.0
 40
0
 41
0
  0
VERTEX
  8
0
 10
0.685656
 20
0.935601
 30
0.0
 40
0
 41
0
  0
VERTEX
  8
0
 10
0.69005
 20
0.946072
 30
0.0
 40
0
 41
0
  0
SEQEND
 8
0
  0
POLYLINE
  8
0
 62
     173
 66
     1
 10
0
 20
0
 30
0.0
 70
     1
 40
0
 41
0
  0
VERTEX
  8
0
 10
0.790039
 20
0.946072
 30
0.0
 40
0
 41
0
  0
VERTEX
  8
0
 10
0.785644
 20
0.956597
 30
0.0
 40
0
 41
0
  0
VERTEX
  8
0
 10
0.776042
 20
0.960069
 30
0.0
 40
0
 41
0
  0
VERTEX
  8
0
 10
0.766385
 20
0.956597
 30
0.0
 40
0
 41
0
  0
VERTEX
  8
0
 10
0.762044
 20
0.946072
 30
0.0
 40
0
 41
0
  0
VERTEX
  8
0
 10
0.766385
 20
0.935601
 30
0.0
 40
0
 41
0
  0
VERTEX
  8
0
 10
0.776042
 20
0.932075
 30
0.0
 40
0
 41
0
  0
VERTEX
  8
0
 10
0.785644
 20
0.935601
 30
0.0
 40
0
 41
0
  0
VERTEX
  8
0
 10
0.790039
 20
0.946072
 30
0.0
 40
0
 41
0
  0
SEQEND
 8
0
  0
POLYLINE
  8
0
 62
     173
 66
     1
 10
0
 20
0
 30
0.0
 70
     1
 40
0
 41
0
  0
VERTEX
  8
0
 10
0.890028
 20
0.946072
 30
0.0
 40
0
 41
0
  0
VERTEX
  8
0
 10
0.885633
 20
0.956597
 30
0.0
 40
0
 41
0
  0
VERTEX
  8
0
 10
0.876031
 20
0.960069
 30
0.0
 40
0
 41
0
  0
VERTEX
  8
0
 10
0.866374
 20
0.956597
 30
0.0
 40
0
 41
0
  0
VERTEX
  8
0
 10
0.862033
 20
0.946072
 30
0.0
 40
0
 41
0
  0
VERTEX
  8
0
 10
0.866374
 20
0.935601
 30
0.0
 40
0
 41
0
  0
VERTEX
  8
0
 10
0.876031
 20
0.932075
 30
0.0
 40
0
 41
0
  0
VERTEX
  8
0
 10
0.885633
 20
0.935601
 30
0.0
 40
0
 41
0
  0
VERTEX
  8
0
 10
0.890028
 20
0.946072
 30
0.0
 40
0
 41
0
  0
SEQEND
 8
0
  0
POLYLINE
  8
0
 62
     173
 66
     1
 10
0
 20
0
 30
0.0
 70
     1
 40
0
 41
0
  0
VERTEX
  8
0
 10
0.990072
 20
0.946072
 30
0.0
 40
0
 41
0
  0
VERTEX
  8
0
 10
0.985678
 20
0.956597
 30
0.0
 40
0
 41
0
  0
VERTEX
  8
0
 10
0.976074
 20
0.960069
 30
0.0
 40
0
 41
0
  0
VERTEX
  8
0
 10
0.966417
 20
0.956597
 30
0.0
 40
0
 41
0
  0
VERTEX
  8
0
 10
0.962076
 20
0.946072
 30
0.0
 40
0
 41
0
  0
VERTEX
  8
0
 10
0.966417
 20
0.935601
 30
0.0
 40
0
 41
0
  0
VERTEX
  8
0
 10
0.976074
 20
0.932075
 30
0.0
 40
0
 41
0
  0
VERTEX
  8
0
 10
0.985678
 20
0.935601
 30
0.0
 40
0
 41
0
  0
VERTEX
  8
0
 10
0.990072
 20
0.946072
 30
0.0
 40
0
 41
0
  0
SEQEND
 8
0
  0
POLYLINE
  8
0
 62
     173
 66
     1
 10
0
 20
0
 30
0.0
 70
     1
 40
0
 41
0
  0
VERTEX
  8
0
 10
1.09006
 20
0.946072
 30
0.0
 40
0
 41
0
  0
VERTEX
  8
0
 10
1.08567
 20
0.956597
 30
0.0
 40
0
 41
0
  0
VERTEX
  8
0
 10
1.07606
 20
0.960069
 30
0.0
 40
0
 41
0
  0
VERTEX
  8
0
 10
1.06641
 20
0.956597
 30
0.0
 40
0
 41
0
  0
VERTEX
  8
0
 10
1.06207
 20
0.946072
 30
0.0
 40
0
 41
0
  0
VERTEX
  8
0
 10
1.06641
 20
0.935601
 30
0.0
 40
0
 41
0
  0
VERTEX
  8
0
 10
1.07606
 20
0.932075
 30
0.0
 40
0
 41
0
  0
VERTEX
  8
0
 10
1.08567
 20
0.935601
 30
0.0
 40
0
 41
0
  0
VERTEX
  8
0
 10
1.09006
 20
0.946072
 30
0.0
 40
0
 41
0
  0
SEQEND
 8
0
  0
POLYLINE
  8
0
 62
     173
 66
     1
 10
0
 20
0
 30
0.0
 70
     1
 40
0
 41
0
  0
VERTEX
  8
0
 10
1.19005
 20
0.946072
 30
0.0
 40
0
 41
0
  0
VERTEX
  8
0
 10
1.18566
 20
0.956597
 30
0.0
 40
0
 41
0
  0
VERTEX
  8
0
 10
1.17605
 20
0.960069
 30
0.0
 40
0
 41
0
  0
VERTEX
  8
0
 10
1.1664
 20
0.956597
 30
0.0
 40
0
 41
0
  0
VERTEX
  8
0
 10
1.16206
 20
0.946072
 30
0.0
 40
0
 41
0
  0
VERTEX
  8
0
 10
1.1664
 20
0.935601
 30
0.0
 40
0
 41
0
  0
VERTEX
  8
0
 10
1.17605
 20
0.932075
 30
0.0
 40
0
 41
0
  0
VERTEX
  8
0
 10
1.18566
 20
0.935601
 30
0.0
 40
0
 41
0
  0
VERTEX
  8
0
 10
1.19005
 20
0.946072
 30
0.0
 40
0
 41
0
  0
SEQEND
 8
0
  0
POLYLINE
  8
0
 62
     173
 66
     1
 10
0
 20
0
 30
0.0
 70
     1
 40
0
 41
0
  0
VERTEX
  8
0
 10
0.243544
 20
0.596083
 30
0.0
 40
0
 41
0
  0
VERTEX
  8
0
 10
0.238064
 20
0.609213
 30
0.0
 40
0
 41
0
  0
VERTEX
  8
0
 10
0.226019
 20
0.613607
 30
0.0
 40
0
 41
0
  0
VERTEX
  8
0
 10
0.213976
 20
0.609213
 30
0.0
 40
0
 41
0
  0
VERTEX
  8
0
 10
0.20855
 20
0.596083
 30
0.0
 40
0
 41
0
  0
VERTEX
  8
0
 10
0.213976
 20
0.583008
 30
0.0
 40
0
 41
0
  0
VERTEX
  8
0
 10
0.226019
 20
0.578614
 30
0.0
 40
0
 41
0
  0
VERTEX
  8
0
 10
0.238064
 20
0.583008
 30
0.0
 40
0
 41
0
  0
VERTEX
  8
0
 10
0.243544
 20
0.596083
 30
0.0
 40
0
 41
0
  0
SEQEND
 8
0
  0
POLYLINE
  8
0
 62
     173
 66
     1
 10
0
 20
0
 30
0.0
 70
     1
 40
0
 41
0
  0
VERTEX
  8
0
 10
0.293565
 20
0.696072
 30
0.0
 40
0
 41
0
  0
VERTEX
  8
0
 10
0.288086
 20
0.709201
 30
0.0
 40
0
 41
0
  0
VERTEX
  8
0
 10
0.276042
 20
0.713596
 30
0.0
 40
0
 41
0
  0
VERTEX
  8
0
 10
0.263997
 20
0.709201
 30
0.0
 40
0
 41
0
  0
VERTEX
  8
0
 10
0.258572
 20
0.696072
 30
0.0
 40
0
 41
0
  0
VERTEX
  8
0
 10
0.263997
 20
0.682997
 30
0.0
 40
0
 41
0
  0
VERTEX
  8
0
 10
0.276042
 20
0.678603
 30
0.0
 40
0
 41
0
  0
VERTEX
  8
0
 10
0.288086
 20
0.682997
 30
0.0
 40
0
 41
0
  0
VERTEX
  8
0
 10
0.293565
 20
0.696072
 30
0.0
 40
0
 41
0
  0
SEQEND
 8
0
  0
POLYLINE
  8
0
 62
     173
 66
     1
 10
0
 20
0
 30
0.0
 70
     1
 40
0
 41
0
  0
VERTEX
  8
0
 10
0.343533
 20
0.596083
 30
0.0
 40
0
 41
0
  0
VERTEX
  8
0
 10
0.338053
 20
0.609213
 30
0.0
 40
0
 41
0
  0
VERTEX
  8
0
 10
0.32601
 20
0.613607
 30
0.0
 40
0
 41
0
  0
VERTEX
  8
0
 10
0.313965
 20
0.609213
 30
0.0
 40
0
 41
0
  0
VERTEX
  8
0
 10
0.308539
 20
0.596083
 30
0.0
 40
0
 41
0
  0
VERTEX
  8
0
 10
0.313965
 20
0.583008
 30
0.0
 40
0
 41
0
  0
VERTEX
  8
0
 10
0.32601
 20
0.578614
 30
0.0
 40
0
 41
0
  0
VERTEX
  8
0
 10
0.338053
 20
0.583008
 30
0.0
 40
0
 41
0
  0
VERTEX
  8
0
 10
0.343533
 20
0.596083
 30
0.0
 40
0
 41
0
  0
SEQEND
 8
0
  0
POLYLINE
  8
0
 62
     173
 66
     1
 10
0
 20
0
 30
0.0
 70
     1
 40
0
 41
0
  0
VERTEX
  8
0
 10
0.393554
 20
0.696072
 30
0.0
 40
0
 41
0
  0
VERTEX
  8
0
 10
0.388075
 20
0.709201
 30
0.0
 40
0
 41
0
  0
VERTEX
  8
0
 10
0.376031
 20
0.713596
 30
0.0
 40
0
 41
0
  0
VERTEX
  8
0
 10
0.363986
 20
0.709201
 30
0.0
 40
0
 41
0
  0
VERTEX
  8
0
 10
0.358561
 20
0.696072
 30
0.0
 40
0
 41
0
  0
VERTEX
  8
0
 10
0.363986
 20
0.682997
 30
0.0
 40
0
 41
0
  0
VERTEX
  8
0
 10
0.376031
 20
0.678603
 30
0.0
 40
0
 41
0
  0
VERTEX
  8
0
 10
0.388075
 20
0.682997
 30
0.0
 40
0
 41
0
  0
VERTEX
  8
0
 10
0.393554
 20
0.696072
 30
0.0
 40
0
 41
0
  0
SEQEND
 8
0
  0
POLYLINE
  8
0
 62
     173
 66
     1
 10
0
 20
0
 30
0.0
 70
     1
 40
0
 41
0
  0
VERTEX
  8
0
 10
0.443576
 20
0.596083
 30
0.0
 40
0
 41
0
  0
VERTEX
  8
0
 10
0.438097
 20
0.609213
 30
0.0
 40
0
 41
0
  0
VERTEX
  8
0
 10
0.426053
 20
0.613607
 30
0.0
 40
0
 41
0
  0
VERTEX
  8
0
 10
0.413954
 20
0.609213
 30
0.0
 40
0
 41
0
  0
VERTEX
  8
0
 10
0.408529
 20
0.596083
 30
0.0
 40
0
 41
0
  0
VERTEX
  8
0
 10
0.413954
 20
0.583008
 30
0.0
 40
0
 41
0
  0
VERTEX
  8
0
 10
0.426053
 20
0.578614
 30
0.0
 40
0
 41
0
  0
VERTEX
  8
0
 10
0.438097
 20
0.583008
 30
0.0
 40
0
 41
0
  0
VERTEX
  8
0
 10
0.443576
 20
0.596083
 30
0.0
 40
0
 41
0
  0
SEQEND
 8
0
  0
POLYLINE
  8
0
 62
     173
 66
     1
 10
0
 20
0
 30
0.0
 70
     1
 40
0
 41
0
  0
VERTEX
  8
0
 10
0.493544
 20
0.696072
 30
0.0
 40
0
 41
0
  0
VERTEX
  8
0
 10
0.488064
 20
0.709201
 30
0.0
 40
0
 41
0
  0
VERTEX
  8
0
 10
0.476019
 20
0.713596
 30
0.0
 40
0
 41
0
  0
VERTEX
  8
0
 10
0.463976
 20
0.709201
 30
0.0
 40
0
 41
0
  0
VERTEX
  8
0
 10
0.45855
 20
0.696072
 30
0.0
 40
0
 41
0
  0
VERTEX
  8
0
 10
0.463976
 20
0.682997
 30
0.0
 40
0
 41
0
  0
VERTEX
  8
0
 10
0.476019
 20
0.678603
 30
0.0
 40
0
 41
0
  0
VERTEX
  8
0
 10
0.488064
 20
0.682997
 30
0.0
 40
0
 41
0
  0
VERTEX
  8
0
 10
0.493544
 20
0.696072
 30
0.0
 40
0
 41
0
  0
SEQEND
 8
0
  0
POLYLINE
  8
0
 62
     173
 66
     1
 10
0
 20
0
 30
0.0
 70
     1
 40
0
 41
0
  0
VERTEX
  8
0
 10
0.543565
 20
0.596083
 30
0.0
 40
0
 41
0
  0
VERTEX
  8
0
 10
0.538086
 20
0.609213
 30
0.0
 40
0
 41
0
  0
VERTEX
  8
0
 10
0.526042
 20
0.613607
 30
0.0
 40
0
 41
0
  0
VERTEX
  8
0
 10
0.513997
 20
0.609213
 30
0.0
 40
0
 41
0
  0
VERTEX
  8
0
 10
0.508572
 20
0.596083
 30
0.0
 40
0
 41
0
  0
VERTEX
  8
0
 10
0.513997
 20
0.583008
 30
0.0
 40
0
 41
0
  0
VERTEX
  8
0
 10
0.526042
 20
0.578614
 30
0.0
 40
0
 41
0
  0
VERTEX
  8
0
 10
0.538086
 20
0.583008
 30
0.0
 40
0
 41
0
  0
VERTEX
  8
0
 10
0.543565
 20
0.596083
 30
0.0
 40
0
 41
0
  0
SEQEND
 8
0
  0
POLYLINE
  8
0
 62
     173
 66
     1
 10
0
 20
0
 30
0.0
 70
     1
 40
0
 41
0
  0
VERTEX
  8
0
 10
0.593533
 20
0.696072
 30
0.0
 40
0
 41
0
  0
VERTEX
  8
0
 10
0.588053
 20
0.709201
 30
0.0
 40
0
 41
0
  0
VERTEX
  8
0
 10
0.57601
 20
0.713596
 30
0.0
 40
0
 41
0
  0
VERTEX
  8
0
 10
0.563965
 20
0.709201
 30
0.0
 40
0
 41
0
  0
VERTEX
  8
0
 10
0.558539
 20
0.696072
 30
0.0
 40
0
 41
0
  0
VERTEX
  8
0
 10
0.563965
 20
0.682997
 30
0.0
 40
0
 41
0
  0
VERTEX
  8
0
 10
0.57601
 20
0.678603
 30
0.0
 40
0
 41
0
  0
VERTEX
  8
0
 10
0.588053
 20
0.682997
 30
0.0
 40
0
 41
0
  0
VERTEX
  8
0
 10
0.593533
 20
0.696072
 30
0.0
 40
0
 41
0
  0
SEQEND
 8
0
  0
POLYLINE
  8
0
 62
     173
 66
     1
 10
0
 20
0
 30
0.0
 70
     1
 40
0
 41
0
  0
VERTEX
  8
0
 10
0.122179
 20
0.225965
 30
0.0
 40
0
 41
0
  0
VERTEX
  8
0
 10
0.112305
 20
0.249621
 30
0.0
 40
0
 41
0
  0
VERTEX
  8
0
 10
0.0906575
 20
0.257542
 30
0.0
 40
0
 41
0
  0
VERTEX
  8
0
 10
0.0689561
 20
0.249621
 30
0.0
 40
0
 41
0
  0
VERTEX
  8
0
 10
0.0591363
 20
0.225965
 30
0.0
 40
0
 41
0
  0
VERTEX
  8
0
 10
0.0689561
 20
0.202365
 30
0.0
 40
0
 41
0
  0
VERTEX
  8
0
 10
0.0906575
 20
0.194499
 30
0.0
 40
0
 41
0
  0
VERTEX
  8
0
 10
0.112305
 20
0.202365
 30
0.0
 40
0
 41
0
  0
VERTEX
  8
0
 10
0.122179
 20
0.225965
 30
0.0
 40
0
 41
0
  0
SEQEND
 8
0
  0
POLYLINE
  8
0
 62
     173
 66
     1
 10
0
 20
0
 30
0.0
 70
     1
 40
0
 41
0
  0
VERTEX
  8
0
 10
0.742133
 20
0.225965
 30
0.0
 40
0
 41
0
  0
VERTEX
  8
0
 10
0.73226
 20
0.249621
 30
0.0
 40
0
 41
0
  0
VERTEX
  8
0
 10
0.710613
 20
0.257542
 30
0.0
 40
0
 41
0
  0
VERTEX
  8
0
 10
0.688965
 20
0.249621
 30
0.0
 40
0
 41
0
  0
VERTEX
  8
0
 10
0.679144
 20
0.225965
 30
0.0
 40
0
 41
0
  0
VERTEX
  8
0
 10
0.688965
 20
0.202365
 30
0.0
 40
0
 41
0
  0
VERTEX
  8
0
 10
0.710613
 20
0.194499
 30
0.0
 40
0
 41
0
  0
VERTEX
  8
0
 10
0.73226
 20
0.202365
 30
0.0
 40
0
 41
0
  0
VERTEX
  8
0
 10
0.742133
 20
0.225965
 30
0.0
 40
0
 41
0
  0
SEQEND
 8
0
  0
POLYLINE
  8
0
 62
     173
 66
     1
 10
0
 20
0
 30
0.0
 70
     1
 40
0
 41
0
  0
VERTEX
  8
0
 10
0.240072
 20
0.346083
 30
0.0
 40
0
 41
0
  0
VERTEX
  8
0
 10
0.234537
 20
0.374132
 30
0.0
 40
0
 41
0
  0
VERTEX
  8
0
 10
0.220053
 20
0.394097
 30
0.0
 40
0
 41
0
  0
VERTEX
  8
0
 10
0.199544
 20
0.406142
 30
0.0
 40
0
 41
0
  0
VERTEX
  8
0
 10
0.176053
 20
0.410101
 30
0.0
 40
0
 41
0
  0
VERTEX
  8
0
 10
0.152507
 20
0.406142
 30
0.0
 40
0
 41
0
  0
VERTEX
  8
0
 10
0.131999
 20
0.394097
 30
0.0
 40
0
 41
0
  0
VERTEX
  8
0
 10
0.117513
 20
0.374132
 30
0.0
 40
0
 41
0
  0
VERTEX
  8
0
 10
0.112033
 20
0.346083
 30
0.0
 40
0
 41
0
  0
VERTEX
  8
0
 10
0.117513
 20
0.318088
 30
0.0
 40
0
 41
0
  0
VERTEX
  8
0
 10
0.131999
 20
0.298122
 30
0.0
 40
0
 41
0
  0
VERTEX
  8
0
 10
0.152507
 20
0.286079
 30
0.0
 40
0
 41
0
  0
VERTEX
  8
0
 10
0.176053
 20
0.282118
 30
0.0
 40
0
 41
0
  0
VERTEX
  8
0
 10
0.199544
 20
0.286079
 30
0.0
 40
0
 41
0
  0
VERTEX
  8
0
 10
0.220053
 20
0.298122
 30
0.0
 40
0
 41
0
  0
VERTEX
  8
0
 10
0.234537
 20
0.318088
 30
0.0
 40
0
 41
0
  0
VERTEX
  8
0
 10
0.240072
 20
0.346083
 30
0.0
 40
0
 41
0
  0
SEQEND
 8
0
  0
POLYLINE
  8
0
 62
     173
 66
     1
 10
0
 20
0
 30
0.0
 70
     1
 40
0
 41
0
  0
VERTEX
  8
0
 10
0.69005
 20
0.346083
 30
0.0
 40
0
 41
0
  0
VERTEX
  8
0
 10
0.684517
 20
0.374132
 30
0.0
 40
0
 41
0
  0
VERTEX
  8
0
 10
0.670031
 20
0.394097
 30
0.0
 40
0
 41
0
  0
VERTEX
  8
0
 10
0.649522
 20
0.406142
 30
0.0
 40
0
 41
0
  0
VERTEX
  8
0
 10
0.626031
 20
0.410101
 30
0.0
 40
0
 41
0
  0
VERTEX
  8
0
 10
0.602539
 20
0.406142
 30
0.0
 40
0
 41
0
  0
VERTEX
  8
0
 10
0.582032
 20
0.394097
 30
0.0
 40
0
 41
0
  0
VERTEX
  8
0
 10
0.567546
 20
0.374132
 30
0.0
 40
0
 41
0
  0
VERTEX
  8
0
 10
0.562067
 20
0.346083
 30
0.0
 40
0
 41
0
  0
VERTEX
  8
0
 10
0.567546
 20
0.318088
 30
0.0
 40
0
 41
0
  0
VERTEX
  8
0
 10
0.582032
 20
0.298122
 30
0.0
 40
0
 41
0
  0
VERTEX
  8
0
 10
0.602539
 20
0.286079
 30
0.0
 40
0
 41
0
  0
VERTEX
  8
0
 10
0.626031
 20
0.282118
 30
0.0
 40
0
 41
0
  0
VERTEX
  8
0
 10
0.649522
 20
0.286079
 30
0.0
 40
0
 41
0
  0
VERTEX
  8
0
 10
0.670031
 20
0.298122
 30
0.0
 40
0
 41
0
  0
VERTEX
  8
0
 10
0.684517
 20
0.318088
 30
0.0
 40
0
 41
0
  0
VERTEX
  8
0
 10
0.69005
 20
0.346083
 30
0.0
 40
0
 41
0
  0
SEQEND
 8
0
  0
ENDSEC
  0
EOF
