<?xml version="1.0" encoding="UTF-8"?>
<svg xmlns="http://www.w3.org/2000/svg" xmlns:xlink="http://www.w3.org/1999/xlink" width="95pt" height="78pt" viewBox="0 0 95 78" version="1.1">
<g id="surface1">
<path style="fill:none;stroke-width:0.012;stroke-linecap:round;stroke-linejoin:miter;stroke:rgb(100%,49.803922%,45.098039%);stroke-opacity:1;stroke-miterlimit:10;" d="M 0.0100227 1.089991 L 1.260023 1.089991 " transform="matrix(72,0,0,-72,1.9854,80.0106)"/>
<path style="fill:none;stroke-width:0.012;stroke-linecap:round;stroke-linejoin:miter;stroke:rgb(100%,49.803922%,45.098039%);stroke-opacity:1;stroke-miterlimit:10;" d="M 1.260023 1.089991 L 1.260023 0.890013 " transform="matrix(72,0,0,-72,1.9854,80.0106)"/>
<path style="fill:none;stroke-width:0.012;stroke-linecap:round;stroke-linejoin:miter;stroke:rgb(100%,49.803922%,45.098039%);stroke-opacity:1;stroke-miterlimit:10;" d="M 1.260023 0.890013 L 1.240003 0.869993 " transform="matrix(72,0,0,-72,1.9854,80.0106)"/>
<path style="fill:none;stroke-width:0.012;stroke-linecap:round;stroke-linejoin:miter;stroke:rgb(100%,49.803922%,45.098039%);stroke-opacity:1;stroke-miterlimit:10;" d="M 1.240003 0.869993 L 0.849975 0.869993 " transform="matrix(72,0,0,-72,1.9854,80.0106)"/>
<path style="fill:none;stroke-width:0.012;stroke-linecap:round;stroke-linejoin:miter;stroke:rgb(100%,49.803922%,45.098039%);stroke-opacity:1;stroke-miterlimit:10;" d="M 0.0299879 0.0599888 L 0.0299879 0.869993 " transform="matrix(72,0,0,-72,1.9854,80.0106)"/>
<path style="fill:none;stroke-width:0.012;stroke-linecap:round;stroke-linejoin:miter;stroke:rgb(100%,49.803922%,45.098039%);stroke-opacity:1;stroke-miterlimit:10;" d="M 0.0299879 0.869993 L 0.0100227 0.890013 " transform="matrix(72,0,0,-72,1.9854,80.0106)"/>
<path style="fill:none;stroke-width:0.012;stroke-linecap:round;stroke-linejoin:miter;stroke:rgb(100%,49.803922%,45.098039%);stroke-opacity:1;stroke-miterlimit:10;" d="M 0.0100227 0.890013 L 0.0100227 1.089991 " transform="matrix(72,0,0,-72,1.9854,80.0106)"/>
<path style="fill:none;stroke-width:0.012;stroke-linecap:round;stroke-linejoin:miter;stroke:rgb(100%,49.803922%,45.098039%);stroke-opacity:1;stroke-miterlimit:10;" d="M 0.849975 0.869993 L 0.790025 0.809989 " transform="matrix(72,0,0,-72,1.9854,80.0106)"/>
<path style="fill:none;stroke-width:0.012;stroke-linecap:round;stroke-linejoin:miter;stroke:rgb(100%,49.803922%,45.098039%);stroke-opacity:1;stroke-miterlimit:10;" d="M 0.790025 0.809989 L 0.790025 0.0599888 " transform="matrix(72,0,0,-72,1.9854,80.0106)"/>
<path style="fill:none;stroke-width:0.012;stroke-linecap:round;stroke-linejoin:miter;stroke:rgb(100%,49.803922%,45.098039%);stroke-opacity:1;stroke-miterlimit:10;" d="M 0.790025 0.0599888 L 0.0299879 0.0599888 " transform="matrix(72,0,0,-72,1.9854,80.0106)"/>
<path style=" stroke:none;fill-rule:evenodd;fill:rgb(45.098039%,45.098039%,87.058824%);fill-opacity:1;" d="M 11.09375 18.089844 C 11.09375 17.464844 10.15625 17.464844 10.15625 18.089844 C 10.15625 18.714844 11.09375 18.714844 11.09375 18.089844 "/>
<path style=" stroke:none;fill-rule:evenodd;fill:rgb(45.098039%,45.098039%,87.058824%);fill-opacity:1;" d="M 8.753906 8.011719 C 8.753906 6.667969 6.738281 6.667969 6.738281 8.011719 C 6.738281 9.355469 8.753906 9.355469 8.753906 8.011719 "/>
<path style=" stroke:none;fill-rule:evenodd;fill:rgb(45.098039%,45.098039%,87.058824%);fill-opacity:1;" d="M 15.953125 8.011719 C 15.953125 6.667969 13.9375 6.667969 13.9375 8.011719 C 13.9375 9.355469 15.953125 9.355469 15.953125 8.011719 "/>
<path style=" stroke:none;fill-rule:evenodd;fill:rgb(45.098039%,45.098039%,87.058824%);fill-opacity:1;" d="M 23.152344 8.011719 C 23.152344 6.667969 21.136719 6.667969 21.136719 8.011719 C 21.136719 9.355469 23.152344 9.355469 23.152344 8.011719 "/>
<path style=" stroke:none;fill-rule:evenodd;fill:rgb(45.098039%,45.098039%,87.058824%);fill-opacity:1;" d="M 30.351562 8.011719 C 30.351562 6.667969 28.335938 6.667969 28.335938 8.011719 C 28.335938 9.355469 30.351562 9.355469 30.351562 8.011719 "/>
<path style=" stroke:none;fill-rule:evenodd;fill:rgb(45.098039%,45.098039%,87.058824%);fill-opacity:1;" d="M 37.554688 8.011719 C 37.554688 6.667969 35.539062 6.667969 35.539062 8.011719 C 35.539062 9.355469 37.554688 9.355469 37.554688 8.011719 "/>
<path style=" stroke:none;fill-rule:evenodd;fill:rgb(45.098039%,45.098039%,87.058824%);fill-opacity:1;" d="M 44.753906 8.011719 C 44.753906 6.667969 42.738281 6.667969 42.738281 8.011719 C 42.738281 9.355469 44.753906 9.355469 44.753906 8.011719 "/>
<path style=" stroke:none;fill-rule:evenodd;fill:rgb(45.098039%,45.098039%,87.058824%);fill-opacity:1;" d="M 51.953125 8.011719 C 51.953125 6.667969 49.9375 6.667969 49.9375 8.011719 C 49.9375 9.355469 51.953125 9.355469 51.953125 8.011719 "/>
<path style=" stroke:none;fill-rule:evenodd;fill:rgb(45.098039%,45.098039%,87.058824%);fill-opacity:1;" d="M 59.152344 8.011719 C 59.152344 6.667969 57.136719 6.667969 57.136719 8.011719 C 57.136719 9.355469 59.152344 9.355469 59.152344 8.011719 "/>
<path style=" stroke:none;fill-rule:evenodd;fill:rgb(45.098039%,45.098039%,87.058824%);fill-opacity:1;" d="M 66.351562 8.011719 C 66.351562 6.667969 64.335938 6.667969 64.335938 8.011719 C 64.335938 9.355469 66.351562 9.355469 66.351562 8.011719 "/>
<path style=" stroke:none;fill-rule:evenodd;fill:rgb(45.098039%,45.098039%,87.058824%);fill-opacity:1;" d="M 73.554688 8.011719 C 73.554688 6.667969 71.539062 6.667969 71.539062 8.011719 C 71.539062 9.355469 73.554688 9.355469 73.554688 8.011719 "/>
<path style=" stroke:none;fill-rule:evenodd;fill:rgb(45.098039%,45.098039%,87.058824%);fill-opacity:1;" d="M 80.753906 8.011719 C 80.753906 6.667969 78.738281 6.667969 78.738281 8.011719 C 78.738281 9.355469 80.753906 9.355469 80.753906 8.011719 "/>
<path style=" stroke:none;fill-rule:evenodd;fill:rgb(45.098039%,45.098039%,87.058824%);fill-opacity:1;" d="M 87.953125 8.011719 C 87.953125 6.667969 85.9375 6.667969 85.9375 8.011719 C 85.9375 9.355469 87.953125 9.355469 87.953125 8.011719 "/>
<path style=" stroke:none;fill-rule:evenodd;fill:rgb(45.098039%,45.098039%,87.058824%);fill-opacity:1;" d="M 19.804688 33.210938 C 19.804688 31.53125 17.285156 31.53125 17.285156 33.210938 C 17.285156 34.890625 19.804688 34.890625 19.804688 33.210938 "/>
<path style=" stroke:none;fill-rule:evenodd;fill:rgb(45.098039%,45.098039%,87.058824%);fill-opacity:1;" d="M 23.40625 26.011719 C 23.40625 24.332031 20.886719 24.332031 20.886719 26.011719 C 20.886719 27.691406 23.40625 27.691406 23.40625 26.011719 "/>
<path style=" stroke:none;fill-rule:evenodd;fill:rgb(45.098039%,45.098039%,87.058824%);fill-opacity:1;" d="M 27.003906 33.210938 C 27.003906 31.53125 24.484375 31.53125 24.484375 33.210938 C 24.484375 34.890625 27.003906 34.890625 27.003906 33.210938 "/>
<path style=" stroke:none;fill-rule:evenodd;fill:rgb(45.098039%,45.098039%,87.058824%);fill-opacity:1;" d="M 30.605469 26.011719 C 30.605469 24.332031 28.085938 24.332031 28.085938 26.011719 C 28.085938 27.691406 30.605469 27.691406 30.605469 26.011719 "/>
<path style=" stroke:none;fill-rule:evenodd;fill:rgb(45.098039%,45.098039%,87.058824%);fill-opacity:1;" d="M 34.207031 33.210938 C 34.207031 31.53125 31.683594 31.53125 31.683594 33.210938 C 31.683594 34.890625 34.207031 34.890625 34.207031 33.210938 "/>
<path style=" stroke:none;fill-rule:evenodd;fill:rgb(45.098039%,45.098039%,87.058824%);fill-opacity:1;" d="M 37.804688 26.011719 C 37.804688 24.332031 35.285156 24.332031 35.285156 26.011719 C 35.285156 27.691406 37.804688 27.691406 37.804688 26.011719 "/>
<path style=" stroke:none;fill-rule:evenodd;fill:rgb(45.098039%,45.098039%,87.058824%);fill-opacity:1;" d="M 41.40625 33.210938 C 41.40625 31.53125 38.886719 31.53125 38.886719 33.210938 C 38.886719 34.890625 41.40625 34.890625 41.40625 33.210938 "/>
<path style=" stroke:none;fill-rule:evenodd;fill:rgb(45.098039%,45.098039%,87.058824%);fill-opacity:1;" d="M 45.003906 26.011719 C 45.003906 24.332031 42.484375 24.332031 42.484375 26.011719 C 42.484375 27.691406 45.003906 27.691406 45.003906 26.011719 "/>
<path style=" stroke:none;fill-rule:evenodd;fill:rgb(45.098039%,45.098039%,87.058824%);fill-opacity:1;" d="M 11.066406 59.859375 C 11.066406 56.832031 6.527344 56.832031 6.527344 59.859375 C 6.527344 62.882812 11.066406 62.882812 11.066406 59.859375 "/>
<path style=" stroke:none;fill-rule:evenodd;fill:rgb(45.098039%,45.098039%,87.058824%);fill-opacity:1;" d="M 55.703125 59.859375 C 55.703125 56.832031 51.167969 56.832031 51.167969 59.859375 C 51.167969 62.882812 55.703125 62.882812 55.703125 59.859375 "/>
<path style=" stroke:none;fill-rule:evenodd;fill:rgb(45.098039%,45.098039%,87.058824%);fill-opacity:1;" d="M 19.554688 51.210938 C 19.554688 45.066406 10.335938 45.066406 10.335938 51.210938 C 10.335938 57.355469 19.554688 57.355469 19.554688 51.210938 "/>
<path style=" stroke:none;fill-rule:evenodd;fill:rgb(45.098039%,45.098039%,87.058824%);fill-opacity:1;" d="M 51.953125 51.210938 C 51.953125 45.066406 42.738281 45.066406 42.738281 51.210938 C 42.738281 57.355469 51.953125 57.355469 51.953125 51.210938 "/>
</g>
</svg>
