G04 start of page 13 for group -4079 idx -4079 *
G04 Title: (unknown), topsilk *
G04 Creator: pcb 4.2.0 *
G04 CreationDate: Sat Jul  4 21:02:03 2020 UTC *
G04 For: commonadmin *
G04 Format: Gerber/RS-274X *
G04 PCB-Dimensions (mil): 3500.00 8250.00 *
G04 PCB-Coordinate-Origin: lower left *
%MOIN*%
%FSLAX25Y25*%
%LNTOPSILK*%
%ADD206C,0.0250*%
%ADD205C,0.0080*%
%ADD204C,0.0060*%
%ADD203C,0.0040*%
%ADD202C,0.0100*%
G54D202*X87000Y603000D02*Y523000D01*
X97000D01*
Y603000D01*
X87000D01*
Y593000D02*X97000D01*
Y603000D01*
X116500D02*Y523000D01*
X126500D01*
Y603000D01*
X116500D01*
Y593000D02*X126500D01*
Y603000D01*
X185500Y563000D02*Y543000D01*
X205500D01*
Y563000D01*
X185500D01*
Y553000D02*X195500D01*
Y563000D01*
G54D203*X171636Y544920D02*X172016Y544540D01*
X173156D02*Y543400D01*
X172776Y544920D02*X173156Y544540D01*
X172396Y544920D02*X172776D01*
X172016Y544540D02*X172396Y544920D01*
X172016Y544540D02*Y543400D01*
X170876Y544540D02*Y543400D01*
Y545680D02*Y545604D01*
X168444Y543780D02*X168824Y543400D01*
X169584D01*
X169964Y543780D01*
Y544540D02*Y543780D01*
X169584Y544920D02*X169964Y544540D01*
X168824Y544920D02*X169584D01*
X168444Y544540D02*X168824Y544920D01*
X168444Y544540D02*Y543780D01*
X167304Y542259D02*X167684Y542639D01*
Y544540D02*Y542639D01*
Y545680D02*Y545604D01*
G54D204*X174300Y547200D02*Y542200D01*
X166300Y547200D02*Y542200D01*
Y547200D02*X174300D01*
X166300Y542200D02*X174300D01*
G54D203*X176139Y557918D02*X176519Y557537D01*
X177659D02*Y556398D01*
X177278Y557918D02*X177659Y557537D01*
X176898Y557918D02*X177278D01*
X176519Y557537D02*X176898Y557918D01*
X176519Y557537D02*Y556398D01*
X175378Y557537D02*Y556398D01*
Y558678D02*Y558602D01*
X172946Y556778D02*X173326Y556398D01*
X174087D01*
X174467Y556778D01*
Y557537D02*Y556778D01*
X174087Y557918D02*X174467Y557537D01*
X173326Y557918D02*X174087D01*
X172946Y557537D02*X173326Y557918D01*
X172946Y557537D02*Y556778D01*
X171806Y555257D02*X172187Y555637D01*
Y557537D02*Y555637D01*
Y558678D02*Y558602D01*
X168994Y556778D02*X169374Y556398D01*
X170515Y557918D02*X170894Y557537D01*
X169374Y557918D02*X170515D01*
X168994Y557537D02*X169374Y557918D01*
X168994Y557537D02*X169374Y557157D01*
X170515D01*
X170894Y556778D01*
X170515Y556398D02*X170894Y556778D01*
X169374Y556398D02*X170515D01*
X168235Y557537D02*Y556398D01*
Y558678D02*Y558602D01*
X166943Y557918D02*X167322Y557537D01*
X166182Y557918D02*X166943D01*
X165802Y557537D02*X166182Y557918D01*
X165802Y557537D02*Y556778D01*
X166182Y556398D01*
X166943D01*
X167322Y556778D01*
Y559437D02*Y556398D01*
G54D204*X164802Y555198D02*X178802D01*
X164802Y560198D02*Y555198D01*
Y560198D02*X178802D01*
Y555198D01*
X73407Y716050D02*X74207Y716850D01*
X69907Y716050D02*X73407D01*
X69207Y716750D02*X69907Y716050D01*
X70007Y720050D02*X69307Y719350D01*
X70007Y720050D02*X73507D01*
X74207Y719350D02*X73507Y720050D01*
X58980Y732000D02*Y731213D01*
Y729835D02*Y729047D01*
X57799Y729835D02*X60161D01*
X57996Y731213D02*X59965D01*
X58980Y730228D02*X57996Y731213D01*
X59965D02*X58980Y730228D01*
X60039Y685917D02*X59055Y684933D01*
X58071Y685917D01*
X60039D01*
X57874Y684539D02*X60236D01*
X59055D02*Y683752D01*
Y686705D02*Y685917D01*
G54D202*X32957Y694008D02*X40043D01*
X32957Y721961D02*X40043D01*
G54D204*X32957Y729638D02*Y686528D01*
X40043Y729638D02*Y686528D01*
X36500Y708772D02*Y707197D01*
X35713Y707984D02*X37287D01*
X6972Y739874D02*X8941D01*
X6972D02*Y737906D01*
Y676094D02*X8941D01*
X6972Y678063D02*Y676094D01*
X64059Y739874D02*X66028D01*
Y737906D01*
X64059Y676094D02*X66028D01*
Y678063D02*Y676094D01*
X31382Y690858D02*X30398Y689874D01*
Y690858D02*X31382Y689874D01*
G54D205*X72607Y729255D02*X73393D01*
X72607Y723745D02*X73393D01*
G54D202*X142000Y736000D02*Y676000D01*
X162000D01*
Y736000D01*
X142000D01*
G54D204*X147000Y731000D02*Y681000D01*
X157000Y731000D02*Y681000D01*
X152000Y676000D02*Y686000D01*
X162000D01*
X152000Y726000D02*X142000D01*
X152000D02*Y736000D01*
X127500Y686000D02*Y676000D01*
Y686000D02*X137500D01*
X117500Y726000D02*X127500D01*
Y736000D02*Y726000D01*
X122500Y731000D02*Y681000D01*
X132500Y731000D02*Y681000D01*
G54D202*X117500Y676000D02*X137500D01*
X117500Y736000D02*Y676000D01*
Y736000D02*X137500D01*
Y676000D01*
X179000Y813236D02*Y808906D01*
X184906Y803000D02*X189236D01*
G54D204*X167189D02*G75*G03X179000Y791189I11811J0D01*G01*
Y814811D02*G75*G03X167189Y803000I0J-11811D01*G01*
X190811Y803000D02*G75*G03X179000Y814811I-11811J0D01*G01*
Y791189D02*G75*G03X190811Y803000I0J11811D01*G01*
X179000Y787252D02*G75*G03X194748Y803000I0J15748D01*G01*
Y803000D02*G75*G03X179000Y818748I-15748J0D01*G01*
G75*G03X163252Y803000I0J-15748D01*G01*
Y803000D02*G75*G03X179000Y787252I15748J0D01*G01*
G54D202*X198685Y803000D02*G75*G03X179000Y822685I-19685J0D01*G01*
G75*G03X159315Y803000I0J-19685D01*G01*
Y803000D02*G75*G03X179000Y783315I19685J0D01*G01*
G75*G03X198685Y803000I0J19685D01*G01*
X222500Y477500D02*X222000Y478000D01*
X212500Y487500D02*X213000Y487000D01*
X212500Y477500D02*X213000Y478000D01*
X222500Y487500D02*X222000Y487000D01*
X212500Y812500D02*X213000Y812000D01*
X212500Y802500D02*X213000Y803000D01*
X222500Y812500D02*X222000Y812000D01*
X222500Y802500D02*X222000Y803000D01*
X213000Y823000D02*X222000D01*
X213000Y467000D02*X222000D01*
X217500Y645000D02*X232500D01*
Y646000D02*Y644000D01*
X207500Y646000D02*Y644000D01*
X257500Y646000D02*Y644000D01*
X247500Y823000D02*X257500D01*
Y813000D01*
X247500Y467000D02*X257500D01*
Y477000D02*Y467000D01*
X207500Y477000D02*Y467000D01*
Y823000D02*Y813000D01*
G54D204*X91563Y777217D02*X99437D01*
X91563Y741783D02*X99437D01*
X6917Y763437D02*Y755563D01*
X184083Y763437D02*Y755563D01*
Y777217D02*Y769343D01*
Y777217D02*X176209D01*
X184083Y741783D02*Y749657D01*
Y741783D02*X176209D01*
X6917Y777217D02*X14791D01*
X6917D02*Y769343D01*
Y741783D02*Y749657D01*
Y741783D02*X14791D01*
G54D205*X92107Y730255D02*X92893D01*
X92107Y724745D02*X92893D01*
G54D202*X6571Y812748D02*Y780858D01*
X68382D01*
Y812748D01*
X6571D01*
X61689D02*X68382Y806055D01*
X61689Y780858D02*X68382Y787551D01*
X23500Y812748D02*Y780858D01*
X51846Y812748D02*Y780858D01*
X6571Y797000D02*X68382D01*
G54D206*X82283Y808661D02*Y804724D01*
Y808661D02*X78740Y812205D01*
X77291Y804205D02*X82283D01*
X72835Y808268D02*X73228D01*
X77291Y804205D02*X73228Y808268D01*
X97047Y808661D02*Y804724D01*
Y808661D02*X93504Y812205D01*
X92055Y804205D02*X97047D01*
X87598Y808268D02*X87992D01*
X92055Y804205D02*X87992Y808268D01*
G54D202*X8000Y563000D02*Y543000D01*
X28000D01*
Y563000D01*
X8000D01*
Y553000D02*X18000D01*
Y563000D01*
X161500Y50000D02*Y46000D01*
X151500Y50000D02*Y46000D01*
X141500Y50000D02*Y46000D01*
X131500Y50000D02*Y46000D01*
X121500Y50000D02*Y46000D01*
X92000Y50000D02*Y46000D01*
X82000Y50000D02*Y46000D01*
X72000Y50000D02*Y46000D01*
X62000Y50000D02*Y46000D01*
X52000Y50000D02*Y46000D01*
X121500Y48000D02*X161500D01*
X52000D02*X92000D01*
X161500Y60000D02*Y56000D01*
X151500Y60000D02*Y56000D01*
X141500Y60000D02*Y56000D01*
X131500Y60000D02*Y56000D01*
X121500Y60000D02*Y56000D01*
X92000Y60000D02*Y56000D01*
X82000Y60000D02*Y56000D01*
X72000Y60000D02*Y56000D01*
X62000Y60000D02*Y56000D01*
X52000Y60000D02*Y56000D01*
X121500Y58000D02*X161500D01*
X52000D02*X92000D01*
X161500Y100000D02*Y96000D01*
X151500Y100000D02*Y96000D01*
X141500Y100000D02*Y96000D01*
X131500Y100000D02*Y96000D01*
X121500Y100000D02*Y96000D01*
X92000Y100000D02*Y96000D01*
X82000Y100000D02*Y96000D01*
X72000Y100000D02*Y96000D01*
X62000Y100000D02*Y96000D01*
X52000Y100000D02*Y96000D01*
X121500Y98000D02*X161500D01*
X52000D02*X92000D01*
X25000Y78000D02*X28000D01*
X25000Y128000D02*X28000D01*
X25000Y178000D02*X28000D01*
X25000Y228000D02*X28000D01*
X25000Y278000D02*X28000D01*
X25000Y328000D02*X28000D01*
X25000Y378000D02*X28000D01*
X25000Y428000D02*X28000D01*
X25000Y478000D02*X28000D01*
X25000Y528000D02*X28000D01*
X25000Y578000D02*X28000D01*
X25000Y628000D02*X28000D01*
X25000Y668000D02*X28000D01*
X161500Y70000D02*Y66000D01*
X151500Y70000D02*Y66000D01*
X141500Y70000D02*Y66000D01*
X131500Y70000D02*Y66000D01*
X121500Y70000D02*Y66000D01*
X92000Y70000D02*Y66000D01*
X82000Y70000D02*Y66000D01*
X72000Y70000D02*Y66000D01*
X62000Y70000D02*Y66000D01*
X52000Y70000D02*Y66000D01*
X121500Y68000D02*X161500D01*
X52000D02*X92000D01*
X161500Y80000D02*Y76000D01*
X151500Y80000D02*Y76000D01*
X141500Y80000D02*Y76000D01*
X131500Y80000D02*Y76000D01*
X121500Y80000D02*Y76000D01*
X92000Y80000D02*Y76000D01*
X82000Y80000D02*Y76000D01*
X72000Y80000D02*Y76000D01*
X62000Y80000D02*Y76000D01*
X52000Y80000D02*Y76000D01*
X121500Y78000D02*X161500D01*
X52000D02*X92000D01*
X161500Y90000D02*Y86000D01*
X151500Y90000D02*Y86000D01*
X141500Y90000D02*Y86000D01*
X131500Y90000D02*Y86000D01*
X121500Y90000D02*Y86000D01*
X92000Y90000D02*Y86000D01*
X82000Y90000D02*Y86000D01*
X72000Y90000D02*Y86000D01*
X62000Y90000D02*Y86000D01*
X52000Y90000D02*Y86000D01*
X121500Y88000D02*X161500D01*
X52000D02*X92000D01*
X161500Y110000D02*Y106000D01*
X151500Y110000D02*Y106000D01*
X141500Y110000D02*Y106000D01*
X131500Y110000D02*Y106000D01*
X121500Y110000D02*Y106000D01*
X92000Y110000D02*Y106000D01*
X82000Y110000D02*Y106000D01*
X72000Y110000D02*Y106000D01*
X62000Y110000D02*Y106000D01*
X52000Y110000D02*Y106000D01*
X121500Y108000D02*X161500D01*
X52000D02*X92000D01*
X161500Y120000D02*Y116000D01*
X151500Y120000D02*Y116000D01*
X141500Y120000D02*Y116000D01*
X131500Y120000D02*Y116000D01*
X121500Y120000D02*Y116000D01*
X92000Y120000D02*Y116000D01*
X82000Y120000D02*Y116000D01*
X72000Y120000D02*Y116000D01*
X62000Y120000D02*Y116000D01*
X52000Y120000D02*Y116000D01*
X121500Y118000D02*X161500D01*
X52000D02*X92000D01*
X161500Y130000D02*Y126000D01*
X151500Y130000D02*Y126000D01*
X141500Y130000D02*Y126000D01*
X131500Y130000D02*Y126000D01*
X121500Y130000D02*Y126000D01*
X92000Y130000D02*Y126000D01*
X82000Y130000D02*Y126000D01*
X72000Y130000D02*Y126000D01*
X62000Y130000D02*Y126000D01*
X52000Y130000D02*Y126000D01*
X121500Y128000D02*X161500D01*
X52000D02*X92000D01*
X161500Y140000D02*Y136000D01*
X151500Y140000D02*Y136000D01*
X141500Y140000D02*Y136000D01*
X131500Y140000D02*Y136000D01*
X121500Y140000D02*Y136000D01*
X92000Y140000D02*Y136000D01*
X82000Y140000D02*Y136000D01*
X72000Y140000D02*Y136000D01*
X62000Y140000D02*Y136000D01*
X52000Y140000D02*Y136000D01*
X121500Y138000D02*X161500D01*
X52000D02*X92000D01*
X161500Y150000D02*Y146000D01*
X151500Y150000D02*Y146000D01*
X141500Y150000D02*Y146000D01*
X131500Y150000D02*Y146000D01*
X121500Y150000D02*Y146000D01*
X92000Y150000D02*Y146000D01*
X82000Y150000D02*Y146000D01*
X72000Y150000D02*Y146000D01*
X62000Y150000D02*Y146000D01*
X52000Y150000D02*Y146000D01*
X121500Y148000D02*X161500D01*
X52000D02*X92000D01*
X161500Y160000D02*Y156000D01*
X151500Y160000D02*Y156000D01*
X141500Y160000D02*Y156000D01*
X131500Y160000D02*Y156000D01*
X121500Y160000D02*Y156000D01*
X92000Y160000D02*Y156000D01*
X82000Y160000D02*Y156000D01*
X72000Y160000D02*Y156000D01*
X62000Y160000D02*Y156000D01*
X52000Y160000D02*Y156000D01*
X121500Y158000D02*X161500D01*
X52000D02*X92000D01*
X161500Y170000D02*Y166000D01*
X151500Y170000D02*Y166000D01*
X141500Y170000D02*Y166000D01*
X131500Y170000D02*Y166000D01*
X121500Y170000D02*Y166000D01*
X92000Y170000D02*Y166000D01*
X82000Y170000D02*Y166000D01*
X72000Y170000D02*Y166000D01*
X62000Y170000D02*Y166000D01*
X52000Y170000D02*Y166000D01*
X121500Y168000D02*X161500D01*
X52000D02*X92000D01*
X161500Y180000D02*Y176000D01*
X151500Y180000D02*Y176000D01*
X141500Y180000D02*Y176000D01*
X131500Y180000D02*Y176000D01*
X121500Y180000D02*Y176000D01*
X92000Y180000D02*Y176000D01*
X82000Y180000D02*Y176000D01*
X72000Y180000D02*Y176000D01*
X62000Y180000D02*Y176000D01*
X52000Y180000D02*Y176000D01*
X121500Y178000D02*X161500D01*
X52000D02*X92000D01*
X161500Y190000D02*Y186000D01*
X151500Y190000D02*Y186000D01*
X141500Y190000D02*Y186000D01*
X131500Y190000D02*Y186000D01*
X121500Y190000D02*Y186000D01*
X92000Y190000D02*Y186000D01*
X82000Y190000D02*Y186000D01*
X72000Y190000D02*Y186000D01*
X62000Y190000D02*Y186000D01*
X52000Y190000D02*Y186000D01*
X121500Y188000D02*X161500D01*
X52000D02*X92000D01*
X161500Y200000D02*Y196000D01*
X151500Y200000D02*Y196000D01*
X141500Y200000D02*Y196000D01*
X131500Y200000D02*Y196000D01*
X121500Y200000D02*Y196000D01*
X92000Y200000D02*Y196000D01*
X82000Y200000D02*Y196000D01*
X72000Y200000D02*Y196000D01*
X62000Y200000D02*Y196000D01*
X52000Y200000D02*Y196000D01*
X121500Y198000D02*X161500D01*
X52000D02*X92000D01*
X161500Y210000D02*Y206000D01*
X151500Y210000D02*Y206000D01*
X141500Y210000D02*Y206000D01*
X131500Y210000D02*Y206000D01*
X121500Y210000D02*Y206000D01*
X92000Y210000D02*Y206000D01*
X82000Y210000D02*Y206000D01*
X72000Y210000D02*Y206000D01*
X62000Y210000D02*Y206000D01*
X52000Y210000D02*Y206000D01*
X121500Y208000D02*X161500D01*
X52000D02*X92000D01*
X161500Y220000D02*Y216000D01*
X151500Y220000D02*Y216000D01*
X141500Y220000D02*Y216000D01*
X131500Y220000D02*Y216000D01*
X121500Y220000D02*Y216000D01*
X92000Y220000D02*Y216000D01*
X82000Y220000D02*Y216000D01*
X72000Y220000D02*Y216000D01*
X62000Y220000D02*Y216000D01*
X52000Y220000D02*Y216000D01*
X121500Y218000D02*X161500D01*
X52000D02*X92000D01*
X161500Y230000D02*Y226000D01*
X151500Y230000D02*Y226000D01*
X141500Y230000D02*Y226000D01*
X131500Y230000D02*Y226000D01*
X121500Y230000D02*Y226000D01*
X92000Y230000D02*Y226000D01*
X82000Y230000D02*Y226000D01*
X72000Y230000D02*Y226000D01*
X62000Y230000D02*Y226000D01*
X52000Y230000D02*Y226000D01*
X121500Y228000D02*X161500D01*
X52000D02*X92000D01*
X161500Y240000D02*Y236000D01*
X151500Y240000D02*Y236000D01*
X141500Y240000D02*Y236000D01*
X131500Y240000D02*Y236000D01*
X121500Y240000D02*Y236000D01*
X92000Y240000D02*Y236000D01*
X82000Y240000D02*Y236000D01*
X72000Y240000D02*Y236000D01*
X62000Y240000D02*Y236000D01*
X52000Y240000D02*Y236000D01*
X121500Y238000D02*X161500D01*
X52000D02*X92000D01*
X161500Y250000D02*Y246000D01*
X151500Y250000D02*Y246000D01*
X141500Y250000D02*Y246000D01*
X131500Y250000D02*Y246000D01*
X121500Y250000D02*Y246000D01*
X92000Y250000D02*Y246000D01*
X82000Y250000D02*Y246000D01*
X72000Y250000D02*Y246000D01*
X62000Y250000D02*Y246000D01*
X52000Y250000D02*Y246000D01*
X121500Y248000D02*X161500D01*
X52000D02*X92000D01*
X161500Y260000D02*Y256000D01*
X151500Y260000D02*Y256000D01*
X141500Y260000D02*Y256000D01*
X131500Y260000D02*Y256000D01*
X121500Y260000D02*Y256000D01*
X92000Y260000D02*Y256000D01*
X82000Y260000D02*Y256000D01*
X72000Y260000D02*Y256000D01*
X62000Y260000D02*Y256000D01*
X52000Y260000D02*Y256000D01*
X121500Y258000D02*X161500D01*
X52000D02*X92000D01*
X161500Y270000D02*Y266000D01*
X151500Y270000D02*Y266000D01*
X141500Y270000D02*Y266000D01*
X131500Y270000D02*Y266000D01*
X121500Y270000D02*Y266000D01*
X92000Y270000D02*Y266000D01*
X82000Y270000D02*Y266000D01*
X72000Y270000D02*Y266000D01*
X62000Y270000D02*Y266000D01*
X52000Y270000D02*Y266000D01*
X121500Y268000D02*X161500D01*
X52000D02*X92000D01*
X161500Y280000D02*Y276000D01*
X151500Y280000D02*Y276000D01*
X141500Y280000D02*Y276000D01*
X131500Y280000D02*Y276000D01*
X121500Y280000D02*Y276000D01*
X92000Y280000D02*Y276000D01*
X82000Y280000D02*Y276000D01*
X72000Y280000D02*Y276000D01*
X62000Y280000D02*Y276000D01*
X52000Y280000D02*Y276000D01*
X121500Y278000D02*X161500D01*
X52000D02*X92000D01*
X161500Y290000D02*Y286000D01*
X151500Y290000D02*Y286000D01*
X141500Y290000D02*Y286000D01*
X131500Y290000D02*Y286000D01*
X121500Y290000D02*Y286000D01*
X92000Y290000D02*Y286000D01*
X82000Y290000D02*Y286000D01*
X72000Y290000D02*Y286000D01*
X62000Y290000D02*Y286000D01*
X52000Y290000D02*Y286000D01*
X121500Y288000D02*X161500D01*
X52000D02*X92000D01*
X161500Y300000D02*Y296000D01*
X151500Y300000D02*Y296000D01*
X141500Y300000D02*Y296000D01*
X131500Y300000D02*Y296000D01*
X121500Y300000D02*Y296000D01*
X92000Y300000D02*Y296000D01*
X82000Y300000D02*Y296000D01*
X72000Y300000D02*Y296000D01*
X62000Y300000D02*Y296000D01*
X52000Y300000D02*Y296000D01*
X121500Y298000D02*X161500D01*
X52000D02*X92000D01*
X161500Y310000D02*Y306000D01*
X151500Y310000D02*Y306000D01*
X141500Y310000D02*Y306000D01*
X131500Y310000D02*Y306000D01*
X121500Y310000D02*Y306000D01*
X92000Y310000D02*Y306000D01*
X82000Y310000D02*Y306000D01*
X72000Y310000D02*Y306000D01*
X62000Y310000D02*Y306000D01*
X52000Y310000D02*Y306000D01*
X121500Y308000D02*X161500D01*
X52000D02*X92000D01*
X161500Y320000D02*Y316000D01*
X151500Y320000D02*Y316000D01*
X141500Y320000D02*Y316000D01*
X131500Y320000D02*Y316000D01*
X121500Y320000D02*Y316000D01*
X92000Y320000D02*Y316000D01*
X82000Y320000D02*Y316000D01*
X72000Y320000D02*Y316000D01*
X62000Y320000D02*Y316000D01*
X52000Y320000D02*Y316000D01*
X121500Y318000D02*X161500D01*
X52000D02*X92000D01*
X161500Y330000D02*Y326000D01*
X151500Y330000D02*Y326000D01*
X141500Y330000D02*Y326000D01*
X131500Y330000D02*Y326000D01*
X121500Y330000D02*Y326000D01*
X92000Y330000D02*Y326000D01*
X82000Y330000D02*Y326000D01*
X72000Y330000D02*Y326000D01*
X62000Y330000D02*Y326000D01*
X52000Y330000D02*Y326000D01*
X121500Y328000D02*X161500D01*
X52000D02*X92000D01*
X161500Y340000D02*Y336000D01*
X151500Y340000D02*Y336000D01*
X141500Y340000D02*Y336000D01*
X131500Y340000D02*Y336000D01*
X121500Y340000D02*Y336000D01*
X92000Y340000D02*Y336000D01*
X82000Y340000D02*Y336000D01*
X72000Y340000D02*Y336000D01*
X62000Y340000D02*Y336000D01*
X52000Y340000D02*Y336000D01*
X121500Y338000D02*X161500D01*
X52000D02*X92000D01*
X161500Y350000D02*Y346000D01*
X151500Y350000D02*Y346000D01*
X141500Y350000D02*Y346000D01*
X131500Y350000D02*Y346000D01*
X121500Y350000D02*Y346000D01*
X92000Y350000D02*Y346000D01*
X82000Y350000D02*Y346000D01*
X72000Y350000D02*Y346000D01*
X62000Y350000D02*Y346000D01*
X52000Y350000D02*Y346000D01*
X121500Y348000D02*X161500D01*
X52000D02*X92000D01*
X161500Y360000D02*Y356000D01*
X151500Y360000D02*Y356000D01*
X141500Y360000D02*Y356000D01*
X131500Y360000D02*Y356000D01*
X121500Y360000D02*Y356000D01*
X92000Y360000D02*Y356000D01*
X82000Y360000D02*Y356000D01*
X72000Y360000D02*Y356000D01*
X62000Y360000D02*Y356000D01*
X52000Y360000D02*Y356000D01*
X121500Y358000D02*X161500D01*
X52000D02*X92000D01*
X161500Y370000D02*Y366000D01*
X151500Y370000D02*Y366000D01*
X141500Y370000D02*Y366000D01*
X131500Y370000D02*Y366000D01*
X121500Y370000D02*Y366000D01*
X92000Y370000D02*Y366000D01*
X82000Y370000D02*Y366000D01*
X72000Y370000D02*Y366000D01*
X62000Y370000D02*Y366000D01*
X52000Y370000D02*Y366000D01*
X121500Y368000D02*X161500D01*
X52000D02*X92000D01*
X161500Y380000D02*Y376000D01*
X151500Y380000D02*Y376000D01*
X141500Y380000D02*Y376000D01*
X131500Y380000D02*Y376000D01*
X121500Y380000D02*Y376000D01*
X92000Y380000D02*Y376000D01*
X82000Y380000D02*Y376000D01*
X72000Y380000D02*Y376000D01*
X62000Y380000D02*Y376000D01*
X52000Y380000D02*Y376000D01*
X121500Y378000D02*X161500D01*
X52000D02*X92000D01*
X161500Y390000D02*Y386000D01*
X151500Y390000D02*Y386000D01*
X141500Y390000D02*Y386000D01*
X131500Y390000D02*Y386000D01*
X121500Y390000D02*Y386000D01*
X92000Y390000D02*Y386000D01*
X82000Y390000D02*Y386000D01*
X72000Y390000D02*Y386000D01*
X62000Y390000D02*Y386000D01*
X52000Y390000D02*Y386000D01*
X121500Y388000D02*X161500D01*
X52000D02*X92000D01*
X161500Y400000D02*Y396000D01*
X151500Y400000D02*Y396000D01*
X141500Y400000D02*Y396000D01*
X131500Y400000D02*Y396000D01*
X121500Y400000D02*Y396000D01*
X92000Y400000D02*Y396000D01*
X82000Y400000D02*Y396000D01*
X72000Y400000D02*Y396000D01*
X62000Y400000D02*Y396000D01*
X52000Y400000D02*Y396000D01*
X121500Y398000D02*X161500D01*
X52000D02*X92000D01*
X161500Y410000D02*Y406000D01*
X151500Y410000D02*Y406000D01*
X141500Y410000D02*Y406000D01*
X131500Y410000D02*Y406000D01*
X121500Y410000D02*Y406000D01*
X92000Y410000D02*Y406000D01*
X82000Y410000D02*Y406000D01*
X72000Y410000D02*Y406000D01*
X62000Y410000D02*Y406000D01*
X52000Y410000D02*Y406000D01*
X121500Y408000D02*X161500D01*
X52000D02*X92000D01*
X161500Y420000D02*Y416000D01*
X151500Y420000D02*Y416000D01*
X141500Y420000D02*Y416000D01*
X131500Y420000D02*Y416000D01*
X121500Y420000D02*Y416000D01*
X92000Y420000D02*Y416000D01*
X82000Y420000D02*Y416000D01*
X72000Y420000D02*Y416000D01*
X62000Y420000D02*Y416000D01*
X52000Y420000D02*Y416000D01*
X121500Y418000D02*X161500D01*
X52000D02*X92000D01*
X161500Y430000D02*Y426000D01*
X151500Y430000D02*Y426000D01*
X141500Y430000D02*Y426000D01*
X131500Y430000D02*Y426000D01*
X121500Y430000D02*Y426000D01*
X92000Y430000D02*Y426000D01*
X82000Y430000D02*Y426000D01*
X72000Y430000D02*Y426000D01*
X62000Y430000D02*Y426000D01*
X52000Y430000D02*Y426000D01*
X121500Y428000D02*X161500D01*
X52000D02*X92000D01*
X161500Y440000D02*Y436000D01*
X151500Y440000D02*Y436000D01*
X141500Y440000D02*Y436000D01*
X131500Y440000D02*Y436000D01*
X121500Y440000D02*Y436000D01*
X92000Y440000D02*Y436000D01*
X82000Y440000D02*Y436000D01*
X72000Y440000D02*Y436000D01*
X62000Y440000D02*Y436000D01*
X52000Y440000D02*Y436000D01*
X121500Y438000D02*X161500D01*
X52000D02*X92000D01*
X161500Y450000D02*Y446000D01*
X151500Y450000D02*Y446000D01*
X141500Y450000D02*Y446000D01*
X131500Y450000D02*Y446000D01*
X121500Y450000D02*Y446000D01*
X92000Y450000D02*Y446000D01*
X82000Y450000D02*Y446000D01*
X72000Y450000D02*Y446000D01*
X62000Y450000D02*Y446000D01*
X52000Y450000D02*Y446000D01*
X121500Y448000D02*X161500D01*
X52000D02*X92000D01*
X161500Y460000D02*Y456000D01*
X151500Y460000D02*Y456000D01*
X141500Y460000D02*Y456000D01*
X131500Y460000D02*Y456000D01*
X121500Y460000D02*Y456000D01*
X92000Y460000D02*Y456000D01*
X82000Y460000D02*Y456000D01*
X72000Y460000D02*Y456000D01*
X62000Y460000D02*Y456000D01*
X52000Y460000D02*Y456000D01*
X121500Y458000D02*X161500D01*
X52000D02*X92000D01*
X161500Y470000D02*Y466000D01*
X151500Y470000D02*Y466000D01*
X141500Y470000D02*Y466000D01*
X131500Y470000D02*Y466000D01*
X121500Y470000D02*Y466000D01*
X92000Y470000D02*Y466000D01*
X82000Y470000D02*Y466000D01*
X72000Y470000D02*Y466000D01*
X62000Y470000D02*Y466000D01*
X52000Y470000D02*Y466000D01*
X121500Y468000D02*X161500D01*
X52000D02*X92000D01*
X161500Y480000D02*Y476000D01*
X151500Y480000D02*Y476000D01*
X141500Y480000D02*Y476000D01*
X131500Y480000D02*Y476000D01*
X121500Y480000D02*Y476000D01*
X92000Y480000D02*Y476000D01*
X82000Y480000D02*Y476000D01*
X72000Y480000D02*Y476000D01*
X62000Y480000D02*Y476000D01*
X52000Y480000D02*Y476000D01*
X121500Y478000D02*X161500D01*
X52000D02*X92000D01*
X161500Y490000D02*Y486000D01*
X151500Y490000D02*Y486000D01*
X141500Y490000D02*Y486000D01*
X131500Y490000D02*Y486000D01*
X121500Y490000D02*Y486000D01*
X92000Y490000D02*Y486000D01*
X82000Y490000D02*Y486000D01*
X72000Y490000D02*Y486000D01*
X62000Y490000D02*Y486000D01*
X52000Y490000D02*Y486000D01*
X121500Y488000D02*X161500D01*
X52000D02*X92000D01*
X161500Y500000D02*Y496000D01*
X151500Y500000D02*Y496000D01*
X141500Y500000D02*Y496000D01*
X131500Y500000D02*Y496000D01*
X121500Y500000D02*Y496000D01*
X92000Y500000D02*Y496000D01*
X82000Y500000D02*Y496000D01*
X72000Y500000D02*Y496000D01*
X62000Y500000D02*Y496000D01*
X52000Y500000D02*Y496000D01*
X121500Y498000D02*X161500D01*
X52000D02*X92000D01*
X161500Y510000D02*Y506000D01*
X151500Y510000D02*Y506000D01*
X141500Y510000D02*Y506000D01*
X131500Y510000D02*Y506000D01*
X121500Y510000D02*Y506000D01*
X92000Y510000D02*Y506000D01*
X82000Y510000D02*Y506000D01*
X72000Y510000D02*Y506000D01*
X62000Y510000D02*Y506000D01*
X52000Y510000D02*Y506000D01*
X121500Y508000D02*X161500D01*
X52000D02*X92000D01*
X161500Y520000D02*Y516000D01*
X151500Y520000D02*Y516000D01*
X141500Y520000D02*Y516000D01*
X131500Y520000D02*Y516000D01*
X121500Y520000D02*Y516000D01*
X92000Y520000D02*Y516000D01*
X82000Y520000D02*Y516000D01*
X72000Y520000D02*Y516000D01*
X62000Y520000D02*Y516000D01*
X52000Y520000D02*Y516000D01*
X121500Y518000D02*X161500D01*
X52000D02*X92000D01*
X161500Y530000D02*Y526000D01*
X151500Y530000D02*Y526000D01*
X141500Y530000D02*Y526000D01*
X131500Y530000D02*Y526000D01*
X121500Y530000D02*Y526000D01*
X92000Y530000D02*Y526000D01*
X82000Y530000D02*Y526000D01*
X72000Y530000D02*Y526000D01*
X62000Y530000D02*Y526000D01*
X52000Y530000D02*Y526000D01*
X121500Y528000D02*X161500D01*
X52000D02*X92000D01*
X161500Y540000D02*Y536000D01*
X151500Y540000D02*Y536000D01*
X141500Y540000D02*Y536000D01*
X131500Y540000D02*Y536000D01*
X121500Y540000D02*Y536000D01*
X92000Y540000D02*Y536000D01*
X82000Y540000D02*Y536000D01*
X72000Y540000D02*Y536000D01*
X62000Y540000D02*Y536000D01*
X52000Y540000D02*Y536000D01*
X121500Y538000D02*X161500D01*
X52000D02*X92000D01*
X161500Y550000D02*Y546000D01*
X151500Y550000D02*Y546000D01*
X141500Y550000D02*Y546000D01*
X131500Y550000D02*Y546000D01*
X121500Y550000D02*Y546000D01*
X92000Y550000D02*Y546000D01*
X82000Y550000D02*Y546000D01*
X72000Y550000D02*Y546000D01*
X62000Y550000D02*Y546000D01*
X52000Y550000D02*Y546000D01*
X121500Y548000D02*X161500D01*
X52000D02*X92000D01*
X161500Y560000D02*Y556000D01*
X151500Y560000D02*Y556000D01*
X141500Y560000D02*Y556000D01*
X131500Y560000D02*Y556000D01*
X121500Y560000D02*Y556000D01*
X92000Y560000D02*Y556000D01*
X82000Y560000D02*Y556000D01*
X72000Y560000D02*Y556000D01*
X62000Y560000D02*Y556000D01*
X52000Y560000D02*Y556000D01*
X121500Y558000D02*X161500D01*
X52000D02*X92000D01*
X161500Y570000D02*Y566000D01*
X151500Y570000D02*Y566000D01*
X141500Y570000D02*Y566000D01*
X131500Y570000D02*Y566000D01*
X121500Y570000D02*Y566000D01*
X92000Y570000D02*Y566000D01*
X82000Y570000D02*Y566000D01*
X72000Y570000D02*Y566000D01*
X62000Y570000D02*Y566000D01*
X52000Y570000D02*Y566000D01*
X121500Y568000D02*X161500D01*
X52000D02*X92000D01*
X161500Y580000D02*Y576000D01*
X151500Y580000D02*Y576000D01*
X141500Y580000D02*Y576000D01*
X131500Y580000D02*Y576000D01*
X121500Y580000D02*Y576000D01*
X92000Y580000D02*Y576000D01*
X82000Y580000D02*Y576000D01*
X72000Y580000D02*Y576000D01*
X62000Y580000D02*Y576000D01*
X52000Y580000D02*Y576000D01*
X121500Y578000D02*X161500D01*
X52000D02*X92000D01*
X161500Y590000D02*Y586000D01*
X151500Y590000D02*Y586000D01*
X141500Y590000D02*Y586000D01*
X131500Y590000D02*Y586000D01*
X121500Y590000D02*Y586000D01*
X92000Y590000D02*Y586000D01*
X82000Y590000D02*Y586000D01*
X72000Y590000D02*Y586000D01*
X62000Y590000D02*Y586000D01*
X52000Y590000D02*Y586000D01*
X121500Y588000D02*X161500D01*
X52000D02*X92000D01*
X161500Y600000D02*Y596000D01*
X151500Y600000D02*Y596000D01*
X141500Y600000D02*Y596000D01*
X131500Y600000D02*Y596000D01*
X121500Y600000D02*Y596000D01*
X92000Y600000D02*Y596000D01*
X82000Y600000D02*Y596000D01*
X72000Y600000D02*Y596000D01*
X62000Y600000D02*Y596000D01*
X52000Y600000D02*Y596000D01*
X121500Y598000D02*X161500D01*
X52000D02*X92000D01*
X161500Y610000D02*Y606000D01*
X151500Y610000D02*Y606000D01*
X141500Y610000D02*Y606000D01*
X131500Y610000D02*Y606000D01*
X121500Y610000D02*Y606000D01*
X92000Y610000D02*Y606000D01*
X82000Y610000D02*Y606000D01*
X72000Y610000D02*Y606000D01*
X62000Y610000D02*Y606000D01*
X52000Y610000D02*Y606000D01*
X121500Y608000D02*X161500D01*
X52000D02*X92000D01*
X161500Y620000D02*Y616000D01*
X151500Y620000D02*Y616000D01*
X141500Y620000D02*Y616000D01*
X131500Y620000D02*Y616000D01*
X121500Y620000D02*Y616000D01*
X92000Y620000D02*Y616000D01*
X82000Y620000D02*Y616000D01*
X72000Y620000D02*Y616000D01*
X62000Y620000D02*Y616000D01*
X52000Y620000D02*Y616000D01*
X121500Y618000D02*X161500D01*
X52000D02*X92000D01*
X161500Y630000D02*Y626000D01*
X151500Y630000D02*Y626000D01*
X141500Y630000D02*Y626000D01*
X131500Y630000D02*Y626000D01*
X121500Y630000D02*Y626000D01*
X92000Y630000D02*Y626000D01*
X82000Y630000D02*Y626000D01*
X72000Y630000D02*Y626000D01*
X62000Y630000D02*Y626000D01*
X52000Y630000D02*Y626000D01*
X121500Y628000D02*X161500D01*
X52000D02*X92000D01*
X161500Y640000D02*Y636000D01*
X151500Y640000D02*Y636000D01*
X141500Y640000D02*Y636000D01*
X131500Y640000D02*Y636000D01*
X121500Y640000D02*Y636000D01*
X92000Y640000D02*Y636000D01*
X82000Y640000D02*Y636000D01*
X72000Y640000D02*Y636000D01*
X62000Y640000D02*Y636000D01*
X52000Y640000D02*Y636000D01*
X121500Y638000D02*X161500D01*
X52000D02*X92000D01*
X161500Y650000D02*Y646000D01*
X151500Y650000D02*Y646000D01*
X141500Y650000D02*Y646000D01*
X131500Y650000D02*Y646000D01*
X121500Y650000D02*Y646000D01*
X92000Y650000D02*Y646000D01*
X82000Y650000D02*Y646000D01*
X72000Y650000D02*Y646000D01*
X62000Y650000D02*Y646000D01*
X52000Y650000D02*Y646000D01*
X121500Y648000D02*X161500D01*
X52000D02*X92000D01*
X161500Y660000D02*Y656000D01*
X151500Y660000D02*Y656000D01*
X141500Y660000D02*Y656000D01*
X131500Y660000D02*Y656000D01*
X121500Y660000D02*Y656000D01*
X92000Y660000D02*Y656000D01*
X82000Y660000D02*Y656000D01*
X72000Y660000D02*Y656000D01*
X62000Y660000D02*Y656000D01*
X52000Y660000D02*Y656000D01*
X121500Y658000D02*X161500D01*
X52000D02*X92000D01*
X161500Y670000D02*Y666000D01*
X151500Y670000D02*Y666000D01*
X141500Y670000D02*Y666000D01*
X131500Y670000D02*Y666000D01*
X121500Y670000D02*Y666000D01*
X92000Y670000D02*Y666000D01*
X82000Y670000D02*Y666000D01*
X72000Y670000D02*Y666000D01*
X62000Y670000D02*Y666000D01*
X52000Y670000D02*Y666000D01*
X121500Y668000D02*X161500D01*
X52000D02*X92000D01*
X200500Y48000D02*Y668000D01*
X190500D02*Y48000D01*
Y98000D02*X200500D01*
X190500Y108000D02*X200500D01*
X190500Y88000D02*X200500D01*
X190500Y78000D02*X200500D01*
X190500Y68000D02*X200500D01*
X190500Y158000D02*X200500D01*
X190500Y168000D02*X200500D01*
X190500Y148000D02*X200500D01*
X190500Y138000D02*X200500D01*
X190500Y128000D02*X200500D01*
X190500Y218000D02*X200500D01*
X190500Y228000D02*X200500D01*
X190500Y208000D02*X200500D01*
X190500Y198000D02*X200500D01*
X190500Y188000D02*X200500D01*
X190500Y278000D02*X200500D01*
X190500Y288000D02*X200500D01*
X190500Y268000D02*X200500D01*
X190500Y258000D02*X200500D01*
X190500Y248000D02*X200500D01*
X190500Y338000D02*X200500D01*
X190500Y348000D02*X200500D01*
X190500Y328000D02*X200500D01*
X190500Y318000D02*X200500D01*
X190500Y308000D02*X200500D01*
X190500Y398000D02*X200500D01*
X190500Y408000D02*X200500D01*
X190500Y388000D02*X200500D01*
X190500Y378000D02*X200500D01*
X190500Y368000D02*X200500D01*
X190500Y458000D02*X200500D01*
X190500Y468000D02*X200500D01*
X190500Y448000D02*X200500D01*
X190500Y438000D02*X200500D01*
X190500Y428000D02*X200500D01*
X190500Y518000D02*X200500D01*
X190500Y528000D02*X200500D01*
X190500Y508000D02*X200500D01*
X190500Y498000D02*X200500D01*
X190500Y488000D02*X200500D01*
X190500Y578000D02*X200500D01*
X190500Y588000D02*X200500D01*
X190500Y568000D02*X200500D01*
X190500Y558000D02*X200500D01*
X190500Y548000D02*X200500D01*
X190500Y638000D02*X200500D01*
X190500Y648000D02*X200500D01*
X190500Y628000D02*X200500D01*
X190500Y618000D02*X200500D01*
X190500Y608000D02*X200500D01*
X23000Y48000D02*Y668000D01*
X13000D02*Y48000D01*
Y98000D02*X23000D01*
X13000Y108000D02*X23000D01*
X13000Y88000D02*X23000D01*
X13000Y78000D02*X23000D01*
X13000Y68000D02*X23000D01*
X13000Y158000D02*X23000D01*
X13000Y168000D02*X23000D01*
X13000Y148000D02*X23000D01*
X13000Y138000D02*X23000D01*
X13000Y128000D02*X23000D01*
X13000Y218000D02*X23000D01*
X13000Y228000D02*X23000D01*
X13000Y208000D02*X23000D01*
X13000Y198000D02*X23000D01*
X13000Y188000D02*X23000D01*
X13000Y278000D02*X23000D01*
X13000Y288000D02*X23000D01*
X13000Y268000D02*X23000D01*
X13000Y258000D02*X23000D01*
X13000Y248000D02*X23000D01*
X13000Y338000D02*X23000D01*
X13000Y348000D02*X23000D01*
X13000Y328000D02*X23000D01*
X13000Y318000D02*X23000D01*
X13000Y308000D02*X23000D01*
X13000Y398000D02*X23000D01*
X13000Y408000D02*X23000D01*
X13000Y388000D02*X23000D01*
X13000Y378000D02*X23000D01*
X13000Y368000D02*X23000D01*
X13000Y458000D02*X23000D01*
X13000Y468000D02*X23000D01*
X13000Y448000D02*X23000D01*
X13000Y438000D02*X23000D01*
X13000Y428000D02*X23000D01*
X13000Y518000D02*X23000D01*
X13000Y528000D02*X23000D01*
X13000Y508000D02*X23000D01*
X13000Y498000D02*X23000D01*
X13000Y488000D02*X23000D01*
X13000Y578000D02*X23000D01*
X13000Y588000D02*X23000D01*
X13000Y568000D02*X23000D01*
X13000Y558000D02*X23000D01*
X13000Y548000D02*X23000D01*
X13000Y638000D02*X23000D01*
X13000Y648000D02*X23000D01*
X13000Y628000D02*X23000D01*
X13000Y618000D02*X23000D01*
X13000Y608000D02*X23000D01*
X19000Y659000D02*X21500D01*
X16000Y662000D02*Y659000D01*
X14500Y660500D02*X17500D01*
X196500Y659000D02*X199000D01*
X193500Y662000D02*Y659000D01*
X192000Y660500D02*X195000D01*
X19000Y59000D02*X21500D01*
X16000Y62000D02*Y59000D01*
X14500Y60500D02*X17500D01*
X196500Y59000D02*X199000D01*
X193500Y62000D02*Y59000D01*
X192000Y60500D02*X195000D01*
G54D203*X195050Y537150D02*X195850D01*
Y533650D01*
X195350Y533150D02*X195850Y533650D01*
X194850Y533150D02*X195350D01*
X194350Y533650D02*X194850Y533150D01*
X194350Y534150D02*Y533650D01*
X198050Y535150D02*Y534650D01*
Y533650D02*Y533150D01*
X197050Y536650D02*Y536150D01*
Y536650D02*X197550Y537150D01*
X198550D01*
X199050Y536650D01*
Y536150D01*
X198050Y535150D02*X199050Y536150D01*
X180500Y562500D02*X184500D01*
Y563000D02*Y561000D01*
X184000Y560500D01*
X183000D02*X184000D01*
X182500Y561000D02*X183000Y560500D01*
X182500Y562500D02*Y561000D01*
Y559300D02*X184500D01*
X182500D02*X180500Y558800D01*
X182500Y557800D01*
X180500Y556800D01*
X182500Y556300D01*
X184500D01*
Y555100D02*Y553100D01*
X184000Y552600D01*
X183000D02*X184000D01*
X182500Y553100D02*X183000Y552600D01*
X182500Y554600D02*Y553100D01*
X180500Y554600D02*X184500D01*
X182500Y553800D02*X180500Y552600D01*
X184000Y551400D02*X184500Y550900D01*
Y549400D01*
X184000Y548900D01*
X183000D02*X184000D01*
X180500Y551400D02*X183000Y548900D01*
X180500Y551400D02*Y548900D01*
X167500Y539500D02*Y536500D01*
Y539500D02*X168200Y540500D01*
X169300D01*
X170000Y539500D01*
Y536500D01*
X167500Y538500D02*X170000D01*
X171200Y539700D02*X172000Y540500D01*
Y536500D01*
X171200D02*X172700D01*
X168000Y553000D02*Y550000D01*
Y553000D02*X168700Y554000D01*
X169800D01*
X170500Y553000D01*
Y550000D01*
X168000Y552000D02*X170500D01*
X171700Y553500D02*X172200Y554000D01*
X173700D01*
X174200Y553500D01*
Y552500D01*
X171700Y550000D02*X174200Y552500D01*
X171700Y550000D02*X174200D01*
X212500Y645000D02*Y643000D01*
X213000Y642500D01*
X214200D01*
X214700Y643000D02*X214200Y642500D01*
X214700Y644500D02*Y643000D01*
X212500Y644500D02*X216500D01*
Y645000D02*Y643000D01*
X216000Y642500D01*
X215200D02*X216000D01*
X214700Y643000D02*X215200Y642500D01*
X212500Y641300D02*X215500D01*
X216500Y640600D01*
Y639500D01*
X215500Y638800D01*
X212500D02*X215500D01*
X214500Y641300D02*Y638800D01*
X216500Y637600D02*Y635600D01*
X216000Y635100D01*
X215000D02*X216000D01*
X214500Y635600D02*X215000Y635100D01*
X214500Y637100D02*Y635600D01*
X212500Y637100D02*X216500D01*
X214500Y636300D02*X212500Y635100D01*
X215700Y633900D02*X216500Y633100D01*
X212500D02*X216500D01*
X212500Y633900D02*Y632400D01*
X69307Y717150D02*X71307D01*
X70307D02*Y713150D01*
X73507Y715150D02*Y714650D01*
Y713650D02*Y713150D01*
X72507Y716650D02*Y716150D01*
Y716650D02*X73007Y717150D01*
X74007D01*
X74507Y716650D01*
Y716150D01*
X73507Y715150D02*X74507Y716150D01*
X35500Y707984D02*Y705984D01*
X35000Y705484D01*
X34000D02*X35000D01*
X33500Y705984D02*X34000Y705484D01*
X33500Y707484D02*Y705984D01*
X31500Y707484D02*X35500D01*
X33500Y706684D02*X31500Y705484D01*
X35500Y703584D02*Y702784D01*
X32000D02*X35500D01*
X31500Y703284D02*X32000Y702784D01*
X31500Y703784D02*Y703284D01*
X32000Y704284D02*X31500Y703784D01*
X32000Y704284D02*X32500D01*
X33000Y701584D02*X35500Y699584D01*
X33000Y701584D02*Y699084D01*
X31500Y699584D02*X35500D01*
Y697884D02*Y695884D01*
X33500Y697884D02*X35500D01*
X33500D02*X34000Y697384D01*
Y696384D01*
X33500Y695884D01*
X32000D02*X33500D01*
X31500Y696384D02*X32000Y695884D01*
X31500Y697384D02*Y696384D01*
X32000Y697884D02*X31500Y697384D01*
X33000Y693684D02*X33500D01*
X31500D02*X32000D01*
X34500Y694684D02*X35000D01*
X35500Y694184D01*
Y693184D01*
X35000Y692684D01*
X34500D02*X35000D01*
X33500Y693684D02*X34500Y692684D01*
X78500Y786500D02*Y782500D01*
X81000Y786500D02*Y782500D01*
X78500Y784500D02*X81000D01*
X83200D02*Y784000D01*
Y783000D02*Y782500D01*
X82200Y786000D02*Y785500D01*
Y786000D02*X82700Y786500D01*
X83700D01*
X84200Y786000D01*
Y785500D01*
X83200Y784500D02*X84200Y785500D01*
X82000Y603000D02*Y601000D01*
X82500Y600500D01*
X83700D01*
X84200Y601000D02*X83700Y600500D01*
X84200Y602500D02*Y601000D01*
X82000Y602500D02*X86000D01*
Y603000D02*Y601000D01*
X85500Y600500D01*
X84700D02*X85500D01*
X84200Y601000D02*X84700Y600500D01*
X86000Y599300D02*Y597300D01*
X85500Y596800D01*
X84500D02*X85500D01*
X84000Y597300D02*X84500Y596800D01*
X84000Y598800D02*Y597300D01*
X82000Y598800D02*X86000D01*
X84000Y598000D02*X82000Y596800D01*
Y595100D02*X86000D01*
Y593800D02*X85300Y593100D01*
X82700D02*X85300D01*
X82000Y593800D02*X82700Y593100D01*
X82000Y595600D02*Y593800D01*
X86000Y595600D02*Y593800D01*
X85200Y591900D02*X86000Y591100D01*
X82000D02*X86000D01*
X82000Y591900D02*Y590400D01*
X69850Y728650D02*X71850D01*
X72350Y728150D01*
Y727150D01*
X71850Y726650D02*X72350Y727150D01*
X70350Y726650D02*X71850D01*
X70350Y728650D02*Y724650D01*
X71150Y726650D02*X72350Y724650D01*
X74550Y726650D02*Y726150D01*
Y725150D02*Y724650D01*
X73550Y728150D02*Y727650D01*
Y728150D02*X74050Y728650D01*
X75050D01*
X75550Y728150D01*
Y727650D01*
X74550Y726650D02*X75550Y727650D01*
X89350Y729650D02*X91350D01*
X91850Y729150D01*
Y728150D01*
X91350Y727650D02*X91850Y728150D01*
X89850Y727650D02*X91350D01*
X89850Y729650D02*Y725650D01*
X90650Y727650D02*X91850Y725650D01*
X93050Y728850D02*X93850Y729650D01*
Y725650D01*
X93050D02*X94550D01*
X146000Y729500D02*Y726500D01*
Y729500D02*X146500Y730000D01*
X147500D01*
X148000Y729500D01*
Y726500D01*
X147500Y726000D02*X148000Y726500D01*
X146500Y726000D02*X147500D01*
X146000Y726500D02*X146500Y726000D01*
X149200Y730000D02*Y726000D01*
Y730000D02*X151200D01*
X149200Y728200D02*X150700D01*
X152400Y730000D02*Y726000D01*
Y730000D02*X154400D01*
X152400Y728200D02*X153900D01*
X157600Y730000D02*X158100Y729500D01*
X156100Y730000D02*X157600D01*
X155600Y729500D02*X156100Y730000D01*
X155600Y729500D02*Y728500D01*
X156100Y728000D01*
X157600D01*
X158100Y727500D01*
Y726500D01*
X157600Y726000D02*X158100Y726500D01*
X156100Y726000D02*X157600D01*
X155600Y726500D02*X156100Y726000D01*
X159300Y728200D02*X160800D01*
X159300Y726000D02*X161300D01*
X159300Y730000D02*Y726000D01*
Y730000D02*X161300D01*
X162500D02*X164500D01*
X163500D02*Y726000D01*
X165700Y729200D02*X166500Y730000D01*
Y726000D01*
X165700D02*X167200D01*
X123500Y729500D02*Y726500D01*
Y729500D02*X124000Y730000D01*
X125000D01*
X125500Y729500D01*
Y726500D01*
X125000Y726000D02*X125500Y726500D01*
X124000Y726000D02*X125000D01*
X123500Y726500D02*X124000Y726000D01*
X126700Y730000D02*Y726000D01*
Y730000D02*X128700D01*
X126700Y728200D02*X128200D01*
X129900Y730000D02*Y726000D01*
Y730000D02*X131900D01*
X129900Y728200D02*X131400D01*
X135100Y730000D02*X135600Y729500D01*
X133600Y730000D02*X135100D01*
X133100Y729500D02*X133600Y730000D01*
X133100Y729500D02*Y728500D01*
X133600Y728000D01*
X135100D01*
X135600Y727500D01*
Y726500D01*
X135100Y726000D02*X135600Y726500D01*
X133600Y726000D02*X135100D01*
X133100Y726500D02*X133600Y726000D01*
X136800Y728200D02*X138300D01*
X136800Y726000D02*X138800D01*
X136800Y730000D02*Y726000D01*
Y730000D02*X138800D01*
X140000D02*X142000D01*
X141000D02*Y726000D01*
X143200Y729500D02*X143700Y730000D01*
X145200D01*
X145700Y729500D01*
Y728500D01*
X143200Y726000D02*X145700Y728500D01*
X143200Y726000D02*X145700D01*
X179000Y802000D02*X181000D01*
X181500Y801500D01*
Y800500D01*
X181000Y800000D02*X181500Y800500D01*
X179500Y800000D02*X181000D01*
X179500Y802000D02*Y798000D01*
X180300Y800000D02*X181500Y798000D01*
X182700Y802000D02*X183700D01*
X183200D02*Y798000D01*
X182700D02*X183700D01*
X184900Y802000D02*Y798000D01*
Y802000D02*X187400Y798000D01*
Y802000D02*Y798000D01*
X190600Y802000D02*X191100Y801500D01*
X189100Y802000D02*X190600D01*
X188600Y801500D02*X189100Y802000D01*
X188600Y801500D02*Y798500D01*
X189100Y798000D01*
X190600D01*
X191100Y798500D01*
Y799500D02*Y798500D01*
X190600Y800000D02*X191100Y799500D01*
X189600Y800000D02*X190600D01*
X193300D02*Y799500D01*
Y798500D02*Y798000D01*
X192300Y801500D02*Y801000D01*
Y801500D02*X192800Y802000D01*
X193800D01*
X194300Y801500D01*
Y801000D01*
X193300Y800000D02*X194300Y801000D01*
X108500Y803500D02*Y799500D01*
Y803500D02*X110000Y801500D01*
X111500Y803500D01*
Y799500D01*
X112700Y801700D02*X114200D01*
X112700Y799500D02*X114700D01*
X112700Y803500D02*Y799500D01*
Y803500D02*X114700D01*
X115900D02*X118400D01*
X115900Y799500D02*X118400Y803500D01*
X115900Y799500D02*X118400D01*
X119600Y802700D02*X120400Y803500D01*
Y799500D01*
X119600D02*X121100D01*
X111500Y603000D02*Y601000D01*
X112000Y600500D01*
X113200D01*
X113700Y601000D02*X113200Y600500D01*
X113700Y602500D02*Y601000D01*
X111500Y602500D02*X115500D01*
Y603000D02*Y601000D01*
X115000Y600500D01*
X114200D02*X115000D01*
X113700Y601000D02*X114200Y600500D01*
X115500Y599300D02*Y597300D01*
X115000Y596800D01*
X114000D02*X115000D01*
X113500Y597300D02*X114000Y596800D01*
X113500Y598800D02*Y597300D01*
X111500Y598800D02*X115500D01*
X113500Y598000D02*X111500Y596800D01*
Y595100D02*X115500D01*
Y593800D02*X114800Y593100D01*
X112200D02*X114800D01*
X111500Y593800D02*X112200Y593100D01*
X111500Y595600D02*Y593800D01*
X115500Y595600D02*Y593800D01*
X115000Y591900D02*X115500Y591400D01*
Y589900D01*
X115000Y589400D01*
X114000D02*X115000D01*
X111500Y591900D02*X114000Y589400D01*
X111500Y591900D02*Y589400D01*
X108000Y787000D02*Y783000D01*
Y787000D02*X109500Y785000D01*
X111000Y787000D01*
Y783000D01*
X112200Y785200D02*X113700D01*
X112200Y783000D02*X114200D01*
X112200Y787000D02*Y783000D01*
Y787000D02*X114200D01*
X115400D02*X117900D01*
X115400Y783000D02*X117900Y787000D01*
X115400Y783000D02*X117900D01*
X119100Y786500D02*X119600Y787000D01*
X121100D01*
X121600Y786500D01*
Y785500D01*
X119100Y783000D02*X121600Y785500D01*
X119100Y783000D02*X121600D01*
X16760Y758500D02*X18760D01*
X17760D02*Y754500D01*
X19960Y756700D02*X21460D01*
X19960Y754500D02*X21960D01*
X19960Y758500D02*Y754500D01*
Y758500D02*X21960D01*
X23160D02*X25160D01*
X25660Y758000D01*
Y757000D01*
X25160Y756500D02*X25660Y757000D01*
X23660Y756500D02*X25160D01*
X23660Y758500D02*Y754500D01*
X24460Y756500D02*X25660Y754500D01*
X26860Y758500D02*Y754500D01*
Y758500D02*X28360Y756500D01*
X29860Y758500D01*
Y754500D01*
X32060Y756500D02*Y756000D01*
Y755000D02*Y754500D01*
X31060Y758000D02*Y757500D01*
Y758000D02*X31560Y758500D01*
X32560D01*
X33060Y758000D01*
Y757500D01*
X32060Y756500D02*X33060Y757500D01*
X3000Y562500D02*X7000D01*
Y563000D02*Y561000D01*
X6500Y560500D01*
X5500D02*X6500D01*
X5000Y561000D02*X5500Y560500D01*
X5000Y562500D02*Y561000D01*
Y559300D02*X7000D01*
X5000D02*X3000Y558800D01*
X5000Y557800D01*
X3000Y556800D01*
X5000Y556300D01*
X7000D01*
Y555100D02*Y553100D01*
X6500Y552600D01*
X5500D02*X6500D01*
X5000Y553100D02*X5500Y552600D01*
X5000Y554600D02*Y553100D01*
X3000Y554600D02*X7000D01*
X5000Y553800D02*X3000Y552600D01*
X6200Y551400D02*X7000Y550600D01*
X3000D02*X7000D01*
X3000Y551400D02*Y549900D01*
X18869Y534650D02*X19669D01*
Y531150D01*
X19169Y530650D02*X19669Y531150D01*
X18669Y530650D02*X19169D01*
X18169Y531150D02*X18669Y530650D01*
X18169Y531650D02*Y531150D01*
X20869Y534150D02*X21369Y534650D01*
X22869D01*
X23369Y534150D01*
Y533150D01*
X20869Y530650D02*X23369Y533150D01*
X20869Y530650D02*X23369D01*
X18869Y542150D02*X19669D01*
Y538650D01*
X19169Y538150D02*X19669Y538650D01*
X18669Y538150D02*X19169D01*
X18169Y538650D02*X18669Y538150D01*
X18169Y539150D02*Y538650D01*
X20869Y541350D02*X21669Y542150D01*
Y538150D01*
X20869D02*X22369D01*
X30000Y658500D02*X31000D01*
X30500D02*Y654500D01*
X30000D02*X31000D01*
X33200Y656500D02*Y656000D01*
Y655000D02*Y654500D01*
X32200Y658000D02*Y657500D01*
Y658000D02*X32700Y658500D01*
X33700D01*
X34200Y658000D01*
Y657500D01*
X33200Y656500D02*X34200Y657500D01*
X23500Y796000D02*X24500Y792000D01*
X25500Y796000D01*
X27200Y792000D02*X28700D01*
X29200Y792500D01*
X28700Y793000D02*X29200Y792500D01*
X27200Y793000D02*X28700D01*
X26700Y793500D02*X27200Y793000D01*
X26700Y793500D02*X27200Y794000D01*
X28700D01*
X29200Y793500D01*
X26700Y792500D02*X27200Y792000D01*
X30400Y794000D02*Y792500D01*
X30900Y792000D01*
X32400Y794000D02*Y791000D01*
X31900Y790500D02*X32400Y791000D01*
X30900Y790500D02*X31900D01*
X30400Y791000D02*X30900Y790500D01*
Y792000D02*X31900D01*
X32400Y792500D01*
X34100Y792000D02*X35600D01*
X36100Y792500D01*
X35600Y793000D02*X36100Y792500D01*
X34100Y793000D02*X35600D01*
X33600Y793500D02*X34100Y793000D01*
X33600Y793500D02*X34100Y794000D01*
X35600D01*
X36100Y793500D01*
X33600Y792500D02*X34100Y792000D01*
X38300Y794000D02*Y793500D01*
Y792500D02*Y792000D01*
X37300Y795500D02*Y795000D01*
Y795500D02*X37800Y796000D01*
X38800D01*
X39300Y795500D01*
Y795000D01*
X38300Y794000D02*X39300Y795000D01*
X78740Y815205D02*Y813205D01*
Y815205D02*X78240Y817205D01*
X77240Y815205D01*
X76240Y817205D01*
X75740Y815205D01*
Y813205D01*
X72540D02*X74540D01*
X73540Y817205D02*Y813205D01*
X69340Y817205D02*X71340D01*
X69340D02*X68840Y816705D01*
Y815505D01*
X69340Y815005D02*X68840Y815505D01*
X69340Y815005D02*X70840D01*
Y817205D02*Y813205D01*
X69340D02*X71340D01*
X69340D02*X68840Y813705D01*
Y814505D02*Y813705D01*
X69340Y815005D02*X68840Y814505D01*
X66640Y815705D02*Y815205D01*
Y817205D02*Y816705D01*
X67640Y814205D02*Y813705D01*
X67140Y813205D01*
X66140D02*X67140D01*
X66140D02*X65640Y813705D01*
Y814205D02*Y813705D01*
X66640Y815205D02*X65640Y814205D01*
X93504Y815205D02*Y813205D01*
Y815205D02*X93004Y817205D01*
X92004Y815205D01*
X91004Y817205D01*
X90504Y815205D01*
Y813205D01*
X87304D02*X89304D01*
X88304Y817205D02*Y813205D01*
X84104Y817205D02*X86104D01*
X84104D02*X83604Y816705D01*
Y815505D01*
X84104Y815005D02*X83604Y815505D01*
X84104Y815005D02*X85604D01*
Y817205D02*Y813205D01*
X84104D02*X86104D01*
X84104D02*X83604Y813705D01*
Y814505D02*Y813705D01*
X84104Y815005D02*X83604Y814505D01*
X81404Y815705D02*Y815205D01*
Y817205D02*Y816705D01*
X82404Y814205D02*Y813705D01*
X81904Y813205D01*
X80904D02*X81904D01*
X80904D02*X80404Y813705D01*
Y814205D02*Y813705D01*
X81404Y815205D02*X80404Y814205D01*
M02*
