M48
INCH
T40C0.013
T39C0.063
T38C0.128
T37C0.035
T36C0.028
%
T40
X001200Y008600
T36
X000800Y010000
X001800Y010000
X002800Y010000
X003800Y010000
X004800Y010000
X005800Y010000
X006800Y010000
X007800Y010000
X008800Y010000
X009800Y010000
X010800Y010000
X011800Y010000
T37
X002300Y006500
X002800Y007500
X003300Y006500
X003800Y007500
X004300Y006500
X004800Y007500
X005300Y006500
X005800Y007500
T39
X000946Y002799
X007146Y002799
T38
X001800Y004000
X006300Y004000
M30
