G04 start of page 8 for group -4079 idx -4079 *
G04 Title: (unknown), topsilk *
G04 Creator: pcb 1.99z *
G04 CreationDate: Sat Nov 14 22:14:46 2015 UTC *
G04 For: commonadmin *
G04 Format: Gerber/RS-274X *
G04 PCB-Dimensions (mil): 1300.00 1100.00 *
G04 PCB-Coordinate-Origin: lower left *
%MOIN*%
%FSLAX25Y25*%
%LNTOPSILK*%
%ADD55C,0.0040*%
%ADD54C,0.0200*%
%ADD53C,0.0030*%
%ADD52C,0.0060*%
%ADD51C,0.0100*%
G54D51*X75602Y52130D02*Y81106D01*
X60681D01*
X75602Y52169D02*Y8665D01*
G54D52*X22098Y64374D02*X23673Y65949D01*
X22098D02*X23673Y64374D01*
G54D51*X17886Y81106D02*X62886D01*
X5130D02*X18909D01*
X5130Y52130D02*Y81106D01*
Y52169D02*Y8665D01*
X75602D01*
G54D53*X37426Y71264D02*X39301Y69764D01*
X37426Y71264D02*Y69389D01*
X36301Y69764D02*X39301D01*
X36676Y68489D02*X38926Y66239D01*
X36301Y65339D02*Y63839D01*
X36676Y63464D01*
X37576D01*
X37951Y63839D02*X37576Y63464D01*
X37951Y64964D02*Y63839D01*
X36301Y64964D02*X39301D01*
Y65339D02*Y63839D01*
X38926Y63464D01*
X38326D02*X38926D01*
X37951Y63839D02*X38326Y63464D01*
X36676Y62564D02*X39301D01*
X36676D02*X36301Y62189D01*
X44813Y61028D02*Y59528D01*
X43313Y61028D02*X44813D01*
X43313D02*X43688Y60653D01*
Y59903D01*
X43313Y59528D01*
X42188D02*X43313D01*
X41813Y59903D02*X42188Y59528D01*
X41813Y60653D02*Y59903D01*
X42188Y61028D02*X41813Y60653D01*
X42188Y58628D02*X44438Y56378D01*
X43313Y55478D02*X44813D01*
X43313D02*X41813Y55103D01*
X43313Y54353D01*
X41813Y53603D01*
X43313Y53228D01*
X44813D01*
X41813Y52328D02*Y50828D01*
X42188Y50453D01*
X43088D01*
X43463Y50828D02*X43088Y50453D01*
X43463Y51953D02*Y50828D01*
X41813Y51953D02*X44813D01*
Y52328D02*Y50828D01*
X44438Y50453D01*
X43838D02*X44438D01*
X43463Y50828D02*X43838Y50453D01*
X42188Y49553D02*X44813D01*
X42188D02*X41813Y49178D01*
X49144Y69745D02*X48769Y69370D01*
X49144Y70495D02*Y69745D01*
X48769Y70870D02*X49144Y70495D01*
X46519Y70870D02*X48769D01*
X46519D02*X46144Y70495D01*
X47794Y69745D02*X47419Y69370D01*
X47794Y70870D02*Y69745D01*
X46144Y70495D02*Y69745D01*
X46519Y69370D01*
X47419D01*
X46519Y68470D02*X48769Y66220D01*
X46519Y65320D02*X48769D01*
X49144Y64945D01*
Y64195D01*
X48769Y63820D01*
X46519D02*X48769D01*
X46144Y64195D02*X46519Y63820D01*
X46144Y64945D02*Y64195D01*
X46519Y65320D02*X46144Y64945D01*
X56755Y70870D02*X56380Y70495D01*
X56755Y70870D02*X57355D01*
X57880Y70345D01*
Y69895D01*
X57355Y69370D01*
X56755D02*X57355D01*
X56380Y69745D02*X56755Y69370D01*
X56380Y70495D02*Y69745D01*
X58405Y70870D02*X57880Y70345D01*
X58405Y70870D02*X59005D01*
X59380Y70495D01*
Y69745D01*
X59005Y69370D01*
X58405D02*X59005D01*
X57880Y69895D02*X58405Y69370D01*
X56755Y68470D02*X59005Y66220D01*
X56380Y65320D02*Y63820D01*
X56755Y63445D01*
X57655D01*
X58030Y63820D02*X57655Y63445D01*
X58030Y64945D02*Y63820D01*
X56380Y64945D02*X59380D01*
Y65320D02*Y63820D01*
X59005Y63445D01*
X58405D02*X59005D01*
X58030Y63820D02*X58405Y63445D01*
X56380Y62170D02*X57505D01*
X57880Y61795D01*
Y61045D01*
Y62545D02*X57505Y62170D01*
X23741Y60634D02*X24341Y60034D01*
X21341D02*X24341D01*
X21341Y60634D02*Y59509D01*
X21716Y58609D02*X23966Y56359D01*
X22841Y55459D02*X24341D01*
X22841D02*X21341Y55084D01*
X22841Y54334D01*
X21341Y53584D01*
X22841Y53209D01*
X24341D01*
Y50809D02*X23966Y50434D01*
X24341Y51934D02*Y50809D01*
X23966Y52309D02*X24341Y51934D01*
X21716Y52309D02*X23966D01*
X21716D02*X21341Y51934D01*
Y50809D01*
X21716Y50434D01*
X22466D01*
X22841Y50809D02*X22466Y50434D01*
X22841Y51559D02*Y50809D01*
X29084Y71264D02*X29459Y70889D01*
Y69764D01*
X29084Y69389D01*
X28334D02*X29084D01*
X26459Y71264D02*X28334Y69389D01*
X26459Y71264D02*Y69389D01*
X26834Y68489D02*X29084Y66239D01*
X29459Y63839D02*X29084Y63464D01*
X29459Y64964D02*Y63839D01*
X29084Y65339D02*X29459Y64964D01*
X26834Y65339D02*X29084D01*
X26834D02*X26459Y64964D01*
Y63839D01*
X26834Y63464D01*
X27584D01*
X27959Y63839D02*X27584Y63464D01*
X27959Y64589D02*Y63839D01*
X34202Y61028D02*X34577Y60653D01*
Y59903D01*
X34202Y59528D01*
X31577Y59903D02*X31952Y59528D01*
X31577Y60653D02*Y59903D01*
X31952Y61028D02*X31577Y60653D01*
X33227D02*Y59903D01*
X33602Y59528D02*X34202D01*
X31952D02*X32852D01*
X33227Y59903D01*
X33602Y59528D02*X33227Y59903D01*
X31952Y58628D02*X34202Y56378D01*
X33077Y55478D02*X34577D01*
X33077D02*X31577Y55103D01*
X33077Y54353D01*
X31577Y53603D01*
X33077Y53228D01*
X34577D01*
X31952Y52328D02*X34202D01*
X34577Y51953D01*
Y51203D01*
X34202Y50828D01*
X31952D02*X34202D01*
X31577Y51203D02*X31952Y50828D01*
X31577Y51953D02*Y51203D01*
X31952Y52328D02*X31577Y51953D01*
X51262Y60653D02*X54262Y59153D01*
Y61028D02*Y59153D01*
X51637Y58253D02*X53887Y56003D01*
X52762Y55103D02*X54262D01*
X52762D02*X51262Y54728D01*
X52762Y53978D01*
X51262Y53228D01*
X52762Y52853D01*
X54262D01*
X51262Y51953D02*Y50453D01*
X51637Y50078D01*
X52537D01*
X52912Y50453D02*X52537Y50078D01*
X52912Y51578D02*Y50453D01*
X51262Y51578D02*X54262D01*
Y51953D02*Y50453D01*
X53887Y50078D01*
X53287D02*X53887D01*
X52912Y50453D02*X53287Y50078D01*
X51262Y48803D02*X52387D01*
X52762Y48428D01*
Y47678D01*
Y49178D02*X52387Y48803D01*
X8949Y73270D02*X10449D01*
X9699D02*Y70270D01*
X11349Y73270D02*X12849D01*
X11349D02*Y71770D01*
X11724Y72145D01*
X12474D01*
X12849Y71770D01*
Y70645D01*
X12474Y70270D02*X12849Y70645D01*
X11724Y70270D02*X12474D01*
X11349Y70645D02*X11724Y70270D01*
X14874Y73270D02*X15249Y72895D01*
X14124Y73270D02*X14874D01*
X13749Y72895D02*X14124Y73270D01*
X13749Y72895D02*Y70645D01*
X14124Y70270D01*
X14874Y71920D02*X15249Y71545D01*
X13749Y71920D02*X14874D01*
X14124Y70270D02*X14874D01*
X15249Y70645D01*
Y71545D02*Y70645D01*
X16149D02*X16524Y70270D01*
X16149Y71245D02*Y70645D01*
Y71245D02*X16674Y71770D01*
X17124D01*
X17649Y71245D01*
Y70645D01*
X17274Y70270D02*X17649Y70645D01*
X16524Y70270D02*X17274D01*
X16149Y72295D02*X16674Y71770D01*
X16149Y72895D02*Y72295D01*
Y72895D02*X16524Y73270D01*
X17274D01*
X17649Y72895D01*
Y72295D01*
X17124Y71770D02*X17649Y72295D01*
X18549Y72520D02*Y70270D01*
Y72520D02*X19074Y73270D01*
X19899D01*
X20424Y72520D01*
Y70270D01*
X18549Y71770D02*X20424D01*
G54D54*X8000Y95000D02*X118000D01*
X8000Y105000D02*X118000D01*
G54D51*X13000D02*Y95000D01*
G54D54*X8000Y105000D02*G75*G03X8000Y95000I0J-5000D01*G01*
X118000D02*G75*G03X118000Y105000I0J5000D01*G01*
G54D51*X18000Y80945D02*X63000D01*
X5244D02*X19024D01*
X75717Y51969D02*Y80945D01*
X60795D01*
X75717Y52008D02*Y8504D01*
X5244Y51969D02*Y80945D01*
Y52008D02*Y8504D01*
X75717D01*
G54D55*X3000Y94000D02*X5000D01*
X4000D02*Y90000D01*
X6200Y92200D02*X7700D01*
X6200Y90000D02*X8200D01*
X6200Y94000D02*Y90000D01*
Y94000D02*X8200D01*
X9400D02*X11400D01*
X11900Y93500D01*
Y92500D01*
X11400Y92000D02*X11900Y92500D01*
X9900Y92000D02*X11400D01*
X9900Y94000D02*Y90000D01*
X10700Y92000D02*X11900Y90000D01*
X13100Y94000D02*Y90000D01*
Y94000D02*X14600Y92000D01*
X16100Y94000D01*
Y90000D01*
X38000Y29000D02*X40000D01*
X40500Y28500D01*
Y27500D01*
X40000Y27000D02*X40500Y27500D01*
X38500Y27000D02*X40000D01*
X38500Y29000D02*Y25000D01*
X39300Y27000D02*X40500Y25000D01*
X42400Y29000D02*X43200D01*
Y25500D01*
X42700Y25000D02*X43200Y25500D01*
X42200Y25000D02*X42700D01*
X41700Y25500D02*X42200Y25000D01*
X41700Y26000D02*Y25500D01*
X44400Y26500D02*X46400Y29000D01*
X44400Y26500D02*X46900D01*
X46400Y29000D02*Y25000D01*
X48100Y29000D02*X50100D01*
X48100D02*Y27000D01*
X48600Y27500D01*
X49600D01*
X50100Y27000D01*
Y25500D01*
X49600Y25000D02*X50100Y25500D01*
X48600Y25000D02*X49600D01*
X48100Y25500D02*X48600Y25000D01*
M02*
