G04 start of page 12 for group -3984 idx -3984 *
G04 Title: (unknown), fab *
G04 Creator: pcb 1.99z *
G04 CreationDate: Mon Aug 31 22:19:21 2015 UTC *
G04 For: commonadmin *
G04 Format: Gerber/RS-274X *
G04 PCB-Dimensions (mil): 1300.00 1100.00 *
G04 PCB-Coordinate-Origin: lower left *
%MOIN*%
%FSLAX25Y25*%
%LNFAB*%
%ADD59C,0.0100*%
%ADD58C,0.0075*%
%ADD57C,0.0060*%
%ADD56C,0.0080*%
G54D56*X16400Y41600D02*X19600D01*
X16400D02*Y38400D01*
X19600D01*
Y41600D02*Y38400D01*
X61400Y41600D02*X64600D01*
X61400D02*Y38400D01*
X64600D01*
Y41600D02*Y38400D01*
X13400Y122850D02*X16600D01*
X13400D02*Y119650D01*
X16600D01*
Y122850D02*Y119650D01*
G54D57*X135000Y123500D02*X136500Y120500D01*
X138000Y123500D01*
X136500Y120500D02*Y117500D01*
X139800Y120800D02*X142050D01*
X139800Y117500D02*X142800D01*
X139800Y123500D02*Y117500D01*
Y123500D02*X142800D01*
X147600D02*X148350Y122750D01*
X145350Y123500D02*X147600D01*
X144600Y122750D02*X145350Y123500D01*
X144600Y122750D02*Y121250D01*
X145350Y120500D01*
X147600D01*
X148350Y119750D01*
Y118250D01*
X147600Y117500D02*X148350Y118250D01*
X145350Y117500D02*X147600D01*
X144600Y118250D02*X145350Y117500D01*
X98000Y122750D02*X98750Y123500D01*
X101000D01*
X101750Y122750D01*
Y121250D01*
X98000Y117500D02*X101750Y121250D01*
X98000Y117500D02*X101750D01*
X45000Y118250D02*X45750Y117500D01*
X45000Y122750D02*Y118250D01*
Y122750D02*X45750Y123500D01*
X47250D01*
X48000Y122750D01*
Y118250D01*
X47250Y117500D02*X48000Y118250D01*
X45750Y117500D02*X47250D01*
X45000Y119000D02*X48000Y122000D01*
X49800Y117500D02*X50550D01*
X52350Y122300D02*X53550Y123500D01*
Y117500D01*
X52350D02*X54600D01*
X56400Y122750D02*X57150Y123500D01*
X59400D01*
X60150Y122750D01*
Y121250D01*
X56400Y117500D02*X60150Y121250D01*
X56400Y117500D02*X60150D01*
X61950Y118250D02*X62700Y117500D01*
X61950Y119450D02*Y118250D01*
Y119450D02*X63000Y120500D01*
X63900D01*
X64950Y119450D01*
Y118250D01*
X64200Y117500D02*X64950Y118250D01*
X62700Y117500D02*X64200D01*
X61950Y121550D02*X63000Y120500D01*
X61950Y122750D02*Y121550D01*
Y122750D02*X62700Y123500D01*
X64200D01*
X64950Y122750D01*
Y121550D01*
X63900Y120500D02*X64950Y121550D01*
X8657Y27992D02*G75*G03X10257Y27992I800J0D01*G01*
G75*G03X8657Y27992I-800J0D01*G01*
X70665D02*G75*G03X72265Y27992I800J0D01*G01*
G75*G03X70665Y27992I-800J0D01*G01*
X14200Y136250D02*G75*G03X15800Y136250I800J0D01*G01*
G75*G03X14200Y136250I-800J0D01*G01*
X135000Y138500D02*X136500Y135500D01*
X138000Y138500D01*
X136500Y135500D02*Y132500D01*
X139800Y135800D02*X142050D01*
X139800Y132500D02*X142800D01*
X139800Y138500D02*Y132500D01*
Y138500D02*X142800D01*
X147600D02*X148350Y137750D01*
X145350Y138500D02*X147600D01*
X144600Y137750D02*X145350Y138500D01*
X144600Y137750D02*Y136250D01*
X145350Y135500D01*
X147600D01*
X148350Y134750D01*
Y133250D01*
X147600Y132500D02*X148350Y133250D01*
X145350Y132500D02*X147600D01*
X144600Y133250D02*X145350Y132500D01*
X98000Y137750D02*X98750Y138500D01*
X101000D01*
X101750Y137750D01*
Y136250D01*
X98000Y132500D02*X101750Y136250D01*
X98000Y132500D02*X101750D01*
X45000Y133250D02*X45750Y132500D01*
X45000Y137750D02*Y133250D01*
Y137750D02*X45750Y138500D01*
X47250D01*
X48000Y137750D01*
Y133250D01*
X47250Y132500D02*X48000Y133250D01*
X45750Y132500D02*X47250D01*
X45000Y134000D02*X48000Y137000D01*
X49800Y132500D02*X50550D01*
X52350Y133250D02*X53100Y132500D01*
X52350Y137750D02*Y133250D01*
Y137750D02*X53100Y138500D01*
X54600D01*
X55350Y137750D01*
Y133250D01*
X54600Y132500D02*X55350Y133250D01*
X53100Y132500D02*X54600D01*
X52350Y134000D02*X55350Y137000D01*
X59400Y138500D02*X60150Y137750D01*
X57900Y138500D02*X59400D01*
X57150Y137750D02*X57900Y138500D01*
X57150Y137750D02*Y133250D01*
X57900Y132500D01*
X59400Y135800D02*X60150Y135050D01*
X57150Y135800D02*X59400D01*
X57900Y132500D02*X59400D01*
X60150Y133250D01*
Y135050D02*Y133250D01*
X61950Y137750D02*X62700Y138500D01*
X64200D01*
X64950Y137750D01*
X64200Y132500D02*X64950Y133250D01*
X62700Y132500D02*X64200D01*
X61950Y133250D02*X62700Y132500D01*
Y135800D02*X64200D01*
X64950Y137750D02*Y136550D01*
Y135050D02*Y133250D01*
Y135050D02*X64200Y135800D01*
X64950Y136550D02*X64200Y135800D01*
X26800Y76200D02*X29200Y73800D01*
X26800D02*X29200Y76200D01*
X36800D02*X39200Y73800D01*
X36800D02*X39200Y76200D01*
X46800D02*X49200Y73800D01*
X46800D02*X49200Y76200D01*
X56800D02*X59200Y73800D01*
X56800D02*X59200Y76200D01*
X21800Y66200D02*X24200Y63800D01*
X21800D02*X24200Y66200D01*
X31800D02*X34200Y63800D01*
X31800D02*X34200Y66200D01*
X41800D02*X44200Y63800D01*
X41800D02*X44200Y66200D01*
X51800D02*X54200Y63800D01*
X51800D02*X54200Y66200D01*
X13800Y152450D02*X16200Y150050D01*
X13800D02*X16200Y152450D01*
X135000Y153500D02*X136500Y150500D01*
X138000Y153500D01*
X136500Y150500D02*Y147500D01*
X139800Y150800D02*X142050D01*
X139800Y147500D02*X142800D01*
X139800Y153500D02*Y147500D01*
Y153500D02*X142800D01*
X147600D02*X148350Y152750D01*
X145350Y153500D02*X147600D01*
X144600Y152750D02*X145350Y153500D01*
X144600Y152750D02*Y151250D01*
X145350Y150500D01*
X147600D01*
X148350Y149750D01*
Y148250D01*
X147600Y147500D02*X148350Y148250D01*
X145350Y147500D02*X147600D01*
X144600Y148250D02*X145350Y147500D01*
X98000Y148250D02*X98750Y147500D01*
X98000Y149450D02*Y148250D01*
Y149450D02*X99050Y150500D01*
X99950D01*
X101000Y149450D01*
Y148250D01*
X100250Y147500D02*X101000Y148250D01*
X98750Y147500D02*X100250D01*
X98000Y151550D02*X99050Y150500D01*
X98000Y152750D02*Y151550D01*
Y152750D02*X98750Y153500D01*
X100250D01*
X101000Y152750D01*
Y151550D01*
X99950Y150500D02*X101000Y151550D01*
X45000Y148250D02*X45750Y147500D01*
X45000Y152750D02*Y148250D01*
Y152750D02*X45750Y153500D01*
X47250D01*
X48000Y152750D01*
Y148250D01*
X47250Y147500D02*X48000Y148250D01*
X45750Y147500D02*X47250D01*
X45000Y149000D02*X48000Y152000D01*
X49800Y147500D02*X50550D01*
X52350Y148250D02*X53100Y147500D01*
X52350Y152750D02*Y148250D01*
Y152750D02*X53100Y153500D01*
X54600D01*
X55350Y152750D01*
Y148250D01*
X54600Y147500D02*X55350Y148250D01*
X53100Y147500D02*X54600D01*
X52350Y149000D02*X55350Y152000D01*
X57150Y152750D02*X57900Y153500D01*
X59400D01*
X60150Y152750D01*
X59400Y147500D02*X60150Y148250D01*
X57900Y147500D02*X59400D01*
X57150Y148250D02*X57900Y147500D01*
Y150800D02*X59400D01*
X60150Y152750D02*Y151550D01*
Y150050D02*Y148250D01*
Y150050D02*X59400Y150800D01*
X60150Y151550D02*X59400Y150800D01*
X61950Y153500D02*X64950D01*
X61950D02*Y150500D01*
X62700Y151250D01*
X64200D01*
X64950Y150500D01*
Y148250D01*
X64200Y147500D02*X64950Y148250D01*
X62700Y147500D02*X64200D01*
X61950Y148250D02*X62700Y147500D01*
X8000Y101600D02*Y98400D01*
X6400Y100000D02*X9600D01*
X18000Y101600D02*Y98400D01*
X16400Y100000D02*X19600D01*
X28000Y101600D02*Y98400D01*
X26400Y100000D02*X29600D01*
X38000Y101600D02*Y98400D01*
X36400Y100000D02*X39600D01*
X48000Y101600D02*Y98400D01*
X46400Y100000D02*X49600D01*
X58000Y101600D02*Y98400D01*
X56400Y100000D02*X59600D01*
X68000Y101600D02*Y98400D01*
X66400Y100000D02*X69600D01*
X78000Y101600D02*Y98400D01*
X76400Y100000D02*X79600D01*
X88000Y101600D02*Y98400D01*
X86400Y100000D02*X89600D01*
X98000Y101600D02*Y98400D01*
X96400Y100000D02*X99600D01*
X108000Y101600D02*Y98400D01*
X106400Y100000D02*X109600D01*
X118000Y101600D02*Y98400D01*
X116400Y100000D02*X119600D01*
X15000Y167850D02*Y164650D01*
X13400Y166250D02*X16600D01*
X135000Y168500D02*X136500Y165500D01*
X138000Y168500D01*
X136500Y165500D02*Y162500D01*
X139800Y165800D02*X142050D01*
X139800Y162500D02*X142800D01*
X139800Y168500D02*Y162500D01*
Y168500D02*X142800D01*
X147600D02*X148350Y167750D01*
X145350Y168500D02*X147600D01*
X144600Y167750D02*X145350Y168500D01*
X144600Y167750D02*Y166250D01*
X145350Y165500D01*
X147600D01*
X148350Y164750D01*
Y163250D01*
X147600Y162500D02*X148350Y163250D01*
X145350Y162500D02*X147600D01*
X144600Y163250D02*X145350Y162500D01*
X98000Y167300D02*X99200Y168500D01*
Y162500D01*
X98000D02*X100250D01*
X102050Y167750D02*X102800Y168500D01*
X105050D01*
X105800Y167750D01*
Y166250D01*
X102050Y162500D02*X105800Y166250D01*
X102050Y162500D02*X105800D01*
X45000Y163250D02*X45750Y162500D01*
X45000Y167750D02*Y163250D01*
Y167750D02*X45750Y168500D01*
X47250D01*
X48000Y167750D01*
Y163250D01*
X47250Y162500D02*X48000Y163250D01*
X45750Y162500D02*X47250D01*
X45000Y164000D02*X48000Y167000D01*
X49800Y162500D02*X50550D01*
X52350Y163250D02*X53100Y162500D01*
X52350Y167750D02*Y163250D01*
Y167750D02*X53100Y168500D01*
X54600D01*
X55350Y167750D01*
Y163250D01*
X54600Y162500D02*X55350Y163250D01*
X53100Y162500D02*X54600D01*
X52350Y164000D02*X55350Y167000D01*
X57150Y167750D02*X57900Y168500D01*
X60150D01*
X60900Y167750D01*
Y166250D01*
X57150Y162500D02*X60900Y166250D01*
X57150Y162500D02*X60900D01*
X62700Y163250D02*X63450Y162500D01*
X62700Y164450D02*Y163250D01*
Y164450D02*X63750Y165500D01*
X64650D01*
X65700Y164450D01*
Y163250D01*
X64950Y162500D02*X65700Y163250D01*
X63450Y162500D02*X64950D01*
X62700Y166550D02*X63750Y165500D01*
X62700Y167750D02*Y166550D01*
Y167750D02*X63450Y168500D01*
X64950D01*
X65700Y167750D01*
Y166550D01*
X64650Y165500D02*X65700Y166550D01*
X12000Y86000D02*Y84400D01*
Y86000D02*X13387Y86800D01*
X12000Y86000D02*X10613Y86800D01*
X15000Y181250D02*Y179650D01*
Y181250D02*X16387Y182050D01*
X15000Y181250D02*X13613Y182050D01*
X135000Y183500D02*X136500Y180500D01*
X138000Y183500D01*
X136500Y180500D02*Y177500D01*
X139800Y180800D02*X142050D01*
X139800Y177500D02*X142800D01*
X139800Y183500D02*Y177500D01*
Y183500D02*X142800D01*
X147600D02*X148350Y182750D01*
X145350Y183500D02*X147600D01*
X144600Y182750D02*X145350Y183500D01*
X144600Y182750D02*Y181250D01*
X145350Y180500D01*
X147600D01*
X148350Y179750D01*
Y178250D01*
X147600Y177500D02*X148350Y178250D01*
X145350Y177500D02*X147600D01*
X144600Y178250D02*X145350Y177500D01*
X98000Y182300D02*X99200Y183500D01*
Y177500D01*
X98000D02*X100250D01*
X45000Y178250D02*X45750Y177500D01*
X45000Y182750D02*Y178250D01*
Y182750D02*X45750Y183500D01*
X47250D01*
X48000Y182750D01*
Y178250D01*
X47250Y177500D02*X48000Y178250D01*
X45750Y177500D02*X47250D01*
X45000Y179000D02*X48000Y182000D01*
X49800Y177500D02*X50550D01*
X52350Y178250D02*X53100Y177500D01*
X52350Y182750D02*Y178250D01*
Y182750D02*X53100Y183500D01*
X54600D01*
X55350Y182750D01*
Y178250D01*
X54600Y177500D02*X55350Y178250D01*
X53100Y177500D02*X54600D01*
X52350Y179000D02*X55350Y182000D01*
X57150Y182300D02*X58350Y183500D01*
Y177500D01*
X57150D02*X59400D01*
X61200Y182750D02*X61950Y183500D01*
X63450D01*
X64200Y182750D01*
X63450Y177500D02*X64200Y178250D01*
X61950Y177500D02*X63450D01*
X61200Y178250D02*X61950Y177500D01*
Y180800D02*X63450D01*
X64200Y182750D02*Y181550D01*
Y180050D02*Y178250D01*
Y180050D02*X63450Y180800D01*
X64200Y181550D02*X63450Y180800D01*
X3000Y198500D02*X3750Y197750D01*
X750Y198500D02*X3000D01*
X0Y197750D02*X750Y198500D01*
X0Y197750D02*Y196250D01*
X750Y195500D01*
X3000D01*
X3750Y194750D01*
Y193250D01*
X3000Y192500D02*X3750Y193250D01*
X750Y192500D02*X3000D01*
X0Y193250D02*X750Y192500D01*
X5550Y195500D02*Y193250D01*
X6300Y192500D01*
X8550Y195500D02*Y191000D01*
X7800Y190250D02*X8550Y191000D01*
X6300Y190250D02*X7800D01*
X5550Y191000D02*X6300Y190250D01*
Y192500D02*X7800D01*
X8550Y193250D01*
X11100Y194750D02*Y192500D01*
Y194750D02*X11850Y195500D01*
X12600D01*
X13350Y194750D01*
Y192500D01*
Y194750D02*X14100Y195500D01*
X14850D01*
X15600Y194750D01*
Y192500D01*
X10350Y195500D02*X11100Y194750D01*
X17400Y198500D02*Y192500D01*
Y193250D02*X18150Y192500D01*
X19650D01*
X20400Y193250D01*
Y194750D02*Y193250D01*
X19650Y195500D02*X20400Y194750D01*
X18150Y195500D02*X19650D01*
X17400Y194750D02*X18150Y195500D01*
X22200Y194750D02*Y193250D01*
Y194750D02*X22950Y195500D01*
X24450D01*
X25200Y194750D01*
Y193250D01*
X24450Y192500D02*X25200Y193250D01*
X22950Y192500D02*X24450D01*
X22200Y193250D02*X22950Y192500D01*
X27000Y198500D02*Y193250D01*
X27750Y192500D01*
X0Y189250D02*X29250D01*
X41750Y198500D02*Y192500D01*
X43700Y198500D02*X44750Y197450D01*
Y193550D01*
X43700Y192500D02*X44750Y193550D01*
X41000Y192500D02*X43700D01*
X41000Y198500D02*X43700D01*
G54D58*X46550Y197000D02*Y196850D01*
G54D57*Y194750D02*Y192500D01*
X50300Y195500D02*X51050Y194750D01*
X48800Y195500D02*X50300D01*
X48050Y194750D02*X48800Y195500D01*
X48050Y194750D02*Y193250D01*
X48800Y192500D01*
X51050Y195500D02*Y193250D01*
X51800Y192500D01*
X48800D02*X50300D01*
X51050Y193250D01*
X54350Y194750D02*Y192500D01*
Y194750D02*X55100Y195500D01*
X55850D01*
X56600Y194750D01*
Y192500D01*
Y194750D02*X57350Y195500D01*
X58100D01*
X58850Y194750D01*
Y192500D01*
X53600Y195500D02*X54350Y194750D01*
X60650Y192500D02*X61400D01*
X65900Y193250D02*X66650Y192500D01*
X65900Y197750D02*X66650Y198500D01*
X65900Y197750D02*Y193250D01*
X68450Y198500D02*X69950D01*
X69200D02*Y192500D01*
X68450D02*X69950D01*
X72500Y194750D02*Y192500D01*
Y194750D02*X73250Y195500D01*
X74000D01*
X74750Y194750D01*
Y192500D01*
X71750Y195500D02*X72500Y194750D01*
X77300Y195500D02*X79550D01*
X76550Y194750D02*X77300Y195500D01*
X76550Y194750D02*Y193250D01*
X77300Y192500D01*
X79550D01*
X81350Y198500D02*Y192500D01*
Y194750D02*X82100Y195500D01*
X83600D01*
X84350Y194750D01*
Y192500D01*
X86150Y198500D02*X86900Y197750D01*
Y193250D01*
X86150Y192500D02*X86900Y193250D01*
X41000Y189250D02*X88700D01*
X96050Y192500D02*X98000D01*
X95000Y193550D02*X96050Y192500D01*
X95000Y197450D02*Y193550D01*
Y197450D02*X96050Y198500D01*
X98000D01*
X99800Y194750D02*Y193250D01*
Y194750D02*X100550Y195500D01*
X102050D01*
X102800Y194750D01*
Y193250D01*
X102050Y192500D02*X102800Y193250D01*
X100550Y192500D02*X102050D01*
X99800Y193250D02*X100550Y192500D01*
X104600Y195500D02*Y193250D01*
X105350Y192500D01*
X106850D01*
X107600Y193250D01*
Y195500D02*Y193250D01*
X110150Y194750D02*Y192500D01*
Y194750D02*X110900Y195500D01*
X111650D01*
X112400Y194750D01*
Y192500D01*
X109400Y195500D02*X110150Y194750D01*
X114950Y198500D02*Y193250D01*
X115700Y192500D01*
X114200Y196250D02*X115700D01*
X95000Y189250D02*X117200D01*
X130750Y198500D02*Y192500D01*
X130000Y198500D02*X133000D01*
X133750Y197750D01*
Y196250D01*
X133000Y195500D02*X133750Y196250D01*
X130750Y195500D02*X133000D01*
X135550Y198500D02*Y193250D01*
X136300Y192500D01*
X140050Y195500D02*X140800Y194750D01*
X138550Y195500D02*X140050D01*
X137800Y194750D02*X138550Y195500D01*
X137800Y194750D02*Y193250D01*
X138550Y192500D01*
X140800Y195500D02*Y193250D01*
X141550Y192500D01*
X138550D02*X140050D01*
X140800Y193250D01*
X144100Y198500D02*Y193250D01*
X144850Y192500D01*
X143350Y196250D02*X144850D01*
X147100Y192500D02*X149350D01*
X146350Y193250D02*X147100Y192500D01*
X146350Y194750D02*Y193250D01*
Y194750D02*X147100Y195500D01*
X148600D01*
X149350Y194750D01*
X146350Y194000D02*X149350D01*
Y194750D02*Y194000D01*
X154150Y198500D02*Y192500D01*
X153400D02*X154150Y193250D01*
X151900Y192500D02*X153400D01*
X151150Y193250D02*X151900Y192500D01*
X151150Y194750D02*Y193250D01*
Y194750D02*X151900Y195500D01*
X153400D01*
X154150Y194750D01*
X157450Y195500D02*Y194750D01*
Y193250D02*Y192500D01*
X155950Y197750D02*Y197000D01*
Y197750D02*X156700Y198500D01*
X158200D01*
X158950Y197750D01*
Y197000D01*
X157450Y195500D02*X158950Y197000D01*
X130000Y189250D02*X160750D01*
X0Y213500D02*X3000D01*
X1500D02*Y207500D01*
X4800Y213500D02*Y207500D01*
Y209750D02*X5550Y210500D01*
X7050D01*
X7800Y209750D01*
Y207500D01*
X10350D02*X12600D01*
X9600Y208250D02*X10350Y207500D01*
X9600Y209750D02*Y208250D01*
Y209750D02*X10350Y210500D01*
X11850D01*
X12600Y209750D01*
X9600Y209000D02*X12600D01*
Y209750D02*Y209000D01*
X15150Y209750D02*Y207500D01*
Y209750D02*X15900Y210500D01*
X17400D01*
X14400D02*X15150Y209750D01*
X19950Y207500D02*X22200D01*
X19200Y208250D02*X19950Y207500D01*
X19200Y209750D02*Y208250D01*
Y209750D02*X19950Y210500D01*
X21450D01*
X22200Y209750D01*
X19200Y209000D02*X22200D01*
Y209750D02*Y209000D01*
X28950Y210500D02*X29700Y209750D01*
X27450Y210500D02*X28950D01*
X26700Y209750D02*X27450Y210500D01*
X26700Y209750D02*Y208250D01*
X27450Y207500D01*
X29700Y210500D02*Y208250D01*
X30450Y207500D01*
X27450D02*X28950D01*
X29700Y208250D01*
X33000Y209750D02*Y207500D01*
Y209750D02*X33750Y210500D01*
X35250D01*
X32250D02*X33000Y209750D01*
X37800Y207500D02*X40050D01*
X37050Y208250D02*X37800Y207500D01*
X37050Y209750D02*Y208250D01*
Y209750D02*X37800Y210500D01*
X39300D01*
X40050Y209750D01*
X37050Y209000D02*X40050D01*
Y209750D02*Y209000D01*
X44550Y213500D02*X47550D01*
X44550D02*Y210500D01*
X45300Y211250D01*
X46800D01*
X47550Y210500D01*
Y208250D01*
X46800Y207500D02*X47550Y208250D01*
X45300Y207500D02*X46800D01*
X44550Y208250D02*X45300Y207500D01*
X55050Y213500D02*Y207500D01*
X54300D02*X55050Y208250D01*
X52800Y207500D02*X54300D01*
X52050Y208250D02*X52800Y207500D01*
X52050Y209750D02*Y208250D01*
Y209750D02*X52800Y210500D01*
X54300D01*
X55050Y209750D01*
G54D58*X56850Y212000D02*Y211850D01*
G54D57*Y209750D02*Y207500D01*
X59100Y212750D02*Y207500D01*
Y212750D02*X59850Y213500D01*
X60600D01*
X58350Y210500D02*X59850D01*
X62850Y212750D02*Y207500D01*
Y212750D02*X63600Y213500D01*
X64350D01*
X62100Y210500D02*X63600D01*
X66600Y207500D02*X68850D01*
X65850Y208250D02*X66600Y207500D01*
X65850Y209750D02*Y208250D01*
Y209750D02*X66600Y210500D01*
X68100D01*
X68850Y209750D01*
X65850Y209000D02*X68850D01*
Y209750D02*Y209000D01*
X71400Y209750D02*Y207500D01*
Y209750D02*X72150Y210500D01*
X73650D01*
X70650D02*X71400Y209750D01*
X76200Y207500D02*X78450D01*
X75450Y208250D02*X76200Y207500D01*
X75450Y209750D02*Y208250D01*
Y209750D02*X76200Y210500D01*
X77700D01*
X78450Y209750D01*
X75450Y209000D02*X78450D01*
Y209750D02*Y209000D01*
X81000Y209750D02*Y207500D01*
Y209750D02*X81750Y210500D01*
X82500D01*
X83250Y209750D01*
Y207500D01*
X80250Y210500D02*X81000Y209750D01*
X85800Y213500D02*Y208250D01*
X86550Y207500D01*
X85050Y211250D02*X86550D01*
X93750Y213500D02*Y207500D01*
X93000D02*X93750Y208250D01*
X91500Y207500D02*X93000D01*
X90750Y208250D02*X91500Y207500D01*
X90750Y209750D02*Y208250D01*
Y209750D02*X91500Y210500D01*
X93000D01*
X93750Y209750D01*
X96300D02*Y207500D01*
Y209750D02*X97050Y210500D01*
X98550D01*
X95550D02*X96300Y209750D01*
G54D58*X100350Y212000D02*Y211850D01*
G54D57*Y209750D02*Y207500D01*
X101850Y213500D02*Y208250D01*
X102600Y207500D01*
X104100Y213500D02*Y208250D01*
X104850Y207500D01*
X109800D02*X112050D01*
X112800Y208250D01*
X112050Y209000D02*X112800Y208250D01*
X109800Y209000D02*X112050D01*
X109050Y209750D02*X109800Y209000D01*
X109050Y209750D02*X109800Y210500D01*
X112050D01*
X112800Y209750D01*
X109050Y208250D02*X109800Y207500D01*
G54D58*X114600Y212000D02*Y211850D01*
G54D57*Y209750D02*Y207500D01*
X116100Y210500D02*X119100D01*
X116100Y207500D02*X119100Y210500D01*
X116100Y207500D02*X119100D01*
X121650D02*X123900D01*
X120900Y208250D02*X121650Y207500D01*
X120900Y209750D02*Y208250D01*
Y209750D02*X121650Y210500D01*
X123150D01*
X123900Y209750D01*
X120900Y209000D02*X123900D01*
Y209750D02*Y209000D01*
X126450Y207500D02*X128700D01*
X129450Y208250D01*
X128700Y209000D02*X129450Y208250D01*
X126450Y209000D02*X128700D01*
X125700Y209750D02*X126450Y209000D01*
X125700Y209750D02*X126450Y210500D01*
X128700D01*
X129450Y209750D01*
X125700Y208250D02*X126450Y207500D01*
X133950Y210500D02*Y208250D01*
X134700Y207500D01*
X136200D01*
X136950Y208250D01*
Y210500D02*Y208250D01*
X139500Y207500D02*X141750D01*
X142500Y208250D01*
X141750Y209000D02*X142500Y208250D01*
X139500Y209000D02*X141750D01*
X138750Y209750D02*X139500Y209000D01*
X138750Y209750D02*X139500Y210500D01*
X141750D01*
X142500Y209750D01*
X138750Y208250D02*X139500Y207500D01*
X145050D02*X147300D01*
X144300Y208250D02*X145050Y207500D01*
X144300Y209750D02*Y208250D01*
Y209750D02*X145050Y210500D01*
X146550D01*
X147300Y209750D01*
X144300Y209000D02*X147300D01*
Y209750D02*Y209000D01*
X152100Y213500D02*Y207500D01*
X151350D02*X152100Y208250D01*
X149850Y207500D02*X151350D01*
X149100Y208250D02*X149850Y207500D01*
X149100Y209750D02*Y208250D01*
Y209750D02*X149850Y210500D01*
X151350D01*
X152100Y209750D01*
G54D58*X156600Y212000D02*Y211850D01*
G54D57*Y209750D02*Y207500D01*
X158850Y209750D02*Y207500D01*
Y209750D02*X159600Y210500D01*
X160350D01*
X161100Y209750D01*
Y207500D01*
X158100Y210500D02*X158850Y209750D01*
X166350Y213500D02*Y208250D01*
X167100Y207500D01*
X165600Y211250D02*X167100D01*
X168600Y213500D02*Y207500D01*
Y209750D02*X169350Y210500D01*
X170850D01*
X171600Y209750D01*
Y207500D01*
G54D58*X173400Y212000D02*Y211850D01*
G54D57*Y209750D02*Y207500D01*
X175650D02*X177900D01*
X178650Y208250D01*
X177900Y209000D02*X178650Y208250D01*
X175650Y209000D02*X177900D01*
X174900Y209750D02*X175650Y209000D01*
X174900Y209750D02*X175650Y210500D01*
X177900D01*
X178650Y209750D01*
X174900Y208250D02*X175650Y207500D01*
X183150Y213500D02*Y208250D01*
X183900Y207500D01*
X187650Y210500D02*X188400Y209750D01*
X186150Y210500D02*X187650D01*
X185400Y209750D02*X186150Y210500D01*
X185400Y209750D02*Y208250D01*
X186150Y207500D01*
X188400Y210500D02*Y208250D01*
X189150Y207500D01*
X186150D02*X187650D01*
X188400Y208250D01*
X190950Y210500D02*Y208250D01*
X191700Y207500D01*
X193950Y210500D02*Y206000D01*
X193200Y205250D02*X193950Y206000D01*
X191700Y205250D02*X193200D01*
X190950Y206000D02*X191700Y205250D01*
Y207500D02*X193200D01*
X193950Y208250D01*
X195750Y209750D02*Y208250D01*
Y209750D02*X196500Y210500D01*
X198000D01*
X198750Y209750D01*
Y208250D01*
X198000Y207500D02*X198750Y208250D01*
X196500Y207500D02*X198000D01*
X195750Y208250D02*X196500Y207500D01*
X200550Y210500D02*Y208250D01*
X201300Y207500D01*
X202800D01*
X203550Y208250D01*
Y210500D02*Y208250D01*
X206100Y213500D02*Y208250D01*
X206850Y207500D01*
X205350Y211250D02*X206850D01*
X208350Y206000D02*X209850Y207500D01*
X214350Y212750D02*X215100Y213500D01*
X217350D01*
X218100Y212750D01*
Y211250D01*
X214350Y207500D02*X218100Y211250D01*
X214350Y207500D02*X218100D01*
X219900Y213500D02*X222900D01*
X219900D02*Y210500D01*
X220650Y211250D01*
X222150D01*
X222900Y210500D01*
Y208250D01*
X222150Y207500D02*X222900Y208250D01*
X220650Y207500D02*X222150D01*
X219900Y208250D02*X220650Y207500D01*
X227400Y213500D02*Y207500D01*
Y209750D02*X228150Y210500D01*
X229650D01*
X230400Y209750D01*
Y207500D01*
X232200Y209750D02*Y208250D01*
Y209750D02*X232950Y210500D01*
X234450D01*
X235200Y209750D01*
Y208250D01*
X234450Y207500D02*X235200Y208250D01*
X232950Y207500D02*X234450D01*
X232200Y208250D02*X232950Y207500D01*
X237000Y213500D02*Y208250D01*
X237750Y207500D01*
X240000D02*X242250D01*
X239250Y208250D02*X240000Y207500D01*
X239250Y209750D02*Y208250D01*
Y209750D02*X240000Y210500D01*
X241500D01*
X242250Y209750D01*
X239250Y209000D02*X242250D01*
Y209750D02*Y209000D01*
X244800Y207500D02*X247050D01*
X247800Y208250D01*
X247050Y209000D02*X247800Y208250D01*
X244800Y209000D02*X247050D01*
X244050Y209750D02*X244800Y209000D01*
X244050Y209750D02*X244800Y210500D01*
X247050D01*
X247800Y209750D01*
X244050Y208250D02*X244800Y207500D01*
X253050Y213500D02*Y208250D01*
X253800Y207500D01*
X252300Y211250D02*X253800D01*
X255300Y209750D02*Y208250D01*
Y209750D02*X256050Y210500D01*
X257550D01*
X258300Y209750D01*
Y208250D01*
X257550Y207500D02*X258300Y208250D01*
X256050Y207500D02*X257550D01*
X255300Y208250D02*X256050Y207500D01*
X260850Y213500D02*Y208250D01*
X261600Y207500D01*
X260100Y211250D02*X261600D01*
X265350Y210500D02*X266100Y209750D01*
X263850Y210500D02*X265350D01*
X263100Y209750D02*X263850Y210500D01*
X263100Y209750D02*Y208250D01*
X263850Y207500D01*
X266100Y210500D02*Y208250D01*
X266850Y207500D01*
X263850D02*X265350D01*
X266100Y208250D01*
X268650Y213500D02*Y208250D01*
X269400Y207500D01*
G54D59*X3000Y6000D02*Y87000D01*
X1000Y89000D01*
Y109000D01*
X126000D01*
Y89000D01*
X124000Y87000D01*
X85000D01*
X79000Y81000D01*
Y6000D01*
X3000D01*
G54D57*X0Y-9500D02*X3000D01*
X3750Y-8750D01*
Y-6950D02*Y-8750D01*
X3000Y-6200D02*X3750Y-6950D01*
X750Y-6200D02*X3000D01*
X750Y-3500D02*Y-9500D01*
X0Y-3500D02*X3000D01*
X3750Y-4250D01*
Y-5450D01*
X3000Y-6200D02*X3750Y-5450D01*
X5550Y-7250D02*Y-8750D01*
Y-7250D02*X6300Y-6500D01*
X7800D01*
X8550Y-7250D01*
Y-8750D01*
X7800Y-9500D02*X8550Y-8750D01*
X6300Y-9500D02*X7800D01*
X5550Y-8750D02*X6300Y-9500D01*
X12600Y-6500D02*X13350Y-7250D01*
X11100Y-6500D02*X12600D01*
X10350Y-7250D02*X11100Y-6500D01*
X10350Y-7250D02*Y-8750D01*
X11100Y-9500D01*
X13350Y-6500D02*Y-8750D01*
X14100Y-9500D01*
X11100D02*X12600D01*
X13350Y-8750D01*
X16650Y-7250D02*Y-9500D01*
Y-7250D02*X17400Y-6500D01*
X18900D01*
X15900D02*X16650Y-7250D01*
X23700Y-3500D02*Y-9500D01*
X22950D02*X23700Y-8750D01*
X21450Y-9500D02*X22950D01*
X20700Y-8750D02*X21450Y-9500D01*
X20700Y-7250D02*Y-8750D01*
Y-7250D02*X21450Y-6500D01*
X22950D01*
X23700Y-7250D01*
X28200D02*Y-8750D01*
Y-7250D02*X28950Y-6500D01*
X30450D01*
X31200Y-7250D01*
Y-8750D01*
X30450Y-9500D02*X31200Y-8750D01*
X28950Y-9500D02*X30450D01*
X28200Y-8750D02*X28950Y-9500D01*
X33000Y-6500D02*Y-8750D01*
X33750Y-9500D01*
X35250D01*
X36000Y-8750D01*
Y-6500D02*Y-8750D01*
X38550Y-3500D02*Y-8750D01*
X39300Y-9500D01*
X37800Y-5750D02*X39300D01*
X40800Y-3500D02*Y-8750D01*
X41550Y-9500D01*
G54D58*X43050Y-5000D02*Y-5150D01*
G54D57*Y-7250D02*Y-9500D01*
X45300Y-7250D02*Y-9500D01*
Y-7250D02*X46050Y-6500D01*
X46800D01*
X47550Y-7250D01*
Y-9500D01*
X44550Y-6500D02*X45300Y-7250D01*
X50100Y-9500D02*X52350D01*
X49350Y-8750D02*X50100Y-9500D01*
X49350Y-7250D02*Y-8750D01*
Y-7250D02*X50100Y-6500D01*
X51600D01*
X52350Y-7250D01*
X49350Y-8000D02*X52350D01*
Y-7250D02*Y-8000D01*
G54D58*X56850Y-5000D02*Y-5150D01*
G54D57*Y-7250D02*Y-9500D01*
X59100D02*X61350D01*
X62100Y-8750D01*
X61350Y-8000D02*X62100Y-8750D01*
X59100Y-8000D02*X61350D01*
X58350Y-7250D02*X59100Y-8000D01*
X58350Y-7250D02*X59100Y-6500D01*
X61350D01*
X62100Y-7250D01*
X58350Y-8750D02*X59100Y-9500D01*
X67350Y-3500D02*Y-8750D01*
X68100Y-9500D01*
X66600Y-5750D02*X68100D01*
X69600Y-3500D02*Y-9500D01*
Y-7250D02*X70350Y-6500D01*
X71850D01*
X72600Y-7250D01*
Y-9500D01*
X75150D02*X77400D01*
X74400Y-8750D02*X75150Y-9500D01*
X74400Y-7250D02*Y-8750D01*
Y-7250D02*X75150Y-6500D01*
X76650D01*
X77400Y-7250D01*
X74400Y-8000D02*X77400D01*
Y-7250D02*Y-8000D01*
X82650Y-6500D02*X84900D01*
X81900Y-7250D02*X82650Y-6500D01*
X81900Y-7250D02*Y-8750D01*
X82650Y-9500D01*
X84900D01*
X87450D02*X89700D01*
X86700Y-8750D02*X87450Y-9500D01*
X86700Y-7250D02*Y-8750D01*
Y-7250D02*X87450Y-6500D01*
X88950D01*
X89700Y-7250D01*
X86700Y-8000D02*X89700D01*
Y-7250D02*Y-8000D01*
X92250Y-7250D02*Y-9500D01*
Y-7250D02*X93000Y-6500D01*
X93750D01*
X94500Y-7250D01*
Y-9500D01*
X91500Y-6500D02*X92250Y-7250D01*
X97050Y-3500D02*Y-8750D01*
X97800Y-9500D01*
X96300Y-5750D02*X97800D01*
X100050Y-9500D02*X102300D01*
X99300Y-8750D02*X100050Y-9500D01*
X99300Y-7250D02*Y-8750D01*
Y-7250D02*X100050Y-6500D01*
X101550D01*
X102300Y-7250D01*
X99300Y-8000D02*X102300D01*
Y-7250D02*Y-8000D01*
X104850Y-7250D02*Y-9500D01*
Y-7250D02*X105600Y-6500D01*
X107100D01*
X104100D02*X104850Y-7250D01*
X108900Y-3500D02*Y-8750D01*
X109650Y-9500D01*
G54D58*X111150Y-5000D02*Y-5150D01*
G54D57*Y-7250D02*Y-9500D01*
X113400Y-7250D02*Y-9500D01*
Y-7250D02*X114150Y-6500D01*
X114900D01*
X115650Y-7250D01*
Y-9500D01*
X112650Y-6500D02*X113400Y-7250D01*
X118200Y-9500D02*X120450D01*
X117450Y-8750D02*X118200Y-9500D01*
X117450Y-7250D02*Y-8750D01*
Y-7250D02*X118200Y-6500D01*
X119700D01*
X120450Y-7250D01*
X117450Y-8000D02*X120450D01*
Y-7250D02*Y-8000D01*
X124950Y-7250D02*Y-8750D01*
Y-7250D02*X125700Y-6500D01*
X127200D01*
X127950Y-7250D01*
Y-8750D01*
X127200Y-9500D02*X127950Y-8750D01*
X125700Y-9500D02*X127200D01*
X124950Y-8750D02*X125700Y-9500D01*
X130500Y-4250D02*Y-9500D01*
Y-4250D02*X131250Y-3500D01*
X132000D01*
X129750Y-6500D02*X131250D01*
X136950Y-3500D02*Y-8750D01*
X137700Y-9500D01*
X136200Y-5750D02*X137700D01*
X139200Y-3500D02*Y-9500D01*
Y-7250D02*X139950Y-6500D01*
X141450D01*
X142200Y-7250D01*
Y-9500D01*
G54D58*X144000Y-5000D02*Y-5150D01*
G54D57*Y-7250D02*Y-9500D01*
X146250D02*X148500D01*
X149250Y-8750D01*
X148500Y-8000D02*X149250Y-8750D01*
X146250Y-8000D02*X148500D01*
X145500Y-7250D02*X146250Y-8000D01*
X145500Y-7250D02*X146250Y-6500D01*
X148500D01*
X149250Y-7250D01*
X145500Y-8750D02*X146250Y-9500D01*
X154500Y-7250D02*Y-11750D01*
X153750Y-6500D02*X154500Y-7250D01*
X155250Y-6500D01*
X156750D01*
X157500Y-7250D01*
Y-8750D01*
X156750Y-9500D02*X157500Y-8750D01*
X155250Y-9500D02*X156750D01*
X154500Y-8750D02*X155250Y-9500D01*
X161550Y-6500D02*X162300Y-7250D01*
X160050Y-6500D02*X161550D01*
X159300Y-7250D02*X160050Y-6500D01*
X159300Y-7250D02*Y-8750D01*
X160050Y-9500D01*
X162300Y-6500D02*Y-8750D01*
X163050Y-9500D01*
X160050D02*X161550D01*
X162300Y-8750D01*
X165600Y-3500D02*Y-8750D01*
X166350Y-9500D01*
X164850Y-5750D02*X166350D01*
X167850Y-3500D02*Y-9500D01*
Y-7250D02*X168600Y-6500D01*
X170100D01*
X170850Y-7250D01*
Y-9500D01*
X200750Y138500D02*Y132500D01*
X202700Y138500D02*X203750Y137450D01*
Y133550D01*
X202700Y132500D02*X203750Y133550D01*
X200000Y132500D02*X202700D01*
X200000Y138500D02*X202700D01*
X207800Y135500D02*X208550Y134750D01*
X206300Y135500D02*X207800D01*
X205550Y134750D02*X206300Y135500D01*
X205550Y134750D02*Y133250D01*
X206300Y132500D01*
X208550Y135500D02*Y133250D01*
X209300Y132500D01*
X206300D02*X207800D01*
X208550Y133250D01*
X211850Y138500D02*Y133250D01*
X212600Y132500D01*
X211100Y136250D02*X212600D01*
X214850Y132500D02*X217100D01*
X214100Y133250D02*X214850Y132500D01*
X214100Y134750D02*Y133250D01*
Y134750D02*X214850Y135500D01*
X216350D01*
X217100Y134750D01*
X214100Y134000D02*X217100D01*
Y134750D02*Y134000D01*
X218900Y136250D02*X219650D01*
X218900Y134750D02*X219650D01*
X224150Y138500D02*Y132500D01*
Y138500D02*X226400Y135500D01*
X228650Y138500D01*
Y132500D01*
X230450Y134750D02*Y133250D01*
Y134750D02*X231200Y135500D01*
X232700D01*
X233450Y134750D01*
Y133250D01*
X232700Y132500D02*X233450Y133250D01*
X231200Y132500D02*X232700D01*
X230450Y133250D02*X231200Y132500D01*
X236000Y134750D02*Y132500D01*
Y134750D02*X236750Y135500D01*
X237500D01*
X238250Y134750D01*
Y132500D01*
X235250Y135500D02*X236000Y134750D01*
X242750Y137000D02*Y132500D01*
Y137000D02*X243800Y138500D01*
X245450D01*
X246500Y137000D01*
Y132500D01*
X242750Y135500D02*X246500D01*
X248300D02*Y133250D01*
X249050Y132500D01*
X250550D01*
X251300Y133250D01*
Y135500D02*Y133250D01*
X255350Y135500D02*X256100Y134750D01*
X253850Y135500D02*X255350D01*
X253100Y134750D02*X253850Y135500D01*
X253100Y134750D02*Y133250D01*
X253850Y132500D01*
X255350D01*
X256100Y133250D01*
X253100Y131000D02*X253850Y130250D01*
X255350D01*
X256100Y131000D01*
Y135500D02*Y131000D01*
X260600Y137750D02*X261350Y138500D01*
X262850D01*
X263600Y137750D01*
X262850Y132500D02*X263600Y133250D01*
X261350Y132500D02*X262850D01*
X260600Y133250D02*X261350Y132500D01*
Y135800D02*X262850D01*
X263600Y137750D02*Y136550D01*
Y135050D02*Y133250D01*
Y135050D02*X262850Y135800D01*
X263600Y136550D02*X262850Y135800D01*
X265400Y137300D02*X266600Y138500D01*
Y132500D01*
X265400D02*X267650D01*
X272150Y137750D02*X272900Y138500D01*
X275150D01*
X275900Y137750D01*
Y136250D01*
X272150Y132500D02*X275900Y136250D01*
X272150Y132500D02*X275900D01*
X277700Y137750D02*X278450Y138500D01*
X280700D01*
X281450Y137750D01*
Y136250D01*
X277700Y132500D02*X281450Y136250D01*
X277700Y132500D02*X281450D01*
X283250Y136250D02*X284000D01*
X283250Y134750D02*X284000D01*
X285800Y137300D02*X287000Y138500D01*
Y132500D01*
X285800D02*X288050D01*
X290600D02*X292850Y135500D01*
Y137750D02*Y135500D01*
X292100Y138500D02*X292850Y137750D01*
X290600Y138500D02*X292100D01*
X289850Y137750D02*X290600Y138500D01*
X289850Y137750D02*Y136250D01*
X290600Y135500D01*
X292850D01*
X294650Y136250D02*X295400D01*
X294650Y134750D02*X295400D01*
X297200Y137750D02*X297950Y138500D01*
X300200D01*
X300950Y137750D01*
Y136250D01*
X297200Y132500D02*X300950Y136250D01*
X297200Y132500D02*X300950D01*
X302750Y137300D02*X303950Y138500D01*
Y132500D01*
X302750D02*X305000D01*
X309500Y137750D02*X310250Y138500D01*
X312500D01*
X313250Y137750D01*
Y136250D01*
X309500Y132500D02*X313250Y136250D01*
X309500Y132500D02*X313250D01*
X315050Y133250D02*X315800Y132500D01*
X315050Y137750D02*Y133250D01*
Y137750D02*X315800Y138500D01*
X317300D01*
X318050Y137750D01*
Y133250D01*
X317300Y132500D02*X318050Y133250D01*
X315800Y132500D02*X317300D01*
X315050Y134000D02*X318050Y137000D01*
X319850Y137300D02*X321050Y138500D01*
Y132500D01*
X319850D02*X322100D01*
X323900Y138500D02*X326900D01*
X323900D02*Y135500D01*
X324650Y136250D01*
X326150D01*
X326900Y135500D01*
Y133250D01*
X326150Y132500D02*X326900Y133250D01*
X324650Y132500D02*X326150D01*
X323900Y133250D02*X324650Y132500D01*
X331400Y138500D02*Y133250D01*
X332150Y132500D01*
X333650D01*
X334400Y133250D01*
Y138500D02*Y133250D01*
X336200Y138500D02*X339200D01*
X337700D02*Y132500D01*
X342050D02*X344000D01*
X341000Y133550D02*X342050Y132500D01*
X341000Y137450D02*Y133550D01*
Y137450D02*X342050Y138500D01*
X344000D01*
X200000Y152000D02*Y147500D01*
Y152000D02*X201050Y153500D01*
X202700D01*
X203750Y152000D01*
Y147500D01*
X200000Y150500D02*X203750D01*
X205550D02*Y148250D01*
X206300Y147500D01*
X207800D01*
X208550Y148250D01*
Y150500D02*Y148250D01*
X211100Y153500D02*Y148250D01*
X211850Y147500D01*
X210350Y151250D02*X211850D01*
X213350Y153500D02*Y147500D01*
Y149750D02*X214100Y150500D01*
X215600D01*
X216350Y149750D01*
Y147500D01*
X218150Y149750D02*Y148250D01*
Y149750D02*X218900Y150500D01*
X220400D01*
X221150Y149750D01*
Y148250D01*
X220400Y147500D02*X221150Y148250D01*
X218900Y147500D02*X220400D01*
X218150Y148250D02*X218900Y147500D01*
X223700Y149750D02*Y147500D01*
Y149750D02*X224450Y150500D01*
X225950D01*
X222950D02*X223700Y149750D01*
X227750Y151250D02*X228500D01*
X227750Y149750D02*X228500D01*
X200000Y168500D02*X203000D01*
X201500D02*Y162500D01*
G54D58*X204800Y167000D02*Y166850D01*
G54D57*Y164750D02*Y162500D01*
X207050Y168500D02*Y163250D01*
X207800Y162500D01*
X206300Y166250D02*X207800D01*
X209300Y168500D02*Y163250D01*
X210050Y162500D01*
X212300D02*X214550D01*
X211550Y163250D02*X212300Y162500D01*
X211550Y164750D02*Y163250D01*
Y164750D02*X212300Y165500D01*
X213800D01*
X214550Y164750D01*
X211550Y164000D02*X214550D01*
Y164750D02*Y164000D01*
X216350Y166250D02*X217100D01*
X216350Y164750D02*X217100D01*
X221600Y163250D02*X222350Y162500D01*
X221600Y167750D02*X222350Y168500D01*
X221600Y167750D02*Y163250D01*
X224150Y165500D02*Y163250D01*
X224900Y162500D01*
X226400D01*
X227150Y163250D01*
Y165500D02*Y163250D01*
X229700Y164750D02*Y162500D01*
Y164750D02*X230450Y165500D01*
X231200D01*
X231950Y164750D01*
Y162500D01*
X228950Y165500D02*X229700Y164750D01*
X233750Y168500D02*Y162500D01*
Y164750D02*X236000Y162500D01*
X233750Y164750D02*X235250Y166250D01*
X238550Y164750D02*Y162500D01*
Y164750D02*X239300Y165500D01*
X240050D01*
X240800Y164750D01*
Y162500D01*
X237800Y165500D02*X238550Y164750D01*
X242600D02*Y163250D01*
Y164750D02*X243350Y165500D01*
X244850D01*
X245600Y164750D01*
Y163250D01*
X244850Y162500D02*X245600Y163250D01*
X243350Y162500D02*X244850D01*
X242600Y163250D02*X243350Y162500D01*
X247400Y165500D02*Y163250D01*
X248150Y162500D01*
X248900D01*
X249650Y163250D01*
Y165500D02*Y163250D01*
X250400Y162500D01*
X251150D01*
X251900Y163250D01*
Y165500D02*Y163250D01*
X254450Y164750D02*Y162500D01*
Y164750D02*X255200Y165500D01*
X255950D01*
X256700Y164750D01*
Y162500D01*
X253700Y165500D02*X254450Y164750D01*
X258500Y168500D02*X259250Y167750D01*
Y163250D01*
X258500Y162500D02*X259250Y163250D01*
X263750Y165500D02*X266750D01*
X271250Y168500D02*Y162500D01*
Y168500D02*X274250D01*
X271250Y165800D02*X273500D01*
X278300Y165500D02*X279050Y164750D01*
X276800Y165500D02*X278300D01*
X276050Y164750D02*X276800Y165500D01*
X276050Y164750D02*Y163250D01*
X276800Y162500D01*
X279050Y165500D02*Y163250D01*
X279800Y162500D01*
X276800D02*X278300D01*
X279050Y163250D01*
X281600Y168500D02*Y162500D01*
Y163250D02*X282350Y162500D01*
X283850D01*
X284600Y163250D01*
Y164750D02*Y163250D01*
X283850Y165500D02*X284600Y164750D01*
X282350Y165500D02*X283850D01*
X281600Y164750D02*X282350Y165500D01*
X287150Y164750D02*Y162500D01*
Y164750D02*X287900Y165500D01*
X289400D01*
X286400D02*X287150Y164750D01*
G54D58*X291200Y167000D02*Y166850D01*
G54D57*Y164750D02*Y162500D01*
X293450Y165500D02*X295700D01*
X292700Y164750D02*X293450Y165500D01*
X292700Y164750D02*Y163250D01*
X293450Y162500D01*
X295700D01*
X299750Y165500D02*X300500Y164750D01*
X298250Y165500D02*X299750D01*
X297500Y164750D02*X298250Y165500D01*
X297500Y164750D02*Y163250D01*
X298250Y162500D01*
X300500Y165500D02*Y163250D01*
X301250Y162500D01*
X298250D02*X299750D01*
X300500Y163250D01*
X303800Y168500D02*Y163250D01*
X304550Y162500D01*
X303050Y166250D02*X304550D01*
G54D58*X306050Y167000D02*Y166850D01*
G54D57*Y164750D02*Y162500D01*
X307550Y164750D02*Y163250D01*
Y164750D02*X308300Y165500D01*
X309800D01*
X310550Y164750D01*
Y163250D01*
X309800Y162500D02*X310550Y163250D01*
X308300Y162500D02*X309800D01*
X307550Y163250D02*X308300Y162500D01*
X313100Y164750D02*Y162500D01*
Y164750D02*X313850Y165500D01*
X314600D01*
X315350Y164750D01*
Y162500D01*
X312350Y165500D02*X313100Y164750D01*
X320600Y168500D02*Y162500D01*
X322550Y168500D02*X323600Y167450D01*
Y163550D01*
X322550Y162500D02*X323600Y163550D01*
X319850Y162500D02*X322550D01*
X319850Y168500D02*X322550D01*
X326150Y164750D02*Y162500D01*
Y164750D02*X326900Y165500D01*
X328400D01*
X325400D02*X326150Y164750D01*
X332450Y165500D02*X333200Y164750D01*
X330950Y165500D02*X332450D01*
X330200Y164750D02*X330950Y165500D01*
X330200Y164750D02*Y163250D01*
X330950Y162500D01*
X333200Y165500D02*Y163250D01*
X333950Y162500D01*
X330950D02*X332450D01*
X333200Y163250D01*
X335750Y165500D02*Y163250D01*
X336500Y162500D01*
X337250D01*
X338000Y163250D01*
Y165500D02*Y163250D01*
X338750Y162500D01*
X339500D01*
X340250Y163250D01*
Y165500D02*Y163250D01*
G54D58*X342050Y167000D02*Y166850D01*
G54D57*Y164750D02*Y162500D01*
X344300Y164750D02*Y162500D01*
Y164750D02*X345050Y165500D01*
X345800D01*
X346550Y164750D01*
Y162500D01*
X343550Y165500D02*X344300Y164750D01*
X350600Y165500D02*X351350Y164750D01*
X349100Y165500D02*X350600D01*
X348350Y164750D02*X349100Y165500D01*
X348350Y164750D02*Y163250D01*
X349100Y162500D01*
X350600D01*
X351350Y163250D01*
X348350Y161000D02*X349100Y160250D01*
X350600D01*
X351350Y161000D01*
Y165500D02*Y161000D01*
M02*
