G04 This is an RS-274x file exported by *
G04 gerbv version 2.7.0 *
G04 More information is available about gerbv at *
G04 http://gerbv.geda-project.org/ *
G04 --End of header info--*
%MOIN*%
%FSLAX36Y36*%
%IPPOS*%
G04 --Define apertures--*
%ADD10C,0.0060*%
%ADD11C,0.0040*%
%ADD12C,0.0100*%
G04 --Start main section--*
G54D10*
G01X0140000Y5000000D02*
G01X0140000Y4950000D01*
G01X0000000Y5000000D02*
G01X0140000Y5000000D01*
G01X0000000Y4950000D02*
G01X0000000Y5000000D01*
G01X0140000Y4950000D02*
G01X0000000Y4950000D01*
G54D11*
G01X0025200Y4992400D02*
G01X0025200Y4962000D01*
G01X0021400Y4962000D02*
G01X0025200Y4965800D01*
G01X0013800Y4962000D02*
G01X0021400Y4962000D01*
G01X0010000Y4965800D02*
G01X0013800Y4962000D01*
G01X0010000Y4973400D02*
G01X0010000Y4965800D01*
G01X0010000Y4973400D02*
G01X0013800Y4977200D01*
G01X0013800Y4977200D02*
G01X0021400Y4977200D01*
G01X0021400Y4977200D02*
G01X0025200Y4973400D01*
G01X0034320Y4984800D02*
G01X0034320Y4984040D01*
G01X0034320Y4973400D02*
G01X0034320Y4962000D01*
G01X0045720Y4962000D02*
G01X0057120Y4962000D01*
G01X0057120Y4962000D02*
G01X0060920Y4965800D01*
G01X0057120Y4969600D02*
G01X0060920Y4965800D01*
G01X0045720Y4969600D02*
G01X0057120Y4969600D01*
G01X0041920Y4973400D02*
G01X0045720Y4969600D01*
G01X0041920Y4973400D02*
G01X0045720Y4977200D01*
G01X0045720Y4977200D02*
G01X0057120Y4977200D01*
G01X0057120Y4977200D02*
G01X0060920Y4973400D01*
G01X0041920Y4965800D02*
G01X0045720Y4962000D01*
G01X0073840Y4984800D02*
G01X0073840Y4984040D01*
G01X0073840Y4973400D02*
G01X0073840Y4954400D01*
G01X0070040Y4950600D02*
G01X0073840Y4954400D01*
G01X0081440Y4973400D02*
G01X0081440Y4965800D01*
G01X0081440Y4973400D02*
G01X0085240Y4977200D01*
G01X0085240Y4977200D02*
G01X0092840Y4977200D01*
G01X0092840Y4977200D02*
G01X0096640Y4973400D01*
G01X0096640Y4973400D02*
G01X0096640Y4965800D01*
G01X0092840Y4962000D02*
G01X0096640Y4965800D01*
G01X0085240Y4962000D02*
G01X0092840Y4962000D01*
G01X0081440Y4965800D02*
G01X0085240Y4962000D01*
G01X0105760Y4984800D02*
G01X0105760Y4984040D01*
G01X0105760Y4973400D02*
G01X0105760Y4962000D01*
G01X0117160Y4973400D02*
G01X0117160Y4962000D01*
G01X0117160Y4973400D02*
G01X0120960Y4977200D01*
G01X0120960Y4977200D02*
G01X0124760Y4977200D01*
G01X0124760Y4977200D02*
G01X0128560Y4973400D01*
G01X0128560Y4973400D02*
G01X0128560Y4962000D01*
G01X0113360Y4977200D02*
G01X0117160Y4973400D01*
G01X0000000Y0000000D02*
G01X0000000Y0000000D02*
G54D10*
G01X0000000Y5000000D02*
G01X0000000Y0000000D01*
G01X0000000Y5000000D02*
G01X6000000Y5000000D01*
G01X0000000Y0000000D02*
G01X6000000Y0000000D01*
G01X6000000Y5000000D02*
G01X6000000Y0000000D01*
G01X0000000Y0000000D02*
M02*
