G04 start of page 6 for group -4063 idx -4063 *
G04 Title: (unknown), componentmask *
G04 Creator: pcb 4.2.0 *
G04 CreationDate: Wed Jul 29 20:49:24 2020 UTC *
G04 For: commonadmin *
G04 Format: Gerber/RS-274X *
G04 PCB-Dimensions (mil): 2000.00 2000.00 *
G04 PCB-Coordinate-Origin: lower left *
%MOIN*%
%FSLAX25Y25*%
%LNTOPMASK*%
%ADD44C,0.0001*%
%ADD43C,0.0660*%
%ADD42C,0.0729*%
%ADD41C,0.1162*%
%ADD40C,0.0572*%
G54D40*X60984Y103504D03*
Y113543D03*
G54D41*X35000Y111969D03*
Y136000D03*
G54D42*X24961Y111181D03*
Y136787D03*
G54D43*X85000Y124000D03*
X95000D03*
X105000D03*
X115000D03*
G54D44*G36*
X51700Y127300D02*Y120700D01*
X58300D01*
Y127300D01*
X51700D01*
G37*
G54D43*X65000Y124000D03*
X75000D03*
X125000D03*
G54D40*X119016Y113543D03*
X60984Y68465D03*
Y58425D03*
X38543Y100039D03*
X31457Y79961D03*
Y96024D03*
Y87992D03*
X38543Y92008D03*
Y75945D03*
Y83976D03*
X31457Y71929D03*
G54D41*X35000Y60000D03*
G54D42*X24961Y60787D03*
G54D40*X119016Y68465D03*
Y58425D03*
Y144465D03*
Y179504D03*
Y134425D03*
Y189543D03*
Y103504D03*
X141457Y96024D03*
X148543Y100039D03*
Y92008D03*
X141457Y71929D03*
Y79961D03*
Y87992D03*
X148543Y75945D03*
Y83976D03*
G54D41*X145000Y60000D03*
G54D42*X155039Y60787D03*
G54D41*X145000Y111969D03*
G54D40*X148543Y151945D03*
Y159976D03*
G54D41*X145000Y136000D03*
Y187969D03*
G54D42*X155039Y111181D03*
Y187181D03*
Y136787D03*
G54D40*X60984Y179504D03*
Y189543D03*
X38543Y176039D03*
Y168008D03*
Y151945D03*
Y159976D03*
X60984Y144465D03*
Y134425D03*
X31457Y147929D03*
Y155961D03*
Y172024D03*
Y163992D03*
G54D41*X35000Y187969D03*
G54D42*X24961Y187181D03*
G54D40*X141457Y147929D03*
Y155961D03*
Y172024D03*
Y163992D03*
X148543Y176039D03*
Y168008D03*
M02*
