%
M48
M72
T01C0.0150
T02C0.0197
T03C0.0236
T04C0.0276
T05C0.0374
T06C0.0394
T07C0.0400
T08C0.0472
T09C0.0550
T10C0.0590
T11C0.0866
T12C0.1181
%
T01
X24970Y8949
X25185Y8511
X25188Y7781
X25705Y7263
X26435Y7261
X26549Y7018
X26953Y7781
X26950Y8508
X26433Y9026
X25705Y9026
X24970Y10523
X24970Y12098
X24970Y13673
X24970Y15248
X24970Y16823
X24970Y18397
X24970Y19972
X24970Y21547
X25885Y22391
X24970Y23122
X24970Y24697
X24947Y25668
X24947Y27243
X24947Y28818
X24947Y30393
X24947Y31968
X24947Y32418
X24945Y33518
X24945Y35093
X25295Y36181
X24945Y36497
X24945Y38071
X26445Y38396
X24945Y39646
X24945Y41221
X24945Y42796
X24945Y44371
X25705Y44763
X26435Y44761
X26953Y45281
X26950Y46008
X26433Y46526
X26870Y46768
X25705Y46526
X25185Y46011
X25188Y45281
X28445Y46768
X30020Y46768
X31274Y44933
X31536Y44635
X31820Y44893
X31595Y46768
X33169Y46768
X34744Y46768
X34570Y45768
X34842Y44769
X35317Y44769
X34359Y42565
X33834Y42565
X33359Y42565
X32834Y42565
X33070Y38518
X33070Y38143
X33070Y37768
X33070Y37393
X33445Y37393
X33820Y37393
X34195Y37393
X34570Y37393
X34570Y37768
X34195Y37768
X33820Y37768
X33445Y37768
X33445Y38143
X33820Y38143
X34195Y38143
X34570Y38143
X34570Y38518
X34195Y38518
X33820Y38518
X33445Y38518
X32333Y36456
X32070Y36443
X31245Y36213
X30820Y37393
X30445Y37393
X30070Y37393
X29695Y37393
X29320Y37393
X29320Y37768
X29695Y37768
X30070Y37768
X30445Y37768
X30820Y37768
X30820Y38143
X30445Y38143
X30070Y38143
X29695Y38143
X29320Y38143
X29320Y38518
X29695Y38518
X30070Y38518
X30445Y38518
X30820Y38518
X30070Y36068
X29795Y36068
X29520Y36068
X29245Y36068
X28570Y36393
X27645Y36496
X27595Y35643
X27345Y34346
X26237Y33683
X26197Y32418
X27447Y30368
X28147Y31143
X29545Y30268
X29520Y29693
X30572Y29068
X31347Y28918
X31972Y28293
X31947Y27268
X31147Y27268
X31797Y26418
X32047Y25668
X33297Y25668
X34047Y26418
X34572Y27093
X34595Y27543
X33870Y27993
X33645Y28468
X33195Y28518
X34070Y28643
X34620Y29768
X34620Y30343
X34620Y31118
X34145Y31043
X33945Y31993
X34945Y31768
X35147Y32818
X37672Y32168
X38483Y32568
X38545Y33693
X38645Y34143
X39970Y35643
X40270Y36018
X41170Y36993
X41545Y37343
X41895Y36993
X43820Y36968
X45445Y36143
X45570Y35768
X46070Y35768
X46570Y35768
X46945Y35768
X47320Y35768
X46795Y34318
X47220Y33956
X46945Y33681
X46170Y33781
X45045Y33793
X44433Y34081
X43958Y33693
X43720Y34543
X43074Y33454
X42483Y31958
X42365Y31525
X41933Y30768
X41033Y31418
X41037Y32158
X40033Y31543
X40158Y30793
X39270Y30618
X38787Y29983
X38122Y29468
X38433Y27818
X38820Y26818
X38787Y25983
X38383Y25418
X40239Y26793
X40600Y27136
X39885Y27760
X39545Y27461
X39849Y28879
X39808Y29518
X40933Y29118
X41783Y29518
X43724Y28554
X43883Y27275
X44283Y27281
X45121Y27313
X45121Y27746
X46120Y29318
X46508Y29323
X47037Y29504
X46939Y29937
X47208Y30281
X47945Y30193
X47995Y30618
X48470Y30674
X48283Y31506
X47012Y31286
X46727Y31551
X46047Y30863
X45697Y31021
X45970Y30225
X45576Y30006
X45281Y30225
X44695Y29993
X44031Y31088
X43702Y31242
X44230Y31473
X43689Y31936
X45358Y32281
X45958Y32268
X48783Y29681
X48645Y28818
X48499Y28465
X48658Y27931
X48767Y27393
X47927Y27565
X47606Y27293
X46966Y27430
X46974Y27813
X47642Y28140
X47758Y28681
X49952Y27568
X50499Y28540
X51108Y28081
X51108Y27706
X51145Y26543
X52670Y26245
X52820Y25318
X53595Y24568
X52763Y23761
X51404Y23236
X50995Y23493
X50544Y23359
X49533Y23593
X49358Y24018
X48170Y24043
X47413Y24731
X47721Y25529
X47533Y25856
X47183Y25981
X45716Y24996
X44832Y25616
X44056Y24946
X43245Y25528
X42888Y25151
X42491Y25726
X41500Y26186
X42070Y26746
X42405Y27155
X43095Y26963
X41520Y24618
X42874Y22668
X43477Y22821
X44077Y21071
X44553Y20203
X44770Y19840
X45371Y19648
X45331Y20750
X45331Y21536
X45295Y22555
X45820Y22866
X47095Y23018
X49495Y25843
X50658Y29506
X51895Y30318
X52445Y28493
X53920Y27443
X53970Y25770
X54695Y25445
X55714Y25718
X55695Y24970
X57195Y25468
X57170Y26445
X55620Y27543
X57420Y30993
X60095Y31418
X61403Y32132
X61403Y33172
X62269Y33329
X63371Y32660
X62269Y31966
X62003Y29893
X61270Y29918
X62841Y29912
X63436Y29893
X63971Y29900
X65195Y30219
X65195Y28644
X64195Y27693
X63245Y26643
X62320Y26768
X62166Y25554
X62176Y25211
X62169Y24859
X61569Y24659
X61595Y24193
X62145Y23593
X61570Y23018
X60995Y23618
X60962Y24866
X60962Y25216
X60962Y25541
X61587Y25741
X63595Y25518
X65195Y25495
X65195Y27069
X65195Y23920
X65195Y22345
X65195Y20770
X65195Y19195
X65195Y17621
X65195Y16046
X65195Y14471
X65195Y12896
X65195Y11321
X65195Y9747
X64433Y9026
X63705Y9026
X63185Y8511
X63188Y7781
X63705Y7263
X64435Y7261
X64953Y7781
X64950Y8508
X62770Y7018
X61195Y7018
X59620Y7018
X58045Y7018
X56471Y7018
X54896Y7018
X53321Y7018
X51746Y7018
X50171Y7018
X48597Y7018
X47022Y7018
X45447Y7018
X45180Y8353
X45883Y9968
X46008Y10893
X45758Y10893
X44383Y10893
X44133Y10893
X43633Y10393
X43433Y10243
X43872Y7018
X42297Y7018
X40723Y7018
X39148Y7018
X37573Y7018
X35998Y7018
X34423Y7018
X32849Y7018
X31274Y7018
X29699Y7018
X28124Y7018
X29158Y9993
X29408Y9993
X29383Y10893
X29133Y10893
X30758Y10893
X31008Y10893
X31008Y9993
X30758Y9993
X30445Y13768
X30070Y13768
X29695Y13768
X29695Y14143
X30070Y14143
X30445Y14143
X30445Y14518
X30070Y14518
X29695Y14518
X29469Y18612
X28875Y18578
X30188Y18618
X31445Y18593
X31995Y18593
X33443Y18604
X33320Y19743
X34570Y17643
X33945Y17493
X35734Y18595
X36467Y18629
X37195Y18643
X38270Y18643
X38995Y18617
X37395Y21943
X37860Y22443
X38860Y22243
X41921Y19725
X42110Y20407
X42345Y21125
X42420Y21730
X42934Y19754
X43034Y18720
X42625Y18719
X42231Y18719
X41441Y18670
X44069Y19796
X44127Y18704
X44833Y18629
X45965Y18229
X46383Y17206
X48427Y18595
X48945Y18831
X49013Y18456
X50134Y18628
X50857Y18637
X51570Y18604
X51120Y19743
X52781Y18623
X53464Y18593
X54928Y18589
X54518Y20768
X55570Y21293
X54520Y22445
X57145Y22795
X57114Y23543
X57114Y20643
X57152Y18585
X57870Y18643
X58581Y18604
X59270Y19196
X59794Y18623
X60270Y19218
X61139Y17918
X59445Y14518
X59445Y14143
X59445Y13768
X59070Y13768
X58695Y13768
X58695Y14143
X59070Y14143
X59070Y14518
X58695Y14518
X56896Y16686
X52445Y14518
X52445Y14143
X52445Y13768
X52070Y13768
X51695Y13768
X51695Y14143
X52070Y14143
X52070Y14518
X51695Y14518
X50241Y16400
X46820Y19643
X45445Y14518
X45445Y14143
X45445Y13768
X45070Y13768
X44695Y13768
X44695Y14143
X45070Y14143
X45070Y14518
X44695Y14518
X38258Y10893
X38008Y10893
X38008Y9993
X38258Y9993
X36633Y9993
X36383Y9993
X36383Y10893
X36633Y10893
X36945Y13768
X37320Y13768
X37695Y13768
X37695Y14143
X37320Y14143
X36945Y14143
X36945Y14518
X37320Y14518
X37695Y14518
X28758Y23393
X29172Y25643
X27647Y25668
X28670Y27243
X28920Y27493
X27972Y28393
X30447Y30618
X31472Y30218
X32547Y30468
X32220Y31343
X32547Y29518
X33122Y27343
X35597Y26768
X35395Y25943
X35722Y25668
X36372Y28018
X30320Y31818
X29747Y32443
X29195Y33743
X33070Y36168
X33570Y36168
X34070Y36168
X35120Y36543
X36745Y36593
X37070Y36143
X37570Y36143
X38095Y36143
X38195Y37393
X37820Y37393
X37445Y37393
X37070Y37393
X37070Y37768
X37445Y37768
X37820Y37768
X38195Y37768
X38570Y37768
X38570Y37393
X38570Y38143
X38195Y38143
X37820Y38143
X37445Y38143
X37070Y38143
X37070Y38518
X37445Y38518
X37820Y38518
X38195Y38518
X38570Y38518
X40645Y40218
X40995Y39968
X40995Y41043
X41595Y42218
X42820Y44768
X43320Y44768
X44320Y45768
X44193Y46768
X45768Y46768
X47343Y46768
X48917Y46768
X49570Y45768
X49070Y45518
X49070Y45018
X48570Y44768
X48570Y45268
X48070Y45018
X47820Y44143
X48270Y44118
X48695Y43968
X49070Y43143
X48320Y42893
X47870Y43218
X47820Y43643
X49345Y42068
X50320Y41993
X50409Y41623
X51320Y41393
X51720Y41968
X51145Y39068
X51570Y38343
X51145Y37593
X50320Y38368
X49570Y38368
X48820Y38368
X48820Y39118
X49570Y39118
X50320Y39118
X52495Y37293
X52370Y35868
X53470Y34793
X53970Y36218
X54220Y36218
X54470Y36218
X54470Y36468
X54220Y36468
X53970Y36468
X53970Y36718
X54220Y36718
X54470Y36718
X54470Y36968
X54220Y36968
X53970Y36968
X53970Y37718
X55820Y35743
X57320Y37093
X56720Y37743
X57295Y38418
X56720Y39068
X56745Y41318
X56745Y42468
X55295Y42818
X55295Y43168
X55295Y43543
X55295Y43918
X54870Y43918
X54920Y42843
X54570Y42843
X53945Y45843
X54070Y46418
X53820Y46768
X53570Y46418
X53320Y46768
X53070Y46418
X52820Y46768
X52570Y46418
X52070Y46418
X52067Y46768
X51320Y46268
X50895Y46118
X51070Y45768
X50645Y45718
X50720Y44968
X52195Y45843
X50492Y46768
X54320Y46768
X55045Y46773
X56795Y46773
X58620Y46768
X60195Y46768
X60720Y46143
X61220Y44968
X61220Y44293
X61820Y44643
X61820Y43393
X61820Y42393
X61320Y42393
X60820Y42393
X60570Y42893
X60645Y43368
X60570Y44643
X61720Y46143
X61770Y46768
X63345Y46768
X63705Y46526
X64433Y46526
X64950Y46008
X64953Y45281
X64435Y44761
X63705Y44763
X63188Y45281
X63185Y46011
X65195Y44392
X65195Y42818
X65195Y41243
X65195Y39668
X64070Y39143
X64070Y38643
X64070Y38143
X63570Y38393
X63570Y38893
X63320Y39393
X62820Y39393
X62320Y39393
X61820Y39393
X61320Y39143
X62230Y39997
X61218Y40652
X62269Y41268
X63318Y40652
X65195Y38093
X65195Y36518
X65195Y34944
X65195Y33369
X65195Y31794
X62269Y35971
X63343Y36652
X62269Y37316
X61170Y36613
X60220Y38468
X58470Y41993
X51533Y33543
X50320Y35893
X49452Y33243
X47320Y37393
X46945Y37393
X46570Y37393
X46195Y37393
X45820Y37393
X45820Y37768
X46195Y37768
X46570Y37768
X46945Y37768
X47320Y37768
X47320Y38143
X46945Y38143
X46570Y38143
X46195Y38143
X45820Y38143
X45820Y38518
X46195Y38518
X46570Y38518
X46945Y38518
X47320Y38518
X47320Y39868
X46570Y39868
X45820Y39868
X45070Y39868
X44320Y39868
X44320Y40618
X45070Y40618
X45820Y40618
X46570Y40618
X47320Y40618
X47320Y41368
X46570Y41368
X45820Y41368
X45070Y41368
X44320Y41368
X42618Y46768
X41043Y46768
X39469Y46768
X39820Y45768
X39320Y44768
X38820Y44768
X37894Y46768
X36319Y46768
X51133Y10893
X51383Y10893
X51308Y9918
X51483Y9718
X52883Y9993
X53008Y10893
X52758Y10893
X58133Y10893
X58383Y10893
X58383Y9918
X58133Y9918
X59733Y9918
X59983Y9918
X60008Y10893
X59758Y10893
T02
X61120Y10768
X61870Y10768
X61870Y11518
X61120Y11518
X60870Y12268
X61620Y12268
X62370Y12268
X62370Y13018
X61945Y13468
X61470Y13493
X61620Y13018
X60870Y13018
X60970Y14543
X60870Y15518
X61620Y15518
X61620Y16268
X60870Y16268
X60870Y17018
X61620Y17018
X62370Y17018
X62270Y14543
X63120Y13018
X60120Y15268
X60120Y16268
X60120Y16843
X57695Y16143
X57695Y15268
X56945Y15518
X56945Y14768
X56195Y14768
X56195Y15518
X56445Y16168
X54945Y16268
X54945Y15518
X54945Y14768
X54195Y14768
X54195Y15518
X54195Y16268
X53120Y16268
X53120Y15268
X54570Y13493
X55070Y13468
X54945Y13018
X54945Y12268
X54945Y11518
X54945Y10768
X54945Y10018
X54195Y10768
X54195Y11518
X54195Y12268
X54195Y13018
X56070Y13468
X56195Y13018
X56545Y13493
X56945Y13018
X56945Y12268
X56945Y11518
X56945Y10768
X56945Y10018
X56195Y10018
X56195Y10768
X56195Y11518
X56195Y12268
X55516Y17612
X53816Y18937
X50695Y16018
X50695Y15268
X49945Y15518
X49945Y14768
X49195Y14768
X49195Y15518
X49145Y16218
X47945Y16268
X47945Y15518
X47945Y14768
X47195Y14768
X47195Y15518
X47195Y16268
X46145Y16268
X46145Y15268
X46695Y13268
X47195Y13018
X47645Y13493
X48120Y13468
X47945Y13018
X47945Y12268
X47945Y11518
X47945Y10768
X47945Y10018
X47195Y10018
X47195Y10768
X47195Y11518
X47195Y12268
X49195Y12268
X49195Y11518
X49195Y10768
X49195Y10018
X49945Y10018
X49945Y10768
X49945Y11518
X49945Y12268
X49945Y13018
X49595Y13518
X49095Y13468
X49195Y13018
X43695Y15268
X43695Y16018
X43195Y16586
X42695Y16268
X42695Y15518
X42695Y14768
X42220Y13493
X42445Y13018
X42445Y12268
X42445Y11518
X42445Y10768
X41695Y10768
X41695Y10018
X40445Y10018
X39695Y10018
X39195Y9768
X39195Y10518
X39695Y10768
X39195Y11268
X39695Y11518
X40445Y11518
X40445Y10768
X40445Y12268
X39695Y12268
X39195Y12268
X38945Y13018
X39695Y13018
X40195Y13493
X40695Y13468
X40445Y13018
X41695Y13018
X41695Y13468
X41945Y14768
X41945Y15518
X41945Y16268
X40445Y16268
X40445Y15518
X40445Y14768
X39695Y14768
X39695Y15518
X39695Y16268
X38445Y16268
X38445Y15268
X35945Y15268
X35195Y15518
X35195Y14768
X34445Y14768
X34445Y15518
X34445Y16268
X35195Y16268
X35945Y16268
X36043Y16921
X32945Y16268
X32945Y15518
X32945Y14768
X32195Y14768
X32195Y15518
X32195Y16268
X31120Y16268
X31120Y15268
X31695Y13268
X32195Y13018
X32695Y13493
X33195Y13468
X32945Y13018
X32945Y12268
X32945Y11518
X32945Y10768
X32945Y10018
X32195Y10018
X32195Y10768
X32195Y11518
X32195Y12268
X34195Y13443
X34670Y13493
X34445Y13018
X34445Y12268
X34445Y11518
X34445Y10768
X34445Y10018
X35195Y10018
X35195Y10768
X35195Y11518
X35195Y12268
X35195Y13018
X35695Y13268
X41695Y12268
X41695Y11518
X43195Y12018
X43195Y13018
X28695Y15268
X28695Y16268
X28318Y16595
X27945Y15518
X27945Y14768
X27195Y14768
X26445Y14768
X26445Y15518
X27195Y15518
X27195Y16268
X26445Y16268
X26445Y13768
X26445Y13018
X26445Y12268
X26445Y11518
X27195Y11518
X27195Y10768
X27945Y10768
X27945Y10018
X27945Y11518
X27945Y12268
X27195Y12268
X27195Y13018
X27620Y13468
X27195Y13768
X27945Y13018
X28445Y13018
X28145Y13493
X45820Y36143
X46320Y36143
X46820Y36143
X45445Y36518
X45070Y37618
X44320Y37618
X43570Y37618
X43070Y37643
X43070Y38393
X43570Y38368
X44320Y38368
X45070Y38368
X45070Y39118
X44320Y39118
X43570Y39118
X43070Y39143
X43070Y39893
X43570Y39868
X43570Y40618
X43570Y41368
X43151Y41912
X43570Y42118
X44320Y42118
X45070Y42118
X45820Y42118
X46570Y42118
X47320Y42118
X48070Y42118
X48070Y41368
X48070Y40618
X48070Y39868
X48070Y39118
X48070Y38368
X48070Y37618
X48070Y36868
X48820Y36868
X49570Y36868
X50320Y36868
X50820Y37118
X50320Y37618
X49570Y37618
X48820Y37618
X47320Y39118
X46570Y39118
X45820Y39118
X48820Y39868
X49570Y39868
X50320Y39868
X51252Y35793
X54045Y34243
X57470Y39268
X58245Y40043
X58820Y39693
X58795Y39268
X58795Y38868
X58695Y37268
X58645Y40943
X56645Y40818
X55945Y40818
X50108Y31818
X60034Y26745
X60534Y29845
X60209Y30895
X59859Y23645
X60045Y21043
X60034Y19945
X40070Y37643
X39320Y37643
X39320Y38393
X40070Y38393
X40070Y39143
X39320Y39143
X38570Y39143
X37820Y39143
X37820Y39893
X38570Y39893
X39320Y39893
X40070Y39893
X40070Y40643
X39320Y40643
X38570Y40643
X37820Y40643
X37820Y41393
X38570Y41393
X39320Y41393
X40070Y41393
X40070Y42143
X39320Y42143
X38570Y42143
X37820Y42143
X37070Y42143
X37070Y41393
X36320Y42143
X35570Y42143
X34570Y42018
X33820Y42018
X33070Y42018
X33070Y40018
X33070Y39268
X33820Y39268
X34570Y39268
X34070Y40018
X35570Y39893
X35570Y39143
X35570Y38393
X35820Y37893
X36320Y37893
X36320Y38393
X36320Y39143
X37070Y39143
X37070Y39893
X36320Y39893
X35320Y37393
X31570Y38393
X31570Y39143
X30820Y39143
X30820Y39893
X31570Y39893
X30820Y40643
X30820Y41393
X30820Y42143
X30070Y42143
X30070Y41393
X30070Y40643
X30070Y39893
X30070Y39143
X29320Y39143
X28570Y39143
X28570Y38393
X28320Y37893
X27820Y38393
X27820Y39143
X27820Y39893
X28570Y39893
X29320Y39893
X29320Y40643
X28570Y40643
X27820Y40643
X27820Y41393
X28570Y41393
X29320Y41393
X29320Y42143
X28570Y42143
X27820Y42143
T03
X54045Y35493
X54670Y35368
X54645Y34818
X54670Y34268
X63195Y24143
X64170Y25143
X64220Y23093
X64495Y21218
X63745Y20443
X62820Y20068
X61870Y20468
X61120Y21218
T04
X31395Y26118
T05
X28924Y29151
X28137Y29151
X28137Y30135
X28924Y30135
X35495Y30318
X35495Y31318
X36495Y31318
X36495Y30318
X37495Y30318
X37495Y31318
X40445Y33768
X40445Y34768
X41445Y34768
X41445Y33768
X42445Y33768
X42445Y34768
T06
X50070Y43943
X50070Y45343
X58295Y37993
X59695Y37993
X62820Y21003
X62820Y19034
T07
X58984Y20045
X58984Y21045
X58984Y23145
X58984Y24145
X58984Y26245
X58984Y27245
X58984Y29345
X58984Y30345
X59027Y32215
X60027Y32215
X60027Y33215
X59027Y33215
X58027Y33215
X58027Y32215
X57027Y32215
X56027Y32215
X56027Y33215
X57027Y33215
X55027Y33215
X55027Y32215
X54027Y32215
X54027Y33215
X53027Y33215
X53027Y32215
X52027Y32215
X52027Y33215
X51027Y33215
X51027Y32215
X49570Y34893
X48570Y34893
X47570Y34893
X46570Y34893
X45570Y34893
X44570Y34893
X41995Y38843
X40995Y38843
X37195Y34518
X37195Y33518
X36195Y33518
X35195Y33518
X35195Y34518
X36195Y34518
X34195Y34518
X34195Y33518
X33195Y33518
X32195Y33518
X32195Y34518
X33195Y34518
X31195Y34518
X31195Y33518
X30195Y33518
X30195Y34518
X25430Y37103
X25430Y38883
X25758Y42831
X26758Y42831
X31570Y40643
X32570Y40643
X33570Y40643
X34570Y40643
X35570Y40643
X36570Y40643
X48820Y40643
X49820Y40643
X53277Y30715
X53277Y29715
X54277Y29715
X54277Y30715
X55277Y30715
X55277Y29715
X56277Y29715
X56277Y30715
X61291Y28062
X61291Y27062
X51620Y22399
X51620Y21399
X51620Y20399
X50620Y20399
X50620Y21399
X50620Y22399
X49620Y22399
X49620Y21399
X49620Y20399
X48620Y20399
X47620Y20399
X47620Y21399
X48620Y21399
X48620Y22399
X47620Y22399
X46445Y23393
X46445Y24393
X45445Y24393
X45445Y23393
X44445Y23393
X43445Y23393
X43445Y24393
X44445Y24393
X41359Y23893
X41359Y22893
X40359Y22893
X39359Y22893
X39359Y23893
X40359Y23893
X38359Y23893
X37359Y23893
X37359Y22893
X38359Y22893
X37937Y21143
X38937Y21143
X39937Y21143
X40937Y21143
X35820Y21143
X34820Y21143
X33820Y21143
X33820Y23643
X34820Y23643
X35820Y23643
X31820Y23643
X30820Y23643
X29820Y23643
X29820Y21143
X30820Y21143
X31820Y21143
X27820Y21143
X26820Y21143
X25820Y21143
X25820Y23643
X26820Y23643
X27820Y23643
X58820Y40343
X59820Y40343
X64724Y43305
X63539Y12016
X63539Y11016
T08
X61043Y8473
X60043Y8473
X59043Y8473
X58043Y8473
X55043Y8473
X54043Y8473
X53043Y8473
X52043Y8473
X49043Y8473
X48043Y8473
X47043Y8473
X46043Y8473
X44043Y8473
X43043Y8473
X42043Y8473
X41043Y8473
X38043Y8473
X37043Y8473
X36043Y8473
X35043Y8473
X32070Y8473
X31070Y8473
X30070Y8473
X29070Y8473
T09
X29070Y43643
X31070Y43643
X33070Y43643
X35070Y43643
X37070Y43643
X39070Y43643
X41070Y43643
X43070Y43643
X45070Y43643
X47070Y43643
X62270Y40643
X62270Y38643
X62270Y36643
X62270Y34643
X62270Y32643
X62270Y30643
T10
X26410Y36613
X26410Y39373
T11
X27070Y32006
X27070Y27281
T12
X26070Y45643
X26070Y8143
X64070Y8143
X64070Y45643
M30
