G75*
G70*
%OFA0B0*%
%FSLAX24Y24*%
%IPPOS*%
%LPD*%
%AMOC8*
5,1,8,0,0,1.08239X$1,22.5*
%
%ADD10R,0.0392X0.0392*%
%ADD11C,0.0226*%
%ADD12R,0.0094X0.0567*%
%ADD13R,0.0567X0.0094*%
%ADD14R,0.0668X0.1259*%
%ADD15R,0.0550X0.0380*%
%ADD16C,0.0071*%
%ADD17R,0.0500X0.0500*%
%ADD18R,0.0315X0.0315*%
%ADD19R,0.0217X0.0157*%
%ADD20R,0.0333X0.0432*%
%ADD21R,0.0471X0.0629*%
%ADD22R,0.0629X0.0471*%
%ADD23R,0.0630X0.0550*%
%ADD24R,0.0315X0.0354*%
%ADD25R,0.0354X0.0315*%
%ADD26R,0.0220X0.0496*%
%ADD27R,0.1900X0.0413*%
%ADD28R,0.1240X0.1220*%
%ADD29R,0.1589X0.1420*%
%ADD30R,0.1420X0.1589*%
%ADD31R,0.0609X0.0139*%
%ADD32R,0.0432X0.0333*%
%ADD33R,0.0220X0.0299*%
%ADD34R,0.0511X0.0432*%
%ADD35R,0.1180X0.0550*%
%ADD36R,0.0700X0.1400*%
%ADD37R,0.0481X0.0471*%
%ADD38R,0.0481X0.0481*%
%ADD39R,0.0481X0.0461*%
%ADD40R,0.0291X0.0252*%
%ADD41R,0.0707X0.0707*%
%ADD42R,0.0470X0.0120*%
%ADD43R,0.0299X0.0220*%
%ADD44C,0.0198*%
%ADD45C,0.0420*%
%ADD46R,0.0189X0.0189*%
%ADD47R,0.0236X0.0157*%
%ADD48R,0.0432X0.0511*%
%ADD49R,0.0736X0.0176*%
%ADD50R,0.0760X0.1100*%
%ADD51R,0.0629X0.2873*%
%ADD52R,0.0511X0.1062*%
%ADD53R,0.2085X0.0648*%
D10*
X025275Y034518D03*
X026101Y034518D03*
X026126Y035617D03*
X025300Y035617D03*
X029195Y035385D03*
X029195Y034559D03*
X033032Y035518D03*
X033858Y035518D03*
X037032Y035643D03*
X037858Y035643D03*
X042182Y036468D03*
X043008Y036468D03*
X044895Y036807D03*
X044895Y035980D03*
X041358Y041718D03*
X040532Y041718D03*
X035908Y029243D03*
X035908Y028518D03*
X035082Y028518D03*
X035082Y029243D03*
D11*
X035038Y027821D02*
X034902Y027821D01*
X035038Y027821D02*
X035038Y027765D01*
X034902Y027765D01*
X034902Y027821D01*
X034902Y027121D02*
X035038Y027121D01*
X035038Y027065D01*
X034902Y027065D01*
X034902Y027121D01*
X033688Y026865D02*
X033552Y026865D01*
X033552Y026921D01*
X033688Y026921D01*
X033688Y026865D01*
X033688Y027565D02*
X033552Y027565D01*
X033552Y027621D01*
X033688Y027621D01*
X033688Y027565D01*
X032942Y026236D02*
X032942Y026100D01*
X032942Y026236D02*
X032998Y026236D01*
X032998Y026100D01*
X032942Y026100D01*
X032242Y026100D02*
X032242Y026236D01*
X032298Y026236D01*
X032298Y026100D01*
X032242Y026100D01*
X031638Y026865D02*
X031502Y026865D01*
X031502Y026921D01*
X031638Y026921D01*
X031638Y026865D01*
X031638Y027565D02*
X031502Y027565D01*
X031502Y027621D01*
X031638Y027621D01*
X031638Y027565D01*
X030667Y027436D02*
X030667Y027300D01*
X030667Y027436D02*
X030723Y027436D01*
X030723Y027300D01*
X030667Y027300D01*
X029967Y027300D02*
X029967Y027436D01*
X030023Y027436D01*
X030023Y027300D01*
X029967Y027300D01*
X029967Y027975D02*
X029967Y028111D01*
X030023Y028111D01*
X030023Y027975D01*
X029967Y027975D01*
X030667Y027975D02*
X030667Y028111D01*
X030723Y028111D01*
X030723Y027975D01*
X030667Y027975D01*
X030692Y031000D02*
X030692Y031136D01*
X030748Y031136D01*
X030748Y031000D01*
X030692Y031000D01*
X031392Y031000D02*
X031392Y031136D01*
X031448Y031136D01*
X031448Y031000D01*
X031392Y031000D01*
X038692Y029586D02*
X038692Y029450D01*
X038692Y029586D02*
X038748Y029586D01*
X038748Y029450D01*
X038692Y029450D01*
X039392Y029450D02*
X039392Y029586D01*
X039448Y029586D01*
X039448Y029450D01*
X039392Y029450D01*
X040386Y028836D02*
X040386Y028700D01*
X040330Y028700D01*
X040330Y028836D01*
X040386Y028836D01*
X041086Y028836D02*
X041086Y028700D01*
X041030Y028700D01*
X041030Y028836D01*
X041086Y028836D01*
X041205Y030725D02*
X041205Y030861D01*
X041261Y030861D01*
X041261Y030725D01*
X041205Y030725D01*
X040505Y030725D02*
X040505Y030861D01*
X040561Y030861D01*
X040561Y030725D01*
X040505Y030725D01*
X039717Y031025D02*
X039717Y031161D01*
X039773Y031161D01*
X039773Y031025D01*
X039717Y031025D01*
X039017Y031025D02*
X039017Y031161D01*
X039073Y031161D01*
X039073Y031025D01*
X039017Y031025D01*
X039977Y031940D02*
X040113Y031940D01*
X039977Y031940D02*
X039977Y031996D01*
X040113Y031996D01*
X040113Y031940D01*
X040113Y032640D02*
X039977Y032640D01*
X039977Y032696D01*
X040113Y032696D01*
X040113Y032640D01*
X041360Y032099D02*
X041496Y032099D01*
X041360Y032099D02*
X041360Y032155D01*
X041496Y032155D01*
X041496Y032099D01*
X041496Y031399D02*
X041360Y031399D01*
X041360Y031455D01*
X041496Y031455D01*
X041496Y031399D01*
X045842Y033950D02*
X045842Y034086D01*
X045898Y034086D01*
X045898Y033950D01*
X045842Y033950D01*
X046542Y033950D02*
X046542Y034086D01*
X046598Y034086D01*
X046598Y033950D01*
X046542Y033950D01*
X050052Y032851D02*
X050188Y032851D01*
X050052Y032851D02*
X050052Y032907D01*
X050188Y032907D01*
X050188Y032851D01*
X050188Y032151D02*
X050052Y032151D01*
X050052Y032207D01*
X050188Y032207D01*
X050188Y032151D01*
X050887Y034081D02*
X050887Y034217D01*
X050887Y034081D02*
X050831Y034081D01*
X050831Y034217D01*
X050887Y034217D01*
X051587Y034217D02*
X051587Y034081D01*
X051531Y034081D01*
X051531Y034217D01*
X051587Y034217D01*
X050229Y028587D02*
X050093Y028587D01*
X050229Y028587D02*
X050229Y028531D01*
X050093Y028531D01*
X050093Y028587D01*
X050093Y027887D02*
X050229Y027887D01*
X050229Y027831D01*
X050093Y027831D01*
X050093Y027887D01*
X047936Y025210D02*
X047936Y025074D01*
X047880Y025074D01*
X047880Y025210D01*
X047936Y025210D01*
X047236Y025210D02*
X047236Y025074D01*
X047180Y025074D01*
X047180Y025210D01*
X047236Y025210D01*
D12*
X047214Y026494D03*
X047017Y026494D03*
X046821Y026494D03*
X046624Y026494D03*
X046427Y026494D03*
X046230Y026494D03*
X046033Y026494D03*
X045836Y026494D03*
X045639Y026494D03*
X045443Y026494D03*
X045246Y026494D03*
X045049Y026494D03*
X044852Y026494D03*
X044655Y026494D03*
X044458Y026494D03*
X044261Y026494D03*
X044065Y026494D03*
X043868Y026494D03*
X047411Y026494D03*
X047608Y026494D03*
X047805Y026494D03*
X048002Y026494D03*
X048199Y026494D03*
X048395Y026494D03*
X048592Y026494D03*
X048592Y032793D03*
X048395Y032793D03*
X048199Y032793D03*
X048002Y032793D03*
X047805Y032793D03*
X047608Y032793D03*
X047411Y032793D03*
X047214Y032793D03*
X047017Y032793D03*
X046821Y032793D03*
X046624Y032793D03*
X046427Y032793D03*
X046230Y032793D03*
X046033Y032793D03*
X045836Y032793D03*
X045639Y032793D03*
X045443Y032793D03*
X045246Y032793D03*
X045049Y032793D03*
X044852Y032793D03*
X044655Y032793D03*
X044458Y032793D03*
X044261Y032793D03*
X044065Y032793D03*
X043868Y032793D03*
D13*
X043080Y032006D03*
X043080Y031809D03*
X043080Y031612D03*
X043080Y031415D03*
X043080Y031218D03*
X043080Y031021D03*
X043080Y030824D03*
X043080Y030628D03*
X043080Y030431D03*
X043080Y030234D03*
X043080Y030037D03*
X043080Y029840D03*
X043080Y029643D03*
X043080Y029446D03*
X043080Y029250D03*
X043080Y029053D03*
X043080Y028856D03*
X043080Y028659D03*
X043080Y028462D03*
X043080Y028265D03*
X043080Y028069D03*
X043080Y027872D03*
X043080Y027675D03*
X043080Y027478D03*
X043080Y027281D03*
X049380Y027281D03*
X049380Y027478D03*
X049380Y027675D03*
X049380Y027872D03*
X049380Y028069D03*
X049380Y028265D03*
X049380Y028462D03*
X049380Y028659D03*
X049380Y028856D03*
X049380Y029053D03*
X049380Y029250D03*
X049380Y029446D03*
X049380Y029643D03*
X049380Y029840D03*
X049380Y030037D03*
X049380Y030234D03*
X049380Y030431D03*
X049380Y030628D03*
X049380Y030824D03*
X049380Y031021D03*
X049380Y031218D03*
X049380Y031415D03*
X049380Y031612D03*
X049380Y031809D03*
X049380Y032006D03*
D14*
X029827Y026256D03*
X028292Y026256D03*
D15*
X037820Y028368D03*
X037820Y028968D03*
D16*
X033893Y029295D02*
X033893Y029313D01*
X034077Y029313D01*
X034077Y029295D01*
X033893Y029295D01*
X033893Y029492D02*
X033893Y029510D01*
X034077Y029510D01*
X034077Y029492D01*
X033893Y029492D01*
X033893Y029689D02*
X033893Y029707D01*
X034077Y029707D01*
X034077Y029689D01*
X033893Y029689D01*
X033893Y029886D02*
X033893Y029904D01*
X034077Y029904D01*
X034077Y029886D01*
X033893Y029886D01*
X033893Y030083D02*
X033893Y030101D01*
X034077Y030101D01*
X034077Y030083D01*
X033893Y030083D01*
X033893Y030280D02*
X033893Y030298D01*
X034077Y030298D01*
X034077Y030280D01*
X033893Y030280D01*
X033893Y030476D02*
X033893Y030494D01*
X034077Y030494D01*
X034077Y030476D01*
X033893Y030476D01*
X033893Y030673D02*
X033893Y030691D01*
X034077Y030691D01*
X034077Y030673D01*
X033893Y030673D01*
X033718Y031050D02*
X033700Y031050D01*
X033718Y031050D02*
X033718Y030866D01*
X033700Y030866D01*
X033700Y031050D01*
X033700Y030936D02*
X033718Y030936D01*
X033718Y031006D02*
X033700Y031006D01*
X033521Y031050D02*
X033503Y031050D01*
X033521Y031050D02*
X033521Y030866D01*
X033503Y030866D01*
X033503Y031050D01*
X033503Y030936D02*
X033521Y030936D01*
X033521Y031006D02*
X033503Y031006D01*
X033324Y031050D02*
X033306Y031050D01*
X033324Y031050D02*
X033324Y030866D01*
X033306Y030866D01*
X033306Y031050D01*
X033306Y030936D02*
X033324Y030936D01*
X033324Y031006D02*
X033306Y031006D01*
X033127Y031050D02*
X033109Y031050D01*
X033127Y031050D02*
X033127Y030866D01*
X033109Y030866D01*
X033109Y031050D01*
X033109Y030936D02*
X033127Y030936D01*
X033127Y031006D02*
X033109Y031006D01*
X032931Y031050D02*
X032913Y031050D01*
X032931Y031050D02*
X032931Y030866D01*
X032913Y030866D01*
X032913Y031050D01*
X032913Y030936D02*
X032931Y030936D01*
X032931Y031006D02*
X032913Y031006D01*
X032734Y031050D02*
X032716Y031050D01*
X032734Y031050D02*
X032734Y030866D01*
X032716Y030866D01*
X032716Y031050D01*
X032716Y030936D02*
X032734Y030936D01*
X032734Y031006D02*
X032716Y031006D01*
X032537Y031050D02*
X032519Y031050D01*
X032537Y031050D02*
X032537Y030866D01*
X032519Y030866D01*
X032519Y031050D01*
X032519Y030936D02*
X032537Y030936D01*
X032537Y031006D02*
X032519Y031006D01*
X032340Y031050D02*
X032322Y031050D01*
X032340Y031050D02*
X032340Y030866D01*
X032322Y030866D01*
X032322Y031050D01*
X032322Y030936D02*
X032340Y030936D01*
X032340Y031006D02*
X032322Y031006D01*
X031963Y030691D02*
X031963Y030673D01*
X031963Y030691D02*
X032147Y030691D01*
X032147Y030673D01*
X031963Y030673D01*
X031963Y030494D02*
X031963Y030476D01*
X031963Y030494D02*
X032147Y030494D01*
X032147Y030476D01*
X031963Y030476D01*
X031963Y030298D02*
X031963Y030280D01*
X031963Y030298D02*
X032147Y030298D01*
X032147Y030280D01*
X031963Y030280D01*
X031963Y030101D02*
X031963Y030083D01*
X031963Y030101D02*
X032147Y030101D01*
X032147Y030083D01*
X031963Y030083D01*
X031963Y029904D02*
X031963Y029886D01*
X031963Y029904D02*
X032147Y029904D01*
X032147Y029886D01*
X031963Y029886D01*
X031963Y029707D02*
X031963Y029689D01*
X031963Y029707D02*
X032147Y029707D01*
X032147Y029689D01*
X031963Y029689D01*
X031963Y029510D02*
X031963Y029492D01*
X031963Y029510D02*
X032147Y029510D01*
X032147Y029492D01*
X031963Y029492D01*
X031963Y029313D02*
X031963Y029295D01*
X031963Y029313D02*
X032147Y029313D01*
X032147Y029295D01*
X031963Y029295D01*
X032322Y029121D02*
X032340Y029121D01*
X032340Y028937D01*
X032322Y028937D01*
X032322Y029121D01*
X032322Y029007D02*
X032340Y029007D01*
X032340Y029077D02*
X032322Y029077D01*
X032519Y029121D02*
X032537Y029121D01*
X032537Y028937D01*
X032519Y028937D01*
X032519Y029121D01*
X032519Y029007D02*
X032537Y029007D01*
X032537Y029077D02*
X032519Y029077D01*
X032716Y029121D02*
X032734Y029121D01*
X032734Y028937D01*
X032716Y028937D01*
X032716Y029121D01*
X032716Y029007D02*
X032734Y029007D01*
X032734Y029077D02*
X032716Y029077D01*
X032913Y029121D02*
X032931Y029121D01*
X032931Y028937D01*
X032913Y028937D01*
X032913Y029121D01*
X032913Y029007D02*
X032931Y029007D01*
X032931Y029077D02*
X032913Y029077D01*
X033109Y029121D02*
X033127Y029121D01*
X033127Y028937D01*
X033109Y028937D01*
X033109Y029121D01*
X033109Y029007D02*
X033127Y029007D01*
X033127Y029077D02*
X033109Y029077D01*
X033306Y029121D02*
X033324Y029121D01*
X033324Y028937D01*
X033306Y028937D01*
X033306Y029121D01*
X033306Y029007D02*
X033324Y029007D01*
X033324Y029077D02*
X033306Y029077D01*
X033503Y029121D02*
X033521Y029121D01*
X033521Y028937D01*
X033503Y028937D01*
X033503Y029121D01*
X033503Y029007D02*
X033521Y029007D01*
X033521Y029077D02*
X033503Y029077D01*
X033700Y029121D02*
X033718Y029121D01*
X033718Y028937D01*
X033700Y028937D01*
X033700Y029121D01*
X033700Y029007D02*
X033718Y029007D01*
X033718Y029077D02*
X033700Y029077D01*
X036622Y015199D02*
X036640Y015199D01*
X036640Y014977D01*
X036622Y014977D01*
X036622Y015199D01*
X036622Y015047D02*
X036640Y015047D01*
X036640Y015117D02*
X036622Y015117D01*
X036622Y015187D02*
X036640Y015187D01*
X036819Y015199D02*
X036837Y015199D01*
X036837Y014977D01*
X036819Y014977D01*
X036819Y015199D01*
X036819Y015047D02*
X036837Y015047D01*
X036837Y015117D02*
X036819Y015117D01*
X036819Y015187D02*
X036837Y015187D01*
X037016Y015199D02*
X037034Y015199D01*
X037034Y014977D01*
X037016Y014977D01*
X037016Y015199D01*
X037016Y015047D02*
X037034Y015047D01*
X037034Y015117D02*
X037016Y015117D01*
X037016Y015187D02*
X037034Y015187D01*
X037213Y015199D02*
X037231Y015199D01*
X037231Y014977D01*
X037213Y014977D01*
X037213Y015199D01*
X037213Y015047D02*
X037231Y015047D01*
X037231Y015117D02*
X037213Y015117D01*
X037213Y015187D02*
X037231Y015187D01*
X037409Y015199D02*
X037427Y015199D01*
X037427Y014977D01*
X037409Y014977D01*
X037409Y015199D01*
X037409Y015047D02*
X037427Y015047D01*
X037427Y015117D02*
X037409Y015117D01*
X037409Y015187D02*
X037427Y015187D01*
X037606Y015199D02*
X037624Y015199D01*
X037624Y014977D01*
X037606Y014977D01*
X037606Y015199D01*
X037606Y015047D02*
X037624Y015047D01*
X037624Y015117D02*
X037606Y015117D01*
X037606Y015187D02*
X037624Y015187D01*
X037803Y015199D02*
X037821Y015199D01*
X037821Y014977D01*
X037803Y014977D01*
X037803Y015199D01*
X037803Y015047D02*
X037821Y015047D01*
X037821Y015117D02*
X037803Y015117D01*
X037803Y015187D02*
X037821Y015187D01*
X038000Y014977D02*
X038018Y014977D01*
X038000Y014977D02*
X038000Y015199D01*
X038018Y015199D01*
X038018Y014977D01*
X038018Y015047D02*
X038000Y015047D01*
X038000Y015117D02*
X038018Y015117D01*
X038018Y015187D02*
X038000Y015187D01*
X038154Y014841D02*
X038154Y014823D01*
X038154Y014841D02*
X038376Y014841D01*
X038376Y014823D01*
X038154Y014823D01*
X038154Y014644D02*
X038154Y014626D01*
X038154Y014644D02*
X038376Y014644D01*
X038376Y014626D01*
X038154Y014626D01*
X038154Y014448D02*
X038154Y014430D01*
X038154Y014448D02*
X038376Y014448D01*
X038376Y014430D01*
X038154Y014430D01*
X038154Y014251D02*
X038154Y014233D01*
X038154Y014251D02*
X038376Y014251D01*
X038376Y014233D01*
X038154Y014233D01*
X038154Y014054D02*
X038154Y014036D01*
X038154Y014054D02*
X038376Y014054D01*
X038376Y014036D01*
X038154Y014036D01*
X038154Y013857D02*
X038154Y013839D01*
X038154Y013857D02*
X038376Y013857D01*
X038376Y013839D01*
X038154Y013839D01*
X038154Y013660D02*
X038154Y013642D01*
X038154Y013660D02*
X038376Y013660D01*
X038376Y013642D01*
X038154Y013642D01*
X038154Y013463D02*
X038154Y013445D01*
X038154Y013463D02*
X038376Y013463D01*
X038376Y013445D01*
X038154Y013445D01*
X038018Y013087D02*
X038000Y013087D01*
X038000Y013309D01*
X038018Y013309D01*
X038018Y013087D01*
X038018Y013157D02*
X038000Y013157D01*
X038000Y013227D02*
X038018Y013227D01*
X038018Y013297D02*
X038000Y013297D01*
X037821Y013087D02*
X037803Y013087D01*
X037803Y013309D01*
X037821Y013309D01*
X037821Y013087D01*
X037821Y013157D02*
X037803Y013157D01*
X037803Y013227D02*
X037821Y013227D01*
X037821Y013297D02*
X037803Y013297D01*
X037624Y013087D02*
X037606Y013087D01*
X037606Y013309D01*
X037624Y013309D01*
X037624Y013087D01*
X037624Y013157D02*
X037606Y013157D01*
X037606Y013227D02*
X037624Y013227D01*
X037624Y013297D02*
X037606Y013297D01*
X037427Y013087D02*
X037409Y013087D01*
X037409Y013309D01*
X037427Y013309D01*
X037427Y013087D01*
X037427Y013157D02*
X037409Y013157D01*
X037409Y013227D02*
X037427Y013227D01*
X037427Y013297D02*
X037409Y013297D01*
X037231Y013087D02*
X037213Y013087D01*
X037213Y013309D01*
X037231Y013309D01*
X037231Y013087D01*
X037231Y013157D02*
X037213Y013157D01*
X037213Y013227D02*
X037231Y013227D01*
X037231Y013297D02*
X037213Y013297D01*
X037034Y013087D02*
X037016Y013087D01*
X037016Y013309D01*
X037034Y013309D01*
X037034Y013087D01*
X037034Y013157D02*
X037016Y013157D01*
X037016Y013227D02*
X037034Y013227D01*
X037034Y013297D02*
X037016Y013297D01*
X036837Y013087D02*
X036819Y013087D01*
X036819Y013309D01*
X036837Y013309D01*
X036837Y013087D01*
X036837Y013157D02*
X036819Y013157D01*
X036819Y013227D02*
X036837Y013227D01*
X036837Y013297D02*
X036819Y013297D01*
X036640Y013087D02*
X036622Y013087D01*
X036622Y013309D01*
X036640Y013309D01*
X036640Y013087D01*
X036640Y013157D02*
X036622Y013157D01*
X036622Y013227D02*
X036640Y013227D01*
X036640Y013297D02*
X036622Y013297D01*
X036264Y013445D02*
X036264Y013463D01*
X036486Y013463D01*
X036486Y013445D01*
X036264Y013445D01*
X036264Y013642D02*
X036264Y013660D01*
X036486Y013660D01*
X036486Y013642D01*
X036264Y013642D01*
X036264Y013839D02*
X036264Y013857D01*
X036486Y013857D01*
X036486Y013839D01*
X036264Y013839D01*
X036264Y014036D02*
X036264Y014054D01*
X036486Y014054D01*
X036486Y014036D01*
X036264Y014036D01*
X036264Y014233D02*
X036264Y014251D01*
X036486Y014251D01*
X036486Y014233D01*
X036264Y014233D01*
X036264Y014430D02*
X036264Y014448D01*
X036486Y014448D01*
X036486Y014430D01*
X036264Y014430D01*
X036264Y014626D02*
X036264Y014644D01*
X036486Y014644D01*
X036486Y014626D01*
X036264Y014626D01*
X036264Y014823D02*
X036264Y014841D01*
X036486Y014841D01*
X036486Y014823D01*
X036264Y014823D01*
X030904Y014823D02*
X030904Y014841D01*
X031126Y014841D01*
X031126Y014823D01*
X030904Y014823D01*
X030904Y014644D02*
X030904Y014626D01*
X030904Y014644D02*
X031126Y014644D01*
X031126Y014626D01*
X030904Y014626D01*
X030904Y014448D02*
X030904Y014430D01*
X030904Y014448D02*
X031126Y014448D01*
X031126Y014430D01*
X030904Y014430D01*
X030904Y014251D02*
X030904Y014233D01*
X030904Y014251D02*
X031126Y014251D01*
X031126Y014233D01*
X030904Y014233D01*
X030904Y014054D02*
X030904Y014036D01*
X030904Y014054D02*
X031126Y014054D01*
X031126Y014036D01*
X030904Y014036D01*
X030904Y013857D02*
X030904Y013839D01*
X030904Y013857D02*
X031126Y013857D01*
X031126Y013839D01*
X030904Y013839D01*
X030904Y013660D02*
X030904Y013642D01*
X030904Y013660D02*
X031126Y013660D01*
X031126Y013642D01*
X030904Y013642D01*
X030904Y013463D02*
X030904Y013445D01*
X030904Y013463D02*
X031126Y013463D01*
X031126Y013445D01*
X030904Y013445D01*
X030768Y013087D02*
X030750Y013087D01*
X030750Y013309D01*
X030768Y013309D01*
X030768Y013087D01*
X030768Y013157D02*
X030750Y013157D01*
X030750Y013227D02*
X030768Y013227D01*
X030768Y013297D02*
X030750Y013297D01*
X030571Y013087D02*
X030553Y013087D01*
X030553Y013309D01*
X030571Y013309D01*
X030571Y013087D01*
X030571Y013157D02*
X030553Y013157D01*
X030553Y013227D02*
X030571Y013227D01*
X030571Y013297D02*
X030553Y013297D01*
X030374Y013087D02*
X030356Y013087D01*
X030356Y013309D01*
X030374Y013309D01*
X030374Y013087D01*
X030374Y013157D02*
X030356Y013157D01*
X030356Y013227D02*
X030374Y013227D01*
X030374Y013297D02*
X030356Y013297D01*
X030177Y013087D02*
X030159Y013087D01*
X030159Y013309D01*
X030177Y013309D01*
X030177Y013087D01*
X030177Y013157D02*
X030159Y013157D01*
X030159Y013227D02*
X030177Y013227D01*
X030177Y013297D02*
X030159Y013297D01*
X029981Y013087D02*
X029963Y013087D01*
X029963Y013309D01*
X029981Y013309D01*
X029981Y013087D01*
X029981Y013157D02*
X029963Y013157D01*
X029963Y013227D02*
X029981Y013227D01*
X029981Y013297D02*
X029963Y013297D01*
X029784Y013087D02*
X029766Y013087D01*
X029766Y013309D01*
X029784Y013309D01*
X029784Y013087D01*
X029784Y013157D02*
X029766Y013157D01*
X029766Y013227D02*
X029784Y013227D01*
X029784Y013297D02*
X029766Y013297D01*
X029587Y013087D02*
X029569Y013087D01*
X029569Y013309D01*
X029587Y013309D01*
X029587Y013087D01*
X029587Y013157D02*
X029569Y013157D01*
X029569Y013227D02*
X029587Y013227D01*
X029587Y013297D02*
X029569Y013297D01*
X029390Y013087D02*
X029372Y013087D01*
X029372Y013309D01*
X029390Y013309D01*
X029390Y013087D01*
X029390Y013157D02*
X029372Y013157D01*
X029372Y013227D02*
X029390Y013227D01*
X029390Y013297D02*
X029372Y013297D01*
X029014Y013445D02*
X029014Y013463D01*
X029236Y013463D01*
X029236Y013445D01*
X029014Y013445D01*
X029014Y013642D02*
X029014Y013660D01*
X029236Y013660D01*
X029236Y013642D01*
X029014Y013642D01*
X029014Y013839D02*
X029014Y013857D01*
X029236Y013857D01*
X029236Y013839D01*
X029014Y013839D01*
X029014Y014036D02*
X029014Y014054D01*
X029236Y014054D01*
X029236Y014036D01*
X029014Y014036D01*
X029014Y014233D02*
X029014Y014251D01*
X029236Y014251D01*
X029236Y014233D01*
X029014Y014233D01*
X029014Y014430D02*
X029014Y014448D01*
X029236Y014448D01*
X029236Y014430D01*
X029014Y014430D01*
X029014Y014626D02*
X029014Y014644D01*
X029236Y014644D01*
X029236Y014626D01*
X029014Y014626D01*
X029014Y014823D02*
X029014Y014841D01*
X029236Y014841D01*
X029236Y014823D01*
X029014Y014823D01*
X029372Y015199D02*
X029390Y015199D01*
X029390Y014977D01*
X029372Y014977D01*
X029372Y015199D01*
X029372Y015047D02*
X029390Y015047D01*
X029390Y015117D02*
X029372Y015117D01*
X029372Y015187D02*
X029390Y015187D01*
X029569Y015199D02*
X029587Y015199D01*
X029587Y014977D01*
X029569Y014977D01*
X029569Y015199D01*
X029569Y015047D02*
X029587Y015047D01*
X029587Y015117D02*
X029569Y015117D01*
X029569Y015187D02*
X029587Y015187D01*
X029766Y015199D02*
X029784Y015199D01*
X029784Y014977D01*
X029766Y014977D01*
X029766Y015199D01*
X029766Y015047D02*
X029784Y015047D01*
X029784Y015117D02*
X029766Y015117D01*
X029766Y015187D02*
X029784Y015187D01*
X029963Y015199D02*
X029981Y015199D01*
X029981Y014977D01*
X029963Y014977D01*
X029963Y015199D01*
X029963Y015047D02*
X029981Y015047D01*
X029981Y015117D02*
X029963Y015117D01*
X029963Y015187D02*
X029981Y015187D01*
X030159Y015199D02*
X030177Y015199D01*
X030177Y014977D01*
X030159Y014977D01*
X030159Y015199D01*
X030159Y015047D02*
X030177Y015047D01*
X030177Y015117D02*
X030159Y015117D01*
X030159Y015187D02*
X030177Y015187D01*
X030356Y015199D02*
X030374Y015199D01*
X030374Y014977D01*
X030356Y014977D01*
X030356Y015199D01*
X030356Y015047D02*
X030374Y015047D01*
X030374Y015117D02*
X030356Y015117D01*
X030356Y015187D02*
X030374Y015187D01*
X030553Y015199D02*
X030571Y015199D01*
X030571Y014977D01*
X030553Y014977D01*
X030553Y015199D01*
X030553Y015047D02*
X030571Y015047D01*
X030571Y015117D02*
X030553Y015117D01*
X030553Y015187D02*
X030571Y015187D01*
X030750Y014977D02*
X030768Y014977D01*
X030750Y014977D02*
X030750Y015199D01*
X030768Y015199D01*
X030768Y014977D01*
X030768Y015047D02*
X030750Y015047D01*
X030750Y015117D02*
X030768Y015117D01*
X030768Y015187D02*
X030750Y015187D01*
X044014Y014823D02*
X044014Y014841D01*
X044236Y014841D01*
X044236Y014823D01*
X044014Y014823D01*
X044014Y014644D02*
X044014Y014626D01*
X044014Y014644D02*
X044236Y014644D01*
X044236Y014626D01*
X044014Y014626D01*
X044014Y014448D02*
X044014Y014430D01*
X044014Y014448D02*
X044236Y014448D01*
X044236Y014430D01*
X044014Y014430D01*
X044014Y014251D02*
X044014Y014233D01*
X044014Y014251D02*
X044236Y014251D01*
X044236Y014233D01*
X044014Y014233D01*
X044014Y014054D02*
X044014Y014036D01*
X044014Y014054D02*
X044236Y014054D01*
X044236Y014036D01*
X044014Y014036D01*
X044014Y013857D02*
X044014Y013839D01*
X044014Y013857D02*
X044236Y013857D01*
X044236Y013839D01*
X044014Y013839D01*
X044014Y013660D02*
X044014Y013642D01*
X044014Y013660D02*
X044236Y013660D01*
X044236Y013642D01*
X044014Y013642D01*
X044014Y013463D02*
X044014Y013445D01*
X044014Y013463D02*
X044236Y013463D01*
X044236Y013445D01*
X044014Y013445D01*
X044372Y013087D02*
X044390Y013087D01*
X044372Y013087D02*
X044372Y013309D01*
X044390Y013309D01*
X044390Y013087D01*
X044390Y013157D02*
X044372Y013157D01*
X044372Y013227D02*
X044390Y013227D01*
X044390Y013297D02*
X044372Y013297D01*
X044569Y013087D02*
X044587Y013087D01*
X044569Y013087D02*
X044569Y013309D01*
X044587Y013309D01*
X044587Y013087D01*
X044587Y013157D02*
X044569Y013157D01*
X044569Y013227D02*
X044587Y013227D01*
X044587Y013297D02*
X044569Y013297D01*
X044766Y013087D02*
X044784Y013087D01*
X044766Y013087D02*
X044766Y013309D01*
X044784Y013309D01*
X044784Y013087D01*
X044784Y013157D02*
X044766Y013157D01*
X044766Y013227D02*
X044784Y013227D01*
X044784Y013297D02*
X044766Y013297D01*
X044963Y013087D02*
X044981Y013087D01*
X044963Y013087D02*
X044963Y013309D01*
X044981Y013309D01*
X044981Y013087D01*
X044981Y013157D02*
X044963Y013157D01*
X044963Y013227D02*
X044981Y013227D01*
X044981Y013297D02*
X044963Y013297D01*
X045159Y013087D02*
X045177Y013087D01*
X045159Y013087D02*
X045159Y013309D01*
X045177Y013309D01*
X045177Y013087D01*
X045177Y013157D02*
X045159Y013157D01*
X045159Y013227D02*
X045177Y013227D01*
X045177Y013297D02*
X045159Y013297D01*
X045356Y013087D02*
X045374Y013087D01*
X045356Y013087D02*
X045356Y013309D01*
X045374Y013309D01*
X045374Y013087D01*
X045374Y013157D02*
X045356Y013157D01*
X045356Y013227D02*
X045374Y013227D01*
X045374Y013297D02*
X045356Y013297D01*
X045553Y013087D02*
X045571Y013087D01*
X045553Y013087D02*
X045553Y013309D01*
X045571Y013309D01*
X045571Y013087D01*
X045571Y013157D02*
X045553Y013157D01*
X045553Y013227D02*
X045571Y013227D01*
X045571Y013297D02*
X045553Y013297D01*
X045750Y013087D02*
X045768Y013087D01*
X045750Y013087D02*
X045750Y013309D01*
X045768Y013309D01*
X045768Y013087D01*
X045768Y013157D02*
X045750Y013157D01*
X045750Y013227D02*
X045768Y013227D01*
X045768Y013297D02*
X045750Y013297D01*
X045904Y013445D02*
X045904Y013463D01*
X046126Y013463D01*
X046126Y013445D01*
X045904Y013445D01*
X045904Y013642D02*
X045904Y013660D01*
X046126Y013660D01*
X046126Y013642D01*
X045904Y013642D01*
X045904Y013839D02*
X045904Y013857D01*
X046126Y013857D01*
X046126Y013839D01*
X045904Y013839D01*
X045904Y014036D02*
X045904Y014054D01*
X046126Y014054D01*
X046126Y014036D01*
X045904Y014036D01*
X045904Y014233D02*
X045904Y014251D01*
X046126Y014251D01*
X046126Y014233D01*
X045904Y014233D01*
X045904Y014430D02*
X045904Y014448D01*
X046126Y014448D01*
X046126Y014430D01*
X045904Y014430D01*
X045904Y014626D02*
X045904Y014644D01*
X046126Y014644D01*
X046126Y014626D01*
X045904Y014626D01*
X045904Y014823D02*
X045904Y014841D01*
X046126Y014841D01*
X046126Y014823D01*
X045904Y014823D01*
X045768Y014977D02*
X045750Y014977D01*
X045750Y015199D01*
X045768Y015199D01*
X045768Y014977D01*
X045768Y015047D02*
X045750Y015047D01*
X045750Y015117D02*
X045768Y015117D01*
X045768Y015187D02*
X045750Y015187D01*
X045571Y015199D02*
X045553Y015199D01*
X045571Y015199D02*
X045571Y014977D01*
X045553Y014977D01*
X045553Y015199D01*
X045553Y015047D02*
X045571Y015047D01*
X045571Y015117D02*
X045553Y015117D01*
X045553Y015187D02*
X045571Y015187D01*
X045374Y015199D02*
X045356Y015199D01*
X045374Y015199D02*
X045374Y014977D01*
X045356Y014977D01*
X045356Y015199D01*
X045356Y015047D02*
X045374Y015047D01*
X045374Y015117D02*
X045356Y015117D01*
X045356Y015187D02*
X045374Y015187D01*
X045177Y015199D02*
X045159Y015199D01*
X045177Y015199D02*
X045177Y014977D01*
X045159Y014977D01*
X045159Y015199D01*
X045159Y015047D02*
X045177Y015047D01*
X045177Y015117D02*
X045159Y015117D01*
X045159Y015187D02*
X045177Y015187D01*
X044981Y015199D02*
X044963Y015199D01*
X044981Y015199D02*
X044981Y014977D01*
X044963Y014977D01*
X044963Y015199D01*
X044963Y015047D02*
X044981Y015047D01*
X044981Y015117D02*
X044963Y015117D01*
X044963Y015187D02*
X044981Y015187D01*
X044784Y015199D02*
X044766Y015199D01*
X044784Y015199D02*
X044784Y014977D01*
X044766Y014977D01*
X044766Y015199D01*
X044766Y015047D02*
X044784Y015047D01*
X044784Y015117D02*
X044766Y015117D01*
X044766Y015187D02*
X044784Y015187D01*
X044587Y015199D02*
X044569Y015199D01*
X044587Y015199D02*
X044587Y014977D01*
X044569Y014977D01*
X044569Y015199D01*
X044569Y015047D02*
X044587Y015047D01*
X044587Y015117D02*
X044569Y015117D01*
X044569Y015187D02*
X044587Y015187D01*
X044390Y015199D02*
X044372Y015199D01*
X044390Y015199D02*
X044390Y014977D01*
X044372Y014977D01*
X044372Y015199D01*
X044372Y015047D02*
X044390Y015047D01*
X044390Y015117D02*
X044372Y015117D01*
X044372Y015187D02*
X044390Y015187D01*
X051014Y014823D02*
X051014Y014841D01*
X051236Y014841D01*
X051236Y014823D01*
X051014Y014823D01*
X051014Y014644D02*
X051014Y014626D01*
X051014Y014644D02*
X051236Y014644D01*
X051236Y014626D01*
X051014Y014626D01*
X051014Y014448D02*
X051014Y014430D01*
X051014Y014448D02*
X051236Y014448D01*
X051236Y014430D01*
X051014Y014430D01*
X051014Y014251D02*
X051014Y014233D01*
X051014Y014251D02*
X051236Y014251D01*
X051236Y014233D01*
X051014Y014233D01*
X051014Y014054D02*
X051014Y014036D01*
X051014Y014054D02*
X051236Y014054D01*
X051236Y014036D01*
X051014Y014036D01*
X051014Y013857D02*
X051014Y013839D01*
X051014Y013857D02*
X051236Y013857D01*
X051236Y013839D01*
X051014Y013839D01*
X051014Y013660D02*
X051014Y013642D01*
X051014Y013660D02*
X051236Y013660D01*
X051236Y013642D01*
X051014Y013642D01*
X051014Y013463D02*
X051014Y013445D01*
X051014Y013463D02*
X051236Y013463D01*
X051236Y013445D01*
X051014Y013445D01*
X051372Y013087D02*
X051390Y013087D01*
X051372Y013087D02*
X051372Y013309D01*
X051390Y013309D01*
X051390Y013087D01*
X051390Y013157D02*
X051372Y013157D01*
X051372Y013227D02*
X051390Y013227D01*
X051390Y013297D02*
X051372Y013297D01*
X051569Y013087D02*
X051587Y013087D01*
X051569Y013087D02*
X051569Y013309D01*
X051587Y013309D01*
X051587Y013087D01*
X051587Y013157D02*
X051569Y013157D01*
X051569Y013227D02*
X051587Y013227D01*
X051587Y013297D02*
X051569Y013297D01*
X051766Y013087D02*
X051784Y013087D01*
X051766Y013087D02*
X051766Y013309D01*
X051784Y013309D01*
X051784Y013087D01*
X051784Y013157D02*
X051766Y013157D01*
X051766Y013227D02*
X051784Y013227D01*
X051784Y013297D02*
X051766Y013297D01*
X051963Y013087D02*
X051981Y013087D01*
X051963Y013087D02*
X051963Y013309D01*
X051981Y013309D01*
X051981Y013087D01*
X051981Y013157D02*
X051963Y013157D01*
X051963Y013227D02*
X051981Y013227D01*
X051981Y013297D02*
X051963Y013297D01*
X052159Y013087D02*
X052177Y013087D01*
X052159Y013087D02*
X052159Y013309D01*
X052177Y013309D01*
X052177Y013087D01*
X052177Y013157D02*
X052159Y013157D01*
X052159Y013227D02*
X052177Y013227D01*
X052177Y013297D02*
X052159Y013297D01*
X052356Y013087D02*
X052374Y013087D01*
X052356Y013087D02*
X052356Y013309D01*
X052374Y013309D01*
X052374Y013087D01*
X052374Y013157D02*
X052356Y013157D01*
X052356Y013227D02*
X052374Y013227D01*
X052374Y013297D02*
X052356Y013297D01*
X052553Y013087D02*
X052571Y013087D01*
X052553Y013087D02*
X052553Y013309D01*
X052571Y013309D01*
X052571Y013087D01*
X052571Y013157D02*
X052553Y013157D01*
X052553Y013227D02*
X052571Y013227D01*
X052571Y013297D02*
X052553Y013297D01*
X052750Y013087D02*
X052768Y013087D01*
X052750Y013087D02*
X052750Y013309D01*
X052768Y013309D01*
X052768Y013087D01*
X052768Y013157D02*
X052750Y013157D01*
X052750Y013227D02*
X052768Y013227D01*
X052768Y013297D02*
X052750Y013297D01*
X052904Y013445D02*
X052904Y013463D01*
X053126Y013463D01*
X053126Y013445D01*
X052904Y013445D01*
X052904Y013642D02*
X052904Y013660D01*
X053126Y013660D01*
X053126Y013642D01*
X052904Y013642D01*
X052904Y013839D02*
X052904Y013857D01*
X053126Y013857D01*
X053126Y013839D01*
X052904Y013839D01*
X052904Y014036D02*
X052904Y014054D01*
X053126Y014054D01*
X053126Y014036D01*
X052904Y014036D01*
X052904Y014233D02*
X052904Y014251D01*
X053126Y014251D01*
X053126Y014233D01*
X052904Y014233D01*
X052904Y014430D02*
X052904Y014448D01*
X053126Y014448D01*
X053126Y014430D01*
X052904Y014430D01*
X052904Y014626D02*
X052904Y014644D01*
X053126Y014644D01*
X053126Y014626D01*
X052904Y014626D01*
X052904Y014823D02*
X052904Y014841D01*
X053126Y014841D01*
X053126Y014823D01*
X052904Y014823D01*
X052768Y014977D02*
X052750Y014977D01*
X052750Y015199D01*
X052768Y015199D01*
X052768Y014977D01*
X052768Y015047D02*
X052750Y015047D01*
X052750Y015117D02*
X052768Y015117D01*
X052768Y015187D02*
X052750Y015187D01*
X052571Y015199D02*
X052553Y015199D01*
X052571Y015199D02*
X052571Y014977D01*
X052553Y014977D01*
X052553Y015199D01*
X052553Y015047D02*
X052571Y015047D01*
X052571Y015117D02*
X052553Y015117D01*
X052553Y015187D02*
X052571Y015187D01*
X052374Y015199D02*
X052356Y015199D01*
X052374Y015199D02*
X052374Y014977D01*
X052356Y014977D01*
X052356Y015199D01*
X052356Y015047D02*
X052374Y015047D01*
X052374Y015117D02*
X052356Y015117D01*
X052356Y015187D02*
X052374Y015187D01*
X052177Y015199D02*
X052159Y015199D01*
X052177Y015199D02*
X052177Y014977D01*
X052159Y014977D01*
X052159Y015199D01*
X052159Y015047D02*
X052177Y015047D01*
X052177Y015117D02*
X052159Y015117D01*
X052159Y015187D02*
X052177Y015187D01*
X051981Y015199D02*
X051963Y015199D01*
X051981Y015199D02*
X051981Y014977D01*
X051963Y014977D01*
X051963Y015199D01*
X051963Y015047D02*
X051981Y015047D01*
X051981Y015117D02*
X051963Y015117D01*
X051963Y015187D02*
X051981Y015187D01*
X051784Y015199D02*
X051766Y015199D01*
X051784Y015199D02*
X051784Y014977D01*
X051766Y014977D01*
X051766Y015199D01*
X051766Y015047D02*
X051784Y015047D01*
X051784Y015117D02*
X051766Y015117D01*
X051766Y015187D02*
X051784Y015187D01*
X051587Y015199D02*
X051569Y015199D01*
X051587Y015199D02*
X051587Y014977D01*
X051569Y014977D01*
X051569Y015199D01*
X051569Y015047D02*
X051587Y015047D01*
X051587Y015117D02*
X051569Y015117D01*
X051569Y015187D02*
X051587Y015187D01*
X051390Y015199D02*
X051372Y015199D01*
X051390Y015199D02*
X051390Y014977D01*
X051372Y014977D01*
X051372Y015199D01*
X051372Y015047D02*
X051390Y015047D01*
X051390Y015117D02*
X051372Y015117D01*
X051372Y015187D02*
X051390Y015187D01*
X058014Y014823D02*
X058014Y014841D01*
X058236Y014841D01*
X058236Y014823D01*
X058014Y014823D01*
X058014Y014644D02*
X058014Y014626D01*
X058014Y014644D02*
X058236Y014644D01*
X058236Y014626D01*
X058014Y014626D01*
X058014Y014448D02*
X058014Y014430D01*
X058014Y014448D02*
X058236Y014448D01*
X058236Y014430D01*
X058014Y014430D01*
X058014Y014251D02*
X058014Y014233D01*
X058014Y014251D02*
X058236Y014251D01*
X058236Y014233D01*
X058014Y014233D01*
X058014Y014054D02*
X058014Y014036D01*
X058014Y014054D02*
X058236Y014054D01*
X058236Y014036D01*
X058014Y014036D01*
X058014Y013857D02*
X058014Y013839D01*
X058014Y013857D02*
X058236Y013857D01*
X058236Y013839D01*
X058014Y013839D01*
X058014Y013660D02*
X058014Y013642D01*
X058014Y013660D02*
X058236Y013660D01*
X058236Y013642D01*
X058014Y013642D01*
X058014Y013463D02*
X058014Y013445D01*
X058014Y013463D02*
X058236Y013463D01*
X058236Y013445D01*
X058014Y013445D01*
X058372Y013087D02*
X058390Y013087D01*
X058372Y013087D02*
X058372Y013309D01*
X058390Y013309D01*
X058390Y013087D01*
X058390Y013157D02*
X058372Y013157D01*
X058372Y013227D02*
X058390Y013227D01*
X058390Y013297D02*
X058372Y013297D01*
X058569Y013087D02*
X058587Y013087D01*
X058569Y013087D02*
X058569Y013309D01*
X058587Y013309D01*
X058587Y013087D01*
X058587Y013157D02*
X058569Y013157D01*
X058569Y013227D02*
X058587Y013227D01*
X058587Y013297D02*
X058569Y013297D01*
X058766Y013087D02*
X058784Y013087D01*
X058766Y013087D02*
X058766Y013309D01*
X058784Y013309D01*
X058784Y013087D01*
X058784Y013157D02*
X058766Y013157D01*
X058766Y013227D02*
X058784Y013227D01*
X058784Y013297D02*
X058766Y013297D01*
X058963Y013087D02*
X058981Y013087D01*
X058963Y013087D02*
X058963Y013309D01*
X058981Y013309D01*
X058981Y013087D01*
X058981Y013157D02*
X058963Y013157D01*
X058963Y013227D02*
X058981Y013227D01*
X058981Y013297D02*
X058963Y013297D01*
X059159Y013087D02*
X059177Y013087D01*
X059159Y013087D02*
X059159Y013309D01*
X059177Y013309D01*
X059177Y013087D01*
X059177Y013157D02*
X059159Y013157D01*
X059159Y013227D02*
X059177Y013227D01*
X059177Y013297D02*
X059159Y013297D01*
X059356Y013087D02*
X059374Y013087D01*
X059356Y013087D02*
X059356Y013309D01*
X059374Y013309D01*
X059374Y013087D01*
X059374Y013157D02*
X059356Y013157D01*
X059356Y013227D02*
X059374Y013227D01*
X059374Y013297D02*
X059356Y013297D01*
X059553Y013087D02*
X059571Y013087D01*
X059553Y013087D02*
X059553Y013309D01*
X059571Y013309D01*
X059571Y013087D01*
X059571Y013157D02*
X059553Y013157D01*
X059553Y013227D02*
X059571Y013227D01*
X059571Y013297D02*
X059553Y013297D01*
X059750Y013087D02*
X059768Y013087D01*
X059750Y013087D02*
X059750Y013309D01*
X059768Y013309D01*
X059768Y013087D01*
X059768Y013157D02*
X059750Y013157D01*
X059750Y013227D02*
X059768Y013227D01*
X059768Y013297D02*
X059750Y013297D01*
X059904Y013445D02*
X059904Y013463D01*
X060126Y013463D01*
X060126Y013445D01*
X059904Y013445D01*
X059904Y013642D02*
X059904Y013660D01*
X060126Y013660D01*
X060126Y013642D01*
X059904Y013642D01*
X059904Y013839D02*
X059904Y013857D01*
X060126Y013857D01*
X060126Y013839D01*
X059904Y013839D01*
X059904Y014036D02*
X059904Y014054D01*
X060126Y014054D01*
X060126Y014036D01*
X059904Y014036D01*
X059904Y014233D02*
X059904Y014251D01*
X060126Y014251D01*
X060126Y014233D01*
X059904Y014233D01*
X059904Y014430D02*
X059904Y014448D01*
X060126Y014448D01*
X060126Y014430D01*
X059904Y014430D01*
X059904Y014626D02*
X059904Y014644D01*
X060126Y014644D01*
X060126Y014626D01*
X059904Y014626D01*
X059904Y014823D02*
X059904Y014841D01*
X060126Y014841D01*
X060126Y014823D01*
X059904Y014823D01*
X059768Y014977D02*
X059750Y014977D01*
X059750Y015199D01*
X059768Y015199D01*
X059768Y014977D01*
X059768Y015047D02*
X059750Y015047D01*
X059750Y015117D02*
X059768Y015117D01*
X059768Y015187D02*
X059750Y015187D01*
X059571Y015199D02*
X059553Y015199D01*
X059571Y015199D02*
X059571Y014977D01*
X059553Y014977D01*
X059553Y015199D01*
X059553Y015047D02*
X059571Y015047D01*
X059571Y015117D02*
X059553Y015117D01*
X059553Y015187D02*
X059571Y015187D01*
X059374Y015199D02*
X059356Y015199D01*
X059374Y015199D02*
X059374Y014977D01*
X059356Y014977D01*
X059356Y015199D01*
X059356Y015047D02*
X059374Y015047D01*
X059374Y015117D02*
X059356Y015117D01*
X059356Y015187D02*
X059374Y015187D01*
X059177Y015199D02*
X059159Y015199D01*
X059177Y015199D02*
X059177Y014977D01*
X059159Y014977D01*
X059159Y015199D01*
X059159Y015047D02*
X059177Y015047D01*
X059177Y015117D02*
X059159Y015117D01*
X059159Y015187D02*
X059177Y015187D01*
X058981Y015199D02*
X058963Y015199D01*
X058981Y015199D02*
X058981Y014977D01*
X058963Y014977D01*
X058963Y015199D01*
X058963Y015047D02*
X058981Y015047D01*
X058981Y015117D02*
X058963Y015117D01*
X058963Y015187D02*
X058981Y015187D01*
X058784Y015199D02*
X058766Y015199D01*
X058784Y015199D02*
X058784Y014977D01*
X058766Y014977D01*
X058766Y015199D01*
X058766Y015047D02*
X058784Y015047D01*
X058784Y015117D02*
X058766Y015117D01*
X058766Y015187D02*
X058784Y015187D01*
X058587Y015199D02*
X058569Y015199D01*
X058587Y015199D02*
X058587Y014977D01*
X058569Y014977D01*
X058569Y015199D01*
X058569Y015047D02*
X058587Y015047D01*
X058587Y015117D02*
X058569Y015117D01*
X058569Y015187D02*
X058587Y015187D01*
X058390Y015199D02*
X058372Y015199D01*
X058390Y015199D02*
X058390Y014977D01*
X058372Y014977D01*
X058372Y015199D01*
X058372Y015047D02*
X058390Y015047D01*
X058390Y015117D02*
X058372Y015117D01*
X058372Y015187D02*
X058390Y015187D01*
D17*
X033020Y029993D03*
D18*
X030020Y030200D03*
X030020Y029562D03*
X030020Y028775D03*
X030020Y030987D03*
D19*
X036579Y029491D03*
X036579Y029176D03*
X036579Y028861D03*
X036579Y028546D03*
X037111Y028546D03*
X037111Y028861D03*
X037111Y029176D03*
X037111Y029491D03*
D20*
X032984Y027771D03*
X032256Y027771D03*
X032256Y026866D03*
X032984Y026866D03*
D21*
X033464Y031956D03*
X032126Y031956D03*
D22*
X039295Y031899D03*
X039295Y033238D03*
D23*
X038133Y011578D03*
X038133Y010458D03*
X036508Y010458D03*
X036508Y011578D03*
X030883Y011578D03*
X030883Y010458D03*
X029258Y010458D03*
X029258Y011578D03*
X044258Y011578D03*
X044258Y010458D03*
X045883Y010458D03*
X045883Y011578D03*
X051258Y011578D03*
X051258Y010458D03*
X052883Y010458D03*
X052883Y011578D03*
X058258Y011578D03*
X058258Y010458D03*
X059883Y010458D03*
X059883Y011578D03*
D24*
X062858Y015809D03*
X062858Y016478D03*
X059720Y017559D03*
X059720Y018228D03*
X057870Y018228D03*
X057870Y017559D03*
X056755Y019943D03*
X056085Y019943D03*
X056085Y020668D03*
X056755Y020668D03*
X056755Y021393D03*
X056085Y021393D03*
X056085Y022088D03*
X056755Y022088D03*
X056755Y023548D03*
X056085Y023548D03*
X056085Y024268D03*
X056755Y024268D03*
X056755Y025713D03*
X056085Y025713D03*
X056085Y027168D03*
X056755Y027168D03*
X053480Y027443D03*
X052810Y027443D03*
X053105Y034993D03*
X052435Y034993D03*
X051730Y035243D03*
X051060Y035243D03*
X049905Y035893D03*
X049235Y035893D03*
X048630Y035893D03*
X047960Y035893D03*
X042755Y035693D03*
X042085Y035693D03*
X041405Y035668D03*
X040735Y035668D03*
X039905Y036118D03*
X039905Y036768D03*
X039235Y036768D03*
X039235Y036118D03*
X039530Y035418D03*
X038860Y035418D03*
X040710Y032768D03*
X041380Y032768D03*
X039980Y028093D03*
X039310Y028093D03*
X040135Y026407D03*
X040805Y026407D03*
X040805Y025603D03*
X040135Y025603D03*
X042745Y021779D03*
X042745Y021110D03*
X043895Y018228D03*
X043895Y017559D03*
X045658Y017559D03*
X045658Y018228D03*
X046383Y018228D03*
X047045Y018228D03*
X047045Y017559D03*
X046383Y017559D03*
X050870Y017559D03*
X050870Y018228D03*
X052741Y018228D03*
X052741Y017559D03*
X053460Y017559D03*
X053460Y018228D03*
X054193Y018228D03*
X054193Y017559D03*
X039708Y017559D03*
X039708Y018228D03*
X038995Y018228D03*
X038995Y017559D03*
X038270Y017559D03*
X038270Y018228D03*
X036470Y018228D03*
X036470Y017559D03*
X032733Y017559D03*
X032733Y018228D03*
X031995Y018228D03*
X031995Y017559D03*
X031270Y017559D03*
X031270Y018228D03*
X029470Y018228D03*
X029470Y017559D03*
X035595Y027109D03*
X035595Y027778D03*
X031417Y031831D03*
X030748Y031831D03*
X028830Y033768D03*
X028160Y033768D03*
X028480Y034431D03*
X027810Y034431D03*
X030535Y035843D03*
X031205Y035843D03*
X034485Y035518D03*
X035155Y035518D03*
X042010Y040393D03*
X042010Y041043D03*
X042680Y041043D03*
X042680Y040393D03*
X048945Y042009D03*
X048945Y042678D03*
X049845Y042678D03*
X049845Y042009D03*
X058835Y041993D03*
X059505Y041993D03*
D25*
X054205Y038493D03*
X053535Y038493D03*
X052380Y036943D03*
X051710Y036943D03*
X051710Y036218D03*
X052380Y036218D03*
X044220Y035934D03*
X044220Y036603D03*
X043570Y035728D03*
X043570Y035059D03*
X039245Y034678D03*
X039245Y034009D03*
X038170Y033678D03*
X038095Y034309D03*
X038095Y034978D03*
X038170Y033009D03*
X038735Y028893D03*
X039405Y028893D03*
X042519Y020418D03*
X042519Y019749D03*
X043158Y018228D03*
X043158Y017559D03*
X044633Y017559D03*
X044633Y018228D03*
X041433Y018235D03*
X041433Y017566D03*
X041698Y013893D03*
X042367Y013893D03*
X040692Y013893D03*
X040023Y013893D03*
X037195Y017559D03*
X037195Y018228D03*
X035741Y018228D03*
X035741Y017559D03*
X033459Y017559D03*
X033459Y018228D03*
X030195Y018228D03*
X030195Y017559D03*
X028731Y017559D03*
X028731Y018228D03*
X028292Y013893D03*
X027623Y013893D03*
X032523Y013893D03*
X033192Y013893D03*
X034198Y013893D03*
X034867Y013893D03*
X047448Y013893D03*
X048117Y013893D03*
X049098Y013893D03*
X049767Y013893D03*
X050144Y017559D03*
X050144Y018228D03*
X051595Y018228D03*
X051595Y017559D03*
X048385Y017559D03*
X048385Y018228D03*
X054398Y013893D03*
X055067Y013893D03*
X056073Y013893D03*
X056742Y013893D03*
X057144Y017559D03*
X057144Y018228D03*
X058595Y018228D03*
X058595Y017559D03*
X060435Y017518D03*
X061105Y017518D03*
X062845Y014928D03*
X062845Y014259D03*
X061942Y013893D03*
X061273Y013893D03*
X054919Y017559D03*
X054919Y018228D03*
X056085Y022823D03*
X056755Y022823D03*
X056755Y024988D03*
X056085Y024988D03*
X056085Y026448D03*
X056755Y026448D03*
X053469Y025690D03*
X052800Y025690D03*
X042680Y041718D03*
X042010Y041718D03*
X026820Y035653D03*
X026820Y034984D03*
X026801Y034377D03*
X026801Y033708D03*
D26*
X029320Y036600D03*
X029820Y036600D03*
X030320Y036600D03*
X030820Y036600D03*
X033070Y036600D03*
X033570Y036600D03*
X034070Y036600D03*
X034570Y036600D03*
X037070Y036600D03*
X037570Y036600D03*
X038070Y036600D03*
X038570Y036600D03*
X045820Y036600D03*
X046320Y036600D03*
X046820Y036600D03*
X047320Y036600D03*
D27*
X046575Y038657D03*
X037825Y038657D03*
X033825Y038657D03*
X030075Y038657D03*
D28*
X030070Y037850D03*
X033820Y037850D03*
X037820Y037850D03*
X046570Y037850D03*
D29*
X057066Y035143D03*
X059574Y035143D03*
D30*
X064195Y026647D03*
X064195Y024139D03*
D31*
X045896Y022551D03*
X045896Y022295D03*
X045896Y022039D03*
X045896Y021783D03*
X045896Y021527D03*
X045896Y021271D03*
X045896Y021015D03*
X045896Y020759D03*
X045896Y020504D03*
X045896Y020248D03*
X045896Y019992D03*
X045896Y019736D03*
X043494Y019736D03*
X043494Y019992D03*
X043494Y020248D03*
X043494Y020504D03*
X043494Y020759D03*
X043494Y021015D03*
X043494Y021271D03*
X043494Y021527D03*
X043494Y021783D03*
X043494Y022039D03*
X043494Y022295D03*
X043494Y022551D03*
D32*
X041285Y029404D03*
X041285Y030132D03*
X040380Y030132D03*
X040380Y029404D03*
D33*
X031076Y029556D03*
X030564Y029556D03*
X030564Y030181D03*
X031076Y030181D03*
D34*
X030733Y026630D03*
X030733Y025882D03*
D35*
X053070Y043462D03*
X053070Y045824D03*
D36*
X055920Y045843D03*
X055920Y043443D03*
X061220Y043443D03*
X061220Y045843D03*
D37*
X059361Y014439D03*
X059361Y013848D03*
X052361Y013848D03*
X052361Y014439D03*
X045361Y014439D03*
X045361Y013848D03*
X037611Y013848D03*
X037611Y014439D03*
X030361Y014439D03*
X030361Y013848D03*
D38*
X029779Y013853D03*
X037029Y013853D03*
X044779Y013853D03*
X051779Y013853D03*
X058779Y013853D03*
D39*
X058779Y014444D03*
X051779Y014444D03*
X044779Y014444D03*
X037029Y014444D03*
X029779Y014444D03*
D40*
X040712Y036618D03*
X041539Y036244D03*
X041539Y036992D03*
X041389Y040319D03*
X041389Y041067D03*
X040562Y040693D03*
D41*
X036070Y037181D03*
X036070Y035606D03*
X032070Y035606D03*
X032070Y037181D03*
X028320Y037181D03*
X028320Y035606D03*
X050945Y040756D03*
X050945Y042331D03*
X055158Y038443D03*
X056732Y038443D03*
X055632Y034818D03*
X054058Y034818D03*
X061570Y025181D03*
X061570Y023606D03*
D42*
X038294Y025768D03*
X038294Y026018D03*
X038294Y026268D03*
X038294Y026518D03*
X038294Y026768D03*
X038294Y027018D03*
X038294Y027268D03*
X038294Y027518D03*
X036246Y027518D03*
X036246Y027268D03*
X036246Y027018D03*
X036246Y026768D03*
X036246Y026518D03*
X036246Y026268D03*
X036246Y026018D03*
X036246Y025768D03*
D43*
X028520Y032462D03*
X028520Y032974D03*
D44*
X029145Y032963D02*
X029145Y032985D01*
X029245Y032985D01*
X029245Y032963D01*
X029145Y032963D01*
X029145Y032473D02*
X029145Y032451D01*
X029145Y032473D02*
X029245Y032473D01*
X029245Y032451D01*
X029145Y032451D01*
D45*
X025120Y008143D03*
X025395Y007468D03*
X026070Y007193D03*
X026745Y007468D03*
X027020Y008143D03*
X026745Y008818D03*
X026070Y009093D03*
X025395Y008818D03*
X026070Y044693D03*
X025395Y044968D03*
X025120Y045643D03*
X025395Y046318D03*
X026070Y046593D03*
X026745Y046318D03*
X027020Y045643D03*
X026745Y044968D03*
X063120Y045643D03*
X063395Y044968D03*
X064070Y044693D03*
X064745Y044968D03*
X065020Y045643D03*
X064745Y046318D03*
X064070Y046593D03*
X063395Y046318D03*
X064070Y009093D03*
X063395Y008818D03*
X063120Y008143D03*
X063395Y007468D03*
X064070Y007193D03*
X064745Y007468D03*
X065020Y008143D03*
X064745Y008818D03*
D46*
X053528Y026568D03*
X052662Y026568D03*
D47*
X054734Y026368D03*
X055246Y026368D03*
X055256Y025768D03*
X054744Y025768D03*
X054744Y025143D03*
X055256Y025143D03*
X055246Y024543D03*
X054734Y024543D03*
X054819Y022443D03*
X055331Y022443D03*
X055321Y021843D03*
X054809Y021843D03*
X054809Y021293D03*
X055321Y021293D03*
X055331Y020743D03*
X054819Y020743D03*
D48*
X050105Y033668D03*
X049435Y033668D03*
X056071Y037093D03*
X056819Y037093D03*
D49*
X055190Y036868D03*
X055190Y036368D03*
X055190Y035868D03*
X055190Y037368D03*
X053250Y037368D03*
X053250Y036868D03*
X053250Y036368D03*
X053250Y035868D03*
D50*
X054220Y036598D03*
D51*
X054722Y040918D03*
X052518Y040918D03*
D52*
X052311Y038343D03*
X051129Y038343D03*
D53*
X056745Y039864D03*
X056745Y041872D03*
M02*
