<?xml version="1.0" encoding="UTF-8"?>
<svg xmlns="http://www.w3.org/2000/svg" xmlns:xlink="http://www.w3.org/1999/xlink" width="195pt" height="271pt" viewBox="0 0 195 271" version="1.1">
<g id="surface1">
<path style="fill:none;stroke-width:0.01;stroke-linecap:round;stroke-linejoin:miter;stroke:rgb(100%,49.803922%,45.098039%);stroke-opacity:1;stroke-miterlimit:10;" d="M 0.0000264587 8.249996 L 2.578748 8.249996 " transform="matrix(72,0,0,-72,5.021532,600.218437)"/>
<path style="fill:none;stroke-width:0.01;stroke-linecap:round;stroke-linejoin:miter;stroke:rgb(100%,49.803922%,45.098039%);stroke-opacity:1;stroke-miterlimit:10;" d="M 2.578748 8.249996 L 2.578748 4.667313 " transform="matrix(72,0,0,-72,5.021532,600.218437)"/>
<path style="fill:none;stroke-width:0.01;stroke-linecap:round;stroke-linejoin:miter;stroke:rgb(100%,49.803922%,45.098039%);stroke-opacity:1;stroke-miterlimit:10;" d="M 2.578748 4.667313 L 0.0000264587 4.667313 " transform="matrix(72,0,0,-72,5.021532,600.218437)"/>
<path style="fill:none;stroke-width:0.01;stroke-linecap:round;stroke-linejoin:miter;stroke:rgb(100%,49.803922%,45.098039%);stroke-opacity:1;stroke-miterlimit:10;" d="M 0.0000264587 4.667313 L 0.0000264587 8.249996 " transform="matrix(72,0,0,-72,5.021532,600.218437)"/>
<path style=" stroke:none;fill-rule:evenodd;fill:rgb(45.098039%,45.098039%,87.058824%);fill-opacity:1;" d="M 58.179688 18.265625 C 58.179688 17.304688 56.738281 17.304688 56.738281 18.265625 C 56.738281 19.222656 58.179688 19.222656 58.179688 18.265625 "/>
<path style=" stroke:none;fill-rule:evenodd;fill:rgb(45.098039%,45.098039%,87.058824%);fill-opacity:1;" d="M 68.8125 18.265625 C 68.8125 17.304688 67.375 17.304688 67.375 18.265625 C 67.375 19.222656 68.8125 19.222656 68.8125 18.265625 "/>
<path style=" stroke:none;fill-rule:evenodd;fill:rgb(45.098039%,45.098039%,87.058824%);fill-opacity:1;" d="M 61.09375 20.53125 C 61.09375 19.09375 58.933594 19.09375 58.933594 20.53125 C 58.933594 21.972656 61.09375 21.972656 61.09375 20.53125 "/>
<path style=" stroke:none;fill-rule:evenodd;fill:rgb(45.098039%,45.098039%,87.058824%);fill-opacity:1;" d="M 71.722656 20.53125 C 71.722656 19.09375 69.5625 19.09375 69.5625 20.53125 C 69.5625 21.972656 71.722656 21.972656 71.722656 20.53125 "/>
<path style=" stroke:none;fill-rule:evenodd;fill:rgb(45.098039%,45.098039%,87.058824%);fill-opacity:1;" d="M 30.011719 83.242188 C 30.011719 81.5625 27.492188 81.5625 27.492188 83.242188 C 27.492188 84.925781 30.011719 84.925781 30.011719 83.242188 "/>
<path style=" stroke:none;fill-rule:evenodd;fill:rgb(45.098039%,45.098039%,87.058824%);fill-opacity:1;" d="M 30.011719 89.027344 C 30.011719 87.34375 27.492188 87.34375 27.492188 89.027344 C 27.492188 90.707031 30.011719 90.707031 30.011719 89.027344 "/>
<path style=" stroke:none;fill-rule:evenodd;fill:rgb(45.098039%,45.098039%,87.058824%);fill-opacity:1;" d="M 30.011719 94.808594 C 30.011719 93.128906 27.492188 93.128906 27.492188 94.808594 C 27.492188 96.488281 30.011719 96.488281 30.011719 94.808594 "/>
<path style=" stroke:none;fill-rule:evenodd;fill:rgb(45.098039%,45.098039%,87.058824%);fill-opacity:1;" d="M 30.011719 100.589844 C 30.011719 98.910156 27.492188 98.910156 27.492188 100.589844 C 27.492188 102.269531 30.011719 102.269531 30.011719 100.589844 "/>
<path style=" stroke:none;fill-rule:evenodd;fill:rgb(45.098039%,45.098039%,87.058824%);fill-opacity:1;" d="M 35.109375 80.351562 C 35.109375 78.667969 32.589844 78.667969 32.589844 80.351562 C 32.589844 82.03125 35.109375 82.03125 35.109375 80.351562 "/>
<path style=" stroke:none;fill-rule:evenodd;fill:rgb(45.098039%,45.098039%,87.058824%);fill-opacity:1;" d="M 35.109375 86.132812 C 35.109375 84.453125 32.589844 84.453125 32.589844 86.132812 C 32.589844 87.8125 35.109375 87.8125 35.109375 86.132812 "/>
<path style=" stroke:none;fill-rule:evenodd;fill:rgb(45.098039%,45.098039%,87.058824%);fill-opacity:1;" d="M 35.109375 91.914062 C 35.109375 90.234375 32.589844 90.234375 32.589844 91.914062 C 32.589844 93.59375 35.109375 93.59375 35.109375 91.914062 "/>
<path style=" stroke:none;fill-rule:evenodd;fill:rgb(45.098039%,45.098039%,87.058824%);fill-opacity:1;" d="M 35.109375 97.703125 C 35.109375 96.023438 32.589844 96.023438 32.589844 97.703125 C 32.589844 99.382812 35.109375 99.382812 35.109375 97.703125 "/>
<path style=" stroke:none;fill-rule:evenodd;fill:rgb(45.098039%,45.098039%,87.058824%);fill-opacity:1;" d="M 48.746094 70.628906 C 48.746094 68.949219 46.226562 68.949219 46.226562 70.628906 C 46.226562 72.308594 48.746094 72.308594 48.746094 70.628906 "/>
<path style=" stroke:none;fill-rule:evenodd;fill:rgb(45.098039%,45.098039%,87.058824%);fill-opacity:1;" d="M 48.746094 77.859375 C 48.746094 76.179688 46.226562 76.179688 46.226562 77.859375 C 46.226562 79.539062 48.746094 79.539062 48.746094 77.859375 "/>
<path style=" stroke:none;fill-rule:evenodd;fill:rgb(45.098039%,45.098039%,87.058824%);fill-opacity:1;" d="M 48.746094 103.085938 C 48.746094 101.40625 46.226562 101.40625 46.226562 103.085938 C 46.226562 104.765625 48.746094 104.765625 48.746094 103.085938 "/>
<path style=" stroke:none;fill-rule:evenodd;fill:rgb(45.098039%,45.098039%,87.058824%);fill-opacity:1;" d="M 48.746094 110.308594 C 48.746094 108.628906 46.226562 108.628906 46.226562 110.308594 C 46.226562 111.988281 48.746094 111.988281 48.746094 110.308594 "/>
<path style=" stroke:none;fill-rule:evenodd;fill:rgb(45.098039%,45.098039%,87.058824%);fill-opacity:1;" d="M 15.75 198.457031 C 15.75 196.632812 13.011719 196.632812 13.011719 198.457031 C 13.011719 200.28125 15.75 200.28125 15.75 198.457031 "/>
<path style=" stroke:none;fill-rule:evenodd;fill:rgb(45.098039%,45.098039%,87.058824%);fill-opacity:1;" d="M 15.75 205.660156 C 15.75 203.835938 13.011719 203.835938 13.011719 205.660156 C 13.011719 207.484375 15.75 207.484375 15.75 205.660156 "/>
<path style=" stroke:none;fill-rule:evenodd;fill:rgb(45.098039%,45.098039%,87.058824%);fill-opacity:1;" d="M 22.949219 198.457031 C 22.949219 196.632812 20.214844 196.632812 20.214844 198.457031 C 20.214844 200.28125 22.949219 200.28125 22.949219 198.457031 "/>
<path style=" stroke:none;fill-rule:evenodd;fill:rgb(45.098039%,45.098039%,87.058824%);fill-opacity:1;" d="M 22.949219 205.660156 C 22.949219 203.835938 20.214844 203.835938 20.214844 205.660156 C 20.214844 207.484375 22.949219 207.484375 22.949219 205.660156 "/>
<path style=" stroke:none;fill-rule:evenodd;fill:rgb(45.098039%,45.098039%,87.058824%);fill-opacity:1;" d="M 72.628906 169.660156 C 72.628906 167.835938 69.894531 167.835938 69.894531 169.660156 C 69.894531 171.484375 72.628906 171.484375 72.628906 169.660156 "/>
<path style=" stroke:none;fill-rule:evenodd;fill:rgb(45.098039%,45.098039%,87.058824%);fill-opacity:1;" d="M 72.628906 176.859375 C 72.628906 175.035156 69.894531 175.035156 69.894531 176.859375 C 69.894531 178.683594 72.628906 178.683594 72.628906 176.859375 "/>
<path style=" stroke:none;fill-rule:evenodd;fill:rgb(45.098039%,45.098039%,87.058824%);fill-opacity:1;" d="M 72.628906 184.058594 C 72.628906 182.234375 69.894531 182.234375 69.894531 184.058594 C 69.894531 185.882812 72.628906 185.882812 72.628906 184.058594 "/>
<path style=" stroke:none;fill-rule:evenodd;fill:rgb(45.098039%,45.098039%,87.058824%);fill-opacity:1;" d="M 72.628906 191.257812 C 72.628906 189.433594 69.894531 189.433594 69.894531 191.257812 C 69.894531 193.082031 72.628906 193.082031 72.628906 191.257812 "/>
<path style=" stroke:none;fill-rule:evenodd;fill:rgb(45.098039%,45.098039%,87.058824%);fill-opacity:1;" d="M 72.628906 198.457031 C 72.628906 196.632812 69.894531 196.632812 69.894531 198.457031 C 69.894531 200.28125 72.628906 200.28125 72.628906 198.457031 "/>
<path style=" stroke:none;fill-rule:evenodd;fill:rgb(45.098039%,45.098039%,87.058824%);fill-opacity:1;" d="M 72.628906 205.660156 C 72.628906 203.835938 69.894531 203.835938 69.894531 205.660156 C 69.894531 207.484375 72.628906 207.484375 72.628906 205.660156 "/>
<path style=" stroke:none;fill-rule:evenodd;fill:rgb(45.098039%,45.098039%,87.058824%);fill-opacity:1;" d="M 72.628906 212.859375 C 72.628906 211.035156 69.894531 211.035156 69.894531 212.859375 C 69.894531 214.683594 72.628906 214.683594 72.628906 212.859375 "/>
<path style=" stroke:none;fill-rule:evenodd;fill:rgb(45.098039%,45.098039%,87.058824%);fill-opacity:1;" d="M 72.628906 220.058594 C 72.628906 218.234375 69.894531 218.234375 69.894531 220.058594 C 69.894531 221.882812 72.628906 221.882812 72.628906 220.058594 "/>
<path style=" stroke:none;fill-rule:evenodd;fill:rgb(45.098039%,45.098039%,87.058824%);fill-opacity:1;" d="M 93.871094 169.660156 C 93.871094 167.835938 91.132812 167.835938 91.132812 169.660156 C 91.132812 171.484375 93.871094 171.484375 93.871094 169.660156 "/>
<path style=" stroke:none;fill-rule:evenodd;fill:rgb(45.098039%,45.098039%,87.058824%);fill-opacity:1;" d="M 93.871094 176.859375 C 93.871094 175.035156 91.132812 175.035156 91.132812 176.859375 C 91.132812 178.683594 93.871094 178.683594 93.871094 176.859375 "/>
<path style=" stroke:none;fill-rule:evenodd;fill:rgb(45.098039%,45.098039%,87.058824%);fill-opacity:1;" d="M 93.871094 184.058594 C 93.871094 182.234375 91.132812 182.234375 91.132812 184.058594 C 91.132812 185.882812 93.871094 185.882812 93.871094 184.058594 "/>
<path style=" stroke:none;fill-rule:evenodd;fill:rgb(45.098039%,45.098039%,87.058824%);fill-opacity:1;" d="M 93.871094 191.257812 C 93.871094 189.433594 91.132812 189.433594 91.132812 191.257812 C 91.132812 193.082031 93.871094 193.082031 93.871094 191.257812 "/>
<path style=" stroke:none;fill-rule:evenodd;fill:rgb(45.098039%,45.098039%,87.058824%);fill-opacity:1;" d="M 93.871094 198.457031 C 93.871094 196.632812 91.132812 196.632812 91.132812 198.457031 C 91.132812 200.28125 93.871094 200.28125 93.871094 198.457031 "/>
<path style=" stroke:none;fill-rule:evenodd;fill:rgb(45.098039%,45.098039%,87.058824%);fill-opacity:1;" d="M 93.871094 205.660156 C 93.871094 203.835938 91.132812 203.835938 91.132812 205.660156 C 91.132812 207.484375 93.871094 207.484375 93.871094 205.660156 "/>
<path style=" stroke:none;fill-rule:evenodd;fill:rgb(45.098039%,45.098039%,87.058824%);fill-opacity:1;" d="M 93.871094 212.859375 C 93.871094 211.035156 91.132812 211.035156 91.132812 212.859375 C 91.132812 214.683594 93.871094 214.683594 93.871094 212.859375 "/>
<path style=" stroke:none;fill-rule:evenodd;fill:rgb(45.098039%,45.098039%,87.058824%);fill-opacity:1;" d="M 93.871094 220.058594 C 93.871094 218.234375 91.132812 218.234375 91.132812 220.058594 C 91.132812 221.882812 93.871094 221.882812 93.871094 220.058594 "/>
<path style=" stroke:none;fill-rule:evenodd;fill:rgb(45.098039%,45.098039%,87.058824%);fill-opacity:1;" d="M 94.230469 81.097656 C 94.230469 79.273438 91.492188 79.273438 91.492188 81.097656 C 91.492188 82.921875 94.230469 82.921875 94.230469 81.097656 "/>
<path style=" stroke:none;fill-rule:evenodd;fill:rgb(45.098039%,45.098039%,87.058824%);fill-opacity:1;" d="M 94.230469 95.5 C 94.230469 93.675781 91.492188 93.675781 91.492188 95.5 C 91.492188 97.324219 94.230469 97.324219 94.230469 95.5 "/>
<path style=" stroke:none;fill-rule:evenodd;fill:rgb(45.098039%,45.098039%,87.058824%);fill-opacity:1;" d="M 94.230469 109.898438 C 94.230469 108.074219 91.492188 108.074219 91.492188 109.898438 C 91.492188 111.722656 94.230469 111.722656 94.230469 109.898438 "/>
<path style=" stroke:none;fill-rule:evenodd;fill:rgb(45.098039%,45.098039%,87.058824%);fill-opacity:1;" d="M 95.308594 73.898438 C 95.308594 72.074219 92.574219 72.074219 92.574219 73.898438 C 92.574219 75.722656 95.308594 75.722656 95.308594 73.898438 "/>
<path style=" stroke:none;fill-rule:evenodd;fill:rgb(45.098039%,45.098039%,87.058824%);fill-opacity:1;" d="M 95.308594 88.296875 C 95.308594 86.472656 92.574219 86.472656 92.574219 88.296875 C 92.574219 90.121094 95.308594 90.121094 95.308594 88.296875 "/>
<path style=" stroke:none;fill-rule:evenodd;fill:rgb(45.098039%,45.098039%,87.058824%);fill-opacity:1;" d="M 95.308594 102.699219 C 95.308594 100.875 92.574219 100.875 92.574219 102.699219 C 92.574219 104.523438 95.308594 104.523438 95.308594 102.699219 "/>
<path style=" stroke:none;fill-rule:evenodd;fill:rgb(45.098039%,45.098039%,87.058824%);fill-opacity:1;" d="M 101.429688 73.898438 C 101.429688 72.074219 98.695312 72.074219 98.695312 73.898438 C 98.695312 75.722656 101.429688 75.722656 101.429688 73.898438 "/>
<path style=" stroke:none;fill-rule:evenodd;fill:rgb(45.098039%,45.098039%,87.058824%);fill-opacity:1;" d="M 101.429688 88.296875 C 101.429688 86.472656 98.695312 86.472656 98.695312 88.296875 C 98.695312 90.121094 101.429688 90.121094 101.429688 88.296875 "/>
<path style=" stroke:none;fill-rule:evenodd;fill:rgb(45.098039%,45.098039%,87.058824%);fill-opacity:1;" d="M 101.429688 102.699219 C 101.429688 100.875 98.695312 100.875 98.695312 102.699219 C 98.695312 104.523438 101.429688 104.523438 101.429688 102.699219 "/>
<path style=" stroke:none;fill-rule:evenodd;fill:rgb(45.098039%,45.098039%,87.058824%);fill-opacity:1;" d="M 102.507812 81.097656 C 102.507812 79.273438 99.773438 79.273438 99.773438 81.097656 C 99.773438 82.921875 102.507812 82.921875 102.507812 81.097656 "/>
<path style=" stroke:none;fill-rule:evenodd;fill:rgb(45.098039%,45.098039%,87.058824%);fill-opacity:1;" d="M 102.507812 95.5 C 102.507812 93.675781 99.773438 93.675781 99.773438 95.5 C 99.773438 97.324219 102.507812 97.324219 102.507812 95.5 "/>
<path style=" stroke:none;fill-rule:evenodd;fill:rgb(45.098039%,45.098039%,87.058824%);fill-opacity:1;" d="M 102.507812 109.898438 C 102.507812 108.074219 99.773438 108.074219 99.773438 109.898438 C 99.773438 111.722656 102.507812 111.722656 102.507812 109.898438 "/>
<path style=" stroke:none;fill-rule:evenodd;fill:rgb(45.098039%,45.098039%,87.058824%);fill-opacity:1;" d="M 111.507812 73.898438 C 111.507812 72.074219 108.773438 72.074219 108.773438 73.898438 C 108.773438 75.722656 111.507812 75.722656 111.507812 73.898438 "/>
<path style=" stroke:none;fill-rule:evenodd;fill:rgb(45.098039%,45.098039%,87.058824%);fill-opacity:1;" d="M 111.507812 88.296875 C 111.507812 86.472656 108.773438 86.472656 108.773438 88.296875 C 108.773438 90.121094 111.507812 90.121094 111.507812 88.296875 "/>
<path style=" stroke:none;fill-rule:evenodd;fill:rgb(45.098039%,45.098039%,87.058824%);fill-opacity:1;" d="M 111.507812 102.699219 C 111.507812 100.875 108.773438 100.875 108.773438 102.699219 C 108.773438 104.523438 111.507812 104.523438 111.507812 102.699219 "/>
<path style=" stroke:none;fill-rule:evenodd;fill:rgb(45.098039%,45.098039%,87.058824%);fill-opacity:1;" d="M 112.589844 81.097656 C 112.589844 79.273438 109.855469 79.273438 109.855469 81.097656 C 109.855469 82.921875 112.589844 82.921875 112.589844 81.097656 "/>
<path style=" stroke:none;fill-rule:evenodd;fill:rgb(45.098039%,45.098039%,87.058824%);fill-opacity:1;" d="M 112.589844 95.5 C 112.589844 93.675781 109.855469 93.675781 109.855469 95.5 C 109.855469 97.324219 112.589844 97.324219 112.589844 95.5 "/>
<path style=" stroke:none;fill-rule:evenodd;fill:rgb(45.098039%,45.098039%,87.058824%);fill-opacity:1;" d="M 112.589844 109.898438 C 112.589844 108.074219 109.855469 108.074219 109.855469 109.898438 C 109.855469 111.722656 112.589844 111.722656 112.589844 109.898438 "/>
<path style=" stroke:none;fill-rule:evenodd;fill:rgb(45.098039%,45.098039%,87.058824%);fill-opacity:1;" d="M 118.710938 81.097656 C 118.710938 79.273438 115.972656 79.273438 115.972656 81.097656 C 115.972656 82.921875 118.710938 82.921875 118.710938 81.097656 "/>
<path style=" stroke:none;fill-rule:evenodd;fill:rgb(45.098039%,45.098039%,87.058824%);fill-opacity:1;" d="M 118.710938 95.5 C 118.710938 93.675781 115.972656 93.675781 115.972656 95.5 C 115.972656 97.324219 118.710938 97.324219 118.710938 95.5 "/>
<path style=" stroke:none;fill-rule:evenodd;fill:rgb(45.098039%,45.098039%,87.058824%);fill-opacity:1;" d="M 118.710938 109.898438 C 118.710938 108.074219 115.972656 108.074219 115.972656 109.898438 C 115.972656 111.722656 118.710938 111.722656 118.710938 109.898438 "/>
<path style=" stroke:none;fill-rule:evenodd;fill:rgb(45.098039%,45.098039%,87.058824%);fill-opacity:1;" d="M 119.789062 73.898438 C 119.789062 72.074219 117.054688 72.074219 117.054688 73.898438 C 117.054688 75.722656 119.789062 75.722656 119.789062 73.898438 "/>
<path style=" stroke:none;fill-rule:evenodd;fill:rgb(45.098039%,45.098039%,87.058824%);fill-opacity:1;" d="M 119.789062 88.296875 C 119.789062 86.472656 117.054688 86.472656 117.054688 88.296875 C 117.054688 90.121094 119.789062 90.121094 119.789062 88.296875 "/>
<path style=" stroke:none;fill-rule:evenodd;fill:rgb(45.098039%,45.098039%,87.058824%);fill-opacity:1;" d="M 119.789062 102.699219 C 119.789062 100.875 117.054688 100.875 117.054688 102.699219 C 117.054688 104.523438 119.789062 104.523438 119.789062 102.699219 "/>
<path style=" stroke:none;fill-rule:evenodd;fill:rgb(45.098039%,45.098039%,87.058824%);fill-opacity:1;" d="M 143.550781 198.457031 C 143.550781 196.632812 140.8125 196.632812 140.8125 198.457031 C 140.8125 200.28125 143.550781 200.28125 143.550781 198.457031 "/>
<path style=" stroke:none;fill-rule:evenodd;fill:rgb(45.098039%,45.098039%,87.058824%);fill-opacity:1;" d="M 143.550781 205.660156 C 143.550781 203.835938 140.8125 203.835938 140.8125 205.660156 C 140.8125 207.484375 143.550781 207.484375 143.550781 205.660156 "/>
<path style=" stroke:none;fill-rule:evenodd;fill:rgb(45.098039%,45.098039%,87.058824%);fill-opacity:1;" d="M 150.75 198.457031 C 150.75 196.632812 148.011719 196.632812 148.011719 198.457031 C 148.011719 200.28125 150.75 200.28125 150.75 198.457031 "/>
<path style=" stroke:none;fill-rule:evenodd;fill:rgb(45.098039%,45.098039%,87.058824%);fill-opacity:1;" d="M 150.75 205.660156 C 150.75 203.835938 148.011719 203.835938 148.011719 205.660156 C 148.011719 207.484375 150.75 207.484375 150.75 205.660156 "/>
<path style=" stroke:none;fill-rule:evenodd;fill:rgb(45.098039%,45.098039%,87.058824%);fill-opacity:1;" d="M 123.964844 22.058594 C 123.964844 20.1875 121.15625 20.1875 121.15625 22.058594 C 121.15625 23.929688 123.964844 23.929688 123.964844 22.058594 "/>
<path style=" stroke:none;fill-rule:evenodd;fill:rgb(45.098039%,45.098039%,87.058824%);fill-opacity:1;" d="M 125.527344 16.390625 C 125.527344 14.519531 122.71875 14.519531 122.71875 16.390625 C 122.71875 18.265625 125.527344 18.265625 125.527344 16.390625 "/>
<path style=" stroke:none;fill-rule:evenodd;fill:rgb(45.098039%,45.098039%,87.058824%);fill-opacity:1;" d="M 125.527344 27.726562 C 125.527344 25.851562 122.71875 25.851562 122.71875 27.726562 C 122.71875 29.597656 125.527344 29.597656 125.527344 27.726562 "/>
<path style=" stroke:none;fill-rule:evenodd;fill:rgb(45.098039%,45.098039%,87.058824%);fill-opacity:1;" d="M 129.777344 12.136719 C 129.777344 10.265625 126.96875 10.265625 126.96875 12.136719 C 126.96875 14.007812 129.777344 14.007812 129.777344 12.136719 "/>
<path style=" stroke:none;fill-rule:evenodd;fill:rgb(45.098039%,45.098039%,87.058824%);fill-opacity:1;" d="M 129.777344 31.980469 C 129.777344 30.109375 126.96875 30.109375 126.96875 31.980469 C 126.96875 33.851562 129.777344 33.851562 129.777344 31.980469 "/>
<path style=" stroke:none;fill-rule:evenodd;fill:rgb(45.098039%,45.098039%,87.058824%);fill-opacity:1;" d="M 135.304688 10.71875 C 135.304688 8.847656 132.496094 8.847656 132.496094 10.71875 C 132.496094 12.589844 135.304688 12.589844 135.304688 10.71875 "/>
<path style=" stroke:none;fill-rule:evenodd;fill:rgb(45.098039%,45.098039%,87.058824%);fill-opacity:1;" d="M 135.304688 33.398438 C 135.304688 31.527344 132.496094 31.527344 132.496094 33.398438 C 132.496094 35.269531 135.304688 35.269531 135.304688 33.398438 "/>
<path style=" stroke:none;fill-rule:evenodd;fill:rgb(45.098039%,45.098039%,87.058824%);fill-opacity:1;" d="M 140.835938 12.136719 C 140.835938 10.265625 138.027344 10.265625 138.027344 12.136719 C 138.027344 14.007812 140.835938 14.007812 140.835938 12.136719 "/>
<path style=" stroke:none;fill-rule:evenodd;fill:rgb(45.098039%,45.098039%,87.058824%);fill-opacity:1;" d="M 140.835938 31.980469 C 140.835938 30.109375 138.027344 30.109375 138.027344 31.980469 C 138.027344 33.851562 140.835938 33.851562 140.835938 31.980469 "/>
<path style=" stroke:none;fill-rule:evenodd;fill:rgb(45.098039%,45.098039%,87.058824%);fill-opacity:1;" d="M 145.082031 16.390625 C 145.082031 14.519531 142.273438 14.519531 142.273438 16.390625 C 142.273438 18.265625 145.082031 18.265625 145.082031 16.390625 "/>
<path style=" stroke:none;fill-rule:evenodd;fill:rgb(45.098039%,45.098039%,87.058824%);fill-opacity:1;" d="M 145.082031 27.726562 C 145.082031 25.851562 142.273438 25.851562 142.273438 27.726562 C 142.273438 29.597656 145.082031 29.597656 145.082031 27.726562 "/>
<path style=" stroke:none;fill-rule:evenodd;fill:rgb(45.098039%,45.098039%,87.058824%);fill-opacity:1;" d="M 146.644531 22.058594 C 146.644531 20.1875 143.835938 20.1875 143.835938 22.058594 C 143.835938 23.929688 146.644531 23.929688 146.644531 22.058594 "/>
<path style=" stroke:none;fill-rule:evenodd;fill:rgb(45.098039%,45.098039%,87.058824%);fill-opacity:1;" d="M 66.027344 20.820312 C 66.027344 18.46875 62.5 18.46875 62.5 20.820312 C 62.5 23.171875 66.027344 23.171875 66.027344 20.820312 "/>
<path style=" stroke:none;fill-rule:evenodd;fill:rgb(45.098039%,45.098039%,87.058824%);fill-opacity:1;" d="M 76.660156 20.820312 C 76.660156 18.46875 73.132812 18.46875 73.132812 20.820312 C 73.132812 23.171875 76.660156 23.171875 76.660156 20.820312 "/>
<path style=" stroke:none;fill-rule:evenodd;fill:rgb(45.098039%,45.098039%,87.058824%);fill-opacity:1;" d="M 23.417969 72.328125 C 23.417969 69.878906 19.746094 69.878906 19.746094 72.328125 C 19.746094 74.777344 23.417969 74.777344 23.417969 72.328125 "/>
<path style=" stroke:none;fill-rule:evenodd;fill:rgb(45.098039%,45.098039%,87.058824%);fill-opacity:1;" d="M 23.417969 108.609375 C 23.417969 106.160156 19.746094 106.160156 19.746094 108.609375 C 19.746094 111.058594 23.417969 111.058594 23.417969 108.609375 "/>
<path style=" stroke:none;fill-rule:evenodd;fill:rgb(45.098039%,45.098039%,87.058824%);fill-opacity:1;" d="M 19.355469 53.378906 C 19.355469 50.355469 14.820312 50.355469 14.820312 53.378906 C 14.820312 56.402344 19.355469 56.402344 19.355469 53.378906 "/>
<path style=" stroke:none;fill-rule:evenodd;fill:rgb(45.098039%,45.098039%,87.058824%);fill-opacity:1;" d="M 33.527344 53.378906 C 33.527344 50.355469 28.992188 50.355469 28.992188 53.378906 C 28.992188 56.402344 33.527344 56.402344 33.527344 53.378906 "/>
<path style=" stroke:none;fill-rule:evenodd;fill:rgb(45.098039%,45.098039%,87.058824%);fill-opacity:1;" d="M 47.703125 53.378906 C 47.703125 50.355469 43.167969 50.355469 43.167969 53.378906 C 43.167969 56.402344 47.703125 56.402344 47.703125 53.378906 "/>
<path style=" stroke:none;fill-rule:evenodd;fill:rgb(45.098039%,45.098039%,87.058824%);fill-opacity:1;" d="M 61.871094 53.378906 C 61.871094 50.355469 57.335938 50.355469 57.335938 53.378906 C 57.335938 56.402344 61.871094 56.402344 61.871094 53.378906 "/>
<path style=" stroke:none;fill-rule:evenodd;fill:rgb(45.098039%,45.098039%,87.058824%);fill-opacity:1;" d="M 76.050781 53.378906 C 76.050781 50.355469 71.511719 50.355469 71.511719 53.378906 C 71.511719 56.402344 76.050781 56.402344 76.050781 53.378906 "/>
<path style=" stroke:none;fill-rule:evenodd;fill:rgb(45.098039%,45.098039%,87.058824%);fill-opacity:1;" d="M 90.226562 53.378906 C 90.226562 50.355469 85.691406 50.355469 85.691406 53.378906 C 85.691406 56.402344 90.226562 56.402344 90.226562 53.378906 "/>
<path style=" stroke:none;fill-rule:evenodd;fill:rgb(45.098039%,45.098039%,87.058824%);fill-opacity:1;" d="M 104.394531 53.378906 C 104.394531 50.355469 99.859375 50.355469 99.859375 53.378906 C 99.859375 56.402344 104.394531 56.402344 104.394531 53.378906 "/>
<path style=" stroke:none;fill-rule:evenodd;fill:rgb(45.098039%,45.098039%,87.058824%);fill-opacity:1;" d="M 118.574219 53.378906 C 118.574219 50.355469 114.035156 50.355469 114.035156 53.378906 C 114.035156 56.402344 118.574219 56.402344 118.574219 53.378906 "/>
<path style=" stroke:none;fill-rule:evenodd;fill:rgb(45.098039%,45.098039%,87.058824%);fill-opacity:1;" d="M 132.742188 53.378906 C 132.742188 50.355469 128.207031 50.355469 128.207031 53.378906 C 128.207031 56.402344 132.742188 56.402344 132.742188 53.378906 "/>
<path style=" stroke:none;fill-rule:evenodd;fill:rgb(45.098039%,45.098039%,87.058824%);fill-opacity:1;" d="M 64.386719 33.21875 C 64.386719 29.425781 58.699219 29.425781 58.699219 33.21875 C 58.699219 37.011719 64.386719 37.011719 64.386719 33.21875 "/>
<path style=" stroke:none;fill-rule:evenodd;fill:rgb(45.098039%,45.098039%,87.058824%);fill-opacity:1;" d="M 64.558594 15.433594 C 64.558594 11.640625 58.871094 11.640625 58.871094 15.433594 C 58.871094 19.226562 64.558594 19.226562 64.558594 15.433594 "/>
<path style=" stroke:none;fill-rule:evenodd;fill:rgb(45.098039%,45.098039%,87.058824%);fill-opacity:1;" d="M 75.183594 15.433594 C 75.183594 11.640625 69.496094 11.640625 69.496094 15.433594 C 69.496094 19.226562 75.183594 19.226562 75.183594 15.433594 "/>
<path style=" stroke:none;fill-rule:evenodd;fill:rgb(45.098039%,45.098039%,87.058824%);fill-opacity:1;" d="M 136.746094 22.058594 C 136.746094 18.265625 131.058594 18.265625 131.058594 22.058594 C 131.058594 25.851562 136.746094 25.851562 136.746094 22.058594 "/>
<path style=" stroke:none;fill-rule:evenodd;fill:rgb(45.098039%,45.098039%,87.058824%);fill-opacity:1;" d="M 164.824219 18.820312 C 164.824219 14.546875 158.417969 14.546875 158.417969 18.820312 C 158.417969 23.089844 164.824219 23.089844 164.824219 18.820312 "/>
<path style=" stroke:none;fill-rule:evenodd;fill:rgb(45.098039%,45.098039%,87.058824%);fill-opacity:1;" d="M 164.824219 42.21875 C 164.824219 37.945312 158.417969 37.945312 158.417969 42.21875 C 158.417969 46.492188 164.824219 46.492188 164.824219 42.21875 "/>
<path style=" stroke:none;fill-rule:evenodd;fill:rgb(45.098039%,45.098039%,87.058824%);fill-opacity:1;" d="M 164.824219 65.617188 C 164.824219 61.347656 158.417969 61.347656 158.417969 65.617188 C 158.417969 69.890625 164.824219 69.890625 164.824219 65.617188 "/>
<path style=" stroke:none;fill-rule:evenodd;fill:rgb(45.098039%,45.098039%,87.058824%);fill-opacity:1;" d="M 164.824219 89.019531 C 164.824219 84.746094 158.417969 84.746094 158.417969 89.019531 C 158.417969 93.289062 164.824219 93.289062 164.824219 89.019531 "/>
<path style=" stroke:none;fill-rule:evenodd;fill:rgb(45.098039%,45.098039%,87.058824%);fill-opacity:1;" d="M 164.824219 112.417969 C 164.824219 108.144531 158.417969 108.144531 158.417969 112.417969 C 158.417969 116.691406 164.824219 116.691406 164.824219 112.417969 "/>
<path style=" stroke:none;fill-rule:evenodd;fill:rgb(45.098039%,45.098039%,87.058824%);fill-opacity:1;" d="M 164.824219 135.820312 C 164.824219 131.546875 158.417969 131.546875 158.417969 135.820312 C 158.417969 140.089844 164.824219 140.089844 164.824219 135.820312 "/>
<path style=" stroke:none;fill-rule:evenodd;fill:rgb(45.098039%,45.098039%,87.058824%);fill-opacity:1;" d="M 164.824219 159.21875 C 164.824219 154.945312 158.417969 154.945312 158.417969 159.21875 C 158.417969 163.492188 164.824219 163.492188 164.824219 159.21875 "/>
<path style=" stroke:none;fill-rule:evenodd;fill:rgb(45.098039%,45.098039%,87.058824%);fill-opacity:1;" d="M 164.824219 182.617188 C 164.824219 178.347656 158.417969 178.347656 158.417969 182.617188 C 158.417969 186.890625 164.824219 186.890625 164.824219 182.617188 "/>
<path style=" stroke:none;fill-rule:evenodd;fill:rgb(45.098039%,45.098039%,87.058824%);fill-opacity:1;" d="M 164.824219 206.019531 C 164.824219 201.746094 158.417969 201.746094 158.417969 206.019531 C 158.417969 210.289062 164.824219 210.289062 164.824219 206.019531 "/>
<path style=" stroke:none;fill-rule:evenodd;fill:rgb(45.098039%,45.098039%,87.058824%);fill-opacity:1;" d="M 164.824219 229.417969 C 164.824219 225.144531 158.417969 225.144531 158.417969 229.417969 C 158.417969 233.691406 164.824219 233.691406 164.824219 229.417969 "/>
<path style=" stroke:none;fill-rule:evenodd;fill:rgb(45.098039%,45.098039%,87.058824%);fill-opacity:1;" d="M 164.824219 252.820312 C 164.824219 248.546875 158.417969 248.546875 158.417969 252.820312 C 158.417969 257.089844 164.824219 257.089844 164.824219 252.820312 "/>
<path style=" stroke:none;fill-rule:evenodd;fill:rgb(45.098039%,45.098039%,87.058824%);fill-opacity:1;" d="M 34.683594 71.761719 C 34.683594 67.246094 27.917969 67.246094 27.917969 71.761719 C 27.917969 76.273438 34.683594 76.273438 34.683594 71.761719 "/>
<path style=" stroke:none;fill-rule:evenodd;fill:rgb(45.098039%,45.098039%,87.058824%);fill-opacity:1;" d="M 34.683594 109.179688 C 34.683594 104.667969 27.917969 104.667969 27.917969 109.179688 C 27.917969 113.691406 34.683594 113.691406 34.683594 109.179688 "/>
<path style=" stroke:none;fill-rule:evenodd;fill:rgb(45.098039%,45.098039%,87.058824%);fill-opacity:1;" d="M 28.671875 26.378906 C 28.671875 17.402344 15.210938 17.402344 15.210938 26.378906 C 15.210938 35.355469 28.671875 35.355469 28.671875 26.378906 "/>
<path style=" stroke:none;fill-rule:evenodd;fill:rgb(45.098039%,45.098039%,87.058824%);fill-opacity:1;" d="M 49.085938 26.378906 C 49.085938 17.402344 35.621094 17.402344 35.621094 26.378906 C 35.621094 35.355469 49.085938 35.355469 49.085938 26.378906 "/>
</g>
</svg>
