<?xml version="1.0" encoding="UTF-8"?>
<svg xmlns="http://www.w3.org/2000/svg" xmlns:xlink="http://www.w3.org/1999/xlink" width="195pt" height="271pt" viewBox="0 0 195 271" version="1.1">
<g id="surface1">
<path style="fill:none;stroke-width:0.01;stroke-linecap:round;stroke-linejoin:miter;stroke:rgb(45.882353%,94.901961%,40.392157%);stroke-opacity:1;stroke-miterlimit:10;" d="M 0.0000264587 8.249996 L 2.578748 8.249996 " transform="matrix(72,0,0,-72,5.021532,600.218437)"/>
<path style="fill:none;stroke-width:0.01;stroke-linecap:round;stroke-linejoin:miter;stroke:rgb(45.882353%,94.901961%,40.392157%);stroke-opacity:1;stroke-miterlimit:10;" d="M 2.578748 8.249996 L 2.578748 4.667313 " transform="matrix(72,0,0,-72,5.021532,600.218437)"/>
<path style="fill:none;stroke-width:0.01;stroke-linecap:round;stroke-linejoin:miter;stroke:rgb(45.882353%,94.901961%,40.392157%);stroke-opacity:1;stroke-miterlimit:10;" d="M 2.578748 4.667313 L 0.0000264587 4.667313 " transform="matrix(72,0,0,-72,5.021532,600.218437)"/>
<path style="fill:none;stroke-width:0.01;stroke-linecap:round;stroke-linejoin:miter;stroke:rgb(45.882353%,94.901961%,40.392157%);stroke-opacity:1;stroke-miterlimit:10;" d="M 0.0000264587 4.667313 L 0.0000264587 8.249996 " transform="matrix(72,0,0,-72,5.021532,600.218437)"/>
<path style=" stroke:none;fill-rule:evenodd;fill:rgb(75.686275%,0%,87.843137%);fill-opacity:1;" d="M 68.886719 167.28125 L 68.886719 172.035156 L 73.636719 172.035156 L 73.636719 167.28125 Z M 68.886719 167.28125 "/>
<path style=" stroke:none;fill-rule:evenodd;fill:rgb(75.686275%,0%,87.843137%);fill-opacity:1;" d="M 90.125 167.28125 L 90.125 172.035156 L 94.878906 172.035156 L 94.878906 167.28125 Z M 90.125 167.28125 "/>
<path style=" stroke:none;fill-rule:evenodd;fill:rgb(75.686275%,0%,87.843137%);fill-opacity:1;" d="M 73.636719 176.859375 C 73.636719 173.691406 68.886719 173.691406 68.886719 176.859375 C 68.886719 180.027344 73.636719 180.027344 73.636719 176.859375 "/>
<path style=" stroke:none;fill-rule:evenodd;fill:rgb(75.686275%,0%,87.843137%);fill-opacity:1;" d="M 94.878906 176.859375 C 94.878906 173.691406 90.125 173.691406 90.125 176.859375 C 90.125 180.027344 94.878906 180.027344 94.878906 176.859375 "/>
<path style=" stroke:none;fill-rule:evenodd;fill:rgb(75.686275%,0%,87.843137%);fill-opacity:1;" d="M 73.636719 184.058594 C 73.636719 180.890625 68.886719 180.890625 68.886719 184.058594 C 68.886719 187.226562 73.636719 187.226562 73.636719 184.058594 "/>
<path style=" stroke:none;fill-rule:evenodd;fill:rgb(75.686275%,0%,87.843137%);fill-opacity:1;" d="M 73.636719 191.257812 C 73.636719 188.089844 68.886719 188.089844 68.886719 191.257812 C 68.886719 194.425781 73.636719 194.425781 73.636719 191.257812 "/>
<path style=" stroke:none;fill-rule:evenodd;fill:rgb(75.686275%,0%,87.843137%);fill-opacity:1;" d="M 73.636719 198.457031 C 73.636719 195.289062 68.886719 195.289062 68.886719 198.457031 C 68.886719 201.625 73.636719 201.625 73.636719 198.457031 "/>
<path style=" stroke:none;fill-rule:evenodd;fill:rgb(75.686275%,0%,87.843137%);fill-opacity:1;" d="M 73.636719 205.660156 C 73.636719 202.492188 68.886719 202.492188 68.886719 205.660156 C 68.886719 208.828125 73.636719 208.828125 73.636719 205.660156 "/>
<path style=" stroke:none;fill-rule:evenodd;fill:rgb(75.686275%,0%,87.843137%);fill-opacity:1;" d="M 73.636719 212.859375 C 73.636719 209.691406 68.886719 209.691406 68.886719 212.859375 C 68.886719 216.027344 73.636719 216.027344 73.636719 212.859375 "/>
<path style=" stroke:none;fill-rule:evenodd;fill:rgb(75.686275%,0%,87.843137%);fill-opacity:1;" d="M 73.636719 220.058594 C 73.636719 216.890625 68.886719 216.890625 68.886719 220.058594 C 68.886719 223.226562 73.636719 223.226562 73.636719 220.058594 "/>
<path style=" stroke:none;fill-rule:evenodd;fill:rgb(75.686275%,0%,87.843137%);fill-opacity:1;" d="M 94.878906 184.058594 C 94.878906 180.890625 90.125 180.890625 90.125 184.058594 C 90.125 187.226562 94.878906 187.226562 94.878906 184.058594 "/>
<path style=" stroke:none;fill-rule:evenodd;fill:rgb(75.686275%,0%,87.843137%);fill-opacity:1;" d="M 94.878906 191.257812 C 94.878906 188.089844 90.125 188.089844 90.125 191.257812 C 90.125 194.425781 94.878906 194.425781 94.878906 191.257812 "/>
<path style=" stroke:none;fill-rule:evenodd;fill:rgb(75.686275%,0%,87.843137%);fill-opacity:1;" d="M 94.878906 198.457031 C 94.878906 195.289062 90.125 195.289062 90.125 198.457031 C 90.125 201.625 94.878906 201.625 94.878906 198.457031 "/>
<path style=" stroke:none;fill-rule:evenodd;fill:rgb(75.686275%,0%,87.843137%);fill-opacity:1;" d="M 94.878906 205.660156 C 94.878906 202.492188 90.125 202.492188 90.125 205.660156 C 90.125 208.828125 94.878906 208.828125 94.878906 205.660156 "/>
<path style=" stroke:none;fill-rule:evenodd;fill:rgb(75.686275%,0%,87.843137%);fill-opacity:1;" d="M 94.878906 212.859375 C 94.878906 209.691406 90.125 209.691406 90.125 212.859375 C 90.125 216.027344 94.878906 216.027344 94.878906 212.859375 "/>
<path style=" stroke:none;fill-rule:evenodd;fill:rgb(75.686275%,0%,87.843137%);fill-opacity:1;" d="M 94.878906 220.058594 C 94.878906 216.890625 90.125 216.890625 90.125 220.058594 C 90.125 223.226562 94.878906 223.226562 94.878906 220.058594 "/>
<path style=" stroke:none;fill-rule:evenodd;fill:rgb(75.686275%,0%,87.843137%);fill-opacity:1;" d="M 12.003906 196.082031 L 12.003906 200.835938 L 16.757812 200.835938 L 16.757812 196.082031 Z M 12.003906 196.082031 "/>
<path style=" stroke:none;fill-rule:evenodd;fill:rgb(75.686275%,0%,87.843137%);fill-opacity:1;" d="M 16.757812 205.660156 C 16.757812 202.492188 12.003906 202.492188 12.003906 205.660156 C 12.003906 208.828125 16.757812 208.828125 16.757812 205.660156 "/>
<path style=" stroke:none;fill-rule:evenodd;fill:rgb(75.686275%,0%,87.843137%);fill-opacity:1;" d="M 23.957031 205.660156 C 23.957031 202.492188 19.207031 202.492188 19.207031 205.660156 C 19.207031 208.828125 23.957031 208.828125 23.957031 205.660156 "/>
<path style=" stroke:none;fill-rule:evenodd;fill:rgb(75.686275%,0%,87.843137%);fill-opacity:1;" d="M 23.957031 198.457031 C 23.957031 195.289062 19.207031 195.289062 19.207031 198.457031 C 19.207031 201.625 23.957031 201.625 23.957031 198.457031 "/>
<path style=" stroke:none;fill-rule:evenodd;fill:rgb(75.686275%,0%,87.843137%);fill-opacity:1;" d="M 139.804688 196.082031 L 139.804688 200.835938 L 144.558594 200.835938 L 144.558594 196.082031 Z M 139.804688 196.082031 "/>
<path style=" stroke:none;fill-rule:evenodd;fill:rgb(75.686275%,0%,87.843137%);fill-opacity:1;" d="M 144.558594 205.660156 C 144.558594 202.492188 139.804688 202.492188 139.804688 205.660156 C 139.804688 208.828125 144.558594 208.828125 144.558594 205.660156 "/>
<path style=" stroke:none;fill-rule:evenodd;fill:rgb(75.686275%,0%,87.843137%);fill-opacity:1;" d="M 151.757812 205.660156 C 151.757812 202.492188 147.003906 202.492188 147.003906 205.660156 C 147.003906 208.828125 151.757812 208.828125 151.757812 205.660156 "/>
<path style=" stroke:none;fill-rule:evenodd;fill:rgb(75.686275%,0%,87.843137%);fill-opacity:1;" d="M 151.757812 198.457031 C 151.757812 195.289062 147.003906 195.289062 147.003906 198.457031 C 147.003906 201.625 151.757812 201.625 151.757812 198.457031 "/>
<path style=" stroke:none;fill-rule:evenodd;fill:rgb(75.686275%,0%,87.843137%);fill-opacity:1;" d="M 165.59375 206.019531 C 165.59375 200.722656 157.652344 200.722656 157.652344 206.019531 C 157.652344 211.3125 165.59375 211.3125 165.59375 206.019531 "/>
<path style=" stroke:none;fill-rule:evenodd;fill:rgb(75.686275%,0%,87.843137%);fill-opacity:1;" d="M 165.59375 159.21875 C 165.59375 153.925781 157.652344 153.925781 157.652344 159.21875 C 157.652344 164.511719 165.59375 164.511719 165.59375 159.21875 "/>
<path style=" stroke:none;fill-rule:evenodd;fill:rgb(75.686275%,0%,87.843137%);fill-opacity:1;" d="M 165.59375 182.617188 C 165.59375 177.324219 157.652344 177.324219 157.652344 182.617188 C 157.652344 187.914062 165.59375 187.914062 165.59375 182.617188 "/>
<path style=" stroke:none;fill-rule:evenodd;fill:rgb(75.686275%,0%,87.843137%);fill-opacity:1;" d="M 165.59375 252.820312 C 165.59375 247.523438 157.652344 247.523438 157.652344 252.820312 C 157.652344 258.113281 165.59375 258.113281 165.59375 252.820312 "/>
<path style=" stroke:none;fill-rule:evenodd;fill:rgb(75.686275%,0%,87.843137%);fill-opacity:1;" d="M 165.59375 229.417969 C 165.59375 224.125 157.652344 224.125 157.652344 229.417969 C 157.652344 234.710938 165.59375 234.710938 165.59375 229.417969 "/>
<path style=" stroke:none;fill-rule:evenodd;fill:rgb(75.686275%,0%,87.843137%);fill-opacity:1;" d="M 112.515625 73.898438 C 112.515625 70.730469 107.765625 70.730469 107.765625 73.898438 C 107.765625 77.066406 112.515625 77.066406 112.515625 73.898438 "/>
<path style=" stroke:none;fill-rule:evenodd;fill:rgb(75.686275%,0%,87.843137%);fill-opacity:1;" d="M 120.796875 73.898438 C 120.796875 70.730469 116.046875 70.730469 116.046875 73.898438 C 116.046875 77.066406 120.796875 77.066406 120.796875 73.898438 "/>
<path style=" stroke:none;fill-rule:evenodd;fill:rgb(75.686275%,0%,87.843137%);fill-opacity:1;" d="M 119.71875 81.097656 C 119.71875 77.929688 114.964844 77.929688 114.964844 81.097656 C 114.964844 84.265625 119.71875 84.265625 119.71875 81.097656 "/>
<path style=" stroke:none;fill-rule:evenodd;fill:rgb(75.686275%,0%,87.843137%);fill-opacity:1;" d="M 113.597656 81.097656 C 113.597656 77.929688 108.84375 77.929688 108.84375 81.097656 C 108.84375 84.265625 113.597656 84.265625 113.597656 81.097656 "/>
<path style=" stroke:none;fill-rule:evenodd;fill:rgb(75.686275%,0%,87.843137%);fill-opacity:1;" d="M 96.316406 73.898438 C 96.316406 70.730469 91.566406 70.730469 91.566406 73.898438 C 91.566406 77.066406 96.316406 77.066406 96.316406 73.898438 "/>
<path style=" stroke:none;fill-rule:evenodd;fill:rgb(75.686275%,0%,87.843137%);fill-opacity:1;" d="M 95.238281 81.097656 C 95.238281 77.929688 90.484375 77.929688 90.484375 81.097656 C 90.484375 84.265625 95.238281 84.265625 95.238281 81.097656 "/>
<path style=" stroke:none;fill-rule:evenodd;fill:rgb(75.686275%,0%,87.843137%);fill-opacity:1;" d="M 102.4375 73.898438 C 102.4375 70.730469 97.683594 70.730469 97.683594 73.898438 C 97.683594 77.066406 102.4375 77.066406 102.4375 73.898438 "/>
<path style=" stroke:none;fill-rule:evenodd;fill:rgb(75.686275%,0%,87.843137%);fill-opacity:1;" d="M 103.515625 81.097656 C 103.515625 77.929688 98.765625 77.929688 98.765625 81.097656 C 98.765625 84.265625 103.515625 84.265625 103.515625 81.097656 "/>
<path style=" stroke:none;fill-rule:evenodd;fill:rgb(75.686275%,0%,87.843137%);fill-opacity:1;" d="M 112.515625 88.296875 C 112.515625 85.128906 107.765625 85.128906 107.765625 88.296875 C 107.765625 91.464844 112.515625 91.464844 112.515625 88.296875 "/>
<path style=" stroke:none;fill-rule:evenodd;fill:rgb(75.686275%,0%,87.843137%);fill-opacity:1;" d="M 113.597656 95.5 C 113.597656 92.332031 108.84375 92.332031 108.84375 95.5 C 108.84375 98.667969 113.597656 98.667969 113.597656 95.5 "/>
<path style=" stroke:none;fill-rule:evenodd;fill:rgb(75.686275%,0%,87.843137%);fill-opacity:1;" d="M 112.515625 102.699219 C 112.515625 99.53125 107.765625 99.53125 107.765625 102.699219 C 107.765625 105.867188 112.515625 105.867188 112.515625 102.699219 "/>
<path style=" stroke:none;fill-rule:evenodd;fill:rgb(75.686275%,0%,87.843137%);fill-opacity:1;" d="M 120.796875 88.296875 C 120.796875 85.128906 116.046875 85.128906 116.046875 88.296875 C 116.046875 91.464844 120.796875 91.464844 120.796875 88.296875 "/>
<path style=" stroke:none;fill-rule:evenodd;fill:rgb(75.686275%,0%,87.843137%);fill-opacity:1;" d="M 96.316406 88.296875 C 96.316406 85.128906 91.566406 85.128906 91.566406 88.296875 C 91.566406 91.464844 96.316406 91.464844 96.316406 88.296875 "/>
<path style=" stroke:none;fill-rule:evenodd;fill:rgb(75.686275%,0%,87.843137%);fill-opacity:1;" d="M 102.4375 88.296875 C 102.4375 85.128906 97.683594 85.128906 97.683594 88.296875 C 97.683594 91.464844 102.4375 91.464844 102.4375 88.296875 "/>
<path style=" stroke:none;fill-rule:evenodd;fill:rgb(75.686275%,0%,87.843137%);fill-opacity:1;" d="M 30.808594 89.023438 C 30.808594 86.277344 26.691406 86.277344 26.691406 89.023438 C 26.691406 91.769531 30.808594 91.769531 30.808594 89.023438 "/>
<path style=" stroke:none;fill-rule:evenodd;fill:rgb(75.686275%,0%,87.843137%);fill-opacity:1;" d="M 119.71875 95.5 C 119.71875 92.332031 114.964844 92.332031 114.964844 95.5 C 114.964844 98.667969 119.71875 98.667969 119.71875 95.5 "/>
<path style=" stroke:none;fill-rule:evenodd;fill:rgb(75.686275%,0%,87.843137%);fill-opacity:1;" d="M 95.238281 95.5 C 95.238281 92.332031 90.484375 92.332031 90.484375 95.5 C 90.484375 98.667969 95.238281 98.667969 95.238281 95.5 "/>
<path style=" stroke:none;fill-rule:evenodd;fill:rgb(75.686275%,0%,87.843137%);fill-opacity:1;" d="M 103.515625 95.5 C 103.515625 92.332031 98.765625 92.332031 98.765625 95.5 C 98.765625 98.667969 103.515625 98.667969 103.515625 95.5 "/>
<path style=" stroke:none;fill-rule:evenodd;fill:rgb(75.686275%,0%,87.843137%);fill-opacity:1;" d="M 120.796875 102.699219 C 120.796875 99.53125 116.046875 99.53125 116.046875 102.699219 C 116.046875 105.867188 120.796875 105.867188 120.796875 102.699219 "/>
<path style=" stroke:none;fill-rule:evenodd;fill:rgb(75.686275%,0%,87.843137%);fill-opacity:1;" d="M 102.4375 102.699219 C 102.4375 99.53125 97.683594 99.53125 97.683594 102.699219 C 97.683594 105.867188 102.4375 105.867188 102.4375 102.699219 "/>
<path style=" stroke:none;fill-rule:evenodd;fill:rgb(75.686275%,0%,87.843137%);fill-opacity:1;" d="M 96.316406 102.699219 C 96.316406 99.53125 91.566406 99.53125 91.566406 102.699219 C 91.566406 105.867188 96.316406 105.867188 96.316406 102.699219 "/>
<path style=" stroke:none;fill-rule:evenodd;fill:rgb(75.686275%,0%,87.843137%);fill-opacity:1;" d="M 95.238281 109.898438 C 95.238281 106.730469 90.484375 106.730469 90.484375 109.898438 C 90.484375 113.066406 95.238281 113.066406 95.238281 109.898438 "/>
<path style=" stroke:none;fill-rule:evenodd;fill:rgb(75.686275%,0%,87.843137%);fill-opacity:1;" d="M 103.515625 109.898438 C 103.515625 106.730469 98.765625 106.730469 98.765625 109.898438 C 98.765625 113.066406 103.515625 113.066406 103.515625 109.898438 "/>
<path style=" stroke:none;fill-rule:evenodd;fill:rgb(75.686275%,0%,87.843137%);fill-opacity:1;" d="M 35.910156 86.132812 C 35.910156 83.386719 31.792969 83.386719 31.792969 86.132812 C 31.792969 88.878906 35.910156 88.878906 35.910156 86.132812 "/>
<path style=" stroke:none;fill-rule:evenodd;fill:rgb(75.686275%,0%,87.843137%);fill-opacity:1;" d="M 49.546875 103.082031 C 49.546875 100.339844 45.429688 100.339844 45.429688 103.082031 C 45.429688 105.828125 49.546875 105.828125 49.546875 103.082031 "/>
<path style=" stroke:none;fill-rule:evenodd;fill:rgb(75.686275%,0%,87.843137%);fill-opacity:1;" d="M 113.597656 109.898438 C 113.597656 106.730469 108.84375 106.730469 108.84375 109.898438 C 108.84375 113.066406 113.597656 113.066406 113.597656 109.898438 "/>
<path style=" stroke:none;fill-rule:evenodd;fill:rgb(75.686275%,0%,87.843137%);fill-opacity:1;" d="M 119.71875 109.898438 C 119.71875 106.730469 114.964844 106.730469 114.964844 109.898438 C 114.964844 113.066406 119.71875 113.066406 119.71875 109.898438 "/>
<path style=" stroke:none;fill-rule:evenodd;fill:rgb(75.686275%,0%,87.843137%);fill-opacity:1;" d="M 24.203125 108.613281 C 24.203125 105.113281 18.953125 105.113281 18.953125 108.613281 C 18.953125 112.109375 24.203125 112.109375 24.203125 108.613281 "/>
<path style=" stroke:none;fill-rule:evenodd;fill:rgb(75.686275%,0%,87.843137%);fill-opacity:1;" d="M 35.484375 109.179688 C 35.484375 103.601562 27.117188 103.601562 27.117188 109.179688 C 27.117188 114.757812 35.484375 114.757812 35.484375 109.179688 "/>
<path style=" stroke:none;fill-rule:evenodd;fill:rgb(75.686275%,0%,87.843137%);fill-opacity:1;" d="M 49.546875 110.3125 C 49.546875 107.566406 45.429688 107.566406 45.429688 110.3125 C 45.429688 113.058594 49.546875 113.058594 49.546875 110.3125 "/>
<path style=" stroke:none;fill-rule:evenodd;fill:rgb(75.686275%,0%,87.843137%);fill-opacity:1;" d="M 30.808594 94.804688 C 30.808594 92.0625 26.691406 92.0625 26.691406 94.804688 C 26.691406 97.550781 30.808594 97.550781 30.808594 94.804688 "/>
<path style=" stroke:none;fill-rule:evenodd;fill:rgb(75.686275%,0%,87.843137%);fill-opacity:1;" d="M 30.808594 100.589844 C 30.808594 97.84375 26.691406 97.84375 26.691406 100.589844 C 26.691406 103.335938 30.808594 103.335938 30.808594 100.589844 "/>
<path style=" stroke:none;fill-rule:evenodd;fill:rgb(75.686275%,0%,87.843137%);fill-opacity:1;" d="M 35.910156 91.914062 C 35.910156 89.171875 31.792969 89.171875 31.792969 91.914062 C 31.792969 94.660156 35.910156 94.660156 35.910156 91.914062 "/>
<path style=" stroke:none;fill-rule:evenodd;fill:rgb(75.686275%,0%,87.843137%);fill-opacity:1;" d="M 35.910156 97.699219 C 35.910156 94.953125 31.792969 94.953125 31.792969 97.699219 C 31.792969 100.445312 35.910156 100.445312 35.910156 97.699219 "/>
<path style=" stroke:none;fill-rule:evenodd;fill:rgb(75.686275%,0%,87.843137%);fill-opacity:1;" d="M 165.59375 112.417969 C 165.59375 107.125 157.652344 107.125 157.652344 112.417969 C 157.652344 117.710938 165.59375 117.710938 165.59375 112.417969 "/>
<path style=" stroke:none;fill-rule:evenodd;fill:rgb(75.686275%,0%,87.843137%);fill-opacity:1;" d="M 165.59375 135.820312 C 165.59375 130.523438 157.652344 130.523438 157.652344 135.820312 C 157.652344 141.113281 165.59375 141.113281 165.59375 135.820312 "/>
<path style=" stroke:none;fill-rule:evenodd;fill:rgb(75.686275%,0%,87.843137%);fill-opacity:1;" d="M 49.546875 77.855469 C 49.546875 75.109375 45.429688 75.109375 45.429688 77.855469 C 45.429688 80.601562 49.546875 80.601562 49.546875 77.855469 "/>
<path style=" stroke:none;fill-rule:evenodd;fill:rgb(75.686275%,0%,87.843137%);fill-opacity:1;" d="M 49.546875 70.628906 C 49.546875 67.882812 45.429688 67.882812 45.429688 70.628906 C 45.429688 73.375 49.546875 73.375 49.546875 70.628906 "/>
<path style=" stroke:none;fill-rule:evenodd;fill:rgb(75.686275%,0%,87.843137%);fill-opacity:1;" d="M 24.203125 72.328125 C 24.203125 68.828125 18.953125 68.828125 18.953125 72.328125 C 18.953125 75.828125 24.203125 75.828125 24.203125 72.328125 "/>
<path style=" stroke:none;fill-rule:evenodd;fill:rgb(75.686275%,0%,87.843137%);fill-opacity:1;" d="M 35.484375 71.761719 C 35.484375 66.183594 27.117188 66.183594 27.117188 71.761719 C 27.117188 77.339844 35.484375 77.339844 35.484375 71.761719 "/>
<path style=" stroke:none;fill-rule:evenodd;fill:rgb(75.686275%,0%,87.843137%);fill-opacity:1;" d="M 30.808594 83.242188 C 30.808594 80.496094 26.691406 80.496094 26.691406 83.242188 C 26.691406 85.988281 30.808594 85.988281 30.808594 83.242188 "/>
<path style=" stroke:none;fill-rule:evenodd;fill:rgb(75.686275%,0%,87.843137%);fill-opacity:1;" d="M 35.910156 80.351562 C 35.910156 77.605469 31.792969 77.605469 31.792969 80.351562 C 31.792969 83.097656 35.910156 83.097656 35.910156 80.351562 "/>
<path style=" stroke:none;fill-rule:evenodd;fill:rgb(75.686275%,0%,87.843137%);fill-opacity:1;" d="M 20.566406 53.378906 C 20.566406 48.742188 13.609375 48.742188 13.609375 53.378906 C 13.609375 58.015625 20.566406 58.015625 20.566406 53.378906 "/>
<path style=" stroke:none;fill-rule:evenodd;fill:rgb(75.686275%,0%,87.843137%);fill-opacity:1;" d="M 34.738281 53.378906 C 34.738281 48.742188 27.785156 48.742188 27.785156 53.378906 C 27.785156 58.015625 34.738281 58.015625 34.738281 53.378906 "/>
<path style=" stroke:none;fill-rule:evenodd;fill:rgb(75.686275%,0%,87.843137%);fill-opacity:1;" d="M 48.914062 53.378906 C 48.914062 48.742188 41.957031 48.742188 41.957031 53.378906 C 41.957031 58.015625 48.914062 58.015625 48.914062 53.378906 "/>
<path style=" stroke:none;fill-rule:evenodd;fill:rgb(75.686275%,0%,87.843137%);fill-opacity:1;" d="M 63.085938 53.378906 C 63.085938 48.742188 56.128906 48.742188 56.128906 53.378906 C 56.128906 58.015625 63.085938 58.015625 63.085938 53.378906 "/>
<path style=" stroke:none;fill-rule:evenodd;fill:rgb(75.686275%,0%,87.843137%);fill-opacity:1;" d="M 77.257812 53.378906 C 77.257812 48.742188 70.304688 48.742188 70.304688 53.378906 C 70.304688 58.015625 77.257812 58.015625 77.257812 53.378906 "/>
<path style=" stroke:none;fill-rule:evenodd;fill:rgb(75.686275%,0%,87.843137%);fill-opacity:1;" d="M 137.519531 22.058594 C 137.519531 17.234375 130.285156 17.234375 130.285156 22.058594 C 130.285156 26.882812 137.519531 26.882812 137.519531 22.058594 "/>
<path style=" stroke:none;fill-rule:evenodd;fill:rgb(75.686275%,0%,87.843137%);fill-opacity:1;" d="M 147.441406 22.058594 C 147.441406 19.125 143.039062 19.125 143.039062 22.058594 C 143.039062 24.992188 147.441406 24.992188 147.441406 22.058594 "/>
<path style=" stroke:none;fill-rule:evenodd;fill:rgb(75.686275%,0%,87.843137%);fill-opacity:1;" d="M 145.882812 27.726562 C 145.882812 24.792969 141.480469 24.792969 141.480469 27.726562 C 141.480469 30.660156 145.882812 30.660156 145.882812 27.726562 "/>
<path style=" stroke:none;fill-rule:evenodd;fill:rgb(75.686275%,0%,87.843137%);fill-opacity:1;" d="M 145.882812 16.390625 C 145.882812 13.457031 141.480469 13.457031 141.480469 16.390625 C 141.480469 19.320312 145.882812 19.320312 145.882812 16.390625 "/>
<path style=" stroke:none;fill-rule:evenodd;fill:rgb(75.686275%,0%,87.843137%);fill-opacity:1;" d="M 124.761719 22.058594 C 124.761719 19.125 120.363281 19.125 120.363281 22.058594 C 120.363281 24.992188 124.761719 24.992188 124.761719 22.058594 "/>
<path style=" stroke:none;fill-rule:evenodd;fill:rgb(75.686275%,0%,87.843137%);fill-opacity:1;" d="M 126.320312 27.726562 C 126.320312 24.792969 121.921875 24.792969 121.921875 27.726562 C 121.921875 30.660156 126.320312 30.660156 126.320312 27.726562 "/>
<path style=" stroke:none;fill-rule:evenodd;fill:rgb(75.686275%,0%,87.843137%);fill-opacity:1;" d="M 126.320312 16.390625 C 126.320312 13.457031 121.921875 13.457031 121.921875 16.390625 C 121.921875 19.320312 126.320312 19.320312 126.320312 16.390625 "/>
<path style=" stroke:none;fill-rule:evenodd;fill:rgb(75.686275%,0%,87.843137%);fill-opacity:1;" d="M 136.101562 33.398438 C 136.101562 30.464844 131.703125 30.464844 131.703125 33.398438 C 131.703125 36.328125 136.101562 36.328125 136.101562 33.398438 "/>
<path style=" stroke:none;fill-rule:evenodd;fill:rgb(75.686275%,0%,87.843137%);fill-opacity:1;" d="M 130.574219 31.980469 C 130.574219 29.046875 126.175781 29.046875 126.175781 31.980469 C 126.175781 34.914062 130.574219 34.914062 130.574219 31.980469 "/>
<path style=" stroke:none;fill-rule:evenodd;fill:rgb(75.686275%,0%,87.843137%);fill-opacity:1;" d="M 141.628906 31.980469 C 141.628906 29.046875 137.230469 29.046875 137.230469 31.980469 C 137.230469 34.914062 141.628906 34.914062 141.628906 31.980469 "/>
<path style=" stroke:none;fill-rule:evenodd;fill:rgb(75.686275%,0%,87.843137%);fill-opacity:1;" d="M 136.101562 10.71875 C 136.101562 7.785156 131.703125 7.785156 131.703125 10.71875 C 131.703125 13.652344 136.101562 13.652344 136.101562 10.71875 "/>
<path style=" stroke:none;fill-rule:evenodd;fill:rgb(75.686275%,0%,87.843137%);fill-opacity:1;" d="M 141.628906 12.136719 C 141.628906 9.203125 137.230469 9.203125 137.230469 12.136719 C 137.230469 15.070312 141.628906 15.070312 141.628906 12.136719 "/>
<path style=" stroke:none;fill-rule:evenodd;fill:rgb(75.686275%,0%,87.843137%);fill-opacity:1;" d="M 130.574219 12.136719 C 130.574219 9.203125 126.175781 9.203125 126.175781 12.136719 C 126.175781 15.070312 130.574219 15.070312 130.574219 12.136719 "/>
<path style=" stroke:none;fill-rule:evenodd;fill:rgb(75.686275%,0%,87.843137%);fill-opacity:1;" d="M 165.59375 18.820312 C 165.59375 13.523438 157.652344 13.523438 157.652344 18.820312 C 157.652344 24.113281 165.59375 24.113281 165.59375 18.820312 "/>
<path style=" stroke:none;fill-rule:evenodd;fill:rgb(75.686275%,0%,87.843137%);fill-opacity:1;" d="M 165.59375 42.21875 C 165.59375 36.925781 157.652344 36.925781 157.652344 42.21875 C 157.652344 47.511719 165.59375 47.511719 165.59375 42.21875 "/>
<path style=" stroke:none;fill-rule:evenodd;fill:rgb(75.686275%,0%,87.843137%);fill-opacity:1;" d="M 165.59375 65.617188 C 165.59375 60.324219 157.652344 60.324219 157.652344 65.617188 C 157.652344 70.914062 165.59375 70.914062 165.59375 65.617188 "/>
<path style=" stroke:none;fill-rule:evenodd;fill:rgb(75.686275%,0%,87.843137%);fill-opacity:1;" d="M 165.59375 89.019531 C 165.59375 83.722656 157.652344 83.722656 157.652344 89.019531 C 157.652344 94.3125 165.59375 94.3125 165.59375 89.019531 "/>
<path style=" stroke:none;fill-rule:evenodd;fill:rgb(75.686275%,0%,87.843137%);fill-opacity:1;" d="M 91.433594 53.378906 C 91.433594 48.742188 84.476562 48.742188 84.476562 53.378906 C 84.476562 58.015625 91.433594 58.015625 91.433594 53.378906 "/>
<path style=" stroke:none;fill-rule:evenodd;fill:rgb(75.686275%,0%,87.843137%);fill-opacity:1;" d="M 105.605469 53.378906 C 105.605469 48.742188 98.648438 48.742188 98.648438 53.378906 C 98.648438 58.015625 105.605469 58.015625 105.605469 53.378906 "/>
<path style=" stroke:none;fill-rule:evenodd;fill:rgb(75.686275%,0%,87.843137%);fill-opacity:1;" d="M 119.777344 53.378906 C 119.777344 48.742188 112.824219 48.742188 112.824219 53.378906 C 112.824219 58.015625 119.777344 58.015625 119.777344 53.378906 "/>
<path style=" stroke:none;fill-rule:evenodd;fill:rgb(75.686275%,0%,87.843137%);fill-opacity:1;" d="M 133.953125 53.378906 C 133.953125 48.742188 126.996094 48.742188 126.996094 53.378906 C 126.996094 58.015625 133.953125 58.015625 133.953125 53.378906 "/>
<path style=" stroke:none;fill-rule:evenodd;fill:rgb(75.686275%,0%,87.843137%);fill-opacity:1;" d="M 64.996094 33.21875 C 64.996094 28.609375 58.085938 28.609375 58.085938 33.21875 C 58.085938 37.828125 64.996094 37.828125 64.996094 33.21875 "/>
<path style=" stroke:none;fill-rule:evenodd;fill:rgb(75.686275%,0%,87.843137%);fill-opacity:1;" d="M 61.929688 20.535156 C 61.929688 17.980469 58.097656 17.980469 58.097656 20.535156 C 58.097656 23.085938 61.929688 23.085938 61.929688 20.535156 "/>
<path style=" stroke:none;fill-rule:evenodd;fill:rgb(75.686275%,0%,87.843137%);fill-opacity:1;" d="M 59.097656 18.265625 C 59.097656 16.085938 55.828125 16.085938 55.828125 18.265625 C 55.828125 20.445312 59.097656 20.445312 59.097656 18.265625 "/>
<path style=" stroke:none;fill-rule:evenodd;fill:rgb(75.686275%,0%,87.843137%);fill-opacity:1;" d="M 30.660156 26.378906 C 30.660156 14.753906 13.222656 14.753906 13.222656 26.378906 C 13.222656 38.003906 30.660156 38.003906 30.660156 26.378906 "/>
<path style=" stroke:none;fill-rule:evenodd;fill:rgb(75.686275%,0%,87.843137%);fill-opacity:1;" d="M 51.070312 26.378906 C 51.070312 14.753906 33.632812 14.753906 33.632812 26.378906 C 33.632812 38.003906 51.070312 38.003906 51.070312 26.378906 "/>
<path style=" stroke:none;fill-rule:evenodd;fill:rgb(75.686275%,0%,87.843137%);fill-opacity:1;" d="M 65.332031 15.429688 C 65.332031 10.605469 58.097656 10.605469 58.097656 15.429688 C 58.097656 20.253906 65.332031 20.253906 65.332031 15.429688 "/>
<path style=" stroke:none;fill-rule:evenodd;fill:rgb(75.686275%,0%,87.843137%);fill-opacity:1;" d="M 66.890625 20.816406 C 66.890625 17.316406 61.640625 17.316406 61.640625 20.816406 C 61.640625 24.316406 66.890625 24.316406 66.890625 20.816406 "/>
<path style=" stroke:none;fill-rule:evenodd;fill:rgb(75.686275%,0%,87.843137%);fill-opacity:1;" d="M 75.960938 15.429688 C 75.960938 10.605469 68.726562 10.605469 68.726562 15.429688 C 68.726562 20.253906 75.960938 20.253906 75.960938 15.429688 "/>
<path style=" stroke:none;fill-rule:evenodd;fill:rgb(75.686275%,0%,87.843137%);fill-opacity:1;" d="M 77.519531 20.816406 C 77.519531 17.316406 72.269531 17.316406 72.269531 20.816406 C 72.269531 24.316406 77.519531 24.316406 77.519531 20.816406 "/>
<path style=" stroke:none;fill-rule:evenodd;fill:rgb(75.686275%,0%,87.843137%);fill-opacity:1;" d="M 72.558594 20.535156 C 72.558594 17.980469 68.730469 17.980469 68.730469 20.535156 C 68.730469 23.085938 72.558594 23.085938 72.558594 20.535156 "/>
<path style=" stroke:none;fill-rule:evenodd;fill:rgb(75.686275%,0%,87.843137%);fill-opacity:1;" d="M 69.726562 18.265625 C 69.726562 16.085938 66.457031 16.085938 66.457031 18.265625 C 66.457031 20.445312 69.726562 20.445312 69.726562 18.265625 "/>
<path style=" stroke:none;fill-rule:evenodd;fill:rgb(100%,49.803922%,45.098039%);fill-opacity:1;" d="M 58.179688 18.265625 C 58.179688 17.304688 56.738281 17.304688 56.738281 18.265625 C 56.738281 19.222656 58.179688 19.222656 58.179688 18.265625 "/>
<path style=" stroke:none;fill-rule:evenodd;fill:rgb(100%,49.803922%,45.098039%);fill-opacity:1;" d="M 68.8125 18.265625 C 68.8125 17.304688 67.375 17.304688 67.375 18.265625 C 67.375 19.222656 68.8125 19.222656 68.8125 18.265625 "/>
<path style=" stroke:none;fill-rule:evenodd;fill:rgb(100%,49.803922%,45.098039%);fill-opacity:1;" d="M 61.09375 20.53125 C 61.09375 19.09375 58.933594 19.09375 58.933594 20.53125 C 58.933594 21.972656 61.09375 21.972656 61.09375 20.53125 "/>
<path style=" stroke:none;fill-rule:evenodd;fill:rgb(100%,49.803922%,45.098039%);fill-opacity:1;" d="M 71.722656 20.53125 C 71.722656 19.09375 69.5625 19.09375 69.5625 20.53125 C 69.5625 21.972656 71.722656 21.972656 71.722656 20.53125 "/>
<path style=" stroke:none;fill-rule:evenodd;fill:rgb(100%,49.803922%,45.098039%);fill-opacity:1;" d="M 30.011719 83.242188 C 30.011719 81.5625 27.492188 81.5625 27.492188 83.242188 C 27.492188 84.925781 30.011719 84.925781 30.011719 83.242188 "/>
<path style=" stroke:none;fill-rule:evenodd;fill:rgb(100%,49.803922%,45.098039%);fill-opacity:1;" d="M 30.011719 89.027344 C 30.011719 87.34375 27.492188 87.34375 27.492188 89.027344 C 27.492188 90.707031 30.011719 90.707031 30.011719 89.027344 "/>
<path style=" stroke:none;fill-rule:evenodd;fill:rgb(100%,49.803922%,45.098039%);fill-opacity:1;" d="M 30.011719 94.808594 C 30.011719 93.128906 27.492188 93.128906 27.492188 94.808594 C 27.492188 96.488281 30.011719 96.488281 30.011719 94.808594 "/>
<path style=" stroke:none;fill-rule:evenodd;fill:rgb(100%,49.803922%,45.098039%);fill-opacity:1;" d="M 30.011719 100.589844 C 30.011719 98.910156 27.492188 98.910156 27.492188 100.589844 C 27.492188 102.269531 30.011719 102.269531 30.011719 100.589844 "/>
<path style=" stroke:none;fill-rule:evenodd;fill:rgb(100%,49.803922%,45.098039%);fill-opacity:1;" d="M 35.109375 80.351562 C 35.109375 78.667969 32.589844 78.667969 32.589844 80.351562 C 32.589844 82.03125 35.109375 82.03125 35.109375 80.351562 "/>
<path style=" stroke:none;fill-rule:evenodd;fill:rgb(100%,49.803922%,45.098039%);fill-opacity:1;" d="M 35.109375 86.132812 C 35.109375 84.453125 32.589844 84.453125 32.589844 86.132812 C 32.589844 87.8125 35.109375 87.8125 35.109375 86.132812 "/>
<path style=" stroke:none;fill-rule:evenodd;fill:rgb(100%,49.803922%,45.098039%);fill-opacity:1;" d="M 35.109375 91.914062 C 35.109375 90.234375 32.589844 90.234375 32.589844 91.914062 C 32.589844 93.59375 35.109375 93.59375 35.109375 91.914062 "/>
<path style=" stroke:none;fill-rule:evenodd;fill:rgb(100%,49.803922%,45.098039%);fill-opacity:1;" d="M 35.109375 97.703125 C 35.109375 96.023438 32.589844 96.023438 32.589844 97.703125 C 32.589844 99.382812 35.109375 99.382812 35.109375 97.703125 "/>
<path style=" stroke:none;fill-rule:evenodd;fill:rgb(100%,49.803922%,45.098039%);fill-opacity:1;" d="M 48.746094 70.628906 C 48.746094 68.949219 46.226562 68.949219 46.226562 70.628906 C 46.226562 72.308594 48.746094 72.308594 48.746094 70.628906 "/>
<path style=" stroke:none;fill-rule:evenodd;fill:rgb(100%,49.803922%,45.098039%);fill-opacity:1;" d="M 48.746094 77.859375 C 48.746094 76.179688 46.226562 76.179688 46.226562 77.859375 C 46.226562 79.539062 48.746094 79.539062 48.746094 77.859375 "/>
<path style=" stroke:none;fill-rule:evenodd;fill:rgb(100%,49.803922%,45.098039%);fill-opacity:1;" d="M 48.746094 103.085938 C 48.746094 101.40625 46.226562 101.40625 46.226562 103.085938 C 46.226562 104.765625 48.746094 104.765625 48.746094 103.085938 "/>
<path style=" stroke:none;fill-rule:evenodd;fill:rgb(100%,49.803922%,45.098039%);fill-opacity:1;" d="M 48.746094 110.308594 C 48.746094 108.628906 46.226562 108.628906 46.226562 110.308594 C 46.226562 111.988281 48.746094 111.988281 48.746094 110.308594 "/>
<path style=" stroke:none;fill-rule:evenodd;fill:rgb(100%,49.803922%,45.098039%);fill-opacity:1;" d="M 15.75 198.457031 C 15.75 196.632812 13.011719 196.632812 13.011719 198.457031 C 13.011719 200.28125 15.75 200.28125 15.75 198.457031 "/>
<path style=" stroke:none;fill-rule:evenodd;fill:rgb(100%,49.803922%,45.098039%);fill-opacity:1;" d="M 15.75 205.660156 C 15.75 203.835938 13.011719 203.835938 13.011719 205.660156 C 13.011719 207.484375 15.75 207.484375 15.75 205.660156 "/>
<path style=" stroke:none;fill-rule:evenodd;fill:rgb(100%,49.803922%,45.098039%);fill-opacity:1;" d="M 22.949219 198.457031 C 22.949219 196.632812 20.214844 196.632812 20.214844 198.457031 C 20.214844 200.28125 22.949219 200.28125 22.949219 198.457031 "/>
<path style=" stroke:none;fill-rule:evenodd;fill:rgb(100%,49.803922%,45.098039%);fill-opacity:1;" d="M 22.949219 205.660156 C 22.949219 203.835938 20.214844 203.835938 20.214844 205.660156 C 20.214844 207.484375 22.949219 207.484375 22.949219 205.660156 "/>
<path style=" stroke:none;fill-rule:evenodd;fill:rgb(100%,49.803922%,45.098039%);fill-opacity:1;" d="M 72.628906 169.660156 C 72.628906 167.835938 69.894531 167.835938 69.894531 169.660156 C 69.894531 171.484375 72.628906 171.484375 72.628906 169.660156 "/>
<path style=" stroke:none;fill-rule:evenodd;fill:rgb(100%,49.803922%,45.098039%);fill-opacity:1;" d="M 72.628906 176.859375 C 72.628906 175.035156 69.894531 175.035156 69.894531 176.859375 C 69.894531 178.683594 72.628906 178.683594 72.628906 176.859375 "/>
<path style=" stroke:none;fill-rule:evenodd;fill:rgb(100%,49.803922%,45.098039%);fill-opacity:1;" d="M 72.628906 184.058594 C 72.628906 182.234375 69.894531 182.234375 69.894531 184.058594 C 69.894531 185.882812 72.628906 185.882812 72.628906 184.058594 "/>
<path style=" stroke:none;fill-rule:evenodd;fill:rgb(100%,49.803922%,45.098039%);fill-opacity:1;" d="M 72.628906 191.257812 C 72.628906 189.433594 69.894531 189.433594 69.894531 191.257812 C 69.894531 193.082031 72.628906 193.082031 72.628906 191.257812 "/>
<path style=" stroke:none;fill-rule:evenodd;fill:rgb(100%,49.803922%,45.098039%);fill-opacity:1;" d="M 72.628906 198.457031 C 72.628906 196.632812 69.894531 196.632812 69.894531 198.457031 C 69.894531 200.28125 72.628906 200.28125 72.628906 198.457031 "/>
<path style=" stroke:none;fill-rule:evenodd;fill:rgb(100%,49.803922%,45.098039%);fill-opacity:1;" d="M 72.628906 205.660156 C 72.628906 203.835938 69.894531 203.835938 69.894531 205.660156 C 69.894531 207.484375 72.628906 207.484375 72.628906 205.660156 "/>
<path style=" stroke:none;fill-rule:evenodd;fill:rgb(100%,49.803922%,45.098039%);fill-opacity:1;" d="M 72.628906 212.859375 C 72.628906 211.035156 69.894531 211.035156 69.894531 212.859375 C 69.894531 214.683594 72.628906 214.683594 72.628906 212.859375 "/>
<path style=" stroke:none;fill-rule:evenodd;fill:rgb(100%,49.803922%,45.098039%);fill-opacity:1;" d="M 72.628906 220.058594 C 72.628906 218.234375 69.894531 218.234375 69.894531 220.058594 C 69.894531 221.882812 72.628906 221.882812 72.628906 220.058594 "/>
<path style=" stroke:none;fill-rule:evenodd;fill:rgb(100%,49.803922%,45.098039%);fill-opacity:1;" d="M 93.871094 169.660156 C 93.871094 167.835938 91.132812 167.835938 91.132812 169.660156 C 91.132812 171.484375 93.871094 171.484375 93.871094 169.660156 "/>
<path style=" stroke:none;fill-rule:evenodd;fill:rgb(100%,49.803922%,45.098039%);fill-opacity:1;" d="M 93.871094 176.859375 C 93.871094 175.035156 91.132812 175.035156 91.132812 176.859375 C 91.132812 178.683594 93.871094 178.683594 93.871094 176.859375 "/>
<path style=" stroke:none;fill-rule:evenodd;fill:rgb(100%,49.803922%,45.098039%);fill-opacity:1;" d="M 93.871094 184.058594 C 93.871094 182.234375 91.132812 182.234375 91.132812 184.058594 C 91.132812 185.882812 93.871094 185.882812 93.871094 184.058594 "/>
<path style=" stroke:none;fill-rule:evenodd;fill:rgb(100%,49.803922%,45.098039%);fill-opacity:1;" d="M 93.871094 191.257812 C 93.871094 189.433594 91.132812 189.433594 91.132812 191.257812 C 91.132812 193.082031 93.871094 193.082031 93.871094 191.257812 "/>
<path style=" stroke:none;fill-rule:evenodd;fill:rgb(100%,49.803922%,45.098039%);fill-opacity:1;" d="M 93.871094 198.457031 C 93.871094 196.632812 91.132812 196.632812 91.132812 198.457031 C 91.132812 200.28125 93.871094 200.28125 93.871094 198.457031 "/>
<path style=" stroke:none;fill-rule:evenodd;fill:rgb(100%,49.803922%,45.098039%);fill-opacity:1;" d="M 93.871094 205.660156 C 93.871094 203.835938 91.132812 203.835938 91.132812 205.660156 C 91.132812 207.484375 93.871094 207.484375 93.871094 205.660156 "/>
<path style=" stroke:none;fill-rule:evenodd;fill:rgb(100%,49.803922%,45.098039%);fill-opacity:1;" d="M 93.871094 212.859375 C 93.871094 211.035156 91.132812 211.035156 91.132812 212.859375 C 91.132812 214.683594 93.871094 214.683594 93.871094 212.859375 "/>
<path style=" stroke:none;fill-rule:evenodd;fill:rgb(100%,49.803922%,45.098039%);fill-opacity:1;" d="M 93.871094 220.058594 C 93.871094 218.234375 91.132812 218.234375 91.132812 220.058594 C 91.132812 221.882812 93.871094 221.882812 93.871094 220.058594 "/>
<path style=" stroke:none;fill-rule:evenodd;fill:rgb(100%,49.803922%,45.098039%);fill-opacity:1;" d="M 94.230469 81.097656 C 94.230469 79.273438 91.492188 79.273438 91.492188 81.097656 C 91.492188 82.921875 94.230469 82.921875 94.230469 81.097656 "/>
<path style=" stroke:none;fill-rule:evenodd;fill:rgb(100%,49.803922%,45.098039%);fill-opacity:1;" d="M 94.230469 95.5 C 94.230469 93.675781 91.492188 93.675781 91.492188 95.5 C 91.492188 97.324219 94.230469 97.324219 94.230469 95.5 "/>
<path style=" stroke:none;fill-rule:evenodd;fill:rgb(100%,49.803922%,45.098039%);fill-opacity:1;" d="M 94.230469 109.898438 C 94.230469 108.074219 91.492188 108.074219 91.492188 109.898438 C 91.492188 111.722656 94.230469 111.722656 94.230469 109.898438 "/>
<path style=" stroke:none;fill-rule:evenodd;fill:rgb(100%,49.803922%,45.098039%);fill-opacity:1;" d="M 95.308594 73.898438 C 95.308594 72.074219 92.574219 72.074219 92.574219 73.898438 C 92.574219 75.722656 95.308594 75.722656 95.308594 73.898438 "/>
<path style=" stroke:none;fill-rule:evenodd;fill:rgb(100%,49.803922%,45.098039%);fill-opacity:1;" d="M 95.308594 88.296875 C 95.308594 86.472656 92.574219 86.472656 92.574219 88.296875 C 92.574219 90.121094 95.308594 90.121094 95.308594 88.296875 "/>
<path style=" stroke:none;fill-rule:evenodd;fill:rgb(100%,49.803922%,45.098039%);fill-opacity:1;" d="M 95.308594 102.699219 C 95.308594 100.875 92.574219 100.875 92.574219 102.699219 C 92.574219 104.523438 95.308594 104.523438 95.308594 102.699219 "/>
<path style=" stroke:none;fill-rule:evenodd;fill:rgb(100%,49.803922%,45.098039%);fill-opacity:1;" d="M 101.429688 73.898438 C 101.429688 72.074219 98.695312 72.074219 98.695312 73.898438 C 98.695312 75.722656 101.429688 75.722656 101.429688 73.898438 "/>
<path style=" stroke:none;fill-rule:evenodd;fill:rgb(100%,49.803922%,45.098039%);fill-opacity:1;" d="M 101.429688 88.296875 C 101.429688 86.472656 98.695312 86.472656 98.695312 88.296875 C 98.695312 90.121094 101.429688 90.121094 101.429688 88.296875 "/>
<path style=" stroke:none;fill-rule:evenodd;fill:rgb(100%,49.803922%,45.098039%);fill-opacity:1;" d="M 101.429688 102.699219 C 101.429688 100.875 98.695312 100.875 98.695312 102.699219 C 98.695312 104.523438 101.429688 104.523438 101.429688 102.699219 "/>
<path style=" stroke:none;fill-rule:evenodd;fill:rgb(100%,49.803922%,45.098039%);fill-opacity:1;" d="M 102.507812 81.097656 C 102.507812 79.273438 99.773438 79.273438 99.773438 81.097656 C 99.773438 82.921875 102.507812 82.921875 102.507812 81.097656 "/>
<path style=" stroke:none;fill-rule:evenodd;fill:rgb(100%,49.803922%,45.098039%);fill-opacity:1;" d="M 102.507812 95.5 C 102.507812 93.675781 99.773438 93.675781 99.773438 95.5 C 99.773438 97.324219 102.507812 97.324219 102.507812 95.5 "/>
<path style=" stroke:none;fill-rule:evenodd;fill:rgb(100%,49.803922%,45.098039%);fill-opacity:1;" d="M 102.507812 109.898438 C 102.507812 108.074219 99.773438 108.074219 99.773438 109.898438 C 99.773438 111.722656 102.507812 111.722656 102.507812 109.898438 "/>
<path style=" stroke:none;fill-rule:evenodd;fill:rgb(100%,49.803922%,45.098039%);fill-opacity:1;" d="M 111.507812 73.898438 C 111.507812 72.074219 108.773438 72.074219 108.773438 73.898438 C 108.773438 75.722656 111.507812 75.722656 111.507812 73.898438 "/>
<path style=" stroke:none;fill-rule:evenodd;fill:rgb(100%,49.803922%,45.098039%);fill-opacity:1;" d="M 111.507812 88.296875 C 111.507812 86.472656 108.773438 86.472656 108.773438 88.296875 C 108.773438 90.121094 111.507812 90.121094 111.507812 88.296875 "/>
<path style=" stroke:none;fill-rule:evenodd;fill:rgb(100%,49.803922%,45.098039%);fill-opacity:1;" d="M 111.507812 102.699219 C 111.507812 100.875 108.773438 100.875 108.773438 102.699219 C 108.773438 104.523438 111.507812 104.523438 111.507812 102.699219 "/>
<path style=" stroke:none;fill-rule:evenodd;fill:rgb(100%,49.803922%,45.098039%);fill-opacity:1;" d="M 112.589844 81.097656 C 112.589844 79.273438 109.855469 79.273438 109.855469 81.097656 C 109.855469 82.921875 112.589844 82.921875 112.589844 81.097656 "/>
<path style=" stroke:none;fill-rule:evenodd;fill:rgb(100%,49.803922%,45.098039%);fill-opacity:1;" d="M 112.589844 95.5 C 112.589844 93.675781 109.855469 93.675781 109.855469 95.5 C 109.855469 97.324219 112.589844 97.324219 112.589844 95.5 "/>
<path style=" stroke:none;fill-rule:evenodd;fill:rgb(100%,49.803922%,45.098039%);fill-opacity:1;" d="M 112.589844 109.898438 C 112.589844 108.074219 109.855469 108.074219 109.855469 109.898438 C 109.855469 111.722656 112.589844 111.722656 112.589844 109.898438 "/>
<path style=" stroke:none;fill-rule:evenodd;fill:rgb(100%,49.803922%,45.098039%);fill-opacity:1;" d="M 118.710938 81.097656 C 118.710938 79.273438 115.972656 79.273438 115.972656 81.097656 C 115.972656 82.921875 118.710938 82.921875 118.710938 81.097656 "/>
<path style=" stroke:none;fill-rule:evenodd;fill:rgb(100%,49.803922%,45.098039%);fill-opacity:1;" d="M 118.710938 95.5 C 118.710938 93.675781 115.972656 93.675781 115.972656 95.5 C 115.972656 97.324219 118.710938 97.324219 118.710938 95.5 "/>
<path style=" stroke:none;fill-rule:evenodd;fill:rgb(100%,49.803922%,45.098039%);fill-opacity:1;" d="M 118.710938 109.898438 C 118.710938 108.074219 115.972656 108.074219 115.972656 109.898438 C 115.972656 111.722656 118.710938 111.722656 118.710938 109.898438 "/>
<path style=" stroke:none;fill-rule:evenodd;fill:rgb(100%,49.803922%,45.098039%);fill-opacity:1;" d="M 119.789062 73.898438 C 119.789062 72.074219 117.054688 72.074219 117.054688 73.898438 C 117.054688 75.722656 119.789062 75.722656 119.789062 73.898438 "/>
<path style=" stroke:none;fill-rule:evenodd;fill:rgb(100%,49.803922%,45.098039%);fill-opacity:1;" d="M 119.789062 88.296875 C 119.789062 86.472656 117.054688 86.472656 117.054688 88.296875 C 117.054688 90.121094 119.789062 90.121094 119.789062 88.296875 "/>
<path style=" stroke:none;fill-rule:evenodd;fill:rgb(100%,49.803922%,45.098039%);fill-opacity:1;" d="M 119.789062 102.699219 C 119.789062 100.875 117.054688 100.875 117.054688 102.699219 C 117.054688 104.523438 119.789062 104.523438 119.789062 102.699219 "/>
<path style=" stroke:none;fill-rule:evenodd;fill:rgb(100%,49.803922%,45.098039%);fill-opacity:1;" d="M 143.550781 198.457031 C 143.550781 196.632812 140.8125 196.632812 140.8125 198.457031 C 140.8125 200.28125 143.550781 200.28125 143.550781 198.457031 "/>
<path style=" stroke:none;fill-rule:evenodd;fill:rgb(100%,49.803922%,45.098039%);fill-opacity:1;" d="M 143.550781 205.660156 C 143.550781 203.835938 140.8125 203.835938 140.8125 205.660156 C 140.8125 207.484375 143.550781 207.484375 143.550781 205.660156 "/>
<path style=" stroke:none;fill-rule:evenodd;fill:rgb(100%,49.803922%,45.098039%);fill-opacity:1;" d="M 150.75 198.457031 C 150.75 196.632812 148.011719 196.632812 148.011719 198.457031 C 148.011719 200.28125 150.75 200.28125 150.75 198.457031 "/>
<path style=" stroke:none;fill-rule:evenodd;fill:rgb(100%,49.803922%,45.098039%);fill-opacity:1;" d="M 150.75 205.660156 C 150.75 203.835938 148.011719 203.835938 148.011719 205.660156 C 148.011719 207.484375 150.75 207.484375 150.75 205.660156 "/>
<path style=" stroke:none;fill-rule:evenodd;fill:rgb(100%,49.803922%,45.098039%);fill-opacity:1;" d="M 123.964844 22.058594 C 123.964844 20.1875 121.15625 20.1875 121.15625 22.058594 C 121.15625 23.929688 123.964844 23.929688 123.964844 22.058594 "/>
<path style=" stroke:none;fill-rule:evenodd;fill:rgb(100%,49.803922%,45.098039%);fill-opacity:1;" d="M 125.527344 16.390625 C 125.527344 14.519531 122.71875 14.519531 122.71875 16.390625 C 122.71875 18.265625 125.527344 18.265625 125.527344 16.390625 "/>
<path style=" stroke:none;fill-rule:evenodd;fill:rgb(100%,49.803922%,45.098039%);fill-opacity:1;" d="M 125.527344 27.726562 C 125.527344 25.851562 122.71875 25.851562 122.71875 27.726562 C 122.71875 29.597656 125.527344 29.597656 125.527344 27.726562 "/>
<path style=" stroke:none;fill-rule:evenodd;fill:rgb(100%,49.803922%,45.098039%);fill-opacity:1;" d="M 129.777344 12.136719 C 129.777344 10.265625 126.96875 10.265625 126.96875 12.136719 C 126.96875 14.007812 129.777344 14.007812 129.777344 12.136719 "/>
<path style=" stroke:none;fill-rule:evenodd;fill:rgb(100%,49.803922%,45.098039%);fill-opacity:1;" d="M 129.777344 31.980469 C 129.777344 30.109375 126.96875 30.109375 126.96875 31.980469 C 126.96875 33.851562 129.777344 33.851562 129.777344 31.980469 "/>
<path style=" stroke:none;fill-rule:evenodd;fill:rgb(100%,49.803922%,45.098039%);fill-opacity:1;" d="M 135.304688 10.71875 C 135.304688 8.847656 132.496094 8.847656 132.496094 10.71875 C 132.496094 12.589844 135.304688 12.589844 135.304688 10.71875 "/>
<path style=" stroke:none;fill-rule:evenodd;fill:rgb(100%,49.803922%,45.098039%);fill-opacity:1;" d="M 135.304688 33.398438 C 135.304688 31.527344 132.496094 31.527344 132.496094 33.398438 C 132.496094 35.269531 135.304688 35.269531 135.304688 33.398438 "/>
<path style=" stroke:none;fill-rule:evenodd;fill:rgb(100%,49.803922%,45.098039%);fill-opacity:1;" d="M 140.835938 12.136719 C 140.835938 10.265625 138.027344 10.265625 138.027344 12.136719 C 138.027344 14.007812 140.835938 14.007812 140.835938 12.136719 "/>
<path style=" stroke:none;fill-rule:evenodd;fill:rgb(100%,49.803922%,45.098039%);fill-opacity:1;" d="M 140.835938 31.980469 C 140.835938 30.109375 138.027344 30.109375 138.027344 31.980469 C 138.027344 33.851562 140.835938 33.851562 140.835938 31.980469 "/>
<path style=" stroke:none;fill-rule:evenodd;fill:rgb(100%,49.803922%,45.098039%);fill-opacity:1;" d="M 145.082031 16.390625 C 145.082031 14.519531 142.273438 14.519531 142.273438 16.390625 C 142.273438 18.265625 145.082031 18.265625 145.082031 16.390625 "/>
<path style=" stroke:none;fill-rule:evenodd;fill:rgb(100%,49.803922%,45.098039%);fill-opacity:1;" d="M 145.082031 27.726562 C 145.082031 25.851562 142.273438 25.851562 142.273438 27.726562 C 142.273438 29.597656 145.082031 29.597656 145.082031 27.726562 "/>
<path style=" stroke:none;fill-rule:evenodd;fill:rgb(100%,49.803922%,45.098039%);fill-opacity:1;" d="M 146.644531 22.058594 C 146.644531 20.1875 143.835938 20.1875 143.835938 22.058594 C 143.835938 23.929688 146.644531 23.929688 146.644531 22.058594 "/>
<path style=" stroke:none;fill-rule:evenodd;fill:rgb(100%,49.803922%,45.098039%);fill-opacity:1;" d="M 66.027344 20.820312 C 66.027344 18.46875 62.5 18.46875 62.5 20.820312 C 62.5 23.171875 66.027344 23.171875 66.027344 20.820312 "/>
<path style=" stroke:none;fill-rule:evenodd;fill:rgb(100%,49.803922%,45.098039%);fill-opacity:1;" d="M 76.660156 20.820312 C 76.660156 18.46875 73.132812 18.46875 73.132812 20.820312 C 73.132812 23.171875 76.660156 23.171875 76.660156 20.820312 "/>
<path style=" stroke:none;fill-rule:evenodd;fill:rgb(100%,49.803922%,45.098039%);fill-opacity:1;" d="M 23.417969 72.328125 C 23.417969 69.878906 19.746094 69.878906 19.746094 72.328125 C 19.746094 74.777344 23.417969 74.777344 23.417969 72.328125 "/>
<path style=" stroke:none;fill-rule:evenodd;fill:rgb(100%,49.803922%,45.098039%);fill-opacity:1;" d="M 23.417969 108.609375 C 23.417969 106.160156 19.746094 106.160156 19.746094 108.609375 C 19.746094 111.058594 23.417969 111.058594 23.417969 108.609375 "/>
<path style=" stroke:none;fill-rule:evenodd;fill:rgb(100%,49.803922%,45.098039%);fill-opacity:1;" d="M 19.355469 53.378906 C 19.355469 50.355469 14.820312 50.355469 14.820312 53.378906 C 14.820312 56.402344 19.355469 56.402344 19.355469 53.378906 "/>
<path style=" stroke:none;fill-rule:evenodd;fill:rgb(100%,49.803922%,45.098039%);fill-opacity:1;" d="M 33.527344 53.378906 C 33.527344 50.355469 28.992188 50.355469 28.992188 53.378906 C 28.992188 56.402344 33.527344 56.402344 33.527344 53.378906 "/>
<path style=" stroke:none;fill-rule:evenodd;fill:rgb(100%,49.803922%,45.098039%);fill-opacity:1;" d="M 47.703125 53.378906 C 47.703125 50.355469 43.167969 50.355469 43.167969 53.378906 C 43.167969 56.402344 47.703125 56.402344 47.703125 53.378906 "/>
<path style=" stroke:none;fill-rule:evenodd;fill:rgb(100%,49.803922%,45.098039%);fill-opacity:1;" d="M 61.871094 53.378906 C 61.871094 50.355469 57.335938 50.355469 57.335938 53.378906 C 57.335938 56.402344 61.871094 56.402344 61.871094 53.378906 "/>
<path style=" stroke:none;fill-rule:evenodd;fill:rgb(100%,49.803922%,45.098039%);fill-opacity:1;" d="M 76.050781 53.378906 C 76.050781 50.355469 71.511719 50.355469 71.511719 53.378906 C 71.511719 56.402344 76.050781 56.402344 76.050781 53.378906 "/>
<path style=" stroke:none;fill-rule:evenodd;fill:rgb(100%,49.803922%,45.098039%);fill-opacity:1;" d="M 90.226562 53.378906 C 90.226562 50.355469 85.691406 50.355469 85.691406 53.378906 C 85.691406 56.402344 90.226562 56.402344 90.226562 53.378906 "/>
<path style=" stroke:none;fill-rule:evenodd;fill:rgb(100%,49.803922%,45.098039%);fill-opacity:1;" d="M 104.394531 53.378906 C 104.394531 50.355469 99.859375 50.355469 99.859375 53.378906 C 99.859375 56.402344 104.394531 56.402344 104.394531 53.378906 "/>
<path style=" stroke:none;fill-rule:evenodd;fill:rgb(100%,49.803922%,45.098039%);fill-opacity:1;" d="M 118.574219 53.378906 C 118.574219 50.355469 114.035156 50.355469 114.035156 53.378906 C 114.035156 56.402344 118.574219 56.402344 118.574219 53.378906 "/>
<path style=" stroke:none;fill-rule:evenodd;fill:rgb(100%,49.803922%,45.098039%);fill-opacity:1;" d="M 132.742188 53.378906 C 132.742188 50.355469 128.207031 50.355469 128.207031 53.378906 C 128.207031 56.402344 132.742188 56.402344 132.742188 53.378906 "/>
<path style=" stroke:none;fill-rule:evenodd;fill:rgb(100%,49.803922%,45.098039%);fill-opacity:1;" d="M 64.386719 33.21875 C 64.386719 29.425781 58.699219 29.425781 58.699219 33.21875 C 58.699219 37.011719 64.386719 37.011719 64.386719 33.21875 "/>
<path style=" stroke:none;fill-rule:evenodd;fill:rgb(100%,49.803922%,45.098039%);fill-opacity:1;" d="M 64.558594 15.433594 C 64.558594 11.640625 58.871094 11.640625 58.871094 15.433594 C 58.871094 19.226562 64.558594 19.226562 64.558594 15.433594 "/>
<path style=" stroke:none;fill-rule:evenodd;fill:rgb(100%,49.803922%,45.098039%);fill-opacity:1;" d="M 75.183594 15.433594 C 75.183594 11.640625 69.496094 11.640625 69.496094 15.433594 C 69.496094 19.226562 75.183594 19.226562 75.183594 15.433594 "/>
<path style=" stroke:none;fill-rule:evenodd;fill:rgb(100%,49.803922%,45.098039%);fill-opacity:1;" d="M 136.746094 22.058594 C 136.746094 18.265625 131.058594 18.265625 131.058594 22.058594 C 131.058594 25.851562 136.746094 25.851562 136.746094 22.058594 "/>
<path style=" stroke:none;fill-rule:evenodd;fill:rgb(100%,49.803922%,45.098039%);fill-opacity:1;" d="M 164.824219 18.820312 C 164.824219 14.546875 158.417969 14.546875 158.417969 18.820312 C 158.417969 23.089844 164.824219 23.089844 164.824219 18.820312 "/>
<path style=" stroke:none;fill-rule:evenodd;fill:rgb(100%,49.803922%,45.098039%);fill-opacity:1;" d="M 164.824219 42.21875 C 164.824219 37.945312 158.417969 37.945312 158.417969 42.21875 C 158.417969 46.492188 164.824219 46.492188 164.824219 42.21875 "/>
<path style=" stroke:none;fill-rule:evenodd;fill:rgb(100%,49.803922%,45.098039%);fill-opacity:1;" d="M 164.824219 65.617188 C 164.824219 61.347656 158.417969 61.347656 158.417969 65.617188 C 158.417969 69.890625 164.824219 69.890625 164.824219 65.617188 "/>
<path style=" stroke:none;fill-rule:evenodd;fill:rgb(100%,49.803922%,45.098039%);fill-opacity:1;" d="M 164.824219 89.019531 C 164.824219 84.746094 158.417969 84.746094 158.417969 89.019531 C 158.417969 93.289062 164.824219 93.289062 164.824219 89.019531 "/>
<path style=" stroke:none;fill-rule:evenodd;fill:rgb(100%,49.803922%,45.098039%);fill-opacity:1;" d="M 164.824219 112.417969 C 164.824219 108.144531 158.417969 108.144531 158.417969 112.417969 C 158.417969 116.691406 164.824219 116.691406 164.824219 112.417969 "/>
<path style=" stroke:none;fill-rule:evenodd;fill:rgb(100%,49.803922%,45.098039%);fill-opacity:1;" d="M 164.824219 135.820312 C 164.824219 131.546875 158.417969 131.546875 158.417969 135.820312 C 158.417969 140.089844 164.824219 140.089844 164.824219 135.820312 "/>
<path style=" stroke:none;fill-rule:evenodd;fill:rgb(100%,49.803922%,45.098039%);fill-opacity:1;" d="M 164.824219 159.21875 C 164.824219 154.945312 158.417969 154.945312 158.417969 159.21875 C 158.417969 163.492188 164.824219 163.492188 164.824219 159.21875 "/>
<path style=" stroke:none;fill-rule:evenodd;fill:rgb(100%,49.803922%,45.098039%);fill-opacity:1;" d="M 164.824219 182.617188 C 164.824219 178.347656 158.417969 178.347656 158.417969 182.617188 C 158.417969 186.890625 164.824219 186.890625 164.824219 182.617188 "/>
<path style=" stroke:none;fill-rule:evenodd;fill:rgb(100%,49.803922%,45.098039%);fill-opacity:1;" d="M 164.824219 206.019531 C 164.824219 201.746094 158.417969 201.746094 158.417969 206.019531 C 158.417969 210.289062 164.824219 210.289062 164.824219 206.019531 "/>
<path style=" stroke:none;fill-rule:evenodd;fill:rgb(100%,49.803922%,45.098039%);fill-opacity:1;" d="M 164.824219 229.417969 C 164.824219 225.144531 158.417969 225.144531 158.417969 229.417969 C 158.417969 233.691406 164.824219 233.691406 164.824219 229.417969 "/>
<path style=" stroke:none;fill-rule:evenodd;fill:rgb(100%,49.803922%,45.098039%);fill-opacity:1;" d="M 164.824219 252.820312 C 164.824219 248.546875 158.417969 248.546875 158.417969 252.820312 C 158.417969 257.089844 164.824219 257.089844 164.824219 252.820312 "/>
<path style=" stroke:none;fill-rule:evenodd;fill:rgb(100%,49.803922%,45.098039%);fill-opacity:1;" d="M 34.683594 71.761719 C 34.683594 67.246094 27.917969 67.246094 27.917969 71.761719 C 27.917969 76.273438 34.683594 76.273438 34.683594 71.761719 "/>
<path style=" stroke:none;fill-rule:evenodd;fill:rgb(100%,49.803922%,45.098039%);fill-opacity:1;" d="M 34.683594 109.179688 C 34.683594 104.667969 27.917969 104.667969 27.917969 109.179688 C 27.917969 113.691406 34.683594 113.691406 34.683594 109.179688 "/>
<path style=" stroke:none;fill-rule:evenodd;fill:rgb(100%,49.803922%,45.098039%);fill-opacity:1;" d="M 28.671875 26.378906 C 28.671875 17.402344 15.210938 17.402344 15.210938 26.378906 C 15.210938 35.355469 28.671875 35.355469 28.671875 26.378906 "/>
<path style=" stroke:none;fill-rule:evenodd;fill:rgb(100%,49.803922%,45.098039%);fill-opacity:1;" d="M 49.085938 26.378906 C 49.085938 17.402344 35.621094 17.402344 35.621094 26.378906 C 35.621094 35.355469 49.085938 35.355469 49.085938 26.378906 "/>
</g>
</svg>
