G04 This is an RS-274x file exported by *
G04 gerbv version 2.7.0 *
G04 More information is available about gerbv at *
G04 http://gerbv.geda-project.org/ *
G04 --End of header info--*
%MOIN*%
%FSLAX36Y36*%
%IPPOS*%
G04 --Define apertures--*
%ADD10C,0.0100*%
%ADD11C,0.0040*%
%ADD12C,0.0060*%
%ADD13C,0.0080*%
%ADD14C,0.0250*%
%ADD15C,0.0400*%
%ADD16C,0.0001*%
%ADD17C,0.0600*%
%ADD18C,0.1043*%
%ADD19C,0.0512*%
%ADD20C,0.0669*%
%ADD21C,0.1102*%
%ADD22C,0.0906*%
%ADD23C,0.0945*%
%ADD24C,0.0551*%
%ADD25C,0.0472*%
%ADD26C,0.0394*%
%ADD27C,0.2362*%
%ADD28C,0.0380*%
%ADD29C,0.0886*%
%ADD30C,0.0354*%
%ADD31C,0.0630*%
%ADD32C,0.0787*%
%ADD33C,0.0295*%
%ADD34C,0.0197*%
%ADD35C,0.1870*%
%ADD36C,0.0492*%
%ADD37C,0.0660*%
%ADD38C,0.1103*%
%ADD39C,0.0572*%
%ADD40C,0.0729*%
%ADD41C,0.1162*%
%ADD42C,0.0966*%
%ADD43C,0.1005*%
%ADD44C,0.0611*%
%ADD45C,0.0960*%
%ADD46C,0.0532*%
%ADD47C,0.0454*%
%ADD48C,0.2422*%
%ADD49C,0.0200*%
%ADD50C,0.0890*%
%ADD51C,0.0350*%
%ADD52C,0.0510*%
%ADD53C,0.0940*%
%ADD54C,0.0790*%
%ADD55C,0.0390*%
%ADD56C,0.0300*%
%ADD57C,0.0490*%
G04 --Start main section--*
G54D10*
G01X0870000Y6030000D02*
G01X0870000Y5230000D01*
G01X0870000Y5230000D02*
G01X0970000Y5230000D01*
G01X0970000Y5230000D02*
G01X0970000Y6030000D01*
G01X0970000Y6030000D02*
G01X0870000Y6030000D01*
G01X0870000Y5930000D02*
G01X0970000Y5930000D01*
G01X0970000Y5930000D02*
G01X0970000Y6030000D01*
G01X1165000Y6030000D02*
G01X1165000Y5230000D01*
G01X1165000Y5230000D02*
G01X1265000Y5230000D01*
G01X1265000Y5230000D02*
G01X1265000Y6030000D01*
G01X1265000Y6030000D02*
G01X1165000Y6030000D01*
G01X1165000Y5930000D02*
G01X1265000Y5930000D01*
G01X1265000Y5930000D02*
G01X1265000Y6030000D01*
G01X1855000Y5630000D02*
G01X1855000Y5430000D01*
G01X1855000Y5430000D02*
G01X2055000Y5430000D01*
G01X2055000Y5430000D02*
G01X2055000Y5630000D01*
G01X2055000Y5630000D02*
G01X1855000Y5630000D01*
G01X1855000Y5530000D02*
G01X1955000Y5530000D01*
G01X1955000Y5530000D02*
G01X1955000Y5630000D01*
G54D11*
G01X1716360Y5449200D02*
G01X1720160Y5445400D01*
G01X1731560Y5445400D02*
G01X1731560Y5434000D01*
G01X1727760Y5449200D02*
G01X1731560Y5445400D01*
G01X1723960Y5449200D02*
G01X1727760Y5449200D01*
G01X1720160Y5445400D02*
G01X1723960Y5449200D01*
G01X1720160Y5445400D02*
G01X1720160Y5434000D01*
G01X1708760Y5445400D02*
G01X1708760Y5434000D01*
G01X1708760Y5456800D02*
G01X1708760Y5456040D01*
G01X1684440Y5437800D02*
G01X1688240Y5434000D01*
G01X1688240Y5434000D02*
G01X1695840Y5434000D01*
G01X1695840Y5434000D02*
G01X1699640Y5437800D01*
G01X1699640Y5445400D02*
G01X1699640Y5437800D01*
G01X1695840Y5449200D02*
G01X1699640Y5445400D01*
G01X1688240Y5449200D02*
G01X1695840Y5449200D01*
G01X1684440Y5445400D02*
G01X1688240Y5449200D01*
G01X1684440Y5445400D02*
G01X1684440Y5437800D01*
G01X1673040Y5422590D02*
G01X1676840Y5426390D01*
G01X1676840Y5445400D02*
G01X1676840Y5426390D01*
G01X1676840Y5456800D02*
G01X1676840Y5456040D01*
G54D12*
G01X1743000Y5472000D02*
G01X1743000Y5422000D01*
G01X1663000Y5472000D02*
G01X1663000Y5422000D01*
G01X1663000Y5472000D02*
G01X1743000Y5472000D01*
G01X1663000Y5422000D02*
G01X1743000Y5422000D01*
G54D11*
G01X1761390Y5579180D02*
G01X1765190Y5575370D01*
G01X1776590Y5575370D02*
G01X1776590Y5563980D01*
G01X1772780Y5579180D02*
G01X1776590Y5575370D01*
G01X1768980Y5579180D02*
G01X1772780Y5579180D01*
G01X1765190Y5575370D02*
G01X1768980Y5579180D01*
G01X1765190Y5575370D02*
G01X1765190Y5563980D01*
G01X1753780Y5575370D02*
G01X1753780Y5563980D01*
G01X1753780Y5586780D02*
G01X1753780Y5586020D01*
G01X1729460Y5567780D02*
G01X1733260Y5563980D01*
G01X1733260Y5563980D02*
G01X1740870Y5563980D01*
G01X1740870Y5563980D02*
G01X1744670Y5567780D01*
G01X1744670Y5575370D02*
G01X1744670Y5567780D01*
G01X1740870Y5579180D02*
G01X1744670Y5575370D01*
G01X1733260Y5579180D02*
G01X1740870Y5579180D01*
G01X1729460Y5575370D02*
G01X1733260Y5579180D01*
G01X1729460Y5575370D02*
G01X1729460Y5567780D01*
G01X1718060Y5552570D02*
G01X1721870Y5556370D01*
G01X1721870Y5575370D02*
G01X1721870Y5556370D01*
G01X1721870Y5586780D02*
G01X1721870Y5586020D01*
G01X1689940Y5567780D02*
G01X1693740Y5563980D01*
G01X1705150Y5579180D02*
G01X1708940Y5575370D01*
G01X1693740Y5579180D02*
G01X1705150Y5579180D01*
G01X1689940Y5575370D02*
G01X1693740Y5579180D01*
G01X1689940Y5575370D02*
G01X1693740Y5571570D01*
G01X1693740Y5571570D02*
G01X1705150Y5571570D01*
G01X1705150Y5571570D02*
G01X1708940Y5567780D01*
G01X1705150Y5563980D02*
G01X1708940Y5567780D01*
G01X1693740Y5563980D02*
G01X1705150Y5563980D01*
G01X1682350Y5575370D02*
G01X1682350Y5563980D01*
G01X1682350Y5586780D02*
G01X1682350Y5586020D01*
G01X1669430Y5579180D02*
G01X1673220Y5575370D01*
G01X1661820Y5579180D02*
G01X1669430Y5579180D01*
G01X1658020Y5575370D02*
G01X1661820Y5579180D01*
G01X1658020Y5575370D02*
G01X1658020Y5567780D01*
G01X1658020Y5567780D02*
G01X1661820Y5563980D01*
G01X1661820Y5563980D02*
G01X1669430Y5563980D01*
G01X1669430Y5563980D02*
G01X1673220Y5567780D01*
G01X1673220Y5594370D02*
G01X1673220Y5563980D01*
G54D12*
G01X1648020Y5551980D02*
G01X1788020Y5551980D01*
G01X1648020Y5601980D02*
G01X1648020Y5551980D01*
G01X1648020Y5601980D02*
G01X1788020Y5601980D01*
G01X1788020Y5601980D02*
G01X1788020Y5551980D01*
G01X0734070Y7160500D02*
G01X0742070Y7168500D01*
G01X0699070Y7160500D02*
G01X0734070Y7160500D01*
G01X0692070Y7167500D02*
G01X0699070Y7160500D01*
G01X0700070Y7200500D02*
G01X0693070Y7193500D01*
G01X0700070Y7200500D02*
G01X0735070Y7200500D01*
G01X0742070Y7193500D02*
G01X0735070Y7200500D01*
G01X0589800Y7320000D02*
G01X0589800Y7312130D01*
G01X0589800Y7298350D02*
G01X0589800Y7290470D01*
G01X0577990Y7298350D02*
G01X0601610Y7298350D01*
G01X0579960Y7312130D02*
G01X0599650Y7312130D01*
G01X0589800Y7302280D02*
G01X0579960Y7312130D01*
G01X0599650Y7312130D02*
G01X0589800Y7302280D01*
G01X0600390Y6859170D02*
G01X0590550Y6849330D01*
G01X0590550Y6849330D02*
G01X0580710Y6859170D01*
G01X0580710Y6859170D02*
G01X0600390Y6859170D01*
G01X0578740Y6845390D02*
G01X0602360Y6845390D01*
G01X0590550Y6845390D02*
G01X0590550Y6837520D01*
G01X0590550Y6867050D02*
G01X0590550Y6859170D01*
G54D10*
G01X0329570Y6940080D02*
G01X0400430Y6940080D01*
G01X0329570Y7219610D02*
G01X0400430Y7219610D01*
G54D12*
G01X0329570Y7296380D02*
G01X0329570Y6865280D01*
G01X0400430Y7296380D02*
G01X0400430Y6865280D01*
G01X0365000Y7087720D02*
G01X0365000Y7071970D01*
G01X0357130Y7079840D02*
G01X0372870Y7079840D01*
G01X0069720Y7398740D02*
G01X0089410Y7398740D01*
G01X0069720Y7398740D02*
G01X0069720Y7379060D01*
G01X0069720Y6760940D02*
G01X0089410Y6760940D01*
G01X0069720Y6780630D02*
G01X0069720Y6760940D01*
G01X0640590Y7398740D02*
G01X0660280Y7398740D01*
G01X0660280Y7398740D02*
G01X0660280Y7379060D01*
G01X0640590Y6760940D02*
G01X0660280Y6760940D01*
G01X0660280Y6780630D02*
G01X0660280Y6760940D01*
G01X0313820Y6908580D02*
G01X0303980Y6898740D01*
G01X0303980Y6908580D02*
G01X0313820Y6898740D01*
G54D13*
G01X0726070Y7292550D02*
G01X0733930Y7292550D01*
G01X0726070Y7237450D02*
G01X0733930Y7237450D01*
G54D10*
G01X1420000Y7360000D02*
G01X1420000Y6760000D01*
G01X1420000Y6760000D02*
G01X1620000Y6760000D01*
G01X1620000Y6760000D02*
G01X1620000Y7360000D01*
G01X1620000Y7360000D02*
G01X1420000Y7360000D01*
G54D12*
G01X1470000Y7310000D02*
G01X1470000Y6810000D01*
G01X1570000Y7310000D02*
G01X1570000Y6810000D01*
G01X1520000Y6760000D02*
G01X1520000Y6860000D01*
G01X1520000Y6860000D02*
G01X1620000Y6860000D01*
G01X1520000Y7260000D02*
G01X1420000Y7260000D01*
G01X1520000Y7260000D02*
G01X1520000Y7360000D01*
G01X1275000Y6860000D02*
G01X1275000Y6760000D01*
G01X1275000Y6860000D02*
G01X1375000Y6860000D01*
G01X1175000Y7260000D02*
G01X1275000Y7260000D01*
G01X1275000Y7360000D02*
G01X1275000Y7260000D01*
G01X1225000Y7310000D02*
G01X1225000Y6810000D01*
G01X1325000Y7310000D02*
G01X1325000Y6810000D01*
G54D10*
G01X1175000Y6760000D02*
G01X1375000Y6760000D01*
G01X1175000Y7360000D02*
G01X1175000Y6760000D01*
G01X1175000Y7360000D02*
G01X1375000Y7360000D01*
G01X1375000Y7360000D02*
G01X1375000Y6760000D01*
G01X1790000Y8132360D02*
G01X1790000Y8089060D01*
G01X1849060Y8030000D02*
G01X1892360Y8030000D01*
G54D12*
G01X1671890Y8030000D02*
G75*
G03X1790000Y7911890I0118110J0000000D01*
G01X1790000Y8148110D02*
G75*
G03X1671890Y8030000I0000000J-118110D01*
G01X1908110Y8030000D02*
G75*
G03X1790000Y8148110I-118110J0000000D01*
G01X1790000Y7911890D02*
G75*
G03X1908110Y8030000I0000000J0118110D01*
G01X1790000Y7872520D02*
G75*
G03X1947480Y8030000I0000000J0157480D01*
G01X1947480Y8030000D02*
G75*
G03X1790000Y8187480I-157480J0000000D01*
G01X1790000Y8187480D02*
G75*
G03X1632520Y8030000I0000000J-157480D01*
G01X1632520Y8030000D02*
G75*
G03X1790000Y7872520I0157480J0000000D01*
G54D10*
G01X1986850Y8030000D02*
G75*
G03X1790000Y8226850I-196850J0000000D01*
G01X1790000Y8226850D02*
G75*
G03X1593150Y8030000I0000000J-196850D01*
G01X1593150Y8030000D02*
G75*
G03X1790000Y7833150I0196850J0000000D01*
G01X1790000Y7833150D02*
G75*
G03X1986850Y8030000I0000000J0196850D01*
G01X2225000Y4775000D02*
G01X2220000Y4780000D01*
G01X2125000Y4875000D02*
G01X2130000Y4870000D01*
G01X2125000Y4775000D02*
G01X2130000Y4780000D01*
G01X2225000Y4875000D02*
G01X2220000Y4870000D01*
G01X2125000Y8125000D02*
G01X2130000Y8120000D01*
G01X2125000Y8025000D02*
G01X2130000Y8030000D01*
G01X2225000Y8125000D02*
G01X2220000Y8120000D01*
G01X2225000Y8025000D02*
G01X2220000Y8030000D01*
G01X2130000Y8230000D02*
G01X2220000Y8230000D01*
G01X2130000Y4670000D02*
G01X2220000Y4670000D01*
G01X2175000Y6450000D02*
G01X2325000Y6450000D01*
G01X2325000Y6460000D02*
G01X2325000Y6440000D01*
G01X2075000Y6460000D02*
G01X2075000Y6440000D01*
G01X2575000Y6460000D02*
G01X2575000Y6440000D01*
G01X2475000Y8230000D02*
G01X2575000Y8230000D01*
G01X2575000Y8230000D02*
G01X2575000Y8130000D01*
G01X2475000Y4670000D02*
G01X2575000Y4670000D01*
G01X2575000Y4770000D02*
G01X2575000Y4670000D01*
G01X2075000Y4770000D02*
G01X2075000Y4670000D01*
G01X2075000Y8230000D02*
G01X2075000Y8130000D01*
G54D12*
G01X0915630Y7772170D02*
G01X0994370Y7772170D01*
G01X0915630Y7417830D02*
G01X0994370Y7417830D01*
G01X0069170Y7634370D02*
G01X0069170Y7555630D01*
G01X1840830Y7634370D02*
G01X1840830Y7555630D01*
G01X1840830Y7772170D02*
G01X1840830Y7693430D01*
G01X1840830Y7772170D02*
G01X1762090Y7772170D01*
G01X1840830Y7417830D02*
G01X1840830Y7496570D01*
G01X1840830Y7417830D02*
G01X1762090Y7417830D01*
G01X0069170Y7772170D02*
G01X0147910Y7772170D01*
G01X0069170Y7772170D02*
G01X0069170Y7693430D01*
G01X0069170Y7417830D02*
G01X0069170Y7496570D01*
G01X0069170Y7417830D02*
G01X0147910Y7417830D01*
G54D13*
G01X0921070Y7302550D02*
G01X0928930Y7302550D01*
G01X0921070Y7247450D02*
G01X0928930Y7247450D01*
G54D10*
G01X0065710Y8127480D02*
G01X0065710Y7808580D01*
G01X0065710Y7808580D02*
G01X0683820Y7808580D01*
G01X0683820Y7808580D02*
G01X0683820Y8127480D01*
G01X0683820Y8127480D02*
G01X0065710Y8127480D01*
G01X0616890Y8127480D02*
G01X0683820Y8060550D01*
G01X0616890Y7808580D02*
G01X0683820Y7875510D01*
G01X0235000Y8127480D02*
G01X0235000Y7808580D01*
G01X0518460Y8127480D02*
G01X0518460Y7808580D01*
G01X0065710Y7970000D02*
G01X0683820Y7970000D01*
G54D14*
G01X0822830Y8086610D02*
G01X0822830Y8047240D01*
G01X0822830Y8086610D02*
G01X0787400Y8122050D01*
G01X0772910Y8042050D02*
G01X0822830Y8042050D01*
G01X0728350Y8082680D02*
G01X0732280Y8082680D01*
G01X0772910Y8042050D02*
G01X0732280Y8082680D01*
G01X0970470Y8086610D02*
G01X0970470Y8047240D01*
G01X0970470Y8086610D02*
G01X0935040Y8122050D01*
G01X0920550Y8042050D02*
G01X0970470Y8042050D01*
G01X0875980Y8082680D02*
G01X0879920Y8082680D01*
G01X0920550Y8042050D02*
G01X0879920Y8082680D01*
G54D10*
G01X0080000Y5630000D02*
G01X0080000Y5430000D01*
G01X0080000Y5430000D02*
G01X0280000Y5430000D01*
G01X0280000Y5430000D02*
G01X0280000Y5630000D01*
G01X0280000Y5630000D02*
G01X0080000Y5630000D01*
G01X0080000Y5530000D02*
G01X0180000Y5530000D01*
G01X0180000Y5530000D02*
G01X0180000Y5630000D01*
G01X1615000Y0500000D02*
G01X1615000Y0460000D01*
G01X1515000Y0500000D02*
G01X1515000Y0460000D01*
G01X1415000Y0500000D02*
G01X1415000Y0460000D01*
G01X1315000Y0500000D02*
G01X1315000Y0460000D01*
G01X1215000Y0500000D02*
G01X1215000Y0460000D01*
G01X0920000Y0500000D02*
G01X0920000Y0460000D01*
G01X0820000Y0500000D02*
G01X0820000Y0460000D01*
G01X0720000Y0500000D02*
G01X0720000Y0460000D01*
G01X0620000Y0500000D02*
G01X0620000Y0460000D01*
G01X0520000Y0500000D02*
G01X0520000Y0460000D01*
G01X1215000Y0480000D02*
G01X1615000Y0480000D01*
G01X0520000Y0480000D02*
G01X0920000Y0480000D01*
G01X1615000Y0600000D02*
G01X1615000Y0560000D01*
G01X1515000Y0600000D02*
G01X1515000Y0560000D01*
G01X1415000Y0600000D02*
G01X1415000Y0560000D01*
G01X1315000Y0600000D02*
G01X1315000Y0560000D01*
G01X1215000Y0600000D02*
G01X1215000Y0560000D01*
G01X0920000Y0600000D02*
G01X0920000Y0560000D01*
G01X0820000Y0600000D02*
G01X0820000Y0560000D01*
G01X0720000Y0600000D02*
G01X0720000Y0560000D01*
G01X0620000Y0600000D02*
G01X0620000Y0560000D01*
G01X0520000Y0600000D02*
G01X0520000Y0560000D01*
G01X1215000Y0580000D02*
G01X1615000Y0580000D01*
G01X0520000Y0580000D02*
G01X0920000Y0580000D01*
G01X1615000Y1000000D02*
G01X1615000Y0960000D01*
G01X1515000Y1000000D02*
G01X1515000Y0960000D01*
G01X1415000Y1000000D02*
G01X1415000Y0960000D01*
G01X1315000Y1000000D02*
G01X1315000Y0960000D01*
G01X1215000Y1000000D02*
G01X1215000Y0960000D01*
G01X0920000Y1000000D02*
G01X0920000Y0960000D01*
G01X0820000Y1000000D02*
G01X0820000Y0960000D01*
G01X0720000Y1000000D02*
G01X0720000Y0960000D01*
G01X0620000Y1000000D02*
G01X0620000Y0960000D01*
G01X0520000Y1000000D02*
G01X0520000Y0960000D01*
G01X1215000Y0980000D02*
G01X1615000Y0980000D01*
G01X0520000Y0980000D02*
G01X0920000Y0980000D01*
G01X0250000Y0780000D02*
G01X0280000Y0780000D01*
G01X0250000Y1280000D02*
G01X0280000Y1280000D01*
G01X0250000Y1780000D02*
G01X0280000Y1780000D01*
G01X0250000Y2280000D02*
G01X0280000Y2280000D01*
G01X0250000Y2780000D02*
G01X0280000Y2780000D01*
G01X0250000Y3280000D02*
G01X0280000Y3280000D01*
G01X0250000Y3780000D02*
G01X0280000Y3780000D01*
G01X0250000Y4280000D02*
G01X0280000Y4280000D01*
G01X0250000Y4780000D02*
G01X0280000Y4780000D01*
G01X0250000Y5280000D02*
G01X0280000Y5280000D01*
G01X0250000Y5780000D02*
G01X0280000Y5780000D01*
G01X0250000Y6280000D02*
G01X0280000Y6280000D01*
G01X0250000Y6680000D02*
G01X0280000Y6680000D01*
G01X1615000Y0700000D02*
G01X1615000Y0660000D01*
G01X1515000Y0700000D02*
G01X1515000Y0660000D01*
G01X1415000Y0700000D02*
G01X1415000Y0660000D01*
G01X1315000Y0700000D02*
G01X1315000Y0660000D01*
G01X1215000Y0700000D02*
G01X1215000Y0660000D01*
G01X0920000Y0700000D02*
G01X0920000Y0660000D01*
G01X0820000Y0700000D02*
G01X0820000Y0660000D01*
G01X0720000Y0700000D02*
G01X0720000Y0660000D01*
G01X0620000Y0700000D02*
G01X0620000Y0660000D01*
G01X0520000Y0700000D02*
G01X0520000Y0660000D01*
G01X1215000Y0680000D02*
G01X1615000Y0680000D01*
G01X0520000Y0680000D02*
G01X0920000Y0680000D01*
G01X1615000Y0800000D02*
G01X1615000Y0760000D01*
G01X1515000Y0800000D02*
G01X1515000Y0760000D01*
G01X1415000Y0800000D02*
G01X1415000Y0760000D01*
G01X1315000Y0800000D02*
G01X1315000Y0760000D01*
G01X1215000Y0800000D02*
G01X1215000Y0760000D01*
G01X0920000Y0800000D02*
G01X0920000Y0760000D01*
G01X0820000Y0800000D02*
G01X0820000Y0760000D01*
G01X0720000Y0800000D02*
G01X0720000Y0760000D01*
G01X0620000Y0800000D02*
G01X0620000Y0760000D01*
G01X0520000Y0800000D02*
G01X0520000Y0760000D01*
G01X1215000Y0780000D02*
G01X1615000Y0780000D01*
G01X0520000Y0780000D02*
G01X0920000Y0780000D01*
G01X1615000Y0900000D02*
G01X1615000Y0860000D01*
G01X1515000Y0900000D02*
G01X1515000Y0860000D01*
G01X1415000Y0900000D02*
G01X1415000Y0860000D01*
G01X1315000Y0900000D02*
G01X1315000Y0860000D01*
G01X1215000Y0900000D02*
G01X1215000Y0860000D01*
G01X0920000Y0900000D02*
G01X0920000Y0860000D01*
G01X0820000Y0900000D02*
G01X0820000Y0860000D01*
G01X0720000Y0900000D02*
G01X0720000Y0860000D01*
G01X0620000Y0900000D02*
G01X0620000Y0860000D01*
G01X0520000Y0900000D02*
G01X0520000Y0860000D01*
G01X1215000Y0880000D02*
G01X1615000Y0880000D01*
G01X0520000Y0880000D02*
G01X0920000Y0880000D01*
G01X1615000Y1100000D02*
G01X1615000Y1060000D01*
G01X1515000Y1100000D02*
G01X1515000Y1060000D01*
G01X1415000Y1100000D02*
G01X1415000Y1060000D01*
G01X1315000Y1100000D02*
G01X1315000Y1060000D01*
G01X1215000Y1100000D02*
G01X1215000Y1060000D01*
G01X0920000Y1100000D02*
G01X0920000Y1060000D01*
G01X0820000Y1100000D02*
G01X0820000Y1060000D01*
G01X0720000Y1100000D02*
G01X0720000Y1060000D01*
G01X0620000Y1100000D02*
G01X0620000Y1060000D01*
G01X0520000Y1100000D02*
G01X0520000Y1060000D01*
G01X1215000Y1080000D02*
G01X1615000Y1080000D01*
G01X0520000Y1080000D02*
G01X0920000Y1080000D01*
G01X1615000Y1200000D02*
G01X1615000Y1160000D01*
G01X1515000Y1200000D02*
G01X1515000Y1160000D01*
G01X1415000Y1200000D02*
G01X1415000Y1160000D01*
G01X1315000Y1200000D02*
G01X1315000Y1160000D01*
G01X1215000Y1200000D02*
G01X1215000Y1160000D01*
G01X0920000Y1200000D02*
G01X0920000Y1160000D01*
G01X0820000Y1200000D02*
G01X0820000Y1160000D01*
G01X0720000Y1200000D02*
G01X0720000Y1160000D01*
G01X0620000Y1200000D02*
G01X0620000Y1160000D01*
G01X0520000Y1200000D02*
G01X0520000Y1160000D01*
G01X1215000Y1180000D02*
G01X1615000Y1180000D01*
G01X0520000Y1180000D02*
G01X0920000Y1180000D01*
G01X1615000Y1300000D02*
G01X1615000Y1260000D01*
G01X1515000Y1300000D02*
G01X1515000Y1260000D01*
G01X1415000Y1300000D02*
G01X1415000Y1260000D01*
G01X1315000Y1300000D02*
G01X1315000Y1260000D01*
G01X1215000Y1300000D02*
G01X1215000Y1260000D01*
G01X0920000Y1300000D02*
G01X0920000Y1260000D01*
G01X0820000Y1300000D02*
G01X0820000Y1260000D01*
G01X0720000Y1300000D02*
G01X0720000Y1260000D01*
G01X0620000Y1300000D02*
G01X0620000Y1260000D01*
G01X0520000Y1300000D02*
G01X0520000Y1260000D01*
G01X1215000Y1280000D02*
G01X1615000Y1280000D01*
G01X0520000Y1280000D02*
G01X0920000Y1280000D01*
G01X1615000Y1400000D02*
G01X1615000Y1360000D01*
G01X1515000Y1400000D02*
G01X1515000Y1360000D01*
G01X1415000Y1400000D02*
G01X1415000Y1360000D01*
G01X1315000Y1400000D02*
G01X1315000Y1360000D01*
G01X1215000Y1400000D02*
G01X1215000Y1360000D01*
G01X0920000Y1400000D02*
G01X0920000Y1360000D01*
G01X0820000Y1400000D02*
G01X0820000Y1360000D01*
G01X0720000Y1400000D02*
G01X0720000Y1360000D01*
G01X0620000Y1400000D02*
G01X0620000Y1360000D01*
G01X0520000Y1400000D02*
G01X0520000Y1360000D01*
G01X1215000Y1380000D02*
G01X1615000Y1380000D01*
G01X0520000Y1380000D02*
G01X0920000Y1380000D01*
G01X1615000Y1500000D02*
G01X1615000Y1460000D01*
G01X1515000Y1500000D02*
G01X1515000Y1460000D01*
G01X1415000Y1500000D02*
G01X1415000Y1460000D01*
G01X1315000Y1500000D02*
G01X1315000Y1460000D01*
G01X1215000Y1500000D02*
G01X1215000Y1460000D01*
G01X0920000Y1500000D02*
G01X0920000Y1460000D01*
G01X0820000Y1500000D02*
G01X0820000Y1460000D01*
G01X0720000Y1500000D02*
G01X0720000Y1460000D01*
G01X0620000Y1500000D02*
G01X0620000Y1460000D01*
G01X0520000Y1500000D02*
G01X0520000Y1460000D01*
G01X1215000Y1480000D02*
G01X1615000Y1480000D01*
G01X0520000Y1480000D02*
G01X0920000Y1480000D01*
G01X1615000Y1600000D02*
G01X1615000Y1560000D01*
G01X1515000Y1600000D02*
G01X1515000Y1560000D01*
G01X1415000Y1600000D02*
G01X1415000Y1560000D01*
G01X1315000Y1600000D02*
G01X1315000Y1560000D01*
G01X1215000Y1600000D02*
G01X1215000Y1560000D01*
G01X0920000Y1600000D02*
G01X0920000Y1560000D01*
G01X0820000Y1600000D02*
G01X0820000Y1560000D01*
G01X0720000Y1600000D02*
G01X0720000Y1560000D01*
G01X0620000Y1600000D02*
G01X0620000Y1560000D01*
G01X0520000Y1600000D02*
G01X0520000Y1560000D01*
G01X1215000Y1580000D02*
G01X1615000Y1580000D01*
G01X0520000Y1580000D02*
G01X0920000Y1580000D01*
G01X1615000Y1700000D02*
G01X1615000Y1660000D01*
G01X1515000Y1700000D02*
G01X1515000Y1660000D01*
G01X1415000Y1700000D02*
G01X1415000Y1660000D01*
G01X1315000Y1700000D02*
G01X1315000Y1660000D01*
G01X1215000Y1700000D02*
G01X1215000Y1660000D01*
G01X0920000Y1700000D02*
G01X0920000Y1660000D01*
G01X0820000Y1700000D02*
G01X0820000Y1660000D01*
G01X0720000Y1700000D02*
G01X0720000Y1660000D01*
G01X0620000Y1700000D02*
G01X0620000Y1660000D01*
G01X0520000Y1700000D02*
G01X0520000Y1660000D01*
G01X1215000Y1680000D02*
G01X1615000Y1680000D01*
G01X0520000Y1680000D02*
G01X0920000Y1680000D01*
G01X1615000Y1800000D02*
G01X1615000Y1760000D01*
G01X1515000Y1800000D02*
G01X1515000Y1760000D01*
G01X1415000Y1800000D02*
G01X1415000Y1760000D01*
G01X1315000Y1800000D02*
G01X1315000Y1760000D01*
G01X1215000Y1800000D02*
G01X1215000Y1760000D01*
G01X0920000Y1800000D02*
G01X0920000Y1760000D01*
G01X0820000Y1800000D02*
G01X0820000Y1760000D01*
G01X0720000Y1800000D02*
G01X0720000Y1760000D01*
G01X0620000Y1800000D02*
G01X0620000Y1760000D01*
G01X0520000Y1800000D02*
G01X0520000Y1760000D01*
G01X1215000Y1780000D02*
G01X1615000Y1780000D01*
G01X0520000Y1780000D02*
G01X0920000Y1780000D01*
G01X1615000Y1900000D02*
G01X1615000Y1860000D01*
G01X1515000Y1900000D02*
G01X1515000Y1860000D01*
G01X1415000Y1900000D02*
G01X1415000Y1860000D01*
G01X1315000Y1900000D02*
G01X1315000Y1860000D01*
G01X1215000Y1900000D02*
G01X1215000Y1860000D01*
G01X0920000Y1900000D02*
G01X0920000Y1860000D01*
G01X0820000Y1900000D02*
G01X0820000Y1860000D01*
G01X0720000Y1900000D02*
G01X0720000Y1860000D01*
G01X0620000Y1900000D02*
G01X0620000Y1860000D01*
G01X0520000Y1900000D02*
G01X0520000Y1860000D01*
G01X1215000Y1880000D02*
G01X1615000Y1880000D01*
G01X0520000Y1880000D02*
G01X0920000Y1880000D01*
G01X1615000Y2000000D02*
G01X1615000Y1960000D01*
G01X1515000Y2000000D02*
G01X1515000Y1960000D01*
G01X1415000Y2000000D02*
G01X1415000Y1960000D01*
G01X1315000Y2000000D02*
G01X1315000Y1960000D01*
G01X1215000Y2000000D02*
G01X1215000Y1960000D01*
G01X0920000Y2000000D02*
G01X0920000Y1960000D01*
G01X0820000Y2000000D02*
G01X0820000Y1960000D01*
G01X0720000Y2000000D02*
G01X0720000Y1960000D01*
G01X0620000Y2000000D02*
G01X0620000Y1960000D01*
G01X0520000Y2000000D02*
G01X0520000Y1960000D01*
G01X1215000Y1980000D02*
G01X1615000Y1980000D01*
G01X0520000Y1980000D02*
G01X0920000Y1980000D01*
G01X1615000Y2100000D02*
G01X1615000Y2060000D01*
G01X1515000Y2100000D02*
G01X1515000Y2060000D01*
G01X1415000Y2100000D02*
G01X1415000Y2060000D01*
G01X1315000Y2100000D02*
G01X1315000Y2060000D01*
G01X1215000Y2100000D02*
G01X1215000Y2060000D01*
G01X0920000Y2100000D02*
G01X0920000Y2060000D01*
G01X0820000Y2100000D02*
G01X0820000Y2060000D01*
G01X0720000Y2100000D02*
G01X0720000Y2060000D01*
G01X0620000Y2100000D02*
G01X0620000Y2060000D01*
G01X0520000Y2100000D02*
G01X0520000Y2060000D01*
G01X1215000Y2080000D02*
G01X1615000Y2080000D01*
G01X0520000Y2080000D02*
G01X0920000Y2080000D01*
G01X1615000Y2200000D02*
G01X1615000Y2160000D01*
G01X1515000Y2200000D02*
G01X1515000Y2160000D01*
G01X1415000Y2200000D02*
G01X1415000Y2160000D01*
G01X1315000Y2200000D02*
G01X1315000Y2160000D01*
G01X1215000Y2200000D02*
G01X1215000Y2160000D01*
G01X0920000Y2200000D02*
G01X0920000Y2160000D01*
G01X0820000Y2200000D02*
G01X0820000Y2160000D01*
G01X0720000Y2200000D02*
G01X0720000Y2160000D01*
G01X0620000Y2200000D02*
G01X0620000Y2160000D01*
G01X0520000Y2200000D02*
G01X0520000Y2160000D01*
G01X1215000Y2180000D02*
G01X1615000Y2180000D01*
G01X0520000Y2180000D02*
G01X0920000Y2180000D01*
G01X1615000Y2300000D02*
G01X1615000Y2260000D01*
G01X1515000Y2300000D02*
G01X1515000Y2260000D01*
G01X1415000Y2300000D02*
G01X1415000Y2260000D01*
G01X1315000Y2300000D02*
G01X1315000Y2260000D01*
G01X1215000Y2300000D02*
G01X1215000Y2260000D01*
G01X0920000Y2300000D02*
G01X0920000Y2260000D01*
G01X0820000Y2300000D02*
G01X0820000Y2260000D01*
G01X0720000Y2300000D02*
G01X0720000Y2260000D01*
G01X0620000Y2300000D02*
G01X0620000Y2260000D01*
G01X0520000Y2300000D02*
G01X0520000Y2260000D01*
G01X1215000Y2280000D02*
G01X1615000Y2280000D01*
G01X0520000Y2280000D02*
G01X0920000Y2280000D01*
G01X1615000Y2400000D02*
G01X1615000Y2360000D01*
G01X1515000Y2400000D02*
G01X1515000Y2360000D01*
G01X1415000Y2400000D02*
G01X1415000Y2360000D01*
G01X1315000Y2400000D02*
G01X1315000Y2360000D01*
G01X1215000Y2400000D02*
G01X1215000Y2360000D01*
G01X0920000Y2400000D02*
G01X0920000Y2360000D01*
G01X0820000Y2400000D02*
G01X0820000Y2360000D01*
G01X0720000Y2400000D02*
G01X0720000Y2360000D01*
G01X0620000Y2400000D02*
G01X0620000Y2360000D01*
G01X0520000Y2400000D02*
G01X0520000Y2360000D01*
G01X1215000Y2380000D02*
G01X1615000Y2380000D01*
G01X0520000Y2380000D02*
G01X0920000Y2380000D01*
G01X1615000Y2500000D02*
G01X1615000Y2460000D01*
G01X1515000Y2500000D02*
G01X1515000Y2460000D01*
G01X1415000Y2500000D02*
G01X1415000Y2460000D01*
G01X1315000Y2500000D02*
G01X1315000Y2460000D01*
G01X1215000Y2500000D02*
G01X1215000Y2460000D01*
G01X0920000Y2500000D02*
G01X0920000Y2460000D01*
G01X0820000Y2500000D02*
G01X0820000Y2460000D01*
G01X0720000Y2500000D02*
G01X0720000Y2460000D01*
G01X0620000Y2500000D02*
G01X0620000Y2460000D01*
G01X0520000Y2500000D02*
G01X0520000Y2460000D01*
G01X1215000Y2480000D02*
G01X1615000Y2480000D01*
G01X0520000Y2480000D02*
G01X0920000Y2480000D01*
G01X1615000Y2600000D02*
G01X1615000Y2560000D01*
G01X1515000Y2600000D02*
G01X1515000Y2560000D01*
G01X1415000Y2600000D02*
G01X1415000Y2560000D01*
G01X1315000Y2600000D02*
G01X1315000Y2560000D01*
G01X1215000Y2600000D02*
G01X1215000Y2560000D01*
G01X0920000Y2600000D02*
G01X0920000Y2560000D01*
G01X0820000Y2600000D02*
G01X0820000Y2560000D01*
G01X0720000Y2600000D02*
G01X0720000Y2560000D01*
G01X0620000Y2600000D02*
G01X0620000Y2560000D01*
G01X0520000Y2600000D02*
G01X0520000Y2560000D01*
G01X1215000Y2580000D02*
G01X1615000Y2580000D01*
G01X0520000Y2580000D02*
G01X0920000Y2580000D01*
G01X1615000Y2700000D02*
G01X1615000Y2660000D01*
G01X1515000Y2700000D02*
G01X1515000Y2660000D01*
G01X1415000Y2700000D02*
G01X1415000Y2660000D01*
G01X1315000Y2700000D02*
G01X1315000Y2660000D01*
G01X1215000Y2700000D02*
G01X1215000Y2660000D01*
G01X0920000Y2700000D02*
G01X0920000Y2660000D01*
G01X0820000Y2700000D02*
G01X0820000Y2660000D01*
G01X0720000Y2700000D02*
G01X0720000Y2660000D01*
G01X0620000Y2700000D02*
G01X0620000Y2660000D01*
G01X0520000Y2700000D02*
G01X0520000Y2660000D01*
G01X1215000Y2680000D02*
G01X1615000Y2680000D01*
G01X0520000Y2680000D02*
G01X0920000Y2680000D01*
G01X1615000Y2800000D02*
G01X1615000Y2760000D01*
G01X1515000Y2800000D02*
G01X1515000Y2760000D01*
G01X1415000Y2800000D02*
G01X1415000Y2760000D01*
G01X1315000Y2800000D02*
G01X1315000Y2760000D01*
G01X1215000Y2800000D02*
G01X1215000Y2760000D01*
G01X0920000Y2800000D02*
G01X0920000Y2760000D01*
G01X0820000Y2800000D02*
G01X0820000Y2760000D01*
G01X0720000Y2800000D02*
G01X0720000Y2760000D01*
G01X0620000Y2800000D02*
G01X0620000Y2760000D01*
G01X0520000Y2800000D02*
G01X0520000Y2760000D01*
G01X1215000Y2780000D02*
G01X1615000Y2780000D01*
G01X0520000Y2780000D02*
G01X0920000Y2780000D01*
G01X1615000Y2900000D02*
G01X1615000Y2860000D01*
G01X1515000Y2900000D02*
G01X1515000Y2860000D01*
G01X1415000Y2900000D02*
G01X1415000Y2860000D01*
G01X1315000Y2900000D02*
G01X1315000Y2860000D01*
G01X1215000Y2900000D02*
G01X1215000Y2860000D01*
G01X0920000Y2900000D02*
G01X0920000Y2860000D01*
G01X0820000Y2900000D02*
G01X0820000Y2860000D01*
G01X0720000Y2900000D02*
G01X0720000Y2860000D01*
G01X0620000Y2900000D02*
G01X0620000Y2860000D01*
G01X0520000Y2900000D02*
G01X0520000Y2860000D01*
G01X1215000Y2880000D02*
G01X1615000Y2880000D01*
G01X0520000Y2880000D02*
G01X0920000Y2880000D01*
G01X1615000Y3000000D02*
G01X1615000Y2960000D01*
G01X1515000Y3000000D02*
G01X1515000Y2960000D01*
G01X1415000Y3000000D02*
G01X1415000Y2960000D01*
G01X1315000Y3000000D02*
G01X1315000Y2960000D01*
G01X1215000Y3000000D02*
G01X1215000Y2960000D01*
G01X0920000Y3000000D02*
G01X0920000Y2960000D01*
G01X0820000Y3000000D02*
G01X0820000Y2960000D01*
G01X0720000Y3000000D02*
G01X0720000Y2960000D01*
G01X0620000Y3000000D02*
G01X0620000Y2960000D01*
G01X0520000Y3000000D02*
G01X0520000Y2960000D01*
G01X1215000Y2980000D02*
G01X1615000Y2980000D01*
G01X0520000Y2980000D02*
G01X0920000Y2980000D01*
G01X1615000Y3100000D02*
G01X1615000Y3060000D01*
G01X1515000Y3100000D02*
G01X1515000Y3060000D01*
G01X1415000Y3100000D02*
G01X1415000Y3060000D01*
G01X1315000Y3100000D02*
G01X1315000Y3060000D01*
G01X1215000Y3100000D02*
G01X1215000Y3060000D01*
G01X0920000Y3100000D02*
G01X0920000Y3060000D01*
G01X0820000Y3100000D02*
G01X0820000Y3060000D01*
G01X0720000Y3100000D02*
G01X0720000Y3060000D01*
G01X0620000Y3100000D02*
G01X0620000Y3060000D01*
G01X0520000Y3100000D02*
G01X0520000Y3060000D01*
G01X1215000Y3080000D02*
G01X1615000Y3080000D01*
G01X0520000Y3080000D02*
G01X0920000Y3080000D01*
G01X1615000Y3200000D02*
G01X1615000Y3160000D01*
G01X1515000Y3200000D02*
G01X1515000Y3160000D01*
G01X1415000Y3200000D02*
G01X1415000Y3160000D01*
G01X1315000Y3200000D02*
G01X1315000Y3160000D01*
G01X1215000Y3200000D02*
G01X1215000Y3160000D01*
G01X0920000Y3200000D02*
G01X0920000Y3160000D01*
G01X0820000Y3200000D02*
G01X0820000Y3160000D01*
G01X0720000Y3200000D02*
G01X0720000Y3160000D01*
G01X0620000Y3200000D02*
G01X0620000Y3160000D01*
G01X0520000Y3200000D02*
G01X0520000Y3160000D01*
G01X1215000Y3180000D02*
G01X1615000Y3180000D01*
G01X0520000Y3180000D02*
G01X0920000Y3180000D01*
G01X1615000Y3300000D02*
G01X1615000Y3260000D01*
G01X1515000Y3300000D02*
G01X1515000Y3260000D01*
G01X1415000Y3300000D02*
G01X1415000Y3260000D01*
G01X1315000Y3300000D02*
G01X1315000Y3260000D01*
G01X1215000Y3300000D02*
G01X1215000Y3260000D01*
G01X0920000Y3300000D02*
G01X0920000Y3260000D01*
G01X0820000Y3300000D02*
G01X0820000Y3260000D01*
G01X0720000Y3300000D02*
G01X0720000Y3260000D01*
G01X0620000Y3300000D02*
G01X0620000Y3260000D01*
G01X0520000Y3300000D02*
G01X0520000Y3260000D01*
G01X1215000Y3280000D02*
G01X1615000Y3280000D01*
G01X0520000Y3280000D02*
G01X0920000Y3280000D01*
G01X1615000Y3400000D02*
G01X1615000Y3360000D01*
G01X1515000Y3400000D02*
G01X1515000Y3360000D01*
G01X1415000Y3400000D02*
G01X1415000Y3360000D01*
G01X1315000Y3400000D02*
G01X1315000Y3360000D01*
G01X1215000Y3400000D02*
G01X1215000Y3360000D01*
G01X0920000Y3400000D02*
G01X0920000Y3360000D01*
G01X0820000Y3400000D02*
G01X0820000Y3360000D01*
G01X0720000Y3400000D02*
G01X0720000Y3360000D01*
G01X0620000Y3400000D02*
G01X0620000Y3360000D01*
G01X0520000Y3400000D02*
G01X0520000Y3360000D01*
G01X1215000Y3380000D02*
G01X1615000Y3380000D01*
G01X0520000Y3380000D02*
G01X0920000Y3380000D01*
G01X1615000Y3500000D02*
G01X1615000Y3460000D01*
G01X1515000Y3500000D02*
G01X1515000Y3460000D01*
G01X1415000Y3500000D02*
G01X1415000Y3460000D01*
G01X1315000Y3500000D02*
G01X1315000Y3460000D01*
G01X1215000Y3500000D02*
G01X1215000Y3460000D01*
G01X0920000Y3500000D02*
G01X0920000Y3460000D01*
G01X0820000Y3500000D02*
G01X0820000Y3460000D01*
G01X0720000Y3500000D02*
G01X0720000Y3460000D01*
G01X0620000Y3500000D02*
G01X0620000Y3460000D01*
G01X0520000Y3500000D02*
G01X0520000Y3460000D01*
G01X1215000Y3480000D02*
G01X1615000Y3480000D01*
G01X0520000Y3480000D02*
G01X0920000Y3480000D01*
G01X1615000Y3600000D02*
G01X1615000Y3560000D01*
G01X1515000Y3600000D02*
G01X1515000Y3560000D01*
G01X1415000Y3600000D02*
G01X1415000Y3560000D01*
G01X1315000Y3600000D02*
G01X1315000Y3560000D01*
G01X1215000Y3600000D02*
G01X1215000Y3560000D01*
G01X0920000Y3600000D02*
G01X0920000Y3560000D01*
G01X0820000Y3600000D02*
G01X0820000Y3560000D01*
G01X0720000Y3600000D02*
G01X0720000Y3560000D01*
G01X0620000Y3600000D02*
G01X0620000Y3560000D01*
G01X0520000Y3600000D02*
G01X0520000Y3560000D01*
G01X1215000Y3580000D02*
G01X1615000Y3580000D01*
G01X0520000Y3580000D02*
G01X0920000Y3580000D01*
G01X1615000Y3700000D02*
G01X1615000Y3660000D01*
G01X1515000Y3700000D02*
G01X1515000Y3660000D01*
G01X1415000Y3700000D02*
G01X1415000Y3660000D01*
G01X1315000Y3700000D02*
G01X1315000Y3660000D01*
G01X1215000Y3700000D02*
G01X1215000Y3660000D01*
G01X0920000Y3700000D02*
G01X0920000Y3660000D01*
G01X0820000Y3700000D02*
G01X0820000Y3660000D01*
G01X0720000Y3700000D02*
G01X0720000Y3660000D01*
G01X0620000Y3700000D02*
G01X0620000Y3660000D01*
G01X0520000Y3700000D02*
G01X0520000Y3660000D01*
G01X1215000Y3680000D02*
G01X1615000Y3680000D01*
G01X0520000Y3680000D02*
G01X0920000Y3680000D01*
G01X1615000Y3800000D02*
G01X1615000Y3760000D01*
G01X1515000Y3800000D02*
G01X1515000Y3760000D01*
G01X1415000Y3800000D02*
G01X1415000Y3760000D01*
G01X1315000Y3800000D02*
G01X1315000Y3760000D01*
G01X1215000Y3800000D02*
G01X1215000Y3760000D01*
G01X0920000Y3800000D02*
G01X0920000Y3760000D01*
G01X0820000Y3800000D02*
G01X0820000Y3760000D01*
G01X0720000Y3800000D02*
G01X0720000Y3760000D01*
G01X0620000Y3800000D02*
G01X0620000Y3760000D01*
G01X0520000Y3800000D02*
G01X0520000Y3760000D01*
G01X1215000Y3780000D02*
G01X1615000Y3780000D01*
G01X0520000Y3780000D02*
G01X0920000Y3780000D01*
G01X1615000Y3900000D02*
G01X1615000Y3860000D01*
G01X1515000Y3900000D02*
G01X1515000Y3860000D01*
G01X1415000Y3900000D02*
G01X1415000Y3860000D01*
G01X1315000Y3900000D02*
G01X1315000Y3860000D01*
G01X1215000Y3900000D02*
G01X1215000Y3860000D01*
G01X0920000Y3900000D02*
G01X0920000Y3860000D01*
G01X0820000Y3900000D02*
G01X0820000Y3860000D01*
G01X0720000Y3900000D02*
G01X0720000Y3860000D01*
G01X0620000Y3900000D02*
G01X0620000Y3860000D01*
G01X0520000Y3900000D02*
G01X0520000Y3860000D01*
G01X1215000Y3880000D02*
G01X1615000Y3880000D01*
G01X0520000Y3880000D02*
G01X0920000Y3880000D01*
G01X1615000Y4000000D02*
G01X1615000Y3960000D01*
G01X1515000Y4000000D02*
G01X1515000Y3960000D01*
G01X1415000Y4000000D02*
G01X1415000Y3960000D01*
G01X1315000Y4000000D02*
G01X1315000Y3960000D01*
G01X1215000Y4000000D02*
G01X1215000Y3960000D01*
G01X0920000Y4000000D02*
G01X0920000Y3960000D01*
G01X0820000Y4000000D02*
G01X0820000Y3960000D01*
G01X0720000Y4000000D02*
G01X0720000Y3960000D01*
G01X0620000Y4000000D02*
G01X0620000Y3960000D01*
G01X0520000Y4000000D02*
G01X0520000Y3960000D01*
G01X1215000Y3980000D02*
G01X1615000Y3980000D01*
G01X0520000Y3980000D02*
G01X0920000Y3980000D01*
G01X1615000Y4100000D02*
G01X1615000Y4060000D01*
G01X1515000Y4100000D02*
G01X1515000Y4060000D01*
G01X1415000Y4100000D02*
G01X1415000Y4060000D01*
G01X1315000Y4100000D02*
G01X1315000Y4060000D01*
G01X1215000Y4100000D02*
G01X1215000Y4060000D01*
G01X0920000Y4100000D02*
G01X0920000Y4060000D01*
G01X0820000Y4100000D02*
G01X0820000Y4060000D01*
G01X0720000Y4100000D02*
G01X0720000Y4060000D01*
G01X0620000Y4100000D02*
G01X0620000Y4060000D01*
G01X0520000Y4100000D02*
G01X0520000Y4060000D01*
G01X1215000Y4080000D02*
G01X1615000Y4080000D01*
G01X0520000Y4080000D02*
G01X0920000Y4080000D01*
G01X1615000Y4200000D02*
G01X1615000Y4160000D01*
G01X1515000Y4200000D02*
G01X1515000Y4160000D01*
G01X1415000Y4200000D02*
G01X1415000Y4160000D01*
G01X1315000Y4200000D02*
G01X1315000Y4160000D01*
G01X1215000Y4200000D02*
G01X1215000Y4160000D01*
G01X0920000Y4200000D02*
G01X0920000Y4160000D01*
G01X0820000Y4200000D02*
G01X0820000Y4160000D01*
G01X0720000Y4200000D02*
G01X0720000Y4160000D01*
G01X0620000Y4200000D02*
G01X0620000Y4160000D01*
G01X0520000Y4200000D02*
G01X0520000Y4160000D01*
G01X1215000Y4180000D02*
G01X1615000Y4180000D01*
G01X0520000Y4180000D02*
G01X0920000Y4180000D01*
G01X1615000Y4300000D02*
G01X1615000Y4260000D01*
G01X1515000Y4300000D02*
G01X1515000Y4260000D01*
G01X1415000Y4300000D02*
G01X1415000Y4260000D01*
G01X1315000Y4300000D02*
G01X1315000Y4260000D01*
G01X1215000Y4300000D02*
G01X1215000Y4260000D01*
G01X0920000Y4300000D02*
G01X0920000Y4260000D01*
G01X0820000Y4300000D02*
G01X0820000Y4260000D01*
G01X0720000Y4300000D02*
G01X0720000Y4260000D01*
G01X0620000Y4300000D02*
G01X0620000Y4260000D01*
G01X0520000Y4300000D02*
G01X0520000Y4260000D01*
G01X1215000Y4280000D02*
G01X1615000Y4280000D01*
G01X0520000Y4280000D02*
G01X0920000Y4280000D01*
G01X1615000Y4400000D02*
G01X1615000Y4360000D01*
G01X1515000Y4400000D02*
G01X1515000Y4360000D01*
G01X1415000Y4400000D02*
G01X1415000Y4360000D01*
G01X1315000Y4400000D02*
G01X1315000Y4360000D01*
G01X1215000Y4400000D02*
G01X1215000Y4360000D01*
G01X0920000Y4400000D02*
G01X0920000Y4360000D01*
G01X0820000Y4400000D02*
G01X0820000Y4360000D01*
G01X0720000Y4400000D02*
G01X0720000Y4360000D01*
G01X0620000Y4400000D02*
G01X0620000Y4360000D01*
G01X0520000Y4400000D02*
G01X0520000Y4360000D01*
G01X1215000Y4380000D02*
G01X1615000Y4380000D01*
G01X0520000Y4380000D02*
G01X0920000Y4380000D01*
G01X1615000Y4500000D02*
G01X1615000Y4460000D01*
G01X1515000Y4500000D02*
G01X1515000Y4460000D01*
G01X1415000Y4500000D02*
G01X1415000Y4460000D01*
G01X1315000Y4500000D02*
G01X1315000Y4460000D01*
G01X1215000Y4500000D02*
G01X1215000Y4460000D01*
G01X0920000Y4500000D02*
G01X0920000Y4460000D01*
G01X0820000Y4500000D02*
G01X0820000Y4460000D01*
G01X0720000Y4500000D02*
G01X0720000Y4460000D01*
G01X0620000Y4500000D02*
G01X0620000Y4460000D01*
G01X0520000Y4500000D02*
G01X0520000Y4460000D01*
G01X1215000Y4480000D02*
G01X1615000Y4480000D01*
G01X0520000Y4480000D02*
G01X0920000Y4480000D01*
G01X1615000Y4600000D02*
G01X1615000Y4560000D01*
G01X1515000Y4600000D02*
G01X1515000Y4560000D01*
G01X1415000Y4600000D02*
G01X1415000Y4560000D01*
G01X1315000Y4600000D02*
G01X1315000Y4560000D01*
G01X1215000Y4600000D02*
G01X1215000Y4560000D01*
G01X0920000Y4600000D02*
G01X0920000Y4560000D01*
G01X0820000Y4600000D02*
G01X0820000Y4560000D01*
G01X0720000Y4600000D02*
G01X0720000Y4560000D01*
G01X0620000Y4600000D02*
G01X0620000Y4560000D01*
G01X0520000Y4600000D02*
G01X0520000Y4560000D01*
G01X1215000Y4580000D02*
G01X1615000Y4580000D01*
G01X0520000Y4580000D02*
G01X0920000Y4580000D01*
G01X1615000Y4700000D02*
G01X1615000Y4660000D01*
G01X1515000Y4700000D02*
G01X1515000Y4660000D01*
G01X1415000Y4700000D02*
G01X1415000Y4660000D01*
G01X1315000Y4700000D02*
G01X1315000Y4660000D01*
G01X1215000Y4700000D02*
G01X1215000Y4660000D01*
G01X0920000Y4700000D02*
G01X0920000Y4660000D01*
G01X0820000Y4700000D02*
G01X0820000Y4660000D01*
G01X0720000Y4700000D02*
G01X0720000Y4660000D01*
G01X0620000Y4700000D02*
G01X0620000Y4660000D01*
G01X0520000Y4700000D02*
G01X0520000Y4660000D01*
G01X1215000Y4680000D02*
G01X1615000Y4680000D01*
G01X0520000Y4680000D02*
G01X0920000Y4680000D01*
G01X1615000Y4800000D02*
G01X1615000Y4760000D01*
G01X1515000Y4800000D02*
G01X1515000Y4760000D01*
G01X1415000Y4800000D02*
G01X1415000Y4760000D01*
G01X1315000Y4800000D02*
G01X1315000Y4760000D01*
G01X1215000Y4800000D02*
G01X1215000Y4760000D01*
G01X0920000Y4800000D02*
G01X0920000Y4760000D01*
G01X0820000Y4800000D02*
G01X0820000Y4760000D01*
G01X0720000Y4800000D02*
G01X0720000Y4760000D01*
G01X0620000Y4800000D02*
G01X0620000Y4760000D01*
G01X0520000Y4800000D02*
G01X0520000Y4760000D01*
G01X1215000Y4780000D02*
G01X1615000Y4780000D01*
G01X0520000Y4780000D02*
G01X0920000Y4780000D01*
G01X1615000Y4900000D02*
G01X1615000Y4860000D01*
G01X1515000Y4900000D02*
G01X1515000Y4860000D01*
G01X1415000Y4900000D02*
G01X1415000Y4860000D01*
G01X1315000Y4900000D02*
G01X1315000Y4860000D01*
G01X1215000Y4900000D02*
G01X1215000Y4860000D01*
G01X0920000Y4900000D02*
G01X0920000Y4860000D01*
G01X0820000Y4900000D02*
G01X0820000Y4860000D01*
G01X0720000Y4900000D02*
G01X0720000Y4860000D01*
G01X0620000Y4900000D02*
G01X0620000Y4860000D01*
G01X0520000Y4900000D02*
G01X0520000Y4860000D01*
G01X1215000Y4880000D02*
G01X1615000Y4880000D01*
G01X0520000Y4880000D02*
G01X0920000Y4880000D01*
G01X1615000Y5000000D02*
G01X1615000Y4960000D01*
G01X1515000Y5000000D02*
G01X1515000Y4960000D01*
G01X1415000Y5000000D02*
G01X1415000Y4960000D01*
G01X1315000Y5000000D02*
G01X1315000Y4960000D01*
G01X1215000Y5000000D02*
G01X1215000Y4960000D01*
G01X0920000Y5000000D02*
G01X0920000Y4960000D01*
G01X0820000Y5000000D02*
G01X0820000Y4960000D01*
G01X0720000Y5000000D02*
G01X0720000Y4960000D01*
G01X0620000Y5000000D02*
G01X0620000Y4960000D01*
G01X0520000Y5000000D02*
G01X0520000Y4960000D01*
G01X1215000Y4980000D02*
G01X1615000Y4980000D01*
G01X0520000Y4980000D02*
G01X0920000Y4980000D01*
G01X1615000Y5100000D02*
G01X1615000Y5060000D01*
G01X1515000Y5100000D02*
G01X1515000Y5060000D01*
G01X1415000Y5100000D02*
G01X1415000Y5060000D01*
G01X1315000Y5100000D02*
G01X1315000Y5060000D01*
G01X1215000Y5100000D02*
G01X1215000Y5060000D01*
G01X0920000Y5100000D02*
G01X0920000Y5060000D01*
G01X0820000Y5100000D02*
G01X0820000Y5060000D01*
G01X0720000Y5100000D02*
G01X0720000Y5060000D01*
G01X0620000Y5100000D02*
G01X0620000Y5060000D01*
G01X0520000Y5100000D02*
G01X0520000Y5060000D01*
G01X1215000Y5080000D02*
G01X1615000Y5080000D01*
G01X0520000Y5080000D02*
G01X0920000Y5080000D01*
G01X1615000Y5200000D02*
G01X1615000Y5160000D01*
G01X1515000Y5200000D02*
G01X1515000Y5160000D01*
G01X1415000Y5200000D02*
G01X1415000Y5160000D01*
G01X1315000Y5200000D02*
G01X1315000Y5160000D01*
G01X1215000Y5200000D02*
G01X1215000Y5160000D01*
G01X0920000Y5200000D02*
G01X0920000Y5160000D01*
G01X0820000Y5200000D02*
G01X0820000Y5160000D01*
G01X0720000Y5200000D02*
G01X0720000Y5160000D01*
G01X0620000Y5200000D02*
G01X0620000Y5160000D01*
G01X0520000Y5200000D02*
G01X0520000Y5160000D01*
G01X1215000Y5180000D02*
G01X1615000Y5180000D01*
G01X0520000Y5180000D02*
G01X0920000Y5180000D01*
G01X1615000Y5300000D02*
G01X1615000Y5260000D01*
G01X1515000Y5300000D02*
G01X1515000Y5260000D01*
G01X1415000Y5300000D02*
G01X1415000Y5260000D01*
G01X1315000Y5300000D02*
G01X1315000Y5260000D01*
G01X1215000Y5300000D02*
G01X1215000Y5260000D01*
G01X0920000Y5300000D02*
G01X0920000Y5260000D01*
G01X0820000Y5300000D02*
G01X0820000Y5260000D01*
G01X0720000Y5300000D02*
G01X0720000Y5260000D01*
G01X0620000Y5300000D02*
G01X0620000Y5260000D01*
G01X0520000Y5300000D02*
G01X0520000Y5260000D01*
G01X1215000Y5280000D02*
G01X1615000Y5280000D01*
G01X0520000Y5280000D02*
G01X0920000Y5280000D01*
G01X1615000Y5400000D02*
G01X1615000Y5360000D01*
G01X1515000Y5400000D02*
G01X1515000Y5360000D01*
G01X1415000Y5400000D02*
G01X1415000Y5360000D01*
G01X1315000Y5400000D02*
G01X1315000Y5360000D01*
G01X1215000Y5400000D02*
G01X1215000Y5360000D01*
G01X0920000Y5400000D02*
G01X0920000Y5360000D01*
G01X0820000Y5400000D02*
G01X0820000Y5360000D01*
G01X0720000Y5400000D02*
G01X0720000Y5360000D01*
G01X0620000Y5400000D02*
G01X0620000Y5360000D01*
G01X0520000Y5400000D02*
G01X0520000Y5360000D01*
G01X1215000Y5380000D02*
G01X1615000Y5380000D01*
G01X0520000Y5380000D02*
G01X0920000Y5380000D01*
G01X1615000Y5500000D02*
G01X1615000Y5460000D01*
G01X1515000Y5500000D02*
G01X1515000Y5460000D01*
G01X1415000Y5500000D02*
G01X1415000Y5460000D01*
G01X1315000Y5500000D02*
G01X1315000Y5460000D01*
G01X1215000Y5500000D02*
G01X1215000Y5460000D01*
G01X0920000Y5500000D02*
G01X0920000Y5460000D01*
G01X0820000Y5500000D02*
G01X0820000Y5460000D01*
G01X0720000Y5500000D02*
G01X0720000Y5460000D01*
G01X0620000Y5500000D02*
G01X0620000Y5460000D01*
G01X0520000Y5500000D02*
G01X0520000Y5460000D01*
G01X1215000Y5480000D02*
G01X1615000Y5480000D01*
G01X0520000Y5480000D02*
G01X0920000Y5480000D01*
G01X1615000Y5600000D02*
G01X1615000Y5560000D01*
G01X1515000Y5600000D02*
G01X1515000Y5560000D01*
G01X1415000Y5600000D02*
G01X1415000Y5560000D01*
G01X1315000Y5600000D02*
G01X1315000Y5560000D01*
G01X1215000Y5600000D02*
G01X1215000Y5560000D01*
G01X0920000Y5600000D02*
G01X0920000Y5560000D01*
G01X0820000Y5600000D02*
G01X0820000Y5560000D01*
G01X0720000Y5600000D02*
G01X0720000Y5560000D01*
G01X0620000Y5600000D02*
G01X0620000Y5560000D01*
G01X0520000Y5600000D02*
G01X0520000Y5560000D01*
G01X1215000Y5580000D02*
G01X1615000Y5580000D01*
G01X0520000Y5580000D02*
G01X0920000Y5580000D01*
G01X1615000Y5700000D02*
G01X1615000Y5660000D01*
G01X1515000Y5700000D02*
G01X1515000Y5660000D01*
G01X1415000Y5700000D02*
G01X1415000Y5660000D01*
G01X1315000Y5700000D02*
G01X1315000Y5660000D01*
G01X1215000Y5700000D02*
G01X1215000Y5660000D01*
G01X0920000Y5700000D02*
G01X0920000Y5660000D01*
G01X0820000Y5700000D02*
G01X0820000Y5660000D01*
G01X0720000Y5700000D02*
G01X0720000Y5660000D01*
G01X0620000Y5700000D02*
G01X0620000Y5660000D01*
G01X0520000Y5700000D02*
G01X0520000Y5660000D01*
G01X1215000Y5680000D02*
G01X1615000Y5680000D01*
G01X0520000Y5680000D02*
G01X0920000Y5680000D01*
G01X1615000Y5800000D02*
G01X1615000Y5760000D01*
G01X1515000Y5800000D02*
G01X1515000Y5760000D01*
G01X1415000Y5800000D02*
G01X1415000Y5760000D01*
G01X1315000Y5800000D02*
G01X1315000Y5760000D01*
G01X1215000Y5800000D02*
G01X1215000Y5760000D01*
G01X0920000Y5800000D02*
G01X0920000Y5760000D01*
G01X0820000Y5800000D02*
G01X0820000Y5760000D01*
G01X0720000Y5800000D02*
G01X0720000Y5760000D01*
G01X0620000Y5800000D02*
G01X0620000Y5760000D01*
G01X0520000Y5800000D02*
G01X0520000Y5760000D01*
G01X1215000Y5780000D02*
G01X1615000Y5780000D01*
G01X0520000Y5780000D02*
G01X0920000Y5780000D01*
G01X1615000Y5900000D02*
G01X1615000Y5860000D01*
G01X1515000Y5900000D02*
G01X1515000Y5860000D01*
G01X1415000Y5900000D02*
G01X1415000Y5860000D01*
G01X1315000Y5900000D02*
G01X1315000Y5860000D01*
G01X1215000Y5900000D02*
G01X1215000Y5860000D01*
G01X0920000Y5900000D02*
G01X0920000Y5860000D01*
G01X0820000Y5900000D02*
G01X0820000Y5860000D01*
G01X0720000Y5900000D02*
G01X0720000Y5860000D01*
G01X0620000Y5900000D02*
G01X0620000Y5860000D01*
G01X0520000Y5900000D02*
G01X0520000Y5860000D01*
G01X1215000Y5880000D02*
G01X1615000Y5880000D01*
G01X0520000Y5880000D02*
G01X0920000Y5880000D01*
G01X1615000Y6000000D02*
G01X1615000Y5960000D01*
G01X1515000Y6000000D02*
G01X1515000Y5960000D01*
G01X1415000Y6000000D02*
G01X1415000Y5960000D01*
G01X1315000Y6000000D02*
G01X1315000Y5960000D01*
G01X1215000Y6000000D02*
G01X1215000Y5960000D01*
G01X0920000Y6000000D02*
G01X0920000Y5960000D01*
G01X0820000Y6000000D02*
G01X0820000Y5960000D01*
G01X0720000Y6000000D02*
G01X0720000Y5960000D01*
G01X0620000Y6000000D02*
G01X0620000Y5960000D01*
G01X0520000Y6000000D02*
G01X0520000Y5960000D01*
G01X1215000Y5980000D02*
G01X1615000Y5980000D01*
G01X0520000Y5980000D02*
G01X0920000Y5980000D01*
G01X1615000Y6100000D02*
G01X1615000Y6060000D01*
G01X1515000Y6100000D02*
G01X1515000Y6060000D01*
G01X1415000Y6100000D02*
G01X1415000Y6060000D01*
G01X1315000Y6100000D02*
G01X1315000Y6060000D01*
G01X1215000Y6100000D02*
G01X1215000Y6060000D01*
G01X0920000Y6100000D02*
G01X0920000Y6060000D01*
G01X0820000Y6100000D02*
G01X0820000Y6060000D01*
G01X0720000Y6100000D02*
G01X0720000Y6060000D01*
G01X0620000Y6100000D02*
G01X0620000Y6060000D01*
G01X0520000Y6100000D02*
G01X0520000Y6060000D01*
G01X1215000Y6080000D02*
G01X1615000Y6080000D01*
G01X0520000Y6080000D02*
G01X0920000Y6080000D01*
G01X1615000Y6200000D02*
G01X1615000Y6160000D01*
G01X1515000Y6200000D02*
G01X1515000Y6160000D01*
G01X1415000Y6200000D02*
G01X1415000Y6160000D01*
G01X1315000Y6200000D02*
G01X1315000Y6160000D01*
G01X1215000Y6200000D02*
G01X1215000Y6160000D01*
G01X0920000Y6200000D02*
G01X0920000Y6160000D01*
G01X0820000Y6200000D02*
G01X0820000Y6160000D01*
G01X0720000Y6200000D02*
G01X0720000Y6160000D01*
G01X0620000Y6200000D02*
G01X0620000Y6160000D01*
G01X0520000Y6200000D02*
G01X0520000Y6160000D01*
G01X1215000Y6180000D02*
G01X1615000Y6180000D01*
G01X0520000Y6180000D02*
G01X0920000Y6180000D01*
G01X1615000Y6300000D02*
G01X1615000Y6260000D01*
G01X1515000Y6300000D02*
G01X1515000Y6260000D01*
G01X1415000Y6300000D02*
G01X1415000Y6260000D01*
G01X1315000Y6300000D02*
G01X1315000Y6260000D01*
G01X1215000Y6300000D02*
G01X1215000Y6260000D01*
G01X0920000Y6300000D02*
G01X0920000Y6260000D01*
G01X0820000Y6300000D02*
G01X0820000Y6260000D01*
G01X0720000Y6300000D02*
G01X0720000Y6260000D01*
G01X0620000Y6300000D02*
G01X0620000Y6260000D01*
G01X0520000Y6300000D02*
G01X0520000Y6260000D01*
G01X1215000Y6280000D02*
G01X1615000Y6280000D01*
G01X0520000Y6280000D02*
G01X0920000Y6280000D01*
G01X1615000Y6400000D02*
G01X1615000Y6360000D01*
G01X1515000Y6400000D02*
G01X1515000Y6360000D01*
G01X1415000Y6400000D02*
G01X1415000Y6360000D01*
G01X1315000Y6400000D02*
G01X1315000Y6360000D01*
G01X1215000Y6400000D02*
G01X1215000Y6360000D01*
G01X0920000Y6400000D02*
G01X0920000Y6360000D01*
G01X0820000Y6400000D02*
G01X0820000Y6360000D01*
G01X0720000Y6400000D02*
G01X0720000Y6360000D01*
G01X0620000Y6400000D02*
G01X0620000Y6360000D01*
G01X0520000Y6400000D02*
G01X0520000Y6360000D01*
G01X1215000Y6380000D02*
G01X1615000Y6380000D01*
G01X0520000Y6380000D02*
G01X0920000Y6380000D01*
G01X1615000Y6500000D02*
G01X1615000Y6460000D01*
G01X1515000Y6500000D02*
G01X1515000Y6460000D01*
G01X1415000Y6500000D02*
G01X1415000Y6460000D01*
G01X1315000Y6500000D02*
G01X1315000Y6460000D01*
G01X1215000Y6500000D02*
G01X1215000Y6460000D01*
G01X0920000Y6500000D02*
G01X0920000Y6460000D01*
G01X0820000Y6500000D02*
G01X0820000Y6460000D01*
G01X0720000Y6500000D02*
G01X0720000Y6460000D01*
G01X0620000Y6500000D02*
G01X0620000Y6460000D01*
G01X0520000Y6500000D02*
G01X0520000Y6460000D01*
G01X1215000Y6480000D02*
G01X1615000Y6480000D01*
G01X0520000Y6480000D02*
G01X0920000Y6480000D01*
G01X1615000Y6600000D02*
G01X1615000Y6560000D01*
G01X1515000Y6600000D02*
G01X1515000Y6560000D01*
G01X1415000Y6600000D02*
G01X1415000Y6560000D01*
G01X1315000Y6600000D02*
G01X1315000Y6560000D01*
G01X1215000Y6600000D02*
G01X1215000Y6560000D01*
G01X0920000Y6600000D02*
G01X0920000Y6560000D01*
G01X0820000Y6600000D02*
G01X0820000Y6560000D01*
G01X0720000Y6600000D02*
G01X0720000Y6560000D01*
G01X0620000Y6600000D02*
G01X0620000Y6560000D01*
G01X0520000Y6600000D02*
G01X0520000Y6560000D01*
G01X1215000Y6580000D02*
G01X1615000Y6580000D01*
G01X0520000Y6580000D02*
G01X0920000Y6580000D01*
G01X1615000Y6700000D02*
G01X1615000Y6660000D01*
G01X1515000Y6700000D02*
G01X1515000Y6660000D01*
G01X1415000Y6700000D02*
G01X1415000Y6660000D01*
G01X1315000Y6700000D02*
G01X1315000Y6660000D01*
G01X1215000Y6700000D02*
G01X1215000Y6660000D01*
G01X0920000Y6700000D02*
G01X0920000Y6660000D01*
G01X0820000Y6700000D02*
G01X0820000Y6660000D01*
G01X0720000Y6700000D02*
G01X0720000Y6660000D01*
G01X0620000Y6700000D02*
G01X0620000Y6660000D01*
G01X0520000Y6700000D02*
G01X0520000Y6660000D01*
G01X1215000Y6680000D02*
G01X1615000Y6680000D01*
G01X0520000Y6680000D02*
G01X0920000Y6680000D01*
G01X2005000Y0480000D02*
G01X2005000Y6680000D01*
G01X1905000Y6680000D02*
G01X1905000Y0480000D01*
G01X1905000Y0980000D02*
G01X2005000Y0980000D01*
G01X1905000Y1080000D02*
G01X2005000Y1080000D01*
G01X1905000Y0880000D02*
G01X2005000Y0880000D01*
G01X1905000Y0780000D02*
G01X2005000Y0780000D01*
G01X1905000Y0680000D02*
G01X2005000Y0680000D01*
G01X1905000Y1580000D02*
G01X2005000Y1580000D01*
G01X1905000Y1680000D02*
G01X2005000Y1680000D01*
G01X1905000Y1480000D02*
G01X2005000Y1480000D01*
G01X1905000Y1380000D02*
G01X2005000Y1380000D01*
G01X1905000Y1280000D02*
G01X2005000Y1280000D01*
G01X1905000Y2180000D02*
G01X2005000Y2180000D01*
G01X1905000Y2280000D02*
G01X2005000Y2280000D01*
G01X1905000Y2080000D02*
G01X2005000Y2080000D01*
G01X1905000Y1980000D02*
G01X2005000Y1980000D01*
G01X1905000Y1880000D02*
G01X2005000Y1880000D01*
G01X1905000Y2780000D02*
G01X2005000Y2780000D01*
G01X1905000Y2880000D02*
G01X2005000Y2880000D01*
G01X1905000Y2680000D02*
G01X2005000Y2680000D01*
G01X1905000Y2580000D02*
G01X2005000Y2580000D01*
G01X1905000Y2480000D02*
G01X2005000Y2480000D01*
G01X1905000Y3380000D02*
G01X2005000Y3380000D01*
G01X1905000Y3480000D02*
G01X2005000Y3480000D01*
G01X1905000Y3280000D02*
G01X2005000Y3280000D01*
G01X1905000Y3180000D02*
G01X2005000Y3180000D01*
G01X1905000Y3080000D02*
G01X2005000Y3080000D01*
G01X1905000Y3980000D02*
G01X2005000Y3980000D01*
G01X1905000Y4080000D02*
G01X2005000Y4080000D01*
G01X1905000Y3880000D02*
G01X2005000Y3880000D01*
G01X1905000Y3780000D02*
G01X2005000Y3780000D01*
G01X1905000Y3680000D02*
G01X2005000Y3680000D01*
G01X1905000Y4580000D02*
G01X2005000Y4580000D01*
G01X1905000Y4680000D02*
G01X2005000Y4680000D01*
G01X1905000Y4480000D02*
G01X2005000Y4480000D01*
G01X1905000Y4380000D02*
G01X2005000Y4380000D01*
G01X1905000Y4280000D02*
G01X2005000Y4280000D01*
G01X1905000Y5180000D02*
G01X2005000Y5180000D01*
G01X1905000Y5280000D02*
G01X2005000Y5280000D01*
G01X1905000Y5080000D02*
G01X2005000Y5080000D01*
G01X1905000Y4980000D02*
G01X2005000Y4980000D01*
G01X1905000Y4880000D02*
G01X2005000Y4880000D01*
G01X1905000Y5780000D02*
G01X2005000Y5780000D01*
G01X1905000Y5880000D02*
G01X2005000Y5880000D01*
G01X1905000Y5680000D02*
G01X2005000Y5680000D01*
G01X1905000Y5580000D02*
G01X2005000Y5580000D01*
G01X1905000Y5480000D02*
G01X2005000Y5480000D01*
G01X1905000Y6380000D02*
G01X2005000Y6380000D01*
G01X1905000Y6480000D02*
G01X2005000Y6480000D01*
G01X1905000Y6280000D02*
G01X2005000Y6280000D01*
G01X1905000Y6180000D02*
G01X2005000Y6180000D01*
G01X1905000Y6080000D02*
G01X2005000Y6080000D01*
G01X0230000Y0480000D02*
G01X0230000Y6680000D01*
G01X0130000Y6680000D02*
G01X0130000Y0480000D01*
G01X0130000Y0980000D02*
G01X0230000Y0980000D01*
G01X0130000Y1080000D02*
G01X0230000Y1080000D01*
G01X0130000Y0880000D02*
G01X0230000Y0880000D01*
G01X0130000Y0780000D02*
G01X0230000Y0780000D01*
G01X0130000Y0680000D02*
G01X0230000Y0680000D01*
G01X0130000Y1580000D02*
G01X0230000Y1580000D01*
G01X0130000Y1680000D02*
G01X0230000Y1680000D01*
G01X0130000Y1480000D02*
G01X0230000Y1480000D01*
G01X0130000Y1380000D02*
G01X0230000Y1380000D01*
G01X0130000Y1280000D02*
G01X0230000Y1280000D01*
G01X0130000Y2180000D02*
G01X0230000Y2180000D01*
G01X0130000Y2280000D02*
G01X0230000Y2280000D01*
G01X0130000Y2080000D02*
G01X0230000Y2080000D01*
G01X0130000Y1980000D02*
G01X0230000Y1980000D01*
G01X0130000Y1880000D02*
G01X0230000Y1880000D01*
G01X0130000Y2780000D02*
G01X0230000Y2780000D01*
G01X0130000Y2880000D02*
G01X0230000Y2880000D01*
G01X0130000Y2680000D02*
G01X0230000Y2680000D01*
G01X0130000Y2580000D02*
G01X0230000Y2580000D01*
G01X0130000Y2480000D02*
G01X0230000Y2480000D01*
G01X0130000Y3380000D02*
G01X0230000Y3380000D01*
G01X0130000Y3480000D02*
G01X0230000Y3480000D01*
G01X0130000Y3280000D02*
G01X0230000Y3280000D01*
G01X0130000Y3180000D02*
G01X0230000Y3180000D01*
G01X0130000Y3080000D02*
G01X0230000Y3080000D01*
G01X0130000Y3980000D02*
G01X0230000Y3980000D01*
G01X0130000Y4080000D02*
G01X0230000Y4080000D01*
G01X0130000Y3880000D02*
G01X0230000Y3880000D01*
G01X0130000Y3780000D02*
G01X0230000Y3780000D01*
G01X0130000Y3680000D02*
G01X0230000Y3680000D01*
G01X0130000Y4580000D02*
G01X0230000Y4580000D01*
G01X0130000Y4680000D02*
G01X0230000Y4680000D01*
G01X0130000Y4480000D02*
G01X0230000Y4480000D01*
G01X0130000Y4380000D02*
G01X0230000Y4380000D01*
G01X0130000Y4280000D02*
G01X0230000Y4280000D01*
G01X0130000Y5180000D02*
G01X0230000Y5180000D01*
G01X0130000Y5280000D02*
G01X0230000Y5280000D01*
G01X0130000Y5080000D02*
G01X0230000Y5080000D01*
G01X0130000Y4980000D02*
G01X0230000Y4980000D01*
G01X0130000Y4880000D02*
G01X0230000Y4880000D01*
G01X0130000Y5780000D02*
G01X0230000Y5780000D01*
G01X0130000Y5880000D02*
G01X0230000Y5880000D01*
G01X0130000Y5680000D02*
G01X0230000Y5680000D01*
G01X0130000Y5580000D02*
G01X0230000Y5580000D01*
G01X0130000Y5480000D02*
G01X0230000Y5480000D01*
G01X0130000Y6380000D02*
G01X0230000Y6380000D01*
G01X0130000Y6480000D02*
G01X0230000Y6480000D01*
G01X0130000Y6280000D02*
G01X0230000Y6280000D01*
G01X0130000Y6180000D02*
G01X0230000Y6180000D01*
G01X0130000Y6080000D02*
G01X0230000Y6080000D01*
G01X0190000Y6590000D02*
G01X0215000Y6590000D01*
G01X0160000Y6620000D02*
G01X0160000Y6590000D01*
G01X0145000Y6605000D02*
G01X0175000Y6605000D01*
G01X1965000Y6590000D02*
G01X1990000Y6590000D01*
G01X1935000Y6620000D02*
G01X1935000Y6590000D01*
G01X1920000Y6605000D02*
G01X1950000Y6605000D01*
G01X0190000Y0590000D02*
G01X0215000Y0590000D01*
G01X0160000Y0620000D02*
G01X0160000Y0590000D01*
G01X0145000Y0605000D02*
G01X0175000Y0605000D01*
G01X1965000Y0590000D02*
G01X1990000Y0590000D01*
G01X1935000Y0620000D02*
G01X1935000Y0590000D01*
G01X1920000Y0605000D02*
G01X1950000Y0605000D01*
G54D11*
G01X1950500Y5371500D02*
G01X1958500Y5371500D01*
G01X1958500Y5371500D02*
G01X1958500Y5336500D01*
G01X1953500Y5331500D02*
G01X1958500Y5336500D01*
G01X1948500Y5331500D02*
G01X1953500Y5331500D01*
G01X1943500Y5336500D02*
G01X1948500Y5331500D01*
G01X1943500Y5341500D02*
G01X1943500Y5336500D01*
G01X1980500Y5351500D02*
G01X1980500Y5346500D01*
G01X1980500Y5336500D02*
G01X1980500Y5331500D01*
G01X1970500Y5366500D02*
G01X1970500Y5361500D01*
G01X1970500Y5366500D02*
G01X1975500Y5371500D01*
G01X1975500Y5371500D02*
G01X1985500Y5371500D01*
G01X1985500Y5371500D02*
G01X1990500Y5366500D01*
G01X1990500Y5366500D02*
G01X1990500Y5361500D01*
G01X1980500Y5351500D02*
G01X1990500Y5361500D01*
G01X1805000Y5625000D02*
G01X1845000Y5625000D01*
G01X1845000Y5630000D02*
G01X1845000Y5610000D01*
G01X1845000Y5610000D02*
G01X1840000Y5605000D01*
G01X1830000Y5605000D02*
G01X1840000Y5605000D01*
G01X1825000Y5610000D02*
G01X1830000Y5605000D01*
G01X1825000Y5625000D02*
G01X1825000Y5610000D01*
G01X1825000Y5593000D02*
G01X1845000Y5593000D01*
G01X1825000Y5593000D02*
G01X1805000Y5588000D01*
G01X1805000Y5588000D02*
G01X1825000Y5578000D01*
G01X1825000Y5578000D02*
G01X1805000Y5568000D01*
G01X1805000Y5568000D02*
G01X1825000Y5563000D01*
G01X1825000Y5563000D02*
G01X1845000Y5563000D01*
G01X1845000Y5551000D02*
G01X1845000Y5531000D01*
G01X1845000Y5531000D02*
G01X1840000Y5526000D01*
G01X1830000Y5526000D02*
G01X1840000Y5526000D01*
G01X1825000Y5531000D02*
G01X1830000Y5526000D01*
G01X1825000Y5546000D02*
G01X1825000Y5531000D01*
G01X1805000Y5546000D02*
G01X1845000Y5546000D01*
G01X1825000Y5538000D02*
G01X1805000Y5526000D01*
G01X1840000Y5514000D02*
G01X1845000Y5509000D01*
G01X1845000Y5509000D02*
G01X1845000Y5494000D01*
G01X1845000Y5494000D02*
G01X1840000Y5489000D01*
G01X1830000Y5489000D02*
G01X1840000Y5489000D01*
G01X1805000Y5514000D02*
G01X1830000Y5489000D01*
G01X1805000Y5514000D02*
G01X1805000Y5489000D01*
G01X1675000Y5395000D02*
G01X1675000Y5365000D01*
G01X1675000Y5395000D02*
G01X1682000Y5405000D01*
G01X1682000Y5405000D02*
G01X1693000Y5405000D01*
G01X1693000Y5405000D02*
G01X1700000Y5395000D01*
G01X1700000Y5395000D02*
G01X1700000Y5365000D01*
G01X1675000Y5385000D02*
G01X1700000Y5385000D01*
G01X1712000Y5397000D02*
G01X1720000Y5405000D01*
G01X1720000Y5405000D02*
G01X1720000Y5365000D01*
G01X1712000Y5365000D02*
G01X1727000Y5365000D01*
G01X1680000Y5530000D02*
G01X1680000Y5500000D01*
G01X1680000Y5530000D02*
G01X1687000Y5540000D01*
G01X1687000Y5540000D02*
G01X1698000Y5540000D01*
G01X1698000Y5540000D02*
G01X1705000Y5530000D01*
G01X1705000Y5530000D02*
G01X1705000Y5500000D01*
G01X1680000Y5520000D02*
G01X1705000Y5520000D01*
G01X1717000Y5535000D02*
G01X1722000Y5540000D01*
G01X1722000Y5540000D02*
G01X1737000Y5540000D01*
G01X1737000Y5540000D02*
G01X1742000Y5535000D01*
G01X1742000Y5535000D02*
G01X1742000Y5525000D01*
G01X1717000Y5500000D02*
G01X1742000Y5525000D01*
G01X1717000Y5500000D02*
G01X1742000Y5500000D01*
G01X2125000Y6450000D02*
G01X2125000Y6430000D01*
G01X2125000Y6430000D02*
G01X2130000Y6425000D01*
G01X2130000Y6425000D02*
G01X2142000Y6425000D01*
G01X2147000Y6430000D02*
G01X2142000Y6425000D01*
G01X2147000Y6445000D02*
G01X2147000Y6430000D01*
G01X2125000Y6445000D02*
G01X2165000Y6445000D01*
G01X2165000Y6450000D02*
G01X2165000Y6430000D01*
G01X2165000Y6430000D02*
G01X2160000Y6425000D01*
G01X2152000Y6425000D02*
G01X2160000Y6425000D01*
G01X2147000Y6430000D02*
G01X2152000Y6425000D01*
G01X2125000Y6413000D02*
G01X2155000Y6413000D01*
G01X2155000Y6413000D02*
G01X2165000Y6406000D01*
G01X2165000Y6406000D02*
G01X2165000Y6395000D01*
G01X2165000Y6395000D02*
G01X2155000Y6388000D01*
G01X2125000Y6388000D02*
G01X2155000Y6388000D01*
G01X2145000Y6413000D02*
G01X2145000Y6388000D01*
G01X2165000Y6376000D02*
G01X2165000Y6356000D01*
G01X2165000Y6356000D02*
G01X2160000Y6351000D01*
G01X2150000Y6351000D02*
G01X2160000Y6351000D01*
G01X2145000Y6356000D02*
G01X2150000Y6351000D01*
G01X2145000Y6371000D02*
G01X2145000Y6356000D01*
G01X2125000Y6371000D02*
G01X2165000Y6371000D01*
G01X2145000Y6363000D02*
G01X2125000Y6351000D01*
G01X2157000Y6339000D02*
G01X2165000Y6331000D01*
G01X2125000Y6331000D02*
G01X2165000Y6331000D01*
G01X2125000Y6339000D02*
G01X2125000Y6324000D01*
G01X0693070Y7171500D02*
G01X0713070Y7171500D01*
G01X0703070Y7171500D02*
G01X0703070Y7131500D01*
G01X0735070Y7151500D02*
G01X0735070Y7146500D01*
G01X0735070Y7136500D02*
G01X0735070Y7131500D01*
G01X0725070Y7166500D02*
G01X0725070Y7161500D01*
G01X0725070Y7166500D02*
G01X0730070Y7171500D01*
G01X0730070Y7171500D02*
G01X0740070Y7171500D01*
G01X0740070Y7171500D02*
G01X0745070Y7166500D01*
G01X0745070Y7166500D02*
G01X0745070Y7161500D01*
G01X0735070Y7151500D02*
G01X0745070Y7161500D01*
G01X0355000Y7079840D02*
G01X0355000Y7059840D01*
G01X0355000Y7059840D02*
G01X0350000Y7054840D01*
G01X0340000Y7054840D02*
G01X0350000Y7054840D01*
G01X0335000Y7059840D02*
G01X0340000Y7054840D01*
G01X0335000Y7074840D02*
G01X0335000Y7059840D01*
G01X0315000Y7074840D02*
G01X0355000Y7074840D01*
G01X0335000Y7066840D02*
G01X0315000Y7054840D01*
G01X0355000Y7035840D02*
G01X0355000Y7027840D01*
G01X0320000Y7027840D02*
G01X0355000Y7027840D01*
G01X0315000Y7032840D02*
G01X0320000Y7027840D01*
G01X0315000Y7037840D02*
G01X0315000Y7032840D01*
G01X0320000Y7042840D02*
G01X0315000Y7037840D01*
G01X0320000Y7042840D02*
G01X0325000Y7042840D01*
G01X0330000Y7015840D02*
G01X0355000Y6995840D01*
G01X0330000Y7015840D02*
G01X0330000Y6990840D01*
G01X0315000Y6995840D02*
G01X0355000Y6995840D01*
G01X0355000Y6978840D02*
G01X0355000Y6958840D01*
G01X0335000Y6978840D02*
G01X0355000Y6978840D01*
G01X0335000Y6978840D02*
G01X0340000Y6973840D01*
G01X0340000Y6973840D02*
G01X0340000Y6963840D01*
G01X0340000Y6963840D02*
G01X0335000Y6958840D01*
G01X0320000Y6958840D02*
G01X0335000Y6958840D01*
G01X0315000Y6963840D02*
G01X0320000Y6958840D01*
G01X0315000Y6973840D02*
G01X0315000Y6963840D01*
G01X0320000Y6978840D02*
G01X0315000Y6973840D01*
G01X0330000Y6936840D02*
G01X0335000Y6936840D01*
G01X0315000Y6936840D02*
G01X0320000Y6936840D01*
G01X0345000Y6946840D02*
G01X0350000Y6946840D01*
G01X0350000Y6946840D02*
G01X0355000Y6941840D01*
G01X0355000Y6941840D02*
G01X0355000Y6931840D01*
G01X0355000Y6931840D02*
G01X0350000Y6926840D01*
G01X0345000Y6926840D02*
G01X0350000Y6926840D01*
G01X0335000Y6936840D02*
G01X0345000Y6926840D01*
G01X0785000Y7865000D02*
G01X0785000Y7825000D01*
G01X0810000Y7865000D02*
G01X0810000Y7825000D01*
G01X0785000Y7845000D02*
G01X0810000Y7845000D01*
G01X0832000Y7845000D02*
G01X0832000Y7840000D01*
G01X0832000Y7830000D02*
G01X0832000Y7825000D01*
G01X0822000Y7860000D02*
G01X0822000Y7855000D01*
G01X0822000Y7860000D02*
G01X0827000Y7865000D01*
G01X0827000Y7865000D02*
G01X0837000Y7865000D01*
G01X0837000Y7865000D02*
G01X0842000Y7860000D01*
G01X0842000Y7860000D02*
G01X0842000Y7855000D01*
G01X0832000Y7845000D02*
G01X0842000Y7855000D01*
G01X0820000Y6030000D02*
G01X0820000Y6010000D01*
G01X0820000Y6010000D02*
G01X0825000Y6005000D01*
G01X0825000Y6005000D02*
G01X0837000Y6005000D01*
G01X0842000Y6010000D02*
G01X0837000Y6005000D01*
G01X0842000Y6025000D02*
G01X0842000Y6010000D01*
G01X0820000Y6025000D02*
G01X0860000Y6025000D01*
G01X0860000Y6030000D02*
G01X0860000Y6010000D01*
G01X0860000Y6010000D02*
G01X0855000Y6005000D01*
G01X0847000Y6005000D02*
G01X0855000Y6005000D01*
G01X0842000Y6010000D02*
G01X0847000Y6005000D01*
G01X0860000Y5993000D02*
G01X0860000Y5973000D01*
G01X0860000Y5973000D02*
G01X0855000Y5968000D01*
G01X0845000Y5968000D02*
G01X0855000Y5968000D01*
G01X0840000Y5973000D02*
G01X0845000Y5968000D01*
G01X0840000Y5988000D02*
G01X0840000Y5973000D01*
G01X0820000Y5988000D02*
G01X0860000Y5988000D01*
G01X0840000Y5980000D02*
G01X0820000Y5968000D01*
G01X0820000Y5951000D02*
G01X0860000Y5951000D01*
G01X0860000Y5938000D02*
G01X0853000Y5931000D01*
G01X0827000Y5931000D02*
G01X0853000Y5931000D01*
G01X0820000Y5938000D02*
G01X0827000Y5931000D01*
G01X0820000Y5956000D02*
G01X0820000Y5938000D01*
G01X0860000Y5956000D02*
G01X0860000Y5938000D01*
G01X0852000Y5919000D02*
G01X0860000Y5911000D01*
G01X0820000Y5911000D02*
G01X0860000Y5911000D01*
G01X0820000Y5919000D02*
G01X0820000Y5904000D01*
G01X0698500Y7286500D02*
G01X0718500Y7286500D01*
G01X0718500Y7286500D02*
G01X0723500Y7281500D01*
G01X0723500Y7281500D02*
G01X0723500Y7271500D01*
G01X0718500Y7266500D02*
G01X0723500Y7271500D01*
G01X0703500Y7266500D02*
G01X0718500Y7266500D01*
G01X0703500Y7286500D02*
G01X0703500Y7246500D01*
G01X0711500Y7266500D02*
G01X0723500Y7246500D01*
G01X0745500Y7266500D02*
G01X0745500Y7261500D01*
G01X0745500Y7251500D02*
G01X0745500Y7246500D01*
G01X0735500Y7281500D02*
G01X0735500Y7276500D01*
G01X0735500Y7281500D02*
G01X0740500Y7286500D01*
G01X0740500Y7286500D02*
G01X0750500Y7286500D01*
G01X0750500Y7286500D02*
G01X0755500Y7281500D01*
G01X0755500Y7281500D02*
G01X0755500Y7276500D01*
G01X0745500Y7266500D02*
G01X0755500Y7276500D01*
G01X0893500Y7296500D02*
G01X0913500Y7296500D01*
G01X0913500Y7296500D02*
G01X0918500Y7291500D01*
G01X0918500Y7291500D02*
G01X0918500Y7281500D01*
G01X0913500Y7276500D02*
G01X0918500Y7281500D01*
G01X0898500Y7276500D02*
G01X0913500Y7276500D01*
G01X0898500Y7296500D02*
G01X0898500Y7256500D01*
G01X0906500Y7276500D02*
G01X0918500Y7256500D01*
G01X0930500Y7288500D02*
G01X0938500Y7296500D01*
G01X0938500Y7296500D02*
G01X0938500Y7256500D01*
G01X0930500Y7256500D02*
G01X0945500Y7256500D01*
G01X1460000Y7295000D02*
G01X1460000Y7265000D01*
G01X1460000Y7295000D02*
G01X1465000Y7300000D01*
G01X1465000Y7300000D02*
G01X1475000Y7300000D01*
G01X1475000Y7300000D02*
G01X1480000Y7295000D01*
G01X1480000Y7295000D02*
G01X1480000Y7265000D01*
G01X1475000Y7260000D02*
G01X1480000Y7265000D01*
G01X1465000Y7260000D02*
G01X1475000Y7260000D01*
G01X1460000Y7265000D02*
G01X1465000Y7260000D01*
G01X1492000Y7300000D02*
G01X1492000Y7260000D01*
G01X1492000Y7300000D02*
G01X1512000Y7300000D01*
G01X1492000Y7282000D02*
G01X1507000Y7282000D01*
G01X1524000Y7300000D02*
G01X1524000Y7260000D01*
G01X1524000Y7300000D02*
G01X1544000Y7300000D01*
G01X1524000Y7282000D02*
G01X1539000Y7282000D01*
G01X1576000Y7300000D02*
G01X1581000Y7295000D01*
G01X1561000Y7300000D02*
G01X1576000Y7300000D01*
G01X1556000Y7295000D02*
G01X1561000Y7300000D01*
G01X1556000Y7295000D02*
G01X1556000Y7285000D01*
G01X1556000Y7285000D02*
G01X1561000Y7280000D01*
G01X1561000Y7280000D02*
G01X1576000Y7280000D01*
G01X1576000Y7280000D02*
G01X1581000Y7275000D01*
G01X1581000Y7275000D02*
G01X1581000Y7265000D01*
G01X1576000Y7260000D02*
G01X1581000Y7265000D01*
G01X1561000Y7260000D02*
G01X1576000Y7260000D01*
G01X1556000Y7265000D02*
G01X1561000Y7260000D01*
G01X1593000Y7282000D02*
G01X1608000Y7282000D01*
G01X1593000Y7260000D02*
G01X1613000Y7260000D01*
G01X1593000Y7300000D02*
G01X1593000Y7260000D01*
G01X1593000Y7300000D02*
G01X1613000Y7300000D01*
G01X1625000Y7300000D02*
G01X1645000Y7300000D01*
G01X1635000Y7300000D02*
G01X1635000Y7260000D01*
G01X1657000Y7292000D02*
G01X1665000Y7300000D01*
G01X1665000Y7300000D02*
G01X1665000Y7260000D01*
G01X1657000Y7260000D02*
G01X1672000Y7260000D01*
G01X1235000Y7295000D02*
G01X1235000Y7265000D01*
G01X1235000Y7295000D02*
G01X1240000Y7300000D01*
G01X1240000Y7300000D02*
G01X1250000Y7300000D01*
G01X1250000Y7300000D02*
G01X1255000Y7295000D01*
G01X1255000Y7295000D02*
G01X1255000Y7265000D01*
G01X1250000Y7260000D02*
G01X1255000Y7265000D01*
G01X1240000Y7260000D02*
G01X1250000Y7260000D01*
G01X1235000Y7265000D02*
G01X1240000Y7260000D01*
G01X1267000Y7300000D02*
G01X1267000Y7260000D01*
G01X1267000Y7300000D02*
G01X1287000Y7300000D01*
G01X1267000Y7282000D02*
G01X1282000Y7282000D01*
G01X1299000Y7300000D02*
G01X1299000Y7260000D01*
G01X1299000Y7300000D02*
G01X1319000Y7300000D01*
G01X1299000Y7282000D02*
G01X1314000Y7282000D01*
G01X1351000Y7300000D02*
G01X1356000Y7295000D01*
G01X1336000Y7300000D02*
G01X1351000Y7300000D01*
G01X1331000Y7295000D02*
G01X1336000Y7300000D01*
G01X1331000Y7295000D02*
G01X1331000Y7285000D01*
G01X1331000Y7285000D02*
G01X1336000Y7280000D01*
G01X1336000Y7280000D02*
G01X1351000Y7280000D01*
G01X1351000Y7280000D02*
G01X1356000Y7275000D01*
G01X1356000Y7275000D02*
G01X1356000Y7265000D01*
G01X1351000Y7260000D02*
G01X1356000Y7265000D01*
G01X1336000Y7260000D02*
G01X1351000Y7260000D01*
G01X1331000Y7265000D02*
G01X1336000Y7260000D01*
G01X1368000Y7282000D02*
G01X1383000Y7282000D01*
G01X1368000Y7260000D02*
G01X1388000Y7260000D01*
G01X1368000Y7300000D02*
G01X1368000Y7260000D01*
G01X1368000Y7300000D02*
G01X1388000Y7300000D01*
G01X1400000Y7300000D02*
G01X1420000Y7300000D01*
G01X1410000Y7300000D02*
G01X1410000Y7260000D01*
G01X1432000Y7295000D02*
G01X1437000Y7300000D01*
G01X1437000Y7300000D02*
G01X1452000Y7300000D01*
G01X1452000Y7300000D02*
G01X1457000Y7295000D01*
G01X1457000Y7295000D02*
G01X1457000Y7285000D01*
G01X1432000Y7260000D02*
G01X1457000Y7285000D01*
G01X1432000Y7260000D02*
G01X1457000Y7260000D01*
G01X1790000Y8020000D02*
G01X1810000Y8020000D01*
G01X1810000Y8020000D02*
G01X1815000Y8015000D01*
G01X1815000Y8015000D02*
G01X1815000Y8005000D01*
G01X1810000Y8000000D02*
G01X1815000Y8005000D01*
G01X1795000Y8000000D02*
G01X1810000Y8000000D01*
G01X1795000Y8020000D02*
G01X1795000Y7980000D01*
G01X1803000Y8000000D02*
G01X1815000Y7980000D01*
G01X1827000Y8020000D02*
G01X1837000Y8020000D01*
G01X1832000Y8020000D02*
G01X1832000Y7980000D01*
G01X1827000Y7980000D02*
G01X1837000Y7980000D01*
G01X1849000Y8020000D02*
G01X1849000Y7980000D01*
G01X1849000Y8020000D02*
G01X1874000Y7980000D01*
G01X1874000Y8020000D02*
G01X1874000Y7980000D01*
G01X1906000Y8020000D02*
G01X1911000Y8015000D01*
G01X1891000Y8020000D02*
G01X1906000Y8020000D01*
G01X1886000Y8015000D02*
G01X1891000Y8020000D01*
G01X1886000Y8015000D02*
G01X1886000Y7985000D01*
G01X1886000Y7985000D02*
G01X1891000Y7980000D01*
G01X1891000Y7980000D02*
G01X1906000Y7980000D01*
G01X1906000Y7980000D02*
G01X1911000Y7985000D01*
G01X1911000Y7995000D02*
G01X1911000Y7985000D01*
G01X1906000Y8000000D02*
G01X1911000Y7995000D01*
G01X1896000Y8000000D02*
G01X1906000Y8000000D01*
G01X1933000Y8000000D02*
G01X1933000Y7995000D01*
G01X1933000Y7985000D02*
G01X1933000Y7980000D01*
G01X1923000Y8015000D02*
G01X1923000Y8010000D01*
G01X1923000Y8015000D02*
G01X1928000Y8020000D01*
G01X1928000Y8020000D02*
G01X1938000Y8020000D01*
G01X1938000Y8020000D02*
G01X1943000Y8015000D01*
G01X1943000Y8015000D02*
G01X1943000Y8010000D01*
G01X1933000Y8000000D02*
G01X1943000Y8010000D01*
G01X1085000Y8035000D02*
G01X1085000Y7995000D01*
G01X1085000Y8035000D02*
G01X1100000Y8015000D01*
G01X1100000Y8015000D02*
G01X1115000Y8035000D01*
G01X1115000Y8035000D02*
G01X1115000Y7995000D01*
G01X1127000Y8017000D02*
G01X1142000Y8017000D01*
G01X1127000Y7995000D02*
G01X1147000Y7995000D01*
G01X1127000Y8035000D02*
G01X1127000Y7995000D01*
G01X1127000Y8035000D02*
G01X1147000Y8035000D01*
G01X1159000Y8035000D02*
G01X1184000Y8035000D01*
G01X1159000Y7995000D02*
G01X1184000Y8035000D01*
G01X1159000Y7995000D02*
G01X1184000Y7995000D01*
G01X1196000Y8027000D02*
G01X1204000Y8035000D01*
G01X1204000Y8035000D02*
G01X1204000Y7995000D01*
G01X1196000Y7995000D02*
G01X1211000Y7995000D01*
G01X1115000Y6030000D02*
G01X1115000Y6010000D01*
G01X1115000Y6010000D02*
G01X1120000Y6005000D01*
G01X1120000Y6005000D02*
G01X1132000Y6005000D01*
G01X1137000Y6010000D02*
G01X1132000Y6005000D01*
G01X1137000Y6025000D02*
G01X1137000Y6010000D01*
G01X1115000Y6025000D02*
G01X1155000Y6025000D01*
G01X1155000Y6030000D02*
G01X1155000Y6010000D01*
G01X1155000Y6010000D02*
G01X1150000Y6005000D01*
G01X1142000Y6005000D02*
G01X1150000Y6005000D01*
G01X1137000Y6010000D02*
G01X1142000Y6005000D01*
G01X1155000Y5993000D02*
G01X1155000Y5973000D01*
G01X1155000Y5973000D02*
G01X1150000Y5968000D01*
G01X1140000Y5968000D02*
G01X1150000Y5968000D01*
G01X1135000Y5973000D02*
G01X1140000Y5968000D01*
G01X1135000Y5988000D02*
G01X1135000Y5973000D01*
G01X1115000Y5988000D02*
G01X1155000Y5988000D01*
G01X1135000Y5980000D02*
G01X1115000Y5968000D01*
G01X1115000Y5951000D02*
G01X1155000Y5951000D01*
G01X1155000Y5938000D02*
G01X1148000Y5931000D01*
G01X1122000Y5931000D02*
G01X1148000Y5931000D01*
G01X1115000Y5938000D02*
G01X1122000Y5931000D01*
G01X1115000Y5956000D02*
G01X1115000Y5938000D01*
G01X1155000Y5956000D02*
G01X1155000Y5938000D01*
G01X1150000Y5919000D02*
G01X1155000Y5914000D01*
G01X1155000Y5914000D02*
G01X1155000Y5899000D01*
G01X1155000Y5899000D02*
G01X1150000Y5894000D01*
G01X1140000Y5894000D02*
G01X1150000Y5894000D01*
G01X1115000Y5919000D02*
G01X1140000Y5894000D01*
G01X1115000Y5919000D02*
G01X1115000Y5894000D01*
G01X1080000Y7870000D02*
G01X1080000Y7830000D01*
G01X1080000Y7870000D02*
G01X1095000Y7850000D01*
G01X1095000Y7850000D02*
G01X1110000Y7870000D01*
G01X1110000Y7870000D02*
G01X1110000Y7830000D01*
G01X1122000Y7852000D02*
G01X1137000Y7852000D01*
G01X1122000Y7830000D02*
G01X1142000Y7830000D01*
G01X1122000Y7870000D02*
G01X1122000Y7830000D01*
G01X1122000Y7870000D02*
G01X1142000Y7870000D01*
G01X1154000Y7870000D02*
G01X1179000Y7870000D01*
G01X1154000Y7830000D02*
G01X1179000Y7870000D01*
G01X1154000Y7830000D02*
G01X1179000Y7830000D01*
G01X1191000Y7865000D02*
G01X1196000Y7870000D01*
G01X1196000Y7870000D02*
G01X1211000Y7870000D01*
G01X1211000Y7870000D02*
G01X1216000Y7865000D01*
G01X1216000Y7865000D02*
G01X1216000Y7855000D01*
G01X1191000Y7830000D02*
G01X1216000Y7855000D01*
G01X1191000Y7830000D02*
G01X1216000Y7830000D01*
G01X0167600Y7585000D02*
G01X0187600Y7585000D01*
G01X0177600Y7585000D02*
G01X0177600Y7545000D01*
G01X0199600Y7567000D02*
G01X0214600Y7567000D01*
G01X0199600Y7545000D02*
G01X0219600Y7545000D01*
G01X0199600Y7585000D02*
G01X0199600Y7545000D01*
G01X0199600Y7585000D02*
G01X0219600Y7585000D01*
G01X0231600Y7585000D02*
G01X0251600Y7585000D01*
G01X0251600Y7585000D02*
G01X0256600Y7580000D01*
G01X0256600Y7580000D02*
G01X0256600Y7570000D01*
G01X0251600Y7565000D02*
G01X0256600Y7570000D01*
G01X0236600Y7565000D02*
G01X0251600Y7565000D01*
G01X0236600Y7585000D02*
G01X0236600Y7545000D01*
G01X0244600Y7565000D02*
G01X0256600Y7545000D01*
G01X0268600Y7585000D02*
G01X0268600Y7545000D01*
G01X0268600Y7585000D02*
G01X0283600Y7565000D01*
G01X0283600Y7565000D02*
G01X0298600Y7585000D01*
G01X0298600Y7585000D02*
G01X0298600Y7545000D01*
G01X0320600Y7565000D02*
G01X0320600Y7560000D01*
G01X0320600Y7550000D02*
G01X0320600Y7545000D01*
G01X0310600Y7580000D02*
G01X0310600Y7575000D01*
G01X0310600Y7580000D02*
G01X0315600Y7585000D01*
G01X0315600Y7585000D02*
G01X0325600Y7585000D01*
G01X0325600Y7585000D02*
G01X0330600Y7580000D01*
G01X0330600Y7580000D02*
G01X0330600Y7575000D01*
G01X0320600Y7565000D02*
G01X0330600Y7575000D01*
G01X0030000Y5625000D02*
G01X0070000Y5625000D01*
G01X0070000Y5630000D02*
G01X0070000Y5610000D01*
G01X0070000Y5610000D02*
G01X0065000Y5605000D01*
G01X0055000Y5605000D02*
G01X0065000Y5605000D01*
G01X0050000Y5610000D02*
G01X0055000Y5605000D01*
G01X0050000Y5625000D02*
G01X0050000Y5610000D01*
G01X0050000Y5593000D02*
G01X0070000Y5593000D01*
G01X0050000Y5593000D02*
G01X0030000Y5588000D01*
G01X0030000Y5588000D02*
G01X0050000Y5578000D01*
G01X0050000Y5578000D02*
G01X0030000Y5568000D01*
G01X0030000Y5568000D02*
G01X0050000Y5563000D01*
G01X0050000Y5563000D02*
G01X0070000Y5563000D01*
G01X0070000Y5551000D02*
G01X0070000Y5531000D01*
G01X0070000Y5531000D02*
G01X0065000Y5526000D01*
G01X0055000Y5526000D02*
G01X0065000Y5526000D01*
G01X0050000Y5531000D02*
G01X0055000Y5526000D01*
G01X0050000Y5546000D02*
G01X0050000Y5531000D01*
G01X0030000Y5546000D02*
G01X0070000Y5546000D01*
G01X0050000Y5538000D02*
G01X0030000Y5526000D01*
G01X0062000Y5514000D02*
G01X0070000Y5506000D01*
G01X0030000Y5506000D02*
G01X0070000Y5506000D01*
G01X0030000Y5514000D02*
G01X0030000Y5499000D01*
G01X0188690Y5346500D02*
G01X0196690Y5346500D01*
G01X0196690Y5346500D02*
G01X0196690Y5311500D01*
G01X0191690Y5306500D02*
G01X0196690Y5311500D01*
G01X0186690Y5306500D02*
G01X0191690Y5306500D01*
G01X0181690Y5311500D02*
G01X0186690Y5306500D01*
G01X0181690Y5316500D02*
G01X0181690Y5311500D01*
G01X0208690Y5341500D02*
G01X0213690Y5346500D01*
G01X0213690Y5346500D02*
G01X0228690Y5346500D01*
G01X0228690Y5346500D02*
G01X0233690Y5341500D01*
G01X0233690Y5341500D02*
G01X0233690Y5331500D01*
G01X0208690Y5306500D02*
G01X0233690Y5331500D01*
G01X0208690Y5306500D02*
G01X0233690Y5306500D01*
G01X0188690Y5421500D02*
G01X0196690Y5421500D01*
G01X0196690Y5421500D02*
G01X0196690Y5386500D01*
G01X0191690Y5381500D02*
G01X0196690Y5386500D01*
G01X0186690Y5381500D02*
G01X0191690Y5381500D01*
G01X0181690Y5386500D02*
G01X0186690Y5381500D01*
G01X0181690Y5391500D02*
G01X0181690Y5386500D01*
G01X0208690Y5413500D02*
G01X0216690Y5421500D01*
G01X0216690Y5421500D02*
G01X0216690Y5381500D01*
G01X0208690Y5381500D02*
G01X0223690Y5381500D01*
G01X0300000Y6585000D02*
G01X0310000Y6585000D01*
G01X0305000Y6585000D02*
G01X0305000Y6545000D01*
G01X0300000Y6545000D02*
G01X0310000Y6545000D01*
G01X0332000Y6565000D02*
G01X0332000Y6560000D01*
G01X0332000Y6550000D02*
G01X0332000Y6545000D01*
G01X0322000Y6580000D02*
G01X0322000Y6575000D01*
G01X0322000Y6580000D02*
G01X0327000Y6585000D01*
G01X0327000Y6585000D02*
G01X0337000Y6585000D01*
G01X0337000Y6585000D02*
G01X0342000Y6580000D01*
G01X0342000Y6580000D02*
G01X0342000Y6575000D01*
G01X0332000Y6565000D02*
G01X0342000Y6575000D01*
G01X0235000Y7960000D02*
G01X0245000Y7920000D01*
G01X0245000Y7920000D02*
G01X0255000Y7960000D01*
G01X0272000Y7920000D02*
G01X0287000Y7920000D01*
G01X0287000Y7920000D02*
G01X0292000Y7925000D01*
G01X0287000Y7930000D02*
G01X0292000Y7925000D01*
G01X0272000Y7930000D02*
G01X0287000Y7930000D01*
G01X0267000Y7935000D02*
G01X0272000Y7930000D01*
G01X0267000Y7935000D02*
G01X0272000Y7940000D01*
G01X0272000Y7940000D02*
G01X0287000Y7940000D01*
G01X0287000Y7940000D02*
G01X0292000Y7935000D01*
G01X0267000Y7925000D02*
G01X0272000Y7920000D01*
G01X0304000Y7940000D02*
G01X0304000Y7925000D01*
G01X0304000Y7925000D02*
G01X0309000Y7920000D01*
G01X0324000Y7940000D02*
G01X0324000Y7910000D01*
G01X0319000Y7905000D02*
G01X0324000Y7910000D01*
G01X0309000Y7905000D02*
G01X0319000Y7905000D01*
G01X0304000Y7910000D02*
G01X0309000Y7905000D01*
G01X0309000Y7920000D02*
G01X0319000Y7920000D01*
G01X0319000Y7920000D02*
G01X0324000Y7925000D01*
G01X0341000Y7920000D02*
G01X0356000Y7920000D01*
G01X0356000Y7920000D02*
G01X0361000Y7925000D01*
G01X0356000Y7930000D02*
G01X0361000Y7925000D01*
G01X0341000Y7930000D02*
G01X0356000Y7930000D01*
G01X0336000Y7935000D02*
G01X0341000Y7930000D01*
G01X0336000Y7935000D02*
G01X0341000Y7940000D01*
G01X0341000Y7940000D02*
G01X0356000Y7940000D01*
G01X0356000Y7940000D02*
G01X0361000Y7935000D01*
G01X0336000Y7925000D02*
G01X0341000Y7920000D01*
G01X0383000Y7940000D02*
G01X0383000Y7935000D01*
G01X0383000Y7925000D02*
G01X0383000Y7920000D01*
G01X0373000Y7955000D02*
G01X0373000Y7950000D01*
G01X0373000Y7955000D02*
G01X0378000Y7960000D01*
G01X0378000Y7960000D02*
G01X0388000Y7960000D01*
G01X0388000Y7960000D02*
G01X0393000Y7955000D01*
G01X0393000Y7955000D02*
G01X0393000Y7950000D01*
G01X0383000Y7940000D02*
G01X0393000Y7950000D01*
G01X0787400Y8152050D02*
G01X0787400Y8132050D01*
G01X0787400Y8152050D02*
G01X0782400Y8172050D01*
G01X0782400Y8172050D02*
G01X0772400Y8152050D01*
G01X0772400Y8152050D02*
G01X0762400Y8172050D01*
G01X0762400Y8172050D02*
G01X0757400Y8152050D01*
G01X0757400Y8152050D02*
G01X0757400Y8132050D01*
G01X0725400Y8132050D02*
G01X0745400Y8132050D01*
G01X0735400Y8172050D02*
G01X0735400Y8132050D01*
G01X0693400Y8172050D02*
G01X0713400Y8172050D01*
G01X0693400Y8172050D02*
G01X0688400Y8167050D01*
G01X0688400Y8167050D02*
G01X0688400Y8155050D01*
G01X0693400Y8150050D02*
G01X0688400Y8155050D01*
G01X0693400Y8150050D02*
G01X0708400Y8150050D01*
G01X0708400Y8172050D02*
G01X0708400Y8132050D01*
G01X0693400Y8132050D02*
G01X0713400Y8132050D01*
G01X0693400Y8132050D02*
G01X0688400Y8137050D01*
G01X0688400Y8145050D02*
G01X0688400Y8137050D01*
G01X0693400Y8150050D02*
G01X0688400Y8145050D01*
G01X0666400Y8157050D02*
G01X0666400Y8152050D01*
G01X0666400Y8172050D02*
G01X0666400Y8167050D01*
G01X0676400Y8142050D02*
G01X0676400Y8137050D01*
G01X0676400Y8137050D02*
G01X0671400Y8132050D01*
G01X0661400Y8132050D02*
G01X0671400Y8132050D01*
G01X0661400Y8132050D02*
G01X0656400Y8137050D01*
G01X0656400Y8142050D02*
G01X0656400Y8137050D01*
G01X0666400Y8152050D02*
G01X0656400Y8142050D01*
G01X0935040Y8152050D02*
G01X0935040Y8132050D01*
G01X0935040Y8152050D02*
G01X0930040Y8172050D01*
G01X0930040Y8172050D02*
G01X0920040Y8152050D01*
G01X0920040Y8152050D02*
G01X0910040Y8172050D01*
G01X0910040Y8172050D02*
G01X0905040Y8152050D01*
G01X0905040Y8152050D02*
G01X0905040Y8132050D01*
G01X0873040Y8132050D02*
G01X0893040Y8132050D01*
G01X0883040Y8172050D02*
G01X0883040Y8132050D01*
G01X0841040Y8172050D02*
G01X0861040Y8172050D01*
G01X0841040Y8172050D02*
G01X0836040Y8167050D01*
G01X0836040Y8167050D02*
G01X0836040Y8155050D01*
G01X0841040Y8150050D02*
G01X0836040Y8155050D01*
G01X0841040Y8150050D02*
G01X0856040Y8150050D01*
G01X0856040Y8172050D02*
G01X0856040Y8132050D01*
G01X0841040Y8132050D02*
G01X0861040Y8132050D01*
G01X0841040Y8132050D02*
G01X0836040Y8137050D01*
G01X0836040Y8145050D02*
G01X0836040Y8137050D01*
G01X0841040Y8150050D02*
G01X0836040Y8145050D01*
G01X0814040Y8157050D02*
G01X0814040Y8152050D01*
G01X0814040Y8172050D02*
G01X0814040Y8167050D01*
G01X0824040Y8142050D02*
G01X0824040Y8137050D01*
G01X0824040Y8137050D02*
G01X0819040Y8132050D01*
G01X0809040Y8132050D02*
G01X0819040Y8132050D01*
G01X0809040Y8132050D02*
G01X0804040Y8137050D01*
G01X0804040Y8142050D02*
G01X0804040Y8137050D01*
G01X0814040Y8152050D02*
G01X0804040Y8142050D01*
G01X0000000Y0000000D02*
G54D10*
G01X0879920Y8082680D02*
G01X0911420Y8051180D01*
G01X0875980Y8082680D02*
G01X0879920Y8082680D01*
G01X0964760Y8051180D02*
G01X0970470Y8045470D01*
G01X0911420Y8051180D02*
G01X0964760Y8051180D01*
G01X0970470Y8086610D02*
G01X0935040Y8122050D01*
G01X0970470Y8047240D02*
G01X0970470Y8086610D01*
G01X0822830Y8086610D02*
G01X0787400Y8122050D01*
G01X0822830Y8047240D02*
G01X0822830Y8086610D01*
G01X0767720Y8047240D02*
G01X0763780Y8051180D01*
G01X0763780Y8051180D02*
G01X0759840Y8051180D01*
G01X0822830Y8047240D02*
G01X0767720Y8047240D01*
G01X0759840Y8051180D02*
G01X0728350Y8082680D01*
G01X2000000Y5475000D02*
G01X2005000Y5480000D01*
G54D15*
G01X2005000Y5480000D02*
G01X2005000Y5580000D01*
G54D10*
G01X2005000Y5480000D02*
G01X2005000Y5368190D01*
G01X2005000Y5368190D02*
G01X1986810Y5350000D01*
G54D15*
G01X0230000Y5580000D02*
G01X0230000Y5480000D01*
G54D10*
G01X0230000Y5475000D02*
G01X0230000Y5455000D01*
G01X0230000Y5480000D02*
G01X0230000Y5405000D01*
G01X0230000Y5405000D02*
G01X0225000Y5400000D01*
G01X0225000Y5400000D02*
G01X0225000Y5125000D01*
G01X0225000Y5125000D02*
G01X0275000Y5075000D01*
G01X0275000Y5075000D02*
G01X1950000Y5075000D01*
G01X0225000Y5400000D02*
G01X0201380Y5400000D01*
G01X1963190Y5350000D02*
G01X1963190Y5088190D01*
G01X1963190Y5088190D02*
G01X1950000Y5075000D01*
G54D16*
G36*
G01X0890000Y6010000D02*
G01X0890000Y5950000D01*
G01X0950000Y5950000D01*
G01X0950000Y6010000D01*
G01X0890000Y6010000D01*
G37*
G36*
G01X1185000Y6010000D02*
G01X1185000Y5950000D01*
G01X1245000Y5950000D01*
G01X1245000Y6010000D01*
G01X1185000Y6010000D01*
G37*
G54D17*
G01X0920000Y5880000D03*
G01X1215000Y5880000D03*
G01X0920000Y5780000D03*
G01X0920000Y5680000D03*
G01X0920000Y5580000D03*
G01X0920000Y5480000D03*
G01X0920000Y5380000D03*
G01X0920000Y5280000D03*
G01X1215000Y5780000D03*
G01X1215000Y5680000D03*
G01X1215000Y5580000D03*
G01X1215000Y5480000D03*
G01X1215000Y5380000D03*
G01X1215000Y5280000D03*
G54D16*
G36*
G01X0100000Y5610000D02*
G01X0100000Y5550000D01*
G01X0160000Y5550000D01*
G01X0160000Y5610000D01*
G01X0100000Y5610000D01*
G37*
G54D17*
G01X0130000Y5480000D03*
G01X0230000Y5480000D03*
G01X0230000Y5580000D03*
G54D16*
G36*
G01X1875000Y5610000D02*
G01X1875000Y5550000D01*
G01X1935000Y5550000D01*
G01X1935000Y5610000D01*
G01X1875000Y5610000D01*
G37*
G54D17*
G01X1905000Y5480000D03*
G01X2005000Y5480000D03*
G01X2005000Y5580000D03*
G54D18*
G01X2175000Y5475000D03*
G01X2175000Y6125000D03*
G01X2175000Y5800000D03*
G01X2175000Y4825000D03*
G01X2175000Y5150000D03*
G54D17*
G01X1460000Y7310000D03*
G01X1575000Y7310000D03*
G01X1560000Y7210000D03*
G01X1475000Y7210000D03*
G01X1235000Y7310000D03*
G01X1220000Y7210000D03*
G01X1320000Y7310000D03*
G01X1335000Y7210000D03*
G01X1460000Y7110000D03*
G01X1475000Y7010000D03*
G01X1460000Y6910000D03*
G01X1575000Y7110000D03*
G01X1235000Y7110000D03*
G01X1320000Y7110000D03*
G54D19*
G01X0329570Y7099920D03*
G54D17*
G01X1560000Y7010000D03*
G01X1220000Y7010000D03*
G01X1335000Y7010000D03*
G01X1575000Y6910000D03*
G01X1320000Y6910000D03*
G01X1235000Y6910000D03*
G01X1220000Y6810000D03*
G01X1335000Y6810000D03*
G54D19*
G01X0400430Y7140080D03*
G01X0589800Y6904650D03*
G54D17*
G01X1475000Y6810000D03*
G01X1560000Y6810000D03*
G54D20*
G01X0229960Y6827870D03*
G54D21*
G01X0365000Y6820000D03*
G54D19*
G01X0589800Y6804250D03*
G01X0329570Y7019610D03*
G01X0329570Y6939290D03*
G01X0400430Y7059760D03*
G01X0400430Y6979450D03*
G54D18*
G01X2175000Y6775000D03*
G01X2175000Y6450000D03*
G54D19*
G01X0589800Y7255040D03*
G01X0589800Y7355430D03*
G54D20*
G01X0229960Y7331810D03*
G54D21*
G01X0365000Y7339690D03*
G54D19*
G01X0329570Y7180240D03*
G01X0400430Y7220390D03*
G54D22*
G01X0167600Y7595000D03*
G01X0364450Y7595000D03*
G01X0561300Y7595000D03*
G01X0758150Y7595000D03*
G01X0955000Y7595000D03*
G54D23*
G01X1790000Y8030000D03*
G54D24*
G01X1947480Y8030000D03*
G01X1925830Y7951260D03*
G01X1925830Y8108740D03*
G01X1632520Y8030000D03*
G01X1654170Y7951260D03*
G01X1654170Y8108740D03*
G01X1790000Y7872520D03*
G01X1713230Y7892200D03*
G01X1866770Y7892200D03*
G01X1790000Y8187480D03*
G01X1866770Y8167800D03*
G01X1713230Y8167800D03*
G54D18*
G01X2175000Y8075000D03*
G01X2175000Y7750000D03*
G01X2175000Y7425000D03*
G01X2175000Y7100000D03*
G54D22*
G01X1151850Y7595000D03*
G01X1348700Y7595000D03*
G01X1545550Y7595000D03*
G01X1742400Y7595000D03*
G54D23*
G01X0785000Y7875000D03*
G54D25*
G01X0763780Y8051180D03*
G54D26*
G01X0728350Y8082680D03*
G54D27*
G01X0235000Y7970000D03*
G01X0518460Y7970000D03*
G54D23*
G01X0787400Y8122050D03*
G54D20*
G01X0822830Y8047240D03*
G54D23*
G01X0935040Y8122050D03*
G54D20*
G01X0970470Y8047240D03*
G54D25*
G01X0911420Y8051180D03*
G54D26*
G01X0875980Y8082680D03*
G54D12*
G01X0695070Y7174500D02*
G01X0702070Y7167500D01*
G54D16*
G36*
G01X0677070Y7177500D02*
G01X0677070Y7171500D01*
G01X0698070Y7171500D01*
G01X0698070Y7177500D01*
G01X0677070Y7177500D01*
G37*
G54D12*
G01X0705070Y7167500D02*
G01X0711070Y7173500D01*
G01X0711070Y7173500D02*
G01X0717070Y7167500D01*
G01X0702070Y7167500D02*
G01X0732070Y7167500D01*
G01X0732070Y7167500D02*
G01X0739070Y7174500D01*
G54D16*
G36*
G01X0736070Y7177500D02*
G01X0736070Y7171500D01*
G01X0747070Y7171500D01*
G01X0747070Y7177500D01*
G01X0736070Y7177500D01*
G37*
G54D12*
G01X0723070Y7173500D02*
G01X0729070Y7167500D01*
G01X0717070Y7167500D02*
G01X0723070Y7173500D01*
G01X0696070Y7187500D02*
G01X0702070Y7193500D01*
G01X0704070Y7193500D02*
G01X0711070Y7186500D01*
G01X0711070Y7186500D02*
G01X0718070Y7193500D01*
G01X0716070Y7193500D02*
G01X0723070Y7186500D01*
G01X0723070Y7186500D02*
G01X0730070Y7193500D01*
G54D16*
G36*
G01X0677070Y7190500D02*
G01X0677070Y7184500D01*
G01X0699070Y7184500D01*
G01X0699070Y7190500D01*
G01X0677070Y7190500D01*
G37*
G36*
G01X0720160Y7294520D02*
G01X0668980Y7294520D01*
G01X0668980Y7235480D01*
G01X0720160Y7235480D01*
G01X0720160Y7294520D01*
G37*
G36*
G01X0791020Y7294520D02*
G01X0739840Y7294520D01*
G01X0739840Y7235480D01*
G01X0791020Y7235480D01*
G01X0791020Y7294520D01*
G37*
G36*
G01X0915160Y7304520D02*
G01X0863980Y7304520D01*
G01X0863980Y7245480D01*
G01X0915160Y7245480D01*
G01X0915160Y7304520D01*
G37*
G36*
G01X0986020Y7304520D02*
G01X0934840Y7304520D01*
G01X0934840Y7245480D01*
G01X0986020Y7245480D01*
G01X0986020Y7304520D01*
G37*
G54D12*
G01X0702070Y7193500D02*
G01X0733070Y7193500D01*
G01X0702070Y7193500D02*
G01X0704070Y7193500D01*
G01X0733070Y7193500D02*
G01X0739070Y7187500D01*
G54D16*
G36*
G01X0736070Y7190500D02*
G01X0736070Y7184500D01*
G01X0747070Y7184500D01*
G01X0747070Y7190500D01*
G01X0736070Y7190500D01*
G37*
G36*
G01X1955320Y5357870D02*
G01X1955320Y5342130D01*
G01X1971060Y5342130D01*
G01X1971060Y5357870D01*
G01X1955320Y5357870D01*
G37*
G36*
G01X1978940Y5357870D02*
G01X1978940Y5342130D01*
G01X1994680Y5342130D01*
G01X1994680Y5357870D01*
G01X1978940Y5357870D01*
G37*
G36*
G01X0193510Y5332870D02*
G01X0193510Y5317130D01*
G01X0209250Y5317130D01*
G01X0209250Y5332870D01*
G01X0193510Y5332870D01*
G37*
G36*
G01X0217130Y5332870D02*
G01X0217130Y5317130D01*
G01X0232870Y5317130D01*
G01X0232870Y5332870D01*
G01X0217130Y5332870D01*
G37*
G36*
G01X0193510Y5407870D02*
G01X0193510Y5392130D01*
G01X0209250Y5392130D01*
G01X0209250Y5407870D01*
G01X0193510Y5407870D01*
G37*
G36*
G01X0217130Y5407870D02*
G01X0217130Y5392130D01*
G01X0232870Y5392130D01*
G01X0232870Y5407870D01*
G01X0217130Y5407870D01*
G37*
G36*
G01X1503310Y8028660D02*
G01X1495040Y8028660D01*
G01X1495040Y8001100D01*
G01X1503310Y8001100D01*
G01X1503310Y8028660D01*
G37*
G36*
G01X1503310Y8088900D02*
G01X1495040Y8088900D01*
G01X1495040Y8061340D01*
G01X1503310Y8061340D01*
G01X1503310Y8088900D01*
G37*
G36*
G01X1487760Y8018620D02*
G01X1481460Y8018620D01*
G01X1481460Y8000510D01*
G01X1487760Y8000510D01*
G01X1487760Y8018620D01*
G37*
G36*
G01X1473980Y8018620D02*
G01X1467680Y8018620D01*
G01X1467680Y8000510D01*
G01X1473980Y8000510D01*
G01X1473980Y8018620D01*
G37*
G36*
G01X1460200Y8018620D02*
G01X1453900Y8018620D01*
G01X1453900Y8000510D01*
G01X1460200Y8000510D01*
G01X1460200Y8018620D01*
G37*
G36*
G01X1446420Y8018620D02*
G01X1440120Y8018620D01*
G01X1440120Y8000510D01*
G01X1446420Y8000510D01*
G01X1446420Y8018620D01*
G37*
G36*
G01X1432640Y8018620D02*
G01X1426340Y8018620D01*
G01X1426340Y8000510D01*
G01X1432640Y8000510D01*
G01X1432640Y8018620D01*
G37*
G36*
G01X1487760Y8089490D02*
G01X1481460Y8089490D01*
G01X1481460Y8071380D01*
G01X1487760Y8071380D01*
G01X1487760Y8089490D01*
G37*
G36*
G01X1473980Y8089490D02*
G01X1467680Y8089490D01*
G01X1467680Y8071380D01*
G01X1473980Y8071380D01*
G01X1473980Y8089490D01*
G37*
G36*
G01X1460200Y8089490D02*
G01X1453900Y8089490D01*
G01X1453900Y8071380D01*
G01X1460200Y8071380D01*
G01X1460200Y8089490D01*
G37*
G36*
G01X1418860Y8018620D02*
G01X1412560Y8018620D01*
G01X1412560Y8000510D01*
G01X1418860Y8000510D01*
G01X1418860Y8018620D01*
G37*
G36*
G01X1405080Y8018620D02*
G01X1398780Y8018620D01*
G01X1398780Y8000510D01*
G01X1405080Y8000510D01*
G01X1405080Y8018620D01*
G37*
G36*
G01X1391300Y8018620D02*
G01X1385000Y8018620D01*
G01X1385000Y8000510D01*
G01X1391300Y8000510D01*
G01X1391300Y8018620D01*
G37*
G36*
G01X1377520Y8018620D02*
G01X1371220Y8018620D01*
G01X1371220Y8000510D01*
G01X1377520Y8000510D01*
G01X1377520Y8018620D01*
G37*
G36*
G01X1363740Y8018620D02*
G01X1357440Y8018620D01*
G01X1357440Y8000510D01*
G01X1363740Y8000510D01*
G01X1363740Y8018620D01*
G37*
G36*
G01X1446420Y8089490D02*
G01X1440120Y8089490D01*
G01X1440120Y8071380D01*
G01X1446420Y8071380D01*
G01X1446420Y8089490D01*
G37*
G36*
G01X1432640Y8089490D02*
G01X1426340Y8089490D01*
G01X1426340Y8071380D01*
G01X1432640Y8071380D01*
G01X1432640Y8089490D01*
G37*
G36*
G01X1418860Y8089490D02*
G01X1412560Y8089490D01*
G01X1412560Y8071380D01*
G01X1418860Y8071380D01*
G01X1418860Y8089490D01*
G37*
G36*
G01X1405080Y8089490D02*
G01X1398780Y8089490D01*
G01X1398780Y8071380D01*
G01X1405080Y8071380D01*
G01X1405080Y8089490D01*
G37*
G36*
G01X1391300Y8089490D02*
G01X1385000Y8089490D01*
G01X1385000Y8071380D01*
G01X1391300Y8071380D01*
G01X1391300Y8089490D01*
G37*
G36*
G01X1377520Y8089490D02*
G01X1371220Y8089490D01*
G01X1371220Y8071380D01*
G01X1377520Y8071380D01*
G01X1377520Y8089490D01*
G37*
G36*
G01X1363740Y8089490D02*
G01X1357440Y8089490D01*
G01X1357440Y8071380D01*
G01X1363740Y8071380D01*
G01X1363740Y8089490D01*
G37*
G36*
G01X1349960Y8089490D02*
G01X1343660Y8089490D01*
G01X1343660Y8071380D01*
G01X1349960Y8071380D01*
G01X1349960Y8089490D01*
G37*
G36*
G01X1336180Y8089490D02*
G01X1329880Y8089490D01*
G01X1329880Y8071380D01*
G01X1336180Y8071380D01*
G01X1336180Y8089490D01*
G37*
G36*
G01X1322400Y8089490D02*
G01X1316100Y8089490D01*
G01X1316100Y8071380D01*
G01X1322400Y8071380D01*
G01X1322400Y8089490D01*
G37*
G36*
G01X1308620Y8089490D02*
G01X1302320Y8089490D01*
G01X1302320Y8071380D01*
G01X1308620Y8071380D01*
G01X1308620Y8089490D01*
G37*
G36*
G01X1294840Y8089490D02*
G01X1288540Y8089490D01*
G01X1288540Y8071380D01*
G01X1294840Y8071380D01*
G01X1294840Y8089490D01*
G37*
G36*
G01X1074570Y8028660D02*
G01X1066300Y8028660D01*
G01X1066300Y8001100D01*
G01X1074570Y8001100D01*
G01X1074570Y8028660D01*
G37*
G36*
G01X1074570Y8088900D02*
G01X1066300Y8088900D01*
G01X1066300Y8061340D01*
G01X1074570Y8061340D01*
G01X1074570Y8088900D01*
G37*
G36*
G01X1253500Y8018620D02*
G01X1247200Y8018620D01*
G01X1247200Y8000510D01*
G01X1253500Y8000510D01*
G01X1253500Y8018620D01*
G37*
G36*
G01X1239720Y8018620D02*
G01X1233430Y8018620D01*
G01X1233430Y8000510D01*
G01X1239720Y8000510D01*
G01X1239720Y8018620D01*
G37*
G36*
G01X1225940Y8018620D02*
G01X1219650Y8018620D01*
G01X1219650Y8000510D01*
G01X1225940Y8000510D01*
G01X1225940Y8018620D01*
G37*
G36*
G01X1212170Y8018620D02*
G01X1205870Y8018620D01*
G01X1205870Y8000510D01*
G01X1212170Y8000510D01*
G01X1212170Y8018620D01*
G37*
G36*
G01X1198390Y8018620D02*
G01X1192090Y8018620D01*
G01X1192090Y8000510D01*
G01X1198390Y8000510D01*
G01X1198390Y8018620D01*
G37*
G36*
G01X1184610Y8018620D02*
G01X1178310Y8018620D01*
G01X1178310Y8000510D01*
G01X1184610Y8000510D01*
G01X1184610Y8018620D01*
G37*
G36*
G01X1170830Y8018620D02*
G01X1164530Y8018620D01*
G01X1164530Y8000510D01*
G01X1170830Y8000510D01*
G01X1170830Y8018620D01*
G37*
G36*
G01X1157050Y8018620D02*
G01X1150750Y8018620D01*
G01X1150750Y8000510D01*
G01X1157050Y8000510D01*
G01X1157050Y8018620D01*
G37*
G36*
G01X1143270Y8018620D02*
G01X1136970Y8018620D01*
G01X1136970Y8000510D01*
G01X1143270Y8000510D01*
G01X1143270Y8018620D01*
G37*
G36*
G01X1129490Y8018620D02*
G01X1123190Y8018620D01*
G01X1123190Y8000510D01*
G01X1129490Y8000510D01*
G01X1129490Y8018620D01*
G37*
G36*
G01X1115710Y8018620D02*
G01X1109410Y8018620D01*
G01X1109410Y8000510D01*
G01X1115710Y8000510D01*
G01X1115710Y8018620D01*
G37*
G36*
G01X1101930Y8018620D02*
G01X1095630Y8018620D01*
G01X1095630Y8000510D01*
G01X1101930Y8000510D01*
G01X1101930Y8018620D01*
G37*
G36*
G01X1088150Y8018620D02*
G01X1081850Y8018620D01*
G01X1081850Y8000510D01*
G01X1088150Y8000510D01*
G01X1088150Y8018620D01*
G37*
G36*
G01X1281060Y8089490D02*
G01X1274760Y8089490D01*
G01X1274760Y8071380D01*
G01X1281060Y8071380D01*
G01X1281060Y8089490D01*
G37*
G36*
G01X1267280Y8089490D02*
G01X1260980Y8089490D01*
G01X1260980Y8071380D01*
G01X1267280Y8071380D01*
G01X1267280Y8089490D01*
G37*
G36*
G01X1253500Y8089490D02*
G01X1247200Y8089490D01*
G01X1247200Y8071380D01*
G01X1253500Y8071380D01*
G01X1253500Y8089490D01*
G37*
G36*
G01X1239720Y8089490D02*
G01X1233430Y8089490D01*
G01X1233430Y8071380D01*
G01X1239720Y8071380D01*
G01X1239720Y8089490D01*
G37*
G36*
G01X1225940Y8089490D02*
G01X1219650Y8089490D01*
G01X1219650Y8071380D01*
G01X1225940Y8071380D01*
G01X1225940Y8089490D01*
G37*
G36*
G01X1212170Y8089490D02*
G01X1205870Y8089490D01*
G01X1205870Y8071380D01*
G01X1212170Y8071380D01*
G01X1212170Y8089490D01*
G37*
G36*
G01X1198390Y8089490D02*
G01X1192090Y8089490D01*
G01X1192090Y8071380D01*
G01X1198390Y8071380D01*
G01X1198390Y8089490D01*
G37*
G36*
G01X1184610Y8089490D02*
G01X1178310Y8089490D01*
G01X1178310Y8071380D01*
G01X1184610Y8071380D01*
G01X1184610Y8089490D01*
G37*
G36*
G01X1170830Y8089490D02*
G01X1164530Y8089490D01*
G01X1164530Y8071380D01*
G01X1170830Y8071380D01*
G01X1170830Y8089490D01*
G37*
G36*
G01X1157050Y8089490D02*
G01X1150750Y8089490D01*
G01X1150750Y8071380D01*
G01X1157050Y8071380D01*
G01X1157050Y8089490D01*
G37*
G36*
G01X1143270Y8089490D02*
G01X1136970Y8089490D01*
G01X1136970Y8071380D01*
G01X1143270Y8071380D01*
G01X1143270Y8089490D01*
G37*
G36*
G01X1129490Y8089490D02*
G01X1123190Y8089490D01*
G01X1123190Y8071380D01*
G01X1129490Y8071380D01*
G01X1129490Y8089490D01*
G37*
G36*
G01X1115710Y8089490D02*
G01X1109410Y8089490D01*
G01X1109410Y8071380D01*
G01X1115710Y8071380D01*
G01X1115710Y8089490D01*
G37*
G36*
G01X1101930Y8089490D02*
G01X1095630Y8089490D01*
G01X1095630Y8071380D01*
G01X1101930Y8071380D01*
G01X1101930Y8089490D01*
G37*
G36*
G01X1088150Y8089490D02*
G01X1081850Y8089490D01*
G01X1081850Y8071380D01*
G01X1088150Y8071380D01*
G01X1088150Y8089490D01*
G37*
G36*
G01X1349960Y8018620D02*
G01X1343660Y8018620D01*
G01X1343660Y8000510D01*
G01X1349960Y8000510D01*
G01X1349960Y8018620D01*
G37*
G36*
G01X1336180Y8018620D02*
G01X1329880Y8018620D01*
G01X1329880Y8000510D01*
G01X1336180Y8000510D01*
G01X1336180Y8018620D01*
G37*
G36*
G01X1322400Y8018620D02*
G01X1316100Y8018620D01*
G01X1316100Y8000510D01*
G01X1322400Y8000510D01*
G01X1322400Y8018620D01*
G37*
G36*
G01X1308620Y8018620D02*
G01X1302320Y8018620D01*
G01X1302320Y8000510D01*
G01X1308620Y8000510D01*
G01X1308620Y8018620D01*
G37*
G36*
G01X1294840Y8018620D02*
G01X1288540Y8018620D01*
G01X1288540Y8000510D01*
G01X1294840Y8000510D01*
G01X1294840Y8018620D01*
G37*
G36*
G01X1281060Y8018620D02*
G01X1274760Y8018620D01*
G01X1274760Y8000510D01*
G01X1281060Y8000510D01*
G01X1281060Y8018620D01*
G37*
G36*
G01X1267280Y8018620D02*
G01X1260980Y8018620D01*
G01X1260980Y8000510D01*
G01X1267280Y8000510D01*
G01X1267280Y8018620D01*
G37*
G36*
G01X1138270Y7926460D02*
G01X1131970Y7926460D01*
G01X1131970Y7908350D01*
G01X1138270Y7908350D01*
G01X1138270Y7926460D01*
G37*
G36*
G01X1152050Y7926460D02*
G01X1145750Y7926460D01*
G01X1145750Y7908350D01*
G01X1152050Y7908350D01*
G01X1152050Y7926460D01*
G37*
G36*
G01X1165830Y7926460D02*
G01X1159530Y7926460D01*
G01X1159530Y7908350D01*
G01X1165830Y7908350D01*
G01X1165830Y7926460D01*
G37*
G36*
G01X1179610Y7926460D02*
G01X1173310Y7926460D01*
G01X1173310Y7908350D01*
G01X1179610Y7908350D01*
G01X1179610Y7926460D01*
G37*
G36*
G01X1193390Y7926460D02*
G01X1187090Y7926460D01*
G01X1187090Y7908350D01*
G01X1193390Y7908350D01*
G01X1193390Y7926460D01*
G37*
G36*
G01X1207170Y7926460D02*
G01X1200870Y7926460D01*
G01X1200870Y7908350D01*
G01X1207170Y7908350D01*
G01X1207170Y7926460D01*
G37*
G36*
G01X1220940Y7926460D02*
G01X1214650Y7926460D01*
G01X1214650Y7908350D01*
G01X1220940Y7908350D01*
G01X1220940Y7926460D01*
G37*
G36*
G01X1234720Y7926460D02*
G01X1228430Y7926460D01*
G01X1228430Y7908350D01*
G01X1234720Y7908350D01*
G01X1234720Y7926460D01*
G37*
G36*
G01X1248500Y7926460D02*
G01X1242200Y7926460D01*
G01X1242200Y7908350D01*
G01X1248500Y7908350D01*
G01X1248500Y7926460D01*
G37*
G36*
G01X1262280Y7926460D02*
G01X1255980Y7926460D01*
G01X1255980Y7908350D01*
G01X1262280Y7908350D01*
G01X1262280Y7926460D01*
G37*
G36*
G01X1276060Y7926460D02*
G01X1269760Y7926460D01*
G01X1269760Y7908350D01*
G01X1276060Y7908350D01*
G01X1276060Y7926460D01*
G37*
G36*
G01X1289840Y7926460D02*
G01X1283540Y7926460D01*
G01X1283540Y7908350D01*
G01X1289840Y7908350D01*
G01X1289840Y7926460D01*
G37*
G36*
G01X1303620Y7926460D02*
G01X1297320Y7926460D01*
G01X1297320Y7908350D01*
G01X1303620Y7908350D01*
G01X1303620Y7926460D01*
G37*
G36*
G01X1317400Y7926460D02*
G01X1311100Y7926460D01*
G01X1311100Y7908350D01*
G01X1317400Y7908350D01*
G01X1317400Y7926460D01*
G37*
G36*
G01X1331180Y7926460D02*
G01X1324880Y7926460D01*
G01X1324880Y7908350D01*
G01X1331180Y7908350D01*
G01X1331180Y7926460D01*
G37*
G36*
G01X1344960Y7926460D02*
G01X1338660Y7926460D01*
G01X1338660Y7908350D01*
G01X1344960Y7908350D01*
G01X1344960Y7926460D01*
G37*
G36*
G01X1358740Y7926460D02*
G01X1352440Y7926460D01*
G01X1352440Y7908350D01*
G01X1358740Y7908350D01*
G01X1358740Y7926460D01*
G37*
G36*
G01X1372520Y7926460D02*
G01X1366220Y7926460D01*
G01X1366220Y7908350D01*
G01X1372520Y7908350D01*
G01X1372520Y7926460D01*
G37*
G36*
G01X1386300Y7926460D02*
G01X1380000Y7926460D01*
G01X1380000Y7908350D01*
G01X1386300Y7908350D01*
G01X1386300Y7926460D01*
G37*
G36*
G01X1400080Y7926460D02*
G01X1393780Y7926460D01*
G01X1393780Y7908350D01*
G01X1400080Y7908350D01*
G01X1400080Y7926460D01*
G37*
G36*
G01X1413860Y7926460D02*
G01X1407560Y7926460D01*
G01X1407560Y7908350D01*
G01X1413860Y7908350D01*
G01X1413860Y7926460D01*
G37*
G36*
G01X1427640Y7926460D02*
G01X1421340Y7926460D01*
G01X1421340Y7908350D01*
G01X1427640Y7908350D01*
G01X1427640Y7926460D01*
G37*
G36*
G01X1441420Y7926460D02*
G01X1435120Y7926460D01*
G01X1435120Y7908350D01*
G01X1441420Y7908350D01*
G01X1441420Y7926460D01*
G37*
G36*
G01X1455200Y7926460D02*
G01X1448900Y7926460D01*
G01X1448900Y7908350D01*
G01X1455200Y7908350D01*
G01X1455200Y7926460D01*
G37*
G36*
G01X1468980Y7926460D02*
G01X1462680Y7926460D01*
G01X1462680Y7908350D01*
G01X1468980Y7908350D01*
G01X1468980Y7926460D01*
G37*
G36*
G01X1482760Y7926460D02*
G01X1476460Y7926460D01*
G01X1476460Y7908350D01*
G01X1482760Y7908350D01*
G01X1482760Y7926460D01*
G37*
G36*
G01X1083150Y7926460D02*
G01X1076850Y7926460D01*
G01X1076850Y7908350D01*
G01X1083150Y7908350D01*
G01X1083150Y7926460D01*
G37*
G36*
G01X1096930Y7926460D02*
G01X1090630Y7926460D01*
G01X1090630Y7908350D01*
G01X1096930Y7908350D01*
G01X1096930Y7926460D01*
G37*
G36*
G01X1110710Y7926460D02*
G01X1104410Y7926460D01*
G01X1104410Y7908350D01*
G01X1110710Y7908350D01*
G01X1110710Y7926460D01*
G37*
G36*
G01X1124490Y7926460D02*
G01X1118190Y7926460D01*
G01X1118190Y7908350D01*
G01X1124490Y7908350D01*
G01X1124490Y7926460D01*
G37*
G36*
G01X1035910Y7912680D02*
G01X1021730Y7912680D01*
G01X1021730Y7884720D01*
G01X1035910Y7884720D01*
G01X1035910Y7912680D01*
G37*
G36*
G01X1035910Y7875280D02*
G01X1021730Y7875280D01*
G01X1021730Y7847320D01*
G01X1035910Y7847320D01*
G01X1035910Y7875280D01*
G37*
G54D26*
G01X0925000Y7870000D03*
G54D16*
G36*
G01X1083150Y7849690D02*
G01X1076850Y7849690D01*
G01X1076850Y7831570D01*
G01X1083150Y7831570D01*
G01X1083150Y7849690D01*
G37*
G36*
G01X1096930Y7849690D02*
G01X1090630Y7849690D01*
G01X1090630Y7831570D01*
G01X1096930Y7831570D01*
G01X1096930Y7849690D01*
G37*
G36*
G01X1110710Y7849690D02*
G01X1104410Y7849690D01*
G01X1104410Y7831570D01*
G01X1110710Y7831570D01*
G01X1110710Y7849690D01*
G37*
G36*
G01X1124490Y7849690D02*
G01X1118190Y7849690D01*
G01X1118190Y7831570D01*
G01X1124490Y7831570D01*
G01X1124490Y7849690D01*
G37*
G36*
G01X1138270Y7849690D02*
G01X1131970Y7849690D01*
G01X1131970Y7831570D01*
G01X1138270Y7831570D01*
G01X1138270Y7849690D01*
G37*
G36*
G01X1152050Y7849690D02*
G01X1145750Y7849690D01*
G01X1145750Y7831570D01*
G01X1152050Y7831570D01*
G01X1152050Y7849690D01*
G37*
G36*
G01X1165830Y7849690D02*
G01X1159530Y7849690D01*
G01X1159530Y7831570D01*
G01X1165830Y7831570D01*
G01X1165830Y7849690D01*
G37*
G36*
G01X1179610Y7849690D02*
G01X1173310Y7849690D01*
G01X1173310Y7831570D01*
G01X1179610Y7831570D01*
G01X1179610Y7849690D01*
G37*
G36*
G01X1193390Y7849690D02*
G01X1187090Y7849690D01*
G01X1187090Y7831570D01*
G01X1193390Y7831570D01*
G01X1193390Y7849690D01*
G37*
G36*
G01X1207170Y7849690D02*
G01X1200870Y7849690D01*
G01X1200870Y7831570D01*
G01X1207170Y7831570D01*
G01X1207170Y7849690D01*
G37*
G36*
G01X1220940Y7849690D02*
G01X1214650Y7849690D01*
G01X1214650Y7831570D01*
G01X1220940Y7831570D01*
G01X1220940Y7849690D01*
G37*
G36*
G01X1234720Y7849690D02*
G01X1228430Y7849690D01*
G01X1228430Y7831570D01*
G01X1234720Y7831570D01*
G01X1234720Y7849690D01*
G37*
G36*
G01X1248500Y7849690D02*
G01X1242200Y7849690D01*
G01X1242200Y7831570D01*
G01X1248500Y7831570D01*
G01X1248500Y7849690D01*
G37*
G36*
G01X1262280Y7849690D02*
G01X1255980Y7849690D01*
G01X1255980Y7831570D01*
G01X1262280Y7831570D01*
G01X1262280Y7849690D01*
G37*
G36*
G01X1276060Y7849690D02*
G01X1269760Y7849690D01*
G01X1269760Y7831570D01*
G01X1276060Y7831570D01*
G01X1276060Y7849690D01*
G37*
G36*
G01X1289840Y7849690D02*
G01X1283540Y7849690D01*
G01X1283540Y7831570D01*
G01X1289840Y7831570D01*
G01X1289840Y7849690D01*
G37*
G36*
G01X1303620Y7849690D02*
G01X1297320Y7849690D01*
G01X1297320Y7831570D01*
G01X1303620Y7831570D01*
G01X1303620Y7849690D01*
G37*
G36*
G01X1317400Y7849690D02*
G01X1311100Y7849690D01*
G01X1311100Y7831570D01*
G01X1317400Y7831570D01*
G01X1317400Y7849690D01*
G37*
G36*
G01X1331180Y7849690D02*
G01X1324880Y7849690D01*
G01X1324880Y7831570D01*
G01X1331180Y7831570D01*
G01X1331180Y7849690D01*
G37*
G36*
G01X1344960Y7849690D02*
G01X1338660Y7849690D01*
G01X1338660Y7831570D01*
G01X1344960Y7831570D01*
G01X1344960Y7849690D01*
G37*
G36*
G01X1358740Y7849690D02*
G01X1352440Y7849690D01*
G01X1352440Y7831570D01*
G01X1358740Y7831570D01*
G01X1358740Y7849690D01*
G37*
G36*
G01X1372520Y7849690D02*
G01X1366220Y7849690D01*
G01X1366220Y7831570D01*
G01X1372520Y7831570D01*
G01X1372520Y7849690D01*
G37*
G36*
G01X1386300Y7849690D02*
G01X1380000Y7849690D01*
G01X1380000Y7831570D01*
G01X1386300Y7831570D01*
G01X1386300Y7849690D01*
G37*
G36*
G01X1400080Y7849690D02*
G01X1393780Y7849690D01*
G01X1393780Y7831570D01*
G01X1400080Y7831570D01*
G01X1400080Y7849690D01*
G37*
G36*
G01X1413860Y7849690D02*
G01X1407560Y7849690D01*
G01X1407560Y7831570D01*
G01X1413860Y7831570D01*
G01X1413860Y7849690D01*
G37*
G36*
G01X1427640Y7849690D02*
G01X1421340Y7849690D01*
G01X1421340Y7831570D01*
G01X1427640Y7831570D01*
G01X1427640Y7849690D01*
G37*
G36*
G01X1441420Y7849690D02*
G01X1435120Y7849690D01*
G01X1435120Y7831570D01*
G01X1441420Y7831570D01*
G01X1441420Y7849690D01*
G37*
G36*
G01X1455200Y7849690D02*
G01X1448900Y7849690D01*
G01X1448900Y7831570D01*
G01X1455200Y7831570D01*
G01X1455200Y7849690D01*
G37*
G36*
G01X1468980Y7849690D02*
G01X1462680Y7849690D01*
G01X1462680Y7831570D01*
G01X1468980Y7831570D01*
G01X1468980Y7849690D01*
G37*
G36*
G01X1482760Y7849690D02*
G01X1476460Y7849690D01*
G01X1476460Y7831570D01*
G01X1482760Y7831570D01*
G01X1482760Y7849690D01*
G37*
G36*
G01X1537870Y7875280D02*
G01X1523700Y7875280D01*
G01X1523700Y7847320D01*
G01X1537870Y7847320D01*
G01X1537870Y7875280D01*
G37*
G36*
G01X1537870Y7912680D02*
G01X1523700Y7912680D01*
G01X1523700Y7884720D01*
G01X1537870Y7884720D01*
G01X1537870Y7912680D01*
G37*
G01X0000000Y0000000D02*
G54D10*
G01X0000000Y8250000D02*
G01X2578740Y8250000D01*
G01X2578740Y8250000D02*
G01X2578740Y4667320D01*
G01X2578740Y4667320D02*
G01X0000000Y4667320D01*
G01X0000000Y4667320D02*
G01X0000000Y8250000D01*
G01X0000000Y0000000D02*
G54D16*
G36*
G01X0887000Y6013000D02*
G01X0887000Y5947000D01*
G01X0953000Y5947000D01*
G01X0953000Y6013000D01*
G01X0887000Y6013000D01*
G37*
G36*
G01X1182000Y6013000D02*
G01X1182000Y5947000D01*
G01X1248000Y5947000D01*
G01X1248000Y6013000D01*
G01X1182000Y6013000D01*
G37*
G54D37*
G01X0920000Y5880000D03*
G01X1215000Y5880000D03*
G01X0920000Y5780000D03*
G01X0920000Y5680000D03*
G01X0920000Y5580000D03*
G01X0920000Y5480000D03*
G01X0920000Y5380000D03*
G01X0920000Y5280000D03*
G01X1215000Y5780000D03*
G01X1215000Y5680000D03*
G01X1215000Y5580000D03*
G01X1215000Y5480000D03*
G01X1215000Y5380000D03*
G01X1215000Y5280000D03*
G54D16*
G36*
G01X0097000Y5613000D02*
G01X0097000Y5547000D01*
G01X0163000Y5547000D01*
G01X0163000Y5613000D01*
G01X0097000Y5613000D01*
G37*
G54D37*
G01X0130000Y5480000D03*
G01X0230000Y5480000D03*
G01X0230000Y5580000D03*
G54D16*
G36*
G01X1872000Y5613000D02*
G01X1872000Y5547000D01*
G01X1938000Y5547000D01*
G01X1938000Y5613000D01*
G01X1872000Y5613000D01*
G37*
G54D37*
G01X1905000Y5480000D03*
G01X2005000Y5480000D03*
G01X2005000Y5580000D03*
G54D38*
G01X2175000Y5475000D03*
G01X2175000Y6125000D03*
G01X2175000Y5800000D03*
G01X2175000Y4825000D03*
G01X2175000Y5150000D03*
G54D37*
G01X1460000Y7310000D03*
G01X1575000Y7310000D03*
G01X1560000Y7210000D03*
G01X1475000Y7210000D03*
G01X1235000Y7310000D03*
G01X1220000Y7210000D03*
G01X1320000Y7310000D03*
G01X1335000Y7210000D03*
G01X1460000Y7110000D03*
G01X1475000Y7010000D03*
G01X1460000Y6910000D03*
G01X1575000Y7110000D03*
G01X1235000Y7110000D03*
G01X1320000Y7110000D03*
G54D39*
G01X0329570Y7099920D03*
G54D37*
G01X1560000Y7010000D03*
G01X1220000Y7010000D03*
G01X1335000Y7010000D03*
G01X1575000Y6910000D03*
G01X1320000Y6910000D03*
G01X1235000Y6910000D03*
G01X1220000Y6810000D03*
G01X1335000Y6810000D03*
G54D39*
G01X0400430Y7140080D03*
G01X0589800Y6904650D03*
G54D37*
G01X1475000Y6810000D03*
G01X1560000Y6810000D03*
G54D40*
G01X0229960Y6827870D03*
G54D41*
G01X0365000Y6820000D03*
G54D39*
G01X0589800Y6804250D03*
G01X0329570Y7019610D03*
G01X0329570Y6939290D03*
G01X0400430Y7059760D03*
G01X0400430Y6979450D03*
G54D38*
G01X2175000Y6775000D03*
G01X2175000Y6450000D03*
G54D39*
G01X0589800Y7255040D03*
G01X0589800Y7355430D03*
G54D40*
G01X0229960Y7331810D03*
G54D41*
G01X0365000Y7339690D03*
G54D39*
G01X0329570Y7180240D03*
G01X0400430Y7220390D03*
G54D42*
G01X0167600Y7595000D03*
G01X0364450Y7595000D03*
G01X0561300Y7595000D03*
G01X0758150Y7595000D03*
G01X0955000Y7595000D03*
G54D43*
G01X1790000Y8030000D03*
G54D44*
G01X1947480Y8030000D03*
G01X1925830Y7951260D03*
G01X1925830Y8108740D03*
G01X1632520Y8030000D03*
G01X1654170Y7951260D03*
G01X1654170Y8108740D03*
G01X1790000Y7872520D03*
G01X1713230Y7892200D03*
G01X1866770Y7892200D03*
G01X1790000Y8187480D03*
G01X1866770Y8167800D03*
G01X1713230Y8167800D03*
G54D38*
G01X2175000Y8075000D03*
G01X2175000Y7750000D03*
G01X2175000Y7425000D03*
G01X2175000Y7100000D03*
G54D42*
G01X1151850Y7595000D03*
G01X1348700Y7595000D03*
G01X1545550Y7595000D03*
G01X1742400Y7595000D03*
G54D45*
G01X0785000Y7875000D03*
G54D46*
G01X0763780Y8051180D03*
G54D47*
G01X0728350Y8082680D03*
G54D48*
G01X0235000Y7970000D03*
G01X0518460Y7970000D03*
G54D43*
G01X0787400Y8122050D03*
G54D40*
G01X0822830Y8047240D03*
G54D43*
G01X0935040Y8122050D03*
G54D40*
G01X0970470Y8047240D03*
G54D46*
G01X0911420Y8051180D03*
G54D47*
G01X0875980Y8082680D03*
G54D49*
G01X0695070Y7174500D02*
G01X0702070Y7167500D01*
G54D16*
G36*
G01X0670070Y7184500D02*
G01X0670070Y7164500D01*
G01X0705070Y7164500D01*
G01X0705070Y7184500D01*
G01X0670070Y7184500D01*
G37*
G54D49*
G01X0705070Y7167500D02*
G01X0711070Y7173500D01*
G01X0711070Y7173500D02*
G01X0717070Y7167500D01*
G01X0702070Y7167500D02*
G01X0732070Y7167500D01*
G01X0732070Y7167500D02*
G01X0739070Y7174500D01*
G54D16*
G36*
G01X0729070Y7184500D02*
G01X0729070Y7164500D01*
G01X0754070Y7164500D01*
G01X0754070Y7184500D01*
G01X0729070Y7184500D01*
G37*
G54D49*
G01X0723070Y7173500D02*
G01X0729070Y7167500D01*
G01X0717070Y7167500D02*
G01X0723070Y7173500D01*
G01X0696070Y7187500D02*
G01X0702070Y7193500D01*
G01X0704070Y7193500D02*
G01X0711070Y7186500D01*
G01X0711070Y7186500D02*
G01X0718070Y7193500D01*
G01X0716070Y7193500D02*
G01X0723070Y7186500D01*
G01X0723070Y7186500D02*
G01X0730070Y7193500D01*
G54D16*
G36*
G01X0670070Y7197500D02*
G01X0670070Y7177500D01*
G01X0706070Y7177500D01*
G01X0706070Y7197500D01*
G01X0670070Y7197500D01*
G37*
G36*
G01X0723160Y7297520D02*
G01X0665980Y7297520D01*
G01X0665980Y7232480D01*
G01X0723160Y7232480D01*
G01X0723160Y7297520D01*
G37*
G36*
G01X0794020Y7297520D02*
G01X0736840Y7297520D01*
G01X0736840Y7232480D01*
G01X0794020Y7232480D01*
G01X0794020Y7297520D01*
G37*
G36*
G01X0918160Y7307520D02*
G01X0860980Y7307520D01*
G01X0860980Y7242480D01*
G01X0918160Y7242480D01*
G01X0918160Y7307520D01*
G37*
G36*
G01X0989020Y7307520D02*
G01X0931840Y7307520D01*
G01X0931840Y7242480D01*
G01X0989020Y7242480D01*
G01X0989020Y7307520D01*
G37*
G54D49*
G01X0702070Y7193500D02*
G01X0733070Y7193500D01*
G01X0702070Y7193500D02*
G01X0704070Y7193500D01*
G01X0733070Y7193500D02*
G01X0739070Y7187500D01*
G54D16*
G36*
G01X0729070Y7197500D02*
G01X0729070Y7177500D01*
G01X0754070Y7177500D01*
G01X0754070Y7197500D01*
G01X0729070Y7197500D01*
G37*
G36*
G01X1952320Y5360870D02*
G01X1952320Y5339130D01*
G01X1974060Y5339130D01*
G01X1974060Y5360870D01*
G01X1952320Y5360870D01*
G37*
G36*
G01X1975940Y5360870D02*
G01X1975940Y5339130D01*
G01X1997680Y5339130D01*
G01X1997680Y5360870D01*
G01X1975940Y5360870D01*
G37*
G36*
G01X0190510Y5335870D02*
G01X0190510Y5314130D01*
G01X0212250Y5314130D01*
G01X0212250Y5335870D01*
G01X0190510Y5335870D01*
G37*
G36*
G01X0214130Y5335870D02*
G01X0214130Y5314130D01*
G01X0235870Y5314130D01*
G01X0235870Y5335870D01*
G01X0214130Y5335870D01*
G37*
G36*
G01X0190510Y5410870D02*
G01X0190510Y5389130D01*
G01X0212250Y5389130D01*
G01X0212250Y5410870D01*
G01X0190510Y5410870D01*
G37*
G36*
G01X0214130Y5410870D02*
G01X0214130Y5389130D01*
G01X0235870Y5389130D01*
G01X0235870Y5410870D01*
G01X0214130Y5410870D01*
G37*
G36*
G01X1513310Y8038660D02*
G01X1485040Y8038660D01*
G01X1485040Y7991100D01*
G01X1513310Y7991100D01*
G01X1513310Y8038660D01*
G37*
G36*
G01X1513310Y8098900D02*
G01X1485040Y8098900D01*
G01X1485040Y8051340D01*
G01X1513310Y8051340D01*
G01X1513310Y8098900D01*
G37*
G36*
G01X1497760Y8028620D02*
G01X1471460Y8028620D01*
G01X1471460Y7990510D01*
G01X1497760Y7990510D01*
G01X1497760Y8028620D01*
G37*
G36*
G01X1483980Y8028620D02*
G01X1457680Y8028620D01*
G01X1457680Y7990510D01*
G01X1483980Y7990510D01*
G01X1483980Y8028620D01*
G37*
G36*
G01X1470200Y8028620D02*
G01X1443900Y8028620D01*
G01X1443900Y7990510D01*
G01X1470200Y7990510D01*
G01X1470200Y8028620D01*
G37*
G36*
G01X1456420Y8028620D02*
G01X1430120Y8028620D01*
G01X1430120Y7990510D01*
G01X1456420Y7990510D01*
G01X1456420Y8028620D01*
G37*
G36*
G01X1442640Y8028620D02*
G01X1416340Y8028620D01*
G01X1416340Y7990510D01*
G01X1442640Y7990510D01*
G01X1442640Y8028620D01*
G37*
G36*
G01X1497760Y8099490D02*
G01X1471460Y8099490D01*
G01X1471460Y8061380D01*
G01X1497760Y8061380D01*
G01X1497760Y8099490D01*
G37*
G36*
G01X1483980Y8099490D02*
G01X1457680Y8099490D01*
G01X1457680Y8061380D01*
G01X1483980Y8061380D01*
G01X1483980Y8099490D01*
G37*
G36*
G01X1470200Y8099490D02*
G01X1443900Y8099490D01*
G01X1443900Y8061380D01*
G01X1470200Y8061380D01*
G01X1470200Y8099490D01*
G37*
G36*
G01X1428860Y8028620D02*
G01X1402560Y8028620D01*
G01X1402560Y7990510D01*
G01X1428860Y7990510D01*
G01X1428860Y8028620D01*
G37*
G36*
G01X1415080Y8028620D02*
G01X1388780Y8028620D01*
G01X1388780Y7990510D01*
G01X1415080Y7990510D01*
G01X1415080Y8028620D01*
G37*
G36*
G01X1401300Y8028620D02*
G01X1375000Y8028620D01*
G01X1375000Y7990510D01*
G01X1401300Y7990510D01*
G01X1401300Y8028620D01*
G37*
G36*
G01X1387520Y8028620D02*
G01X1361220Y8028620D01*
G01X1361220Y7990510D01*
G01X1387520Y7990510D01*
G01X1387520Y8028620D01*
G37*
G36*
G01X1373740Y8028620D02*
G01X1347440Y8028620D01*
G01X1347440Y7990510D01*
G01X1373740Y7990510D01*
G01X1373740Y8028620D01*
G37*
G36*
G01X1456420Y8099490D02*
G01X1430120Y8099490D01*
G01X1430120Y8061380D01*
G01X1456420Y8061380D01*
G01X1456420Y8099490D01*
G37*
G36*
G01X1442640Y8099490D02*
G01X1416340Y8099490D01*
G01X1416340Y8061380D01*
G01X1442640Y8061380D01*
G01X1442640Y8099490D01*
G37*
G36*
G01X1428860Y8099490D02*
G01X1402560Y8099490D01*
G01X1402560Y8061380D01*
G01X1428860Y8061380D01*
G01X1428860Y8099490D01*
G37*
G36*
G01X1415080Y8099490D02*
G01X1388780Y8099490D01*
G01X1388780Y8061380D01*
G01X1415080Y8061380D01*
G01X1415080Y8099490D01*
G37*
G36*
G01X1401300Y8099490D02*
G01X1375000Y8099490D01*
G01X1375000Y8061380D01*
G01X1401300Y8061380D01*
G01X1401300Y8099490D01*
G37*
G36*
G01X1387520Y8099490D02*
G01X1361220Y8099490D01*
G01X1361220Y8061380D01*
G01X1387520Y8061380D01*
G01X1387520Y8099490D01*
G37*
G36*
G01X1373740Y8099490D02*
G01X1347440Y8099490D01*
G01X1347440Y8061380D01*
G01X1373740Y8061380D01*
G01X1373740Y8099490D01*
G37*
G36*
G01X1359960Y8099490D02*
G01X1333660Y8099490D01*
G01X1333660Y8061380D01*
G01X1359960Y8061380D01*
G01X1359960Y8099490D01*
G37*
G36*
G01X1346180Y8099490D02*
G01X1319880Y8099490D01*
G01X1319880Y8061380D01*
G01X1346180Y8061380D01*
G01X1346180Y8099490D01*
G37*
G36*
G01X1332400Y8099490D02*
G01X1306100Y8099490D01*
G01X1306100Y8061380D01*
G01X1332400Y8061380D01*
G01X1332400Y8099490D01*
G37*
G36*
G01X1318620Y8099490D02*
G01X1292320Y8099490D01*
G01X1292320Y8061380D01*
G01X1318620Y8061380D01*
G01X1318620Y8099490D01*
G37*
G36*
G01X1304840Y8099490D02*
G01X1278540Y8099490D01*
G01X1278540Y8061380D01*
G01X1304840Y8061380D01*
G01X1304840Y8099490D01*
G37*
G36*
G01X1084570Y8038660D02*
G01X1056300Y8038660D01*
G01X1056300Y7991100D01*
G01X1084570Y7991100D01*
G01X1084570Y8038660D01*
G37*
G36*
G01X1084570Y8098900D02*
G01X1056300Y8098900D01*
G01X1056300Y8051340D01*
G01X1084570Y8051340D01*
G01X1084570Y8098900D01*
G37*
G36*
G01X1263500Y8028620D02*
G01X1237200Y8028620D01*
G01X1237200Y7990510D01*
G01X1263500Y7990510D01*
G01X1263500Y8028620D01*
G37*
G36*
G01X1249720Y8028620D02*
G01X1223430Y8028620D01*
G01X1223430Y7990510D01*
G01X1249720Y7990510D01*
G01X1249720Y8028620D01*
G37*
G36*
G01X1235940Y8028620D02*
G01X1209650Y8028620D01*
G01X1209650Y7990510D01*
G01X1235940Y7990510D01*
G01X1235940Y8028620D01*
G37*
G36*
G01X1222170Y8028620D02*
G01X1195870Y8028620D01*
G01X1195870Y7990510D01*
G01X1222170Y7990510D01*
G01X1222170Y8028620D01*
G37*
G36*
G01X1208390Y8028620D02*
G01X1182090Y8028620D01*
G01X1182090Y7990510D01*
G01X1208390Y7990510D01*
G01X1208390Y8028620D01*
G37*
G36*
G01X1194610Y8028620D02*
G01X1168310Y8028620D01*
G01X1168310Y7990510D01*
G01X1194610Y7990510D01*
G01X1194610Y8028620D01*
G37*
G36*
G01X1180830Y8028620D02*
G01X1154530Y8028620D01*
G01X1154530Y7990510D01*
G01X1180830Y7990510D01*
G01X1180830Y8028620D01*
G37*
G36*
G01X1167050Y8028620D02*
G01X1140750Y8028620D01*
G01X1140750Y7990510D01*
G01X1167050Y7990510D01*
G01X1167050Y8028620D01*
G37*
G36*
G01X1153270Y8028620D02*
G01X1126970Y8028620D01*
G01X1126970Y7990510D01*
G01X1153270Y7990510D01*
G01X1153270Y8028620D01*
G37*
G36*
G01X1139490Y8028620D02*
G01X1113190Y8028620D01*
G01X1113190Y7990510D01*
G01X1139490Y7990510D01*
G01X1139490Y8028620D01*
G37*
G36*
G01X1125710Y8028620D02*
G01X1099410Y8028620D01*
G01X1099410Y7990510D01*
G01X1125710Y7990510D01*
G01X1125710Y8028620D01*
G37*
G36*
G01X1111930Y8028620D02*
G01X1085630Y8028620D01*
G01X1085630Y7990510D01*
G01X1111930Y7990510D01*
G01X1111930Y8028620D01*
G37*
G36*
G01X1098150Y8028620D02*
G01X1071850Y8028620D01*
G01X1071850Y7990510D01*
G01X1098150Y7990510D01*
G01X1098150Y8028620D01*
G37*
G36*
G01X1291060Y8099490D02*
G01X1264760Y8099490D01*
G01X1264760Y8061380D01*
G01X1291060Y8061380D01*
G01X1291060Y8099490D01*
G37*
G36*
G01X1277280Y8099490D02*
G01X1250980Y8099490D01*
G01X1250980Y8061380D01*
G01X1277280Y8061380D01*
G01X1277280Y8099490D01*
G37*
G36*
G01X1263500Y8099490D02*
G01X1237200Y8099490D01*
G01X1237200Y8061380D01*
G01X1263500Y8061380D01*
G01X1263500Y8099490D01*
G37*
G36*
G01X1249720Y8099490D02*
G01X1223430Y8099490D01*
G01X1223430Y8061380D01*
G01X1249720Y8061380D01*
G01X1249720Y8099490D01*
G37*
G36*
G01X1235940Y8099490D02*
G01X1209650Y8099490D01*
G01X1209650Y8061380D01*
G01X1235940Y8061380D01*
G01X1235940Y8099490D01*
G37*
G36*
G01X1222170Y8099490D02*
G01X1195870Y8099490D01*
G01X1195870Y8061380D01*
G01X1222170Y8061380D01*
G01X1222170Y8099490D01*
G37*
G36*
G01X1208390Y8099490D02*
G01X1182090Y8099490D01*
G01X1182090Y8061380D01*
G01X1208390Y8061380D01*
G01X1208390Y8099490D01*
G37*
G36*
G01X1194610Y8099490D02*
G01X1168310Y8099490D01*
G01X1168310Y8061380D01*
G01X1194610Y8061380D01*
G01X1194610Y8099490D01*
G37*
G36*
G01X1180830Y8099490D02*
G01X1154530Y8099490D01*
G01X1154530Y8061380D01*
G01X1180830Y8061380D01*
G01X1180830Y8099490D01*
G37*
G36*
G01X1167050Y8099490D02*
G01X1140750Y8099490D01*
G01X1140750Y8061380D01*
G01X1167050Y8061380D01*
G01X1167050Y8099490D01*
G37*
G36*
G01X1153270Y8099490D02*
G01X1126970Y8099490D01*
G01X1126970Y8061380D01*
G01X1153270Y8061380D01*
G01X1153270Y8099490D01*
G37*
G36*
G01X1139490Y8099490D02*
G01X1113190Y8099490D01*
G01X1113190Y8061380D01*
G01X1139490Y8061380D01*
G01X1139490Y8099490D01*
G37*
G36*
G01X1125710Y8099490D02*
G01X1099410Y8099490D01*
G01X1099410Y8061380D01*
G01X1125710Y8061380D01*
G01X1125710Y8099490D01*
G37*
G36*
G01X1111930Y8099490D02*
G01X1085630Y8099490D01*
G01X1085630Y8061380D01*
G01X1111930Y8061380D01*
G01X1111930Y8099490D01*
G37*
G36*
G01X1098150Y8099490D02*
G01X1071850Y8099490D01*
G01X1071850Y8061380D01*
G01X1098150Y8061380D01*
G01X1098150Y8099490D01*
G37*
G36*
G01X1359960Y8028620D02*
G01X1333660Y8028620D01*
G01X1333660Y7990510D01*
G01X1359960Y7990510D01*
G01X1359960Y8028620D01*
G37*
G36*
G01X1346180Y8028620D02*
G01X1319880Y8028620D01*
G01X1319880Y7990510D01*
G01X1346180Y7990510D01*
G01X1346180Y8028620D01*
G37*
G36*
G01X1332400Y8028620D02*
G01X1306100Y8028620D01*
G01X1306100Y7990510D01*
G01X1332400Y7990510D01*
G01X1332400Y8028620D01*
G37*
G36*
G01X1318620Y8028620D02*
G01X1292320Y8028620D01*
G01X1292320Y7990510D01*
G01X1318620Y7990510D01*
G01X1318620Y8028620D01*
G37*
G36*
G01X1304840Y8028620D02*
G01X1278540Y8028620D01*
G01X1278540Y7990510D01*
G01X1304840Y7990510D01*
G01X1304840Y8028620D01*
G37*
G36*
G01X1291060Y8028620D02*
G01X1264760Y8028620D01*
G01X1264760Y7990510D01*
G01X1291060Y7990510D01*
G01X1291060Y8028620D01*
G37*
G36*
G01X1277280Y8028620D02*
G01X1250980Y8028620D01*
G01X1250980Y7990510D01*
G01X1277280Y7990510D01*
G01X1277280Y8028620D01*
G37*
G36*
G01X1148270Y7936460D02*
G01X1121970Y7936460D01*
G01X1121970Y7898350D01*
G01X1148270Y7898350D01*
G01X1148270Y7936460D01*
G37*
G36*
G01X1162050Y7936460D02*
G01X1135750Y7936460D01*
G01X1135750Y7898350D01*
G01X1162050Y7898350D01*
G01X1162050Y7936460D01*
G37*
G36*
G01X1175830Y7936460D02*
G01X1149530Y7936460D01*
G01X1149530Y7898350D01*
G01X1175830Y7898350D01*
G01X1175830Y7936460D01*
G37*
G36*
G01X1189610Y7936460D02*
G01X1163310Y7936460D01*
G01X1163310Y7898350D01*
G01X1189610Y7898350D01*
G01X1189610Y7936460D01*
G37*
G36*
G01X1203390Y7936460D02*
G01X1177090Y7936460D01*
G01X1177090Y7898350D01*
G01X1203390Y7898350D01*
G01X1203390Y7936460D01*
G37*
G36*
G01X1217170Y7936460D02*
G01X1190870Y7936460D01*
G01X1190870Y7898350D01*
G01X1217170Y7898350D01*
G01X1217170Y7936460D01*
G37*
G36*
G01X1230940Y7936460D02*
G01X1204650Y7936460D01*
G01X1204650Y7898350D01*
G01X1230940Y7898350D01*
G01X1230940Y7936460D01*
G37*
G36*
G01X1244720Y7936460D02*
G01X1218430Y7936460D01*
G01X1218430Y7898350D01*
G01X1244720Y7898350D01*
G01X1244720Y7936460D01*
G37*
G36*
G01X1258500Y7936460D02*
G01X1232200Y7936460D01*
G01X1232200Y7898350D01*
G01X1258500Y7898350D01*
G01X1258500Y7936460D01*
G37*
G36*
G01X1272280Y7936460D02*
G01X1245980Y7936460D01*
G01X1245980Y7898350D01*
G01X1272280Y7898350D01*
G01X1272280Y7936460D01*
G37*
G36*
G01X1286060Y7936460D02*
G01X1259760Y7936460D01*
G01X1259760Y7898350D01*
G01X1286060Y7898350D01*
G01X1286060Y7936460D01*
G37*
G36*
G01X1299840Y7936460D02*
G01X1273540Y7936460D01*
G01X1273540Y7898350D01*
G01X1299840Y7898350D01*
G01X1299840Y7936460D01*
G37*
G36*
G01X1313620Y7936460D02*
G01X1287320Y7936460D01*
G01X1287320Y7898350D01*
G01X1313620Y7898350D01*
G01X1313620Y7936460D01*
G37*
G36*
G01X1327400Y7936460D02*
G01X1301100Y7936460D01*
G01X1301100Y7898350D01*
G01X1327400Y7898350D01*
G01X1327400Y7936460D01*
G37*
G36*
G01X1341180Y7936460D02*
G01X1314880Y7936460D01*
G01X1314880Y7898350D01*
G01X1341180Y7898350D01*
G01X1341180Y7936460D01*
G37*
G36*
G01X1354960Y7936460D02*
G01X1328660Y7936460D01*
G01X1328660Y7898350D01*
G01X1354960Y7898350D01*
G01X1354960Y7936460D01*
G37*
G36*
G01X1368740Y7936460D02*
G01X1342440Y7936460D01*
G01X1342440Y7898350D01*
G01X1368740Y7898350D01*
G01X1368740Y7936460D01*
G37*
G36*
G01X1382520Y7936460D02*
G01X1356220Y7936460D01*
G01X1356220Y7898350D01*
G01X1382520Y7898350D01*
G01X1382520Y7936460D01*
G37*
G36*
G01X1396300Y7936460D02*
G01X1370000Y7936460D01*
G01X1370000Y7898350D01*
G01X1396300Y7898350D01*
G01X1396300Y7936460D01*
G37*
G36*
G01X1410080Y7936460D02*
G01X1383780Y7936460D01*
G01X1383780Y7898350D01*
G01X1410080Y7898350D01*
G01X1410080Y7936460D01*
G37*
G36*
G01X1423860Y7936460D02*
G01X1397560Y7936460D01*
G01X1397560Y7898350D01*
G01X1423860Y7898350D01*
G01X1423860Y7936460D01*
G37*
G36*
G01X1437640Y7936460D02*
G01X1411340Y7936460D01*
G01X1411340Y7898350D01*
G01X1437640Y7898350D01*
G01X1437640Y7936460D01*
G37*
G36*
G01X1451420Y7936460D02*
G01X1425120Y7936460D01*
G01X1425120Y7898350D01*
G01X1451420Y7898350D01*
G01X1451420Y7936460D01*
G37*
G36*
G01X1465200Y7936460D02*
G01X1438900Y7936460D01*
G01X1438900Y7898350D01*
G01X1465200Y7898350D01*
G01X1465200Y7936460D01*
G37*
G36*
G01X1478980Y7936460D02*
G01X1452680Y7936460D01*
G01X1452680Y7898350D01*
G01X1478980Y7898350D01*
G01X1478980Y7936460D01*
G37*
G36*
G01X1492760Y7936460D02*
G01X1466460Y7936460D01*
G01X1466460Y7898350D01*
G01X1492760Y7898350D01*
G01X1492760Y7936460D01*
G37*
G36*
G01X1093150Y7936460D02*
G01X1066850Y7936460D01*
G01X1066850Y7898350D01*
G01X1093150Y7898350D01*
G01X1093150Y7936460D01*
G37*
G36*
G01X1106930Y7936460D02*
G01X1080630Y7936460D01*
G01X1080630Y7898350D01*
G01X1106930Y7898350D01*
G01X1106930Y7936460D01*
G37*
G36*
G01X1120710Y7936460D02*
G01X1094410Y7936460D01*
G01X1094410Y7898350D01*
G01X1120710Y7898350D01*
G01X1120710Y7936460D01*
G37*
G36*
G01X1134490Y7936460D02*
G01X1108190Y7936460D01*
G01X1108190Y7898350D01*
G01X1134490Y7898350D01*
G01X1134490Y7936460D01*
G37*
G36*
G01X1045910Y7922680D02*
G01X1011730Y7922680D01*
G01X1011730Y7874720D01*
G01X1045910Y7874720D01*
G01X1045910Y7922680D01*
G37*
G36*
G01X1045910Y7885280D02*
G01X1011730Y7885280D01*
G01X1011730Y7837320D01*
G01X1045910Y7837320D01*
G01X1045910Y7885280D01*
G37*
G54D32*
G01X0925000Y7870000D03*
G54D16*
G36*
G01X1093150Y7859690D02*
G01X1066850Y7859690D01*
G01X1066850Y7821570D01*
G01X1093150Y7821570D01*
G01X1093150Y7859690D01*
G37*
G36*
G01X1106930Y7859690D02*
G01X1080630Y7859690D01*
G01X1080630Y7821570D01*
G01X1106930Y7821570D01*
G01X1106930Y7859690D01*
G37*
G36*
G01X1120710Y7859690D02*
G01X1094410Y7859690D01*
G01X1094410Y7821570D01*
G01X1120710Y7821570D01*
G01X1120710Y7859690D01*
G37*
G36*
G01X1134490Y7859690D02*
G01X1108190Y7859690D01*
G01X1108190Y7821570D01*
G01X1134490Y7821570D01*
G01X1134490Y7859690D01*
G37*
G36*
G01X1148270Y7859690D02*
G01X1121970Y7859690D01*
G01X1121970Y7821570D01*
G01X1148270Y7821570D01*
G01X1148270Y7859690D01*
G37*
G36*
G01X1162050Y7859690D02*
G01X1135750Y7859690D01*
G01X1135750Y7821570D01*
G01X1162050Y7821570D01*
G01X1162050Y7859690D01*
G37*
G36*
G01X1175830Y7859690D02*
G01X1149530Y7859690D01*
G01X1149530Y7821570D01*
G01X1175830Y7821570D01*
G01X1175830Y7859690D01*
G37*
G36*
G01X1189610Y7859690D02*
G01X1163310Y7859690D01*
G01X1163310Y7821570D01*
G01X1189610Y7821570D01*
G01X1189610Y7859690D01*
G37*
G36*
G01X1203390Y7859690D02*
G01X1177090Y7859690D01*
G01X1177090Y7821570D01*
G01X1203390Y7821570D01*
G01X1203390Y7859690D01*
G37*
G36*
G01X1217170Y7859690D02*
G01X1190870Y7859690D01*
G01X1190870Y7821570D01*
G01X1217170Y7821570D01*
G01X1217170Y7859690D01*
G37*
G36*
G01X1230940Y7859690D02*
G01X1204650Y7859690D01*
G01X1204650Y7821570D01*
G01X1230940Y7821570D01*
G01X1230940Y7859690D01*
G37*
G36*
G01X1244720Y7859690D02*
G01X1218430Y7859690D01*
G01X1218430Y7821570D01*
G01X1244720Y7821570D01*
G01X1244720Y7859690D01*
G37*
G36*
G01X1258500Y7859690D02*
G01X1232200Y7859690D01*
G01X1232200Y7821570D01*
G01X1258500Y7821570D01*
G01X1258500Y7859690D01*
G37*
G36*
G01X1272280Y7859690D02*
G01X1245980Y7859690D01*
G01X1245980Y7821570D01*
G01X1272280Y7821570D01*
G01X1272280Y7859690D01*
G37*
G36*
G01X1286060Y7859690D02*
G01X1259760Y7859690D01*
G01X1259760Y7821570D01*
G01X1286060Y7821570D01*
G01X1286060Y7859690D01*
G37*
G36*
G01X1299840Y7859690D02*
G01X1273540Y7859690D01*
G01X1273540Y7821570D01*
G01X1299840Y7821570D01*
G01X1299840Y7859690D01*
G37*
G36*
G01X1313620Y7859690D02*
G01X1287320Y7859690D01*
G01X1287320Y7821570D01*
G01X1313620Y7821570D01*
G01X1313620Y7859690D01*
G37*
G36*
G01X1327400Y7859690D02*
G01X1301100Y7859690D01*
G01X1301100Y7821570D01*
G01X1327400Y7821570D01*
G01X1327400Y7859690D01*
G37*
G36*
G01X1341180Y7859690D02*
G01X1314880Y7859690D01*
G01X1314880Y7821570D01*
G01X1341180Y7821570D01*
G01X1341180Y7859690D01*
G37*
G36*
G01X1354960Y7859690D02*
G01X1328660Y7859690D01*
G01X1328660Y7821570D01*
G01X1354960Y7821570D01*
G01X1354960Y7859690D01*
G37*
G36*
G01X1368740Y7859690D02*
G01X1342440Y7859690D01*
G01X1342440Y7821570D01*
G01X1368740Y7821570D01*
G01X1368740Y7859690D01*
G37*
G36*
G01X1382520Y7859690D02*
G01X1356220Y7859690D01*
G01X1356220Y7821570D01*
G01X1382520Y7821570D01*
G01X1382520Y7859690D01*
G37*
G36*
G01X1396300Y7859690D02*
G01X1370000Y7859690D01*
G01X1370000Y7821570D01*
G01X1396300Y7821570D01*
G01X1396300Y7859690D01*
G37*
G36*
G01X1410080Y7859690D02*
G01X1383780Y7859690D01*
G01X1383780Y7821570D01*
G01X1410080Y7821570D01*
G01X1410080Y7859690D01*
G37*
G36*
G01X1423860Y7859690D02*
G01X1397560Y7859690D01*
G01X1397560Y7821570D01*
G01X1423860Y7821570D01*
G01X1423860Y7859690D01*
G37*
G36*
G01X1437640Y7859690D02*
G01X1411340Y7859690D01*
G01X1411340Y7821570D01*
G01X1437640Y7821570D01*
G01X1437640Y7859690D01*
G37*
G36*
G01X1451420Y7859690D02*
G01X1425120Y7859690D01*
G01X1425120Y7821570D01*
G01X1451420Y7821570D01*
G01X1451420Y7859690D01*
G37*
G36*
G01X1465200Y7859690D02*
G01X1438900Y7859690D01*
G01X1438900Y7821570D01*
G01X1465200Y7821570D01*
G01X1465200Y7859690D01*
G37*
G36*
G01X1478980Y7859690D02*
G01X1452680Y7859690D01*
G01X1452680Y7821570D01*
G01X1478980Y7821570D01*
G01X1478980Y7859690D01*
G37*
G36*
G01X1492760Y7859690D02*
G01X1466460Y7859690D01*
G01X1466460Y7821570D01*
G01X1492760Y7821570D01*
G01X1492760Y7859690D01*
G37*
G36*
G01X1547870Y7885280D02*
G01X1513700Y7885280D01*
G01X1513700Y7837320D01*
G01X1547870Y7837320D01*
G01X1547870Y7885280D01*
G37*
G36*
G01X1547870Y7922680D02*
G01X1513700Y7922680D01*
G01X1513700Y7874720D01*
G01X1547870Y7874720D01*
G01X1547870Y7922680D01*
G37*
G01X0000000Y0000000D02*
G54D49*
G01X0728300Y8082700D03*
G01X0876000Y8082700D03*
G54D56*
G01X0763800Y8051200D03*
G01X0911400Y8051200D03*
G54D51*
G01X0329600Y7180200D03*
G01X0329600Y7099900D03*
G01X0329600Y7019600D03*
G01X0329600Y6939300D03*
G01X0400400Y7220400D03*
G01X0400400Y7140100D03*
G01X0400400Y7059800D03*
G01X0400400Y6979400D03*
G01X0589800Y7355400D03*
G01X0589800Y7255000D03*
G01X0589800Y6904600D03*
G01X0589800Y6804300D03*
G54D28*
G01X0130000Y5580000D03*
G01X0130000Y5480000D03*
G01X0230000Y5580000D03*
G01X0230000Y5480000D03*
G01X0920000Y5980000D03*
G01X0920000Y5880000D03*
G01X0920000Y5780000D03*
G01X0920000Y5680000D03*
G01X0920000Y5580000D03*
G01X0920000Y5480000D03*
G01X0920000Y5380000D03*
G01X0920000Y5280000D03*
G01X1215000Y5980000D03*
G01X1215000Y5880000D03*
G01X1215000Y5780000D03*
G01X1215000Y5680000D03*
G01X1215000Y5580000D03*
G01X1215000Y5480000D03*
G01X1215000Y5380000D03*
G01X1215000Y5280000D03*
G01X1220000Y7210000D03*
G01X1220000Y7010000D03*
G01X1220000Y6810000D03*
G01X1235000Y7310000D03*
G01X1235000Y7110000D03*
G01X1235000Y6910000D03*
G01X1320000Y7310000D03*
G01X1320000Y7110000D03*
G01X1320000Y6910000D03*
G01X1335000Y7210000D03*
G01X1335000Y7010000D03*
G01X1335000Y6810000D03*
G01X1460000Y7310000D03*
G01X1460000Y7110000D03*
G01X1460000Y6910000D03*
G01X1475000Y7210000D03*
G01X1475000Y7010000D03*
G01X1475000Y6810000D03*
G01X1560000Y7210000D03*
G01X1560000Y7010000D03*
G01X1560000Y6810000D03*
G01X1575000Y7310000D03*
G01X1575000Y7110000D03*
G01X1575000Y6910000D03*
G01X1905000Y5580000D03*
G01X1905000Y5480000D03*
G01X2005000Y5580000D03*
G01X2005000Y5480000D03*
G54D55*
G01X1632500Y8030000D03*
G01X1654200Y8108700D03*
G01X1654200Y7951300D03*
G01X1713200Y8167800D03*
G01X1713200Y7892200D03*
G01X1790000Y8187500D03*
G01X1790000Y7872500D03*
G01X1866800Y8167800D03*
G01X1866800Y7892200D03*
G01X1925800Y8108700D03*
G01X1925800Y7951300D03*
G01X1947500Y8030000D03*
G54D57*
G01X0822800Y8047200D03*
G01X0970500Y8047200D03*
G54D52*
G01X0230000Y7331800D03*
G01X0230000Y6827900D03*
G54D31*
G01X0167600Y7595000D03*
G01X0364400Y7595000D03*
G01X0561300Y7595000D03*
G01X0758100Y7595000D03*
G01X0955000Y7595000D03*
G01X1151900Y7595000D03*
G01X1348700Y7595000D03*
G01X1545600Y7595000D03*
G01X1742400Y7595000D03*
G54D54*
G01X0785000Y7875000D03*
G01X0787400Y8122000D03*
G01X0935000Y8122000D03*
G01X1790000Y8030000D03*
G54D50*
G01X2175000Y8075000D03*
G01X2175000Y7750000D03*
G01X2175000Y7425000D03*
G01X2175000Y7100000D03*
G01X2175000Y6775000D03*
G01X2175000Y6450000D03*
G01X2175000Y6125000D03*
G01X2175000Y5800000D03*
G01X2175000Y5475000D03*
G01X2175000Y5150000D03*
G01X2175000Y4825000D03*
G54D53*
G01X0365000Y7339700D03*
G01X0365000Y6820000D03*
G54D35*
G01X0235000Y7970000D03*
G01X0518500Y7970000D03*
M02*
