G04 start of page 2 for group 0 idx 0 *
G04 Title: (unknown), top *
G04 Creator: pcb 1.99z *
G04 CreationDate: Sat Nov 14 22:14:47 2015 UTC *
G04 For: commonadmin *
G04 Format: Gerber/RS-274X *
G04 PCB-Dimensions (mil): 1075.00 2975.00 *
G04 PCB-Coordinate-Origin: lower left *
%MOIN*%
%FSLAX25Y25*%
%LNTOP*%
%ADD20C,0.0380*%
%ADD19C,0.0630*%
%ADD18C,0.0354*%
%ADD17C,0.1280*%
%ADD16C,0.0600*%
%ADD15C,0.0827*%
%ADD14C,0.0551*%
%ADD13C,0.1476*%
%ADD12C,0.0100*%
%ADD11C,0.0001*%
G54D11*G36*
X37054Y204668D02*X37205Y204107D01*
X37318Y203469D01*
X37375Y202824D01*
Y202176D01*
X37318Y201531D01*
X37205Y200893D01*
X37054Y200332D01*
Y204668D01*
G37*
G36*
Y214631D02*X43500Y208184D01*
Y180944D01*
X43290Y180857D01*
X42786Y180548D01*
X42336Y180164D01*
X41952Y179714D01*
X41643Y179210D01*
X41417Y178664D01*
X41279Y178089D01*
X41233Y177500D01*
X41279Y176911D01*
X41417Y176336D01*
X41643Y175790D01*
X41952Y175286D01*
X42336Y174836D01*
X42786Y174452D01*
X43290Y174143D01*
X43836Y173917D01*
X44411Y173779D01*
X45000Y173733D01*
X45589Y173779D01*
X46164Y173917D01*
X46710Y174143D01*
X47214Y174452D01*
X47664Y174836D01*
X48048Y175286D01*
X48357Y175790D01*
X48583Y176336D01*
X48721Y176911D01*
X48756Y177500D01*
X48721Y178089D01*
X48583Y178664D01*
X48357Y179210D01*
X48048Y179714D01*
X47664Y180164D01*
X47214Y180548D01*
X46710Y180857D01*
X46500Y180944D01*
Y208747D01*
X46505Y208806D01*
X46486Y209041D01*
X46486Y209041D01*
X46431Y209270D01*
X46341Y209489D01*
X46217Y209690D01*
X46064Y209869D01*
X46019Y209908D01*
X37054Y218873D01*
Y225825D01*
X49220Y213658D01*
Y175814D01*
X49216Y175756D01*
X49234Y175520D01*
X49289Y175291D01*
X49380Y175072D01*
X49503Y174871D01*
X49503Y174871D01*
X49657Y174692D01*
X49701Y174653D01*
X52987Y171367D01*
Y169785D01*
X52664Y170164D01*
X52214Y170548D01*
X51710Y170857D01*
X51164Y171083D01*
X50589Y171221D01*
X50000Y171267D01*
X49411Y171221D01*
X48836Y171083D01*
X48290Y170857D01*
X47786Y170548D01*
X47336Y170164D01*
X46952Y169714D01*
X46643Y169210D01*
X46417Y168664D01*
X46279Y168089D01*
X46233Y167500D01*
X46279Y166911D01*
X46417Y166336D01*
X46643Y165790D01*
X46952Y165286D01*
X47336Y164836D01*
X47786Y164452D01*
X48290Y164143D01*
X48836Y163917D01*
X49411Y163779D01*
X50000Y163733D01*
X50589Y163779D01*
X51164Y163917D01*
X51710Y164143D01*
X52214Y164452D01*
X52664Y164836D01*
X52987Y165215D01*
Y163239D01*
X52983Y163180D01*
X52987Y163121D01*
Y150109D01*
X37054Y134175D01*
Y141707D01*
X45351Y150004D01*
X45395Y150042D01*
X45549Y150222D01*
X45549Y150222D01*
X45672Y150423D01*
X45762Y150641D01*
X45818Y150871D01*
X45836Y151106D01*
X45831Y151165D01*
Y169367D01*
X45836Y169426D01*
X45818Y169661D01*
X45818Y169661D01*
X45762Y169891D01*
X45672Y170109D01*
X45549Y170310D01*
X45395Y170490D01*
X45351Y170528D01*
X38735Y177144D01*
X38756Y177500D01*
X38721Y178089D01*
X38583Y178664D01*
X38357Y179210D01*
X38048Y179714D01*
X37664Y180164D01*
X37214Y180548D01*
X37054Y180647D01*
Y197958D01*
X37060Y197967D01*
X37431Y198604D01*
X37744Y199271D01*
X37997Y199962D01*
X38189Y200673D01*
X38317Y201398D01*
X38382Y202132D01*
Y202868D01*
X38317Y203602D01*
X38189Y204327D01*
X37997Y205038D01*
X37744Y205729D01*
X37431Y206396D01*
X37060Y207033D01*
X37054Y207042D01*
Y214631D01*
G37*
G36*
Y134175D02*X36375Y133496D01*
X36164Y133583D01*
X35589Y133721D01*
X35000Y133767D01*
X34411Y133721D01*
X33836Y133583D01*
X33290Y133357D01*
X32786Y133048D01*
X32336Y132664D01*
X32231Y132542D01*
Y136885D01*
X37054Y141707D01*
Y134175D01*
G37*
G36*
Y218873D02*X32054Y223872D01*
Y227666D01*
X32336Y227336D01*
X32786Y226952D01*
X33290Y226643D01*
X33836Y226417D01*
X34411Y226279D01*
X35000Y226233D01*
X35589Y226279D01*
X36164Y226417D01*
X36375Y226504D01*
X37054Y225825D01*
Y218873D01*
G37*
G36*
X30004Y221681D02*X37054Y214631D01*
Y207042D01*
X36636Y207634D01*
X36582Y207694D01*
X36520Y207744D01*
X36451Y207783D01*
X36376Y207812D01*
X36298Y207828D01*
X36218Y207832D01*
X36139Y207823D01*
X36062Y207802D01*
X35989Y207769D01*
X35922Y207726D01*
X35863Y207672D01*
X35813Y207610D01*
X35774Y207540D01*
X35745Y207466D01*
X35729Y207388D01*
X35725Y207308D01*
X35734Y207229D01*
X35755Y207152D01*
X35788Y207079D01*
X35833Y207013D01*
X36212Y206488D01*
X36538Y205928D01*
X36813Y205341D01*
X37036Y204733D01*
X37054Y204668D01*
Y200332D01*
X37036Y200267D01*
X36813Y199659D01*
X36538Y199072D01*
X36212Y198512D01*
X35838Y197983D01*
X35794Y197918D01*
X35762Y197846D01*
X35741Y197770D01*
X35732Y197692D01*
X35736Y197613D01*
X35752Y197536D01*
X35780Y197463D01*
X35819Y197394D01*
X35869Y197333D01*
X35927Y197280D01*
X35993Y197237D01*
X36064Y197205D01*
X36140Y197184D01*
X36219Y197175D01*
X36297Y197179D01*
X36374Y197195D01*
X36448Y197223D01*
X36516Y197262D01*
X36578Y197311D01*
X36629Y197371D01*
X37054Y197958D01*
Y180647D01*
X36710Y180857D01*
X36164Y181083D01*
X35589Y181221D01*
X35000Y181267D01*
X34411Y181221D01*
X33836Y181083D01*
X33625Y180996D01*
X30004Y184618D01*
Y194118D01*
X30368D01*
X31102Y194183D01*
X31827Y194311D01*
X32538Y194503D01*
X33229Y194756D01*
X33896Y195069D01*
X34533Y195440D01*
X35134Y195864D01*
X35194Y195918D01*
X35244Y195980D01*
X35283Y196049D01*
X35312Y196124D01*
X35328Y196202D01*
X35332Y196282D01*
X35323Y196361D01*
X35302Y196438D01*
X35269Y196511D01*
X35226Y196578D01*
X35172Y196637D01*
X35110Y196687D01*
X35040Y196726D01*
X34966Y196755D01*
X34888Y196771D01*
X34808Y196775D01*
X34729Y196766D01*
X34652Y196745D01*
X34579Y196712D01*
X34513Y196667D01*
X33988Y196288D01*
X33428Y195962D01*
X32841Y195687D01*
X32233Y195464D01*
X31607Y195295D01*
X30969Y195182D01*
X30324Y195125D01*
X30004D01*
Y209875D01*
X30324D01*
X30969Y209818D01*
X31607Y209705D01*
X32233Y209536D01*
X32841Y209313D01*
X33428Y209038D01*
X33988Y208712D01*
X34517Y208338D01*
X34582Y208294D01*
X34654Y208262D01*
X34730Y208241D01*
X34808Y208232D01*
X34887Y208236D01*
X34964Y208252D01*
X35037Y208280D01*
X35106Y208319D01*
X35167Y208369D01*
X35220Y208427D01*
X35263Y208493D01*
X35295Y208564D01*
X35316Y208640D01*
X35325Y208719D01*
X35321Y208797D01*
X35305Y208874D01*
X35277Y208948D01*
X35238Y209016D01*
X35189Y209078D01*
X35129Y209129D01*
X34533Y209560D01*
X33896Y209931D01*
X33229Y210244D01*
X32538Y210497D01*
X31827Y210689D01*
X31102Y210817D01*
X30368Y210882D01*
X30004D01*
Y221681D01*
G37*
G36*
X37054Y267168D02*X37205Y266607D01*
X37318Y265969D01*
X37375Y265324D01*
Y264676D01*
X37318Y264031D01*
X37205Y263393D01*
X37054Y262832D01*
Y267168D01*
G37*
G36*
X82054D02*X82205Y266607D01*
X82318Y265969D01*
X82375Y265324D01*
Y264676D01*
X82318Y264031D01*
X82205Y263393D01*
X82054Y262832D01*
Y267168D01*
G37*
G36*
Y204668D02*X82205Y204107D01*
X82318Y203469D01*
X82375Y202824D01*
Y202176D01*
X82318Y201531D01*
X82205Y200893D01*
X82054Y200332D01*
Y204668D01*
G37*
G36*
X87730Y295500D02*X89000D01*
Y152883D01*
X87730Y154153D01*
Y211665D01*
X87742Y211676D01*
X87788Y211739D01*
X88018Y212126D01*
X88209Y212534D01*
X88364Y212956D01*
X88481Y213391D01*
X88559Y213834D01*
X88598Y214283D01*
Y214733D01*
X88559Y215181D01*
X88481Y215625D01*
X88364Y216059D01*
X88209Y216482D01*
X88018Y216890D01*
X87792Y217279D01*
X87745Y217343D01*
X87730Y217357D01*
Y274098D01*
X87764Y274121D01*
X87820Y274176D01*
X87867Y274239D01*
X88097Y274626D01*
X88288Y275034D01*
X88442Y275456D01*
X88559Y275891D01*
X88638Y276334D01*
X88677Y276783D01*
Y277233D01*
X88638Y277681D01*
X88559Y278125D01*
X88442Y278559D01*
X88288Y278982D01*
X88097Y279390D01*
X87871Y279779D01*
X87823Y279843D01*
X87766Y279898D01*
X87730Y279923D01*
Y295500D01*
G37*
G36*
X82054D02*X87730D01*
Y279923D01*
X87701Y279943D01*
X87630Y279978D01*
X87554Y280001D01*
X87475Y280012D01*
X87396Y280010D01*
X87318Y279996D01*
X87243Y279970D01*
X87173Y279933D01*
X87110Y279885D01*
X87055Y279828D01*
X87009Y279762D01*
X86975Y279691D01*
X86952Y279615D01*
X86941Y279537D01*
X86942Y279457D01*
X86956Y279379D01*
X86982Y279304D01*
X87021Y279235D01*
X87206Y278924D01*
X87360Y278596D01*
X87484Y278256D01*
X87578Y277906D01*
X87642Y277550D01*
X87673Y277189D01*
Y276827D01*
X87642Y276466D01*
X87578Y276109D01*
X87484Y275760D01*
X87360Y275420D01*
X87206Y275092D01*
X87025Y274779D01*
X86986Y274710D01*
X86960Y274636D01*
X86946Y274558D01*
X86945Y274479D01*
X86956Y274401D01*
X86978Y274326D01*
X87013Y274255D01*
X87058Y274191D01*
X87112Y274134D01*
X87175Y274087D01*
X87244Y274049D01*
X87319Y274024D01*
X87396Y274010D01*
X87475Y274008D01*
X87553Y274019D01*
X87628Y274042D01*
X87699Y274076D01*
X87730Y274098D01*
Y217357D01*
X87687Y217398D01*
X87622Y217443D01*
X87551Y217478D01*
X87475Y217501D01*
X87396Y217512D01*
X87317Y217510D01*
X87239Y217496D01*
X87164Y217470D01*
X87094Y217433D01*
X87031Y217385D01*
X86976Y217328D01*
X86931Y217262D01*
X86896Y217191D01*
X86873Y217115D01*
X86862Y217037D01*
X86864Y216957D01*
X86878Y216879D01*
X86904Y216804D01*
X86942Y216735D01*
X87128Y216424D01*
X87281Y216096D01*
X87406Y215756D01*
X87500Y215406D01*
X87563Y215050D01*
X87594Y214689D01*
Y214327D01*
X87563Y213966D01*
X87500Y213609D01*
X87406Y213260D01*
X87281Y212920D01*
X87128Y212592D01*
X86946Y212279D01*
X86907Y212210D01*
X86882Y212136D01*
X86868Y212058D01*
X86866Y211979D01*
X86877Y211901D01*
X86900Y211826D01*
X86934Y211755D01*
X86979Y211691D01*
X87034Y211634D01*
X87096Y211587D01*
X87166Y211549D01*
X87240Y211524D01*
X87318Y211510D01*
X87396Y211508D01*
X87474Y211519D01*
X87550Y211542D01*
X87620Y211576D01*
X87685Y211621D01*
X87730Y211665D01*
Y154153D01*
X82054Y159829D01*
Y197958D01*
X82060Y197967D01*
X82431Y198604D01*
X82744Y199271D01*
X82997Y199962D01*
X83189Y200673D01*
X83317Y201398D01*
X83382Y202132D01*
Y202868D01*
X83317Y203602D01*
X83189Y204327D01*
X82997Y205038D01*
X82744Y205729D01*
X82431Y206396D01*
X82060Y207033D01*
X82054Y207042D01*
Y209571D01*
X82348Y209492D01*
X82791Y209413D01*
X83239Y209374D01*
X83690D01*
X84138Y209413D01*
X84581Y209492D01*
X85016Y209609D01*
X85439Y209763D01*
X85847Y209954D01*
X86236Y210180D01*
X86299Y210228D01*
X86354Y210285D01*
X86400Y210350D01*
X86434Y210421D01*
X86457Y210497D01*
X86468Y210576D01*
X86467Y210655D01*
X86453Y210733D01*
X86427Y210808D01*
X86389Y210878D01*
X86341Y210941D01*
X86284Y210996D01*
X86219Y211042D01*
X86148Y211076D01*
X86072Y211099D01*
X85993Y211110D01*
X85914Y211109D01*
X85836Y211095D01*
X85761Y211069D01*
X85692Y211030D01*
X85381Y210845D01*
X85053Y210691D01*
X84713Y210567D01*
X84363Y210473D01*
X84006Y210410D01*
X83646Y210378D01*
X83283D01*
X82923Y210410D01*
X82566Y210473D01*
X82216Y210567D01*
X82054Y210626D01*
Y218389D01*
X82216Y218449D01*
X82566Y218543D01*
X82923Y218606D01*
X83283Y218638D01*
X83646D01*
X84006Y218606D01*
X84363Y218543D01*
X84713Y218449D01*
X85053Y218324D01*
X85381Y218171D01*
X85694Y217989D01*
X85762Y217951D01*
X85837Y217925D01*
X85914Y217911D01*
X85993Y217909D01*
X86071Y217920D01*
X86146Y217943D01*
X86217Y217977D01*
X86282Y218022D01*
X86338Y218077D01*
X86386Y218140D01*
X86423Y218209D01*
X86449Y218283D01*
X86463Y218361D01*
X86464Y218440D01*
X86453Y218518D01*
X86431Y218593D01*
X86396Y218664D01*
X86351Y218728D01*
X86297Y218785D01*
X86233Y218831D01*
X85847Y219061D01*
X85439Y219252D01*
X85016Y219407D01*
X84581Y219524D01*
X84138Y219602D01*
X83690Y219642D01*
X83239D01*
X82791Y219602D01*
X82348Y219524D01*
X82054Y219445D01*
Y260458D01*
X82060Y260467D01*
X82431Y261104D01*
X82744Y261771D01*
X82997Y262462D01*
X83189Y263173D01*
X83317Y263898D01*
X83382Y264632D01*
Y265368D01*
X83317Y266102D01*
X83189Y266827D01*
X82997Y267538D01*
X82744Y268229D01*
X82431Y268896D01*
X82060Y269533D01*
X82054Y269542D01*
Y272092D01*
X82427Y271992D01*
X82870Y271913D01*
X83318Y271874D01*
X83768D01*
X84217Y271913D01*
X84660Y271992D01*
X85095Y272109D01*
X85518Y272263D01*
X85925Y272454D01*
X86315Y272680D01*
X86378Y272728D01*
X86433Y272785D01*
X86478Y272850D01*
X86513Y272921D01*
X86536Y272997D01*
X86547Y273076D01*
X86545Y273155D01*
X86531Y273233D01*
X86505Y273308D01*
X86468Y273378D01*
X86420Y273441D01*
X86363Y273496D01*
X86298Y273542D01*
X86226Y273576D01*
X86151Y273599D01*
X86072Y273610D01*
X85993Y273609D01*
X85915Y273595D01*
X85840Y273569D01*
X85771Y273530D01*
X85459Y273345D01*
X85132Y273191D01*
X84791Y273067D01*
X84442Y272973D01*
X84085Y272910D01*
X83724Y272878D01*
X83362D01*
X83001Y272910D01*
X82645Y272973D01*
X82295Y273067D01*
X82054Y273155D01*
Y280860D01*
X82295Y280949D01*
X82645Y281043D01*
X83001Y281106D01*
X83362Y281138D01*
X83724D01*
X84085Y281106D01*
X84442Y281043D01*
X84791Y280949D01*
X85132Y280824D01*
X85459Y280671D01*
X85773Y280489D01*
X85841Y280451D01*
X85916Y280425D01*
X85993Y280411D01*
X86072Y280409D01*
X86150Y280420D01*
X86225Y280443D01*
X86296Y280477D01*
X86360Y280522D01*
X86417Y280577D01*
X86465Y280640D01*
X86502Y280709D01*
X86528Y280783D01*
X86541Y280861D01*
X86543Y280940D01*
X86532Y281018D01*
X86509Y281093D01*
X86475Y281164D01*
X86430Y281228D01*
X86376Y281285D01*
X86312Y281331D01*
X85925Y281561D01*
X85518Y281752D01*
X85095Y281907D01*
X84660Y282024D01*
X84217Y282102D01*
X83768Y282142D01*
X83318D01*
X82870Y282102D01*
X82427Y282024D01*
X82054Y281923D01*
Y295500D01*
G37*
G36*
X79199D02*X82054D01*
Y281923D01*
X81992Y281907D01*
X81569Y281752D01*
X81161Y281561D01*
X80772Y281335D01*
X80708Y281288D01*
X80653Y281231D01*
X80608Y281166D01*
X80574Y281094D01*
X80551Y281018D01*
X80540Y280940D01*
X80541Y280860D01*
X80555Y280782D01*
X80581Y280707D01*
X80619Y280638D01*
X80666Y280574D01*
X80724Y280519D01*
X80789Y280474D01*
X80860Y280439D01*
X80936Y280416D01*
X81015Y280405D01*
X81094Y280407D01*
X81172Y280421D01*
X81247Y280447D01*
X81316Y280486D01*
X81627Y280671D01*
X81955Y280824D01*
X82054Y280860D01*
Y273155D01*
X81955Y273191D01*
X81627Y273345D01*
X81314Y273527D01*
X81245Y273565D01*
X81171Y273591D01*
X81094Y273605D01*
X81015Y273606D01*
X80937Y273596D01*
X80862Y273573D01*
X80791Y273538D01*
X80726Y273493D01*
X80669Y273439D01*
X80622Y273376D01*
X80585Y273307D01*
X80559Y273232D01*
X80545Y273155D01*
X80544Y273076D01*
X80554Y272998D01*
X80577Y272923D01*
X80612Y272852D01*
X80657Y272788D01*
X80711Y272731D01*
X80775Y272685D01*
X81161Y272454D01*
X81569Y272263D01*
X81992Y272109D01*
X82054Y272092D01*
Y269542D01*
X81636Y270134D01*
X81582Y270194D01*
X81520Y270244D01*
X81451Y270283D01*
X81376Y270312D01*
X81298Y270328D01*
X81218Y270332D01*
X81139Y270323D01*
X81062Y270302D01*
X80989Y270269D01*
X80922Y270226D01*
X80863Y270172D01*
X80813Y270110D01*
X80774Y270040D01*
X80745Y269966D01*
X80729Y269888D01*
X80725Y269808D01*
X80734Y269729D01*
X80755Y269652D01*
X80788Y269579D01*
X80833Y269513D01*
X81212Y268988D01*
X81538Y268428D01*
X81813Y267841D01*
X82036Y267233D01*
X82054Y267168D01*
Y262832D01*
X82036Y262767D01*
X81813Y262159D01*
X81538Y261572D01*
X81212Y261012D01*
X80838Y260483D01*
X80794Y260418D01*
X80762Y260346D01*
X80741Y260270D01*
X80732Y260192D01*
X80736Y260113D01*
X80752Y260036D01*
X80780Y259963D01*
X80819Y259894D01*
X80869Y259833D01*
X80927Y259780D01*
X80993Y259737D01*
X81064Y259705D01*
X81140Y259684D01*
X81219Y259675D01*
X81297Y259679D01*
X81374Y259695D01*
X81448Y259723D01*
X81516Y259762D01*
X81578Y259811D01*
X81629Y259871D01*
X82054Y260458D01*
Y219445D01*
X81913Y219407D01*
X81490Y219252D01*
X81083Y219061D01*
X80693Y218835D01*
X80630Y218788D01*
X80575Y218731D01*
X80529Y218666D01*
X80495Y218594D01*
X80472Y218518D01*
X80461Y218440D01*
X80462Y218360D01*
X80476Y218282D01*
X80502Y218207D01*
X80540Y218138D01*
X80588Y218074D01*
X80645Y218019D01*
X80710Y217974D01*
X80781Y217939D01*
X80857Y217916D01*
X80936Y217905D01*
X81015Y217907D01*
X81093Y217921D01*
X81168Y217947D01*
X81237Y217986D01*
X81548Y218171D01*
X81876Y218324D01*
X82054Y218389D01*
Y210626D01*
X81876Y210691D01*
X81548Y210845D01*
X81235Y211027D01*
X81167Y211065D01*
X81092Y211091D01*
X81015Y211105D01*
X80936Y211106D01*
X80858Y211096D01*
X80783Y211073D01*
X80712Y211038D01*
X80647Y210993D01*
X80591Y210939D01*
X80543Y210876D01*
X80506Y210807D01*
X80480Y210732D01*
X80466Y210655D01*
X80465Y210576D01*
X80476Y210498D01*
X80498Y210423D01*
X80533Y210352D01*
X80578Y210288D01*
X80632Y210231D01*
X80696Y210185D01*
X81083Y209954D01*
X81490Y209763D01*
X81913Y209609D01*
X82054Y209571D01*
Y207042D01*
X81636Y207634D01*
X81582Y207694D01*
X81520Y207744D01*
X81451Y207783D01*
X81376Y207812D01*
X81298Y207828D01*
X81218Y207832D01*
X81139Y207823D01*
X81062Y207802D01*
X80989Y207769D01*
X80922Y207726D01*
X80863Y207672D01*
X80813Y207610D01*
X80774Y207540D01*
X80745Y207466D01*
X80729Y207388D01*
X80725Y207308D01*
X80734Y207229D01*
X80755Y207152D01*
X80788Y207079D01*
X80833Y207013D01*
X81212Y206488D01*
X81538Y205928D01*
X81813Y205341D01*
X82036Y204733D01*
X82054Y204668D01*
Y200332D01*
X82036Y200267D01*
X81813Y199659D01*
X81538Y199072D01*
X81212Y198512D01*
X80838Y197983D01*
X80794Y197918D01*
X80762Y197846D01*
X80741Y197770D01*
X80732Y197692D01*
X80736Y197613D01*
X80752Y197536D01*
X80780Y197463D01*
X80819Y197394D01*
X80869Y197333D01*
X80927Y197280D01*
X80993Y197237D01*
X81064Y197205D01*
X81140Y197184D01*
X81219Y197175D01*
X81297Y197179D01*
X81374Y197195D01*
X81448Y197223D01*
X81516Y197262D01*
X81578Y197311D01*
X81629Y197371D01*
X82054Y197958D01*
Y159829D01*
X79199Y162684D01*
Y195246D01*
X79533Y195440D01*
X80134Y195864D01*
X80194Y195918D01*
X80244Y195980D01*
X80283Y196049D01*
X80312Y196124D01*
X80328Y196202D01*
X80332Y196282D01*
X80323Y196361D01*
X80302Y196438D01*
X80269Y196511D01*
X80226Y196578D01*
X80172Y196637D01*
X80110Y196687D01*
X80040Y196726D01*
X79966Y196755D01*
X79888Y196771D01*
X79808Y196775D01*
X79729Y196766D01*
X79652Y196745D01*
X79579Y196712D01*
X79513Y196667D01*
X79199Y196440D01*
Y208563D01*
X79517Y208338D01*
X79582Y208294D01*
X79654Y208262D01*
X79730Y208241D01*
X79808Y208232D01*
X79887Y208236D01*
X79964Y208252D01*
X80037Y208280D01*
X80106Y208319D01*
X80167Y208369D01*
X80220Y208427D01*
X80263Y208493D01*
X80295Y208564D01*
X80316Y208640D01*
X80325Y208719D01*
X80321Y208797D01*
X80305Y208874D01*
X80277Y208948D01*
X80238Y209016D01*
X80189Y209078D01*
X80129Y209129D01*
X79533Y209560D01*
X79199Y209754D01*
Y211659D01*
X79242Y211618D01*
X79307Y211573D01*
X79378Y211538D01*
X79454Y211515D01*
X79533Y211504D01*
X79612Y211506D01*
X79690Y211520D01*
X79765Y211546D01*
X79835Y211583D01*
X79898Y211631D01*
X79953Y211688D01*
X79998Y211753D01*
X80033Y211825D01*
X80056Y211901D01*
X80067Y211979D01*
X80065Y212059D01*
X80051Y212137D01*
X80025Y212212D01*
X79987Y212281D01*
X79802Y212592D01*
X79648Y212920D01*
X79524Y213260D01*
X79430Y213609D01*
X79366Y213966D01*
X79335Y214327D01*
Y214689D01*
X79366Y215050D01*
X79430Y215406D01*
X79524Y215756D01*
X79648Y216096D01*
X79802Y216424D01*
X79983Y216737D01*
X80022Y216806D01*
X80048Y216880D01*
X80061Y216958D01*
X80063Y217036D01*
X80052Y217114D01*
X80029Y217190D01*
X79995Y217260D01*
X79950Y217325D01*
X79896Y217382D01*
X79833Y217429D01*
X79763Y217466D01*
X79689Y217492D01*
X79612Y217506D01*
X79533Y217508D01*
X79455Y217497D01*
X79380Y217474D01*
X79309Y217440D01*
X79244Y217395D01*
X79199Y217351D01*
Y257746D01*
X79533Y257940D01*
X80134Y258364D01*
X80194Y258418D01*
X80244Y258480D01*
X80283Y258549D01*
X80312Y258624D01*
X80328Y258702D01*
X80332Y258782D01*
X80323Y258861D01*
X80302Y258938D01*
X80269Y259011D01*
X80226Y259078D01*
X80172Y259137D01*
X80110Y259187D01*
X80040Y259226D01*
X79966Y259255D01*
X79888Y259271D01*
X79808Y259275D01*
X79729Y259266D01*
X79652Y259245D01*
X79579Y259212D01*
X79513Y259167D01*
X79199Y258940D01*
Y271063D01*
X79517Y270838D01*
X79582Y270794D01*
X79654Y270762D01*
X79730Y270741D01*
X79808Y270732D01*
X79887Y270736D01*
X79964Y270752D01*
X80037Y270780D01*
X80106Y270819D01*
X80167Y270869D01*
X80220Y270927D01*
X80263Y270993D01*
X80295Y271064D01*
X80316Y271140D01*
X80325Y271219D01*
X80321Y271297D01*
X80305Y271374D01*
X80277Y271448D01*
X80238Y271516D01*
X80189Y271578D01*
X80129Y271629D01*
X79533Y272060D01*
X79199Y272254D01*
Y274266D01*
X79216Y274237D01*
X79263Y274173D01*
X79320Y274118D01*
X79386Y274073D01*
X79457Y274038D01*
X79533Y274015D01*
X79611Y274004D01*
X79691Y274006D01*
X79769Y274020D01*
X79844Y274046D01*
X79914Y274083D01*
X79977Y274131D01*
X80032Y274188D01*
X80077Y274253D01*
X80112Y274325D01*
X80135Y274401D01*
X80146Y274479D01*
X80144Y274559D01*
X80130Y274637D01*
X80104Y274712D01*
X80065Y274781D01*
X79880Y275092D01*
X79727Y275420D01*
X79602Y275760D01*
X79508Y276109D01*
X79445Y276466D01*
X79413Y276827D01*
Y277189D01*
X79445Y277550D01*
X79508Y277906D01*
X79602Y278256D01*
X79727Y278596D01*
X79880Y278924D01*
X80062Y279237D01*
X80101Y279306D01*
X80126Y279380D01*
X80140Y279458D01*
X80142Y279536D01*
X80131Y279614D01*
X80108Y279690D01*
X80074Y279760D01*
X80029Y279825D01*
X79974Y279882D01*
X79912Y279929D01*
X79842Y279966D01*
X79768Y279992D01*
X79690Y280006D01*
X79612Y280008D01*
X79534Y279997D01*
X79458Y279974D01*
X79388Y279940D01*
X79323Y279895D01*
X79266Y279840D01*
X79220Y279777D01*
X79199Y279741D01*
Y295500D01*
G37*
G36*
Y258940D02*X78988Y258788D01*
X78428Y258462D01*
X77841Y258187D01*
X77233Y257964D01*
X76607Y257795D01*
X75969Y257682D01*
X75324Y257625D01*
X75004D01*
Y272375D01*
X75324D01*
X75969Y272318D01*
X76607Y272205D01*
X77233Y272036D01*
X77841Y271813D01*
X78428Y271538D01*
X78988Y271212D01*
X79199Y271063D01*
Y258940D01*
G37*
G36*
Y209754D02*X78896Y209931D01*
X78229Y210244D01*
X77538Y210497D01*
X76827Y210689D01*
X76102Y210817D01*
X75368Y210882D01*
X75004D01*
Y256618D01*
X75368D01*
X76102Y256683D01*
X76827Y256811D01*
X77538Y257003D01*
X78229Y257256D01*
X78896Y257569D01*
X79199Y257746D01*
Y217351D01*
X79187Y217340D01*
X79141Y217277D01*
X78911Y216890D01*
X78720Y216482D01*
X78566Y216059D01*
X78449Y215625D01*
X78370Y215181D01*
X78331Y214733D01*
Y214283D01*
X78370Y213834D01*
X78449Y213391D01*
X78566Y212956D01*
X78720Y212534D01*
X78911Y212126D01*
X79137Y211737D01*
X79184Y211673D01*
X79199Y211659D01*
Y209754D01*
G37*
G36*
Y196440D02*X78988Y196288D01*
X78428Y195962D01*
X77841Y195687D01*
X77233Y195464D01*
X76607Y195295D01*
X75969Y195182D01*
X75324Y195125D01*
X75004D01*
Y209875D01*
X75324D01*
X75969Y209818D01*
X76607Y209705D01*
X77233Y209536D01*
X77841Y209313D01*
X78428Y209038D01*
X78988Y208712D01*
X79199Y208563D01*
Y196440D01*
G37*
G36*
Y162684D02*X75841Y166041D01*
Y169291D01*
X75846Y169350D01*
X75827Y169585D01*
X75827Y169585D01*
X75827Y169585D01*
Y169585D01*
X75823Y169604D01*
X75772Y169815D01*
X75682Y170033D01*
X75682Y170033D01*
X75682Y170033D01*
X75643Y170097D01*
X75559Y170234D01*
X75559Y170234D01*
X75559Y170234D01*
X75559Y170235D01*
X75405Y170414D01*
X75360Y170452D01*
X75004Y170809D01*
Y194118D01*
X75368D01*
X76102Y194183D01*
X76827Y194311D01*
X77538Y194503D01*
X78229Y194756D01*
X78896Y195069D01*
X79199Y195246D01*
Y162684D01*
G37*
G36*
X75004Y295500D02*X79199D01*
Y279741D01*
X78990Y279390D01*
X78799Y278982D01*
X78644Y278559D01*
X78527Y278125D01*
X78449Y277681D01*
X78409Y277233D01*
Y276783D01*
X78449Y276334D01*
X78527Y275891D01*
X78644Y275456D01*
X78799Y275034D01*
X78990Y274626D01*
X79199Y274266D01*
Y272254D01*
X78896Y272431D01*
X78229Y272744D01*
X77538Y272997D01*
X76827Y273189D01*
X76102Y273317D01*
X75368Y273382D01*
X75004D01*
Y295500D01*
G37*
G36*
X67946D02*X75004D01*
Y273382D01*
X74632D01*
X73898Y273317D01*
X73173Y273189D01*
X72462Y272997D01*
X71771Y272744D01*
X71104Y272431D01*
X70467Y272060D01*
X69866Y271636D01*
X69806Y271582D01*
X69756Y271520D01*
X69717Y271451D01*
X69688Y271376D01*
X69672Y271298D01*
X69668Y271218D01*
X69677Y271139D01*
X69698Y271062D01*
X69731Y270989D01*
X69774Y270922D01*
X69828Y270863D01*
X69890Y270813D01*
X69960Y270774D01*
X70034Y270745D01*
X70112Y270729D01*
X70192Y270725D01*
X70271Y270734D01*
X70348Y270755D01*
X70421Y270788D01*
X70487Y270833D01*
X71012Y271212D01*
X71572Y271538D01*
X72159Y271813D01*
X72767Y272036D01*
X73393Y272205D01*
X74031Y272318D01*
X74676Y272375D01*
X75004D01*
Y257625D01*
X74676D01*
X74031Y257682D01*
X73393Y257795D01*
X72767Y257964D01*
X72159Y258187D01*
X71572Y258462D01*
X71012Y258788D01*
X70483Y259162D01*
X70418Y259206D01*
X70346Y259238D01*
X70270Y259259D01*
X70192Y259268D01*
X70113Y259264D01*
X70036Y259248D01*
X69963Y259220D01*
X69894Y259181D01*
X69833Y259131D01*
X69780Y259073D01*
X69737Y259007D01*
X69705Y258936D01*
X69684Y258860D01*
X69675Y258781D01*
X69679Y258703D01*
X69695Y258626D01*
X69723Y258552D01*
X69762Y258484D01*
X69811Y258422D01*
X69871Y258371D01*
X70467Y257940D01*
X71104Y257569D01*
X71771Y257256D01*
X72462Y257003D01*
X73173Y256811D01*
X73898Y256683D01*
X74632Y256618D01*
X75004D01*
Y210882D01*
X74632D01*
X73898Y210817D01*
X73173Y210689D01*
X72462Y210497D01*
X71771Y210244D01*
X71104Y209931D01*
X70467Y209560D01*
X69866Y209136D01*
X69806Y209082D01*
X69756Y209020D01*
X69717Y208951D01*
X69688Y208876D01*
X69672Y208798D01*
X69668Y208718D01*
X69677Y208639D01*
X69698Y208562D01*
X69731Y208489D01*
X69774Y208422D01*
X69828Y208363D01*
X69890Y208313D01*
X69960Y208274D01*
X70034Y208245D01*
X70112Y208229D01*
X70192Y208225D01*
X70271Y208234D01*
X70348Y208255D01*
X70421Y208288D01*
X70487Y208333D01*
X71012Y208712D01*
X71572Y209038D01*
X72159Y209313D01*
X72767Y209536D01*
X73393Y209705D01*
X74031Y209818D01*
X74676Y209875D01*
X75004D01*
Y195125D01*
X74676D01*
X74031Y195182D01*
X73393Y195295D01*
X72767Y195464D01*
X72159Y195687D01*
X71572Y195962D01*
X71012Y196288D01*
X70483Y196662D01*
X70418Y196706D01*
X70346Y196738D01*
X70270Y196759D01*
X70192Y196768D01*
X70113Y196764D01*
X70036Y196748D01*
X69963Y196720D01*
X69894Y196681D01*
X69833Y196631D01*
X69780Y196573D01*
X69737Y196507D01*
X69705Y196436D01*
X69684Y196360D01*
X69675Y196281D01*
X69679Y196203D01*
X69695Y196126D01*
X69723Y196052D01*
X69762Y195984D01*
X69811Y195922D01*
X69871Y195871D01*
X70467Y195440D01*
X71104Y195069D01*
X71771Y194756D01*
X72462Y194503D01*
X73173Y194311D01*
X73898Y194183D01*
X74632Y194118D01*
X75004D01*
Y170809D01*
X68731Y177081D01*
X68756Y177500D01*
X68721Y178089D01*
X68583Y178664D01*
X68357Y179210D01*
X68048Y179714D01*
X67946Y179833D01*
Y197958D01*
X68364Y197366D01*
X68418Y197306D01*
X68480Y197256D01*
X68549Y197217D01*
X68624Y197188D01*
X68702Y197172D01*
X68782Y197168D01*
X68861Y197177D01*
X68938Y197198D01*
X69011Y197231D01*
X69078Y197274D01*
X69137Y197328D01*
X69187Y197390D01*
X69226Y197460D01*
X69255Y197534D01*
X69271Y197612D01*
X69275Y197692D01*
X69266Y197771D01*
X69245Y197848D01*
X69212Y197921D01*
X69167Y197987D01*
X68788Y198512D01*
X68462Y199072D01*
X68187Y199659D01*
X67964Y200267D01*
X67946Y200332D01*
Y204668D01*
X67964Y204733D01*
X68187Y205341D01*
X68462Y205928D01*
X68788Y206488D01*
X69162Y207017D01*
X69206Y207082D01*
X69238Y207154D01*
X69259Y207230D01*
X69268Y207308D01*
X69264Y207387D01*
X69248Y207464D01*
X69220Y207537D01*
X69181Y207606D01*
X69131Y207667D01*
X69073Y207720D01*
X69007Y207763D01*
X68936Y207795D01*
X68860Y207816D01*
X68781Y207825D01*
X68703Y207821D01*
X68626Y207805D01*
X68552Y207777D01*
X68484Y207738D01*
X68422Y207689D01*
X68371Y207629D01*
X67946Y207042D01*
Y227667D01*
X68048Y227786D01*
X68357Y228290D01*
X68583Y228836D01*
X68721Y229411D01*
X68756Y230000D01*
X68721Y230589D01*
X68583Y231164D01*
X68357Y231710D01*
X68048Y232214D01*
X67946Y232333D01*
Y236853D01*
X68290Y236643D01*
X68836Y236417D01*
X69411Y236279D01*
X70000Y236233D01*
X70589Y236279D01*
X71164Y236417D01*
X71710Y236643D01*
X72214Y236952D01*
X72664Y237336D01*
X73048Y237786D01*
X73357Y238290D01*
X73583Y238836D01*
X73721Y239411D01*
X73756Y240000D01*
X73721Y240589D01*
X73583Y241164D01*
X73357Y241710D01*
X73048Y242214D01*
X72664Y242664D01*
X72214Y243048D01*
X71710Y243357D01*
X71164Y243583D01*
X70589Y243721D01*
X70000Y243767D01*
X69411Y243721D01*
X68836Y243583D01*
X68290Y243357D01*
X67946Y243147D01*
Y260458D01*
X68364Y259866D01*
X68418Y259806D01*
X68480Y259756D01*
X68549Y259717D01*
X68624Y259688D01*
X68702Y259672D01*
X68782Y259668D01*
X68861Y259677D01*
X68938Y259698D01*
X69011Y259731D01*
X69078Y259774D01*
X69137Y259828D01*
X69187Y259890D01*
X69226Y259960D01*
X69255Y260034D01*
X69271Y260112D01*
X69275Y260192D01*
X69266Y260271D01*
X69245Y260348D01*
X69212Y260421D01*
X69167Y260487D01*
X68788Y261012D01*
X68462Y261572D01*
X68187Y262159D01*
X67964Y262767D01*
X67946Y262832D01*
Y267168D01*
X67964Y267233D01*
X68187Y267841D01*
X68462Y268428D01*
X68788Y268988D01*
X69162Y269517D01*
X69206Y269582D01*
X69238Y269654D01*
X69259Y269730D01*
X69268Y269808D01*
X69264Y269887D01*
X69248Y269964D01*
X69220Y270037D01*
X69181Y270106D01*
X69131Y270167D01*
X69073Y270220D01*
X69007Y270263D01*
X68936Y270295D01*
X68860Y270316D01*
X68781Y270325D01*
X68703Y270321D01*
X68626Y270305D01*
X68552Y270277D01*
X68484Y270238D01*
X68422Y270189D01*
X68371Y270129D01*
X67946Y269542D01*
Y295500D01*
G37*
G36*
Y262832D02*X67795Y263393D01*
X67682Y264031D01*
X67625Y264676D01*
Y265324D01*
X67682Y265969D01*
X67795Y266607D01*
X67946Y267168D01*
Y262832D01*
G37*
G36*
Y200332D02*X67795Y200893D01*
X67682Y201531D01*
X67625Y202176D01*
Y202824D01*
X67682Y203469D01*
X67795Y204107D01*
X67946Y204668D01*
Y200332D01*
G37*
G36*
X58625Y243496D02*X54745Y247376D01*
X54707Y247421D01*
X54527Y247574D01*
X54326Y247698D01*
X54108Y247788D01*
X53878Y247843D01*
X53878Y247843D01*
X53643Y247862D01*
X53584Y247857D01*
X37408D01*
X37349Y247862D01*
X37114Y247843D01*
X37054Y247829D01*
Y260458D01*
X37060Y260467D01*
X37431Y261104D01*
X37744Y261771D01*
X37997Y262462D01*
X38189Y263173D01*
X38317Y263898D01*
X38382Y264632D01*
Y265368D01*
X38317Y266102D01*
X38189Y266827D01*
X37997Y267538D01*
X37744Y268229D01*
X37431Y268896D01*
X37060Y269533D01*
X37054Y269542D01*
Y295500D01*
X67946D01*
Y269542D01*
X67940Y269533D01*
X67569Y268896D01*
X67256Y268229D01*
X67003Y267538D01*
X66811Y266827D01*
X66683Y266102D01*
X66618Y265368D01*
Y264632D01*
X66683Y263898D01*
X66811Y263173D01*
X67003Y262462D01*
X67256Y261771D01*
X67569Y261104D01*
X67940Y260467D01*
X67946Y260458D01*
Y243147D01*
X67786Y243048D01*
X67336Y242664D01*
X66952Y242214D01*
X66643Y241710D01*
X66417Y241164D01*
X66279Y240589D01*
X66233Y240000D01*
X66279Y239411D01*
X66417Y238836D01*
X66643Y238290D01*
X66952Y237786D01*
X67336Y237336D01*
X67786Y236952D01*
X67946Y236853D01*
Y232333D01*
X67664Y232664D01*
X67214Y233048D01*
X66710Y233357D01*
X66164Y233583D01*
X65589Y233721D01*
X65000Y233767D01*
X64411Y233721D01*
X63836Y233583D01*
X63290Y233357D01*
X62786Y233048D01*
X62336Y232664D01*
X61952Y232214D01*
X61643Y231710D01*
X61417Y231164D01*
X61279Y230589D01*
X61233Y230000D01*
X61279Y229411D01*
X61417Y228836D01*
X61643Y228290D01*
X61952Y227786D01*
X62336Y227336D01*
X62786Y226952D01*
X63290Y226643D01*
X63836Y226417D01*
X64411Y226279D01*
X65000Y226233D01*
X65589Y226279D01*
X66164Y226417D01*
X66710Y226643D01*
X67214Y226952D01*
X67664Y227336D01*
X67946Y227667D01*
Y207042D01*
X67940Y207033D01*
X67569Y206396D01*
X67256Y205729D01*
X67003Y205038D01*
X66811Y204327D01*
X66683Y203602D01*
X66618Y202868D01*
Y202132D01*
X66683Y201398D01*
X66811Y200673D01*
X67003Y199962D01*
X67256Y199271D01*
X67569Y198604D01*
X67940Y197967D01*
X67946Y197958D01*
Y179833D01*
X67664Y180164D01*
X67214Y180548D01*
X66710Y180857D01*
X66164Y181083D01*
X65589Y181221D01*
X65000Y181267D01*
X64411Y181221D01*
X63836Y181083D01*
X63625Y180996D01*
X61224Y183398D01*
Y231260D01*
X61228Y231319D01*
X61210Y231554D01*
X61155Y231784D01*
X61064Y232002D01*
X60941Y232203D01*
X60788Y232383D01*
X60743Y232421D01*
X57886Y235277D01*
X57848Y235322D01*
X57669Y235476D01*
X57467Y235599D01*
X57249Y235689D01*
X57020Y235744D01*
X56784Y235763D01*
X56725Y235758D01*
X46363D01*
X43496Y238625D01*
X43583Y238836D01*
X43721Y239411D01*
X43756Y240000D01*
X43721Y240589D01*
X43583Y241164D01*
X43357Y241710D01*
X43048Y242214D01*
X42664Y242664D01*
X42438Y242857D01*
X45022D01*
X46504Y241375D01*
X46417Y241164D01*
X46279Y240589D01*
X46233Y240000D01*
X46279Y239411D01*
X46417Y238836D01*
X46643Y238290D01*
X46952Y237786D01*
X47336Y237336D01*
X47786Y236952D01*
X48290Y236643D01*
X48836Y236417D01*
X49411Y236279D01*
X50000Y236233D01*
X50589Y236279D01*
X51164Y236417D01*
X51710Y236643D01*
X52214Y236952D01*
X52664Y237336D01*
X53048Y237786D01*
X53357Y238290D01*
X53583Y238836D01*
X53721Y239411D01*
X53756Y240000D01*
X53721Y240589D01*
X53583Y241164D01*
X53357Y241710D01*
X53048Y242214D01*
X52664Y242664D01*
X52214Y243048D01*
X51710Y243357D01*
X51164Y243583D01*
X50589Y243721D01*
X50000Y243767D01*
X49411Y243721D01*
X48836Y243583D01*
X48625Y243496D01*
X47264Y244857D01*
X53022D01*
X56504Y241375D01*
X56417Y241164D01*
X56279Y240589D01*
X56233Y240000D01*
X56279Y239411D01*
X56417Y238836D01*
X56643Y238290D01*
X56952Y237786D01*
X57336Y237336D01*
X57786Y236952D01*
X58290Y236643D01*
X58836Y236417D01*
X59411Y236279D01*
X60000Y236233D01*
X60589Y236279D01*
X61164Y236417D01*
X61710Y236643D01*
X62214Y236952D01*
X62664Y237336D01*
X63048Y237786D01*
X63357Y238290D01*
X63583Y238836D01*
X63721Y239411D01*
X63756Y240000D01*
X63721Y240589D01*
X63583Y241164D01*
X63357Y241710D01*
X63048Y242214D01*
X62664Y242664D01*
X62214Y243048D01*
X61710Y243357D01*
X61164Y243583D01*
X60589Y243721D01*
X60000Y243767D01*
X59411Y243721D01*
X58836Y243583D01*
X58625Y243496D01*
G37*
G36*
X37054Y247829D02*X36884Y247788D01*
X36666Y247698D01*
X36465Y247574D01*
X36465Y247574D01*
X36285Y247421D01*
X36247Y247376D01*
X30004Y241133D01*
Y256618D01*
X30368D01*
X31102Y256683D01*
X31827Y256811D01*
X32538Y257003D01*
X33229Y257256D01*
X33896Y257569D01*
X34533Y257940D01*
X35134Y258364D01*
X35194Y258418D01*
X35244Y258480D01*
X35283Y258549D01*
X35312Y258624D01*
X35328Y258702D01*
X35332Y258782D01*
X35323Y258861D01*
X35302Y258938D01*
X35269Y259011D01*
X35226Y259078D01*
X35172Y259137D01*
X35110Y259187D01*
X35040Y259226D01*
X34966Y259255D01*
X34888Y259271D01*
X34808Y259275D01*
X34729Y259266D01*
X34652Y259245D01*
X34579Y259212D01*
X34513Y259167D01*
X33988Y258788D01*
X33428Y258462D01*
X32841Y258187D01*
X32233Y257964D01*
X31607Y257795D01*
X30969Y257682D01*
X30324Y257625D01*
X30004D01*
Y272375D01*
X30324D01*
X30969Y272318D01*
X31607Y272205D01*
X32233Y272036D01*
X32841Y271813D01*
X33428Y271538D01*
X33988Y271212D01*
X34517Y270838D01*
X34582Y270794D01*
X34654Y270762D01*
X34730Y270741D01*
X34808Y270732D01*
X34887Y270736D01*
X34964Y270752D01*
X35037Y270780D01*
X35106Y270819D01*
X35167Y270869D01*
X35220Y270927D01*
X35263Y270993D01*
X35295Y271064D01*
X35316Y271140D01*
X35325Y271219D01*
X35321Y271297D01*
X35305Y271374D01*
X35277Y271448D01*
X35238Y271516D01*
X35189Y271578D01*
X35129Y271629D01*
X34533Y272060D01*
X33896Y272431D01*
X33229Y272744D01*
X32538Y272997D01*
X31827Y273189D01*
X31102Y273317D01*
X30368Y273382D01*
X30004D01*
Y295500D01*
X37054D01*
Y269542D01*
X36636Y270134D01*
X36582Y270194D01*
X36520Y270244D01*
X36451Y270283D01*
X36376Y270312D01*
X36298Y270328D01*
X36218Y270332D01*
X36139Y270323D01*
X36062Y270302D01*
X35989Y270269D01*
X35922Y270226D01*
X35863Y270172D01*
X35813Y270110D01*
X35774Y270040D01*
X35745Y269966D01*
X35729Y269888D01*
X35725Y269808D01*
X35734Y269729D01*
X35755Y269652D01*
X35788Y269579D01*
X35833Y269513D01*
X36212Y268988D01*
X36538Y268428D01*
X36813Y267841D01*
X37036Y267233D01*
X37054Y267168D01*
Y262832D01*
X37036Y262767D01*
X36813Y262159D01*
X36538Y261572D01*
X36212Y261012D01*
X35838Y260483D01*
X35794Y260418D01*
X35762Y260346D01*
X35741Y260270D01*
X35732Y260192D01*
X35736Y260113D01*
X35752Y260036D01*
X35780Y259963D01*
X35819Y259894D01*
X35869Y259833D01*
X35927Y259780D01*
X35993Y259737D01*
X36064Y259705D01*
X36140Y259684D01*
X36219Y259675D01*
X36297Y259679D01*
X36374Y259695D01*
X36448Y259723D01*
X36516Y259762D01*
X36578Y259811D01*
X36629Y259871D01*
X37054Y260458D01*
Y247829D01*
G37*
G36*
X25801Y271060D02*X26012Y271212D01*
X26572Y271538D01*
X27159Y271813D01*
X27767Y272036D01*
X28393Y272205D01*
X29031Y272318D01*
X29676Y272375D01*
X30004D01*
Y257625D01*
X29676D01*
X29031Y257682D01*
X28393Y257795D01*
X27767Y257964D01*
X27159Y258187D01*
X26572Y258462D01*
X26012Y258788D01*
X25801Y258937D01*
Y271060D01*
G37*
G36*
Y295500D02*X30004D01*
Y273382D01*
X29632D01*
X28898Y273317D01*
X28173Y273189D01*
X27462Y272997D01*
X26771Y272744D01*
X26104Y272431D01*
X25801Y272254D01*
Y274165D01*
X25813Y274176D01*
X25859Y274239D01*
X26089Y274626D01*
X26280Y275034D01*
X26434Y275456D01*
X26551Y275891D01*
X26630Y276334D01*
X26669Y276783D01*
Y277233D01*
X26630Y277681D01*
X26551Y278125D01*
X26434Y278559D01*
X26280Y278982D01*
X26089Y279390D01*
X25863Y279779D01*
X25816Y279843D01*
X25801Y279857D01*
Y295500D01*
G37*
G36*
Y195246D02*X26104Y195069D01*
X26771Y194756D01*
X27462Y194503D01*
X28173Y194311D01*
X28898Y194183D01*
X29632Y194118D01*
X30004D01*
Y184618D01*
X25801Y188820D01*
Y195246D01*
G37*
G36*
Y208560D02*X26012Y208712D01*
X26572Y209038D01*
X27159Y209313D01*
X27767Y209536D01*
X28393Y209705D01*
X29031Y209818D01*
X29676Y209875D01*
X30004D01*
Y195125D01*
X29676D01*
X29031Y195182D01*
X28393Y195295D01*
X27767Y195464D01*
X27159Y195687D01*
X26572Y195962D01*
X26012Y196288D01*
X25801Y196437D01*
Y208560D01*
G37*
G36*
X30004Y241133D02*X29535Y240664D01*
X29490Y240626D01*
X29337Y240447D01*
X29214Y240245D01*
X29123Y240027D01*
X29068Y239798D01*
X29068Y239797D01*
X29050Y239562D01*
X29054Y239504D01*
Y223310D01*
X29050Y223251D01*
X29068Y223016D01*
X29123Y222786D01*
X29214Y222568D01*
X29337Y222367D01*
X29490Y222187D01*
X29535Y222149D01*
X30004Y221681D01*
Y210882D01*
X29632D01*
X28898Y210817D01*
X28173Y210689D01*
X27462Y210497D01*
X26771Y210244D01*
X26104Y209931D01*
X25801Y209754D01*
Y211775D01*
X26010Y212126D01*
X26201Y212534D01*
X26356Y212956D01*
X26473Y213391D01*
X26551Y213834D01*
X26591Y214283D01*
Y214733D01*
X26551Y215181D01*
X26473Y215625D01*
X26356Y216059D01*
X26201Y216482D01*
X26010Y216890D01*
X25801Y217250D01*
Y257746D01*
X26104Y257569D01*
X26771Y257256D01*
X27462Y257003D01*
X28173Y256811D01*
X28898Y256683D01*
X29632Y256618D01*
X30004D01*
Y241133D01*
G37*
G36*
X25801Y209754D02*X25467Y209560D01*
X24866Y209136D01*
X24806Y209082D01*
X24756Y209020D01*
X24717Y208951D01*
X24688Y208876D01*
X24672Y208798D01*
X24668Y208718D01*
X24677Y208639D01*
X24698Y208562D01*
X24731Y208489D01*
X24774Y208422D01*
X24828Y208363D01*
X24890Y208313D01*
X24960Y208274D01*
X25034Y208245D01*
X25112Y208229D01*
X25192Y208225D01*
X25271Y208234D01*
X25348Y208255D01*
X25421Y208288D01*
X25487Y208333D01*
X25801Y208560D01*
Y196437D01*
X25483Y196662D01*
X25418Y196706D01*
X25346Y196738D01*
X25270Y196759D01*
X25192Y196768D01*
X25113Y196764D01*
X25036Y196748D01*
X24963Y196720D01*
X24894Y196681D01*
X24833Y196631D01*
X24780Y196573D01*
X24737Y196507D01*
X24705Y196436D01*
X24684Y196360D01*
X24675Y196281D01*
X24679Y196203D01*
X24695Y196126D01*
X24723Y196052D01*
X24762Y195984D01*
X24811Y195922D01*
X24871Y195871D01*
X25467Y195440D01*
X25801Y195246D01*
Y188820D01*
X22946Y191675D01*
Y197958D01*
X23364Y197366D01*
X23418Y197306D01*
X23480Y197256D01*
X23549Y197217D01*
X23624Y197188D01*
X23702Y197172D01*
X23782Y197168D01*
X23861Y197177D01*
X23938Y197198D01*
X24011Y197231D01*
X24078Y197274D01*
X24137Y197328D01*
X24187Y197390D01*
X24226Y197460D01*
X24255Y197534D01*
X24271Y197612D01*
X24275Y197692D01*
X24266Y197771D01*
X24245Y197848D01*
X24212Y197921D01*
X24167Y197987D01*
X23788Y198512D01*
X23462Y199072D01*
X23187Y199659D01*
X22964Y200267D01*
X22946Y200332D01*
Y204668D01*
X22964Y204733D01*
X23187Y205341D01*
X23462Y205928D01*
X23788Y206488D01*
X24162Y207017D01*
X24206Y207082D01*
X24238Y207154D01*
X24259Y207230D01*
X24268Y207308D01*
X24264Y207387D01*
X24248Y207464D01*
X24220Y207537D01*
X24181Y207606D01*
X24131Y207667D01*
X24073Y207720D01*
X24007Y207763D01*
X23936Y207795D01*
X23860Y207816D01*
X23781Y207825D01*
X23703Y207821D01*
X23626Y207805D01*
X23552Y207777D01*
X23484Y207738D01*
X23422Y207689D01*
X23371Y207629D01*
X22946Y207042D01*
Y209592D01*
X23008Y209609D01*
X23431Y209763D01*
X23839Y209954D01*
X24228Y210180D01*
X24292Y210228D01*
X24347Y210285D01*
X24392Y210350D01*
X24426Y210421D01*
X24449Y210497D01*
X24460Y210576D01*
X24459Y210655D01*
X24445Y210733D01*
X24419Y210808D01*
X24381Y210878D01*
X24334Y210941D01*
X24276Y210996D01*
X24211Y211042D01*
X24140Y211076D01*
X24064Y211099D01*
X23985Y211110D01*
X23906Y211109D01*
X23828Y211095D01*
X23753Y211069D01*
X23684Y211030D01*
X23373Y210845D01*
X23045Y210691D01*
X22946Y210655D01*
Y218360D01*
X23045Y218324D01*
X23373Y218171D01*
X23686Y217989D01*
X23755Y217951D01*
X23829Y217925D01*
X23906Y217911D01*
X23985Y217909D01*
X24063Y217920D01*
X24138Y217943D01*
X24209Y217977D01*
X24274Y218022D01*
X24331Y218077D01*
X24378Y218140D01*
X24415Y218209D01*
X24441Y218283D01*
X24455Y218361D01*
X24456Y218440D01*
X24446Y218518D01*
X24423Y218593D01*
X24388Y218664D01*
X24343Y218728D01*
X24289Y218785D01*
X24225Y218831D01*
X23839Y219061D01*
X23431Y219252D01*
X23008Y219407D01*
X22946Y219423D01*
Y260458D01*
X23364Y259866D01*
X23418Y259806D01*
X23480Y259756D01*
X23549Y259717D01*
X23624Y259688D01*
X23702Y259672D01*
X23782Y259668D01*
X23861Y259677D01*
X23938Y259698D01*
X24011Y259731D01*
X24078Y259774D01*
X24137Y259828D01*
X24187Y259890D01*
X24226Y259960D01*
X24255Y260034D01*
X24271Y260112D01*
X24275Y260192D01*
X24266Y260271D01*
X24245Y260348D01*
X24212Y260421D01*
X24167Y260487D01*
X23788Y261012D01*
X23462Y261572D01*
X23187Y262159D01*
X22964Y262767D01*
X22946Y262832D01*
Y267168D01*
X22964Y267233D01*
X23187Y267841D01*
X23462Y268428D01*
X23788Y268988D01*
X24162Y269517D01*
X24206Y269582D01*
X24238Y269654D01*
X24259Y269730D01*
X24268Y269808D01*
X24264Y269887D01*
X24248Y269964D01*
X24220Y270037D01*
X24181Y270106D01*
X24131Y270167D01*
X24073Y270220D01*
X24007Y270263D01*
X23936Y270295D01*
X23860Y270316D01*
X23781Y270325D01*
X23703Y270321D01*
X23626Y270305D01*
X23552Y270277D01*
X23484Y270238D01*
X23422Y270189D01*
X23371Y270129D01*
X22946Y269542D01*
Y272071D01*
X23087Y272109D01*
X23510Y272263D01*
X23917Y272454D01*
X24307Y272680D01*
X24370Y272728D01*
X24425Y272785D01*
X24471Y272850D01*
X24505Y272921D01*
X24528Y272997D01*
X24539Y273076D01*
X24538Y273155D01*
X24524Y273233D01*
X24498Y273308D01*
X24460Y273378D01*
X24412Y273441D01*
X24355Y273496D01*
X24290Y273542D01*
X24219Y273576D01*
X24143Y273599D01*
X24064Y273610D01*
X23985Y273609D01*
X23907Y273595D01*
X23832Y273569D01*
X23763Y273530D01*
X23452Y273345D01*
X23124Y273191D01*
X22946Y273126D01*
Y280889D01*
X23124Y280824D01*
X23452Y280671D01*
X23765Y280489D01*
X23833Y280451D01*
X23908Y280425D01*
X23985Y280411D01*
X24064Y280409D01*
X24142Y280420D01*
X24217Y280443D01*
X24288Y280477D01*
X24353Y280522D01*
X24409Y280577D01*
X24457Y280640D01*
X24494Y280709D01*
X24520Y280783D01*
X24534Y280861D01*
X24535Y280940D01*
X24524Y281018D01*
X24502Y281093D01*
X24467Y281164D01*
X24422Y281228D01*
X24368Y281285D01*
X24304Y281331D01*
X23917Y281561D01*
X23510Y281752D01*
X23087Y281907D01*
X22946Y281945D01*
Y295500D01*
X25801D01*
Y279857D01*
X25758Y279898D01*
X25693Y279943D01*
X25622Y279978D01*
X25546Y280001D01*
X25467Y280012D01*
X25388Y280010D01*
X25310Y279996D01*
X25235Y279970D01*
X25165Y279933D01*
X25102Y279885D01*
X25047Y279828D01*
X25002Y279762D01*
X24967Y279691D01*
X24944Y279615D01*
X24933Y279537D01*
X24935Y279457D01*
X24949Y279379D01*
X24975Y279304D01*
X25013Y279235D01*
X25198Y278924D01*
X25352Y278596D01*
X25476Y278256D01*
X25570Y277906D01*
X25634Y277550D01*
X25665Y277189D01*
Y276827D01*
X25634Y276466D01*
X25570Y276109D01*
X25476Y275760D01*
X25352Y275420D01*
X25198Y275092D01*
X25017Y274779D01*
X24978Y274710D01*
X24952Y274636D01*
X24939Y274558D01*
X24937Y274479D01*
X24948Y274401D01*
X24971Y274326D01*
X25005Y274255D01*
X25050Y274191D01*
X25104Y274134D01*
X25167Y274087D01*
X25237Y274049D01*
X25311Y274024D01*
X25388Y274010D01*
X25467Y274008D01*
X25545Y274019D01*
X25620Y274042D01*
X25691Y274076D01*
X25756Y274121D01*
X25801Y274165D01*
Y272254D01*
X25467Y272060D01*
X24866Y271636D01*
X24806Y271582D01*
X24756Y271520D01*
X24717Y271451D01*
X24688Y271376D01*
X24672Y271298D01*
X24668Y271218D01*
X24677Y271139D01*
X24698Y271062D01*
X24731Y270989D01*
X24774Y270922D01*
X24828Y270863D01*
X24890Y270813D01*
X24960Y270774D01*
X25034Y270745D01*
X25112Y270729D01*
X25192Y270725D01*
X25271Y270734D01*
X25348Y270755D01*
X25421Y270788D01*
X25487Y270833D01*
X25801Y271060D01*
Y258937D01*
X25483Y259162D01*
X25418Y259206D01*
X25346Y259238D01*
X25270Y259259D01*
X25192Y259268D01*
X25113Y259264D01*
X25036Y259248D01*
X24963Y259220D01*
X24894Y259181D01*
X24833Y259131D01*
X24780Y259073D01*
X24737Y259007D01*
X24705Y258936D01*
X24684Y258860D01*
X24675Y258781D01*
X24679Y258703D01*
X24695Y258626D01*
X24723Y258552D01*
X24762Y258484D01*
X24811Y258422D01*
X24871Y258371D01*
X25467Y257940D01*
X25801Y257746D01*
Y217250D01*
X25784Y217279D01*
X25737Y217343D01*
X25680Y217398D01*
X25614Y217443D01*
X25543Y217478D01*
X25467Y217501D01*
X25389Y217512D01*
X25309Y217510D01*
X25231Y217496D01*
X25156Y217470D01*
X25086Y217433D01*
X25023Y217385D01*
X24968Y217328D01*
X24923Y217262D01*
X24888Y217191D01*
X24865Y217115D01*
X24854Y217037D01*
X24856Y216957D01*
X24870Y216879D01*
X24896Y216804D01*
X24935Y216735D01*
X25120Y216424D01*
X25273Y216096D01*
X25398Y215756D01*
X25492Y215406D01*
X25555Y215050D01*
X25587Y214689D01*
Y214327D01*
X25555Y213966D01*
X25492Y213609D01*
X25398Y213260D01*
X25273Y212920D01*
X25120Y212592D01*
X24938Y212279D01*
X24899Y212210D01*
X24874Y212136D01*
X24860Y212058D01*
X24858Y211979D01*
X24869Y211901D01*
X24892Y211826D01*
X24926Y211755D01*
X24971Y211691D01*
X25026Y211634D01*
X25088Y211587D01*
X25158Y211549D01*
X25232Y211524D01*
X25310Y211510D01*
X25388Y211508D01*
X25466Y211519D01*
X25542Y211542D01*
X25612Y211576D01*
X25677Y211621D01*
X25734Y211676D01*
X25780Y211739D01*
X25801Y211775D01*
Y209754D01*
G37*
G36*
X22946Y262832D02*X22795Y263393D01*
X22682Y264031D01*
X22625Y264676D01*
Y265324D01*
X22682Y265969D01*
X22795Y266607D01*
X22946Y267168D01*
Y262832D01*
G37*
G36*
Y200332D02*X22795Y200893D01*
X22682Y201531D01*
X22625Y202176D01*
Y202824D01*
X22682Y203469D01*
X22795Y204107D01*
X22946Y204668D01*
Y200332D01*
G37*
G36*
Y191675D02*X17270Y197352D01*
Y211593D01*
X17299Y211573D01*
X17370Y211538D01*
X17446Y211515D01*
X17525Y211504D01*
X17604Y211506D01*
X17682Y211520D01*
X17757Y211546D01*
X17827Y211583D01*
X17890Y211631D01*
X17945Y211688D01*
X17991Y211753D01*
X18025Y211825D01*
X18048Y211901D01*
X18059Y211979D01*
X18058Y212059D01*
X18044Y212137D01*
X18018Y212212D01*
X17979Y212281D01*
X17794Y212592D01*
X17640Y212920D01*
X17516Y213260D01*
X17422Y213609D01*
X17358Y213966D01*
X17327Y214327D01*
Y214689D01*
X17358Y215050D01*
X17422Y215406D01*
X17516Y215756D01*
X17640Y216096D01*
X17794Y216424D01*
X17975Y216737D01*
X18014Y216806D01*
X18040Y216880D01*
X18054Y216958D01*
X18055Y217036D01*
X18044Y217114D01*
X18022Y217190D01*
X17987Y217260D01*
X17942Y217325D01*
X17888Y217382D01*
X17825Y217429D01*
X17756Y217466D01*
X17681Y217492D01*
X17604Y217506D01*
X17525Y217508D01*
X17447Y217497D01*
X17372Y217474D01*
X17301Y217440D01*
X17270Y217418D01*
Y274159D01*
X17313Y274118D01*
X17378Y274073D01*
X17449Y274038D01*
X17525Y274015D01*
X17604Y274004D01*
X17683Y274006D01*
X17761Y274020D01*
X17836Y274046D01*
X17906Y274083D01*
X17969Y274131D01*
X18024Y274188D01*
X18069Y274253D01*
X18104Y274325D01*
X18127Y274401D01*
X18138Y274479D01*
X18136Y274559D01*
X18122Y274637D01*
X18096Y274712D01*
X18058Y274781D01*
X17872Y275092D01*
X17719Y275420D01*
X17594Y275760D01*
X17500Y276109D01*
X17437Y276466D01*
X17406Y276827D01*
Y277189D01*
X17437Y277550D01*
X17500Y277906D01*
X17594Y278256D01*
X17719Y278596D01*
X17872Y278924D01*
X18054Y279237D01*
X18093Y279306D01*
X18118Y279380D01*
X18132Y279458D01*
X18134Y279536D01*
X18123Y279614D01*
X18100Y279690D01*
X18066Y279760D01*
X18021Y279825D01*
X17966Y279882D01*
X17904Y279929D01*
X17834Y279966D01*
X17760Y279992D01*
X17682Y280006D01*
X17604Y280008D01*
X17526Y279997D01*
X17450Y279974D01*
X17380Y279940D01*
X17315Y279895D01*
X17270Y279851D01*
Y295500D01*
X22946D01*
Y281945D01*
X22652Y282024D01*
X22209Y282102D01*
X21761Y282142D01*
X21310D01*
X20862Y282102D01*
X20419Y282024D01*
X19984Y281907D01*
X19561Y281752D01*
X19153Y281561D01*
X18764Y281335D01*
X18701Y281288D01*
X18646Y281231D01*
X18600Y281166D01*
X18566Y281094D01*
X18543Y281018D01*
X18532Y280940D01*
X18533Y280860D01*
X18547Y280782D01*
X18573Y280707D01*
X18611Y280638D01*
X18659Y280574D01*
X18716Y280519D01*
X18781Y280474D01*
X18852Y280439D01*
X18928Y280416D01*
X19007Y280405D01*
X19086Y280407D01*
X19164Y280421D01*
X19239Y280447D01*
X19308Y280486D01*
X19619Y280671D01*
X19947Y280824D01*
X20287Y280949D01*
X20637Y281043D01*
X20994Y281106D01*
X21354Y281138D01*
X21716D01*
X22077Y281106D01*
X22434Y281043D01*
X22784Y280949D01*
X22946Y280889D01*
Y273126D01*
X22784Y273067D01*
X22434Y272973D01*
X22077Y272910D01*
X21716Y272878D01*
X21354D01*
X20994Y272910D01*
X20637Y272973D01*
X20287Y273067D01*
X19947Y273191D01*
X19619Y273345D01*
X19306Y273527D01*
X19238Y273565D01*
X19163Y273591D01*
X19086Y273605D01*
X19007Y273606D01*
X18929Y273596D01*
X18854Y273573D01*
X18783Y273538D01*
X18718Y273493D01*
X18662Y273439D01*
X18614Y273376D01*
X18577Y273307D01*
X18551Y273232D01*
X18537Y273155D01*
X18536Y273076D01*
X18547Y272998D01*
X18569Y272923D01*
X18604Y272852D01*
X18649Y272788D01*
X18703Y272731D01*
X18767Y272685D01*
X19153Y272454D01*
X19561Y272263D01*
X19984Y272109D01*
X20419Y271992D01*
X20862Y271913D01*
X21310Y271874D01*
X21761D01*
X22209Y271913D01*
X22652Y271992D01*
X22946Y272071D01*
Y269542D01*
X22940Y269533D01*
X22569Y268896D01*
X22256Y268229D01*
X22003Y267538D01*
X21811Y266827D01*
X21683Y266102D01*
X21618Y265368D01*
Y264632D01*
X21683Y263898D01*
X21811Y263173D01*
X22003Y262462D01*
X22256Y261771D01*
X22569Y261104D01*
X22940Y260467D01*
X22946Y260458D01*
Y219423D01*
X22573Y219524D01*
X22130Y219602D01*
X21682Y219642D01*
X21232D01*
X20783Y219602D01*
X20340Y219524D01*
X19905Y219407D01*
X19482Y219252D01*
X19075Y219061D01*
X18685Y218835D01*
X18622Y218788D01*
X18567Y218731D01*
X18522Y218666D01*
X18487Y218594D01*
X18464Y218518D01*
X18453Y218440D01*
X18455Y218360D01*
X18469Y218282D01*
X18495Y218207D01*
X18532Y218138D01*
X18580Y218074D01*
X18637Y218019D01*
X18702Y217974D01*
X18774Y217939D01*
X18849Y217916D01*
X18928Y217905D01*
X19007Y217907D01*
X19085Y217921D01*
X19160Y217947D01*
X19229Y217986D01*
X19541Y218171D01*
X19868Y218324D01*
X20209Y218449D01*
X20558Y218543D01*
X20915Y218606D01*
X21276Y218638D01*
X21638D01*
X21999Y218606D01*
X22355Y218543D01*
X22705Y218449D01*
X22946Y218360D01*
Y210655D01*
X22705Y210567D01*
X22355Y210473D01*
X21999Y210410D01*
X21638Y210378D01*
X21276D01*
X20915Y210410D01*
X20558Y210473D01*
X20209Y210567D01*
X19868Y210691D01*
X19541Y210845D01*
X19227Y211027D01*
X19159Y211065D01*
X19084Y211091D01*
X19007Y211105D01*
X18928Y211106D01*
X18850Y211096D01*
X18775Y211073D01*
X18704Y211038D01*
X18640Y210993D01*
X18583Y210939D01*
X18535Y210876D01*
X18498Y210807D01*
X18472Y210732D01*
X18459Y210655D01*
X18457Y210576D01*
X18468Y210498D01*
X18491Y210423D01*
X18525Y210352D01*
X18570Y210288D01*
X18624Y210231D01*
X18688Y210185D01*
X19075Y209954D01*
X19482Y209763D01*
X19905Y209609D01*
X20340Y209492D01*
X20783Y209413D01*
X21232Y209374D01*
X21682D01*
X22130Y209413D01*
X22573Y209492D01*
X22946Y209592D01*
Y207042D01*
X22940Y207033D01*
X22569Y206396D01*
X22256Y205729D01*
X22003Y205038D01*
X21811Y204327D01*
X21683Y203602D01*
X21618Y202868D01*
Y202132D01*
X21683Y201398D01*
X21811Y200673D01*
X22003Y199962D01*
X22256Y199271D01*
X22569Y198604D01*
X22940Y197967D01*
X22946Y197958D01*
Y191675D01*
G37*
G36*
X17270Y197352D02*X16000Y198621D01*
Y199941D01*
X16005Y200000D01*
X16000Y200064D01*
Y295500D01*
X17270D01*
Y279851D01*
X17258Y279840D01*
X17212Y279777D01*
X16982Y279390D01*
X16791Y278982D01*
X16636Y278559D01*
X16519Y278125D01*
X16441Y277681D01*
X16402Y277233D01*
Y276783D01*
X16441Y276334D01*
X16519Y275891D01*
X16636Y275456D01*
X16791Y275034D01*
X16982Y274626D01*
X17208Y274237D01*
X17255Y274173D01*
X17270Y274159D01*
Y217418D01*
X17236Y217395D01*
X17180Y217340D01*
X17133Y217277D01*
X16903Y216890D01*
X16712Y216482D01*
X16558Y216059D01*
X16441Y215625D01*
X16362Y215181D01*
X16323Y214733D01*
Y214283D01*
X16362Y213834D01*
X16441Y213391D01*
X16558Y212956D01*
X16712Y212534D01*
X16903Y212126D01*
X17129Y211737D01*
X17177Y211673D01*
X17234Y211618D01*
X17270Y211593D01*
Y197352D01*
G37*
G36*
X53500Y213146D02*Y180944D01*
X53290Y180857D01*
X52786Y180548D01*
X52336Y180164D01*
X52220Y180029D01*
Y214221D01*
X52225Y214280D01*
X52213Y214433D01*
X53500Y213146D01*
G37*
G36*
X58500Y176135D02*Y170944D01*
X58290Y170857D01*
X57786Y170548D01*
X57336Y170164D01*
X56952Y169714D01*
X56643Y169210D01*
X56417Y168664D01*
X56279Y168089D01*
X56233Y167500D01*
X56279Y166911D01*
X56417Y166336D01*
X56643Y165790D01*
X56952Y165286D01*
X57336Y164836D01*
X57519Y164680D01*
X55987D01*
Y171930D01*
X55992Y171989D01*
X55974Y172224D01*
X55918Y172454D01*
X55828Y172672D01*
X55705Y172873D01*
X55551Y173053D01*
X55506Y173091D01*
X54853Y173744D01*
X55000Y173733D01*
X55589Y173779D01*
X56164Y173917D01*
X56710Y174143D01*
X57214Y174452D01*
X57664Y174836D01*
X58048Y175286D01*
X58357Y175790D01*
X58500Y176135D01*
G37*
G36*
X61500Y170944D02*Y176135D01*
X61643Y175790D01*
X61952Y175286D01*
X62336Y174836D01*
X62786Y174452D01*
X63290Y174143D01*
X63836Y173917D01*
X64411Y173779D01*
X65000Y173733D01*
X65589Y173779D01*
X66164Y173917D01*
X66710Y174143D01*
X67154Y174415D01*
X70328Y171242D01*
X70000Y171267D01*
X69411Y171221D01*
X68836Y171083D01*
X68290Y170857D01*
X67786Y170548D01*
X67336Y170164D01*
X66952Y169714D01*
X66643Y169210D01*
X66417Y168664D01*
X66279Y168089D01*
X66233Y167500D01*
X66279Y166911D01*
X66417Y166336D01*
X66504Y166125D01*
X65059Y164680D01*
X62481D01*
X62664Y164836D01*
X63048Y165286D01*
X63357Y165790D01*
X63583Y166336D01*
X63721Y166911D01*
X63756Y167500D01*
X63721Y168089D01*
X63583Y168664D01*
X63357Y169210D01*
X63048Y169714D01*
X62664Y170164D01*
X62214Y170548D01*
X61710Y170857D01*
X61500Y170944D01*
G37*
G36*
Y178865D02*Y178879D01*
X61504Y178875D01*
X61500Y178865D01*
G37*
G36*
X70578Y163778D02*X55949Y149149D01*
X55974Y149252D01*
X55992Y149487D01*
X55987Y149546D01*
Y161680D01*
X65621D01*
X65680Y161675D01*
X65915Y161694D01*
X65915Y161694D01*
X66145Y161749D01*
X66363Y161839D01*
X66564Y161963D01*
X66744Y162116D01*
X66782Y162161D01*
X68625Y164004D01*
X68836Y163917D01*
X69411Y163779D01*
X70000Y163733D01*
X70578Y163778D01*
G37*
G36*
X61375Y116504D02*X62923Y114956D01*
Y72361D01*
X62664Y72664D01*
X62214Y73048D01*
X61710Y73357D01*
X61164Y73583D01*
X60589Y73721D01*
X60000Y73767D01*
X59411Y73721D01*
X58836Y73583D01*
X58290Y73357D01*
X57786Y73048D01*
X57336Y72664D01*
X56952Y72214D01*
X56643Y71710D01*
X56417Y71164D01*
X56279Y70589D01*
X56233Y70000D01*
X56279Y69411D01*
X56417Y68836D01*
X56504Y68625D01*
X55034Y67155D01*
X52452D01*
X52664Y67336D01*
X53048Y67786D01*
X53357Y68290D01*
X53583Y68836D01*
X53721Y69411D01*
X53756Y70000D01*
X53721Y70589D01*
X53583Y71164D01*
X53496Y71375D01*
X56019Y73898D01*
X56064Y73936D01*
X56217Y74115D01*
X56217Y74116D01*
X56341Y74317D01*
X56431Y74535D01*
X56486Y74765D01*
X56505Y75000D01*
X56500Y75059D01*
Y118635D01*
X56643Y118290D01*
X56952Y117786D01*
X57336Y117336D01*
X57786Y116952D01*
X58290Y116643D01*
X58836Y116417D01*
X59411Y116279D01*
X60000Y116233D01*
X60589Y116279D01*
X61164Y116417D01*
X61375Y116504D01*
G37*
G36*
X17270Y4500D02*X16000D01*
Y94432D01*
X16005Y94501D01*
X16001Y94560D01*
Y145154D01*
X17270Y146423D01*
Y85835D01*
X17258Y85824D01*
X17212Y85761D01*
X16982Y85374D01*
X16791Y84966D01*
X16636Y84544D01*
X16519Y84109D01*
X16441Y83666D01*
X16402Y83217D01*
Y82767D01*
X16441Y82319D01*
X16519Y81875D01*
X16636Y81441D01*
X16791Y81018D01*
X16982Y80610D01*
X17208Y80221D01*
X17255Y80157D01*
X17270Y80143D01*
Y25902D01*
X17236Y25879D01*
X17180Y25824D01*
X17133Y25761D01*
X16903Y25374D01*
X16712Y24966D01*
X16558Y24544D01*
X16441Y24109D01*
X16362Y23666D01*
X16323Y23217D01*
Y22767D01*
X16362Y22319D01*
X16441Y21875D01*
X16558Y21441D01*
X16712Y21018D01*
X16903Y20610D01*
X17129Y20221D01*
X17177Y20157D01*
X17234Y20102D01*
X17270Y20077D01*
Y4500D01*
G37*
G36*
X22946D02*X17270D01*
Y20077D01*
X17299Y20057D01*
X17370Y20022D01*
X17446Y19999D01*
X17525Y19988D01*
X17604Y19990D01*
X17682Y20004D01*
X17757Y20030D01*
X17827Y20067D01*
X17890Y20115D01*
X17945Y20172D01*
X17991Y20238D01*
X18025Y20309D01*
X18048Y20385D01*
X18059Y20463D01*
X18058Y20543D01*
X18044Y20621D01*
X18018Y20696D01*
X17979Y20765D01*
X17794Y21076D01*
X17640Y21404D01*
X17516Y21744D01*
X17422Y22094D01*
X17358Y22450D01*
X17327Y22811D01*
Y23173D01*
X17358Y23534D01*
X17422Y23891D01*
X17516Y24240D01*
X17640Y24580D01*
X17794Y24908D01*
X17975Y25221D01*
X18014Y25290D01*
X18040Y25364D01*
X18054Y25442D01*
X18055Y25521D01*
X18044Y25599D01*
X18022Y25674D01*
X17987Y25745D01*
X17942Y25809D01*
X17888Y25866D01*
X17825Y25913D01*
X17756Y25951D01*
X17681Y25976D01*
X17604Y25990D01*
X17525Y25992D01*
X17447Y25981D01*
X17372Y25958D01*
X17301Y25924D01*
X17270Y25902D01*
Y80143D01*
X17313Y80102D01*
X17378Y80057D01*
X17449Y80022D01*
X17525Y79999D01*
X17604Y79988D01*
X17683Y79990D01*
X17761Y80004D01*
X17836Y80030D01*
X17906Y80067D01*
X17969Y80115D01*
X18024Y80172D01*
X18069Y80238D01*
X18104Y80309D01*
X18127Y80385D01*
X18138Y80463D01*
X18136Y80543D01*
X18122Y80621D01*
X18096Y80696D01*
X18058Y80765D01*
X17872Y81076D01*
X17719Y81404D01*
X17594Y81744D01*
X17500Y82094D01*
X17437Y82450D01*
X17406Y82811D01*
Y83173D01*
X17437Y83534D01*
X17500Y83891D01*
X17594Y84240D01*
X17719Y84580D01*
X17872Y84908D01*
X18054Y85221D01*
X18093Y85290D01*
X18118Y85364D01*
X18132Y85442D01*
X18134Y85521D01*
X18123Y85599D01*
X18100Y85674D01*
X18066Y85745D01*
X18021Y85809D01*
X17966Y85866D01*
X17904Y85913D01*
X17834Y85951D01*
X17760Y85976D01*
X17682Y85990D01*
X17604Y85992D01*
X17526Y85981D01*
X17450Y85958D01*
X17380Y85924D01*
X17315Y85879D01*
X17270Y85835D01*
Y146423D01*
X22946Y152100D01*
Y99542D01*
X22940Y99533D01*
X22569Y98896D01*
X22256Y98229D01*
X22003Y97538D01*
X21811Y96827D01*
X21683Y96102D01*
X21618Y95368D01*
Y94632D01*
X21683Y93898D01*
X21811Y93173D01*
X22003Y92462D01*
X22256Y91771D01*
X22569Y91104D01*
X22940Y90467D01*
X22946Y90458D01*
Y87929D01*
X22652Y88008D01*
X22209Y88087D01*
X21761Y88126D01*
X21310D01*
X20862Y88087D01*
X20419Y88008D01*
X19984Y87891D01*
X19561Y87737D01*
X19153Y87546D01*
X18764Y87320D01*
X18701Y87272D01*
X18646Y87215D01*
X18600Y87150D01*
X18566Y87079D01*
X18543Y87003D01*
X18532Y86924D01*
X18533Y86845D01*
X18547Y86767D01*
X18573Y86692D01*
X18611Y86622D01*
X18659Y86559D01*
X18716Y86504D01*
X18781Y86458D01*
X18852Y86424D01*
X18928Y86401D01*
X19007Y86390D01*
X19086Y86391D01*
X19164Y86405D01*
X19239Y86431D01*
X19308Y86470D01*
X19619Y86655D01*
X19947Y86809D01*
X20287Y86933D01*
X20637Y87027D01*
X20994Y87090D01*
X21354Y87122D01*
X21716D01*
X22077Y87090D01*
X22434Y87027D01*
X22784Y86933D01*
X22946Y86874D01*
Y79111D01*
X22784Y79051D01*
X22434Y78957D01*
X22077Y78894D01*
X21716Y78862D01*
X21354D01*
X20994Y78894D01*
X20637Y78957D01*
X20287Y79051D01*
X19947Y79176D01*
X19619Y79329D01*
X19306Y79511D01*
X19238Y79549D01*
X19163Y79575D01*
X19086Y79589D01*
X19007Y79591D01*
X18929Y79580D01*
X18854Y79557D01*
X18783Y79523D01*
X18718Y79478D01*
X18662Y79423D01*
X18614Y79360D01*
X18577Y79291D01*
X18551Y79217D01*
X18537Y79139D01*
X18536Y79060D01*
X18547Y78982D01*
X18569Y78907D01*
X18604Y78836D01*
X18649Y78772D01*
X18703Y78715D01*
X18767Y78669D01*
X19153Y78439D01*
X19561Y78248D01*
X19984Y78093D01*
X20419Y77976D01*
X20862Y77898D01*
X21310Y77858D01*
X21761D01*
X22209Y77898D01*
X22652Y77976D01*
X22946Y78055D01*
Y39542D01*
X22940Y39533D01*
X22569Y38896D01*
X22256Y38229D01*
X22003Y37538D01*
X21811Y36827D01*
X21683Y36102D01*
X21618Y35368D01*
Y34632D01*
X21683Y33898D01*
X21811Y33173D01*
X22003Y32462D01*
X22256Y31771D01*
X22569Y31104D01*
X22940Y30467D01*
X22946Y30458D01*
Y27908D01*
X22573Y28008D01*
X22130Y28087D01*
X21682Y28126D01*
X21232D01*
X20783Y28087D01*
X20340Y28008D01*
X19905Y27891D01*
X19482Y27737D01*
X19075Y27546D01*
X18685Y27320D01*
X18622Y27272D01*
X18567Y27215D01*
X18522Y27150D01*
X18487Y27079D01*
X18464Y27003D01*
X18453Y26924D01*
X18455Y26845D01*
X18469Y26767D01*
X18495Y26692D01*
X18532Y26622D01*
X18580Y26559D01*
X18637Y26504D01*
X18702Y26458D01*
X18774Y26424D01*
X18849Y26401D01*
X18928Y26390D01*
X19007Y26391D01*
X19085Y26405D01*
X19160Y26431D01*
X19229Y26470D01*
X19541Y26655D01*
X19868Y26809D01*
X20209Y26933D01*
X20558Y27027D01*
X20915Y27090D01*
X21276Y27122D01*
X21638D01*
X21999Y27090D01*
X22355Y27027D01*
X22705Y26933D01*
X22946Y26845D01*
Y19140D01*
X22705Y19051D01*
X22355Y18957D01*
X21999Y18894D01*
X21638Y18862D01*
X21276D01*
X20915Y18894D01*
X20558Y18957D01*
X20209Y19051D01*
X19868Y19176D01*
X19541Y19329D01*
X19227Y19511D01*
X19159Y19549D01*
X19084Y19575D01*
X19007Y19589D01*
X18928Y19591D01*
X18850Y19580D01*
X18775Y19557D01*
X18704Y19523D01*
X18640Y19478D01*
X18583Y19423D01*
X18535Y19360D01*
X18498Y19291D01*
X18472Y19217D01*
X18459Y19139D01*
X18457Y19060D01*
X18468Y18982D01*
X18491Y18907D01*
X18525Y18836D01*
X18570Y18772D01*
X18624Y18715D01*
X18688Y18669D01*
X19075Y18439D01*
X19482Y18248D01*
X19905Y18093D01*
X20340Y17976D01*
X20783Y17898D01*
X21232Y17858D01*
X21682D01*
X22130Y17898D01*
X22573Y17976D01*
X22946Y18077D01*
Y4500D01*
G37*
G36*
Y92832D02*X22795Y93393D01*
X22682Y94031D01*
X22625Y94676D01*
Y95324D01*
X22682Y95969D01*
X22795Y96607D01*
X22946Y97168D01*
Y92832D01*
G37*
G36*
Y32832D02*X22795Y33393D01*
X22682Y34031D01*
X22625Y34676D01*
Y35324D01*
X22682Y35969D01*
X22795Y36607D01*
X22946Y37168D01*
Y32832D01*
G37*
G36*
X25801Y4500D02*X22946D01*
Y18077D01*
X23008Y18093D01*
X23431Y18248D01*
X23839Y18439D01*
X24228Y18665D01*
X24292Y18712D01*
X24347Y18769D01*
X24392Y18834D01*
X24426Y18906D01*
X24449Y18982D01*
X24460Y19060D01*
X24459Y19140D01*
X24445Y19218D01*
X24419Y19293D01*
X24381Y19362D01*
X24334Y19426D01*
X24276Y19481D01*
X24211Y19526D01*
X24140Y19561D01*
X24064Y19584D01*
X23985Y19595D01*
X23906Y19593D01*
X23828Y19579D01*
X23753Y19553D01*
X23684Y19514D01*
X23373Y19329D01*
X23045Y19176D01*
X22946Y19140D01*
Y26845D01*
X23045Y26809D01*
X23373Y26655D01*
X23686Y26473D01*
X23755Y26435D01*
X23829Y26409D01*
X23906Y26395D01*
X23985Y26394D01*
X24063Y26404D01*
X24138Y26427D01*
X24209Y26462D01*
X24274Y26507D01*
X24331Y26561D01*
X24378Y26624D01*
X24415Y26693D01*
X24441Y26768D01*
X24455Y26845D01*
X24456Y26924D01*
X24446Y27002D01*
X24423Y27077D01*
X24388Y27148D01*
X24343Y27212D01*
X24289Y27269D01*
X24225Y27315D01*
X23839Y27546D01*
X23431Y27737D01*
X23008Y27891D01*
X22946Y27908D01*
Y30458D01*
X23364Y29866D01*
X23418Y29806D01*
X23480Y29756D01*
X23549Y29717D01*
X23624Y29688D01*
X23702Y29672D01*
X23782Y29668D01*
X23861Y29677D01*
X23938Y29698D01*
X24011Y29731D01*
X24078Y29774D01*
X24137Y29828D01*
X24187Y29890D01*
X24226Y29960D01*
X24255Y30034D01*
X24271Y30112D01*
X24275Y30192D01*
X24266Y30271D01*
X24245Y30348D01*
X24212Y30421D01*
X24167Y30487D01*
X23788Y31012D01*
X23462Y31572D01*
X23187Y32159D01*
X22964Y32767D01*
X22946Y32832D01*
Y37168D01*
X22964Y37233D01*
X23187Y37841D01*
X23462Y38428D01*
X23788Y38988D01*
X24162Y39517D01*
X24206Y39582D01*
X24238Y39654D01*
X24259Y39730D01*
X24268Y39808D01*
X24264Y39887D01*
X24248Y39964D01*
X24220Y40037D01*
X24181Y40106D01*
X24131Y40167D01*
X24073Y40220D01*
X24007Y40263D01*
X23936Y40295D01*
X23860Y40316D01*
X23781Y40325D01*
X23703Y40321D01*
X23626Y40305D01*
X23552Y40277D01*
X23484Y40238D01*
X23422Y40189D01*
X23371Y40129D01*
X22946Y39542D01*
Y78055D01*
X23087Y78093D01*
X23510Y78248D01*
X23917Y78439D01*
X24307Y78665D01*
X24370Y78712D01*
X24425Y78769D01*
X24471Y78834D01*
X24505Y78906D01*
X24528Y78982D01*
X24539Y79060D01*
X24538Y79140D01*
X24524Y79218D01*
X24498Y79293D01*
X24460Y79362D01*
X24412Y79426D01*
X24355Y79481D01*
X24290Y79526D01*
X24219Y79561D01*
X24143Y79584D01*
X24064Y79595D01*
X23985Y79593D01*
X23907Y79579D01*
X23832Y79553D01*
X23763Y79514D01*
X23452Y79329D01*
X23124Y79176D01*
X22946Y79111D01*
Y86874D01*
X23124Y86809D01*
X23452Y86655D01*
X23765Y86473D01*
X23833Y86435D01*
X23908Y86409D01*
X23985Y86395D01*
X24064Y86394D01*
X24142Y86404D01*
X24217Y86427D01*
X24288Y86462D01*
X24353Y86507D01*
X24409Y86561D01*
X24457Y86624D01*
X24494Y86693D01*
X24520Y86768D01*
X24534Y86845D01*
X24535Y86924D01*
X24524Y87002D01*
X24502Y87077D01*
X24467Y87148D01*
X24422Y87212D01*
X24368Y87269D01*
X24304Y87315D01*
X23917Y87546D01*
X23510Y87737D01*
X23087Y87891D01*
X22946Y87929D01*
Y90458D01*
X23364Y89866D01*
X23418Y89806D01*
X23480Y89756D01*
X23549Y89717D01*
X23624Y89688D01*
X23702Y89672D01*
X23782Y89668D01*
X23861Y89677D01*
X23938Y89698D01*
X24011Y89731D01*
X24078Y89774D01*
X24137Y89828D01*
X24187Y89890D01*
X24226Y89960D01*
X24255Y90034D01*
X24271Y90112D01*
X24275Y90192D01*
X24266Y90271D01*
X24245Y90348D01*
X24212Y90421D01*
X24167Y90487D01*
X23788Y91012D01*
X23462Y91572D01*
X23187Y92159D01*
X22964Y92767D01*
X22946Y92832D01*
Y97168D01*
X22964Y97233D01*
X23187Y97841D01*
X23462Y98428D01*
X23788Y98988D01*
X24162Y99517D01*
X24206Y99582D01*
X24238Y99654D01*
X24259Y99730D01*
X24268Y99808D01*
X24264Y99887D01*
X24248Y99964D01*
X24220Y100037D01*
X24181Y100106D01*
X24131Y100167D01*
X24073Y100220D01*
X24007Y100263D01*
X23936Y100295D01*
X23860Y100316D01*
X23781Y100325D01*
X23703Y100321D01*
X23626Y100305D01*
X23552Y100277D01*
X23484Y100238D01*
X23422Y100189D01*
X23371Y100129D01*
X22946Y99542D01*
Y152100D01*
X25801Y154955D01*
Y102254D01*
X25467Y102060D01*
X24866Y101636D01*
X24806Y101582D01*
X24756Y101520D01*
X24717Y101451D01*
X24688Y101376D01*
X24672Y101298D01*
X24668Y101218D01*
X24677Y101139D01*
X24698Y101062D01*
X24731Y100989D01*
X24774Y100922D01*
X24828Y100863D01*
X24890Y100813D01*
X24960Y100774D01*
X25034Y100745D01*
X25112Y100729D01*
X25192Y100725D01*
X25271Y100734D01*
X25348Y100755D01*
X25421Y100788D01*
X25487Y100833D01*
X25801Y101060D01*
Y88937D01*
X25483Y89162D01*
X25418Y89206D01*
X25346Y89238D01*
X25270Y89259D01*
X25192Y89268D01*
X25113Y89264D01*
X25036Y89248D01*
X24963Y89220D01*
X24894Y89181D01*
X24833Y89131D01*
X24780Y89073D01*
X24737Y89007D01*
X24705Y88936D01*
X24684Y88860D01*
X24675Y88781D01*
X24679Y88703D01*
X24695Y88626D01*
X24723Y88552D01*
X24762Y88484D01*
X24811Y88422D01*
X24871Y88371D01*
X25467Y87940D01*
X25801Y87746D01*
Y85841D01*
X25758Y85882D01*
X25693Y85927D01*
X25622Y85962D01*
X25546Y85985D01*
X25467Y85996D01*
X25388Y85994D01*
X25310Y85980D01*
X25235Y85954D01*
X25165Y85917D01*
X25102Y85869D01*
X25047Y85812D01*
X25002Y85747D01*
X24967Y85675D01*
X24944Y85599D01*
X24933Y85521D01*
X24935Y85441D01*
X24949Y85363D01*
X24975Y85288D01*
X25013Y85219D01*
X25198Y84908D01*
X25352Y84580D01*
X25476Y84240D01*
X25570Y83891D01*
X25634Y83534D01*
X25665Y83173D01*
Y82811D01*
X25634Y82450D01*
X25570Y82094D01*
X25476Y81744D01*
X25352Y81404D01*
X25198Y81076D01*
X25017Y80763D01*
X24978Y80694D01*
X24952Y80620D01*
X24939Y80542D01*
X24937Y80464D01*
X24948Y80386D01*
X24971Y80310D01*
X25005Y80240D01*
X25050Y80175D01*
X25104Y80118D01*
X25167Y80071D01*
X25237Y80034D01*
X25311Y80008D01*
X25388Y79994D01*
X25467Y79992D01*
X25545Y80003D01*
X25620Y80026D01*
X25691Y80060D01*
X25756Y80105D01*
X25801Y80149D01*
Y42254D01*
X25467Y42060D01*
X24866Y41636D01*
X24806Y41582D01*
X24756Y41520D01*
X24717Y41451D01*
X24688Y41376D01*
X24672Y41298D01*
X24668Y41218D01*
X24677Y41139D01*
X24698Y41062D01*
X24731Y40989D01*
X24774Y40922D01*
X24828Y40863D01*
X24890Y40813D01*
X24960Y40774D01*
X25034Y40745D01*
X25112Y40729D01*
X25192Y40725D01*
X25271Y40734D01*
X25348Y40755D01*
X25421Y40788D01*
X25487Y40833D01*
X25801Y41060D01*
Y28937D01*
X25483Y29162D01*
X25418Y29206D01*
X25346Y29238D01*
X25270Y29259D01*
X25192Y29268D01*
X25113Y29264D01*
X25036Y29248D01*
X24963Y29220D01*
X24894Y29181D01*
X24833Y29131D01*
X24780Y29073D01*
X24737Y29007D01*
X24705Y28936D01*
X24684Y28860D01*
X24675Y28781D01*
X24679Y28703D01*
X24695Y28626D01*
X24723Y28552D01*
X24762Y28484D01*
X24811Y28422D01*
X24871Y28371D01*
X25467Y27940D01*
X25801Y27746D01*
Y25734D01*
X25784Y25763D01*
X25737Y25827D01*
X25680Y25882D01*
X25614Y25927D01*
X25543Y25962D01*
X25467Y25985D01*
X25389Y25996D01*
X25309Y25994D01*
X25231Y25980D01*
X25156Y25954D01*
X25086Y25917D01*
X25023Y25869D01*
X24968Y25812D01*
X24923Y25747D01*
X24888Y25675D01*
X24865Y25599D01*
X24854Y25521D01*
X24856Y25441D01*
X24870Y25363D01*
X24896Y25288D01*
X24935Y25219D01*
X25120Y24908D01*
X25273Y24580D01*
X25398Y24240D01*
X25492Y23891D01*
X25555Y23534D01*
X25587Y23173D01*
Y22811D01*
X25555Y22450D01*
X25492Y22094D01*
X25398Y21744D01*
X25273Y21404D01*
X25120Y21076D01*
X24938Y20763D01*
X24899Y20694D01*
X24874Y20620D01*
X24860Y20542D01*
X24858Y20464D01*
X24869Y20386D01*
X24892Y20310D01*
X24926Y20240D01*
X24971Y20175D01*
X25026Y20118D01*
X25088Y20071D01*
X25158Y20034D01*
X25232Y20008D01*
X25310Y19994D01*
X25388Y19992D01*
X25466Y20003D01*
X25542Y20026D01*
X25612Y20060D01*
X25677Y20105D01*
X25734Y20160D01*
X25780Y20223D01*
X25801Y20259D01*
Y4500D01*
G37*
G36*
X30004D02*X25801D01*
Y20259D01*
X26010Y20610D01*
X26201Y21018D01*
X26356Y21441D01*
X26473Y21875D01*
X26551Y22319D01*
X26591Y22767D01*
Y23217D01*
X26551Y23666D01*
X26473Y24109D01*
X26356Y24544D01*
X26201Y24966D01*
X26010Y25374D01*
X25801Y25734D01*
Y27746D01*
X26104Y27569D01*
X26771Y27256D01*
X27462Y27003D01*
X28173Y26811D01*
X28898Y26683D01*
X29632Y26618D01*
X30004D01*
Y4500D01*
G37*
G36*
X25801Y154955D02*X30004Y159157D01*
Y138900D01*
X29712Y138609D01*
X29668Y138570D01*
X29514Y138391D01*
X29391Y138189D01*
X29301Y137971D01*
X29245Y137742D01*
X29245Y137741D01*
X29227Y137506D01*
X29231Y137448D01*
Y123269D01*
X29227Y123210D01*
X29245Y122975D01*
X29245Y122975D01*
X29245Y122975D01*
Y122975D01*
X29254Y122938D01*
X29301Y122745D01*
X29391Y122527D01*
X29514Y122326D01*
X29514Y122326D01*
X29514Y122326D01*
X29514Y122326D01*
X29668Y122146D01*
X29712Y122108D01*
X30004Y121817D01*
Y103382D01*
X29632D01*
X28898Y103317D01*
X28173Y103189D01*
X27462Y102997D01*
X26771Y102744D01*
X26104Y102431D01*
X25801Y102254D01*
Y154955D01*
G37*
G36*
Y101060D02*X26012Y101212D01*
X26572Y101538D01*
X27159Y101813D01*
X27767Y102036D01*
X28393Y102205D01*
X29031Y102318D01*
X29676Y102375D01*
X30004D01*
Y87625D01*
X29676D01*
X29031Y87682D01*
X28393Y87795D01*
X27767Y87964D01*
X27159Y88187D01*
X26572Y88462D01*
X26012Y88788D01*
X25801Y88937D01*
Y101060D01*
G37*
G36*
Y87746D02*X26104Y87569D01*
X26771Y87256D01*
X27462Y87003D01*
X28173Y86811D01*
X28898Y86683D01*
X29632Y86618D01*
X30004D01*
Y43382D01*
X29632D01*
X28898Y43317D01*
X28173Y43189D01*
X27462Y42997D01*
X26771Y42744D01*
X26104Y42431D01*
X25801Y42254D01*
Y80149D01*
X25813Y80160D01*
X25859Y80223D01*
X26089Y80610D01*
X26280Y81018D01*
X26434Y81441D01*
X26551Y81875D01*
X26630Y82319D01*
X26669Y82767D01*
Y83217D01*
X26630Y83666D01*
X26551Y84109D01*
X26434Y84544D01*
X26280Y84966D01*
X26089Y85374D01*
X25863Y85763D01*
X25816Y85827D01*
X25801Y85841D01*
Y87746D01*
G37*
G36*
Y41060D02*X26012Y41212D01*
X26572Y41538D01*
X27159Y41813D01*
X27767Y42036D01*
X28393Y42205D01*
X29031Y42318D01*
X29676Y42375D01*
X30004D01*
Y27625D01*
X29676D01*
X29031Y27682D01*
X28393Y27795D01*
X27767Y27964D01*
X27159Y28187D01*
X26572Y28462D01*
X26012Y28788D01*
X25801Y28937D01*
Y41060D01*
G37*
G36*
X37054Y4500D02*X30004D01*
Y26618D01*
X30368D01*
X31102Y26683D01*
X31827Y26811D01*
X32538Y27003D01*
X33229Y27256D01*
X33896Y27569D01*
X34533Y27940D01*
X35134Y28364D01*
X35194Y28418D01*
X35244Y28480D01*
X35283Y28549D01*
X35312Y28624D01*
X35328Y28702D01*
X35332Y28782D01*
X35323Y28861D01*
X35302Y28938D01*
X35269Y29011D01*
X35226Y29078D01*
X35172Y29137D01*
X35110Y29187D01*
X35040Y29226D01*
X34966Y29255D01*
X34888Y29271D01*
X34808Y29275D01*
X34729Y29266D01*
X34652Y29245D01*
X34579Y29212D01*
X34513Y29167D01*
X33988Y28788D01*
X33428Y28462D01*
X32841Y28187D01*
X32233Y27964D01*
X31607Y27795D01*
X30969Y27682D01*
X30324Y27625D01*
X30004D01*
Y42375D01*
X30324D01*
X30969Y42318D01*
X31607Y42205D01*
X32233Y42036D01*
X32841Y41813D01*
X33428Y41538D01*
X33988Y41212D01*
X34517Y40838D01*
X34582Y40794D01*
X34654Y40762D01*
X34730Y40741D01*
X34808Y40732D01*
X34887Y40736D01*
X34964Y40752D01*
X35037Y40780D01*
X35106Y40819D01*
X35167Y40869D01*
X35220Y40927D01*
X35263Y40993D01*
X35295Y41064D01*
X35316Y41140D01*
X35325Y41219D01*
X35321Y41297D01*
X35305Y41374D01*
X35277Y41448D01*
X35238Y41516D01*
X35189Y41578D01*
X35129Y41629D01*
X34533Y42060D01*
X33896Y42431D01*
X33229Y42744D01*
X32538Y42997D01*
X31827Y43189D01*
X31102Y43317D01*
X30368Y43382D01*
X30004D01*
Y86618D01*
X30368D01*
X31102Y86683D01*
X31827Y86811D01*
X32538Y87003D01*
X33229Y87256D01*
X33896Y87569D01*
X34533Y87940D01*
X35134Y88364D01*
X35194Y88418D01*
X35244Y88480D01*
X35283Y88549D01*
X35312Y88624D01*
X35328Y88702D01*
X35332Y88782D01*
X35323Y88861D01*
X35302Y88938D01*
X35269Y89011D01*
X35226Y89078D01*
X35172Y89137D01*
X35110Y89187D01*
X35040Y89226D01*
X34966Y89255D01*
X34888Y89271D01*
X34808Y89275D01*
X34729Y89266D01*
X34652Y89245D01*
X34579Y89212D01*
X34513Y89167D01*
X33988Y88788D01*
X33428Y88462D01*
X32841Y88187D01*
X32233Y87964D01*
X31607Y87795D01*
X30969Y87682D01*
X30324Y87625D01*
X30004D01*
Y102375D01*
X30324D01*
X30969Y102318D01*
X31607Y102205D01*
X32233Y102036D01*
X32841Y101813D01*
X33428Y101538D01*
X33988Y101212D01*
X34517Y100838D01*
X34582Y100794D01*
X34654Y100762D01*
X34730Y100741D01*
X34808Y100732D01*
X34887Y100736D01*
X34964Y100752D01*
X35037Y100780D01*
X35106Y100819D01*
X35167Y100869D01*
X35220Y100927D01*
X35263Y100993D01*
X35295Y101064D01*
X35316Y101140D01*
X35325Y101219D01*
X35321Y101297D01*
X35305Y101374D01*
X35277Y101448D01*
X35238Y101516D01*
X35189Y101578D01*
X35129Y101629D01*
X34533Y102060D01*
X33896Y102431D01*
X33229Y102744D01*
X32538Y102997D01*
X31827Y103189D01*
X31102Y103317D01*
X30368Y103382D01*
X30004D01*
Y121817D01*
X37054Y114767D01*
Y99542D01*
X36636Y100134D01*
X36582Y100194D01*
X36520Y100244D01*
X36451Y100283D01*
X36376Y100312D01*
X36298Y100328D01*
X36218Y100332D01*
X36139Y100323D01*
X36062Y100302D01*
X35989Y100269D01*
X35922Y100226D01*
X35863Y100172D01*
X35813Y100110D01*
X35774Y100040D01*
X35745Y99966D01*
X35729Y99888D01*
X35725Y99808D01*
X35734Y99729D01*
X35755Y99652D01*
X35788Y99579D01*
X35833Y99513D01*
X36212Y98988D01*
X36538Y98428D01*
X36813Y97841D01*
X37036Y97233D01*
X37054Y97168D01*
Y92832D01*
X37036Y92767D01*
X36813Y92159D01*
X36538Y91572D01*
X36212Y91012D01*
X35838Y90483D01*
X35794Y90418D01*
X35762Y90346D01*
X35741Y90270D01*
X35732Y90192D01*
X35736Y90113D01*
X35752Y90036D01*
X35780Y89963D01*
X35819Y89894D01*
X35869Y89833D01*
X35927Y89780D01*
X35993Y89737D01*
X36064Y89705D01*
X36140Y89684D01*
X36219Y89675D01*
X36297Y89679D01*
X36374Y89695D01*
X36448Y89723D01*
X36516Y89762D01*
X36578Y89811D01*
X36629Y89871D01*
X37054Y90458D01*
Y82873D01*
X33981Y79800D01*
X33936Y79762D01*
X33783Y79582D01*
X33659Y79381D01*
X33569Y79163D01*
X33514Y78933D01*
X33514Y78933D01*
X33495Y78698D01*
X33500Y78639D01*
Y63444D01*
X33290Y63357D01*
X32786Y63048D01*
X32336Y62664D01*
X31952Y62214D01*
X31643Y61710D01*
X31417Y61164D01*
X31279Y60589D01*
X31233Y60000D01*
X31279Y59411D01*
X31417Y58836D01*
X31643Y58290D01*
X31952Y57786D01*
X32336Y57336D01*
X32786Y56952D01*
X33290Y56643D01*
X33836Y56417D01*
X34411Y56279D01*
X35000Y56233D01*
X35589Y56279D01*
X36164Y56417D01*
X36710Y56643D01*
X37054Y56853D01*
Y39542D01*
X36636Y40134D01*
X36582Y40194D01*
X36520Y40244D01*
X36451Y40283D01*
X36376Y40312D01*
X36298Y40328D01*
X36218Y40332D01*
X36139Y40323D01*
X36062Y40302D01*
X35989Y40269D01*
X35922Y40226D01*
X35863Y40172D01*
X35813Y40110D01*
X35774Y40040D01*
X35745Y39966D01*
X35729Y39888D01*
X35725Y39808D01*
X35734Y39729D01*
X35755Y39652D01*
X35788Y39579D01*
X35833Y39513D01*
X36212Y38988D01*
X36538Y38428D01*
X36813Y37841D01*
X37036Y37233D01*
X37054Y37168D01*
Y32832D01*
X37036Y32767D01*
X36813Y32159D01*
X36538Y31572D01*
X36212Y31012D01*
X35838Y30483D01*
X35794Y30418D01*
X35762Y30346D01*
X35741Y30270D01*
X35732Y30192D01*
X35736Y30113D01*
X35752Y30036D01*
X35780Y29963D01*
X35819Y29894D01*
X35869Y29833D01*
X35927Y29780D01*
X35993Y29737D01*
X36064Y29705D01*
X36140Y29684D01*
X36219Y29675D01*
X36297Y29679D01*
X36374Y29695D01*
X36448Y29723D01*
X36516Y29762D01*
X36578Y29811D01*
X36629Y29871D01*
X37054Y30458D01*
Y4500D01*
G37*
G36*
Y63147D02*X36710Y63357D01*
X36500Y63444D01*
Y68635D01*
X36643Y68290D01*
X36952Y67786D01*
X37054Y67667D01*
Y63147D01*
G37*
G36*
X60873Y66347D02*X58981Y64455D01*
X58936Y64416D01*
X58783Y64237D01*
X58659Y64035D01*
X58569Y63817D01*
X58514Y63588D01*
X58514Y63587D01*
X58495Y63352D01*
X58500Y63294D01*
Y61365D01*
X58357Y61710D01*
X58048Y62214D01*
X57664Y62664D01*
X57214Y63048D01*
X56710Y63357D01*
X56164Y63583D01*
X55589Y63721D01*
X55000Y63767D01*
X54411Y63721D01*
X53836Y63583D01*
X53290Y63357D01*
X52786Y63048D01*
X52336Y62664D01*
X51952Y62214D01*
X51643Y61710D01*
X51417Y61164D01*
X51279Y60589D01*
X51233Y60000D01*
X51279Y59411D01*
X51417Y58836D01*
X51643Y58290D01*
X51952Y57786D01*
X52336Y57336D01*
X52621Y57093D01*
X50029D01*
X48496Y58625D01*
X48583Y58836D01*
X48721Y59411D01*
X48756Y60000D01*
X48721Y60589D01*
X48583Y61164D01*
X48357Y61710D01*
X48048Y62214D01*
X47664Y62664D01*
X47214Y63048D01*
X46710Y63357D01*
X46164Y63583D01*
X45589Y63721D01*
X45000Y63767D01*
X44411Y63721D01*
X43836Y63583D01*
X43290Y63357D01*
X42786Y63048D01*
X42336Y62664D01*
X41952Y62214D01*
X41643Y61710D01*
X41417Y61164D01*
X41279Y60589D01*
X41233Y60000D01*
X41279Y59411D01*
X41417Y58836D01*
X41643Y58290D01*
X41952Y57786D01*
X42336Y57336D01*
X42786Y56952D01*
X43290Y56643D01*
X43836Y56417D01*
X44411Y56279D01*
X45000Y56233D01*
X45589Y56279D01*
X46164Y56417D01*
X46375Y56504D01*
X48305Y54573D01*
X48344Y54529D01*
X48523Y54375D01*
X48523Y54375D01*
X48724Y54252D01*
X48943Y54162D01*
X49172Y54106D01*
X49407Y54088D01*
X49466Y54093D01*
X56744D01*
X56803Y54088D01*
X57038Y54106D01*
X57038Y54106D01*
X57038Y54106D01*
X57038D01*
X57075Y54115D01*
X57268Y54162D01*
X57268Y54162D01*
X57292Y54172D01*
X57486Y54252D01*
X57687Y54375D01*
X57687Y54375D01*
X57687Y54375D01*
X57687Y54375D01*
X57867Y54529D01*
X57905Y54574D01*
X61019Y57688D01*
X61064Y57726D01*
X61217Y57906D01*
X61217Y57906D01*
X61217Y57906D01*
X61279Y58006D01*
X61341Y58107D01*
X61341Y58107D01*
X61341Y58107D01*
X61378Y58197D01*
X61431Y58325D01*
X61431Y58325D01*
X61431Y58325D01*
X61475Y58507D01*
X61486Y58555D01*
Y58555D01*
X61486Y58555D01*
X61494Y58650D01*
X61643Y58290D01*
X61952Y57786D01*
X62336Y57336D01*
X62786Y56952D01*
X63290Y56643D01*
X63836Y56417D01*
X64411Y56279D01*
X65000Y56233D01*
X65589Y56279D01*
X66164Y56417D01*
X66710Y56643D01*
X67214Y56952D01*
X67664Y57336D01*
X67946Y57667D01*
Y39542D01*
X67940Y39533D01*
X67569Y38896D01*
X67256Y38229D01*
X67003Y37538D01*
X66811Y36827D01*
X66683Y36102D01*
X66618Y35368D01*
Y34632D01*
X66683Y33898D01*
X66811Y33173D01*
X67003Y32462D01*
X67256Y31771D01*
X67569Y31104D01*
X67940Y30467D01*
X67946Y30458D01*
Y4500D01*
X37054D01*
Y30458D01*
X37060Y30467D01*
X37431Y31104D01*
X37744Y31771D01*
X37997Y32462D01*
X38189Y33173D01*
X38317Y33898D01*
X38382Y34632D01*
Y35368D01*
X38317Y36102D01*
X38189Y36827D01*
X37997Y37538D01*
X37744Y38229D01*
X37431Y38896D01*
X37060Y39533D01*
X37054Y39542D01*
Y56853D01*
X37214Y56952D01*
X37664Y57336D01*
X38048Y57786D01*
X38357Y58290D01*
X38583Y58836D01*
X38721Y59411D01*
X38756Y60000D01*
X38721Y60589D01*
X38583Y61164D01*
X38357Y61710D01*
X38048Y62214D01*
X37664Y62664D01*
X37214Y63048D01*
X37054Y63147D01*
Y67667D01*
X37336Y67336D01*
X37786Y66952D01*
X38290Y66643D01*
X38836Y66417D01*
X39411Y66279D01*
X40000Y66233D01*
X40589Y66279D01*
X41164Y66417D01*
X41710Y66643D01*
X42214Y66952D01*
X42664Y67336D01*
X43048Y67786D01*
X43357Y68290D01*
X43510Y68660D01*
X43514Y68614D01*
X43569Y68384D01*
X43659Y68166D01*
X43783Y67965D01*
X43936Y67785D01*
X43981Y67747D01*
X47092Y64636D01*
X47130Y64591D01*
X47310Y64438D01*
X47511Y64314D01*
X47729Y64224D01*
X47959Y64169D01*
X48194Y64150D01*
X48253Y64155D01*
X55596D01*
X55655Y64150D01*
X55890Y64169D01*
X55890Y64169D01*
X56120Y64224D01*
X56338Y64314D01*
X56540Y64438D01*
X56719Y64591D01*
X56757Y64636D01*
X58625Y66504D01*
X58836Y66417D01*
X59411Y66279D01*
X60000Y66233D01*
X60589Y66279D01*
X60873Y66347D01*
G37*
G36*
X37054Y114767D02*X37593Y114228D01*
Y98551D01*
X37431Y98896D01*
X37060Y99533D01*
X37054Y99542D01*
Y114767D01*
G37*
G36*
Y97168D02*X37205Y96607D01*
X37318Y95969D01*
X37375Y95324D01*
Y94676D01*
X37318Y94031D01*
X37205Y93393D01*
X37054Y92832D01*
Y97168D01*
G37*
G36*
Y90458D02*X37060Y90467D01*
X37431Y91104D01*
X37593Y91449D01*
Y83412D01*
X37054Y82873D01*
Y90458D01*
G37*
G36*
Y37168D02*X37205Y36607D01*
X37318Y35969D01*
X37375Y35324D01*
Y34676D01*
X37318Y34031D01*
X37205Y33393D01*
X37054Y32832D01*
Y37168D01*
G37*
G36*
X67946Y62333D02*X67664Y62664D01*
X67214Y63048D01*
X66710Y63357D01*
X66164Y63583D01*
X65589Y63721D01*
X65000Y63767D01*
X64411Y63721D01*
X63836Y63583D01*
X63290Y63357D01*
X62786Y63048D01*
X62336Y62664D01*
X61952Y62214D01*
X61643Y61710D01*
X61500Y61365D01*
Y62731D01*
X65442Y66673D01*
X65487Y66711D01*
X65640Y66891D01*
X65640Y66891D01*
X65763Y67092D01*
X65854Y67310D01*
X65909Y67540D01*
X65927Y67775D01*
X65923Y67834D01*
Y115518D01*
X65927Y115577D01*
X65909Y115812D01*
X65909Y115813D01*
X65854Y116042D01*
X65763Y116260D01*
X65640Y116462D01*
X65487Y116641D01*
X65442Y116679D01*
X63496Y118625D01*
X63583Y118836D01*
X63721Y119411D01*
X63756Y120000D01*
X63721Y120589D01*
X63583Y121164D01*
X63357Y121710D01*
X63048Y122214D01*
X62664Y122664D01*
X62214Y123048D01*
X61710Y123357D01*
X61164Y123583D01*
X60589Y123721D01*
X60000Y123767D01*
X59411Y123721D01*
X58836Y123583D01*
X58290Y123357D01*
X57786Y123048D01*
X57336Y122664D01*
X56952Y122214D01*
X56643Y121710D01*
X56500Y121365D01*
Y126556D01*
X56710Y126643D01*
X57214Y126952D01*
X57664Y127336D01*
X58048Y127786D01*
X58357Y128290D01*
X58583Y128836D01*
X58721Y129411D01*
X58756Y130000D01*
X58721Y130589D01*
X58583Y131164D01*
X58496Y131375D01*
X59924Y132802D01*
X62498D01*
X62336Y132664D01*
X61952Y132214D01*
X61643Y131710D01*
X61417Y131164D01*
X61279Y130589D01*
X61233Y130000D01*
X61279Y129411D01*
X61417Y128836D01*
X61643Y128290D01*
X61952Y127786D01*
X62336Y127336D01*
X62786Y126952D01*
X63290Y126643D01*
X63836Y126417D01*
X64411Y126279D01*
X65000Y126233D01*
X65589Y126279D01*
X66164Y126417D01*
X66710Y126643D01*
X67050Y126851D01*
X67946Y125954D01*
Y123147D01*
X67786Y123048D01*
X67336Y122664D01*
X66952Y122214D01*
X66643Y121710D01*
X66417Y121164D01*
X66279Y120589D01*
X66233Y120000D01*
X66279Y119411D01*
X66417Y118836D01*
X66643Y118290D01*
X66952Y117786D01*
X67336Y117336D01*
X67786Y116952D01*
X67946Y116853D01*
Y99542D01*
X67940Y99533D01*
X67569Y98896D01*
X67256Y98229D01*
X67003Y97538D01*
X66811Y96827D01*
X66683Y96102D01*
X66618Y95368D01*
Y94632D01*
X66683Y93898D01*
X66811Y93173D01*
X67003Y92462D01*
X67256Y91771D01*
X67569Y91104D01*
X67940Y90467D01*
X67946Y90458D01*
Y73147D01*
X67786Y73048D01*
X67336Y72664D01*
X66952Y72214D01*
X66643Y71710D01*
X66417Y71164D01*
X66279Y70589D01*
X66233Y70000D01*
X66279Y69411D01*
X66417Y68836D01*
X66643Y68290D01*
X66952Y67786D01*
X67336Y67336D01*
X67786Y66952D01*
X67946Y66853D01*
Y62333D01*
G37*
G36*
Y92832D02*X67795Y93393D01*
X67682Y94031D01*
X67625Y94676D01*
Y95324D01*
X67682Y95969D01*
X67795Y96607D01*
X67946Y97168D01*
Y92832D01*
G37*
G36*
Y32832D02*X67795Y33393D01*
X67682Y34031D01*
X67625Y34676D01*
Y35324D01*
X67682Y35969D01*
X67795Y36607D01*
X67946Y37168D01*
Y32832D01*
G37*
G36*
Y57667D02*X68048Y57786D01*
X68357Y58290D01*
X68583Y58836D01*
X68721Y59411D01*
X68756Y60000D01*
X68721Y60589D01*
X68583Y61164D01*
X68357Y61710D01*
X68048Y62214D01*
X67946Y62333D01*
Y66853D01*
X68290Y66643D01*
X68836Y66417D01*
X69411Y66279D01*
X70000Y66233D01*
X70589Y66279D01*
X71164Y66417D01*
X71710Y66643D01*
X72214Y66952D01*
X72664Y67336D01*
X73048Y67786D01*
X73357Y68290D01*
X73583Y68836D01*
X73721Y69411D01*
X73756Y70000D01*
X73721Y70589D01*
X73583Y71164D01*
X73357Y71710D01*
X73048Y72214D01*
X72664Y72664D01*
X72214Y73048D01*
X71710Y73357D01*
X71164Y73583D01*
X70589Y73721D01*
X70000Y73767D01*
X69411Y73721D01*
X68836Y73583D01*
X68290Y73357D01*
X67946Y73147D01*
Y90458D01*
X68364Y89866D01*
X68418Y89806D01*
X68480Y89756D01*
X68549Y89717D01*
X68624Y89688D01*
X68702Y89672D01*
X68782Y89668D01*
X68861Y89677D01*
X68938Y89698D01*
X69011Y89731D01*
X69078Y89774D01*
X69137Y89828D01*
X69187Y89890D01*
X69226Y89960D01*
X69255Y90034D01*
X69271Y90112D01*
X69275Y90192D01*
X69266Y90271D01*
X69245Y90348D01*
X69212Y90421D01*
X69167Y90487D01*
X68788Y91012D01*
X68462Y91572D01*
X68187Y92159D01*
X67964Y92767D01*
X67946Y92832D01*
Y97168D01*
X67964Y97233D01*
X68187Y97841D01*
X68462Y98428D01*
X68788Y98988D01*
X69162Y99517D01*
X69206Y99582D01*
X69238Y99654D01*
X69259Y99730D01*
X69268Y99808D01*
X69264Y99887D01*
X69248Y99964D01*
X69220Y100037D01*
X69181Y100106D01*
X69131Y100167D01*
X69073Y100220D01*
X69007Y100263D01*
X68936Y100295D01*
X68860Y100316D01*
X68781Y100325D01*
X68703Y100321D01*
X68626Y100305D01*
X68552Y100277D01*
X68484Y100238D01*
X68422Y100189D01*
X68371Y100129D01*
X67946Y99542D01*
Y116853D01*
X68290Y116643D01*
X68836Y116417D01*
X69411Y116279D01*
X70000Y116233D01*
X70020Y116234D01*
X75004Y111250D01*
Y103382D01*
X74632D01*
X73898Y103317D01*
X73173Y103189D01*
X72462Y102997D01*
X71771Y102744D01*
X71104Y102431D01*
X70467Y102060D01*
X69866Y101636D01*
X69806Y101582D01*
X69756Y101520D01*
X69717Y101451D01*
X69688Y101376D01*
X69672Y101298D01*
X69668Y101218D01*
X69677Y101139D01*
X69698Y101062D01*
X69731Y100989D01*
X69774Y100922D01*
X69828Y100863D01*
X69890Y100813D01*
X69960Y100774D01*
X70034Y100745D01*
X70112Y100729D01*
X70192Y100725D01*
X70271Y100734D01*
X70348Y100755D01*
X70421Y100788D01*
X70487Y100833D01*
X71012Y101212D01*
X71572Y101538D01*
X72159Y101813D01*
X72767Y102036D01*
X73393Y102205D01*
X74031Y102318D01*
X74676Y102375D01*
X75004D01*
Y87625D01*
X74676D01*
X74031Y87682D01*
X73393Y87795D01*
X72767Y87964D01*
X72159Y88187D01*
X71572Y88462D01*
X71012Y88788D01*
X70483Y89162D01*
X70418Y89206D01*
X70346Y89238D01*
X70270Y89259D01*
X70192Y89268D01*
X70113Y89264D01*
X70036Y89248D01*
X69963Y89220D01*
X69894Y89181D01*
X69833Y89131D01*
X69780Y89073D01*
X69737Y89007D01*
X69705Y88936D01*
X69684Y88860D01*
X69675Y88781D01*
X69679Y88703D01*
X69695Y88626D01*
X69723Y88552D01*
X69762Y88484D01*
X69811Y88422D01*
X69871Y88371D01*
X70467Y87940D01*
X71104Y87569D01*
X71771Y87256D01*
X72462Y87003D01*
X73173Y86811D01*
X73898Y86683D01*
X74632Y86618D01*
X75004D01*
Y43382D01*
X74632D01*
X73898Y43317D01*
X73173Y43189D01*
X72462Y42997D01*
X71771Y42744D01*
X71104Y42431D01*
X70467Y42060D01*
X69866Y41636D01*
X69806Y41582D01*
X69756Y41520D01*
X69717Y41451D01*
X69688Y41376D01*
X69672Y41298D01*
X69668Y41218D01*
X69677Y41139D01*
X69698Y41062D01*
X69731Y40989D01*
X69774Y40922D01*
X69828Y40863D01*
X69890Y40813D01*
X69960Y40774D01*
X70034Y40745D01*
X70112Y40729D01*
X70192Y40725D01*
X70271Y40734D01*
X70348Y40755D01*
X70421Y40788D01*
X70487Y40833D01*
X71012Y41212D01*
X71572Y41538D01*
X72159Y41813D01*
X72767Y42036D01*
X73393Y42205D01*
X74031Y42318D01*
X74676Y42375D01*
X75004D01*
Y27625D01*
X74676D01*
X74031Y27682D01*
X73393Y27795D01*
X72767Y27964D01*
X72159Y28187D01*
X71572Y28462D01*
X71012Y28788D01*
X70483Y29162D01*
X70418Y29206D01*
X70346Y29238D01*
X70270Y29259D01*
X70192Y29268D01*
X70113Y29264D01*
X70036Y29248D01*
X69963Y29220D01*
X69894Y29181D01*
X69833Y29131D01*
X69780Y29073D01*
X69737Y29007D01*
X69705Y28936D01*
X69684Y28860D01*
X69675Y28781D01*
X69679Y28703D01*
X69695Y28626D01*
X69723Y28552D01*
X69762Y28484D01*
X69811Y28422D01*
X69871Y28371D01*
X70467Y27940D01*
X71104Y27569D01*
X71771Y27256D01*
X72462Y27003D01*
X73173Y26811D01*
X73898Y26683D01*
X74632Y26618D01*
X75004D01*
Y4500D01*
X67946D01*
Y30458D01*
X68364Y29866D01*
X68418Y29806D01*
X68480Y29756D01*
X68549Y29717D01*
X68624Y29688D01*
X68702Y29672D01*
X68782Y29668D01*
X68861Y29677D01*
X68938Y29698D01*
X69011Y29731D01*
X69078Y29774D01*
X69137Y29828D01*
X69187Y29890D01*
X69226Y29960D01*
X69255Y30034D01*
X69271Y30112D01*
X69275Y30192D01*
X69266Y30271D01*
X69245Y30348D01*
X69212Y30421D01*
X69167Y30487D01*
X68788Y31012D01*
X68462Y31572D01*
X68187Y32159D01*
X67964Y32767D01*
X67946Y32832D01*
Y37168D01*
X67964Y37233D01*
X68187Y37841D01*
X68462Y38428D01*
X68788Y38988D01*
X69162Y39517D01*
X69206Y39582D01*
X69238Y39654D01*
X69259Y39730D01*
X69268Y39808D01*
X69264Y39887D01*
X69248Y39964D01*
X69220Y40037D01*
X69181Y40106D01*
X69131Y40167D01*
X69073Y40220D01*
X69007Y40263D01*
X68936Y40295D01*
X68860Y40316D01*
X68781Y40325D01*
X68703Y40321D01*
X68626Y40305D01*
X68552Y40277D01*
X68484Y40238D01*
X68422Y40189D01*
X68371Y40129D01*
X67946Y39542D01*
Y57667D01*
G37*
G36*
Y125954D02*X70145Y123756D01*
X70000Y123767D01*
X69411Y123721D01*
X68836Y123583D01*
X68290Y123357D01*
X67946Y123147D01*
Y125954D01*
G37*
G36*
X75004Y111250D02*X79278Y106976D01*
Y102209D01*
X78896Y102431D01*
X78229Y102744D01*
X77538Y102997D01*
X76827Y103189D01*
X76102Y103317D01*
X75368Y103382D01*
X75004D01*
Y111250D01*
G37*
G36*
X79278Y4500D02*X75004D01*
Y26618D01*
X75368D01*
X76102Y26683D01*
X76827Y26811D01*
X77538Y27003D01*
X78229Y27256D01*
X78896Y27569D01*
X79278Y27791D01*
Y25902D01*
X79244Y25879D01*
X79187Y25824D01*
X79141Y25761D01*
X78911Y25374D01*
X78720Y24966D01*
X78566Y24544D01*
X78449Y24109D01*
X78370Y23666D01*
X78331Y23217D01*
Y22767D01*
X78370Y22319D01*
X78449Y21875D01*
X78566Y21441D01*
X78720Y21018D01*
X78911Y20610D01*
X79137Y20221D01*
X79184Y20157D01*
X79242Y20102D01*
X79278Y20077D01*
Y4500D01*
G37*
G36*
Y28997D02*X78988Y28788D01*
X78428Y28462D01*
X77841Y28187D01*
X77233Y27964D01*
X76607Y27795D01*
X75969Y27682D01*
X75324Y27625D01*
X75004D01*
Y42375D01*
X75324D01*
X75969Y42318D01*
X76607Y42205D01*
X77233Y42036D01*
X77841Y41813D01*
X78428Y41538D01*
X78988Y41212D01*
X79278Y41008D01*
Y28997D01*
G37*
G36*
Y42209D02*X78896Y42431D01*
X78229Y42744D01*
X77538Y42997D01*
X76827Y43189D01*
X76102Y43317D01*
X75368Y43382D01*
X75004D01*
Y86618D01*
X75368D01*
X76102Y86683D01*
X76827Y86811D01*
X77538Y87003D01*
X78229Y87256D01*
X78896Y87569D01*
X79278Y87791D01*
Y85835D01*
X79266Y85824D01*
X79220Y85761D01*
X78990Y85374D01*
X78799Y84966D01*
X78644Y84544D01*
X78527Y84109D01*
X78449Y83666D01*
X78409Y83217D01*
Y82767D01*
X78449Y82319D01*
X78527Y81875D01*
X78644Y81441D01*
X78799Y81018D01*
X78990Y80610D01*
X79216Y80221D01*
X79263Y80157D01*
X79278Y80143D01*
Y42209D01*
G37*
G36*
Y88997D02*X78988Y88788D01*
X78428Y88462D01*
X77841Y88187D01*
X77233Y87964D01*
X76607Y87795D01*
X75969Y87682D01*
X75324Y87625D01*
X75004D01*
Y102375D01*
X75324D01*
X75969Y102318D01*
X76607Y102205D01*
X77233Y102036D01*
X77841Y101813D01*
X78428Y101538D01*
X78988Y101212D01*
X79278Y101008D01*
Y88997D01*
G37*
G36*
Y106976D02*X82054Y104200D01*
Y99542D01*
X81636Y100134D01*
X81582Y100194D01*
X81520Y100244D01*
X81451Y100283D01*
X81376Y100312D01*
X81298Y100328D01*
X81218Y100332D01*
X81139Y100323D01*
X81062Y100302D01*
X80989Y100269D01*
X80922Y100226D01*
X80863Y100172D01*
X80813Y100110D01*
X80774Y100040D01*
X80745Y99966D01*
X80729Y99888D01*
X80725Y99808D01*
X80734Y99729D01*
X80755Y99652D01*
X80788Y99579D01*
X80833Y99513D01*
X81212Y98988D01*
X81538Y98428D01*
X81813Y97841D01*
X82036Y97233D01*
X82054Y97168D01*
Y92832D01*
X82036Y92767D01*
X81813Y92159D01*
X81538Y91572D01*
X81212Y91012D01*
X80838Y90483D01*
X80794Y90418D01*
X80762Y90346D01*
X80741Y90270D01*
X80732Y90192D01*
X80736Y90113D01*
X80752Y90036D01*
X80780Y89963D01*
X80819Y89894D01*
X80869Y89833D01*
X80927Y89780D01*
X80993Y89737D01*
X81064Y89705D01*
X81140Y89684D01*
X81219Y89675D01*
X81297Y89679D01*
X81374Y89695D01*
X81448Y89723D01*
X81516Y89762D01*
X81578Y89811D01*
X81629Y89871D01*
X82054Y90458D01*
Y87908D01*
X81992Y87891D01*
X81569Y87737D01*
X81161Y87546D01*
X80772Y87320D01*
X80708Y87272D01*
X80653Y87215D01*
X80608Y87150D01*
X80574Y87079D01*
X80551Y87003D01*
X80540Y86924D01*
X80541Y86845D01*
X80555Y86767D01*
X80581Y86692D01*
X80619Y86622D01*
X80666Y86559D01*
X80724Y86504D01*
X80789Y86458D01*
X80860Y86424D01*
X80936Y86401D01*
X81015Y86390D01*
X81094Y86391D01*
X81172Y86405D01*
X81247Y86431D01*
X81316Y86470D01*
X81627Y86655D01*
X81955Y86809D01*
X82054Y86845D01*
Y79140D01*
X81955Y79176D01*
X81627Y79329D01*
X81314Y79511D01*
X81245Y79549D01*
X81171Y79575D01*
X81094Y79589D01*
X81015Y79591D01*
X80937Y79580D01*
X80862Y79557D01*
X80791Y79523D01*
X80726Y79478D01*
X80669Y79423D01*
X80622Y79360D01*
X80585Y79291D01*
X80559Y79217D01*
X80545Y79139D01*
X80544Y79060D01*
X80554Y78982D01*
X80577Y78907D01*
X80612Y78836D01*
X80657Y78772D01*
X80711Y78715D01*
X80775Y78669D01*
X81161Y78439D01*
X81569Y78248D01*
X81992Y78093D01*
X82054Y78077D01*
Y39542D01*
X81636Y40134D01*
X81582Y40194D01*
X81520Y40244D01*
X81451Y40283D01*
X81376Y40312D01*
X81298Y40328D01*
X81218Y40332D01*
X81139Y40323D01*
X81062Y40302D01*
X80989Y40269D01*
X80922Y40226D01*
X80863Y40172D01*
X80813Y40110D01*
X80774Y40040D01*
X80745Y39966D01*
X80729Y39888D01*
X80725Y39808D01*
X80734Y39729D01*
X80755Y39652D01*
X80788Y39579D01*
X80833Y39513D01*
X81212Y38988D01*
X81538Y38428D01*
X81813Y37841D01*
X82036Y37233D01*
X82054Y37168D01*
Y32832D01*
X82036Y32767D01*
X81813Y32159D01*
X81538Y31572D01*
X81212Y31012D01*
X80838Y30483D01*
X80794Y30418D01*
X80762Y30346D01*
X80741Y30270D01*
X80732Y30192D01*
X80736Y30113D01*
X80752Y30036D01*
X80780Y29963D01*
X80819Y29894D01*
X80869Y29833D01*
X80927Y29780D01*
X80993Y29737D01*
X81064Y29705D01*
X81140Y29684D01*
X81219Y29675D01*
X81297Y29679D01*
X81374Y29695D01*
X81448Y29723D01*
X81516Y29762D01*
X81578Y29811D01*
X81629Y29871D01*
X82054Y30458D01*
Y27929D01*
X81913Y27891D01*
X81490Y27737D01*
X81083Y27546D01*
X80693Y27320D01*
X80630Y27272D01*
X80575Y27215D01*
X80529Y27150D01*
X80495Y27079D01*
X80472Y27003D01*
X80461Y26924D01*
X80462Y26845D01*
X80476Y26767D01*
X80502Y26692D01*
X80540Y26622D01*
X80588Y26559D01*
X80645Y26504D01*
X80710Y26458D01*
X80781Y26424D01*
X80857Y26401D01*
X80936Y26390D01*
X81015Y26391D01*
X81093Y26405D01*
X81168Y26431D01*
X81237Y26470D01*
X81548Y26655D01*
X81876Y26809D01*
X82054Y26874D01*
Y19111D01*
X81876Y19176D01*
X81548Y19329D01*
X81235Y19511D01*
X81167Y19549D01*
X81092Y19575D01*
X81015Y19589D01*
X80936Y19591D01*
X80858Y19580D01*
X80783Y19557D01*
X80712Y19523D01*
X80647Y19478D01*
X80591Y19423D01*
X80543Y19360D01*
X80506Y19291D01*
X80480Y19217D01*
X80466Y19139D01*
X80465Y19060D01*
X80476Y18982D01*
X80498Y18907D01*
X80533Y18836D01*
X80578Y18772D01*
X80632Y18715D01*
X80696Y18669D01*
X81083Y18439D01*
X81490Y18248D01*
X81913Y18093D01*
X82054Y18055D01*
Y4500D01*
X79278D01*
Y20077D01*
X79307Y20057D01*
X79378Y20022D01*
X79454Y19999D01*
X79533Y19988D01*
X79612Y19990D01*
X79690Y20004D01*
X79765Y20030D01*
X79835Y20067D01*
X79898Y20115D01*
X79953Y20172D01*
X79998Y20238D01*
X80033Y20309D01*
X80056Y20385D01*
X80067Y20463D01*
X80065Y20543D01*
X80051Y20621D01*
X80025Y20696D01*
X79987Y20765D01*
X79802Y21076D01*
X79648Y21404D01*
X79524Y21744D01*
X79430Y22094D01*
X79366Y22450D01*
X79335Y22811D01*
Y23173D01*
X79366Y23534D01*
X79430Y23891D01*
X79524Y24240D01*
X79648Y24580D01*
X79802Y24908D01*
X79983Y25221D01*
X80022Y25290D01*
X80048Y25364D01*
X80061Y25442D01*
X80063Y25521D01*
X80052Y25599D01*
X80029Y25674D01*
X79995Y25745D01*
X79950Y25809D01*
X79896Y25866D01*
X79833Y25913D01*
X79763Y25951D01*
X79689Y25976D01*
X79612Y25990D01*
X79533Y25992D01*
X79455Y25981D01*
X79380Y25958D01*
X79309Y25924D01*
X79278Y25902D01*
Y27791D01*
X79533Y27940D01*
X80134Y28364D01*
X80194Y28418D01*
X80244Y28480D01*
X80283Y28549D01*
X80312Y28624D01*
X80328Y28702D01*
X80332Y28782D01*
X80323Y28861D01*
X80302Y28938D01*
X80269Y29011D01*
X80226Y29078D01*
X80172Y29137D01*
X80110Y29187D01*
X80040Y29226D01*
X79966Y29255D01*
X79888Y29271D01*
X79808Y29275D01*
X79729Y29266D01*
X79652Y29245D01*
X79579Y29212D01*
X79513Y29167D01*
X79278Y28997D01*
Y41008D01*
X79517Y40838D01*
X79582Y40794D01*
X79654Y40762D01*
X79730Y40741D01*
X79808Y40732D01*
X79887Y40736D01*
X79964Y40752D01*
X80037Y40780D01*
X80106Y40819D01*
X80167Y40869D01*
X80220Y40927D01*
X80263Y40993D01*
X80295Y41064D01*
X80316Y41140D01*
X80325Y41219D01*
X80321Y41297D01*
X80305Y41374D01*
X80277Y41448D01*
X80238Y41516D01*
X80189Y41578D01*
X80129Y41629D01*
X79533Y42060D01*
X79278Y42209D01*
Y80143D01*
X79320Y80102D01*
X79386Y80057D01*
X79457Y80022D01*
X79533Y79999D01*
X79611Y79988D01*
X79691Y79990D01*
X79769Y80004D01*
X79844Y80030D01*
X79914Y80067D01*
X79977Y80115D01*
X80032Y80172D01*
X80077Y80238D01*
X80112Y80309D01*
X80135Y80385D01*
X80146Y80463D01*
X80144Y80543D01*
X80130Y80621D01*
X80104Y80696D01*
X80065Y80765D01*
X79880Y81076D01*
X79727Y81404D01*
X79602Y81744D01*
X79508Y82094D01*
X79445Y82450D01*
X79413Y82811D01*
Y83173D01*
X79445Y83534D01*
X79508Y83891D01*
X79602Y84240D01*
X79727Y84580D01*
X79880Y84908D01*
X80062Y85221D01*
X80101Y85290D01*
X80126Y85364D01*
X80140Y85442D01*
X80142Y85521D01*
X80131Y85599D01*
X80108Y85674D01*
X80074Y85745D01*
X80029Y85809D01*
X79974Y85866D01*
X79912Y85913D01*
X79842Y85951D01*
X79768Y85976D01*
X79690Y85990D01*
X79612Y85992D01*
X79534Y85981D01*
X79458Y85958D01*
X79388Y85924D01*
X79323Y85879D01*
X79278Y85835D01*
Y87791D01*
X79533Y87940D01*
X80134Y88364D01*
X80194Y88418D01*
X80244Y88480D01*
X80283Y88549D01*
X80312Y88624D01*
X80328Y88702D01*
X80332Y88782D01*
X80323Y88861D01*
X80302Y88938D01*
X80269Y89011D01*
X80226Y89078D01*
X80172Y89137D01*
X80110Y89187D01*
X80040Y89226D01*
X79966Y89255D01*
X79888Y89271D01*
X79808Y89275D01*
X79729Y89266D01*
X79652Y89245D01*
X79579Y89212D01*
X79513Y89167D01*
X79278Y88997D01*
Y101008D01*
X79517Y100838D01*
X79582Y100794D01*
X79654Y100762D01*
X79730Y100741D01*
X79808Y100732D01*
X79887Y100736D01*
X79964Y100752D01*
X80037Y100780D01*
X80106Y100819D01*
X80167Y100869D01*
X80220Y100927D01*
X80263Y100993D01*
X80295Y101064D01*
X80316Y101140D01*
X80325Y101219D01*
X80321Y101297D01*
X80305Y101374D01*
X80277Y101448D01*
X80238Y101516D01*
X80189Y101578D01*
X80129Y101629D01*
X79533Y102060D01*
X79278Y102209D01*
Y106976D01*
G37*
G36*
X82054Y104200D02*X87809Y98445D01*
Y85841D01*
X87766Y85882D01*
X87701Y85927D01*
X87630Y85962D01*
X87554Y85985D01*
X87475Y85996D01*
X87396Y85994D01*
X87318Y85980D01*
X87243Y85954D01*
X87173Y85917D01*
X87110Y85869D01*
X87055Y85812D01*
X87009Y85747D01*
X86975Y85675D01*
X86952Y85599D01*
X86941Y85521D01*
X86942Y85441D01*
X86956Y85363D01*
X86982Y85288D01*
X87021Y85219D01*
X87206Y84908D01*
X87360Y84580D01*
X87484Y84240D01*
X87578Y83891D01*
X87642Y83534D01*
X87673Y83173D01*
Y82811D01*
X87642Y82450D01*
X87578Y82094D01*
X87484Y81744D01*
X87360Y81404D01*
X87206Y81076D01*
X87025Y80763D01*
X86986Y80694D01*
X86960Y80620D01*
X86946Y80542D01*
X86945Y80464D01*
X86956Y80386D01*
X86978Y80310D01*
X87013Y80240D01*
X87058Y80175D01*
X87112Y80118D01*
X87175Y80071D01*
X87244Y80034D01*
X87319Y80008D01*
X87396Y79994D01*
X87475Y79992D01*
X87553Y80003D01*
X87628Y80026D01*
X87699Y80060D01*
X87764Y80105D01*
X87809Y80149D01*
Y25734D01*
X87792Y25763D01*
X87745Y25827D01*
X87687Y25882D01*
X87622Y25927D01*
X87551Y25962D01*
X87475Y25985D01*
X87396Y25996D01*
X87317Y25994D01*
X87239Y25980D01*
X87164Y25954D01*
X87094Y25917D01*
X87031Y25869D01*
X86976Y25812D01*
X86931Y25747D01*
X86896Y25675D01*
X86873Y25599D01*
X86862Y25521D01*
X86864Y25441D01*
X86878Y25363D01*
X86904Y25288D01*
X86942Y25219D01*
X87128Y24908D01*
X87281Y24580D01*
X87406Y24240D01*
X87500Y23891D01*
X87563Y23534D01*
X87594Y23173D01*
Y22811D01*
X87563Y22450D01*
X87500Y22094D01*
X87406Y21744D01*
X87281Y21404D01*
X87128Y21076D01*
X86946Y20763D01*
X86907Y20694D01*
X86882Y20620D01*
X86868Y20542D01*
X86866Y20464D01*
X86877Y20386D01*
X86900Y20310D01*
X86934Y20240D01*
X86979Y20175D01*
X87034Y20118D01*
X87096Y20071D01*
X87166Y20034D01*
X87240Y20008D01*
X87318Y19994D01*
X87396Y19992D01*
X87474Y20003D01*
X87550Y20026D01*
X87620Y20060D01*
X87685Y20105D01*
X87742Y20160D01*
X87788Y20223D01*
X87809Y20259D01*
Y4500D01*
X82054D01*
Y18055D01*
X82348Y17976D01*
X82791Y17898D01*
X83239Y17858D01*
X83690D01*
X84138Y17898D01*
X84581Y17976D01*
X85016Y18093D01*
X85439Y18248D01*
X85847Y18439D01*
X86236Y18665D01*
X86299Y18712D01*
X86354Y18769D01*
X86400Y18834D01*
X86434Y18906D01*
X86457Y18982D01*
X86468Y19060D01*
X86467Y19140D01*
X86453Y19218D01*
X86427Y19293D01*
X86389Y19362D01*
X86341Y19426D01*
X86284Y19481D01*
X86219Y19526D01*
X86148Y19561D01*
X86072Y19584D01*
X85993Y19595D01*
X85914Y19593D01*
X85836Y19579D01*
X85761Y19553D01*
X85692Y19514D01*
X85381Y19329D01*
X85053Y19176D01*
X84713Y19051D01*
X84363Y18957D01*
X84006Y18894D01*
X83646Y18862D01*
X83283D01*
X82923Y18894D01*
X82566Y18957D01*
X82216Y19051D01*
X82054Y19111D01*
Y26874D01*
X82216Y26933D01*
X82566Y27027D01*
X82923Y27090D01*
X83283Y27122D01*
X83646D01*
X84006Y27090D01*
X84363Y27027D01*
X84713Y26933D01*
X85053Y26809D01*
X85381Y26655D01*
X85694Y26473D01*
X85762Y26435D01*
X85837Y26409D01*
X85914Y26395D01*
X85993Y26394D01*
X86071Y26404D01*
X86146Y26427D01*
X86217Y26462D01*
X86282Y26507D01*
X86338Y26561D01*
X86386Y26624D01*
X86423Y26693D01*
X86449Y26768D01*
X86463Y26845D01*
X86464Y26924D01*
X86453Y27002D01*
X86431Y27077D01*
X86396Y27148D01*
X86351Y27212D01*
X86297Y27269D01*
X86233Y27315D01*
X85847Y27546D01*
X85439Y27737D01*
X85016Y27891D01*
X84581Y28008D01*
X84138Y28087D01*
X83690Y28126D01*
X83239D01*
X82791Y28087D01*
X82348Y28008D01*
X82054Y27929D01*
Y30458D01*
X82060Y30467D01*
X82431Y31104D01*
X82744Y31771D01*
X82997Y32462D01*
X83189Y33173D01*
X83317Y33898D01*
X83382Y34632D01*
Y35368D01*
X83317Y36102D01*
X83189Y36827D01*
X82997Y37538D01*
X82744Y38229D01*
X82431Y38896D01*
X82060Y39533D01*
X82054Y39542D01*
Y78077D01*
X82427Y77976D01*
X82870Y77898D01*
X83318Y77858D01*
X83768D01*
X84217Y77898D01*
X84660Y77976D01*
X85095Y78093D01*
X85518Y78248D01*
X85925Y78439D01*
X86315Y78665D01*
X86378Y78712D01*
X86433Y78769D01*
X86478Y78834D01*
X86513Y78906D01*
X86536Y78982D01*
X86547Y79060D01*
X86545Y79140D01*
X86531Y79218D01*
X86505Y79293D01*
X86468Y79362D01*
X86420Y79426D01*
X86363Y79481D01*
X86298Y79526D01*
X86226Y79561D01*
X86151Y79584D01*
X86072Y79595D01*
X85993Y79593D01*
X85915Y79579D01*
X85840Y79553D01*
X85771Y79514D01*
X85459Y79329D01*
X85132Y79176D01*
X84791Y79051D01*
X84442Y78957D01*
X84085Y78894D01*
X83724Y78862D01*
X83362D01*
X83001Y78894D01*
X82645Y78957D01*
X82295Y79051D01*
X82054Y79140D01*
Y86845D01*
X82295Y86933D01*
X82645Y87027D01*
X83001Y87090D01*
X83362Y87122D01*
X83724D01*
X84085Y87090D01*
X84442Y87027D01*
X84791Y86933D01*
X85132Y86809D01*
X85459Y86655D01*
X85773Y86473D01*
X85841Y86435D01*
X85916Y86409D01*
X85993Y86395D01*
X86072Y86394D01*
X86150Y86404D01*
X86225Y86427D01*
X86296Y86462D01*
X86360Y86507D01*
X86417Y86561D01*
X86465Y86624D01*
X86502Y86693D01*
X86528Y86768D01*
X86541Y86845D01*
X86543Y86924D01*
X86532Y87002D01*
X86509Y87077D01*
X86475Y87148D01*
X86430Y87212D01*
X86376Y87269D01*
X86312Y87315D01*
X85925Y87546D01*
X85518Y87737D01*
X85095Y87891D01*
X84660Y88008D01*
X84217Y88087D01*
X83768Y88126D01*
X83318D01*
X82870Y88087D01*
X82427Y88008D01*
X82054Y87908D01*
Y90458D01*
X82060Y90467D01*
X82431Y91104D01*
X82744Y91771D01*
X82997Y92462D01*
X83189Y93173D01*
X83317Y93898D01*
X83382Y94632D01*
Y95368D01*
X83317Y96102D01*
X83189Y96827D01*
X82997Y97538D01*
X82744Y98229D01*
X82431Y98896D01*
X82060Y99533D01*
X82054Y99542D01*
Y104200D01*
G37*
G36*
X87809Y98445D02*X89000Y97254D01*
Y4500D01*
X87809D01*
Y20259D01*
X88018Y20610D01*
X88209Y21018D01*
X88364Y21441D01*
X88481Y21875D01*
X88559Y22319D01*
X88598Y22767D01*
Y23217D01*
X88559Y23666D01*
X88481Y24109D01*
X88364Y24544D01*
X88209Y24966D01*
X88018Y25374D01*
X87809Y25734D01*
Y80149D01*
X87820Y80160D01*
X87867Y80223D01*
X88097Y80610D01*
X88288Y81018D01*
X88442Y81441D01*
X88559Y81875D01*
X88638Y82319D01*
X88677Y82767D01*
Y83217D01*
X88638Y83666D01*
X88559Y84109D01*
X88442Y84544D01*
X88288Y84966D01*
X88097Y85374D01*
X87871Y85763D01*
X87823Y85827D01*
X87809Y85841D01*
Y98445D01*
G37*
G36*
X82054Y97168D02*X82205Y96607D01*
X82318Y95969D01*
X82375Y95324D01*
Y94676D01*
X82318Y94031D01*
X82205Y93393D01*
X82054Y92832D01*
Y97168D01*
G37*
G36*
Y37168D02*X82205Y36607D01*
X82318Y35969D01*
X82375Y35324D01*
Y34676D01*
X82318Y34031D01*
X82205Y33393D01*
X82054Y32832D01*
Y37168D01*
G37*
G36*
X30004Y159157D02*X34984Y164137D01*
X38079D01*
X38137Y164133D01*
X38287Y164145D01*
X38290Y164143D01*
X38836Y163917D01*
X39411Y163779D01*
X40000Y163733D01*
X40589Y163779D01*
X41164Y163917D01*
X41710Y164143D01*
X42214Y164452D01*
X42664Y164836D01*
X42831Y165032D01*
Y151728D01*
X30004Y138900D01*
Y159157D01*
G37*
G36*
X16000Y149396D02*Y181879D01*
X32241Y165637D01*
X16000Y149396D01*
G37*
G36*
X32054Y232334D02*Y238941D01*
X34173Y241060D01*
Y237738D01*
X34169Y237680D01*
X34187Y237444D01*
X34242Y237215D01*
X34333Y236996D01*
X34456Y236795D01*
X34456Y236795D01*
X34609Y236616D01*
X34654Y236577D01*
X38500Y232731D01*
Y231365D01*
X38357Y231710D01*
X38048Y232214D01*
X37664Y232664D01*
X37214Y233048D01*
X36710Y233357D01*
X36164Y233583D01*
X35589Y233721D01*
X35000Y233767D01*
X34411Y233721D01*
X33836Y233583D01*
X33290Y233357D01*
X32786Y233048D01*
X32336Y232664D01*
X32054Y232334D01*
G37*
G36*
X38505Y228647D02*X38507Y228614D01*
X38496Y228625D01*
X38505Y228647D01*
G37*
G36*
X38496Y131375D02*X38539Y131417D01*
X38516Y131325D01*
X38496Y131375D01*
G37*
G36*
X38500Y128635D02*Y123444D01*
X38290Y123357D01*
X37786Y123048D01*
X37336Y122664D01*
X36952Y122214D01*
X36643Y121710D01*
X36417Y121164D01*
X36279Y120589D01*
X36233Y120000D01*
X36247Y119816D01*
X32231Y123831D01*
Y127458D01*
X32336Y127336D01*
X32786Y126952D01*
X33290Y126643D01*
X33836Y126417D01*
X34411Y126279D01*
X35000Y126233D01*
X35589Y126279D01*
X36164Y126417D01*
X36710Y126643D01*
X37214Y126952D01*
X37664Y127336D01*
X38048Y127786D01*
X38357Y128290D01*
X38500Y128635D01*
G37*
G36*
X41500Y123444D02*Y128635D01*
X41643Y128290D01*
X41952Y127786D01*
X42336Y127336D01*
X42786Y126952D01*
X43290Y126643D01*
X43500Y126556D01*
Y121365D01*
X43357Y121710D01*
X43048Y122214D01*
X42664Y122664D01*
X42214Y123048D01*
X41710Y123357D01*
X41500Y123444D01*
G37*
G36*
X44793Y133751D02*X74341Y163299D01*
X88660Y148981D01*
X88698Y148936D01*
X88877Y148783D01*
X88877Y148783D01*
X89000Y148708D01*
Y141500D01*
X55059D01*
X55000Y141505D01*
X54765Y141486D01*
X54535Y141431D01*
X54317Y141341D01*
X54116Y141217D01*
X54115Y141217D01*
X53936Y141064D01*
X53898Y141019D01*
X46375Y133496D01*
X46164Y133583D01*
X45589Y133721D01*
X45000Y133767D01*
X44793Y133751D01*
G37*
G36*
X43500Y118635D02*Y71365D01*
X43357Y71710D01*
X43048Y72214D01*
X42664Y72664D01*
X42214Y73048D01*
X41710Y73357D01*
X41164Y73583D01*
X40589Y73721D01*
X40000Y73767D01*
X39411Y73721D01*
X38836Y73583D01*
X38290Y73357D01*
X37786Y73048D01*
X37336Y72664D01*
X36952Y72214D01*
X36643Y71710D01*
X36500Y71365D01*
Y78077D01*
X40112Y81688D01*
X40156Y81727D01*
X40310Y81906D01*
X40310Y81906D01*
X40433Y82107D01*
X40524Y82326D01*
X40579Y82555D01*
X40597Y82791D01*
X40593Y82849D01*
Y114790D01*
X40597Y114849D01*
X40579Y115084D01*
X40579Y115085D01*
X40579Y115085D01*
Y115085D01*
X40548Y115211D01*
X40524Y115314D01*
X40523Y115314D01*
X40505Y115358D01*
X40433Y115532D01*
X40310Y115734D01*
X40310Y115734D01*
X40310Y115734D01*
X40156Y115913D01*
X40112Y115951D01*
X39816Y116247D01*
X40000Y116233D01*
X40589Y116279D01*
X41164Y116417D01*
X41710Y116643D01*
X42214Y116952D01*
X42664Y117336D01*
X43048Y117786D01*
X43357Y118290D01*
X43500Y118635D01*
G37*
G36*
X46500Y71365D02*Y118635D01*
X46643Y118290D01*
X46952Y117786D01*
X47336Y117336D01*
X47786Y116952D01*
X48290Y116643D01*
X48836Y116417D01*
X49411Y116279D01*
X50000Y116233D01*
X50589Y116279D01*
X51164Y116417D01*
X51710Y116643D01*
X52214Y116952D01*
X52664Y117336D01*
X53048Y117786D01*
X53357Y118290D01*
X53500Y118635D01*
Y75621D01*
X51375Y73496D01*
X51164Y73583D01*
X50589Y73721D01*
X50000Y73767D01*
X49411Y73721D01*
X48836Y73583D01*
X48290Y73357D01*
X47786Y73048D01*
X47336Y72664D01*
X46952Y72214D01*
X46643Y71710D01*
X46500Y71365D01*
G37*
G36*
Y121365D02*Y126556D01*
X46710Y126643D01*
X47214Y126952D01*
X47664Y127336D01*
X48048Y127786D01*
X48357Y128290D01*
X48583Y128836D01*
X48721Y129411D01*
X48756Y130000D01*
X48721Y130589D01*
X48583Y131164D01*
X48496Y131375D01*
X55621Y138500D01*
X89000D01*
Y128121D01*
X81800Y135321D01*
X81762Y135366D01*
X81582Y135520D01*
X81381Y135643D01*
X81163Y135733D01*
X80933Y135788D01*
X80933Y135788D01*
X80698Y135807D01*
X80639Y135802D01*
X59361D01*
X59302Y135807D01*
X59067Y135788D01*
X58837Y135733D01*
X58619Y135643D01*
X58418Y135520D01*
X58418Y135520D01*
X58238Y135366D01*
X58200Y135321D01*
X56375Y133496D01*
X56164Y133583D01*
X55589Y133721D01*
X55000Y133767D01*
X54411Y133721D01*
X53836Y133583D01*
X53290Y133357D01*
X52786Y133048D01*
X52336Y132664D01*
X51952Y132214D01*
X51643Y131710D01*
X51417Y131164D01*
X51279Y130589D01*
X51233Y130000D01*
X51279Y129411D01*
X51417Y128836D01*
X51643Y128290D01*
X51952Y127786D01*
X52336Y127336D01*
X52786Y126952D01*
X53290Y126643D01*
X53500Y126556D01*
Y121365D01*
X53357Y121710D01*
X53048Y122214D01*
X52664Y122664D01*
X52214Y123048D01*
X51710Y123357D01*
X51164Y123583D01*
X50589Y123721D01*
X50000Y123767D01*
X49411Y123721D01*
X48836Y123583D01*
X48290Y123357D01*
X47786Y123048D01*
X47336Y122664D01*
X46952Y122214D01*
X46643Y121710D01*
X46500Y121365D01*
G37*
G36*
X67502Y132802D02*X80076D01*
X89000Y123879D01*
Y109143D01*
X68722Y129422D01*
X68756Y130000D01*
X68721Y130589D01*
X68583Y131164D01*
X68357Y131710D01*
X68048Y132214D01*
X67664Y132664D01*
X67502Y132802D01*
G37*
G36*
X73747Y120154D02*X89000Y104901D01*
Y101496D01*
X72893Y117604D01*
X73048Y117786D01*
X73357Y118290D01*
X73583Y118836D01*
X73721Y119411D01*
X73756Y120000D01*
X73747Y120154D01*
G37*
G36*
X36261Y167137D02*X34984D01*
X16000Y186121D01*
Y194379D01*
X31504Y178875D01*
X31417Y178664D01*
X31279Y178089D01*
X31233Y177500D01*
X31279Y176911D01*
X31417Y176336D01*
X31643Y175790D01*
X31952Y175286D01*
X32336Y174836D01*
X32786Y174452D01*
X33290Y174143D01*
X33836Y173917D01*
X34411Y173779D01*
X35000Y173733D01*
X35589Y173779D01*
X36164Y173917D01*
X36710Y174143D01*
X37195Y174440D01*
X40400Y171236D01*
X40000Y171267D01*
X39411Y171221D01*
X38836Y171083D01*
X38290Y170857D01*
X37786Y170548D01*
X37336Y170164D01*
X36952Y169714D01*
X36643Y169210D01*
X36417Y168664D01*
X36279Y168089D01*
X36233Y167500D01*
X36261Y167137D01*
G37*
G36*
X41375Y236504D02*X44207Y233672D01*
X43836Y233583D01*
X43290Y233357D01*
X42786Y233048D01*
X42336Y232664D01*
X41952Y232214D01*
X41643Y231710D01*
X41500Y231365D01*
Y233294D01*
X41505Y233353D01*
X41486Y233588D01*
X41431Y233818D01*
X41341Y234036D01*
X41217Y234237D01*
X41064Y234417D01*
X41019Y234455D01*
X39127Y236347D01*
X39411Y236279D01*
X40000Y236233D01*
X40589Y236279D01*
X41164Y236417D01*
X41375Y236504D01*
G37*
G36*
X47554Y232758D02*X52446D01*
X52336Y232664D01*
X51952Y232214D01*
X51643Y231710D01*
X51417Y231164D01*
X51279Y230589D01*
X51233Y230000D01*
X51279Y229411D01*
X51417Y228836D01*
X51643Y228290D01*
X51952Y227786D01*
X52336Y227336D01*
X52786Y226952D01*
X53290Y226643D01*
X53836Y226417D01*
X54411Y226279D01*
X55000Y226233D01*
X55589Y226279D01*
X56164Y226417D01*
X56710Y226643D01*
X57214Y226952D01*
X57664Y227336D01*
X58048Y227786D01*
X58224Y228072D01*
Y218898D01*
X48496Y228625D01*
X48583Y228836D01*
X48721Y229411D01*
X48756Y230000D01*
X48721Y230589D01*
X48583Y231164D01*
X48357Y231710D01*
X48048Y232214D01*
X47664Y232664D01*
X47554Y232758D01*
G37*
G36*
X46375Y226504D02*X56223Y216656D01*
Y214643D01*
X56217Y214652D01*
X56064Y214832D01*
X56019Y214870D01*
X44627Y226262D01*
X45000Y226233D01*
X45589Y226279D01*
X46164Y226417D01*
X46375Y226504D01*
G37*
G36*
X9993Y95487D02*X10000Y95486D01*
X10706Y95542D01*
X11395Y95707D01*
X12049Y95978D01*
X12653Y96348D01*
X13001Y96645D01*
Y95122D01*
X11944Y94065D01*
X11395Y94293D01*
X10706Y94458D01*
X10000Y94514D01*
X9993Y94513D01*
Y95487D01*
G37*
G36*
Y105487D02*X10000Y105486D01*
X10706Y105542D01*
X11395Y105707D01*
X12049Y105978D01*
X12653Y106348D01*
X13001Y106645D01*
Y103355D01*
X12653Y103652D01*
X12049Y104022D01*
X11395Y104293D01*
X10706Y104458D01*
X10000Y104514D01*
X9993Y104513D01*
Y105487D01*
G37*
G36*
Y115487D02*X10000Y115486D01*
X10706Y115542D01*
X11395Y115707D01*
X12049Y115978D01*
X12653Y116348D01*
X13001Y116645D01*
Y113355D01*
X12653Y113652D01*
X12049Y114022D01*
X11395Y114293D01*
X10706Y114458D01*
X10000Y114514D01*
X9993Y114513D01*
Y115487D01*
G37*
G36*
Y125487D02*X10000Y125486D01*
X10706Y125542D01*
X11395Y125707D01*
X12049Y125978D01*
X12653Y126348D01*
X13001Y126645D01*
Y123355D01*
X12653Y123652D01*
X12049Y124022D01*
X11395Y124293D01*
X10706Y124458D01*
X10000Y124514D01*
X9993Y124513D01*
Y125487D01*
G37*
G36*
Y135487D02*X10000Y135486D01*
X10706Y135542D01*
X11395Y135707D01*
X12049Y135978D01*
X12653Y136348D01*
X13001Y136645D01*
Y133355D01*
X12653Y133652D01*
X12049Y134022D01*
X11395Y134293D01*
X10706Y134458D01*
X10000Y134514D01*
X9993Y134513D01*
Y135487D01*
G37*
G36*
Y185487D02*X10000Y185486D01*
X10706Y185542D01*
X11395Y185707D01*
X11944Y185935D01*
X17000Y180879D01*
Y150396D01*
X13482Y146878D01*
X13437Y146840D01*
X13284Y146660D01*
X13160Y146459D01*
X13070Y146241D01*
X13015Y146011D01*
X13015Y146011D01*
X12996Y145776D01*
X13001Y145717D01*
Y143355D01*
X12653Y143652D01*
X12049Y144022D01*
X11395Y144293D01*
X10706Y144458D01*
X10000Y144514D01*
X9993Y144513D01*
Y145487D01*
X10000Y145486D01*
X10706Y145542D01*
X11395Y145707D01*
X12049Y145978D01*
X12653Y146348D01*
X13192Y146808D01*
X13652Y147347D01*
X14022Y147951D01*
X14293Y148605D01*
X14458Y149294D01*
X14500Y150000D01*
X14458Y150706D01*
X14293Y151395D01*
X14022Y152049D01*
X13652Y152653D01*
X13192Y153192D01*
X12653Y153652D01*
X12049Y154022D01*
X11395Y154293D01*
X10706Y154458D01*
X10000Y154514D01*
X9993Y154513D01*
Y155487D01*
X10000Y155486D01*
X10706Y155542D01*
X11395Y155707D01*
X12049Y155978D01*
X12653Y156348D01*
X13192Y156808D01*
X13652Y157347D01*
X14022Y157951D01*
X14293Y158605D01*
X14458Y159294D01*
X14500Y160000D01*
X14458Y160706D01*
X14293Y161395D01*
X14022Y162049D01*
X13652Y162653D01*
X13192Y163192D01*
X12653Y163652D01*
X12049Y164022D01*
X11395Y164293D01*
X10706Y164458D01*
X10000Y164514D01*
X9993Y164513D01*
Y165487D01*
X10000Y165486D01*
X10706Y165542D01*
X11395Y165707D01*
X12049Y165978D01*
X12653Y166348D01*
X13192Y166808D01*
X13652Y167347D01*
X14022Y167951D01*
X14293Y168605D01*
X14458Y169294D01*
X14500Y170000D01*
X14458Y170706D01*
X14293Y171395D01*
X14022Y172049D01*
X13652Y172653D01*
X13192Y173192D01*
X12653Y173652D01*
X12049Y174022D01*
X11395Y174293D01*
X10706Y174458D01*
X10000Y174514D01*
X9993Y174513D01*
Y175487D01*
X10000Y175486D01*
X10706Y175542D01*
X11395Y175707D01*
X12049Y175978D01*
X12653Y176348D01*
X13192Y176808D01*
X13652Y177347D01*
X14022Y177951D01*
X14293Y178605D01*
X14458Y179294D01*
X14500Y180000D01*
X14458Y180706D01*
X14293Y181395D01*
X14022Y182049D01*
X13652Y182653D01*
X13192Y183192D01*
X12653Y183652D01*
X12049Y184022D01*
X11395Y184293D01*
X10706Y184458D01*
X10000Y184514D01*
X9993Y184513D01*
Y185487D01*
G37*
G36*
Y195507D02*X13235Y195514D01*
X13465Y195569D01*
X13683Y195659D01*
X13884Y195783D01*
X14064Y195936D01*
X14217Y196116D01*
X14235Y196144D01*
X17000Y193379D01*
Y185121D01*
X14065Y188056D01*
X14293Y188605D01*
X14458Y189294D01*
X14500Y190000D01*
X14458Y190706D01*
X14293Y191395D01*
X14022Y192049D01*
X13652Y192653D01*
X13192Y193192D01*
X12653Y193652D01*
X12049Y194022D01*
X11395Y194293D01*
X10706Y194458D01*
X10000Y194514D01*
X9993Y194513D01*
Y195507D01*
G37*
G36*
Y214493D02*X17000Y221500D01*
Y217052D01*
X16903Y216890D01*
X16712Y216482D01*
X16558Y216059D01*
X16441Y215625D01*
X16362Y215181D01*
X16323Y214733D01*
Y214283D01*
X16362Y213834D01*
X16441Y213391D01*
X16558Y212956D01*
X16712Y212534D01*
X16903Y212126D01*
X17000Y211959D01*
Y197621D01*
X16000Y198621D01*
Y199941D01*
X16005Y200000D01*
X15986Y200235D01*
X15931Y200465D01*
X15841Y200683D01*
X15718Y200884D01*
X15564Y201064D01*
X15385Y201217D01*
X15183Y201341D01*
X14965Y201431D01*
X14736Y201486D01*
X14500Y201505D01*
X14490Y201504D01*
X14486Y203235D01*
X14431Y203465D01*
X14341Y203683D01*
X14217Y203884D01*
X14064Y204064D01*
X13884Y204217D01*
X13683Y204341D01*
X13465Y204431D01*
X13235Y204486D01*
X13000Y204500D01*
X9993Y204493D01*
Y214493D01*
G37*
G36*
X17000Y68500D02*X9993Y75507D01*
Y85487D01*
X10000Y85486D01*
X10706Y85542D01*
X11395Y85707D01*
X12049Y85978D01*
X12653Y86348D01*
X13192Y86808D01*
X13652Y87347D01*
X14022Y87951D01*
X14293Y88605D01*
X14458Y89294D01*
X14500Y90000D01*
X14458Y90706D01*
X14293Y91395D01*
X14065Y91944D01*
X15520Y93399D01*
X15565Y93437D01*
X15718Y93616D01*
X15718Y93616D01*
X15841Y93818D01*
X15932Y94036D01*
X15987Y94265D01*
X16005Y94501D01*
X16001Y94560D01*
Y145154D01*
X17000Y146153D01*
Y85404D01*
X16982Y85374D01*
X16791Y84966D01*
X16636Y84544D01*
X16519Y84109D01*
X16441Y83666D01*
X16402Y83217D01*
Y82767D01*
X16441Y82319D01*
X16519Y81875D01*
X16636Y81441D01*
X16791Y81018D01*
X16982Y80610D01*
X17000Y80579D01*
Y68500D01*
G37*
G36*
X9993Y75507D02*X2000Y83500D01*
Y206500D01*
X9993Y214493D01*
Y204493D01*
X6765Y204486D01*
X6535Y204431D01*
X6317Y204341D01*
X6116Y204217D01*
X5936Y204064D01*
X5783Y203884D01*
X5659Y203683D01*
X5569Y203465D01*
X5514Y203235D01*
X5500Y203000D01*
X5514Y196765D01*
X5569Y196535D01*
X5659Y196317D01*
X5783Y196116D01*
X5936Y195936D01*
X6116Y195783D01*
X6317Y195659D01*
X6535Y195569D01*
X6765Y195514D01*
X7000Y195500D01*
X9993Y195507D01*
Y194513D01*
X9294Y194458D01*
X8605Y194293D01*
X7951Y194022D01*
X7347Y193652D01*
X6808Y193192D01*
X6348Y192653D01*
X5978Y192049D01*
X5707Y191395D01*
X5542Y190706D01*
X5486Y190000D01*
X5542Y189294D01*
X5707Y188605D01*
X5978Y187951D01*
X6348Y187347D01*
X6808Y186808D01*
X7347Y186348D01*
X7951Y185978D01*
X8605Y185707D01*
X9294Y185542D01*
X9993Y185487D01*
Y184513D01*
X9294Y184458D01*
X8605Y184293D01*
X7951Y184022D01*
X7347Y183652D01*
X6808Y183192D01*
X6348Y182653D01*
X5978Y182049D01*
X5707Y181395D01*
X5542Y180706D01*
X5486Y180000D01*
X5542Y179294D01*
X5707Y178605D01*
X5978Y177951D01*
X6348Y177347D01*
X6808Y176808D01*
X7347Y176348D01*
X7951Y175978D01*
X8605Y175707D01*
X9294Y175542D01*
X9993Y175487D01*
Y174513D01*
X9294Y174458D01*
X8605Y174293D01*
X7951Y174022D01*
X7347Y173652D01*
X6808Y173192D01*
X6348Y172653D01*
X5978Y172049D01*
X5707Y171395D01*
X5542Y170706D01*
X5486Y170000D01*
X5542Y169294D01*
X5707Y168605D01*
X5978Y167951D01*
X6348Y167347D01*
X6808Y166808D01*
X7347Y166348D01*
X7951Y165978D01*
X8605Y165707D01*
X9294Y165542D01*
X9993Y165487D01*
Y164513D01*
X9294Y164458D01*
X8605Y164293D01*
X7951Y164022D01*
X7347Y163652D01*
X6808Y163192D01*
X6348Y162653D01*
X5978Y162049D01*
X5707Y161395D01*
X5542Y160706D01*
X5486Y160000D01*
X5542Y159294D01*
X5707Y158605D01*
X5978Y157951D01*
X6348Y157347D01*
X6808Y156808D01*
X7347Y156348D01*
X7951Y155978D01*
X8605Y155707D01*
X9294Y155542D01*
X9993Y155487D01*
Y154513D01*
X9294Y154458D01*
X8605Y154293D01*
X7951Y154022D01*
X7347Y153652D01*
X6808Y153192D01*
X6348Y152653D01*
X5978Y152049D01*
X5707Y151395D01*
X5542Y150706D01*
X5486Y150000D01*
X5542Y149294D01*
X5707Y148605D01*
X5978Y147951D01*
X6348Y147347D01*
X6808Y146808D01*
X7347Y146348D01*
X7951Y145978D01*
X8605Y145707D01*
X9294Y145542D01*
X9993Y145487D01*
Y144513D01*
X9294Y144458D01*
X8605Y144293D01*
X7951Y144022D01*
X7347Y143652D01*
X6808Y143192D01*
X6348Y142653D01*
X5978Y142049D01*
X5707Y141395D01*
X5542Y140706D01*
X5486Y140000D01*
X5542Y139294D01*
X5707Y138605D01*
X5978Y137951D01*
X6348Y137347D01*
X6808Y136808D01*
X7347Y136348D01*
X7951Y135978D01*
X8605Y135707D01*
X9294Y135542D01*
X9993Y135487D01*
Y134513D01*
X9294Y134458D01*
X8605Y134293D01*
X7951Y134022D01*
X7347Y133652D01*
X6808Y133192D01*
X6348Y132653D01*
X5978Y132049D01*
X5707Y131395D01*
X5542Y130706D01*
X5486Y130000D01*
X5542Y129294D01*
X5707Y128605D01*
X5978Y127951D01*
X6348Y127347D01*
X6808Y126808D01*
X7347Y126348D01*
X7951Y125978D01*
X8605Y125707D01*
X9294Y125542D01*
X9993Y125487D01*
Y124513D01*
X9294Y124458D01*
X8605Y124293D01*
X7951Y124022D01*
X7347Y123652D01*
X6808Y123192D01*
X6348Y122653D01*
X5978Y122049D01*
X5707Y121395D01*
X5542Y120706D01*
X5486Y120000D01*
X5542Y119294D01*
X5707Y118605D01*
X5978Y117951D01*
X6348Y117347D01*
X6808Y116808D01*
X7347Y116348D01*
X7951Y115978D01*
X8605Y115707D01*
X9294Y115542D01*
X9993Y115487D01*
Y114513D01*
X9294Y114458D01*
X8605Y114293D01*
X7951Y114022D01*
X7347Y113652D01*
X6808Y113192D01*
X6348Y112653D01*
X5978Y112049D01*
X5707Y111395D01*
X5542Y110706D01*
X5486Y110000D01*
X5542Y109294D01*
X5707Y108605D01*
X5978Y107951D01*
X6348Y107347D01*
X6808Y106808D01*
X7347Y106348D01*
X7951Y105978D01*
X8605Y105707D01*
X9294Y105542D01*
X9993Y105487D01*
Y104513D01*
X9294Y104458D01*
X8605Y104293D01*
X7951Y104022D01*
X7347Y103652D01*
X6808Y103192D01*
X6348Y102653D01*
X5978Y102049D01*
X5707Y101395D01*
X5542Y100706D01*
X5486Y100000D01*
X5542Y99294D01*
X5707Y98605D01*
X5978Y97951D01*
X6348Y97347D01*
X6808Y96808D01*
X7347Y96348D01*
X7951Y95978D01*
X8605Y95707D01*
X9294Y95542D01*
X9993Y95487D01*
Y94513D01*
X9294Y94458D01*
X8605Y94293D01*
X7951Y94022D01*
X7347Y93652D01*
X6808Y93192D01*
X6348Y92653D01*
X5978Y92049D01*
X5707Y91395D01*
X5542Y90706D01*
X5486Y90000D01*
X5542Y89294D01*
X5707Y88605D01*
X5978Y87951D01*
X6348Y87347D01*
X6808Y86808D01*
X7347Y86348D01*
X7951Y85978D01*
X8605Y85707D01*
X9294Y85542D01*
X9993Y85487D01*
Y75507D01*
G37*
G36*
X98613Y85630D02*X98683Y85659D01*
X98884Y85783D01*
X99064Y85936D01*
X99217Y86116D01*
X99341Y86317D01*
X99431Y86535D01*
X99486Y86765D01*
X99500Y87000D01*
X99486Y93235D01*
X99431Y93465D01*
X99341Y93683D01*
X99217Y93884D01*
X99064Y94064D01*
X98884Y94217D01*
X98683Y94341D01*
X98613Y94370D01*
Y97302D01*
X98652Y97347D01*
X99022Y97951D01*
X99293Y98605D01*
X99458Y99294D01*
X99500Y100000D01*
X99458Y100706D01*
X99293Y101395D01*
X99022Y102049D01*
X98652Y102653D01*
X98613Y102698D01*
Y107302D01*
X98652Y107347D01*
X99022Y107951D01*
X99293Y108605D01*
X99458Y109294D01*
X99500Y110000D01*
X99458Y110706D01*
X99293Y111395D01*
X99022Y112049D01*
X98652Y112653D01*
X98613Y112698D01*
Y117302D01*
X98652Y117347D01*
X99022Y117951D01*
X99293Y118605D01*
X99458Y119294D01*
X99500Y120000D01*
X99458Y120706D01*
X99293Y121395D01*
X99022Y122049D01*
X98652Y122653D01*
X98613Y122698D01*
Y127302D01*
X98652Y127347D01*
X99022Y127951D01*
X99293Y128605D01*
X99458Y129294D01*
X99500Y130000D01*
X99458Y130706D01*
X99293Y131395D01*
X99022Y132049D01*
X98652Y132653D01*
X98613Y132698D01*
Y137302D01*
X98652Y137347D01*
X99022Y137951D01*
X99293Y138605D01*
X99458Y139294D01*
X99500Y140000D01*
X99458Y140706D01*
X99293Y141395D01*
X99022Y142049D01*
X98652Y142653D01*
X98613Y142698D01*
Y147302D01*
X98652Y147347D01*
X99022Y147951D01*
X99293Y148605D01*
X99458Y149294D01*
X99500Y150000D01*
X99458Y150706D01*
X99293Y151395D01*
X99022Y152049D01*
X98652Y152653D01*
X98613Y152698D01*
Y157302D01*
X98652Y157347D01*
X99022Y157951D01*
X99293Y158605D01*
X99458Y159294D01*
X99500Y160000D01*
X99458Y160706D01*
X99293Y161395D01*
X99022Y162049D01*
X98652Y162653D01*
X98613Y162698D01*
Y167853D01*
X98656Y167860D01*
X98768Y167897D01*
X98873Y167952D01*
X98968Y168022D01*
X99051Y168106D01*
X99119Y168202D01*
X99170Y168308D01*
X99318Y168716D01*
X99422Y169137D01*
X99484Y169567D01*
X99505Y170000D01*
X99484Y170433D01*
X99422Y170863D01*
X99318Y171284D01*
X99175Y171694D01*
X99122Y171800D01*
X99053Y171896D01*
X98970Y171981D01*
X98875Y172051D01*
X98769Y172106D01*
X98657Y172143D01*
X98613Y172151D01*
Y177853D01*
X98656Y177860D01*
X98768Y177897D01*
X98873Y177952D01*
X98968Y178022D01*
X99051Y178106D01*
X99119Y178202D01*
X99170Y178308D01*
X99318Y178716D01*
X99422Y179137D01*
X99484Y179567D01*
X99505Y180000D01*
X99484Y180433D01*
X99422Y180863D01*
X99318Y181284D01*
X99175Y181694D01*
X99122Y181800D01*
X99053Y181896D01*
X98970Y181981D01*
X98875Y182051D01*
X98769Y182106D01*
X98657Y182143D01*
X98613Y182151D01*
Y187853D01*
X98656Y187860D01*
X98768Y187897D01*
X98873Y187952D01*
X98968Y188022D01*
X99051Y188106D01*
X99119Y188202D01*
X99170Y188308D01*
X99318Y188716D01*
X99422Y189137D01*
X99484Y189567D01*
X99505Y190000D01*
X99484Y190433D01*
X99422Y190863D01*
X99318Y191284D01*
X99175Y191694D01*
X99122Y191800D01*
X99053Y191896D01*
X98970Y191981D01*
X98875Y192051D01*
X98769Y192106D01*
X98657Y192143D01*
X98613Y192151D01*
Y197302D01*
X98652Y197347D01*
X99022Y197951D01*
X99293Y198605D01*
X99458Y199294D01*
X99500Y200000D01*
X99458Y200706D01*
X99293Y201395D01*
X99022Y202049D01*
X98652Y202653D01*
X98613Y202698D01*
Y210887D01*
X103000Y206500D01*
Y83500D01*
X98613Y79113D01*
Y85630D01*
G37*
G36*
Y202698D02*X98192Y203192D01*
X97653Y203652D01*
X97049Y204022D01*
X96395Y204293D01*
X95706Y204458D01*
X95002Y204514D01*
Y214498D01*
X98613Y210887D01*
Y202698D01*
G37*
G36*
Y162698D02*X98192Y163192D01*
X97653Y163652D01*
X97049Y164022D01*
X96395Y164293D01*
X95706Y164458D01*
X95002Y164514D01*
Y165495D01*
X95433Y165516D01*
X95863Y165578D01*
X96284Y165682D01*
X96694Y165825D01*
X96800Y165878D01*
X96896Y165947D01*
X96981Y166030D01*
X97051Y166125D01*
X97106Y166231D01*
X97143Y166343D01*
X97163Y166460D01*
X97164Y166579D01*
X97146Y166696D01*
X97110Y166809D01*
X97057Y166915D01*
X96988Y167012D01*
X96905Y167096D01*
X96809Y167167D01*
X96704Y167221D01*
X96592Y167259D01*
X96475Y167278D01*
X96356Y167279D01*
X96239Y167261D01*
X96126Y167223D01*
X95855Y167124D01*
X95575Y167056D01*
X95289Y167014D01*
X95002Y167000D01*
Y173000D01*
X95289Y172986D01*
X95575Y172944D01*
X95855Y172876D01*
X96128Y172780D01*
X96239Y172742D01*
X96356Y172725D01*
X96474Y172725D01*
X96591Y172745D01*
X96703Y172782D01*
X96807Y172836D01*
X96902Y172906D01*
X96985Y172991D01*
X97054Y173087D01*
X97107Y173192D01*
X97143Y173305D01*
X97160Y173421D01*
X97159Y173539D01*
X97140Y173656D01*
X97103Y173768D01*
X97048Y173873D01*
X96978Y173968D01*
X96894Y174051D01*
X96798Y174119D01*
X96692Y174170D01*
X96284Y174318D01*
X95863Y174422D01*
X95433Y174484D01*
X95002Y174505D01*
Y175495D01*
X95433Y175516D01*
X95863Y175578D01*
X96284Y175682D01*
X96694Y175825D01*
X96800Y175878D01*
X96896Y175947D01*
X96981Y176030D01*
X97051Y176125D01*
X97106Y176231D01*
X97143Y176343D01*
X97163Y176460D01*
X97164Y176579D01*
X97146Y176696D01*
X97110Y176809D01*
X97057Y176915D01*
X96988Y177012D01*
X96905Y177096D01*
X96809Y177167D01*
X96704Y177221D01*
X96592Y177259D01*
X96475Y177278D01*
X96356Y177279D01*
X96239Y177261D01*
X96126Y177223D01*
X95855Y177124D01*
X95575Y177056D01*
X95289Y177014D01*
X95002Y177000D01*
Y183000D01*
X95289Y182986D01*
X95575Y182944D01*
X95855Y182876D01*
X96128Y182780D01*
X96239Y182742D01*
X96356Y182725D01*
X96474Y182725D01*
X96591Y182745D01*
X96703Y182782D01*
X96807Y182836D01*
X96902Y182906D01*
X96985Y182991D01*
X97054Y183087D01*
X97107Y183192D01*
X97143Y183305D01*
X97160Y183421D01*
X97159Y183539D01*
X97140Y183656D01*
X97103Y183768D01*
X97048Y183873D01*
X96978Y183968D01*
X96894Y184051D01*
X96798Y184119D01*
X96692Y184170D01*
X96284Y184318D01*
X95863Y184422D01*
X95433Y184484D01*
X95002Y184505D01*
Y185495D01*
X95433Y185516D01*
X95863Y185578D01*
X96284Y185682D01*
X96694Y185825D01*
X96800Y185878D01*
X96896Y185947D01*
X96981Y186030D01*
X97051Y186125D01*
X97106Y186231D01*
X97143Y186343D01*
X97163Y186460D01*
X97164Y186579D01*
X97146Y186696D01*
X97110Y186809D01*
X97057Y186915D01*
X96988Y187012D01*
X96905Y187096D01*
X96809Y187167D01*
X96704Y187221D01*
X96592Y187259D01*
X96475Y187278D01*
X96356Y187279D01*
X96239Y187261D01*
X96126Y187223D01*
X95855Y187124D01*
X95575Y187056D01*
X95289Y187014D01*
X95002Y187000D01*
Y193000D01*
X95289Y192986D01*
X95575Y192944D01*
X95855Y192876D01*
X96128Y192780D01*
X96239Y192742D01*
X96356Y192725D01*
X96474Y192725D01*
X96591Y192745D01*
X96703Y192782D01*
X96807Y192836D01*
X96902Y192906D01*
X96985Y192991D01*
X97054Y193087D01*
X97107Y193192D01*
X97143Y193305D01*
X97160Y193421D01*
X97159Y193539D01*
X97140Y193656D01*
X97103Y193768D01*
X97048Y193873D01*
X96978Y193968D01*
X96894Y194051D01*
X96798Y194119D01*
X96692Y194170D01*
X96284Y194318D01*
X95863Y194422D01*
X95433Y194484D01*
X95002Y194505D01*
Y195486D01*
X95706Y195542D01*
X96395Y195707D01*
X97049Y195978D01*
X97653Y196348D01*
X98192Y196808D01*
X98613Y197302D01*
Y192151D01*
X98540Y192163D01*
X98421Y192164D01*
X98304Y192146D01*
X98191Y192110D01*
X98085Y192057D01*
X97988Y191988D01*
X97904Y191905D01*
X97833Y191809D01*
X97779Y191704D01*
X97741Y191592D01*
X97722Y191475D01*
X97721Y191356D01*
X97739Y191239D01*
X97777Y191126D01*
X97876Y190855D01*
X97944Y190575D01*
X97986Y190289D01*
X98000Y190000D01*
X97986Y189711D01*
X97944Y189425D01*
X97876Y189145D01*
X97780Y188872D01*
X97742Y188761D01*
X97725Y188644D01*
X97725Y188526D01*
X97745Y188409D01*
X97782Y188297D01*
X97836Y188193D01*
X97906Y188098D01*
X97991Y188015D01*
X98087Y187946D01*
X98192Y187893D01*
X98305Y187857D01*
X98421Y187840D01*
X98539Y187841D01*
X98613Y187853D01*
Y182151D01*
X98540Y182163D01*
X98421Y182164D01*
X98304Y182146D01*
X98191Y182110D01*
X98085Y182057D01*
X97988Y181988D01*
X97904Y181905D01*
X97833Y181809D01*
X97779Y181704D01*
X97741Y181592D01*
X97722Y181475D01*
X97721Y181356D01*
X97739Y181239D01*
X97777Y181126D01*
X97876Y180855D01*
X97944Y180575D01*
X97986Y180289D01*
X98000Y180000D01*
X97986Y179711D01*
X97944Y179425D01*
X97876Y179145D01*
X97780Y178872D01*
X97742Y178761D01*
X97725Y178644D01*
X97725Y178526D01*
X97745Y178409D01*
X97782Y178297D01*
X97836Y178193D01*
X97906Y178098D01*
X97991Y178015D01*
X98087Y177946D01*
X98192Y177893D01*
X98305Y177857D01*
X98421Y177840D01*
X98539Y177841D01*
X98613Y177853D01*
Y172151D01*
X98540Y172163D01*
X98421Y172164D01*
X98304Y172146D01*
X98191Y172110D01*
X98085Y172057D01*
X97988Y171988D01*
X97904Y171905D01*
X97833Y171809D01*
X97779Y171704D01*
X97741Y171592D01*
X97722Y171475D01*
X97721Y171356D01*
X97739Y171239D01*
X97777Y171126D01*
X97876Y170855D01*
X97944Y170575D01*
X97986Y170289D01*
X98000Y170000D01*
X97986Y169711D01*
X97944Y169425D01*
X97876Y169145D01*
X97780Y168872D01*
X97742Y168761D01*
X97725Y168644D01*
X97725Y168526D01*
X97745Y168409D01*
X97782Y168297D01*
X97836Y168193D01*
X97906Y168098D01*
X97991Y168015D01*
X98087Y167946D01*
X98192Y167893D01*
X98305Y167857D01*
X98421Y167840D01*
X98539Y167841D01*
X98613Y167853D01*
Y162698D01*
G37*
G36*
Y152698D02*X98192Y153192D01*
X97653Y153652D01*
X97049Y154022D01*
X96395Y154293D01*
X95706Y154458D01*
X95002Y154514D01*
Y155486D01*
X95706Y155542D01*
X96395Y155707D01*
X97049Y155978D01*
X97653Y156348D01*
X98192Y156808D01*
X98613Y157302D01*
Y152698D01*
G37*
G36*
Y142698D02*X98192Y143192D01*
X97653Y143652D01*
X97049Y144022D01*
X96395Y144293D01*
X95706Y144458D01*
X95002Y144514D01*
Y145486D01*
X95706Y145542D01*
X96395Y145707D01*
X97049Y145978D01*
X97653Y146348D01*
X98192Y146808D01*
X98613Y147302D01*
Y142698D01*
G37*
G36*
Y132698D02*X98192Y133192D01*
X97653Y133652D01*
X97049Y134022D01*
X96395Y134293D01*
X95706Y134458D01*
X95002Y134514D01*
Y135486D01*
X95706Y135542D01*
X96395Y135707D01*
X97049Y135978D01*
X97653Y136348D01*
X98192Y136808D01*
X98613Y137302D01*
Y132698D01*
G37*
G36*
Y122698D02*X98192Y123192D01*
X97653Y123652D01*
X97049Y124022D01*
X96395Y124293D01*
X95706Y124458D01*
X95002Y124514D01*
Y125486D01*
X95706Y125542D01*
X96395Y125707D01*
X97049Y125978D01*
X97653Y126348D01*
X98192Y126808D01*
X98613Y127302D01*
Y122698D01*
G37*
G36*
Y112698D02*X98192Y113192D01*
X97653Y113652D01*
X97049Y114022D01*
X96395Y114293D01*
X95706Y114458D01*
X95002Y114514D01*
Y115486D01*
X95706Y115542D01*
X96395Y115707D01*
X97049Y115978D01*
X97653Y116348D01*
X98192Y116808D01*
X98613Y117302D01*
Y112698D01*
G37*
G36*
Y102698D02*X98192Y103192D01*
X97653Y103652D01*
X97049Y104022D01*
X96395Y104293D01*
X95706Y104458D01*
X95002Y104514D01*
Y105486D01*
X95706Y105542D01*
X96395Y105707D01*
X97049Y105978D01*
X97653Y106348D01*
X98192Y106808D01*
X98613Y107302D01*
Y102698D01*
G37*
G36*
Y94370D02*X98465Y94431D01*
X98235Y94486D01*
X98000Y94500D01*
X96504Y94497D01*
X96505Y94500D01*
X96486Y94735D01*
X96431Y94965D01*
X96341Y95183D01*
X96217Y95384D01*
X96064Y95564D01*
X96006Y95614D01*
X96395Y95707D01*
X97049Y95978D01*
X97653Y96348D01*
X98192Y96808D01*
X98613Y97302D01*
Y94370D01*
G37*
G36*
X95002Y85507D02*X98235Y85514D01*
X98465Y85569D01*
X98613Y85630D01*
Y79113D01*
X95002Y75502D01*
Y85507D01*
G37*
G36*
X91387Y197302D02*X91808Y196808D01*
X92347Y196348D01*
X92951Y195978D01*
X93605Y195707D01*
X94294Y195542D01*
X95000Y195486D01*
X95002Y195486D01*
Y194505D01*
X95000Y194505D01*
X94567Y194484D01*
X94137Y194422D01*
X93716Y194318D01*
X93306Y194175D01*
X93200Y194122D01*
X93104Y194053D01*
X93019Y193970D01*
X92949Y193875D01*
X92894Y193769D01*
X92857Y193657D01*
X92837Y193540D01*
X92836Y193421D01*
X92854Y193304D01*
X92890Y193191D01*
X92943Y193085D01*
X93012Y192988D01*
X93095Y192904D01*
X93191Y192833D01*
X93296Y192779D01*
X93408Y192741D01*
X93525Y192722D01*
X93644Y192721D01*
X93761Y192739D01*
X93874Y192777D01*
X94145Y192876D01*
X94425Y192944D01*
X94711Y192986D01*
X95000Y193000D01*
X95002Y193000D01*
Y187000D01*
X95000Y187000D01*
X94711Y187014D01*
X94425Y187056D01*
X94145Y187124D01*
X93872Y187220D01*
X93761Y187258D01*
X93644Y187275D01*
X93526Y187275D01*
X93409Y187255D01*
X93297Y187218D01*
X93193Y187164D01*
X93098Y187094D01*
X93015Y187009D01*
X92946Y186913D01*
X92893Y186808D01*
X92857Y186695D01*
X92840Y186579D01*
X92841Y186461D01*
X92860Y186344D01*
X92897Y186232D01*
X92952Y186127D01*
X93022Y186032D01*
X93106Y185949D01*
X93202Y185881D01*
X93308Y185830D01*
X93716Y185682D01*
X94137Y185578D01*
X94567Y185516D01*
X95000Y185495D01*
X95002Y185495D01*
Y184505D01*
X95000Y184505D01*
X94567Y184484D01*
X94137Y184422D01*
X93716Y184318D01*
X93306Y184175D01*
X93200Y184122D01*
X93104Y184053D01*
X93019Y183970D01*
X92949Y183875D01*
X92894Y183769D01*
X92857Y183657D01*
X92837Y183540D01*
X92836Y183421D01*
X92854Y183304D01*
X92890Y183191D01*
X92943Y183085D01*
X93012Y182988D01*
X93095Y182904D01*
X93191Y182833D01*
X93296Y182779D01*
X93408Y182741D01*
X93525Y182722D01*
X93644Y182721D01*
X93761Y182739D01*
X93874Y182777D01*
X94145Y182876D01*
X94425Y182944D01*
X94711Y182986D01*
X95000Y183000D01*
X95002Y183000D01*
Y177000D01*
X95000Y177000D01*
X94711Y177014D01*
X94425Y177056D01*
X94145Y177124D01*
X93872Y177220D01*
X93761Y177258D01*
X93644Y177275D01*
X93526Y177275D01*
X93409Y177255D01*
X93297Y177218D01*
X93193Y177164D01*
X93098Y177094D01*
X93015Y177009D01*
X92946Y176913D01*
X92893Y176808D01*
X92857Y176695D01*
X92840Y176579D01*
X92841Y176461D01*
X92860Y176344D01*
X92897Y176232D01*
X92952Y176127D01*
X93022Y176032D01*
X93106Y175949D01*
X93202Y175881D01*
X93308Y175830D01*
X93716Y175682D01*
X94137Y175578D01*
X94567Y175516D01*
X95000Y175495D01*
X95002Y175495D01*
Y174505D01*
X95000Y174505D01*
X94567Y174484D01*
X94137Y174422D01*
X93716Y174318D01*
X93306Y174175D01*
X93200Y174122D01*
X93104Y174053D01*
X93019Y173970D01*
X92949Y173875D01*
X92894Y173769D01*
X92857Y173657D01*
X92837Y173540D01*
X92836Y173421D01*
X92854Y173304D01*
X92890Y173191D01*
X92943Y173085D01*
X93012Y172988D01*
X93095Y172904D01*
X93191Y172833D01*
X93296Y172779D01*
X93408Y172741D01*
X93525Y172722D01*
X93644Y172721D01*
X93761Y172739D01*
X93874Y172777D01*
X94145Y172876D01*
X94425Y172944D01*
X94711Y172986D01*
X95000Y173000D01*
X95002Y173000D01*
Y167000D01*
X95000Y167000D01*
X94711Y167014D01*
X94425Y167056D01*
X94145Y167124D01*
X93872Y167220D01*
X93761Y167258D01*
X93644Y167275D01*
X93526Y167275D01*
X93409Y167255D01*
X93297Y167218D01*
X93193Y167164D01*
X93098Y167094D01*
X93015Y167009D01*
X92946Y166913D01*
X92893Y166808D01*
X92857Y166695D01*
X92840Y166579D01*
X92841Y166461D01*
X92860Y166344D01*
X92897Y166232D01*
X92952Y166127D01*
X93022Y166032D01*
X93106Y165949D01*
X93202Y165881D01*
X93308Y165830D01*
X93716Y165682D01*
X94137Y165578D01*
X94567Y165516D01*
X95000Y165495D01*
X95002Y165495D01*
Y164514D01*
X95000Y164514D01*
X94294Y164458D01*
X93605Y164293D01*
X92951Y164022D01*
X92347Y163652D01*
X91808Y163192D01*
X91387Y162698D01*
Y167849D01*
X91460Y167837D01*
X91579Y167836D01*
X91696Y167854D01*
X91809Y167890D01*
X91915Y167943D01*
X92012Y168012D01*
X92096Y168095D01*
X92167Y168191D01*
X92221Y168296D01*
X92259Y168408D01*
X92278Y168525D01*
X92279Y168644D01*
X92261Y168761D01*
X92223Y168874D01*
X92124Y169145D01*
X92056Y169425D01*
X92014Y169711D01*
X92000Y170000D01*
X92014Y170289D01*
X92056Y170575D01*
X92124Y170855D01*
X92220Y171128D01*
X92258Y171239D01*
X92275Y171356D01*
X92275Y171474D01*
X92255Y171591D01*
X92218Y171703D01*
X92164Y171807D01*
X92094Y171902D01*
X92009Y171985D01*
X91913Y172054D01*
X91808Y172107D01*
X91695Y172143D01*
X91579Y172160D01*
X91461Y172159D01*
X91387Y172147D01*
Y177849D01*
X91460Y177837D01*
X91579Y177836D01*
X91696Y177854D01*
X91809Y177890D01*
X91915Y177943D01*
X92012Y178012D01*
X92096Y178095D01*
X92167Y178191D01*
X92221Y178296D01*
X92259Y178408D01*
X92278Y178525D01*
X92279Y178644D01*
X92261Y178761D01*
X92223Y178874D01*
X92124Y179145D01*
X92056Y179425D01*
X92014Y179711D01*
X92000Y180000D01*
X92014Y180289D01*
X92056Y180575D01*
X92124Y180855D01*
X92220Y181128D01*
X92258Y181239D01*
X92275Y181356D01*
X92275Y181474D01*
X92255Y181591D01*
X92218Y181703D01*
X92164Y181807D01*
X92094Y181902D01*
X92009Y181985D01*
X91913Y182054D01*
X91808Y182107D01*
X91695Y182143D01*
X91579Y182160D01*
X91461Y182159D01*
X91387Y182147D01*
Y187849D01*
X91460Y187837D01*
X91579Y187836D01*
X91696Y187854D01*
X91809Y187890D01*
X91915Y187943D01*
X92012Y188012D01*
X92096Y188095D01*
X92167Y188191D01*
X92221Y188296D01*
X92259Y188408D01*
X92278Y188525D01*
X92279Y188644D01*
X92261Y188761D01*
X92223Y188874D01*
X92124Y189145D01*
X92056Y189425D01*
X92014Y189711D01*
X92000Y190000D01*
X92014Y190289D01*
X92056Y190575D01*
X92124Y190855D01*
X92220Y191128D01*
X92258Y191239D01*
X92275Y191356D01*
X92275Y191474D01*
X92255Y191591D01*
X92218Y191703D01*
X92164Y191807D01*
X92094Y191902D01*
X92009Y191985D01*
X91913Y192054D01*
X91808Y192107D01*
X91695Y192143D01*
X91579Y192160D01*
X91461Y192159D01*
X91387Y192147D01*
Y197302D01*
G37*
G36*
Y218113D02*X95002Y214498D01*
Y204514D01*
X95000Y204514D01*
X94294Y204458D01*
X93605Y204293D01*
X92951Y204022D01*
X92347Y203652D01*
X91808Y203192D01*
X91387Y202698D01*
Y218113D01*
G37*
G36*
X95002Y154514D02*X95000Y154514D01*
X94294Y154458D01*
X93605Y154293D01*
X92951Y154022D01*
X92347Y153652D01*
X91808Y153192D01*
X91387Y152698D01*
Y157302D01*
X91808Y156808D01*
X92347Y156348D01*
X92951Y155978D01*
X93605Y155707D01*
X94294Y155542D01*
X95000Y155486D01*
X95002Y155486D01*
Y154514D01*
G37*
G36*
X91387Y152698D02*X91348Y152653D01*
X90978Y152049D01*
X90751Y151500D01*
X90383D01*
X88000Y153883D01*
Y212096D01*
X88018Y212126D01*
X88209Y212534D01*
X88364Y212956D01*
X88481Y213391D01*
X88559Y213834D01*
X88598Y214283D01*
Y214733D01*
X88559Y215181D01*
X88481Y215625D01*
X88364Y216059D01*
X88209Y216482D01*
X88018Y216890D01*
X88000Y216921D01*
Y221500D01*
X91387Y218113D01*
Y202698D01*
X91348Y202653D01*
X90978Y202049D01*
X90707Y201395D01*
X90542Y200706D01*
X90486Y200000D01*
X90542Y199294D01*
X90707Y198605D01*
X90978Y197951D01*
X91348Y197347D01*
X91387Y197302D01*
Y192147D01*
X91344Y192140D01*
X91232Y192103D01*
X91127Y192048D01*
X91032Y191978D01*
X90949Y191894D01*
X90881Y191798D01*
X90830Y191692D01*
X90682Y191284D01*
X90578Y190863D01*
X90516Y190433D01*
X90495Y190000D01*
X90516Y189567D01*
X90578Y189137D01*
X90682Y188716D01*
X90825Y188306D01*
X90878Y188200D01*
X90947Y188104D01*
X91030Y188019D01*
X91125Y187949D01*
X91231Y187894D01*
X91343Y187857D01*
X91387Y187849D01*
Y182147D01*
X91344Y182140D01*
X91232Y182103D01*
X91127Y182048D01*
X91032Y181978D01*
X90949Y181894D01*
X90881Y181798D01*
X90830Y181692D01*
X90682Y181284D01*
X90578Y180863D01*
X90516Y180433D01*
X90495Y180000D01*
X90516Y179567D01*
X90578Y179137D01*
X90682Y178716D01*
X90825Y178306D01*
X90878Y178200D01*
X90947Y178104D01*
X91030Y178019D01*
X91125Y177949D01*
X91231Y177894D01*
X91343Y177857D01*
X91387Y177849D01*
Y172147D01*
X91344Y172140D01*
X91232Y172103D01*
X91127Y172048D01*
X91032Y171978D01*
X90949Y171894D01*
X90881Y171798D01*
X90830Y171692D01*
X90682Y171284D01*
X90578Y170863D01*
X90516Y170433D01*
X90495Y170000D01*
X90516Y169567D01*
X90578Y169137D01*
X90682Y168716D01*
X90825Y168306D01*
X90878Y168200D01*
X90947Y168104D01*
X91030Y168019D01*
X91125Y167949D01*
X91231Y167894D01*
X91343Y167857D01*
X91387Y167849D01*
Y162698D01*
X91348Y162653D01*
X90978Y162049D01*
X90707Y161395D01*
X90542Y160706D01*
X90486Y160000D01*
X90542Y159294D01*
X90707Y158605D01*
X90978Y157951D01*
X91348Y157347D01*
X91387Y157302D01*
Y152698D01*
G37*
G36*
X95002Y144514D02*X95000Y144514D01*
X94294Y144458D01*
X93605Y144293D01*
X92951Y144022D01*
X92347Y143652D01*
X91808Y143192D01*
X91348Y142653D01*
X90978Y142049D01*
X90751Y141500D01*
X88000D01*
Y149640D01*
X88660Y148981D01*
X88698Y148936D01*
X88877Y148783D01*
X88877Y148783D01*
X89079Y148659D01*
X89079Y148659D01*
X89297Y148569D01*
X89526Y148514D01*
X89762Y148495D01*
X89821Y148500D01*
X90751D01*
X90978Y147951D01*
X91348Y147347D01*
X91808Y146808D01*
X92347Y146348D01*
X92951Y145978D01*
X93605Y145707D01*
X94294Y145542D01*
X95000Y145486D01*
X95002Y145486D01*
Y144514D01*
G37*
G36*
Y124514D02*X95000Y124514D01*
X94294Y124458D01*
X93605Y124293D01*
X93056Y124065D01*
X88000Y129121D01*
Y138500D01*
X90751D01*
X90978Y137951D01*
X91348Y137347D01*
X91808Y136808D01*
X92347Y136348D01*
X92951Y135978D01*
X93605Y135707D01*
X94294Y135542D01*
X95000Y135486D01*
X95002Y135486D01*
Y134514D01*
X95000Y134514D01*
X94294Y134458D01*
X93605Y134293D01*
X92951Y134022D01*
X92347Y133652D01*
X91808Y133192D01*
X91348Y132653D01*
X90978Y132049D01*
X90707Y131395D01*
X90542Y130706D01*
X90486Y130000D01*
X90542Y129294D01*
X90707Y128605D01*
X90978Y127951D01*
X91348Y127347D01*
X91808Y126808D01*
X92347Y126348D01*
X92951Y125978D01*
X93605Y125707D01*
X94294Y125542D01*
X95000Y125486D01*
X95002Y125486D01*
Y124514D01*
G37*
G36*
Y104514D02*X95000Y104514D01*
X94294Y104458D01*
X93803Y104340D01*
X88000Y110143D01*
Y124879D01*
X90935Y121944D01*
X90707Y121395D01*
X90542Y120706D01*
X90486Y120000D01*
X90542Y119294D01*
X90707Y118605D01*
X90978Y117951D01*
X91348Y117347D01*
X91808Y116808D01*
X92347Y116348D01*
X92951Y115978D01*
X93605Y115707D01*
X94294Y115542D01*
X95000Y115486D01*
X95002Y115486D01*
Y114514D01*
X95000Y114514D01*
X94294Y114458D01*
X93605Y114293D01*
X92951Y114022D01*
X92347Y113652D01*
X91808Y113192D01*
X91348Y112653D01*
X90978Y112049D01*
X90707Y111395D01*
X90542Y110706D01*
X90486Y110000D01*
X90542Y109294D01*
X90707Y108605D01*
X90978Y107951D01*
X91348Y107347D01*
X91808Y106808D01*
X92347Y106348D01*
X92951Y105978D01*
X93605Y105707D01*
X94294Y105542D01*
X95000Y105486D01*
X95002Y105486D01*
Y104514D01*
G37*
G36*
X88000Y68500D02*Y80448D01*
X88097Y80610D01*
X88288Y81018D01*
X88442Y81441D01*
X88559Y81875D01*
X88638Y82319D01*
X88677Y82767D01*
Y83217D01*
X88638Y83666D01*
X88559Y84109D01*
X88442Y84544D01*
X88288Y84966D01*
X88097Y85374D01*
X88000Y85541D01*
Y98254D01*
X91767Y94486D01*
X91765Y94486D01*
X91535Y94431D01*
X91317Y94341D01*
X91116Y94217D01*
X90936Y94064D01*
X90783Y93884D01*
X90659Y93683D01*
X90569Y93465D01*
X90514Y93235D01*
X90500Y93000D01*
X90514Y86765D01*
X90569Y86535D01*
X90659Y86317D01*
X90783Y86116D01*
X90936Y85936D01*
X91116Y85783D01*
X91317Y85659D01*
X91535Y85569D01*
X91765Y85514D01*
X92000Y85500D01*
X95002Y85507D01*
Y75502D01*
X88000Y68500D01*
G37*
G36*
X90487Y100009D02*X88000Y102496D01*
Y105901D01*
X91310Y102591D01*
X90978Y102049D01*
X90707Y101395D01*
X90542Y100706D01*
X90487Y100009D01*
G37*
G54D12*X35000Y60000D02*Y78698D01*
X39093Y82791D01*
Y114849D01*
X30731Y123210D01*
X45000Y130000D02*Y68849D01*
X21535Y82992D02*Y43465D01*
X30000Y35000D01*
Y31535D02*Y35000D01*
X21457Y22992D02*X30000Y31535D01*
X95000Y90000D02*Y94500D01*
X93875D01*
X95000Y101022D02*Y100000D01*
X93875Y94500D02*X70000Y118375D01*
Y120000D01*
X65000Y130000D02*X66022D01*
X95000Y101022D01*
X60000Y120000D02*X64423Y115577D01*
Y67775D01*
X55000Y130000D02*Y75000D01*
X59302Y134302D02*X55000Y130000D01*
X83543Y82992D02*X75000Y91535D01*
Y74449D02*X83543Y82992D01*
X75000Y91535D02*Y95000D01*
X64423Y67775D02*X60000Y63352D01*
Y58790D01*
X55655Y65655D02*X60000Y70000D01*
X55000Y75000D02*X50000Y70000D01*
X45000Y68849D02*X48194Y65655D01*
X60000Y58790D02*X56803Y55593D01*
X49407D01*
X45000Y60000D01*
X48194Y65655D02*X55655D01*
X83465Y22992D02*X75000Y31457D01*
Y74449D02*Y31457D01*
X95000Y120000D02*X80698Y134302D01*
X59302D01*
X95000Y140000D02*X55000D01*
X95000Y150000D02*X89762D01*
X74341Y165420D01*
X55000Y140000D02*X45000Y130000D01*
X40000Y131079D02*X74341Y165420D01*
X54487Y149487D02*X35000Y130000D01*
X54487Y163180D02*X65680D01*
X78796Y206204D02*X95000Y190000D01*
Y170000D01*
X83465Y214508D02*X78796Y209839D01*
Y206204D01*
X78704D01*
X75000Y202500D01*
X30731Y123210D02*Y137506D01*
X44331Y151106D01*
Y169426D01*
X36257Y177500D01*
X35000D01*
X34363Y165637D02*X38137D01*
X40000Y167500D01*
X54487Y149487D02*Y171989D01*
X10000Y190000D02*X34363Y165637D01*
X14501Y145776D02*X34363Y165637D01*
X10000Y90000D02*X14501Y94501D01*
Y145776D01*
X10000Y120000D02*Y100000D01*
X40000Y120000D02*Y131079D01*
X14500Y200000D02*Y198000D01*
X35000Y177500D01*
X10000Y200000D02*X14500D01*
X30000Y202500D02*Y205965D01*
X21457Y214508D01*
X45000Y208806D02*Y177500D01*
X55000Y213768D02*Y177500D01*
X57723Y181757D02*Y217277D01*
X60000Y167500D02*Y179480D01*
X57723Y181757D01*
X74341Y165420D02*Y169350D01*
X66191Y177500D01*
X65000D01*
X65680Y163180D02*X70000Y167500D01*
X65000Y177500D02*X59724Y182776D01*
X50720Y214280D02*Y175756D01*
X54487Y171989D01*
X60000Y240000D02*X53643Y246357D01*
X37349D01*
X50000Y240000D02*X45643Y244357D01*
X38178D01*
X83543Y277008D02*X75000Y268465D01*
Y265000D01*
X37349Y246357D02*X30554Y239562D01*
X38178Y244357D02*X35673Y241852D01*
Y237680D01*
X40000Y233353D01*
Y228768D01*
X45742Y234258D02*X40000Y240000D01*
X30554Y239562D02*Y223251D01*
X30000Y265000D02*X21457Y256457D01*
Y214508D01*
X21535Y277008D02*X30000Y268543D01*
Y265000D01*
X30554Y223251D02*X45000Y208806D01*
X40000Y228768D02*X55000Y213768D01*
X57723Y217277D02*X45000Y230000D01*
X35000D02*X50720Y214280D01*
X59724Y182776D02*Y231319D01*
X56784Y234258D01*
X45742D01*
G54D13*X30000Y202500D03*
Y265000D03*
X75000Y202500D03*
G54D14*X50000Y240000D03*
X40000D03*
G54D15*X83465Y214508D03*
G54D14*X65000Y230000D03*
X55000D03*
X45000D03*
X35000D03*
X70000Y240000D03*
X60000D03*
G54D13*X75000Y265000D03*
G54D15*X83543Y277008D03*
X21535D03*
G54D14*X50000Y167500D03*
X60000D03*
X70000D03*
X55000Y177500D03*
X65000D03*
X40000Y167500D03*
X35000Y177500D03*
X45000D03*
G54D16*X95000Y170000D03*
Y180000D03*
Y190000D03*
Y200000D03*
G54D14*X65000Y130000D03*
X70000Y120000D03*
X60000D03*
X55000Y130000D03*
X50000Y120000D03*
Y70000D03*
X60000D03*
X55000Y60000D03*
X45000Y130000D03*
X40000Y120000D03*
X35000Y130000D03*
G54D13*X30000Y95000D03*
G54D15*X21535Y82992D03*
G54D14*X40000Y70000D03*
X35000Y60000D03*
X45000D03*
G54D13*X75000Y95000D03*
G54D15*X83543Y82992D03*
G54D14*X70000Y70000D03*
X65000Y60000D03*
G54D13*X30000Y35000D03*
X75000D03*
G54D15*X21457Y22992D03*
X83465D03*
G54D11*G36*
X92000Y93000D02*Y87000D01*
X98000D01*
Y93000D01*
X92000D01*
G37*
G54D16*X95000Y100000D03*
Y110000D03*
Y120000D03*
Y130000D03*
Y140000D03*
Y150000D03*
Y160000D03*
G54D15*X21457Y214508D03*
G54D11*G36*
X7000Y203000D02*Y197000D01*
X13000D01*
Y203000D01*
X7000D01*
G37*
G54D16*X10000Y190000D03*
Y180000D03*
Y170000D03*
Y160000D03*
Y150000D03*
Y140000D03*
Y130000D03*
Y120000D03*
Y110000D03*
Y100000D03*
Y90000D03*
G54D17*G54D18*G54D19*G54D18*G54D17*G54D19*G54D18*G54D20*G54D18*G54D17*G54D19*G54D18*G54D17*G54D19*G54D18*G54D17*G54D19*G54D20*G54D19*G54D20*M02*
