G04 start of page 9 for group -4078 idx -4078 *
G04 Title: (unknown), bottomsilk *
G04 Creator: pcb 1.99z *
G04 CreationDate: Sat 29 Oct 2016 01:04:32 AM GMT UTC *
G04 For: commonadmin *
G04 Format: Gerber/RS-274X *
G04 PCB-Dimensions (mil): 2000.00 2000.00 *
G04 PCB-Coordinate-Origin: lower left *
%MOIN*%
%FSLAX25Y25*%
%LNBOTTOMSILK*%
%ADD63C,0.0100*%
%ADD62C,0.0060*%
G54D62*X49100Y107700D02*X49900Y106900D01*
X45600Y107700D02*X49100D01*
X44900Y107000D02*X45600Y107700D01*
X45700Y103700D02*X45000Y104400D01*
X45700Y103700D02*X49200D01*
X49900Y104400D02*X49200Y103700D01*
X49100Y102200D02*X49900Y101400D01*
X45600Y102200D02*X49100D01*
X44900Y101500D02*X45600Y102200D01*
X45700Y98200D02*X45000Y98900D01*
X45700Y98200D02*X49200D01*
X49900Y98900D02*X49200Y98200D01*
X49100Y97200D02*X49900Y96400D01*
X45600Y97200D02*X49100D01*
X44900Y96500D02*X45600Y97200D01*
X45700Y93200D02*X45000Y93900D01*
X45700Y93200D02*X49200D01*
X49900Y93900D02*X49200Y93200D01*
X49100Y91700D02*X49900Y90900D01*
X45600Y91700D02*X49100D01*
X44900Y91000D02*X45600Y91700D01*
X45700Y87700D02*X45000Y88400D01*
X45700Y87700D02*X49200D01*
X49900Y88400D02*X49200Y87700D01*
X49100Y86200D02*X49900Y85400D01*
X45600Y86200D02*X49100D01*
X44900Y85500D02*X45600Y86200D01*
X45700Y82200D02*X45000Y82900D01*
X45700Y82200D02*X49200D01*
X49900Y82900D02*X49200Y82200D01*
X49100Y80700D02*X49900Y79900D01*
X45600Y80700D02*X49100D01*
X44900Y80000D02*X45600Y80700D01*
X45700Y76700D02*X45000Y77400D01*
X45700Y76700D02*X49200D01*
X49900Y77400D02*X49200Y76700D01*
X49100Y75200D02*X49900Y74400D01*
X45600Y75200D02*X49100D01*
X44900Y74500D02*X45600Y75200D01*
X45700Y71200D02*X45000Y71900D01*
X45700Y71200D02*X49200D01*
X49900Y71900D02*X49200Y71200D01*
X49100Y69700D02*X49900Y68900D01*
X45600Y69700D02*X49100D01*
X44900Y69000D02*X45600Y69700D01*
X45700Y65700D02*X45000Y66400D01*
X45700Y65700D02*X49200D01*
X49900Y66400D02*X49200Y65700D01*
G54D63*X68000Y75600D02*Y84800D01*
Y88600D02*Y97900D01*
X56200D02*X68000D01*
X56200Y75600D02*Y97900D01*
Y75600D02*X68000D01*
Y88600D02*G75*G03X68000Y84800I0J-1900D01*G01*
G54D62*X49100Y156700D02*X49900Y155900D01*
X45600Y156700D02*X49100D01*
X44900Y156000D02*X45600Y156700D01*
X45700Y152700D02*X45000Y153400D01*
X45700Y152700D02*X49200D01*
X49900Y153400D02*X49200Y152700D01*
X49100Y183700D02*X49900Y182900D01*
X45600Y183700D02*X49100D01*
X44900Y183000D02*X45600Y183700D01*
X45700Y179700D02*X45000Y180400D01*
X45700Y179700D02*X49200D01*
X49900Y180400D02*X49200Y179700D01*
X49100Y178200D02*X49900Y177400D01*
X45600Y178200D02*X49100D01*
X44900Y177500D02*X45600Y178200D01*
X45700Y174200D02*X45000Y174900D01*
X45700Y174200D02*X49200D01*
X49900Y174900D02*X49200Y174200D01*
X49100Y173200D02*X49900Y172400D01*
X45600Y173200D02*X49100D01*
X44900Y172500D02*X45600Y173200D01*
X45700Y169200D02*X45000Y169900D01*
X45700Y169200D02*X49200D01*
X49900Y169900D02*X49200Y169200D01*
X49100Y167700D02*X49900Y166900D01*
X45600Y167700D02*X49100D01*
X44900Y167000D02*X45600Y167700D01*
X45700Y163700D02*X45000Y164400D01*
X45700Y163700D02*X49200D01*
X49900Y164400D02*X49200Y163700D01*
X49100Y162200D02*X49900Y161400D01*
X45600Y162200D02*X49100D01*
X44900Y161500D02*X45600Y162200D01*
X45700Y158200D02*X45000Y158900D01*
X45700Y158200D02*X49200D01*
X49900Y158900D02*X49200Y158200D01*
X49100Y151200D02*X49900Y150400D01*
X45600Y151200D02*X49100D01*
X44900Y150500D02*X45600Y151200D01*
X45700Y147200D02*X45000Y147900D01*
X45700Y147200D02*X49200D01*
X49900Y147900D02*X49200Y147200D01*
G54D63*X68000Y151600D02*Y160800D01*
Y164600D02*Y173900D01*
X56200D02*X68000D01*
X56200Y151600D02*Y173900D01*
Y151600D02*X68000D01*
Y164600D02*G75*G03X68000Y160800I0J-1900D01*G01*
G54D62*X49100Y145700D02*X49900Y144900D01*
X45600Y145700D02*X49100D01*
X44900Y145000D02*X45600Y145700D01*
X45700Y141700D02*X45000Y142400D01*
X45700Y141700D02*X49200D01*
X49900Y142400D02*X49200Y141700D01*
X130900Y91269D02*X130100Y92069D01*
X130900Y91269D02*X134400D01*
X135100Y91969D02*X134400Y91269D01*
X134300Y95269D02*X135000Y94569D01*
X130800Y95269D02*X134300D01*
X130100Y94569D02*X130800Y95269D01*
X130900Y96769D02*X130100Y97569D01*
X130900Y96769D02*X134400D01*
X135100Y97469D02*X134400Y96769D01*
X134300Y100769D02*X135000Y100069D01*
X130800Y100769D02*X134300D01*
X130100Y100069D02*X130800Y100769D01*
X130900Y102269D02*X130100Y103069D01*
X130900Y102269D02*X134400D01*
X135100Y102969D02*X134400Y102269D01*
X134300Y106269D02*X135000Y105569D01*
X130800Y106269D02*X134300D01*
X130100Y105569D02*X130800Y106269D01*
X130900Y64269D02*X130100Y65069D01*
X130900Y64269D02*X134400D01*
X135100Y64969D02*X134400Y64269D01*
X134300Y68269D02*X135000Y67569D01*
X130800Y68269D02*X134300D01*
X130100Y67569D02*X130800Y68269D01*
X130900Y69769D02*X130100Y70569D01*
X130900Y69769D02*X134400D01*
X135100Y70469D02*X134400Y69769D01*
X134300Y73769D02*X135000Y73069D01*
X130800Y73769D02*X134300D01*
X130100Y73069D02*X130800Y73769D01*
X130900Y74769D02*X130100Y75569D01*
X130900Y74769D02*X134400D01*
X135100Y75469D02*X134400Y74769D01*
X134300Y78769D02*X135000Y78069D01*
X130800Y78769D02*X134300D01*
X130100Y78069D02*X130800Y78769D01*
X130900Y80269D02*X130100Y81069D01*
X130900Y80269D02*X134400D01*
X135100Y80969D02*X134400Y80269D01*
X134300Y84269D02*X135000Y83569D01*
X130800Y84269D02*X134300D01*
X130100Y83569D02*X130800Y84269D01*
X130900Y85769D02*X130100Y86569D01*
X130900Y85769D02*X134400D01*
X135100Y86469D02*X134400Y85769D01*
X134300Y89769D02*X135000Y89069D01*
X130800Y89769D02*X134300D01*
X130100Y89069D02*X130800Y89769D01*
G54D63*X112000Y96369D02*Y87169D01*
Y83369D02*Y74069D01*
X123800D01*
Y96369D02*Y74069D01*
X112000Y96369D02*X123800D01*
X112000Y83369D02*G75*G03X112000Y87169I0J1900D01*G01*
G54D62*X130900Y167269D02*X130100Y168069D01*
X130900Y167269D02*X134400D01*
X135100Y167969D02*X134400Y167269D01*
X134300Y171269D02*X135000Y170569D01*
X130800Y171269D02*X134300D01*
X130100Y170569D02*X130800Y171269D01*
X130900Y172769D02*X130100Y173569D01*
X130900Y172769D02*X134400D01*
X135100Y173469D02*X134400Y172769D01*
X134300Y176769D02*X135000Y176069D01*
X130800Y176769D02*X134300D01*
X130100Y176069D02*X130800Y176769D01*
X130900Y178269D02*X130100Y179069D01*
X130900Y178269D02*X134400D01*
X135100Y178969D02*X134400Y178269D01*
X134300Y182269D02*X135000Y181569D01*
X130800Y182269D02*X134300D01*
X130100Y181569D02*X130800Y182269D01*
X130900Y161769D02*X130100Y162569D01*
X130900Y161769D02*X134400D01*
X135100Y162469D02*X134400Y161769D01*
X134300Y165769D02*X135000Y165069D01*
X130800Y165769D02*X134300D01*
X130100Y165069D02*X130800Y165769D01*
G54D63*X112000Y172369D02*Y163169D01*
Y159369D02*Y150069D01*
X123800D01*
Y172369D02*Y150069D01*
X112000Y172369D02*X123800D01*
X112000Y159369D02*G75*G03X112000Y163169I0J1900D01*G01*
G54D62*X130900Y140269D02*X130100Y141069D01*
X130900Y140269D02*X134400D01*
X135100Y140969D02*X134400Y140269D01*
X134300Y144269D02*X135000Y143569D01*
X130800Y144269D02*X134300D01*
X130100Y143569D02*X130800Y144269D01*
X130900Y145769D02*X130100Y146569D01*
X130900Y145769D02*X134400D01*
X135100Y146469D02*X134400Y145769D01*
X134300Y149769D02*X135000Y149069D01*
X130800Y149769D02*X134300D01*
X130100Y149069D02*X130800Y149769D01*
X130900Y150769D02*X130100Y151569D01*
X130900Y150769D02*X134400D01*
X135100Y151469D02*X134400Y150769D01*
X134300Y154769D02*X135000Y154069D01*
X130800Y154769D02*X134300D01*
X130100Y154069D02*X130800Y154769D01*
X130900Y156269D02*X130100Y157069D01*
X130900Y156269D02*X134400D01*
X135100Y156969D02*X134400Y156269D01*
X134300Y160269D02*X135000Y159569D01*
X130800Y160269D02*X134300D01*
X130100Y159569D02*X130800Y160269D01*
M02*
