M48
INCH
T35C0.038
T34C0.063
T33C0.035
T32C0.128
%
T33
X003500Y023000
X003500Y017750
X003500Y013000
X003500Y006000
X004000Y024000
X004000Y016750
X004000Y012000
X004000Y007000
X004500Y023000
X004500Y017750
X004500Y013000
X004500Y006000
X005000Y024000
X005000Y016750
X005000Y012000
X005000Y007000
X005500Y023000
X005500Y017750
X005500Y013000
X005500Y006000
X006000Y024000
X006000Y016750
X006000Y012000
X006000Y007000
X006500Y023000
X006500Y017750
X006500Y013000
X006500Y006000
X007000Y024000
X007000Y016750
X007000Y012000
X007000Y007000
T35
X001000Y020000
X001000Y019000
X001000Y018000
X001000Y017000
X001000Y016000
X001000Y015000
X001000Y014000
X001000Y013000
X001000Y012000
X001000Y011000
X001000Y010000
X001000Y009000
X009500Y020000
X009500Y019000
X009500Y018000
X009500Y017000
X009500Y016000
X009500Y015000
X009500Y014000
X009500Y013000
X009500Y012000
X009500Y011000
X009500Y010000
X009500Y009000
T34
X002146Y021451
X002146Y002299
X002154Y027701
X002154Y008299
X008346Y021451
X008346Y002299
X008354Y027701
X008354Y008299
T32
X003000Y026500
X003000Y020250
X003000Y009500
X003000Y003500
X007500Y026500
X007500Y020250
X007500Y009500
X007500Y003500
M30
