G04 start of page 8 for group -4079 idx -4079 *
G04 Title: (unknown), topsilk *
G04 Creator: pcb 1.99z *
G04 CreationDate: Sat Nov 14 22:14:47 2015 UTC *
G04 For: commonadmin *
G04 Format: Gerber/RS-274X *
G04 PCB-Dimensions (mil): 1075.00 2975.00 *
G04 PCB-Coordinate-Origin: lower left *
%MOIN*%
%FSLAX25Y25*%
%LNTOPSILK*%
%ADD49C,0.0040*%
%ADD48C,0.0030*%
%ADD47C,0.0060*%
%ADD46C,0.0100*%
G54D46*X17298Y296535D02*X87770D01*
X17298D02*Y253031D01*
X87770Y296535D02*Y253031D01*
Y253070D02*Y224094D01*
X17298D02*X32219D01*
X17298Y253070D02*Y224094D01*
X73991D02*X87770D01*
X30014D02*X75014D01*
G54D47*X70802Y239251D02*X69227Y240826D01*
X70802D02*X69227Y239251D01*
G54D46*X17230Y46930D02*Y75906D01*
X31009D01*
G54D47*X34198Y60749D02*X35773Y59174D01*
X34198D02*X35773Y60749D01*
G54D46*X17230Y3465D02*X87702D01*
X17230Y46969D02*Y3465D01*
X87702Y46969D02*Y3465D01*
Y75906D02*X72781D01*
X87702Y46930D02*Y75906D01*
X29986D02*X74986D01*
G54D48*X82451Y231930D02*X83951D01*
X83201Y234930D02*Y231930D01*
X80051D02*X81551D01*
Y233430D02*Y231930D01*
Y233430D02*X81176Y233055D01*
X80426D02*X81176D01*
X80426D02*X80051Y233430D01*
Y234555D02*Y233430D01*
X80426Y234930D02*X80051Y234555D01*
X80426Y234930D02*X81176D01*
X81551Y234555D02*X81176Y234930D01*
X78026Y231930D02*X77651Y232305D01*
X78026Y231930D02*X78776D01*
X79151Y232305D02*X78776Y231930D01*
X79151Y234555D02*Y232305D01*
Y234555D02*X78776Y234930D01*
X78026Y233280D02*X77651Y233655D01*
X78026Y233280D02*X79151D01*
X78026Y234930D02*X78776D01*
X78026D02*X77651Y234555D01*
Y233655D01*
X76751Y234555D02*X76376Y234930D01*
X76751Y234555D02*Y233955D01*
X76226Y233430D01*
X75776D02*X76226D01*
X75776D02*X75251Y233955D01*
Y234555D02*Y233955D01*
X75626Y234930D02*X75251Y234555D01*
X75626Y234930D02*X76376D01*
X76751Y232905D02*X76226Y233430D01*
X76751Y232905D02*Y232305D01*
X76376Y231930D01*
X75626D02*X76376D01*
X75626D02*X75251Y232305D01*
Y232905D02*Y232305D01*
X75776Y233430D02*X75251Y232905D01*
X74351Y234930D02*Y232680D01*
X73826Y231930D01*
X73001D02*X73826D01*
X73001D02*X72476Y232680D01*
Y234930D02*Y232680D01*
Y233430D02*X74351D01*
X41638Y244547D02*X38638Y246047D01*
Y244172D01*
X41263Y246947D02*X39013Y249197D01*
X38638Y250097D02*X40138D01*
X41638Y250472D01*
X40138Y251222D01*
X41638Y251972D01*
X40138Y252347D01*
X38638D02*X40138D01*
X41638Y254747D02*Y253247D01*
Y254747D02*X41263Y255122D01*
X40363D02*X41263D01*
X39988Y254747D02*X40363Y255122D01*
X39988Y254747D02*Y253622D01*
X38638D02*X41638D01*
X38638Y254747D02*Y253247D01*
Y254747D02*X39013Y255122D01*
X39613D01*
X39988Y254747D02*X39613Y255122D01*
X40513Y256397D02*X41638D01*
X40513D02*X40138Y256772D01*
Y257522D02*Y256772D01*
Y256022D02*X40513Y256397D01*
X36145Y234330D02*X36520Y234705D01*
X35545Y234330D02*X36145D01*
X35545D02*X35020Y234855D01*
Y235305D02*Y234855D01*
Y235305D02*X35545Y235830D01*
X36145D01*
X36520Y235455D02*X36145Y235830D01*
X36520Y235455D02*Y234705D01*
X34495Y234330D02*X35020Y234855D01*
X33895Y234330D02*X34495D01*
X33895D02*X33520Y234705D01*
Y235455D02*Y234705D01*
Y235455D02*X33895Y235830D01*
X34495D01*
X35020Y235305D02*X34495Y235830D01*
X36145Y236730D02*X33895Y238980D01*
X36520Y241380D02*Y239880D01*
Y241380D02*X36145Y241755D01*
X35245D02*X36145D01*
X34870Y241380D02*X35245Y241755D01*
X34870Y241380D02*Y240255D01*
X33520D02*X36520D01*
X33520Y241380D02*Y239880D01*
Y241380D02*X33895Y241755D01*
X34495D01*
X34870Y241380D02*X34495Y241755D01*
X35395Y243030D02*X36520D01*
X35395D02*X35020Y243405D01*
Y244155D02*Y243405D01*
Y242655D02*X35395Y243030D01*
X43756Y235455D02*X44131Y235830D01*
X43756Y235455D02*Y234705D01*
X44131Y234330D02*X43756Y234705D01*
X44131Y234330D02*X46381D01*
X46756Y234705D01*
X45106Y235455D02*X45481Y235830D01*
X45106Y235455D02*Y234330D01*
X46756Y235455D02*Y234705D01*
Y235455D02*X46381Y235830D01*
X45481D02*X46381D01*
Y236730D02*X44131Y238980D01*
Y239880D02*X46381D01*
X44131D02*X43756Y240255D01*
Y241005D02*Y240255D01*
Y241005D02*X44131Y241380D01*
X46381D01*
X46756Y241005D02*X46381Y241380D01*
X46756Y241005D02*Y240255D01*
X46381Y239880D02*X46756Y240255D01*
X48087Y245672D02*Y244172D01*
X49587D01*
X49212Y244547D01*
Y245297D02*Y244547D01*
Y245297D02*X49587Y245672D01*
X50712D01*
X51087Y245297D02*X50712Y245672D01*
X51087Y245297D02*Y244547D01*
X50712Y244172D02*X51087Y244547D01*
X50712Y246572D02*X48462Y248822D01*
X48087Y249722D02*X49587D01*
X51087Y250097D01*
X49587Y250847D01*
X51087Y251597D01*
X49587Y251972D01*
X48087D02*X49587D01*
X51087Y254372D02*Y252872D01*
Y254372D02*X50712Y254747D01*
X49812D02*X50712D01*
X49437Y254372D02*X49812Y254747D01*
X49437Y254372D02*Y253247D01*
X48087D02*X51087D01*
X48087Y254372D02*Y252872D01*
Y254372D02*X48462Y254747D01*
X49062D01*
X49437Y254372D02*X49062Y254747D01*
X48087Y255647D02*X50712D01*
X51087Y256022D01*
X55474Y233936D02*X53599Y235436D01*
X55474Y235811D02*Y233936D01*
X53599Y235436D02*X56599D01*
X56224Y236711D02*X53974Y238961D01*
X56599Y241361D02*Y239861D01*
Y241361D02*X56224Y241736D01*
X55324D02*X56224D01*
X54949Y241361D02*X55324Y241736D01*
X54949Y241361D02*Y240236D01*
X53599D02*X56599D01*
X53599Y241361D02*Y239861D01*
Y241361D02*X53974Y241736D01*
X54574D01*
X54949Y241361D02*X54574Y241736D01*
X53599Y242636D02*X56224D01*
X56599Y243011D01*
X58698Y244172D02*X58323Y244547D01*
Y245297D02*Y244547D01*
Y245297D02*X58698Y245672D01*
X61323Y245297D02*X60948Y245672D01*
X61323Y245297D02*Y244547D01*
X60948Y244172D02*X61323Y244547D01*
X59673Y245297D02*Y244547D01*
X58698Y245672D02*X59298D01*
X60048D02*X60948D01*
X60048D02*X59673Y245297D01*
X59298Y245672D02*X59673Y245297D01*
X60948Y246572D02*X58698Y248822D01*
X58323Y249722D02*X59823D01*
X61323Y250097D01*
X59823Y250847D01*
X61323Y251597D01*
X59823Y251972D01*
X58323D02*X59823D01*
X58698Y252872D02*X60948D01*
X58698D02*X58323Y253247D01*
Y253997D02*Y253247D01*
Y253997D02*X58698Y254372D01*
X60948D01*
X61323Y253997D02*X60948Y254372D01*
X61323Y253997D02*Y253247D01*
X60948Y252872D02*X61323Y253247D01*
X63816Y233936D02*X63441Y234311D01*
Y235436D02*Y234311D01*
Y235436D02*X63816Y235811D01*
X64566D01*
X66441Y233936D02*X64566Y235811D01*
X66441D02*Y233936D01*
X66066Y236711D02*X63816Y238961D01*
X63441Y241361D02*X63816Y241736D01*
X63441Y241361D02*Y240236D01*
X63816Y239861D02*X63441Y240236D01*
X63816Y239861D02*X66066D01*
X66441Y240236D01*
Y241361D02*Y240236D01*
Y241361D02*X66066Y241736D01*
X65316D02*X66066D01*
X64941Y241361D02*X65316Y241736D01*
X64941Y241361D02*Y240611D01*
X69159Y244566D02*X68559Y245166D01*
X71559D01*
Y245691D02*Y244566D01*
X71184Y246591D02*X68934Y248841D01*
X68559Y249741D02*X70059D01*
X71559Y250116D01*
X70059Y250866D01*
X71559Y251616D01*
X70059Y251991D01*
X68559D02*X70059D01*
X68559Y254391D02*X68934Y254766D01*
X68559Y254391D02*Y253266D01*
X68934Y252891D02*X68559Y253266D01*
X68934Y252891D02*X71184D01*
X71559Y253266D01*
Y254391D02*Y253266D01*
Y254391D02*X71184Y254766D01*
X70434D02*X71184D01*
X70059Y254391D02*X70434Y254766D01*
X70059Y254391D02*Y253641D01*
X63362Y55453D02*X66362Y53953D01*
Y55828D02*Y53953D01*
X63737Y53053D02*X65987Y50803D01*
X64862Y49903D02*X66362D01*
X64862D02*X63362Y49528D01*
X64862Y48778D01*
X63362Y48028D01*
X64862Y47653D01*
X66362D01*
X63362Y46753D02*Y45253D01*
X63737Y44878D01*
X64637D01*
X65012Y45253D02*X64637Y44878D01*
X65012Y46378D02*Y45253D01*
X63362Y46378D02*X66362D01*
Y46753D02*Y45253D01*
X65987Y44878D01*
X65387D02*X65987D01*
X65012Y45253D02*X65387Y44878D01*
X63362Y43603D02*X64487D01*
X64862Y43228D01*
Y42478D01*
Y43978D02*X64487Y43603D01*
X68855Y65670D02*X68480Y65295D01*
X68855Y65670D02*X69455D01*
X69980Y65145D01*
Y64695D01*
X69455Y64170D01*
X68855D02*X69455D01*
X68480Y64545D02*X68855Y64170D01*
X68480Y65295D02*Y64545D01*
X70505Y65670D02*X69980Y65145D01*
X70505Y65670D02*X71105D01*
X71480Y65295D01*
Y64545D01*
X71105Y64170D01*
X70505D02*X71105D01*
X69980Y64695D02*X70505Y64170D01*
X68855Y63270D02*X71105Y61020D01*
X68480Y60120D02*Y58620D01*
X68855Y58245D01*
X69755D01*
X70130Y58620D02*X69755Y58245D01*
X70130Y59745D02*Y58620D01*
X68480Y59745D02*X71480D01*
Y60120D02*Y58620D01*
X71105Y58245D01*
X70505D02*X71105D01*
X70130Y58620D02*X70505Y58245D01*
X68480Y56970D02*X69605D01*
X69980Y56595D01*
Y55845D01*
Y57345D02*X69605Y56970D01*
X61244Y64545D02*X60869Y64170D01*
X61244Y65295D02*Y64545D01*
X60869Y65670D02*X61244Y65295D01*
X58619Y65670D02*X60869D01*
X58619D02*X58244Y65295D01*
X59894Y64545D02*X59519Y64170D01*
X59894Y65670D02*Y64545D01*
X58244Y65295D02*Y64545D01*
X58619Y64170D01*
X59519D01*
X58619Y63270D02*X60869Y61020D01*
X58619Y60120D02*X60869D01*
X61244Y59745D01*
Y58995D01*
X60869Y58620D01*
X58619D02*X60869D01*
X58244Y58995D02*X58619Y58620D01*
X58244Y59745D02*Y58995D01*
X58619Y60120D02*X58244Y59745D01*
X56913Y55828D02*Y54328D01*
X55413Y55828D02*X56913D01*
X55413D02*X55788Y55453D01*
Y54703D01*
X55413Y54328D01*
X54288D02*X55413D01*
X53913Y54703D02*X54288Y54328D01*
X53913Y55453D02*Y54703D01*
X54288Y55828D02*X53913Y55453D01*
X54288Y53428D02*X56538Y51178D01*
X55413Y50278D02*X56913D01*
X55413D02*X53913Y49903D01*
X55413Y49153D01*
X53913Y48403D01*
X55413Y48028D01*
X56913D01*
X53913Y47128D02*Y45628D01*
X54288Y45253D01*
X55188D01*
X55563Y45628D02*X55188Y45253D01*
X55563Y46753D02*Y45628D01*
X53913Y46753D02*X56913D01*
Y47128D02*Y45628D01*
X56538Y45253D01*
X55938D02*X56538D01*
X55563Y45628D02*X55938Y45253D01*
X54288Y44353D02*X56913D01*
X54288D02*X53913Y43978D01*
X49526Y66064D02*X51401Y64564D01*
X49526Y66064D02*Y64189D01*
X48401Y64564D02*X51401D01*
X48776Y63289D02*X51026Y61039D01*
X48401Y60139D02*Y58639D01*
X48776Y58264D01*
X49676D01*
X50051Y58639D02*X49676Y58264D01*
X50051Y59764D02*Y58639D01*
X48401Y59764D02*X51401D01*
Y60139D02*Y58639D01*
X51026Y58264D01*
X50426D02*X51026D01*
X50051Y58639D02*X50426Y58264D01*
X48776Y57364D02*X51401D01*
X48776D02*X48401Y56989D01*
X46302Y55828D02*X46677Y55453D01*
Y54703D01*
X46302Y54328D01*
X43677Y54703D02*X44052Y54328D01*
X43677Y55453D02*Y54703D01*
X44052Y55828D02*X43677Y55453D01*
X45327D02*Y54703D01*
X45702Y54328D02*X46302D01*
X44052D02*X44952D01*
X45327Y54703D01*
X45702Y54328D02*X45327Y54703D01*
X44052Y53428D02*X46302Y51178D01*
X45177Y50278D02*X46677D01*
X45177D02*X43677Y49903D01*
X45177Y49153D01*
X43677Y48403D01*
X45177Y48028D01*
X46677D01*
X44052Y47128D02*X46302D01*
X46677Y46753D01*
Y46003D01*
X46302Y45628D01*
X44052D02*X46302D01*
X43677Y46003D02*X44052Y45628D01*
X43677Y46753D02*Y46003D01*
X44052Y47128D02*X43677Y46753D01*
X21049Y68070D02*X22549D01*
X21799D02*Y65070D01*
X23449Y68070D02*X24949D01*
X23449D02*Y66570D01*
X23824Y66945D01*
X24574D01*
X24949Y66570D01*
Y65445D01*
X24574Y65070D02*X24949Y65445D01*
X23824Y65070D02*X24574D01*
X23449Y65445D02*X23824Y65070D01*
X26974Y68070D02*X27349Y67695D01*
X26224Y68070D02*X26974D01*
X25849Y67695D02*X26224Y68070D01*
X25849Y67695D02*Y65445D01*
X26224Y65070D01*
X26974Y66720D02*X27349Y66345D01*
X25849Y66720D02*X26974D01*
X26224Y65070D02*X26974D01*
X27349Y65445D01*
Y66345D02*Y65445D01*
X28249D02*X28624Y65070D01*
X28249Y66045D02*Y65445D01*
Y66045D02*X28774Y66570D01*
X29224D01*
X29749Y66045D01*
Y65445D01*
X29374Y65070D02*X29749Y65445D01*
X28624Y65070D02*X29374D01*
X28249Y67095D02*X28774Y66570D01*
X28249Y67695D02*Y67095D01*
Y67695D02*X28624Y68070D01*
X29374D01*
X29749Y67695D01*
Y67095D01*
X29224Y66570D02*X29749Y67095D01*
X30649Y67320D02*Y65070D01*
Y67320D02*X31174Y68070D01*
X31999D01*
X32524Y67320D01*
Y65070D01*
X30649Y66570D02*X32524D01*
X41184Y66064D02*X41559Y65689D01*
Y64564D01*
X41184Y64189D01*
X40434D02*X41184D01*
X38559Y66064D02*X40434Y64189D01*
X38559Y66064D02*Y64189D01*
X38934Y63289D02*X41184Y61039D01*
X41559Y58639D02*X41184Y58264D01*
X41559Y59764D02*Y58639D01*
X41184Y60139D02*X41559Y59764D01*
X38934Y60139D02*X41184D01*
X38934D02*X38559Y59764D01*
Y58639D01*
X38934Y58264D01*
X39684D01*
X40059Y58639D02*X39684Y58264D01*
X40059Y59389D02*Y58639D01*
X35841Y55434D02*X36441Y54834D01*
X33441D02*X36441D01*
X33441Y55434D02*Y54309D01*
X33816Y53409D02*X36066Y51159D01*
X34941Y50259D02*X36441D01*
X34941D02*X33441Y49884D01*
X34941Y49134D01*
X33441Y48384D01*
X34941Y48009D01*
X36441D01*
Y45609D02*X36066Y45234D01*
X36441Y46734D02*Y45609D01*
X36066Y47109D02*X36441Y46734D01*
X33816Y47109D02*X36066D01*
X33816D02*X33441Y46734D01*
Y45609D01*
X33816Y45234D01*
X34566D01*
X34941Y45609D02*X34566Y45234D01*
X34941Y46359D02*Y45609D01*
G54D46*X30000Y224055D02*X75000D01*
X73976D02*X87756D01*
X17283Y253031D02*Y224055D01*
X32205D01*
X17283Y296496D02*Y252992D01*
X87756Y253031D02*Y224055D01*
Y296496D02*Y252992D01*
X17283Y296496D02*X87756D01*
X30000Y75945D02*X75000D01*
X17244D02*X31024D01*
X87717Y46969D02*Y75945D01*
X72795D01*
X87717Y47008D02*Y3504D01*
X17244Y46969D02*Y75945D01*
Y47008D02*Y3504D01*
X87717D01*
X100000Y205000D02*Y85000D01*
X90000Y205000D02*X100000D01*
X90000D02*Y85000D01*
X100000D01*
X90000Y95000D02*X100000D01*
X90000D02*Y85000D01*
X5000Y205000D02*Y85000D01*
X15000D01*
Y205000D01*
X5000D01*
Y195000D02*X15000D01*
Y205000D01*
G54D49*X63500Y276000D02*X64300D01*
X63500Y279500D02*Y276000D01*
X64000Y280000D02*X63500Y279500D01*
X64000Y280000D02*X64500D01*
X65000Y279500D02*X64500Y280000D01*
X65000Y279500D02*Y279000D01*
X62300Y276500D02*X61800Y276000D01*
X60300D02*X61800D01*
X60300D02*X59800Y276500D01*
Y277500D02*Y276500D01*
X62300Y280000D02*X59800Y277500D01*
Y280000D02*X62300D01*
X40700Y24000D02*X41500D01*
Y20500D01*
X41000Y20000D02*X41500Y20500D01*
X40500Y20000D02*X41000D01*
X40000Y20500D02*X40500Y20000D01*
X40000Y21000D02*Y20500D01*
X42700D02*X43200Y20000D01*
X42700Y23500D02*Y20500D01*
Y23500D02*X43200Y24000D01*
X44200D01*
X44700Y23500D01*
Y20500D01*
X44200Y20000D02*X44700Y20500D01*
X43200Y20000D02*X44200D01*
X42700Y21000D02*X44700Y23000D01*
X93500Y77000D02*Y75000D01*
Y76000D02*X97500D01*
X94000Y78200D02*X93500Y78700D01*
Y80200D02*Y78700D01*
Y80200D02*X94000Y80700D01*
X95000D01*
X97500Y78200D02*X95000Y80700D01*
X97500D02*Y78200D01*
X11500Y212500D02*Y210500D01*
X7500Y211500D02*X11500D01*
X10700Y209300D02*X11500Y208500D01*
X7500D02*X11500D01*
X7500Y209300D02*Y207800D01*
M02*
