G04 start of page 9 for group -4078 idx -4078 *
G04 Title: (unknown), bottomsilk *
G04 Creator: pcb 1.99z *
G04 CreationDate: Sat Nov 14 22:14:47 2015 UTC *
G04 For: commonadmin *
G04 Format: Gerber/RS-274X *
G04 PCB-Dimensions (mil): 1075.00 2975.00 *
G04 PCB-Coordinate-Origin: lower left *
%MOIN*%
%FSLAX25Y25*%
%LNBOTTOMSILK*%
%ADD51C,0.0040*%
%ADD50C,0.0100*%
G54D50*X30000Y161555D02*X75000D01*
X17244D02*X31024D01*
X87717Y190531D02*Y161555D01*
X72795D02*X87717D01*
Y233996D02*Y190492D01*
X17244Y190531D02*Y161555D01*
Y233996D02*Y190492D01*
Y233996D02*X87717D01*
X30000Y135945D02*X75000D01*
X73976D02*X87756D01*
X17283D02*Y106969D01*
Y135945D02*X32205D01*
X17283Y107008D02*Y63504D01*
X87756Y135945D02*Y106969D01*
Y107008D02*Y63504D01*
X17283D02*X87756D01*
G54D51*X45700Y213500D02*X46500D01*
Y217000D01*
X46000Y217500D02*X46500Y217000D01*
X45500Y217500D02*X46000D01*
X45000Y217000D02*X45500Y217500D01*
X45000Y216500D02*Y217000D01*
X47700Y214000D02*X48200Y213500D01*
X49200D01*
X49700Y214000D01*
X49200Y217500D02*X49700Y217000D01*
X48200Y217500D02*X49200D01*
X47700Y217000D02*X48200Y217500D01*
Y215300D02*X49200D01*
X49700Y214000D02*Y214800D01*
Y215800D02*Y217000D01*
Y215800D02*X49200Y215300D01*
X49700Y214800D02*X49200Y215300D01*
X63500Y84000D02*X64300D01*
X63500Y80500D02*Y84000D01*
X64000Y80000D02*X63500Y80500D01*
X64000Y80000D02*X64500D01*
X65000Y80500D02*X64500Y80000D01*
X65000Y80500D02*Y81000D01*
X62300Y83200D02*X61500Y84000D01*
Y80000D02*Y84000D01*
X60800Y80000D02*X62300D01*
M02*
