G04 start of page 12 for group -3984 idx -3984 *
G04 Title: (unknown), fab *
G04 Creator: pcb 1.99z *
G04 CreationDate: Sat Nov 14 22:14:47 2015 UTC *
G04 For: commonadmin *
G04 Format: Gerber/RS-274X *
G04 PCB-Dimensions (mil): 1075.00 2975.00 *
G04 PCB-Coordinate-Origin: lower left *
%MOIN*%
%FSLAX25Y25*%
%LNFAB*%
%ADD55C,0.0100*%
%ADD54C,0.0075*%
%ADD53C,0.0060*%
%ADD52C,0.0080*%
G54D52*X29200Y202500D02*G75*G03X30800Y202500I800J0D01*G01*
G75*G03X29200Y202500I-800J0D01*G01*
X74200D02*G75*G03X75800Y202500I800J0D01*G01*
G75*G03X74200Y202500I-800J0D01*G01*
Y265000D02*G75*G03X75800Y265000I800J0D01*G01*
G75*G03X74200Y265000I-800J0D01*G01*
X29200D02*G75*G03X30800Y265000I800J0D01*G01*
G75*G03X29200Y265000I-800J0D01*G01*
X74200Y95000D02*G75*G03X75800Y95000I800J0D01*G01*
G75*G03X74200Y95000I-800J0D01*G01*
X29200D02*G75*G03X30800Y95000I800J0D01*G01*
G75*G03X29200Y95000I-800J0D01*G01*
Y35000D02*G75*G03X30800Y35000I800J0D01*G01*
G75*G03X29200Y35000I-800J0D01*G01*
X74200D02*G75*G03X75800Y35000I800J0D01*G01*
G75*G03X74200Y35000I-800J0D01*G01*
X14200Y308750D02*G75*G03X15800Y308750I800J0D01*G01*
G75*G03X14200Y308750I-800J0D01*G01*
G54D53*X135000Y311000D02*X136500Y308000D01*
X138000Y311000D01*
X136500Y308000D02*Y305000D01*
X139800Y308300D02*X142050D01*
X139800Y305000D02*X142800D01*
X139800Y311000D02*Y305000D01*
Y311000D02*X142800D01*
X147600D02*X148350Y310250D01*
X145350Y311000D02*X147600D01*
X144600Y310250D02*X145350Y311000D01*
X144600Y310250D02*Y308750D01*
X145350Y308000D01*
X147600D01*
X148350Y307250D01*
Y305750D01*
X147600Y305000D02*X148350Y305750D01*
X145350Y305000D02*X147600D01*
X144600Y305750D02*X145350Y305000D01*
X98000Y305750D02*X98750Y305000D01*
X98000Y306950D02*Y305750D01*
Y306950D02*X99050Y308000D01*
X99950D01*
X101000Y306950D01*
Y305750D01*
X100250Y305000D02*X101000Y305750D01*
X98750Y305000D02*X100250D01*
X98000Y309050D02*X99050Y308000D01*
X98000Y310250D02*Y309050D01*
Y310250D02*X98750Y311000D01*
X100250D01*
X101000Y310250D01*
Y309050D01*
X99950Y308000D02*X101000Y309050D01*
X45000Y305750D02*X45750Y305000D01*
X45000Y310250D02*Y305750D01*
Y310250D02*X45750Y311000D01*
X47250D01*
X48000Y310250D01*
Y305750D01*
X47250Y305000D02*X48000Y305750D01*
X45750Y305000D02*X47250D01*
X45000Y306500D02*X48000Y309500D01*
X49800Y305000D02*X50550D01*
X52350Y309800D02*X53550Y311000D01*
Y305000D01*
X52350D02*X54600D01*
X56400Y310250D02*X57150Y311000D01*
X59400D01*
X60150Y310250D01*
Y308750D01*
X56400Y305000D02*X60150Y308750D01*
X56400Y305000D02*X60150D01*
X61950Y305750D02*X62700Y305000D01*
X61950Y306950D02*Y305750D01*
Y306950D02*X63000Y308000D01*
X63900D01*
X64950Y306950D01*
Y305750D01*
X64200Y305000D02*X64950Y305750D01*
X62700Y305000D02*X64200D01*
X61950Y309050D02*X63000Y308000D01*
X61950Y310250D02*Y309050D01*
Y310250D02*X62700Y311000D01*
X64200D01*
X64950Y310250D01*
Y309050D01*
X63900Y308000D02*X64950Y309050D01*
X20257Y215708D02*X22657Y213308D01*
X20257D02*X22657Y215708D01*
X82265D02*X84665Y213308D01*
X82265D02*X84665Y215708D01*
X82343Y278208D02*X84743Y275808D01*
X82343D02*X84743Y278208D01*
X20335D02*X22735Y275808D01*
X20335D02*X22735Y278208D01*
X82343Y84192D02*X84743Y81792D01*
X82343D02*X84743Y84192D01*
X20335D02*X22735Y81792D01*
X20335D02*X22735Y84192D01*
X20257Y24192D02*X22657Y21792D01*
X20257D02*X22657Y24192D01*
X82265D02*X84665Y21792D01*
X82265D02*X84665Y24192D01*
X13800Y324950D02*X16200Y322550D01*
X13800D02*X16200Y324950D01*
X135000Y326000D02*X136500Y323000D01*
X138000Y326000D01*
X136500Y323000D02*Y320000D01*
X139800Y323300D02*X142050D01*
X139800Y320000D02*X142800D01*
X139800Y326000D02*Y320000D01*
Y326000D02*X142800D01*
X147600D02*X148350Y325250D01*
X145350Y326000D02*X147600D01*
X144600Y325250D02*X145350Y326000D01*
X144600Y325250D02*Y323750D01*
X145350Y323000D01*
X147600D01*
X148350Y322250D01*
Y320750D01*
X147600Y320000D02*X148350Y320750D01*
X145350Y320000D02*X147600D01*
X144600Y320750D02*X145350Y320000D01*
X98000Y320750D02*X98750Y320000D01*
X98000Y321950D02*Y320750D01*
Y321950D02*X99050Y323000D01*
X99950D01*
X101000Y321950D01*
Y320750D01*
X100250Y320000D02*X101000Y320750D01*
X98750Y320000D02*X100250D01*
X98000Y324050D02*X99050Y323000D01*
X98000Y325250D02*Y324050D01*
Y325250D02*X98750Y326000D01*
X100250D01*
X101000Y325250D01*
Y324050D01*
X99950Y323000D02*X101000Y324050D01*
X45000Y320750D02*X45750Y320000D01*
X45000Y325250D02*Y320750D01*
Y325250D02*X45750Y326000D01*
X47250D01*
X48000Y325250D01*
Y320750D01*
X47250Y320000D02*X48000Y320750D01*
X45750Y320000D02*X47250D01*
X45000Y321500D02*X48000Y324500D01*
X49800Y320000D02*X50550D01*
X52350Y320750D02*X53100Y320000D01*
X52350Y325250D02*Y320750D01*
Y325250D02*X53100Y326000D01*
X54600D01*
X55350Y325250D01*
Y320750D01*
X54600Y320000D02*X55350Y320750D01*
X53100Y320000D02*X54600D01*
X52350Y321500D02*X55350Y324500D01*
X59400Y326000D02*X60150Y325250D01*
X57900Y326000D02*X59400D01*
X57150Y325250D02*X57900Y326000D01*
X57150Y325250D02*Y320750D01*
X57900Y320000D01*
X59400Y323300D02*X60150Y322550D01*
X57150Y323300D02*X59400D01*
X57900Y320000D02*X59400D01*
X60150Y320750D01*
Y322550D02*Y320750D01*
X61950Y325250D02*X62700Y326000D01*
X64200D01*
X64950Y325250D01*
X64200Y320000D02*X64950Y320750D01*
X62700Y320000D02*X64200D01*
X61950Y320750D02*X62700Y320000D01*
Y323300D02*X64200D01*
X64950Y325250D02*Y324050D01*
Y322550D02*Y320750D01*
Y322550D02*X64200Y323300D01*
X64950Y324050D02*X64200Y323300D01*
X95000Y91600D02*Y88400D01*
X93400Y90000D02*X96600D01*
X95000Y101600D02*Y98400D01*
X93400Y100000D02*X96600D01*
X95000Y111600D02*Y108400D01*
X93400Y110000D02*X96600D01*
X95000Y121600D02*Y118400D01*
X93400Y120000D02*X96600D01*
X95000Y131600D02*Y128400D01*
X93400Y130000D02*X96600D01*
X95000Y141600D02*Y138400D01*
X93400Y140000D02*X96600D01*
X95000Y151600D02*Y148400D01*
X93400Y150000D02*X96600D01*
X95000Y161600D02*Y158400D01*
X93400Y160000D02*X96600D01*
X95000Y171600D02*Y168400D01*
X93400Y170000D02*X96600D01*
X95000Y181600D02*Y178400D01*
X93400Y180000D02*X96600D01*
X95000Y191600D02*Y188400D01*
X93400Y190000D02*X96600D01*
X95000Y201600D02*Y198400D01*
X93400Y200000D02*X96600D01*
X10000Y201600D02*Y198400D01*
X8400Y200000D02*X11600D01*
X10000Y191600D02*Y188400D01*
X8400Y190000D02*X11600D01*
X10000Y181600D02*Y178400D01*
X8400Y180000D02*X11600D01*
X10000Y171600D02*Y168400D01*
X8400Y170000D02*X11600D01*
X10000Y161600D02*Y158400D01*
X8400Y160000D02*X11600D01*
X10000Y151600D02*Y148400D01*
X8400Y150000D02*X11600D01*
X10000Y141600D02*Y138400D01*
X8400Y140000D02*X11600D01*
X10000Y131600D02*Y128400D01*
X8400Y130000D02*X11600D01*
X10000Y121600D02*Y118400D01*
X8400Y120000D02*X11600D01*
X10000Y111600D02*Y108400D01*
X8400Y110000D02*X11600D01*
X10000Y101600D02*Y98400D01*
X8400Y100000D02*X11600D01*
X10000Y91600D02*Y88400D01*
X8400Y90000D02*X11600D01*
X15000Y340350D02*Y337150D01*
X13400Y338750D02*X16600D01*
X135000Y341000D02*X136500Y338000D01*
X138000Y341000D01*
X136500Y338000D02*Y335000D01*
X139800Y338300D02*X142050D01*
X139800Y335000D02*X142800D01*
X139800Y341000D02*Y335000D01*
Y341000D02*X142800D01*
X147600D02*X148350Y340250D01*
X145350Y341000D02*X147600D01*
X144600Y340250D02*X145350Y341000D01*
X144600Y340250D02*Y338750D01*
X145350Y338000D01*
X147600D01*
X148350Y337250D01*
Y335750D01*
X147600Y335000D02*X148350Y335750D01*
X145350Y335000D02*X147600D01*
X144600Y335750D02*X145350Y335000D01*
X98000Y340250D02*X98750Y341000D01*
X101000D01*
X101750Y340250D01*
Y338750D01*
X98000Y335000D02*X101750Y338750D01*
X98000Y335000D02*X101750D01*
X103550Y337250D02*X106550Y341000D01*
X103550Y337250D02*X107300D01*
X106550Y341000D02*Y335000D01*
X45000Y335750D02*X45750Y335000D01*
X45000Y340250D02*Y335750D01*
Y340250D02*X45750Y341000D01*
X47250D01*
X48000Y340250D01*
Y335750D01*
X47250Y335000D02*X48000Y335750D01*
X45750Y335000D02*X47250D01*
X45000Y336500D02*X48000Y339500D01*
X49800Y335000D02*X50550D01*
X52350Y335750D02*X53100Y335000D01*
X52350Y340250D02*Y335750D01*
Y340250D02*X53100Y341000D01*
X54600D01*
X55350Y340250D01*
Y335750D01*
X54600Y335000D02*X55350Y335750D01*
X53100Y335000D02*X54600D01*
X52350Y336500D02*X55350Y339500D01*
X57150Y340250D02*X57900Y341000D01*
X59400D01*
X60150Y340250D01*
X59400Y335000D02*X60150Y335750D01*
X57900Y335000D02*X59400D01*
X57150Y335750D02*X57900Y335000D01*
Y338300D02*X59400D01*
X60150Y340250D02*Y339050D01*
Y337550D02*Y335750D01*
Y337550D02*X59400Y338300D01*
X60150Y339050D02*X59400Y338300D01*
X61950Y335750D02*X62700Y335000D01*
X61950Y336950D02*Y335750D01*
Y336950D02*X63000Y338000D01*
X63900D01*
X64950Y336950D01*
Y335750D01*
X64200Y335000D02*X64950Y335750D01*
X62700Y335000D02*X64200D01*
X61950Y339050D02*X63000Y338000D01*
X61950Y340250D02*Y339050D01*
Y340250D02*X62700Y341000D01*
X64200D01*
X64950Y340250D01*
Y339050D01*
X63900Y338000D02*X64950Y339050D01*
X40000Y167500D02*Y165900D01*
Y167500D02*X41387Y168300D01*
X40000Y167500D02*X38613Y168300D01*
X50000Y167500D02*Y165900D01*
Y167500D02*X51387Y168300D01*
X50000Y167500D02*X48613Y168300D01*
X60000Y167500D02*Y165900D01*
Y167500D02*X61387Y168300D01*
X60000Y167500D02*X58613Y168300D01*
X70000Y167500D02*Y165900D01*
Y167500D02*X71387Y168300D01*
X70000Y167500D02*X68613Y168300D01*
X35000Y177500D02*Y175900D01*
Y177500D02*X36387Y178300D01*
X35000Y177500D02*X33613Y178300D01*
X45000Y177500D02*Y175900D01*
Y177500D02*X46387Y178300D01*
X45000Y177500D02*X43613Y178300D01*
X55000Y177500D02*Y175900D01*
Y177500D02*X56387Y178300D01*
X55000Y177500D02*X53613Y178300D01*
X65000Y177500D02*Y175900D01*
Y177500D02*X66387Y178300D01*
X65000Y177500D02*X63613Y178300D01*
X65000Y230000D02*Y228400D01*
Y230000D02*X66387Y230800D01*
X65000Y230000D02*X63613Y230800D01*
X55000Y230000D02*Y228400D01*
Y230000D02*X56387Y230800D01*
X55000Y230000D02*X53613Y230800D01*
X45000Y230000D02*Y228400D01*
Y230000D02*X46387Y230800D01*
X45000Y230000D02*X43613Y230800D01*
X35000Y230000D02*Y228400D01*
Y230000D02*X36387Y230800D01*
X35000Y230000D02*X33613Y230800D01*
X70000Y240000D02*Y238400D01*
Y240000D02*X71387Y240800D01*
X70000Y240000D02*X68613Y240800D01*
X60000Y240000D02*Y238400D01*
Y240000D02*X61387Y240800D01*
X60000Y240000D02*X58613Y240800D01*
X50000Y240000D02*Y238400D01*
Y240000D02*X51387Y240800D01*
X50000Y240000D02*X48613Y240800D01*
X40000Y240000D02*Y238400D01*
Y240000D02*X41387Y240800D01*
X40000Y240000D02*X38613Y240800D01*
X65000Y130000D02*Y128400D01*
Y130000D02*X66387Y130800D01*
X65000Y130000D02*X63613Y130800D01*
X55000Y130000D02*Y128400D01*
Y130000D02*X56387Y130800D01*
X55000Y130000D02*X53613Y130800D01*
X45000Y130000D02*Y128400D01*
Y130000D02*X46387Y130800D01*
X45000Y130000D02*X43613Y130800D01*
X35000Y130000D02*Y128400D01*
Y130000D02*X36387Y130800D01*
X35000Y130000D02*X33613Y130800D01*
X70000Y120000D02*Y118400D01*
Y120000D02*X71387Y120800D01*
X70000Y120000D02*X68613Y120800D01*
X60000Y120000D02*Y118400D01*
Y120000D02*X61387Y120800D01*
X60000Y120000D02*X58613Y120800D01*
X50000Y120000D02*Y118400D01*
Y120000D02*X51387Y120800D01*
X50000Y120000D02*X48613Y120800D01*
X40000Y120000D02*Y118400D01*
Y120000D02*X41387Y120800D01*
X40000Y120000D02*X38613Y120800D01*
X40000Y70000D02*Y68400D01*
Y70000D02*X41387Y70800D01*
X40000Y70000D02*X38613Y70800D01*
X50000Y70000D02*Y68400D01*
Y70000D02*X51387Y70800D01*
X50000Y70000D02*X48613Y70800D01*
X60000Y70000D02*Y68400D01*
Y70000D02*X61387Y70800D01*
X60000Y70000D02*X58613Y70800D01*
X70000Y70000D02*Y68400D01*
Y70000D02*X71387Y70800D01*
X70000Y70000D02*X68613Y70800D01*
X35000Y60000D02*Y58400D01*
Y60000D02*X36387Y60800D01*
X35000Y60000D02*X33613Y60800D01*
X45000Y60000D02*Y58400D01*
Y60000D02*X46387Y60800D01*
X45000Y60000D02*X43613Y60800D01*
X55000Y60000D02*Y58400D01*
Y60000D02*X56387Y60800D01*
X55000Y60000D02*X53613Y60800D01*
X65000Y60000D02*Y58400D01*
Y60000D02*X66387Y60800D01*
X65000Y60000D02*X63613Y60800D01*
X15000Y353750D02*Y352150D01*
Y353750D02*X16387Y354550D01*
X15000Y353750D02*X13613Y354550D01*
X135000Y356000D02*X136500Y353000D01*
X138000Y356000D01*
X136500Y353000D02*Y350000D01*
X139800Y353300D02*X142050D01*
X139800Y350000D02*X142800D01*
X139800Y356000D02*Y350000D01*
Y356000D02*X142800D01*
X147600D02*X148350Y355250D01*
X145350Y356000D02*X147600D01*
X144600Y355250D02*X145350Y356000D01*
X144600Y355250D02*Y353750D01*
X145350Y353000D01*
X147600D01*
X148350Y352250D01*
Y350750D01*
X147600Y350000D02*X148350Y350750D01*
X145350Y350000D02*X147600D01*
X144600Y350750D02*X145350Y350000D01*
X98000Y355250D02*X98750Y356000D01*
X100250D01*
X101000Y355250D01*
X100250Y350000D02*X101000Y350750D01*
X98750Y350000D02*X100250D01*
X98000Y350750D02*X98750Y350000D01*
Y353300D02*X100250D01*
X101000Y355250D02*Y354050D01*
Y352550D02*Y350750D01*
Y352550D02*X100250Y353300D01*
X101000Y354050D02*X100250Y353300D01*
X102800Y355250D02*X103550Y356000D01*
X105800D01*
X106550Y355250D01*
Y353750D01*
X102800Y350000D02*X106550Y353750D01*
X102800Y350000D02*X106550D01*
X45000Y350750D02*X45750Y350000D01*
X45000Y355250D02*Y350750D01*
Y355250D02*X45750Y356000D01*
X47250D01*
X48000Y355250D01*
Y350750D01*
X47250Y350000D02*X48000Y350750D01*
X45750Y350000D02*X47250D01*
X45000Y351500D02*X48000Y354500D01*
X49800Y350000D02*X50550D01*
X52350Y350750D02*X53100Y350000D01*
X52350Y355250D02*Y350750D01*
Y355250D02*X53100Y356000D01*
X54600D01*
X55350Y355250D01*
Y350750D01*
X54600Y350000D02*X55350Y350750D01*
X53100Y350000D02*X54600D01*
X52350Y351500D02*X55350Y354500D01*
X57150Y355250D02*X57900Y356000D01*
X59400D01*
X60150Y355250D01*
X59400Y350000D02*X60150Y350750D01*
X57900Y350000D02*X59400D01*
X57150Y350750D02*X57900Y350000D01*
Y353300D02*X59400D01*
X60150Y355250D02*Y354050D01*
Y352550D02*Y350750D01*
Y352550D02*X59400Y353300D01*
X60150Y354050D02*X59400Y353300D01*
X61950Y356000D02*X64950D01*
X61950D02*Y353000D01*
X62700Y353750D01*
X64200D01*
X64950Y353000D01*
Y350750D01*
X64200Y350000D02*X64950Y350750D01*
X62700Y350000D02*X64200D01*
X61950Y350750D02*X62700Y350000D01*
X3000Y371000D02*X3750Y370250D01*
X750Y371000D02*X3000D01*
X0Y370250D02*X750Y371000D01*
X0Y370250D02*Y368750D01*
X750Y368000D01*
X3000D01*
X3750Y367250D01*
Y365750D01*
X3000Y365000D02*X3750Y365750D01*
X750Y365000D02*X3000D01*
X0Y365750D02*X750Y365000D01*
X5550Y368000D02*Y365750D01*
X6300Y365000D01*
X8550Y368000D02*Y363500D01*
X7800Y362750D02*X8550Y363500D01*
X6300Y362750D02*X7800D01*
X5550Y363500D02*X6300Y362750D01*
Y365000D02*X7800D01*
X8550Y365750D01*
X11100Y367250D02*Y365000D01*
Y367250D02*X11850Y368000D01*
X12600D01*
X13350Y367250D01*
Y365000D01*
Y367250D02*X14100Y368000D01*
X14850D01*
X15600Y367250D01*
Y365000D01*
X10350Y368000D02*X11100Y367250D01*
X17400Y371000D02*Y365000D01*
Y365750D02*X18150Y365000D01*
X19650D01*
X20400Y365750D01*
Y367250D02*Y365750D01*
X19650Y368000D02*X20400Y367250D01*
X18150Y368000D02*X19650D01*
X17400Y367250D02*X18150Y368000D01*
X22200Y367250D02*Y365750D01*
Y367250D02*X22950Y368000D01*
X24450D01*
X25200Y367250D01*
Y365750D01*
X24450Y365000D02*X25200Y365750D01*
X22950Y365000D02*X24450D01*
X22200Y365750D02*X22950Y365000D01*
X27000Y371000D02*Y365750D01*
X27750Y365000D01*
X0Y361750D02*X29250D01*
X41750Y371000D02*Y365000D01*
X43700Y371000D02*X44750Y369950D01*
Y366050D01*
X43700Y365000D02*X44750Y366050D01*
X41000Y365000D02*X43700D01*
X41000Y371000D02*X43700D01*
G54D54*X46550Y369500D02*Y369350D01*
G54D53*Y367250D02*Y365000D01*
X50300Y368000D02*X51050Y367250D01*
X48800Y368000D02*X50300D01*
X48050Y367250D02*X48800Y368000D01*
X48050Y367250D02*Y365750D01*
X48800Y365000D01*
X51050Y368000D02*Y365750D01*
X51800Y365000D01*
X48800D02*X50300D01*
X51050Y365750D01*
X54350Y367250D02*Y365000D01*
Y367250D02*X55100Y368000D01*
X55850D01*
X56600Y367250D01*
Y365000D01*
Y367250D02*X57350Y368000D01*
X58100D01*
X58850Y367250D01*
Y365000D01*
X53600Y368000D02*X54350Y367250D01*
X60650Y365000D02*X61400D01*
X65900Y365750D02*X66650Y365000D01*
X65900Y370250D02*X66650Y371000D01*
X65900Y370250D02*Y365750D01*
X68450Y371000D02*X69950D01*
X69200D02*Y365000D01*
X68450D02*X69950D01*
X72500Y367250D02*Y365000D01*
Y367250D02*X73250Y368000D01*
X74000D01*
X74750Y367250D01*
Y365000D01*
X71750Y368000D02*X72500Y367250D01*
X77300Y368000D02*X79550D01*
X76550Y367250D02*X77300Y368000D01*
X76550Y367250D02*Y365750D01*
X77300Y365000D01*
X79550D01*
X81350Y371000D02*Y365000D01*
Y367250D02*X82100Y368000D01*
X83600D01*
X84350Y367250D01*
Y365000D01*
X86150Y371000D02*X86900Y370250D01*
Y365750D01*
X86150Y365000D02*X86900Y365750D01*
X41000Y361750D02*X88700D01*
X96050Y365000D02*X98000D01*
X95000Y366050D02*X96050Y365000D01*
X95000Y369950D02*Y366050D01*
Y369950D02*X96050Y371000D01*
X98000D01*
X99800Y367250D02*Y365750D01*
Y367250D02*X100550Y368000D01*
X102050D01*
X102800Y367250D01*
Y365750D01*
X102050Y365000D02*X102800Y365750D01*
X100550Y365000D02*X102050D01*
X99800Y365750D02*X100550Y365000D01*
X104600Y368000D02*Y365750D01*
X105350Y365000D01*
X106850D01*
X107600Y365750D01*
Y368000D02*Y365750D01*
X110150Y367250D02*Y365000D01*
Y367250D02*X110900Y368000D01*
X111650D01*
X112400Y367250D01*
Y365000D01*
X109400Y368000D02*X110150Y367250D01*
X114950Y371000D02*Y365750D01*
X115700Y365000D01*
X114200Y368750D02*X115700D01*
X95000Y361750D02*X117200D01*
X130750Y371000D02*Y365000D01*
X130000Y371000D02*X133000D01*
X133750Y370250D01*
Y368750D01*
X133000Y368000D02*X133750Y368750D01*
X130750Y368000D02*X133000D01*
X135550Y371000D02*Y365750D01*
X136300Y365000D01*
X140050Y368000D02*X140800Y367250D01*
X138550Y368000D02*X140050D01*
X137800Y367250D02*X138550Y368000D01*
X137800Y367250D02*Y365750D01*
X138550Y365000D01*
X140800Y368000D02*Y365750D01*
X141550Y365000D01*
X138550D02*X140050D01*
X140800Y365750D01*
X144100Y371000D02*Y365750D01*
X144850Y365000D01*
X143350Y368750D02*X144850D01*
X147100Y365000D02*X149350D01*
X146350Y365750D02*X147100Y365000D01*
X146350Y367250D02*Y365750D01*
Y367250D02*X147100Y368000D01*
X148600D01*
X149350Y367250D01*
X146350Y366500D02*X149350D01*
Y367250D02*Y366500D01*
X154150Y371000D02*Y365000D01*
X153400D02*X154150Y365750D01*
X151900Y365000D02*X153400D01*
X151150Y365750D02*X151900Y365000D01*
X151150Y367250D02*Y365750D01*
Y367250D02*X151900Y368000D01*
X153400D01*
X154150Y367250D01*
X157450Y368000D02*Y367250D01*
Y365750D02*Y365000D01*
X155950Y370250D02*Y369500D01*
Y370250D02*X156700Y371000D01*
X158200D01*
X158950Y370250D01*
Y369500D01*
X157450Y368000D02*X158950Y369500D01*
X130000Y361750D02*X160750D01*
X0Y386000D02*X3000D01*
X1500D02*Y380000D01*
X4800Y386000D02*Y380000D01*
Y382250D02*X5550Y383000D01*
X7050D01*
X7800Y382250D01*
Y380000D01*
X10350D02*X12600D01*
X9600Y380750D02*X10350Y380000D01*
X9600Y382250D02*Y380750D01*
Y382250D02*X10350Y383000D01*
X11850D01*
X12600Y382250D01*
X9600Y381500D02*X12600D01*
Y382250D02*Y381500D01*
X15150Y382250D02*Y380000D01*
Y382250D02*X15900Y383000D01*
X17400D01*
X14400D02*X15150Y382250D01*
X19950Y380000D02*X22200D01*
X19200Y380750D02*X19950Y380000D01*
X19200Y382250D02*Y380750D01*
Y382250D02*X19950Y383000D01*
X21450D01*
X22200Y382250D01*
X19200Y381500D02*X22200D01*
Y382250D02*Y381500D01*
X28950Y383000D02*X29700Y382250D01*
X27450Y383000D02*X28950D01*
X26700Y382250D02*X27450Y383000D01*
X26700Y382250D02*Y380750D01*
X27450Y380000D01*
X29700Y383000D02*Y380750D01*
X30450Y380000D01*
X27450D02*X28950D01*
X29700Y380750D01*
X33000Y382250D02*Y380000D01*
Y382250D02*X33750Y383000D01*
X35250D01*
X32250D02*X33000Y382250D01*
X37800Y380000D02*X40050D01*
X37050Y380750D02*X37800Y380000D01*
X37050Y382250D02*Y380750D01*
Y382250D02*X37800Y383000D01*
X39300D01*
X40050Y382250D01*
X37050Y381500D02*X40050D01*
Y382250D02*Y381500D01*
X44550Y382250D02*X47550Y386000D01*
X44550Y382250D02*X48300D01*
X47550Y386000D02*Y380000D01*
X55800Y386000D02*Y380000D01*
X55050D02*X55800Y380750D01*
X53550Y380000D02*X55050D01*
X52800Y380750D02*X53550Y380000D01*
X52800Y382250D02*Y380750D01*
Y382250D02*X53550Y383000D01*
X55050D01*
X55800Y382250D01*
G54D54*X57600Y384500D02*Y384350D01*
G54D53*Y382250D02*Y380000D01*
X59850Y385250D02*Y380000D01*
Y385250D02*X60600Y386000D01*
X61350D01*
X59100Y383000D02*X60600D01*
X63600Y385250D02*Y380000D01*
Y385250D02*X64350Y386000D01*
X65100D01*
X62850Y383000D02*X64350D01*
X67350Y380000D02*X69600D01*
X66600Y380750D02*X67350Y380000D01*
X66600Y382250D02*Y380750D01*
Y382250D02*X67350Y383000D01*
X68850D01*
X69600Y382250D01*
X66600Y381500D02*X69600D01*
Y382250D02*Y381500D01*
X72150Y382250D02*Y380000D01*
Y382250D02*X72900Y383000D01*
X74400D01*
X71400D02*X72150Y382250D01*
X76950Y380000D02*X79200D01*
X76200Y380750D02*X76950Y380000D01*
X76200Y382250D02*Y380750D01*
Y382250D02*X76950Y383000D01*
X78450D01*
X79200Y382250D01*
X76200Y381500D02*X79200D01*
Y382250D02*Y381500D01*
X81750Y382250D02*Y380000D01*
Y382250D02*X82500Y383000D01*
X83250D01*
X84000Y382250D01*
Y380000D01*
X81000Y383000D02*X81750Y382250D01*
X86550Y386000D02*Y380750D01*
X87300Y380000D01*
X85800Y383750D02*X87300D01*
X94500Y386000D02*Y380000D01*
X93750D02*X94500Y380750D01*
X92250Y380000D02*X93750D01*
X91500Y380750D02*X92250Y380000D01*
X91500Y382250D02*Y380750D01*
Y382250D02*X92250Y383000D01*
X93750D01*
X94500Y382250D01*
X97050D02*Y380000D01*
Y382250D02*X97800Y383000D01*
X99300D01*
X96300D02*X97050Y382250D01*
G54D54*X101100Y384500D02*Y384350D01*
G54D53*Y382250D02*Y380000D01*
X102600Y386000D02*Y380750D01*
X103350Y380000D01*
X104850Y386000D02*Y380750D01*
X105600Y380000D01*
X110550D02*X112800D01*
X113550Y380750D01*
X112800Y381500D02*X113550Y380750D01*
X110550Y381500D02*X112800D01*
X109800Y382250D02*X110550Y381500D01*
X109800Y382250D02*X110550Y383000D01*
X112800D01*
X113550Y382250D01*
X109800Y380750D02*X110550Y380000D01*
G54D54*X115350Y384500D02*Y384350D01*
G54D53*Y382250D02*Y380000D01*
X116850Y383000D02*X119850D01*
X116850Y380000D02*X119850Y383000D01*
X116850Y380000D02*X119850D01*
X122400D02*X124650D01*
X121650Y380750D02*X122400Y380000D01*
X121650Y382250D02*Y380750D01*
Y382250D02*X122400Y383000D01*
X123900D01*
X124650Y382250D01*
X121650Y381500D02*X124650D01*
Y382250D02*Y381500D01*
X127200Y380000D02*X129450D01*
X130200Y380750D01*
X129450Y381500D02*X130200Y380750D01*
X127200Y381500D02*X129450D01*
X126450Y382250D02*X127200Y381500D01*
X126450Y382250D02*X127200Y383000D01*
X129450D01*
X130200Y382250D01*
X126450Y380750D02*X127200Y380000D01*
X134700Y383000D02*Y380750D01*
X135450Y380000D01*
X136950D01*
X137700Y380750D01*
Y383000D02*Y380750D01*
X140250Y380000D02*X142500D01*
X143250Y380750D01*
X142500Y381500D02*X143250Y380750D01*
X140250Y381500D02*X142500D01*
X139500Y382250D02*X140250Y381500D01*
X139500Y382250D02*X140250Y383000D01*
X142500D01*
X143250Y382250D01*
X139500Y380750D02*X140250Y380000D01*
X145800D02*X148050D01*
X145050Y380750D02*X145800Y380000D01*
X145050Y382250D02*Y380750D01*
Y382250D02*X145800Y383000D01*
X147300D01*
X148050Y382250D01*
X145050Y381500D02*X148050D01*
Y382250D02*Y381500D01*
X152850Y386000D02*Y380000D01*
X152100D02*X152850Y380750D01*
X150600Y380000D02*X152100D01*
X149850Y380750D02*X150600Y380000D01*
X149850Y382250D02*Y380750D01*
Y382250D02*X150600Y383000D01*
X152100D01*
X152850Y382250D01*
G54D54*X157350Y384500D02*Y384350D01*
G54D53*Y382250D02*Y380000D01*
X159600Y382250D02*Y380000D01*
Y382250D02*X160350Y383000D01*
X161100D01*
X161850Y382250D01*
Y380000D01*
X158850Y383000D02*X159600Y382250D01*
X167100Y386000D02*Y380750D01*
X167850Y380000D01*
X166350Y383750D02*X167850D01*
X169350Y386000D02*Y380000D01*
Y382250D02*X170100Y383000D01*
X171600D01*
X172350Y382250D01*
Y380000D01*
G54D54*X174150Y384500D02*Y384350D01*
G54D53*Y382250D02*Y380000D01*
X176400D02*X178650D01*
X179400Y380750D01*
X178650Y381500D02*X179400Y380750D01*
X176400Y381500D02*X178650D01*
X175650Y382250D02*X176400Y381500D01*
X175650Y382250D02*X176400Y383000D01*
X178650D01*
X179400Y382250D01*
X175650Y380750D02*X176400Y380000D01*
X183900Y386000D02*Y380750D01*
X184650Y380000D01*
X188400Y383000D02*X189150Y382250D01*
X186900Y383000D02*X188400D01*
X186150Y382250D02*X186900Y383000D01*
X186150Y382250D02*Y380750D01*
X186900Y380000D01*
X189150Y383000D02*Y380750D01*
X189900Y380000D01*
X186900D02*X188400D01*
X189150Y380750D01*
X191700Y383000D02*Y380750D01*
X192450Y380000D01*
X194700Y383000D02*Y378500D01*
X193950Y377750D02*X194700Y378500D01*
X192450Y377750D02*X193950D01*
X191700Y378500D02*X192450Y377750D01*
Y380000D02*X193950D01*
X194700Y380750D01*
X196500Y382250D02*Y380750D01*
Y382250D02*X197250Y383000D01*
X198750D01*
X199500Y382250D01*
Y380750D01*
X198750Y380000D02*X199500Y380750D01*
X197250Y380000D02*X198750D01*
X196500Y380750D02*X197250Y380000D01*
X201300Y383000D02*Y380750D01*
X202050Y380000D01*
X203550D01*
X204300Y380750D01*
Y383000D02*Y380750D01*
X206850Y386000D02*Y380750D01*
X207600Y380000D01*
X206100Y383750D02*X207600D01*
X209100Y378500D02*X210600Y380000D01*
X215850D02*X218850Y386000D01*
X215100D02*X218850D01*
X220650Y385250D02*X221400Y386000D01*
X223650D01*
X224400Y385250D01*
Y383750D01*
X220650Y380000D02*X224400Y383750D01*
X220650Y380000D02*X224400D01*
X228900Y386000D02*Y380000D01*
Y382250D02*X229650Y383000D01*
X231150D01*
X231900Y382250D01*
Y380000D01*
X233700Y382250D02*Y380750D01*
Y382250D02*X234450Y383000D01*
X235950D01*
X236700Y382250D01*
Y380750D01*
X235950Y380000D02*X236700Y380750D01*
X234450Y380000D02*X235950D01*
X233700Y380750D02*X234450Y380000D01*
X238500Y386000D02*Y380750D01*
X239250Y380000D01*
X241500D02*X243750D01*
X240750Y380750D02*X241500Y380000D01*
X240750Y382250D02*Y380750D01*
Y382250D02*X241500Y383000D01*
X243000D01*
X243750Y382250D01*
X240750Y381500D02*X243750D01*
Y382250D02*Y381500D01*
X246300Y380000D02*X248550D01*
X249300Y380750D01*
X248550Y381500D02*X249300Y380750D01*
X246300Y381500D02*X248550D01*
X245550Y382250D02*X246300Y381500D01*
X245550Y382250D02*X246300Y383000D01*
X248550D01*
X249300Y382250D01*
X245550Y380750D02*X246300Y380000D01*
X254550Y386000D02*Y380750D01*
X255300Y380000D01*
X253800Y383750D02*X255300D01*
X256800Y382250D02*Y380750D01*
Y382250D02*X257550Y383000D01*
X259050D01*
X259800Y382250D01*
Y380750D01*
X259050Y380000D02*X259800Y380750D01*
X257550Y380000D02*X259050D01*
X256800Y380750D02*X257550Y380000D01*
X262350Y386000D02*Y380750D01*
X263100Y380000D01*
X261600Y383750D02*X263100D01*
X266850Y383000D02*X267600Y382250D01*
X265350Y383000D02*X266850D01*
X264600Y382250D02*X265350Y383000D01*
X264600Y382250D02*Y380750D01*
X265350Y380000D01*
X267600Y383000D02*Y380750D01*
X268350Y380000D01*
X265350D02*X266850D01*
X267600Y380750D01*
X270150Y386000D02*Y380750D01*
X270900Y380000D01*
G54D55*X15000Y295000D02*Y222500D01*
X0Y207500D01*
Y82500D02*Y207500D01*
Y82500D02*X15000Y67500D01*
Y3500D01*
Y294500D02*Y296500D01*
X90000Y222500D02*X105000Y207500D01*
Y82500D01*
X90000Y67500D01*
Y3500D01*
Y222500D02*Y296500D01*
X15000D02*X90000D01*
Y3500D02*X15000D01*
G54D53*X0Y-9500D02*X3000D01*
X3750Y-8750D01*
Y-6950D02*Y-8750D01*
X3000Y-6200D02*X3750Y-6950D01*
X750Y-6200D02*X3000D01*
X750Y-3500D02*Y-9500D01*
X0Y-3500D02*X3000D01*
X3750Y-4250D01*
Y-5450D01*
X3000Y-6200D02*X3750Y-5450D01*
X5550Y-7250D02*Y-8750D01*
Y-7250D02*X6300Y-6500D01*
X7800D01*
X8550Y-7250D01*
Y-8750D01*
X7800Y-9500D02*X8550Y-8750D01*
X6300Y-9500D02*X7800D01*
X5550Y-8750D02*X6300Y-9500D01*
X12600Y-6500D02*X13350Y-7250D01*
X11100Y-6500D02*X12600D01*
X10350Y-7250D02*X11100Y-6500D01*
X10350Y-7250D02*Y-8750D01*
X11100Y-9500D01*
X13350Y-6500D02*Y-8750D01*
X14100Y-9500D01*
X11100D02*X12600D01*
X13350Y-8750D01*
X16650Y-7250D02*Y-9500D01*
Y-7250D02*X17400Y-6500D01*
X18900D01*
X15900D02*X16650Y-7250D01*
X23700Y-3500D02*Y-9500D01*
X22950D02*X23700Y-8750D01*
X21450Y-9500D02*X22950D01*
X20700Y-8750D02*X21450Y-9500D01*
X20700Y-7250D02*Y-8750D01*
Y-7250D02*X21450Y-6500D01*
X22950D01*
X23700Y-7250D01*
X28200D02*Y-8750D01*
Y-7250D02*X28950Y-6500D01*
X30450D01*
X31200Y-7250D01*
Y-8750D01*
X30450Y-9500D02*X31200Y-8750D01*
X28950Y-9500D02*X30450D01*
X28200Y-8750D02*X28950Y-9500D01*
X33000Y-6500D02*Y-8750D01*
X33750Y-9500D01*
X35250D01*
X36000Y-8750D01*
Y-6500D02*Y-8750D01*
X38550Y-3500D02*Y-8750D01*
X39300Y-9500D01*
X37800Y-5750D02*X39300D01*
X40800Y-3500D02*Y-8750D01*
X41550Y-9500D01*
G54D54*X43050Y-5000D02*Y-5150D01*
G54D53*Y-7250D02*Y-9500D01*
X45300Y-7250D02*Y-9500D01*
Y-7250D02*X46050Y-6500D01*
X46800D01*
X47550Y-7250D01*
Y-9500D01*
X44550Y-6500D02*X45300Y-7250D01*
X50100Y-9500D02*X52350D01*
X49350Y-8750D02*X50100Y-9500D01*
X49350Y-7250D02*Y-8750D01*
Y-7250D02*X50100Y-6500D01*
X51600D01*
X52350Y-7250D01*
X49350Y-8000D02*X52350D01*
Y-7250D02*Y-8000D01*
G54D54*X56850Y-5000D02*Y-5150D01*
G54D53*Y-7250D02*Y-9500D01*
X59100D02*X61350D01*
X62100Y-8750D01*
X61350Y-8000D02*X62100Y-8750D01*
X59100Y-8000D02*X61350D01*
X58350Y-7250D02*X59100Y-8000D01*
X58350Y-7250D02*X59100Y-6500D01*
X61350D01*
X62100Y-7250D01*
X58350Y-8750D02*X59100Y-9500D01*
X67350Y-3500D02*Y-8750D01*
X68100Y-9500D01*
X66600Y-5750D02*X68100D01*
X69600Y-3500D02*Y-9500D01*
Y-7250D02*X70350Y-6500D01*
X71850D01*
X72600Y-7250D01*
Y-9500D01*
X75150D02*X77400D01*
X74400Y-8750D02*X75150Y-9500D01*
X74400Y-7250D02*Y-8750D01*
Y-7250D02*X75150Y-6500D01*
X76650D01*
X77400Y-7250D01*
X74400Y-8000D02*X77400D01*
Y-7250D02*Y-8000D01*
X82650Y-6500D02*X84900D01*
X81900Y-7250D02*X82650Y-6500D01*
X81900Y-7250D02*Y-8750D01*
X82650Y-9500D01*
X84900D01*
X87450D02*X89700D01*
X86700Y-8750D02*X87450Y-9500D01*
X86700Y-7250D02*Y-8750D01*
Y-7250D02*X87450Y-6500D01*
X88950D01*
X89700Y-7250D01*
X86700Y-8000D02*X89700D01*
Y-7250D02*Y-8000D01*
X92250Y-7250D02*Y-9500D01*
Y-7250D02*X93000Y-6500D01*
X93750D01*
X94500Y-7250D01*
Y-9500D01*
X91500Y-6500D02*X92250Y-7250D01*
X97050Y-3500D02*Y-8750D01*
X97800Y-9500D01*
X96300Y-5750D02*X97800D01*
X100050Y-9500D02*X102300D01*
X99300Y-8750D02*X100050Y-9500D01*
X99300Y-7250D02*Y-8750D01*
Y-7250D02*X100050Y-6500D01*
X101550D01*
X102300Y-7250D01*
X99300Y-8000D02*X102300D01*
Y-7250D02*Y-8000D01*
X104850Y-7250D02*Y-9500D01*
Y-7250D02*X105600Y-6500D01*
X107100D01*
X104100D02*X104850Y-7250D01*
X108900Y-3500D02*Y-8750D01*
X109650Y-9500D01*
G54D54*X111150Y-5000D02*Y-5150D01*
G54D53*Y-7250D02*Y-9500D01*
X113400Y-7250D02*Y-9500D01*
Y-7250D02*X114150Y-6500D01*
X114900D01*
X115650Y-7250D01*
Y-9500D01*
X112650Y-6500D02*X113400Y-7250D01*
X118200Y-9500D02*X120450D01*
X117450Y-8750D02*X118200Y-9500D01*
X117450Y-7250D02*Y-8750D01*
Y-7250D02*X118200Y-6500D01*
X119700D01*
X120450Y-7250D01*
X117450Y-8000D02*X120450D01*
Y-7250D02*Y-8000D01*
X124950Y-7250D02*Y-8750D01*
Y-7250D02*X125700Y-6500D01*
X127200D01*
X127950Y-7250D01*
Y-8750D01*
X127200Y-9500D02*X127950Y-8750D01*
X125700Y-9500D02*X127200D01*
X124950Y-8750D02*X125700Y-9500D01*
X130500Y-4250D02*Y-9500D01*
Y-4250D02*X131250Y-3500D01*
X132000D01*
X129750Y-6500D02*X131250D01*
X136950Y-3500D02*Y-8750D01*
X137700Y-9500D01*
X136200Y-5750D02*X137700D01*
X139200Y-3500D02*Y-9500D01*
Y-7250D02*X139950Y-6500D01*
X141450D01*
X142200Y-7250D01*
Y-9500D01*
G54D54*X144000Y-5000D02*Y-5150D01*
G54D53*Y-7250D02*Y-9500D01*
X146250D02*X148500D01*
X149250Y-8750D01*
X148500Y-8000D02*X149250Y-8750D01*
X146250Y-8000D02*X148500D01*
X145500Y-7250D02*X146250Y-8000D01*
X145500Y-7250D02*X146250Y-6500D01*
X148500D01*
X149250Y-7250D01*
X145500Y-8750D02*X146250Y-9500D01*
X154500Y-7250D02*Y-11750D01*
X153750Y-6500D02*X154500Y-7250D01*
X155250Y-6500D01*
X156750D01*
X157500Y-7250D01*
Y-8750D01*
X156750Y-9500D02*X157500Y-8750D01*
X155250Y-9500D02*X156750D01*
X154500Y-8750D02*X155250Y-9500D01*
X161550Y-6500D02*X162300Y-7250D01*
X160050Y-6500D02*X161550D01*
X159300Y-7250D02*X160050Y-6500D01*
X159300Y-7250D02*Y-8750D01*
X160050Y-9500D01*
X162300Y-6500D02*Y-8750D01*
X163050Y-9500D01*
X160050D02*X161550D01*
X162300Y-8750D01*
X165600Y-3500D02*Y-8750D01*
X166350Y-9500D01*
X164850Y-5750D02*X166350D01*
X167850Y-3500D02*Y-9500D01*
Y-7250D02*X168600Y-6500D01*
X170100D01*
X170850Y-7250D01*
Y-9500D01*
X200750Y326000D02*Y320000D01*
X202700Y326000D02*X203750Y324950D01*
Y321050D01*
X202700Y320000D02*X203750Y321050D01*
X200000Y320000D02*X202700D01*
X200000Y326000D02*X202700D01*
X207800Y323000D02*X208550Y322250D01*
X206300Y323000D02*X207800D01*
X205550Y322250D02*X206300Y323000D01*
X205550Y322250D02*Y320750D01*
X206300Y320000D01*
X208550Y323000D02*Y320750D01*
X209300Y320000D01*
X206300D02*X207800D01*
X208550Y320750D01*
X211850Y326000D02*Y320750D01*
X212600Y320000D01*
X211100Y323750D02*X212600D01*
X214850Y320000D02*X217100D01*
X214100Y320750D02*X214850Y320000D01*
X214100Y322250D02*Y320750D01*
Y322250D02*X214850Y323000D01*
X216350D01*
X217100Y322250D01*
X214100Y321500D02*X217100D01*
Y322250D02*Y321500D01*
X218900Y323750D02*X219650D01*
X218900Y322250D02*X219650D01*
X227150Y326000D02*X227900Y325250D01*
X224900Y326000D02*X227150D01*
X224150Y325250D02*X224900Y326000D01*
X224150Y325250D02*Y323750D01*
X224900Y323000D01*
X227150D01*
X227900Y322250D01*
Y320750D01*
X227150Y320000D02*X227900Y320750D01*
X224900Y320000D02*X227150D01*
X224150Y320750D02*X224900Y320000D01*
X231950Y323000D02*X232700Y322250D01*
X230450Y323000D02*X231950D01*
X229700Y322250D02*X230450Y323000D01*
X229700Y322250D02*Y320750D01*
X230450Y320000D01*
X232700Y323000D02*Y320750D01*
X233450Y320000D01*
X230450D02*X231950D01*
X232700Y320750D01*
X236000Y326000D02*Y320750D01*
X236750Y320000D01*
X235250Y323750D02*X236750D01*
X240950Y326000D02*Y320000D01*
Y326000D02*X244700Y320000D01*
Y326000D02*Y320000D01*
X246500Y322250D02*Y320750D01*
Y322250D02*X247250Y323000D01*
X248750D01*
X249500Y322250D01*
Y320750D01*
X248750Y320000D02*X249500Y320750D01*
X247250Y320000D02*X248750D01*
X246500Y320750D02*X247250Y320000D01*
X251300Y323000D02*X252800Y320000D01*
X254300Y323000D02*X252800Y320000D01*
X258800Y324800D02*X260000Y326000D01*
Y320000D01*
X258800D02*X261050D01*
X262850Y322250D02*X265850Y326000D01*
X262850Y322250D02*X266600D01*
X265850Y326000D02*Y320000D01*
X271100Y325250D02*X271850Y326000D01*
X274100D01*
X274850Y325250D01*
Y323750D01*
X271100Y320000D02*X274850Y323750D01*
X271100Y320000D02*X274850D01*
X276650Y325250D02*X277400Y326000D01*
X279650D01*
X280400Y325250D01*
Y323750D01*
X276650Y320000D02*X280400Y323750D01*
X276650Y320000D02*X280400D01*
X282200Y323750D02*X282950D01*
X282200Y322250D02*X282950D01*
X284750Y324800D02*X285950Y326000D01*
Y320000D01*
X284750D02*X287000D01*
X288800Y322250D02*X291800Y326000D01*
X288800Y322250D02*X292550D01*
X291800Y326000D02*Y320000D01*
X294350Y323750D02*X295100D01*
X294350Y322250D02*X295100D01*
X296900D02*X299900Y326000D01*
X296900Y322250D02*X300650D01*
X299900Y326000D02*Y320000D01*
X303200D02*X306200Y326000D01*
X302450D02*X306200D01*
X310700Y325250D02*X311450Y326000D01*
X313700D01*
X314450Y325250D01*
Y323750D01*
X310700Y320000D02*X314450Y323750D01*
X310700Y320000D02*X314450D01*
X316250Y320750D02*X317000Y320000D01*
X316250Y325250D02*Y320750D01*
Y325250D02*X317000Y326000D01*
X318500D01*
X319250Y325250D01*
Y320750D01*
X318500Y320000D02*X319250Y320750D01*
X317000Y320000D02*X318500D01*
X316250Y321500D02*X319250Y324500D01*
X321050Y324800D02*X322250Y326000D01*
Y320000D01*
X321050D02*X323300D01*
X325100Y326000D02*X328100D01*
X325100D02*Y323000D01*
X325850Y323750D01*
X327350D01*
X328100Y323000D01*
Y320750D01*
X327350Y320000D02*X328100Y320750D01*
X325850Y320000D02*X327350D01*
X325100Y320750D02*X325850Y320000D01*
X332600Y326000D02*Y320750D01*
X333350Y320000D01*
X334850D01*
X335600Y320750D01*
Y326000D02*Y320750D01*
X337400Y326000D02*X340400D01*
X338900D02*Y320000D01*
X343250D02*X345200D01*
X342200Y321050D02*X343250Y320000D01*
X342200Y324950D02*Y321050D01*
Y324950D02*X343250Y326000D01*
X345200D01*
X200000Y339500D02*Y335000D01*
Y339500D02*X201050Y341000D01*
X202700D01*
X203750Y339500D01*
Y335000D01*
X200000Y338000D02*X203750D01*
X205550D02*Y335750D01*
X206300Y335000D01*
X207800D01*
X208550Y335750D01*
Y338000D02*Y335750D01*
X211100Y341000D02*Y335750D01*
X211850Y335000D01*
X210350Y338750D02*X211850D01*
X213350Y341000D02*Y335000D01*
Y337250D02*X214100Y338000D01*
X215600D01*
X216350Y337250D01*
Y335000D01*
X218150Y337250D02*Y335750D01*
Y337250D02*X218900Y338000D01*
X220400D01*
X221150Y337250D01*
Y335750D01*
X220400Y335000D02*X221150Y335750D01*
X218900Y335000D02*X220400D01*
X218150Y335750D02*X218900Y335000D01*
X223700Y337250D02*Y335000D01*
Y337250D02*X224450Y338000D01*
X225950D01*
X222950D02*X223700Y337250D01*
X227750Y338750D02*X228500D01*
X227750Y337250D02*X228500D01*
X200000Y356000D02*X203000D01*
X201500D02*Y350000D01*
G54D54*X204800Y354500D02*Y354350D01*
G54D53*Y352250D02*Y350000D01*
X207050Y356000D02*Y350750D01*
X207800Y350000D01*
X206300Y353750D02*X207800D01*
X209300Y356000D02*Y350750D01*
X210050Y350000D01*
X212300D02*X214550D01*
X211550Y350750D02*X212300Y350000D01*
X211550Y352250D02*Y350750D01*
Y352250D02*X212300Y353000D01*
X213800D01*
X214550Y352250D01*
X211550Y351500D02*X214550D01*
Y352250D02*Y351500D01*
X216350Y353750D02*X217100D01*
X216350Y352250D02*X217100D01*
X221600Y350750D02*X222350Y350000D01*
X221600Y355250D02*X222350Y356000D01*
X221600Y355250D02*Y350750D01*
X224150Y353000D02*Y350750D01*
X224900Y350000D01*
X226400D01*
X227150Y350750D01*
Y353000D02*Y350750D01*
X229700Y352250D02*Y350000D01*
Y352250D02*X230450Y353000D01*
X231200D01*
X231950Y352250D01*
Y350000D01*
X228950Y353000D02*X229700Y352250D01*
X233750Y356000D02*Y350000D01*
Y352250D02*X236000Y350000D01*
X233750Y352250D02*X235250Y353750D01*
X238550Y352250D02*Y350000D01*
Y352250D02*X239300Y353000D01*
X240050D01*
X240800Y352250D01*
Y350000D01*
X237800Y353000D02*X238550Y352250D01*
X242600D02*Y350750D01*
Y352250D02*X243350Y353000D01*
X244850D01*
X245600Y352250D01*
Y350750D01*
X244850Y350000D02*X245600Y350750D01*
X243350Y350000D02*X244850D01*
X242600Y350750D02*X243350Y350000D01*
X247400Y353000D02*Y350750D01*
X248150Y350000D01*
X248900D01*
X249650Y350750D01*
Y353000D02*Y350750D01*
X250400Y350000D01*
X251150D01*
X251900Y350750D01*
Y353000D02*Y350750D01*
X254450Y352250D02*Y350000D01*
Y352250D02*X255200Y353000D01*
X255950D01*
X256700Y352250D01*
Y350000D01*
X253700Y353000D02*X254450Y352250D01*
X258500Y356000D02*X259250Y355250D01*
Y350750D01*
X258500Y350000D02*X259250Y350750D01*
X263750Y353000D02*X266750D01*
X271250Y356000D02*Y350000D01*
Y356000D02*X274250D01*
X271250Y353300D02*X273500D01*
X278300Y353000D02*X279050Y352250D01*
X276800Y353000D02*X278300D01*
X276050Y352250D02*X276800Y353000D01*
X276050Y352250D02*Y350750D01*
X276800Y350000D01*
X279050Y353000D02*Y350750D01*
X279800Y350000D01*
X276800D02*X278300D01*
X279050Y350750D01*
X281600Y356000D02*Y350000D01*
Y350750D02*X282350Y350000D01*
X283850D01*
X284600Y350750D01*
Y352250D02*Y350750D01*
X283850Y353000D02*X284600Y352250D01*
X282350Y353000D02*X283850D01*
X281600Y352250D02*X282350Y353000D01*
X287150Y352250D02*Y350000D01*
Y352250D02*X287900Y353000D01*
X289400D01*
X286400D02*X287150Y352250D01*
G54D54*X291200Y354500D02*Y354350D01*
G54D53*Y352250D02*Y350000D01*
X293450Y353000D02*X295700D01*
X292700Y352250D02*X293450Y353000D01*
X292700Y352250D02*Y350750D01*
X293450Y350000D01*
X295700D01*
X299750Y353000D02*X300500Y352250D01*
X298250Y353000D02*X299750D01*
X297500Y352250D02*X298250Y353000D01*
X297500Y352250D02*Y350750D01*
X298250Y350000D01*
X300500Y353000D02*Y350750D01*
X301250Y350000D01*
X298250D02*X299750D01*
X300500Y350750D01*
X303800Y356000D02*Y350750D01*
X304550Y350000D01*
X303050Y353750D02*X304550D01*
G54D54*X306050Y354500D02*Y354350D01*
G54D53*Y352250D02*Y350000D01*
X307550Y352250D02*Y350750D01*
Y352250D02*X308300Y353000D01*
X309800D01*
X310550Y352250D01*
Y350750D01*
X309800Y350000D02*X310550Y350750D01*
X308300Y350000D02*X309800D01*
X307550Y350750D02*X308300Y350000D01*
X313100Y352250D02*Y350000D01*
Y352250D02*X313850Y353000D01*
X314600D01*
X315350Y352250D01*
Y350000D01*
X312350Y353000D02*X313100Y352250D01*
X320600Y356000D02*Y350000D01*
X322550Y356000D02*X323600Y354950D01*
Y351050D01*
X322550Y350000D02*X323600Y351050D01*
X319850Y350000D02*X322550D01*
X319850Y356000D02*X322550D01*
X326150Y352250D02*Y350000D01*
Y352250D02*X326900Y353000D01*
X328400D01*
X325400D02*X326150Y352250D01*
X332450Y353000D02*X333200Y352250D01*
X330950Y353000D02*X332450D01*
X330200Y352250D02*X330950Y353000D01*
X330200Y352250D02*Y350750D01*
X330950Y350000D01*
X333200Y353000D02*Y350750D01*
X333950Y350000D01*
X330950D02*X332450D01*
X333200Y350750D01*
X335750Y353000D02*Y350750D01*
X336500Y350000D01*
X337250D01*
X338000Y350750D01*
Y353000D02*Y350750D01*
X338750Y350000D01*
X339500D01*
X340250Y350750D01*
Y353000D02*Y350750D01*
G54D54*X342050Y354500D02*Y354350D01*
G54D53*Y352250D02*Y350000D01*
X344300Y352250D02*Y350000D01*
Y352250D02*X345050Y353000D01*
X345800D01*
X346550Y352250D01*
Y350000D01*
X343550Y353000D02*X344300Y352250D01*
X350600Y353000D02*X351350Y352250D01*
X349100Y353000D02*X350600D01*
X348350Y352250D02*X349100Y353000D01*
X348350Y352250D02*Y350750D01*
X349100Y350000D01*
X350600D01*
X351350Y350750D01*
X348350Y348500D02*X349100Y347750D01*
X350600D01*
X351350Y348500D01*
Y353000D02*Y348500D01*
M02*
