G04 start of page 5 for group 3 idx 3 *
G04 Title: (unknown), signal3 *
G04 Creator: pcb 4.2.0 *
G04 CreationDate: Sat Jul  4 16:09:31 2020 UTC *
G04 For: commonadmin *
G04 Format: Gerber/RS-274X *
G04 PCB-Dimensions (mil): 3500.00 8250.00 *
G04 PCB-Coordinate-Origin: lower left *
%MOIN*%
%FSLAX25Y25*%
%LNGROUP3*%
%ADD95C,0.0295*%
%ADD94C,0.0492*%
%ADD93C,0.0197*%
%ADD92C,0.1870*%
%ADD91C,0.0354*%
%ADD90C,0.0380*%
%ADD89C,0.0630*%
%ADD88C,0.0787*%
%ADD87C,0.0886*%
%ADD86C,0.0001*%
%ADD85C,0.0472*%
%ADD84C,0.0394*%
%ADD83C,0.2362*%
%ADD82C,0.1102*%
%ADD81C,0.0669*%
%ADD80C,0.0512*%
%ADD79C,0.0600*%
%ADD78C,0.0906*%
%ADD77C,0.0551*%
%ADD76C,0.0945*%
%ADD75C,0.1043*%
G54D75*X218000Y807000D03*
Y774500D03*
Y742000D03*
Y709500D03*
Y677000D03*
G54D76*X179000Y803000D03*
G54D77*X194748D03*
X192583Y795126D03*
Y810874D03*
X179000Y818748D03*
X186677Y816780D03*
X171323D03*
X163252Y803000D03*
X165417Y795126D03*
Y810874D03*
X179000Y787252D03*
X171323Y789220D03*
X186677D03*
G54D78*X174240Y759500D03*
G54D79*X146000Y731000D03*
X157500D03*
X147500Y721000D03*
X132000Y731000D03*
X133500Y721000D03*
X156000D03*
X146000Y711000D03*
X147500Y701000D03*
X157500Y711000D03*
X156000Y701000D03*
X123500Y731000D03*
X122000Y721000D03*
X123500Y711000D03*
X122000Y701000D03*
X132000Y711000D03*
X133500Y701000D03*
G54D78*X115185Y759500D03*
X134870D03*
X154555D03*
G54D80*X58980Y725504D03*
Y735543D03*
G54D76*X78500Y787500D03*
G54D78*X56130Y759500D03*
X75815D03*
X95500D03*
G54D81*X22996Y733181D03*
G54D82*X36500Y733969D03*
G54D78*X16760Y759500D03*
X36445D03*
G54D83*X23500Y797000D03*
X51846D03*
G54D76*X78740Y812205D03*
X93504D03*
G54D84*X87598Y808268D03*
G54D81*X82283Y804724D03*
X97047D03*
G54D85*X91142Y805118D03*
X76378D03*
G54D84*X72835Y808268D03*
G54D81*X22996Y682787D03*
G54D82*X36500Y682000D03*
G54D80*X58980Y680425D03*
Y690465D03*
X32957Y701961D03*
Y693929D03*
X40043Y697945D03*
X32957Y709992D03*
Y718024D03*
X40043Y705976D03*
Y714008D03*
Y722039D03*
G54D75*X218000Y482000D03*
Y514500D03*
Y612000D03*
Y579500D03*
Y547000D03*
Y644500D03*
G54D79*X146000Y691000D03*
X157500D03*
X132000D03*
X123500D03*
X147500Y681000D03*
X156000D03*
X122000D03*
X133500D03*
G54D86*G36*
X89000Y601000D02*Y595000D01*
X95000D01*
Y601000D01*
X89000D01*
G37*
G54D79*X92000Y588000D03*
Y578000D03*
Y568000D03*
Y558000D03*
Y548000D03*
Y538000D03*
Y528000D03*
G54D86*G36*
X118500Y601000D02*Y595000D01*
X124500D01*
Y601000D01*
X118500D01*
G37*
G54D79*X121500Y588000D03*
Y578000D03*
Y568000D03*
Y558000D03*
Y548000D03*
Y538000D03*
Y528000D03*
G54D86*G36*
X10000Y561000D02*Y555000D01*
X16000D01*
Y561000D01*
X10000D01*
G37*
G54D79*X13000Y548000D03*
X23000D03*
Y558000D03*
G54D86*G36*
X187500Y561000D02*Y555000D01*
X193500D01*
Y561000D01*
X187500D01*
G37*
G54D79*X190500Y548000D03*
X200500D03*
Y558000D03*
G54D87*G54D88*G54D84*G54D89*G54D90*G54D89*G54D91*G54D88*G54D89*G54D80*G54D76*G54D89*G54D92*G54D88*G54D93*G54D94*G54D95*G54D93*G54D80*G54D76*G54D91*G54D87*G54D90*M02*
