G04 start of page 11 for group -4063 idx -4063 *
G04 Title: (unknown), componentmask *
G04 Creator: pcb 4.2.0 *
G04 CreationDate: Sat Jul  4 16:09:31 2020 UTC *
G04 For: commonadmin *
G04 Format: Gerber/RS-274X *
G04 PCB-Dimensions (mil): 3500.00 8250.00 *
G04 PCB-Coordinate-Origin: lower left *
%MOIN*%
%FSLAX25Y25*%
%LNTOPMASK*%
%ADD186C,0.0787*%
%ADD185C,0.0200*%
%ADD184C,0.0001*%
%ADD183C,0.0532*%
%ADD182C,0.0454*%
%ADD181C,0.2422*%
%ADD180C,0.1162*%
%ADD179C,0.0729*%
%ADD178C,0.0960*%
%ADD177C,0.0572*%
%ADD176C,0.0660*%
%ADD175C,0.0966*%
%ADD174C,0.0611*%
%ADD173C,0.1005*%
%ADD172C,0.1103*%
G54D172*X218000Y807000D03*
Y774500D03*
Y742000D03*
Y709500D03*
Y677000D03*
G54D173*X179000Y803000D03*
G54D174*X194748D03*
X192583Y795126D03*
Y810874D03*
X179000Y818748D03*
X186677Y816780D03*
X171323D03*
X163252Y803000D03*
X165417Y795126D03*
Y810874D03*
X179000Y787252D03*
X171323Y789220D03*
X186677D03*
G54D175*X174240Y759500D03*
G54D176*X146000Y731000D03*
X157500D03*
X147500Y721000D03*
X132000Y731000D03*
X133500Y721000D03*
X156000D03*
X146000Y711000D03*
X147500Y701000D03*
X157500Y711000D03*
X156000Y701000D03*
X123500Y731000D03*
X122000Y721000D03*
X123500Y711000D03*
X122000Y701000D03*
X132000Y711000D03*
X133500Y701000D03*
G54D175*X115185Y759500D03*
X134870D03*
X154555D03*
G54D177*X58980Y725504D03*
Y735543D03*
G54D178*X78500Y787500D03*
G54D175*X56130Y759500D03*
X75815D03*
X95500D03*
G54D179*X22996Y733181D03*
G54D180*X36500Y733969D03*
G54D175*X16760Y759500D03*
X36445D03*
G54D181*X23500Y797000D03*
X51846D03*
G54D173*X78740Y812205D03*
X93504D03*
G54D182*X87598Y808268D03*
G54D179*X82283Y804724D03*
X97047D03*
G54D183*X91142Y805118D03*
X76378D03*
G54D182*X72835Y808268D03*
G54D179*X22996Y682787D03*
G54D180*X36500Y682000D03*
G54D177*X58980Y680425D03*
Y690465D03*
X32957Y701961D03*
Y693929D03*
X40043Y697945D03*
X32957Y709992D03*
Y718024D03*
X40043Y705976D03*
Y714008D03*
Y722039D03*
G54D172*X218000Y482000D03*
Y514500D03*
Y612000D03*
Y579500D03*
Y547000D03*
Y644500D03*
G54D176*X146000Y691000D03*
X157500D03*
X132000D03*
X123500D03*
X147500Y681000D03*
X156000D03*
X122000D03*
X133500D03*
G54D184*G36*
X88700Y601300D02*Y594700D01*
X95300D01*
Y601300D01*
X88700D01*
G37*
G54D176*X92000Y588000D03*
Y578000D03*
Y568000D03*
Y558000D03*
Y548000D03*
Y538000D03*
Y528000D03*
G54D184*G36*
X118200Y601300D02*Y594700D01*
X124800D01*
Y601300D01*
X118200D01*
G37*
G54D176*X121500Y588000D03*
Y578000D03*
Y568000D03*
Y558000D03*
Y548000D03*
Y538000D03*
Y528000D03*
G54D184*G36*
X9700Y561300D02*Y554700D01*
X16300D01*
Y561300D01*
X9700D01*
G37*
G54D176*X13000Y548000D03*
X23000D03*
Y558000D03*
G54D184*G36*
X187200Y561300D02*Y554700D01*
X193800D01*
Y561300D01*
X187200D01*
G37*
G54D176*X190500Y548000D03*
X200500D03*
Y558000D03*
G54D185*X69507Y717450D02*X70207Y716750D01*
G54D184*G36*
X67007Y718450D02*Y716450D01*
X70507D01*
Y718450D01*
X67007D01*
G37*
G54D185*X70507Y716750D02*X71107Y717350D01*
X71707Y716750D01*
X70207D02*X73207D01*
X73907Y717450D01*
G54D184*G36*
X72907Y718450D02*Y716450D01*
X75407D01*
Y718450D01*
X72907D01*
G37*
G54D185*X72307Y717350D02*X72907Y716750D01*
X71707D02*X72307Y717350D01*
X70207Y719350D02*X73307D01*
X70207D02*X70407D01*
X73307D02*X73907Y718750D01*
G54D184*G36*
X72907Y719750D02*Y717750D01*
X75407D01*
Y719750D01*
X72907D01*
G37*
G54D185*X69607Y718750D02*X70207Y719350D01*
X70407D02*X71107Y718650D01*
X71807Y719350D01*
X71607D02*X72307Y718650D01*
X73007Y719350D01*
G54D184*G36*
X67007Y719750D02*Y717750D01*
X70607D01*
Y719750D01*
X67007D01*
G37*
G36*
X72316Y729752D02*X66598D01*
Y723248D01*
X72316D01*
Y729752D01*
G37*
G36*
X79402D02*X73684D01*
Y723248D01*
X79402D01*
Y729752D01*
G37*
G36*
X69689Y735087D02*Y732913D01*
X71863D01*
Y735087D01*
X69689D01*
G37*
G36*
X72051D02*Y732913D01*
X74225D01*
Y735087D01*
X72051D01*
G37*
G36*
X31413Y548587D02*Y546413D01*
X33587D01*
Y548587D01*
X31413D01*
G37*
G36*
X33775D02*Y546413D01*
X35949D01*
Y548587D01*
X33775D01*
G37*
G36*
X31051Y557087D02*Y554913D01*
X33225D01*
Y557087D01*
X31051D01*
G37*
G36*
X33413D02*Y554913D01*
X35587D01*
Y557087D01*
X33413D01*
G37*
G36*
X151331Y803866D02*X148504D01*
Y799110D01*
X151331D01*
Y803866D01*
G37*
G36*
X149776Y802862D02*X147146D01*
Y799051D01*
X149776D01*
Y802862D01*
G37*
G36*
X148398D02*X145768D01*
Y799051D01*
X148398D01*
Y802862D01*
G37*
G36*
X147020D02*X144390D01*
Y799051D01*
X147020D01*
Y802862D01*
G37*
G36*
X145642D02*X143012D01*
Y799051D01*
X145642D01*
Y802862D01*
G37*
G36*
X144264D02*X141634D01*
Y799051D01*
X144264D01*
Y802862D01*
G37*
G36*
X142886D02*X140256D01*
Y799051D01*
X142886D01*
Y802862D01*
G37*
G36*
X149776Y809949D02*X147146D01*
Y806138D01*
X149776D01*
Y809949D01*
G37*
G36*
X151331Y809890D02*X148504D01*
Y805134D01*
X151331D01*
Y809890D01*
G37*
G36*
X148398Y809949D02*X145768D01*
Y806138D01*
X148398D01*
Y809949D01*
G37*
G36*
X147020D02*X144390D01*
Y806138D01*
X147020D01*
Y809949D01*
G37*
G36*
X145642D02*X143012D01*
Y806138D01*
X145642D01*
Y809949D01*
G37*
G36*
X141508Y802862D02*X138878D01*
Y799051D01*
X141508D01*
Y802862D01*
G37*
G36*
X140130D02*X137500D01*
Y799051D01*
X140130D01*
Y802862D01*
G37*
G36*
X138752D02*X136122D01*
Y799051D01*
X138752D01*
Y802862D01*
G37*
G36*
X144264Y809949D02*X141634D01*
Y806138D01*
X144264D01*
Y809949D01*
G37*
G36*
X142886D02*X140256D01*
Y806138D01*
X142886D01*
Y809949D01*
G37*
G36*
X141508D02*X138878D01*
Y806138D01*
X141508D01*
Y809949D01*
G37*
G36*
X140130D02*X137500D01*
Y806138D01*
X140130D01*
Y809949D01*
G37*
G36*
X108457Y803866D02*X105630D01*
Y799110D01*
X108457D01*
Y803866D01*
G37*
G36*
Y809890D02*X105630D01*
Y805134D01*
X108457D01*
Y809890D01*
G37*
G36*
X127728Y809949D02*X125098D01*
Y806138D01*
X127728D01*
Y809949D01*
G37*
G36*
X126350D02*X123720D01*
Y806138D01*
X126350D01*
Y809949D01*
G37*
G36*
X124972D02*X122343D01*
Y806138D01*
X124972D01*
Y809949D01*
G37*
G36*
X123594D02*X120965D01*
Y806138D01*
X123594D01*
Y809949D01*
G37*
G36*
X122217D02*X119587D01*
Y806138D01*
X122217D01*
Y809949D01*
G37*
G36*
X120839D02*X118209D01*
Y806138D01*
X120839D01*
Y809949D01*
G37*
G36*
X119461D02*X116831D01*
Y806138D01*
X119461D01*
Y809949D01*
G37*
G36*
X118083D02*X115453D01*
Y806138D01*
X118083D01*
Y809949D01*
G37*
G36*
X116705D02*X114075D01*
Y806138D01*
X116705D01*
Y809949D01*
G37*
G36*
X115327D02*X112697D01*
Y806138D01*
X115327D01*
Y809949D01*
G37*
G36*
X113949D02*X111319D01*
Y806138D01*
X113949D01*
Y809949D01*
G37*
G36*
X112571D02*X109941D01*
Y806138D01*
X112571D01*
Y809949D01*
G37*
G36*
X111193D02*X108563D01*
Y806138D01*
X111193D01*
Y809949D01*
G37*
G36*
X109815D02*X107185D01*
Y806138D01*
X109815D01*
Y809949D01*
G37*
G36*
X137374Y802862D02*X134744D01*
Y799051D01*
X137374D01*
Y802862D01*
G37*
G36*
X135996D02*X133366D01*
Y799051D01*
X135996D01*
Y802862D01*
G37*
G36*
X134618D02*X131988D01*
Y799051D01*
X134618D01*
Y802862D01*
G37*
G36*
X133240D02*X130610D01*
Y799051D01*
X133240D01*
Y802862D01*
G37*
G36*
X131862D02*X129232D01*
Y799051D01*
X131862D01*
Y802862D01*
G37*
G36*
X130484D02*X127854D01*
Y799051D01*
X130484D01*
Y802862D01*
G37*
G36*
X129106D02*X126476D01*
Y799051D01*
X129106D01*
Y802862D01*
G37*
G36*
X138752Y809949D02*X136122D01*
Y806138D01*
X138752D01*
Y809949D01*
G37*
G36*
X137374D02*X134744D01*
Y806138D01*
X137374D01*
Y809949D01*
G37*
G36*
X135996D02*X133366D01*
Y806138D01*
X135996D01*
Y809949D01*
G37*
G36*
X134618D02*X131988D01*
Y806138D01*
X134618D01*
Y809949D01*
G37*
G36*
X133240D02*X130610D01*
Y806138D01*
X133240D01*
Y809949D01*
G37*
G36*
X131862D02*X129232D01*
Y806138D01*
X131862D01*
Y809949D01*
G37*
G36*
X130484D02*X127854D01*
Y806138D01*
X130484D01*
Y809949D01*
G37*
G36*
X129106D02*X126476D01*
Y806138D01*
X129106D01*
Y809949D01*
G37*
G36*
X128606Y793646D02*X125976D01*
Y789835D01*
X128606D01*
Y793646D01*
G37*
G36*
X129984D02*X127354D01*
Y789835D01*
X129984D01*
Y793646D01*
G37*
G36*
X131362D02*X128732D01*
Y789835D01*
X131362D01*
Y793646D01*
G37*
G36*
X132740D02*X130110D01*
Y789835D01*
X132740D01*
Y793646D01*
G37*
G36*
X134118D02*X131488D01*
Y789835D01*
X134118D01*
Y793646D01*
G37*
G36*
X135496D02*X132866D01*
Y789835D01*
X135496D01*
Y793646D01*
G37*
G36*
X136874D02*X134244D01*
Y789835D01*
X136874D01*
Y793646D01*
G37*
G36*
X138252D02*X135622D01*
Y789835D01*
X138252D01*
Y793646D01*
G37*
G36*
X139630D02*X137000D01*
Y789835D01*
X139630D01*
Y793646D01*
G37*
G36*
X141008D02*X138378D01*
Y789835D01*
X141008D01*
Y793646D01*
G37*
G36*
X142386D02*X139756D01*
Y789835D01*
X142386D01*
Y793646D01*
G37*
G36*
X143764D02*X141134D01*
Y789835D01*
X143764D01*
Y793646D01*
G37*
G36*
X145142D02*X142512D01*
Y789835D01*
X145142D01*
Y793646D01*
G37*
G36*
X146520D02*X143890D01*
Y789835D01*
X146520D01*
Y793646D01*
G37*
G36*
X147898D02*X145268D01*
Y789835D01*
X147898D01*
Y793646D01*
G37*
G36*
X149276D02*X146646D01*
Y789835D01*
X149276D01*
Y793646D01*
G37*
G36*
X127728Y802862D02*X125098D01*
Y799051D01*
X127728D01*
Y802862D01*
G37*
G36*
X126350D02*X123720D01*
Y799051D01*
X126350D01*
Y802862D01*
G37*
G36*
X124972D02*X122343D01*
Y799051D01*
X124972D01*
Y802862D01*
G37*
G36*
X123594D02*X120965D01*
Y799051D01*
X123594D01*
Y802862D01*
G37*
G36*
X122217D02*X119587D01*
Y799051D01*
X122217D01*
Y802862D01*
G37*
G36*
X120839D02*X118209D01*
Y799051D01*
X120839D01*
Y802862D01*
G37*
G36*
X119461D02*X116831D01*
Y799051D01*
X119461D01*
Y802862D01*
G37*
G36*
X118083D02*X115453D01*
Y799051D01*
X118083D01*
Y802862D01*
G37*
G36*
X116705D02*X114075D01*
Y799051D01*
X116705D01*
Y802862D01*
G37*
G36*
X115327D02*X112697D01*
Y799051D01*
X115327D01*
Y802862D01*
G37*
G36*
X113949D02*X111319D01*
Y799051D01*
X113949D01*
Y802862D01*
G37*
G36*
X112571D02*X109941D01*
Y799051D01*
X112571D01*
Y802862D01*
G37*
G36*
X111193D02*X108563D01*
Y799051D01*
X111193D01*
Y802862D01*
G37*
G36*
X109815D02*X107185D01*
Y799051D01*
X109815D01*
Y802862D01*
G37*
G36*
X109315Y793646D02*X106685D01*
Y789835D01*
X109315D01*
Y793646D01*
G37*
G36*
X110693D02*X108063D01*
Y789835D01*
X110693D01*
Y793646D01*
G37*
G36*
X112071D02*X109441D01*
Y789835D01*
X112071D01*
Y793646D01*
G37*
G36*
X113449D02*X110819D01*
Y789835D01*
X113449D01*
Y793646D01*
G37*
G36*
X104591Y792268D02*X101173D01*
Y787472D01*
X104591D01*
Y792268D01*
G37*
G36*
Y788528D02*X101173D01*
Y783732D01*
X104591D01*
Y788528D01*
G37*
G54D186*X92500Y787000D03*
G54D184*G36*
X114827Y793646D02*X112197D01*
Y789835D01*
X114827D01*
Y793646D01*
G37*
G36*
X116205D02*X113575D01*
Y789835D01*
X116205D01*
Y793646D01*
G37*
G36*
X117583D02*X114953D01*
Y789835D01*
X117583D01*
Y793646D01*
G37*
G36*
X118961D02*X116331D01*
Y789835D01*
X118961D01*
Y793646D01*
G37*
G36*
X120339D02*X117709D01*
Y789835D01*
X120339D01*
Y793646D01*
G37*
G36*
X121717D02*X119087D01*
Y789835D01*
X121717D01*
Y793646D01*
G37*
G36*
X123094D02*X120465D01*
Y789835D01*
X123094D01*
Y793646D01*
G37*
G36*
X124472D02*X121843D01*
Y789835D01*
X124472D01*
Y793646D01*
G37*
G36*
X125850D02*X123220D01*
Y789835D01*
X125850D01*
Y793646D01*
G37*
G36*
X127228D02*X124598D01*
Y789835D01*
X127228D01*
Y793646D01*
G37*
G36*
X109315Y785969D02*X106685D01*
Y782157D01*
X109315D01*
Y785969D01*
G37*
G36*
X110693D02*X108063D01*
Y782157D01*
X110693D01*
Y785969D01*
G37*
G36*
X112071D02*X109441D01*
Y782157D01*
X112071D01*
Y785969D01*
G37*
G36*
X113449D02*X110819D01*
Y782157D01*
X113449D01*
Y785969D01*
G37*
G36*
X114827D02*X112197D01*
Y782157D01*
X114827D01*
Y785969D01*
G37*
G36*
X116205D02*X113575D01*
Y782157D01*
X116205D01*
Y785969D01*
G37*
G36*
X117583D02*X114953D01*
Y782157D01*
X117583D01*
Y785969D01*
G37*
G36*
X118961D02*X116331D01*
Y782157D01*
X118961D01*
Y785969D01*
G37*
G36*
X120339D02*X117709D01*
Y782157D01*
X120339D01*
Y785969D01*
G37*
G36*
X121717D02*X119087D01*
Y782157D01*
X121717D01*
Y785969D01*
G37*
G36*
X123094D02*X120465D01*
Y782157D01*
X123094D01*
Y785969D01*
G37*
G36*
X124472D02*X121843D01*
Y782157D01*
X124472D01*
Y785969D01*
G37*
G36*
X125850D02*X123220D01*
Y782157D01*
X125850D01*
Y785969D01*
G37*
G36*
X127228D02*X124598D01*
Y782157D01*
X127228D01*
Y785969D01*
G37*
G36*
X128606D02*X125976D01*
Y782157D01*
X128606D01*
Y785969D01*
G37*
G36*
X129984D02*X127354D01*
Y782157D01*
X129984D01*
Y785969D01*
G37*
G36*
X131362D02*X128732D01*
Y782157D01*
X131362D01*
Y785969D01*
G37*
G36*
X132740D02*X130110D01*
Y782157D01*
X132740D01*
Y785969D01*
G37*
G36*
X134118D02*X131488D01*
Y782157D01*
X134118D01*
Y785969D01*
G37*
G36*
X135496D02*X132866D01*
Y782157D01*
X135496D01*
Y785969D01*
G37*
G36*
X136874D02*X134244D01*
Y782157D01*
X136874D01*
Y785969D01*
G37*
G36*
X138252D02*X135622D01*
Y782157D01*
X138252D01*
Y785969D01*
G37*
G36*
X139630D02*X137000D01*
Y782157D01*
X139630D01*
Y785969D01*
G37*
G36*
X141008D02*X138378D01*
Y782157D01*
X141008D01*
Y785969D01*
G37*
G36*
X142386D02*X139756D01*
Y782157D01*
X142386D01*
Y785969D01*
G37*
G36*
X143764D02*X141134D01*
Y782157D01*
X143764D01*
Y785969D01*
G37*
G36*
X145142D02*X142512D01*
Y782157D01*
X145142D01*
Y785969D01*
G37*
G36*
X146520D02*X143890D01*
Y782157D01*
X146520D01*
Y785969D01*
G37*
G36*
X147898D02*X145268D01*
Y782157D01*
X147898D01*
Y785969D01*
G37*
G36*
X149276D02*X146646D01*
Y782157D01*
X149276D01*
Y785969D01*
G37*
G36*
X154787Y788528D02*X151370D01*
Y783732D01*
X154787D01*
Y788528D01*
G37*
G36*
Y792268D02*X151370D01*
Y787472D01*
X154787D01*
Y792268D01*
G37*
M02*
