G04 start of page 12 for group -4062 idx -4062 *
G04 Title: (unknown), soldermask *
G04 Creator: pcb 4.2.0 *
G04 CreationDate: Sat Jul  4 16:09:31 2020 UTC *
G04 For: commonadmin *
G04 Format: Gerber/RS-274X *
G04 PCB-Dimensions (mil): 3500.00 8250.00 *
G04 PCB-Coordinate-Origin: lower left *
%MOIN*%
%FSLAX25Y25*%
%LNBOTTOMMASK*%
%ADD199C,0.0001*%
%ADD198C,0.0532*%
%ADD197C,0.0454*%
%ADD196C,0.2422*%
%ADD195C,0.1162*%
%ADD194C,0.0729*%
%ADD193C,0.0960*%
%ADD192C,0.0572*%
%ADD191C,0.0660*%
%ADD190C,0.0966*%
%ADD189C,0.0611*%
%ADD188C,0.1005*%
%ADD187C,0.1103*%
G54D187*X218000Y807000D03*
Y774500D03*
Y742000D03*
Y709500D03*
Y677000D03*
G54D188*X179000Y803000D03*
G54D189*X194748D03*
X192583Y795126D03*
Y810874D03*
X179000Y818748D03*
X186677Y816780D03*
X171323D03*
X163252Y803000D03*
X165417Y795126D03*
Y810874D03*
X179000Y787252D03*
X171323Y789220D03*
X186677D03*
G54D190*X174240Y759500D03*
G54D191*X146000Y731000D03*
X157500D03*
X147500Y721000D03*
X132000Y731000D03*
X133500Y721000D03*
X156000D03*
X146000Y711000D03*
X147500Y701000D03*
X157500Y711000D03*
X156000Y701000D03*
X123500Y731000D03*
X122000Y721000D03*
X123500Y711000D03*
X122000Y701000D03*
X132000Y711000D03*
X133500Y701000D03*
G54D190*X115185Y759500D03*
X134870D03*
X154555D03*
G54D192*X58980Y725504D03*
Y735543D03*
G54D193*X78500Y787500D03*
G54D190*X56130Y759500D03*
X75815D03*
X95500D03*
G54D194*X22996Y733181D03*
G54D195*X36500Y733969D03*
G54D190*X16760Y759500D03*
X36445D03*
G54D196*X23500Y797000D03*
X51846D03*
G54D188*X78740Y812205D03*
X93504D03*
G54D197*X87598Y808268D03*
G54D194*X82283Y804724D03*
X97047D03*
G54D198*X91142Y805118D03*
X76378D03*
G54D197*X72835Y808268D03*
G54D194*X22996Y682787D03*
G54D195*X36500Y682000D03*
G54D192*X58980Y680425D03*
Y690465D03*
X32957Y701961D03*
Y693929D03*
X40043Y697945D03*
X32957Y709992D03*
Y718024D03*
X40043Y705976D03*
Y714008D03*
Y722039D03*
G54D187*X218000Y482000D03*
Y514500D03*
Y612000D03*
Y579500D03*
Y547000D03*
Y644500D03*
G54D191*X146000Y691000D03*
X157500D03*
X132000D03*
X123500D03*
X147500Y681000D03*
X156000D03*
X122000D03*
X133500D03*
G54D199*G36*
X88700Y601300D02*Y594700D01*
X95300D01*
Y601300D01*
X88700D01*
G37*
G54D191*X92000Y588000D03*
Y578000D03*
Y568000D03*
Y558000D03*
Y548000D03*
Y538000D03*
Y528000D03*
G54D199*G36*
X118200Y601300D02*Y594700D01*
X124800D01*
Y601300D01*
X118200D01*
G37*
G54D191*X121500Y588000D03*
Y578000D03*
Y568000D03*
Y558000D03*
Y548000D03*
Y538000D03*
Y528000D03*
G54D199*G36*
X9700Y561300D02*Y554700D01*
X16300D01*
Y561300D01*
X9700D01*
G37*
G54D191*X13000Y548000D03*
X23000D03*
Y558000D03*
G54D199*G36*
X187200Y561300D02*Y554700D01*
X193800D01*
Y561300D01*
X187200D01*
G37*
G54D191*X190500Y548000D03*
X200500D03*
Y558000D03*
M02*
