G04 start of page 6 for group -4063 idx -4063 *
G04 Title: (unknown), componentmask *
G04 Creator: pcb 1.99z *
G04 CreationDate: Sat 29 Oct 2016 01:04:30 AM GMT UTC *
G04 For: commonadmin *
G04 Format: Gerber/RS-274X *
G04 PCB-Dimensions (mil): 4000.00 3000.00 *
G04 PCB-Coordinate-Origin: lower left *
%MOIN*%
%FSLAX25Y25*%
%LNTOPMASK*%
%ADD62C,0.0729*%
%ADD61C,0.1162*%
%ADD60C,0.0572*%
%ADD59C,0.0660*%
%ADD58C,0.0001*%
G54D58*G36*
X74200Y96331D02*Y89731D01*
X80800D01*
Y96331D01*
X74200D01*
G37*
G54D59*X77500Y83031D03*
X87500D03*
Y93031D03*
X32500D03*
X42500D03*
X52500D03*
X62500D03*
G54D58*G36*
X113200Y86331D02*Y79731D01*
X119800D01*
Y86331D01*
X113200D01*
G37*
G54D59*X116500Y93031D03*
X126500Y83031D03*
Y93031D03*
X136500Y83031D03*
Y93031D03*
X146500Y83031D03*
Y93031D03*
X156500Y83031D03*
Y93031D03*
G54D58*G36*
X261700Y21331D02*Y14731D01*
X268300D01*
Y21331D01*
X261700D01*
G37*
G54D59*X255000Y18031D03*
X245000D03*
X235000D03*
X225000D03*
X215000D03*
X205000D03*
X195000D03*
X176000D03*
G54D60*X60984Y24528D03*
Y14488D03*
G54D61*X35000Y16063D03*
G54D62*X24961Y16850D03*
G54D58*G36*
X9200Y96331D02*Y89731D01*
X15800D01*
Y96331D01*
X9200D01*
G37*
G54D59*X22500Y93031D03*
G54D60*X60984Y59567D03*
Y69606D03*
X38543Y56102D03*
X31457Y27992D03*
Y36024D03*
Y52087D03*
Y44055D03*
X38543Y48071D03*
Y32008D03*
Y40039D03*
G54D61*X35000Y68031D03*
G54D62*X24961Y67244D03*
G54D58*G36*
X261700Y71331D02*Y64731D01*
X268300D01*
Y71331D01*
X261700D01*
G37*
G54D59*X255000Y68031D03*
X245000D03*
X235000D03*
X225000D03*
X215000D03*
X205000D03*
X195000D03*
G54D58*G36*
X172700Y71331D02*Y64731D01*
X179300D01*
Y71331D01*
X172700D01*
G37*
G54D59*X176000Y58031D03*
Y48031D03*
Y38031D03*
Y28031D03*
G54D58*G36*
X251700Y96331D02*Y89731D01*
X258300D01*
Y96331D01*
X251700D01*
G37*
G54D59*X255000Y83031D03*
X265000D03*
Y93031D03*
G54D58*G36*
X182700Y86331D02*Y79731D01*
X189300D01*
Y86331D01*
X182700D01*
G37*
G54D59*X186000Y93031D03*
X196000Y83031D03*
Y93031D03*
X206000Y83031D03*
Y93031D03*
X216000Y83031D03*
X226000D03*
X216000Y93031D03*
X226000D03*
G54D58*G36*
X351700Y21331D02*Y14731D01*
X358300D01*
Y21331D01*
X351700D01*
G37*
G54D59*X345000Y18031D03*
X335000D03*
X325000D03*
G54D58*G36*
X351700Y96331D02*Y89731D01*
X358300D01*
Y96331D01*
X351700D01*
G37*
G54D59*X345000Y93031D03*
X335000D03*
X325000D03*
X315000D03*
X305000D03*
X295000D03*
X285000D03*
G54D60*X304016Y73051D03*
X326457Y65571D03*
X333543Y69587D03*
G54D61*X330000Y81516D03*
G54D62*X340039Y80728D03*
G54D60*X304016Y83091D03*
G54D59*X315000Y18031D03*
X305000D03*
G54D60*X304016Y38012D03*
Y27972D03*
G54D59*X295000Y18031D03*
X285000D03*
G54D60*X326457Y41476D03*
Y49508D03*
Y57539D03*
X333543Y61555D03*
Y45492D03*
Y53524D03*
G54D61*X330000Y29547D03*
G54D62*X340039Y30335D03*
G54D58*G36*
X91275Y81618D02*Y79444D01*
X93449D01*
Y81618D01*
X91275D01*
G37*
G36*
X88913D02*Y79444D01*
X91087D01*
Y81618D01*
X88913D01*
G37*
M02*
