G04 start of page 9 for group -4078 idx -4078 *
G04 Title: (unknown), bottomsilk *
G04 Creator: pcb 1.99z *
G04 CreationDate: Sat 29 Oct 2016 01:04:32 AM GMT UTC *
G04 For: commonadmin *
G04 Format: Gerber/RS-274X *
G04 PCB-Dimensions (mil): 4000.00 3000.00 *
G04 PCB-Coordinate-Origin: lower left *
%MOIN*%
%FSLAX25Y25*%
%LNBOTTOMSILK*%
%ADD81C,0.0040*%
%ADD80C,0.0080*%
%ADD79C,0.0100*%
%ADD78C,0.0060*%
G54D78*X40900Y18931D02*X40100Y19731D01*
X40900Y18931D02*X44400D01*
X45100Y19631D02*X44400Y18931D01*
X44300Y22931D02*X45000Y22231D01*
X40800Y22931D02*X44300D01*
X40100Y22231D02*X40800Y22931D01*
X43350Y31631D02*X42550Y32431D01*
X43350Y31631D02*X46850D01*
X47550Y32331D02*X46850Y31631D01*
X46750Y35631D02*X47450Y34931D01*
X43250Y35631D02*X46750D01*
X42550Y34931D02*X43250Y35631D01*
X42400Y25331D02*X41600Y26131D01*
X42400Y25331D02*X45900D01*
X46600Y26031D02*X45900Y25331D01*
X45800Y29331D02*X46500Y28631D01*
X42300Y29331D02*X45800D01*
X41600Y28631D02*X42300Y29331D01*
G54D79*X60400Y40331D02*Y31131D01*
Y53431D02*Y44131D01*
X48600Y53431D02*X60400D01*
X48600D02*Y31131D01*
X60400D01*
Y44131D02*G75*G03X60400Y40331I0J-1900D01*G01*
G54D78*X43250Y37331D02*X42450Y38131D01*
X43250Y37331D02*X46750D01*
X47450Y38031D02*X46750Y37331D01*
X46650Y41331D02*X47350Y40631D01*
X43150Y41331D02*X46650D01*
X42450Y40631D02*X43150Y41331D01*
X42900Y42831D02*X42100Y43631D01*
X42900Y42831D02*X46400D01*
X47100Y43531D02*X46400Y42831D01*
X46300Y46831D02*X47000Y46131D01*
X42800Y46831D02*X46300D01*
X42100Y46131D02*X42800Y46831D01*
X42250Y49331D02*X41450Y50131D01*
X42250Y49331D02*X45750D01*
X46450Y50031D02*X45750Y49331D01*
X45650Y53331D02*X46350Y52631D01*
X42150Y53331D02*X45650D01*
X41450Y52631D02*X42150Y53331D01*
X44250Y55631D02*X43450Y56431D01*
X44250Y55631D02*X47750D01*
X48450Y56331D02*X47750Y55631D01*
X47650Y59631D02*X48350Y58931D01*
X44150Y59631D02*X47650D01*
X43450Y58931D02*X44150Y59631D01*
G54D80*X56755Y66382D02*Y65596D01*
X51245Y66382D02*Y65596D01*
Y16967D02*Y16181D01*
X56755Y16967D02*Y16181D01*
X186255Y32382D02*Y31596D01*
X180745Y32382D02*Y31596D01*
X290255Y46467D02*Y45681D01*
X284745Y46467D02*Y45681D01*
G54D81*X44850Y78681D02*X40850Y76181D01*
Y78681D02*X44850Y76181D01*
X41650Y74981D02*X40850Y74181D01*
X44850D01*
Y73481D02*Y74981D01*
X44350Y72281D02*X41350Y69281D01*
X40850Y66581D02*Y67381D01*
Y66581D02*X44350D01*
X44850Y67081D02*X44350Y66581D01*
X44850Y67081D02*Y67581D01*
X44350Y68081D02*X44850Y67581D01*
X43850Y68081D02*X44350D01*
X41350Y65381D02*X40850Y64881D01*
Y63381D02*Y64881D01*
Y63381D02*X41350Y62881D01*
X42350D01*
X44850Y65381D02*X42350Y62881D01*
X44850D02*Y65381D01*
M02*
