G04 start of page 12 for group -3984 idx -3984 *
G04 Title: (unknown), fab *
G04 Creator: pcb 1.99z *
G04 CreationDate: Sat 29 Oct 2016 01:04:32 AM GMT UTC *
G04 For: commonadmin *
G04 Format: Gerber/RS-274X *
G04 PCB-Dimensions (mil): 4000.00 3000.00 *
G04 PCB-Coordinate-Origin: lower left *
%MOIN*%
%FSLAX25Y25*%
%LNFAB*%
%ADD94C,0.0100*%
%ADD93C,0.0075*%
%ADD92C,0.0060*%
%ADD91C,0.0001*%
%ADD90R,0.0080X0.0080*%
G54D90*X330000Y29547D02*Y26347D01*
G54D91*G36*
X329454Y29694D02*X332920Y31694D01*
X333320Y31001D01*
X329853Y29001D01*
X329454Y29694D01*
G37*
G36*
X330147Y29001D02*X326680Y31001D01*
X327080Y31694D01*
X330546Y29694D01*
X330147Y29001D01*
G37*
G54D90*X328400Y29547D02*G75*G03X331600Y29547I1600J0D01*G01*
G75*G03X328400Y29547I-1600J0D01*G01*
X330000Y81516D02*Y78316D01*
G54D91*G36*
X329454Y81662D02*X332920Y83662D01*
X333320Y82969D01*
X329853Y80969D01*
X329454Y81662D01*
G37*
G36*
X330147Y80969D02*X326680Y82969D01*
X327080Y83662D01*
X330546Y81662D01*
X330147Y80969D01*
G37*
G54D90*X328400Y81516D02*G75*G03X331600Y81516I1600J0D01*G01*
G75*G03X328400Y81516I-1600J0D01*G01*
X35000Y68031D02*Y64831D01*
G54D91*G36*
X34454Y68178D02*X37920Y70178D01*
X38320Y69485D01*
X34853Y67485D01*
X34454Y68178D01*
G37*
G36*
X35147Y67485D02*X31680Y69485D01*
X32080Y70178D01*
X35546Y68178D01*
X35147Y67485D01*
G37*
G54D90*X33400Y68031D02*G75*G03X36600Y68031I1600J0D01*G01*
G75*G03X33400Y68031I-1600J0D01*G01*
X35000Y16063D02*Y12863D01*
G54D91*G36*
X34454Y16210D02*X37920Y18209D01*
X38320Y17516D01*
X34853Y15517D01*
X34454Y16210D01*
G37*
G36*
X35147Y15517D02*X31680Y17516D01*
X32080Y18209D01*
X35546Y16210D01*
X35147Y15517D01*
G37*
G54D90*X33400Y16063D02*G75*G03X36600Y16063I1600J0D01*G01*
G75*G03X33400Y16063I-1600J0D01*G01*
X15000Y311250D02*Y308050D01*
G54D91*G36*
X14454Y311397D02*X17920Y313396D01*
X18320Y312703D01*
X14853Y310704D01*
X14454Y311397D01*
G37*
G36*
X15147Y310704D02*X11680Y312703D01*
X12080Y313396D01*
X15546Y311397D01*
X15147Y310704D01*
G37*
G54D90*X13400Y311250D02*G75*G03X16600Y311250I1600J0D01*G01*
G75*G03X13400Y311250I-1600J0D01*G01*
G54D92*X135000Y313500D02*X136500Y310500D01*
X138000Y313500D01*
X136500Y310500D02*Y307500D01*
X139800Y310800D02*X142050D01*
X139800Y307500D02*X142800D01*
X139800Y313500D02*Y307500D01*
Y313500D02*X142800D01*
X147600D02*X148350Y312750D01*
X145350Y313500D02*X147600D01*
X144600Y312750D02*X145350Y313500D01*
X144600Y312750D02*Y311250D01*
X145350Y310500D01*
X147600D01*
X148350Y309750D01*
Y308250D01*
X147600Y307500D02*X148350Y308250D01*
X145350Y307500D02*X147600D01*
X144600Y308250D02*X145350Y307500D01*
X98000Y309750D02*X101000Y313500D01*
X98000Y309750D02*X101750D01*
X101000Y313500D02*Y307500D01*
X45000Y308250D02*X45750Y307500D01*
X45000Y312750D02*Y308250D01*
Y312750D02*X45750Y313500D01*
X47250D01*
X48000Y312750D01*
Y308250D01*
X47250Y307500D02*X48000Y308250D01*
X45750Y307500D02*X47250D01*
X45000Y309000D02*X48000Y312000D01*
X49800Y307500D02*X50550D01*
X52350Y308250D02*X53100Y307500D01*
X52350Y312750D02*Y308250D01*
Y312750D02*X53100Y313500D01*
X54600D01*
X55350Y312750D01*
Y308250D01*
X54600Y307500D02*X55350Y308250D01*
X53100Y307500D02*X54600D01*
X52350Y309000D02*X55350Y312000D01*
X57900Y307500D02*X60150Y310500D01*
Y312750D02*Y310500D01*
X59400Y313500D02*X60150Y312750D01*
X57900Y313500D02*X59400D01*
X57150Y312750D02*X57900Y313500D01*
X57150Y312750D02*Y311250D01*
X57900Y310500D01*
X60150D01*
X61950Y313500D02*X64950D01*
X61950D02*Y310500D01*
X62700Y311250D01*
X64200D01*
X64950Y310500D01*
Y308250D01*
X64200Y307500D02*X64950Y308250D01*
X62700Y307500D02*X64200D01*
X61950Y308250D02*X62700Y307500D01*
X338439Y82328D02*X341639D01*
X338439D02*Y79128D01*
X341639D01*
Y82328D02*Y79128D01*
X338439Y31935D02*X341639D01*
X338439D02*Y28735D01*
X341639D01*
Y31935D02*Y28735D01*
X23361Y18450D02*X26561D01*
X23361D02*Y15250D01*
X26561D01*
Y18450D02*Y15250D01*
X23361Y68844D02*X26561D01*
X23361D02*Y65644D01*
X26561D01*
Y68844D02*Y65644D01*
X13400Y327850D02*X16600D01*
X13400D02*Y324650D01*
X16600D01*
Y327850D02*Y324650D01*
X135000Y328500D02*X136500Y325500D01*
X138000Y328500D01*
X136500Y325500D02*Y322500D01*
X139800Y325800D02*X142050D01*
X139800Y322500D02*X142800D01*
X139800Y328500D02*Y322500D01*
Y328500D02*X142800D01*
X147600D02*X148350Y327750D01*
X145350Y328500D02*X147600D01*
X144600Y327750D02*X145350Y328500D01*
X144600Y327750D02*Y326250D01*
X145350Y325500D01*
X147600D01*
X148350Y324750D01*
Y323250D01*
X147600Y322500D02*X148350Y323250D01*
X145350Y322500D02*X147600D01*
X144600Y323250D02*X145350Y322500D01*
X98000Y324750D02*X101000Y328500D01*
X98000Y324750D02*X101750D01*
X101000Y328500D02*Y322500D01*
X45000Y323250D02*X45750Y322500D01*
X45000Y327750D02*Y323250D01*
Y327750D02*X45750Y328500D01*
X47250D01*
X48000Y327750D01*
Y323250D01*
X47250Y322500D02*X48000Y323250D01*
X45750Y322500D02*X47250D01*
X45000Y324000D02*X48000Y327000D01*
X49800Y322500D02*X50550D01*
X52350Y323250D02*X53100Y322500D01*
X52350Y327750D02*Y323250D01*
Y327750D02*X53100Y328500D01*
X54600D01*
X55350Y327750D01*
Y323250D01*
X54600Y322500D02*X55350Y323250D01*
X53100Y322500D02*X54600D01*
X52350Y324000D02*X55350Y327000D01*
X57150Y328500D02*X60150D01*
X57150D02*Y325500D01*
X57900Y326250D01*
X59400D01*
X60150Y325500D01*
Y323250D01*
X59400Y322500D02*X60150Y323250D01*
X57900Y322500D02*X59400D01*
X57150Y323250D02*X57900Y322500D01*
X61950Y327300D02*X63150Y328500D01*
Y322500D01*
X61950D02*X64200D01*
X254200Y93031D02*G75*G03X255800Y93031I800J0D01*G01*
G75*G03X254200Y93031I-800J0D01*G01*
Y83031D02*G75*G03X255800Y83031I800J0D01*G01*
G75*G03X254200Y83031I-800J0D01*G01*
X264200D02*G75*G03X265800Y83031I800J0D01*G01*
G75*G03X264200Y83031I-800J0D01*G01*
Y93031D02*G75*G03X265800Y93031I800J0D01*G01*
G75*G03X264200Y93031I-800J0D01*G01*
X76700D02*G75*G03X78300Y93031I800J0D01*G01*
G75*G03X76700Y93031I-800J0D01*G01*
Y83031D02*G75*G03X78300Y83031I800J0D01*G01*
G75*G03X76700Y83031I-800J0D01*G01*
X86700D02*G75*G03X88300Y83031I800J0D01*G01*
G75*G03X86700Y83031I-800J0D01*G01*
Y93031D02*G75*G03X88300Y93031I800J0D01*G01*
G75*G03X86700Y93031I-800J0D01*G01*
X11700D02*G75*G03X13300Y93031I800J0D01*G01*
G75*G03X11700Y93031I-800J0D01*G01*
X21700D02*G75*G03X23300Y93031I800J0D01*G01*
G75*G03X21700Y93031I-800J0D01*G01*
X31700D02*G75*G03X33300Y93031I800J0D01*G01*
G75*G03X31700Y93031I-800J0D01*G01*
X41700D02*G75*G03X43300Y93031I800J0D01*G01*
G75*G03X41700Y93031I-800J0D01*G01*
X51700D02*G75*G03X53300Y93031I800J0D01*G01*
G75*G03X51700Y93031I-800J0D01*G01*
X61700D02*G75*G03X63300Y93031I800J0D01*G01*
G75*G03X61700Y93031I-800J0D01*G01*
X185200Y83031D02*G75*G03X186800Y83031I800J0D01*G01*
G75*G03X185200Y83031I-800J0D01*G01*
Y93031D02*G75*G03X186800Y93031I800J0D01*G01*
G75*G03X185200Y93031I-800J0D01*G01*
X195200Y83031D02*G75*G03X196800Y83031I800J0D01*G01*
G75*G03X195200Y83031I-800J0D01*G01*
Y93031D02*G75*G03X196800Y93031I800J0D01*G01*
G75*G03X195200Y93031I-800J0D01*G01*
X205200Y83031D02*G75*G03X206800Y83031I800J0D01*G01*
G75*G03X205200Y83031I-800J0D01*G01*
Y93031D02*G75*G03X206800Y93031I800J0D01*G01*
G75*G03X205200Y93031I-800J0D01*G01*
X215200Y83031D02*G75*G03X216800Y83031I800J0D01*G01*
G75*G03X215200Y83031I-800J0D01*G01*
Y93031D02*G75*G03X216800Y93031I800J0D01*G01*
G75*G03X215200Y93031I-800J0D01*G01*
X225200Y83031D02*G75*G03X226800Y83031I800J0D01*G01*
G75*G03X225200Y83031I-800J0D01*G01*
Y93031D02*G75*G03X226800Y93031I800J0D01*G01*
G75*G03X225200Y93031I-800J0D01*G01*
X115700Y83031D02*G75*G03X117300Y83031I800J0D01*G01*
G75*G03X115700Y83031I-800J0D01*G01*
Y93031D02*G75*G03X117300Y93031I800J0D01*G01*
G75*G03X115700Y93031I-800J0D01*G01*
X125700Y83031D02*G75*G03X127300Y83031I800J0D01*G01*
G75*G03X125700Y83031I-800J0D01*G01*
Y93031D02*G75*G03X127300Y93031I800J0D01*G01*
G75*G03X125700Y93031I-800J0D01*G01*
X135700Y83031D02*G75*G03X137300Y83031I800J0D01*G01*
G75*G03X135700Y83031I-800J0D01*G01*
Y93031D02*G75*G03X137300Y93031I800J0D01*G01*
G75*G03X135700Y93031I-800J0D01*G01*
X145700Y83031D02*G75*G03X147300Y83031I800J0D01*G01*
G75*G03X145700Y83031I-800J0D01*G01*
Y93031D02*G75*G03X147300Y93031I800J0D01*G01*
G75*G03X145700Y93031I-800J0D01*G01*
X155700Y83031D02*G75*G03X157300Y83031I800J0D01*G01*
G75*G03X155700Y83031I-800J0D01*G01*
Y93031D02*G75*G03X157300Y93031I800J0D01*G01*
G75*G03X155700Y93031I-800J0D01*G01*
X354200Y18031D02*G75*G03X355800Y18031I800J0D01*G01*
G75*G03X354200Y18031I-800J0D01*G01*
X344200D02*G75*G03X345800Y18031I800J0D01*G01*
G75*G03X344200Y18031I-800J0D01*G01*
X334200D02*G75*G03X335800Y18031I800J0D01*G01*
G75*G03X334200Y18031I-800J0D01*G01*
X324200D02*G75*G03X325800Y18031I800J0D01*G01*
G75*G03X324200Y18031I-800J0D01*G01*
X314200D02*G75*G03X315800Y18031I800J0D01*G01*
G75*G03X314200Y18031I-800J0D01*G01*
X304200D02*G75*G03X305800Y18031I800J0D01*G01*
G75*G03X304200Y18031I-800J0D01*G01*
X294200D02*G75*G03X295800Y18031I800J0D01*G01*
G75*G03X294200Y18031I-800J0D01*G01*
X284200D02*G75*G03X285800Y18031I800J0D01*G01*
G75*G03X284200Y18031I-800J0D01*G01*
X354200Y93031D02*G75*G03X355800Y93031I800J0D01*G01*
G75*G03X354200Y93031I-800J0D01*G01*
X344200D02*G75*G03X345800Y93031I800J0D01*G01*
G75*G03X344200Y93031I-800J0D01*G01*
X334200D02*G75*G03X335800Y93031I800J0D01*G01*
G75*G03X334200Y93031I-800J0D01*G01*
X324200D02*G75*G03X325800Y93031I800J0D01*G01*
G75*G03X324200Y93031I-800J0D01*G01*
X314200D02*G75*G03X315800Y93031I800J0D01*G01*
G75*G03X314200Y93031I-800J0D01*G01*
X304200D02*G75*G03X305800Y93031I800J0D01*G01*
G75*G03X304200Y93031I-800J0D01*G01*
X294200D02*G75*G03X295800Y93031I800J0D01*G01*
G75*G03X294200Y93031I-800J0D01*G01*
X284200D02*G75*G03X285800Y93031I800J0D01*G01*
G75*G03X284200Y93031I-800J0D01*G01*
X264200Y18031D02*G75*G03X265800Y18031I800J0D01*G01*
G75*G03X264200Y18031I-800J0D01*G01*
X254200D02*G75*G03X255800Y18031I800J0D01*G01*
G75*G03X254200Y18031I-800J0D01*G01*
X244200D02*G75*G03X245800Y18031I800J0D01*G01*
G75*G03X244200Y18031I-800J0D01*G01*
X234200D02*G75*G03X235800Y18031I800J0D01*G01*
G75*G03X234200Y18031I-800J0D01*G01*
X224200D02*G75*G03X225800Y18031I800J0D01*G01*
G75*G03X224200Y18031I-800J0D01*G01*
X214200D02*G75*G03X215800Y18031I800J0D01*G01*
G75*G03X214200Y18031I-800J0D01*G01*
X204200D02*G75*G03X205800Y18031I800J0D01*G01*
G75*G03X204200Y18031I-800J0D01*G01*
X194200D02*G75*G03X195800Y18031I800J0D01*G01*
G75*G03X194200Y18031I-800J0D01*G01*
X264200Y68031D02*G75*G03X265800Y68031I800J0D01*G01*
G75*G03X264200Y68031I-800J0D01*G01*
X254200D02*G75*G03X255800Y68031I800J0D01*G01*
G75*G03X254200Y68031I-800J0D01*G01*
X244200D02*G75*G03X245800Y68031I800J0D01*G01*
G75*G03X244200Y68031I-800J0D01*G01*
X234200D02*G75*G03X235800Y68031I800J0D01*G01*
G75*G03X234200Y68031I-800J0D01*G01*
X224200D02*G75*G03X225800Y68031I800J0D01*G01*
G75*G03X224200Y68031I-800J0D01*G01*
X214200D02*G75*G03X215800Y68031I800J0D01*G01*
G75*G03X214200Y68031I-800J0D01*G01*
X204200D02*G75*G03X205800Y68031I800J0D01*G01*
G75*G03X204200Y68031I-800J0D01*G01*
X194200D02*G75*G03X195800Y68031I800J0D01*G01*
G75*G03X194200Y68031I-800J0D01*G01*
X175200D02*G75*G03X176800Y68031I800J0D01*G01*
G75*G03X175200Y68031I-800J0D01*G01*
Y58031D02*G75*G03X176800Y58031I800J0D01*G01*
G75*G03X175200Y58031I-800J0D01*G01*
Y48031D02*G75*G03X176800Y48031I800J0D01*G01*
G75*G03X175200Y48031I-800J0D01*G01*
Y38031D02*G75*G03X176800Y38031I800J0D01*G01*
G75*G03X175200Y38031I-800J0D01*G01*
Y28031D02*G75*G03X176800Y28031I800J0D01*G01*
G75*G03X175200Y28031I-800J0D01*G01*
Y18031D02*G75*G03X176800Y18031I800J0D01*G01*
G75*G03X175200Y18031I-800J0D01*G01*
X14200Y341250D02*G75*G03X15800Y341250I800J0D01*G01*
G75*G03X14200Y341250I-800J0D01*G01*
X135000Y343500D02*X136500Y340500D01*
X138000Y343500D01*
X136500Y340500D02*Y337500D01*
X139800Y340800D02*X142050D01*
X139800Y337500D02*X142800D01*
X139800Y343500D02*Y337500D01*
Y343500D02*X142800D01*
X147600D02*X148350Y342750D01*
X145350Y343500D02*X147600D01*
X144600Y342750D02*X145350Y343500D01*
X144600Y342750D02*Y341250D01*
X145350Y340500D01*
X147600D01*
X148350Y339750D01*
Y338250D01*
X147600Y337500D02*X148350Y338250D01*
X145350Y337500D02*X147600D01*
X144600Y338250D02*X145350Y337500D01*
X98750D02*X101750Y343500D01*
X98000D02*X101750D01*
X103550Y342750D02*X104300Y343500D01*
X106550D01*
X107300Y342750D01*
Y341250D01*
X103550Y337500D02*X107300Y341250D01*
X103550Y337500D02*X107300D01*
X45000Y338250D02*X45750Y337500D01*
X45000Y342750D02*Y338250D01*
Y342750D02*X45750Y343500D01*
X47250D01*
X48000Y342750D01*
Y338250D01*
X47250Y337500D02*X48000Y338250D01*
X45750Y337500D02*X47250D01*
X45000Y339000D02*X48000Y342000D01*
X49800Y337500D02*X50550D01*
X52350Y338250D02*X53100Y337500D01*
X52350Y342750D02*Y338250D01*
Y342750D02*X53100Y343500D01*
X54600D01*
X55350Y342750D01*
Y338250D01*
X54600Y337500D02*X55350Y338250D01*
X53100Y337500D02*X54600D01*
X52350Y339000D02*X55350Y342000D01*
X57150Y342750D02*X57900Y343500D01*
X59400D01*
X60150Y342750D01*
X59400Y337500D02*X60150Y338250D01*
X57900Y337500D02*X59400D01*
X57150Y338250D02*X57900Y337500D01*
Y340800D02*X59400D01*
X60150Y342750D02*Y341550D01*
Y340050D02*Y338250D01*
Y340050D02*X59400Y340800D01*
X60150Y341550D02*X59400Y340800D01*
X61950Y338250D02*X62700Y337500D01*
X61950Y339450D02*Y338250D01*
Y339450D02*X63000Y340500D01*
X63900D01*
X64950Y339450D01*
Y338250D01*
X64200Y337500D02*X64950Y338250D01*
X62700Y337500D02*X64200D01*
X61950Y341550D02*X63000Y340500D01*
X61950Y342750D02*Y341550D01*
Y342750D02*X62700Y343500D01*
X64200D01*
X64950Y342750D01*
Y341550D01*
X63900Y340500D02*X64950Y341550D01*
X12800Y60731D02*X15200Y58331D01*
X12800D02*X15200Y60731D01*
X17800Y38731D02*X20200Y36331D01*
X17800D02*X20200Y38731D01*
X23300Y82731D02*X25700Y80331D01*
X23300D02*X25700Y82731D01*
X302816Y39212D02*X305216Y36812D01*
X302816D02*X305216Y39212D01*
X302816Y74251D02*X305216Y71851D01*
X302816D02*X305216Y74251D01*
X302816Y29172D02*X305216Y26772D01*
X302816D02*X305216Y29172D01*
X302816Y84291D02*X305216Y81891D01*
X302816D02*X305216Y84291D01*
X325257Y42676D02*X327657Y40276D01*
X325257D02*X327657Y42676D01*
X325257Y50708D02*X327657Y48308D01*
X325257D02*X327657Y50708D01*
X325257Y66771D02*X327657Y64371D01*
X325257D02*X327657Y66771D01*
X325257Y58739D02*X327657Y56339D01*
X325257D02*X327657Y58739D01*
X332343Y70787D02*X334743Y68387D01*
X332343D02*X334743Y70787D01*
X332343Y62755D02*X334743Y60355D01*
X332343D02*X334743Y62755D01*
X332343Y46692D02*X334743Y44292D01*
X332343D02*X334743Y46692D01*
X332343Y54724D02*X334743Y52324D01*
X332343D02*X334743Y54724D01*
X59784Y60767D02*X62184Y58367D01*
X59784D02*X62184Y60767D01*
X59784Y25728D02*X62184Y23328D01*
X59784D02*X62184Y25728D01*
X59784Y70806D02*X62184Y68406D01*
X59784D02*X62184Y70806D01*
X59784Y15688D02*X62184Y13288D01*
X59784D02*X62184Y15688D01*
X37343Y57302D02*X39743Y54902D01*
X37343D02*X39743Y57302D01*
X37343Y49271D02*X39743Y46871D01*
X37343D02*X39743Y49271D01*
X37343Y33208D02*X39743Y30808D01*
X37343D02*X39743Y33208D01*
X37343Y41239D02*X39743Y38839D01*
X37343D02*X39743Y41239D01*
X30257Y29192D02*X32657Y26792D01*
X30257D02*X32657Y29192D01*
X30257Y37224D02*X32657Y34824D01*
X30257D02*X32657Y37224D01*
X30257Y53287D02*X32657Y50887D01*
X30257D02*X32657Y53287D01*
X30257Y45255D02*X32657Y42855D01*
X30257D02*X32657Y45255D01*
X13800Y357450D02*X16200Y355050D01*
X13800D02*X16200Y357450D01*
X135000Y358500D02*X136500Y355500D01*
X138000Y358500D01*
X136500Y355500D02*Y352500D01*
X139800Y355800D02*X142050D01*
X139800Y352500D02*X142800D01*
X139800Y358500D02*Y352500D01*
Y358500D02*X142800D01*
X147600D02*X148350Y357750D01*
X145350Y358500D02*X147600D01*
X144600Y357750D02*X145350Y358500D01*
X144600Y357750D02*Y356250D01*
X145350Y355500D01*
X147600D01*
X148350Y354750D01*
Y353250D01*
X147600Y352500D02*X148350Y353250D01*
X145350Y352500D02*X147600D01*
X144600Y353250D02*X145350Y352500D01*
X98000Y357750D02*X98750Y358500D01*
X101000D01*
X101750Y357750D01*
Y356250D01*
X98000Y352500D02*X101750Y356250D01*
X98000Y352500D02*X101750D01*
X104300D02*X107300Y358500D01*
X103550D02*X107300D01*
X45000Y353250D02*X45750Y352500D01*
X45000Y357750D02*Y353250D01*
Y357750D02*X45750Y358500D01*
X47250D01*
X48000Y357750D01*
Y353250D01*
X47250Y352500D02*X48000Y353250D01*
X45750Y352500D02*X47250D01*
X45000Y354000D02*X48000Y357000D01*
X49800Y352500D02*X50550D01*
X52350Y353250D02*X53100Y352500D01*
X52350Y357750D02*Y353250D01*
Y357750D02*X53100Y358500D01*
X54600D01*
X55350Y357750D01*
Y353250D01*
X54600Y352500D02*X55350Y353250D01*
X53100Y352500D02*X54600D01*
X52350Y354000D02*X55350Y357000D01*
X57150Y357750D02*X57900Y358500D01*
X59400D01*
X60150Y357750D01*
X59400Y352500D02*X60150Y353250D01*
X57900Y352500D02*X59400D01*
X57150Y353250D02*X57900Y352500D01*
Y355800D02*X59400D01*
X60150Y357750D02*Y356550D01*
Y355050D02*Y353250D01*
Y355050D02*X59400Y355800D01*
X60150Y356550D02*X59400Y355800D01*
X61950Y358500D02*X64950D01*
X61950D02*Y355500D01*
X62700Y356250D01*
X64200D01*
X64950Y355500D01*
Y353250D01*
X64200Y352500D02*X64950Y353250D01*
X62700Y352500D02*X64200D01*
X61950Y353250D02*X62700Y352500D01*
X25500Y38131D02*Y34931D01*
X23900Y36531D02*X27100D01*
X14000Y81131D02*Y77931D01*
X12400Y79531D02*X15600D01*
X46000Y72131D02*Y68931D01*
X44400Y70531D02*X47600D01*
X54000Y64046D02*Y60846D01*
X52400Y62446D02*X55600D01*
X62100Y66231D02*Y63031D01*
X60500Y64631D02*X63700D01*
X63900Y50431D02*Y47231D01*
X62300Y48831D02*X65500D01*
X183500Y30046D02*Y26846D01*
X181900Y28446D02*X185100D01*
X272000Y14131D02*Y10931D01*
X270400Y12531D02*X273600D01*
X183500Y19131D02*Y15931D01*
X181900Y17531D02*X185100D01*
X297000Y84631D02*Y81431D01*
X295400Y83031D02*X298600D01*
X271500Y82631D02*Y79431D01*
X269900Y81031D02*X273100D01*
X199500Y64631D02*Y61431D01*
X197900Y63031D02*X201100D01*
X232500Y94131D02*Y90931D01*
X230900Y92531D02*X234100D01*
X238000Y94131D02*Y90931D01*
X236400Y92531D02*X239600D01*
X264500Y40631D02*Y37431D01*
X262900Y39031D02*X266100D01*
X244000Y45131D02*Y41931D01*
X242400Y43531D02*X245600D01*
X295500Y64131D02*Y60931D01*
X293900Y62531D02*X297100D01*
X295500Y68631D02*Y65431D01*
X293900Y67031D02*X297100D01*
X295500Y75631D02*Y72431D01*
X293900Y74031D02*X297100D01*
X295500Y56631D02*Y53431D01*
X293900Y55031D02*X297100D01*
X262500Y58131D02*Y54931D01*
X260900Y56531D02*X264100D01*
X262500Y53631D02*Y50431D01*
X260900Y52031D02*X264100D01*
X15000Y372850D02*Y369650D01*
X13400Y371250D02*X16600D01*
X135000Y373500D02*X136500Y370500D01*
X138000Y373500D01*
X136500Y370500D02*Y367500D01*
X139800Y370800D02*X142050D01*
X139800Y367500D02*X142800D01*
X139800Y373500D02*Y367500D01*
Y373500D02*X142800D01*
X147600D02*X148350Y372750D01*
X145350Y373500D02*X147600D01*
X144600Y372750D02*X145350Y373500D01*
X144600Y372750D02*Y371250D01*
X145350Y370500D01*
X147600D01*
X148350Y369750D01*
Y368250D01*
X147600Y367500D02*X148350Y368250D01*
X145350Y367500D02*X147600D01*
X144600Y368250D02*X145350Y367500D01*
X98000Y372750D02*X98750Y373500D01*
X101000D01*
X101750Y372750D01*
Y371250D01*
X98000Y367500D02*X101750Y371250D01*
X98000Y367500D02*X101750D01*
X103550Y372750D02*X104300Y373500D01*
X106550D01*
X107300Y372750D01*
Y371250D01*
X103550Y367500D02*X107300Y371250D01*
X103550Y367500D02*X107300D01*
X45000Y368250D02*X45750Y367500D01*
X45000Y372750D02*Y368250D01*
Y372750D02*X45750Y373500D01*
X47250D01*
X48000Y372750D01*
Y368250D01*
X47250Y367500D02*X48000Y368250D01*
X45750Y367500D02*X47250D01*
X45000Y369000D02*X48000Y372000D01*
X49800Y367500D02*X50550D01*
X52350Y368250D02*X53100Y367500D01*
X52350Y372750D02*Y368250D01*
Y372750D02*X53100Y373500D01*
X54600D01*
X55350Y372750D01*
Y368250D01*
X54600Y367500D02*X55350Y368250D01*
X53100Y367500D02*X54600D01*
X52350Y369000D02*X55350Y372000D01*
X57150Y372750D02*X57900Y373500D01*
X60150D01*
X60900Y372750D01*
Y371250D01*
X57150Y367500D02*X60900Y371250D01*
X57150Y367500D02*X60900D01*
X62700Y368250D02*X63450Y367500D01*
X62700Y372750D02*Y368250D01*
Y372750D02*X63450Y373500D01*
X64950D01*
X65700Y372750D01*
Y368250D01*
X64950Y367500D02*X65700Y368250D01*
X63450Y367500D02*X64950D01*
X62700Y369000D02*X65700Y372000D01*
X59000Y39531D02*Y37931D01*
Y39531D02*X60387Y40331D01*
X59000Y39531D02*X57613Y40331D01*
X49500Y54531D02*Y52931D01*
Y54531D02*X50887Y55331D01*
X49500Y54531D02*X48113Y55331D01*
X43500Y55531D02*Y53931D01*
Y55531D02*X44887Y56331D01*
X43500Y55531D02*X42113Y56331D01*
X41000Y25531D02*Y23931D01*
Y25531D02*X42387Y26331D01*
X41000Y25531D02*X39613Y26331D01*
X42000Y43031D02*Y41431D01*
Y43031D02*X43387Y43831D01*
X42000Y43031D02*X40613Y43831D01*
X43100Y31331D02*Y29731D01*
Y31331D02*X44487Y32131D01*
X43100Y31331D02*X41713Y32131D01*
X42500Y37531D02*Y35931D01*
Y37531D02*X43887Y38331D01*
X42500Y37531D02*X41113Y38331D01*
X33900Y40131D02*Y38531D01*
Y40131D02*X35287Y40931D01*
X33900Y40131D02*X32513Y40931D01*
X43200Y48531D02*Y46931D01*
Y48531D02*X44587Y49331D01*
X43200Y48531D02*X41813Y49331D01*
X342500Y35531D02*Y33931D01*
Y35531D02*X343887Y36331D01*
X342500Y35531D02*X341113Y36331D01*
X342500Y68531D02*Y66931D01*
Y68531D02*X343887Y69331D01*
X342500Y68531D02*X341113Y69331D01*
X308500Y64031D02*Y62431D01*
Y64031D02*X309887Y64831D01*
X308500Y64031D02*X307113Y64831D01*
X317500Y38531D02*Y36931D01*
Y38531D02*X318887Y39331D01*
X317500Y38531D02*X316113Y39331D01*
X317500Y48531D02*Y46931D01*
Y48531D02*X318887Y49331D01*
X317500Y48531D02*X316113Y49331D01*
X288500Y35531D02*Y33931D01*
Y35531D02*X289887Y36331D01*
X288500Y35531D02*X287113Y36331D01*
X285000Y34531D02*Y32931D01*
Y34531D02*X286387Y35331D01*
X285000Y34531D02*X283613Y35331D01*
X293000Y42031D02*Y40431D01*
Y42031D02*X294387Y42831D01*
X293000Y42031D02*X291613Y42831D01*
X295500Y45531D02*Y43931D01*
Y45531D02*X296887Y46331D01*
X295500Y45531D02*X294113Y46331D01*
X169700Y80231D02*Y78631D01*
Y80231D02*X171087Y81031D01*
X169700Y80231D02*X168313Y81031D01*
X165800Y80231D02*Y78631D01*
Y80231D02*X167187Y81031D01*
X165800Y80231D02*X164413Y81031D01*
X178400Y80231D02*Y78631D01*
Y80231D02*X179787Y81031D01*
X178400Y80231D02*X177013Y81031D01*
X174500Y80231D02*Y78631D01*
Y80231D02*X175887Y81031D01*
X174500Y80231D02*X173113Y81031D01*
X189000Y74031D02*Y72431D01*
Y74031D02*X190387Y74831D01*
X189000Y74031D02*X187613Y74831D01*
X203500Y73031D02*Y71431D01*
Y73031D02*X204887Y73831D01*
X203500Y73031D02*X202113Y73831D01*
X193000Y75031D02*Y73431D01*
Y75031D02*X194387Y75831D01*
X193000Y75031D02*X191613Y75831D01*
X15000Y386250D02*Y384650D01*
Y386250D02*X16387Y387050D01*
X15000Y386250D02*X13613Y387050D01*
X135000Y388500D02*X136500Y385500D01*
X138000Y388500D01*
X136500Y385500D02*Y382500D01*
X139800Y385800D02*X142050D01*
X139800Y382500D02*X142800D01*
X139800Y388500D02*Y382500D01*
Y388500D02*X142800D01*
X147600D02*X148350Y387750D01*
X145350Y388500D02*X147600D01*
X144600Y387750D02*X145350Y388500D01*
X144600Y387750D02*Y386250D01*
X145350Y385500D01*
X147600D01*
X148350Y384750D01*
Y383250D01*
X147600Y382500D02*X148350Y383250D01*
X145350Y382500D02*X147600D01*
X144600Y383250D02*X145350Y382500D01*
X98000Y387750D02*X98750Y388500D01*
X101000D01*
X101750Y387750D01*
Y386250D01*
X98000Y382500D02*X101750Y386250D01*
X98000Y382500D02*X101750D01*
X103550Y388500D02*X106550D01*
X103550D02*Y385500D01*
X104300Y386250D01*
X105800D01*
X106550Y385500D01*
Y383250D01*
X105800Y382500D02*X106550Y383250D01*
X104300Y382500D02*X105800D01*
X103550Y383250D02*X104300Y382500D01*
X45000Y383250D02*X45750Y382500D01*
X45000Y387750D02*Y383250D01*
Y387750D02*X45750Y388500D01*
X47250D01*
X48000Y387750D01*
Y383250D01*
X47250Y382500D02*X48000Y383250D01*
X45750Y382500D02*X47250D01*
X45000Y384000D02*X48000Y387000D01*
X49800Y382500D02*X50550D01*
X52350Y383250D02*X53100Y382500D01*
X52350Y387750D02*Y383250D01*
Y387750D02*X53100Y388500D01*
X54600D01*
X55350Y387750D01*
Y383250D01*
X54600Y382500D02*X55350Y383250D01*
X53100Y382500D02*X54600D01*
X52350Y384000D02*X55350Y387000D01*
X57150Y387300D02*X58350Y388500D01*
Y382500D01*
X57150D02*X59400D01*
X61200Y387750D02*X61950Y388500D01*
X63450D01*
X64200Y387750D01*
X63450Y382500D02*X64200Y383250D01*
X61950Y382500D02*X63450D01*
X61200Y383250D02*X61950Y382500D01*
Y385800D02*X63450D01*
X64200Y387750D02*Y386550D01*
Y385050D02*Y383250D01*
Y385050D02*X63450Y385800D01*
X64200Y386550D02*X63450Y385800D01*
X3000Y403500D02*X3750Y402750D01*
X750Y403500D02*X3000D01*
X0Y402750D02*X750Y403500D01*
X0Y402750D02*Y401250D01*
X750Y400500D01*
X3000D01*
X3750Y399750D01*
Y398250D01*
X3000Y397500D02*X3750Y398250D01*
X750Y397500D02*X3000D01*
X0Y398250D02*X750Y397500D01*
X5550Y400500D02*Y398250D01*
X6300Y397500D01*
X8550Y400500D02*Y396000D01*
X7800Y395250D02*X8550Y396000D01*
X6300Y395250D02*X7800D01*
X5550Y396000D02*X6300Y395250D01*
Y397500D02*X7800D01*
X8550Y398250D01*
X11100Y399750D02*Y397500D01*
Y399750D02*X11850Y400500D01*
X12600D01*
X13350Y399750D01*
Y397500D01*
Y399750D02*X14100Y400500D01*
X14850D01*
X15600Y399750D01*
Y397500D01*
X10350Y400500D02*X11100Y399750D01*
X17400Y403500D02*Y397500D01*
Y398250D02*X18150Y397500D01*
X19650D01*
X20400Y398250D01*
Y399750D02*Y398250D01*
X19650Y400500D02*X20400Y399750D01*
X18150Y400500D02*X19650D01*
X17400Y399750D02*X18150Y400500D01*
X22200Y399750D02*Y398250D01*
Y399750D02*X22950Y400500D01*
X24450D01*
X25200Y399750D01*
Y398250D01*
X24450Y397500D02*X25200Y398250D01*
X22950Y397500D02*X24450D01*
X22200Y398250D02*X22950Y397500D01*
X27000Y403500D02*Y398250D01*
X27750Y397500D01*
X0Y394250D02*X29250D01*
X41750Y403500D02*Y397500D01*
X43700Y403500D02*X44750Y402450D01*
Y398550D01*
X43700Y397500D02*X44750Y398550D01*
X41000Y397500D02*X43700D01*
X41000Y403500D02*X43700D01*
G54D93*X46550Y402000D02*Y401850D01*
G54D92*Y399750D02*Y397500D01*
X50300Y400500D02*X51050Y399750D01*
X48800Y400500D02*X50300D01*
X48050Y399750D02*X48800Y400500D01*
X48050Y399750D02*Y398250D01*
X48800Y397500D01*
X51050Y400500D02*Y398250D01*
X51800Y397500D01*
X48800D02*X50300D01*
X51050Y398250D01*
X54350Y399750D02*Y397500D01*
Y399750D02*X55100Y400500D01*
X55850D01*
X56600Y399750D01*
Y397500D01*
Y399750D02*X57350Y400500D01*
X58100D01*
X58850Y399750D01*
Y397500D01*
X53600Y400500D02*X54350Y399750D01*
X60650Y397500D02*X61400D01*
X65900Y398250D02*X66650Y397500D01*
X65900Y402750D02*X66650Y403500D01*
X65900Y402750D02*Y398250D01*
X68450Y403500D02*X69950D01*
X69200D02*Y397500D01*
X68450D02*X69950D01*
X72500Y399750D02*Y397500D01*
Y399750D02*X73250Y400500D01*
X74000D01*
X74750Y399750D01*
Y397500D01*
X71750Y400500D02*X72500Y399750D01*
X77300Y400500D02*X79550D01*
X76550Y399750D02*X77300Y400500D01*
X76550Y399750D02*Y398250D01*
X77300Y397500D01*
X79550D01*
X81350Y403500D02*Y397500D01*
Y399750D02*X82100Y400500D01*
X83600D01*
X84350Y399750D01*
Y397500D01*
X86150Y403500D02*X86900Y402750D01*
Y398250D01*
X86150Y397500D02*X86900Y398250D01*
X41000Y394250D02*X88700D01*
X96050Y397500D02*X98000D01*
X95000Y398550D02*X96050Y397500D01*
X95000Y402450D02*Y398550D01*
Y402450D02*X96050Y403500D01*
X98000D01*
X99800Y399750D02*Y398250D01*
Y399750D02*X100550Y400500D01*
X102050D01*
X102800Y399750D01*
Y398250D01*
X102050Y397500D02*X102800Y398250D01*
X100550Y397500D02*X102050D01*
X99800Y398250D02*X100550Y397500D01*
X104600Y400500D02*Y398250D01*
X105350Y397500D01*
X106850D01*
X107600Y398250D01*
Y400500D02*Y398250D01*
X110150Y399750D02*Y397500D01*
Y399750D02*X110900Y400500D01*
X111650D01*
X112400Y399750D01*
Y397500D01*
X109400Y400500D02*X110150Y399750D01*
X114950Y403500D02*Y398250D01*
X115700Y397500D01*
X114200Y401250D02*X115700D01*
X95000Y394250D02*X117200D01*
X130750Y403500D02*Y397500D01*
X130000Y403500D02*X133000D01*
X133750Y402750D01*
Y401250D01*
X133000Y400500D02*X133750Y401250D01*
X130750Y400500D02*X133000D01*
X135550Y403500D02*Y398250D01*
X136300Y397500D01*
X140050Y400500D02*X140800Y399750D01*
X138550Y400500D02*X140050D01*
X137800Y399750D02*X138550Y400500D01*
X137800Y399750D02*Y398250D01*
X138550Y397500D01*
X140800Y400500D02*Y398250D01*
X141550Y397500D01*
X138550D02*X140050D01*
X140800Y398250D01*
X144100Y403500D02*Y398250D01*
X144850Y397500D01*
X143350Y401250D02*X144850D01*
X147100Y397500D02*X149350D01*
X146350Y398250D02*X147100Y397500D01*
X146350Y399750D02*Y398250D01*
Y399750D02*X147100Y400500D01*
X148600D01*
X149350Y399750D01*
X146350Y399000D02*X149350D01*
Y399750D02*Y399000D01*
X154150Y403500D02*Y397500D01*
X153400D02*X154150Y398250D01*
X151900Y397500D02*X153400D01*
X151150Y398250D02*X151900Y397500D01*
X151150Y399750D02*Y398250D01*
Y399750D02*X151900Y400500D01*
X153400D01*
X154150Y399750D01*
X157450Y400500D02*Y399750D01*
Y398250D02*Y397500D01*
X155950Y402750D02*Y402000D01*
Y402750D02*X156700Y403500D01*
X158200D01*
X158950Y402750D01*
Y402000D01*
X157450Y400500D02*X158950Y402000D01*
X130000Y394250D02*X160750D01*
X0Y418500D02*X3000D01*
X1500D02*Y412500D01*
X4800Y418500D02*Y412500D01*
Y414750D02*X5550Y415500D01*
X7050D01*
X7800Y414750D01*
Y412500D01*
X10350D02*X12600D01*
X9600Y413250D02*X10350Y412500D01*
X9600Y414750D02*Y413250D01*
Y414750D02*X10350Y415500D01*
X11850D01*
X12600Y414750D01*
X9600Y414000D02*X12600D01*
Y414750D02*Y414000D01*
X15150Y414750D02*Y412500D01*
Y414750D02*X15900Y415500D01*
X17400D01*
X14400D02*X15150Y414750D01*
X19950Y412500D02*X22200D01*
X19200Y413250D02*X19950Y412500D01*
X19200Y414750D02*Y413250D01*
Y414750D02*X19950Y415500D01*
X21450D01*
X22200Y414750D01*
X19200Y414000D02*X22200D01*
Y414750D02*Y414000D01*
X28950Y415500D02*X29700Y414750D01*
X27450Y415500D02*X28950D01*
X26700Y414750D02*X27450Y415500D01*
X26700Y414750D02*Y413250D01*
X27450Y412500D01*
X29700Y415500D02*Y413250D01*
X30450Y412500D01*
X27450D02*X28950D01*
X29700Y413250D01*
X33000Y414750D02*Y412500D01*
Y414750D02*X33750Y415500D01*
X35250D01*
X32250D02*X33000Y414750D01*
X37800Y412500D02*X40050D01*
X37050Y413250D02*X37800Y412500D01*
X37050Y414750D02*Y413250D01*
Y414750D02*X37800Y415500D01*
X39300D01*
X40050Y414750D01*
X37050Y414000D02*X40050D01*
Y414750D02*Y414000D01*
X46800Y418500D02*X47550Y417750D01*
X45300Y418500D02*X46800D01*
X44550Y417750D02*X45300Y418500D01*
X44550Y417750D02*Y413250D01*
X45300Y412500D01*
X46800Y415800D02*X47550Y415050D01*
X44550Y415800D02*X46800D01*
X45300Y412500D02*X46800D01*
X47550Y413250D01*
Y415050D02*Y413250D01*
X55050Y418500D02*Y412500D01*
X54300D02*X55050Y413250D01*
X52800Y412500D02*X54300D01*
X52050Y413250D02*X52800Y412500D01*
X52050Y414750D02*Y413250D01*
Y414750D02*X52800Y415500D01*
X54300D01*
X55050Y414750D01*
G54D93*X56850Y417000D02*Y416850D01*
G54D92*Y414750D02*Y412500D01*
X59100Y417750D02*Y412500D01*
Y417750D02*X59850Y418500D01*
X60600D01*
X58350Y415500D02*X59850D01*
X62850Y417750D02*Y412500D01*
Y417750D02*X63600Y418500D01*
X64350D01*
X62100Y415500D02*X63600D01*
X66600Y412500D02*X68850D01*
X65850Y413250D02*X66600Y412500D01*
X65850Y414750D02*Y413250D01*
Y414750D02*X66600Y415500D01*
X68100D01*
X68850Y414750D01*
X65850Y414000D02*X68850D01*
Y414750D02*Y414000D01*
X71400Y414750D02*Y412500D01*
Y414750D02*X72150Y415500D01*
X73650D01*
X70650D02*X71400Y414750D01*
X76200Y412500D02*X78450D01*
X75450Y413250D02*X76200Y412500D01*
X75450Y414750D02*Y413250D01*
Y414750D02*X76200Y415500D01*
X77700D01*
X78450Y414750D01*
X75450Y414000D02*X78450D01*
Y414750D02*Y414000D01*
X81000Y414750D02*Y412500D01*
Y414750D02*X81750Y415500D01*
X82500D01*
X83250Y414750D01*
Y412500D01*
X80250Y415500D02*X81000Y414750D01*
X85800Y418500D02*Y413250D01*
X86550Y412500D01*
X85050Y416250D02*X86550D01*
X93750Y418500D02*Y412500D01*
X93000D02*X93750Y413250D01*
X91500Y412500D02*X93000D01*
X90750Y413250D02*X91500Y412500D01*
X90750Y414750D02*Y413250D01*
Y414750D02*X91500Y415500D01*
X93000D01*
X93750Y414750D01*
X96300D02*Y412500D01*
Y414750D02*X97050Y415500D01*
X98550D01*
X95550D02*X96300Y414750D01*
G54D93*X100350Y417000D02*Y416850D01*
G54D92*Y414750D02*Y412500D01*
X101850Y418500D02*Y413250D01*
X102600Y412500D01*
X104100Y418500D02*Y413250D01*
X104850Y412500D01*
X109800D02*X112050D01*
X112800Y413250D01*
X112050Y414000D02*X112800Y413250D01*
X109800Y414000D02*X112050D01*
X109050Y414750D02*X109800Y414000D01*
X109050Y414750D02*X109800Y415500D01*
X112050D01*
X112800Y414750D01*
X109050Y413250D02*X109800Y412500D01*
G54D93*X114600Y417000D02*Y416850D01*
G54D92*Y414750D02*Y412500D01*
X116100Y415500D02*X119100D01*
X116100Y412500D02*X119100Y415500D01*
X116100Y412500D02*X119100D01*
X121650D02*X123900D01*
X120900Y413250D02*X121650Y412500D01*
X120900Y414750D02*Y413250D01*
Y414750D02*X121650Y415500D01*
X123150D01*
X123900Y414750D01*
X120900Y414000D02*X123900D01*
Y414750D02*Y414000D01*
X126450Y412500D02*X128700D01*
X129450Y413250D01*
X128700Y414000D02*X129450Y413250D01*
X126450Y414000D02*X128700D01*
X125700Y414750D02*X126450Y414000D01*
X125700Y414750D02*X126450Y415500D01*
X128700D01*
X129450Y414750D01*
X125700Y413250D02*X126450Y412500D01*
X133950Y415500D02*Y413250D01*
X134700Y412500D01*
X136200D01*
X136950Y413250D01*
Y415500D02*Y413250D01*
X139500Y412500D02*X141750D01*
X142500Y413250D01*
X141750Y414000D02*X142500Y413250D01*
X139500Y414000D02*X141750D01*
X138750Y414750D02*X139500Y414000D01*
X138750Y414750D02*X139500Y415500D01*
X141750D01*
X142500Y414750D01*
X138750Y413250D02*X139500Y412500D01*
X145050D02*X147300D01*
X144300Y413250D02*X145050Y412500D01*
X144300Y414750D02*Y413250D01*
Y414750D02*X145050Y415500D01*
X146550D01*
X147300Y414750D01*
X144300Y414000D02*X147300D01*
Y414750D02*Y414000D01*
X152100Y418500D02*Y412500D01*
X151350D02*X152100Y413250D01*
X149850Y412500D02*X151350D01*
X149100Y413250D02*X149850Y412500D01*
X149100Y414750D02*Y413250D01*
Y414750D02*X149850Y415500D01*
X151350D01*
X152100Y414750D01*
G54D93*X156600Y417000D02*Y416850D01*
G54D92*Y414750D02*Y412500D01*
X158850Y414750D02*Y412500D01*
Y414750D02*X159600Y415500D01*
X160350D01*
X161100Y414750D01*
Y412500D01*
X158100Y415500D02*X158850Y414750D01*
X166350Y418500D02*Y413250D01*
X167100Y412500D01*
X165600Y416250D02*X167100D01*
X168600Y418500D02*Y412500D01*
Y414750D02*X169350Y415500D01*
X170850D01*
X171600Y414750D01*
Y412500D01*
G54D93*X173400Y417000D02*Y416850D01*
G54D92*Y414750D02*Y412500D01*
X175650D02*X177900D01*
X178650Y413250D01*
X177900Y414000D02*X178650Y413250D01*
X175650Y414000D02*X177900D01*
X174900Y414750D02*X175650Y414000D01*
X174900Y414750D02*X175650Y415500D01*
X177900D01*
X178650Y414750D01*
X174900Y413250D02*X175650Y412500D01*
X183150Y418500D02*Y413250D01*
X183900Y412500D01*
X187650Y415500D02*X188400Y414750D01*
X186150Y415500D02*X187650D01*
X185400Y414750D02*X186150Y415500D01*
X185400Y414750D02*Y413250D01*
X186150Y412500D01*
X188400Y415500D02*Y413250D01*
X189150Y412500D01*
X186150D02*X187650D01*
X188400Y413250D01*
X190950Y415500D02*Y413250D01*
X191700Y412500D01*
X193950Y415500D02*Y411000D01*
X193200Y410250D02*X193950Y411000D01*
X191700Y410250D02*X193200D01*
X190950Y411000D02*X191700Y410250D01*
Y412500D02*X193200D01*
X193950Y413250D01*
X195750Y414750D02*Y413250D01*
Y414750D02*X196500Y415500D01*
X198000D01*
X198750Y414750D01*
Y413250D01*
X198000Y412500D02*X198750Y413250D01*
X196500Y412500D02*X198000D01*
X195750Y413250D02*X196500Y412500D01*
X200550Y415500D02*Y413250D01*
X201300Y412500D01*
X202800D01*
X203550Y413250D01*
Y415500D02*Y413250D01*
X206100Y418500D02*Y413250D01*
X206850Y412500D01*
X205350Y416250D02*X206850D01*
X208350Y411000D02*X209850Y412500D01*
X214350Y417300D02*X215550Y418500D01*
Y412500D01*
X214350D02*X216600D01*
X218400Y418500D02*X221400D01*
X218400D02*Y415500D01*
X219150Y416250D01*
X220650D01*
X221400Y415500D01*
Y413250D01*
X220650Y412500D02*X221400Y413250D01*
X219150Y412500D02*X220650D01*
X218400Y413250D02*X219150Y412500D01*
X223200Y414750D02*X226200Y418500D01*
X223200Y414750D02*X226950D01*
X226200Y418500D02*Y412500D01*
X231450Y418500D02*Y412500D01*
Y414750D02*X232200Y415500D01*
X233700D01*
X234450Y414750D01*
Y412500D01*
X236250Y414750D02*Y413250D01*
Y414750D02*X237000Y415500D01*
X238500D01*
X239250Y414750D01*
Y413250D01*
X238500Y412500D02*X239250Y413250D01*
X237000Y412500D02*X238500D01*
X236250Y413250D02*X237000Y412500D01*
X241050Y418500D02*Y413250D01*
X241800Y412500D01*
X244050D02*X246300D01*
X243300Y413250D02*X244050Y412500D01*
X243300Y414750D02*Y413250D01*
Y414750D02*X244050Y415500D01*
X245550D01*
X246300Y414750D01*
X243300Y414000D02*X246300D01*
Y414750D02*Y414000D01*
X248850Y412500D02*X251100D01*
X251850Y413250D01*
X251100Y414000D02*X251850Y413250D01*
X248850Y414000D02*X251100D01*
X248100Y414750D02*X248850Y414000D01*
X248100Y414750D02*X248850Y415500D01*
X251100D01*
X251850Y414750D01*
X248100Y413250D02*X248850Y412500D01*
X257100Y418500D02*Y413250D01*
X257850Y412500D01*
X256350Y416250D02*X257850D01*
X259350Y414750D02*Y413250D01*
Y414750D02*X260100Y415500D01*
X261600D01*
X262350Y414750D01*
Y413250D01*
X261600Y412500D02*X262350Y413250D01*
X260100Y412500D02*X261600D01*
X259350Y413250D02*X260100Y412500D01*
X264900Y418500D02*Y413250D01*
X265650Y412500D01*
X264150Y416250D02*X265650D01*
X269400Y415500D02*X270150Y414750D01*
X267900Y415500D02*X269400D01*
X267150Y414750D02*X267900Y415500D01*
X267150Y414750D02*Y413250D01*
X267900Y412500D01*
X270150Y415500D02*Y413250D01*
X270900Y412500D01*
X267900D02*X269400D01*
X270150Y413250D01*
X272700Y418500D02*Y413250D01*
X273450Y412500D01*
G54D94*X3500Y8031D02*X72000D01*
X361500D02*X166000D01*
X72000D02*Y73031D01*
X166000D01*
Y8031D01*
X3500D02*Y100000D01*
X72000Y100031D02*X3531D01*
X3500Y100000D01*
X361500Y8031D02*Y100000D01*
X72000Y100031D02*X361469D01*
X361500Y100000D01*
G54D92*X113675Y-9500D02*X116675D01*
X117425Y-8750D01*
Y-6950D02*Y-8750D01*
X116675Y-6200D02*X117425Y-6950D01*
X114425Y-6200D02*X116675D01*
X114425Y-3500D02*Y-9500D01*
X113675Y-3500D02*X116675D01*
X117425Y-4250D01*
Y-5450D01*
X116675Y-6200D02*X117425Y-5450D01*
X119225Y-7250D02*Y-8750D01*
Y-7250D02*X119975Y-6500D01*
X121475D01*
X122225Y-7250D01*
Y-8750D01*
X121475Y-9500D02*X122225Y-8750D01*
X119975Y-9500D02*X121475D01*
X119225Y-8750D02*X119975Y-9500D01*
X126275Y-6500D02*X127025Y-7250D01*
X124775Y-6500D02*X126275D01*
X124025Y-7250D02*X124775Y-6500D01*
X124025Y-7250D02*Y-8750D01*
X124775Y-9500D01*
X127025Y-6500D02*Y-8750D01*
X127775Y-9500D01*
X124775D02*X126275D01*
X127025Y-8750D01*
X130325Y-7250D02*Y-9500D01*
Y-7250D02*X131075Y-6500D01*
X132575D01*
X129575D02*X130325Y-7250D01*
X137375Y-3500D02*Y-9500D01*
X136625D02*X137375Y-8750D01*
X135125Y-9500D02*X136625D01*
X134375Y-8750D02*X135125Y-9500D01*
X134375Y-7250D02*Y-8750D01*
Y-7250D02*X135125Y-6500D01*
X136625D01*
X137375Y-7250D01*
X141875D02*Y-8750D01*
Y-7250D02*X142625Y-6500D01*
X144125D01*
X144875Y-7250D01*
Y-8750D01*
X144125Y-9500D02*X144875Y-8750D01*
X142625Y-9500D02*X144125D01*
X141875Y-8750D02*X142625Y-9500D01*
X146675Y-6500D02*Y-8750D01*
X147425Y-9500D01*
X148925D01*
X149675Y-8750D01*
Y-6500D02*Y-8750D01*
X152225Y-3500D02*Y-8750D01*
X152975Y-9500D01*
X151475Y-5750D02*X152975D01*
X154475Y-3500D02*Y-8750D01*
X155225Y-9500D01*
G54D93*X156725Y-5000D02*Y-5150D01*
G54D92*Y-7250D02*Y-9500D01*
X158975Y-7250D02*Y-9500D01*
Y-7250D02*X159725Y-6500D01*
X160475D01*
X161225Y-7250D01*
Y-9500D01*
X158225Y-6500D02*X158975Y-7250D01*
X163775Y-9500D02*X166025D01*
X163025Y-8750D02*X163775Y-9500D01*
X163025Y-7250D02*Y-8750D01*
Y-7250D02*X163775Y-6500D01*
X165275D01*
X166025Y-7250D01*
X163025Y-8000D02*X166025D01*
Y-7250D02*Y-8000D01*
G54D93*X170525Y-5000D02*Y-5150D01*
G54D92*Y-7250D02*Y-9500D01*
X172775D02*X175025D01*
X175775Y-8750D01*
X175025Y-8000D02*X175775Y-8750D01*
X172775Y-8000D02*X175025D01*
X172025Y-7250D02*X172775Y-8000D01*
X172025Y-7250D02*X172775Y-6500D01*
X175025D01*
X175775Y-7250D01*
X172025Y-8750D02*X172775Y-9500D01*
X181025Y-3500D02*Y-8750D01*
X181775Y-9500D01*
X180275Y-5750D02*X181775D01*
X183275Y-3500D02*Y-9500D01*
Y-7250D02*X184025Y-6500D01*
X185525D01*
X186275Y-7250D01*
Y-9500D01*
X188825D02*X191075D01*
X188075Y-8750D02*X188825Y-9500D01*
X188075Y-7250D02*Y-8750D01*
Y-7250D02*X188825Y-6500D01*
X190325D01*
X191075Y-7250D01*
X188075Y-8000D02*X191075D01*
Y-7250D02*Y-8000D01*
X196325Y-6500D02*X198575D01*
X195575Y-7250D02*X196325Y-6500D01*
X195575Y-7250D02*Y-8750D01*
X196325Y-9500D01*
X198575D01*
X201125D02*X203375D01*
X200375Y-8750D02*X201125Y-9500D01*
X200375Y-7250D02*Y-8750D01*
Y-7250D02*X201125Y-6500D01*
X202625D01*
X203375Y-7250D01*
X200375Y-8000D02*X203375D01*
Y-7250D02*Y-8000D01*
X205925Y-7250D02*Y-9500D01*
Y-7250D02*X206675Y-6500D01*
X207425D01*
X208175Y-7250D01*
Y-9500D01*
X205175Y-6500D02*X205925Y-7250D01*
X210725Y-3500D02*Y-8750D01*
X211475Y-9500D01*
X209975Y-5750D02*X211475D01*
X213725Y-9500D02*X215975D01*
X212975Y-8750D02*X213725Y-9500D01*
X212975Y-7250D02*Y-8750D01*
Y-7250D02*X213725Y-6500D01*
X215225D01*
X215975Y-7250D01*
X212975Y-8000D02*X215975D01*
Y-7250D02*Y-8000D01*
X218525Y-7250D02*Y-9500D01*
Y-7250D02*X219275Y-6500D01*
X220775D01*
X217775D02*X218525Y-7250D01*
X222575Y-3500D02*Y-8750D01*
X223325Y-9500D01*
G54D93*X224825Y-5000D02*Y-5150D01*
G54D92*Y-7250D02*Y-9500D01*
X227075Y-7250D02*Y-9500D01*
Y-7250D02*X227825Y-6500D01*
X228575D01*
X229325Y-7250D01*
Y-9500D01*
X226325Y-6500D02*X227075Y-7250D01*
X231875Y-9500D02*X234125D01*
X231125Y-8750D02*X231875Y-9500D01*
X231125Y-7250D02*Y-8750D01*
Y-7250D02*X231875Y-6500D01*
X233375D01*
X234125Y-7250D01*
X231125Y-8000D02*X234125D01*
Y-7250D02*Y-8000D01*
X238625Y-7250D02*Y-8750D01*
Y-7250D02*X239375Y-6500D01*
X240875D01*
X241625Y-7250D01*
Y-8750D01*
X240875Y-9500D02*X241625Y-8750D01*
X239375Y-9500D02*X240875D01*
X238625Y-8750D02*X239375Y-9500D01*
X244175Y-4250D02*Y-9500D01*
Y-4250D02*X244925Y-3500D01*
X245675D01*
X243425Y-6500D02*X244925D01*
X250625Y-3500D02*Y-8750D01*
X251375Y-9500D01*
X249875Y-5750D02*X251375D01*
X252875Y-3500D02*Y-9500D01*
Y-7250D02*X253625Y-6500D01*
X255125D01*
X255875Y-7250D01*
Y-9500D01*
G54D93*X257675Y-5000D02*Y-5150D01*
G54D92*Y-7250D02*Y-9500D01*
X259925D02*X262175D01*
X262925Y-8750D01*
X262175Y-8000D02*X262925Y-8750D01*
X259925Y-8000D02*X262175D01*
X259175Y-7250D02*X259925Y-8000D01*
X259175Y-7250D02*X259925Y-6500D01*
X262175D01*
X262925Y-7250D01*
X259175Y-8750D02*X259925Y-9500D01*
X268175Y-7250D02*Y-11750D01*
X267425Y-6500D02*X268175Y-7250D01*
X268925Y-6500D01*
X270425D01*
X271175Y-7250D01*
Y-8750D01*
X270425Y-9500D02*X271175Y-8750D01*
X268925Y-9500D02*X270425D01*
X268175Y-8750D02*X268925Y-9500D01*
X275225Y-6500D02*X275975Y-7250D01*
X273725Y-6500D02*X275225D01*
X272975Y-7250D02*X273725Y-6500D01*
X272975Y-7250D02*Y-8750D01*
X273725Y-9500D01*
X275975Y-6500D02*Y-8750D01*
X276725Y-9500D01*
X273725D02*X275225D01*
X275975Y-8750D01*
X279275Y-3500D02*Y-8750D01*
X280025Y-9500D01*
X278525Y-5750D02*X280025D01*
X281525Y-3500D02*Y-9500D01*
Y-7250D02*X282275Y-6500D01*
X283775D01*
X284525Y-7250D01*
Y-9500D01*
X200750Y328500D02*Y322500D01*
X202700Y328500D02*X203750Y327450D01*
Y323550D01*
X202700Y322500D02*X203750Y323550D01*
X200000Y322500D02*X202700D01*
X200000Y328500D02*X202700D01*
X207800Y325500D02*X208550Y324750D01*
X206300Y325500D02*X207800D01*
X205550Y324750D02*X206300Y325500D01*
X205550Y324750D02*Y323250D01*
X206300Y322500D01*
X208550Y325500D02*Y323250D01*
X209300Y322500D01*
X206300D02*X207800D01*
X208550Y323250D01*
X211850Y328500D02*Y323250D01*
X212600Y322500D01*
X211100Y326250D02*X212600D01*
X214850Y322500D02*X217100D01*
X214100Y323250D02*X214850Y322500D01*
X214100Y324750D02*Y323250D01*
Y324750D02*X214850Y325500D01*
X216350D01*
X217100Y324750D01*
X214100Y324000D02*X217100D01*
Y324750D02*Y324000D01*
X218900Y326250D02*X219650D01*
X218900Y324750D02*X219650D01*
X227150Y328500D02*X227900Y327750D01*
X224900Y328500D02*X227150D01*
X224150Y327750D02*X224900Y328500D01*
X224150Y327750D02*Y326250D01*
X224900Y325500D01*
X227150D01*
X227900Y324750D01*
Y323250D01*
X227150Y322500D02*X227900Y323250D01*
X224900Y322500D02*X227150D01*
X224150Y323250D02*X224900Y322500D01*
X231950Y325500D02*X232700Y324750D01*
X230450Y325500D02*X231950D01*
X229700Y324750D02*X230450Y325500D01*
X229700Y324750D02*Y323250D01*
X230450Y322500D01*
X232700Y325500D02*Y323250D01*
X233450Y322500D01*
X230450D02*X231950D01*
X232700Y323250D01*
X236000Y328500D02*Y323250D01*
X236750Y322500D01*
X235250Y326250D02*X236750D01*
X240950Y327750D02*X241700Y328500D01*
X243950D01*
X244700Y327750D01*
Y326250D01*
X240950Y322500D02*X244700Y326250D01*
X240950Y322500D02*X244700D01*
X247250D02*X249500Y325500D01*
Y327750D02*Y325500D01*
X248750Y328500D02*X249500Y327750D01*
X247250Y328500D02*X248750D01*
X246500Y327750D02*X247250Y328500D01*
X246500Y327750D02*Y326250D01*
X247250Y325500D01*
X249500D01*
X254000Y327750D02*Y323250D01*
Y327750D02*X254750Y328500D01*
X256250D01*
X257000Y327750D01*
Y323250D01*
X256250Y322500D02*X257000Y323250D01*
X254750Y322500D02*X256250D01*
X254000Y323250D02*X254750Y322500D01*
X259550Y325500D02*X261800D01*
X258800Y324750D02*X259550Y325500D01*
X258800Y324750D02*Y323250D01*
X259550Y322500D01*
X261800D01*
X264350Y328500D02*Y323250D01*
X265100Y322500D01*
X263600Y326250D02*X265100D01*
X269300Y327750D02*X270050Y328500D01*
X272300D01*
X273050Y327750D01*
Y326250D01*
X269300Y322500D02*X273050Y326250D01*
X269300Y322500D02*X273050D01*
X274850Y323250D02*X275600Y322500D01*
X274850Y327750D02*Y323250D01*
Y327750D02*X275600Y328500D01*
X277100D01*
X277850Y327750D01*
Y323250D01*
X277100Y322500D02*X277850Y323250D01*
X275600Y322500D02*X277100D01*
X274850Y324000D02*X277850Y327000D01*
X279650Y327300D02*X280850Y328500D01*
Y322500D01*
X279650D02*X281900D01*
X285950Y328500D02*X286700Y327750D01*
X284450Y328500D02*X285950D01*
X283700Y327750D02*X284450Y328500D01*
X283700Y327750D02*Y323250D01*
X284450Y322500D01*
X285950Y325800D02*X286700Y325050D01*
X283700Y325800D02*X285950D01*
X284450Y322500D02*X285950D01*
X286700Y323250D01*
Y325050D02*Y323250D01*
X291200D02*X291950Y322500D01*
X291200Y327750D02*Y323250D01*
Y327750D02*X291950Y328500D01*
X293450D01*
X294200Y327750D01*
Y323250D01*
X293450Y322500D02*X294200Y323250D01*
X291950Y322500D02*X293450D01*
X291200Y324000D02*X294200Y327000D01*
X296000Y327300D02*X297200Y328500D01*
Y322500D01*
X296000D02*X298250D01*
X300050Y326250D02*X300800D01*
X300050Y324750D02*X300800D01*
X302600Y323250D02*X303350Y322500D01*
X302600Y327750D02*Y323250D01*
Y327750D02*X303350Y328500D01*
X304850D01*
X305600Y327750D01*
Y323250D01*
X304850Y322500D02*X305600Y323250D01*
X303350Y322500D02*X304850D01*
X302600Y324000D02*X305600Y327000D01*
X307400Y324750D02*X310400Y328500D01*
X307400Y324750D02*X311150D01*
X310400Y328500D02*Y322500D01*
X312950Y326250D02*X313700D01*
X312950Y324750D02*X313700D01*
X315500Y327750D02*X316250Y328500D01*
X317750D01*
X318500Y327750D01*
X317750Y322500D02*X318500Y323250D01*
X316250Y322500D02*X317750D01*
X315500Y323250D02*X316250Y322500D01*
Y325800D02*X317750D01*
X318500Y327750D02*Y326550D01*
Y325050D02*Y323250D01*
Y325050D02*X317750Y325800D01*
X318500Y326550D02*X317750Y325800D01*
X320300Y327750D02*X321050Y328500D01*
X323300D01*
X324050Y327750D01*
Y326250D01*
X320300Y322500D02*X324050Y326250D01*
X320300Y322500D02*X324050D01*
X328550Y327000D02*Y322500D01*
Y327000D02*X329600Y328500D01*
X331250D01*
X332300Y327000D01*
Y322500D01*
X328550Y325500D02*X332300D01*
X334100Y328500D02*Y322500D01*
Y328500D02*X336350Y325500D01*
X338600Y328500D01*
Y322500D01*
X346100Y328500D02*X346850Y327750D01*
X343850Y328500D02*X346100D01*
X343100Y327750D02*X343850Y328500D01*
X343100Y327750D02*Y323250D01*
X343850Y322500D01*
X346100D01*
X346850Y323250D01*
Y324750D02*Y323250D01*
X346100Y325500D02*X346850Y324750D01*
X344600Y325500D02*X346100D01*
X348650Y328500D02*Y322500D01*
Y328500D02*X350900Y325500D01*
X353150Y328500D01*
Y322500D01*
X354950Y328500D02*X357950D01*
X356450D02*Y322500D01*
X362450Y328500D02*Y323250D01*
X363200Y322500D01*
X364700D01*
X365450Y323250D01*
Y328500D02*Y323250D01*
X367250Y328500D02*X370250D01*
X368750D02*Y322500D01*
X373100D02*X375050D01*
X372050Y323550D02*X373100Y322500D01*
X372050Y327450D02*Y323550D01*
Y327450D02*X373100Y328500D01*
X375050D01*
X200000Y342000D02*Y337500D01*
Y342000D02*X201050Y343500D01*
X202700D01*
X203750Y342000D01*
Y337500D01*
X200000Y340500D02*X203750D01*
X205550D02*Y338250D01*
X206300Y337500D01*
X207800D01*
X208550Y338250D01*
Y340500D02*Y338250D01*
X211100Y343500D02*Y338250D01*
X211850Y337500D01*
X210350Y341250D02*X211850D01*
X213350Y343500D02*Y337500D01*
Y339750D02*X214100Y340500D01*
X215600D01*
X216350Y339750D01*
Y337500D01*
X218150Y339750D02*Y338250D01*
Y339750D02*X218900Y340500D01*
X220400D01*
X221150Y339750D01*
Y338250D01*
X220400Y337500D02*X221150Y338250D01*
X218900Y337500D02*X220400D01*
X218150Y338250D02*X218900Y337500D01*
X223700Y339750D02*Y337500D01*
Y339750D02*X224450Y340500D01*
X225950D01*
X222950D02*X223700Y339750D01*
X227750Y341250D02*X228500D01*
X227750Y339750D02*X228500D01*
X200000Y358500D02*X203000D01*
X201500D02*Y352500D01*
G54D93*X204800Y357000D02*Y356850D01*
G54D92*Y354750D02*Y352500D01*
X207050Y358500D02*Y353250D01*
X207800Y352500D01*
X206300Y356250D02*X207800D01*
X209300Y358500D02*Y353250D01*
X210050Y352500D01*
X212300D02*X214550D01*
X211550Y353250D02*X212300Y352500D01*
X211550Y354750D02*Y353250D01*
Y354750D02*X212300Y355500D01*
X213800D01*
X214550Y354750D01*
X211550Y354000D02*X214550D01*
Y354750D02*Y354000D01*
X216350Y356250D02*X217100D01*
X216350Y354750D02*X217100D01*
X221600Y353250D02*X222350Y352500D01*
X221600Y357750D02*X222350Y358500D01*
X221600Y357750D02*Y353250D01*
X224150Y355500D02*Y353250D01*
X224900Y352500D01*
X226400D01*
X227150Y353250D01*
Y355500D02*Y353250D01*
X229700Y354750D02*Y352500D01*
Y354750D02*X230450Y355500D01*
X231200D01*
X231950Y354750D01*
Y352500D01*
X228950Y355500D02*X229700Y354750D01*
X233750Y358500D02*Y352500D01*
Y354750D02*X236000Y352500D01*
X233750Y354750D02*X235250Y356250D01*
X238550Y354750D02*Y352500D01*
Y354750D02*X239300Y355500D01*
X240050D01*
X240800Y354750D01*
Y352500D01*
X237800Y355500D02*X238550Y354750D01*
X242600D02*Y353250D01*
Y354750D02*X243350Y355500D01*
X244850D01*
X245600Y354750D01*
Y353250D01*
X244850Y352500D02*X245600Y353250D01*
X243350Y352500D02*X244850D01*
X242600Y353250D02*X243350Y352500D01*
X247400Y355500D02*Y353250D01*
X248150Y352500D01*
X248900D01*
X249650Y353250D01*
Y355500D02*Y353250D01*
X250400Y352500D01*
X251150D01*
X251900Y353250D01*
Y355500D02*Y353250D01*
X254450Y354750D02*Y352500D01*
Y354750D02*X255200Y355500D01*
X255950D01*
X256700Y354750D01*
Y352500D01*
X253700Y355500D02*X254450Y354750D01*
X258500Y358500D02*X259250Y357750D01*
Y353250D01*
X258500Y352500D02*X259250Y353250D01*
X263750Y355500D02*X266750D01*
X271250Y358500D02*Y352500D01*
Y358500D02*X274250D01*
X271250Y355800D02*X273500D01*
X278300Y355500D02*X279050Y354750D01*
X276800Y355500D02*X278300D01*
X276050Y354750D02*X276800Y355500D01*
X276050Y354750D02*Y353250D01*
X276800Y352500D01*
X279050Y355500D02*Y353250D01*
X279800Y352500D01*
X276800D02*X278300D01*
X279050Y353250D01*
X281600Y358500D02*Y352500D01*
Y353250D02*X282350Y352500D01*
X283850D01*
X284600Y353250D01*
Y354750D02*Y353250D01*
X283850Y355500D02*X284600Y354750D01*
X282350Y355500D02*X283850D01*
X281600Y354750D02*X282350Y355500D01*
X287150Y354750D02*Y352500D01*
Y354750D02*X287900Y355500D01*
X289400D01*
X286400D02*X287150Y354750D01*
G54D93*X291200Y357000D02*Y356850D01*
G54D92*Y354750D02*Y352500D01*
X293450Y355500D02*X295700D01*
X292700Y354750D02*X293450Y355500D01*
X292700Y354750D02*Y353250D01*
X293450Y352500D01*
X295700D01*
X299750Y355500D02*X300500Y354750D01*
X298250Y355500D02*X299750D01*
X297500Y354750D02*X298250Y355500D01*
X297500Y354750D02*Y353250D01*
X298250Y352500D01*
X300500Y355500D02*Y353250D01*
X301250Y352500D01*
X298250D02*X299750D01*
X300500Y353250D01*
X303800Y358500D02*Y353250D01*
X304550Y352500D01*
X303050Y356250D02*X304550D01*
G54D93*X306050Y357000D02*Y356850D01*
G54D92*Y354750D02*Y352500D01*
X307550Y354750D02*Y353250D01*
Y354750D02*X308300Y355500D01*
X309800D01*
X310550Y354750D01*
Y353250D01*
X309800Y352500D02*X310550Y353250D01*
X308300Y352500D02*X309800D01*
X307550Y353250D02*X308300Y352500D01*
X313100Y354750D02*Y352500D01*
Y354750D02*X313850Y355500D01*
X314600D01*
X315350Y354750D01*
Y352500D01*
X312350Y355500D02*X313100Y354750D01*
X320600Y358500D02*Y352500D01*
X322550Y358500D02*X323600Y357450D01*
Y353550D01*
X322550Y352500D02*X323600Y353550D01*
X319850Y352500D02*X322550D01*
X319850Y358500D02*X322550D01*
X326150Y354750D02*Y352500D01*
Y354750D02*X326900Y355500D01*
X328400D01*
X325400D02*X326150Y354750D01*
X332450Y355500D02*X333200Y354750D01*
X330950Y355500D02*X332450D01*
X330200Y354750D02*X330950Y355500D01*
X330200Y354750D02*Y353250D01*
X330950Y352500D01*
X333200Y355500D02*Y353250D01*
X333950Y352500D01*
X330950D02*X332450D01*
X333200Y353250D01*
X335750Y355500D02*Y353250D01*
X336500Y352500D01*
X337250D01*
X338000Y353250D01*
Y355500D02*Y353250D01*
X338750Y352500D01*
X339500D01*
X340250Y353250D01*
Y355500D02*Y353250D01*
G54D93*X342050Y357000D02*Y356850D01*
G54D92*Y354750D02*Y352500D01*
X344300Y354750D02*Y352500D01*
Y354750D02*X345050Y355500D01*
X345800D01*
X346550Y354750D01*
Y352500D01*
X343550Y355500D02*X344300Y354750D01*
X350600Y355500D02*X351350Y354750D01*
X349100Y355500D02*X350600D01*
X348350Y354750D02*X349100Y355500D01*
X348350Y354750D02*Y353250D01*
X349100Y352500D01*
X350600D01*
X351350Y353250D01*
X348350Y351000D02*X349100Y350250D01*
X350600D01*
X351350Y351000D01*
Y355500D02*Y351000D01*
M02*
