G04 start of page 4 for group 2 idx 2 *
G04 Title: (unknown), signal2 *
G04 Creator: pcb 4.2.0 *
G04 CreationDate: Sat Jul  4 21:02:03 2020 UTC *
G04 For: commonadmin *
G04 Format: Gerber/RS-274X *
G04 PCB-Dimensions (mil): 3500.00 8250.00 *
G04 PCB-Coordinate-Origin: lower left *
%MOIN*%
%FSLAX25Y25*%
%LNGROUP2*%
%ADD76C,0.0492*%
%ADD75C,0.1870*%
%ADD74C,0.0197*%
%ADD73C,0.0295*%
%ADD72C,0.0787*%
%ADD71C,0.0630*%
%ADD70C,0.0354*%
%ADD69C,0.0886*%
%ADD68C,0.0380*%
%ADD67C,0.2362*%
%ADD66C,0.0394*%
%ADD65C,0.0472*%
%ADD64C,0.0551*%
%ADD63C,0.0945*%
%ADD62C,0.0906*%
%ADD61C,0.1102*%
%ADD60C,0.0669*%
%ADD59C,0.0512*%
%ADD58C,0.1043*%
%ADD57C,0.0600*%
%ADD56C,0.0001*%
G54D56*G36*
X89000Y601000D02*Y595000D01*
X95000D01*
Y601000D01*
X89000D01*
G37*
G36*
X118500D02*Y595000D01*
X124500D01*
Y601000D01*
X118500D01*
G37*
G54D57*X92000Y588000D03*
X121500D03*
X92000Y578000D03*
Y568000D03*
Y558000D03*
Y548000D03*
Y538000D03*
Y528000D03*
X121500Y578000D03*
Y568000D03*
Y558000D03*
Y548000D03*
Y538000D03*
Y528000D03*
G54D56*G36*
X10000Y561000D02*Y555000D01*
X16000D01*
Y561000D01*
X10000D01*
G37*
G54D57*X13000Y548000D03*
X23000D03*
Y558000D03*
G54D56*G36*
X187500Y561000D02*Y555000D01*
X193500D01*
Y561000D01*
X187500D01*
G37*
G54D57*X190500Y548000D03*
X200500D03*
Y558000D03*
G54D58*X217500Y547500D03*
Y612500D03*
Y580000D03*
Y482500D03*
Y515000D03*
G54D57*X146000Y731000D03*
X157500D03*
X156000Y721000D03*
X147500D03*
X123500Y731000D03*
X122000Y721000D03*
X132000Y731000D03*
X133500Y721000D03*
X146000Y711000D03*
X147500Y701000D03*
X146000Y691000D03*
X157500Y711000D03*
X123500D03*
X132000D03*
G54D59*X32957Y709992D03*
G54D57*X156000Y701000D03*
X122000D03*
X133500D03*
X157500Y691000D03*
X132000D03*
X123500D03*
X122000Y681000D03*
X133500D03*
G54D59*X40043Y714008D03*
X58980Y690465D03*
G54D57*X147500Y681000D03*
X156000D03*
G54D60*X22996Y682787D03*
G54D61*X36500Y682000D03*
G54D59*X58980Y680425D03*
X32957Y701961D03*
Y693929D03*
X40043Y705976D03*
Y697945D03*
G54D58*X217500Y677500D03*
Y645000D03*
G54D59*X58980Y725504D03*
Y735543D03*
G54D60*X22996Y733181D03*
G54D61*X36500Y733969D03*
G54D59*X32957Y718024D03*
X40043Y722039D03*
G54D62*X16760Y759500D03*
X36445D03*
X56130D03*
X75815D03*
X95500D03*
G54D63*X179000Y803000D03*
G54D64*X194748D03*
X192583Y795126D03*
Y810874D03*
X163252Y803000D03*
X165417Y795126D03*
Y810874D03*
X179000Y787252D03*
X171323Y789220D03*
X186677D03*
X179000Y818748D03*
X186677Y816780D03*
X171323D03*
G54D58*X217500Y807500D03*
Y775000D03*
Y742500D03*
Y710000D03*
G54D62*X115185Y759500D03*
X134870D03*
X154555D03*
X174240D03*
G54D63*X78500Y787500D03*
G54D65*X76378Y805118D03*
G54D66*X72835Y808268D03*
G54D67*X23500Y797000D03*
X51846D03*
G54D63*X78740Y812205D03*
G54D60*X82283Y804724D03*
G54D63*X93504Y812205D03*
G54D60*X97047Y804724D03*
G54D65*X91142Y805118D03*
G54D66*X87598Y808268D03*
G54D68*G54D69*G54D68*G54D70*G54D68*G54D70*G54D68*G54D59*G54D63*G54D70*G54D69*G54D70*G54D59*G54D63*G54D70*G54D71*G54D72*G54D66*G54D69*G54D71*G54D72*G54D73*G54D74*G54D75*G54D72*G54D76*G54D72*G54D76*G54D73*G54D74*M02*
