<?xml version="1.0" encoding="UTF-8"?>
<svg xmlns="http://www.w3.org/2000/svg" xmlns:xlink="http://www.w3.org/1999/xlink" width="132pt" height="112pt" viewBox="0 0 132 112" version="1.1">
<g id="surface1">
<path style="fill:none;stroke-width:0.006;stroke-linecap:round;stroke-linejoin:miter;stroke:rgb(100%,49.803922%,45.098039%);stroke-opacity:1;stroke-miterlimit:10;" d="M 0.0250043 1.974978 L 0.0250043 0.499989 " transform="matrix(72,0,0,-72,1.5786,145.1164)"/>
<path style="fill:none;stroke-width:0.006;stroke-linecap:round;stroke-linejoin:miter;stroke:rgb(100%,49.803922%,45.098039%);stroke-opacity:1;stroke-miterlimit:10;" d="M 0.0250043 0.499989 L 1.775004 0.499989 " transform="matrix(72,0,0,-72,1.5786,145.1164)"/>
<path style="fill:none;stroke-width:0.006;stroke-linecap:round;stroke-linejoin:miter;stroke:rgb(100%,49.803922%,45.098039%);stroke-opacity:1;stroke-miterlimit:10;" d="M 1.775004 0.499989 L 1.775004 1.974978 " transform="matrix(72,0,0,-72,1.5786,145.1164)"/>
<path style="fill:none;stroke-width:0.006;stroke-linecap:round;stroke-linejoin:miter;stroke:rgb(100%,49.803922%,45.098039%);stroke-opacity:1;stroke-miterlimit:10;" d="M 1.775004 1.974978 L 0.0250043 1.974978 " transform="matrix(72,0,0,-72,1.5786,145.1164)"/>
<path style=" stroke:none;fill-rule:evenodd;fill:rgb(45.098039%,45.098039%,87.058824%);fill-opacity:1;" d="M 14.285156 16.238281 C 14.285156 15.613281 13.351562 15.613281 13.351562 16.238281 C 13.351562 16.859375 14.285156 16.859375 14.285156 16.238281 "/>
<path style=" stroke:none;fill-rule:evenodd;fill:rgb(45.098039%,45.098039%,87.058824%);fill-opacity:1;" d="M 14.285156 19.835938 C 14.285156 19.210938 13.351562 19.210938 13.351562 19.835938 C 13.351562 20.460938 14.285156 20.460938 14.285156 19.835938 "/>
<path style=" stroke:none;fill-rule:evenodd;fill:rgb(45.098039%,45.098039%,87.058824%);fill-opacity:1;" d="M 14.285156 23.4375 C 14.285156 22.8125 13.351562 22.8125 13.351562 23.4375 C 13.351562 24.058594 14.285156 24.058594 14.285156 23.4375 "/>
<path style=" stroke:none;fill-rule:evenodd;fill:rgb(45.098039%,45.098039%,87.058824%);fill-opacity:1;" d="M 14.285156 27.035156 C 14.285156 26.414062 13.351562 26.414062 13.351562 27.035156 C 13.351562 27.660156 14.285156 27.660156 14.285156 27.035156 "/>
<path style=" stroke:none;fill-rule:evenodd;fill:rgb(45.098039%,45.098039%,87.058824%);fill-opacity:1;" d="M 14.285156 30.636719 C 14.285156 30.011719 13.351562 30.011719 13.351562 30.636719 C 13.351562 31.261719 14.285156 31.261719 14.285156 30.636719 "/>
<path style=" stroke:none;fill-rule:evenodd;fill:rgb(45.098039%,45.098039%,87.058824%);fill-opacity:1;" d="M 14.285156 34.238281 C 14.285156 33.613281 13.351562 33.613281 13.351562 34.238281 C 13.351562 34.859375 14.285156 34.859375 14.285156 34.238281 "/>
<path style=" stroke:none;fill-rule:evenodd;fill:rgb(45.098039%,45.098039%,87.058824%);fill-opacity:1;" d="M 14.285156 37.835938 C 14.285156 37.210938 13.351562 37.210938 13.351562 37.835938 C 13.351562 38.460938 14.285156 38.460938 14.285156 37.835938 "/>
<path style=" stroke:none;fill-rule:evenodd;fill:rgb(45.098039%,45.098039%,87.058824%);fill-opacity:1;" d="M 14.285156 41.4375 C 14.285156 40.8125 13.351562 40.8125 13.351562 41.4375 C 13.351562 42.058594 14.285156 42.058594 14.285156 41.4375 "/>
<path style=" stroke:none;fill-rule:evenodd;fill:rgb(45.098039%,45.098039%,87.058824%);fill-opacity:1;" d="M 14.285156 70.957031 C 14.285156 70.332031 13.351562 70.332031 13.351562 70.957031 C 13.351562 71.582031 14.285156 71.582031 14.285156 70.957031 "/>
<path style=" stroke:none;fill-rule:evenodd;fill:rgb(45.098039%,45.098039%,87.058824%);fill-opacity:1;" d="M 14.285156 74.554688 C 14.285156 73.933594 13.351562 73.933594 13.351562 74.554688 C 13.351562 75.179688 14.285156 75.179688 14.285156 74.554688 "/>
<path style=" stroke:none;fill-rule:evenodd;fill:rgb(45.098039%,45.098039%,87.058824%);fill-opacity:1;" d="M 14.285156 78.15625 C 14.285156 77.53125 13.351562 77.53125 13.351562 78.15625 C 13.351562 78.78125 14.285156 78.78125 14.285156 78.15625 "/>
<path style=" stroke:none;fill-rule:evenodd;fill:rgb(45.098039%,45.098039%,87.058824%);fill-opacity:1;" d="M 14.285156 81.757812 C 14.285156 81.132812 13.351562 81.132812 13.351562 81.757812 C 13.351562 82.378906 14.285156 82.378906 14.285156 81.757812 "/>
<path style=" stroke:none;fill-rule:evenodd;fill:rgb(45.098039%,45.098039%,87.058824%);fill-opacity:1;" d="M 14.285156 85.355469 C 14.285156 84.730469 13.351562 84.730469 13.351562 85.355469 C 13.351562 85.980469 14.285156 85.980469 14.285156 85.355469 "/>
<path style=" stroke:none;fill-rule:evenodd;fill:rgb(45.098039%,45.098039%,87.058824%);fill-opacity:1;" d="M 14.285156 88.957031 C 14.285156 88.332031 13.351562 88.332031 13.351562 88.957031 C 13.351562 89.582031 14.285156 89.582031 14.285156 88.957031 "/>
<path style=" stroke:none;fill-rule:evenodd;fill:rgb(45.098039%,45.098039%,87.058824%);fill-opacity:1;" d="M 14.285156 92.554688 C 14.285156 91.933594 13.351562 91.933594 13.351562 92.554688 C 13.351562 93.179688 14.285156 93.179688 14.285156 92.554688 "/>
<path style=" stroke:none;fill-rule:evenodd;fill:rgb(45.098039%,45.098039%,87.058824%);fill-opacity:1;" d="M 14.285156 96.15625 C 14.285156 95.53125 13.351562 95.53125 13.351562 96.15625 C 13.351562 96.78125 14.285156 96.78125 14.285156 96.15625 "/>
<path style=" stroke:none;fill-rule:evenodd;fill:rgb(45.098039%,45.098039%,87.058824%);fill-opacity:1;" d="M 34.085938 12.996094 C 34.085938 12.371094 33.152344 12.371094 33.152344 12.996094 C 33.152344 13.621094 34.085938 13.621094 34.085938 12.996094 "/>
<path style=" stroke:none;fill-rule:evenodd;fill:rgb(45.098039%,45.098039%,87.058824%);fill-opacity:1;" d="M 34.085938 16.957031 C 34.085938 16.332031 33.152344 16.332031 33.152344 16.957031 C 33.152344 17.582031 34.085938 17.582031 34.085938 16.957031 "/>
<path style=" stroke:none;fill-rule:evenodd;fill:rgb(45.098039%,45.098039%,87.058824%);fill-opacity:1;" d="M 34.085938 20.554688 C 34.085938 19.933594 33.152344 19.933594 33.152344 20.554688 C 33.152344 21.179688 34.085938 21.179688 34.085938 20.554688 "/>
<path style=" stroke:none;fill-rule:evenodd;fill:rgb(45.098039%,45.098039%,87.058824%);fill-opacity:1;" d="M 34.085938 24.515625 C 34.085938 23.890625 33.152344 23.890625 33.152344 24.515625 C 33.152344 25.140625 34.085938 25.140625 34.085938 24.515625 "/>
<path style=" stroke:none;fill-rule:evenodd;fill:rgb(45.098039%,45.098039%,87.058824%);fill-opacity:1;" d="M 34.085938 28.476562 C 34.085938 27.851562 33.152344 27.851562 33.152344 28.476562 C 33.152344 29.101562 34.085938 29.101562 34.085938 28.476562 "/>
<path style=" stroke:none;fill-rule:evenodd;fill:rgb(45.098039%,45.098039%,87.058824%);fill-opacity:1;" d="M 34.085938 32.4375 C 34.085938 31.8125 33.152344 31.8125 33.152344 32.4375 C 33.152344 33.058594 34.085938 33.058594 34.085938 32.4375 "/>
<path style=" stroke:none;fill-rule:evenodd;fill:rgb(45.098039%,45.098039%,87.058824%);fill-opacity:1;" d="M 34.085938 36.394531 C 34.085938 35.773438 33.152344 35.773438 33.152344 36.394531 C 33.152344 37.019531 34.085938 37.019531 34.085938 36.394531 "/>
<path style=" stroke:none;fill-rule:evenodd;fill:rgb(45.098039%,45.098039%,87.058824%);fill-opacity:1;" d="M 34.085938 40.355469 C 34.085938 39.730469 33.152344 39.730469 33.152344 40.355469 C 33.152344 40.980469 34.085938 40.980469 34.085938 40.355469 "/>
<path style=" stroke:none;fill-rule:evenodd;fill:rgb(45.098039%,45.098039%,87.058824%);fill-opacity:1;" d="M 34.085938 67.714844 C 34.085938 67.09375 33.152344 67.09375 33.152344 67.714844 C 33.152344 68.339844 34.085938 68.339844 34.085938 67.714844 "/>
<path style=" stroke:none;fill-rule:evenodd;fill:rgb(45.098039%,45.098039%,87.058824%);fill-opacity:1;" d="M 34.085938 71.675781 C 34.085938 71.050781 33.152344 71.050781 33.152344 71.675781 C 33.152344 72.300781 34.085938 72.300781 34.085938 71.675781 "/>
<path style=" stroke:none;fill-rule:evenodd;fill:rgb(45.098039%,45.098039%,87.058824%);fill-opacity:1;" d="M 34.085938 75.277344 C 34.085938 74.652344 33.152344 74.652344 33.152344 75.277344 C 33.152344 75.902344 34.085938 75.902344 34.085938 75.277344 "/>
<path style=" stroke:none;fill-rule:evenodd;fill:rgb(45.098039%,45.098039%,87.058824%);fill-opacity:1;" d="M 34.085938 79.238281 C 34.085938 78.613281 33.152344 78.613281 33.152344 79.238281 C 33.152344 79.859375 34.085938 79.859375 34.085938 79.238281 "/>
<path style=" stroke:none;fill-rule:evenodd;fill:rgb(45.098039%,45.098039%,87.058824%);fill-opacity:1;" d="M 34.085938 83.195312 C 34.085938 82.574219 33.152344 82.574219 33.152344 83.195312 C 33.152344 83.820312 34.085938 83.820312 34.085938 83.195312 "/>
<path style=" stroke:none;fill-rule:evenodd;fill:rgb(45.098039%,45.098039%,87.058824%);fill-opacity:1;" d="M 34.085938 87.15625 C 34.085938 86.53125 33.152344 86.53125 33.152344 87.15625 C 33.152344 87.78125 34.085938 87.78125 34.085938 87.15625 "/>
<path style=" stroke:none;fill-rule:evenodd;fill:rgb(45.098039%,45.098039%,87.058824%);fill-opacity:1;" d="M 34.085938 91.117188 C 34.085938 90.492188 33.152344 90.492188 33.152344 91.117188 C 33.152344 91.742188 34.085938 91.742188 34.085938 91.117188 "/>
<path style=" stroke:none;fill-rule:evenodd;fill:rgb(45.098039%,45.098039%,87.058824%);fill-opacity:1;" d="M 34.085938 95.078125 C 34.085938 94.453125 33.152344 94.453125 33.152344 95.078125 C 33.152344 95.699219 34.085938 95.699219 34.085938 95.078125 "/>
<path style=" stroke:none;fill-rule:evenodd;fill:rgb(45.098039%,45.098039%,87.058824%);fill-opacity:1;" d="M 38.40625 23.078125 C 38.40625 22.453125 37.46875 22.453125 37.46875 23.078125 C 37.46875 23.699219 38.40625 23.699219 38.40625 23.078125 "/>
<path style=" stroke:none;fill-rule:evenodd;fill:rgb(45.098039%,45.098039%,87.058824%);fill-opacity:1;" d="M 38.40625 77.796875 C 38.40625 77.171875 37.46875 77.171875 37.46875 77.796875 C 37.46875 78.421875 38.40625 78.421875 38.40625 77.796875 "/>
<path style=" stroke:none;fill-rule:evenodd;fill:rgb(45.098039%,45.098039%,87.058824%);fill-opacity:1;" d="M 40.566406 32.078125 C 40.566406 31.453125 39.628906 31.453125 39.628906 32.078125 C 39.628906 32.699219 40.566406 32.699219 40.566406 32.078125 "/>
<path style=" stroke:none;fill-rule:evenodd;fill:rgb(45.098039%,45.098039%,87.058824%);fill-opacity:1;" d="M 40.566406 86.796875 C 40.566406 86.171875 39.628906 86.171875 39.628906 86.796875 C 39.628906 87.421875 40.566406 87.421875 40.566406 86.796875 "/>
<path style=" stroke:none;fill-rule:evenodd;fill:rgb(45.098039%,45.098039%,87.058824%);fill-opacity:1;" d="M 43.085938 23.796875 C 43.085938 23.171875 42.152344 23.171875 42.152344 23.796875 C 42.152344 24.421875 43.085938 24.421875 43.085938 23.796875 "/>
<path style=" stroke:none;fill-rule:evenodd;fill:rgb(45.098039%,45.098039%,87.058824%);fill-opacity:1;" d="M 43.085938 78.515625 C 43.085938 77.890625 42.152344 77.890625 42.152344 78.515625 C 42.152344 79.140625 43.085938 79.140625 43.085938 78.515625 "/>
<path style=" stroke:none;fill-rule:evenodd;fill:rgb(45.098039%,45.098039%,87.058824%);fill-opacity:1;" d="M 45.246094 31.355469 C 45.246094 30.730469 44.3125 30.730469 44.3125 31.355469 C 44.3125 31.980469 45.246094 31.980469 45.246094 31.355469 "/>
<path style=" stroke:none;fill-rule:evenodd;fill:rgb(45.098039%,45.098039%,87.058824%);fill-opacity:1;" d="M 45.246094 86.078125 C 45.246094 85.453125 44.3125 85.453125 44.3125 86.078125 C 44.3125 86.699219 45.246094 86.699219 45.246094 86.078125 "/>
<path style=" stroke:none;fill-rule:evenodd;fill:rgb(45.098039%,45.098039%,87.058824%);fill-opacity:1;" d="M 46.6875 24.515625 C 46.6875 23.890625 45.75 23.890625 45.75 24.515625 C 45.75 25.140625 46.6875 25.140625 46.6875 24.515625 "/>
<path style=" stroke:none;fill-rule:evenodd;fill:rgb(45.098039%,45.098039%,87.058824%);fill-opacity:1;" d="M 46.6875 79.238281 C 46.6875 78.613281 45.75 78.613281 45.75 79.238281 C 45.75 79.859375 46.6875 79.859375 46.6875 79.238281 "/>
<path style=" stroke:none;fill-rule:evenodd;fill:rgb(45.098039%,45.098039%,87.058824%);fill-opacity:1;" d="M 54.246094 9.394531 C 54.246094 8.773438 53.3125 8.773438 53.3125 9.394531 C 53.3125 10.019531 54.246094 10.019531 54.246094 9.394531 "/>
<path style=" stroke:none;fill-rule:evenodd;fill:rgb(45.098039%,45.098039%,87.058824%);fill-opacity:1;" d="M 54.246094 34.597656 C 54.246094 33.972656 53.3125 33.972656 53.3125 34.597656 C 53.3125 35.21875 54.246094 35.21875 54.246094 34.597656 "/>
<path style=" stroke:none;fill-rule:evenodd;fill:rgb(45.098039%,45.098039%,87.058824%);fill-opacity:1;" d="M 54.246094 64.117188 C 54.246094 63.492188 53.3125 63.492188 53.3125 64.117188 C 53.3125 64.742188 54.246094 64.742188 54.246094 64.117188 "/>
<path style=" stroke:none;fill-rule:evenodd;fill:rgb(45.098039%,45.098039%,87.058824%);fill-opacity:1;" d="M 54.246094 89.316406 C 54.246094 88.691406 53.3125 88.691406 53.3125 89.316406 C 53.3125 89.941406 54.246094 89.941406 54.246094 89.316406 "/>
<path style=" stroke:none;fill-rule:evenodd;fill:rgb(45.098039%,45.098039%,87.058824%);fill-opacity:1;" d="M 56.046875 11.195312 C 56.046875 10.574219 55.109375 10.574219 55.109375 11.195312 C 55.109375 11.820312 56.046875 11.820312 56.046875 11.195312 "/>
<path style=" stroke:none;fill-rule:evenodd;fill:rgb(45.098039%,45.098039%,87.058824%);fill-opacity:1;" d="M 56.046875 32.796875 C 56.046875 32.171875 55.109375 32.171875 55.109375 32.796875 C 55.109375 33.421875 56.046875 33.421875 56.046875 32.796875 "/>
<path style=" stroke:none;fill-rule:evenodd;fill:rgb(45.098039%,45.098039%,87.058824%);fill-opacity:1;" d="M 56.046875 65.917969 C 56.046875 65.292969 55.109375 65.292969 55.109375 65.917969 C 55.109375 66.539062 56.046875 66.539062 56.046875 65.917969 "/>
<path style=" stroke:none;fill-rule:evenodd;fill:rgb(45.098039%,45.098039%,87.058824%);fill-opacity:1;" d="M 56.046875 87.515625 C 56.046875 86.890625 55.109375 86.890625 55.109375 87.515625 C 55.109375 88.140625 56.046875 88.140625 56.046875 87.515625 "/>
<path style=" stroke:none;fill-rule:evenodd;fill:rgb(45.098039%,45.098039%,87.058824%);fill-opacity:1;" d="M 57.847656 12.996094 C 57.847656 12.371094 56.910156 12.371094 56.910156 12.996094 C 56.910156 13.621094 57.847656 13.621094 57.847656 12.996094 "/>
<path style=" stroke:none;fill-rule:evenodd;fill:rgb(45.098039%,45.098039%,87.058824%);fill-opacity:1;" d="M 57.847656 30.996094 C 57.847656 30.371094 56.910156 30.371094 56.910156 30.996094 C 56.910156 31.621094 57.847656 31.621094 57.847656 30.996094 "/>
<path style=" stroke:none;fill-rule:evenodd;fill:rgb(45.098039%,45.098039%,87.058824%);fill-opacity:1;" d="M 57.847656 67.714844 C 57.847656 67.09375 56.910156 67.09375 56.910156 67.714844 C 56.910156 68.339844 57.847656 68.339844 57.847656 67.714844 "/>
<path style=" stroke:none;fill-rule:evenodd;fill:rgb(45.098039%,45.098039%,87.058824%);fill-opacity:1;" d="M 57.847656 85.714844 C 57.847656 85.09375 56.910156 85.09375 56.910156 85.714844 C 56.910156 86.339844 57.847656 86.339844 57.847656 85.714844 "/>
<path style=" stroke:none;fill-rule:evenodd;fill:rgb(45.098039%,45.098039%,87.058824%);fill-opacity:1;" d="M 59.648438 14.796875 C 59.648438 14.171875 58.710938 14.171875 58.710938 14.796875 C 58.710938 15.421875 59.648438 15.421875 59.648438 14.796875 "/>
<path style=" stroke:none;fill-rule:evenodd;fill:rgb(45.098039%,45.098039%,87.058824%);fill-opacity:1;" d="M 59.648438 29.195312 C 59.648438 28.574219 58.710938 28.574219 58.710938 29.195312 C 58.710938 29.820312 59.648438 29.820312 59.648438 29.195312 "/>
<path style=" stroke:none;fill-rule:evenodd;fill:rgb(45.098039%,45.098039%,87.058824%);fill-opacity:1;" d="M 59.648438 69.515625 C 59.648438 68.890625 58.710938 68.890625 58.710938 69.515625 C 58.710938 70.140625 59.648438 70.140625 59.648438 69.515625 "/>
<path style=" stroke:none;fill-rule:evenodd;fill:rgb(45.098039%,45.098039%,87.058824%);fill-opacity:1;" d="M 59.648438 83.917969 C 59.648438 83.292969 58.710938 83.292969 58.710938 83.917969 C 58.710938 84.539062 59.648438 84.539062 59.648438 83.917969 "/>
<path style=" stroke:none;fill-rule:evenodd;fill:rgb(45.098039%,45.098039%,87.058824%);fill-opacity:1;" d="M 61.445312 16.597656 C 61.445312 15.972656 60.511719 15.972656 60.511719 16.597656 C 60.511719 17.21875 61.445312 17.21875 61.445312 16.597656 "/>
<path style=" stroke:none;fill-rule:evenodd;fill:rgb(45.098039%,45.098039%,87.058824%);fill-opacity:1;" d="M 61.445312 27.394531 C 61.445312 26.773438 60.511719 26.773438 60.511719 27.394531 C 60.511719 28.019531 61.445312 28.019531 61.445312 27.394531 "/>
<path style=" stroke:none;fill-rule:evenodd;fill:rgb(45.098039%,45.098039%,87.058824%);fill-opacity:1;" d="M 61.445312 71.316406 C 61.445312 70.691406 60.511719 70.691406 60.511719 71.316406 C 60.511719 71.941406 61.445312 71.941406 61.445312 71.316406 "/>
<path style=" stroke:none;fill-rule:evenodd;fill:rgb(45.098039%,45.098039%,87.058824%);fill-opacity:1;" d="M 61.445312 82.117188 C 61.445312 81.492188 60.511719 81.492188 60.511719 82.117188 C 60.511719 82.742188 61.445312 82.742188 61.445312 82.117188 "/>
<path style=" stroke:none;fill-rule:evenodd;fill:rgb(45.098039%,45.098039%,87.058824%);fill-opacity:1;" d="M 61.804688 34.957031 C 61.804688 34.332031 60.871094 34.332031 60.871094 34.957031 C 60.871094 35.582031 61.804688 35.582031 61.804688 34.957031 "/>
<path style=" stroke:none;fill-rule:evenodd;fill:rgb(45.098039%,45.098039%,87.058824%);fill-opacity:1;" d="M 63.246094 18.394531 C 63.246094 17.773438 62.3125 17.773438 62.3125 18.394531 C 62.3125 19.019531 63.246094 19.019531 63.246094 18.394531 "/>
<path style=" stroke:none;fill-rule:evenodd;fill:rgb(45.098039%,45.098039%,87.058824%);fill-opacity:1;" d="M 63.246094 25.597656 C 63.246094 24.972656 62.3125 24.972656 62.3125 25.597656 C 62.3125 26.21875 63.246094 26.21875 63.246094 25.597656 "/>
<path style=" stroke:none;fill-rule:evenodd;fill:rgb(45.098039%,45.098039%,87.058824%);fill-opacity:1;" d="M 63.246094 73.117188 C 63.246094 72.492188 62.3125 72.492188 62.3125 73.117188 C 62.3125 73.742188 63.246094 73.742188 63.246094 73.117188 "/>
<path style=" stroke:none;fill-rule:evenodd;fill:rgb(45.098039%,45.098039%,87.058824%);fill-opacity:1;" d="M 63.246094 80.316406 C 63.246094 79.691406 62.3125 79.691406 62.3125 80.316406 C 62.3125 80.941406 63.246094 80.941406 63.246094 80.316406 "/>
<path style=" stroke:none;fill-rule:evenodd;fill:rgb(45.098039%,45.098039%,87.058824%);fill-opacity:1;" d="M 65.046875 20.195312 C 65.046875 19.574219 64.109375 19.574219 64.109375 20.195312 C 64.109375 20.820312 65.046875 20.820312 65.046875 20.195312 "/>
<path style=" stroke:none;fill-rule:evenodd;fill:rgb(45.098039%,45.098039%,87.058824%);fill-opacity:1;" d="M 65.046875 23.796875 C 65.046875 23.171875 64.109375 23.171875 64.109375 23.796875 C 64.109375 24.421875 65.046875 24.421875 65.046875 23.796875 "/>
<path style=" stroke:none;fill-rule:evenodd;fill:rgb(45.098039%,45.098039%,87.058824%);fill-opacity:1;" d="M 65.046875 74.917969 C 65.046875 74.292969 64.109375 74.292969 64.109375 74.917969 C 64.109375 75.539062 65.046875 75.539062 65.046875 74.917969 "/>
<path style=" stroke:none;fill-rule:evenodd;fill:rgb(45.098039%,45.098039%,87.058824%);fill-opacity:1;" d="M 65.046875 78.515625 C 65.046875 77.890625 64.109375 77.890625 64.109375 78.515625 C 64.109375 79.140625 65.046875 79.140625 65.046875 78.515625 "/>
<path style=" stroke:none;fill-rule:evenodd;fill:rgb(45.098039%,45.098039%,87.058824%);fill-opacity:1;" d="M 65.40625 69.515625 C 65.40625 68.890625 64.46875 68.890625 64.46875 69.515625 C 64.46875 70.140625 65.40625 70.140625 65.40625 69.515625 "/>
<path style=" stroke:none;fill-rule:evenodd;fill:rgb(45.098039%,45.098039%,87.058824%);fill-opacity:1;" d="M 66.847656 21.996094 C 66.847656 21.371094 65.910156 21.371094 65.910156 21.996094 C 65.910156 22.621094 66.847656 22.621094 66.847656 21.996094 "/>
<path style=" stroke:none;fill-rule:evenodd;fill:rgb(45.098039%,45.098039%,87.058824%);fill-opacity:1;" d="M 66.847656 34.976562 C 66.847656 34.355469 65.910156 34.355469 65.910156 34.976562 C 65.910156 35.601562 66.847656 35.601562 66.847656 34.976562 "/>
<path style=" stroke:none;fill-rule:evenodd;fill:rgb(45.098039%,45.098039%,87.058824%);fill-opacity:1;" d="M 66.847656 76.714844 C 66.847656 76.09375 65.910156 76.09375 65.910156 76.714844 C 65.910156 77.339844 66.847656 77.339844 66.847656 76.714844 "/>
<path style=" stroke:none;fill-rule:evenodd;fill:rgb(45.098039%,45.098039%,87.058824%);fill-opacity:1;" d="M 66.847656 89.699219 C 66.847656 89.074219 65.910156 89.074219 65.910156 89.699219 C 65.910156 90.320312 66.847656 90.320312 66.847656 89.699219 "/>
<path style=" stroke:none;fill-rule:evenodd;fill:rgb(45.098039%,45.098039%,87.058824%);fill-opacity:1;" d="M 68.648438 33.179688 C 68.648438 32.554688 67.710938 32.554688 67.710938 33.179688 C 67.710938 33.800781 68.648438 33.800781 68.648438 33.179688 "/>
<path style=" stroke:none;fill-rule:evenodd;fill:rgb(45.098039%,45.098039%,87.058824%);fill-opacity:1;" d="M 68.648438 36.777344 C 68.648438 36.152344 67.710938 36.152344 67.710938 36.777344 C 67.710938 37.402344 68.648438 37.402344 68.648438 36.777344 "/>
<path style=" stroke:none;fill-rule:evenodd;fill:rgb(45.098039%,45.098039%,87.058824%);fill-opacity:1;" d="M 68.648438 87.898438 C 68.648438 87.273438 67.710938 87.273438 67.710938 87.898438 C 67.710938 88.523438 68.648438 88.523438 68.648438 87.898438 "/>
<path style=" stroke:none;fill-rule:evenodd;fill:rgb(45.098039%,45.098039%,87.058824%);fill-opacity:1;" d="M 70.445312 31.378906 C 70.445312 30.753906 69.511719 30.753906 69.511719 31.378906 C 69.511719 32.003906 70.445312 32.003906 70.445312 31.378906 "/>
<path style=" stroke:none;fill-rule:evenodd;fill:rgb(45.098039%,45.098039%,87.058824%);fill-opacity:1;" d="M 70.445312 38.578125 C 70.445312 37.953125 69.511719 37.953125 69.511719 38.578125 C 69.511719 39.203125 70.445312 39.203125 70.445312 38.578125 "/>
<path style=" stroke:none;fill-rule:evenodd;fill:rgb(45.098039%,45.098039%,87.058824%);fill-opacity:1;" d="M 70.445312 86.097656 C 70.445312 85.472656 69.511719 85.472656 69.511719 86.097656 C 69.511719 86.722656 70.445312 86.722656 70.445312 86.097656 "/>
<path style=" stroke:none;fill-rule:evenodd;fill:rgb(45.098039%,45.098039%,87.058824%);fill-opacity:1;" d="M 72.246094 29.578125 C 72.246094 28.953125 71.3125 28.953125 71.3125 29.578125 C 71.3125 30.203125 72.246094 30.203125 72.246094 29.578125 "/>
<path style=" stroke:none;fill-rule:evenodd;fill:rgb(45.098039%,45.098039%,87.058824%);fill-opacity:1;" d="M 72.246094 40.378906 C 72.246094 39.753906 71.3125 39.753906 71.3125 40.378906 C 71.3125 41.003906 72.246094 41.003906 72.246094 40.378906 "/>
<path style=" stroke:none;fill-rule:evenodd;fill:rgb(45.098039%,45.098039%,87.058824%);fill-opacity:1;" d="M 72.246094 84.296875 C 72.246094 83.675781 71.3125 83.675781 71.3125 84.296875 C 71.3125 84.921875 72.246094 84.921875 72.246094 84.296875 "/>
<path style=" stroke:none;fill-rule:evenodd;fill:rgb(45.098039%,45.098039%,87.058824%);fill-opacity:1;" d="M 74.046875 27.777344 C 74.046875 27.152344 73.109375 27.152344 73.109375 27.777344 C 73.109375 28.402344 74.046875 28.402344 74.046875 27.777344 "/>
<path style=" stroke:none;fill-rule:evenodd;fill:rgb(45.098039%,45.098039%,87.058824%);fill-opacity:1;" d="M 74.046875 42.179688 C 74.046875 41.554688 73.109375 41.554688 73.109375 42.179688 C 73.109375 42.800781 74.046875 42.800781 74.046875 42.179688 "/>
<path style=" stroke:none;fill-rule:evenodd;fill:rgb(45.098039%,45.098039%,87.058824%);fill-opacity:1;" d="M 74.046875 82.496094 C 74.046875 81.875 73.109375 81.875 73.109375 82.496094 C 73.109375 83.121094 74.046875 83.121094 74.046875 82.496094 "/>
<path style=" stroke:none;fill-rule:evenodd;fill:rgb(45.098039%,45.098039%,87.058824%);fill-opacity:1;" d="M 75.847656 25.976562 C 75.847656 25.355469 74.910156 25.355469 74.910156 25.976562 C 74.910156 26.601562 75.847656 26.601562 75.847656 25.976562 "/>
<path style=" stroke:none;fill-rule:evenodd;fill:rgb(45.098039%,45.098039%,87.058824%);fill-opacity:1;" d="M 75.847656 43.976562 C 75.847656 43.355469 74.910156 43.355469 74.910156 43.976562 C 74.910156 44.601562 75.847656 44.601562 75.847656 43.976562 "/>
<path style=" stroke:none;fill-rule:evenodd;fill:rgb(45.098039%,45.098039%,87.058824%);fill-opacity:1;" d="M 75.847656 80.699219 C 75.847656 80.074219 74.910156 80.074219 74.910156 80.699219 C 74.910156 81.320312 75.847656 81.320312 75.847656 80.699219 "/>
<path style=" stroke:none;fill-rule:evenodd;fill:rgb(45.098039%,45.098039%,87.058824%);fill-opacity:1;" d="M 77.648438 24.179688 C 77.648438 23.554688 76.710938 23.554688 76.710938 24.179688 C 76.710938 24.800781 77.648438 24.800781 77.648438 24.179688 "/>
<path style=" stroke:none;fill-rule:evenodd;fill:rgb(45.098039%,45.098039%,87.058824%);fill-opacity:1;" d="M 77.648438 45.777344 C 77.648438 45.152344 76.710938 45.152344 76.710938 45.777344 C 76.710938 46.402344 77.648438 46.402344 77.648438 45.777344 "/>
<path style=" stroke:none;fill-rule:evenodd;fill:rgb(45.098039%,45.098039%,87.058824%);fill-opacity:1;" d="M 77.648438 78.898438 C 77.648438 78.273438 76.710938 78.273438 76.710938 78.898438 C 76.710938 79.523438 77.648438 79.523438 77.648438 78.898438 "/>
<path style=" stroke:none;fill-rule:evenodd;fill:rgb(45.098039%,45.098039%,87.058824%);fill-opacity:1;" d="M 79.445312 22.378906 C 79.445312 21.753906 78.511719 21.753906 78.511719 22.378906 C 78.511719 23.003906 79.445312 23.003906 79.445312 22.378906 "/>
<path style=" stroke:none;fill-rule:evenodd;fill:rgb(45.098039%,45.098039%,87.058824%);fill-opacity:1;" d="M 79.445312 47.578125 C 79.445312 46.953125 78.511719 46.953125 78.511719 47.578125 C 78.511719 48.203125 79.445312 48.203125 79.445312 47.578125 "/>
<path style=" stroke:none;fill-rule:evenodd;fill:rgb(45.098039%,45.098039%,87.058824%);fill-opacity:1;" d="M 79.445312 77.097656 C 79.445312 76.472656 78.511719 76.472656 78.511719 77.097656 C 78.511719 77.722656 79.445312 77.722656 79.445312 77.097656 "/>
<path style=" stroke:none;fill-rule:evenodd;fill:rgb(45.098039%,45.098039%,87.058824%);fill-opacity:1;" d="M 87.007812 32.457031 C 87.007812 31.835938 86.070312 31.835938 86.070312 32.457031 C 86.070312 33.082031 87.007812 33.082031 87.007812 32.457031 "/>
<path style=" stroke:none;fill-rule:evenodd;fill:rgb(45.098039%,45.098039%,87.058824%);fill-opacity:1;" d="M 87.007812 87.179688 C 87.007812 86.554688 86.070312 86.554688 86.070312 87.179688 C 86.070312 87.800781 87.007812 87.800781 87.007812 87.179688 "/>
<path style=" stroke:none;fill-rule:evenodd;fill:rgb(45.098039%,45.098039%,87.058824%);fill-opacity:1;" d="M 88.445312 25.617188 C 88.445312 24.992188 87.511719 24.992188 87.511719 25.617188 C 87.511719 26.242188 88.445312 26.242188 88.445312 25.617188 "/>
<path style=" stroke:none;fill-rule:evenodd;fill:rgb(45.098039%,45.098039%,87.058824%);fill-opacity:1;" d="M 88.445312 80.339844 C 88.445312 79.714844 87.511719 79.714844 87.511719 80.339844 C 87.511719 80.960938 88.445312 80.960938 88.445312 80.339844 "/>
<path style=" stroke:none;fill-rule:evenodd;fill:rgb(45.098039%,45.098039%,87.058824%);fill-opacity:1;" d="M 90.605469 33.179688 C 90.605469 32.554688 89.671875 32.554688 89.671875 33.179688 C 89.671875 33.800781 90.605469 33.800781 90.605469 33.179688 "/>
<path style=" stroke:none;fill-rule:evenodd;fill:rgb(45.098039%,45.098039%,87.058824%);fill-opacity:1;" d="M 90.605469 87.898438 C 90.605469 87.273438 89.671875 87.273438 89.671875 87.898438 C 89.671875 88.523438 90.605469 88.523438 90.605469 87.898438 "/>
<path style=" stroke:none;fill-rule:evenodd;fill:rgb(45.098039%,45.098039%,87.058824%);fill-opacity:1;" d="M 93.125 24.898438 C 93.125 24.273438 92.191406 24.273438 92.191406 24.898438 C 92.191406 25.523438 93.125 25.523438 93.125 24.898438 "/>
<path style=" stroke:none;fill-rule:evenodd;fill:rgb(45.098039%,45.098039%,87.058824%);fill-opacity:1;" d="M 93.125 79.617188 C 93.125 78.992188 92.191406 78.992188 92.191406 79.617188 C 92.191406 80.242188 93.125 80.242188 93.125 79.617188 "/>
<path style=" stroke:none;fill-rule:evenodd;fill:rgb(45.098039%,45.098039%,87.058824%);fill-opacity:1;" d="M 95.285156 33.898438 C 95.285156 33.273438 94.351562 33.273438 94.351562 33.898438 C 94.351562 34.523438 95.285156 34.523438 95.285156 33.898438 "/>
<path style=" stroke:none;fill-rule:evenodd;fill:rgb(45.098039%,45.098039%,87.058824%);fill-opacity:1;" d="M 95.285156 88.617188 C 95.285156 87.992188 94.351562 87.992188 94.351562 88.617188 C 94.351562 89.242188 95.285156 89.242188 95.285156 88.617188 "/>
<path style=" stroke:none;fill-rule:evenodd;fill:rgb(45.098039%,45.098039%,87.058824%);fill-opacity:1;" d="M 99.605469 16.617188 C 99.605469 15.992188 98.671875 15.992188 98.671875 16.617188 C 98.671875 17.242188 99.605469 17.242188 99.605469 16.617188 "/>
<path style=" stroke:none;fill-rule:evenodd;fill:rgb(45.098039%,45.098039%,87.058824%);fill-opacity:1;" d="M 99.605469 20.578125 C 99.605469 19.953125 98.671875 19.953125 98.671875 20.578125 C 98.671875 21.203125 99.605469 21.203125 99.605469 20.578125 "/>
<path style=" stroke:none;fill-rule:evenodd;fill:rgb(45.098039%,45.098039%,87.058824%);fill-opacity:1;" d="M 99.605469 24.539062 C 99.605469 23.914062 98.671875 23.914062 98.671875 24.539062 C 98.671875 25.160156 99.605469 25.160156 99.605469 24.539062 "/>
<path style=" stroke:none;fill-rule:evenodd;fill:rgb(45.098039%,45.098039%,87.058824%);fill-opacity:1;" d="M 99.605469 28.496094 C 99.605469 27.875 98.671875 27.875 98.671875 28.496094 C 98.671875 29.121094 99.605469 29.121094 99.605469 28.496094 "/>
<path style=" stroke:none;fill-rule:evenodd;fill:rgb(45.098039%,45.098039%,87.058824%);fill-opacity:1;" d="M 99.605469 32.457031 C 99.605469 31.835938 98.671875 31.835938 98.671875 32.457031 C 98.671875 33.082031 99.605469 33.082031 99.605469 32.457031 "/>
<path style=" stroke:none;fill-rule:evenodd;fill:rgb(45.098039%,45.098039%,87.058824%);fill-opacity:1;" d="M 99.605469 36.417969 C 99.605469 35.792969 98.671875 35.792969 98.671875 36.417969 C 98.671875 37.042969 99.605469 37.042969 99.605469 36.417969 "/>
<path style=" stroke:none;fill-rule:evenodd;fill:rgb(45.098039%,45.098039%,87.058824%);fill-opacity:1;" d="M 99.605469 40.019531 C 99.605469 39.394531 98.671875 39.394531 98.671875 40.019531 C 98.671875 40.640625 99.605469 40.640625 99.605469 40.019531 "/>
<path style=" stroke:none;fill-rule:evenodd;fill:rgb(45.098039%,45.098039%,87.058824%);fill-opacity:1;" d="M 99.605469 43.976562 C 99.605469 43.355469 98.671875 43.355469 98.671875 43.976562 C 98.671875 44.601562 99.605469 44.601562 99.605469 43.976562 "/>
<path style=" stroke:none;fill-rule:evenodd;fill:rgb(45.098039%,45.098039%,87.058824%);fill-opacity:1;" d="M 99.605469 71.339844 C 99.605469 70.714844 98.671875 70.714844 98.671875 71.339844 C 98.671875 71.960938 99.605469 71.960938 99.605469 71.339844 "/>
<path style=" stroke:none;fill-rule:evenodd;fill:rgb(45.098039%,45.098039%,87.058824%);fill-opacity:1;" d="M 99.605469 75.296875 C 99.605469 74.675781 98.671875 74.675781 98.671875 75.296875 C 98.671875 75.921875 99.605469 75.921875 99.605469 75.296875 "/>
<path style=" stroke:none;fill-rule:evenodd;fill:rgb(45.098039%,45.098039%,87.058824%);fill-opacity:1;" d="M 99.605469 79.257812 C 99.605469 78.632812 98.671875 78.632812 98.671875 79.257812 C 98.671875 79.882812 99.605469 79.882812 99.605469 79.257812 "/>
<path style=" stroke:none;fill-rule:evenodd;fill:rgb(45.098039%,45.098039%,87.058824%);fill-opacity:1;" d="M 99.605469 83.21875 C 99.605469 82.59375 98.671875 82.59375 98.671875 83.21875 C 98.671875 83.84375 99.605469 83.84375 99.605469 83.21875 "/>
<path style=" stroke:none;fill-rule:evenodd;fill:rgb(45.098039%,45.098039%,87.058824%);fill-opacity:1;" d="M 99.605469 87.179688 C 99.605469 86.554688 98.671875 86.554688 98.671875 87.179688 C 98.671875 87.800781 99.605469 87.800781 99.605469 87.179688 "/>
<path style=" stroke:none;fill-rule:evenodd;fill:rgb(45.098039%,45.098039%,87.058824%);fill-opacity:1;" d="M 99.605469 91.136719 C 99.605469 90.515625 98.671875 90.515625 98.671875 91.136719 C 98.671875 91.761719 99.605469 91.761719 99.605469 91.136719 "/>
<path style=" stroke:none;fill-rule:evenodd;fill:rgb(45.098039%,45.098039%,87.058824%);fill-opacity:1;" d="M 99.605469 94.738281 C 99.605469 94.113281 98.671875 94.113281 98.671875 94.738281 C 98.671875 95.363281 99.605469 95.363281 99.605469 94.738281 "/>
<path style=" stroke:none;fill-rule:evenodd;fill:rgb(45.098039%,45.098039%,87.058824%);fill-opacity:1;" d="M 99.605469 98.699219 C 99.605469 98.074219 98.671875 98.074219 98.671875 98.699219 C 98.671875 99.320312 99.605469 99.320312 99.605469 98.699219 "/>
<path style=" stroke:none;fill-rule:evenodd;fill:rgb(45.098039%,45.098039%,87.058824%);fill-opacity:1;" d="M 119.40625 15.539062 C 119.40625 14.914062 118.46875 14.914062 118.46875 15.539062 C 118.46875 16.160156 119.40625 16.160156 119.40625 15.539062 "/>
<path style=" stroke:none;fill-rule:evenodd;fill:rgb(45.098039%,45.098039%,87.058824%);fill-opacity:1;" d="M 119.40625 19.136719 C 119.40625 18.515625 118.46875 18.515625 118.46875 19.136719 C 118.46875 19.761719 119.40625 19.761719 119.40625 19.136719 "/>
<path style=" stroke:none;fill-rule:evenodd;fill:rgb(45.098039%,45.098039%,87.058824%);fill-opacity:1;" d="M 119.40625 22.738281 C 119.40625 22.113281 118.46875 22.113281 118.46875 22.738281 C 118.46875 23.363281 119.40625 23.363281 119.40625 22.738281 "/>
<path style=" stroke:none;fill-rule:evenodd;fill:rgb(45.098039%,45.098039%,87.058824%);fill-opacity:1;" d="M 119.40625 26.339844 C 119.40625 25.714844 118.46875 25.714844 118.46875 26.339844 C 118.46875 26.960938 119.40625 26.960938 119.40625 26.339844 "/>
<path style=" stroke:none;fill-rule:evenodd;fill:rgb(45.098039%,45.098039%,87.058824%);fill-opacity:1;" d="M 119.40625 29.9375 C 119.40625 29.3125 118.46875 29.3125 118.46875 29.9375 C 118.46875 30.5625 119.40625 30.5625 119.40625 29.9375 "/>
<path style=" stroke:none;fill-rule:evenodd;fill:rgb(45.098039%,45.098039%,87.058824%);fill-opacity:1;" d="M 119.40625 33.539062 C 119.40625 32.914062 118.46875 32.914062 118.46875 33.539062 C 118.46875 34.160156 119.40625 34.160156 119.40625 33.539062 "/>
<path style=" stroke:none;fill-rule:evenodd;fill:rgb(45.098039%,45.098039%,87.058824%);fill-opacity:1;" d="M 119.40625 37.136719 C 119.40625 36.515625 118.46875 36.515625 118.46875 37.136719 C 118.46875 37.761719 119.40625 37.761719 119.40625 37.136719 "/>
<path style=" stroke:none;fill-rule:evenodd;fill:rgb(45.098039%,45.098039%,87.058824%);fill-opacity:1;" d="M 119.40625 40.738281 C 119.40625 40.113281 118.46875 40.113281 118.46875 40.738281 C 118.46875 41.363281 119.40625 41.363281 119.40625 40.738281 "/>
<path style=" stroke:none;fill-rule:evenodd;fill:rgb(45.098039%,45.098039%,87.058824%);fill-opacity:1;" d="M 119.40625 70.257812 C 119.40625 69.632812 118.46875 69.632812 118.46875 70.257812 C 118.46875 70.882812 119.40625 70.882812 119.40625 70.257812 "/>
<path style=" stroke:none;fill-rule:evenodd;fill:rgb(45.098039%,45.098039%,87.058824%);fill-opacity:1;" d="M 119.40625 73.859375 C 119.40625 73.234375 118.46875 73.234375 118.46875 73.859375 C 118.46875 74.480469 119.40625 74.480469 119.40625 73.859375 "/>
<path style=" stroke:none;fill-rule:evenodd;fill:rgb(45.098039%,45.098039%,87.058824%);fill-opacity:1;" d="M 119.40625 77.457031 C 119.40625 76.835938 118.46875 76.835938 118.46875 77.457031 C 118.46875 78.082031 119.40625 78.082031 119.40625 77.457031 "/>
<path style=" stroke:none;fill-rule:evenodd;fill:rgb(45.098039%,45.098039%,87.058824%);fill-opacity:1;" d="M 119.40625 81.058594 C 119.40625 80.433594 118.46875 80.433594 118.46875 81.058594 C 118.46875 81.683594 119.40625 81.683594 119.40625 81.058594 "/>
<path style=" stroke:none;fill-rule:evenodd;fill:rgb(45.098039%,45.098039%,87.058824%);fill-opacity:1;" d="M 119.40625 84.65625 C 119.40625 84.035156 118.46875 84.035156 118.46875 84.65625 C 118.46875 85.28125 119.40625 85.28125 119.40625 84.65625 "/>
<path style=" stroke:none;fill-rule:evenodd;fill:rgb(45.098039%,45.098039%,87.058824%);fill-opacity:1;" d="M 119.40625 88.257812 C 119.40625 87.632812 118.46875 87.632812 118.46875 88.257812 C 118.46875 88.882812 119.40625 88.882812 119.40625 88.257812 "/>
<path style=" stroke:none;fill-rule:evenodd;fill:rgb(45.098039%,45.098039%,87.058824%);fill-opacity:1;" d="M 119.40625 91.859375 C 119.40625 91.234375 118.46875 91.234375 118.46875 91.859375 C 118.46875 92.480469 119.40625 92.480469 119.40625 91.859375 "/>
<path style=" stroke:none;fill-rule:evenodd;fill:rgb(45.098039%,45.098039%,87.058824%);fill-opacity:1;" d="M 119.40625 95.457031 C 119.40625 94.835938 118.46875 94.835938 118.46875 95.457031 C 118.46875 96.082031 119.40625 96.082031 119.40625 95.457031 "/>
<path style=" stroke:none;fill-rule:evenodd;fill:rgb(45.098039%,45.098039%,87.058824%);fill-opacity:1;" d="M 25.488281 21.261719 C 25.488281 19.582031 22.96875 19.582031 22.96875 21.261719 C 22.96875 22.941406 25.488281 22.941406 25.488281 21.261719 "/>
<path style=" stroke:none;fill-rule:evenodd;fill:rgb(45.098039%,45.098039%,87.058824%);fill-opacity:1;" d="M 25.488281 27.042969 C 25.488281 25.363281 22.96875 25.363281 22.96875 27.042969 C 22.96875 28.722656 25.488281 28.722656 25.488281 27.042969 "/>
<path style=" stroke:none;fill-rule:evenodd;fill:rgb(45.098039%,45.098039%,87.058824%);fill-opacity:1;" d="M 25.488281 32.824219 C 25.488281 31.144531 22.96875 31.144531 22.96875 32.824219 C 22.96875 34.503906 25.488281 34.503906 25.488281 32.824219 "/>
<path style=" stroke:none;fill-rule:evenodd;fill:rgb(45.098039%,45.098039%,87.058824%);fill-opacity:1;" d="M 25.488281 38.605469 C 25.488281 36.925781 22.96875 36.925781 22.96875 38.605469 C 22.96875 40.285156 25.488281 40.285156 25.488281 38.605469 "/>
<path style=" stroke:none;fill-rule:evenodd;fill:rgb(45.098039%,45.098039%,87.058824%);fill-opacity:1;" d="M 25.488281 75.980469 C 25.488281 74.300781 22.96875 74.300781 22.96875 75.980469 C 22.96875 77.660156 25.488281 77.660156 25.488281 75.980469 "/>
<path style=" stroke:none;fill-rule:evenodd;fill:rgb(45.098039%,45.098039%,87.058824%);fill-opacity:1;" d="M 25.488281 81.761719 C 25.488281 80.082031 22.96875 80.082031 22.96875 81.761719 C 22.96875 83.445312 25.488281 83.445312 25.488281 81.761719 "/>
<path style=" stroke:none;fill-rule:evenodd;fill:rgb(45.098039%,45.098039%,87.058824%);fill-opacity:1;" d="M 25.488281 87.546875 C 25.488281 85.863281 22.96875 85.863281 22.96875 87.546875 C 22.96875 89.226562 25.488281 89.226562 25.488281 87.546875 "/>
<path style=" stroke:none;fill-rule:evenodd;fill:rgb(45.098039%,45.098039%,87.058824%);fill-opacity:1;" d="M 25.488281 93.328125 C 25.488281 91.648438 22.96875 91.648438 22.96875 93.328125 C 22.96875 95.007812 25.488281 95.007812 25.488281 93.328125 "/>
<path style=" stroke:none;fill-rule:evenodd;fill:rgb(45.098039%,45.098039%,87.058824%);fill-opacity:1;" d="M 30.585938 18.367188 C 30.585938 16.6875 28.066406 16.6875 28.066406 18.367188 C 28.066406 20.046875 30.585938 20.046875 30.585938 18.367188 "/>
<path style=" stroke:none;fill-rule:evenodd;fill:rgb(45.098039%,45.098039%,87.058824%);fill-opacity:1;" d="M 30.585938 24.148438 C 30.585938 22.46875 28.066406 22.46875 28.066406 24.148438 C 28.066406 25.828125 30.585938 25.828125 30.585938 24.148438 "/>
<path style=" stroke:none;fill-rule:evenodd;fill:rgb(45.098039%,45.098039%,87.058824%);fill-opacity:1;" d="M 30.585938 29.929688 C 30.585938 28.25 28.066406 28.25 28.066406 29.929688 C 28.066406 31.609375 30.585938 31.609375 30.585938 29.929688 "/>
<path style=" stroke:none;fill-rule:evenodd;fill:rgb(45.098039%,45.098039%,87.058824%);fill-opacity:1;" d="M 30.585938 35.71875 C 30.585938 34.039062 28.066406 34.039062 28.066406 35.71875 C 28.066406 37.398438 30.585938 37.398438 30.585938 35.71875 "/>
<path style=" stroke:none;fill-rule:evenodd;fill:rgb(45.098039%,45.098039%,87.058824%);fill-opacity:1;" d="M 30.585938 73.085938 C 30.585938 71.40625 28.066406 71.40625 28.066406 73.085938 C 28.066406 74.769531 30.585938 74.769531 30.585938 73.085938 "/>
<path style=" stroke:none;fill-rule:evenodd;fill:rgb(45.098039%,45.098039%,87.058824%);fill-opacity:1;" d="M 30.585938 78.871094 C 30.585938 77.1875 28.066406 77.1875 28.066406 78.871094 C 28.066406 80.550781 30.585938 80.550781 30.585938 78.871094 "/>
<path style=" stroke:none;fill-rule:evenodd;fill:rgb(45.098039%,45.098039%,87.058824%);fill-opacity:1;" d="M 30.585938 84.652344 C 30.585938 82.972656 28.066406 82.972656 28.066406 84.652344 C 28.066406 86.332031 30.585938 86.332031 30.585938 84.652344 "/>
<path style=" stroke:none;fill-rule:evenodd;fill:rgb(45.098039%,45.098039%,87.058824%);fill-opacity:1;" d="M 30.585938 90.441406 C 30.585938 88.757812 28.066406 88.757812 28.066406 90.441406 C 28.066406 92.121094 30.585938 92.121094 30.585938 90.441406 "/>
<path style=" stroke:none;fill-rule:evenodd;fill:rgb(45.098039%,45.098039%,87.058824%);fill-opacity:1;" d="M 46.746094 8.648438 C 46.746094 6.96875 44.222656 6.96875 44.222656 8.648438 C 44.222656 10.328125 46.746094 10.328125 46.746094 8.648438 "/>
<path style=" stroke:none;fill-rule:evenodd;fill:rgb(45.098039%,45.098039%,87.058824%);fill-opacity:1;" d="M 46.746094 15.875 C 46.746094 14.195312 44.222656 14.195312 44.222656 15.875 C 44.222656 17.554688 46.746094 17.554688 46.746094 15.875 "/>
<path style=" stroke:none;fill-rule:evenodd;fill:rgb(45.098039%,45.098039%,87.058824%);fill-opacity:1;" d="M 46.746094 41.105469 C 46.746094 39.425781 44.222656 39.425781 44.222656 41.105469 C 44.222656 42.785156 46.746094 42.785156 46.746094 41.105469 "/>
<path style=" stroke:none;fill-rule:evenodd;fill:rgb(45.098039%,45.098039%,87.058824%);fill-opacity:1;" d="M 46.746094 48.328125 C 46.746094 46.648438 44.222656 46.648438 44.222656 48.328125 C 44.222656 50.007812 46.746094 50.007812 46.746094 48.328125 "/>
<path style=" stroke:none;fill-rule:evenodd;fill:rgb(45.098039%,45.098039%,87.058824%);fill-opacity:1;" d="M 46.746094 63.367188 C 46.746094 61.6875 44.222656 61.6875 44.222656 63.367188 C 44.222656 65.046875 46.746094 65.046875 46.746094 63.367188 "/>
<path style=" stroke:none;fill-rule:evenodd;fill:rgb(45.098039%,45.098039%,87.058824%);fill-opacity:1;" d="M 46.746094 70.597656 C 46.746094 68.917969 44.222656 68.917969 44.222656 70.597656 C 44.222656 72.277344 46.746094 72.277344 46.746094 70.597656 "/>
<path style=" stroke:none;fill-rule:evenodd;fill:rgb(45.098039%,45.098039%,87.058824%);fill-opacity:1;" d="M 46.746094 95.824219 C 46.746094 94.144531 44.222656 94.144531 44.222656 95.824219 C 44.222656 97.503906 46.746094 97.503906 46.746094 95.824219 "/>
<path style=" stroke:none;fill-rule:evenodd;fill:rgb(45.098039%,45.098039%,87.058824%);fill-opacity:1;" d="M 46.746094 103.046875 C 46.746094 101.367188 44.222656 101.367188 44.222656 103.046875 C 44.222656 104.726562 46.746094 104.726562 46.746094 103.046875 "/>
<path style=" stroke:none;fill-rule:evenodd;fill:rgb(45.098039%,45.098039%,87.058824%);fill-opacity:1;" d="M 88.53125 8.648438 C 88.53125 6.96875 86.011719 6.96875 86.011719 8.648438 C 86.011719 10.328125 88.53125 10.328125 88.53125 8.648438 "/>
<path style=" stroke:none;fill-rule:evenodd;fill:rgb(45.098039%,45.098039%,87.058824%);fill-opacity:1;" d="M 88.53125 15.875 C 88.53125 14.195312 86.011719 14.195312 86.011719 15.875 C 86.011719 17.554688 88.53125 17.554688 88.53125 15.875 "/>
<path style=" stroke:none;fill-rule:evenodd;fill:rgb(45.098039%,45.098039%,87.058824%);fill-opacity:1;" d="M 88.53125 41.105469 C 88.53125 39.425781 86.011719 39.425781 86.011719 41.105469 C 86.011719 42.785156 88.53125 42.785156 88.53125 41.105469 "/>
<path style=" stroke:none;fill-rule:evenodd;fill:rgb(45.098039%,45.098039%,87.058824%);fill-opacity:1;" d="M 88.53125 48.328125 C 88.53125 46.648438 86.011719 46.648438 86.011719 48.328125 C 86.011719 50.007812 88.53125 50.007812 88.53125 48.328125 "/>
<path style=" stroke:none;fill-rule:evenodd;fill:rgb(45.098039%,45.098039%,87.058824%);fill-opacity:1;" d="M 88.53125 63.367188 C 88.53125 61.6875 86.011719 61.6875 86.011719 63.367188 C 86.011719 65.046875 88.53125 65.046875 88.53125 63.367188 "/>
<path style=" stroke:none;fill-rule:evenodd;fill:rgb(45.098039%,45.098039%,87.058824%);fill-opacity:1;" d="M 88.53125 70.597656 C 88.53125 68.917969 86.011719 68.917969 86.011719 70.597656 C 86.011719 72.277344 88.53125 72.277344 88.53125 70.597656 "/>
<path style=" stroke:none;fill-rule:evenodd;fill:rgb(45.098039%,45.098039%,87.058824%);fill-opacity:1;" d="M 88.53125 95.824219 C 88.53125 94.144531 86.011719 94.144531 86.011719 95.824219 C 86.011719 97.503906 88.53125 97.503906 88.53125 95.824219 "/>
<path style=" stroke:none;fill-rule:evenodd;fill:rgb(45.098039%,45.098039%,87.058824%);fill-opacity:1;" d="M 88.53125 103.046875 C 88.53125 101.367188 86.011719 101.367188 86.011719 103.046875 C 86.011719 104.726562 88.53125 104.726562 88.53125 103.046875 "/>
<path style=" stroke:none;fill-rule:evenodd;fill:rgb(45.098039%,45.098039%,87.058824%);fill-opacity:1;" d="M 104.691406 21.261719 C 104.691406 19.582031 102.167969 19.582031 102.167969 21.261719 C 102.167969 22.941406 104.691406 22.941406 104.691406 21.261719 "/>
<path style=" stroke:none;fill-rule:evenodd;fill:rgb(45.098039%,45.098039%,87.058824%);fill-opacity:1;" d="M 104.691406 27.042969 C 104.691406 25.363281 102.167969 25.363281 102.167969 27.042969 C 102.167969 28.722656 104.691406 28.722656 104.691406 27.042969 "/>
<path style=" stroke:none;fill-rule:evenodd;fill:rgb(45.098039%,45.098039%,87.058824%);fill-opacity:1;" d="M 104.691406 32.824219 C 104.691406 31.144531 102.167969 31.144531 102.167969 32.824219 C 102.167969 34.503906 104.691406 34.503906 104.691406 32.824219 "/>
<path style=" stroke:none;fill-rule:evenodd;fill:rgb(45.098039%,45.098039%,87.058824%);fill-opacity:1;" d="M 104.691406 38.605469 C 104.691406 36.925781 102.167969 36.925781 102.167969 38.605469 C 102.167969 40.285156 104.691406 40.285156 104.691406 38.605469 "/>
<path style=" stroke:none;fill-rule:evenodd;fill:rgb(45.098039%,45.098039%,87.058824%);fill-opacity:1;" d="M 104.691406 75.980469 C 104.691406 74.300781 102.167969 74.300781 102.167969 75.980469 C 102.167969 77.660156 104.691406 77.660156 104.691406 75.980469 "/>
<path style=" stroke:none;fill-rule:evenodd;fill:rgb(45.098039%,45.098039%,87.058824%);fill-opacity:1;" d="M 104.691406 81.761719 C 104.691406 80.082031 102.167969 80.082031 102.167969 81.761719 C 102.167969 83.445312 104.691406 83.445312 104.691406 81.761719 "/>
<path style=" stroke:none;fill-rule:evenodd;fill:rgb(45.098039%,45.098039%,87.058824%);fill-opacity:1;" d="M 104.691406 87.546875 C 104.691406 85.863281 102.167969 85.863281 102.167969 87.546875 C 102.167969 89.226562 104.691406 89.226562 104.691406 87.546875 "/>
<path style=" stroke:none;fill-rule:evenodd;fill:rgb(45.098039%,45.098039%,87.058824%);fill-opacity:1;" d="M 104.691406 93.328125 C 104.691406 91.648438 102.167969 91.648438 102.167969 93.328125 C 102.167969 95.007812 104.691406 95.007812 104.691406 93.328125 "/>
<path style=" stroke:none;fill-rule:evenodd;fill:rgb(45.098039%,45.098039%,87.058824%);fill-opacity:1;" d="M 109.789062 18.367188 C 109.789062 16.6875 107.265625 16.6875 107.265625 18.367188 C 107.265625 20.046875 109.789062 20.046875 109.789062 18.367188 "/>
<path style=" stroke:none;fill-rule:evenodd;fill:rgb(45.098039%,45.098039%,87.058824%);fill-opacity:1;" d="M 109.789062 24.148438 C 109.789062 22.46875 107.265625 22.46875 107.265625 24.148438 C 107.265625 25.828125 109.789062 25.828125 109.789062 24.148438 "/>
<path style=" stroke:none;fill-rule:evenodd;fill:rgb(45.098039%,45.098039%,87.058824%);fill-opacity:1;" d="M 109.789062 29.929688 C 109.789062 28.25 107.265625 28.25 107.265625 29.929688 C 107.265625 31.609375 109.789062 31.609375 109.789062 29.929688 "/>
<path style=" stroke:none;fill-rule:evenodd;fill:rgb(45.098039%,45.098039%,87.058824%);fill-opacity:1;" d="M 109.789062 35.71875 C 109.789062 34.039062 107.265625 34.039062 107.265625 35.71875 C 107.265625 37.398438 109.789062 37.398438 109.789062 35.71875 "/>
<path style=" stroke:none;fill-rule:evenodd;fill:rgb(45.098039%,45.098039%,87.058824%);fill-opacity:1;" d="M 109.789062 73.085938 C 109.789062 71.40625 107.265625 71.40625 107.265625 73.085938 C 107.265625 74.769531 109.789062 74.769531 109.789062 73.085938 "/>
<path style=" stroke:none;fill-rule:evenodd;fill:rgb(45.098039%,45.098039%,87.058824%);fill-opacity:1;" d="M 109.789062 78.871094 C 109.789062 77.1875 107.265625 77.1875 107.265625 78.871094 C 107.265625 80.550781 109.789062 80.550781 109.789062 78.871094 "/>
<path style=" stroke:none;fill-rule:evenodd;fill:rgb(45.098039%,45.098039%,87.058824%);fill-opacity:1;" d="M 109.789062 84.652344 C 109.789062 82.972656 107.265625 82.972656 107.265625 84.652344 C 107.265625 86.332031 109.789062 86.332031 109.789062 84.652344 "/>
<path style=" stroke:none;fill-rule:evenodd;fill:rgb(45.098039%,45.098039%,87.058824%);fill-opacity:1;" d="M 109.789062 90.441406 C 109.789062 88.757812 107.265625 88.757812 107.265625 90.441406 C 107.265625 92.121094 109.789062 92.121094 109.789062 90.441406 "/>
<path style=" stroke:none;fill-rule:evenodd;fill:rgb(45.098039%,45.098039%,87.058824%);fill-opacity:1;" d="M 42.546875 55.835938 C 42.546875 54.011719 39.8125 54.011719 39.8125 55.835938 C 39.8125 57.660156 42.546875 57.660156 42.546875 55.835938 "/>
<path style=" stroke:none;fill-rule:evenodd;fill:rgb(45.098039%,45.098039%,87.058824%);fill-opacity:1;" d="M 49.746094 55.835938 C 49.746094 54.011719 47.011719 54.011719 47.011719 55.835938 C 47.011719 57.660156 49.746094 57.660156 49.746094 55.835938 "/>
<path style=" stroke:none;fill-rule:evenodd;fill:rgb(45.098039%,45.098039%,87.058824%);fill-opacity:1;" d="M 56.945312 55.835938 C 56.945312 54.011719 54.210938 54.011719 54.210938 55.835938 C 54.210938 57.660156 56.945312 57.660156 56.945312 55.835938 "/>
<path style=" stroke:none;fill-rule:evenodd;fill:rgb(45.098039%,45.098039%,87.058824%);fill-opacity:1;" d="M 64.148438 55.835938 C 64.148438 54.011719 61.410156 54.011719 61.410156 55.835938 C 61.410156 57.660156 64.148438 57.660156 64.148438 55.835938 "/>
<path style=" stroke:none;fill-rule:evenodd;fill:rgb(45.098039%,45.098039%,87.058824%);fill-opacity:1;" d="M 71.347656 55.835938 C 71.347656 54.011719 68.609375 54.011719 68.609375 55.835938 C 68.609375 57.660156 71.347656 57.660156 71.347656 55.835938 "/>
<path style=" stroke:none;fill-rule:evenodd;fill:rgb(45.098039%,45.098039%,87.058824%);fill-opacity:1;" d="M 78.546875 55.835938 C 78.546875 54.011719 75.8125 54.011719 75.8125 55.835938 C 75.8125 57.660156 78.546875 57.660156 78.546875 55.835938 "/>
<path style=" stroke:none;fill-rule:evenodd;fill:rgb(45.098039%,45.098039%,87.058824%);fill-opacity:1;" d="M 85.746094 55.835938 C 85.746094 54.011719 83.011719 54.011719 83.011719 55.835938 C 83.011719 57.660156 85.746094 57.660156 85.746094 55.835938 "/>
<path style=" stroke:none;fill-rule:evenodd;fill:rgb(45.098039%,45.098039%,87.058824%);fill-opacity:1;" d="M 92.945312 55.835938 C 92.945312 54.011719 90.210938 54.011719 90.210938 55.835938 C 90.210938 57.660156 92.945312 57.660156 92.945312 55.835938 "/>
<path style=" stroke:none;fill-rule:evenodd;fill:rgb(45.098039%,45.098039%,87.058824%);fill-opacity:1;" d="M 21.386719 10.347656 C 21.386719 7.898438 17.714844 7.898438 17.714844 10.347656 C 17.714844 12.792969 21.386719 12.792969 21.386719 10.347656 "/>
<path style=" stroke:none;fill-rule:evenodd;fill:rgb(45.098039%,45.098039%,87.058824%);fill-opacity:1;" d="M 21.386719 46.628906 C 21.386719 44.179688 17.714844 44.179688 17.714844 46.628906 C 17.714844 49.074219 21.386719 49.074219 21.386719 46.628906 "/>
<path style=" stroke:none;fill-rule:evenodd;fill:rgb(45.098039%,45.098039%,87.058824%);fill-opacity:1;" d="M 21.386719 65.066406 C 21.386719 62.617188 17.714844 62.617188 17.714844 65.066406 C 17.714844 67.515625 21.386719 67.515625 21.386719 65.066406 "/>
<path style=" stroke:none;fill-rule:evenodd;fill:rgb(45.098039%,45.098039%,87.058824%);fill-opacity:1;" d="M 21.386719 101.347656 C 21.386719 98.898438 17.714844 98.898438 17.714844 101.347656 C 17.714844 103.796875 21.386719 103.796875 21.386719 101.347656 "/>
<path style=" stroke:none;fill-rule:evenodd;fill:rgb(45.098039%,45.098039%,87.058824%);fill-opacity:1;" d="M 115.042969 10.347656 C 115.042969 7.898438 111.371094 7.898438 111.371094 10.347656 C 111.371094 12.792969 115.042969 12.792969 115.042969 10.347656 "/>
<path style=" stroke:none;fill-rule:evenodd;fill:rgb(45.098039%,45.098039%,87.058824%);fill-opacity:1;" d="M 115.042969 46.628906 C 115.042969 44.179688 111.371094 44.179688 111.371094 46.628906 C 111.371094 49.074219 115.042969 49.074219 115.042969 46.628906 "/>
<path style=" stroke:none;fill-rule:evenodd;fill:rgb(45.098039%,45.098039%,87.058824%);fill-opacity:1;" d="M 115.042969 65.066406 C 115.042969 62.617188 111.371094 62.617188 111.371094 65.066406 C 111.371094 67.515625 115.042969 67.515625 115.042969 65.066406 "/>
<path style=" stroke:none;fill-rule:evenodd;fill:rgb(45.098039%,45.098039%,87.058824%);fill-opacity:1;" d="M 115.042969 101.347656 C 115.042969 98.898438 111.371094 98.898438 111.371094 101.347656 C 111.371094 103.796875 115.042969 103.796875 115.042969 101.347656 "/>
<path style=" stroke:none;fill-rule:evenodd;fill:rgb(45.098039%,45.098039%,87.058824%);fill-opacity:1;" d="M 30.164062 9.777344 C 30.164062 5.265625 23.394531 5.265625 23.394531 9.777344 C 23.394531 14.289062 30.164062 14.289062 30.164062 9.777344 "/>
<path style=" stroke:none;fill-rule:evenodd;fill:rgb(45.098039%,45.098039%,87.058824%);fill-opacity:1;" d="M 30.164062 47.195312 C 30.164062 42.683594 23.394531 42.683594 23.394531 47.195312 C 23.394531 51.707031 30.164062 51.707031 30.164062 47.195312 "/>
<path style=" stroke:none;fill-rule:evenodd;fill:rgb(45.098039%,45.098039%,87.058824%);fill-opacity:1;" d="M 30.164062 64.496094 C 30.164062 59.984375 23.394531 59.984375 23.394531 64.496094 C 23.394531 69.011719 30.164062 69.011719 30.164062 64.496094 "/>
<path style=" stroke:none;fill-rule:evenodd;fill:rgb(45.098039%,45.098039%,87.058824%);fill-opacity:1;" d="M 30.164062 101.917969 C 30.164062 97.40625 23.394531 97.40625 23.394531 101.917969 C 23.394531 106.429688 30.164062 106.429688 30.164062 101.917969 "/>
<path style=" stroke:none;fill-rule:evenodd;fill:rgb(45.098039%,45.098039%,87.058824%);fill-opacity:1;" d="M 109.363281 9.777344 C 109.363281 5.265625 102.59375 5.265625 102.59375 9.777344 C 102.59375 14.289062 109.363281 14.289062 109.363281 9.777344 "/>
<path style=" stroke:none;fill-rule:evenodd;fill:rgb(45.098039%,45.098039%,87.058824%);fill-opacity:1;" d="M 109.363281 47.195312 C 109.363281 42.683594 102.59375 42.683594 102.59375 47.195312 C 102.59375 51.707031 109.363281 51.707031 109.363281 47.195312 "/>
<path style=" stroke:none;fill-rule:evenodd;fill:rgb(45.098039%,45.098039%,87.058824%);fill-opacity:1;" d="M 109.363281 64.496094 C 109.363281 59.984375 102.59375 59.984375 102.59375 64.496094 C 102.59375 69.011719 109.363281 69.011719 109.363281 64.496094 "/>
<path style=" stroke:none;fill-rule:evenodd;fill:rgb(45.098039%,45.098039%,87.058824%);fill-opacity:1;" d="M 109.363281 101.917969 C 109.363281 97.40625 102.59375 97.40625 102.59375 101.917969 C 102.59375 106.429688 109.363281 106.429688 109.363281 101.917969 "/>
</g>
</svg>
