G04 This is an RS-274x file exported by *
G04 gerbv version 2.7.0 *
G04 More information is available about gerbv at *
G04 http://gerbv.geda-project.org/ *
G04 --End of header info--*
%MOIN*%
%FSLAX36Y36*%
%IPPOS*%
G04 --Define apertures--*
%ADD10C,0.0060*%
%ADD11C,0.0100*%
%ADD12C,0.0572*%
%ADD13C,0.1162*%
%ADD14C,0.0729*%
%ADD15C,0.0660*%
%ADD16C,0.0001*%
%ADD17C,0.0200*%
%ADD18C,0.0180*%
%ADD19C,0.0350*%
%ADD20C,0.0940*%
%ADD21C,0.0510*%
%ADD22C,0.0380*%
%ADD23C,0.0130*%
G04 --Start main section--*
G54D10*
G01X0491000Y1077000D02*
G01X0499000Y1069000D01*
G01X0456000Y1077000D02*
G01X0491000Y1077000D01*
G01X0449000Y1070000D02*
G01X0456000Y1077000D01*
G01X0457000Y1037000D02*
G01X0450000Y1044000D01*
G01X0457000Y1037000D02*
G01X0492000Y1037000D01*
G01X0499000Y1044000D02*
G01X0492000Y1037000D01*
G01X0491000Y1022000D02*
G01X0499000Y1014000D01*
G01X0456000Y1022000D02*
G01X0491000Y1022000D01*
G01X0449000Y1015000D02*
G01X0456000Y1022000D01*
G01X0457000Y0982000D02*
G01X0450000Y0989000D01*
G01X0457000Y0982000D02*
G01X0492000Y0982000D01*
G01X0499000Y0989000D02*
G01X0492000Y0982000D01*
G01X0491000Y0972000D02*
G01X0499000Y0964000D01*
G01X0456000Y0972000D02*
G01X0491000Y0972000D01*
G01X0449000Y0965000D02*
G01X0456000Y0972000D01*
G01X0457000Y0932000D02*
G01X0450000Y0939000D01*
G01X0457000Y0932000D02*
G01X0492000Y0932000D01*
G01X0499000Y0939000D02*
G01X0492000Y0932000D01*
G01X0491000Y0917000D02*
G01X0499000Y0909000D01*
G01X0456000Y0917000D02*
G01X0491000Y0917000D01*
G01X0449000Y0910000D02*
G01X0456000Y0917000D01*
G01X0457000Y0877000D02*
G01X0450000Y0884000D01*
G01X0457000Y0877000D02*
G01X0492000Y0877000D01*
G01X0499000Y0884000D02*
G01X0492000Y0877000D01*
G01X0491000Y0862000D02*
G01X0499000Y0854000D01*
G01X0456000Y0862000D02*
G01X0491000Y0862000D01*
G01X0449000Y0855000D02*
G01X0456000Y0862000D01*
G01X0457000Y0822000D02*
G01X0450000Y0829000D01*
G01X0457000Y0822000D02*
G01X0492000Y0822000D01*
G01X0499000Y0829000D02*
G01X0492000Y0822000D01*
G01X0491000Y0807000D02*
G01X0499000Y0799000D01*
G01X0456000Y0807000D02*
G01X0491000Y0807000D01*
G01X0449000Y0800000D02*
G01X0456000Y0807000D01*
G01X0457000Y0767000D02*
G01X0450000Y0774000D01*
G01X0457000Y0767000D02*
G01X0492000Y0767000D01*
G01X0499000Y0774000D02*
G01X0492000Y0767000D01*
G01X0491000Y0752000D02*
G01X0499000Y0744000D01*
G01X0456000Y0752000D02*
G01X0491000Y0752000D01*
G01X0449000Y0745000D02*
G01X0456000Y0752000D01*
G01X0457000Y0712000D02*
G01X0450000Y0719000D01*
G01X0457000Y0712000D02*
G01X0492000Y0712000D01*
G01X0499000Y0719000D02*
G01X0492000Y0712000D01*
G01X0491000Y0697000D02*
G01X0499000Y0689000D01*
G01X0456000Y0697000D02*
G01X0491000Y0697000D01*
G01X0449000Y0690000D02*
G01X0456000Y0697000D01*
G01X0457000Y0657000D02*
G01X0450000Y0664000D01*
G01X0457000Y0657000D02*
G01X0492000Y0657000D01*
G01X0499000Y0664000D02*
G01X0492000Y0657000D01*
G54D11*
G01X0680000Y0756000D02*
G01X0680000Y0848000D01*
G01X0680000Y0886000D02*
G01X0680000Y0979000D01*
G01X0562000Y0979000D02*
G01X0680000Y0979000D01*
G01X0562000Y0756000D02*
G01X0562000Y0979000D01*
G01X0562000Y0756000D02*
G01X0680000Y0756000D01*
G01X0680000Y0886000D02*
G75*
G03X0680000Y0848000I0000000J-019000D01*
G54D10*
G01X0491000Y1567000D02*
G01X0499000Y1559000D01*
G01X0456000Y1567000D02*
G01X0491000Y1567000D01*
G01X0449000Y1560000D02*
G01X0456000Y1567000D01*
G01X0457000Y1527000D02*
G01X0450000Y1534000D01*
G01X0457000Y1527000D02*
G01X0492000Y1527000D01*
G01X0499000Y1534000D02*
G01X0492000Y1527000D01*
G01X0491000Y1837000D02*
G01X0499000Y1829000D01*
G01X0456000Y1837000D02*
G01X0491000Y1837000D01*
G01X0449000Y1830000D02*
G01X0456000Y1837000D01*
G01X0457000Y1797000D02*
G01X0450000Y1804000D01*
G01X0457000Y1797000D02*
G01X0492000Y1797000D01*
G01X0499000Y1804000D02*
G01X0492000Y1797000D01*
G01X0491000Y1782000D02*
G01X0499000Y1774000D01*
G01X0456000Y1782000D02*
G01X0491000Y1782000D01*
G01X0449000Y1775000D02*
G01X0456000Y1782000D01*
G01X0457000Y1742000D02*
G01X0450000Y1749000D01*
G01X0457000Y1742000D02*
G01X0492000Y1742000D01*
G01X0499000Y1749000D02*
G01X0492000Y1742000D01*
G01X0491000Y1732000D02*
G01X0499000Y1724000D01*
G01X0456000Y1732000D02*
G01X0491000Y1732000D01*
G01X0449000Y1725000D02*
G01X0456000Y1732000D01*
G01X0457000Y1692000D02*
G01X0450000Y1699000D01*
G01X0457000Y1692000D02*
G01X0492000Y1692000D01*
G01X0499000Y1699000D02*
G01X0492000Y1692000D01*
G01X0491000Y1677000D02*
G01X0499000Y1669000D01*
G01X0456000Y1677000D02*
G01X0491000Y1677000D01*
G01X0449000Y1670000D02*
G01X0456000Y1677000D01*
G01X0457000Y1637000D02*
G01X0450000Y1644000D01*
G01X0457000Y1637000D02*
G01X0492000Y1637000D01*
G01X0499000Y1644000D02*
G01X0492000Y1637000D01*
G01X0491000Y1622000D02*
G01X0499000Y1614000D01*
G01X0456000Y1622000D02*
G01X0491000Y1622000D01*
G01X0449000Y1615000D02*
G01X0456000Y1622000D01*
G01X0457000Y1582000D02*
G01X0450000Y1589000D01*
G01X0457000Y1582000D02*
G01X0492000Y1582000D01*
G01X0499000Y1589000D02*
G01X0492000Y1582000D01*
G01X0491000Y1512000D02*
G01X0499000Y1504000D01*
G01X0456000Y1512000D02*
G01X0491000Y1512000D01*
G01X0449000Y1505000D02*
G01X0456000Y1512000D01*
G01X0457000Y1472000D02*
G01X0450000Y1479000D01*
G01X0457000Y1472000D02*
G01X0492000Y1472000D01*
G01X0499000Y1479000D02*
G01X0492000Y1472000D01*
G54D11*
G01X0680000Y1516000D02*
G01X0680000Y1608000D01*
G01X0680000Y1646000D02*
G01X0680000Y1739000D01*
G01X0562000Y1739000D02*
G01X0680000Y1739000D01*
G01X0562000Y1516000D02*
G01X0562000Y1739000D01*
G01X0562000Y1516000D02*
G01X0680000Y1516000D01*
G01X0680000Y1646000D02*
G75*
G03X0680000Y1608000I0000000J-019000D01*
G54D10*
G01X0491000Y1457000D02*
G01X0499000Y1449000D01*
G01X0456000Y1457000D02*
G01X0491000Y1457000D01*
G01X0449000Y1450000D02*
G01X0456000Y1457000D01*
G01X0457000Y1417000D02*
G01X0450000Y1424000D01*
G01X0457000Y1417000D02*
G01X0492000Y1417000D01*
G01X0499000Y1424000D02*
G01X0492000Y1417000D01*
G01X1309000Y0912690D02*
G01X1301000Y0920690D01*
G01X1309000Y0912690D02*
G01X1344000Y0912690D01*
G01X1351000Y0919690D02*
G01X1344000Y0912690D01*
G01X1343000Y0952690D02*
G01X1350000Y0945690D01*
G01X1308000Y0952690D02*
G01X1343000Y0952690D01*
G01X1301000Y0945690D02*
G01X1308000Y0952690D01*
G01X1309000Y0967690D02*
G01X1301000Y0975690D01*
G01X1309000Y0967690D02*
G01X1344000Y0967690D01*
G01X1351000Y0974690D02*
G01X1344000Y0967690D01*
G01X1343000Y1007690D02*
G01X1350000Y1000690D01*
G01X1308000Y1007690D02*
G01X1343000Y1007690D01*
G01X1301000Y1000690D02*
G01X1308000Y1007690D01*
G01X1309000Y1022690D02*
G01X1301000Y1030690D01*
G01X1309000Y1022690D02*
G01X1344000Y1022690D01*
G01X1351000Y1029690D02*
G01X1344000Y1022690D01*
G01X1343000Y1062690D02*
G01X1350000Y1055690D01*
G01X1308000Y1062690D02*
G01X1343000Y1062690D01*
G01X1301000Y1055690D02*
G01X1308000Y1062690D01*
G01X1309000Y0642690D02*
G01X1301000Y0650690D01*
G01X1309000Y0642690D02*
G01X1344000Y0642690D01*
G01X1351000Y0649690D02*
G01X1344000Y0642690D01*
G01X1343000Y0682690D02*
G01X1350000Y0675690D01*
G01X1308000Y0682690D02*
G01X1343000Y0682690D01*
G01X1301000Y0675690D02*
G01X1308000Y0682690D01*
G01X1309000Y0697690D02*
G01X1301000Y0705690D01*
G01X1309000Y0697690D02*
G01X1344000Y0697690D01*
G01X1351000Y0704690D02*
G01X1344000Y0697690D01*
G01X1343000Y0737690D02*
G01X1350000Y0730690D01*
G01X1308000Y0737690D02*
G01X1343000Y0737690D01*
G01X1301000Y0730690D02*
G01X1308000Y0737690D01*
G01X1309000Y0747690D02*
G01X1301000Y0755690D01*
G01X1309000Y0747690D02*
G01X1344000Y0747690D01*
G01X1351000Y0754690D02*
G01X1344000Y0747690D01*
G01X1343000Y0787690D02*
G01X1350000Y0780690D01*
G01X1308000Y0787690D02*
G01X1343000Y0787690D01*
G01X1301000Y0780690D02*
G01X1308000Y0787690D01*
G01X1309000Y0802690D02*
G01X1301000Y0810690D01*
G01X1309000Y0802690D02*
G01X1344000Y0802690D01*
G01X1351000Y0809690D02*
G01X1344000Y0802690D01*
G01X1343000Y0842690D02*
G01X1350000Y0835690D01*
G01X1308000Y0842690D02*
G01X1343000Y0842690D01*
G01X1301000Y0835690D02*
G01X1308000Y0842690D01*
G01X1309000Y0857690D02*
G01X1301000Y0865690D01*
G01X1309000Y0857690D02*
G01X1344000Y0857690D01*
G01X1351000Y0864690D02*
G01X1344000Y0857690D01*
G01X1343000Y0897690D02*
G01X1350000Y0890690D01*
G01X1308000Y0897690D02*
G01X1343000Y0897690D01*
G01X1301000Y0890690D02*
G01X1308000Y0897690D01*
G54D11*
G01X1120000Y0963690D02*
G01X1120000Y0871690D01*
G01X1120000Y0833690D02*
G01X1120000Y0740690D01*
G01X1120000Y0740690D02*
G01X1238000Y0740690D01*
G01X1238000Y0963690D02*
G01X1238000Y0740690D01*
G01X1120000Y0963690D02*
G01X1238000Y0963690D01*
G01X1120000Y0833690D02*
G75*
G03X1120000Y0871690I0000000J0019000D01*
G54D10*
G01X1309000Y1672690D02*
G01X1301000Y1680690D01*
G01X1309000Y1672690D02*
G01X1344000Y1672690D01*
G01X1351000Y1679690D02*
G01X1344000Y1672690D01*
G01X1343000Y1712690D02*
G01X1350000Y1705690D01*
G01X1308000Y1712690D02*
G01X1343000Y1712690D01*
G01X1301000Y1705690D02*
G01X1308000Y1712690D01*
G01X1309000Y1727690D02*
G01X1301000Y1735690D01*
G01X1309000Y1727690D02*
G01X1344000Y1727690D01*
G01X1351000Y1734690D02*
G01X1344000Y1727690D01*
G01X1343000Y1767690D02*
G01X1350000Y1760690D01*
G01X1308000Y1767690D02*
G01X1343000Y1767690D01*
G01X1301000Y1760690D02*
G01X1308000Y1767690D01*
G01X1309000Y1782690D02*
G01X1301000Y1790690D01*
G01X1309000Y1782690D02*
G01X1344000Y1782690D01*
G01X1351000Y1789690D02*
G01X1344000Y1782690D01*
G01X1343000Y1822690D02*
G01X1350000Y1815690D01*
G01X1308000Y1822690D02*
G01X1343000Y1822690D01*
G01X1301000Y1815690D02*
G01X1308000Y1822690D01*
G01X1309000Y1617690D02*
G01X1301000Y1625690D01*
G01X1309000Y1617690D02*
G01X1344000Y1617690D01*
G01X1351000Y1624690D02*
G01X1344000Y1617690D01*
G01X1343000Y1657690D02*
G01X1350000Y1650690D01*
G01X1308000Y1657690D02*
G01X1343000Y1657690D01*
G01X1301000Y1650690D02*
G01X1308000Y1657690D01*
G54D11*
G01X1120000Y1723690D02*
G01X1120000Y1631690D01*
G01X1120000Y1593690D02*
G01X1120000Y1500690D01*
G01X1120000Y1500690D02*
G01X1238000Y1500690D01*
G01X1238000Y1723690D02*
G01X1238000Y1500690D01*
G01X1120000Y1723690D02*
G01X1238000Y1723690D01*
G01X1120000Y1593690D02*
G75*
G03X1120000Y1631690I0000000J0019000D01*
G54D10*
G01X1309000Y1402690D02*
G01X1301000Y1410690D01*
G01X1309000Y1402690D02*
G01X1344000Y1402690D01*
G01X1351000Y1409690D02*
G01X1344000Y1402690D01*
G01X1343000Y1442690D02*
G01X1350000Y1435690D01*
G01X1308000Y1442690D02*
G01X1343000Y1442690D01*
G01X1301000Y1435690D02*
G01X1308000Y1442690D01*
G01X1309000Y1457690D02*
G01X1301000Y1465690D01*
G01X1309000Y1457690D02*
G01X1344000Y1457690D01*
G01X1351000Y1464690D02*
G01X1344000Y1457690D01*
G01X1343000Y1497690D02*
G01X1350000Y1490690D01*
G01X1308000Y1497690D02*
G01X1343000Y1497690D01*
G01X1301000Y1490690D02*
G01X1308000Y1497690D01*
G01X1309000Y1507690D02*
G01X1301000Y1515690D01*
G01X1309000Y1507690D02*
G01X1344000Y1507690D01*
G01X1351000Y1514690D02*
G01X1344000Y1507690D01*
G01X1343000Y1547690D02*
G01X1350000Y1540690D01*
G01X1308000Y1547690D02*
G01X1343000Y1547690D01*
G01X1301000Y1540690D02*
G01X1308000Y1547690D01*
G01X1309000Y1562690D02*
G01X1301000Y1570690D01*
G01X1309000Y1562690D02*
G01X1344000Y1562690D01*
G01X1351000Y1569690D02*
G01X1344000Y1562690D01*
G01X1343000Y1602690D02*
G01X1350000Y1595690D01*
G01X1308000Y1602690D02*
G01X1343000Y1602690D01*
G01X1301000Y1595690D02*
G01X1308000Y1602690D01*
G01X0000000Y0000000D02*
G01X0025000Y1975000D02*
G01X0025000Y0500000D01*
G01X0025000Y0500000D02*
G01X1775000Y0500000D01*
G01X1775000Y0500000D02*
G01X1775000Y1975000D01*
G01X1775000Y1975000D02*
G01X0025000Y1975000D01*
G01X0000000Y0000000D02*
G54D12*
G01X0609840Y1035040D03*
G01X0609840Y1135430D03*
G54D13*
G01X0350000Y1119690D03*
G01X0350000Y1360000D03*
G54D14*
G01X0249610Y1111810D03*
G01X0249610Y1367870D03*
G54D15*
G01X0850000Y1240000D03*
G01X0950000Y1240000D03*
G01X1050000Y1240000D03*
G01X1150000Y1240000D03*
G54D16*
G36*
G01X0517000Y1273000D02*
G01X0517000Y1207000D01*
G01X0583000Y1207000D01*
G01X0583000Y1273000D01*
G01X0517000Y1273000D01*
G37*
G54D15*
G01X0650000Y1240000D03*
G01X0750000Y1240000D03*
G01X1250000Y1240000D03*
G54D12*
G01X1190160Y1135430D03*
G01X0609840Y0684650D03*
G01X0609840Y0584250D03*
G01X0385430Y1000390D03*
G01X0314570Y0799610D03*
G01X0314570Y0960240D03*
G01X0314570Y0879920D03*
G01X0385430Y0920080D03*
G01X0385430Y0759450D03*
G01X0385430Y0839760D03*
G01X0314570Y0719290D03*
G54D13*
G01X0350000Y0600000D03*
G54D14*
G01X0249610Y0607870D03*
G54D12*
G01X1190160Y0684650D03*
G01X1190160Y0584250D03*
G01X1190160Y1444650D03*
G01X1190160Y1795040D03*
G01X1190160Y1344250D03*
G01X1190160Y1895430D03*
G01X1190160Y1035040D03*
G01X1414570Y0960240D03*
G01X1485430Y1000390D03*
G01X1485430Y0920080D03*
G01X1414570Y0719290D03*
G01X1414570Y0799610D03*
G01X1414570Y0879920D03*
G01X1485430Y0759450D03*
G01X1485430Y0839760D03*
G54D13*
G01X1450000Y0600000D03*
G54D14*
G01X1550390Y0607870D03*
G54D13*
G01X1450000Y1119690D03*
G54D12*
G01X1485430Y1519450D03*
G01X1485430Y1599760D03*
G54D13*
G01X1450000Y1360000D03*
G01X1450000Y1879690D03*
G54D14*
G01X1550390Y1111810D03*
G01X1550390Y1871810D03*
G01X1550390Y1367870D03*
G54D12*
G01X0609840Y1795040D03*
G01X0609840Y1895430D03*
G01X0385430Y1760390D03*
G01X0385430Y1680080D03*
G01X0385430Y1519450D03*
G01X0385430Y1599760D03*
G01X0609840Y1444650D03*
G01X0609840Y1344250D03*
G01X0314570Y1479290D03*
G01X0314570Y1559610D03*
G01X0314570Y1720240D03*
G01X0314570Y1639920D03*
G54D13*
G01X0350000Y1879690D03*
G54D14*
G01X0249610Y1871810D03*
G54D12*
G01X1414570Y1479290D03*
G01X1414570Y1559610D03*
G01X1414570Y1720240D03*
G01X1414570Y1639920D03*
G01X1485430Y1760390D03*
G01X1485430Y1680080D03*
G54D17*
G01X1311000Y0919690D02*
G01X1341000Y0919690D01*
G01X1304000Y0926690D02*
G01X1311000Y0919690D01*
G54D16*
G36*
G01X1289000Y0936690D02*
G01X1289000Y0916690D01*
G01X1314000Y0916690D01*
G01X1314000Y0936690D01*
G01X1289000Y0936690D01*
G37*
G54D17*
G01X1314000Y0919690D02*
G01X1320000Y0925690D01*
G01X1320000Y0925690D02*
G01X1326000Y0919690D01*
G01X1341000Y0919690D02*
G01X1348000Y0926690D01*
G54D16*
G36*
G01X1338000Y0936690D02*
G01X1338000Y0916690D01*
G01X1373000Y0916690D01*
G01X1373000Y0936690D01*
G01X1338000Y0936690D01*
G37*
G54D17*
G01X1332000Y0925690D02*
G01X1338000Y0919690D01*
G01X1326000Y0919690D02*
G01X1332000Y0925690D01*
G01X1304000Y0939690D02*
G01X1310000Y0945690D01*
G54D16*
G36*
G01X1289000Y0949690D02*
G01X1289000Y0929690D01*
G01X1314000Y0929690D01*
G01X1314000Y0949690D01*
G01X1289000Y0949690D01*
G37*
G54D17*
G01X1341000Y0945690D02*
G01X1347000Y0939690D01*
G01X1332000Y0938690D02*
G01X1339000Y0945690D01*
G01X1325000Y0945690D02*
G01X1332000Y0938690D01*
G01X1320000Y0938690D02*
G01X1327000Y0945690D01*
G01X1313000Y0945690D02*
G01X1320000Y0938690D01*
G54D16*
G36*
G01X1337000Y0949690D02*
G01X1337000Y0929690D01*
G01X1373000Y0929690D01*
G01X1373000Y0949690D01*
G01X1337000Y0949690D01*
G37*
G36*
G01X1572760Y0962370D02*
G01X1537240Y0962370D01*
G01X1537240Y0917010D01*
G01X1572760Y0917010D01*
G01X1572760Y0962370D01*
G37*
G36*
G01X1623940Y0962370D02*
G01X1588420Y0962370D01*
G01X1588420Y0917010D01*
G01X1623940Y0917010D01*
G01X1623940Y0962370D01*
G37*
G54D17*
G01X1310000Y0945690D02*
G01X1341000Y0945690D01*
G01X1339000Y0945690D02*
G01X1341000Y0945690D01*
G01X1311000Y0974690D02*
G01X1341000Y0974690D01*
G01X1304000Y0981690D02*
G01X1311000Y0974690D01*
G54D16*
G36*
G01X1289000Y0991690D02*
G01X1289000Y0971690D01*
G01X1314000Y0971690D01*
G01X1314000Y0991690D01*
G01X1289000Y0991690D01*
G37*
G54D17*
G01X1320000Y0980690D02*
G01X1326000Y0974690D01*
G01X1341000Y0974690D02*
G01X1348000Y0981690D01*
G54D16*
G36*
G01X1338000Y0991690D02*
G01X1338000Y0971690D01*
G01X1373000Y0971690D01*
G01X1373000Y0991690D01*
G01X1338000Y0991690D01*
G37*
G54D17*
G01X1332000Y0980690D02*
G01X1338000Y0974690D01*
G01X1326000Y0974690D02*
G01X1332000Y0980690D01*
G01X1314000Y0974690D02*
G01X1320000Y0980690D01*
G01X1310000Y1000690D02*
G01X1341000Y1000690D01*
G01X1339000Y1000690D02*
G01X1341000Y1000690D01*
G01X1304000Y0994690D02*
G01X1310000Y1000690D01*
G54D16*
G36*
G01X1289000Y1004690D02*
G01X1289000Y0984690D01*
G01X1314000Y0984690D01*
G01X1314000Y1004690D01*
G01X1289000Y1004690D01*
G37*
G54D17*
G01X1341000Y1000690D02*
G01X1347000Y0994690D01*
G54D16*
G36*
G01X1337000Y1004690D02*
G01X1337000Y0984690D01*
G01X1373000Y0984690D01*
G01X1373000Y1004690D01*
G01X1337000Y1004690D01*
G37*
G54D17*
G01X1332000Y0993690D02*
G01X1339000Y1000690D01*
G01X1325000Y1000690D02*
G01X1332000Y0993690D01*
G01X1320000Y0993690D02*
G01X1327000Y1000690D01*
G01X1313000Y1000690D02*
G01X1320000Y0993690D01*
G54D16*
G36*
G01X1572760Y1012370D02*
G01X1537240Y1012370D01*
G01X1537240Y0967010D01*
G01X1572760Y0967010D01*
G01X1572760Y1012370D01*
G37*
G36*
G01X1623940Y1012370D02*
G01X1588420Y1012370D01*
G01X1588420Y0967010D01*
G01X1623940Y0967010D01*
G01X1623940Y1012370D01*
G37*
G54D17*
G01X1311000Y1029690D02*
G01X1341000Y1029690D01*
G01X1304000Y1036690D02*
G01X1311000Y1029690D01*
G54D16*
G36*
G01X1289000Y1046690D02*
G01X1289000Y1026690D01*
G01X1314000Y1026690D01*
G01X1314000Y1046690D01*
G01X1289000Y1046690D01*
G37*
G54D17*
G01X1320000Y1035690D02*
G01X1326000Y1029690D01*
G01X1341000Y1029690D02*
G01X1348000Y1036690D01*
G54D16*
G36*
G01X1338000Y1046690D02*
G01X1338000Y1026690D01*
G01X1373000Y1026690D01*
G01X1373000Y1046690D01*
G01X1338000Y1046690D01*
G37*
G54D17*
G01X1332000Y1035690D02*
G01X1338000Y1029690D01*
G01X1326000Y1029690D02*
G01X1332000Y1035690D01*
G01X1314000Y1029690D02*
G01X1320000Y1035690D01*
G01X1310000Y1055690D02*
G01X1341000Y1055690D01*
G01X1304000Y1049690D02*
G01X1310000Y1055690D01*
G54D16*
G36*
G01X1289000Y1059690D02*
G01X1289000Y1039690D01*
G01X1314000Y1039690D01*
G01X1314000Y1059690D01*
G01X1289000Y1059690D01*
G37*
G54D17*
G01X1313000Y1055690D02*
G01X1320000Y1048690D01*
G01X1341000Y1055690D02*
G01X1347000Y1049690D01*
G54D16*
G36*
G01X1337000Y1059690D02*
G01X1337000Y1039690D01*
G01X1373000Y1039690D01*
G01X1373000Y1059690D01*
G01X1337000Y1059690D01*
G37*
G54D17*
G01X1332000Y1048690D02*
G01X1339000Y1055690D01*
G01X1339000Y1055690D02*
G01X1341000Y1055690D01*
G54D16*
G36*
G01X1572760Y1062370D02*
G01X1537240Y1062370D01*
G01X1537240Y1017010D01*
G01X1572760Y1017010D01*
G01X1572760Y1062370D01*
G37*
G36*
G01X1623940Y1062370D02*
G01X1588420Y1062370D01*
G01X1588420Y1017010D01*
G01X1623940Y1017010D01*
G01X1623940Y1062370D01*
G37*
G54D17*
G01X1325000Y1055690D02*
G01X1332000Y1048690D01*
G01X1320000Y1048690D02*
G01X1327000Y1055690D01*
G54D16*
G36*
G01X1107750Y0935560D02*
G01X1107750Y0913820D01*
G01X1129490Y0913820D01*
G01X1129490Y0935560D01*
G01X1107750Y0935560D01*
G37*
G36*
G01X1084130Y0935560D02*
G01X1084130Y0913820D01*
G01X1105870Y0913820D01*
G01X1105870Y0935560D01*
G01X1084130Y0935560D01*
G37*
G54D18*
G01X1139000Y0947690D02*
G01X1139000Y0921690D01*
G54D16*
G36*
G01X1168000Y0956690D02*
G01X1150000Y0956690D01*
G01X1150000Y0912690D01*
G01X1168000Y0912690D01*
G01X1168000Y0956690D01*
G37*
G36*
G01X1188000Y0956690D02*
G01X1170000Y0956690D01*
G01X1170000Y0912690D01*
G01X1188000Y0912690D01*
G01X1188000Y0956690D01*
G37*
G36*
G01X1207000Y0956690D02*
G01X1189000Y0956690D01*
G01X1189000Y0912690D01*
G01X1207000Y0912690D01*
G01X1207000Y0956690D01*
G37*
G36*
G01X1227000Y0956690D02*
G01X1209000Y0956690D01*
G01X1209000Y0912690D01*
G01X1227000Y0912690D01*
G01X1227000Y0956690D01*
G37*
G36*
G01X1224130Y0940560D02*
G01X1224130Y0918820D01*
G01X1245870Y0918820D01*
G01X1245870Y0940560D01*
G01X1224130Y0940560D01*
G37*
G36*
G01X1247750Y0940560D02*
G01X1247750Y0918820D01*
G01X1269490Y0918820D01*
G01X1269490Y0940560D01*
G01X1247750Y0940560D01*
G37*
G54D17*
G01X1311000Y0649690D02*
G01X1341000Y0649690D01*
G01X1304000Y0656690D02*
G01X1311000Y0649690D01*
G54D16*
G36*
G01X1289000Y0666690D02*
G01X1289000Y0646690D01*
G01X1314000Y0646690D01*
G01X1314000Y0666690D01*
G01X1289000Y0666690D01*
G37*
G54D17*
G01X1314000Y0649690D02*
G01X1320000Y0655690D01*
G01X1320000Y0655690D02*
G01X1326000Y0649690D01*
G01X1341000Y0649690D02*
G01X1348000Y0656690D01*
G54D16*
G36*
G01X1338000Y0666690D02*
G01X1338000Y0646690D01*
G01X1373000Y0646690D01*
G01X1373000Y0666690D01*
G01X1338000Y0666690D01*
G37*
G54D17*
G01X1332000Y0655690D02*
G01X1338000Y0649690D01*
G01X1326000Y0649690D02*
G01X1332000Y0655690D01*
G01X1304000Y0669690D02*
G01X1310000Y0675690D01*
G54D16*
G36*
G01X1289000Y0679690D02*
G01X1289000Y0659690D01*
G01X1314000Y0659690D01*
G01X1314000Y0679690D01*
G01X1289000Y0679690D01*
G37*
G54D17*
G01X1341000Y0675690D02*
G01X1347000Y0669690D01*
G01X1332000Y0668690D02*
G01X1339000Y0675690D01*
G01X1325000Y0675690D02*
G01X1332000Y0668690D01*
G01X1320000Y0668690D02*
G01X1327000Y0675690D01*
G01X1313000Y0675690D02*
G01X1320000Y0668690D01*
G54D16*
G36*
G01X1337000Y0679690D02*
G01X1337000Y0659690D01*
G01X1373000Y0659690D01*
G01X1373000Y0679690D01*
G01X1337000Y0679690D01*
G37*
G54D17*
G01X1310000Y0675690D02*
G01X1341000Y0675690D01*
G01X1339000Y0675690D02*
G01X1341000Y0675690D01*
G01X1311000Y0704690D02*
G01X1341000Y0704690D01*
G01X1304000Y0711690D02*
G01X1311000Y0704690D01*
G54D16*
G36*
G01X1289000Y0721690D02*
G01X1289000Y0701690D01*
G01X1314000Y0701690D01*
G01X1314000Y0721690D01*
G01X1289000Y0721690D01*
G37*
G54D17*
G01X1320000Y0710690D02*
G01X1326000Y0704690D01*
G01X1341000Y0704690D02*
G01X1348000Y0711690D01*
G54D16*
G36*
G01X1338000Y0721690D02*
G01X1338000Y0701690D01*
G01X1373000Y0701690D01*
G01X1373000Y0721690D01*
G01X1338000Y0721690D01*
G37*
G54D17*
G01X1332000Y0710690D02*
G01X1338000Y0704690D01*
G01X1326000Y0704690D02*
G01X1332000Y0710690D01*
G01X1314000Y0704690D02*
G01X1320000Y0710690D01*
G54D16*
G36*
G01X1572760Y0712370D02*
G01X1537240Y0712370D01*
G01X1537240Y0667010D01*
G01X1572760Y0667010D01*
G01X1572760Y0712370D01*
G37*
G36*
G01X1623940Y0712370D02*
G01X1588420Y0712370D01*
G01X1588420Y0667010D01*
G01X1623940Y0667010D01*
G01X1623940Y0712370D01*
G37*
G54D17*
G01X1310000Y0730690D02*
G01X1341000Y0730690D01*
G01X1339000Y0730690D02*
G01X1341000Y0730690D01*
G01X1304000Y0724690D02*
G01X1310000Y0730690D01*
G54D16*
G36*
G01X1289000Y0734690D02*
G01X1289000Y0714690D01*
G01X1314000Y0714690D01*
G01X1314000Y0734690D01*
G01X1289000Y0734690D01*
G37*
G54D17*
G01X1341000Y0730690D02*
G01X1347000Y0724690D01*
G54D16*
G36*
G01X1337000Y0734690D02*
G01X1337000Y0714690D01*
G01X1373000Y0714690D01*
G01X1373000Y0734690D01*
G01X1337000Y0734690D01*
G37*
G54D17*
G01X1332000Y0723690D02*
G01X1339000Y0730690D01*
G01X1325000Y0730690D02*
G01X1332000Y0723690D01*
G01X1320000Y0723690D02*
G01X1327000Y0730690D01*
G01X1313000Y0730690D02*
G01X1320000Y0723690D01*
G01X1311000Y0754690D02*
G01X1341000Y0754690D01*
G01X1304000Y0761690D02*
G01X1311000Y0754690D01*
G54D16*
G36*
G01X1289000Y0771690D02*
G01X1289000Y0751690D01*
G01X1314000Y0751690D01*
G01X1314000Y0771690D01*
G01X1289000Y0771690D01*
G37*
G54D17*
G01X1320000Y0760690D02*
G01X1326000Y0754690D01*
G01X1341000Y0754690D02*
G01X1348000Y0761690D01*
G54D16*
G36*
G01X1338000Y0771690D02*
G01X1338000Y0751690D01*
G01X1373000Y0751690D01*
G01X1373000Y0771690D01*
G01X1338000Y0771690D01*
G37*
G54D17*
G01X1332000Y0760690D02*
G01X1338000Y0754690D01*
G01X1326000Y0754690D02*
G01X1332000Y0760690D01*
G01X1314000Y0754690D02*
G01X1320000Y0760690D01*
G01X1310000Y0780690D02*
G01X1341000Y0780690D01*
G01X1304000Y0774690D02*
G01X1310000Y0780690D01*
G54D16*
G36*
G01X1289000Y0784690D02*
G01X1289000Y0764690D01*
G01X1314000Y0764690D01*
G01X1314000Y0784690D01*
G01X1289000Y0784690D01*
G37*
G54D17*
G01X1313000Y0780690D02*
G01X1320000Y0773690D01*
G01X1325000Y0780690D02*
G01X1332000Y0773690D01*
G01X1320000Y0773690D02*
G01X1327000Y0780690D01*
G54D16*
G36*
G01X1228000Y0791690D02*
G01X1210000Y0791690D01*
G01X1210000Y0747690D01*
G01X1228000Y0747690D01*
G01X1228000Y0791690D01*
G37*
G36*
G01X1208000Y0791690D02*
G01X1190000Y0791690D01*
G01X1190000Y0747690D01*
G01X1208000Y0747690D01*
G01X1208000Y0791690D01*
G37*
G36*
G01X1188000Y0791690D02*
G01X1170000Y0791690D01*
G01X1170000Y0747690D01*
G01X1188000Y0747690D01*
G01X1188000Y0791690D01*
G37*
G36*
G01X1169000Y0791690D02*
G01X1151000Y0791690D01*
G01X1151000Y0747690D01*
G01X1169000Y0747690D01*
G01X1169000Y0791690D01*
G37*
G36*
G01X1149000Y0791690D02*
G01X1131000Y0791690D01*
G01X1131000Y0747690D01*
G01X1149000Y0747690D01*
G01X1149000Y0791690D01*
G37*
G54D17*
G01X1341000Y0780690D02*
G01X1347000Y0774690D01*
G54D16*
G36*
G01X1337000Y0784690D02*
G01X1337000Y0764690D01*
G01X1373000Y0764690D01*
G01X1373000Y0784690D01*
G01X1337000Y0784690D01*
G37*
G54D17*
G01X1332000Y0773690D02*
G01X1339000Y0780690D01*
G01X1339000Y0780690D02*
G01X1341000Y0780690D01*
G54D16*
G36*
G01X1572760Y0812370D02*
G01X1537240Y0812370D01*
G01X1537240Y0767010D01*
G01X1572760Y0767010D01*
G01X1572760Y0812370D01*
G37*
G36*
G01X1623940Y0812370D02*
G01X1588420Y0812370D01*
G01X1588420Y0767010D01*
G01X1623940Y0767010D01*
G01X1623940Y0812370D01*
G37*
G36*
G01X1572760Y0762370D02*
G01X1537240Y0762370D01*
G01X1537240Y0717010D01*
G01X1572760Y0717010D01*
G01X1572760Y0762370D01*
G37*
G36*
G01X1623940Y0762370D02*
G01X1588420Y0762370D01*
G01X1588420Y0717010D01*
G01X1623940Y0717010D01*
G01X1623940Y0762370D01*
G37*
G54D17*
G01X1311000Y0809690D02*
G01X1341000Y0809690D01*
G01X1341000Y0809690D02*
G01X1348000Y0816690D01*
G01X1332000Y0815690D02*
G01X1338000Y0809690D01*
G01X1326000Y0809690D02*
G01X1332000Y0815690D01*
G54D16*
G36*
G01X1289000Y0826690D02*
G01X1289000Y0806690D01*
G01X1314000Y0806690D01*
G01X1314000Y0826690D01*
G01X1289000Y0826690D01*
G37*
G54D17*
G01X1304000Y0816690D02*
G01X1311000Y0809690D01*
G01X1314000Y0809690D02*
G01X1320000Y0815690D01*
G01X1320000Y0815690D02*
G01X1326000Y0809690D01*
G01X1310000Y0835690D02*
G01X1341000Y0835690D01*
G01X1304000Y0829690D02*
G01X1310000Y0835690D01*
G54D16*
G36*
G01X1289000Y0839690D02*
G01X1289000Y0819690D01*
G01X1314000Y0819690D01*
G01X1314000Y0839690D01*
G01X1289000Y0839690D01*
G37*
G54D17*
G01X1325000Y0835690D02*
G01X1332000Y0828690D01*
G01X1320000Y0828690D02*
G01X1327000Y0835690D01*
G01X1313000Y0835690D02*
G01X1320000Y0828690D01*
G54D16*
G36*
G01X1338000Y0826690D02*
G01X1338000Y0806690D01*
G01X1373000Y0806690D01*
G01X1373000Y0826690D01*
G01X1338000Y0826690D01*
G37*
G54D17*
G01X1341000Y0835690D02*
G01X1347000Y0829690D01*
G54D16*
G36*
G01X1337000Y0839690D02*
G01X1337000Y0819690D01*
G01X1373000Y0819690D01*
G01X1373000Y0839690D01*
G01X1337000Y0839690D01*
G37*
G54D17*
G01X1332000Y0828690D02*
G01X1339000Y0835690D01*
G01X1339000Y0835690D02*
G01X1341000Y0835690D01*
G54D16*
G36*
G01X1572760Y0862370D02*
G01X1537240Y0862370D01*
G01X1537240Y0817010D01*
G01X1572760Y0817010D01*
G01X1572760Y0862370D01*
G37*
G36*
G01X1623940Y0862370D02*
G01X1588420Y0862370D01*
G01X1588420Y0817010D01*
G01X1623940Y0817010D01*
G01X1623940Y0862370D01*
G37*
G54D17*
G01X1311000Y0864690D02*
G01X1341000Y0864690D01*
G01X1304000Y0884690D02*
G01X1310000Y0890690D01*
G54D16*
G36*
G01X1289000Y0894690D02*
G01X1289000Y0874690D01*
G01X1314000Y0874690D01*
G01X1314000Y0894690D01*
G01X1289000Y0894690D01*
G37*
G54D17*
G01X1325000Y0890690D02*
G01X1332000Y0883690D01*
G01X1320000Y0883690D02*
G01X1327000Y0890690D01*
G01X1313000Y0890690D02*
G01X1320000Y0883690D01*
G01X1304000Y0871690D02*
G01X1311000Y0864690D01*
G54D16*
G36*
G01X1289000Y0881690D02*
G01X1289000Y0861690D01*
G01X1314000Y0861690D01*
G01X1314000Y0881690D01*
G01X1289000Y0881690D01*
G37*
G54D17*
G01X1314000Y0864690D02*
G01X1320000Y0870690D01*
G01X1320000Y0870690D02*
G01X1326000Y0864690D01*
G01X1341000Y0864690D02*
G01X1348000Y0871690D01*
G01X1332000Y0870690D02*
G01X1338000Y0864690D01*
G01X1326000Y0864690D02*
G01X1332000Y0870690D01*
G54D16*
G36*
G01X1338000Y0881690D02*
G01X1338000Y0861690D01*
G01X1373000Y0861690D01*
G01X1373000Y0881690D01*
G01X1338000Y0881690D01*
G37*
G36*
G01X1337000Y0894690D02*
G01X1337000Y0874690D01*
G01X1373000Y0874690D01*
G01X1373000Y0894690D01*
G01X1337000Y0894690D01*
G37*
G54D17*
G01X1310000Y0890690D02*
G01X1341000Y0890690D01*
G01X1341000Y0890690D02*
G01X1347000Y0884690D01*
G01X1332000Y0883690D02*
G01X1339000Y0890690D01*
G01X1339000Y0890690D02*
G01X1341000Y0890690D01*
G54D16*
G36*
G01X1572760Y0912370D02*
G01X1537240Y0912370D01*
G01X1537240Y0867010D01*
G01X1572760Y0867010D01*
G01X1572760Y0912370D01*
G37*
G36*
G01X1623940Y0912370D02*
G01X1588420Y0912370D01*
G01X1588420Y0867010D01*
G01X1623940Y0867010D01*
G01X1623940Y0912370D01*
G37*
G54D17*
G01X1311000Y1679690D02*
G01X1341000Y1679690D01*
G01X1304000Y1686690D02*
G01X1311000Y1679690D01*
G54D16*
G36*
G01X1289000Y1696690D02*
G01X1289000Y1676690D01*
G01X1314000Y1676690D01*
G01X1314000Y1696690D01*
G01X1289000Y1696690D01*
G37*
G54D17*
G01X1314000Y1679690D02*
G01X1320000Y1685690D01*
G01X1320000Y1685690D02*
G01X1326000Y1679690D01*
G01X1341000Y1679690D02*
G01X1348000Y1686690D01*
G54D16*
G36*
G01X1338000Y1696690D02*
G01X1338000Y1676690D01*
G01X1373000Y1676690D01*
G01X1373000Y1696690D01*
G01X1338000Y1696690D01*
G37*
G54D17*
G01X1332000Y1685690D02*
G01X1338000Y1679690D01*
G01X1326000Y1679690D02*
G01X1332000Y1685690D01*
G01X1310000Y1705690D02*
G01X1341000Y1705690D01*
G01X1341000Y1705690D02*
G01X1347000Y1699690D01*
G54D16*
G36*
G01X1337000Y1709690D02*
G01X1337000Y1689690D01*
G01X1373000Y1689690D01*
G01X1373000Y1709690D01*
G01X1337000Y1709690D01*
G37*
G54D17*
G01X1332000Y1698690D02*
G01X1339000Y1705690D01*
G01X1304000Y1699690D02*
G01X1310000Y1705690D01*
G54D16*
G36*
G01X1289000Y1709690D02*
G01X1289000Y1689690D01*
G01X1314000Y1689690D01*
G01X1314000Y1709690D01*
G01X1289000Y1709690D01*
G37*
G54D17*
G01X1339000Y1705690D02*
G01X1341000Y1705690D01*
G01X1325000Y1705690D02*
G01X1332000Y1698690D01*
G01X1320000Y1698690D02*
G01X1327000Y1705690D01*
G01X1313000Y1705690D02*
G01X1320000Y1698690D01*
G01X1311000Y1734690D02*
G01X1341000Y1734690D01*
G01X1304000Y1741690D02*
G01X1311000Y1734690D01*
G54D16*
G36*
G01X1289000Y1751690D02*
G01X1289000Y1731690D01*
G01X1314000Y1731690D01*
G01X1314000Y1751690D01*
G01X1289000Y1751690D01*
G37*
G54D17*
G01X1314000Y1734690D02*
G01X1320000Y1740690D01*
G01X1320000Y1740690D02*
G01X1326000Y1734690D01*
G01X1341000Y1734690D02*
G01X1348000Y1741690D01*
G54D16*
G36*
G01X1338000Y1751690D02*
G01X1338000Y1731690D01*
G01X1373000Y1731690D01*
G01X1373000Y1751690D01*
G01X1338000Y1751690D01*
G37*
G54D17*
G01X1332000Y1740690D02*
G01X1338000Y1734690D01*
G01X1326000Y1734690D02*
G01X1332000Y1740690D01*
G01X1304000Y1754690D02*
G01X1310000Y1760690D01*
G54D16*
G36*
G01X1289000Y1764690D02*
G01X1289000Y1744690D01*
G01X1314000Y1744690D01*
G01X1314000Y1764690D01*
G01X1289000Y1764690D01*
G37*
G54D17*
G01X1341000Y1760690D02*
G01X1347000Y1754690D01*
G01X1332000Y1753690D02*
G01X1339000Y1760690D01*
G01X1325000Y1760690D02*
G01X1332000Y1753690D01*
G01X1320000Y1753690D02*
G01X1327000Y1760690D01*
G01X1313000Y1760690D02*
G01X1320000Y1753690D01*
G54D16*
G36*
G01X1337000Y1764690D02*
G01X1337000Y1744690D01*
G01X1373000Y1744690D01*
G01X1373000Y1764690D01*
G01X1337000Y1764690D01*
G37*
G54D17*
G01X1310000Y1760690D02*
G01X1341000Y1760690D01*
G01X1339000Y1760690D02*
G01X1341000Y1760690D01*
G01X1311000Y1789690D02*
G01X1341000Y1789690D01*
G01X1304000Y1796690D02*
G01X1311000Y1789690D01*
G54D16*
G36*
G01X1289000Y1806690D02*
G01X1289000Y1786690D01*
G01X1314000Y1786690D01*
G01X1314000Y1806690D01*
G01X1289000Y1806690D01*
G37*
G54D17*
G01X1320000Y1795690D02*
G01X1326000Y1789690D01*
G01X1341000Y1789690D02*
G01X1348000Y1796690D01*
G54D16*
G36*
G01X1338000Y1806690D02*
G01X1338000Y1786690D01*
G01X1373000Y1786690D01*
G01X1373000Y1806690D01*
G01X1338000Y1806690D01*
G37*
G54D17*
G01X1332000Y1795690D02*
G01X1338000Y1789690D01*
G01X1326000Y1789690D02*
G01X1332000Y1795690D01*
G01X1314000Y1789690D02*
G01X1320000Y1795690D01*
G01X1310000Y1815690D02*
G01X1341000Y1815690D01*
G01X1339000Y1815690D02*
G01X1341000Y1815690D01*
G01X1304000Y1809690D02*
G01X1310000Y1815690D01*
G54D16*
G36*
G01X1289000Y1819690D02*
G01X1289000Y1799690D01*
G01X1314000Y1799690D01*
G01X1314000Y1819690D01*
G01X1289000Y1819690D01*
G37*
G54D17*
G01X1341000Y1815690D02*
G01X1347000Y1809690D01*
G54D16*
G36*
G01X1337000Y1819690D02*
G01X1337000Y1799690D01*
G01X1373000Y1799690D01*
G01X1373000Y1819690D01*
G01X1337000Y1819690D01*
G37*
G54D17*
G01X1332000Y1808690D02*
G01X1339000Y1815690D01*
G01X1325000Y1815690D02*
G01X1332000Y1808690D01*
G01X1320000Y1808690D02*
G01X1327000Y1815690D01*
G01X1313000Y1815690D02*
G01X1320000Y1808690D01*
G54D16*
G36*
G01X1107750Y1695560D02*
G01X1107750Y1673820D01*
G01X1129490Y1673820D01*
G01X1129490Y1695560D01*
G01X1107750Y1695560D01*
G37*
G36*
G01X1084130Y1695560D02*
G01X1084130Y1673820D01*
G01X1105870Y1673820D01*
G01X1105870Y1695560D01*
G01X1084130Y1695560D01*
G37*
G54D18*
G01X1139000Y1707690D02*
G01X1139000Y1681690D01*
G54D16*
G36*
G01X1168000Y1716690D02*
G01X1150000Y1716690D01*
G01X1150000Y1672690D01*
G01X1168000Y1672690D01*
G01X1168000Y1716690D01*
G37*
G36*
G01X1188000Y1716690D02*
G01X1170000Y1716690D01*
G01X1170000Y1672690D01*
G01X1188000Y1672690D01*
G01X1188000Y1716690D01*
G37*
G36*
G01X1207000Y1716690D02*
G01X1189000Y1716690D01*
G01X1189000Y1672690D01*
G01X1207000Y1672690D01*
G01X1207000Y1716690D01*
G37*
G36*
G01X1227000Y1716690D02*
G01X1209000Y1716690D01*
G01X1209000Y1672690D01*
G01X1227000Y1672690D01*
G01X1227000Y1716690D01*
G37*
G36*
G01X1224130Y1700560D02*
G01X1224130Y1678820D01*
G01X1245870Y1678820D01*
G01X1245870Y1700560D01*
G01X1224130Y1700560D01*
G37*
G36*
G01X1247750Y1700560D02*
G01X1247750Y1678820D01*
G01X1269490Y1678820D01*
G01X1269490Y1700560D01*
G01X1247750Y1700560D01*
G37*
G36*
G01X1572760Y1822370D02*
G01X1537240Y1822370D01*
G01X1537240Y1777010D01*
G01X1572760Y1777010D01*
G01X1572760Y1822370D01*
G37*
G36*
G01X1623940Y1822370D02*
G01X1588420Y1822370D01*
G01X1588420Y1777010D01*
G01X1623940Y1777010D01*
G01X1623940Y1822370D01*
G37*
G36*
G01X1572760Y1722370D02*
G01X1537240Y1722370D01*
G01X1537240Y1677010D01*
G01X1572760Y1677010D01*
G01X1572760Y1722370D01*
G37*
G36*
G01X1623940Y1722370D02*
G01X1588420Y1722370D01*
G01X1588420Y1677010D01*
G01X1623940Y1677010D01*
G01X1623940Y1722370D01*
G37*
G36*
G01X1572760Y1772370D02*
G01X1537240Y1772370D01*
G01X1537240Y1727010D01*
G01X1572760Y1727010D01*
G01X1572760Y1772370D01*
G37*
G36*
G01X1623940Y1772370D02*
G01X1588420Y1772370D01*
G01X1588420Y1727010D01*
G01X1623940Y1727010D01*
G01X1623940Y1772370D01*
G37*
G54D17*
G01X1311000Y1409690D02*
G01X1341000Y1409690D01*
G01X1304000Y1416690D02*
G01X1311000Y1409690D01*
G54D16*
G36*
G01X1289000Y1426690D02*
G01X1289000Y1406690D01*
G01X1314000Y1406690D01*
G01X1314000Y1426690D01*
G01X1289000Y1426690D01*
G37*
G54D17*
G01X1314000Y1409690D02*
G01X1320000Y1415690D01*
G01X1320000Y1415690D02*
G01X1326000Y1409690D01*
G01X1341000Y1409690D02*
G01X1348000Y1416690D01*
G54D16*
G36*
G01X1338000Y1426690D02*
G01X1338000Y1406690D01*
G01X1373000Y1406690D01*
G01X1373000Y1426690D01*
G01X1338000Y1426690D01*
G37*
G54D17*
G01X1332000Y1415690D02*
G01X1338000Y1409690D01*
G01X1326000Y1409690D02*
G01X1332000Y1415690D01*
G01X1304000Y1429690D02*
G01X1310000Y1435690D01*
G54D16*
G36*
G01X1289000Y1439690D02*
G01X1289000Y1419690D01*
G01X1314000Y1419690D01*
G01X1314000Y1439690D01*
G01X1289000Y1439690D01*
G37*
G54D17*
G01X1341000Y1435690D02*
G01X1347000Y1429690D01*
G01X1332000Y1428690D02*
G01X1339000Y1435690D01*
G01X1325000Y1435690D02*
G01X1332000Y1428690D01*
G01X1320000Y1428690D02*
G01X1327000Y1435690D01*
G01X1313000Y1435690D02*
G01X1320000Y1428690D01*
G54D16*
G36*
G01X1337000Y1439690D02*
G01X1337000Y1419690D01*
G01X1373000Y1419690D01*
G01X1373000Y1439690D01*
G01X1337000Y1439690D01*
G37*
G54D17*
G01X1310000Y1435690D02*
G01X1341000Y1435690D01*
G01X1339000Y1435690D02*
G01X1341000Y1435690D01*
G01X1311000Y1464690D02*
G01X1341000Y1464690D01*
G01X1304000Y1471690D02*
G01X1311000Y1464690D01*
G54D16*
G36*
G01X1289000Y1481690D02*
G01X1289000Y1461690D01*
G01X1314000Y1461690D01*
G01X1314000Y1481690D01*
G01X1289000Y1481690D01*
G37*
G54D17*
G01X1320000Y1470690D02*
G01X1326000Y1464690D01*
G01X1341000Y1464690D02*
G01X1348000Y1471690D01*
G54D16*
G36*
G01X1338000Y1481690D02*
G01X1338000Y1461690D01*
G01X1373000Y1461690D01*
G01X1373000Y1481690D01*
G01X1338000Y1481690D01*
G37*
G54D17*
G01X1332000Y1470690D02*
G01X1338000Y1464690D01*
G01X1326000Y1464690D02*
G01X1332000Y1470690D01*
G01X1314000Y1464690D02*
G01X1320000Y1470690D01*
G54D16*
G36*
G01X1572760Y1472370D02*
G01X1537240Y1472370D01*
G01X1537240Y1427010D01*
G01X1572760Y1427010D01*
G01X1572760Y1472370D01*
G37*
G36*
G01X1623940Y1472370D02*
G01X1588420Y1472370D01*
G01X1588420Y1427010D01*
G01X1623940Y1427010D01*
G01X1623940Y1472370D01*
G37*
G54D17*
G01X1310000Y1490690D02*
G01X1341000Y1490690D01*
G01X1339000Y1490690D02*
G01X1341000Y1490690D01*
G01X1304000Y1484690D02*
G01X1310000Y1490690D01*
G54D16*
G36*
G01X1289000Y1494690D02*
G01X1289000Y1474690D01*
G01X1314000Y1474690D01*
G01X1314000Y1494690D01*
G01X1289000Y1494690D01*
G37*
G54D17*
G01X1341000Y1490690D02*
G01X1347000Y1484690D01*
G54D16*
G36*
G01X1337000Y1494690D02*
G01X1337000Y1474690D01*
G01X1373000Y1474690D01*
G01X1373000Y1494690D01*
G01X1337000Y1494690D01*
G37*
G54D17*
G01X1332000Y1483690D02*
G01X1339000Y1490690D01*
G01X1325000Y1490690D02*
G01X1332000Y1483690D01*
G01X1320000Y1483690D02*
G01X1327000Y1490690D01*
G01X1313000Y1490690D02*
G01X1320000Y1483690D01*
G01X1311000Y1514690D02*
G01X1341000Y1514690D01*
G01X1304000Y1521690D02*
G01X1311000Y1514690D01*
G54D16*
G36*
G01X1289000Y1531690D02*
G01X1289000Y1511690D01*
G01X1314000Y1511690D01*
G01X1314000Y1531690D01*
G01X1289000Y1531690D01*
G37*
G54D17*
G01X1320000Y1520690D02*
G01X1326000Y1514690D01*
G01X1341000Y1514690D02*
G01X1348000Y1521690D01*
G54D16*
G36*
G01X1338000Y1531690D02*
G01X1338000Y1511690D01*
G01X1373000Y1511690D01*
G01X1373000Y1531690D01*
G01X1338000Y1531690D01*
G37*
G54D17*
G01X1332000Y1520690D02*
G01X1338000Y1514690D01*
G01X1326000Y1514690D02*
G01X1332000Y1520690D01*
G01X1314000Y1514690D02*
G01X1320000Y1520690D01*
G01X1310000Y1540690D02*
G01X1341000Y1540690D01*
G01X1304000Y1534690D02*
G01X1310000Y1540690D01*
G54D16*
G36*
G01X1289000Y1544690D02*
G01X1289000Y1524690D01*
G01X1314000Y1524690D01*
G01X1314000Y1544690D01*
G01X1289000Y1544690D01*
G37*
G54D17*
G01X1313000Y1540690D02*
G01X1320000Y1533690D01*
G01X1325000Y1540690D02*
G01X1332000Y1533690D01*
G01X1320000Y1533690D02*
G01X1327000Y1540690D01*
G54D16*
G36*
G01X1228000Y1551690D02*
G01X1210000Y1551690D01*
G01X1210000Y1507690D01*
G01X1228000Y1507690D01*
G01X1228000Y1551690D01*
G37*
G36*
G01X1208000Y1551690D02*
G01X1190000Y1551690D01*
G01X1190000Y1507690D01*
G01X1208000Y1507690D01*
G01X1208000Y1551690D01*
G37*
G36*
G01X1188000Y1551690D02*
G01X1170000Y1551690D01*
G01X1170000Y1507690D01*
G01X1188000Y1507690D01*
G01X1188000Y1551690D01*
G37*
G36*
G01X1169000Y1551690D02*
G01X1151000Y1551690D01*
G01X1151000Y1507690D01*
G01X1169000Y1507690D01*
G01X1169000Y1551690D01*
G37*
G36*
G01X1149000Y1551690D02*
G01X1131000Y1551690D01*
G01X1131000Y1507690D01*
G01X1149000Y1507690D01*
G01X1149000Y1551690D01*
G37*
G54D17*
G01X1341000Y1540690D02*
G01X1347000Y1534690D01*
G54D16*
G36*
G01X1337000Y1544690D02*
G01X1337000Y1524690D01*
G01X1373000Y1524690D01*
G01X1373000Y1544690D01*
G01X1337000Y1544690D01*
G37*
G54D17*
G01X1332000Y1533690D02*
G01X1339000Y1540690D01*
G01X1339000Y1540690D02*
G01X1341000Y1540690D01*
G54D16*
G36*
G01X1572760Y1572370D02*
G01X1537240Y1572370D01*
G01X1537240Y1527010D01*
G01X1572760Y1527010D01*
G01X1572760Y1572370D01*
G37*
G36*
G01X1623940Y1572370D02*
G01X1588420Y1572370D01*
G01X1588420Y1527010D01*
G01X1623940Y1527010D01*
G01X1623940Y1572370D01*
G37*
G36*
G01X1572760Y1522370D02*
G01X1537240Y1522370D01*
G01X1537240Y1477010D01*
G01X1572760Y1477010D01*
G01X1572760Y1522370D01*
G37*
G36*
G01X1623940Y1522370D02*
G01X1588420Y1522370D01*
G01X1588420Y1477010D01*
G01X1623940Y1477010D01*
G01X1623940Y1522370D01*
G37*
G54D17*
G01X1311000Y1569690D02*
G01X1341000Y1569690D01*
G01X1341000Y1569690D02*
G01X1348000Y1576690D01*
G01X1332000Y1575690D02*
G01X1338000Y1569690D01*
G01X1326000Y1569690D02*
G01X1332000Y1575690D01*
G54D16*
G36*
G01X1289000Y1586690D02*
G01X1289000Y1566690D01*
G01X1314000Y1566690D01*
G01X1314000Y1586690D01*
G01X1289000Y1586690D01*
G37*
G54D17*
G01X1304000Y1576690D02*
G01X1311000Y1569690D01*
G01X1314000Y1569690D02*
G01X1320000Y1575690D01*
G01X1320000Y1575690D02*
G01X1326000Y1569690D01*
G01X1310000Y1595690D02*
G01X1341000Y1595690D01*
G01X1304000Y1589690D02*
G01X1310000Y1595690D01*
G54D16*
G36*
G01X1289000Y1599690D02*
G01X1289000Y1579690D01*
G01X1314000Y1579690D01*
G01X1314000Y1599690D01*
G01X1289000Y1599690D01*
G37*
G54D17*
G01X1325000Y1595690D02*
G01X1332000Y1588690D01*
G01X1320000Y1588690D02*
G01X1327000Y1595690D01*
G01X1313000Y1595690D02*
G01X1320000Y1588690D01*
G54D16*
G36*
G01X1338000Y1586690D02*
G01X1338000Y1566690D01*
G01X1373000Y1566690D01*
G01X1373000Y1586690D01*
G01X1338000Y1586690D01*
G37*
G54D17*
G01X1341000Y1595690D02*
G01X1347000Y1589690D01*
G54D16*
G36*
G01X1337000Y1599690D02*
G01X1337000Y1579690D01*
G01X1373000Y1579690D01*
G01X1373000Y1599690D01*
G01X1337000Y1599690D01*
G37*
G54D17*
G01X1332000Y1588690D02*
G01X1339000Y1595690D01*
G01X1339000Y1595690D02*
G01X1341000Y1595690D01*
G54D16*
G36*
G01X1572760Y1622370D02*
G01X1537240Y1622370D01*
G01X1537240Y1577010D01*
G01X1572760Y1577010D01*
G01X1572760Y1622370D01*
G37*
G36*
G01X1623940Y1622370D02*
G01X1588420Y1622370D01*
G01X1588420Y1577010D01*
G01X1623940Y1577010D01*
G01X1623940Y1622370D01*
G37*
G54D17*
G01X1311000Y1624690D02*
G01X1341000Y1624690D01*
G01X1304000Y1644690D02*
G01X1310000Y1650690D01*
G54D16*
G36*
G01X1289000Y1654690D02*
G01X1289000Y1634690D01*
G01X1314000Y1634690D01*
G01X1314000Y1654690D01*
G01X1289000Y1654690D01*
G37*
G54D17*
G01X1325000Y1650690D02*
G01X1332000Y1643690D01*
G01X1320000Y1643690D02*
G01X1327000Y1650690D01*
G01X1313000Y1650690D02*
G01X1320000Y1643690D01*
G01X1304000Y1631690D02*
G01X1311000Y1624690D01*
G54D16*
G36*
G01X1289000Y1641690D02*
G01X1289000Y1621690D01*
G01X1314000Y1621690D01*
G01X1314000Y1641690D01*
G01X1289000Y1641690D01*
G37*
G54D17*
G01X1314000Y1624690D02*
G01X1320000Y1630690D01*
G01X1320000Y1630690D02*
G01X1326000Y1624690D01*
G01X1341000Y1624690D02*
G01X1348000Y1631690D01*
G01X1332000Y1630690D02*
G01X1338000Y1624690D01*
G01X1326000Y1624690D02*
G01X1332000Y1630690D01*
G54D16*
G36*
G01X1338000Y1641690D02*
G01X1338000Y1621690D01*
G01X1373000Y1621690D01*
G01X1373000Y1641690D01*
G01X1338000Y1641690D01*
G37*
G36*
G01X1337000Y1654690D02*
G01X1337000Y1634690D01*
G01X1373000Y1634690D01*
G01X1373000Y1654690D01*
G01X1337000Y1654690D01*
G37*
G54D17*
G01X1310000Y1650690D02*
G01X1341000Y1650690D01*
G01X1341000Y1650690D02*
G01X1347000Y1644690D01*
G01X1332000Y1643690D02*
G01X1339000Y1650690D01*
G01X1339000Y1650690D02*
G01X1341000Y1650690D01*
G54D16*
G36*
G01X1572760Y1672370D02*
G01X1537240Y1672370D01*
G01X1537240Y1627010D01*
G01X1572760Y1627010D01*
G01X1572760Y1672370D01*
G37*
G36*
G01X1623940Y1672370D02*
G01X1588420Y1672370D01*
G01X1588420Y1627010D01*
G01X1623940Y1627010D01*
G01X1623940Y1672370D01*
G37*
G54D17*
G01X0459000Y1070000D02*
G01X0489000Y1070000D01*
G01X0490000Y1044000D02*
G01X0496000Y1050000D01*
G54D16*
G36*
G01X0486000Y1060000D02*
G01X0486000Y1040000D01*
G01X0511000Y1040000D01*
G01X0511000Y1060000D01*
G01X0486000Y1060000D01*
G37*
G54D17*
G01X0468000Y1051000D02*
G01X0475000Y1044000D01*
G01X0473000Y1044000D02*
G01X0480000Y1051000D01*
G01X0480000Y1051000D02*
G01X0487000Y1044000D01*
G01X0489000Y1070000D02*
G01X0496000Y1063000D01*
G54D16*
G36*
G01X0486000Y1073000D02*
G01X0486000Y1053000D01*
G01X0511000Y1053000D01*
G01X0511000Y1073000D01*
G01X0486000Y1073000D01*
G37*
G54D17*
G01X0480000Y1064000D02*
G01X0486000Y1070000D01*
G01X0474000Y1070000D02*
G01X0480000Y1064000D01*
G01X0452000Y1063000D02*
G01X0459000Y1070000D01*
G01X0462000Y1070000D02*
G01X0468000Y1064000D01*
G01X0468000Y1064000D02*
G01X0474000Y1070000D01*
G01X0459000Y1044000D02*
G01X0490000Y1044000D01*
G01X0453000Y1050000D02*
G01X0459000Y1044000D01*
G01X0461000Y1044000D02*
G01X0468000Y1051000D01*
G01X0459000Y1044000D02*
G01X0461000Y1044000D01*
G54D16*
G36*
G01X0427000Y1073000D02*
G01X0427000Y1053000D01*
G01X0462000Y1053000D01*
G01X0462000Y1073000D01*
G01X0427000Y1073000D01*
G37*
G36*
G01X0427000Y1060000D02*
G01X0427000Y1040000D01*
G01X0463000Y1040000D01*
G01X0463000Y1060000D01*
G01X0427000Y1060000D01*
G37*
G54D17*
G01X0452000Y1008000D02*
G01X0459000Y1015000D01*
G54D16*
G36*
G01X0427000Y1018000D02*
G01X0427000Y0998000D01*
G01X0462000Y0998000D01*
G01X0462000Y1018000D01*
G01X0427000Y1018000D01*
G37*
G54D17*
G01X0462000Y1015000D02*
G01X0468000Y1009000D01*
G01X0468000Y1009000D02*
G01X0474000Y1015000D01*
G54D16*
G36*
G01X0262760Y1052680D02*
G01X0227240Y1052680D01*
G01X0227240Y1007320D01*
G01X0262760Y1007320D01*
G01X0262760Y1052680D01*
G37*
G36*
G01X0211580Y1052680D02*
G01X0176060Y1052680D01*
G01X0176060Y1007320D01*
G01X0211580Y1007320D01*
G01X0211580Y1052680D01*
G37*
G54D17*
G01X0459000Y1015000D02*
G01X0489000Y1015000D01*
G01X0489000Y1015000D02*
G01X0496000Y1008000D01*
G54D16*
G36*
G01X0486000Y1018000D02*
G01X0486000Y0998000D01*
G01X0511000Y0998000D01*
G01X0511000Y1018000D01*
G01X0486000Y1018000D01*
G37*
G54D17*
G01X0480000Y1009000D02*
G01X0486000Y1015000D01*
G01X0474000Y1015000D02*
G01X0480000Y1009000D01*
G01X0459000Y0989000D02*
G01X0490000Y0989000D01*
G01X0459000Y0989000D02*
G01X0461000Y0989000D01*
G01X0490000Y0989000D02*
G01X0496000Y0995000D01*
G54D16*
G36*
G01X0486000Y1005000D02*
G01X0486000Y0985000D01*
G01X0511000Y0985000D01*
G01X0511000Y1005000D01*
G01X0486000Y1005000D01*
G37*
G54D17*
G01X0453000Y0995000D02*
G01X0459000Y0989000D01*
G54D16*
G36*
G01X0427000Y1005000D02*
G01X0427000Y0985000D01*
G01X0463000Y0985000D01*
G01X0463000Y1005000D01*
G01X0427000Y1005000D01*
G37*
G54D17*
G01X0461000Y0989000D02*
G01X0468000Y0996000D01*
G01X0468000Y0996000D02*
G01X0475000Y0989000D01*
G01X0473000Y0989000D02*
G01X0480000Y0996000D01*
G01X0480000Y0996000D02*
G01X0487000Y0989000D01*
G01X0459000Y0774000D02*
G01X0490000Y0774000D01*
G01X0459000Y0774000D02*
G01X0461000Y0774000D01*
G01X0490000Y0774000D02*
G01X0496000Y0780000D01*
G54D16*
G36*
G01X0486000Y0790000D02*
G01X0486000Y0770000D01*
G01X0511000Y0770000D01*
G01X0511000Y0790000D01*
G01X0486000Y0790000D01*
G37*
G54D17*
G01X0452000Y0793000D02*
G01X0459000Y0800000D01*
G54D16*
G36*
G01X0427000Y0803000D02*
G01X0427000Y0783000D01*
G01X0462000Y0783000D01*
G01X0462000Y0803000D01*
G01X0427000Y0803000D01*
G37*
G54D17*
G01X0462000Y0800000D02*
G01X0468000Y0794000D01*
G01X0468000Y0794000D02*
G01X0474000Y0800000D01*
G01X0459000Y0800000D02*
G01X0489000Y0800000D01*
G01X0489000Y0800000D02*
G01X0496000Y0793000D01*
G54D16*
G36*
G01X0486000Y0803000D02*
G01X0486000Y0783000D01*
G01X0511000Y0783000D01*
G01X0511000Y0803000D01*
G01X0486000Y0803000D01*
G37*
G54D17*
G01X0480000Y0794000D02*
G01X0486000Y0800000D01*
G01X0474000Y0800000D02*
G01X0480000Y0794000D01*
G01X0453000Y0780000D02*
G01X0459000Y0774000D01*
G01X0461000Y0774000D02*
G01X0468000Y0781000D01*
G01X0468000Y0781000D02*
G01X0475000Y0774000D01*
G01X0473000Y0774000D02*
G01X0480000Y0781000D01*
G01X0480000Y0781000D02*
G01X0487000Y0774000D01*
G54D16*
G36*
G01X0427000Y0790000D02*
G01X0427000Y0770000D01*
G01X0463000Y0770000D01*
G01X0463000Y0790000D01*
G01X0427000Y0790000D01*
G37*
G36*
G01X0262760Y0802680D02*
G01X0227240Y0802680D01*
G01X0227240Y0757320D01*
G01X0262760Y0757320D01*
G01X0262760Y0802680D01*
G37*
G36*
G01X0211580Y0802680D02*
G01X0176060Y0802680D01*
G01X0176060Y0757320D01*
G01X0211580Y0757320D01*
G01X0211580Y0802680D01*
G37*
G54D17*
G01X0459000Y0745000D02*
G01X0489000Y0745000D01*
G01X0489000Y0745000D02*
G01X0496000Y0738000D01*
G54D16*
G36*
G01X0486000Y0748000D02*
G01X0486000Y0728000D01*
G01X0511000Y0728000D01*
G01X0511000Y0748000D01*
G01X0486000Y0748000D01*
G37*
G54D17*
G01X0474000Y0745000D02*
G01X0480000Y0739000D01*
G01X0452000Y0738000D02*
G01X0459000Y0745000D01*
G54D16*
G36*
G01X0427000Y0748000D02*
G01X0427000Y0728000D01*
G01X0462000Y0728000D01*
G01X0462000Y0748000D01*
G01X0427000Y0748000D01*
G37*
G54D17*
G01X0462000Y0745000D02*
G01X0468000Y0739000D01*
G01X0468000Y0739000D02*
G01X0474000Y0745000D01*
G01X0480000Y0739000D02*
G01X0486000Y0745000D01*
G01X0490000Y0719000D02*
G01X0496000Y0725000D01*
G54D16*
G36*
G01X0486000Y0735000D02*
G01X0486000Y0715000D01*
G01X0511000Y0715000D01*
G01X0511000Y0735000D01*
G01X0486000Y0735000D01*
G37*
G54D17*
G01X0459000Y0719000D02*
G01X0490000Y0719000D01*
G01X0468000Y0726000D02*
G01X0475000Y0719000D01*
G01X0473000Y0719000D02*
G01X0480000Y0726000D01*
G01X0480000Y0726000D02*
G01X0487000Y0719000D01*
G01X0453000Y0725000D02*
G01X0459000Y0719000D01*
G54D16*
G36*
G01X0427000Y0735000D02*
G01X0427000Y0715000D01*
G01X0463000Y0715000D01*
G01X0463000Y0735000D01*
G01X0427000Y0735000D01*
G37*
G54D17*
G01X0461000Y0719000D02*
G01X0468000Y0726000D01*
G01X0459000Y0719000D02*
G01X0461000Y0719000D01*
G54D16*
G36*
G01X0262760Y0752680D02*
G01X0227240Y0752680D01*
G01X0227240Y0707320D01*
G01X0262760Y0707320D01*
G01X0262760Y0752680D01*
G37*
G36*
G01X0211580Y0752680D02*
G01X0176060Y0752680D01*
G01X0176060Y0707320D01*
G01X0211580Y0707320D01*
G01X0211580Y0752680D01*
G37*
G54D17*
G01X0459000Y0690000D02*
G01X0489000Y0690000D01*
G01X0489000Y0690000D02*
G01X0496000Y0683000D01*
G54D16*
G36*
G01X0486000Y0693000D02*
G01X0486000Y0673000D01*
G01X0511000Y0673000D01*
G01X0511000Y0693000D01*
G01X0486000Y0693000D01*
G37*
G54D17*
G01X0480000Y0684000D02*
G01X0486000Y0690000D01*
G01X0474000Y0690000D02*
G01X0480000Y0684000D01*
G01X0452000Y0683000D02*
G01X0459000Y0690000D01*
G54D16*
G36*
G01X0427000Y0693000D02*
G01X0427000Y0673000D01*
G01X0462000Y0673000D01*
G01X0462000Y0693000D01*
G01X0427000Y0693000D01*
G37*
G54D17*
G01X0462000Y0690000D02*
G01X0468000Y0684000D01*
G01X0468000Y0684000D02*
G01X0474000Y0690000D01*
G54D16*
G36*
G01X0262760Y0702680D02*
G01X0227240Y0702680D01*
G01X0227240Y0657320D01*
G01X0262760Y0657320D01*
G01X0262760Y0702680D01*
G37*
G36*
G01X0211580Y0702680D02*
G01X0176060Y0702680D01*
G01X0176060Y0657320D01*
G01X0211580Y0657320D01*
G01X0211580Y0702680D01*
G37*
G54D17*
G01X0459000Y0664000D02*
G01X0490000Y0664000D01*
G01X0459000Y0664000D02*
G01X0461000Y0664000D01*
G01X0490000Y0664000D02*
G01X0496000Y0670000D01*
G54D16*
G36*
G01X0486000Y0680000D02*
G01X0486000Y0660000D01*
G01X0511000Y0660000D01*
G01X0511000Y0680000D01*
G01X0486000Y0680000D01*
G37*
G54D17*
G01X0453000Y0670000D02*
G01X0459000Y0664000D01*
G54D16*
G36*
G01X0427000Y0680000D02*
G01X0427000Y0660000D01*
G01X0463000Y0660000D01*
G01X0463000Y0680000D01*
G01X0427000Y0680000D01*
G37*
G54D17*
G01X0461000Y0664000D02*
G01X0468000Y0671000D01*
G01X0468000Y0671000D02*
G01X0475000Y0664000D01*
G01X0473000Y0664000D02*
G01X0480000Y0671000D01*
G01X0480000Y0671000D02*
G01X0487000Y0664000D01*
G54D16*
G36*
G01X0670510Y0805870D02*
G01X0670510Y0784130D01*
G01X0692250Y0784130D01*
G01X0692250Y0805870D01*
G01X0670510Y0805870D01*
G37*
G54D18*
G01X0661000Y0798000D02*
G01X0661000Y0772000D01*
G54D16*
G36*
G01X0650000Y0807000D02*
G01X0632000Y0807000D01*
G01X0632000Y0763000D01*
G01X0650000Y0763000D01*
G01X0650000Y0807000D01*
G37*
G36*
G01X0694130Y0805870D02*
G01X0694130Y0784130D01*
G01X0715870Y0784130D01*
G01X0715870Y0805870D01*
G01X0694130Y0805870D01*
G37*
G36*
G01X0630000Y0807000D02*
G01X0612000Y0807000D01*
G01X0612000Y0763000D01*
G01X0630000Y0763000D01*
G01X0630000Y0807000D01*
G37*
G36*
G01X0611000Y0807000D02*
G01X0593000Y0807000D01*
G01X0593000Y0763000D01*
G01X0611000Y0763000D01*
G01X0611000Y0807000D01*
G37*
G36*
G01X0591000Y0807000D02*
G01X0573000Y0807000D01*
G01X0573000Y0763000D01*
G01X0591000Y0763000D01*
G01X0591000Y0807000D01*
G37*
G36*
G01X0554130Y0800870D02*
G01X0554130Y0779130D01*
G01X0575870Y0779130D01*
G01X0575870Y0800870D01*
G01X0554130Y0800870D01*
G37*
G36*
G01X0530510Y0800870D02*
G01X0530510Y0779130D01*
G01X0552250Y0779130D01*
G01X0552250Y0800870D01*
G01X0530510Y0800870D01*
G37*
G54D17*
G01X0459000Y0965000D02*
G01X0489000Y0965000D01*
G01X0489000Y0965000D02*
G01X0496000Y0958000D01*
G54D16*
G36*
G01X0486000Y0968000D02*
G01X0486000Y0948000D01*
G01X0511000Y0948000D01*
G01X0511000Y0968000D01*
G01X0486000Y0968000D01*
G37*
G54D17*
G01X0474000Y0965000D02*
G01X0480000Y0959000D01*
G01X0452000Y0958000D02*
G01X0459000Y0965000D01*
G54D16*
G36*
G01X0427000Y0968000D02*
G01X0427000Y0948000D01*
G01X0462000Y0948000D01*
G01X0462000Y0968000D01*
G01X0427000Y0968000D01*
G37*
G54D17*
G01X0462000Y0965000D02*
G01X0468000Y0959000D01*
G01X0468000Y0959000D02*
G01X0474000Y0965000D01*
G01X0480000Y0959000D02*
G01X0486000Y0965000D01*
G54D16*
G36*
G01X0590000Y0972000D02*
G01X0572000Y0972000D01*
G01X0572000Y0928000D01*
G01X0590000Y0928000D01*
G01X0590000Y0972000D01*
G37*
G36*
G01X0610000Y0972000D02*
G01X0592000Y0972000D01*
G01X0592000Y0928000D01*
G01X0610000Y0928000D01*
G01X0610000Y0972000D01*
G37*
G36*
G01X0630000Y0972000D02*
G01X0612000Y0972000D01*
G01X0612000Y0928000D01*
G01X0630000Y0928000D01*
G01X0630000Y0972000D01*
G37*
G36*
G01X0649000Y0972000D02*
G01X0631000Y0972000D01*
G01X0631000Y0928000D01*
G01X0649000Y0928000D01*
G01X0649000Y0972000D01*
G37*
G36*
G01X0669000Y0972000D02*
G01X0651000Y0972000D01*
G01X0651000Y0928000D01*
G01X0669000Y0928000D01*
G01X0669000Y0972000D01*
G37*
G54D17*
G01X0459000Y0939000D02*
G01X0490000Y0939000D01*
G01X0453000Y0945000D02*
G01X0459000Y0939000D01*
G01X0459000Y0939000D02*
G01X0461000Y0939000D01*
G01X0468000Y0946000D02*
G01X0475000Y0939000D01*
G01X0473000Y0939000D02*
G01X0480000Y0946000D01*
G54D16*
G36*
G01X0427000Y0955000D02*
G01X0427000Y0935000D01*
G01X0463000Y0935000D01*
G01X0463000Y0955000D01*
G01X0427000Y0955000D01*
G37*
G36*
G01X0486000Y0955000D02*
G01X0486000Y0935000D01*
G01X0511000Y0935000D01*
G01X0511000Y0955000D01*
G01X0486000Y0955000D01*
G37*
G54D17*
G01X0461000Y0939000D02*
G01X0468000Y0946000D01*
G01X0490000Y0939000D02*
G01X0496000Y0945000D01*
G01X0480000Y0946000D02*
G01X0487000Y0939000D01*
G54D16*
G36*
G01X0262760Y0952680D02*
G01X0227240Y0952680D01*
G01X0227240Y0907320D01*
G01X0262760Y0907320D01*
G01X0262760Y0952680D01*
G37*
G36*
G01X0211580Y0952680D02*
G01X0176060Y0952680D01*
G01X0176060Y0907320D01*
G01X0211580Y0907320D01*
G01X0211580Y0952680D01*
G37*
G36*
G01X0262760Y1002680D02*
G01X0227240Y1002680D01*
G01X0227240Y0957320D01*
G01X0262760Y0957320D01*
G01X0262760Y1002680D01*
G37*
G36*
G01X0211580Y1002680D02*
G01X0176060Y1002680D01*
G01X0176060Y0957320D01*
G01X0211580Y0957320D01*
G01X0211580Y1002680D01*
G37*
G54D17*
G01X0459000Y0910000D02*
G01X0489000Y0910000D01*
G01X0489000Y0910000D02*
G01X0496000Y0903000D01*
G54D16*
G36*
G01X0486000Y0913000D02*
G01X0486000Y0893000D01*
G01X0511000Y0893000D01*
G01X0511000Y0913000D01*
G01X0486000Y0913000D01*
G37*
G54D17*
G01X0480000Y0904000D02*
G01X0486000Y0910000D01*
G01X0474000Y0910000D02*
G01X0480000Y0904000D01*
G01X0452000Y0903000D02*
G01X0459000Y0910000D01*
G54D16*
G36*
G01X0427000Y0913000D02*
G01X0427000Y0893000D01*
G01X0462000Y0893000D01*
G01X0462000Y0913000D01*
G01X0427000Y0913000D01*
G37*
G54D17*
G01X0462000Y0910000D02*
G01X0468000Y0904000D01*
G01X0468000Y0904000D02*
G01X0474000Y0910000D01*
G01X0490000Y0884000D02*
G01X0496000Y0890000D01*
G54D16*
G36*
G01X0486000Y0900000D02*
G01X0486000Y0880000D01*
G01X0511000Y0880000D01*
G01X0511000Y0900000D01*
G01X0486000Y0900000D01*
G37*
G54D17*
G01X0453000Y0890000D02*
G01X0459000Y0884000D01*
G01X0461000Y0884000D02*
G01X0468000Y0891000D01*
G01X0468000Y0891000D02*
G01X0475000Y0884000D01*
G01X0473000Y0884000D02*
G01X0480000Y0891000D01*
G01X0480000Y0891000D02*
G01X0487000Y0884000D01*
G54D16*
G36*
G01X0427000Y0900000D02*
G01X0427000Y0880000D01*
G01X0463000Y0880000D01*
G01X0463000Y0900000D01*
G01X0427000Y0900000D01*
G37*
G36*
G01X0262760Y0902680D02*
G01X0227240Y0902680D01*
G01X0227240Y0857320D01*
G01X0262760Y0857320D01*
G01X0262760Y0902680D01*
G37*
G36*
G01X0211580Y0902680D02*
G01X0176060Y0902680D01*
G01X0176060Y0857320D01*
G01X0211580Y0857320D01*
G01X0211580Y0902680D01*
G37*
G36*
G01X0262760Y0852680D02*
G01X0227240Y0852680D01*
G01X0227240Y0807320D01*
G01X0262760Y0807320D01*
G01X0262760Y0852680D01*
G37*
G36*
G01X0211580Y0852680D02*
G01X0176060Y0852680D01*
G01X0176060Y0807320D01*
G01X0211580Y0807320D01*
G01X0211580Y0852680D01*
G37*
G54D17*
G01X0459000Y0884000D02*
G01X0490000Y0884000D01*
G01X0459000Y0884000D02*
G01X0461000Y0884000D01*
G01X0459000Y0855000D02*
G01X0489000Y0855000D01*
G01X0489000Y0855000D02*
G01X0496000Y0848000D01*
G54D16*
G36*
G01X0486000Y0858000D02*
G01X0486000Y0838000D01*
G01X0511000Y0838000D01*
G01X0511000Y0858000D01*
G01X0486000Y0858000D01*
G37*
G54D17*
G01X0474000Y0855000D02*
G01X0480000Y0849000D01*
G01X0452000Y0848000D02*
G01X0459000Y0855000D01*
G54D16*
G36*
G01X0427000Y0858000D02*
G01X0427000Y0838000D01*
G01X0462000Y0838000D01*
G01X0462000Y0858000D01*
G01X0427000Y0858000D01*
G37*
G54D17*
G01X0462000Y0855000D02*
G01X0468000Y0849000D01*
G01X0468000Y0849000D02*
G01X0474000Y0855000D01*
G01X0480000Y0849000D02*
G01X0486000Y0855000D01*
G01X0459000Y0829000D02*
G01X0490000Y0829000D01*
G01X0459000Y0829000D02*
G01X0461000Y0829000D01*
G01X0490000Y0829000D02*
G01X0496000Y0835000D01*
G54D16*
G36*
G01X0486000Y0845000D02*
G01X0486000Y0825000D01*
G01X0511000Y0825000D01*
G01X0511000Y0845000D01*
G01X0486000Y0845000D01*
G37*
G54D17*
G01X0453000Y0835000D02*
G01X0459000Y0829000D01*
G54D16*
G36*
G01X0427000Y0845000D02*
G01X0427000Y0825000D01*
G01X0463000Y0825000D01*
G01X0463000Y0845000D01*
G01X0427000Y0845000D01*
G37*
G54D17*
G01X0461000Y0829000D02*
G01X0468000Y0836000D01*
G01X0468000Y0836000D02*
G01X0475000Y0829000D01*
G01X0473000Y0829000D02*
G01X0480000Y0836000D01*
G01X0480000Y0836000D02*
G01X0487000Y0829000D01*
G01X0452000Y1553000D02*
G01X0459000Y1560000D01*
G54D16*
G36*
G01X0427000Y1563000D02*
G01X0427000Y1543000D01*
G01X0462000Y1543000D01*
G01X0462000Y1563000D01*
G01X0427000Y1563000D01*
G37*
G54D17*
G01X0489000Y1560000D02*
G01X0496000Y1553000D01*
G54D16*
G36*
G01X0486000Y1563000D02*
G01X0486000Y1543000D01*
G01X0511000Y1543000D01*
G01X0511000Y1563000D01*
G01X0486000Y1563000D01*
G37*
G54D17*
G01X0459000Y1560000D02*
G01X0489000Y1560000D01*
G01X0462000Y1560000D02*
G01X0468000Y1554000D01*
G01X0468000Y1554000D02*
G01X0474000Y1560000D01*
G01X0480000Y1554000D02*
G01X0486000Y1560000D01*
G01X0474000Y1560000D02*
G01X0480000Y1554000D01*
G01X0453000Y1540000D02*
G01X0459000Y1534000D01*
G54D16*
G36*
G01X0427000Y1550000D02*
G01X0427000Y1530000D01*
G01X0463000Y1530000D01*
G01X0463000Y1550000D01*
G01X0427000Y1550000D01*
G37*
G54D17*
G01X0461000Y1534000D02*
G01X0468000Y1541000D01*
G01X0468000Y1541000D02*
G01X0475000Y1534000D01*
G01X0473000Y1534000D02*
G01X0480000Y1541000D01*
G01X0480000Y1541000D02*
G01X0487000Y1534000D01*
G54D16*
G36*
G01X0262760Y1562680D02*
G01X0227240Y1562680D01*
G01X0227240Y1517320D01*
G01X0262760Y1517320D01*
G01X0262760Y1562680D01*
G37*
G36*
G01X0211580Y1562680D02*
G01X0176060Y1562680D01*
G01X0176060Y1517320D01*
G01X0211580Y1517320D01*
G01X0211580Y1562680D01*
G37*
G54D17*
G01X0459000Y1534000D02*
G01X0490000Y1534000D01*
G01X0459000Y1534000D02*
G01X0461000Y1534000D01*
G01X0490000Y1534000D02*
G01X0496000Y1540000D01*
G54D16*
G36*
G01X0486000Y1550000D02*
G01X0486000Y1530000D01*
G01X0511000Y1530000D01*
G01X0511000Y1550000D01*
G01X0486000Y1550000D01*
G37*
G54D17*
G01X0459000Y1505000D02*
G01X0489000Y1505000D01*
G01X0489000Y1505000D02*
G01X0496000Y1498000D01*
G54D16*
G36*
G01X0486000Y1508000D02*
G01X0486000Y1488000D01*
G01X0511000Y1488000D01*
G01X0511000Y1508000D01*
G01X0486000Y1508000D01*
G37*
G54D17*
G01X0474000Y1505000D02*
G01X0480000Y1499000D01*
G01X0452000Y1498000D02*
G01X0459000Y1505000D01*
G54D16*
G36*
G01X0427000Y1508000D02*
G01X0427000Y1488000D01*
G01X0462000Y1488000D01*
G01X0462000Y1508000D01*
G01X0427000Y1508000D01*
G37*
G54D17*
G01X0462000Y1505000D02*
G01X0468000Y1499000D01*
G01X0468000Y1499000D02*
G01X0474000Y1505000D01*
G01X0480000Y1499000D02*
G01X0486000Y1505000D01*
G01X0490000Y1479000D02*
G01X0496000Y1485000D01*
G54D16*
G36*
G01X0486000Y1495000D02*
G01X0486000Y1475000D01*
G01X0511000Y1475000D01*
G01X0511000Y1495000D01*
G01X0486000Y1495000D01*
G37*
G54D17*
G01X0459000Y1479000D02*
G01X0490000Y1479000D01*
G01X0468000Y1486000D02*
G01X0475000Y1479000D01*
G01X0473000Y1479000D02*
G01X0480000Y1486000D01*
G01X0480000Y1486000D02*
G01X0487000Y1479000D01*
G01X0453000Y1485000D02*
G01X0459000Y1479000D01*
G54D16*
G36*
G01X0427000Y1495000D02*
G01X0427000Y1475000D01*
G01X0463000Y1475000D01*
G01X0463000Y1495000D01*
G01X0427000Y1495000D01*
G37*
G54D17*
G01X0461000Y1479000D02*
G01X0468000Y1486000D01*
G01X0459000Y1479000D02*
G01X0461000Y1479000D01*
G54D16*
G36*
G01X0262760Y1512680D02*
G01X0227240Y1512680D01*
G01X0227240Y1467320D01*
G01X0262760Y1467320D01*
G01X0262760Y1512680D01*
G37*
G36*
G01X0211580Y1512680D02*
G01X0176060Y1512680D01*
G01X0176060Y1467320D01*
G01X0211580Y1467320D01*
G01X0211580Y1512680D01*
G37*
G54D17*
G01X0459000Y1450000D02*
G01X0489000Y1450000D01*
G01X0489000Y1450000D02*
G01X0496000Y1443000D01*
G54D16*
G36*
G01X0486000Y1453000D02*
G01X0486000Y1433000D01*
G01X0511000Y1433000D01*
G01X0511000Y1453000D01*
G01X0486000Y1453000D01*
G37*
G54D17*
G01X0480000Y1444000D02*
G01X0486000Y1450000D01*
G01X0474000Y1450000D02*
G01X0480000Y1444000D01*
G01X0452000Y1443000D02*
G01X0459000Y1450000D01*
G54D16*
G36*
G01X0427000Y1453000D02*
G01X0427000Y1433000D01*
G01X0462000Y1433000D01*
G01X0462000Y1453000D01*
G01X0427000Y1453000D01*
G37*
G54D17*
G01X0462000Y1450000D02*
G01X0468000Y1444000D01*
G01X0468000Y1444000D02*
G01X0474000Y1450000D01*
G54D16*
G36*
G01X0262760Y1462680D02*
G01X0227240Y1462680D01*
G01X0227240Y1417320D01*
G01X0262760Y1417320D01*
G01X0262760Y1462680D01*
G37*
G36*
G01X0211580Y1462680D02*
G01X0176060Y1462680D01*
G01X0176060Y1417320D01*
G01X0211580Y1417320D01*
G01X0211580Y1462680D01*
G37*
G54D17*
G01X0459000Y1424000D02*
G01X0490000Y1424000D01*
G01X0459000Y1424000D02*
G01X0461000Y1424000D01*
G01X0490000Y1424000D02*
G01X0496000Y1430000D01*
G54D16*
G36*
G01X0486000Y1440000D02*
G01X0486000Y1420000D01*
G01X0511000Y1420000D01*
G01X0511000Y1440000D01*
G01X0486000Y1440000D01*
G37*
G54D17*
G01X0453000Y1430000D02*
G01X0459000Y1424000D01*
G54D16*
G36*
G01X0427000Y1440000D02*
G01X0427000Y1420000D01*
G01X0463000Y1420000D01*
G01X0463000Y1440000D01*
G01X0427000Y1440000D01*
G37*
G54D17*
G01X0461000Y1424000D02*
G01X0468000Y1431000D01*
G01X0468000Y1431000D02*
G01X0475000Y1424000D01*
G01X0473000Y1424000D02*
G01X0480000Y1431000D01*
G01X0480000Y1431000D02*
G01X0487000Y1424000D01*
G54D16*
G36*
G01X0670510Y1565870D02*
G01X0670510Y1544130D01*
G01X0692250Y1544130D01*
G01X0692250Y1565870D01*
G01X0670510Y1565870D01*
G37*
G54D18*
G01X0661000Y1558000D02*
G01X0661000Y1532000D01*
G54D16*
G36*
G01X0650000Y1567000D02*
G01X0632000Y1567000D01*
G01X0632000Y1523000D01*
G01X0650000Y1523000D01*
G01X0650000Y1567000D01*
G37*
G36*
G01X0694130Y1565870D02*
G01X0694130Y1544130D01*
G01X0715870Y1544130D01*
G01X0715870Y1565870D01*
G01X0694130Y1565870D01*
G37*
G36*
G01X0630000Y1567000D02*
G01X0612000Y1567000D01*
G01X0612000Y1523000D01*
G01X0630000Y1523000D01*
G01X0630000Y1567000D01*
G37*
G36*
G01X0611000Y1567000D02*
G01X0593000Y1567000D01*
G01X0593000Y1523000D01*
G01X0611000Y1523000D01*
G01X0611000Y1567000D01*
G37*
G36*
G01X0591000Y1567000D02*
G01X0573000Y1567000D01*
G01X0573000Y1523000D01*
G01X0591000Y1523000D01*
G01X0591000Y1567000D01*
G37*
G36*
G01X0554130Y1560870D02*
G01X0554130Y1539130D01*
G01X0575870Y1539130D01*
G01X0575870Y1560870D01*
G01X0554130Y1560870D01*
G37*
G36*
G01X0530510Y1560870D02*
G01X0530510Y1539130D01*
G01X0552250Y1539130D01*
G01X0552250Y1560870D01*
G01X0530510Y1560870D01*
G37*
G54D17*
G01X0459000Y1830000D02*
G01X0489000Y1830000D01*
G01X0490000Y1804000D02*
G01X0496000Y1810000D01*
G54D16*
G36*
G01X0486000Y1820000D02*
G01X0486000Y1800000D01*
G01X0511000Y1800000D01*
G01X0511000Y1820000D01*
G01X0486000Y1820000D01*
G37*
G54D17*
G01X0468000Y1811000D02*
G01X0475000Y1804000D01*
G01X0473000Y1804000D02*
G01X0480000Y1811000D01*
G01X0480000Y1811000D02*
G01X0487000Y1804000D01*
G01X0489000Y1830000D02*
G01X0496000Y1823000D01*
G54D16*
G36*
G01X0486000Y1833000D02*
G01X0486000Y1813000D01*
G01X0511000Y1813000D01*
G01X0511000Y1833000D01*
G01X0486000Y1833000D01*
G37*
G54D17*
G01X0480000Y1824000D02*
G01X0486000Y1830000D01*
G01X0474000Y1830000D02*
G01X0480000Y1824000D01*
G01X0452000Y1823000D02*
G01X0459000Y1830000D01*
G01X0462000Y1830000D02*
G01X0468000Y1824000D01*
G01X0468000Y1824000D02*
G01X0474000Y1830000D01*
G01X0459000Y1804000D02*
G01X0490000Y1804000D01*
G01X0453000Y1810000D02*
G01X0459000Y1804000D01*
G01X0461000Y1804000D02*
G01X0468000Y1811000D01*
G01X0459000Y1804000D02*
G01X0461000Y1804000D01*
G54D16*
G36*
G01X0427000Y1833000D02*
G01X0427000Y1813000D01*
G01X0462000Y1813000D01*
G01X0462000Y1833000D01*
G01X0427000Y1833000D01*
G37*
G36*
G01X0427000Y1820000D02*
G01X0427000Y1800000D01*
G01X0463000Y1800000D01*
G01X0463000Y1820000D01*
G01X0427000Y1820000D01*
G37*
G54D17*
G01X0452000Y1768000D02*
G01X0459000Y1775000D01*
G54D16*
G36*
G01X0427000Y1778000D02*
G01X0427000Y1758000D01*
G01X0462000Y1758000D01*
G01X0462000Y1778000D01*
G01X0427000Y1778000D01*
G37*
G54D17*
G01X0462000Y1775000D02*
G01X0468000Y1769000D01*
G01X0468000Y1769000D02*
G01X0474000Y1775000D01*
G54D16*
G36*
G01X0262760Y1812680D02*
G01X0227240Y1812680D01*
G01X0227240Y1767320D01*
G01X0262760Y1767320D01*
G01X0262760Y1812680D01*
G37*
G36*
G01X0211580Y1812680D02*
G01X0176060Y1812680D01*
G01X0176060Y1767320D01*
G01X0211580Y1767320D01*
G01X0211580Y1812680D01*
G37*
G54D17*
G01X0459000Y1775000D02*
G01X0489000Y1775000D01*
G01X0489000Y1775000D02*
G01X0496000Y1768000D01*
G54D16*
G36*
G01X0486000Y1778000D02*
G01X0486000Y1758000D01*
G01X0511000Y1758000D01*
G01X0511000Y1778000D01*
G01X0486000Y1778000D01*
G37*
G54D17*
G01X0480000Y1769000D02*
G01X0486000Y1775000D01*
G01X0474000Y1775000D02*
G01X0480000Y1769000D01*
G01X0459000Y1749000D02*
G01X0490000Y1749000D01*
G01X0459000Y1749000D02*
G01X0461000Y1749000D01*
G01X0490000Y1749000D02*
G01X0496000Y1755000D01*
G54D16*
G36*
G01X0486000Y1765000D02*
G01X0486000Y1745000D01*
G01X0511000Y1745000D01*
G01X0511000Y1765000D01*
G01X0486000Y1765000D01*
G37*
G54D17*
G01X0453000Y1755000D02*
G01X0459000Y1749000D01*
G54D16*
G36*
G01X0427000Y1765000D02*
G01X0427000Y1745000D01*
G01X0463000Y1745000D01*
G01X0463000Y1765000D01*
G01X0427000Y1765000D01*
G37*
G54D17*
G01X0461000Y1749000D02*
G01X0468000Y1756000D01*
G01X0468000Y1756000D02*
G01X0475000Y1749000D01*
G01X0473000Y1749000D02*
G01X0480000Y1756000D01*
G01X0480000Y1756000D02*
G01X0487000Y1749000D01*
G01X0459000Y1725000D02*
G01X0489000Y1725000D01*
G01X0489000Y1725000D02*
G01X0496000Y1718000D01*
G54D16*
G36*
G01X0486000Y1728000D02*
G01X0486000Y1708000D01*
G01X0511000Y1708000D01*
G01X0511000Y1728000D01*
G01X0486000Y1728000D01*
G37*
G54D17*
G01X0474000Y1725000D02*
G01X0480000Y1719000D01*
G01X0452000Y1718000D02*
G01X0459000Y1725000D01*
G54D16*
G36*
G01X0427000Y1728000D02*
G01X0427000Y1708000D01*
G01X0462000Y1708000D01*
G01X0462000Y1728000D01*
G01X0427000Y1728000D01*
G37*
G54D17*
G01X0462000Y1725000D02*
G01X0468000Y1719000D01*
G01X0468000Y1719000D02*
G01X0474000Y1725000D01*
G01X0480000Y1719000D02*
G01X0486000Y1725000D01*
G54D16*
G36*
G01X0590000Y1732000D02*
G01X0572000Y1732000D01*
G01X0572000Y1688000D01*
G01X0590000Y1688000D01*
G01X0590000Y1732000D01*
G37*
G36*
G01X0610000Y1732000D02*
G01X0592000Y1732000D01*
G01X0592000Y1688000D01*
G01X0610000Y1688000D01*
G01X0610000Y1732000D01*
G37*
G36*
G01X0630000Y1732000D02*
G01X0612000Y1732000D01*
G01X0612000Y1688000D01*
G01X0630000Y1688000D01*
G01X0630000Y1732000D01*
G37*
G36*
G01X0649000Y1732000D02*
G01X0631000Y1732000D01*
G01X0631000Y1688000D01*
G01X0649000Y1688000D01*
G01X0649000Y1732000D01*
G37*
G36*
G01X0669000Y1732000D02*
G01X0651000Y1732000D01*
G01X0651000Y1688000D01*
G01X0669000Y1688000D01*
G01X0669000Y1732000D01*
G37*
G54D17*
G01X0459000Y1699000D02*
G01X0490000Y1699000D01*
G01X0453000Y1705000D02*
G01X0459000Y1699000D01*
G01X0459000Y1699000D02*
G01X0461000Y1699000D01*
G01X0468000Y1706000D02*
G01X0475000Y1699000D01*
G01X0473000Y1699000D02*
G01X0480000Y1706000D01*
G54D16*
G36*
G01X0427000Y1715000D02*
G01X0427000Y1695000D01*
G01X0463000Y1695000D01*
G01X0463000Y1715000D01*
G01X0427000Y1715000D01*
G37*
G36*
G01X0486000Y1715000D02*
G01X0486000Y1695000D01*
G01X0511000Y1695000D01*
G01X0511000Y1715000D01*
G01X0486000Y1715000D01*
G37*
G54D17*
G01X0461000Y1699000D02*
G01X0468000Y1706000D01*
G01X0490000Y1699000D02*
G01X0496000Y1705000D01*
G01X0480000Y1706000D02*
G01X0487000Y1699000D01*
G54D16*
G36*
G01X0262760Y1712680D02*
G01X0227240Y1712680D01*
G01X0227240Y1667320D01*
G01X0262760Y1667320D01*
G01X0262760Y1712680D01*
G37*
G36*
G01X0211580Y1712680D02*
G01X0176060Y1712680D01*
G01X0176060Y1667320D01*
G01X0211580Y1667320D01*
G01X0211580Y1712680D01*
G37*
G36*
G01X0262760Y1762680D02*
G01X0227240Y1762680D01*
G01X0227240Y1717320D01*
G01X0262760Y1717320D01*
G01X0262760Y1762680D01*
G37*
G36*
G01X0211580Y1762680D02*
G01X0176060Y1762680D01*
G01X0176060Y1717320D01*
G01X0211580Y1717320D01*
G01X0211580Y1762680D01*
G37*
G54D17*
G01X0459000Y1670000D02*
G01X0489000Y1670000D01*
G01X0489000Y1670000D02*
G01X0496000Y1663000D01*
G54D16*
G36*
G01X0486000Y1673000D02*
G01X0486000Y1653000D01*
G01X0511000Y1653000D01*
G01X0511000Y1673000D01*
G01X0486000Y1673000D01*
G37*
G54D17*
G01X0480000Y1664000D02*
G01X0486000Y1670000D01*
G01X0474000Y1670000D02*
G01X0480000Y1664000D01*
G01X0452000Y1663000D02*
G01X0459000Y1670000D01*
G54D16*
G36*
G01X0427000Y1673000D02*
G01X0427000Y1653000D01*
G01X0462000Y1653000D01*
G01X0462000Y1673000D01*
G01X0427000Y1673000D01*
G37*
G54D17*
G01X0462000Y1670000D02*
G01X0468000Y1664000D01*
G01X0468000Y1664000D02*
G01X0474000Y1670000D01*
G01X0490000Y1644000D02*
G01X0496000Y1650000D01*
G54D16*
G36*
G01X0486000Y1660000D02*
G01X0486000Y1640000D01*
G01X0511000Y1640000D01*
G01X0511000Y1660000D01*
G01X0486000Y1660000D01*
G37*
G54D17*
G01X0453000Y1650000D02*
G01X0459000Y1644000D01*
G01X0461000Y1644000D02*
G01X0468000Y1651000D01*
G01X0468000Y1651000D02*
G01X0475000Y1644000D01*
G01X0473000Y1644000D02*
G01X0480000Y1651000D01*
G01X0480000Y1651000D02*
G01X0487000Y1644000D01*
G54D16*
G36*
G01X0427000Y1660000D02*
G01X0427000Y1640000D01*
G01X0463000Y1640000D01*
G01X0463000Y1660000D01*
G01X0427000Y1660000D01*
G37*
G36*
G01X0262760Y1662680D02*
G01X0227240Y1662680D01*
G01X0227240Y1617320D01*
G01X0262760Y1617320D01*
G01X0262760Y1662680D01*
G37*
G36*
G01X0211580Y1662680D02*
G01X0176060Y1662680D01*
G01X0176060Y1617320D01*
G01X0211580Y1617320D01*
G01X0211580Y1662680D01*
G37*
G36*
G01X0262760Y1612680D02*
G01X0227240Y1612680D01*
G01X0227240Y1567320D01*
G01X0262760Y1567320D01*
G01X0262760Y1612680D01*
G37*
G36*
G01X0211580Y1612680D02*
G01X0176060Y1612680D01*
G01X0176060Y1567320D01*
G01X0211580Y1567320D01*
G01X0211580Y1612680D01*
G37*
G54D17*
G01X0459000Y1644000D02*
G01X0490000Y1644000D01*
G01X0459000Y1644000D02*
G01X0461000Y1644000D01*
G01X0459000Y1615000D02*
G01X0489000Y1615000D01*
G01X0489000Y1615000D02*
G01X0496000Y1608000D01*
G54D16*
G36*
G01X0486000Y1618000D02*
G01X0486000Y1598000D01*
G01X0511000Y1598000D01*
G01X0511000Y1618000D01*
G01X0486000Y1618000D01*
G37*
G54D17*
G01X0474000Y1615000D02*
G01X0480000Y1609000D01*
G01X0452000Y1608000D02*
G01X0459000Y1615000D01*
G54D16*
G36*
G01X0427000Y1618000D02*
G01X0427000Y1598000D01*
G01X0462000Y1598000D01*
G01X0462000Y1618000D01*
G01X0427000Y1618000D01*
G37*
G54D17*
G01X0462000Y1615000D02*
G01X0468000Y1609000D01*
G01X0468000Y1609000D02*
G01X0474000Y1615000D01*
G01X0480000Y1609000D02*
G01X0486000Y1615000D01*
G01X0459000Y1589000D02*
G01X0490000Y1589000D01*
G01X0459000Y1589000D02*
G01X0461000Y1589000D01*
G01X0490000Y1589000D02*
G01X0496000Y1595000D01*
G54D16*
G36*
G01X0486000Y1605000D02*
G01X0486000Y1585000D01*
G01X0511000Y1585000D01*
G01X0511000Y1605000D01*
G01X0486000Y1605000D01*
G37*
G54D17*
G01X0453000Y1595000D02*
G01X0459000Y1589000D01*
G54D16*
G36*
G01X0427000Y1605000D02*
G01X0427000Y1585000D01*
G01X0463000Y1585000D01*
G01X0463000Y1605000D01*
G01X0427000Y1605000D01*
G37*
G54D17*
G01X0461000Y1589000D02*
G01X0468000Y1596000D01*
G01X0468000Y1596000D02*
G01X0475000Y1589000D01*
G01X0473000Y1589000D02*
G01X0480000Y1596000D01*
G01X0480000Y1596000D02*
G01X0487000Y1589000D01*
G01X0000000Y0000000D02*
G54D23*
G01X0170000Y1790000D03*
G01X0170000Y1740000D03*
G01X0170000Y1690000D03*
G01X0170000Y1640000D03*
G01X0170000Y1590000D03*
G01X0170000Y1540000D03*
G01X0170000Y1490000D03*
G01X0170000Y1440000D03*
G01X0170000Y1030000D03*
G01X0170000Y0980000D03*
G01X0170000Y0930000D03*
G01X0170000Y0880000D03*
G01X0170000Y0830000D03*
G01X0170000Y0780000D03*
G01X0170000Y0730000D03*
G01X0170000Y0680000D03*
G01X0445000Y1835000D03*
G01X0445000Y1780000D03*
G01X0445000Y1730000D03*
G01X0445000Y1675000D03*
G01X0445000Y1620000D03*
G01X0445000Y1565000D03*
G01X0445000Y1510000D03*
G01X0445000Y1455000D03*
G01X0445000Y1075000D03*
G01X0445000Y1020000D03*
G01X0445000Y0970000D03*
G01X0445000Y0915000D03*
G01X0445000Y0860000D03*
G01X0445000Y0805000D03*
G01X0445000Y0750000D03*
G01X0445000Y0695000D03*
G01X0505000Y1695000D03*
G01X0505000Y0935000D03*
G01X0535000Y1570000D03*
G01X0535000Y0810000D03*
G01X0570000Y1685000D03*
G01X0570000Y0925000D03*
G01X0600000Y1580000D03*
G01X0600000Y0820000D03*
G01X0620000Y1675000D03*
G01X0620000Y0915000D03*
G01X0725000Y1885000D03*
G01X0725000Y1535000D03*
G01X0725000Y1125000D03*
G01X0725000Y0775000D03*
G01X0750000Y1860000D03*
G01X0750000Y1560000D03*
G01X0750000Y1100000D03*
G01X0750000Y0800000D03*
G01X0775000Y1835000D03*
G01X0775000Y1585000D03*
G01X0775000Y1075000D03*
G01X0775000Y0825000D03*
G01X0800000Y1810000D03*
G01X0800000Y1610000D03*
G01X0800000Y1050000D03*
G01X0800000Y0850000D03*
G01X0825000Y1785000D03*
G01X0825000Y1635000D03*
G01X0825000Y1025000D03*
G01X0825000Y0875000D03*
G01X0830000Y1530000D03*
G01X0850000Y1760000D03*
G01X0850000Y1660000D03*
G01X0850000Y1000000D03*
G01X0850000Y0900000D03*
G01X0875000Y1735000D03*
G01X0875000Y1685000D03*
G01X0875000Y0975000D03*
G01X0875000Y0925000D03*
G01X0880000Y1050000D03*
G01X0900000Y1710000D03*
G01X0900000Y1529700D03*
G01X0900000Y0950000D03*
G01X0900000Y0769700D03*
G01X0925000Y1554700D03*
G01X0925000Y1504700D03*
G01X0925000Y0794700D03*
G01X0950000Y1579700D03*
G01X0950000Y1479700D03*
G01X0950000Y0819700D03*
G01X0975000Y1604700D03*
G01X0975000Y1454700D03*
G01X0975000Y0844700D03*
G01X1000000Y1629700D03*
G01X1000000Y1429700D03*
G01X1000000Y0869700D03*
G01X1025000Y1654700D03*
G01X1025000Y1404700D03*
G01X1025000Y0894700D03*
G01X1050000Y1679700D03*
G01X1050000Y1379700D03*
G01X1050000Y0919700D03*
G01X1075000Y1704700D03*
G01X1075000Y1354700D03*
G01X1075000Y0944700D03*
G01X1180000Y1564700D03*
G01X1180000Y0804700D03*
G01X1200000Y1659700D03*
G01X1200000Y0899700D03*
G01X1230000Y1554700D03*
G01X1230000Y0794700D03*
G01X1265000Y1669700D03*
G01X1265000Y0909700D03*
G01X1295000Y1544700D03*
G01X1295000Y0784700D03*
G01X1355000Y1784700D03*
G01X1355000Y1729700D03*
G01X1355000Y1674700D03*
G01X1355000Y1619700D03*
G01X1355000Y1564700D03*
G01X1355000Y1509700D03*
G01X1355000Y1459700D03*
G01X1355000Y1404700D03*
G01X1355000Y1024700D03*
G01X1355000Y0969700D03*
G01X1355000Y0914700D03*
G01X1355000Y0859700D03*
G01X1355000Y0804700D03*
G01X1355000Y0749700D03*
G01X1355000Y0699700D03*
G01X1355000Y0644700D03*
G01X1630000Y1799700D03*
G01X1630000Y1749700D03*
G01X1630000Y1699700D03*
G01X1630000Y1649700D03*
G01X1630000Y1599700D03*
G01X1630000Y1549700D03*
G01X1630000Y1499700D03*
G01X1630000Y1449700D03*
G01X1630000Y1039700D03*
G01X1630000Y0989700D03*
G01X1630000Y0939700D03*
G01X1630000Y0889700D03*
G01X1630000Y0839700D03*
G01X1630000Y0789700D03*
G01X1630000Y0739700D03*
G01X1630000Y0689700D03*
G54D19*
G01X0314600Y1720200D03*
G01X0314600Y1639900D03*
G01X0314600Y1559600D03*
G01X0314600Y1479300D03*
G01X0314600Y0960200D03*
G01X0314600Y0879900D03*
G01X0314600Y0799600D03*
G01X0314600Y0719300D03*
G01X0385400Y1760400D03*
G01X0385400Y1680100D03*
G01X0385400Y1599800D03*
G01X0385400Y1519400D03*
G01X0385400Y1000400D03*
G01X0385400Y0920100D03*
G01X0385400Y0839800D03*
G01X0385400Y0759400D03*
G01X0609800Y1895400D03*
G01X0609800Y1795000D03*
G01X0609800Y1444600D03*
G01X0609800Y1344300D03*
G01X0609800Y1135400D03*
G01X0609800Y1035000D03*
G01X0609800Y0684600D03*
G01X0609800Y0584300D03*
G01X1190200Y1895400D03*
G01X1190200Y1795000D03*
G01X1190200Y1444600D03*
G01X1190200Y1344300D03*
G01X1190200Y1135400D03*
G01X1190200Y1035000D03*
G01X1190200Y0684600D03*
G01X1190200Y0584300D03*
G01X1414600Y1720200D03*
G01X1414600Y1639900D03*
G01X1414600Y1559600D03*
G01X1414600Y1479300D03*
G01X1414600Y0960200D03*
G01X1414600Y0879900D03*
G01X1414600Y0799600D03*
G01X1414600Y0719300D03*
G01X1485400Y1760400D03*
G01X1485400Y1680100D03*
G01X1485400Y1599800D03*
G01X1485400Y1519400D03*
G01X1485400Y1000400D03*
G01X1485400Y0920100D03*
G01X1485400Y0839800D03*
G01X1485400Y0759400D03*
G54D22*
G01X0550000Y1240000D03*
G01X0650000Y1240000D03*
G01X0750000Y1240000D03*
G01X0850000Y1240000D03*
G01X0950000Y1240000D03*
G01X1050000Y1240000D03*
G01X1150000Y1240000D03*
G01X1250000Y1240000D03*
G54D21*
G01X0249600Y1871800D03*
G01X0249600Y1367900D03*
G01X0249600Y1111800D03*
G01X0249600Y0607900D03*
G01X1550400Y1871800D03*
G01X1550400Y1367900D03*
G01X1550400Y1111800D03*
G01X1550400Y0607900D03*
G54D20*
G01X0350000Y1879700D03*
G01X0350000Y1360000D03*
G01X0350000Y1119700D03*
G01X0350000Y0600000D03*
G01X1450000Y1879700D03*
G01X1450000Y1360000D03*
G01X1450000Y1119700D03*
G01X1450000Y0600000D03*
M02*
