M48
INCH
T70C0.013
T69C0.020
T68C0.187
T67C0.081
T66C0.035
T65C0.051
T64C0.094
T63C0.035
T62C0.038
%
T70
X003390Y004013
X004100Y002553
X004200Y004303
X004250Y003753
X004310Y003133
X004320Y004853
X004350Y005553
X004950Y005453
X005900Y003953
X016580Y008023
X016970Y008023
X017450Y008023
X017840Y008023
X018900Y007403
X019300Y007503
X020350Y007303
X028500Y003453
X028850Y003553
X029300Y004203
X029550Y004553
X030850Y006403
X031750Y004853
X031750Y003853
X034250Y006853
X034250Y003553
T69
X001050Y024753
X001050Y022653
X001250Y023553
X001400Y007953
X001800Y028103
X002200Y026203
X002550Y003653
X004600Y007053
X005400Y006245
X006210Y006463
X006390Y004883
X018350Y002845
X018350Y001753
X019950Y006303
X023250Y009253
X023800Y009253
X024400Y004353
X026250Y005653
X026250Y005203
X026450Y003903
X027150Y008103
X027200Y001253
X028250Y012103
X028450Y011603
X028600Y010603
X029550Y007403
X029550Y006703
X029550Y006253
X029550Y005503
X029700Y008303
X029950Y010753
T66
X001400Y005953
X001900Y003753
X002450Y008153
X029300Y010803
X031000Y026053
X031000Y025053
X031000Y020053
X031000Y019053
X031000Y014053
X031000Y013053
T63
X003146Y027406
X003146Y026602
X003146Y025799
X003146Y024996
X003146Y005209
X003146Y004406
X003146Y003602
X003146Y002799
X003854Y027807
X003854Y027004
X003854Y026201
X003854Y025398
X003854Y005610
X003854Y004807
X003854Y004004
X003854Y003201
X006098Y029157
X006098Y028154
X006098Y024650
X006098Y023646
X006098Y006961
X006098Y005957
X006098Y002453
X006098Y001449
X030402Y008309
X030402Y007305
X030402Y003801
X030402Y002797
X032646Y006557
X032646Y005754
X032646Y004951
X032646Y004148
X033354Y006959
X033354Y006156
X033354Y005352
X033354Y004549
T62
X001250Y009303
X002250Y009303
X003250Y009303
X004250Y009303
X005250Y009303
X006250Y009303
X007750Y009303
X007750Y008303
X008750Y009303
X008750Y008303
X011650Y009303
X011650Y008303
X012650Y009303
X012650Y008303
X013650Y009303
X013650Y008303
X014650Y009303
X014650Y008303
X015650Y009303
X015650Y008303
X017600Y006803
X017600Y005803
X017600Y004803
X017600Y003803
X017600Y002803
X017600Y001803
X018600Y009303
X018600Y008303
X019500Y006803
X019500Y001803
X019600Y009303
X019600Y008303
X020500Y006803
X020500Y001803
X020600Y009303
X020600Y008303
X021500Y006803
X021500Y001803
X021600Y009303
X021600Y008303
X022500Y006803
X022500Y001803
X022600Y009303
X022600Y008303
X023500Y006803
X023500Y001803
X024500Y006803
X024500Y001803
X025500Y009303
X025500Y008303
X025500Y006803
X025500Y001803
X026500Y009303
X026500Y008303
X026500Y006803
X026500Y001803
X028500Y009303
X028500Y001803
X029500Y009303
X029500Y001803
X030500Y009303
X030500Y001803
X031500Y009303
X031500Y001803
X032500Y009303
X032500Y001803
X033500Y009303
X033500Y001803
X034500Y009303
X034500Y001803
X035500Y009303
X035500Y001803
T65
X002496Y028921
X002496Y023882
X002496Y006724
X002496Y001685
X034004Y008073
X034004Y003033
T67
X033000Y027053
X033000Y023053
X033000Y021053
X033000Y017053
X033000Y015053
X033000Y011053
T64
X003500Y029000
X003500Y023803
X003500Y006803
X003500Y001606
X033000Y008152
X033000Y002955
T68
X002165Y021403
X002165Y018203
X002165Y015003
X002165Y011803
X005000Y021403
X005000Y018203
X005000Y015003
X005000Y011803
M30
