G04 start of page 7 for group -4062 idx -4062 *
G04 Title: (unknown), soldermask *
G04 Creator: pcb 1.99z *
G04 CreationDate: Sat 29 Oct 2016 01:04:31 AM GMT UTC *
G04 For: commonadmin *
G04 Format: Gerber/RS-274X *
G04 PCB-Dimensions (mil): 4000.00 3000.00 *
G04 PCB-Coordinate-Origin: lower left *
%MOIN*%
%FSLAX25Y25*%
%LNBOTTOMMASK*%
%ADD91R,0.0360X0.0360*%
%ADD90R,0.0180X0.0180*%
%ADD89C,0.0180*%
%ADD88R,0.0257X0.0257*%
%ADD87R,0.0572X0.0572*%
%ADD86R,0.0200X0.0200*%
%ADD85C,0.0200*%
%ADD84C,0.2422*%
%ADD83C,0.1060*%
%ADD82C,0.0729*%
%ADD81C,0.1162*%
%ADD80C,0.0572*%
%ADD79C,0.0660*%
%ADD78C,0.0001*%
G54D78*G36*
X351700Y96331D02*Y89731D01*
X358300D01*
Y96331D01*
X351700D01*
G37*
G54D79*X345000Y93031D03*
X335000D03*
X325000D03*
X315000D03*
X305000D03*
X295000D03*
X285000D03*
G54D80*X304016Y73051D03*
X326457Y65571D03*
X333543Y69587D03*
G54D81*X330000Y81516D03*
G54D82*X340039Y80728D03*
G54D80*X304016Y83091D03*
G54D78*G36*
X306700Y133831D02*Y127231D01*
X313300D01*
Y133831D01*
X306700D01*
G37*
G54D79*X310000Y140531D03*
G54D83*X330000Y270531D03*
Y230531D03*
Y210531D03*
Y170531D03*
G54D78*G36*
X306700Y253831D02*Y247231D01*
X313300D01*
Y253831D01*
X306700D01*
G37*
G54D79*X310000Y260531D03*
G54D78*G36*
X306700Y193831D02*Y187231D01*
X313300D01*
Y193831D01*
X306700D01*
G37*
G54D79*X310000Y200531D03*
G54D83*X330000Y150531D03*
Y110531D03*
G54D79*X22500Y93031D03*
G54D84*X21654Y150031D03*
Y182031D03*
Y214031D03*
Y118031D03*
X50000Y182031D03*
G54D80*X60984Y281535D03*
Y246496D03*
Y236457D03*
G54D84*X50000Y214031D03*
G54D80*X60984Y291575D03*
X38543Y278071D03*
X31457Y274055D03*
G54D81*X35000Y290000D03*
G54D82*X24961Y289213D03*
G54D80*X38543Y270039D03*
Y262008D03*
X31457Y266024D03*
X38543Y253976D03*
X31457Y249961D03*
Y257992D03*
G54D81*X35000Y238031D03*
G54D82*X24961Y238819D03*
G54D78*G36*
X74200Y96331D02*Y89731D01*
X80800D01*
Y96331D01*
X74200D01*
G37*
G54D79*X77500Y83031D03*
X87500D03*
Y93031D03*
G54D78*G36*
X9200Y96331D02*Y89731D01*
X15800D01*
Y96331D01*
X9200D01*
G37*
G54D79*X32500Y93031D03*
X42500D03*
X52500D03*
X62500D03*
G54D84*X50000Y150031D03*
Y118031D03*
G54D80*X60984Y59567D03*
Y69606D03*
Y24528D03*
Y14488D03*
X38543Y56102D03*
X31457Y52087D03*
G54D81*X35000Y68031D03*
G54D82*X24961Y67244D03*
G54D80*X38543Y48071D03*
Y40039D03*
X31457Y44055D03*
X38543Y32008D03*
X31457Y27992D03*
Y36024D03*
G54D81*X35000Y16063D03*
G54D82*X24961Y16850D03*
G54D78*G36*
X251700Y96331D02*Y89731D01*
X258300D01*
Y96331D01*
X251700D01*
G37*
G54D79*X255000Y83031D03*
X265000D03*
Y93031D03*
X206000Y83031D03*
Y93031D03*
X216000Y83031D03*
Y93031D03*
X226000Y83031D03*
Y93031D03*
G54D78*G36*
X182700Y86331D02*Y79731D01*
X189300D01*
Y86331D01*
X182700D01*
G37*
G54D79*X186000Y93031D03*
X196000Y83031D03*
Y93031D03*
G54D78*G36*
X113200Y86331D02*Y79731D01*
X119800D01*
Y86331D01*
X113200D01*
G37*
G54D79*X116500Y93031D03*
X126500Y83031D03*
Y93031D03*
X136500Y83031D03*
Y93031D03*
X146500Y83031D03*
Y93031D03*
X156500Y83031D03*
Y93031D03*
G54D78*G36*
X351700Y21331D02*Y14731D01*
X358300D01*
Y21331D01*
X351700D01*
G37*
G36*
X261700D02*Y14731D01*
X268300D01*
Y21331D01*
X261700D01*
G37*
G54D79*X255000Y18031D03*
X245000D03*
X235000D03*
X225000D03*
X215000D03*
X205000D03*
X195000D03*
X176000D03*
X345000D03*
X335000D03*
X325000D03*
X315000D03*
X305000D03*
X295000D03*
X285000D03*
G54D80*X304016Y38012D03*
Y27972D03*
X326457Y41476D03*
Y49508D03*
Y57539D03*
X333543Y61555D03*
Y45492D03*
Y53524D03*
G54D81*X330000Y29547D03*
G54D82*X340039Y30335D03*
G54D78*G36*
X261700Y71331D02*Y64731D01*
X268300D01*
Y71331D01*
X261700D01*
G37*
G54D79*X255000Y68031D03*
X245000D03*
X235000D03*
X225000D03*
X215000D03*
X205000D03*
X195000D03*
G54D78*G36*
X172700Y71331D02*Y64731D01*
X179300D01*
Y71331D01*
X172700D01*
G37*
G54D79*X176000Y58031D03*
Y48031D03*
Y38031D03*
Y28031D03*
G54D85*X41100Y19631D02*X44100D01*
X44800Y20331D01*
X43200Y20231D02*X43800Y19631D01*
X42600D02*X43200Y20231D01*
G54D86*X44800Y20331D02*X46300D01*
G54D87*X53607Y20117D02*X54393D01*
X53607Y13031D02*X54393D01*
G54D86*X39900Y20331D02*X40400D01*
G54D85*X41100Y19631D01*
X41400D02*X42000Y20231D01*
X42600Y19631D01*
X41000Y22231D02*X44100D01*
X40400Y21631D02*X41000Y22231D01*
G54D86*X39900Y21631D02*X40400D01*
G54D85*X42500Y22231D02*X43200Y21531D01*
X42000D02*X42700Y22231D01*
X41300D02*X42000Y21531D01*
X44100Y22231D02*X44700Y21631D01*
G54D86*X46300D01*
G54D85*X43200Y21531D02*X43900Y22231D01*
X44100D01*
X42600Y26031D02*X45600D01*
X46300Y26731D01*
X44700Y26631D02*X45300Y26031D01*
X44100D02*X44700Y26631D01*
G54D86*X46300Y26731D02*X47800D01*
G54D85*X41900D02*X42600Y26031D01*
X42900D02*X43500Y26631D01*
X44100Y26031D01*
G54D86*X41400Y26731D02*X41900D01*
G54D85*X45600Y28631D02*X46200Y28031D01*
G54D86*X47800D01*
G54D85*X44700Y27931D02*X45400Y28631D01*
X45600D01*
X41900Y28031D02*X42500Y28631D01*
G54D86*X41400Y28031D02*X41900D01*
G54D85*X42500Y28631D02*X45600D01*
X44000D02*X44700Y27931D01*
X43500D02*X44200Y28631D01*
X42800D02*X43500Y27931D01*
G54D88*X54148Y28193D02*Y27407D01*
X51000Y28193D02*Y27407D01*
G54D78*G36*
X83913Y81618D02*Y79444D01*
X86087D01*
Y81618D01*
X83913D01*
G37*
G36*
X81551D02*Y79444D01*
X83725D01*
Y81618D01*
X81551D01*
G37*
G36*
X339913Y90618D02*Y88444D01*
X342087D01*
Y90618D01*
X339913D01*
G37*
G36*
X337551D02*Y88444D01*
X339725D01*
Y90618D01*
X337551D01*
G37*
G36*
X339775Y98118D02*Y95944D01*
X341949D01*
Y98118D01*
X339775D01*
G37*
G36*
X337413D02*Y95944D01*
X339587D01*
Y98118D01*
X337413D01*
G37*
G54D85*X43550Y32331D02*X46550D01*
X47250Y33031D01*
X45650Y32931D02*X46250Y32331D01*
X45050D02*X45650Y32931D01*
G54D86*X47250Y33031D02*X48750D01*
G54D85*X42850D02*X43550Y32331D01*
X43850D02*X44450Y32931D01*
X45050Y32331D01*
G54D78*G36*
X47413Y32118D02*Y29944D01*
X49587D01*
Y32118D01*
X47413D01*
G37*
G36*
X53413Y31887D02*Y29713D01*
X55587D01*
Y31887D01*
X53413D01*
G37*
G36*
Y29525D02*Y27351D01*
X55587D01*
Y29525D01*
X53413D01*
G37*
G36*
X45051Y32118D02*Y29944D01*
X47225D01*
Y32118D01*
X45051D01*
G37*
G36*
X24413Y33118D02*Y30944D01*
X26587D01*
Y33118D01*
X24413D01*
G37*
G36*
Y30756D02*Y28582D01*
X26587D01*
Y30756D01*
X24413D01*
G37*
G54D86*X42350Y33031D02*X42850D01*
G54D85*X46550Y34931D02*X47150Y34331D01*
G54D86*X48750D01*
G54D85*X45650Y34231D02*X46350Y34931D01*
X46550D01*
X42850Y34331D02*X43450Y34931D01*
G54D86*X42350Y34331D02*X42850D01*
G54D85*X43450Y34931D02*X46550D01*
X44950D02*X45650Y34231D01*
X44450D02*X45150Y34931D01*
X43750D02*X44450Y34231D01*
G54D89*X58500Y35331D02*Y32731D01*
G54D88*X62107Y33532D02*X62893D01*
X62107Y36680D02*X62893D01*
G54D90*X56500Y35331D02*Y32731D01*
X54500Y35331D02*Y32731D01*
X52600Y35331D02*Y32731D01*
X50600Y35331D02*Y32731D01*
G54D85*X43450Y38031D02*X46450D01*
X47150Y38731D01*
X45550Y38631D02*X46150Y38031D01*
X44950D02*X45550Y38631D01*
G54D86*X47150Y38731D02*X48650D01*
G54D85*X42750D02*X43450Y38031D01*
X43750D02*X44350Y38631D01*
X44950Y38031D01*
G54D87*X183107Y28446D02*X183893D01*
X183107Y35532D02*X183893D01*
G54D78*G36*
X177413Y16118D02*Y13944D01*
X179587D01*
Y16118D01*
X177413D01*
G37*
G36*
X179775D02*Y13944D01*
X181949D01*
Y16118D01*
X179775D01*
G37*
G54D90*X50500Y51831D02*Y49231D01*
X52500Y51831D02*Y49231D01*
X54500Y51831D02*Y49231D01*
X56400Y51831D02*Y49231D01*
X58400Y51831D02*Y49231D01*
G54D87*X287107Y42531D02*X287893D01*
X287107Y49617D02*X287893D01*
G54D78*G36*
X179913Y41618D02*Y39444D01*
X182087D01*
Y41618D01*
X179913D01*
G37*
G36*
X177551D02*Y39444D01*
X179725D01*
Y41618D01*
X177551D01*
G37*
G54D85*X44450Y56331D02*X47450D01*
X48150Y57031D01*
X46550Y56931D02*X47150Y56331D01*
X45950D02*X46550Y56931D01*
G54D86*X48150Y57031D02*X49650D01*
G54D85*X43750D02*X44450Y56331D01*
X44750D02*X45350Y56931D01*
X45950Y56331D01*
G54D86*X43250Y57031D02*X43750D01*
G54D85*X47450Y58931D02*X48050Y58331D01*
G54D86*X49650D01*
G54D85*X46550Y58231D02*X47250Y58931D01*
X47450D01*
X43750Y58331D02*X44350Y58931D01*
G54D86*X43250Y58331D02*X43750D01*
G54D85*X44350Y58931D02*X47450D01*
X45850D02*X46550Y58231D01*
X45350D02*X46050Y58931D01*
X44650D02*X45350Y58231D01*
G54D78*G36*
X243913Y61756D02*Y59582D01*
X246087D01*
Y61756D01*
X243913D01*
G37*
G36*
X253913D02*Y59582D01*
X256087D01*
Y61756D01*
X253913D01*
G37*
G36*
Y64118D02*Y61944D01*
X256087D01*
Y64118D01*
X253913D01*
G37*
G36*
X233913Y61756D02*Y59582D01*
X236087D01*
Y61756D01*
X233913D01*
G37*
G36*
Y64118D02*Y61944D01*
X236087D01*
Y64118D01*
X233913D01*
G37*
G36*
X243913D02*Y61944D01*
X246087D01*
Y64118D01*
X243913D01*
G37*
G54D86*X42250Y38731D02*X42750D01*
G54D85*Y40031D02*X43350Y40631D01*
G54D86*X42250Y40031D02*X42750D01*
G54D85*X43350Y40631D02*X46450D01*
X44850D02*X45550Y39931D01*
X44350D02*X45050Y40631D01*
X43650D02*X44350Y39931D01*
X46450Y40631D02*X47050Y40031D01*
G54D86*X48650D01*
G54D85*X45550Y39931D02*X46250Y40631D01*
X46450D01*
X46100Y43531D02*X46800Y44231D01*
G54D86*X48300D01*
G54D85*X42400D02*X43100Y43531D01*
G54D86*X41900Y44231D02*X42400D01*
G54D85*X43100Y43531D02*X46100D01*
X45200Y44131D02*X45800Y43531D01*
X44600D02*X45200Y44131D01*
X43400Y43531D02*X44000Y44131D01*
X44600Y43531D01*
X46100Y46131D02*X46700Y45531D01*
G54D86*X48300D01*
G54D85*X45200Y45431D02*X45900Y46131D01*
X46100D01*
X43000D02*X46100D01*
X44500D02*X45200Y45431D01*
X44000D02*X44700Y46131D01*
X43300D02*X44000Y45431D01*
X42400Y45531D02*X43000Y46131D01*
G54D86*X41900Y45531D02*X42400D01*
G54D78*G36*
X41913Y77799D02*Y75625D01*
X44087D01*
Y77799D01*
X41913D01*
G37*
G36*
Y75437D02*Y73263D01*
X44087D01*
Y75437D01*
X41913D01*
G37*
G54D86*X41250Y50731D02*X41750D01*
G54D87*X53607Y62446D02*X54393D01*
X53607Y69532D02*X54393D01*
G54D78*G36*
X25775Y263118D02*Y260944D01*
X27949D01*
Y263118D01*
X25775D01*
G37*
G54D87*X46414Y291424D02*Y290638D01*
X53500Y291424D02*Y290638D01*
G54D78*G36*
X23413Y263118D02*Y260944D01*
X25587D01*
Y263118D01*
X23413D01*
G37*
G54D91*X21500Y268031D02*X22500D01*
X21500Y274031D02*X22500D01*
X21500Y256031D02*X22500D01*
X21500Y250031D02*X22500D01*
G54D87*X46414Y246924D02*Y246138D01*
X53500Y246924D02*Y246138D01*
G54D85*X42450Y50031D02*X45450D01*
X46150Y50731D01*
X44550Y50631D02*X45150Y50031D01*
X43950D02*X44550Y50631D01*
G54D86*X46150Y50731D02*X47650D01*
G54D85*X41750D02*X42450Y50031D01*
X42750D02*X43350Y50631D01*
X43950Y50031D01*
X42350Y52631D02*X45450D01*
X41750Y52031D02*X42350Y52631D01*
G54D86*X41250Y52031D02*X41750D01*
G54D85*X43350Y51931D02*X44050Y52631D01*
X42650D02*X43350Y51931D01*
X45450Y52631D02*X46050Y52031D01*
G54D86*X47650D01*
G54D85*X44550Y51931D02*X45250Y52631D01*
X45450D01*
X43850D02*X44550Y51931D01*
M02*
