%
M48
M72
T01C0.0150
T02C0.0197
T03C0.0236
T04C0.0276
T05C0.0350
T06C0.0374
T07C0.0394
T08C0.0400
T09C0.0550
T10C0.0590
T11C0.0866
T12C0.1181
%
T01
X24970Y8949
X25185Y8511
X25188Y7781
X25705Y7263
X26435Y7261
X26549Y7018
X26953Y7781
X26950Y8508
X26433Y9026
X25705Y9026
X24970Y10523
X24970Y12098
X24970Y13673
X24970Y15248
X24970Y16823
X24970Y18397
X24970Y19972
X24970Y21547
X25885Y22391
X24970Y23122
X24970Y24697
X24947Y25668
X24947Y27243
X24947Y28818
X24947Y30393
X24947Y31968
X24947Y32418
X24945Y33518
X24945Y35093
X25295Y36181
X24945Y36497
X24945Y38071
X26445Y38396
X24945Y39646
X24945Y41221
X24945Y42796
X24945Y44371
X25705Y44763
X26435Y44761
X26953Y45281
X26950Y46008
X26433Y46526
X26870Y46768
X25705Y46526
X25185Y46011
X25188Y45281
X28445Y46768
X30020Y46768
X31274Y44933
X31536Y44635
X31820Y44893
X31595Y46768
X33169Y46768
X34744Y46768
X34570Y45768
X34842Y44769
X35317Y44769
X34359Y42565
X33834Y42565
X33359Y42565
X32834Y42565
X33070Y38518
X33070Y38143
X33070Y37768
X33070Y37393
X33445Y37393
X33820Y37393
X34195Y37393
X34570Y37393
X34570Y37768
X34195Y37768
X33820Y37768
X33445Y37768
X33445Y38143
X33820Y38143
X34195Y38143
X34570Y38143
X34570Y38518
X34195Y38518
X33820Y38518
X33445Y38518
X32333Y36456
X32070Y36443
X31245Y36213
X30820Y37393
X30445Y37393
X30070Y37393
X29695Y37393
X29320Y37393
X29320Y37768
X29695Y37768
X30070Y37768
X30445Y37768
X30820Y37768
X30820Y38143
X30445Y38143
X30070Y38143
X29695Y38143
X29320Y38143
X29320Y38518
X29695Y38518
X30070Y38518
X30445Y38518
X30820Y38518
X30070Y36068
X29795Y36068
X29520Y36068
X29245Y36068
X28570Y36393
X27645Y36496
X27595Y35643
X27345Y34346
X26237Y33683
X26197Y32418
X27447Y30368
X28147Y31143
X29545Y30268
X29520Y29693
X30572Y29068
X31347Y28918
X31972Y28293
X31947Y27268
X31147Y27268
X31797Y26418
X32047Y25668
X33297Y25668
X33627Y26548
X33122Y27368
X33870Y27993
X33645Y28468
X33195Y28518
X34070Y28643
X34620Y29768
X34620Y30343
X34620Y31118
X34145Y31043
X33945Y31993
X34945Y31768
X35147Y32818
X37672Y32168
X38483Y32568
X38545Y33693
X38645Y34143
X39970Y35643
X40270Y36018
X41170Y36993
X41545Y37343
X41895Y36993
X43820Y36968
X45445Y36143
X45570Y35768
X46070Y35768
X46570Y35768
X46945Y35768
X47320Y35768
X46795Y34318
X47220Y33956
X46945Y33681
X46400Y33551
X45958Y32268
X45358Y32281
X45697Y31021
X46047Y30863
X45970Y30225
X45576Y30006
X45281Y30225
X44695Y29993
X44031Y31088
X43702Y31242
X44230Y31473
X43689Y31936
X42483Y31958
X42365Y31525
X41933Y30768
X41033Y31418
X41037Y32158
X40033Y31543
X40228Y30793
X39270Y30618
X39808Y29518
X38993Y28888
X38777Y28573
X38122Y29468
X39545Y27461
X39885Y27760
X40600Y27136
X40239Y26793
X41500Y26186
X42070Y26746
X42405Y27155
X43095Y26963
X43883Y27275
X44283Y27281
X45121Y27313
X45121Y27746
X43724Y28554
X41783Y29518
X40933Y29118
X38820Y26818
X38677Y26013
X38633Y25418
X37860Y22443
X37395Y21943
X38860Y22243
X41520Y24618
X42491Y25726
X42888Y25151
X43245Y25528
X44056Y24946
X44832Y25616
X45716Y24996
X47413Y24731
X47721Y25529
X47533Y25856
X47183Y25981
X47606Y27293
X47927Y27565
X47642Y28140
X47758Y28681
X48499Y28465
X48645Y28818
X48783Y29681
X47945Y30193
X47995Y30618
X48470Y30674
X48283Y31506
X47012Y31286
X46727Y31551
X47208Y30281
X46939Y29937
X47037Y29504
X46508Y29323
X46120Y29318
X46974Y27813
X46966Y27430
X48658Y27931
X48767Y27393
X49952Y27568
X50499Y28540
X51108Y28081
X51108Y27706
X51145Y26543
X52670Y26245
X52820Y25318
X53595Y24568
X52763Y23761
X51404Y23236
X50995Y23493
X50544Y23359
X49533Y23593
X49358Y24018
X48170Y24043
X47095Y23018
X45820Y22866
X45295Y22555
X45331Y21536
X45331Y20750
X44553Y20203
X44770Y19840
X45371Y19648
X44833Y18629
X44127Y18704
X44069Y19796
X42934Y19754
X43034Y18720
X42625Y18719
X41981Y18719
X41441Y18670
X41921Y19725
X42110Y20407
X42345Y21125
X42420Y21730
X42874Y22668
X43477Y22821
X44077Y21071
X46820Y19643
X45965Y18229
X46383Y17206
X45445Y15018
X45445Y14643
X45445Y14268
X45070Y14268
X44695Y14268
X44695Y14643
X45070Y14643
X45070Y15018
X44695Y15018
X45045Y13218
X45055Y12418
X45055Y11668
X45553Y10273
X45803Y10273
X46213Y9713
X46430Y9323
X46713Y9713
X46990Y9313
X47213Y9713
X47713Y9713
X48213Y9713
X48903Y9713
X49403Y9713
X49903Y9713
X50403Y9713
X50903Y9713
X51313Y10163
X51563Y10163
X52063Y9643
X52553Y10153
X52803Y10153
X53223Y9713
X53723Y9713
X54223Y9713
X54723Y9713
X55223Y9713
X54903Y11303
X54653Y11303
X53873Y11203
X53623Y11203
X52055Y11668
X52055Y12418
X52045Y13218
X52070Y14268
X52445Y14268
X52445Y14643
X52070Y14643
X51695Y14643
X51695Y14268
X51695Y15018
X52070Y15018
X52445Y15018
X52781Y18623
X53464Y18593
X54928Y18589
X54518Y20768
X55570Y21293
X54520Y22445
X55695Y24970
X55714Y25718
X54695Y25445
X53970Y25770
X53920Y27443
X55620Y27543
X57170Y26445
X57195Y25468
X57114Y23543
X57145Y22795
X57114Y20643
X57152Y18585
X57870Y18643
X58581Y18604
X59270Y19196
X59794Y18623
X60270Y19218
X60999Y17878
X59445Y15018
X59445Y14643
X59445Y14268
X59070Y14268
X58695Y14268
X58695Y14643
X59070Y14643
X59070Y15018
X58695Y15018
X59045Y13218
X59045Y12468
X59045Y11718
X57603Y11203
X57353Y11203
X56573Y11303
X56323Y11303
X56473Y9713
X56973Y9713
X57473Y9713
X57973Y9713
X58353Y10153
X58603Y10153
X59083Y9603
X59533Y10153
X59783Y10153
X60193Y9713
X60693Y9713
X61193Y9713
X61693Y9713
X62193Y9713
X61823Y11303
X61573Y11303
X60793Y11223
X60543Y11223
X63185Y8511
X63188Y7781
X63705Y7263
X64435Y7261
X64953Y7781
X64950Y8508
X64433Y9026
X63705Y9026
X65195Y9747
X65195Y11321
X65195Y12896
X65195Y14471
X65195Y16046
X65195Y17621
X65195Y19195
X65195Y20770
X65195Y22345
X65195Y23920
X65195Y25495
X65195Y27069
X64635Y27108
X64085Y27773
X63345Y27093
X62705Y26002
X62352Y26010
X62009Y25999
X61823Y25420
X61355Y25383
X60780Y24808
X60205Y25408
X60805Y25983
X62023Y24795
X62348Y24795
X62698Y24795
X62905Y25402
X62190Y28008
X62003Y29893
X61270Y29918
X62841Y29912
X63436Y29893
X63971Y29900
X65195Y30219
X65195Y28644
X65195Y31794
X65195Y33369
X65195Y34944
X65195Y36518
X65195Y38093
X64070Y38143
X64070Y38643
X64070Y39143
X63570Y38893
X63570Y38393
X63320Y39393
X62820Y39393
X62320Y39393
X61820Y39393
X61320Y39143
X62230Y39997
X61218Y40652
X62269Y41268
X61795Y42368
X61270Y42368
X60820Y42368
X60570Y42893
X60645Y43368
X61220Y44443
X61220Y44843
X61820Y44643
X61820Y43393
X60570Y44643
X60645Y46093
X60195Y46768
X61770Y46768
X61820Y46143
X63185Y46011
X63188Y45281
X63705Y44763
X64435Y44761
X64953Y45281
X64950Y46008
X64433Y46526
X63705Y46526
X63345Y46768
X65195Y44392
X65195Y42818
X65195Y41243
X65195Y39668
X63318Y40652
X62269Y37316
X63343Y36652
X62269Y35971
X61170Y36613
X60220Y38468
X58470Y41993
X56745Y42468
X56745Y41318
X55295Y42818
X55295Y43168
X55295Y43543
X55295Y43918
X54870Y43918
X54920Y42843
X54570Y42843
X51720Y41968
X51320Y41393
X50409Y41623
X50320Y41993
X49345Y42068
X48320Y42893
X47870Y43218
X47820Y43643
X47820Y44143
X48270Y44118
X48695Y43968
X48570Y44768
X48570Y45268
X48070Y45018
X49070Y45018
X49070Y45518
X49570Y45768
X48917Y46768
X47343Y46768
X45768Y46768
X44193Y46768
X44320Y45768
X43320Y44768
X42820Y44768
X41595Y42218
X40995Y41043
X40645Y40218
X40995Y39968
X38570Y38518
X38570Y38143
X38570Y37768
X38570Y37393
X38195Y37393
X37820Y37393
X37445Y37393
X37070Y37393
X37070Y37768
X37445Y37768
X37820Y37768
X38195Y37768
X38195Y38143
X37820Y38143
X37445Y38143
X37070Y38143
X37070Y38518
X37445Y38518
X37820Y38518
X38195Y38518
X38095Y36143
X37570Y36143
X37070Y36143
X36745Y36593
X35120Y36543
X34070Y36168
X33570Y36168
X33070Y36168
X29747Y32443
X30320Y31818
X30447Y30618
X31472Y30218
X32647Y30368
X32645Y29620
X32220Y31343
X29737Y28048
X29717Y27398
X28920Y27493
X28670Y27243
X27972Y28393
X27647Y25668
X29172Y25643
X28758Y23393
X28875Y18578
X29469Y18612
X30188Y18618
X31445Y18593
X31995Y18593
X33443Y18604
X33320Y19743
X33945Y17493
X35734Y18595
X36467Y18629
X37195Y18643
X38270Y18643
X38995Y18617
X37695Y15018
X37695Y14643
X37695Y14268
X37320Y14268
X36945Y14268
X36945Y14643
X37320Y14643
X37320Y15018
X36945Y15018
X37295Y13218
X37305Y12418
X37305Y11668
X38783Y11213
X39023Y11213
X39803Y11303
X40043Y11303
X39923Y9723
X40423Y9723
X39423Y9723
X38923Y9723
X38423Y9723
X38003Y10153
X37763Y10153
X37303Y9643
X36813Y10153
X36573Y10153
X36173Y9723
X35673Y9723
X35173Y9723
X34673Y9723
X34173Y9723
X33733Y9733
X33233Y9733
X32733Y9733
X32223Y9733
X31703Y9733
X31268Y10173
X31038Y10173
X30583Y9643
X30128Y10163
X29888Y10163
X29503Y9723
X29003Y9723
X28503Y9723
X28253Y9723
X27753Y9723
X27253Y9723
X27878Y11343
X28138Y11343
X28888Y11213
X29128Y11213
X30045Y12218
X30595Y11748
X32058Y11213
X32288Y11213
X33158Y12433
X33418Y12433
X34553Y11293
X34803Y11293
X35573Y11203
X35813Y11203
X35998Y7018
X34423Y7018
X32849Y7018
X31274Y7018
X29699Y7018
X28124Y7018
X30045Y13218
X30070Y14268
X29695Y14268
X29695Y14643
X30070Y14643
X30445Y14643
X30445Y14268
X30445Y15018
X30070Y15018
X29695Y15018
X37573Y7018
X39148Y7018
X40723Y7018
X42297Y7018
X43872Y7018
X45447Y7018
X47022Y7018
X48597Y7018
X50171Y7018
X51746Y7018
X53321Y7018
X54896Y7018
X56471Y7018
X58045Y7018
X59620Y7018
X61195Y7018
X62770Y7018
X55973Y9713
X50513Y11203
X50263Y11203
X49463Y11303
X49213Y11303
X47893Y11313
X47643Y11313
X46853Y11213
X46603Y11213
X45063Y9703
X44553Y10273
X44303Y10273
X43913Y9713
X43690Y9323
X43413Y9713
X42913Y9713
X43090Y9323
X42130Y9320
X41890Y9320
X41913Y9713
X42163Y11313
X42413Y11313
X43233Y11203
X43483Y11203
X48427Y18595
X48945Y18831
X49013Y18456
X50134Y18628
X50857Y18637
X51570Y18604
X51120Y19743
X49495Y25843
X50658Y29506
X51895Y30318
X52445Y28493
X49452Y33243
X51533Y33543
X52370Y35868
X52495Y37293
X51145Y37593
X51570Y38343
X51145Y39068
X50320Y39118
X50320Y38368
X49570Y38368
X48820Y38368
X48820Y39118
X49570Y39118
X47320Y38518
X47320Y38143
X47320Y37768
X47320Y37393
X46945Y37393
X46570Y37393
X46195Y37393
X45820Y37393
X45820Y37768
X46195Y37768
X46570Y37768
X46945Y37768
X46945Y38143
X46570Y38143
X46195Y38143
X45820Y38143
X45820Y38518
X46195Y38518
X46570Y38518
X46945Y38518
X46570Y39868
X45820Y39868
X45070Y39868
X44320Y39868
X44320Y40618
X45070Y40618
X45820Y40618
X46570Y40618
X47320Y40618
X47320Y39868
X47320Y41368
X46570Y41368
X45820Y41368
X45070Y41368
X44320Y41368
X42618Y46768
X41043Y46768
X39469Y46768
X39820Y45768
X39320Y44768
X38820Y44768
X37894Y46768
X36319Y46768
X43720Y34543
X44433Y34081
X43958Y33693
X43074Y33454
X45045Y33793
X50320Y35893
X53470Y34793
X53970Y36368
X54220Y36618
X54470Y36368
X54470Y36868
X53970Y36868
X53970Y37718
X55820Y35743
X57320Y37093
X56720Y37743
X57295Y38418
X56720Y39068
X61403Y33172
X61403Y32132
X62269Y31966
X63371Y32660
X62269Y33329
X60095Y31418
X57420Y30993
X49070Y43143
X50720Y44968
X50645Y45718
X51070Y45768
X50895Y46118
X51320Y46268
X52070Y46418
X52067Y46768
X52570Y46418
X52820Y46768
X53070Y46418
X53320Y46768
X53570Y46418
X53820Y46768
X54070Y46418
X54320Y46768
X55045Y46773
X53945Y45843
X52195Y45843
X50492Y46768
X56795Y46773
X58620Y46768
X36372Y28018
X35255Y27663
X34572Y27093
X35597Y26768
X35395Y25943
X35222Y25608
X29195Y33743
T02
X28320Y37893
X28570Y38393
X27820Y38393
X27820Y39143
X28570Y39143
X29320Y39143
X30070Y39143
X30070Y39893
X29320Y39893
X28570Y39893
X27820Y39893
X27820Y40643
X28570Y40643
X29320Y40643
X30070Y40643
X30070Y41393
X29320Y41393
X28570Y41393
X27820Y41393
X27820Y42143
X28570Y42143
X29320Y42143
X30070Y42143
X30820Y42143
X30820Y41393
X30820Y40643
X30820Y39893
X30820Y39143
X31570Y39143
X31570Y38393
X31570Y39893
X33070Y40018
X33070Y39268
X33820Y39268
X34570Y39268
X34070Y40018
X35570Y39893
X35570Y39143
X35570Y38393
X35820Y37893
X36320Y37893
X36320Y38393
X36320Y39143
X37070Y39143
X37070Y39893
X36320Y39893
X37070Y41393
X37070Y42143
X36320Y42143
X35570Y42143
X34570Y42018
X33820Y42018
X33070Y42018
X35320Y37393
X37820Y39143
X38570Y39143
X39320Y39143
X39320Y38393
X39320Y37643
X40070Y37643
X40070Y38393
X40070Y39143
X40070Y39893
X39320Y39893
X38570Y39893
X37820Y39893
X37820Y40643
X38570Y40643
X39320Y40643
X40070Y40643
X40070Y41393
X39320Y41393
X38570Y41393
X37820Y41393
X37820Y42143
X38570Y42143
X39320Y42143
X40070Y42143
X43151Y41912
X43570Y42118
X43570Y41368
X43570Y40618
X43570Y39868
X43070Y39893
X43070Y39143
X43570Y39118
X43570Y38368
X43070Y38393
X43070Y37643
X43570Y37618
X44320Y37618
X45070Y37618
X45070Y38368
X44320Y38368
X44320Y39118
X45070Y39118
X45820Y39118
X46570Y39118
X47320Y39118
X48070Y39118
X48070Y38368
X48070Y37618
X48070Y36868
X48820Y36868
X49570Y36868
X50320Y36868
X50820Y37118
X50320Y37618
X49570Y37618
X48820Y37618
X48820Y39868
X48070Y39868
X48070Y40618
X48070Y41368
X48070Y42118
X47320Y42118
X46570Y42118
X45820Y42118
X45070Y42118
X44320Y42118
X45445Y36518
X45820Y36143
X46320Y36143
X46820Y36143
X49570Y39868
X50320Y39868
X51252Y35793
X54045Y34243
X57470Y39268
X58245Y40043
X58820Y39693
X58795Y39268
X58795Y38868
X58695Y37268
X58645Y40943
X56645Y40818
X55945Y40818
X50108Y31818
X60034Y26745
X60534Y29845
X60209Y30895
X59859Y23645
X60045Y21043
X60034Y19945
X60870Y17018
X60870Y16268
X61620Y16268
X61620Y17018
X62370Y17018
X62270Y15043
X62275Y14453
X61950Y14123
X61355Y13948
X61355Y13198
X60605Y13198
X60605Y13948
X60970Y15043
X61580Y15048
X62105Y13198
X63120Y13018
X60120Y16268
X57695Y15768
X56945Y16018
X56945Y15268
X56195Y15268
X56195Y16018
X54945Y16018
X54945Y15268
X54195Y15268
X54195Y16018
X53120Y15768
X53605Y13968
X54345Y13993
X54720Y13993
X55145Y13988
X55385Y14398
X55705Y14398
X55935Y13988
X56365Y13983
X56750Y13983
X56795Y13208
X56045Y13208
X55105Y13218
X54355Y13218
X53605Y13218
X50545Y13218
X49795Y13218
X49045Y13218
X49005Y13998
X49445Y13993
X49820Y13993
X50545Y13968
X49945Y15268
X49195Y15268
X49195Y16018
X49945Y16018
X50695Y15768
X48755Y14378
X48465Y14378
X48235Y13998
X47770Y13993
X47395Y13993
X47355Y13208
X46605Y13208
X46605Y13958
X47195Y15268
X47945Y15268
X47945Y16018
X47195Y16018
X46145Y15768
X43695Y15768
X42695Y16018
X42695Y15268
X41945Y15268
X41945Y16018
X40445Y16018
X40445Y15268
X39695Y15268
X39695Y16018
X38445Y15768
X38875Y13948
X38875Y13198
X39625Y13198
X40375Y13198
X40345Y13993
X39970Y13993
X40755Y13988
X41055Y14368
X41335Y14368
X41605Y13988
X42045Y13993
X42420Y13993
X42045Y13198
X42795Y13198
X43545Y13198
X43545Y13948
X48105Y13208
X53816Y18937
X57545Y13958
X57545Y13208
X35945Y15768
X35195Y16018
X35195Y15268
X34445Y15268
X34445Y16018
X33395Y15228
X32695Y15038
X33025Y16028
X33105Y17198
X31870Y15768
X31120Y15768
X31675Y13948
X31675Y13198
X32425Y13198
X32500Y13993
X32845Y13993
X33265Y13998
X33545Y14388
X33835Y14388
X34105Y13998
X34545Y13993
X34890Y13993
X35015Y13208
X35765Y13208
X35765Y13958
X34265Y13208
X28695Y15768
X28695Y16268
X27945Y15268
X27195Y15268
X26445Y15268
X26445Y16018
X27195Y16018
X27210Y14463
X27215Y14143
X27215Y13718
X27215Y13418
X26945Y12768
X26945Y12018
X26945Y11268
X26195Y12018
X26195Y12768
X26445Y13518
X26445Y14268
T03
X54045Y35493
X54670Y35368
X54645Y34818
X54670Y34268
X62760Y23083
X63135Y22343
X62635Y21843
X62135Y22343
X61635Y21843
X60970Y22343
T04
X57344Y16701
X56404Y16978
X55345Y16893
X55866Y18556
X50759Y16639
X50001Y16748
X49308Y17443
X47783Y16993
X43645Y16581
X42684Y16884
X41591Y16720
X40583Y17420
X35704Y16731
X34639Y17079
X34633Y18243
X33463Y16653
X28806Y16796
X27720Y16593
X27731Y17537
X31395Y26118
X62788Y13618
T05
X59695Y37993
X58295Y37993
X50070Y43943
X50070Y45343
T06
X42445Y34768
X42445Y33768
X41445Y33768
X41445Y34768
X40445Y34768
X40445Y33768
X37495Y31318
X37495Y30318
X36495Y30318
X36495Y31318
X35495Y31318
X35495Y30318
X28924Y30135
X28137Y30135
X28137Y29151
X28924Y29151
T07
X62820Y20753
X62820Y18784
T08
X58984Y20045
X58984Y21045
X58984Y23145
X58984Y24145
X58984Y26245
X58984Y27245
X58984Y29345
X58984Y30345
X59027Y32215
X60027Y32215
X60027Y33215
X59027Y33215
X58027Y33215
X58027Y32215
X57027Y32215
X56027Y32215
X56027Y33215
X57027Y33215
X55027Y33215
X55027Y32215
X54027Y32215
X54027Y33215
X53027Y33215
X53027Y32215
X52027Y32215
X52027Y33215
X51027Y33215
X51027Y32215
X49570Y34893
X48570Y34893
X47570Y34893
X46570Y34893
X45570Y34893
X44570Y34893
X41995Y38843
X40995Y38843
X37195Y34518
X37195Y33518
X36195Y33518
X35195Y33518
X35195Y34518
X36195Y34518
X34195Y34518
X34195Y33518
X33195Y33518
X32195Y33518
X32195Y34518
X33195Y34518
X31195Y34518
X31195Y33518
X30195Y33518
X30195Y34518
X25430Y37103
X25430Y38883
X25758Y42831
X26758Y42831
X31570Y40643
X32570Y40643
X33570Y40643
X34570Y40643
X35570Y40643
X36570Y40643
X48820Y40643
X49820Y40643
X53277Y30715
X53277Y29715
X54277Y29715
X54277Y30715
X55277Y30715
X55277Y29715
X56277Y29715
X56277Y30715
X61291Y28062
X61291Y27062
X51620Y22399
X51620Y21399
X51620Y20399
X50620Y20399
X50620Y21399
X50620Y22399
X49620Y22399
X49620Y21399
X49620Y20399
X48620Y20399
X47620Y20399
X47620Y21399
X48620Y21399
X48620Y22399
X47620Y22399
X46445Y23393
X46445Y24393
X45445Y24393
X45445Y23393
X44445Y23393
X43445Y23393
X43445Y24393
X44445Y24393
X41359Y23893
X41359Y22893
X40359Y22893
X39359Y22893
X39359Y23893
X40359Y23893
X38359Y23893
X37359Y23893
X37359Y22893
X38359Y22893
X37937Y21143
X38937Y21143
X39937Y21143
X40937Y21143
X35820Y21143
X34820Y21143
X33820Y21143
X33820Y23643
X34820Y23643
X35820Y23643
X31820Y23643
X30820Y23643
X29820Y23643
X29820Y21143
X30820Y21143
X31820Y21143
X27820Y21143
X26820Y21143
X25820Y21143
X25820Y23643
X26820Y23643
X27820Y23643
X29070Y7973
X30070Y7973
X31070Y7973
X32070Y7973
X35043Y7973
X36043Y7973
X37043Y7973
X38043Y7973
X41043Y7973
X42043Y7973
X43043Y7973
X44043Y7973
X46043Y7973
X47043Y7973
X48043Y7973
X49043Y7973
X52043Y7973
X53043Y7973
X54043Y7973
X55043Y7973
X58043Y7973
X59043Y7973
X60043Y7973
X61043Y7973
X64289Y11016
X64289Y12016
X59820Y40343
X58820Y40343
X64724Y43305
T09
X62270Y40643
X62270Y38643
X62270Y36643
X62270Y34643
X62270Y32643
X62270Y30643
X47070Y43643
X45070Y43643
X43070Y43643
X41070Y43643
X39070Y43643
X37070Y43643
X35070Y43643
X33070Y43643
X31070Y43643
X29070Y43643
T10
X26410Y39373
X26410Y36613
T11
X27070Y32006
X27070Y27281
T12
X26070Y45643
X26070Y8143
X64070Y8143
X64070Y45643
M30
