G75*
%MOIN*%
%OFA0B0*%
%FSLAX24Y24*%
%IPPOS*%
%LPD*%
%AMOC8*
5,1,8,0,0,1.08239X$1,22.5*
%
%ADD10C,0.0160*%
%ADD11C,0.0000*%
D10*
X024570Y006643D02*
X024570Y047143D01*
X065570Y047143D01*
X065570Y006643D01*
X024570Y006643D01*
D11*
X025479Y008143D02*
X025481Y008191D01*
X025487Y008239D01*
X025497Y008286D01*
X025510Y008332D01*
X025528Y008377D01*
X025548Y008421D01*
X025573Y008463D01*
X025601Y008502D01*
X025631Y008539D01*
X025665Y008573D01*
X025702Y008605D01*
X025740Y008634D01*
X025781Y008659D01*
X025824Y008681D01*
X025869Y008699D01*
X025915Y008713D01*
X025962Y008724D01*
X026010Y008731D01*
X026058Y008734D01*
X026106Y008733D01*
X026154Y008728D01*
X026202Y008719D01*
X026248Y008707D01*
X026293Y008690D01*
X026337Y008670D01*
X026379Y008647D01*
X026419Y008620D01*
X026457Y008590D01*
X026492Y008557D01*
X026524Y008521D01*
X026554Y008483D01*
X026580Y008442D01*
X026602Y008399D01*
X026622Y008355D01*
X026637Y008310D01*
X026649Y008263D01*
X026657Y008215D01*
X026661Y008167D01*
X026661Y008119D01*
X026657Y008071D01*
X026649Y008023D01*
X026637Y007976D01*
X026622Y007931D01*
X026602Y007887D01*
X026580Y007844D01*
X026554Y007803D01*
X026524Y007765D01*
X026492Y007729D01*
X026457Y007696D01*
X026419Y007666D01*
X026379Y007639D01*
X026337Y007616D01*
X026293Y007596D01*
X026248Y007579D01*
X026202Y007567D01*
X026154Y007558D01*
X026106Y007553D01*
X026058Y007552D01*
X026010Y007555D01*
X025962Y007562D01*
X025915Y007573D01*
X025869Y007587D01*
X025824Y007605D01*
X025781Y007627D01*
X025740Y007652D01*
X025702Y007681D01*
X025665Y007713D01*
X025631Y007747D01*
X025601Y007784D01*
X025573Y007823D01*
X025548Y007865D01*
X025528Y007909D01*
X025510Y007954D01*
X025497Y008000D01*
X025487Y008047D01*
X025481Y008095D01*
X025479Y008143D01*
X025479Y045643D02*
X025481Y045691D01*
X025487Y045739D01*
X025497Y045786D01*
X025510Y045832D01*
X025528Y045877D01*
X025548Y045921D01*
X025573Y045963D01*
X025601Y046002D01*
X025631Y046039D01*
X025665Y046073D01*
X025702Y046105D01*
X025740Y046134D01*
X025781Y046159D01*
X025824Y046181D01*
X025869Y046199D01*
X025915Y046213D01*
X025962Y046224D01*
X026010Y046231D01*
X026058Y046234D01*
X026106Y046233D01*
X026154Y046228D01*
X026202Y046219D01*
X026248Y046207D01*
X026293Y046190D01*
X026337Y046170D01*
X026379Y046147D01*
X026419Y046120D01*
X026457Y046090D01*
X026492Y046057D01*
X026524Y046021D01*
X026554Y045983D01*
X026580Y045942D01*
X026602Y045899D01*
X026622Y045855D01*
X026637Y045810D01*
X026649Y045763D01*
X026657Y045715D01*
X026661Y045667D01*
X026661Y045619D01*
X026657Y045571D01*
X026649Y045523D01*
X026637Y045476D01*
X026622Y045431D01*
X026602Y045387D01*
X026580Y045344D01*
X026554Y045303D01*
X026524Y045265D01*
X026492Y045229D01*
X026457Y045196D01*
X026419Y045166D01*
X026379Y045139D01*
X026337Y045116D01*
X026293Y045096D01*
X026248Y045079D01*
X026202Y045067D01*
X026154Y045058D01*
X026106Y045053D01*
X026058Y045052D01*
X026010Y045055D01*
X025962Y045062D01*
X025915Y045073D01*
X025869Y045087D01*
X025824Y045105D01*
X025781Y045127D01*
X025740Y045152D01*
X025702Y045181D01*
X025665Y045213D01*
X025631Y045247D01*
X025601Y045284D01*
X025573Y045323D01*
X025548Y045365D01*
X025528Y045409D01*
X025510Y045454D01*
X025497Y045500D01*
X025487Y045547D01*
X025481Y045595D01*
X025479Y045643D01*
X063479Y045643D02*
X063481Y045691D01*
X063487Y045739D01*
X063497Y045786D01*
X063510Y045832D01*
X063528Y045877D01*
X063548Y045921D01*
X063573Y045963D01*
X063601Y046002D01*
X063631Y046039D01*
X063665Y046073D01*
X063702Y046105D01*
X063740Y046134D01*
X063781Y046159D01*
X063824Y046181D01*
X063869Y046199D01*
X063915Y046213D01*
X063962Y046224D01*
X064010Y046231D01*
X064058Y046234D01*
X064106Y046233D01*
X064154Y046228D01*
X064202Y046219D01*
X064248Y046207D01*
X064293Y046190D01*
X064337Y046170D01*
X064379Y046147D01*
X064419Y046120D01*
X064457Y046090D01*
X064492Y046057D01*
X064524Y046021D01*
X064554Y045983D01*
X064580Y045942D01*
X064602Y045899D01*
X064622Y045855D01*
X064637Y045810D01*
X064649Y045763D01*
X064657Y045715D01*
X064661Y045667D01*
X064661Y045619D01*
X064657Y045571D01*
X064649Y045523D01*
X064637Y045476D01*
X064622Y045431D01*
X064602Y045387D01*
X064580Y045344D01*
X064554Y045303D01*
X064524Y045265D01*
X064492Y045229D01*
X064457Y045196D01*
X064419Y045166D01*
X064379Y045139D01*
X064337Y045116D01*
X064293Y045096D01*
X064248Y045079D01*
X064202Y045067D01*
X064154Y045058D01*
X064106Y045053D01*
X064058Y045052D01*
X064010Y045055D01*
X063962Y045062D01*
X063915Y045073D01*
X063869Y045087D01*
X063824Y045105D01*
X063781Y045127D01*
X063740Y045152D01*
X063702Y045181D01*
X063665Y045213D01*
X063631Y045247D01*
X063601Y045284D01*
X063573Y045323D01*
X063548Y045365D01*
X063528Y045409D01*
X063510Y045454D01*
X063497Y045500D01*
X063487Y045547D01*
X063481Y045595D01*
X063479Y045643D01*
X063479Y008143D02*
X063481Y008191D01*
X063487Y008239D01*
X063497Y008286D01*
X063510Y008332D01*
X063528Y008377D01*
X063548Y008421D01*
X063573Y008463D01*
X063601Y008502D01*
X063631Y008539D01*
X063665Y008573D01*
X063702Y008605D01*
X063740Y008634D01*
X063781Y008659D01*
X063824Y008681D01*
X063869Y008699D01*
X063915Y008713D01*
X063962Y008724D01*
X064010Y008731D01*
X064058Y008734D01*
X064106Y008733D01*
X064154Y008728D01*
X064202Y008719D01*
X064248Y008707D01*
X064293Y008690D01*
X064337Y008670D01*
X064379Y008647D01*
X064419Y008620D01*
X064457Y008590D01*
X064492Y008557D01*
X064524Y008521D01*
X064554Y008483D01*
X064580Y008442D01*
X064602Y008399D01*
X064622Y008355D01*
X064637Y008310D01*
X064649Y008263D01*
X064657Y008215D01*
X064661Y008167D01*
X064661Y008119D01*
X064657Y008071D01*
X064649Y008023D01*
X064637Y007976D01*
X064622Y007931D01*
X064602Y007887D01*
X064580Y007844D01*
X064554Y007803D01*
X064524Y007765D01*
X064492Y007729D01*
X064457Y007696D01*
X064419Y007666D01*
X064379Y007639D01*
X064337Y007616D01*
X064293Y007596D01*
X064248Y007579D01*
X064202Y007567D01*
X064154Y007558D01*
X064106Y007553D01*
X064058Y007552D01*
X064010Y007555D01*
X063962Y007562D01*
X063915Y007573D01*
X063869Y007587D01*
X063824Y007605D01*
X063781Y007627D01*
X063740Y007652D01*
X063702Y007681D01*
X063665Y007713D01*
X063631Y007747D01*
X063601Y007784D01*
X063573Y007823D01*
X063548Y007865D01*
X063528Y007909D01*
X063510Y007954D01*
X063497Y008000D01*
X063487Y008047D01*
X063481Y008095D01*
X063479Y008143D01*
M02*
