M48
INCH
T173C0.049
T172C0.187
T171C0.020
T170C0.030
T169C0.039
T168C0.079
T167C0.063
T166C0.094
T165C0.051
T164C0.035
T163C0.089
T162C0.038
%
T171
X007283Y080827
X008760Y080827
T170
X007638Y080512
X009114Y080512
T164
X003296Y071802
X003296Y070999
X003296Y070196
X003296Y069393
X004004Y072204
X004004Y071401
X004004Y070598
X004004Y069794
X005898Y073554
X005898Y072550
X005898Y069046
X005898Y068043
T162
X001300Y055800
X001300Y054800
X002300Y055800
X002300Y054800
X009200Y059800
X009200Y058800
X009200Y057800
X009200Y056800
X009200Y055800
X009200Y054800
X009200Y053800
X009200Y052800
X012150Y059800
X012150Y058800
X012150Y057800
X012150Y056800
X012150Y055800
X012150Y054800
X012150Y053800
X012150Y052800
X012200Y072100
X012200Y070100
X012200Y068100
X012350Y073100
X012350Y071100
X012350Y069100
X013200Y073100
X013200Y071100
X013200Y069100
X013350Y072100
X013350Y070100
X013350Y068100
X014600Y073100
X014600Y071100
X014600Y069100
X014750Y072100
X014750Y070100
X014750Y068100
X015600Y072100
X015600Y070100
X015600Y068100
X015750Y073100
X015750Y071100
X015750Y069100
X019050Y055800
X019050Y054800
X020050Y055800
X020050Y054800
T169
X016325Y080300
X016542Y081087
X016542Y079513
X017132Y081678
X017132Y078922
X017900Y081875
X017900Y078725
X018668Y081678
X018668Y078922
X019258Y081087
X019258Y079513
X019475Y080300
T173
X008228Y080472
X009705Y080472
T165
X002300Y073318
X002300Y068279
T167
X001676Y075950
X003644Y075950
X005613Y075950
X007581Y075950
X009550Y075950
X011519Y075950
X013487Y075950
X015456Y075950
X017424Y075950
T168
X007850Y078750
X007874Y081220
X009350Y081220
X017900Y080300
T163
X021750Y080750
X021750Y077500
X021750Y074250
X021750Y071000
X021750Y067750
X021750Y064500
X021750Y061250
X021750Y058000
X021750Y054750
X021750Y051500
X021750Y048250
T166
X003650Y073397
X003650Y068200
T172
X002350Y079700
X005185Y079700
M30
