M48
INCH
T123C0.013
T122C0.020
T121C0.035
T120C0.038
T119C0.035
T118C0.094
T117C0.051
%
T123
X003900Y006247
X003900Y004697
X004050Y008397
X005350Y003250
X005450Y005000
X005500Y004450
X005560Y003830
X005570Y005550
X005600Y006250
X006200Y006150
X007150Y004650
X011050Y009300
X011050Y008950
X011050Y008600
X011500Y009300
X011500Y008950
X011500Y008600
X017830Y008720
X018220Y008720
X018700Y008720
X019090Y008720
X020150Y008100
X020550Y008200
X021600Y008000
X023850Y005247
X024850Y005297
X025900Y005297
X029750Y004150
X030100Y004250
X030550Y004900
X030800Y005250
X032100Y007100
X033000Y005550
X033000Y004550
X035500Y007550
T122
X002650Y008650
X003500Y003347
X005650Y007697
X006300Y006993
X007460Y007160
X007640Y005580
X019600Y003541
X019600Y002450
X021200Y007000
X024500Y009950
X024500Y004447
X025050Y009950
X027300Y006797
X027500Y006350
X027500Y005900
X027700Y004600
X028400Y008800
X028450Y001950
X030800Y008100
X030800Y007400
X030800Y006950
X030800Y006200
X030950Y009000
T121
X002650Y006650
X002900Y004597
X003700Y008850
X021150Y006347
X036250Y004897
T119
X004400Y005906
X004400Y005103
X004400Y004300
X004400Y003497
X005109Y006308
X005109Y005505
X005109Y004702
X005109Y003898
X007002Y007658
X007002Y006654
X007002Y003150
X007002Y002146
X032002Y009006
X032002Y008002
X032002Y004498
X032002Y003494
X033896Y007254
X033896Y006451
X033896Y005648
X033896Y004844
X034604Y007656
X034604Y006852
X034604Y006049
X034604Y005246
T120
X002500Y010000
X003500Y010000
X004500Y010000
X005500Y010000
X006500Y010000
X007500Y010000
X009000Y010000
X009000Y009000
X010000Y010000
X010000Y009000
X012900Y010000
X012900Y009000
X013900Y010000
X013900Y009000
X014900Y010000
X014900Y009000
X015900Y010000
X015900Y009000
X016900Y010000
X016900Y009000
X018850Y007500
X018850Y006500
X018850Y005500
X018850Y004500
X018850Y003500
X018850Y002500
X019850Y010000
X019850Y009000
X020750Y007500
X020750Y002500
X020850Y010000
X020850Y009000
X021750Y007500
X021750Y002500
X021850Y010000
X021850Y009000
X022750Y007500
X022750Y002500
X022850Y010000
X022850Y009000
X023750Y007500
X023750Y002500
X023850Y010000
X023850Y009000
X024750Y007500
X024750Y002500
X025750Y007500
X025750Y002500
X026750Y010000
X026750Y009000
X026750Y007500
X026750Y002500
X027750Y010000
X027750Y009000
X027750Y007500
X027750Y002500
X029750Y010000
X029750Y002500
X030750Y010000
X030750Y002500
X031750Y010000
X031750Y002500
X032750Y010000
X032750Y002500
X033750Y010000
X033750Y002500
X034750Y010000
X034750Y002500
X035750Y010000
X035750Y002500
X036750Y010000
X036750Y002500
T117
X003404Y007422
X003404Y002383
X035600Y008770
X035600Y003730
T118
X004754Y007501
X004754Y002304
X034250Y008848
X034250Y003652
M30
