G04 start of page 10 for group -4063 idx -4063 *
G04 Title: (unknown), componentmask *
G04 Creator: pcb 4.2.0 *
G04 CreationDate: Sat Jun 20 18:17:33 2020 UTC *
G04 For: commonadmin *
G04 Format: Gerber/RS-274X *
G04 PCB-Dimensions (mil): 4000.00 3500.00 *
G04 PCB-Coordinate-Origin: lower left *
%MOIN*%
%FSLAX25Y25*%
%LNTOPMASK*%
%ADD129C,0.0400*%
%ADD128C,0.0660*%
%ADD127C,0.0001*%
%ADD126C,0.0572*%
%ADD125C,0.1162*%
%ADD124C,0.0729*%
G54D124*X34039Y23827D03*
G54D125*X47543Y23039D03*
G54D126*X44000Y51031D03*
Y43000D03*
Y34969D03*
X51087Y47016D03*
Y38984D03*
X70024Y21465D03*
Y31504D03*
G54D127*G36*
X185200Y78300D02*Y71700D01*
X191800D01*
Y78300D01*
X185200D01*
G37*
G54D128*X188500Y65000D03*
Y55000D03*
Y45000D03*
Y35000D03*
Y25000D03*
G54D127*G36*
X125700Y93300D02*Y86700D01*
X132300D01*
Y93300D01*
X125700D01*
G37*
G54D128*X139000Y90000D03*
X149000D03*
X159000D03*
X129000Y100000D03*
X139000D03*
X149000D03*
X159000D03*
X169000D03*
X198500D03*
X169000Y90000D03*
G54D127*G36*
X195200Y93300D02*Y86700D01*
X201800D01*
Y93300D01*
X195200D01*
G37*
G54D128*X208500Y90000D03*
Y100000D03*
G54D127*G36*
X86700Y103300D02*Y96700D01*
X93300D01*
Y103300D01*
X86700D01*
G37*
G54D128*X100000Y100000D03*
X90000Y90000D03*
X100000D03*
G54D126*X44000Y59063D03*
X51087Y55047D03*
Y63079D03*
X70024Y66543D03*
Y76583D03*
G54D124*X34039Y74220D03*
G54D125*X47543Y75008D03*
G54D127*G36*
X21700Y103300D02*Y96700D01*
X28300D01*
Y103300D01*
X21700D01*
G37*
G54D128*X35000Y100000D03*
X45000D03*
X55000D03*
X65000D03*
X75000D03*
G54D126*X338957Y64508D03*
G54D124*X356004Y87697D03*
G54D125*X342500Y88484D03*
G54D126*X346043Y60492D03*
Y68524D03*
Y76555D03*
X320020Y44980D03*
Y34941D03*
G54D124*X356004Y37303D03*
G54D125*X342500Y36516D03*
G54D126*X346043Y52461D03*
X338957Y56476D03*
Y48445D03*
G54D127*G36*
X274200Y28300D02*Y21700D01*
X280800D01*
Y28300D01*
X274200D01*
G37*
G54D128*X267500Y25000D03*
X257500D03*
X247500D03*
X237500D03*
X227500D03*
X217500D03*
X207500D03*
G54D127*G36*
X364200Y28300D02*Y21700D01*
X370800D01*
Y28300D01*
X364200D01*
G37*
G54D128*X357500Y25000D03*
X347500D03*
X337500D03*
X327500D03*
X317500D03*
X307500D03*
X297500D03*
G54D126*X338957Y72539D03*
X320020Y90059D03*
Y80020D03*
G54D127*G36*
X364200Y103300D02*Y96700D01*
X370800D01*
Y103300D01*
X364200D01*
G37*
G54D128*X357500Y100000D03*
X347500D03*
X337500D03*
X327500D03*
X317500D03*
X307500D03*
X297500D03*
G54D127*G36*
X274200Y78300D02*Y71700D01*
X280800D01*
Y78300D01*
X274200D01*
G37*
G54D128*X277500Y90000D03*
Y100000D03*
X267500Y75000D03*
G54D127*G36*
X264200Y103300D02*Y96700D01*
X270800D01*
Y103300D01*
X264200D01*
G37*
G54D128*X267500Y90000D03*
X257500Y75000D03*
X247500D03*
X237500D03*
X227500D03*
X238500Y90000D03*
Y100000D03*
X217500Y75000D03*
X207500D03*
X218500Y90000D03*
Y100000D03*
X228500Y90000D03*
Y100000D03*
G54D129*X110500Y86000D03*
Y89500D03*
Y93000D03*
X115000Y86000D03*
Y89500D03*
Y93000D03*
G54D127*G36*
X103775Y88587D02*Y86413D01*
X105949D01*
Y88587D01*
X103775D01*
G37*
G36*
X101413D02*Y86413D01*
X103587D01*
Y88587D01*
X101413D01*
G37*
M02*
