G04 start of page 3 for group 1 idx 1 *
G04 Title: (unknown), bottom *
G04 Creator: pcb 1.99z *
G04 CreationDate: Sat Nov 14 22:16:55 2015 UTC *
G04 For: commonadmin *
G04 Format: Gerber/RS-274X *
G04 PCB-Dimensions (mil): 1075.00 2975.00 *
G04 PCB-Coordinate-Origin: lower left *
%MOIN*%
%FSLAX25Y25*%
%LNBOTTOM*%
%ADD30C,0.0380*%
%ADD29C,0.0630*%
%ADD28C,0.0354*%
%ADD27C,0.1280*%
%ADD26C,0.0600*%
%ADD25C,0.0827*%
%ADD24C,0.0551*%
%ADD23C,0.1476*%
%ADD22C,0.0100*%
%ADD21C,0.0001*%
G54D21*G36*
X82054Y37168D02*X82205Y36607D01*
X82318Y35969D01*
X82375Y35324D01*
Y34676D01*
X82318Y34031D01*
X82205Y33393D01*
X82054Y32832D01*
Y37168D01*
G37*
G36*
X87730Y71670D02*X89000Y72940D01*
Y4500D01*
X87730D01*
Y20149D01*
X87742Y20160D01*
X87788Y20223D01*
X88018Y20610D01*
X88209Y21018D01*
X88364Y21441D01*
X88481Y21875D01*
X88559Y22319D01*
X88598Y22767D01*
Y23217D01*
X88559Y23666D01*
X88481Y24109D01*
X88364Y24544D01*
X88209Y24966D01*
X88018Y25374D01*
X87792Y25763D01*
X87745Y25827D01*
X87730Y25841D01*
Y71670D01*
G37*
G36*
X82054Y65994D02*X87730Y71670D01*
Y25841D01*
X87687Y25882D01*
X87622Y25927D01*
X87551Y25962D01*
X87475Y25985D01*
X87396Y25996D01*
X87317Y25994D01*
X87239Y25980D01*
X87164Y25954D01*
X87094Y25917D01*
X87031Y25869D01*
X86976Y25812D01*
X86931Y25747D01*
X86896Y25675D01*
X86873Y25599D01*
X86862Y25521D01*
X86864Y25441D01*
X86878Y25363D01*
X86904Y25288D01*
X86942Y25219D01*
X87128Y24908D01*
X87281Y24580D01*
X87406Y24240D01*
X87500Y23891D01*
X87563Y23534D01*
X87594Y23173D01*
Y22811D01*
X87563Y22450D01*
X87500Y22094D01*
X87406Y21744D01*
X87281Y21404D01*
X87128Y21076D01*
X86946Y20763D01*
X86907Y20694D01*
X86882Y20620D01*
X86868Y20542D01*
X86866Y20464D01*
X86877Y20386D01*
X86900Y20310D01*
X86934Y20240D01*
X86979Y20175D01*
X87034Y20118D01*
X87096Y20071D01*
X87166Y20034D01*
X87240Y20008D01*
X87318Y19994D01*
X87396Y19992D01*
X87474Y20003D01*
X87550Y20026D01*
X87620Y20060D01*
X87685Y20105D01*
X87730Y20149D01*
Y4500D01*
X82054D01*
Y18055D01*
X82348Y17976D01*
X82791Y17898D01*
X83239Y17858D01*
X83690D01*
X84138Y17898D01*
X84581Y17976D01*
X85016Y18093D01*
X85439Y18248D01*
X85847Y18439D01*
X86236Y18665D01*
X86299Y18712D01*
X86354Y18769D01*
X86400Y18834D01*
X86434Y18906D01*
X86457Y18982D01*
X86468Y19060D01*
X86467Y19140D01*
X86453Y19218D01*
X86427Y19293D01*
X86389Y19362D01*
X86341Y19426D01*
X86284Y19481D01*
X86219Y19526D01*
X86148Y19561D01*
X86072Y19584D01*
X85993Y19595D01*
X85914Y19593D01*
X85836Y19579D01*
X85761Y19553D01*
X85692Y19514D01*
X85381Y19329D01*
X85053Y19176D01*
X84713Y19051D01*
X84363Y18957D01*
X84006Y18894D01*
X83646Y18862D01*
X83283D01*
X82923Y18894D01*
X82566Y18957D01*
X82216Y19051D01*
X82054Y19111D01*
Y26874D01*
X82216Y26933D01*
X82566Y27027D01*
X82923Y27090D01*
X83283Y27122D01*
X83646D01*
X84006Y27090D01*
X84363Y27027D01*
X84713Y26933D01*
X85053Y26809D01*
X85381Y26655D01*
X85694Y26473D01*
X85762Y26435D01*
X85837Y26409D01*
X85914Y26395D01*
X85993Y26394D01*
X86071Y26404D01*
X86146Y26427D01*
X86217Y26462D01*
X86282Y26507D01*
X86338Y26561D01*
X86386Y26624D01*
X86423Y26693D01*
X86449Y26768D01*
X86463Y26845D01*
X86464Y26924D01*
X86453Y27002D01*
X86431Y27077D01*
X86396Y27148D01*
X86351Y27212D01*
X86297Y27269D01*
X86233Y27315D01*
X85847Y27546D01*
X85439Y27737D01*
X85016Y27891D01*
X84581Y28008D01*
X84138Y28087D01*
X83690Y28126D01*
X83239D01*
X82791Y28087D01*
X82348Y28008D01*
X82054Y27929D01*
Y30458D01*
X82060Y30467D01*
X82431Y31104D01*
X82744Y31771D01*
X82997Y32462D01*
X83189Y33173D01*
X83317Y33898D01*
X83382Y34632D01*
Y35368D01*
X83317Y36102D01*
X83189Y36827D01*
X82997Y37538D01*
X82744Y38229D01*
X82431Y38896D01*
X82060Y39533D01*
X82054Y39542D01*
Y65994D01*
G37*
G36*
X79199Y63139D02*X82054Y65994D01*
Y39542D01*
X81636Y40134D01*
X81582Y40194D01*
X81520Y40244D01*
X81451Y40283D01*
X81376Y40312D01*
X81298Y40328D01*
X81218Y40332D01*
X81139Y40323D01*
X81062Y40302D01*
X80989Y40269D01*
X80922Y40226D01*
X80863Y40172D01*
X80813Y40110D01*
X80774Y40040D01*
X80745Y39966D01*
X80729Y39888D01*
X80725Y39808D01*
X80734Y39729D01*
X80755Y39652D01*
X80788Y39579D01*
X80833Y39513D01*
X81212Y38988D01*
X81538Y38428D01*
X81813Y37841D01*
X82036Y37233D01*
X82054Y37168D01*
Y32832D01*
X82036Y32767D01*
X81813Y32159D01*
X81538Y31572D01*
X81212Y31012D01*
X80838Y30483D01*
X80794Y30418D01*
X80762Y30346D01*
X80741Y30270D01*
X80732Y30192D01*
X80736Y30113D01*
X80752Y30036D01*
X80780Y29963D01*
X80819Y29894D01*
X80869Y29833D01*
X80927Y29780D01*
X80993Y29737D01*
X81064Y29705D01*
X81140Y29684D01*
X81219Y29675D01*
X81297Y29679D01*
X81374Y29695D01*
X81448Y29723D01*
X81516Y29762D01*
X81578Y29811D01*
X81629Y29871D01*
X82054Y30458D01*
Y27929D01*
X81913Y27891D01*
X81490Y27737D01*
X81083Y27546D01*
X80693Y27320D01*
X80630Y27272D01*
X80575Y27215D01*
X80529Y27150D01*
X80495Y27079D01*
X80472Y27003D01*
X80461Y26924D01*
X80462Y26845D01*
X80476Y26767D01*
X80502Y26692D01*
X80540Y26622D01*
X80588Y26559D01*
X80645Y26504D01*
X80710Y26458D01*
X80781Y26424D01*
X80857Y26401D01*
X80936Y26390D01*
X81015Y26391D01*
X81093Y26405D01*
X81168Y26431D01*
X81237Y26470D01*
X81548Y26655D01*
X81876Y26809D01*
X82054Y26874D01*
Y19111D01*
X81876Y19176D01*
X81548Y19329D01*
X81235Y19511D01*
X81167Y19549D01*
X81092Y19575D01*
X81015Y19589D01*
X80936Y19591D01*
X80858Y19580D01*
X80783Y19557D01*
X80712Y19523D01*
X80647Y19478D01*
X80591Y19423D01*
X80543Y19360D01*
X80506Y19291D01*
X80480Y19217D01*
X80466Y19139D01*
X80465Y19060D01*
X80476Y18982D01*
X80498Y18907D01*
X80533Y18836D01*
X80578Y18772D01*
X80632Y18715D01*
X80696Y18669D01*
X81083Y18439D01*
X81490Y18248D01*
X81913Y18093D01*
X82054Y18055D01*
Y4500D01*
X79199D01*
Y20143D01*
X79242Y20102D01*
X79307Y20057D01*
X79378Y20022D01*
X79454Y19999D01*
X79533Y19988D01*
X79612Y19990D01*
X79690Y20004D01*
X79765Y20030D01*
X79835Y20067D01*
X79898Y20115D01*
X79953Y20172D01*
X79998Y20238D01*
X80033Y20309D01*
X80056Y20385D01*
X80067Y20463D01*
X80065Y20543D01*
X80051Y20621D01*
X80025Y20696D01*
X79987Y20765D01*
X79802Y21076D01*
X79648Y21404D01*
X79524Y21744D01*
X79430Y22094D01*
X79366Y22450D01*
X79335Y22811D01*
Y23173D01*
X79366Y23534D01*
X79430Y23891D01*
X79524Y24240D01*
X79648Y24580D01*
X79802Y24908D01*
X79983Y25221D01*
X80022Y25290D01*
X80048Y25364D01*
X80061Y25442D01*
X80063Y25521D01*
X80052Y25599D01*
X80029Y25674D01*
X79995Y25745D01*
X79950Y25809D01*
X79896Y25866D01*
X79833Y25913D01*
X79763Y25951D01*
X79689Y25976D01*
X79612Y25990D01*
X79533Y25992D01*
X79455Y25981D01*
X79380Y25958D01*
X79309Y25924D01*
X79244Y25879D01*
X79199Y25835D01*
Y27746D01*
X79533Y27940D01*
X80134Y28364D01*
X80194Y28418D01*
X80244Y28480D01*
X80283Y28549D01*
X80312Y28624D01*
X80328Y28702D01*
X80332Y28782D01*
X80323Y28861D01*
X80302Y28938D01*
X80269Y29011D01*
X80226Y29078D01*
X80172Y29137D01*
X80110Y29187D01*
X80040Y29226D01*
X79966Y29255D01*
X79888Y29271D01*
X79808Y29275D01*
X79729Y29266D01*
X79652Y29245D01*
X79579Y29212D01*
X79513Y29167D01*
X79199Y28940D01*
Y41063D01*
X79517Y40838D01*
X79582Y40794D01*
X79654Y40762D01*
X79730Y40741D01*
X79808Y40732D01*
X79887Y40736D01*
X79964Y40752D01*
X80037Y40780D01*
X80106Y40819D01*
X80167Y40869D01*
X80220Y40927D01*
X80263Y40993D01*
X80295Y41064D01*
X80316Y41140D01*
X80325Y41219D01*
X80321Y41297D01*
X80305Y41374D01*
X80277Y41448D01*
X80238Y41516D01*
X80189Y41578D01*
X80129Y41629D01*
X79533Y42060D01*
X79199Y42254D01*
Y63139D01*
G37*
G36*
Y28940D02*X78988Y28788D01*
X78428Y28462D01*
X77841Y28187D01*
X77233Y27964D01*
X76607Y27795D01*
X75969Y27682D01*
X75324Y27625D01*
X75004D01*
Y42375D01*
X75324D01*
X75969Y42318D01*
X76607Y42205D01*
X77233Y42036D01*
X77841Y41813D01*
X78428Y41538D01*
X78988Y41212D01*
X79199Y41063D01*
Y28940D01*
G37*
G36*
Y4500D02*X75004D01*
Y26618D01*
X75368D01*
X76102Y26683D01*
X76827Y26811D01*
X77538Y27003D01*
X78229Y27256D01*
X78896Y27569D01*
X79199Y27746D01*
Y25835D01*
X79187Y25824D01*
X79141Y25761D01*
X78911Y25374D01*
X78720Y24966D01*
X78566Y24544D01*
X78449Y24109D01*
X78370Y23666D01*
X78331Y23217D01*
Y22767D01*
X78370Y22319D01*
X78449Y21875D01*
X78566Y21441D01*
X78720Y21018D01*
X78911Y20610D01*
X79137Y20221D01*
X79184Y20157D01*
X79199Y20143D01*
Y4500D01*
G37*
G36*
X75004Y58944D02*X79199Y63139D01*
Y42254D01*
X78896Y42431D01*
X78229Y42744D01*
X77538Y42997D01*
X76827Y43189D01*
X76102Y43317D01*
X75368Y43382D01*
X75004D01*
Y58944D01*
G37*
G36*
X67946Y52189D02*X68048Y52214D01*
X68266Y52304D01*
X68467Y52427D01*
X68647Y52581D01*
X68685Y52625D01*
X75004Y58944D01*
Y43382D01*
X74632D01*
X73898Y43317D01*
X73173Y43189D01*
X72462Y42997D01*
X71771Y42744D01*
X71104Y42431D01*
X70467Y42060D01*
X69866Y41636D01*
X69806Y41582D01*
X69756Y41520D01*
X69717Y41451D01*
X69688Y41376D01*
X69672Y41298D01*
X69668Y41218D01*
X69677Y41139D01*
X69698Y41062D01*
X69731Y40989D01*
X69774Y40922D01*
X69828Y40863D01*
X69890Y40813D01*
X69960Y40774D01*
X70034Y40745D01*
X70112Y40729D01*
X70192Y40725D01*
X70271Y40734D01*
X70348Y40755D01*
X70421Y40788D01*
X70487Y40833D01*
X71012Y41212D01*
X71572Y41538D01*
X72159Y41813D01*
X72767Y42036D01*
X73393Y42205D01*
X74031Y42318D01*
X74676Y42375D01*
X75004D01*
Y27625D01*
X74676D01*
X74031Y27682D01*
X73393Y27795D01*
X72767Y27964D01*
X72159Y28187D01*
X71572Y28462D01*
X71012Y28788D01*
X70483Y29162D01*
X70418Y29206D01*
X70346Y29238D01*
X70270Y29259D01*
X70192Y29268D01*
X70113Y29264D01*
X70036Y29248D01*
X69963Y29220D01*
X69894Y29181D01*
X69833Y29131D01*
X69780Y29073D01*
X69737Y29007D01*
X69705Y28936D01*
X69684Y28860D01*
X69675Y28781D01*
X69679Y28703D01*
X69695Y28626D01*
X69723Y28552D01*
X69762Y28484D01*
X69811Y28422D01*
X69871Y28371D01*
X70467Y27940D01*
X71104Y27569D01*
X71771Y27256D01*
X72462Y27003D01*
X73173Y26811D01*
X73898Y26683D01*
X74632Y26618D01*
X75004D01*
Y4500D01*
X67946D01*
Y30458D01*
X68364Y29866D01*
X68418Y29806D01*
X68480Y29756D01*
X68549Y29717D01*
X68624Y29688D01*
X68702Y29672D01*
X68782Y29668D01*
X68861Y29677D01*
X68938Y29698D01*
X69011Y29731D01*
X69078Y29774D01*
X69137Y29828D01*
X69187Y29890D01*
X69226Y29960D01*
X69255Y30034D01*
X69271Y30112D01*
X69275Y30192D01*
X69266Y30271D01*
X69245Y30348D01*
X69212Y30421D01*
X69167Y30487D01*
X68788Y31012D01*
X68462Y31572D01*
X68187Y32159D01*
X67964Y32767D01*
X67946Y32832D01*
Y37168D01*
X67964Y37233D01*
X68187Y37841D01*
X68462Y38428D01*
X68788Y38988D01*
X69162Y39517D01*
X69206Y39582D01*
X69238Y39654D01*
X69259Y39730D01*
X69268Y39808D01*
X69264Y39887D01*
X69248Y39964D01*
X69220Y40037D01*
X69181Y40106D01*
X69131Y40167D01*
X69073Y40220D01*
X69007Y40263D01*
X68936Y40295D01*
X68860Y40316D01*
X68781Y40325D01*
X68703Y40321D01*
X68626Y40305D01*
X68552Y40277D01*
X68484Y40238D01*
X68422Y40189D01*
X68371Y40129D01*
X67946Y39542D01*
Y52189D01*
G37*
G36*
Y32832D02*X67795Y33393D01*
X67682Y34031D01*
X67625Y34676D01*
Y35324D01*
X67682Y35969D01*
X67795Y36607D01*
X67946Y37168D01*
Y32832D01*
G37*
G36*
X49994Y52144D02*X67524D01*
X67583Y52140D01*
X67818Y52158D01*
X67818Y52158D01*
X67946Y52189D01*
Y39542D01*
X67940Y39533D01*
X67569Y38896D01*
X67256Y38229D01*
X67003Y37538D01*
X66811Y36827D01*
X66683Y36102D01*
X66618Y35368D01*
Y34632D01*
X66683Y33898D01*
X66811Y33173D01*
X67003Y32462D01*
X67256Y31771D01*
X67569Y31104D01*
X67940Y30467D01*
X67946Y30458D01*
Y4500D01*
X49994D01*
Y52144D01*
G37*
G36*
X62560Y57145D02*X59976D01*
X58496Y58625D01*
X58583Y58836D01*
X58721Y59411D01*
X58756Y60000D01*
X58721Y60589D01*
X58583Y61164D01*
X58357Y61710D01*
X58048Y62214D01*
X57664Y62664D01*
X57214Y63048D01*
X56710Y63357D01*
X56164Y63583D01*
X55589Y63721D01*
X55000Y63767D01*
X54411Y63721D01*
X53836Y63583D01*
X53290Y63357D01*
X52786Y63048D01*
X52336Y62664D01*
X51952Y62214D01*
X51643Y61710D01*
X51417Y61164D01*
X51279Y60589D01*
X51233Y60000D01*
X51279Y59411D01*
X51417Y58836D01*
X51643Y58290D01*
X51952Y57786D01*
X52336Y57336D01*
X52786Y56952D01*
X53290Y56643D01*
X53836Y56417D01*
X54411Y56279D01*
X55000Y56233D01*
X55589Y56279D01*
X56164Y56417D01*
X56375Y56504D01*
X57734Y55144D01*
X49994D01*
Y66233D01*
X50000Y66233D01*
X50589Y66279D01*
X51164Y66417D01*
X51710Y66643D01*
X52214Y66952D01*
X52664Y67336D01*
X53048Y67786D01*
X53357Y68290D01*
X53583Y68836D01*
X53721Y69411D01*
X53756Y70000D01*
X53721Y70589D01*
X53583Y71164D01*
X53357Y71710D01*
X53048Y72214D01*
X52664Y72664D01*
X52214Y73048D01*
X51710Y73357D01*
X51164Y73583D01*
X50589Y73721D01*
X50000Y73767D01*
X49994Y73767D01*
Y92746D01*
X63500Y79240D01*
Y71365D01*
X63357Y71710D01*
X63048Y72214D01*
X62664Y72664D01*
X62214Y73048D01*
X61710Y73357D01*
X61164Y73583D01*
X60589Y73721D01*
X60000Y73767D01*
X59411Y73721D01*
X58836Y73583D01*
X58290Y73357D01*
X57786Y73048D01*
X57336Y72664D01*
X56952Y72214D01*
X56643Y71710D01*
X56417Y71164D01*
X56279Y70589D01*
X56233Y70000D01*
X56279Y69411D01*
X56417Y68836D01*
X56643Y68290D01*
X56952Y67786D01*
X57336Y67336D01*
X57786Y66952D01*
X58290Y66643D01*
X58836Y66417D01*
X59411Y66279D01*
X60000Y66233D01*
X60589Y66279D01*
X61164Y66417D01*
X61710Y66643D01*
X62214Y66952D01*
X62664Y67336D01*
X63048Y67786D01*
X63357Y68290D01*
X63500Y68635D01*
Y63444D01*
X63290Y63357D01*
X62786Y63048D01*
X62336Y62664D01*
X61952Y62214D01*
X61643Y61710D01*
X61417Y61164D01*
X61279Y60589D01*
X61233Y60000D01*
X61279Y59411D01*
X61417Y58836D01*
X61643Y58290D01*
X61952Y57786D01*
X62336Y57336D01*
X62560Y57145D01*
G37*
G36*
X37054Y37168D02*X37205Y36607D01*
X37318Y35969D01*
X37375Y35324D01*
Y34676D01*
X37318Y34031D01*
X37205Y33393D01*
X37054Y32832D01*
Y37168D01*
G37*
G36*
Y97168D02*X37205Y96607D01*
X37318Y95969D01*
X37375Y95324D01*
Y94676D01*
X37318Y94031D01*
X37205Y93393D01*
X37054Y92832D01*
Y97168D01*
G37*
G36*
Y55825D02*X40253Y52625D01*
X40292Y52581D01*
X40471Y52427D01*
X40672Y52304D01*
X40891Y52214D01*
X41120Y52158D01*
X41356Y52140D01*
X41414Y52144D01*
X49994D01*
Y4500D01*
X37054D01*
Y30458D01*
X37060Y30467D01*
X37431Y31104D01*
X37744Y31771D01*
X37997Y32462D01*
X38189Y33173D01*
X38317Y33898D01*
X38382Y34632D01*
Y35368D01*
X38317Y36102D01*
X38189Y36827D01*
X37997Y37538D01*
X37744Y38229D01*
X37431Y38896D01*
X37060Y39533D01*
X37054Y39542D01*
Y55825D01*
G37*
G36*
X49994Y55144D02*X44994D01*
Y56233D01*
X45000Y56233D01*
X45589Y56279D01*
X46164Y56417D01*
X46710Y56643D01*
X47214Y56952D01*
X47664Y57336D01*
X48048Y57786D01*
X48357Y58290D01*
X48583Y58836D01*
X48721Y59411D01*
X48756Y60000D01*
X48721Y60589D01*
X48583Y61164D01*
X48357Y61710D01*
X48048Y62214D01*
X47664Y62664D01*
X47214Y63048D01*
X46710Y63357D01*
X46164Y63583D01*
X45589Y63721D01*
X45000Y63767D01*
X44994Y63767D01*
Y97746D01*
X49994Y92746D01*
Y73767D01*
X49411Y73721D01*
X48836Y73583D01*
X48290Y73357D01*
X47786Y73048D01*
X47336Y72664D01*
X46952Y72214D01*
X46643Y71710D01*
X46417Y71164D01*
X46279Y70589D01*
X46233Y70000D01*
X46279Y69411D01*
X46417Y68836D01*
X46643Y68290D01*
X46952Y67786D01*
X47336Y67336D01*
X47786Y66952D01*
X48290Y66643D01*
X48836Y66417D01*
X49411Y66279D01*
X49994Y66233D01*
Y55144D01*
G37*
G36*
X44994D02*X41977D01*
X38496Y58625D01*
X38583Y58836D01*
X38721Y59411D01*
X38756Y60000D01*
X38721Y60589D01*
X38583Y61164D01*
X38357Y61710D01*
X38048Y62214D01*
X37664Y62664D01*
X37214Y63048D01*
X37054Y63147D01*
Y67667D01*
X37336Y67336D01*
X37786Y66952D01*
X38290Y66643D01*
X38836Y66417D01*
X39411Y66279D01*
X40000Y66233D01*
X40589Y66279D01*
X41164Y66417D01*
X41710Y66643D01*
X42214Y66952D01*
X42664Y67336D01*
X43048Y67786D01*
X43357Y68290D01*
X43583Y68836D01*
X43721Y69411D01*
X43756Y70000D01*
X43721Y70589D01*
X43583Y71164D01*
X43357Y71710D01*
X43048Y72214D01*
X42664Y72664D01*
X42214Y73048D01*
X41710Y73357D01*
X41164Y73583D01*
X40589Y73721D01*
X40000Y73767D01*
X39411Y73721D01*
X38836Y73583D01*
X38290Y73357D01*
X37786Y73048D01*
X37336Y72664D01*
X37054Y72333D01*
Y90458D01*
X37060Y90467D01*
X37431Y91104D01*
X37744Y91771D01*
X37997Y92462D01*
X38189Y93173D01*
X38317Y93898D01*
X38382Y94632D01*
Y95368D01*
X38317Y96102D01*
X38189Y96827D01*
X37997Y97538D01*
X37744Y98229D01*
X37431Y98896D01*
X37060Y99533D01*
X37054Y99542D01*
Y117667D01*
X37336Y117336D01*
X37786Y116952D01*
X38290Y116643D01*
X38500Y116556D01*
Y104920D01*
X38495Y104861D01*
X38514Y104626D01*
X38569Y104396D01*
X38659Y104178D01*
X38783Y103977D01*
X38783Y103977D01*
X38936Y103797D01*
X38981Y103759D01*
X44994Y97746D01*
Y63767D01*
X44411Y63721D01*
X43836Y63583D01*
X43290Y63357D01*
X42786Y63048D01*
X42336Y62664D01*
X41952Y62214D01*
X41643Y61710D01*
X41417Y61164D01*
X41279Y60589D01*
X41233Y60000D01*
X41279Y59411D01*
X41417Y58836D01*
X41643Y58290D01*
X41952Y57786D01*
X42336Y57336D01*
X42786Y56952D01*
X43290Y56643D01*
X43836Y56417D01*
X44411Y56279D01*
X44994Y56233D01*
Y55144D01*
G37*
G36*
X37054Y72333D02*X36952Y72214D01*
X36643Y71710D01*
X36556Y71500D01*
X30004D01*
Y86618D01*
X30368D01*
X31102Y86683D01*
X31827Y86811D01*
X32538Y87003D01*
X33229Y87256D01*
X33896Y87569D01*
X34533Y87940D01*
X35134Y88364D01*
X35194Y88418D01*
X35244Y88480D01*
X35283Y88549D01*
X35312Y88624D01*
X35328Y88702D01*
X35332Y88782D01*
X35323Y88861D01*
X35302Y88938D01*
X35269Y89011D01*
X35226Y89078D01*
X35172Y89137D01*
X35110Y89187D01*
X35040Y89226D01*
X34966Y89255D01*
X34888Y89271D01*
X34808Y89275D01*
X34729Y89266D01*
X34652Y89245D01*
X34579Y89212D01*
X34513Y89167D01*
X33988Y88788D01*
X33428Y88462D01*
X32841Y88187D01*
X32233Y87964D01*
X31607Y87795D01*
X30969Y87682D01*
X30324Y87625D01*
X30004D01*
Y102375D01*
X30324D01*
X30969Y102318D01*
X31607Y102205D01*
X32233Y102036D01*
X32841Y101813D01*
X33428Y101538D01*
X33988Y101212D01*
X34517Y100838D01*
X34582Y100794D01*
X34654Y100762D01*
X34730Y100741D01*
X34808Y100732D01*
X34887Y100736D01*
X34964Y100752D01*
X35037Y100780D01*
X35106Y100819D01*
X35167Y100869D01*
X35220Y100927D01*
X35263Y100993D01*
X35295Y101064D01*
X35316Y101140D01*
X35325Y101219D01*
X35321Y101297D01*
X35305Y101374D01*
X35277Y101448D01*
X35238Y101516D01*
X35189Y101578D01*
X35129Y101629D01*
X34533Y102060D01*
X33896Y102431D01*
X33229Y102744D01*
X32538Y102997D01*
X31827Y103189D01*
X31102Y103317D01*
X30368Y103382D01*
X30004D01*
Y123999D01*
X33879D01*
X36504Y121375D01*
X36417Y121164D01*
X36279Y120589D01*
X36233Y120000D01*
X36279Y119411D01*
X36417Y118836D01*
X36643Y118290D01*
X36952Y117786D01*
X37054Y117667D01*
Y99542D01*
X36636Y100134D01*
X36582Y100194D01*
X36520Y100244D01*
X36451Y100283D01*
X36376Y100312D01*
X36298Y100328D01*
X36218Y100332D01*
X36139Y100323D01*
X36062Y100302D01*
X35989Y100269D01*
X35922Y100226D01*
X35863Y100172D01*
X35813Y100110D01*
X35774Y100040D01*
X35745Y99966D01*
X35729Y99888D01*
X35725Y99808D01*
X35734Y99729D01*
X35755Y99652D01*
X35788Y99579D01*
X35833Y99513D01*
X36212Y98988D01*
X36538Y98428D01*
X36813Y97841D01*
X37036Y97233D01*
X37054Y97168D01*
Y92832D01*
X37036Y92767D01*
X36813Y92159D01*
X36538Y91572D01*
X36212Y91012D01*
X35838Y90483D01*
X35794Y90418D01*
X35762Y90346D01*
X35741Y90270D01*
X35732Y90192D01*
X35736Y90113D01*
X35752Y90036D01*
X35780Y89963D01*
X35819Y89894D01*
X35869Y89833D01*
X35927Y89780D01*
X35993Y89737D01*
X36064Y89705D01*
X36140Y89684D01*
X36219Y89675D01*
X36297Y89679D01*
X36374Y89695D01*
X36448Y89723D01*
X36516Y89762D01*
X36578Y89811D01*
X36629Y89871D01*
X37054Y90458D01*
Y72333D01*
G37*
G36*
Y63147D02*X36710Y63357D01*
X36164Y63583D01*
X35589Y63721D01*
X35000Y63767D01*
X34411Y63721D01*
X33836Y63583D01*
X33290Y63357D01*
X32786Y63048D01*
X32336Y62664D01*
X31952Y62214D01*
X31643Y61710D01*
X31417Y61164D01*
X31279Y60589D01*
X31233Y60000D01*
X31279Y59411D01*
X31417Y58836D01*
X31643Y58290D01*
X31952Y57786D01*
X32336Y57336D01*
X32786Y56952D01*
X33290Y56643D01*
X33836Y56417D01*
X34411Y56279D01*
X35000Y56233D01*
X35589Y56279D01*
X36164Y56417D01*
X36375Y56504D01*
X37054Y55825D01*
Y39542D01*
X36636Y40134D01*
X36582Y40194D01*
X36520Y40244D01*
X36451Y40283D01*
X36376Y40312D01*
X36298Y40328D01*
X36218Y40332D01*
X36139Y40323D01*
X36062Y40302D01*
X35989Y40269D01*
X35922Y40226D01*
X35863Y40172D01*
X35813Y40110D01*
X35774Y40040D01*
X35745Y39966D01*
X35729Y39888D01*
X35725Y39808D01*
X35734Y39729D01*
X35755Y39652D01*
X35788Y39579D01*
X35833Y39513D01*
X36212Y38988D01*
X36538Y38428D01*
X36813Y37841D01*
X37036Y37233D01*
X37054Y37168D01*
Y32832D01*
X37036Y32767D01*
X36813Y32159D01*
X36538Y31572D01*
X36212Y31012D01*
X35838Y30483D01*
X35794Y30418D01*
X35762Y30346D01*
X35741Y30270D01*
X35732Y30192D01*
X35736Y30113D01*
X35752Y30036D01*
X35780Y29963D01*
X35819Y29894D01*
X35869Y29833D01*
X35927Y29780D01*
X35993Y29737D01*
X36064Y29705D01*
X36140Y29684D01*
X36219Y29675D01*
X36297Y29679D01*
X36374Y29695D01*
X36448Y29723D01*
X36516Y29762D01*
X36578Y29811D01*
X36629Y29871D01*
X37054Y30458D01*
Y4500D01*
X30004D01*
Y26618D01*
X30368D01*
X31102Y26683D01*
X31827Y26811D01*
X32538Y27003D01*
X33229Y27256D01*
X33896Y27569D01*
X34533Y27940D01*
X35134Y28364D01*
X35194Y28418D01*
X35244Y28480D01*
X35283Y28549D01*
X35312Y28624D01*
X35328Y28702D01*
X35332Y28782D01*
X35323Y28861D01*
X35302Y28938D01*
X35269Y29011D01*
X35226Y29078D01*
X35172Y29137D01*
X35110Y29187D01*
X35040Y29226D01*
X34966Y29255D01*
X34888Y29271D01*
X34808Y29275D01*
X34729Y29266D01*
X34652Y29245D01*
X34579Y29212D01*
X34513Y29167D01*
X33988Y28788D01*
X33428Y28462D01*
X32841Y28187D01*
X32233Y27964D01*
X31607Y27795D01*
X30969Y27682D01*
X30324Y27625D01*
X30004D01*
Y42375D01*
X30324D01*
X30969Y42318D01*
X31607Y42205D01*
X32233Y42036D01*
X32841Y41813D01*
X33428Y41538D01*
X33988Y41212D01*
X34517Y40838D01*
X34582Y40794D01*
X34654Y40762D01*
X34730Y40741D01*
X34808Y40732D01*
X34887Y40736D01*
X34964Y40752D01*
X35037Y40780D01*
X35106Y40819D01*
X35167Y40869D01*
X35220Y40927D01*
X35263Y40993D01*
X35295Y41064D01*
X35316Y41140D01*
X35325Y41219D01*
X35321Y41297D01*
X35305Y41374D01*
X35277Y41448D01*
X35238Y41516D01*
X35189Y41578D01*
X35129Y41629D01*
X34533Y42060D01*
X33896Y42431D01*
X33229Y42744D01*
X32538Y42997D01*
X31827Y43189D01*
X31102Y43317D01*
X30368Y43382D01*
X30004D01*
Y68500D01*
X36556D01*
X36643Y68290D01*
X36952Y67786D01*
X37054Y67667D01*
Y63147D01*
G37*
G36*
X25801Y101060D02*X26012Y101212D01*
X26572Y101538D01*
X27159Y101813D01*
X27767Y102036D01*
X28393Y102205D01*
X29031Y102318D01*
X29676Y102375D01*
X30004D01*
Y87625D01*
X29676D01*
X29031Y87682D01*
X28393Y87795D01*
X27767Y87964D01*
X27159Y88187D01*
X26572Y88462D01*
X26012Y88788D01*
X25801Y88937D01*
Y101060D01*
G37*
G36*
Y123999D02*X30004D01*
Y103382D01*
X29632D01*
X28898Y103317D01*
X28173Y103189D01*
X27462Y102997D01*
X26771Y102744D01*
X26104Y102431D01*
X25801Y102254D01*
Y123999D01*
G37*
G36*
X30004Y71500D02*X27087D01*
X25801Y72786D01*
Y80149D01*
X25813Y80160D01*
X25859Y80223D01*
X26089Y80610D01*
X26280Y81018D01*
X26434Y81441D01*
X26551Y81875D01*
X26630Y82319D01*
X26669Y82767D01*
Y83217D01*
X26630Y83666D01*
X26551Y84109D01*
X26434Y84544D01*
X26280Y84966D01*
X26089Y85374D01*
X25863Y85763D01*
X25816Y85827D01*
X25801Y85841D01*
Y87746D01*
X26104Y87569D01*
X26771Y87256D01*
X27462Y87003D01*
X28173Y86811D01*
X28898Y86683D01*
X29632Y86618D01*
X30004D01*
Y71500D01*
G37*
G36*
X25801Y72786D02*X22946Y75641D01*
Y78055D01*
X23087Y78093D01*
X23510Y78248D01*
X23917Y78439D01*
X24307Y78665D01*
X24370Y78712D01*
X24425Y78769D01*
X24471Y78834D01*
X24505Y78906D01*
X24528Y78982D01*
X24539Y79060D01*
X24538Y79140D01*
X24524Y79218D01*
X24498Y79293D01*
X24460Y79362D01*
X24412Y79426D01*
X24355Y79481D01*
X24290Y79526D01*
X24219Y79561D01*
X24143Y79584D01*
X24064Y79595D01*
X23985Y79593D01*
X23907Y79579D01*
X23832Y79553D01*
X23763Y79514D01*
X23452Y79329D01*
X23124Y79176D01*
X22946Y79111D01*
Y86874D01*
X23124Y86809D01*
X23452Y86655D01*
X23765Y86473D01*
X23833Y86435D01*
X23908Y86409D01*
X23985Y86395D01*
X24064Y86394D01*
X24142Y86404D01*
X24217Y86427D01*
X24288Y86462D01*
X24353Y86507D01*
X24409Y86561D01*
X24457Y86624D01*
X24494Y86693D01*
X24520Y86768D01*
X24534Y86845D01*
X24535Y86924D01*
X24524Y87002D01*
X24502Y87077D01*
X24467Y87148D01*
X24422Y87212D01*
X24368Y87269D01*
X24304Y87315D01*
X23917Y87546D01*
X23510Y87737D01*
X23087Y87891D01*
X22946Y87929D01*
Y90458D01*
X23364Y89866D01*
X23418Y89806D01*
X23480Y89756D01*
X23549Y89717D01*
X23624Y89688D01*
X23702Y89672D01*
X23782Y89668D01*
X23861Y89677D01*
X23938Y89698D01*
X24011Y89731D01*
X24078Y89774D01*
X24137Y89828D01*
X24187Y89890D01*
X24226Y89960D01*
X24255Y90034D01*
X24271Y90112D01*
X24275Y90192D01*
X24266Y90271D01*
X24245Y90348D01*
X24212Y90421D01*
X24167Y90487D01*
X23788Y91012D01*
X23462Y91572D01*
X23187Y92159D01*
X22964Y92767D01*
X22946Y92832D01*
Y97168D01*
X22964Y97233D01*
X23187Y97841D01*
X23462Y98428D01*
X23788Y98988D01*
X24162Y99517D01*
X24206Y99582D01*
X24238Y99654D01*
X24259Y99730D01*
X24268Y99808D01*
X24264Y99887D01*
X24248Y99964D01*
X24220Y100037D01*
X24181Y100106D01*
X24131Y100167D01*
X24073Y100220D01*
X24007Y100263D01*
X23936Y100295D01*
X23860Y100316D01*
X23781Y100325D01*
X23703Y100321D01*
X23626Y100305D01*
X23552Y100277D01*
X23484Y100238D01*
X23422Y100189D01*
X23371Y100129D01*
X22946Y99542D01*
Y123999D01*
X25801D01*
Y102254D01*
X25467Y102060D01*
X24866Y101636D01*
X24806Y101582D01*
X24756Y101520D01*
X24717Y101451D01*
X24688Y101376D01*
X24672Y101298D01*
X24668Y101218D01*
X24677Y101139D01*
X24698Y101062D01*
X24731Y100989D01*
X24774Y100922D01*
X24828Y100863D01*
X24890Y100813D01*
X24960Y100774D01*
X25034Y100745D01*
X25112Y100729D01*
X25192Y100725D01*
X25271Y100734D01*
X25348Y100755D01*
X25421Y100788D01*
X25487Y100833D01*
X25801Y101060D01*
Y88937D01*
X25483Y89162D01*
X25418Y89206D01*
X25346Y89238D01*
X25270Y89259D01*
X25192Y89268D01*
X25113Y89264D01*
X25036Y89248D01*
X24963Y89220D01*
X24894Y89181D01*
X24833Y89131D01*
X24780Y89073D01*
X24737Y89007D01*
X24705Y88936D01*
X24684Y88860D01*
X24675Y88781D01*
X24679Y88703D01*
X24695Y88626D01*
X24723Y88552D01*
X24762Y88484D01*
X24811Y88422D01*
X24871Y88371D01*
X25467Y87940D01*
X25801Y87746D01*
Y85841D01*
X25758Y85882D01*
X25693Y85927D01*
X25622Y85962D01*
X25546Y85985D01*
X25467Y85996D01*
X25388Y85994D01*
X25310Y85980D01*
X25235Y85954D01*
X25165Y85917D01*
X25102Y85869D01*
X25047Y85812D01*
X25002Y85747D01*
X24967Y85675D01*
X24944Y85599D01*
X24933Y85521D01*
X24935Y85441D01*
X24949Y85363D01*
X24975Y85288D01*
X25013Y85219D01*
X25198Y84908D01*
X25352Y84580D01*
X25476Y84240D01*
X25570Y83891D01*
X25634Y83534D01*
X25665Y83173D01*
Y82811D01*
X25634Y82450D01*
X25570Y82094D01*
X25476Y81744D01*
X25352Y81404D01*
X25198Y81076D01*
X25017Y80763D01*
X24978Y80694D01*
X24952Y80620D01*
X24939Y80542D01*
X24937Y80464D01*
X24948Y80386D01*
X24971Y80310D01*
X25005Y80240D01*
X25050Y80175D01*
X25104Y80118D01*
X25167Y80071D01*
X25237Y80034D01*
X25311Y80008D01*
X25388Y79994D01*
X25467Y79992D01*
X25545Y80003D01*
X25620Y80026D01*
X25691Y80060D01*
X25756Y80105D01*
X25801Y80149D01*
Y72786D01*
G37*
G36*
X22946Y92832D02*X22795Y93393D01*
X22682Y94031D01*
X22625Y94676D01*
Y95324D01*
X22682Y95969D01*
X22795Y96607D01*
X22946Y97168D01*
Y92832D01*
G37*
G36*
Y79111D02*X22784Y79051D01*
X22434Y78957D01*
X22077Y78894D01*
X21716Y78862D01*
X21354D01*
X20994Y78894D01*
X20637Y78957D01*
X20287Y79051D01*
X19947Y79176D01*
X19619Y79329D01*
X19306Y79511D01*
X19238Y79549D01*
X19163Y79575D01*
X19086Y79589D01*
X19007Y79591D01*
X18998Y79589D01*
X18136Y80451D01*
X18138Y80463D01*
X18136Y80543D01*
X18122Y80621D01*
X18096Y80696D01*
X18058Y80765D01*
X17872Y81076D01*
X17719Y81404D01*
X17594Y81744D01*
X17500Y82094D01*
X17437Y82450D01*
X17406Y82811D01*
Y83173D01*
X17437Y83534D01*
X17500Y83891D01*
X17594Y84240D01*
X17719Y84580D01*
X17872Y84908D01*
X18054Y85221D01*
X18093Y85290D01*
X18118Y85364D01*
X18132Y85442D01*
X18134Y85521D01*
X18123Y85599D01*
X18100Y85674D01*
X18066Y85745D01*
X18021Y85809D01*
X17966Y85866D01*
X17904Y85913D01*
X17834Y85951D01*
X17760Y85976D01*
X17682Y85990D01*
X17604Y85992D01*
X17526Y85981D01*
X17450Y85958D01*
X17380Y85924D01*
X17315Y85879D01*
X17258Y85824D01*
X17212Y85761D01*
X16982Y85374D01*
X16791Y84966D01*
X16636Y84544D01*
X16519Y84109D01*
X16441Y83666D01*
X16402Y83217D01*
Y82767D01*
X16441Y82319D01*
X16478Y82109D01*
X16000Y82587D01*
Y123999D01*
X22946D01*
Y99542D01*
X22940Y99533D01*
X22569Y98896D01*
X22256Y98229D01*
X22003Y97538D01*
X21811Y96827D01*
X21683Y96102D01*
X21618Y95368D01*
Y94632D01*
X21683Y93898D01*
X21811Y93173D01*
X22003Y92462D01*
X22256Y91771D01*
X22569Y91104D01*
X22940Y90467D01*
X22946Y90458D01*
Y87929D01*
X22652Y88008D01*
X22209Y88087D01*
X21761Y88126D01*
X21310D01*
X20862Y88087D01*
X20419Y88008D01*
X19984Y87891D01*
X19561Y87737D01*
X19153Y87546D01*
X18764Y87320D01*
X18701Y87272D01*
X18646Y87215D01*
X18600Y87150D01*
X18566Y87079D01*
X18543Y87003D01*
X18532Y86924D01*
X18533Y86845D01*
X18547Y86767D01*
X18573Y86692D01*
X18611Y86622D01*
X18659Y86559D01*
X18716Y86504D01*
X18781Y86458D01*
X18852Y86424D01*
X18928Y86401D01*
X19007Y86390D01*
X19086Y86391D01*
X19164Y86405D01*
X19239Y86431D01*
X19308Y86470D01*
X19619Y86655D01*
X19947Y86809D01*
X20287Y86933D01*
X20637Y87027D01*
X20994Y87090D01*
X21354Y87122D01*
X21716D01*
X22077Y87090D01*
X22434Y87027D01*
X22784Y86933D01*
X22946Y86874D01*
Y79111D01*
G37*
G36*
Y75641D02*X20652Y77935D01*
X20862Y77898D01*
X21310Y77858D01*
X21761D01*
X22209Y77898D01*
X22652Y77976D01*
X22946Y78055D01*
Y75641D01*
G37*
G36*
X25722Y41003D02*X26012Y41212D01*
X26572Y41538D01*
X27159Y41813D01*
X27767Y42036D01*
X28393Y42205D01*
X29031Y42318D01*
X29676Y42375D01*
X30004D01*
Y27625D01*
X29676D01*
X29031Y27682D01*
X28393Y27795D01*
X27767Y27964D01*
X27159Y28187D01*
X26572Y28462D01*
X26012Y28788D01*
X25722Y28992D01*
Y41003D01*
G37*
G36*
Y68696D02*X25783Y68659D01*
X26001Y68569D01*
X26230Y68514D01*
X26466Y68495D01*
X26525Y68500D01*
X30004D01*
Y43382D01*
X29632D01*
X28898Y43317D01*
X28173Y43189D01*
X27462Y42997D01*
X26771Y42744D01*
X26104Y42431D01*
X25722Y42209D01*
Y68696D01*
G37*
G36*
X30004Y4500D02*X25722D01*
Y20149D01*
X25734Y20160D01*
X25780Y20223D01*
X26010Y20610D01*
X26201Y21018D01*
X26356Y21441D01*
X26473Y21875D01*
X26551Y22319D01*
X26591Y22767D01*
Y23217D01*
X26551Y23666D01*
X26473Y24109D01*
X26356Y24544D01*
X26201Y24966D01*
X26010Y25374D01*
X25784Y25763D01*
X25737Y25827D01*
X25722Y25841D01*
Y27791D01*
X26104Y27569D01*
X26771Y27256D01*
X27462Y27003D01*
X28173Y26811D01*
X28898Y26683D01*
X29632Y26618D01*
X30004D01*
Y4500D01*
G37*
G36*
X25722D02*X22946D01*
Y18077D01*
X23008Y18093D01*
X23431Y18248D01*
X23839Y18439D01*
X24228Y18665D01*
X24292Y18712D01*
X24347Y18769D01*
X24392Y18834D01*
X24426Y18906D01*
X24449Y18982D01*
X24460Y19060D01*
X24459Y19140D01*
X24445Y19218D01*
X24419Y19293D01*
X24381Y19362D01*
X24334Y19426D01*
X24276Y19481D01*
X24211Y19526D01*
X24140Y19561D01*
X24064Y19584D01*
X23985Y19595D01*
X23906Y19593D01*
X23828Y19579D01*
X23753Y19553D01*
X23684Y19514D01*
X23373Y19329D01*
X23045Y19176D01*
X22946Y19140D01*
Y26845D01*
X23045Y26809D01*
X23373Y26655D01*
X23686Y26473D01*
X23755Y26435D01*
X23829Y26409D01*
X23906Y26395D01*
X23985Y26394D01*
X24063Y26404D01*
X24138Y26427D01*
X24209Y26462D01*
X24274Y26507D01*
X24331Y26561D01*
X24378Y26624D01*
X24415Y26693D01*
X24441Y26768D01*
X24455Y26845D01*
X24456Y26924D01*
X24446Y27002D01*
X24423Y27077D01*
X24388Y27148D01*
X24343Y27212D01*
X24289Y27269D01*
X24225Y27315D01*
X23839Y27546D01*
X23431Y27737D01*
X23008Y27891D01*
X22946Y27908D01*
Y30458D01*
X23364Y29866D01*
X23418Y29806D01*
X23480Y29756D01*
X23549Y29717D01*
X23624Y29688D01*
X23702Y29672D01*
X23782Y29668D01*
X23861Y29677D01*
X23938Y29698D01*
X24011Y29731D01*
X24078Y29774D01*
X24137Y29828D01*
X24187Y29890D01*
X24226Y29960D01*
X24255Y30034D01*
X24271Y30112D01*
X24275Y30192D01*
X24266Y30271D01*
X24245Y30348D01*
X24212Y30421D01*
X24167Y30487D01*
X23788Y31012D01*
X23462Y31572D01*
X23187Y32159D01*
X22964Y32767D01*
X22946Y32832D01*
Y37168D01*
X22964Y37233D01*
X23187Y37841D01*
X23462Y38428D01*
X23788Y38988D01*
X24162Y39517D01*
X24206Y39582D01*
X24238Y39654D01*
X24259Y39730D01*
X24268Y39808D01*
X24264Y39887D01*
X24248Y39964D01*
X24220Y40037D01*
X24181Y40106D01*
X24131Y40167D01*
X24073Y40220D01*
X24007Y40263D01*
X23936Y40295D01*
X23860Y40316D01*
X23781Y40325D01*
X23703Y40321D01*
X23626Y40305D01*
X23552Y40277D01*
X23484Y40238D01*
X23422Y40189D01*
X23371Y40129D01*
X22946Y39542D01*
Y71398D01*
X25364Y68981D01*
X25402Y68936D01*
X25581Y68783D01*
X25722Y68696D01*
Y42209D01*
X25467Y42060D01*
X24866Y41636D01*
X24806Y41582D01*
X24756Y41520D01*
X24717Y41451D01*
X24688Y41376D01*
X24672Y41298D01*
X24668Y41218D01*
X24677Y41139D01*
X24698Y41062D01*
X24731Y40989D01*
X24774Y40922D01*
X24828Y40863D01*
X24890Y40813D01*
X24960Y40774D01*
X25034Y40745D01*
X25112Y40729D01*
X25192Y40725D01*
X25271Y40734D01*
X25348Y40755D01*
X25421Y40788D01*
X25487Y40833D01*
X25722Y41003D01*
Y28992D01*
X25483Y29162D01*
X25418Y29206D01*
X25346Y29238D01*
X25270Y29259D01*
X25192Y29268D01*
X25113Y29264D01*
X25036Y29248D01*
X24963Y29220D01*
X24894Y29181D01*
X24833Y29131D01*
X24780Y29073D01*
X24737Y29007D01*
X24705Y28936D01*
X24684Y28860D01*
X24675Y28781D01*
X24679Y28703D01*
X24695Y28626D01*
X24723Y28552D01*
X24762Y28484D01*
X24811Y28422D01*
X24871Y28371D01*
X25467Y27940D01*
X25722Y27791D01*
Y25841D01*
X25680Y25882D01*
X25614Y25927D01*
X25543Y25962D01*
X25467Y25985D01*
X25389Y25996D01*
X25309Y25994D01*
X25231Y25980D01*
X25156Y25954D01*
X25086Y25917D01*
X25023Y25869D01*
X24968Y25812D01*
X24923Y25747D01*
X24888Y25675D01*
X24865Y25599D01*
X24854Y25521D01*
X24856Y25441D01*
X24870Y25363D01*
X24896Y25288D01*
X24935Y25219D01*
X25120Y24908D01*
X25273Y24580D01*
X25398Y24240D01*
X25492Y23891D01*
X25555Y23534D01*
X25587Y23173D01*
Y22811D01*
X25555Y22450D01*
X25492Y22094D01*
X25398Y21744D01*
X25273Y21404D01*
X25120Y21076D01*
X24938Y20763D01*
X24899Y20694D01*
X24874Y20620D01*
X24860Y20542D01*
X24858Y20464D01*
X24869Y20386D01*
X24892Y20310D01*
X24926Y20240D01*
X24971Y20175D01*
X25026Y20118D01*
X25088Y20071D01*
X25158Y20034D01*
X25232Y20008D01*
X25310Y19994D01*
X25388Y19992D01*
X25466Y20003D01*
X25542Y20026D01*
X25612Y20060D01*
X25677Y20105D01*
X25722Y20149D01*
Y4500D01*
G37*
G36*
X22946Y32832D02*X22795Y33393D01*
X22682Y34031D01*
X22625Y34676D01*
Y35324D01*
X22682Y35969D01*
X22795Y36607D01*
X22946Y37168D01*
Y32832D01*
G37*
G36*
Y4500D02*X17191D01*
Y20143D01*
X17234Y20102D01*
X17299Y20057D01*
X17370Y20022D01*
X17446Y19999D01*
X17525Y19988D01*
X17604Y19990D01*
X17682Y20004D01*
X17757Y20030D01*
X17827Y20067D01*
X17890Y20115D01*
X17945Y20172D01*
X17991Y20238D01*
X18025Y20309D01*
X18048Y20385D01*
X18059Y20463D01*
X18058Y20543D01*
X18044Y20621D01*
X18018Y20696D01*
X17979Y20765D01*
X17794Y21076D01*
X17640Y21404D01*
X17516Y21744D01*
X17422Y22094D01*
X17358Y22450D01*
X17327Y22811D01*
Y23173D01*
X17358Y23534D01*
X17422Y23891D01*
X17516Y24240D01*
X17640Y24580D01*
X17794Y24908D01*
X17975Y25221D01*
X18014Y25290D01*
X18040Y25364D01*
X18054Y25442D01*
X18055Y25521D01*
X18044Y25599D01*
X18022Y25674D01*
X17987Y25745D01*
X17942Y25809D01*
X17888Y25866D01*
X17825Y25913D01*
X17756Y25951D01*
X17681Y25976D01*
X17604Y25990D01*
X17525Y25992D01*
X17447Y25981D01*
X17372Y25958D01*
X17301Y25924D01*
X17236Y25879D01*
X17191Y25835D01*
Y77153D01*
X22946Y71398D01*
Y39542D01*
X22940Y39533D01*
X22569Y38896D01*
X22256Y38229D01*
X22003Y37538D01*
X21811Y36827D01*
X21683Y36102D01*
X21618Y35368D01*
Y34632D01*
X21683Y33898D01*
X21811Y33173D01*
X22003Y32462D01*
X22256Y31771D01*
X22569Y31104D01*
X22940Y30467D01*
X22946Y30458D01*
Y27908D01*
X22573Y28008D01*
X22130Y28087D01*
X21682Y28126D01*
X21232D01*
X20783Y28087D01*
X20340Y28008D01*
X19905Y27891D01*
X19482Y27737D01*
X19075Y27546D01*
X18685Y27320D01*
X18622Y27272D01*
X18567Y27215D01*
X18522Y27150D01*
X18487Y27079D01*
X18464Y27003D01*
X18453Y26924D01*
X18455Y26845D01*
X18469Y26767D01*
X18495Y26692D01*
X18532Y26622D01*
X18580Y26559D01*
X18637Y26504D01*
X18702Y26458D01*
X18774Y26424D01*
X18849Y26401D01*
X18928Y26390D01*
X19007Y26391D01*
X19085Y26405D01*
X19160Y26431D01*
X19229Y26470D01*
X19541Y26655D01*
X19868Y26809D01*
X20209Y26933D01*
X20558Y27027D01*
X20915Y27090D01*
X21276Y27122D01*
X21638D01*
X21999Y27090D01*
X22355Y27027D01*
X22705Y26933D01*
X22946Y26845D01*
Y19140D01*
X22705Y19051D01*
X22355Y18957D01*
X21999Y18894D01*
X21638Y18862D01*
X21276D01*
X20915Y18894D01*
X20558Y18957D01*
X20209Y19051D01*
X19868Y19176D01*
X19541Y19329D01*
X19227Y19511D01*
X19159Y19549D01*
X19084Y19575D01*
X19007Y19589D01*
X18928Y19591D01*
X18850Y19580D01*
X18775Y19557D01*
X18704Y19523D01*
X18640Y19478D01*
X18583Y19423D01*
X18535Y19360D01*
X18498Y19291D01*
X18472Y19217D01*
X18459Y19139D01*
X18457Y19060D01*
X18468Y18982D01*
X18491Y18907D01*
X18525Y18836D01*
X18570Y18772D01*
X18624Y18715D01*
X18688Y18669D01*
X19075Y18439D01*
X19482Y18248D01*
X19905Y18093D01*
X20340Y17976D01*
X20783Y17898D01*
X21232Y17858D01*
X21682D01*
X22130Y17898D01*
X22573Y17976D01*
X22946Y18077D01*
Y4500D01*
G37*
G36*
X17191D02*X16000D01*
Y78344D01*
X17191Y77153D01*
Y25835D01*
X17180Y25824D01*
X17133Y25761D01*
X16903Y25374D01*
X16712Y24966D01*
X16558Y24544D01*
X16441Y24109D01*
X16362Y23666D01*
X16323Y23217D01*
Y22767D01*
X16362Y22319D01*
X16441Y21875D01*
X16558Y21441D01*
X16712Y21018D01*
X16903Y20610D01*
X17129Y20221D01*
X17177Y20157D01*
X17191Y20143D01*
Y4500D01*
G37*
G36*
X38500Y164056D02*Y155059D01*
X38495Y155000D01*
X38514Y154765D01*
X38569Y154535D01*
X38659Y154317D01*
X38783Y154116D01*
X38936Y153936D01*
X38981Y153898D01*
X61504Y131375D01*
X61417Y131164D01*
X61279Y130589D01*
X61233Y130000D01*
X61279Y129411D01*
X61417Y128836D01*
X61643Y128290D01*
X61952Y127786D01*
X62336Y127336D01*
X62692Y127032D01*
X57308D01*
X57664Y127336D01*
X58048Y127786D01*
X58357Y128290D01*
X58583Y128836D01*
X58721Y129411D01*
X58756Y130000D01*
X58721Y130589D01*
X58583Y131164D01*
X58357Y131710D01*
X58048Y132214D01*
X57664Y132664D01*
X57214Y133048D01*
X56710Y133357D01*
X56164Y133583D01*
X55589Y133721D01*
X55000Y133767D01*
X54411Y133721D01*
X53836Y133583D01*
X53625Y133496D01*
X37172Y149950D01*
Y165028D01*
X37336Y164836D01*
X37786Y164452D01*
X38290Y164143D01*
X38500Y164056D01*
G37*
G36*
X63625Y133496D02*X41500Y155621D01*
Y164056D01*
X41710Y164143D01*
X42214Y164452D01*
X42664Y164836D01*
X43048Y165286D01*
X43357Y165790D01*
X43583Y166336D01*
X43721Y166911D01*
X43756Y167500D01*
X43721Y168089D01*
X43583Y168664D01*
X43357Y169210D01*
X43048Y169714D01*
X42664Y170164D01*
X42439Y170356D01*
X45023D01*
X46504Y168875D01*
X46417Y168664D01*
X46279Y168089D01*
X46233Y167500D01*
X46279Y166911D01*
X46417Y166336D01*
X46643Y165790D01*
X46952Y165286D01*
X47336Y164836D01*
X47786Y164452D01*
X48290Y164143D01*
X48836Y163917D01*
X49411Y163779D01*
X50000Y163733D01*
X50589Y163779D01*
X51164Y163917D01*
X51710Y164143D01*
X52214Y164452D01*
X52664Y164836D01*
X53048Y165286D01*
X53357Y165790D01*
X53500Y166135D01*
Y152665D01*
X53495Y152607D01*
X53514Y152371D01*
X53569Y152142D01*
X53659Y151924D01*
X53783Y151722D01*
X53783Y151722D01*
X53936Y151543D01*
X53981Y151504D01*
X67774Y137712D01*
Y132536D01*
X67664Y132664D01*
X67214Y133048D01*
X66710Y133357D01*
X66164Y133583D01*
X65589Y133721D01*
X65000Y133767D01*
X64411Y133721D01*
X63836Y133583D01*
X63625Y133496D01*
G37*
G36*
X16000Y171500D02*Y180257D01*
X32444D01*
X32336Y180164D01*
X31952Y179714D01*
X31643Y179210D01*
X31417Y178664D01*
X31279Y178089D01*
X31233Y177500D01*
X31279Y176911D01*
X31417Y176336D01*
X31643Y175790D01*
X31952Y175286D01*
X32336Y174836D01*
X32786Y174452D01*
X33290Y174143D01*
X33836Y173917D01*
X34411Y173779D01*
X35000Y173733D01*
X35589Y173779D01*
X36164Y173917D01*
X36710Y174143D01*
X37214Y174452D01*
X37664Y174836D01*
X38048Y175286D01*
X38357Y175790D01*
X38583Y176336D01*
X38721Y176911D01*
X38756Y177500D01*
X38721Y178089D01*
X38583Y178664D01*
X38357Y179210D01*
X38048Y179714D01*
X37664Y180164D01*
X37556Y180257D01*
X40122D01*
X41504Y178875D01*
X41417Y178664D01*
X41279Y178089D01*
X41233Y177500D01*
X41279Y176911D01*
X41417Y176336D01*
X41643Y175790D01*
X41952Y175286D01*
X42336Y174836D01*
X42786Y174452D01*
X43290Y174143D01*
X43836Y173917D01*
X44411Y173779D01*
X45000Y173733D01*
X45589Y173779D01*
X46164Y173917D01*
X46710Y174143D01*
X47214Y174452D01*
X47664Y174836D01*
X48048Y175286D01*
X48357Y175790D01*
X48583Y176336D01*
X48721Y176911D01*
X48756Y177500D01*
X48721Y178089D01*
X48583Y178664D01*
X48496Y178875D01*
X49892Y180271D01*
X52461D01*
X52336Y180164D01*
X51952Y179714D01*
X51643Y179210D01*
X51417Y178664D01*
X51279Y178089D01*
X51233Y177500D01*
X51279Y176911D01*
X51417Y176336D01*
X51643Y175790D01*
X51952Y175286D01*
X52336Y174836D01*
X52786Y174452D01*
X53290Y174143D01*
X53500Y174056D01*
Y168865D01*
X53357Y169210D01*
X53048Y169714D01*
X52664Y170164D01*
X52214Y170548D01*
X51710Y170857D01*
X51164Y171083D01*
X50589Y171221D01*
X50000Y171267D01*
X49411Y171221D01*
X48836Y171083D01*
X48625Y170996D01*
X46746Y172875D01*
X46708Y172920D01*
X46528Y173073D01*
X46327Y173197D01*
X46109Y173287D01*
X45879Y173342D01*
X45879Y173342D01*
X45644Y173361D01*
X45585Y173356D01*
X38303D01*
X38244Y173361D01*
X38009Y173342D01*
X37779Y173287D01*
X37561Y173197D01*
X37360Y173073D01*
X37360Y173073D01*
X37180Y172920D01*
X37142Y172875D01*
X35616Y171350D01*
X35420Y171431D01*
X35190Y171486D01*
X34955Y171505D01*
X34896Y171500D01*
X16000D01*
G37*
G36*
X57539Y180271D02*X62461D01*
X62336Y180164D01*
X61952Y179714D01*
X61643Y179210D01*
X61417Y178664D01*
X61279Y178089D01*
X61233Y177500D01*
X61279Y176911D01*
X61417Y176336D01*
X61643Y175790D01*
X61952Y175286D01*
X62336Y174836D01*
X62786Y174452D01*
X63290Y174143D01*
X63836Y173917D01*
X64411Y173779D01*
X65000Y173733D01*
X65589Y173779D01*
X66164Y173917D01*
X66710Y174143D01*
X67214Y174452D01*
X67664Y174836D01*
X68048Y175286D01*
X68357Y175790D01*
X68583Y176336D01*
X68721Y176911D01*
X68756Y177500D01*
X68721Y178089D01*
X68583Y178664D01*
X68357Y179210D01*
X68048Y179714D01*
X67664Y180164D01*
X67539Y180271D01*
X74431D01*
X89000Y165702D01*
Y161500D01*
X78121D01*
X73496Y166125D01*
X73583Y166336D01*
X73721Y166911D01*
X73756Y167500D01*
X73721Y168089D01*
X73583Y168664D01*
X73357Y169210D01*
X73048Y169714D01*
X72664Y170164D01*
X72214Y170548D01*
X71710Y170857D01*
X71164Y171083D01*
X70589Y171221D01*
X70000Y171267D01*
X69411Y171221D01*
X68836Y171083D01*
X68290Y170857D01*
X67786Y170548D01*
X67336Y170164D01*
X66952Y169714D01*
X66643Y169210D01*
X66417Y168664D01*
X66279Y168089D01*
X66233Y167500D01*
X66279Y166911D01*
X66417Y166336D01*
X66643Y165790D01*
X66952Y165286D01*
X67336Y164836D01*
X67786Y164452D01*
X68290Y164143D01*
X68836Y163917D01*
X69411Y163779D01*
X70000Y163733D01*
X70589Y163779D01*
X71164Y163917D01*
X71375Y164004D01*
X76398Y158981D01*
X76436Y158936D01*
X76616Y158783D01*
X76817Y158659D01*
X77035Y158569D01*
X77265Y158514D01*
X77500Y158495D01*
X77559Y158500D01*
X89000D01*
Y141500D01*
X88121D01*
X63496Y166125D01*
X63583Y166336D01*
X63721Y166911D01*
X63756Y167500D01*
X63721Y168089D01*
X63583Y168664D01*
X63357Y169210D01*
X63048Y169714D01*
X62664Y170164D01*
X62214Y170548D01*
X61710Y170857D01*
X61164Y171083D01*
X60589Y171221D01*
X60000Y171267D01*
X59411Y171221D01*
X58836Y171083D01*
X58290Y170857D01*
X57786Y170548D01*
X57336Y170164D01*
X56952Y169714D01*
X56643Y169210D01*
X56500Y168865D01*
Y174056D01*
X56710Y174143D01*
X57214Y174452D01*
X57664Y174836D01*
X58048Y175286D01*
X58357Y175790D01*
X58583Y176336D01*
X58721Y176911D01*
X58756Y177500D01*
X58721Y178089D01*
X58583Y178664D01*
X58357Y179210D01*
X58048Y179714D01*
X57664Y180164D01*
X57539Y180271D01*
G37*
G36*
X61375Y164004D02*X86398Y138981D01*
X86436Y138936D01*
X86615Y138783D01*
X86616Y138783D01*
X86817Y138659D01*
X87035Y138569D01*
X87265Y138514D01*
X87500Y138495D01*
X87559Y138500D01*
X89000D01*
Y131500D01*
X70774D01*
Y138274D01*
X70778Y138333D01*
X70760Y138568D01*
X70705Y138798D01*
X70614Y139016D01*
X70491Y139217D01*
X70338Y139397D01*
X70293Y139435D01*
X56500Y153228D01*
Y166135D01*
X56643Y165790D01*
X56952Y165286D01*
X57336Y164836D01*
X57786Y164452D01*
X58290Y164143D01*
X58836Y163917D01*
X59411Y163779D01*
X60000Y163733D01*
X60589Y163779D01*
X61164Y163917D01*
X61375Y164004D01*
G37*
G36*
X52692Y127032D02*X51500D01*
Y128635D01*
X51643Y128290D01*
X51952Y127786D01*
X52336Y127336D01*
X52692Y127032D01*
G37*
G36*
X51487Y131334D02*X51486Y131346D01*
X51477Y131384D01*
X51471Y131407D01*
X51504Y131375D01*
X51487Y131334D01*
G37*
G36*
X16000Y183257D02*Y188500D01*
X83679D01*
X83737Y188495D01*
X83973Y188514D01*
X83973Y188514D01*
X84202Y188569D01*
X84420Y188659D01*
X84622Y188783D01*
X84801Y188936D01*
X84840Y188981D01*
X89000Y193141D01*
Y169944D01*
X76154Y182790D01*
X76116Y182835D01*
X75936Y182988D01*
X75735Y183112D01*
X75517Y183202D01*
X75287Y183257D01*
X75287Y183257D01*
X75052Y183275D01*
X74993Y183271D01*
X49330D01*
X49271Y183275D01*
X49035Y183257D01*
X48806Y183202D01*
X48588Y183112D01*
X48386Y182988D01*
X48386Y182988D01*
X48207Y182835D01*
X48169Y182790D01*
X46375Y180996D01*
X46164Y181083D01*
X45589Y181221D01*
X45000Y181267D01*
X44411Y181221D01*
X43836Y181083D01*
X43625Y180996D01*
X41846Y182776D01*
X41807Y182821D01*
X41628Y182974D01*
X41426Y183097D01*
X41208Y183188D01*
X40979Y183243D01*
X40978Y183243D01*
X40743Y183261D01*
X40685Y183257D01*
X16000D01*
G37*
G36*
X71500Y73444D02*Y82925D01*
X71505Y82984D01*
X71486Y83220D01*
X71431Y83449D01*
X71341Y83667D01*
X71217Y83869D01*
X71064Y84048D01*
X71019Y84086D01*
X46500Y108606D01*
Y118635D01*
X46643Y118290D01*
X46952Y117786D01*
X47336Y117336D01*
X47786Y116952D01*
X48290Y116643D01*
X48500Y116556D01*
Y107410D01*
X48495Y107351D01*
X48514Y107116D01*
X48569Y106886D01*
X48659Y106668D01*
X48783Y106467D01*
X48783Y106467D01*
X48936Y106287D01*
X48981Y106249D01*
X72832Y82398D01*
Y72467D01*
X72664Y72664D01*
X72214Y73048D01*
X71710Y73357D01*
X71500Y73444D01*
G37*
G36*
X46497Y121357D02*X46486Y121492D01*
X46431Y121722D01*
X46341Y121940D01*
X46217Y122141D01*
X46064Y122321D01*
X46019Y122359D01*
X38735Y129644D01*
X38756Y130000D01*
X38721Y130589D01*
X38583Y131164D01*
X38357Y131710D01*
X38048Y132214D01*
X37664Y132664D01*
X37214Y133048D01*
X36710Y133357D01*
X36164Y133583D01*
X35589Y133721D01*
X35000Y133767D01*
X34411Y133721D01*
X33836Y133583D01*
X33290Y133357D01*
X32786Y133048D01*
X32336Y132664D01*
X31952Y132214D01*
X31643Y131710D01*
X31556Y131500D01*
X16000D01*
Y148500D01*
X24379D01*
X41504Y131375D01*
X41417Y131164D01*
X41279Y130589D01*
X41233Y130000D01*
X41279Y129411D01*
X41417Y128836D01*
X41643Y128290D01*
X41952Y127786D01*
X42336Y127336D01*
X42786Y126952D01*
X43290Y126643D01*
X43836Y126417D01*
X44411Y126279D01*
X45000Y126233D01*
X45589Y126279D01*
X46164Y126417D01*
X46710Y126643D01*
X47214Y126952D01*
X47664Y127336D01*
X48048Y127786D01*
X48357Y128290D01*
X48500Y128635D01*
Y125591D01*
X48495Y125532D01*
X48500Y125473D01*
Y123444D01*
X48290Y123357D01*
X47786Y123048D01*
X47336Y122664D01*
X46952Y122214D01*
X46643Y121710D01*
X46497Y121357D01*
G37*
G36*
X43625Y133496D02*X26102Y151019D01*
X26064Y151064D01*
X25884Y151217D01*
X25683Y151341D01*
X25465Y151431D01*
X25235Y151486D01*
X25000Y151505D01*
X24941Y151500D01*
X16000D01*
Y158500D01*
X20489D01*
X45241Y133749D01*
X45000Y133767D01*
X44411Y133721D01*
X43836Y133583D01*
X43625Y133496D01*
G37*
G36*
X72832Y67533D02*Y63844D01*
X68741Y59753D01*
X68756Y60000D01*
X68721Y60589D01*
X68583Y61164D01*
X68357Y61710D01*
X68048Y62214D01*
X67664Y62664D01*
X67214Y63048D01*
X66710Y63357D01*
X66500Y63444D01*
Y68635D01*
X66643Y68290D01*
X66952Y67786D01*
X67336Y67336D01*
X67786Y66952D01*
X68290Y66643D01*
X68836Y66417D01*
X69411Y66279D01*
X70000Y66233D01*
X70589Y66279D01*
X71164Y66417D01*
X71710Y66643D01*
X72214Y66952D01*
X72664Y67336D01*
X72832Y67533D01*
G37*
G36*
X16000Y161500D02*Y168500D01*
X34172D01*
Y149387D01*
X34167Y149328D01*
X34186Y149093D01*
X34200Y149032D01*
X22213Y161019D01*
X22175Y161064D01*
X21995Y161217D01*
X21794Y161341D01*
X21576Y161431D01*
X21346Y161486D01*
X21346Y161486D01*
X21111Y161505D01*
X21052Y161500D01*
X16000D01*
G37*
G36*
X66500Y71365D02*Y79803D01*
X66505Y79861D01*
X66486Y80097D01*
X66486Y80097D01*
X66431Y80326D01*
X66341Y80545D01*
X66217Y80746D01*
X66064Y80925D01*
X66019Y80964D01*
X41500Y105483D01*
Y116556D01*
X41710Y116643D01*
X42214Y116952D01*
X42664Y117336D01*
X43048Y117786D01*
X43357Y118290D01*
X43500Y118635D01*
Y108043D01*
X43495Y107984D01*
X43514Y107749D01*
X43569Y107519D01*
X43659Y107301D01*
X43783Y107100D01*
X43783Y107100D01*
X43936Y106920D01*
X43981Y106882D01*
X68500Y82363D01*
Y73444D01*
X68290Y73357D01*
X67786Y73048D01*
X67336Y72664D01*
X66952Y72214D01*
X66643Y71710D01*
X66500Y71365D01*
G37*
G36*
X38625Y123496D02*X35793Y126328D01*
X36164Y126417D01*
X36710Y126643D01*
X37195Y126940D01*
X40400Y123736D01*
X40000Y123767D01*
X39411Y123721D01*
X38836Y123583D01*
X38625Y123496D01*
G37*
G36*
X32730Y126999D02*X16000D01*
Y128500D01*
X31556D01*
X31643Y128290D01*
X31952Y127786D01*
X32336Y127336D01*
X32730Y126999D01*
G37*
G36*
X66702Y124032D02*X66761Y124027D01*
X66996Y124046D01*
X66996Y124046D01*
X67226Y124101D01*
X67444Y124191D01*
X67645Y124315D01*
X67825Y124468D01*
X67863Y124513D01*
X69994Y126644D01*
Y123767D01*
X69411Y123721D01*
X68836Y123583D01*
X68290Y123357D01*
X67786Y123048D01*
X67336Y122664D01*
X66952Y122214D01*
X66643Y121710D01*
X66417Y121164D01*
X66279Y120589D01*
X66233Y120000D01*
X66279Y119411D01*
X66417Y118836D01*
X66643Y118290D01*
X66952Y117786D01*
X67336Y117336D01*
X67786Y116952D01*
X68290Y116643D01*
X68836Y116417D01*
X69411Y116279D01*
X69994Y116233D01*
Y112127D01*
X63496Y118625D01*
X63583Y118836D01*
X63721Y119411D01*
X63756Y120000D01*
X63721Y120589D01*
X63583Y121164D01*
X63357Y121710D01*
X63048Y122214D01*
X62664Y122664D01*
X62214Y123048D01*
X61710Y123357D01*
X61164Y123583D01*
X60589Y123721D01*
X60000Y123767D01*
X59411Y123721D01*
X58836Y123583D01*
X58290Y123357D01*
X57786Y123048D01*
X57336Y122664D01*
X56952Y122214D01*
X56643Y121710D01*
X56417Y121164D01*
X56279Y120589D01*
X56233Y120000D01*
X56279Y119411D01*
X56417Y118836D01*
X56643Y118290D01*
X56952Y117786D01*
X57336Y117336D01*
X57786Y116952D01*
X58290Y116643D01*
X58836Y116417D01*
X59411Y116279D01*
X60000Y116233D01*
X60589Y116279D01*
X61164Y116417D01*
X61375Y116504D01*
X68898Y108981D01*
X68936Y108936D01*
X69116Y108783D01*
X69317Y108659D01*
X69535Y108569D01*
X69765Y108514D01*
X69994Y108496D01*
Y101726D01*
X69866Y101636D01*
X69806Y101582D01*
X69756Y101520D01*
X69717Y101451D01*
X69688Y101376D01*
X69672Y101298D01*
X69668Y101218D01*
X69677Y101139D01*
X69698Y101062D01*
X69731Y100989D01*
X69774Y100922D01*
X69828Y100863D01*
X69890Y100813D01*
X69960Y100774D01*
X69994Y100761D01*
Y89478D01*
X69274Y90199D01*
X69266Y90271D01*
X69245Y90348D01*
X69212Y90421D01*
X69167Y90487D01*
X68788Y91012D01*
X68462Y91572D01*
X68187Y92159D01*
X67964Y92767D01*
X67795Y93393D01*
X67682Y94031D01*
X67625Y94676D01*
Y95324D01*
X67682Y95969D01*
X67795Y96607D01*
X67964Y97233D01*
X68187Y97841D01*
X68462Y98428D01*
X68788Y98988D01*
X69162Y99517D01*
X69206Y99582D01*
X69238Y99654D01*
X69259Y99730D01*
X69268Y99808D01*
X69264Y99887D01*
X69248Y99964D01*
X69220Y100037D01*
X69181Y100106D01*
X69131Y100167D01*
X69073Y100220D01*
X69007Y100263D01*
X68936Y100295D01*
X68860Y100316D01*
X68781Y100325D01*
X68703Y100321D01*
X68626Y100305D01*
X68552Y100277D01*
X68484Y100238D01*
X68422Y100189D01*
X68371Y100129D01*
X67940Y99533D01*
X67569Y98896D01*
X67256Y98229D01*
X67003Y97538D01*
X66811Y96827D01*
X66683Y96102D01*
X66618Y95368D01*
Y94632D01*
X66683Y93898D01*
X66811Y93173D01*
X67000Y92472D01*
X51500Y107973D01*
Y116556D01*
X51710Y116643D01*
X52214Y116952D01*
X52664Y117336D01*
X53048Y117786D01*
X53357Y118290D01*
X53583Y118836D01*
X53721Y119411D01*
X53756Y120000D01*
X53721Y120589D01*
X53583Y121164D01*
X53357Y121710D01*
X53048Y122214D01*
X52664Y122664D01*
X52214Y123048D01*
X51710Y123357D01*
X51500Y123444D01*
Y124032D01*
X66702D01*
G37*
G36*
X69994Y126644D02*X70293Y126943D01*
X70338Y126981D01*
X70491Y127160D01*
X70491Y127160D01*
X70614Y127362D01*
X70705Y127580D01*
X70760Y127810D01*
X70778Y128045D01*
X70774Y128104D01*
Y128500D01*
X89000D01*
Y111500D01*
X70621D01*
X69994Y112127D01*
Y116233D01*
X70000Y116233D01*
X70589Y116279D01*
X71164Y116417D01*
X71710Y116643D01*
X72214Y116952D01*
X72664Y117336D01*
X73048Y117786D01*
X73357Y118290D01*
X73583Y118836D01*
X73721Y119411D01*
X73756Y120000D01*
X73721Y120589D01*
X73583Y121164D01*
X73357Y121710D01*
X73048Y122214D01*
X72664Y122664D01*
X72214Y123048D01*
X71710Y123357D01*
X71164Y123583D01*
X70589Y123721D01*
X70000Y123767D01*
X69994Y123767D01*
Y126644D01*
G37*
G36*
Y108496D02*X70000Y108495D01*
X70059Y108500D01*
X79278D01*
Y102209D01*
X78896Y102431D01*
X78229Y102744D01*
X77538Y102997D01*
X76827Y103189D01*
X76102Y103317D01*
X75368Y103382D01*
X74632D01*
X73898Y103317D01*
X73173Y103189D01*
X72462Y102997D01*
X71771Y102744D01*
X71104Y102431D01*
X70467Y102060D01*
X69994Y101726D01*
Y108496D01*
G37*
G36*
X79278Y67460D02*X75832Y64015D01*
Y82960D01*
X75837Y83019D01*
X75818Y83254D01*
X75818Y83254D01*
X75763Y83484D01*
X75673Y83702D01*
X75550Y83903D01*
X75396Y84083D01*
X75351Y84121D01*
X72472Y87000D01*
X73173Y86811D01*
X73898Y86683D01*
X74632Y86618D01*
X75368D01*
X76102Y86683D01*
X76827Y86811D01*
X77538Y87003D01*
X78229Y87256D01*
X78896Y87569D01*
X79278Y87791D01*
Y85835D01*
X79266Y85824D01*
X79220Y85761D01*
X78990Y85374D01*
X78799Y84966D01*
X78644Y84544D01*
X78527Y84109D01*
X78449Y83666D01*
X78409Y83217D01*
Y82767D01*
X78449Y82319D01*
X78527Y81875D01*
X78644Y81441D01*
X78799Y81018D01*
X78990Y80610D01*
X79216Y80221D01*
X79263Y80157D01*
X79278Y80143D01*
Y67460D01*
G37*
G36*
Y88997D02*X78988Y88788D01*
X78428Y88462D01*
X77841Y88187D01*
X77233Y87964D01*
X76607Y87795D01*
X75969Y87682D01*
X75324Y87625D01*
X74676D01*
X74031Y87682D01*
X73393Y87795D01*
X72767Y87964D01*
X72159Y88187D01*
X71572Y88462D01*
X71012Y88788D01*
X70483Y89162D01*
X70418Y89206D01*
X70346Y89238D01*
X70270Y89259D01*
X70207Y89266D01*
X69994Y89478D01*
Y100761D01*
X70034Y100745D01*
X70112Y100729D01*
X70192Y100725D01*
X70271Y100734D01*
X70348Y100755D01*
X70421Y100788D01*
X70487Y100833D01*
X71012Y101212D01*
X71572Y101538D01*
X72159Y101813D01*
X72767Y102036D01*
X73393Y102205D01*
X74031Y102318D01*
X74676Y102375D01*
X75324D01*
X75969Y102318D01*
X76607Y102205D01*
X77233Y102036D01*
X77841Y101813D01*
X78428Y101538D01*
X78988Y101212D01*
X79278Y101008D01*
Y88997D01*
G37*
G36*
Y108500D02*X82054D01*
Y99542D01*
X81636Y100134D01*
X81582Y100194D01*
X81520Y100244D01*
X81451Y100283D01*
X81376Y100312D01*
X81298Y100328D01*
X81218Y100332D01*
X81139Y100323D01*
X81062Y100302D01*
X80989Y100269D01*
X80922Y100226D01*
X80863Y100172D01*
X80813Y100110D01*
X80774Y100040D01*
X80745Y99966D01*
X80729Y99888D01*
X80725Y99808D01*
X80734Y99729D01*
X80755Y99652D01*
X80788Y99579D01*
X80833Y99513D01*
X81212Y98988D01*
X81538Y98428D01*
X81813Y97841D01*
X82036Y97233D01*
X82054Y97168D01*
Y92832D01*
X82036Y92767D01*
X81813Y92159D01*
X81538Y91572D01*
X81212Y91012D01*
X80838Y90483D01*
X80794Y90418D01*
X80762Y90346D01*
X80741Y90270D01*
X80732Y90192D01*
X80736Y90113D01*
X80752Y90036D01*
X80780Y89963D01*
X80819Y89894D01*
X80869Y89833D01*
X80927Y89780D01*
X80993Y89737D01*
X81064Y89705D01*
X81140Y89684D01*
X81219Y89675D01*
X81297Y89679D01*
X81374Y89695D01*
X81448Y89723D01*
X81516Y89762D01*
X81578Y89811D01*
X81629Y89871D01*
X82054Y90458D01*
Y87908D01*
X81992Y87891D01*
X81569Y87737D01*
X81161Y87546D01*
X80772Y87320D01*
X80708Y87272D01*
X80653Y87215D01*
X80608Y87150D01*
X80574Y87079D01*
X80551Y87003D01*
X80540Y86924D01*
X80541Y86845D01*
X80555Y86767D01*
X80581Y86692D01*
X80619Y86622D01*
X80666Y86559D01*
X80724Y86504D01*
X80789Y86458D01*
X80860Y86424D01*
X80936Y86401D01*
X81015Y86390D01*
X81094Y86391D01*
X81172Y86405D01*
X81247Y86431D01*
X81316Y86470D01*
X81627Y86655D01*
X81955Y86809D01*
X82054Y86845D01*
Y79140D01*
X81955Y79176D01*
X81627Y79329D01*
X81314Y79511D01*
X81245Y79549D01*
X81171Y79575D01*
X81094Y79589D01*
X81015Y79591D01*
X80937Y79580D01*
X80862Y79557D01*
X80791Y79523D01*
X80726Y79478D01*
X80669Y79423D01*
X80622Y79360D01*
X80585Y79291D01*
X80559Y79217D01*
X80545Y79139D01*
X80544Y79060D01*
X80554Y78982D01*
X80577Y78907D01*
X80612Y78836D01*
X80657Y78772D01*
X80711Y78715D01*
X80775Y78669D01*
X81161Y78439D01*
X81569Y78248D01*
X81992Y78093D01*
X82054Y78077D01*
Y70236D01*
X79278Y67460D01*
Y80143D01*
X79320Y80102D01*
X79386Y80057D01*
X79457Y80022D01*
X79533Y79999D01*
X79611Y79988D01*
X79691Y79990D01*
X79769Y80004D01*
X79844Y80030D01*
X79914Y80067D01*
X79977Y80115D01*
X80032Y80172D01*
X80077Y80238D01*
X80112Y80309D01*
X80135Y80385D01*
X80146Y80463D01*
X80144Y80543D01*
X80130Y80621D01*
X80104Y80696D01*
X80065Y80765D01*
X79880Y81076D01*
X79727Y81404D01*
X79602Y81744D01*
X79508Y82094D01*
X79445Y82450D01*
X79413Y82811D01*
Y83173D01*
X79445Y83534D01*
X79508Y83891D01*
X79602Y84240D01*
X79727Y84580D01*
X79880Y84908D01*
X80062Y85221D01*
X80101Y85290D01*
X80126Y85364D01*
X80140Y85442D01*
X80142Y85521D01*
X80131Y85599D01*
X80108Y85674D01*
X80074Y85745D01*
X80029Y85809D01*
X79974Y85866D01*
X79912Y85913D01*
X79842Y85951D01*
X79768Y85976D01*
X79690Y85990D01*
X79612Y85992D01*
X79534Y85981D01*
X79458Y85958D01*
X79388Y85924D01*
X79323Y85879D01*
X79278Y85835D01*
Y87791D01*
X79533Y87940D01*
X80134Y88364D01*
X80194Y88418D01*
X80244Y88480D01*
X80283Y88549D01*
X80312Y88624D01*
X80328Y88702D01*
X80332Y88782D01*
X80323Y88861D01*
X80302Y88938D01*
X80269Y89011D01*
X80226Y89078D01*
X80172Y89137D01*
X80110Y89187D01*
X80040Y89226D01*
X79966Y89255D01*
X79888Y89271D01*
X79808Y89275D01*
X79729Y89266D01*
X79652Y89245D01*
X79579Y89212D01*
X79513Y89167D01*
X79278Y88997D01*
Y101008D01*
X79517Y100838D01*
X79582Y100794D01*
X79654Y100762D01*
X79730Y100741D01*
X79808Y100732D01*
X79887Y100736D01*
X79964Y100752D01*
X80037Y100780D01*
X80106Y100819D01*
X80167Y100869D01*
X80220Y100927D01*
X80263Y100993D01*
X80295Y101064D01*
X80316Y101140D01*
X80325Y101219D01*
X80321Y101297D01*
X80305Y101374D01*
X80277Y101448D01*
X80238Y101516D01*
X80189Y101578D01*
X80129Y101629D01*
X79533Y102060D01*
X79278Y102209D01*
Y108500D01*
G37*
G36*
X82054D02*X87809D01*
Y85841D01*
X87766Y85882D01*
X87701Y85927D01*
X87630Y85962D01*
X87554Y85985D01*
X87475Y85996D01*
X87396Y85994D01*
X87318Y85980D01*
X87243Y85954D01*
X87173Y85917D01*
X87110Y85869D01*
X87055Y85812D01*
X87009Y85747D01*
X86975Y85675D01*
X86952Y85599D01*
X86941Y85521D01*
X86942Y85441D01*
X86956Y85363D01*
X86982Y85288D01*
X87021Y85219D01*
X87206Y84908D01*
X87360Y84580D01*
X87484Y84240D01*
X87578Y83891D01*
X87642Y83534D01*
X87673Y83173D01*
Y82811D01*
X87642Y82450D01*
X87578Y82094D01*
X87484Y81744D01*
X87360Y81404D01*
X87206Y81076D01*
X87025Y80763D01*
X86986Y80694D01*
X86960Y80620D01*
X86946Y80542D01*
X86945Y80464D01*
X86956Y80386D01*
X86978Y80310D01*
X87013Y80240D01*
X87058Y80175D01*
X87112Y80118D01*
X87175Y80071D01*
X87244Y80034D01*
X87319Y80008D01*
X87396Y79994D01*
X87475Y79992D01*
X87553Y80003D01*
X87628Y80026D01*
X87699Y80060D01*
X87764Y80105D01*
X87809Y80149D01*
Y75992D01*
X82054Y70236D01*
Y78077D01*
X82427Y77976D01*
X82870Y77898D01*
X83318Y77858D01*
X83768D01*
X84217Y77898D01*
X84660Y77976D01*
X85095Y78093D01*
X85518Y78248D01*
X85925Y78439D01*
X86315Y78665D01*
X86378Y78712D01*
X86433Y78769D01*
X86478Y78834D01*
X86513Y78906D01*
X86536Y78982D01*
X86547Y79060D01*
X86545Y79140D01*
X86531Y79218D01*
X86505Y79293D01*
X86468Y79362D01*
X86420Y79426D01*
X86363Y79481D01*
X86298Y79526D01*
X86226Y79561D01*
X86151Y79584D01*
X86072Y79595D01*
X85993Y79593D01*
X85915Y79579D01*
X85840Y79553D01*
X85771Y79514D01*
X85459Y79329D01*
X85132Y79176D01*
X84791Y79051D01*
X84442Y78957D01*
X84085Y78894D01*
X83724Y78862D01*
X83362D01*
X83001Y78894D01*
X82645Y78957D01*
X82295Y79051D01*
X82054Y79140D01*
Y86845D01*
X82295Y86933D01*
X82645Y87027D01*
X83001Y87090D01*
X83362Y87122D01*
X83724D01*
X84085Y87090D01*
X84442Y87027D01*
X84791Y86933D01*
X85132Y86809D01*
X85459Y86655D01*
X85773Y86473D01*
X85841Y86435D01*
X85916Y86409D01*
X85993Y86395D01*
X86072Y86394D01*
X86150Y86404D01*
X86225Y86427D01*
X86296Y86462D01*
X86360Y86507D01*
X86417Y86561D01*
X86465Y86624D01*
X86502Y86693D01*
X86528Y86768D01*
X86541Y86845D01*
X86543Y86924D01*
X86532Y87002D01*
X86509Y87077D01*
X86475Y87148D01*
X86430Y87212D01*
X86376Y87269D01*
X86312Y87315D01*
X85925Y87546D01*
X85518Y87737D01*
X85095Y87891D01*
X84660Y88008D01*
X84217Y88087D01*
X83768Y88126D01*
X83318D01*
X82870Y88087D01*
X82427Y88008D01*
X82054Y87908D01*
Y90458D01*
X82060Y90467D01*
X82431Y91104D01*
X82744Y91771D01*
X82997Y92462D01*
X83189Y93173D01*
X83317Y93898D01*
X83382Y94632D01*
Y95368D01*
X83317Y96102D01*
X83189Y96827D01*
X82997Y97538D01*
X82744Y98229D01*
X82431Y98896D01*
X82060Y99533D01*
X82054Y99542D01*
Y108500D01*
G37*
G36*
X87809D02*X89000D01*
Y77183D01*
X87809Y75992D01*
Y80149D01*
X87820Y80160D01*
X87867Y80223D01*
X88097Y80610D01*
X88288Y81018D01*
X88442Y81441D01*
X88559Y81875D01*
X88638Y82319D01*
X88677Y82767D01*
Y83217D01*
X88638Y83666D01*
X88559Y84109D01*
X88442Y84544D01*
X88288Y84966D01*
X88097Y85374D01*
X87871Y85763D01*
X87823Y85827D01*
X87809Y85841D01*
Y108500D01*
G37*
G36*
X82054Y97168D02*X82205Y96607D01*
X82318Y95969D01*
X82375Y95324D01*
Y94676D01*
X82318Y94031D01*
X82205Y93393D01*
X82054Y92832D01*
Y97168D01*
G37*
G36*
X16000Y191500D02*Y195539D01*
X18121Y197660D01*
X18166Y197698D01*
X18319Y197878D01*
X18319Y197878D01*
X18442Y198079D01*
X18533Y198297D01*
X18588Y198527D01*
X18606Y198762D01*
X18602Y198821D01*
Y201552D01*
X21972Y204923D01*
X21811Y204327D01*
X21683Y203602D01*
X21618Y202868D01*
Y202132D01*
X21683Y201398D01*
X21811Y200673D01*
X22003Y199962D01*
X22256Y199271D01*
X22569Y198604D01*
X22940Y197967D01*
X23364Y197366D01*
X23418Y197306D01*
X23480Y197256D01*
X23549Y197217D01*
X23624Y197188D01*
X23702Y197172D01*
X23782Y197168D01*
X23861Y197177D01*
X23938Y197198D01*
X24011Y197231D01*
X24078Y197274D01*
X24137Y197328D01*
X24187Y197390D01*
X24226Y197460D01*
X24255Y197534D01*
X24271Y197612D01*
X24275Y197692D01*
X24266Y197771D01*
X24245Y197848D01*
X24212Y197921D01*
X24167Y197987D01*
X23788Y198512D01*
X23462Y199072D01*
X23187Y199659D01*
X22964Y200267D01*
X22795Y200893D01*
X22682Y201531D01*
X22625Y202176D01*
Y202824D01*
X22682Y203469D01*
X22795Y204107D01*
X22964Y204733D01*
X23187Y205341D01*
X23462Y205928D01*
X23788Y206488D01*
X24162Y207017D01*
X24206Y207082D01*
X24238Y207154D01*
X24251Y207202D01*
X25288Y208238D01*
X25348Y208255D01*
X25421Y208288D01*
X25487Y208333D01*
X26012Y208712D01*
X26572Y209038D01*
X27159Y209313D01*
X27767Y209536D01*
X28393Y209705D01*
X29031Y209818D01*
X29676Y209875D01*
X30004D01*
Y195125D01*
X29676D01*
X29031Y195182D01*
X28393Y195295D01*
X27767Y195464D01*
X27159Y195687D01*
X26572Y195962D01*
X26012Y196288D01*
X25483Y196662D01*
X25418Y196706D01*
X25346Y196738D01*
X25270Y196759D01*
X25192Y196768D01*
X25113Y196764D01*
X25036Y196748D01*
X24963Y196720D01*
X24894Y196681D01*
X24833Y196631D01*
X24780Y196573D01*
X24737Y196507D01*
X24705Y196436D01*
X24684Y196360D01*
X24675Y196281D01*
X24679Y196203D01*
X24695Y196126D01*
X24723Y196052D01*
X24762Y195984D01*
X24811Y195922D01*
X24871Y195871D01*
X25467Y195440D01*
X26104Y195069D01*
X26771Y194756D01*
X27462Y194503D01*
X28173Y194311D01*
X28898Y194183D01*
X29632Y194118D01*
X30004D01*
Y191500D01*
X16000D01*
G37*
G36*
X30004Y210882D02*X29632D01*
X28898Y210817D01*
X28173Y210689D01*
X27577Y210528D01*
X30004Y212954D01*
Y210882D01*
G37*
G36*
Y209875D02*X30324D01*
X30969Y209818D01*
X31607Y209705D01*
X32233Y209536D01*
X32841Y209313D01*
X33428Y209038D01*
X33988Y208712D01*
X34517Y208338D01*
X34582Y208294D01*
X34654Y208262D01*
X34730Y208241D01*
X34808Y208232D01*
X34887Y208236D01*
X34964Y208252D01*
X35037Y208280D01*
X35106Y208319D01*
X35167Y208369D01*
X35220Y208427D01*
X35263Y208493D01*
X35295Y208564D01*
X35316Y208640D01*
X35325Y208719D01*
X35321Y208797D01*
X35305Y208874D01*
X35277Y208948D01*
X35238Y209016D01*
X35189Y209078D01*
X35129Y209129D01*
X34533Y209560D01*
X33896Y209931D01*
X33229Y210244D01*
X32538Y210497D01*
X31827Y210689D01*
X31102Y210817D01*
X30368Y210882D01*
X30004D01*
Y212954D01*
X37054Y220004D01*
Y207042D01*
X36636Y207634D01*
X36582Y207694D01*
X36520Y207744D01*
X36451Y207783D01*
X36376Y207812D01*
X36298Y207828D01*
X36218Y207832D01*
X36139Y207823D01*
X36062Y207802D01*
X35989Y207769D01*
X35922Y207726D01*
X35863Y207672D01*
X35813Y207610D01*
X35774Y207540D01*
X35745Y207466D01*
X35729Y207388D01*
X35725Y207308D01*
X35734Y207229D01*
X35755Y207152D01*
X35788Y207079D01*
X35833Y207013D01*
X36212Y206488D01*
X36538Y205928D01*
X36813Y205341D01*
X37036Y204733D01*
X37054Y204668D01*
Y200332D01*
X37036Y200267D01*
X36813Y199659D01*
X36538Y199072D01*
X36212Y198512D01*
X35838Y197983D01*
X35794Y197918D01*
X35762Y197846D01*
X35741Y197770D01*
X35732Y197692D01*
X35736Y197613D01*
X35752Y197536D01*
X35780Y197463D01*
X35819Y197394D01*
X35869Y197333D01*
X35927Y197280D01*
X35993Y197237D01*
X36064Y197205D01*
X36140Y197184D01*
X36219Y197175D01*
X36297Y197179D01*
X36374Y197195D01*
X36448Y197223D01*
X36516Y197262D01*
X36578Y197311D01*
X36629Y197371D01*
X37054Y197958D01*
Y191500D01*
X30004D01*
Y194118D01*
X30368D01*
X31102Y194183D01*
X31827Y194311D01*
X32538Y194503D01*
X33229Y194756D01*
X33896Y195069D01*
X34533Y195440D01*
X35134Y195864D01*
X35194Y195918D01*
X35244Y195980D01*
X35283Y196049D01*
X35312Y196124D01*
X35328Y196202D01*
X35332Y196282D01*
X35323Y196361D01*
X35302Y196438D01*
X35269Y196511D01*
X35226Y196578D01*
X35172Y196637D01*
X35110Y196687D01*
X35040Y196726D01*
X34966Y196755D01*
X34888Y196771D01*
X34808Y196775D01*
X34729Y196766D01*
X34652Y196745D01*
X34579Y196712D01*
X34513Y196667D01*
X33988Y196288D01*
X33428Y195962D01*
X32841Y195687D01*
X32233Y195464D01*
X31607Y195295D01*
X30969Y195182D01*
X30324Y195125D01*
X30004D01*
Y209875D01*
G37*
G36*
X37054Y220004D02*X41226Y224177D01*
X50618D01*
X50677Y224173D01*
X50912Y224191D01*
X50913Y224191D01*
X51142Y224246D01*
X51360Y224337D01*
X51562Y224460D01*
X51741Y224613D01*
X51779Y224658D01*
X53625Y226504D01*
X53836Y226417D01*
X54411Y226279D01*
X55000Y226233D01*
X55589Y226279D01*
X56164Y226417D01*
X56710Y226643D01*
X57214Y226952D01*
X57664Y227336D01*
X58048Y227786D01*
X58357Y228290D01*
X58583Y228836D01*
X58721Y229411D01*
X58756Y230000D01*
X58721Y230589D01*
X58583Y231164D01*
X58357Y231710D01*
X58048Y232214D01*
X57664Y232664D01*
X57554Y232758D01*
X62446D01*
X62336Y232664D01*
X61952Y232214D01*
X61643Y231710D01*
X61417Y231164D01*
X61279Y230589D01*
X61233Y230000D01*
X61279Y229411D01*
X61417Y228836D01*
X61643Y228290D01*
X61952Y227786D01*
X62336Y227336D01*
X62786Y226952D01*
X63290Y226643D01*
X63836Y226417D01*
X64411Y226279D01*
X65000Y226233D01*
X65589Y226279D01*
X66164Y226417D01*
X66710Y226643D01*
X67214Y226952D01*
X67664Y227336D01*
X67946Y227667D01*
Y207042D01*
X67940Y207033D01*
X67569Y206396D01*
X67256Y205729D01*
X67003Y205038D01*
X66811Y204327D01*
X66683Y203602D01*
X66618Y202868D01*
Y202132D01*
X66683Y201398D01*
X66811Y200673D01*
X67003Y199962D01*
X67256Y199271D01*
X67569Y198604D01*
X67940Y197967D01*
X67946Y197958D01*
Y191500D01*
X37054D01*
Y197958D01*
X37060Y197967D01*
X37431Y198604D01*
X37744Y199271D01*
X37997Y199962D01*
X38189Y200673D01*
X38317Y201398D01*
X38382Y202132D01*
Y202868D01*
X38317Y203602D01*
X38189Y204327D01*
X37997Y205038D01*
X37744Y205729D01*
X37431Y206396D01*
X37060Y207033D01*
X37054Y207042D01*
Y220004D01*
G37*
G36*
X67946Y200332D02*X67795Y200893D01*
X67682Y201531D01*
X67625Y202176D01*
Y202824D01*
X67682Y203469D01*
X67795Y204107D01*
X67946Y204668D01*
Y200332D01*
G37*
G36*
Y227667D02*X68048Y227786D01*
X68357Y228290D01*
X68444Y228500D01*
X75004D01*
Y210882D01*
X74632D01*
X73898Y210817D01*
X73173Y210689D01*
X72462Y210497D01*
X71771Y210244D01*
X71104Y209931D01*
X70467Y209560D01*
X69866Y209136D01*
X69806Y209082D01*
X69756Y209020D01*
X69717Y208951D01*
X69688Y208876D01*
X69672Y208798D01*
X69668Y208718D01*
X69677Y208639D01*
X69698Y208562D01*
X69731Y208489D01*
X69774Y208422D01*
X69828Y208363D01*
X69890Y208313D01*
X69960Y208274D01*
X70034Y208245D01*
X70112Y208229D01*
X70192Y208225D01*
X70271Y208234D01*
X70348Y208255D01*
X70421Y208288D01*
X70487Y208333D01*
X71012Y208712D01*
X71572Y209038D01*
X72159Y209313D01*
X72767Y209536D01*
X73393Y209705D01*
X74031Y209818D01*
X74676Y209875D01*
X75004D01*
Y195125D01*
X74676D01*
X74031Y195182D01*
X73393Y195295D01*
X72767Y195464D01*
X72159Y195687D01*
X71572Y195962D01*
X71012Y196288D01*
X70483Y196662D01*
X70418Y196706D01*
X70346Y196738D01*
X70270Y196759D01*
X70192Y196768D01*
X70113Y196764D01*
X70036Y196748D01*
X69963Y196720D01*
X69894Y196681D01*
X69833Y196631D01*
X69780Y196573D01*
X69737Y196507D01*
X69705Y196436D01*
X69684Y196360D01*
X69675Y196281D01*
X69679Y196203D01*
X69695Y196126D01*
X69723Y196052D01*
X69762Y195984D01*
X69811Y195922D01*
X69871Y195871D01*
X70467Y195440D01*
X71104Y195069D01*
X71771Y194756D01*
X72462Y194503D01*
X73173Y194311D01*
X73898Y194183D01*
X74632Y194118D01*
X75004D01*
Y191500D01*
X67946D01*
Y197958D01*
X68364Y197366D01*
X68418Y197306D01*
X68480Y197256D01*
X68549Y197217D01*
X68624Y197188D01*
X68702Y197172D01*
X68782Y197168D01*
X68861Y197177D01*
X68938Y197198D01*
X69011Y197231D01*
X69078Y197274D01*
X69137Y197328D01*
X69187Y197390D01*
X69226Y197460D01*
X69255Y197534D01*
X69271Y197612D01*
X69275Y197692D01*
X69266Y197771D01*
X69245Y197848D01*
X69212Y197921D01*
X69167Y197987D01*
X68788Y198512D01*
X68462Y199072D01*
X68187Y199659D01*
X67964Y200267D01*
X67946Y200332D01*
Y204668D01*
X67964Y204733D01*
X68187Y205341D01*
X68462Y205928D01*
X68788Y206488D01*
X69162Y207017D01*
X69206Y207082D01*
X69238Y207154D01*
X69259Y207230D01*
X69268Y207308D01*
X69264Y207387D01*
X69248Y207464D01*
X69220Y207537D01*
X69181Y207606D01*
X69131Y207667D01*
X69073Y207720D01*
X69007Y207763D01*
X68936Y207795D01*
X68860Y207816D01*
X68781Y207825D01*
X68703Y207821D01*
X68626Y207805D01*
X68552Y207777D01*
X68484Y207738D01*
X68422Y207689D01*
X68371Y207629D01*
X67946Y207042D01*
Y227667D01*
G37*
G36*
X75004Y228500D02*X75441D01*
X79199Y224742D01*
Y217351D01*
X79187Y217340D01*
X79141Y217277D01*
X78911Y216890D01*
X78720Y216482D01*
X78566Y216059D01*
X78449Y215625D01*
X78370Y215181D01*
X78331Y214733D01*
Y214283D01*
X78370Y213834D01*
X78449Y213391D01*
X78566Y212956D01*
X78720Y212534D01*
X78911Y212126D01*
X79137Y211737D01*
X79184Y211673D01*
X79199Y211659D01*
Y209754D01*
X78896Y209931D01*
X78229Y210244D01*
X77538Y210497D01*
X76827Y210689D01*
X76102Y210817D01*
X75368Y210882D01*
X75004D01*
Y228500D01*
G37*
G36*
X79199Y191500D02*X75004D01*
Y194118D01*
X75368D01*
X76102Y194183D01*
X76827Y194311D01*
X77538Y194503D01*
X78229Y194756D01*
X78896Y195069D01*
X79199Y195246D01*
Y191500D01*
G37*
G36*
Y196440D02*X78988Y196288D01*
X78428Y195962D01*
X77841Y195687D01*
X77233Y195464D01*
X76607Y195295D01*
X75969Y195182D01*
X75324Y195125D01*
X75004D01*
Y209875D01*
X75324D01*
X75969Y209818D01*
X76607Y209705D01*
X77233Y209536D01*
X77841Y209313D01*
X78428Y209038D01*
X78988Y208712D01*
X79199Y208563D01*
Y196440D01*
G37*
G36*
Y224742D02*X82054Y221887D01*
Y219445D01*
X81913Y219407D01*
X81490Y219252D01*
X81083Y219061D01*
X80693Y218835D01*
X80630Y218788D01*
X80575Y218731D01*
X80529Y218666D01*
X80495Y218594D01*
X80472Y218518D01*
X80461Y218440D01*
X80462Y218360D01*
X80476Y218282D01*
X80502Y218207D01*
X80540Y218138D01*
X80588Y218074D01*
X80645Y218019D01*
X80710Y217974D01*
X80781Y217939D01*
X80857Y217916D01*
X80936Y217905D01*
X81015Y217907D01*
X81093Y217921D01*
X81168Y217947D01*
X81237Y217986D01*
X81548Y218171D01*
X81876Y218324D01*
X82054Y218389D01*
Y210626D01*
X81876Y210691D01*
X81548Y210845D01*
X81235Y211027D01*
X81167Y211065D01*
X81092Y211091D01*
X81015Y211105D01*
X80936Y211106D01*
X80858Y211096D01*
X80783Y211073D01*
X80712Y211038D01*
X80647Y210993D01*
X80591Y210939D01*
X80543Y210876D01*
X80506Y210807D01*
X80480Y210732D01*
X80466Y210655D01*
X80465Y210576D01*
X80476Y210498D01*
X80498Y210423D01*
X80533Y210352D01*
X80578Y210288D01*
X80632Y210231D01*
X80696Y210185D01*
X81083Y209954D01*
X81490Y209763D01*
X81913Y209609D01*
X82054Y209571D01*
Y207042D01*
X81636Y207634D01*
X81582Y207694D01*
X81520Y207744D01*
X81451Y207783D01*
X81376Y207812D01*
X81298Y207828D01*
X81218Y207832D01*
X81139Y207823D01*
X81062Y207802D01*
X80989Y207769D01*
X80922Y207726D01*
X80863Y207672D01*
X80813Y207610D01*
X80774Y207540D01*
X80745Y207466D01*
X80729Y207388D01*
X80725Y207308D01*
X80734Y207229D01*
X80755Y207152D01*
X80788Y207079D01*
X80833Y207013D01*
X81212Y206488D01*
X81538Y205928D01*
X81813Y205341D01*
X82036Y204733D01*
X82054Y204668D01*
Y200332D01*
X82036Y200267D01*
X81813Y199659D01*
X81538Y199072D01*
X81212Y198512D01*
X80838Y197983D01*
X80794Y197918D01*
X80762Y197846D01*
X80741Y197770D01*
X80732Y197692D01*
X80736Y197613D01*
X80752Y197536D01*
X80780Y197463D01*
X80819Y197394D01*
X80869Y197333D01*
X80927Y197280D01*
X80993Y197237D01*
X81064Y197205D01*
X81140Y197184D01*
X81219Y197175D01*
X81297Y197179D01*
X81374Y197195D01*
X81448Y197223D01*
X81516Y197262D01*
X81578Y197311D01*
X81629Y197371D01*
X82054Y197958D01*
Y191500D01*
X79199D01*
Y195246D01*
X79533Y195440D01*
X80134Y195864D01*
X80194Y195918D01*
X80244Y195980D01*
X80283Y196049D01*
X80312Y196124D01*
X80328Y196202D01*
X80332Y196282D01*
X80323Y196361D01*
X80302Y196438D01*
X80269Y196511D01*
X80226Y196578D01*
X80172Y196637D01*
X80110Y196687D01*
X80040Y196726D01*
X79966Y196755D01*
X79888Y196771D01*
X79808Y196775D01*
X79729Y196766D01*
X79652Y196745D01*
X79579Y196712D01*
X79513Y196667D01*
X79199Y196440D01*
Y208563D01*
X79517Y208338D01*
X79582Y208294D01*
X79654Y208262D01*
X79730Y208241D01*
X79808Y208232D01*
X79887Y208236D01*
X79964Y208252D01*
X80037Y208280D01*
X80106Y208319D01*
X80167Y208369D01*
X80220Y208427D01*
X80263Y208493D01*
X80295Y208564D01*
X80316Y208640D01*
X80325Y208719D01*
X80321Y208797D01*
X80305Y208874D01*
X80277Y208948D01*
X80238Y209016D01*
X80189Y209078D01*
X80129Y209129D01*
X79533Y209560D01*
X79199Y209754D01*
Y211659D01*
X79242Y211618D01*
X79307Y211573D01*
X79378Y211538D01*
X79454Y211515D01*
X79533Y211504D01*
X79612Y211506D01*
X79690Y211520D01*
X79765Y211546D01*
X79835Y211583D01*
X79898Y211631D01*
X79953Y211688D01*
X79998Y211753D01*
X80033Y211825D01*
X80056Y211901D01*
X80067Y211979D01*
X80065Y212059D01*
X80051Y212137D01*
X80025Y212212D01*
X79987Y212281D01*
X79802Y212592D01*
X79648Y212920D01*
X79524Y213260D01*
X79430Y213609D01*
X79366Y213966D01*
X79335Y214327D01*
Y214689D01*
X79366Y215050D01*
X79430Y215406D01*
X79524Y215756D01*
X79648Y216096D01*
X79802Y216424D01*
X79983Y216737D01*
X80022Y216806D01*
X80048Y216880D01*
X80061Y216958D01*
X80063Y217036D01*
X80052Y217114D01*
X80029Y217190D01*
X79995Y217260D01*
X79950Y217325D01*
X79896Y217382D01*
X79833Y217429D01*
X79763Y217466D01*
X79689Y217492D01*
X79612Y217506D01*
X79533Y217508D01*
X79455Y217497D01*
X79380Y217474D01*
X79309Y217440D01*
X79244Y217395D01*
X79199Y217351D01*
Y224742D01*
G37*
G36*
X82054Y221887D02*X84382Y219559D01*
X84138Y219602D01*
X83690Y219642D01*
X83239D01*
X82791Y219602D01*
X82348Y219524D01*
X82054Y219445D01*
Y221887D01*
G37*
G36*
Y218389D02*X82216Y218449D01*
X82566Y218543D01*
X82923Y218606D01*
X83283Y218638D01*
X83646D01*
X84006Y218606D01*
X84363Y218543D01*
X84713Y218449D01*
X85053Y218324D01*
X85381Y218171D01*
X85694Y217989D01*
X85762Y217951D01*
X85837Y217925D01*
X85914Y217911D01*
X85993Y217909D01*
X86027Y217914D01*
X86867Y217074D01*
X86862Y217037D01*
X86864Y216957D01*
X86878Y216879D01*
X86904Y216804D01*
X86942Y216735D01*
X87128Y216424D01*
X87281Y216096D01*
X87406Y215756D01*
X87500Y215406D01*
X87563Y215050D01*
X87594Y214689D01*
Y214327D01*
X87563Y213966D01*
X87500Y213609D01*
X87406Y213260D01*
X87281Y212920D01*
X87128Y212592D01*
X86946Y212279D01*
X86907Y212210D01*
X86882Y212136D01*
X86868Y212058D01*
X86866Y211979D01*
X86877Y211901D01*
X86900Y211826D01*
X86934Y211755D01*
X86979Y211691D01*
X87034Y211634D01*
X87096Y211587D01*
X87166Y211549D01*
X87240Y211524D01*
X87318Y211510D01*
X87396Y211508D01*
X87474Y211519D01*
X87550Y211542D01*
X87620Y211576D01*
X87685Y211621D01*
X87742Y211676D01*
X87788Y211739D01*
X88018Y212126D01*
X88209Y212534D01*
X88364Y212956D01*
X88481Y213391D01*
X88559Y213834D01*
X88598Y214283D01*
Y214733D01*
X88559Y215181D01*
X88516Y215425D01*
X89000Y214941D01*
Y197384D01*
X83116Y191500D01*
X82054D01*
Y197958D01*
X82060Y197967D01*
X82431Y198604D01*
X82744Y199271D01*
X82997Y199962D01*
X83189Y200673D01*
X83317Y201398D01*
X83382Y202132D01*
Y202868D01*
X83317Y203602D01*
X83189Y204327D01*
X82997Y205038D01*
X82744Y205729D01*
X82431Y206396D01*
X82060Y207033D01*
X82054Y207042D01*
Y209571D01*
X82348Y209492D01*
X82791Y209413D01*
X83239Y209374D01*
X83690D01*
X84138Y209413D01*
X84581Y209492D01*
X85016Y209609D01*
X85439Y209763D01*
X85847Y209954D01*
X86236Y210180D01*
X86299Y210228D01*
X86354Y210285D01*
X86400Y210350D01*
X86434Y210421D01*
X86457Y210497D01*
X86468Y210576D01*
X86467Y210655D01*
X86453Y210733D01*
X86427Y210808D01*
X86389Y210878D01*
X86341Y210941D01*
X86284Y210996D01*
X86219Y211042D01*
X86148Y211076D01*
X86072Y211099D01*
X85993Y211110D01*
X85914Y211109D01*
X85836Y211095D01*
X85761Y211069D01*
X85692Y211030D01*
X85381Y210845D01*
X85053Y210691D01*
X84713Y210567D01*
X84363Y210473D01*
X84006Y210410D01*
X83646Y210378D01*
X83283D01*
X82923Y210410D01*
X82566Y210473D01*
X82216Y210567D01*
X82054Y210626D01*
Y218389D01*
G37*
G36*
Y204668D02*X82205Y204107D01*
X82318Y203469D01*
X82375Y202824D01*
Y202176D01*
X82318Y201531D01*
X82205Y200893D01*
X82054Y200332D01*
Y204668D01*
G37*
G36*
X37054D02*X37205Y204107D01*
X37318Y203469D01*
X37375Y202824D01*
Y202176D01*
X37318Y201531D01*
X37205Y200893D01*
X37054Y200332D01*
Y204668D01*
G37*
G36*
X51504Y228625D02*X50056Y227177D01*
X47478D01*
X47664Y227336D01*
X48048Y227786D01*
X48357Y228290D01*
X48583Y228836D01*
X48721Y229411D01*
X48756Y230000D01*
X48721Y230589D01*
X48583Y231164D01*
X48357Y231710D01*
X48048Y232214D01*
X47664Y232664D01*
X47554Y232758D01*
X52446D01*
X52336Y232664D01*
X51952Y232214D01*
X51643Y231710D01*
X51417Y231164D01*
X51279Y230589D01*
X51233Y230000D01*
X51279Y229411D01*
X51417Y228836D01*
X51504Y228625D01*
G37*
G36*
X42522Y227177D02*X40664D01*
X40605Y227182D01*
X40370Y227163D01*
X40140Y227108D01*
X39922Y227018D01*
X39721Y226894D01*
X39720Y226894D01*
X39541Y226741D01*
X39503Y226696D01*
X26532Y213725D01*
X26551Y213834D01*
X26591Y214283D01*
Y214733D01*
X26551Y215181D01*
X26473Y215625D01*
X26356Y216059D01*
X26201Y216482D01*
X26010Y216890D01*
X25784Y217279D01*
X25737Y217343D01*
X25680Y217398D01*
X25614Y217443D01*
X25543Y217478D01*
X25467Y217501D01*
X25389Y217512D01*
X25309Y217510D01*
X25231Y217496D01*
X25156Y217470D01*
X25086Y217433D01*
X25023Y217385D01*
X24968Y217328D01*
X24923Y217262D01*
X24888Y217191D01*
X24865Y217115D01*
X24854Y217037D01*
X24856Y216957D01*
X24870Y216879D01*
X24896Y216804D01*
X24935Y216735D01*
X25120Y216424D01*
X25273Y216096D01*
X25398Y215756D01*
X25492Y215406D01*
X25555Y215050D01*
X25587Y214689D01*
Y214327D01*
X25555Y213966D01*
X25492Y213609D01*
X25398Y213260D01*
X25273Y212920D01*
X25120Y212592D01*
X24938Y212279D01*
X24899Y212210D01*
X24874Y212136D01*
X24860Y212058D01*
X24860Y212053D01*
X23916Y211109D01*
X23906Y211109D01*
X23828Y211095D01*
X23753Y211069D01*
X23684Y211030D01*
X23373Y210845D01*
X23045Y210691D01*
X22705Y210567D01*
X22355Y210473D01*
X21999Y210410D01*
X21638Y210378D01*
X21276D01*
X20915Y210410D01*
X20558Y210473D01*
X20209Y210567D01*
X19868Y210691D01*
X19541Y210845D01*
X19227Y211027D01*
X19159Y211065D01*
X19084Y211091D01*
X19007Y211105D01*
X18928Y211106D01*
X18850Y211096D01*
X18775Y211073D01*
X18704Y211038D01*
X18640Y210993D01*
X18583Y210939D01*
X18535Y210876D01*
X18498Y210807D01*
X18472Y210732D01*
X18459Y210655D01*
X18457Y210576D01*
X18468Y210498D01*
X18491Y210423D01*
X18525Y210352D01*
X18570Y210288D01*
X18624Y210231D01*
X18688Y210185D01*
X19075Y209954D01*
X19482Y209763D01*
X19905Y209609D01*
X20340Y209492D01*
X20783Y209413D01*
X21232Y209374D01*
X21682D01*
X22130Y209413D01*
X22239Y209433D01*
X16082Y203276D01*
X16038Y203238D01*
X16000Y203193D01*
Y215011D01*
X16404Y215414D01*
X16362Y215181D01*
X16323Y214733D01*
Y214283D01*
X16362Y213834D01*
X16441Y213391D01*
X16558Y212956D01*
X16712Y212534D01*
X16903Y212126D01*
X17129Y211737D01*
X17177Y211673D01*
X17234Y211618D01*
X17299Y211573D01*
X17370Y211538D01*
X17446Y211515D01*
X17525Y211504D01*
X17604Y211506D01*
X17682Y211520D01*
X17757Y211546D01*
X17827Y211583D01*
X17890Y211631D01*
X17945Y211688D01*
X17991Y211753D01*
X18025Y211825D01*
X18048Y211901D01*
X18059Y211979D01*
X18058Y212059D01*
X18044Y212137D01*
X18018Y212212D01*
X17979Y212281D01*
X17794Y212592D01*
X17640Y212920D01*
X17516Y213260D01*
X17422Y213609D01*
X17358Y213966D01*
X17327Y214327D01*
Y214689D01*
X17358Y215050D01*
X17422Y215406D01*
X17516Y215756D01*
X17640Y216096D01*
X17794Y216424D01*
X17975Y216737D01*
X18014Y216806D01*
X18040Y216880D01*
X18054Y216958D01*
X18055Y217036D01*
X18051Y217062D01*
X18899Y217910D01*
X18928Y217905D01*
X19007Y217907D01*
X19085Y217921D01*
X19160Y217947D01*
X19229Y217986D01*
X19541Y218171D01*
X19868Y218324D01*
X20209Y218449D01*
X20558Y218543D01*
X20915Y218606D01*
X21276Y218638D01*
X21638D01*
X21999Y218606D01*
X22355Y218543D01*
X22705Y218449D01*
X23045Y218324D01*
X23373Y218171D01*
X23686Y217989D01*
X23755Y217951D01*
X23829Y217925D01*
X23906Y217911D01*
X23985Y217909D01*
X24063Y217920D01*
X24138Y217943D01*
X24209Y217977D01*
X24274Y218022D01*
X24331Y218077D01*
X24378Y218140D01*
X24415Y218209D01*
X24441Y218283D01*
X24455Y218361D01*
X24456Y218440D01*
X24446Y218518D01*
X24423Y218593D01*
X24388Y218664D01*
X24343Y218728D01*
X24289Y218785D01*
X24225Y218831D01*
X23839Y219061D01*
X23431Y219252D01*
X23008Y219407D01*
X22573Y219524D01*
X22130Y219602D01*
X21682Y219642D01*
X21232D01*
X20783Y219602D01*
X20550Y219561D01*
X31253Y230264D01*
X31233Y230000D01*
X31279Y229411D01*
X31417Y228836D01*
X31643Y228290D01*
X31952Y227786D01*
X32336Y227336D01*
X32786Y226952D01*
X33290Y226643D01*
X33836Y226417D01*
X34411Y226279D01*
X35000Y226233D01*
X35589Y226279D01*
X36164Y226417D01*
X36710Y226643D01*
X37214Y226952D01*
X37664Y227336D01*
X38048Y227786D01*
X38357Y228290D01*
X38583Y228836D01*
X38721Y229411D01*
X38756Y230000D01*
X38721Y230589D01*
X38583Y231164D01*
X38357Y231710D01*
X38048Y232214D01*
X37664Y232664D01*
X37554Y232758D01*
X42446D01*
X42336Y232664D01*
X41952Y232214D01*
X41643Y231710D01*
X41417Y231164D01*
X41279Y230589D01*
X41233Y230000D01*
X41279Y229411D01*
X41417Y228836D01*
X41643Y228290D01*
X41952Y227786D01*
X42336Y227336D01*
X42522Y227177D01*
G37*
G36*
X17270Y220523D02*X16000Y219254D01*
Y295500D01*
X17270D01*
Y279851D01*
X17258Y279840D01*
X17212Y279777D01*
X16982Y279390D01*
X16791Y278982D01*
X16636Y278559D01*
X16519Y278125D01*
X16441Y277681D01*
X16402Y277233D01*
Y276783D01*
X16441Y276334D01*
X16519Y275891D01*
X16636Y275456D01*
X16791Y275034D01*
X16982Y274626D01*
X17208Y274237D01*
X17255Y274173D01*
X17270Y274159D01*
Y220523D01*
G37*
G36*
X22946Y226200D02*X17270Y220523D01*
Y274159D01*
X17313Y274118D01*
X17378Y274073D01*
X17449Y274038D01*
X17525Y274015D01*
X17604Y274004D01*
X17683Y274006D01*
X17761Y274020D01*
X17836Y274046D01*
X17906Y274083D01*
X17969Y274131D01*
X18024Y274188D01*
X18069Y274253D01*
X18104Y274325D01*
X18127Y274401D01*
X18138Y274479D01*
X18136Y274559D01*
X18122Y274637D01*
X18096Y274712D01*
X18058Y274781D01*
X17872Y275092D01*
X17719Y275420D01*
X17594Y275760D01*
X17500Y276109D01*
X17437Y276466D01*
X17406Y276827D01*
Y277189D01*
X17437Y277550D01*
X17500Y277906D01*
X17594Y278256D01*
X17719Y278596D01*
X17872Y278924D01*
X18054Y279237D01*
X18093Y279306D01*
X18118Y279380D01*
X18132Y279458D01*
X18134Y279536D01*
X18123Y279614D01*
X18100Y279690D01*
X18066Y279760D01*
X18021Y279825D01*
X17966Y279882D01*
X17904Y279929D01*
X17834Y279966D01*
X17760Y279992D01*
X17682Y280006D01*
X17604Y280008D01*
X17526Y279997D01*
X17450Y279974D01*
X17380Y279940D01*
X17315Y279895D01*
X17270Y279851D01*
Y295500D01*
X22946D01*
Y281945D01*
X22652Y282024D01*
X22209Y282102D01*
X21761Y282142D01*
X21310D01*
X20862Y282102D01*
X20419Y282024D01*
X19984Y281907D01*
X19561Y281752D01*
X19153Y281561D01*
X18764Y281335D01*
X18701Y281288D01*
X18646Y281231D01*
X18600Y281166D01*
X18566Y281094D01*
X18543Y281018D01*
X18532Y280940D01*
X18533Y280860D01*
X18547Y280782D01*
X18573Y280707D01*
X18611Y280638D01*
X18659Y280574D01*
X18716Y280519D01*
X18781Y280474D01*
X18852Y280439D01*
X18928Y280416D01*
X19007Y280405D01*
X19086Y280407D01*
X19164Y280421D01*
X19239Y280447D01*
X19308Y280486D01*
X19619Y280671D01*
X19947Y280824D01*
X20287Y280949D01*
X20637Y281043D01*
X20994Y281106D01*
X21354Y281138D01*
X21716D01*
X22077Y281106D01*
X22434Y281043D01*
X22784Y280949D01*
X22946Y280889D01*
Y273126D01*
X22784Y273067D01*
X22434Y272973D01*
X22077Y272910D01*
X21716Y272878D01*
X21354D01*
X20994Y272910D01*
X20637Y272973D01*
X20287Y273067D01*
X19947Y273191D01*
X19619Y273345D01*
X19306Y273527D01*
X19238Y273565D01*
X19163Y273591D01*
X19086Y273605D01*
X19007Y273606D01*
X18929Y273596D01*
X18854Y273573D01*
X18783Y273538D01*
X18718Y273493D01*
X18662Y273439D01*
X18614Y273376D01*
X18577Y273307D01*
X18551Y273232D01*
X18537Y273155D01*
X18536Y273076D01*
X18547Y272998D01*
X18569Y272923D01*
X18604Y272852D01*
X18649Y272788D01*
X18703Y272731D01*
X18767Y272685D01*
X19153Y272454D01*
X19561Y272263D01*
X19984Y272109D01*
X20419Y271992D01*
X20862Y271913D01*
X21310Y271874D01*
X21761D01*
X22209Y271913D01*
X22652Y271992D01*
X22946Y272071D01*
Y269542D01*
X22940Y269533D01*
X22569Y268896D01*
X22256Y268229D01*
X22003Y267538D01*
X21811Y266827D01*
X21683Y266102D01*
X21618Y265368D01*
Y264632D01*
X21683Y263898D01*
X21811Y263173D01*
X22003Y262462D01*
X22256Y261771D01*
X22569Y261104D01*
X22940Y260467D01*
X22946Y260458D01*
Y226200D01*
G37*
G36*
Y262832D02*X22795Y263393D01*
X22682Y264031D01*
X22625Y264676D01*
Y265324D01*
X22682Y265969D01*
X22795Y266607D01*
X22946Y267168D01*
Y262832D01*
G37*
G36*
X25801Y229055D02*X22946Y226200D01*
Y260458D01*
X23364Y259866D01*
X23418Y259806D01*
X23480Y259756D01*
X23549Y259717D01*
X23624Y259688D01*
X23702Y259672D01*
X23782Y259668D01*
X23861Y259677D01*
X23938Y259698D01*
X24011Y259731D01*
X24078Y259774D01*
X24137Y259828D01*
X24187Y259890D01*
X24226Y259960D01*
X24255Y260034D01*
X24271Y260112D01*
X24275Y260192D01*
X24266Y260271D01*
X24245Y260348D01*
X24212Y260421D01*
X24167Y260487D01*
X23788Y261012D01*
X23462Y261572D01*
X23187Y262159D01*
X22964Y262767D01*
X22946Y262832D01*
Y267168D01*
X22964Y267233D01*
X23187Y267841D01*
X23462Y268428D01*
X23788Y268988D01*
X24162Y269517D01*
X24206Y269582D01*
X24238Y269654D01*
X24259Y269730D01*
X24268Y269808D01*
X24264Y269887D01*
X24248Y269964D01*
X24220Y270037D01*
X24181Y270106D01*
X24131Y270167D01*
X24073Y270220D01*
X24007Y270263D01*
X23936Y270295D01*
X23860Y270316D01*
X23781Y270325D01*
X23703Y270321D01*
X23626Y270305D01*
X23552Y270277D01*
X23484Y270238D01*
X23422Y270189D01*
X23371Y270129D01*
X22946Y269542D01*
Y272071D01*
X23087Y272109D01*
X23510Y272263D01*
X23917Y272454D01*
X24307Y272680D01*
X24370Y272728D01*
X24425Y272785D01*
X24471Y272850D01*
X24505Y272921D01*
X24528Y272997D01*
X24539Y273076D01*
X24538Y273155D01*
X24524Y273233D01*
X24498Y273308D01*
X24460Y273378D01*
X24412Y273441D01*
X24355Y273496D01*
X24290Y273542D01*
X24219Y273576D01*
X24143Y273599D01*
X24064Y273610D01*
X23985Y273609D01*
X23907Y273595D01*
X23832Y273569D01*
X23763Y273530D01*
X23452Y273345D01*
X23124Y273191D01*
X22946Y273126D01*
Y280889D01*
X23124Y280824D01*
X23452Y280671D01*
X23765Y280489D01*
X23833Y280451D01*
X23908Y280425D01*
X23985Y280411D01*
X24064Y280409D01*
X24142Y280420D01*
X24217Y280443D01*
X24288Y280477D01*
X24353Y280522D01*
X24409Y280577D01*
X24457Y280640D01*
X24494Y280709D01*
X24520Y280783D01*
X24534Y280861D01*
X24535Y280940D01*
X24524Y281018D01*
X24502Y281093D01*
X24467Y281164D01*
X24422Y281228D01*
X24368Y281285D01*
X24304Y281331D01*
X23917Y281561D01*
X23510Y281752D01*
X23087Y281907D01*
X22946Y281945D01*
Y295500D01*
X25801D01*
Y279857D01*
X25758Y279898D01*
X25693Y279943D01*
X25622Y279978D01*
X25546Y280001D01*
X25467Y280012D01*
X25388Y280010D01*
X25310Y279996D01*
X25235Y279970D01*
X25165Y279933D01*
X25102Y279885D01*
X25047Y279828D01*
X25002Y279762D01*
X24967Y279691D01*
X24944Y279615D01*
X24933Y279537D01*
X24935Y279457D01*
X24949Y279379D01*
X24975Y279304D01*
X25013Y279235D01*
X25198Y278924D01*
X25352Y278596D01*
X25476Y278256D01*
X25570Y277906D01*
X25634Y277550D01*
X25665Y277189D01*
Y276827D01*
X25634Y276466D01*
X25570Y276109D01*
X25476Y275760D01*
X25352Y275420D01*
X25198Y275092D01*
X25017Y274779D01*
X24978Y274710D01*
X24952Y274636D01*
X24939Y274558D01*
X24937Y274479D01*
X24948Y274401D01*
X24971Y274326D01*
X25005Y274255D01*
X25050Y274191D01*
X25104Y274134D01*
X25167Y274087D01*
X25237Y274049D01*
X25311Y274024D01*
X25388Y274010D01*
X25467Y274008D01*
X25545Y274019D01*
X25620Y274042D01*
X25691Y274076D01*
X25756Y274121D01*
X25801Y274165D01*
Y272254D01*
X25467Y272060D01*
X24866Y271636D01*
X24806Y271582D01*
X24756Y271520D01*
X24717Y271451D01*
X24688Y271376D01*
X24672Y271298D01*
X24668Y271218D01*
X24677Y271139D01*
X24698Y271062D01*
X24731Y270989D01*
X24774Y270922D01*
X24828Y270863D01*
X24890Y270813D01*
X24960Y270774D01*
X25034Y270745D01*
X25112Y270729D01*
X25192Y270725D01*
X25271Y270734D01*
X25348Y270755D01*
X25421Y270788D01*
X25487Y270833D01*
X25801Y271060D01*
Y258937D01*
X25483Y259162D01*
X25418Y259206D01*
X25346Y259238D01*
X25270Y259259D01*
X25192Y259268D01*
X25113Y259264D01*
X25036Y259248D01*
X24963Y259220D01*
X24894Y259181D01*
X24833Y259131D01*
X24780Y259073D01*
X24737Y259007D01*
X24705Y258936D01*
X24684Y258860D01*
X24675Y258781D01*
X24679Y258703D01*
X24695Y258626D01*
X24723Y258552D01*
X24762Y258484D01*
X24811Y258422D01*
X24871Y258371D01*
X25467Y257940D01*
X25801Y257746D01*
Y229055D01*
G37*
G36*
X30004Y233257D02*X25801Y229055D01*
Y257746D01*
X26104Y257569D01*
X26771Y257256D01*
X27462Y257003D01*
X28173Y256811D01*
X28898Y256683D01*
X29632Y256618D01*
X30004D01*
Y233257D01*
G37*
G36*
X25801Y295500D02*X30004D01*
Y273382D01*
X29632D01*
X28898Y273317D01*
X28173Y273189D01*
X27462Y272997D01*
X26771Y272744D01*
X26104Y272431D01*
X25801Y272254D01*
Y274165D01*
X25813Y274176D01*
X25859Y274239D01*
X26089Y274626D01*
X26280Y275034D01*
X26434Y275456D01*
X26551Y275891D01*
X26630Y276334D01*
X26669Y276783D01*
Y277233D01*
X26630Y277681D01*
X26551Y278125D01*
X26434Y278559D01*
X26280Y278982D01*
X26089Y279390D01*
X25863Y279779D01*
X25816Y279843D01*
X25801Y279857D01*
Y295500D01*
G37*
G36*
Y271060D02*X26012Y271212D01*
X26572Y271538D01*
X27159Y271813D01*
X27767Y272036D01*
X28393Y272205D01*
X29031Y272318D01*
X29676Y272375D01*
X30004D01*
Y257625D01*
X29676D01*
X29031Y257682D01*
X28393Y257795D01*
X27767Y257964D01*
X27159Y258187D01*
X26572Y258462D01*
X26012Y258788D01*
X25801Y258937D01*
Y271060D01*
G37*
G36*
X37054Y235758D02*X33185D01*
X33126Y235763D01*
X32891Y235744D01*
X32661Y235689D01*
X32443Y235599D01*
X32242Y235476D01*
X32241Y235475D01*
X32062Y235322D01*
X32024Y235277D01*
X30004Y233257D01*
Y256618D01*
X30368D01*
X31102Y256683D01*
X31827Y256811D01*
X32538Y257003D01*
X33229Y257256D01*
X33896Y257569D01*
X34533Y257940D01*
X35134Y258364D01*
X35194Y258418D01*
X35244Y258480D01*
X35283Y258549D01*
X35312Y258624D01*
X35328Y258702D01*
X35332Y258782D01*
X35323Y258861D01*
X35302Y258938D01*
X35269Y259011D01*
X35226Y259078D01*
X35172Y259137D01*
X35110Y259187D01*
X35040Y259226D01*
X34966Y259255D01*
X34888Y259271D01*
X34808Y259275D01*
X34729Y259266D01*
X34652Y259245D01*
X34579Y259212D01*
X34513Y259167D01*
X33988Y258788D01*
X33428Y258462D01*
X32841Y258187D01*
X32233Y257964D01*
X31607Y257795D01*
X30969Y257682D01*
X30324Y257625D01*
X30004D01*
Y272375D01*
X30324D01*
X30969Y272318D01*
X31607Y272205D01*
X32233Y272036D01*
X32841Y271813D01*
X33428Y271538D01*
X33988Y271212D01*
X34517Y270838D01*
X34582Y270794D01*
X34654Y270762D01*
X34730Y270741D01*
X34808Y270732D01*
X34887Y270736D01*
X34964Y270752D01*
X35037Y270780D01*
X35106Y270819D01*
X35167Y270869D01*
X35220Y270927D01*
X35263Y270993D01*
X35295Y271064D01*
X35316Y271140D01*
X35325Y271219D01*
X35321Y271297D01*
X35305Y271374D01*
X35277Y271448D01*
X35238Y271516D01*
X35189Y271578D01*
X35129Y271629D01*
X34533Y272060D01*
X33896Y272431D01*
X33229Y272744D01*
X32538Y272997D01*
X31827Y273189D01*
X31102Y273317D01*
X30368Y273382D01*
X30004D01*
Y295500D01*
X37054D01*
Y269542D01*
X36636Y270134D01*
X36582Y270194D01*
X36520Y270244D01*
X36451Y270283D01*
X36376Y270312D01*
X36298Y270328D01*
X36218Y270332D01*
X36139Y270323D01*
X36062Y270302D01*
X35989Y270269D01*
X35922Y270226D01*
X35863Y270172D01*
X35813Y270110D01*
X35774Y270040D01*
X35745Y269966D01*
X35729Y269888D01*
X35725Y269808D01*
X35734Y269729D01*
X35755Y269652D01*
X35788Y269579D01*
X35833Y269513D01*
X36212Y268988D01*
X36538Y268428D01*
X36813Y267841D01*
X37036Y267233D01*
X37054Y267168D01*
Y262832D01*
X37036Y262767D01*
X36813Y262159D01*
X36538Y261572D01*
X36212Y261012D01*
X35838Y260483D01*
X35794Y260418D01*
X35762Y260346D01*
X35741Y260270D01*
X35732Y260192D01*
X35736Y260113D01*
X35752Y260036D01*
X35780Y259963D01*
X35819Y259894D01*
X35869Y259833D01*
X35927Y259780D01*
X35993Y259737D01*
X36064Y259705D01*
X36140Y259684D01*
X36219Y259675D01*
X36297Y259679D01*
X36374Y259695D01*
X36448Y259723D01*
X36516Y259762D01*
X36578Y259811D01*
X36629Y259871D01*
X37054Y260458D01*
Y242333D01*
X36952Y242214D01*
X36643Y241710D01*
X36417Y241164D01*
X36279Y240589D01*
X36233Y240000D01*
X36279Y239411D01*
X36417Y238836D01*
X36643Y238290D01*
X36952Y237786D01*
X37054Y237667D01*
Y235758D01*
G37*
G36*
X49994D02*X37054D01*
Y237667D01*
X37336Y237336D01*
X37786Y236952D01*
X38290Y236643D01*
X38836Y236417D01*
X39411Y236279D01*
X40000Y236233D01*
X40589Y236279D01*
X41164Y236417D01*
X41710Y236643D01*
X42214Y236952D01*
X42664Y237336D01*
X43048Y237786D01*
X43357Y238290D01*
X43583Y238836D01*
X43721Y239411D01*
X43756Y240000D01*
X43721Y240589D01*
X43583Y241164D01*
X43357Y241710D01*
X43048Y242214D01*
X42664Y242664D01*
X42214Y243048D01*
X41710Y243357D01*
X41164Y243583D01*
X40589Y243721D01*
X40000Y243767D01*
X39411Y243721D01*
X38836Y243583D01*
X38290Y243357D01*
X37786Y243048D01*
X37336Y242664D01*
X37054Y242333D01*
Y260458D01*
X37060Y260467D01*
X37431Y261104D01*
X37744Y261771D01*
X37997Y262462D01*
X38189Y263173D01*
X38317Y263898D01*
X38382Y264632D01*
Y265368D01*
X38317Y266102D01*
X38189Y266827D01*
X37997Y267538D01*
X37744Y268229D01*
X37431Y268896D01*
X37060Y269533D01*
X37054Y269542D01*
Y295500D01*
X49994D01*
Y243767D01*
X49411Y243721D01*
X48836Y243583D01*
X48290Y243357D01*
X47786Y243048D01*
X47336Y242664D01*
X46952Y242214D01*
X46643Y241710D01*
X46417Y241164D01*
X46279Y240589D01*
X46233Y240000D01*
X46279Y239411D01*
X46417Y238836D01*
X46643Y238290D01*
X46952Y237786D01*
X47336Y237336D01*
X47786Y236952D01*
X48290Y236643D01*
X48836Y236417D01*
X49411Y236279D01*
X49994Y236233D01*
Y235758D01*
G37*
G36*
X59994D02*X49994D01*
Y236233D01*
X50000Y236233D01*
X50589Y236279D01*
X51164Y236417D01*
X51710Y236643D01*
X52214Y236952D01*
X52664Y237336D01*
X53048Y237786D01*
X53357Y238290D01*
X53583Y238836D01*
X53721Y239411D01*
X53756Y240000D01*
X53721Y240589D01*
X53583Y241164D01*
X53357Y241710D01*
X53048Y242214D01*
X52664Y242664D01*
X52214Y243048D01*
X51710Y243357D01*
X51164Y243583D01*
X50589Y243721D01*
X50000Y243767D01*
X49994Y243767D01*
Y295500D01*
X59994D01*
Y243767D01*
X59411Y243721D01*
X58836Y243583D01*
X58290Y243357D01*
X57786Y243048D01*
X57336Y242664D01*
X56952Y242214D01*
X56643Y241710D01*
X56417Y241164D01*
X56279Y240589D01*
X56233Y240000D01*
X56279Y239411D01*
X56417Y238836D01*
X56643Y238290D01*
X56952Y237786D01*
X57336Y237336D01*
X57786Y236952D01*
X58290Y236643D01*
X58836Y236417D01*
X59411Y236279D01*
X59994Y236233D01*
Y235758D01*
G37*
G36*
X65793Y233672D02*X67946Y235825D01*
Y232333D01*
X67664Y232664D01*
X67214Y233048D01*
X66710Y233357D01*
X66164Y233583D01*
X65793Y233672D01*
G37*
G36*
X67946Y243147D02*X67786Y243048D01*
X67336Y242664D01*
X66952Y242214D01*
X66643Y241710D01*
X66417Y241164D01*
X66279Y240589D01*
X66233Y240000D01*
X66279Y239411D01*
X66417Y238836D01*
X66504Y238625D01*
X63637Y235758D01*
X59994D01*
Y236233D01*
X60000Y236233D01*
X60589Y236279D01*
X61164Y236417D01*
X61710Y236643D01*
X62214Y236952D01*
X62664Y237336D01*
X63048Y237786D01*
X63357Y238290D01*
X63583Y238836D01*
X63721Y239411D01*
X63756Y240000D01*
X63721Y240589D01*
X63583Y241164D01*
X63357Y241710D01*
X63048Y242214D01*
X62664Y242664D01*
X62214Y243048D01*
X61710Y243357D01*
X61164Y243583D01*
X60589Y243721D01*
X60000Y243767D01*
X59994Y243767D01*
Y295500D01*
X67946D01*
Y269542D01*
X67940Y269533D01*
X67569Y268896D01*
X67256Y268229D01*
X67003Y267538D01*
X66811Y266827D01*
X66683Y266102D01*
X66618Y265368D01*
Y264632D01*
X66683Y263898D01*
X66811Y263173D01*
X67003Y262462D01*
X67256Y261771D01*
X67569Y261104D01*
X67940Y260467D01*
X67946Y260458D01*
Y243147D01*
G37*
G36*
Y262832D02*X67795Y263393D01*
X67682Y264031D01*
X67625Y264676D01*
Y265324D01*
X67682Y265969D01*
X67795Y266607D01*
X67946Y267168D01*
Y262832D01*
G37*
G36*
Y235825D02*X68625Y236504D01*
X68836Y236417D01*
X69411Y236279D01*
X70000Y236233D01*
X70589Y236279D01*
X71164Y236417D01*
X71710Y236643D01*
X72214Y236952D01*
X72664Y237336D01*
X73048Y237786D01*
X73357Y238290D01*
X73583Y238836D01*
X73721Y239411D01*
X73756Y240000D01*
X73721Y240589D01*
X73583Y241164D01*
X73357Y241710D01*
X73048Y242214D01*
X72664Y242664D01*
X72214Y243048D01*
X71710Y243357D01*
X71164Y243583D01*
X70589Y243721D01*
X70000Y243767D01*
X69411Y243721D01*
X68836Y243583D01*
X68290Y243357D01*
X67946Y243147D01*
Y260458D01*
X68364Y259866D01*
X68418Y259806D01*
X68480Y259756D01*
X68549Y259717D01*
X68624Y259688D01*
X68702Y259672D01*
X68782Y259668D01*
X68861Y259677D01*
X68938Y259698D01*
X69011Y259731D01*
X69078Y259774D01*
X69137Y259828D01*
X69187Y259890D01*
X69226Y259960D01*
X69255Y260034D01*
X69271Y260112D01*
X69275Y260192D01*
X69266Y260271D01*
X69245Y260348D01*
X69212Y260421D01*
X69167Y260487D01*
X68788Y261012D01*
X68462Y261572D01*
X68187Y262159D01*
X67964Y262767D01*
X67946Y262832D01*
Y267168D01*
X67964Y267233D01*
X68187Y267841D01*
X68462Y268428D01*
X68788Y268988D01*
X69162Y269517D01*
X69206Y269582D01*
X69238Y269654D01*
X69259Y269730D01*
X69268Y269808D01*
X69264Y269887D01*
X69248Y269964D01*
X69220Y270037D01*
X69181Y270106D01*
X69131Y270167D01*
X69073Y270220D01*
X69007Y270263D01*
X68936Y270295D01*
X68860Y270316D01*
X68781Y270325D01*
X68703Y270321D01*
X68626Y270305D01*
X68552Y270277D01*
X68484Y270238D01*
X68422Y270189D01*
X68371Y270129D01*
X67946Y269542D01*
Y295500D01*
X75004D01*
Y273382D01*
X74632D01*
X73898Y273317D01*
X73173Y273189D01*
X72462Y272997D01*
X71771Y272744D01*
X71104Y272431D01*
X70467Y272060D01*
X69866Y271636D01*
X69806Y271582D01*
X69756Y271520D01*
X69717Y271451D01*
X69688Y271376D01*
X69672Y271298D01*
X69668Y271218D01*
X69677Y271139D01*
X69698Y271062D01*
X69731Y270989D01*
X69774Y270922D01*
X69828Y270863D01*
X69890Y270813D01*
X69960Y270774D01*
X70034Y270745D01*
X70112Y270729D01*
X70192Y270725D01*
X70271Y270734D01*
X70348Y270755D01*
X70421Y270788D01*
X70487Y270833D01*
X71012Y271212D01*
X71572Y271538D01*
X72159Y271813D01*
X72767Y272036D01*
X73393Y272205D01*
X74031Y272318D01*
X74676Y272375D01*
X75004D01*
Y257625D01*
X74676D01*
X74031Y257682D01*
X73393Y257795D01*
X72767Y257964D01*
X72159Y258187D01*
X71572Y258462D01*
X71012Y258788D01*
X70483Y259162D01*
X70418Y259206D01*
X70346Y259238D01*
X70270Y259259D01*
X70192Y259268D01*
X70113Y259264D01*
X70036Y259248D01*
X69963Y259220D01*
X69894Y259181D01*
X69833Y259131D01*
X69780Y259073D01*
X69737Y259007D01*
X69705Y258936D01*
X69684Y258860D01*
X69675Y258781D01*
X69679Y258703D01*
X69695Y258626D01*
X69723Y258552D01*
X69762Y258484D01*
X69811Y258422D01*
X69871Y258371D01*
X70467Y257940D01*
X71104Y257569D01*
X71771Y257256D01*
X72462Y257003D01*
X73173Y256811D01*
X73898Y256683D01*
X74632Y256618D01*
X75004D01*
Y231500D01*
X68444D01*
X68357Y231710D01*
X68048Y232214D01*
X67946Y232333D01*
Y235825D01*
G37*
G36*
X75004Y295500D02*X79278D01*
Y279851D01*
X79266Y279840D01*
X79220Y279777D01*
X78990Y279390D01*
X78799Y278982D01*
X78644Y278559D01*
X78527Y278125D01*
X78449Y277681D01*
X78409Y277233D01*
Y276783D01*
X78449Y276334D01*
X78527Y275891D01*
X78644Y275456D01*
X78799Y275034D01*
X78990Y274626D01*
X79216Y274237D01*
X79263Y274173D01*
X79278Y274159D01*
Y272209D01*
X78896Y272431D01*
X78229Y272744D01*
X77538Y272997D01*
X76827Y273189D01*
X76102Y273317D01*
X75368Y273382D01*
X75004D01*
Y295500D01*
G37*
G36*
X79278Y228906D02*X77164Y231019D01*
X77126Y231064D01*
X76947Y231217D01*
X76745Y231341D01*
X76527Y231431D01*
X76298Y231486D01*
X76062Y231505D01*
X76003Y231500D01*
X75004D01*
Y256618D01*
X75368D01*
X76102Y256683D01*
X76827Y256811D01*
X77538Y257003D01*
X78229Y257256D01*
X78896Y257569D01*
X79278Y257791D01*
Y228906D01*
G37*
G36*
Y258997D02*X78988Y258788D01*
X78428Y258462D01*
X77841Y258187D01*
X77233Y257964D01*
X76607Y257795D01*
X75969Y257682D01*
X75324Y257625D01*
X75004D01*
Y272375D01*
X75324D01*
X75969Y272318D01*
X76607Y272205D01*
X77233Y272036D01*
X77841Y271813D01*
X78428Y271538D01*
X78988Y271212D01*
X79278Y271008D01*
Y258997D01*
G37*
G36*
Y295500D02*X82054D01*
Y281923D01*
X81992Y281907D01*
X81569Y281752D01*
X81161Y281561D01*
X80772Y281335D01*
X80708Y281288D01*
X80653Y281231D01*
X80608Y281166D01*
X80574Y281094D01*
X80551Y281018D01*
X80540Y280940D01*
X80541Y280860D01*
X80555Y280782D01*
X80581Y280707D01*
X80619Y280638D01*
X80666Y280574D01*
X80724Y280519D01*
X80789Y280474D01*
X80860Y280439D01*
X80936Y280416D01*
X81015Y280405D01*
X81094Y280407D01*
X81172Y280421D01*
X81247Y280447D01*
X81316Y280486D01*
X81627Y280671D01*
X81955Y280824D01*
X82054Y280860D01*
Y273155D01*
X81955Y273191D01*
X81627Y273345D01*
X81314Y273527D01*
X81245Y273565D01*
X81171Y273591D01*
X81094Y273605D01*
X81015Y273606D01*
X80937Y273596D01*
X80862Y273573D01*
X80791Y273538D01*
X80726Y273493D01*
X80669Y273439D01*
X80622Y273376D01*
X80585Y273307D01*
X80559Y273232D01*
X80545Y273155D01*
X80544Y273076D01*
X80554Y272998D01*
X80577Y272923D01*
X80612Y272852D01*
X80657Y272788D01*
X80711Y272731D01*
X80775Y272685D01*
X81161Y272454D01*
X81569Y272263D01*
X81992Y272109D01*
X82054Y272092D01*
Y269542D01*
X81636Y270134D01*
X81582Y270194D01*
X81520Y270244D01*
X81451Y270283D01*
X81376Y270312D01*
X81298Y270328D01*
X81218Y270332D01*
X81139Y270323D01*
X81062Y270302D01*
X80989Y270269D01*
X80922Y270226D01*
X80863Y270172D01*
X80813Y270110D01*
X80774Y270040D01*
X80745Y269966D01*
X80729Y269888D01*
X80725Y269808D01*
X80734Y269729D01*
X80755Y269652D01*
X80788Y269579D01*
X80833Y269513D01*
X81212Y268988D01*
X81538Y268428D01*
X81813Y267841D01*
X82036Y267233D01*
X82054Y267168D01*
Y262832D01*
X82036Y262767D01*
X81813Y262159D01*
X81538Y261572D01*
X81212Y261012D01*
X80838Y260483D01*
X80794Y260418D01*
X80762Y260346D01*
X80741Y260270D01*
X80732Y260192D01*
X80736Y260113D01*
X80752Y260036D01*
X80780Y259963D01*
X80819Y259894D01*
X80869Y259833D01*
X80927Y259780D01*
X80993Y259737D01*
X81064Y259705D01*
X81140Y259684D01*
X81219Y259675D01*
X81297Y259679D01*
X81374Y259695D01*
X81448Y259723D01*
X81516Y259762D01*
X81578Y259811D01*
X81629Y259871D01*
X82054Y260458D01*
Y226130D01*
X79278Y228906D01*
Y257791D01*
X79533Y257940D01*
X80134Y258364D01*
X80194Y258418D01*
X80244Y258480D01*
X80283Y258549D01*
X80312Y258624D01*
X80328Y258702D01*
X80332Y258782D01*
X80323Y258861D01*
X80302Y258938D01*
X80269Y259011D01*
X80226Y259078D01*
X80172Y259137D01*
X80110Y259187D01*
X80040Y259226D01*
X79966Y259255D01*
X79888Y259271D01*
X79808Y259275D01*
X79729Y259266D01*
X79652Y259245D01*
X79579Y259212D01*
X79513Y259167D01*
X79278Y258997D01*
Y271008D01*
X79517Y270838D01*
X79582Y270794D01*
X79654Y270762D01*
X79730Y270741D01*
X79808Y270732D01*
X79887Y270736D01*
X79964Y270752D01*
X80037Y270780D01*
X80106Y270819D01*
X80167Y270869D01*
X80220Y270927D01*
X80263Y270993D01*
X80295Y271064D01*
X80316Y271140D01*
X80325Y271219D01*
X80321Y271297D01*
X80305Y271374D01*
X80277Y271448D01*
X80238Y271516D01*
X80189Y271578D01*
X80129Y271629D01*
X79533Y272060D01*
X79278Y272209D01*
Y274159D01*
X79320Y274118D01*
X79386Y274073D01*
X79457Y274038D01*
X79533Y274015D01*
X79611Y274004D01*
X79691Y274006D01*
X79769Y274020D01*
X79844Y274046D01*
X79914Y274083D01*
X79977Y274131D01*
X80032Y274188D01*
X80077Y274253D01*
X80112Y274325D01*
X80135Y274401D01*
X80146Y274479D01*
X80144Y274559D01*
X80130Y274637D01*
X80104Y274712D01*
X80065Y274781D01*
X79880Y275092D01*
X79727Y275420D01*
X79602Y275760D01*
X79508Y276109D01*
X79445Y276466D01*
X79413Y276827D01*
Y277189D01*
X79445Y277550D01*
X79508Y277906D01*
X79602Y278256D01*
X79727Y278596D01*
X79880Y278924D01*
X80062Y279237D01*
X80101Y279306D01*
X80126Y279380D01*
X80140Y279458D01*
X80142Y279536D01*
X80131Y279614D01*
X80108Y279690D01*
X80074Y279760D01*
X80029Y279825D01*
X79974Y279882D01*
X79912Y279929D01*
X79842Y279966D01*
X79768Y279992D01*
X79690Y280006D01*
X79612Y280008D01*
X79534Y279997D01*
X79458Y279974D01*
X79388Y279940D01*
X79323Y279895D01*
X79278Y279851D01*
Y295500D01*
G37*
G36*
X82054D02*X87809D01*
Y279857D01*
X87766Y279898D01*
X87701Y279943D01*
X87630Y279978D01*
X87554Y280001D01*
X87475Y280012D01*
X87396Y280010D01*
X87318Y279996D01*
X87243Y279970D01*
X87173Y279933D01*
X87110Y279885D01*
X87055Y279828D01*
X87009Y279762D01*
X86975Y279691D01*
X86952Y279615D01*
X86941Y279537D01*
X86942Y279457D01*
X86956Y279379D01*
X86982Y279304D01*
X87021Y279235D01*
X87206Y278924D01*
X87360Y278596D01*
X87484Y278256D01*
X87578Y277906D01*
X87642Y277550D01*
X87673Y277189D01*
Y276827D01*
X87642Y276466D01*
X87578Y276109D01*
X87484Y275760D01*
X87360Y275420D01*
X87206Y275092D01*
X87025Y274779D01*
X86986Y274710D01*
X86960Y274636D01*
X86946Y274558D01*
X86945Y274479D01*
X86956Y274401D01*
X86978Y274326D01*
X87013Y274255D01*
X87058Y274191D01*
X87112Y274134D01*
X87175Y274087D01*
X87244Y274049D01*
X87319Y274024D01*
X87396Y274010D01*
X87475Y274008D01*
X87553Y274019D01*
X87628Y274042D01*
X87699Y274076D01*
X87764Y274121D01*
X87809Y274165D01*
Y220374D01*
X82054Y226130D01*
Y260458D01*
X82060Y260467D01*
X82431Y261104D01*
X82744Y261771D01*
X82997Y262462D01*
X83189Y263173D01*
X83317Y263898D01*
X83382Y264632D01*
Y265368D01*
X83317Y266102D01*
X83189Y266827D01*
X82997Y267538D01*
X82744Y268229D01*
X82431Y268896D01*
X82060Y269533D01*
X82054Y269542D01*
Y272092D01*
X82427Y271992D01*
X82870Y271913D01*
X83318Y271874D01*
X83768D01*
X84217Y271913D01*
X84660Y271992D01*
X85095Y272109D01*
X85518Y272263D01*
X85925Y272454D01*
X86315Y272680D01*
X86378Y272728D01*
X86433Y272785D01*
X86478Y272850D01*
X86513Y272921D01*
X86536Y272997D01*
X86547Y273076D01*
X86545Y273155D01*
X86531Y273233D01*
X86505Y273308D01*
X86468Y273378D01*
X86420Y273441D01*
X86363Y273496D01*
X86298Y273542D01*
X86226Y273576D01*
X86151Y273599D01*
X86072Y273610D01*
X85993Y273609D01*
X85915Y273595D01*
X85840Y273569D01*
X85771Y273530D01*
X85459Y273345D01*
X85132Y273191D01*
X84791Y273067D01*
X84442Y272973D01*
X84085Y272910D01*
X83724Y272878D01*
X83362D01*
X83001Y272910D01*
X82645Y272973D01*
X82295Y273067D01*
X82054Y273155D01*
Y280860D01*
X82295Y280949D01*
X82645Y281043D01*
X83001Y281106D01*
X83362Y281138D01*
X83724D01*
X84085Y281106D01*
X84442Y281043D01*
X84791Y280949D01*
X85132Y280824D01*
X85459Y280671D01*
X85773Y280489D01*
X85841Y280451D01*
X85916Y280425D01*
X85993Y280411D01*
X86072Y280409D01*
X86150Y280420D01*
X86225Y280443D01*
X86296Y280477D01*
X86360Y280522D01*
X86417Y280577D01*
X86465Y280640D01*
X86502Y280709D01*
X86528Y280783D01*
X86541Y280861D01*
X86543Y280940D01*
X86532Y281018D01*
X86509Y281093D01*
X86475Y281164D01*
X86430Y281228D01*
X86376Y281285D01*
X86312Y281331D01*
X85925Y281561D01*
X85518Y281752D01*
X85095Y281907D01*
X84660Y282024D01*
X84217Y282102D01*
X83768Y282142D01*
X83318D01*
X82870Y282102D01*
X82427Y282024D01*
X82054Y281923D01*
Y295500D01*
G37*
G36*
X87809D02*X89000D01*
Y219184D01*
X87809Y220374D01*
Y274165D01*
X87820Y274176D01*
X87867Y274239D01*
X88097Y274626D01*
X88288Y275034D01*
X88442Y275456D01*
X88559Y275891D01*
X88638Y276334D01*
X88677Y276783D01*
Y277233D01*
X88638Y277681D01*
X88559Y278125D01*
X88442Y278559D01*
X88288Y278982D01*
X88097Y279390D01*
X87871Y279779D01*
X87823Y279843D01*
X87809Y279857D01*
Y295500D01*
G37*
G36*
X82054Y267168D02*X82205Y266607D01*
X82318Y265969D01*
X82375Y265324D01*
Y264676D01*
X82318Y264031D01*
X82205Y263393D01*
X82054Y262832D01*
Y267168D01*
G37*
G36*
X37054D02*X37205Y266607D01*
X37318Y265969D01*
X37375Y265324D01*
Y264676D01*
X37318Y264031D01*
X37205Y263393D01*
X37054Y262832D01*
Y267168D01*
G37*
G36*
X13613Y123999D02*X17000D01*
Y85404D01*
X16982Y85374D01*
X16791Y84966D01*
X16636Y84544D01*
X16519Y84109D01*
X16441Y83666D01*
X16402Y83217D01*
Y82767D01*
X16441Y82319D01*
X16478Y82109D01*
X13613Y84974D01*
Y87302D01*
X13652Y87347D01*
X14022Y87951D01*
X14293Y88605D01*
X14458Y89294D01*
X14500Y90000D01*
X14458Y90706D01*
X14293Y91395D01*
X14022Y92049D01*
X13652Y92653D01*
X13613Y92698D01*
Y97853D01*
X13656Y97860D01*
X13768Y97897D01*
X13873Y97952D01*
X13968Y98022D01*
X14051Y98106D01*
X14119Y98202D01*
X14170Y98308D01*
X14318Y98716D01*
X14422Y99137D01*
X14484Y99567D01*
X14505Y100000D01*
X14484Y100433D01*
X14422Y100863D01*
X14318Y101284D01*
X14175Y101694D01*
X14122Y101800D01*
X14053Y101896D01*
X13970Y101981D01*
X13875Y102051D01*
X13769Y102106D01*
X13657Y102143D01*
X13613Y102151D01*
Y107853D01*
X13656Y107860D01*
X13768Y107897D01*
X13873Y107952D01*
X13968Y108022D01*
X14051Y108106D01*
X14119Y108202D01*
X14170Y108308D01*
X14318Y108716D01*
X14422Y109137D01*
X14484Y109567D01*
X14505Y110000D01*
X14484Y110433D01*
X14422Y110863D01*
X14318Y111284D01*
X14175Y111694D01*
X14122Y111800D01*
X14053Y111896D01*
X13970Y111981D01*
X13875Y112051D01*
X13769Y112106D01*
X13657Y112143D01*
X13613Y112151D01*
Y117853D01*
X13656Y117860D01*
X13768Y117897D01*
X13873Y117952D01*
X13968Y118022D01*
X14051Y118106D01*
X14119Y118202D01*
X14170Y118308D01*
X14318Y118716D01*
X14422Y119137D01*
X14484Y119567D01*
X14505Y120000D01*
X14484Y120433D01*
X14422Y120863D01*
X14318Y121284D01*
X14175Y121694D01*
X14122Y121800D01*
X14053Y121896D01*
X13970Y121981D01*
X13875Y122051D01*
X13769Y122106D01*
X13657Y122143D01*
X13613Y122151D01*
Y123999D01*
G37*
G36*
Y84974D02*X12396Y86191D01*
X12653Y86348D01*
X13192Y86808D01*
X13613Y87302D01*
Y84974D01*
G37*
G36*
X10002Y123000D02*X10289Y122986D01*
X10575Y122944D01*
X10855Y122876D01*
X11128Y122780D01*
X11239Y122742D01*
X11356Y122725D01*
X11474Y122725D01*
X11591Y122745D01*
X11703Y122782D01*
X11807Y122836D01*
X11902Y122906D01*
X11985Y122991D01*
X12054Y123087D01*
X12107Y123192D01*
X12143Y123305D01*
X12160Y123421D01*
X12159Y123539D01*
X12140Y123656D01*
X12103Y123768D01*
X12048Y123873D01*
X11978Y123968D01*
X11946Y123999D01*
X13613D01*
Y122151D01*
X13540Y122163D01*
X13421Y122164D01*
X13304Y122146D01*
X13191Y122110D01*
X13085Y122057D01*
X12988Y121988D01*
X12904Y121905D01*
X12833Y121809D01*
X12779Y121704D01*
X12741Y121592D01*
X12722Y121475D01*
X12721Y121356D01*
X12739Y121239D01*
X12777Y121126D01*
X12876Y120855D01*
X12944Y120575D01*
X12986Y120289D01*
X13000Y120000D01*
X12986Y119711D01*
X12944Y119425D01*
X12876Y119145D01*
X12780Y118872D01*
X12742Y118761D01*
X12725Y118644D01*
X12725Y118526D01*
X12745Y118409D01*
X12782Y118297D01*
X12836Y118193D01*
X12906Y118098D01*
X12991Y118015D01*
X13087Y117946D01*
X13192Y117893D01*
X13305Y117857D01*
X13421Y117840D01*
X13539Y117841D01*
X13613Y117853D01*
Y112151D01*
X13540Y112163D01*
X13421Y112164D01*
X13304Y112146D01*
X13191Y112110D01*
X13085Y112057D01*
X12988Y111988D01*
X12904Y111905D01*
X12833Y111809D01*
X12779Y111704D01*
X12741Y111592D01*
X12722Y111475D01*
X12721Y111356D01*
X12739Y111239D01*
X12777Y111126D01*
X12876Y110855D01*
X12944Y110575D01*
X12986Y110289D01*
X13000Y110000D01*
X12986Y109711D01*
X12944Y109425D01*
X12876Y109145D01*
X12780Y108872D01*
X12742Y108761D01*
X12725Y108644D01*
X12725Y108526D01*
X12745Y108409D01*
X12782Y108297D01*
X12836Y108193D01*
X12906Y108098D01*
X12991Y108015D01*
X13087Y107946D01*
X13192Y107893D01*
X13305Y107857D01*
X13421Y107840D01*
X13539Y107841D01*
X13613Y107853D01*
Y102151D01*
X13540Y102163D01*
X13421Y102164D01*
X13304Y102146D01*
X13191Y102110D01*
X13085Y102057D01*
X12988Y101988D01*
X12904Y101905D01*
X12833Y101809D01*
X12779Y101704D01*
X12741Y101592D01*
X12722Y101475D01*
X12721Y101356D01*
X12739Y101239D01*
X12777Y101126D01*
X12876Y100855D01*
X12944Y100575D01*
X12986Y100289D01*
X13000Y100000D01*
X12986Y99711D01*
X12944Y99425D01*
X12876Y99145D01*
X12780Y98872D01*
X12742Y98761D01*
X12725Y98644D01*
X12725Y98526D01*
X12745Y98409D01*
X12782Y98297D01*
X12836Y98193D01*
X12906Y98098D01*
X12991Y98015D01*
X13087Y97946D01*
X13192Y97893D01*
X13305Y97857D01*
X13421Y97840D01*
X13539Y97841D01*
X13613Y97853D01*
Y92698D01*
X13192Y93192D01*
X12653Y93652D01*
X12049Y94022D01*
X11395Y94293D01*
X10706Y94458D01*
X10002Y94514D01*
Y95495D01*
X10433Y95516D01*
X10863Y95578D01*
X11284Y95682D01*
X11694Y95825D01*
X11800Y95878D01*
X11896Y95947D01*
X11981Y96030D01*
X12051Y96125D01*
X12106Y96231D01*
X12143Y96343D01*
X12163Y96460D01*
X12164Y96579D01*
X12146Y96696D01*
X12110Y96809D01*
X12057Y96915D01*
X11988Y97012D01*
X11905Y97096D01*
X11809Y97167D01*
X11704Y97221D01*
X11592Y97259D01*
X11475Y97278D01*
X11356Y97279D01*
X11239Y97261D01*
X11126Y97223D01*
X10855Y97124D01*
X10575Y97056D01*
X10289Y97014D01*
X10002Y97000D01*
Y103000D01*
X10289Y102986D01*
X10575Y102944D01*
X10855Y102876D01*
X11128Y102780D01*
X11239Y102742D01*
X11356Y102725D01*
X11474Y102725D01*
X11591Y102745D01*
X11703Y102782D01*
X11807Y102836D01*
X11902Y102906D01*
X11985Y102991D01*
X12054Y103087D01*
X12107Y103192D01*
X12143Y103305D01*
X12160Y103421D01*
X12159Y103539D01*
X12140Y103656D01*
X12103Y103768D01*
X12048Y103873D01*
X11978Y103968D01*
X11894Y104051D01*
X11798Y104119D01*
X11692Y104170D01*
X11284Y104318D01*
X10863Y104422D01*
X10433Y104484D01*
X10002Y104505D01*
Y105495D01*
X10433Y105516D01*
X10863Y105578D01*
X11284Y105682D01*
X11694Y105825D01*
X11800Y105878D01*
X11896Y105947D01*
X11981Y106030D01*
X12051Y106125D01*
X12106Y106231D01*
X12143Y106343D01*
X12163Y106460D01*
X12164Y106579D01*
X12146Y106696D01*
X12110Y106809D01*
X12057Y106915D01*
X11988Y107012D01*
X11905Y107096D01*
X11809Y107167D01*
X11704Y107221D01*
X11592Y107259D01*
X11475Y107278D01*
X11356Y107279D01*
X11239Y107261D01*
X11126Y107223D01*
X10855Y107124D01*
X10575Y107056D01*
X10289Y107014D01*
X10002Y107000D01*
Y113000D01*
X10289Y112986D01*
X10575Y112944D01*
X10855Y112876D01*
X11128Y112780D01*
X11239Y112742D01*
X11356Y112725D01*
X11474Y112725D01*
X11591Y112745D01*
X11703Y112782D01*
X11807Y112836D01*
X11902Y112906D01*
X11985Y112991D01*
X12054Y113087D01*
X12107Y113192D01*
X12143Y113305D01*
X12160Y113421D01*
X12159Y113539D01*
X12140Y113656D01*
X12103Y113768D01*
X12048Y113873D01*
X11978Y113968D01*
X11894Y114051D01*
X11798Y114119D01*
X11692Y114170D01*
X11284Y114318D01*
X10863Y114422D01*
X10433Y114484D01*
X10002Y114505D01*
Y115495D01*
X10433Y115516D01*
X10863Y115578D01*
X11284Y115682D01*
X11694Y115825D01*
X11800Y115878D01*
X11896Y115947D01*
X11981Y116030D01*
X12051Y116125D01*
X12106Y116231D01*
X12143Y116343D01*
X12163Y116460D01*
X12164Y116579D01*
X12146Y116696D01*
X12110Y116809D01*
X12057Y116915D01*
X11988Y117012D01*
X11905Y117096D01*
X11809Y117167D01*
X11704Y117221D01*
X11592Y117259D01*
X11475Y117278D01*
X11356Y117279D01*
X11239Y117261D01*
X11126Y117223D01*
X10855Y117124D01*
X10575Y117056D01*
X10289Y117014D01*
X10002Y117000D01*
Y123000D01*
G37*
G36*
Y145486D02*X10706Y145542D01*
X11395Y145707D01*
X12049Y145978D01*
X12653Y146348D01*
X13192Y146808D01*
X13652Y147347D01*
X14022Y147951D01*
X14249Y148500D01*
X17000D01*
Y131500D01*
X14249D01*
X14022Y132049D01*
X13652Y132653D01*
X13192Y133192D01*
X12653Y133652D01*
X12049Y134022D01*
X11395Y134293D01*
X10706Y134458D01*
X10002Y134514D01*
Y135486D01*
X10706Y135542D01*
X11395Y135707D01*
X12049Y135978D01*
X12653Y136348D01*
X13192Y136808D01*
X13652Y137347D01*
X14022Y137951D01*
X14293Y138605D01*
X14458Y139294D01*
X14500Y140000D01*
X14458Y140706D01*
X14293Y141395D01*
X14022Y142049D01*
X13652Y142653D01*
X13192Y143192D01*
X12653Y143652D01*
X12049Y144022D01*
X11395Y144293D01*
X10706Y144458D01*
X10002Y144514D01*
Y145486D01*
G37*
G36*
Y155486D02*X10706Y155542D01*
X11395Y155707D01*
X12049Y155978D01*
X12653Y156348D01*
X13192Y156808D01*
X13652Y157347D01*
X14022Y157951D01*
X14249Y158500D01*
X17000D01*
Y151500D01*
X14249D01*
X14022Y152049D01*
X13652Y152653D01*
X13192Y153192D01*
X12653Y153652D01*
X12049Y154022D01*
X11395Y154293D01*
X10706Y154458D01*
X10002Y154514D01*
Y155486D01*
G37*
G36*
Y165486D02*X10706Y165542D01*
X11395Y165707D01*
X12049Y165978D01*
X12653Y166348D01*
X13192Y166808D01*
X13652Y167347D01*
X14022Y167951D01*
X14249Y168500D01*
X17000D01*
Y161500D01*
X14249D01*
X14022Y162049D01*
X13652Y162653D01*
X13192Y163192D01*
X12653Y163652D01*
X12049Y164022D01*
X11395Y164293D01*
X10706Y164458D01*
X10002Y164514D01*
Y165486D01*
G37*
G36*
Y214502D02*X17000Y221500D01*
Y220254D01*
X10002Y213255D01*
Y214502D01*
G37*
G36*
X17000Y68500D02*X10002Y75498D01*
Y84343D01*
X17000Y77344D01*
Y68500D01*
G37*
G36*
X10002Y134514D02*X10000Y134514D01*
X9294Y134458D01*
X8605Y134293D01*
X7951Y134022D01*
X7347Y133652D01*
X6979Y133337D01*
Y134857D01*
X8056Y135935D01*
X8605Y135707D01*
X9294Y135542D01*
X10000Y135486D01*
X10002Y135486D01*
Y134514D01*
G37*
G36*
X6387Y125127D02*X7034Y124480D01*
X7072Y124435D01*
X7252Y124282D01*
X7453Y124159D01*
X7671Y124068D01*
X7901Y124013D01*
X8051Y124001D01*
X8019Y123970D01*
X7949Y123875D01*
X7894Y123769D01*
X7857Y123657D01*
X7837Y123540D01*
X7836Y123421D01*
X7854Y123304D01*
X7890Y123191D01*
X7943Y123085D01*
X8012Y122988D01*
X8095Y122904D01*
X8191Y122833D01*
X8296Y122779D01*
X8408Y122741D01*
X8525Y122722D01*
X8644Y122721D01*
X8761Y122739D01*
X8874Y122777D01*
X9145Y122876D01*
X9425Y122944D01*
X9711Y122986D01*
X10000Y123000D01*
X10002Y123000D01*
Y117000D01*
X10000Y117000D01*
X9711Y117014D01*
X9425Y117056D01*
X9145Y117124D01*
X8872Y117220D01*
X8761Y117258D01*
X8644Y117275D01*
X8526Y117275D01*
X8409Y117255D01*
X8297Y117218D01*
X8193Y117164D01*
X8098Y117094D01*
X8015Y117009D01*
X7946Y116913D01*
X7893Y116808D01*
X7857Y116695D01*
X7840Y116579D01*
X7841Y116461D01*
X7860Y116344D01*
X7897Y116232D01*
X7952Y116127D01*
X8022Y116032D01*
X8106Y115949D01*
X8202Y115881D01*
X8308Y115830D01*
X8716Y115682D01*
X9137Y115578D01*
X9567Y115516D01*
X10000Y115495D01*
X10002Y115495D01*
Y114505D01*
X10000Y114505D01*
X9567Y114484D01*
X9137Y114422D01*
X8716Y114318D01*
X8306Y114175D01*
X8200Y114122D01*
X8104Y114053D01*
X8019Y113970D01*
X7949Y113875D01*
X7894Y113769D01*
X7857Y113657D01*
X7837Y113540D01*
X7836Y113421D01*
X7854Y113304D01*
X7890Y113191D01*
X7943Y113085D01*
X8012Y112988D01*
X8095Y112904D01*
X8191Y112833D01*
X8296Y112779D01*
X8408Y112741D01*
X8525Y112722D01*
X8644Y112721D01*
X8761Y112739D01*
X8874Y112777D01*
X9145Y112876D01*
X9425Y112944D01*
X9711Y112986D01*
X10000Y113000D01*
X10002Y113000D01*
Y107000D01*
X10000Y107000D01*
X9711Y107014D01*
X9425Y107056D01*
X9145Y107124D01*
X8872Y107220D01*
X8761Y107258D01*
X8644Y107275D01*
X8526Y107275D01*
X8409Y107255D01*
X8297Y107218D01*
X8193Y107164D01*
X8098Y107094D01*
X8015Y107009D01*
X7946Y106913D01*
X7893Y106808D01*
X7857Y106695D01*
X7840Y106579D01*
X7841Y106461D01*
X7860Y106344D01*
X7897Y106232D01*
X7952Y106127D01*
X8022Y106032D01*
X8106Y105949D01*
X8202Y105881D01*
X8308Y105830D01*
X8716Y105682D01*
X9137Y105578D01*
X9567Y105516D01*
X10000Y105495D01*
X10002Y105495D01*
Y104505D01*
X10000Y104505D01*
X9567Y104484D01*
X9137Y104422D01*
X8716Y104318D01*
X8306Y104175D01*
X8200Y104122D01*
X8104Y104053D01*
X8019Y103970D01*
X7949Y103875D01*
X7894Y103769D01*
X7857Y103657D01*
X7837Y103540D01*
X7836Y103421D01*
X7854Y103304D01*
X7890Y103191D01*
X7943Y103085D01*
X8012Y102988D01*
X8095Y102904D01*
X8191Y102833D01*
X8296Y102779D01*
X8408Y102741D01*
X8525Y102722D01*
X8644Y102721D01*
X8761Y102739D01*
X8874Y102777D01*
X9145Y102876D01*
X9425Y102944D01*
X9711Y102986D01*
X10000Y103000D01*
X10002Y103000D01*
Y97000D01*
X10000Y97000D01*
X9711Y97014D01*
X9425Y97056D01*
X9145Y97124D01*
X8872Y97220D01*
X8761Y97258D01*
X8644Y97275D01*
X8526Y97275D01*
X8409Y97255D01*
X8297Y97218D01*
X8193Y97164D01*
X8098Y97094D01*
X8015Y97009D01*
X7946Y96913D01*
X7893Y96808D01*
X7857Y96695D01*
X7840Y96579D01*
X7841Y96461D01*
X7860Y96344D01*
X7897Y96232D01*
X7952Y96127D01*
X8022Y96032D01*
X8106Y95949D01*
X8202Y95881D01*
X8308Y95830D01*
X8716Y95682D01*
X9137Y95578D01*
X9567Y95516D01*
X10000Y95495D01*
X10002Y95495D01*
Y94514D01*
X10000Y94514D01*
X9294Y94458D01*
X8605Y94293D01*
X7951Y94022D01*
X7347Y93652D01*
X6808Y93192D01*
X6387Y92698D01*
Y97849D01*
X6460Y97837D01*
X6579Y97836D01*
X6696Y97854D01*
X6809Y97890D01*
X6915Y97943D01*
X7012Y98012D01*
X7096Y98095D01*
X7167Y98191D01*
X7221Y98296D01*
X7259Y98408D01*
X7278Y98525D01*
X7279Y98644D01*
X7261Y98761D01*
X7223Y98874D01*
X7124Y99145D01*
X7056Y99425D01*
X7014Y99711D01*
X7000Y100000D01*
X7014Y100289D01*
X7056Y100575D01*
X7124Y100855D01*
X7220Y101128D01*
X7258Y101239D01*
X7275Y101356D01*
X7275Y101474D01*
X7255Y101591D01*
X7218Y101703D01*
X7164Y101807D01*
X7094Y101902D01*
X7009Y101985D01*
X6913Y102054D01*
X6808Y102107D01*
X6695Y102143D01*
X6579Y102160D01*
X6461Y102159D01*
X6387Y102147D01*
Y107849D01*
X6460Y107837D01*
X6579Y107836D01*
X6696Y107854D01*
X6809Y107890D01*
X6915Y107943D01*
X7012Y108012D01*
X7096Y108095D01*
X7167Y108191D01*
X7221Y108296D01*
X7259Y108408D01*
X7278Y108525D01*
X7279Y108644D01*
X7261Y108761D01*
X7223Y108874D01*
X7124Y109145D01*
X7056Y109425D01*
X7014Y109711D01*
X7000Y110000D01*
X7014Y110289D01*
X7056Y110575D01*
X7124Y110855D01*
X7220Y111128D01*
X7258Y111239D01*
X7275Y111356D01*
X7275Y111474D01*
X7255Y111591D01*
X7218Y111703D01*
X7164Y111807D01*
X7094Y111902D01*
X7009Y111985D01*
X6913Y112054D01*
X6808Y112107D01*
X6695Y112143D01*
X6579Y112160D01*
X6461Y112159D01*
X6387Y112147D01*
Y117849D01*
X6460Y117837D01*
X6579Y117836D01*
X6696Y117854D01*
X6809Y117890D01*
X6915Y117943D01*
X7012Y118012D01*
X7096Y118095D01*
X7167Y118191D01*
X7221Y118296D01*
X7259Y118408D01*
X7278Y118525D01*
X7279Y118644D01*
X7261Y118761D01*
X7223Y118874D01*
X7124Y119145D01*
X7056Y119425D01*
X7014Y119711D01*
X7000Y120000D01*
X7014Y120289D01*
X7056Y120575D01*
X7124Y120855D01*
X7220Y121128D01*
X7258Y121239D01*
X7275Y121356D01*
X7275Y121474D01*
X7255Y121591D01*
X7218Y121703D01*
X7164Y121807D01*
X7094Y121902D01*
X7009Y121985D01*
X6913Y122054D01*
X6808Y122107D01*
X6695Y122143D01*
X6579Y122160D01*
X6461Y122159D01*
X6387Y122147D01*
Y125127D01*
G37*
G36*
Y147302D02*X6808Y146808D01*
X7347Y146348D01*
X7951Y145978D01*
X8605Y145707D01*
X9294Y145542D01*
X10000Y145486D01*
X10002Y145486D01*
Y144514D01*
X10000Y144514D01*
X9294Y144458D01*
X8605Y144293D01*
X7951Y144022D01*
X7347Y143652D01*
X6808Y143192D01*
X6387Y142698D01*
Y147302D01*
G37*
G36*
Y157302D02*X6808Y156808D01*
X7347Y156348D01*
X7951Y155978D01*
X8605Y155707D01*
X9294Y155542D01*
X10000Y155486D01*
X10002Y155486D01*
Y154514D01*
X10000Y154514D01*
X9294Y154458D01*
X8605Y154293D01*
X7951Y154022D01*
X7347Y153652D01*
X6808Y153192D01*
X6387Y152698D01*
Y157302D01*
G37*
G36*
Y167302D02*X6808Y166808D01*
X7347Y166348D01*
X7951Y165978D01*
X8605Y165707D01*
X9294Y165542D01*
X10000Y165486D01*
X10002Y165486D01*
Y164514D01*
X10000Y164514D01*
X9294Y164458D01*
X8605Y164293D01*
X7951Y164022D01*
X7347Y163652D01*
X6808Y163192D01*
X6387Y162698D01*
Y167302D01*
G37*
G36*
Y195630D02*X6535Y195569D01*
X6765Y195514D01*
X6965Y195502D01*
X6387Y194924D01*
Y195630D01*
G37*
G36*
Y210887D02*X10002Y214502D01*
Y213255D01*
X8981Y212235D01*
X8936Y212196D01*
X8783Y212017D01*
X8659Y211815D01*
X8569Y211597D01*
X8514Y211368D01*
X8514Y211367D01*
X8495Y211132D01*
X8500Y211074D01*
Y204490D01*
X6765Y204486D01*
X6535Y204431D01*
X6387Y204370D01*
Y210887D01*
G37*
G36*
X10002Y75498D02*X6387Y79113D01*
Y87302D01*
X6808Y86808D01*
X7347Y86348D01*
X7951Y85978D01*
X8605Y85707D01*
X8723Y85679D01*
X8783Y85581D01*
X8936Y85402D01*
X8981Y85364D01*
X10002Y84343D01*
Y75498D01*
G37*
G36*
X6387Y79113D02*X2000Y83500D01*
Y206500D01*
X6387Y210887D01*
Y204370D01*
X6317Y204341D01*
X6116Y204217D01*
X5936Y204064D01*
X5783Y203884D01*
X5659Y203683D01*
X5569Y203465D01*
X5514Y203235D01*
X5500Y203000D01*
X5514Y196765D01*
X5569Y196535D01*
X5659Y196317D01*
X5783Y196116D01*
X5936Y195936D01*
X6116Y195783D01*
X6317Y195659D01*
X6387Y195630D01*
Y194924D01*
X4282Y192819D01*
X4237Y192781D01*
X4084Y192601D01*
X3961Y192400D01*
X3870Y192182D01*
X3815Y191952D01*
X3815Y191952D01*
X3797Y191717D01*
X3801Y191658D01*
Y174758D01*
X3797Y174699D01*
X3815Y174463D01*
X3870Y174234D01*
X3961Y174016D01*
X4084Y173814D01*
X4084Y173814D01*
X4237Y173635D01*
X4282Y173597D01*
X5935Y171944D01*
X5707Y171395D01*
X5542Y170706D01*
X5486Y170000D01*
X5542Y169294D01*
X5707Y168605D01*
X5978Y167951D01*
X6348Y167347D01*
X6387Y167302D01*
Y162698D01*
X6348Y162653D01*
X5978Y162049D01*
X5707Y161395D01*
X5542Y160706D01*
X5486Y160000D01*
X5542Y159294D01*
X5707Y158605D01*
X5978Y157951D01*
X6348Y157347D01*
X6387Y157302D01*
Y152698D01*
X6348Y152653D01*
X5978Y152049D01*
X5707Y151395D01*
X5542Y150706D01*
X5486Y150000D01*
X5542Y149294D01*
X5707Y148605D01*
X5978Y147951D01*
X6348Y147347D01*
X6387Y147302D01*
Y142698D01*
X6348Y142653D01*
X5978Y142049D01*
X5707Y141395D01*
X5542Y140706D01*
X5486Y140000D01*
X5542Y139294D01*
X5707Y138605D01*
X5935Y138056D01*
X4460Y136581D01*
X4415Y136543D01*
X4261Y136363D01*
X4138Y136162D01*
X4048Y135944D01*
X3993Y135714D01*
X3993Y135714D01*
X3974Y135479D01*
X3979Y135420D01*
Y128215D01*
X3974Y128157D01*
X3993Y127921D01*
X4048Y127692D01*
X4138Y127474D01*
X4261Y127272D01*
X4262Y127272D01*
X4415Y127093D01*
X4460Y127054D01*
X6387Y125127D01*
Y122147D01*
X6344Y122140D01*
X6232Y122103D01*
X6127Y122048D01*
X6032Y121978D01*
X5949Y121894D01*
X5881Y121798D01*
X5830Y121692D01*
X5682Y121284D01*
X5578Y120863D01*
X5516Y120433D01*
X5495Y120000D01*
X5516Y119567D01*
X5578Y119137D01*
X5682Y118716D01*
X5825Y118306D01*
X5878Y118200D01*
X5947Y118104D01*
X6030Y118019D01*
X6125Y117949D01*
X6231Y117894D01*
X6343Y117857D01*
X6387Y117849D01*
Y112147D01*
X6344Y112140D01*
X6232Y112103D01*
X6127Y112048D01*
X6032Y111978D01*
X5949Y111894D01*
X5881Y111798D01*
X5830Y111692D01*
X5682Y111284D01*
X5578Y110863D01*
X5516Y110433D01*
X5495Y110000D01*
X5516Y109567D01*
X5578Y109137D01*
X5682Y108716D01*
X5825Y108306D01*
X5878Y108200D01*
X5947Y108104D01*
X6030Y108019D01*
X6125Y107949D01*
X6231Y107894D01*
X6343Y107857D01*
X6387Y107849D01*
Y102147D01*
X6344Y102140D01*
X6232Y102103D01*
X6127Y102048D01*
X6032Y101978D01*
X5949Y101894D01*
X5881Y101798D01*
X5830Y101692D01*
X5682Y101284D01*
X5578Y100863D01*
X5516Y100433D01*
X5495Y100000D01*
X5516Y99567D01*
X5578Y99137D01*
X5682Y98716D01*
X5825Y98306D01*
X5878Y98200D01*
X5947Y98104D01*
X6030Y98019D01*
X6125Y97949D01*
X6231Y97894D01*
X6343Y97857D01*
X6387Y97849D01*
Y92698D01*
X6348Y92653D01*
X5978Y92049D01*
X5707Y91395D01*
X5542Y90706D01*
X5486Y90000D01*
X5542Y89294D01*
X5707Y88605D01*
X5978Y87951D01*
X6348Y87347D01*
X6387Y87302D01*
Y79113D01*
G37*
G36*
X14249Y188500D02*X17000D01*
Y183257D01*
X13116D01*
X12653Y183652D01*
X12049Y184022D01*
X11395Y184293D01*
X10706Y184458D01*
X10000Y184514D01*
X9294Y184458D01*
X8605Y184293D01*
X7951Y184022D01*
X7347Y183652D01*
X6808Y183192D01*
X6801Y183184D01*
Y186816D01*
X6808Y186808D01*
X7347Y186348D01*
X7951Y185978D01*
X8605Y185707D01*
X9294Y185542D01*
X10000Y185486D01*
X10706Y185542D01*
X11395Y185707D01*
X12049Y185978D01*
X12653Y186348D01*
X13192Y186808D01*
X13652Y187347D01*
X14022Y187951D01*
X14249Y188500D01*
G37*
G36*
X14485Y180257D02*X17000D01*
Y171500D01*
X14249D01*
X14022Y172049D01*
X13652Y172653D01*
X13192Y173192D01*
X12653Y173652D01*
X12049Y174022D01*
X11395Y174293D01*
X10706Y174458D01*
X10000Y174514D01*
X9294Y174458D01*
X8605Y174293D01*
X8056Y174065D01*
X6801Y175320D01*
Y176816D01*
X6808Y176808D01*
X7347Y176348D01*
X7951Y175978D01*
X8605Y175707D01*
X9294Y175542D01*
X10000Y175486D01*
X10706Y175542D01*
X11395Y175707D01*
X12049Y175978D01*
X12653Y176348D01*
X13192Y176808D01*
X13652Y177347D01*
X14022Y177951D01*
X14293Y178605D01*
X14458Y179294D01*
X14500Y180000D01*
X14485Y180257D01*
G37*
G36*
X13780Y193999D02*X13839Y193995D01*
X14074Y194013D01*
X14074Y194013D01*
X14304Y194068D01*
X14522Y194159D01*
X14723Y194282D01*
X14903Y194435D01*
X14941Y194480D01*
X17000Y196539D01*
Y191500D01*
X14249D01*
X14022Y192049D01*
X13652Y192653D01*
X13192Y193192D01*
X12653Y193652D01*
X12086Y193999D01*
X13780D01*
G37*
G36*
X11500Y204497D02*Y210511D01*
X16404Y215414D01*
X16362Y215181D01*
X16323Y214733D01*
Y214283D01*
X16362Y213834D01*
X16441Y213391D01*
X16558Y212956D01*
X16712Y212534D01*
X16903Y212126D01*
X17000Y211959D01*
Y204193D01*
X16082Y203276D01*
X16038Y203238D01*
X15884Y203058D01*
X15761Y202857D01*
X15671Y202639D01*
X15615Y202409D01*
X15615Y202409D01*
X15597Y202174D01*
X15602Y202115D01*
Y199384D01*
X14497Y198279D01*
X14486Y203235D01*
X14431Y203465D01*
X14341Y203683D01*
X14217Y203884D01*
X14064Y204064D01*
X13884Y204217D01*
X13683Y204341D01*
X13465Y204431D01*
X13235Y204486D01*
X13000Y204500D01*
X11500Y204497D01*
G37*
G36*
X14249Y128500D02*X17000D01*
Y126999D01*
X13355D01*
X13652Y127347D01*
X14022Y127951D01*
X14249Y128500D01*
G37*
G36*
X98613Y85630D02*X98683Y85659D01*
X98884Y85783D01*
X99064Y85936D01*
X99217Y86116D01*
X99341Y86317D01*
X99431Y86535D01*
X99486Y86765D01*
X99500Y87000D01*
X99486Y93235D01*
X99431Y93465D01*
X99341Y93683D01*
X99217Y93884D01*
X99064Y94064D01*
X98884Y94217D01*
X98683Y94341D01*
X98613Y94370D01*
Y97302D01*
X98652Y97347D01*
X99022Y97951D01*
X99293Y98605D01*
X99458Y99294D01*
X99500Y100000D01*
X99458Y100706D01*
X99293Y101395D01*
X99022Y102049D01*
X98652Y102653D01*
X98613Y102698D01*
Y107302D01*
X98652Y107347D01*
X99022Y107951D01*
X99293Y108605D01*
X99458Y109294D01*
X99500Y110000D01*
X99458Y110706D01*
X99293Y111395D01*
X99065Y111944D01*
X100523Y113402D01*
X100568Y113440D01*
X100721Y113619D01*
X100721Y113620D01*
X100845Y113821D01*
X100935Y114039D01*
X100990Y114269D01*
X101009Y114504D01*
X101004Y114563D01*
Y162057D01*
X101009Y162115D01*
X100990Y162351D01*
X100990Y162351D01*
X100935Y162580D01*
X100845Y162798D01*
X100721Y163000D01*
X100568Y163179D01*
X100523Y163218D01*
X98613Y165127D01*
Y167853D01*
X98656Y167860D01*
X98768Y167897D01*
X98873Y167952D01*
X98968Y168022D01*
X99051Y168106D01*
X99119Y168202D01*
X99170Y168308D01*
X99318Y168716D01*
X99422Y169137D01*
X99484Y169567D01*
X99505Y170000D01*
X99484Y170433D01*
X99422Y170863D01*
X99318Y171284D01*
X99175Y171694D01*
X99122Y171800D01*
X99053Y171896D01*
X98970Y171981D01*
X98875Y172051D01*
X98769Y172106D01*
X98657Y172143D01*
X98613Y172151D01*
Y177853D01*
X98656Y177860D01*
X98768Y177897D01*
X98873Y177952D01*
X98968Y178022D01*
X99051Y178106D01*
X99119Y178202D01*
X99170Y178308D01*
X99318Y178716D01*
X99422Y179137D01*
X99484Y179567D01*
X99505Y180000D01*
X99484Y180433D01*
X99422Y180863D01*
X99318Y181284D01*
X99175Y181694D01*
X99122Y181800D01*
X99053Y181896D01*
X98970Y181981D01*
X98875Y182051D01*
X98769Y182106D01*
X98657Y182143D01*
X98613Y182151D01*
Y187853D01*
X98656Y187860D01*
X98768Y187897D01*
X98873Y187952D01*
X98968Y188022D01*
X99051Y188106D01*
X99119Y188202D01*
X99170Y188308D01*
X99318Y188716D01*
X99422Y189137D01*
X99484Y189567D01*
X99505Y190000D01*
X99484Y190433D01*
X99422Y190863D01*
X99318Y191284D01*
X99175Y191694D01*
X99122Y191800D01*
X99053Y191896D01*
X98970Y191981D01*
X98875Y192051D01*
X98769Y192106D01*
X98657Y192143D01*
X98613Y192151D01*
Y197302D01*
X98652Y197347D01*
X99022Y197951D01*
X99293Y198605D01*
X99458Y199294D01*
X99500Y200000D01*
X99458Y200706D01*
X99293Y201395D01*
X99022Y202049D01*
X98652Y202653D01*
X98613Y202698D01*
Y210887D01*
X103000Y206500D01*
Y83500D01*
X98613Y79113D01*
Y85630D01*
G37*
G36*
Y202698D02*X98192Y203192D01*
X97653Y203652D01*
X97049Y204022D01*
X96395Y204293D01*
X95706Y204458D01*
X95237Y204495D01*
Y212266D01*
X95242Y212325D01*
X95224Y212560D01*
X95224Y212560D01*
X95168Y212790D01*
X95078Y213008D01*
X94955Y213209D01*
X94801Y213389D01*
X94756Y213427D01*
X88000Y220184D01*
Y221500D01*
X98613Y210887D01*
Y202698D01*
G37*
G36*
Y165127D02*X97722Y166019D01*
X97683Y166064D01*
X97504Y166217D01*
X97302Y166341D01*
X97153Y166402D01*
X97163Y166460D01*
X97164Y166579D01*
X97146Y166696D01*
X97110Y166809D01*
X97057Y166915D01*
X96988Y167012D01*
X96905Y167096D01*
X96809Y167167D01*
X96704Y167221D01*
X96592Y167259D01*
X96475Y167278D01*
X96356Y167279D01*
X96239Y167261D01*
X96126Y167223D01*
X95855Y167124D01*
X95575Y167056D01*
X95289Y167014D01*
X95000Y167000D01*
X94998Y167000D01*
Y173000D01*
X95000Y173000D01*
X95289Y172986D01*
X95575Y172944D01*
X95855Y172876D01*
X96128Y172780D01*
X96239Y172742D01*
X96356Y172725D01*
X96474Y172725D01*
X96591Y172745D01*
X96703Y172782D01*
X96807Y172836D01*
X96902Y172906D01*
X96985Y172991D01*
X97054Y173087D01*
X97107Y173192D01*
X97143Y173305D01*
X97160Y173421D01*
X97159Y173539D01*
X97140Y173656D01*
X97103Y173768D01*
X97048Y173873D01*
X96978Y173968D01*
X96894Y174051D01*
X96798Y174119D01*
X96692Y174170D01*
X96284Y174318D01*
X95863Y174422D01*
X95433Y174484D01*
X95000Y174505D01*
X94998Y174505D01*
Y175495D01*
X95000Y175495D01*
X95433Y175516D01*
X95863Y175578D01*
X96284Y175682D01*
X96694Y175825D01*
X96800Y175878D01*
X96896Y175947D01*
X96981Y176030D01*
X97051Y176125D01*
X97106Y176231D01*
X97143Y176343D01*
X97163Y176460D01*
X97164Y176579D01*
X97146Y176696D01*
X97110Y176809D01*
X97057Y176915D01*
X96988Y177012D01*
X96905Y177096D01*
X96809Y177167D01*
X96704Y177221D01*
X96592Y177259D01*
X96475Y177278D01*
X96356Y177279D01*
X96239Y177261D01*
X96126Y177223D01*
X95855Y177124D01*
X95575Y177056D01*
X95289Y177014D01*
X95000Y177000D01*
X94998Y177000D01*
Y183000D01*
X95000Y183000D01*
X95289Y182986D01*
X95575Y182944D01*
X95855Y182876D01*
X96128Y182780D01*
X96239Y182742D01*
X96356Y182725D01*
X96474Y182725D01*
X96591Y182745D01*
X96703Y182782D01*
X96807Y182836D01*
X96902Y182906D01*
X96985Y182991D01*
X97054Y183087D01*
X97107Y183192D01*
X97143Y183305D01*
X97160Y183421D01*
X97159Y183539D01*
X97140Y183656D01*
X97103Y183768D01*
X97048Y183873D01*
X96978Y183968D01*
X96894Y184051D01*
X96798Y184119D01*
X96692Y184170D01*
X96284Y184318D01*
X95863Y184422D01*
X95433Y184484D01*
X95000Y184505D01*
X94998Y184505D01*
Y185495D01*
X95000Y185495D01*
X95433Y185516D01*
X95863Y185578D01*
X96284Y185682D01*
X96694Y185825D01*
X96800Y185878D01*
X96896Y185947D01*
X96981Y186030D01*
X97051Y186125D01*
X97106Y186231D01*
X97143Y186343D01*
X97163Y186460D01*
X97164Y186579D01*
X97146Y186696D01*
X97110Y186809D01*
X97057Y186915D01*
X96988Y187012D01*
X96905Y187096D01*
X96809Y187167D01*
X96704Y187221D01*
X96592Y187259D01*
X96475Y187278D01*
X96356Y187279D01*
X96239Y187261D01*
X96126Y187223D01*
X95855Y187124D01*
X95575Y187056D01*
X95289Y187014D01*
X95000Y187000D01*
X94998Y187000D01*
Y193000D01*
X95000Y193000D01*
X95289Y192986D01*
X95575Y192944D01*
X95855Y192876D01*
X96128Y192780D01*
X96239Y192742D01*
X96356Y192725D01*
X96474Y192725D01*
X96591Y192745D01*
X96703Y192782D01*
X96807Y192836D01*
X96902Y192906D01*
X96985Y192991D01*
X97054Y193087D01*
X97107Y193192D01*
X97143Y193305D01*
X97160Y193421D01*
X97159Y193539D01*
X97140Y193656D01*
X97103Y193768D01*
X97048Y193873D01*
X96978Y193968D01*
X96894Y194051D01*
X96798Y194119D01*
X96692Y194170D01*
X96284Y194318D01*
X95863Y194422D01*
X95433Y194484D01*
X95000Y194505D01*
X94998Y194505D01*
Y195486D01*
X95000Y195486D01*
X95706Y195542D01*
X96395Y195707D01*
X97049Y195978D01*
X97653Y196348D01*
X98192Y196808D01*
X98613Y197302D01*
Y192151D01*
X98540Y192163D01*
X98421Y192164D01*
X98304Y192146D01*
X98191Y192110D01*
X98085Y192057D01*
X97988Y191988D01*
X97904Y191905D01*
X97833Y191809D01*
X97779Y191704D01*
X97741Y191592D01*
X97722Y191475D01*
X97721Y191356D01*
X97739Y191239D01*
X97777Y191126D01*
X97876Y190855D01*
X97944Y190575D01*
X97986Y190289D01*
X98000Y190000D01*
X97986Y189711D01*
X97944Y189425D01*
X97876Y189145D01*
X97780Y188872D01*
X97742Y188761D01*
X97725Y188644D01*
X97725Y188526D01*
X97745Y188409D01*
X97782Y188297D01*
X97836Y188193D01*
X97906Y188098D01*
X97991Y188015D01*
X98087Y187946D01*
X98192Y187893D01*
X98305Y187857D01*
X98421Y187840D01*
X98539Y187841D01*
X98613Y187853D01*
Y182151D01*
X98540Y182163D01*
X98421Y182164D01*
X98304Y182146D01*
X98191Y182110D01*
X98085Y182057D01*
X97988Y181988D01*
X97904Y181905D01*
X97833Y181809D01*
X97779Y181704D01*
X97741Y181592D01*
X97722Y181475D01*
X97721Y181356D01*
X97739Y181239D01*
X97777Y181126D01*
X97876Y180855D01*
X97944Y180575D01*
X97986Y180289D01*
X98000Y180000D01*
X97986Y179711D01*
X97944Y179425D01*
X97876Y179145D01*
X97780Y178872D01*
X97742Y178761D01*
X97725Y178644D01*
X97725Y178526D01*
X97745Y178409D01*
X97782Y178297D01*
X97836Y178193D01*
X97906Y178098D01*
X97991Y178015D01*
X98087Y177946D01*
X98192Y177893D01*
X98305Y177857D01*
X98421Y177840D01*
X98539Y177841D01*
X98613Y177853D01*
Y172151D01*
X98540Y172163D01*
X98421Y172164D01*
X98304Y172146D01*
X98191Y172110D01*
X98085Y172057D01*
X97988Y171988D01*
X97904Y171905D01*
X97833Y171809D01*
X97779Y171704D01*
X97741Y171592D01*
X97722Y171475D01*
X97721Y171356D01*
X97739Y171239D01*
X97777Y171126D01*
X97876Y170855D01*
X97944Y170575D01*
X97986Y170289D01*
X98000Y170000D01*
X97986Y169711D01*
X97944Y169425D01*
X97876Y169145D01*
X97780Y168872D01*
X97742Y168761D01*
X97725Y168644D01*
X97725Y168526D01*
X97745Y168409D01*
X97782Y168297D01*
X97836Y168193D01*
X97906Y168098D01*
X97991Y168015D01*
X98087Y167946D01*
X98192Y167893D01*
X98305Y167857D01*
X98421Y167840D01*
X98539Y167841D01*
X98613Y167853D01*
Y165127D01*
G37*
G36*
X94998Y167000D02*X94711Y167014D01*
X94425Y167056D01*
X94145Y167124D01*
X93872Y167220D01*
X93761Y167258D01*
X93644Y167275D01*
X93526Y167275D01*
X93409Y167255D01*
X93297Y167218D01*
X93193Y167164D01*
X93098Y167094D01*
X93015Y167009D01*
X92946Y166913D01*
X92893Y166808D01*
X92857Y166695D01*
X92840Y166579D01*
X92840Y166500D01*
X92444D01*
X91387Y167557D01*
Y167849D01*
X91460Y167837D01*
X91579Y167836D01*
X91696Y167854D01*
X91809Y167890D01*
X91915Y167943D01*
X92012Y168012D01*
X92096Y168095D01*
X92167Y168191D01*
X92221Y168296D01*
X92259Y168408D01*
X92278Y168525D01*
X92279Y168644D01*
X92261Y168761D01*
X92223Y168874D01*
X92124Y169145D01*
X92056Y169425D01*
X92014Y169711D01*
X92000Y170000D01*
X92014Y170289D01*
X92056Y170575D01*
X92124Y170855D01*
X92220Y171128D01*
X92258Y171239D01*
X92275Y171356D01*
X92275Y171474D01*
X92255Y171591D01*
X92218Y171703D01*
X92164Y171807D01*
X92094Y171902D01*
X92009Y171985D01*
X91913Y172054D01*
X91808Y172107D01*
X91695Y172143D01*
X91579Y172160D01*
X91461Y172159D01*
X91387Y172147D01*
Y177849D01*
X91460Y177837D01*
X91579Y177836D01*
X91696Y177854D01*
X91809Y177890D01*
X91915Y177943D01*
X92012Y178012D01*
X92096Y178095D01*
X92167Y178191D01*
X92221Y178296D01*
X92259Y178408D01*
X92278Y178525D01*
X92279Y178644D01*
X92261Y178761D01*
X92223Y178874D01*
X92124Y179145D01*
X92056Y179425D01*
X92014Y179711D01*
X92000Y180000D01*
X92014Y180289D01*
X92056Y180575D01*
X92124Y180855D01*
X92220Y181128D01*
X92258Y181239D01*
X92275Y181356D01*
X92275Y181474D01*
X92255Y181591D01*
X92218Y181703D01*
X92164Y181807D01*
X92094Y181902D01*
X92009Y181985D01*
X91913Y182054D01*
X91808Y182107D01*
X91695Y182143D01*
X91579Y182160D01*
X91461Y182159D01*
X91387Y182147D01*
Y187849D01*
X91460Y187837D01*
X91579Y187836D01*
X91696Y187854D01*
X91809Y187890D01*
X91915Y187943D01*
X92012Y188012D01*
X92096Y188095D01*
X92167Y188191D01*
X92221Y188296D01*
X92259Y188408D01*
X92278Y188525D01*
X92279Y188644D01*
X92261Y188761D01*
X92223Y188874D01*
X92124Y189145D01*
X92056Y189425D01*
X92014Y189711D01*
X92000Y190000D01*
X92014Y190289D01*
X92056Y190575D01*
X92124Y190855D01*
X92220Y191128D01*
X92258Y191239D01*
X92275Y191356D01*
X92275Y191474D01*
X92255Y191591D01*
X92218Y191703D01*
X92164Y191807D01*
X92094Y191902D01*
X92009Y191985D01*
X91913Y192054D01*
X91808Y192107D01*
X91695Y192143D01*
X91579Y192160D01*
X91461Y192159D01*
X91387Y192147D01*
Y195528D01*
X92271Y196413D01*
X92347Y196348D01*
X92951Y195978D01*
X93605Y195707D01*
X94294Y195542D01*
X94998Y195486D01*
Y194505D01*
X94567Y194484D01*
X94137Y194422D01*
X93716Y194318D01*
X93306Y194175D01*
X93200Y194122D01*
X93104Y194053D01*
X93019Y193970D01*
X92949Y193875D01*
X92894Y193769D01*
X92857Y193657D01*
X92837Y193540D01*
X92836Y193421D01*
X92854Y193304D01*
X92890Y193191D01*
X92943Y193085D01*
X93012Y192988D01*
X93095Y192904D01*
X93191Y192833D01*
X93296Y192779D01*
X93408Y192741D01*
X93525Y192722D01*
X93644Y192721D01*
X93761Y192739D01*
X93874Y192777D01*
X94145Y192876D01*
X94425Y192944D01*
X94711Y192986D01*
X94998Y193000D01*
Y187000D01*
X94711Y187014D01*
X94425Y187056D01*
X94145Y187124D01*
X93872Y187220D01*
X93761Y187258D01*
X93644Y187275D01*
X93526Y187275D01*
X93409Y187255D01*
X93297Y187218D01*
X93193Y187164D01*
X93098Y187094D01*
X93015Y187009D01*
X92946Y186913D01*
X92893Y186808D01*
X92857Y186695D01*
X92840Y186579D01*
X92841Y186461D01*
X92860Y186344D01*
X92897Y186232D01*
X92952Y186127D01*
X93022Y186032D01*
X93106Y185949D01*
X93202Y185881D01*
X93308Y185830D01*
X93716Y185682D01*
X94137Y185578D01*
X94567Y185516D01*
X94998Y185495D01*
Y184505D01*
X94567Y184484D01*
X94137Y184422D01*
X93716Y184318D01*
X93306Y184175D01*
X93200Y184122D01*
X93104Y184053D01*
X93019Y183970D01*
X92949Y183875D01*
X92894Y183769D01*
X92857Y183657D01*
X92837Y183540D01*
X92836Y183421D01*
X92854Y183304D01*
X92890Y183191D01*
X92943Y183085D01*
X93012Y182988D01*
X93095Y182904D01*
X93191Y182833D01*
X93296Y182779D01*
X93408Y182741D01*
X93525Y182722D01*
X93644Y182721D01*
X93761Y182739D01*
X93874Y182777D01*
X94145Y182876D01*
X94425Y182944D01*
X94711Y182986D01*
X94998Y183000D01*
Y177000D01*
X94711Y177014D01*
X94425Y177056D01*
X94145Y177124D01*
X93872Y177220D01*
X93761Y177258D01*
X93644Y177275D01*
X93526Y177275D01*
X93409Y177255D01*
X93297Y177218D01*
X93193Y177164D01*
X93098Y177094D01*
X93015Y177009D01*
X92946Y176913D01*
X92893Y176808D01*
X92857Y176695D01*
X92840Y176579D01*
X92841Y176461D01*
X92860Y176344D01*
X92897Y176232D01*
X92952Y176127D01*
X93022Y176032D01*
X93106Y175949D01*
X93202Y175881D01*
X93308Y175830D01*
X93716Y175682D01*
X94137Y175578D01*
X94567Y175516D01*
X94998Y175495D01*
Y174505D01*
X94567Y174484D01*
X94137Y174422D01*
X93716Y174318D01*
X93306Y174175D01*
X93200Y174122D01*
X93104Y174053D01*
X93019Y173970D01*
X92949Y173875D01*
X92894Y173769D01*
X92857Y173657D01*
X92837Y173540D01*
X92836Y173421D01*
X92854Y173304D01*
X92890Y173191D01*
X92943Y173085D01*
X93012Y172988D01*
X93095Y172904D01*
X93191Y172833D01*
X93296Y172779D01*
X93408Y172741D01*
X93525Y172722D01*
X93644Y172721D01*
X93761Y172739D01*
X93874Y172777D01*
X94145Y172876D01*
X94425Y172944D01*
X94711Y172986D01*
X94998Y173000D01*
Y167000D01*
G37*
G36*
X91387Y167557D02*X88000Y170944D01*
Y192141D01*
X91387Y195528D01*
Y192147D01*
X91344Y192140D01*
X91232Y192103D01*
X91127Y192048D01*
X91032Y191978D01*
X90949Y191894D01*
X90881Y191798D01*
X90830Y191692D01*
X90682Y191284D01*
X90578Y190863D01*
X90516Y190433D01*
X90495Y190000D01*
X90516Y189567D01*
X90578Y189137D01*
X90682Y188716D01*
X90825Y188306D01*
X90878Y188200D01*
X90947Y188104D01*
X91030Y188019D01*
X91125Y187949D01*
X91231Y187894D01*
X91343Y187857D01*
X91387Y187849D01*
Y182147D01*
X91344Y182140D01*
X91232Y182103D01*
X91127Y182048D01*
X91032Y181978D01*
X90949Y181894D01*
X90881Y181798D01*
X90830Y181692D01*
X90682Y181284D01*
X90578Y180863D01*
X90516Y180433D01*
X90495Y180000D01*
X90516Y179567D01*
X90578Y179137D01*
X90682Y178716D01*
X90825Y178306D01*
X90878Y178200D01*
X90947Y178104D01*
X91030Y178019D01*
X91125Y177949D01*
X91231Y177894D01*
X91343Y177857D01*
X91387Y177849D01*
Y172147D01*
X91344Y172140D01*
X91232Y172103D01*
X91127Y172048D01*
X91032Y171978D01*
X90949Y171894D01*
X90881Y171798D01*
X90830Y171692D01*
X90682Y171284D01*
X90578Y170863D01*
X90516Y170433D01*
X90495Y170000D01*
X90516Y169567D01*
X90578Y169137D01*
X90682Y168716D01*
X90825Y168306D01*
X90878Y168200D01*
X90947Y168104D01*
X91030Y168019D01*
X91125Y167949D01*
X91231Y167894D01*
X91343Y167857D01*
X91387Y167849D01*
Y167557D01*
G37*
G36*
X98613Y94370D02*X98465Y94431D01*
X98235Y94486D01*
X98000Y94500D01*
X91765Y94486D01*
X91535Y94431D01*
X91317Y94341D01*
X91116Y94217D01*
X90936Y94064D01*
X90783Y93884D01*
X90659Y93683D01*
X90569Y93465D01*
X90514Y93235D01*
X90500Y93000D01*
X90514Y86765D01*
X90569Y86535D01*
X90659Y86317D01*
X90783Y86116D01*
X90936Y85936D01*
X91116Y85783D01*
X91317Y85659D01*
X91535Y85569D01*
X91765Y85514D01*
X92000Y85500D01*
X93500Y85503D01*
Y81683D01*
X88000Y76183D01*
Y80448D01*
X88097Y80610D01*
X88288Y81018D01*
X88442Y81441D01*
X88559Y81875D01*
X88638Y82319D01*
X88677Y82767D01*
Y83217D01*
X88638Y83666D01*
X88559Y84109D01*
X88442Y84544D01*
X88288Y84966D01*
X88097Y85374D01*
X88000Y85541D01*
Y108500D01*
X90751D01*
X90978Y107951D01*
X91348Y107347D01*
X91808Y106808D01*
X92347Y106348D01*
X92951Y105978D01*
X93605Y105707D01*
X94294Y105542D01*
X95000Y105486D01*
X95706Y105542D01*
X96395Y105707D01*
X97049Y105978D01*
X97653Y106348D01*
X98192Y106808D01*
X98613Y107302D01*
Y102698D01*
X98192Y103192D01*
X97653Y103652D01*
X97049Y104022D01*
X96395Y104293D01*
X95706Y104458D01*
X95000Y104514D01*
X94294Y104458D01*
X93605Y104293D01*
X92951Y104022D01*
X92347Y103652D01*
X91808Y103192D01*
X91348Y102653D01*
X90978Y102049D01*
X90707Y101395D01*
X90542Y100706D01*
X90486Y100000D01*
X90542Y99294D01*
X90707Y98605D01*
X90978Y97951D01*
X91348Y97347D01*
X91808Y96808D01*
X92347Y96348D01*
X92951Y95978D01*
X93605Y95707D01*
X94294Y95542D01*
X95000Y95486D01*
X95706Y95542D01*
X96395Y95707D01*
X97049Y95978D01*
X97653Y96348D01*
X98192Y96808D01*
X98613Y97302D01*
Y94370D01*
G37*
G36*
X88000Y68500D02*Y71940D01*
X96019Y79959D01*
X96064Y79997D01*
X96217Y80177D01*
X96217Y80177D01*
X96341Y80378D01*
X96431Y80596D01*
X96486Y80826D01*
X96505Y81061D01*
X96500Y81120D01*
Y85510D01*
X98235Y85514D01*
X98465Y85569D01*
X98613Y85630D01*
Y79113D01*
X88000Y68500D01*
G37*
G36*
Y111500D02*Y128500D01*
X90751D01*
X90978Y127951D01*
X91348Y127347D01*
X91808Y126808D01*
X92347Y126348D01*
X92951Y125978D01*
X93605Y125707D01*
X94294Y125542D01*
X95000Y125486D01*
X95706Y125542D01*
X96395Y125707D01*
X97049Y125978D01*
X97653Y126348D01*
X98004Y126648D01*
Y123352D01*
X97653Y123652D01*
X97049Y124022D01*
X96395Y124293D01*
X95706Y124458D01*
X95000Y124514D01*
X94294Y124458D01*
X93605Y124293D01*
X92951Y124022D01*
X92347Y123652D01*
X91808Y123192D01*
X91348Y122653D01*
X90978Y122049D01*
X90707Y121395D01*
X90542Y120706D01*
X90486Y120000D01*
X90542Y119294D01*
X90707Y118605D01*
X90978Y117951D01*
X91348Y117347D01*
X91808Y116808D01*
X92347Y116348D01*
X92951Y115978D01*
X93605Y115707D01*
X94294Y115542D01*
X95000Y115486D01*
X95706Y115542D01*
X96395Y115707D01*
X97049Y115978D01*
X97653Y116348D01*
X98004Y116648D01*
Y115125D01*
X96944Y114065D01*
X96395Y114293D01*
X95706Y114458D01*
X95000Y114514D01*
X94294Y114458D01*
X93605Y114293D01*
X92951Y114022D01*
X92347Y113652D01*
X91808Y113192D01*
X91348Y112653D01*
X90978Y112049D01*
X90751Y111500D01*
X88000D01*
G37*
G36*
X90751Y131500D02*X88000D01*
Y138500D01*
X90751D01*
X90978Y137951D01*
X91348Y137347D01*
X91808Y136808D01*
X92347Y136348D01*
X92951Y135978D01*
X93605Y135707D01*
X94294Y135542D01*
X95000Y135486D01*
X95706Y135542D01*
X96395Y135707D01*
X97049Y135978D01*
X97653Y136348D01*
X98004Y136648D01*
Y133352D01*
X97653Y133652D01*
X97049Y134022D01*
X96395Y134293D01*
X95706Y134458D01*
X95000Y134514D01*
X94294Y134458D01*
X93605Y134293D01*
X92951Y134022D01*
X92347Y133652D01*
X91808Y133192D01*
X91348Y132653D01*
X90978Y132049D01*
X90751Y131500D01*
G37*
G36*
Y141500D02*X88121D01*
X88000Y141621D01*
Y158500D01*
X90751D01*
X90978Y157951D01*
X91348Y157347D01*
X91808Y156808D01*
X92347Y156348D01*
X92951Y155978D01*
X93605Y155707D01*
X94294Y155542D01*
X95000Y155486D01*
X95706Y155542D01*
X96395Y155707D01*
X97049Y155978D01*
X97653Y156348D01*
X98004Y156648D01*
Y153352D01*
X97653Y153652D01*
X97049Y154022D01*
X96395Y154293D01*
X95706Y154458D01*
X95000Y154514D01*
X94294Y154458D01*
X93605Y154293D01*
X92951Y154022D01*
X92347Y153652D01*
X91808Y153192D01*
X91348Y152653D01*
X90978Y152049D01*
X90707Y151395D01*
X90542Y150706D01*
X90486Y150000D01*
X90542Y149294D01*
X90707Y148605D01*
X90978Y147951D01*
X91348Y147347D01*
X91808Y146808D01*
X92347Y146348D01*
X92951Y145978D01*
X93605Y145707D01*
X94294Y145542D01*
X95000Y145486D01*
X95706Y145542D01*
X96395Y145707D01*
X97049Y145978D01*
X97653Y146348D01*
X98004Y146648D01*
Y143352D01*
X97653Y143652D01*
X97049Y144022D01*
X96395Y144293D01*
X95706Y144458D01*
X95000Y144514D01*
X94294Y144458D01*
X93605Y144293D01*
X92951Y144022D01*
X92347Y143652D01*
X91808Y143192D01*
X91348Y142653D01*
X90978Y142049D01*
X90751Y141500D01*
G37*
G36*
Y161500D02*X88000D01*
Y166702D01*
X90721Y163981D01*
X90759Y163936D01*
X90938Y163783D01*
X91140Y163659D01*
X91358Y163569D01*
X91587Y163514D01*
X91823Y163495D01*
X91882Y163500D01*
X92169D01*
X91808Y163192D01*
X91348Y162653D01*
X90978Y162049D01*
X90751Y161500D01*
G37*
G36*
X88000Y196384D02*Y212096D01*
X88018Y212126D01*
X88209Y212534D01*
X88364Y212956D01*
X88481Y213391D01*
X88559Y213834D01*
X88598Y214283D01*
Y214733D01*
X88559Y215181D01*
X88516Y215425D01*
X92237Y211703D01*
Y203558D01*
X91808Y203192D01*
X91348Y202653D01*
X90978Y202049D01*
X90707Y201395D01*
X90542Y200706D01*
X90486Y200000D01*
X90542Y199294D01*
X90613Y198997D01*
X88000Y196384D01*
G37*
G54D22*X35000Y60000D02*X41356Y53644D01*
X67583D01*
X66754Y55645D02*X59355D01*
X55000Y60000D01*
X75000Y35000D02*X30000D01*
X10000Y90000D02*Y86466D01*
X27482Y92482D02*X30000Y95000D01*
X10000Y100000D02*X17518Y92482D01*
X27482D02*X17518D01*
X21535D02*Y82992D01*
X10000Y86466D02*X26466Y70000D01*
X40000D01*
X67583Y53644D02*X95000Y81061D01*
Y90000D01*
X74332Y83019D02*Y63223D01*
X66754Y55645D01*
X70000Y70000D02*Y82984D01*
X65000Y79861D02*Y60000D01*
X95000Y110000D02*X99504Y114504D01*
X60000Y120000D02*X70000Y110000D01*
X95000D01*
X85000Y105000D02*X96446D01*
X101504Y110058D01*
X99504Y114504D02*Y162115D01*
X96619Y165000D01*
X91823D01*
X87500Y140000D02*X95000D01*
X101504Y110058D02*Y163496D01*
X95000Y170000D01*
X66761Y125532D02*X69274Y128045D01*
Y130000D02*X95000D01*
X69274Y138333D02*Y128045D01*
X60000Y167500D02*X87500Y140000D01*
X70000Y167500D02*X77500Y160000D01*
X95000D01*
X50000Y131111D02*Y107351D01*
X45000Y107984D02*Y121257D01*
X50000Y107351D02*X74332Y83019D01*
X40000Y104861D02*X65000Y79861D01*
X70000Y82984D02*X45000Y107984D01*
X75000Y95000D02*X85000Y105000D01*
X40000Y167500D02*Y155000D01*
X35672Y149328D02*Y169283D01*
X55000Y152607D02*Y177500D01*
X50000Y125532D02*X66761D01*
X40000Y155000D02*X65000Y130000D01*
X55000D02*X35672Y149328D01*
X69274Y138333D02*X55000Y152607D01*
X21111Y160000D02*X50000Y131111D01*
X25000Y150000D02*X45000Y130000D01*
X34501Y125499D02*X40000Y120000D01*
Y104861D01*
X45000Y121257D02*X36257Y130000D01*
X10000Y180000D02*X11757Y181757D01*
X10000Y170000D02*X5301Y174699D01*
Y191717D01*
X9083Y195499D01*
X34955Y170000D02*X10000D01*
Y160000D02*X21111D01*
X10000Y150000D02*X25000D01*
X10000Y140000D02*X5479Y135479D01*
Y128157D01*
X8136Y125499D01*
X34501D01*
X36257Y130000D02*X10000D01*
Y200000D02*Y211132D01*
X33126Y234258D01*
X13839Y195499D02*X17102Y198762D01*
Y202174D01*
X11757Y181757D02*X40743D01*
X45000Y177500D01*
X75052Y181771D02*X49271D01*
X45000Y177500D01*
X10000Y190000D02*X83737D01*
X9083Y195499D02*X13839D01*
X17102Y202174D02*X40605Y225677D01*
X75000Y202500D02*X30000D01*
X64258Y234258D02*X70000Y240000D01*
X30000Y265000D02*X75000D01*
X93737Y200000D02*Y212325D01*
X83737Y190000D02*X93737Y200000D01*
X95000D01*
X91823Y165000D02*X75052Y181771D01*
X33126Y234258D02*X64258D01*
X93737Y212325D02*X76062Y230000D01*
X65000D01*
X40605Y225677D02*X50677D01*
X55000Y230000D01*
X35672Y169283D02*X34955Y170000D01*
X35672Y169283D02*X38244Y171856D01*
X45644D01*
X50000Y167500D01*
G54D23*X30000Y202500D03*
Y265000D03*
X75000Y202500D03*
G54D24*X50000Y240000D03*
X40000D03*
G54D25*X83465Y214508D03*
G54D24*X65000Y230000D03*
X55000D03*
X45000D03*
X35000D03*
X70000Y240000D03*
X60000D03*
G54D23*X75000Y265000D03*
G54D25*X83543Y277008D03*
X21535D03*
G54D24*X50000Y167500D03*
X60000D03*
X70000D03*
X55000Y177500D03*
X65000D03*
X40000Y167500D03*
X35000Y177500D03*
X45000D03*
G54D26*X95000Y170000D03*
Y180000D03*
Y190000D03*
Y200000D03*
G54D24*X65000Y130000D03*
X70000Y120000D03*
X60000D03*
X55000Y130000D03*
X50000Y120000D03*
Y70000D03*
X60000D03*
X55000Y60000D03*
X45000Y130000D03*
X40000Y120000D03*
X35000Y130000D03*
G54D23*X30000Y95000D03*
G54D25*X21535Y82992D03*
G54D24*X40000Y70000D03*
X35000Y60000D03*
X45000D03*
G54D23*X75000Y95000D03*
G54D25*X83543Y82992D03*
G54D24*X70000Y70000D03*
X65000Y60000D03*
G54D23*X30000Y35000D03*
X75000D03*
G54D25*X21457Y22992D03*
X83465D03*
G54D21*G36*
X92000Y93000D02*Y87000D01*
X98000D01*
Y93000D01*
X92000D01*
G37*
G54D26*X95000Y100000D03*
Y110000D03*
Y120000D03*
Y130000D03*
Y140000D03*
Y150000D03*
Y160000D03*
G54D25*X21457Y214508D03*
G54D21*G36*
X7000Y203000D02*Y197000D01*
X13000D01*
Y203000D01*
X7000D01*
G37*
G54D26*X10000Y190000D03*
Y180000D03*
Y170000D03*
Y160000D03*
Y150000D03*
Y140000D03*
Y130000D03*
Y120000D03*
Y110000D03*
Y100000D03*
Y90000D03*
G54D27*G54D28*G54D29*G54D28*G54D27*G54D29*G54D28*G54D30*G54D28*G54D27*G54D29*G54D28*G54D27*G54D29*G54D28*G54D27*G54D29*G54D30*G54D29*G54D30*M02*
