M48
INCH
T42C0.013
T41C0.038
T40C0.051
T39C0.094
T38C0.035
%
T42
X001700Y017900
X001700Y017400
X001700Y016900
X001700Y016400
X001700Y015900
X001700Y015400
X001700Y014900
X001700Y014400
X001700Y010300
X001700Y009800
X001700Y009300
X001700Y008800
X001700Y008300
X001700Y007800
X001700Y007300
X001700Y006800
X004450Y018350
X004450Y017800
X004450Y017300
X004450Y016750
X004450Y016200
X004450Y015650
X004450Y015100
X004450Y014550
X004450Y010750
X004450Y010200
X004450Y009700
X004450Y009150
X004450Y008600
X004450Y008050
X004450Y007500
X004450Y006950
X005050Y016950
X005050Y009350
X005350Y015700
X005350Y008100
X005700Y016850
X005700Y009250
X006000Y015800
X006000Y008200
X006200Y016750
X006200Y009150
X007250Y018850
X007250Y015350
X007250Y011250
X007250Y007750
X007500Y018600
X007500Y015600
X007500Y011000
X007500Y008000
X007750Y018350
X007750Y015850
X007750Y010750
X007750Y008250
X008000Y018100
X008000Y016100
X008000Y010500
X008000Y008500
X008250Y017850
X008250Y016350
X008250Y010250
X008250Y008750
X008300Y015300
X008500Y017600
X008500Y016600
X008500Y010000
X008500Y009000
X008750Y017350
X008750Y016850
X008750Y009750
X008750Y009250
X008800Y010500
X009000Y017100
X009000Y015297
X009000Y009500
X009000Y007697
X009250Y015547
X009250Y015047
X009250Y007947
X009500Y015797
X009500Y014797
X009500Y008197
X009750Y016047
X009750Y014547
X009750Y008447
X010000Y016297
X010000Y014297
X010000Y008697
X010250Y016547
X010250Y014047
X010250Y008947
X010500Y016797
X010500Y013797
X010500Y009197
X010750Y017047
X010750Y013547
X010750Y009447
X011800Y015647
X011800Y008047
X012000Y016597
X012000Y008997
X012300Y015547
X012300Y007947
X012650Y016697
X012650Y009097
X012950Y015447
X012950Y007847
X013550Y017847
X013550Y017297
X013550Y016747
X013550Y016197
X013550Y015647
X013550Y015097
X013550Y014597
X013550Y014047
X013550Y010247
X013550Y009697
X013550Y009147
X013550Y008597
X013550Y008047
X013550Y007497
X013550Y006997
X013550Y006447
X016300Y017997
X016300Y017497
X016300Y016997
X016300Y016497
X016300Y015997
X016300Y015497
X016300Y014997
X016300Y014497
X016300Y010397
X016300Y009897
X016300Y009397
X016300Y008897
X016300Y008397
X016300Y007897
X016300Y007397
X016300Y006897
T38
X003146Y017202
X003146Y016399
X003146Y015596
X003146Y014793
X003146Y009602
X003146Y008799
X003146Y007996
X003146Y007193
X003854Y017604
X003854Y016801
X003854Y015998
X003854Y015194
X003854Y010004
X003854Y009201
X003854Y008398
X003854Y007594
X006098Y018954
X006098Y017950
X006098Y014446
X006098Y013443
X006098Y011354
X006098Y010350
X006098Y006846
X006098Y005843
X011902Y018954
X011902Y017950
X011902Y014446
X011902Y013443
X011902Y011354
X011902Y010350
X011902Y006846
X011902Y005843
X014146Y017202
X014146Y016399
X014146Y015596
X014146Y014793
X014146Y009602
X014146Y008799
X014146Y007996
X014146Y007193
X014854Y017604
X014854Y016801
X014854Y015998
X014854Y015194
X014854Y010004
X014854Y009201
X014854Y008398
X014854Y007594
T41
X005500Y012400
X006500Y012400
X007500Y012400
X008500Y012400
X009500Y012400
X010500Y012400
X011500Y012400
X012500Y012400
T40
X002496Y018718
X002496Y013679
X002496Y011118
X002496Y006079
X015504Y018718
X015504Y013679
X015504Y011118
X015504Y006079
T39
X003500Y018797
X003500Y013600
X003500Y011197
X003500Y006000
X014500Y018797
X014500Y013600
X014500Y011197
X014500Y006000
M30
