G04 start of page 12 for group -3984 idx -3984 *
G04 Title: (unknown), fab *
G04 Creator: pcb 1.99z *
G04 CreationDate: Sat 29 Oct 2016 01:04:34 AM GMT UTC *
G04 For: commonadmin *
G04 Format: Gerber/RS-274X *
G04 PCB-Dimensions (mil): 2000.00 2000.00 *
G04 PCB-Coordinate-Origin: lower left *
%MOIN*%
%FSLAX25Y25*%
%LNFAB*%
%ADD73C,0.0100*%
%ADD72C,0.0075*%
%ADD71C,0.0060*%
%ADD70R,0.0080X0.0080*%
G54D70*X33400Y113569D02*X36600D01*
X33400D02*Y110369D01*
X36600D01*
Y113569D02*Y110369D01*
X33400Y61600D02*X36600D01*
X33400D02*Y58400D01*
X36600D01*
Y61600D02*Y58400D01*
X143400Y61600D02*X146600D01*
X143400D02*Y58400D01*
X146600D01*
Y61600D02*Y58400D01*
X143400Y113569D02*X146600D01*
X143400D02*Y110369D01*
X146600D01*
Y113569D02*Y110369D01*
X33400Y189569D02*X36600D01*
X33400D02*Y186369D01*
X36600D01*
Y189569D02*Y186369D01*
X33400Y137600D02*X36600D01*
X33400D02*Y134400D01*
X36600D01*
Y137600D02*Y134400D01*
X143400Y137600D02*X146600D01*
X143400D02*Y134400D01*
X146600D01*
Y137600D02*Y134400D01*
X143400Y189569D02*X146600D01*
X143400D02*Y186369D01*
X146600D01*
Y189569D02*Y186369D01*
X13400Y212850D02*X16600D01*
X13400D02*Y209650D01*
X16600D01*
Y212850D02*Y209650D01*
G54D71*X135000Y213500D02*X136500Y210500D01*
X138000Y213500D01*
X136500Y210500D02*Y207500D01*
X139800Y210800D02*X142050D01*
X139800Y207500D02*X142800D01*
X139800Y213500D02*Y207500D01*
Y213500D02*X142800D01*
X147600D02*X148350Y212750D01*
X145350Y213500D02*X147600D01*
X144600Y212750D02*X145350Y213500D01*
X144600Y212750D02*Y211250D01*
X145350Y210500D01*
X147600D01*
X148350Y209750D01*
Y208250D01*
X147600Y207500D02*X148350Y208250D01*
X145350Y207500D02*X147600D01*
X144600Y208250D02*X145350Y207500D01*
X98000Y208250D02*X98750Y207500D01*
X98000Y209450D02*Y208250D01*
Y209450D02*X99050Y210500D01*
X99950D01*
X101000Y209450D01*
Y208250D01*
X100250Y207500D02*X101000Y208250D01*
X98750Y207500D02*X100250D01*
X98000Y211550D02*X99050Y210500D01*
X98000Y212750D02*Y211550D01*
Y212750D02*X98750Y213500D01*
X100250D01*
X101000Y212750D01*
Y211550D01*
X99950Y210500D02*X101000Y211550D01*
X45000Y208250D02*X45750Y207500D01*
X45000Y212750D02*Y208250D01*
Y212750D02*X45750Y213500D01*
X47250D01*
X48000Y212750D01*
Y208250D01*
X47250Y207500D02*X48000Y208250D01*
X45750Y207500D02*X47250D01*
X45000Y209000D02*X48000Y212000D01*
X49800Y207500D02*X50550D01*
X52350Y208250D02*X53100Y207500D01*
X52350Y212750D02*Y208250D01*
Y212750D02*X53100Y213500D01*
X54600D01*
X55350Y212750D01*
Y208250D01*
X54600Y207500D02*X55350Y208250D01*
X53100Y207500D02*X54600D01*
X52350Y209000D02*X55350Y212000D01*
X57900Y207500D02*X60150Y210500D01*
Y212750D02*Y210500D01*
X59400Y213500D02*X60150Y212750D01*
X57900Y213500D02*X59400D01*
X57150Y212750D02*X57900Y213500D01*
X57150Y212750D02*Y211250D01*
X57900Y210500D01*
X60150D01*
X61950Y213500D02*X64950D01*
X61950D02*Y210500D01*
X62700Y211250D01*
X64200D01*
X64950Y210500D01*
Y208250D01*
X64200Y207500D02*X64950Y208250D01*
X62700Y207500D02*X64200D01*
X61950Y208250D02*X62700Y207500D01*
X24161Y60787D02*G75*G03X25761Y60787I800J0D01*G01*
G75*G03X24161Y60787I-800J0D01*G01*
Y111181D02*G75*G03X25761Y111181I800J0D01*G01*
G75*G03X24161Y111181I-800J0D01*G01*
X154239D02*G75*G03X155839Y111181I800J0D01*G01*
G75*G03X154239Y111181I-800J0D01*G01*
Y60787D02*G75*G03X155839Y60787I800J0D01*G01*
G75*G03X154239Y60787I-800J0D01*G01*
X24161Y136787D02*G75*G03X25761Y136787I800J0D01*G01*
G75*G03X24161Y136787I-800J0D01*G01*
Y187181D02*G75*G03X25761Y187181I800J0D01*G01*
G75*G03X24161Y187181I-800J0D01*G01*
X154239D02*G75*G03X155839Y187181I800J0D01*G01*
G75*G03X154239Y187181I-800J0D01*G01*
Y136787D02*G75*G03X155839Y136787I800J0D01*G01*
G75*G03X154239Y136787I-800J0D01*G01*
X14200Y226250D02*G75*G03X15800Y226250I800J0D01*G01*
G75*G03X14200Y226250I-800J0D01*G01*
X135000Y228500D02*X136500Y225500D01*
X138000Y228500D01*
X136500Y225500D02*Y222500D01*
X139800Y225800D02*X142050D01*
X139800Y222500D02*X142800D01*
X139800Y228500D02*Y222500D01*
Y228500D02*X142800D01*
X147600D02*X148350Y227750D01*
X145350Y228500D02*X147600D01*
X144600Y227750D02*X145350Y228500D01*
X144600Y227750D02*Y226250D01*
X145350Y225500D01*
X147600D01*
X148350Y224750D01*
Y223250D01*
X147600Y222500D02*X148350Y223250D01*
X145350Y222500D02*X147600D01*
X144600Y223250D02*X145350Y222500D01*
X98000Y223250D02*X98750Y222500D01*
X98000Y224450D02*Y223250D01*
Y224450D02*X99050Y225500D01*
X99950D01*
X101000Y224450D01*
Y223250D01*
X100250Y222500D02*X101000Y223250D01*
X98750Y222500D02*X100250D01*
X98000Y226550D02*X99050Y225500D01*
X98000Y227750D02*Y226550D01*
Y227750D02*X98750Y228500D01*
X100250D01*
X101000Y227750D01*
Y226550D01*
X99950Y225500D02*X101000Y226550D01*
X45000Y223250D02*X45750Y222500D01*
X45000Y227750D02*Y223250D01*
Y227750D02*X45750Y228500D01*
X47250D01*
X48000Y227750D01*
Y223250D01*
X47250Y222500D02*X48000Y223250D01*
X45750Y222500D02*X47250D01*
X45000Y224000D02*X48000Y227000D01*
X49800Y222500D02*X50550D01*
X52350Y223250D02*X53100Y222500D01*
X52350Y227750D02*Y223250D01*
Y227750D02*X53100Y228500D01*
X54600D01*
X55350Y227750D01*
Y223250D01*
X54600Y222500D02*X55350Y223250D01*
X53100Y222500D02*X54600D01*
X52350Y224000D02*X55350Y227000D01*
X57150Y228500D02*X60150D01*
X57150D02*Y225500D01*
X57900Y226250D01*
X59400D01*
X60150Y225500D01*
Y223250D01*
X59400Y222500D02*X60150Y223250D01*
X57900Y222500D02*X59400D01*
X57150Y223250D02*X57900Y222500D01*
X61950Y227300D02*X63150Y228500D01*
Y222500D01*
X61950D02*X64200D01*
X53800Y125200D02*X56200Y122800D01*
X53800D02*X56200Y125200D01*
X63800D02*X66200Y122800D01*
X63800D02*X66200Y125200D01*
X73800D02*X76200Y122800D01*
X73800D02*X76200Y125200D01*
X83800D02*X86200Y122800D01*
X83800D02*X86200Y125200D01*
X93800D02*X96200Y122800D01*
X93800D02*X96200Y125200D01*
X103800D02*X106200Y122800D01*
X103800D02*X106200Y125200D01*
X113800D02*X116200Y122800D01*
X113800D02*X116200Y125200D01*
X123800D02*X126200Y122800D01*
X123800D02*X126200Y125200D01*
X13800Y242450D02*X16200Y240050D01*
X13800D02*X16200Y242450D01*
X135000Y243500D02*X136500Y240500D01*
X138000Y243500D01*
X136500Y240500D02*Y237500D01*
X139800Y240800D02*X142050D01*
X139800Y237500D02*X142800D01*
X139800Y243500D02*Y237500D01*
Y243500D02*X142800D01*
X147600D02*X148350Y242750D01*
X145350Y243500D02*X147600D01*
X144600Y242750D02*X145350Y243500D01*
X144600Y242750D02*Y241250D01*
X145350Y240500D01*
X147600D01*
X148350Y239750D01*
Y238250D01*
X147600Y237500D02*X148350Y238250D01*
X145350Y237500D02*X147600D01*
X144600Y238250D02*X145350Y237500D01*
X98000Y238250D02*X98750Y237500D01*
X98000Y239450D02*Y238250D01*
Y239450D02*X99050Y240500D01*
X99950D01*
X101000Y239450D01*
Y238250D01*
X100250Y237500D02*X101000Y238250D01*
X98750Y237500D02*X100250D01*
X98000Y241550D02*X99050Y240500D01*
X98000Y242750D02*Y241550D01*
Y242750D02*X98750Y243500D01*
X100250D01*
X101000Y242750D01*
Y241550D01*
X99950Y240500D02*X101000Y241550D01*
X45000Y238250D02*X45750Y237500D01*
X45000Y242750D02*Y238250D01*
Y242750D02*X45750Y243500D01*
X47250D01*
X48000Y242750D01*
Y238250D01*
X47250Y237500D02*X48000Y238250D01*
X45750Y237500D02*X47250D01*
X45000Y239000D02*X48000Y242000D01*
X49800Y237500D02*X50550D01*
X52350Y238250D02*X53100Y237500D01*
X52350Y242750D02*Y238250D01*
Y242750D02*X53100Y243500D01*
X54600D01*
X55350Y242750D01*
Y238250D01*
X54600Y237500D02*X55350Y238250D01*
X53100Y237500D02*X54600D01*
X52350Y239000D02*X55350Y242000D01*
X57150Y242750D02*X57900Y243500D01*
X59400D01*
X60150Y242750D01*
X59400Y237500D02*X60150Y238250D01*
X57900Y237500D02*X59400D01*
X57150Y238250D02*X57900Y237500D01*
Y240800D02*X59400D01*
X60150Y242750D02*Y241550D01*
Y240050D02*Y238250D01*
Y240050D02*X59400Y240800D01*
X60150Y241550D02*X59400Y240800D01*
X61950Y238250D02*X62700Y237500D01*
X61950Y239450D02*Y238250D01*
Y239450D02*X63000Y240500D01*
X63900D01*
X64950Y239450D01*
Y238250D01*
X64200Y237500D02*X64950Y238250D01*
X62700Y237500D02*X64200D01*
X61950Y241550D02*X63000Y240500D01*
X61950Y242750D02*Y241550D01*
Y242750D02*X62700Y243500D01*
X64200D01*
X64950Y242750D01*
Y241550D01*
X63900Y240500D02*X64950Y241550D01*
X60984Y105104D02*Y101904D01*
X59384Y103504D02*X62584D01*
X60984Y70065D02*Y66865D01*
X59384Y68465D02*X62584D01*
X60984Y115143D02*Y111943D01*
X59384Y113543D02*X62584D01*
X60984Y60025D02*Y56825D01*
X59384Y58425D02*X62584D01*
X38543Y101639D02*Y98439D01*
X36943Y100039D02*X40143D01*
X38543Y93608D02*Y90408D01*
X36943Y92008D02*X40143D01*
X38543Y77545D02*Y74345D01*
X36943Y75945D02*X40143D01*
X38543Y85576D02*Y82376D01*
X36943Y83976D02*X40143D01*
X31457Y73529D02*Y70329D01*
X29857Y71929D02*X33057D01*
X31457Y81561D02*Y78361D01*
X29857Y79961D02*X33057D01*
X31457Y97624D02*Y94424D01*
X29857Y96024D02*X33057D01*
X31457Y89592D02*Y86392D01*
X29857Y87992D02*X33057D01*
X119016Y70065D02*Y66865D01*
X117416Y68465D02*X120616D01*
X119016Y105104D02*Y101904D01*
X117416Y103504D02*X120616D01*
X119016Y60025D02*Y56825D01*
X117416Y58425D02*X120616D01*
X119016Y115143D02*Y111943D01*
X117416Y113543D02*X120616D01*
X141457Y73529D02*Y70329D01*
X139857Y71929D02*X143057D01*
X141457Y81561D02*Y78361D01*
X139857Y79961D02*X143057D01*
X141457Y97624D02*Y94424D01*
X139857Y96024D02*X143057D01*
X141457Y89592D02*Y86392D01*
X139857Y87992D02*X143057D01*
X148543Y101639D02*Y98439D01*
X146943Y100039D02*X150143D01*
X148543Y93608D02*Y90408D01*
X146943Y92008D02*X150143D01*
X148543Y77545D02*Y74345D01*
X146943Y75945D02*X150143D01*
X148543Y85576D02*Y82376D01*
X146943Y83976D02*X150143D01*
X60984Y181104D02*Y177904D01*
X59384Y179504D02*X62584D01*
X60984Y146065D02*Y142865D01*
X59384Y144465D02*X62584D01*
X60984Y191143D02*Y187943D01*
X59384Y189543D02*X62584D01*
X60984Y136025D02*Y132825D01*
X59384Y134425D02*X62584D01*
X38543Y177639D02*Y174439D01*
X36943Y176039D02*X40143D01*
X38543Y169608D02*Y166408D01*
X36943Y168008D02*X40143D01*
X38543Y153545D02*Y150345D01*
X36943Y151945D02*X40143D01*
X38543Y161576D02*Y158376D01*
X36943Y159976D02*X40143D01*
X31457Y149529D02*Y146329D01*
X29857Y147929D02*X33057D01*
X31457Y157561D02*Y154361D01*
X29857Y155961D02*X33057D01*
X31457Y173624D02*Y170424D01*
X29857Y172024D02*X33057D01*
X31457Y165592D02*Y162392D01*
X29857Y163992D02*X33057D01*
X119016Y146065D02*Y142865D01*
X117416Y144465D02*X120616D01*
X119016Y181104D02*Y177904D01*
X117416Y179504D02*X120616D01*
X119016Y136025D02*Y132825D01*
X117416Y134425D02*X120616D01*
X119016Y191143D02*Y187943D01*
X117416Y189543D02*X120616D01*
X141457Y149529D02*Y146329D01*
X139857Y147929D02*X143057D01*
X141457Y157561D02*Y154361D01*
X139857Y155961D02*X143057D01*
X141457Y173624D02*Y170424D01*
X139857Y172024D02*X143057D01*
X141457Y165592D02*Y162392D01*
X139857Y163992D02*X143057D01*
X148543Y177639D02*Y174439D01*
X146943Y176039D02*X150143D01*
X148543Y169608D02*Y166408D01*
X146943Y168008D02*X150143D01*
X148543Y153545D02*Y150345D01*
X146943Y151945D02*X150143D01*
X148543Y161576D02*Y158376D01*
X146943Y159976D02*X150143D01*
X15000Y257850D02*Y254650D01*
X13400Y256250D02*X16600D01*
X135000Y258500D02*X136500Y255500D01*
X138000Y258500D01*
X136500Y255500D02*Y252500D01*
X139800Y255800D02*X142050D01*
X139800Y252500D02*X142800D01*
X139800Y258500D02*Y252500D01*
Y258500D02*X142800D01*
X147600D02*X148350Y257750D01*
X145350Y258500D02*X147600D01*
X144600Y257750D02*X145350Y258500D01*
X144600Y257750D02*Y256250D01*
X145350Y255500D01*
X147600D01*
X148350Y254750D01*
Y253250D01*
X147600Y252500D02*X148350Y253250D01*
X145350Y252500D02*X147600D01*
X144600Y253250D02*X145350Y252500D01*
X98000Y254750D02*X101000Y258500D01*
X98000Y254750D02*X101750D01*
X101000Y258500D02*Y252500D01*
X103550Y253250D02*X104300Y252500D01*
X103550Y254450D02*Y253250D01*
Y254450D02*X104600Y255500D01*
X105500D01*
X106550Y254450D01*
Y253250D01*
X105800Y252500D02*X106550Y253250D01*
X104300Y252500D02*X105800D01*
X103550Y256550D02*X104600Y255500D01*
X103550Y257750D02*Y256550D01*
Y257750D02*X104300Y258500D01*
X105800D01*
X106550Y257750D01*
Y256550D01*
X105500Y255500D02*X106550Y256550D01*
X45000Y253250D02*X45750Y252500D01*
X45000Y257750D02*Y253250D01*
Y257750D02*X45750Y258500D01*
X47250D01*
X48000Y257750D01*
Y253250D01*
X47250Y252500D02*X48000Y253250D01*
X45750Y252500D02*X47250D01*
X45000Y254000D02*X48000Y257000D01*
X49800Y252500D02*X50550D01*
X52350Y253250D02*X53100Y252500D01*
X52350Y257750D02*Y253250D01*
Y257750D02*X53100Y258500D01*
X54600D01*
X55350Y257750D01*
Y253250D01*
X54600Y252500D02*X55350Y253250D01*
X53100Y252500D02*X54600D01*
X52350Y254000D02*X55350Y257000D01*
X57150Y257750D02*X57900Y258500D01*
X59400D01*
X60150Y257750D01*
X59400Y252500D02*X60150Y253250D01*
X57900Y252500D02*X59400D01*
X57150Y253250D02*X57900Y252500D01*
Y255800D02*X59400D01*
X60150Y257750D02*Y256550D01*
Y255050D02*Y253250D01*
Y255050D02*X59400Y255800D01*
X60150Y256550D02*X59400Y255800D01*
X61950Y258500D02*X64950D01*
X61950D02*Y255500D01*
X62700Y256250D01*
X64200D01*
X64950Y255500D01*
Y253250D01*
X64200Y252500D02*X64950Y253250D01*
X62700Y252500D02*X64200D01*
X61950Y253250D02*X62700Y252500D01*
X50500Y93500D02*Y91900D01*
Y93500D02*X51887Y94300D01*
X50500Y93500D02*X49113Y94300D01*
X44500Y69500D02*Y67900D01*
Y69500D02*X45887Y70300D01*
X44500Y69500D02*X43113Y70300D01*
X44500Y75000D02*Y73400D01*
Y75000D02*X45887Y75800D01*
X44500Y75000D02*X43113Y75800D01*
X44500Y80500D02*Y78900D01*
Y80500D02*X45887Y81300D01*
X44500Y80500D02*X43113Y81300D01*
X44500Y86000D02*Y84400D01*
Y86000D02*X45887Y86800D01*
X44500Y86000D02*X43113Y86800D01*
X44500Y91500D02*Y89900D01*
Y91500D02*X45887Y92300D01*
X44500Y91500D02*X43113Y92300D01*
X44500Y97000D02*Y95400D01*
Y97000D02*X45887Y97800D01*
X44500Y97000D02*X43113Y97800D01*
X44500Y102000D02*Y100400D01*
Y102000D02*X45887Y102800D01*
X44500Y102000D02*X43113Y102800D01*
X44500Y107500D02*Y105900D01*
Y107500D02*X45887Y108300D01*
X44500Y107500D02*X43113Y108300D01*
X57000Y92500D02*Y90900D01*
Y92500D02*X58387Y93300D01*
X57000Y92500D02*X55613Y93300D01*
X53500Y81000D02*Y79400D01*
Y81000D02*X54887Y81800D01*
X53500Y81000D02*X52113Y81800D01*
X60000Y82000D02*Y80400D01*
Y82000D02*X61387Y82800D01*
X60000Y82000D02*X58613Y82800D01*
X90000Y95000D02*Y93400D01*
Y95000D02*X91387Y95800D01*
X90000Y95000D02*X88613Y95800D01*
X87500Y92500D02*Y90900D01*
Y92500D02*X88887Y93300D01*
X87500Y92500D02*X86113Y93300D01*
X85000Y90000D02*Y88400D01*
Y90000D02*X86387Y90800D01*
X85000Y90000D02*X83613Y90800D01*
X82500Y87500D02*Y85900D01*
Y87500D02*X83887Y88300D01*
X82500Y87500D02*X81113Y88300D01*
X80000Y85000D02*Y83400D01*
Y85000D02*X81387Y85800D01*
X80000Y85000D02*X78613Y85800D01*
X77500Y82500D02*Y80900D01*
Y82500D02*X78887Y83300D01*
X77500Y82500D02*X76113Y83300D01*
X75000Y80000D02*Y78400D01*
Y80000D02*X76387Y80800D01*
X75000Y80000D02*X73613Y80800D01*
X62000Y91500D02*Y89900D01*
Y91500D02*X63387Y92300D01*
X62000Y91500D02*X60613Y92300D01*
X72500Y77500D02*Y75900D01*
Y77500D02*X73887Y78300D01*
X72500Y77500D02*X71113Y78300D01*
X87500Y97500D02*Y95900D01*
Y97500D02*X88887Y98300D01*
X87500Y97500D02*X86113Y98300D01*
X85000Y100000D02*Y98400D01*
Y100000D02*X86387Y100800D01*
X85000Y100000D02*X83613Y100800D01*
X82500Y102500D02*Y100900D01*
Y102500D02*X83887Y103300D01*
X82500Y102500D02*X81113Y103300D01*
X80000Y105000D02*Y103400D01*
Y105000D02*X81387Y105800D01*
X80000Y105000D02*X78613Y105800D01*
X77500Y107500D02*Y105900D01*
Y107500D02*X78887Y108300D01*
X77500Y107500D02*X76113Y108300D01*
X75000Y110000D02*Y108400D01*
Y110000D02*X76387Y110800D01*
X75000Y110000D02*X73613Y110800D01*
X72500Y112500D02*Y110900D01*
Y112500D02*X73887Y113300D01*
X72500Y112500D02*X71113Y113300D01*
X17000Y68000D02*Y66400D01*
Y68000D02*X18387Y68800D01*
X17000Y68000D02*X15613Y68800D01*
X17000Y73000D02*Y71400D01*
Y73000D02*X18387Y73800D01*
X17000Y73000D02*X15613Y73800D01*
X17000Y78000D02*Y76400D01*
Y78000D02*X18387Y78800D01*
X17000Y78000D02*X15613Y78800D01*
X17000Y83000D02*Y81400D01*
Y83000D02*X18387Y83800D01*
X17000Y83000D02*X15613Y83800D01*
X17000Y88000D02*Y86400D01*
Y88000D02*X18387Y88800D01*
X17000Y88000D02*X15613Y88800D01*
X17000Y93000D02*Y91400D01*
Y93000D02*X18387Y93800D01*
X17000Y93000D02*X15613Y93800D01*
X17000Y98000D02*Y96400D01*
Y98000D02*X18387Y98800D01*
X17000Y98000D02*X15613Y98800D01*
X17000Y103000D02*Y101400D01*
Y103000D02*X18387Y103800D01*
X17000Y103000D02*X15613Y103800D01*
X129500Y78469D02*Y76869D01*
Y78469D02*X130887Y79269D01*
X129500Y78469D02*X128113Y79269D01*
X135500Y102469D02*Y100869D01*
Y102469D02*X136887Y103269D01*
X135500Y102469D02*X134113Y103269D01*
X135500Y96969D02*Y95369D01*
Y96969D02*X136887Y97769D01*
X135500Y96969D02*X134113Y97769D01*
X135500Y91469D02*Y89869D01*
Y91469D02*X136887Y92269D01*
X135500Y91469D02*X134113Y92269D01*
X135500Y85969D02*Y84369D01*
Y85969D02*X136887Y86769D01*
X135500Y85969D02*X134113Y86769D01*
X135500Y80469D02*Y78869D01*
Y80469D02*X136887Y81269D01*
X135500Y80469D02*X134113Y81269D01*
X135500Y74969D02*Y73369D01*
Y74969D02*X136887Y75769D01*
X135500Y74969D02*X134113Y75769D01*
X135500Y69969D02*Y68369D01*
Y69969D02*X136887Y70769D01*
X135500Y69969D02*X134113Y70769D01*
X135500Y64469D02*Y62869D01*
Y64469D02*X136887Y65269D01*
X135500Y64469D02*X134113Y65269D01*
X123000Y79469D02*Y77869D01*
Y79469D02*X124387Y80269D01*
X123000Y79469D02*X121613Y80269D01*
X126500Y90969D02*Y89369D01*
Y90969D02*X127887Y91769D01*
X126500Y90969D02*X125113Y91769D01*
X120000Y89969D02*Y88369D01*
Y89969D02*X121387Y90769D01*
X120000Y89969D02*X118613Y90769D01*
X90000Y76969D02*Y75369D01*
Y76969D02*X91387Y77769D01*
X90000Y76969D02*X88613Y77769D01*
X92500Y79469D02*Y77869D01*
Y79469D02*X93887Y80269D01*
X92500Y79469D02*X91113Y80269D01*
X95000Y81969D02*Y80369D01*
Y81969D02*X96387Y82769D01*
X95000Y81969D02*X93613Y82769D01*
X97500Y84469D02*Y82869D01*
Y84469D02*X98887Y85269D01*
X97500Y84469D02*X96113Y85269D01*
X100000Y86969D02*Y85369D01*
Y86969D02*X101387Y87769D01*
X100000Y86969D02*X98613Y87769D01*
X102500Y89469D02*Y87869D01*
Y89469D02*X103887Y90269D01*
X102500Y89469D02*X101113Y90269D01*
X105000Y91969D02*Y90369D01*
Y91969D02*X106387Y92769D01*
X105000Y91969D02*X103613Y92769D01*
X118000Y80469D02*Y78869D01*
Y80469D02*X119387Y81269D01*
X118000Y80469D02*X116613Y81269D01*
X107500Y94469D02*Y92869D01*
Y94469D02*X108887Y95269D01*
X107500Y94469D02*X106113Y95269D01*
X163000Y103969D02*Y102369D01*
Y103969D02*X164387Y104769D01*
X163000Y103969D02*X161613Y104769D01*
X163000Y98969D02*Y97369D01*
Y98969D02*X164387Y99769D01*
X163000Y98969D02*X161613Y99769D01*
X163000Y93969D02*Y92369D01*
Y93969D02*X164387Y94769D01*
X163000Y93969D02*X161613Y94769D01*
X163000Y88969D02*Y87369D01*
Y88969D02*X164387Y89769D01*
X163000Y88969D02*X161613Y89769D01*
X163000Y83969D02*Y82369D01*
Y83969D02*X164387Y84769D01*
X163000Y83969D02*X161613Y84769D01*
X163000Y78969D02*Y77369D01*
Y78969D02*X164387Y79769D01*
X163000Y78969D02*X161613Y79769D01*
X163000Y73969D02*Y72369D01*
Y73969D02*X164387Y74769D01*
X163000Y73969D02*X161613Y74769D01*
X163000Y68969D02*Y67369D01*
Y68969D02*X164387Y69769D01*
X163000Y68969D02*X161613Y69769D01*
X50500Y169500D02*Y167900D01*
Y169500D02*X51887Y170300D01*
X50500Y169500D02*X49113Y170300D01*
X44500Y145500D02*Y143900D01*
Y145500D02*X45887Y146300D01*
X44500Y145500D02*X43113Y146300D01*
X44500Y151000D02*Y149400D01*
Y151000D02*X45887Y151800D01*
X44500Y151000D02*X43113Y151800D01*
X44500Y156500D02*Y154900D01*
Y156500D02*X45887Y157300D01*
X44500Y156500D02*X43113Y157300D01*
X44500Y162000D02*Y160400D01*
Y162000D02*X45887Y162800D01*
X44500Y162000D02*X43113Y162800D01*
X44500Y167500D02*Y165900D01*
Y167500D02*X45887Y168300D01*
X44500Y167500D02*X43113Y168300D01*
X44500Y173000D02*Y171400D01*
Y173000D02*X45887Y173800D01*
X44500Y173000D02*X43113Y173800D01*
X44500Y178000D02*Y176400D01*
Y178000D02*X45887Y178800D01*
X44500Y178000D02*X43113Y178800D01*
X44500Y183500D02*Y181900D01*
Y183500D02*X45887Y184300D01*
X44500Y183500D02*X43113Y184300D01*
X57000Y168500D02*Y166900D01*
Y168500D02*X58387Y169300D01*
X57000Y168500D02*X55613Y169300D01*
X53500Y157000D02*Y155400D01*
Y157000D02*X54887Y157800D01*
X53500Y157000D02*X52113Y157800D01*
X60000Y158000D02*Y156400D01*
Y158000D02*X61387Y158800D01*
X60000Y158000D02*X58613Y158800D01*
X90000Y171000D02*Y169400D01*
Y171000D02*X91387Y171800D01*
X90000Y171000D02*X88613Y171800D01*
X87500Y168500D02*Y166900D01*
Y168500D02*X88887Y169300D01*
X87500Y168500D02*X86113Y169300D01*
X85000Y166000D02*Y164400D01*
Y166000D02*X86387Y166800D01*
X85000Y166000D02*X83613Y166800D01*
X82500Y163500D02*Y161900D01*
Y163500D02*X83887Y164300D01*
X82500Y163500D02*X81113Y164300D01*
X80000Y161000D02*Y159400D01*
Y161000D02*X81387Y161800D01*
X80000Y161000D02*X78613Y161800D01*
X77500Y158500D02*Y156900D01*
Y158500D02*X78887Y159300D01*
X77500Y158500D02*X76113Y159300D01*
X75000Y156000D02*Y154400D01*
Y156000D02*X76387Y156800D01*
X75000Y156000D02*X73613Y156800D01*
X62000Y167500D02*Y165900D01*
Y167500D02*X63387Y168300D01*
X62000Y167500D02*X60613Y168300D01*
X72500Y153500D02*Y151900D01*
Y153500D02*X73887Y154300D01*
X72500Y153500D02*X71113Y154300D01*
X87500Y173500D02*Y171900D01*
Y173500D02*X88887Y174300D01*
X87500Y173500D02*X86113Y174300D01*
X85000Y176000D02*Y174400D01*
Y176000D02*X86387Y176800D01*
X85000Y176000D02*X83613Y176800D01*
X82500Y178500D02*Y176900D01*
Y178500D02*X83887Y179300D01*
X82500Y178500D02*X81113Y179300D01*
X80000Y181000D02*Y179400D01*
Y181000D02*X81387Y181800D01*
X80000Y181000D02*X78613Y181800D01*
X77500Y183500D02*Y181900D01*
Y183500D02*X78887Y184300D01*
X77500Y183500D02*X76113Y184300D01*
X75000Y186000D02*Y184400D01*
Y186000D02*X76387Y186800D01*
X75000Y186000D02*X73613Y186800D01*
X72500Y188500D02*Y186900D01*
Y188500D02*X73887Y189300D01*
X72500Y188500D02*X71113Y189300D01*
X17000Y144000D02*Y142400D01*
Y144000D02*X18387Y144800D01*
X17000Y144000D02*X15613Y144800D01*
X17000Y149000D02*Y147400D01*
Y149000D02*X18387Y149800D01*
X17000Y149000D02*X15613Y149800D01*
X17000Y154000D02*Y152400D01*
Y154000D02*X18387Y154800D01*
X17000Y154000D02*X15613Y154800D01*
X17000Y159000D02*Y157400D01*
Y159000D02*X18387Y159800D01*
X17000Y159000D02*X15613Y159800D01*
X17000Y164000D02*Y162400D01*
Y164000D02*X18387Y164800D01*
X17000Y164000D02*X15613Y164800D01*
X17000Y169000D02*Y167400D01*
Y169000D02*X18387Y169800D01*
X17000Y169000D02*X15613Y169800D01*
X17000Y174000D02*Y172400D01*
Y174000D02*X18387Y174800D01*
X17000Y174000D02*X15613Y174800D01*
X17000Y179000D02*Y177400D01*
Y179000D02*X18387Y179800D01*
X17000Y179000D02*X15613Y179800D01*
X129500Y154469D02*Y152869D01*
Y154469D02*X130887Y155269D01*
X129500Y154469D02*X128113Y155269D01*
X135500Y178469D02*Y176869D01*
Y178469D02*X136887Y179269D01*
X135500Y178469D02*X134113Y179269D01*
X135500Y172969D02*Y171369D01*
Y172969D02*X136887Y173769D01*
X135500Y172969D02*X134113Y173769D01*
X135500Y167469D02*Y165869D01*
Y167469D02*X136887Y168269D01*
X135500Y167469D02*X134113Y168269D01*
X135500Y161969D02*Y160369D01*
Y161969D02*X136887Y162769D01*
X135500Y161969D02*X134113Y162769D01*
X135500Y156469D02*Y154869D01*
Y156469D02*X136887Y157269D01*
X135500Y156469D02*X134113Y157269D01*
X135500Y150969D02*Y149369D01*
Y150969D02*X136887Y151769D01*
X135500Y150969D02*X134113Y151769D01*
X135500Y145969D02*Y144369D01*
Y145969D02*X136887Y146769D01*
X135500Y145969D02*X134113Y146769D01*
X135500Y140469D02*Y138869D01*
Y140469D02*X136887Y141269D01*
X135500Y140469D02*X134113Y141269D01*
X123000Y155469D02*Y153869D01*
Y155469D02*X124387Y156269D01*
X123000Y155469D02*X121613Y156269D01*
X126500Y166969D02*Y165369D01*
Y166969D02*X127887Y167769D01*
X126500Y166969D02*X125113Y167769D01*
X120000Y165969D02*Y164369D01*
Y165969D02*X121387Y166769D01*
X120000Y165969D02*X118613Y166769D01*
X90000Y152969D02*Y151369D01*
Y152969D02*X91387Y153769D01*
X90000Y152969D02*X88613Y153769D01*
X92500Y155469D02*Y153869D01*
Y155469D02*X93887Y156269D01*
X92500Y155469D02*X91113Y156269D01*
X95000Y157969D02*Y156369D01*
Y157969D02*X96387Y158769D01*
X95000Y157969D02*X93613Y158769D01*
X97500Y160469D02*Y158869D01*
Y160469D02*X98887Y161269D01*
X97500Y160469D02*X96113Y161269D01*
X100000Y162969D02*Y161369D01*
Y162969D02*X101387Y163769D01*
X100000Y162969D02*X98613Y163769D01*
X102500Y165469D02*Y163869D01*
Y165469D02*X103887Y166269D01*
X102500Y165469D02*X101113Y166269D01*
X105000Y167969D02*Y166369D01*
Y167969D02*X106387Y168769D01*
X105000Y167969D02*X103613Y168769D01*
X118000Y156469D02*Y154869D01*
Y156469D02*X119387Y157269D01*
X118000Y156469D02*X116613Y157269D01*
X107500Y170469D02*Y168869D01*
Y170469D02*X108887Y171269D01*
X107500Y170469D02*X106113Y171269D01*
X92500Y150469D02*Y148869D01*
Y150469D02*X93887Y151269D01*
X92500Y150469D02*X91113Y151269D01*
X95000Y147969D02*Y146369D01*
Y147969D02*X96387Y148769D01*
X95000Y147969D02*X93613Y148769D01*
X97500Y145469D02*Y143869D01*
Y145469D02*X98887Y146269D01*
X97500Y145469D02*X96113Y146269D01*
X100000Y142969D02*Y141369D01*
Y142969D02*X101387Y143769D01*
X100000Y142969D02*X98613Y143769D01*
X102500Y140469D02*Y138869D01*
Y140469D02*X103887Y141269D01*
X102500Y140469D02*X101113Y141269D01*
X105000Y137969D02*Y136369D01*
Y137969D02*X106387Y138769D01*
X105000Y137969D02*X103613Y138769D01*
X107500Y135469D02*Y133869D01*
Y135469D02*X108887Y136269D01*
X107500Y135469D02*X106113Y136269D01*
X163000Y179969D02*Y178369D01*
Y179969D02*X164387Y180769D01*
X163000Y179969D02*X161613Y180769D01*
X163000Y174969D02*Y173369D01*
Y174969D02*X164387Y175769D01*
X163000Y174969D02*X161613Y175769D01*
X163000Y169969D02*Y168369D01*
Y169969D02*X164387Y170769D01*
X163000Y169969D02*X161613Y170769D01*
X163000Y164969D02*Y163369D01*
Y164969D02*X164387Y165769D01*
X163000Y164969D02*X161613Y165769D01*
X163000Y159969D02*Y158369D01*
Y159969D02*X164387Y160769D01*
X163000Y159969D02*X161613Y160769D01*
X163000Y154969D02*Y153369D01*
Y154969D02*X164387Y155769D01*
X163000Y154969D02*X161613Y155769D01*
X163000Y149969D02*Y148369D01*
Y149969D02*X164387Y150769D01*
X163000Y149969D02*X161613Y150769D01*
X163000Y144969D02*Y143369D01*
Y144969D02*X164387Y145769D01*
X163000Y144969D02*X161613Y145769D01*
X88000Y105000D02*Y103400D01*
Y105000D02*X89387Y105800D01*
X88000Y105000D02*X86613Y105800D01*
X83000Y153000D02*Y151400D01*
Y153000D02*X84387Y153800D01*
X83000Y153000D02*X81613Y153800D01*
X15000Y271250D02*Y269650D01*
Y271250D02*X16387Y272050D01*
X15000Y271250D02*X13613Y272050D01*
X135000Y273500D02*X136500Y270500D01*
X138000Y273500D01*
X136500Y270500D02*Y267500D01*
X139800Y270800D02*X142050D01*
X139800Y267500D02*X142800D01*
X139800Y273500D02*Y267500D01*
Y273500D02*X142800D01*
X147600D02*X148350Y272750D01*
X145350Y273500D02*X147600D01*
X144600Y272750D02*X145350Y273500D01*
X144600Y272750D02*Y271250D01*
X145350Y270500D01*
X147600D01*
X148350Y269750D01*
Y268250D01*
X147600Y267500D02*X148350Y268250D01*
X145350Y267500D02*X147600D01*
X144600Y268250D02*X145350Y267500D01*
X98000Y272300D02*X99200Y273500D01*
Y267500D01*
X98000D02*X100250D01*
X102050Y272750D02*X102800Y273500D01*
X104300D01*
X105050Y272750D01*
X104300Y267500D02*X105050Y268250D01*
X102800Y267500D02*X104300D01*
X102050Y268250D02*X102800Y267500D01*
Y270800D02*X104300D01*
X105050Y272750D02*Y271550D01*
Y270050D02*Y268250D01*
Y270050D02*X104300Y270800D01*
X105050Y271550D02*X104300Y270800D01*
X107600Y267500D02*X109850Y270500D01*
Y272750D02*Y270500D01*
X109100Y273500D02*X109850Y272750D01*
X107600Y273500D02*X109100D01*
X106850Y272750D02*X107600Y273500D01*
X106850Y272750D02*Y271250D01*
X107600Y270500D01*
X109850D01*
X45000Y268250D02*X45750Y267500D01*
X45000Y272750D02*Y268250D01*
Y272750D02*X45750Y273500D01*
X47250D01*
X48000Y272750D01*
Y268250D01*
X47250Y267500D02*X48000Y268250D01*
X45750Y267500D02*X47250D01*
X45000Y269000D02*X48000Y272000D01*
X49800Y267500D02*X50550D01*
X52350Y268250D02*X53100Y267500D01*
X52350Y272750D02*Y268250D01*
Y272750D02*X53100Y273500D01*
X54600D01*
X55350Y272750D01*
Y268250D01*
X54600Y267500D02*X55350Y268250D01*
X53100Y267500D02*X54600D01*
X52350Y269000D02*X55350Y272000D01*
X57150Y272300D02*X58350Y273500D01*
Y267500D01*
X57150D02*X59400D01*
X61200Y272750D02*X61950Y273500D01*
X63450D01*
X64200Y272750D01*
X63450Y267500D02*X64200Y268250D01*
X61950Y267500D02*X63450D01*
X61200Y268250D02*X61950Y267500D01*
Y270800D02*X63450D01*
X64200Y272750D02*Y271550D01*
Y270050D02*Y268250D01*
Y270050D02*X63450Y270800D01*
X64200Y271550D02*X63450Y270800D01*
X3000Y288500D02*X3750Y287750D01*
X750Y288500D02*X3000D01*
X0Y287750D02*X750Y288500D01*
X0Y287750D02*Y286250D01*
X750Y285500D01*
X3000D01*
X3750Y284750D01*
Y283250D01*
X3000Y282500D02*X3750Y283250D01*
X750Y282500D02*X3000D01*
X0Y283250D02*X750Y282500D01*
X5550Y285500D02*Y283250D01*
X6300Y282500D01*
X8550Y285500D02*Y281000D01*
X7800Y280250D02*X8550Y281000D01*
X6300Y280250D02*X7800D01*
X5550Y281000D02*X6300Y280250D01*
Y282500D02*X7800D01*
X8550Y283250D01*
X11100Y284750D02*Y282500D01*
Y284750D02*X11850Y285500D01*
X12600D01*
X13350Y284750D01*
Y282500D01*
Y284750D02*X14100Y285500D01*
X14850D01*
X15600Y284750D01*
Y282500D01*
X10350Y285500D02*X11100Y284750D01*
X17400Y288500D02*Y282500D01*
Y283250D02*X18150Y282500D01*
X19650D01*
X20400Y283250D01*
Y284750D02*Y283250D01*
X19650Y285500D02*X20400Y284750D01*
X18150Y285500D02*X19650D01*
X17400Y284750D02*X18150Y285500D01*
X22200Y284750D02*Y283250D01*
Y284750D02*X22950Y285500D01*
X24450D01*
X25200Y284750D01*
Y283250D01*
X24450Y282500D02*X25200Y283250D01*
X22950Y282500D02*X24450D01*
X22200Y283250D02*X22950Y282500D01*
X27000Y288500D02*Y283250D01*
X27750Y282500D01*
X0Y279250D02*X29250D01*
X41750Y288500D02*Y282500D01*
X43700Y288500D02*X44750Y287450D01*
Y283550D01*
X43700Y282500D02*X44750Y283550D01*
X41000Y282500D02*X43700D01*
X41000Y288500D02*X43700D01*
G54D72*X46550Y287000D02*Y286850D01*
G54D71*Y284750D02*Y282500D01*
X50300Y285500D02*X51050Y284750D01*
X48800Y285500D02*X50300D01*
X48050Y284750D02*X48800Y285500D01*
X48050Y284750D02*Y283250D01*
X48800Y282500D01*
X51050Y285500D02*Y283250D01*
X51800Y282500D01*
X48800D02*X50300D01*
X51050Y283250D01*
X54350Y284750D02*Y282500D01*
Y284750D02*X55100Y285500D01*
X55850D01*
X56600Y284750D01*
Y282500D01*
Y284750D02*X57350Y285500D01*
X58100D01*
X58850Y284750D01*
Y282500D01*
X53600Y285500D02*X54350Y284750D01*
X60650Y282500D02*X61400D01*
X65900Y283250D02*X66650Y282500D01*
X65900Y287750D02*X66650Y288500D01*
X65900Y287750D02*Y283250D01*
X68450Y288500D02*X69950D01*
X69200D02*Y282500D01*
X68450D02*X69950D01*
X72500Y284750D02*Y282500D01*
Y284750D02*X73250Y285500D01*
X74000D01*
X74750Y284750D01*
Y282500D01*
X71750Y285500D02*X72500Y284750D01*
X77300Y285500D02*X79550D01*
X76550Y284750D02*X77300Y285500D01*
X76550Y284750D02*Y283250D01*
X77300Y282500D01*
X79550D01*
X81350Y288500D02*Y282500D01*
Y284750D02*X82100Y285500D01*
X83600D01*
X84350Y284750D01*
Y282500D01*
X86150Y288500D02*X86900Y287750D01*
Y283250D01*
X86150Y282500D02*X86900Y283250D01*
X41000Y279250D02*X88700D01*
X96050Y282500D02*X98000D01*
X95000Y283550D02*X96050Y282500D01*
X95000Y287450D02*Y283550D01*
Y287450D02*X96050Y288500D01*
X98000D01*
X99800Y284750D02*Y283250D01*
Y284750D02*X100550Y285500D01*
X102050D01*
X102800Y284750D01*
Y283250D01*
X102050Y282500D02*X102800Y283250D01*
X100550Y282500D02*X102050D01*
X99800Y283250D02*X100550Y282500D01*
X104600Y285500D02*Y283250D01*
X105350Y282500D01*
X106850D01*
X107600Y283250D01*
Y285500D02*Y283250D01*
X110150Y284750D02*Y282500D01*
Y284750D02*X110900Y285500D01*
X111650D01*
X112400Y284750D01*
Y282500D01*
X109400Y285500D02*X110150Y284750D01*
X114950Y288500D02*Y283250D01*
X115700Y282500D01*
X114200Y286250D02*X115700D01*
X95000Y279250D02*X117200D01*
X130750Y288500D02*Y282500D01*
X130000Y288500D02*X133000D01*
X133750Y287750D01*
Y286250D01*
X133000Y285500D02*X133750Y286250D01*
X130750Y285500D02*X133000D01*
X135550Y288500D02*Y283250D01*
X136300Y282500D01*
X140050Y285500D02*X140800Y284750D01*
X138550Y285500D02*X140050D01*
X137800Y284750D02*X138550Y285500D01*
X137800Y284750D02*Y283250D01*
X138550Y282500D01*
X140800Y285500D02*Y283250D01*
X141550Y282500D01*
X138550D02*X140050D01*
X140800Y283250D01*
X144100Y288500D02*Y283250D01*
X144850Y282500D01*
X143350Y286250D02*X144850D01*
X147100Y282500D02*X149350D01*
X146350Y283250D02*X147100Y282500D01*
X146350Y284750D02*Y283250D01*
Y284750D02*X147100Y285500D01*
X148600D01*
X149350Y284750D01*
X146350Y284000D02*X149350D01*
Y284750D02*Y284000D01*
X154150Y288500D02*Y282500D01*
X153400D02*X154150Y283250D01*
X151900Y282500D02*X153400D01*
X151150Y283250D02*X151900Y282500D01*
X151150Y284750D02*Y283250D01*
Y284750D02*X151900Y285500D01*
X153400D01*
X154150Y284750D01*
X157450Y285500D02*Y284750D01*
Y283250D02*Y282500D01*
X155950Y287750D02*Y287000D01*
Y287750D02*X156700Y288500D01*
X158200D01*
X158950Y287750D01*
Y287000D01*
X157450Y285500D02*X158950Y287000D01*
X130000Y279250D02*X160750D01*
X0Y303500D02*X3000D01*
X1500D02*Y297500D01*
X4800Y303500D02*Y297500D01*
Y299750D02*X5550Y300500D01*
X7050D01*
X7800Y299750D01*
Y297500D01*
X10350D02*X12600D01*
X9600Y298250D02*X10350Y297500D01*
X9600Y299750D02*Y298250D01*
Y299750D02*X10350Y300500D01*
X11850D01*
X12600Y299750D01*
X9600Y299000D02*X12600D01*
Y299750D02*Y299000D01*
X15150Y299750D02*Y297500D01*
Y299750D02*X15900Y300500D01*
X17400D01*
X14400D02*X15150Y299750D01*
X19950Y297500D02*X22200D01*
X19200Y298250D02*X19950Y297500D01*
X19200Y299750D02*Y298250D01*
Y299750D02*X19950Y300500D01*
X21450D01*
X22200Y299750D01*
X19200Y299000D02*X22200D01*
Y299750D02*Y299000D01*
X28950Y300500D02*X29700Y299750D01*
X27450Y300500D02*X28950D01*
X26700Y299750D02*X27450Y300500D01*
X26700Y299750D02*Y298250D01*
X27450Y297500D01*
X29700Y300500D02*Y298250D01*
X30450Y297500D01*
X27450D02*X28950D01*
X29700Y298250D01*
X33000Y299750D02*Y297500D01*
Y299750D02*X33750Y300500D01*
X35250D01*
X32250D02*X33000Y299750D01*
X37800Y297500D02*X40050D01*
X37050Y298250D02*X37800Y297500D01*
X37050Y299750D02*Y298250D01*
Y299750D02*X37800Y300500D01*
X39300D01*
X40050Y299750D01*
X37050Y299000D02*X40050D01*
Y299750D02*Y299000D01*
X44550Y303500D02*X47550D01*
X44550D02*Y300500D01*
X45300Y301250D01*
X46800D01*
X47550Y300500D01*
Y298250D01*
X46800Y297500D02*X47550Y298250D01*
X45300Y297500D02*X46800D01*
X44550Y298250D02*X45300Y297500D01*
X55050Y303500D02*Y297500D01*
X54300D02*X55050Y298250D01*
X52800Y297500D02*X54300D01*
X52050Y298250D02*X52800Y297500D01*
X52050Y299750D02*Y298250D01*
Y299750D02*X52800Y300500D01*
X54300D01*
X55050Y299750D01*
G54D72*X56850Y302000D02*Y301850D01*
G54D71*Y299750D02*Y297500D01*
X59100Y302750D02*Y297500D01*
Y302750D02*X59850Y303500D01*
X60600D01*
X58350Y300500D02*X59850D01*
X62850Y302750D02*Y297500D01*
Y302750D02*X63600Y303500D01*
X64350D01*
X62100Y300500D02*X63600D01*
X66600Y297500D02*X68850D01*
X65850Y298250D02*X66600Y297500D01*
X65850Y299750D02*Y298250D01*
Y299750D02*X66600Y300500D01*
X68100D01*
X68850Y299750D01*
X65850Y299000D02*X68850D01*
Y299750D02*Y299000D01*
X71400Y299750D02*Y297500D01*
Y299750D02*X72150Y300500D01*
X73650D01*
X70650D02*X71400Y299750D01*
X76200Y297500D02*X78450D01*
X75450Y298250D02*X76200Y297500D01*
X75450Y299750D02*Y298250D01*
Y299750D02*X76200Y300500D01*
X77700D01*
X78450Y299750D01*
X75450Y299000D02*X78450D01*
Y299750D02*Y299000D01*
X81000Y299750D02*Y297500D01*
Y299750D02*X81750Y300500D01*
X82500D01*
X83250Y299750D01*
Y297500D01*
X80250Y300500D02*X81000Y299750D01*
X85800Y303500D02*Y298250D01*
X86550Y297500D01*
X85050Y301250D02*X86550D01*
X93750Y303500D02*Y297500D01*
X93000D02*X93750Y298250D01*
X91500Y297500D02*X93000D01*
X90750Y298250D02*X91500Y297500D01*
X90750Y299750D02*Y298250D01*
Y299750D02*X91500Y300500D01*
X93000D01*
X93750Y299750D01*
X96300D02*Y297500D01*
Y299750D02*X97050Y300500D01*
X98550D01*
X95550D02*X96300Y299750D01*
G54D72*X100350Y302000D02*Y301850D01*
G54D71*Y299750D02*Y297500D01*
X101850Y303500D02*Y298250D01*
X102600Y297500D01*
X104100Y303500D02*Y298250D01*
X104850Y297500D01*
X109800D02*X112050D01*
X112800Y298250D01*
X112050Y299000D02*X112800Y298250D01*
X109800Y299000D02*X112050D01*
X109050Y299750D02*X109800Y299000D01*
X109050Y299750D02*X109800Y300500D01*
X112050D01*
X112800Y299750D01*
X109050Y298250D02*X109800Y297500D01*
G54D72*X114600Y302000D02*Y301850D01*
G54D71*Y299750D02*Y297500D01*
X116100Y300500D02*X119100D01*
X116100Y297500D02*X119100Y300500D01*
X116100Y297500D02*X119100D01*
X121650D02*X123900D01*
X120900Y298250D02*X121650Y297500D01*
X120900Y299750D02*Y298250D01*
Y299750D02*X121650Y300500D01*
X123150D01*
X123900Y299750D01*
X120900Y299000D02*X123900D01*
Y299750D02*Y299000D01*
X126450Y297500D02*X128700D01*
X129450Y298250D01*
X128700Y299000D02*X129450Y298250D01*
X126450Y299000D02*X128700D01*
X125700Y299750D02*X126450Y299000D01*
X125700Y299750D02*X126450Y300500D01*
X128700D01*
X129450Y299750D01*
X125700Y298250D02*X126450Y297500D01*
X133950Y300500D02*Y298250D01*
X134700Y297500D01*
X136200D01*
X136950Y298250D01*
Y300500D02*Y298250D01*
X139500Y297500D02*X141750D01*
X142500Y298250D01*
X141750Y299000D02*X142500Y298250D01*
X139500Y299000D02*X141750D01*
X138750Y299750D02*X139500Y299000D01*
X138750Y299750D02*X139500Y300500D01*
X141750D01*
X142500Y299750D01*
X138750Y298250D02*X139500Y297500D01*
X145050D02*X147300D01*
X144300Y298250D02*X145050Y297500D01*
X144300Y299750D02*Y298250D01*
Y299750D02*X145050Y300500D01*
X146550D01*
X147300Y299750D01*
X144300Y299000D02*X147300D01*
Y299750D02*Y299000D01*
X152100Y303500D02*Y297500D01*
X151350D02*X152100Y298250D01*
X149850Y297500D02*X151350D01*
X149100Y298250D02*X149850Y297500D01*
X149100Y299750D02*Y298250D01*
Y299750D02*X149850Y300500D01*
X151350D01*
X152100Y299750D01*
G54D72*X156600Y302000D02*Y301850D01*
G54D71*Y299750D02*Y297500D01*
X158850Y299750D02*Y297500D01*
Y299750D02*X159600Y300500D01*
X160350D01*
X161100Y299750D01*
Y297500D01*
X158100Y300500D02*X158850Y299750D01*
X166350Y303500D02*Y298250D01*
X167100Y297500D01*
X165600Y301250D02*X167100D01*
X168600Y303500D02*Y297500D01*
Y299750D02*X169350Y300500D01*
X170850D01*
X171600Y299750D01*
Y297500D01*
G54D72*X173400Y302000D02*Y301850D01*
G54D71*Y299750D02*Y297500D01*
X175650D02*X177900D01*
X178650Y298250D01*
X177900Y299000D02*X178650Y298250D01*
X175650Y299000D02*X177900D01*
X174900Y299750D02*X175650Y299000D01*
X174900Y299750D02*X175650Y300500D01*
X177900D01*
X178650Y299750D01*
X174900Y298250D02*X175650Y297500D01*
X183150Y303500D02*Y298250D01*
X183900Y297500D01*
X187650Y300500D02*X188400Y299750D01*
X186150Y300500D02*X187650D01*
X185400Y299750D02*X186150Y300500D01*
X185400Y299750D02*Y298250D01*
X186150Y297500D01*
X188400Y300500D02*Y298250D01*
X189150Y297500D01*
X186150D02*X187650D01*
X188400Y298250D01*
X190950Y300500D02*Y298250D01*
X191700Y297500D01*
X193950Y300500D02*Y296000D01*
X193200Y295250D02*X193950Y296000D01*
X191700Y295250D02*X193200D01*
X190950Y296000D02*X191700Y295250D01*
Y297500D02*X193200D01*
X193950Y298250D01*
X195750Y299750D02*Y298250D01*
Y299750D02*X196500Y300500D01*
X198000D01*
X198750Y299750D01*
Y298250D01*
X198000Y297500D02*X198750Y298250D01*
X196500Y297500D02*X198000D01*
X195750Y298250D02*X196500Y297500D01*
X200550Y300500D02*Y298250D01*
X201300Y297500D01*
X202800D01*
X203550Y298250D01*
Y300500D02*Y298250D01*
X206100Y303500D02*Y298250D01*
X206850Y297500D01*
X205350Y301250D02*X206850D01*
X208350Y296000D02*X209850Y297500D01*
X214350Y302750D02*X215100Y303500D01*
X217350D01*
X218100Y302750D01*
Y301250D01*
X214350Y297500D02*X218100Y301250D01*
X214350Y297500D02*X218100D01*
X219900Y302300D02*X221100Y303500D01*
Y297500D01*
X219900D02*X222150D01*
X223950Y302300D02*X225150Y303500D01*
Y297500D01*
X223950D02*X226200D01*
X230700Y303500D02*Y297500D01*
Y299750D02*X231450Y300500D01*
X232950D01*
X233700Y299750D01*
Y297500D01*
X235500Y299750D02*Y298250D01*
Y299750D02*X236250Y300500D01*
X237750D01*
X238500Y299750D01*
Y298250D01*
X237750Y297500D02*X238500Y298250D01*
X236250Y297500D02*X237750D01*
X235500Y298250D02*X236250Y297500D01*
X240300Y303500D02*Y298250D01*
X241050Y297500D01*
X243300D02*X245550D01*
X242550Y298250D02*X243300Y297500D01*
X242550Y299750D02*Y298250D01*
Y299750D02*X243300Y300500D01*
X244800D01*
X245550Y299750D01*
X242550Y299000D02*X245550D01*
Y299750D02*Y299000D01*
X248100Y297500D02*X250350D01*
X251100Y298250D01*
X250350Y299000D02*X251100Y298250D01*
X248100Y299000D02*X250350D01*
X247350Y299750D02*X248100Y299000D01*
X247350Y299750D02*X248100Y300500D01*
X250350D01*
X251100Y299750D01*
X247350Y298250D02*X248100Y297500D01*
X256350Y303500D02*Y298250D01*
X257100Y297500D01*
X255600Y301250D02*X257100D01*
X258600Y299750D02*Y298250D01*
Y299750D02*X259350Y300500D01*
X260850D01*
X261600Y299750D01*
Y298250D01*
X260850Y297500D02*X261600Y298250D01*
X259350Y297500D02*X260850D01*
X258600Y298250D02*X259350Y297500D01*
X264150Y303500D02*Y298250D01*
X264900Y297500D01*
X263400Y301250D02*X264900D01*
X268650Y300500D02*X269400Y299750D01*
X267150Y300500D02*X268650D01*
X266400Y299750D02*X267150Y300500D01*
X266400Y299750D02*Y298250D01*
X267150Y297500D01*
X269400Y300500D02*Y298250D01*
X270150Y297500D01*
X267150D02*X268650D01*
X269400Y298250D01*
X271950Y303500D02*Y298250D01*
X272700Y297500D01*
G54D73*X2500Y197500D02*Y50000D01*
X177500D01*
Y197500D01*
X2500D01*
G54D71*X13675Y-9500D02*X16675D01*
X17425Y-8750D01*
Y-6950D02*Y-8750D01*
X16675Y-6200D02*X17425Y-6950D01*
X14425Y-6200D02*X16675D01*
X14425Y-3500D02*Y-9500D01*
X13675Y-3500D02*X16675D01*
X17425Y-4250D01*
Y-5450D01*
X16675Y-6200D02*X17425Y-5450D01*
X19225Y-7250D02*Y-8750D01*
Y-7250D02*X19975Y-6500D01*
X21475D01*
X22225Y-7250D01*
Y-8750D01*
X21475Y-9500D02*X22225Y-8750D01*
X19975Y-9500D02*X21475D01*
X19225Y-8750D02*X19975Y-9500D01*
X26275Y-6500D02*X27025Y-7250D01*
X24775Y-6500D02*X26275D01*
X24025Y-7250D02*X24775Y-6500D01*
X24025Y-7250D02*Y-8750D01*
X24775Y-9500D01*
X27025Y-6500D02*Y-8750D01*
X27775Y-9500D01*
X24775D02*X26275D01*
X27025Y-8750D01*
X30325Y-7250D02*Y-9500D01*
Y-7250D02*X31075Y-6500D01*
X32575D01*
X29575D02*X30325Y-7250D01*
X37375Y-3500D02*Y-9500D01*
X36625D02*X37375Y-8750D01*
X35125Y-9500D02*X36625D01*
X34375Y-8750D02*X35125Y-9500D01*
X34375Y-7250D02*Y-8750D01*
Y-7250D02*X35125Y-6500D01*
X36625D01*
X37375Y-7250D01*
X41875D02*Y-8750D01*
Y-7250D02*X42625Y-6500D01*
X44125D01*
X44875Y-7250D01*
Y-8750D01*
X44125Y-9500D02*X44875Y-8750D01*
X42625Y-9500D02*X44125D01*
X41875Y-8750D02*X42625Y-9500D01*
X46675Y-6500D02*Y-8750D01*
X47425Y-9500D01*
X48925D01*
X49675Y-8750D01*
Y-6500D02*Y-8750D01*
X52225Y-3500D02*Y-8750D01*
X52975Y-9500D01*
X51475Y-5750D02*X52975D01*
X54475Y-3500D02*Y-8750D01*
X55225Y-9500D01*
G54D72*X56725Y-5000D02*Y-5150D01*
G54D71*Y-7250D02*Y-9500D01*
X58975Y-7250D02*Y-9500D01*
Y-7250D02*X59725Y-6500D01*
X60475D01*
X61225Y-7250D01*
Y-9500D01*
X58225Y-6500D02*X58975Y-7250D01*
X63775Y-9500D02*X66025D01*
X63025Y-8750D02*X63775Y-9500D01*
X63025Y-7250D02*Y-8750D01*
Y-7250D02*X63775Y-6500D01*
X65275D01*
X66025Y-7250D01*
X63025Y-8000D02*X66025D01*
Y-7250D02*Y-8000D01*
G54D72*X70525Y-5000D02*Y-5150D01*
G54D71*Y-7250D02*Y-9500D01*
X72775D02*X75025D01*
X75775Y-8750D01*
X75025Y-8000D02*X75775Y-8750D01*
X72775Y-8000D02*X75025D01*
X72025Y-7250D02*X72775Y-8000D01*
X72025Y-7250D02*X72775Y-6500D01*
X75025D01*
X75775Y-7250D01*
X72025Y-8750D02*X72775Y-9500D01*
X81025Y-3500D02*Y-8750D01*
X81775Y-9500D01*
X80275Y-5750D02*X81775D01*
X83275Y-3500D02*Y-9500D01*
Y-7250D02*X84025Y-6500D01*
X85525D01*
X86275Y-7250D01*
Y-9500D01*
X88825D02*X91075D01*
X88075Y-8750D02*X88825Y-9500D01*
X88075Y-7250D02*Y-8750D01*
Y-7250D02*X88825Y-6500D01*
X90325D01*
X91075Y-7250D01*
X88075Y-8000D02*X91075D01*
Y-7250D02*Y-8000D01*
X96325Y-6500D02*X98575D01*
X95575Y-7250D02*X96325Y-6500D01*
X95575Y-7250D02*Y-8750D01*
X96325Y-9500D01*
X98575D01*
X101125D02*X103375D01*
X100375Y-8750D02*X101125Y-9500D01*
X100375Y-7250D02*Y-8750D01*
Y-7250D02*X101125Y-6500D01*
X102625D01*
X103375Y-7250D01*
X100375Y-8000D02*X103375D01*
Y-7250D02*Y-8000D01*
X105925Y-7250D02*Y-9500D01*
Y-7250D02*X106675Y-6500D01*
X107425D01*
X108175Y-7250D01*
Y-9500D01*
X105175Y-6500D02*X105925Y-7250D01*
X110725Y-3500D02*Y-8750D01*
X111475Y-9500D01*
X109975Y-5750D02*X111475D01*
X113725Y-9500D02*X115975D01*
X112975Y-8750D02*X113725Y-9500D01*
X112975Y-7250D02*Y-8750D01*
Y-7250D02*X113725Y-6500D01*
X115225D01*
X115975Y-7250D01*
X112975Y-8000D02*X115975D01*
Y-7250D02*Y-8000D01*
X118525Y-7250D02*Y-9500D01*
Y-7250D02*X119275Y-6500D01*
X120775D01*
X117775D02*X118525Y-7250D01*
X122575Y-3500D02*Y-8750D01*
X123325Y-9500D01*
G54D72*X124825Y-5000D02*Y-5150D01*
G54D71*Y-7250D02*Y-9500D01*
X127075Y-7250D02*Y-9500D01*
Y-7250D02*X127825Y-6500D01*
X128575D01*
X129325Y-7250D01*
Y-9500D01*
X126325Y-6500D02*X127075Y-7250D01*
X131875Y-9500D02*X134125D01*
X131125Y-8750D02*X131875Y-9500D01*
X131125Y-7250D02*Y-8750D01*
Y-7250D02*X131875Y-6500D01*
X133375D01*
X134125Y-7250D01*
X131125Y-8000D02*X134125D01*
Y-7250D02*Y-8000D01*
X138625Y-7250D02*Y-8750D01*
Y-7250D02*X139375Y-6500D01*
X140875D01*
X141625Y-7250D01*
Y-8750D01*
X140875Y-9500D02*X141625Y-8750D01*
X139375Y-9500D02*X140875D01*
X138625Y-8750D02*X139375Y-9500D01*
X144175Y-4250D02*Y-9500D01*
Y-4250D02*X144925Y-3500D01*
X145675D01*
X143425Y-6500D02*X144925D01*
X150625Y-3500D02*Y-8750D01*
X151375Y-9500D01*
X149875Y-5750D02*X151375D01*
X152875Y-3500D02*Y-9500D01*
Y-7250D02*X153625Y-6500D01*
X155125D01*
X155875Y-7250D01*
Y-9500D01*
G54D72*X157675Y-5000D02*Y-5150D01*
G54D71*Y-7250D02*Y-9500D01*
X159925D02*X162175D01*
X162925Y-8750D01*
X162175Y-8000D02*X162925Y-8750D01*
X159925Y-8000D02*X162175D01*
X159175Y-7250D02*X159925Y-8000D01*
X159175Y-7250D02*X159925Y-6500D01*
X162175D01*
X162925Y-7250D01*
X159175Y-8750D02*X159925Y-9500D01*
X168175Y-7250D02*Y-11750D01*
X167425Y-6500D02*X168175Y-7250D01*
X168925Y-6500D01*
X170425D01*
X171175Y-7250D01*
Y-8750D01*
X170425Y-9500D02*X171175Y-8750D01*
X168925Y-9500D02*X170425D01*
X168175Y-8750D02*X168925Y-9500D01*
X175225Y-6500D02*X175975Y-7250D01*
X173725Y-6500D02*X175225D01*
X172975Y-7250D02*X173725Y-6500D01*
X172975Y-7250D02*Y-8750D01*
X173725Y-9500D01*
X175975Y-6500D02*Y-8750D01*
X176725Y-9500D01*
X173725D02*X175225D01*
X175975Y-8750D01*
X179275Y-3500D02*Y-8750D01*
X180025Y-9500D01*
X178525Y-5750D02*X180025D01*
X181525Y-3500D02*Y-9500D01*
Y-7250D02*X182275Y-6500D01*
X183775D01*
X184525Y-7250D01*
Y-9500D01*
X200750Y228500D02*Y222500D01*
X202700Y228500D02*X203750Y227450D01*
Y223550D01*
X202700Y222500D02*X203750Y223550D01*
X200000Y222500D02*X202700D01*
X200000Y228500D02*X202700D01*
X207800Y225500D02*X208550Y224750D01*
X206300Y225500D02*X207800D01*
X205550Y224750D02*X206300Y225500D01*
X205550Y224750D02*Y223250D01*
X206300Y222500D01*
X208550Y225500D02*Y223250D01*
X209300Y222500D01*
X206300D02*X207800D01*
X208550Y223250D01*
X211850Y228500D02*Y223250D01*
X212600Y222500D01*
X211100Y226250D02*X212600D01*
X214850Y222500D02*X217100D01*
X214100Y223250D02*X214850Y222500D01*
X214100Y224750D02*Y223250D01*
Y224750D02*X214850Y225500D01*
X216350D01*
X217100Y224750D01*
X214100Y224000D02*X217100D01*
Y224750D02*Y224000D01*
X218900Y226250D02*X219650D01*
X218900Y224750D02*X219650D01*
X227150Y228500D02*X227900Y227750D01*
X224900Y228500D02*X227150D01*
X224150Y227750D02*X224900Y228500D01*
X224150Y227750D02*Y226250D01*
X224900Y225500D01*
X227150D01*
X227900Y224750D01*
Y223250D01*
X227150Y222500D02*X227900Y223250D01*
X224900Y222500D02*X227150D01*
X224150Y223250D02*X224900Y222500D01*
X231950Y225500D02*X232700Y224750D01*
X230450Y225500D02*X231950D01*
X229700Y224750D02*X230450Y225500D01*
X229700Y224750D02*Y223250D01*
X230450Y222500D01*
X232700Y225500D02*Y223250D01*
X233450Y222500D01*
X230450D02*X231950D01*
X232700Y223250D01*
X236000Y228500D02*Y223250D01*
X236750Y222500D01*
X235250Y226250D02*X236750D01*
X240950Y227750D02*X241700Y228500D01*
X243950D01*
X244700Y227750D01*
Y226250D01*
X240950Y222500D02*X244700Y226250D01*
X240950Y222500D02*X244700D01*
X247250D02*X249500Y225500D01*
Y227750D02*Y225500D01*
X248750Y228500D02*X249500Y227750D01*
X247250Y228500D02*X248750D01*
X246500Y227750D02*X247250Y228500D01*
X246500Y227750D02*Y226250D01*
X247250Y225500D01*
X249500D01*
X254000Y227750D02*Y223250D01*
Y227750D02*X254750Y228500D01*
X256250D01*
X257000Y227750D01*
Y223250D01*
X256250Y222500D02*X257000Y223250D01*
X254750Y222500D02*X256250D01*
X254000Y223250D02*X254750Y222500D01*
X259550Y225500D02*X261800D01*
X258800Y224750D02*X259550Y225500D01*
X258800Y224750D02*Y223250D01*
X259550Y222500D01*
X261800D01*
X264350Y228500D02*Y223250D01*
X265100Y222500D01*
X263600Y226250D02*X265100D01*
X269300Y227750D02*X270050Y228500D01*
X272300D01*
X273050Y227750D01*
Y226250D01*
X269300Y222500D02*X273050Y226250D01*
X269300Y222500D02*X273050D01*
X274850Y223250D02*X275600Y222500D01*
X274850Y227750D02*Y223250D01*
Y227750D02*X275600Y228500D01*
X277100D01*
X277850Y227750D01*
Y223250D01*
X277100Y222500D02*X277850Y223250D01*
X275600Y222500D02*X277100D01*
X274850Y224000D02*X277850Y227000D01*
X279650Y227300D02*X280850Y228500D01*
Y222500D01*
X279650D02*X281900D01*
X285950Y228500D02*X286700Y227750D01*
X284450Y228500D02*X285950D01*
X283700Y227750D02*X284450Y228500D01*
X283700Y227750D02*Y223250D01*
X284450Y222500D01*
X285950Y225800D02*X286700Y225050D01*
X283700Y225800D02*X285950D01*
X284450Y222500D02*X285950D01*
X286700Y223250D01*
Y225050D02*Y223250D01*
X291200D02*X291950Y222500D01*
X291200Y227750D02*Y223250D01*
Y227750D02*X291950Y228500D01*
X293450D01*
X294200Y227750D01*
Y223250D01*
X293450Y222500D02*X294200Y223250D01*
X291950Y222500D02*X293450D01*
X291200Y224000D02*X294200Y227000D01*
X296000Y227300D02*X297200Y228500D01*
Y222500D01*
X296000D02*X298250D01*
X300050Y226250D02*X300800D01*
X300050Y224750D02*X300800D01*
X302600Y223250D02*X303350Y222500D01*
X302600Y227750D02*Y223250D01*
Y227750D02*X303350Y228500D01*
X304850D01*
X305600Y227750D01*
Y223250D01*
X304850Y222500D02*X305600Y223250D01*
X303350Y222500D02*X304850D01*
X302600Y224000D02*X305600Y227000D01*
X307400Y224750D02*X310400Y228500D01*
X307400Y224750D02*X311150D01*
X310400Y228500D02*Y222500D01*
X312950Y226250D02*X313700D01*
X312950Y224750D02*X313700D01*
X315500Y227750D02*X316250Y228500D01*
X317750D01*
X318500Y227750D01*
X317750Y222500D02*X318500Y223250D01*
X316250Y222500D02*X317750D01*
X315500Y223250D02*X316250Y222500D01*
Y225800D02*X317750D01*
X318500Y227750D02*Y226550D01*
Y225050D02*Y223250D01*
Y225050D02*X317750Y225800D01*
X318500Y226550D02*X317750Y225800D01*
X320300Y224750D02*X323300Y228500D01*
X320300Y224750D02*X324050D01*
X323300Y228500D02*Y222500D01*
X328550Y227000D02*Y222500D01*
Y227000D02*X329600Y228500D01*
X331250D01*
X332300Y227000D01*
Y222500D01*
X328550Y225500D02*X332300D01*
X334100Y228500D02*Y222500D01*
Y228500D02*X336350Y225500D01*
X338600Y228500D01*
Y222500D01*
X346100Y228500D02*X346850Y227750D01*
X343850Y228500D02*X346100D01*
X343100Y227750D02*X343850Y228500D01*
X343100Y227750D02*Y223250D01*
X343850Y222500D01*
X346100D01*
X346850Y223250D01*
Y224750D02*Y223250D01*
X346100Y225500D02*X346850Y224750D01*
X344600Y225500D02*X346100D01*
X348650Y228500D02*Y222500D01*
Y228500D02*X350900Y225500D01*
X353150Y228500D01*
Y222500D01*
X354950Y228500D02*X357950D01*
X356450D02*Y222500D01*
X362450Y228500D02*Y223250D01*
X363200Y222500D01*
X364700D01*
X365450Y223250D01*
Y228500D02*Y223250D01*
X367250Y228500D02*X370250D01*
X368750D02*Y222500D01*
X373100D02*X375050D01*
X372050Y223550D02*X373100Y222500D01*
X372050Y227450D02*Y223550D01*
Y227450D02*X373100Y228500D01*
X375050D01*
X200000Y242000D02*Y237500D01*
Y242000D02*X201050Y243500D01*
X202700D01*
X203750Y242000D01*
Y237500D01*
X200000Y240500D02*X203750D01*
X205550D02*Y238250D01*
X206300Y237500D01*
X207800D01*
X208550Y238250D01*
Y240500D02*Y238250D01*
X211100Y243500D02*Y238250D01*
X211850Y237500D01*
X210350Y241250D02*X211850D01*
X213350Y243500D02*Y237500D01*
Y239750D02*X214100Y240500D01*
X215600D01*
X216350Y239750D01*
Y237500D01*
X218150Y239750D02*Y238250D01*
Y239750D02*X218900Y240500D01*
X220400D01*
X221150Y239750D01*
Y238250D01*
X220400Y237500D02*X221150Y238250D01*
X218900Y237500D02*X220400D01*
X218150Y238250D02*X218900Y237500D01*
X223700Y239750D02*Y237500D01*
Y239750D02*X224450Y240500D01*
X225950D01*
X222950D02*X223700Y239750D01*
X227750Y241250D02*X228500D01*
X227750Y239750D02*X228500D01*
X200000Y258500D02*X203000D01*
X201500D02*Y252500D01*
G54D72*X204800Y257000D02*Y256850D01*
G54D71*Y254750D02*Y252500D01*
X207050Y258500D02*Y253250D01*
X207800Y252500D01*
X206300Y256250D02*X207800D01*
X209300Y258500D02*Y253250D01*
X210050Y252500D01*
X212300D02*X214550D01*
X211550Y253250D02*X212300Y252500D01*
X211550Y254750D02*Y253250D01*
Y254750D02*X212300Y255500D01*
X213800D01*
X214550Y254750D01*
X211550Y254000D02*X214550D01*
Y254750D02*Y254000D01*
X216350Y256250D02*X217100D01*
X216350Y254750D02*X217100D01*
X221600Y253250D02*X222350Y252500D01*
X221600Y257750D02*X222350Y258500D01*
X221600Y257750D02*Y253250D01*
X224150Y255500D02*Y253250D01*
X224900Y252500D01*
X226400D01*
X227150Y253250D01*
Y255500D02*Y253250D01*
X229700Y254750D02*Y252500D01*
Y254750D02*X230450Y255500D01*
X231200D01*
X231950Y254750D01*
Y252500D01*
X228950Y255500D02*X229700Y254750D01*
X233750Y258500D02*Y252500D01*
Y254750D02*X236000Y252500D01*
X233750Y254750D02*X235250Y256250D01*
X238550Y254750D02*Y252500D01*
Y254750D02*X239300Y255500D01*
X240050D01*
X240800Y254750D01*
Y252500D01*
X237800Y255500D02*X238550Y254750D01*
X242600D02*Y253250D01*
Y254750D02*X243350Y255500D01*
X244850D01*
X245600Y254750D01*
Y253250D01*
X244850Y252500D02*X245600Y253250D01*
X243350Y252500D02*X244850D01*
X242600Y253250D02*X243350Y252500D01*
X247400Y255500D02*Y253250D01*
X248150Y252500D01*
X248900D01*
X249650Y253250D01*
Y255500D02*Y253250D01*
X250400Y252500D01*
X251150D01*
X251900Y253250D01*
Y255500D02*Y253250D01*
X254450Y254750D02*Y252500D01*
Y254750D02*X255200Y255500D01*
X255950D01*
X256700Y254750D01*
Y252500D01*
X253700Y255500D02*X254450Y254750D01*
X258500Y258500D02*X259250Y257750D01*
Y253250D01*
X258500Y252500D02*X259250Y253250D01*
X263750Y255500D02*X266750D01*
X271250Y258500D02*Y252500D01*
Y258500D02*X274250D01*
X271250Y255800D02*X273500D01*
X278300Y255500D02*X279050Y254750D01*
X276800Y255500D02*X278300D01*
X276050Y254750D02*X276800Y255500D01*
X276050Y254750D02*Y253250D01*
X276800Y252500D01*
X279050Y255500D02*Y253250D01*
X279800Y252500D01*
X276800D02*X278300D01*
X279050Y253250D01*
X281600Y258500D02*Y252500D01*
Y253250D02*X282350Y252500D01*
X283850D01*
X284600Y253250D01*
Y254750D02*Y253250D01*
X283850Y255500D02*X284600Y254750D01*
X282350Y255500D02*X283850D01*
X281600Y254750D02*X282350Y255500D01*
X287150Y254750D02*Y252500D01*
Y254750D02*X287900Y255500D01*
X289400D01*
X286400D02*X287150Y254750D01*
G54D72*X291200Y257000D02*Y256850D01*
G54D71*Y254750D02*Y252500D01*
X293450Y255500D02*X295700D01*
X292700Y254750D02*X293450Y255500D01*
X292700Y254750D02*Y253250D01*
X293450Y252500D01*
X295700D01*
X299750Y255500D02*X300500Y254750D01*
X298250Y255500D02*X299750D01*
X297500Y254750D02*X298250Y255500D01*
X297500Y254750D02*Y253250D01*
X298250Y252500D01*
X300500Y255500D02*Y253250D01*
X301250Y252500D01*
X298250D02*X299750D01*
X300500Y253250D01*
X303800Y258500D02*Y253250D01*
X304550Y252500D01*
X303050Y256250D02*X304550D01*
G54D72*X306050Y257000D02*Y256850D01*
G54D71*Y254750D02*Y252500D01*
X307550Y254750D02*Y253250D01*
Y254750D02*X308300Y255500D01*
X309800D01*
X310550Y254750D01*
Y253250D01*
X309800Y252500D02*X310550Y253250D01*
X308300Y252500D02*X309800D01*
X307550Y253250D02*X308300Y252500D01*
X313100Y254750D02*Y252500D01*
Y254750D02*X313850Y255500D01*
X314600D01*
X315350Y254750D01*
Y252500D01*
X312350Y255500D02*X313100Y254750D01*
X320600Y258500D02*Y252500D01*
X322550Y258500D02*X323600Y257450D01*
Y253550D01*
X322550Y252500D02*X323600Y253550D01*
X319850Y252500D02*X322550D01*
X319850Y258500D02*X322550D01*
X326150Y254750D02*Y252500D01*
Y254750D02*X326900Y255500D01*
X328400D01*
X325400D02*X326150Y254750D01*
X332450Y255500D02*X333200Y254750D01*
X330950Y255500D02*X332450D01*
X330200Y254750D02*X330950Y255500D01*
X330200Y254750D02*Y253250D01*
X330950Y252500D01*
X333200Y255500D02*Y253250D01*
X333950Y252500D01*
X330950D02*X332450D01*
X333200Y253250D01*
X335750Y255500D02*Y253250D01*
X336500Y252500D01*
X337250D01*
X338000Y253250D01*
Y255500D02*Y253250D01*
X338750Y252500D01*
X339500D01*
X340250Y253250D01*
Y255500D02*Y253250D01*
G54D72*X342050Y257000D02*Y256850D01*
G54D71*Y254750D02*Y252500D01*
X344300Y254750D02*Y252500D01*
Y254750D02*X345050Y255500D01*
X345800D01*
X346550Y254750D01*
Y252500D01*
X343550Y255500D02*X344300Y254750D01*
X350600Y255500D02*X351350Y254750D01*
X349100Y255500D02*X350600D01*
X348350Y254750D02*X349100Y255500D01*
X348350Y254750D02*Y253250D01*
X349100Y252500D01*
X350600D01*
X351350Y253250D01*
X348350Y251000D02*X349100Y250250D01*
X350600D01*
X351350Y251000D01*
Y255500D02*Y251000D01*
M02*
