G04 start of page 7 for group -4062 idx -4062 *
G04 Title: (unknown), soldermask *
G04 Creator: pcb 1.99z *
G04 CreationDate: Sat 29 Oct 2016 01:04:34 AM GMT UTC *
G04 For: commonadmin *
G04 Format: Gerber/RS-274X *
G04 PCB-Dimensions (mil): 2000.00 2000.00 *
G04 PCB-Coordinate-Origin: lower left *
%MOIN*%
%FSLAX25Y25*%
%LNBOTTOMMASK*%
%ADD57R,0.0180X0.0180*%
%ADD56C,0.0180*%
%ADD55R,0.0355X0.0355*%
%ADD54R,0.0200X0.0200*%
%ADD53C,0.0200*%
%ADD52C,0.0001*%
%ADD51C,0.0660*%
%ADD50C,0.0729*%
%ADD49C,0.1162*%
%ADD48C,0.0572*%
G54D48*X60984Y103504D03*
Y113543D03*
G54D49*X35000Y111969D03*
Y136000D03*
G54D50*X24961Y111181D03*
Y136787D03*
G54D51*X85000Y124000D03*
X95000D03*
X105000D03*
X115000D03*
G54D52*G36*
X51700Y127300D02*Y120700D01*
X58300D01*
Y127300D01*
X51700D01*
G37*
G54D51*X65000Y124000D03*
X75000D03*
X125000D03*
G54D48*X119016Y113543D03*
X60984Y68465D03*
Y58425D03*
X38543Y100039D03*
X31457Y79961D03*
Y96024D03*
Y87992D03*
X38543Y92008D03*
Y75945D03*
Y83976D03*
X31457Y71929D03*
G54D49*X35000Y60000D03*
G54D50*X24961Y60787D03*
G54D48*X119016Y68465D03*
Y58425D03*
Y144465D03*
Y179504D03*
Y134425D03*
Y189543D03*
Y103504D03*
X141457Y96024D03*
X148543Y100039D03*
Y92008D03*
X141457Y71929D03*
Y79961D03*
Y87992D03*
X148543Y75945D03*
Y83976D03*
G54D49*X145000Y60000D03*
G54D50*X155039Y60787D03*
G54D49*X145000Y111969D03*
G54D48*X148543Y151945D03*
Y159976D03*
G54D49*X145000Y136000D03*
Y187969D03*
G54D50*X155039Y111181D03*
Y187181D03*
Y136787D03*
G54D48*X60984Y179504D03*
Y189543D03*
X38543Y176039D03*
Y168008D03*
Y151945D03*
Y159976D03*
X60984Y144465D03*
Y134425D03*
X31457Y147929D03*
Y155961D03*
Y172024D03*
Y163992D03*
G54D49*X35000Y187969D03*
G54D50*X24961Y187181D03*
G54D48*X141457Y147929D03*
Y155961D03*
Y172024D03*
Y163992D03*
X148543Y176039D03*
Y168008D03*
G54D53*X131100Y91969D02*X134100D01*
X130400Y92669D02*X131100Y91969D01*
G54D54*X129900Y92669D02*X130400D01*
G54D53*X131400Y91969D02*X132000Y92569D01*
X132600Y91969D01*
X134100D02*X134800Y92669D01*
G54D54*X136300D01*
G54D53*X133200Y92569D02*X133800Y91969D01*
X132600D02*X133200Y92569D01*
X130400Y93969D02*X131000Y94569D01*
G54D54*X129900Y93969D02*X130400D01*
G54D53*X134100Y94569D02*X134700Y93969D01*
X133200Y93869D02*X133900Y94569D01*
X132500D02*X133200Y93869D01*
X132000D02*X132700Y94569D01*
X131300D02*X132000Y93869D01*
G54D54*X134700Y93969D02*X136300D01*
G54D55*X155500Y94461D02*Y93477D01*
X160618Y94461D02*Y93477D01*
G54D53*X131000Y94569D02*X134100D01*
X133900D02*X134100D01*
X131100Y97469D02*X134100D01*
X130400Y98169D02*X131100Y97469D01*
G54D54*X129900Y98169D02*X130400D01*
G54D53*X132000Y98069D02*X132600Y97469D01*
X134100D02*X134800Y98169D01*
G54D54*X136300D01*
G54D53*X133200Y98069D02*X133800Y97469D01*
X132600D02*X133200Y98069D01*
X131400Y97469D02*X132000Y98069D01*
X131000Y100069D02*X134100D01*
X133900D02*X134100D01*
X130400Y99469D02*X131000Y100069D01*
G54D54*X129900Y99469D02*X130400D01*
G54D53*X134100Y100069D02*X134700Y99469D01*
G54D54*X136300D01*
G54D53*X133200Y99369D02*X133900Y100069D01*
X132500D02*X133200Y99369D01*
X132000D02*X132700Y100069D01*
X131300D02*X132000Y99369D01*
G54D55*X155500Y99461D02*Y98477D01*
X160618Y99461D02*Y98477D01*
G54D53*X131100Y102969D02*X134100D01*
X130400Y103669D02*X131100Y102969D01*
G54D54*X129900Y103669D02*X130400D01*
G54D53*X132000Y103569D02*X132600Y102969D01*
X134100D02*X134800Y103669D01*
G54D54*X136300D01*
G54D53*X133200Y103569D02*X133800Y102969D01*
X132600D02*X133200Y103569D01*
X131400Y102969D02*X132000Y103569D01*
X131000Y105569D02*X134100D01*
X130400Y104969D02*X131000Y105569D01*
G54D54*X129900Y104969D02*X130400D01*
G54D53*X131300Y105569D02*X132000Y104869D01*
X134100Y105569D02*X134700Y104969D01*
G54D54*X136300D01*
G54D53*X133200Y104869D02*X133900Y105569D01*
X134100D01*
G54D55*X155500Y104461D02*Y103477D01*
X160618Y104461D02*Y103477D01*
G54D53*X132500Y105569D02*X133200Y104869D01*
X132000D02*X132700Y105569D01*
G54D52*G36*
X110775Y93556D02*Y91382D01*
X112949D01*
Y93556D01*
X110775D01*
G37*
G36*
X108413D02*Y91382D01*
X110587D01*
Y93556D01*
X108413D01*
G37*
G54D56*X113900Y94769D02*Y92169D01*
G54D57*X115900Y94769D02*Y92169D01*
X117900Y94769D02*Y92169D01*
X119800Y94769D02*Y92169D01*
X121800Y94769D02*Y92169D01*
G54D52*G36*
X122413Y94056D02*Y91882D01*
X124587D01*
Y94056D01*
X122413D01*
G37*
G36*
X124775D02*Y91882D01*
X126949D01*
Y94056D01*
X124775D01*
G37*
G54D53*X131100Y64969D02*X134100D01*
X130400Y65669D02*X131100Y64969D01*
G54D54*X129900Y65669D02*X130400D01*
G54D53*X131400Y64969D02*X132000Y65569D01*
X132600Y64969D01*
X134100D02*X134800Y65669D01*
G54D54*X136300D01*
G54D53*X133200Y65569D02*X133800Y64969D01*
X132600D02*X133200Y65569D01*
X130400Y66969D02*X131000Y67569D01*
G54D54*X129900Y66969D02*X130400D01*
G54D53*X134100Y67569D02*X134700Y66969D01*
X133200Y66869D02*X133900Y67569D01*
X132500D02*X133200Y66869D01*
X132000D02*X132700Y67569D01*
X131300D02*X132000Y66869D01*
G54D54*X134700Y66969D02*X136300D01*
G54D53*X131000Y67569D02*X134100D01*
X133900D02*X134100D01*
X131100Y70469D02*X134100D01*
X130400Y71169D02*X131100Y70469D01*
G54D54*X129900Y71169D02*X130400D01*
G54D53*X132000Y71069D02*X132600Y70469D01*
X134100D02*X134800Y71169D01*
G54D54*X136300D01*
G54D53*X133200Y71069D02*X133800Y70469D01*
X132600D02*X133200Y71069D01*
X131400Y70469D02*X132000Y71069D01*
G54D55*X155500Y69461D02*Y68477D01*
X160618Y69461D02*Y68477D01*
G54D53*X131000Y73069D02*X134100D01*
X133900D02*X134100D01*
X130400Y72469D02*X131000Y73069D01*
G54D54*X129900Y72469D02*X130400D01*
G54D53*X134100Y73069D02*X134700Y72469D01*
G54D54*X136300D01*
G54D53*X133200Y72369D02*X133900Y73069D01*
X132500D02*X133200Y72369D01*
X132000D02*X132700Y73069D01*
X131300D02*X132000Y72369D01*
X131100Y75469D02*X134100D01*
X130400Y76169D02*X131100Y75469D01*
G54D54*X129900Y76169D02*X130400D01*
G54D53*X132000Y76069D02*X132600Y75469D01*
X134100D02*X134800Y76169D01*
G54D54*X136300D01*
G54D53*X133200Y76069D02*X133800Y75469D01*
X132600D02*X133200Y76069D01*
X131400Y75469D02*X132000Y76069D01*
X131000Y78069D02*X134100D01*
X130400Y77469D02*X131000Y78069D01*
G54D54*X129900Y77469D02*X130400D01*
G54D53*X131300Y78069D02*X132000Y77369D01*
X132500Y78069D02*X133200Y77369D01*
X132000D02*X132700Y78069D01*
G54D57*X121900Y78269D02*Y75669D01*
X119900Y78269D02*Y75669D01*
X117900Y78269D02*Y75669D01*
X116000Y78269D02*Y75669D01*
X114000Y78269D02*Y75669D01*
G54D53*X134100Y78069D02*X134700Y77469D01*
G54D54*X136300D01*
G54D53*X133200Y77369D02*X133900Y78069D01*
X134100D01*
G54D55*X155500Y79461D02*Y78477D01*
X160618Y79461D02*Y78477D01*
X155500Y74461D02*Y73477D01*
X160618Y74461D02*Y73477D01*
G54D53*X131100Y80969D02*X134100D01*
X134800Y81669D01*
X133200Y81569D02*X133800Y80969D01*
X132600D02*X133200Y81569D01*
G54D54*X129900Y81669D02*X130400D01*
G54D53*X131100Y80969D01*
X131400D02*X132000Y81569D01*
X132600Y80969D01*
X131000Y83569D02*X134100D01*
X130400Y82969D02*X131000Y83569D01*
G54D54*X129900Y82969D02*X130400D01*
G54D53*X132500Y83569D02*X133200Y82869D01*
X132000D02*X132700Y83569D01*
X131300D02*X132000Y82869D01*
G54D54*X134800Y81669D02*X136300D01*
G54D53*X134100Y83569D02*X134700Y82969D01*
G54D54*X136300D01*
G54D53*X133200Y82869D02*X133900Y83569D01*
X134100D01*
G54D55*X155500Y84461D02*Y83477D01*
X160618Y84461D02*Y83477D01*
G54D53*X131100Y86469D02*X134100D01*
X130400Y88469D02*X131000Y89069D01*
G54D54*X129900Y88469D02*X130400D01*
G54D53*X132500Y89069D02*X133200Y88369D01*
X132000D02*X132700Y89069D01*
X131300D02*X132000Y88369D01*
X130400Y87169D02*X131100Y86469D01*
G54D54*X129900Y87169D02*X130400D01*
G54D53*X131400Y86469D02*X132000Y87069D01*
X132600Y86469D01*
X134100D02*X134800Y87169D01*
X133200Y87069D02*X133800Y86469D01*
X132600D02*X133200Y87069D01*
G54D54*X134800Y87169D02*X136300D01*
X134700Y88469D02*X136300D01*
G54D53*X131000Y89069D02*X134100D01*
X134700Y88469D01*
X133200Y88369D02*X133900Y89069D01*
X134100D01*
G54D55*X155500Y89461D02*Y88477D01*
X160618Y89461D02*Y88477D01*
G54D53*X131100Y167969D02*X134100D01*
X130400Y168669D02*X131100Y167969D01*
G54D54*X129900Y168669D02*X130400D01*
G54D53*X131400Y167969D02*X132000Y168569D01*
X132600Y167969D01*
X134100D02*X134800Y168669D01*
G54D54*X136300D01*
G54D53*X133200Y168569D02*X133800Y167969D01*
X132600D02*X133200Y168569D01*
X131000Y170569D02*X134100D01*
X134700Y169969D01*
G54D54*X136300D01*
G54D53*X133200Y169869D02*X133900Y170569D01*
X130400Y169969D02*X131000Y170569D01*
G54D54*X129900Y169969D02*X130400D01*
G54D53*X133900Y170569D02*X134100D01*
X132500D02*X133200Y169869D01*
X132000D02*X132700Y170569D01*
X131300D02*X132000Y169869D01*
X131100Y173469D02*X134100D01*
X130400Y174169D02*X131100Y173469D01*
G54D54*X129900Y174169D02*X130400D01*
G54D53*X131400Y173469D02*X132000Y174069D01*
X132600Y173469D01*
X134100D02*X134800Y174169D01*
G54D54*X136300D01*
G54D53*X133200Y174069D02*X133800Y173469D01*
X132600D02*X133200Y174069D01*
X130400Y175469D02*X131000Y176069D01*
G54D54*X129900Y175469D02*X130400D01*
G54D53*X134100Y176069D02*X134700Y175469D01*
X133200Y175369D02*X133900Y176069D01*
X132500D02*X133200Y175369D01*
X132000D02*X132700Y176069D01*
X131300D02*X132000Y175369D01*
G54D54*X134700Y175469D02*X136300D01*
G54D53*X131000Y176069D02*X134100D01*
X133900D02*X134100D01*
X131100Y178969D02*X134100D01*
X130400Y179669D02*X131100Y178969D01*
G54D54*X129900Y179669D02*X130400D01*
G54D53*X132000Y179569D02*X132600Y178969D01*
X134100D02*X134800Y179669D01*
G54D54*X136300D01*
G54D53*X133200Y179569D02*X133800Y178969D01*
X132600D02*X133200Y179569D01*
X131400Y178969D02*X132000Y179569D01*
X131000Y181569D02*X134100D01*
X133900D02*X134100D01*
X130400Y180969D02*X131000Y181569D01*
G54D54*X129900Y180969D02*X130400D01*
G54D53*X134100Y181569D02*X134700Y180969D01*
G54D54*X136300D01*
G54D53*X133200Y180869D02*X133900Y181569D01*
X132500D02*X133200Y180869D01*
X132000D02*X132700Y181569D01*
X131300D02*X132000Y180869D01*
G54D52*G36*
X110775Y169556D02*Y167382D01*
X112949D01*
Y169556D01*
X110775D01*
G37*
G36*
X108413D02*Y167382D01*
X110587D01*
Y169556D01*
X108413D01*
G37*
G54D56*X113900Y170769D02*Y168169D01*
G54D57*X115900Y170769D02*Y168169D01*
X117900Y170769D02*Y168169D01*
X119800Y170769D02*Y168169D01*
X121800Y170769D02*Y168169D01*
G54D52*G36*
X122413Y170056D02*Y167882D01*
X124587D01*
Y170056D01*
X122413D01*
G37*
G36*
X124775D02*Y167882D01*
X126949D01*
Y170056D01*
X124775D01*
G37*
G54D55*X155500Y180461D02*Y179477D01*
X160618Y180461D02*Y179477D01*
X155500Y170461D02*Y169477D01*
X160618Y170461D02*Y169477D01*
X155500Y175461D02*Y174477D01*
X160618Y175461D02*Y174477D01*
G54D53*X131100Y140969D02*X134100D01*
X130400Y141669D02*X131100Y140969D01*
G54D54*X129900Y141669D02*X130400D01*
G54D53*X131400Y140969D02*X132000Y141569D01*
X132600Y140969D01*
X134100D02*X134800Y141669D01*
G54D54*X136300D01*
G54D53*X133200Y141569D02*X133800Y140969D01*
X132600D02*X133200Y141569D01*
X130400Y142969D02*X131000Y143569D01*
G54D54*X129900Y142969D02*X130400D01*
G54D53*X134100Y143569D02*X134700Y142969D01*
X133200Y142869D02*X133900Y143569D01*
X132500D02*X133200Y142869D01*
X132000D02*X132700Y143569D01*
X131300D02*X132000Y142869D01*
G54D54*X134700Y142969D02*X136300D01*
G54D53*X131000Y143569D02*X134100D01*
X133900D02*X134100D01*
X131100Y146469D02*X134100D01*
X130400Y147169D02*X131100Y146469D01*
G54D54*X129900Y147169D02*X130400D01*
G54D53*X132000Y147069D02*X132600Y146469D01*
X134100D02*X134800Y147169D01*
G54D54*X136300D01*
G54D53*X133200Y147069D02*X133800Y146469D01*
X132600D02*X133200Y147069D01*
X131400Y146469D02*X132000Y147069D01*
G54D55*X155500Y145461D02*Y144477D01*
X160618Y145461D02*Y144477D01*
G54D53*X131000Y149069D02*X134100D01*
X133900D02*X134100D01*
X130400Y148469D02*X131000Y149069D01*
G54D54*X129900Y148469D02*X130400D01*
G54D53*X134100Y149069D02*X134700Y148469D01*
G54D54*X136300D01*
G54D53*X133200Y148369D02*X133900Y149069D01*
X132500D02*X133200Y148369D01*
X132000D02*X132700Y149069D01*
X131300D02*X132000Y148369D01*
X131100Y151469D02*X134100D01*
X130400Y152169D02*X131100Y151469D01*
G54D54*X129900Y152169D02*X130400D01*
G54D53*X132000Y152069D02*X132600Y151469D01*
X134100D02*X134800Y152169D01*
G54D54*X136300D01*
G54D53*X133200Y152069D02*X133800Y151469D01*
X132600D02*X133200Y152069D01*
X131400Y151469D02*X132000Y152069D01*
X131000Y154069D02*X134100D01*
X130400Y153469D02*X131000Y154069D01*
G54D54*X129900Y153469D02*X130400D01*
G54D53*X131300Y154069D02*X132000Y153369D01*
X132500Y154069D02*X133200Y153369D01*
X132000D02*X132700Y154069D01*
G54D57*X121900Y154269D02*Y151669D01*
X119900Y154269D02*Y151669D01*
X117900Y154269D02*Y151669D01*
X116000Y154269D02*Y151669D01*
X114000Y154269D02*Y151669D01*
G54D53*X134100Y154069D02*X134700Y153469D01*
G54D54*X136300D01*
G54D53*X133200Y153369D02*X133900Y154069D01*
X134100D01*
G54D55*X155500Y155461D02*Y154477D01*
X160618Y155461D02*Y154477D01*
X155500Y150461D02*Y149477D01*
X160618Y150461D02*Y149477D01*
G54D53*X131100Y156969D02*X134100D01*
X134800Y157669D01*
X133200Y157569D02*X133800Y156969D01*
X132600D02*X133200Y157569D01*
G54D54*X129900Y157669D02*X130400D01*
G54D53*X131100Y156969D01*
X131400D02*X132000Y157569D01*
X132600Y156969D01*
X131000Y159569D02*X134100D01*
X130400Y158969D02*X131000Y159569D01*
G54D54*X129900Y158969D02*X130400D01*
G54D53*X132500Y159569D02*X133200Y158869D01*
X132000D02*X132700Y159569D01*
X131300D02*X132000Y158869D01*
G54D54*X134800Y157669D02*X136300D01*
G54D53*X134100Y159569D02*X134700Y158969D01*
G54D54*X136300D01*
G54D53*X133200Y158869D02*X133900Y159569D01*
X134100D01*
G54D55*X155500Y160461D02*Y159477D01*
X160618Y160461D02*Y159477D01*
G54D53*X131100Y162469D02*X134100D01*
X130400Y164469D02*X131000Y165069D01*
G54D54*X129900Y164469D02*X130400D01*
G54D53*X132500Y165069D02*X133200Y164369D01*
X132000D02*X132700Y165069D01*
X131300D02*X132000Y164369D01*
X130400Y163169D02*X131100Y162469D01*
G54D54*X129900Y163169D02*X130400D01*
G54D53*X131400Y162469D02*X132000Y163069D01*
X132600Y162469D01*
X134100D02*X134800Y163169D01*
X133200Y163069D02*X133800Y162469D01*
X132600D02*X133200Y163069D01*
G54D54*X134800Y163169D02*X136300D01*
X134700Y164469D02*X136300D01*
G54D53*X131000Y165069D02*X134100D01*
X134700Y164469D01*
X133200Y164369D02*X133900Y165069D01*
X134100D01*
G54D55*X155500Y165461D02*Y164477D01*
X160618Y165461D02*Y164477D01*
G54D53*X45900Y107000D02*X48900D01*
X49000Y104400D02*X49600Y105000D01*
G54D54*X50100D01*
G54D53*X46800Y105100D02*X47500Y104400D01*
X47300D02*X48000Y105100D01*
X48700Y104400D01*
X48900Y107000D02*X49600Y106300D01*
G54D54*X50100D01*
G54D53*X48000Y106400D02*X48600Y107000D01*
X47400D02*X48000Y106400D01*
X45200Y106300D02*X45900Y107000D01*
X46200D02*X46800Y106400D01*
X47400Y107000D01*
X45900Y104400D02*X49000D01*
X45300Y105000D02*X45900Y104400D01*
X46100D02*X46800Y105100D01*
X45900Y104400D02*X46100D01*
G54D54*X43700Y106300D02*X45200D01*
X43700Y105000D02*X45300D01*
G54D53*X45200Y100800D02*X45900Y101500D01*
G54D54*X43700Y100800D02*X45200D01*
G54D53*X46200Y101500D02*X46800Y100900D01*
X47400Y101500D01*
G54D55*X24500Y103492D02*Y102508D01*
X19382Y103492D02*Y102508D01*
G54D53*X45900Y101500D02*X48900D01*
X49600Y100800D01*
G54D54*X50100D01*
G54D53*X48000Y100900D02*X48600Y101500D01*
X47400D02*X48000Y100900D01*
X45900Y98900D02*X49000D01*
X45900D02*X46100D01*
X49000D02*X49600Y99500D01*
G54D54*X50100D01*
G54D53*X45300D02*X45900Y98900D01*
G54D54*X43700Y99500D02*X45300D01*
G54D53*X46100Y98900D02*X46800Y99600D01*
X47500Y98900D01*
X47300D02*X48000Y99600D01*
X48700Y98900D01*
X45900Y77400D02*X49000D01*
X45900D02*X46100D01*
X49000D02*X49600Y78000D01*
G54D54*X50100D01*
G54D53*X45200Y79300D02*X45900Y80000D01*
G54D54*X43700Y79300D02*X45200D01*
G54D53*X46200Y80000D02*X46800Y79400D01*
X47400Y80000D01*
X45900D02*X48900D01*
X49600Y79300D01*
G54D54*X50100D01*
G54D53*X48000Y79400D02*X48600Y80000D01*
X47400D02*X48000Y79400D01*
X45300Y78000D02*X45900Y77400D01*
X46100D02*X46800Y78100D01*
X47500Y77400D01*
X47300D02*X48000Y78100D01*
X48700Y77400D01*
G54D54*X43700Y78000D02*X45300D01*
G54D55*X24500Y78492D02*Y77508D01*
X19382Y78492D02*Y77508D01*
G54D53*X45900Y74500D02*X48900D01*
X49600Y73800D01*
G54D54*X50100D01*
G54D53*X47400Y74500D02*X48000Y73900D01*
X45200Y73800D02*X45900Y74500D01*
G54D54*X43700Y73800D02*X45200D01*
G54D53*X46200Y74500D02*X46800Y73900D01*
X47400Y74500D01*
X48000Y73900D02*X48600Y74500D01*
X49000Y71900D02*X49600Y72500D01*
G54D54*X50100D01*
G54D53*X45900Y71900D02*X49000D01*
X46800Y72600D02*X47500Y71900D01*
X47300D02*X48000Y72600D01*
X48700Y71900D01*
X45300Y72500D02*X45900Y71900D01*
G54D54*X43700Y72500D02*X45300D01*
G54D53*X46100Y71900D02*X46800Y72600D01*
X45900Y71900D02*X46100D01*
G54D55*X24500Y73492D02*Y72508D01*
X19382Y73492D02*Y72508D01*
G54D53*X45900Y69000D02*X48900D01*
X49600Y68300D01*
G54D54*X50100D01*
G54D53*X48000Y68400D02*X48600Y69000D01*
X47400D02*X48000Y68400D01*
X45200Y68300D02*X45900Y69000D01*
G54D54*X43700Y68300D02*X45200D01*
G54D53*X46200Y69000D02*X46800Y68400D01*
X47400Y69000D01*
G54D55*X24500Y68492D02*Y67508D01*
X19382Y68492D02*Y67508D01*
G54D53*X45900Y66400D02*X49000D01*
X45900D02*X46100D01*
X49000D02*X49600Y67000D01*
G54D54*X50100D01*
G54D53*X45300D02*X45900Y66400D01*
G54D54*X43700Y67000D02*X45300D01*
G54D53*X46100Y66400D02*X46800Y67100D01*
X47500Y66400D01*
X47300D02*X48000Y67100D01*
X48700Y66400D01*
G54D52*G36*
X67051Y80587D02*Y78413D01*
X69225D01*
Y80587D01*
X67051D01*
G37*
G54D56*X66100Y79800D02*Y77200D01*
G54D57*X64100Y79800D02*Y77200D01*
G54D52*G36*
X69413Y80587D02*Y78413D01*
X71587D01*
Y80587D01*
X69413D01*
G37*
G54D57*X62100Y79800D02*Y77200D01*
X60200Y79800D02*Y77200D01*
X58200Y79800D02*Y77200D01*
G54D52*G36*
X55413Y80087D02*Y77913D01*
X57587D01*
Y80087D01*
X55413D01*
G37*
G36*
X53051D02*Y77913D01*
X55225D01*
Y80087D01*
X53051D01*
G37*
G54D53*X45900Y96500D02*X48900D01*
X49600Y95800D01*
G54D54*X50100D01*
G54D53*X47400Y96500D02*X48000Y95900D01*
X45200Y95800D02*X45900Y96500D01*
G54D54*X43700Y95800D02*X45200D01*
G54D53*X46200Y96500D02*X46800Y95900D01*
X47400Y96500D01*
X48000Y95900D02*X48600Y96500D01*
G54D57*X58100Y96300D02*Y93700D01*
X60100Y96300D02*Y93700D01*
X62100Y96300D02*Y93700D01*
X64000Y96300D02*Y93700D01*
X66000Y96300D02*Y93700D01*
G54D53*X45900Y93900D02*X49000D01*
X45300Y94500D02*X45900Y93900D01*
X46100D01*
X46800Y94600D02*X47500Y93900D01*
X47300D02*X48000Y94600D01*
G54D54*X43700Y94500D02*X45300D01*
X49600D02*X50100D01*
G54D53*X46100Y93900D02*X46800Y94600D01*
X49000Y93900D02*X49600Y94500D01*
X48000Y94600D02*X48700Y93900D01*
G54D55*X24500Y93492D02*Y92508D01*
X19382Y93492D02*Y92508D01*
X24500Y98492D02*Y97508D01*
X19382Y98492D02*Y97508D01*
G54D53*X45900Y91000D02*X48900D01*
X49600Y90300D01*
G54D54*X50100D01*
G54D53*X48000Y90400D02*X48600Y91000D01*
X47400D02*X48000Y90400D01*
X45200Y90300D02*X45900Y91000D01*
G54D54*X43700Y90300D02*X45200D01*
G54D53*X46200Y91000D02*X46800Y90400D01*
X47400Y91000D01*
X49000Y88400D02*X49600Y89000D01*
G54D54*X50100D01*
G54D53*X45300D02*X45900Y88400D01*
X46100D02*X46800Y89100D01*
X47500Y88400D01*
X47300D02*X48000Y89100D01*
X48700Y88400D01*
G54D54*X43700Y89000D02*X45300D01*
G54D55*X24500Y88492D02*Y87508D01*
X19382Y88492D02*Y87508D01*
X24500Y83492D02*Y82508D01*
X19382Y83492D02*Y82508D01*
G54D53*X45900Y88400D02*X49000D01*
X45900D02*X46100D01*
X45900Y85500D02*X48900D01*
X49600Y84800D01*
G54D54*X50100D01*
G54D53*X47400Y85500D02*X48000Y84900D01*
X45200Y84800D02*X45900Y85500D01*
G54D54*X43700Y84800D02*X45200D01*
G54D53*X46200Y85500D02*X46800Y84900D01*
X47400Y85500D01*
X48000Y84900D02*X48600Y85500D01*
X45900Y82900D02*X49000D01*
X45900D02*X46100D01*
X49000D02*X49600Y83500D01*
G54D54*X50100D01*
G54D53*X45300D02*X45900Y82900D01*
G54D54*X43700Y83500D02*X45300D01*
G54D53*X46100Y82900D02*X46800Y83600D01*
X47500Y82900D01*
X47300D02*X48000Y83600D01*
X48700Y82900D01*
X45200Y155300D02*X45900Y156000D01*
G54D54*X43700Y155300D02*X45200D01*
G54D53*X48900Y156000D02*X49600Y155300D01*
G54D54*X50100D01*
G54D53*X45900Y156000D02*X48900D01*
X46200D02*X46800Y155400D01*
X47400Y156000D01*
X48000Y155400D02*X48600Y156000D01*
X47400D02*X48000Y155400D01*
X45300Y154000D02*X45900Y153400D01*
G54D54*X43700Y154000D02*X45300D01*
G54D53*X46100Y153400D02*X46800Y154100D01*
X47500Y153400D01*
X47300D02*X48000Y154100D01*
X48700Y153400D01*
G54D55*X24500Y154492D02*Y153508D01*
X19382Y154492D02*Y153508D01*
G54D53*X45900Y153400D02*X49000D01*
X45900D02*X46100D01*
X49000D02*X49600Y154000D01*
G54D54*X50100D01*
G54D53*X45900Y150500D02*X48900D01*
X49600Y149800D01*
G54D54*X50100D01*
G54D53*X47400Y150500D02*X48000Y149900D01*
X45200Y149800D02*X45900Y150500D01*
G54D54*X43700Y149800D02*X45200D01*
G54D53*X46200Y150500D02*X46800Y149900D01*
X47400Y150500D01*
X48000Y149900D02*X48600Y150500D01*
X49000Y147900D02*X49600Y148500D01*
G54D54*X50100D01*
G54D53*X45900Y147900D02*X49000D01*
X46800Y148600D02*X47500Y147900D01*
X47300D02*X48000Y148600D01*
X48700Y147900D01*
X45300Y148500D02*X45900Y147900D01*
G54D54*X43700Y148500D02*X45300D01*
G54D53*X46100Y147900D02*X46800Y148600D01*
X45900Y147900D02*X46100D01*
G54D55*X24500Y149492D02*Y148508D01*
X19382Y149492D02*Y148508D01*
G54D53*X45900Y145000D02*X48900D01*
X49600Y144300D01*
G54D54*X50100D01*
G54D53*X48000Y144400D02*X48600Y145000D01*
X47400D02*X48000Y144400D01*
X45200Y144300D02*X45900Y145000D01*
G54D54*X43700Y144300D02*X45200D01*
G54D53*X46200Y145000D02*X46800Y144400D01*
X47400Y145000D01*
G54D55*X24500Y144492D02*Y143508D01*
X19382Y144492D02*Y143508D01*
G54D53*X45900Y142400D02*X49000D01*
X45900D02*X46100D01*
X49000D02*X49600Y143000D01*
G54D54*X50100D01*
G54D53*X45300D02*X45900Y142400D01*
G54D54*X43700Y143000D02*X45300D01*
G54D53*X46100Y142400D02*X46800Y143100D01*
X47500Y142400D01*
X47300D02*X48000Y143100D01*
X48700Y142400D01*
G54D52*G36*
X67051Y156587D02*Y154413D01*
X69225D01*
Y156587D01*
X67051D01*
G37*
G54D56*X66100Y155800D02*Y153200D01*
G54D57*X64100Y155800D02*Y153200D01*
G54D52*G36*
X69413Y156587D02*Y154413D01*
X71587D01*
Y156587D01*
X69413D01*
G37*
G54D57*X62100Y155800D02*Y153200D01*
X60200Y155800D02*Y153200D01*
X58200Y155800D02*Y153200D01*
G54D52*G36*
X55413Y156087D02*Y153913D01*
X57587D01*
Y156087D01*
X55413D01*
G37*
G36*
X53051D02*Y153913D01*
X55225D01*
Y156087D01*
X53051D01*
G37*
G54D53*X45900Y183000D02*X48900D01*
X49000Y180400D02*X49600Y181000D01*
G54D54*X50100D01*
G54D53*X46800Y181100D02*X47500Y180400D01*
X47300D02*X48000Y181100D01*
X48700Y180400D01*
X48900Y183000D02*X49600Y182300D01*
G54D54*X50100D01*
G54D53*X48000Y182400D02*X48600Y183000D01*
X47400D02*X48000Y182400D01*
X45200Y182300D02*X45900Y183000D01*
X46200D02*X46800Y182400D01*
X47400Y183000D01*
X45900Y180400D02*X49000D01*
X45300Y181000D02*X45900Y180400D01*
X46100D02*X46800Y181100D01*
X45900Y180400D02*X46100D01*
G54D54*X43700Y182300D02*X45200D01*
X43700Y181000D02*X45300D01*
G54D53*X45200Y176800D02*X45900Y177500D01*
G54D54*X43700Y176800D02*X45200D01*
G54D53*X46200Y177500D02*X46800Y176900D01*
X47400Y177500D01*
G54D55*X24500Y179492D02*Y178508D01*
X19382Y179492D02*Y178508D01*
G54D53*X45900Y177500D02*X48900D01*
X49600Y176800D01*
G54D54*X50100D01*
G54D53*X48000Y176900D02*X48600Y177500D01*
X47400D02*X48000Y176900D01*
X45900Y174900D02*X49000D01*
X45900D02*X46100D01*
X49000D02*X49600Y175500D01*
G54D54*X50100D01*
G54D53*X45300D02*X45900Y174900D01*
G54D54*X43700Y175500D02*X45300D01*
G54D53*X46100Y174900D02*X46800Y175600D01*
X47500Y174900D01*
X47300D02*X48000Y175600D01*
X48700Y174900D01*
X45900Y172500D02*X48900D01*
X49600Y171800D01*
G54D54*X50100D01*
G54D53*X47400Y172500D02*X48000Y171900D01*
X45200Y171800D02*X45900Y172500D01*
G54D54*X43700Y171800D02*X45200D01*
G54D53*X46200Y172500D02*X46800Y171900D01*
X47400Y172500D01*
X48000Y171900D02*X48600Y172500D01*
G54D57*X58100Y172300D02*Y169700D01*
X60100Y172300D02*Y169700D01*
X62100Y172300D02*Y169700D01*
X64000Y172300D02*Y169700D01*
X66000Y172300D02*Y169700D01*
G54D53*X45900Y169900D02*X49000D01*
X45300Y170500D02*X45900Y169900D01*
X46100D01*
X46800Y170600D02*X47500Y169900D01*
X47300D02*X48000Y170600D01*
G54D54*X43700Y170500D02*X45300D01*
X49600D02*X50100D01*
G54D53*X46100Y169900D02*X46800Y170600D01*
X49000Y169900D02*X49600Y170500D01*
X48000Y170600D02*X48700Y169900D01*
G54D55*X24500Y169492D02*Y168508D01*
X19382Y169492D02*Y168508D01*
X24500Y174492D02*Y173508D01*
X19382Y174492D02*Y173508D01*
G54D53*X45900Y167000D02*X48900D01*
X49600Y166300D01*
G54D54*X50100D01*
G54D53*X48000Y166400D02*X48600Y167000D01*
X47400D02*X48000Y166400D01*
X45200Y166300D02*X45900Y167000D01*
G54D54*X43700Y166300D02*X45200D01*
G54D53*X46200Y167000D02*X46800Y166400D01*
X47400Y167000D01*
X49000Y164400D02*X49600Y165000D01*
G54D54*X50100D01*
G54D53*X45300D02*X45900Y164400D01*
X46100D02*X46800Y165100D01*
X47500Y164400D01*
X47300D02*X48000Y165100D01*
X48700Y164400D01*
G54D54*X43700Y165000D02*X45300D01*
G54D55*X24500Y164492D02*Y163508D01*
X19382Y164492D02*Y163508D01*
X24500Y159492D02*Y158508D01*
X19382Y159492D02*Y158508D01*
G54D53*X45900Y164400D02*X49000D01*
X45900D02*X46100D01*
X45900Y161500D02*X48900D01*
X49600Y160800D01*
G54D54*X50100D01*
G54D53*X47400Y161500D02*X48000Y160900D01*
X45200Y160800D02*X45900Y161500D01*
G54D54*X43700Y160800D02*X45200D01*
G54D53*X46200Y161500D02*X46800Y160900D01*
X47400Y161500D01*
X48000Y160900D02*X48600Y161500D01*
X45900Y158900D02*X49000D01*
X45900D02*X46100D01*
X49000D02*X49600Y159500D01*
G54D54*X50100D01*
G54D53*X45300D02*X45900Y158900D01*
G54D54*X43700Y159500D02*X45300D01*
G54D53*X46100Y158900D02*X46800Y159600D01*
X47500Y158900D01*
X47300D02*X48000Y159600D01*
X48700Y158900D01*
M02*
