<?xml version="1.0" encoding="UTF-8"?>
<svg xmlns="http://www.w3.org/2000/svg" xmlns:xlink="http://www.w3.org/1999/xlink" width="271pt" height="219pt" viewBox="0 0 271 219" version="1.1">
<g id="surface1">
<path style="fill:none;stroke-width:0.01;stroke-linecap:round;stroke-linejoin:miter;stroke:rgb(100%,49.803922%,45.098039%);stroke-opacity:1;stroke-miterlimit:10;" d="M 3.614975 0.0803132 L 3.614975 2.970287 " transform="matrix(72,0,0,-72,4.3038,219.20052)"/>
<path style="fill:none;stroke-width:0.01;stroke-linecap:round;stroke-linejoin:miter;stroke:rgb(100%,49.803922%,45.098039%);stroke-opacity:1;stroke-miterlimit:10;" d="M 3.614975 2.970287 L 2.750012 2.970287 " transform="matrix(72,0,0,-72,4.3038,219.20052)"/>
<path style="fill:none;stroke-width:0.01;stroke-linecap:round;stroke-linejoin:miter;stroke:rgb(100%,49.803922%,45.098039%);stroke-opacity:1;stroke-miterlimit:10;" d="M 2.750012 2.970287 L 2.750012 1.000289 " transform="matrix(72,0,0,-72,4.3038,219.20052)"/>
<path style="fill:none;stroke-width:0.01;stroke-linecap:round;stroke-linejoin:miter;stroke:rgb(100%,49.803922%,45.098039%);stroke-opacity:1;stroke-miterlimit:10;" d="M 0.0350058 2.970287 L 0.0350058 0.0803132 " transform="matrix(72,0,0,-72,4.3038,219.20052)"/>
<path style="fill:none;stroke-width:0.01;stroke-linecap:round;stroke-linejoin:miter;stroke:rgb(100%,49.803922%,45.098039%);stroke-opacity:1;stroke-miterlimit:10;" d="M 0.0350058 0.0803132 L 0.72001 0.0803132 " transform="matrix(72,0,0,-72,4.3038,219.20052)"/>
<path style="fill:none;stroke-width:0.01;stroke-linecap:round;stroke-linejoin:miter;stroke:rgb(100%,49.803922%,45.098039%);stroke-opacity:1;stroke-miterlimit:10;" d="M 0.72001 1.000289 L 0.72001 2.970287 " transform="matrix(72,0,0,-72,4.3038,219.20052)"/>
<path style="fill:none;stroke-width:0.01;stroke-linecap:round;stroke-linejoin:miter;stroke:rgb(100%,49.803922%,45.098039%);stroke-opacity:1;stroke-miterlimit:10;" d="M 0.0350058 2.970287 L 0.72001 2.970287 " transform="matrix(72,0,0,-72,4.3038,219.20052)"/>
<path style="fill:none;stroke-width:0.01;stroke-linecap:round;stroke-linejoin:miter;stroke:rgb(100%,49.803922%,45.098039%);stroke-opacity:1;stroke-miterlimit:10;" d="M 0.72001 1.000289 L 2.750012 1.000289 " transform="matrix(72,0,0,-72,4.3038,219.20052)"/>
<path style="fill:none;stroke-width:0.01;stroke-linecap:round;stroke-linejoin:miter;stroke:rgb(100%,49.803922%,45.098039%);stroke-opacity:1;stroke-miterlimit:10;" d="M 3.614975 0.0803132 L 1.660006 0.0803132 " transform="matrix(72,0,0,-72,4.3038,219.20052)"/>
<path style="fill:none;stroke-width:0.01;stroke-linecap:round;stroke-linejoin:miter;stroke:rgb(100%,49.803922%,45.098039%);stroke-opacity:1;stroke-miterlimit:10;" d="M 0.72001 0.0803132 L 0.72001 0.730324 " transform="matrix(72,0,0,-72,4.3038,219.20052)"/>
<path style="fill:none;stroke-width:0.01;stroke-linecap:round;stroke-linejoin:miter;stroke:rgb(100%,49.803922%,45.098039%);stroke-opacity:1;stroke-miterlimit:10;" d="M 0.72001 0.730324 L 1.660006 0.730324 " transform="matrix(72,0,0,-72,4.3038,219.20052)"/>
<path style="fill:none;stroke-width:0.01;stroke-linecap:round;stroke-linejoin:miter;stroke:rgb(100%,49.803922%,45.098039%);stroke-opacity:1;stroke-miterlimit:10;" d="M 1.660006 0.730324 L 1.660006 0.0803132 " transform="matrix(72,0,0,-72,4.3038,219.20052)"/>
<path style=" stroke:none;fill-rule:evenodd;fill:rgb(45.098039%,45.098039%,87.058824%);fill-opacity:1;" d="M 29.179688 190.308594 C 29.179688 189.683594 28.242188 189.683594 28.242188 190.308594 C 28.242188 190.929688 29.179688 190.929688 29.179688 190.308594 "/>
<path style=" stroke:none;fill-rule:evenodd;fill:rgb(45.098039%,45.098039%,87.058824%);fill-opacity:1;" d="M 34.292969 200.820312 C 34.292969 200.195312 33.355469 200.195312 33.355469 200.820312 C 33.355469 201.441406 34.292969 201.441406 34.292969 200.820312 "/>
<path style=" stroke:none;fill-rule:evenodd;fill:rgb(45.098039%,45.098039%,87.058824%);fill-opacity:1;" d="M 35.011719 188.21875 C 35.011719 187.59375 34.074219 187.59375 34.074219 188.21875 C 34.074219 188.84375 35.011719 188.84375 35.011719 188.21875 "/>
<path style=" stroke:none;fill-rule:evenodd;fill:rgb(45.098039%,45.098039%,87.058824%);fill-opacity:1;" d="M 35.371094 192.179688 C 35.371094 191.554688 34.4375 191.554688 34.4375 192.179688 C 34.4375 192.804688 35.371094 192.804688 35.371094 192.179688 "/>
<path style=" stroke:none;fill-rule:evenodd;fill:rgb(45.098039%,45.098039%,87.058824%);fill-opacity:1;" d="M 35.804688 196.644531 C 35.804688 196.019531 34.867188 196.019531 34.867188 196.644531 C 34.867188 197.265625 35.804688 197.265625 35.804688 196.644531 "/>
<path style=" stroke:none;fill-rule:evenodd;fill:rgb(45.098039%,45.098039%,87.058824%);fill-opacity:1;" d="M 35.875 184.257812 C 35.875 183.636719 34.941406 183.636719 34.941406 184.257812 C 34.941406 184.882812 35.875 184.882812 35.875 184.257812 "/>
<path style=" stroke:none;fill-rule:evenodd;fill:rgb(45.098039%,45.098039%,87.058824%);fill-opacity:1;" d="M 36.09375 179.21875 C 36.09375 178.59375 35.15625 178.59375 35.15625 179.21875 C 35.15625 179.84375 36.09375 179.84375 36.09375 179.21875 "/>
<path style=" stroke:none;fill-rule:evenodd;fill:rgb(45.098039%,45.098039%,87.058824%);fill-opacity:1;" d="M 40.410156 179.9375 C 40.410156 179.316406 39.476562 179.316406 39.476562 179.9375 C 39.476562 180.5625 40.410156 180.5625 40.410156 179.9375 "/>
<path style=" stroke:none;fill-rule:evenodd;fill:rgb(45.098039%,45.098039%,87.058824%);fill-opacity:1;" d="M 47.25 190.738281 C 47.25 190.113281 46.316406 190.113281 46.316406 190.738281 C 46.316406 191.363281 47.25 191.363281 47.25 190.738281 "/>
<path style=" stroke:none;fill-rule:evenodd;fill:rgb(45.098039%,45.098039%,87.058824%);fill-opacity:1;" d="M 124.148438 161.433594 C 124.148438 160.8125 123.210938 160.8125 123.210938 161.433594 C 123.210938 162.058594 124.148438 162.058594 124.148438 161.433594 "/>
<path style=" stroke:none;fill-rule:evenodd;fill:rgb(45.098039%,45.098039%,87.058824%);fill-opacity:1;" d="M 126.957031 161.433594 C 126.957031 160.8125 126.019531 160.8125 126.019531 161.433594 C 126.019531 162.058594 126.957031 162.058594 126.957031 161.433594 "/>
<path style=" stroke:none;fill-rule:evenodd;fill:rgb(45.098039%,45.098039%,87.058824%);fill-opacity:1;" d="M 130.410156 161.433594 C 130.410156 160.8125 129.476562 160.8125 129.476562 161.433594 C 129.476562 162.058594 130.410156 162.058594 130.410156 161.433594 "/>
<path style=" stroke:none;fill-rule:evenodd;fill:rgb(45.098039%,45.098039%,87.058824%);fill-opacity:1;" d="M 133.21875 161.433594 C 133.21875 160.8125 132.285156 160.8125 132.285156 161.433594 C 132.285156 162.058594 133.21875 162.058594 133.21875 161.433594 "/>
<path style=" stroke:none;fill-rule:evenodd;fill:rgb(45.098039%,45.098039%,87.058824%);fill-opacity:1;" d="M 140.851562 165.898438 C 140.851562 165.273438 139.914062 165.273438 139.914062 165.898438 C 139.914062 166.523438 140.851562 166.523438 140.851562 165.898438 "/>
<path style=" stroke:none;fill-rule:evenodd;fill:rgb(45.098039%,45.098039%,87.058824%);fill-opacity:1;" d="M 143.730469 165.179688 C 143.730469 164.554688 142.796875 164.554688 142.796875 165.179688 C 142.796875 165.804688 143.730469 165.804688 143.730469 165.179688 "/>
<path style=" stroke:none;fill-rule:evenodd;fill:rgb(45.098039%,45.098039%,87.058824%);fill-opacity:1;" d="M 151.292969 166.617188 C 151.292969 165.996094 150.355469 165.996094 150.355469 166.617188 C 150.355469 167.242188 151.292969 167.242188 151.292969 166.617188 "/>
<path style=" stroke:none;fill-rule:evenodd;fill:rgb(45.098039%,45.098039%,87.058824%);fill-opacity:1;" d="M 209.972656 194.339844 C 209.972656 193.714844 209.035156 193.714844 209.035156 194.339844 C 209.035156 194.964844 209.972656 194.964844 209.972656 194.339844 "/>
<path style=" stroke:none;fill-rule:evenodd;fill:rgb(45.098039%,45.098039%,87.058824%);fill-opacity:1;" d="M 212.492188 193.617188 C 212.492188 192.996094 211.554688 192.996094 211.554688 193.617188 C 211.554688 194.242188 212.492188 194.242188 212.492188 193.617188 "/>
<path style=" stroke:none;fill-rule:evenodd;fill:rgb(45.098039%,45.098039%,87.058824%);fill-opacity:1;" d="M 215.730469 188.9375 C 215.730469 188.316406 214.796875 188.316406 214.796875 188.9375 C 214.796875 189.5625 215.730469 189.5625 215.730469 188.9375 "/>
<path style=" stroke:none;fill-rule:evenodd;fill:rgb(45.098039%,45.098039%,87.058824%);fill-opacity:1;" d="M 217.53125 186.417969 C 217.53125 185.792969 216.597656 185.792969 216.597656 186.417969 C 216.597656 187.042969 217.53125 187.042969 217.53125 186.417969 "/>
<path style=" stroke:none;fill-rule:evenodd;fill:rgb(45.098039%,45.098039%,87.058824%);fill-opacity:1;" d="M 226.890625 173.097656 C 226.890625 172.476562 225.957031 172.476562 225.957031 173.097656 C 225.957031 173.722656 226.890625 173.722656 226.890625 173.097656 "/>
<path style=" stroke:none;fill-rule:evenodd;fill:rgb(45.098039%,45.098039%,87.058824%);fill-opacity:1;" d="M 233.371094 184.257812 C 233.371094 183.636719 232.4375 183.636719 232.4375 184.257812 C 232.4375 184.882812 233.371094 184.882812 233.371094 184.257812 "/>
<path style=" stroke:none;fill-rule:evenodd;fill:rgb(45.098039%,45.098039%,87.058824%);fill-opacity:1;" d="M 233.371094 191.457031 C 233.371094 190.835938 232.4375 190.835938 232.4375 191.457031 C 232.4375 192.082031 233.371094 192.082031 233.371094 191.457031 "/>
<path style=" stroke:none;fill-rule:evenodd;fill:rgb(45.098039%,45.098039%,87.058824%);fill-opacity:1;" d="M 251.371094 169.859375 C 251.371094 169.234375 250.4375 169.234375 250.4375 169.859375 C 250.4375 170.484375 251.371094 170.484375 251.371094 169.859375 "/>
<path style=" stroke:none;fill-rule:evenodd;fill:rgb(45.098039%,45.098039%,87.058824%);fill-opacity:1;" d="M 251.371094 193.617188 C 251.371094 192.996094 250.4375 192.996094 250.4375 193.617188 C 250.4375 194.242188 251.371094 194.242188 251.371094 193.617188 "/>
<path style=" stroke:none;fill-rule:evenodd;fill:rgb(45.098039%,45.098039%,87.058824%);fill-opacity:1;" d="M 12.582031 40.980469 C 12.582031 40.019531 11.144531 40.019531 11.144531 40.980469 C 11.144531 41.9375 12.582031 41.9375 12.582031 40.980469 "/>
<path style=" stroke:none;fill-rule:evenodd;fill:rgb(45.098039%,45.098039%,87.058824%);fill-opacity:1;" d="M 12.582031 56.097656 C 12.582031 55.140625 11.144531 55.140625 11.144531 56.097656 C 11.144531 57.058594 12.582031 57.058594 12.582031 56.097656 "/>
<path style=" stroke:none;fill-rule:evenodd;fill:rgb(45.098039%,45.098039%,87.058824%);fill-opacity:1;" d="M 14.023438 49.617188 C 14.023438 48.660156 12.582031 48.660156 12.582031 49.617188 C 12.582031 50.578125 14.023438 50.578125 14.023438 49.617188 "/>
<path style=" stroke:none;fill-rule:evenodd;fill:rgb(45.098039%,45.098039%,87.058824%);fill-opacity:1;" d="M 15.105469 161.9375 C 15.105469 160.980469 13.664062 160.980469 13.664062 161.9375 C 13.664062 162.898438 15.105469 162.898438 15.105469 161.9375 "/>
<path style=" stroke:none;fill-rule:evenodd;fill:rgb(45.098039%,45.098039%,87.058824%);fill-opacity:1;" d="M 17.984375 16.859375 C 17.984375 15.898438 16.542969 15.898438 16.542969 16.859375 C 16.542969 17.820312 17.984375 17.820312 17.984375 16.859375 "/>
<path style=" stroke:none;fill-rule:evenodd;fill:rgb(45.098039%,45.098039%,87.058824%);fill-opacity:1;" d="M 20.863281 30.539062 C 20.863281 29.578125 19.421875 29.578125 19.421875 30.539062 C 19.421875 31.5 20.863281 31.5 20.863281 30.539062 "/>
<path style=" stroke:none;fill-rule:evenodd;fill:rgb(45.098039%,45.098039%,87.058824%);fill-opacity:1;" d="M 23.382812 192.898438 C 23.382812 191.9375 21.945312 191.9375 21.945312 192.898438 C 21.945312 193.859375 23.382812 193.859375 23.382812 192.898438 "/>
<path style=" stroke:none;fill-rule:evenodd;fill:rgb(45.098039%,45.098039%,87.058824%);fill-opacity:1;" d="M 38.144531 168.417969 C 38.144531 167.457031 36.703125 167.457031 36.703125 168.417969 C 36.703125 169.378906 38.144531 169.378906 38.144531 168.417969 "/>
<path style=" stroke:none;fill-rule:evenodd;fill:rgb(45.098039%,45.098039%,87.058824%);fill-opacity:1;" d="M 43.902344 174.238281 C 43.902344 173.277344 42.464844 173.277344 42.464844 174.238281 C 42.464844 175.195312 43.902344 175.195312 43.902344 174.238281 "/>
<path style=" stroke:none;fill-rule:evenodd;fill:rgb(45.098039%,45.098039%,87.058824%);fill-opacity:1;" d="M 49.734375 172.667969 C 49.734375 171.707031 48.296875 171.707031 48.296875 172.667969 C 48.296875 173.625 49.734375 173.625 49.734375 172.667969 "/>
<path style=" stroke:none;fill-rule:evenodd;fill:rgb(45.098039%,45.098039%,87.058824%);fill-opacity:1;" d="M 51.03125 184.042969 C 51.03125 183.082031 49.59375 183.082031 49.59375 184.042969 C 49.59375 185.003906 51.03125 185.003906 51.03125 184.042969 "/>
<path style=" stroke:none;fill-rule:evenodd;fill:rgb(45.098039%,45.098039%,87.058824%);fill-opacity:1;" d="M 137.144531 198.714844 C 137.144531 197.757812 135.703125 197.757812 135.703125 198.714844 C 135.703125 199.675781 137.144531 199.675781 137.144531 198.714844 "/>
<path style=" stroke:none;fill-rule:evenodd;fill:rgb(45.098039%,45.098039%,87.058824%);fill-opacity:1;" d="M 137.144531 206.578125 C 137.144531 205.617188 135.703125 205.617188 135.703125 206.578125 C 135.703125 207.539062 137.144531 207.539062 137.144531 206.578125 "/>
<path style=" stroke:none;fill-rule:evenodd;fill:rgb(45.098039%,45.098039%,87.058824%);fill-opacity:1;" d="M 148.664062 173.820312 C 148.664062 172.859375 147.222656 172.859375 147.222656 173.820312 C 147.222656 174.777344 148.664062 174.777344 148.664062 173.820312 "/>
<path style=" stroke:none;fill-rule:evenodd;fill:rgb(45.098039%,45.098039%,87.058824%);fill-opacity:1;" d="M 172.421875 152.578125 C 172.421875 151.617188 170.984375 151.617188 170.984375 152.578125 C 170.984375 153.539062 172.421875 153.539062 172.421875 152.578125 "/>
<path style=" stroke:none;fill-rule:evenodd;fill:rgb(45.098039%,45.098039%,87.058824%);fill-opacity:1;" d="M 176.382812 152.578125 C 176.382812 151.617188 174.945312 151.617188 174.945312 152.578125 C 174.945312 153.539062 176.382812 153.539062 176.382812 152.578125 "/>
<path style=" stroke:none;fill-rule:evenodd;fill:rgb(45.098039%,45.098039%,87.058824%);fill-opacity:1;" d="M 180.703125 187.859375 C 180.703125 186.898438 179.265625 186.898438 179.265625 187.859375 C 179.265625 188.820312 180.703125 188.820312 180.703125 187.859375 "/>
<path style=" stroke:none;fill-rule:evenodd;fill:rgb(45.098039%,45.098039%,87.058824%);fill-opacity:1;" d="M 194.023438 178.5 C 194.023438 177.539062 192.582031 177.539062 192.582031 178.5 C 192.582031 179.457031 194.023438 179.457031 194.023438 178.5 "/>
<path style=" stroke:none;fill-rule:evenodd;fill:rgb(45.098039%,45.098039%,87.058824%);fill-opacity:1;" d="M 194.023438 181.738281 C 194.023438 180.777344 192.582031 180.777344 192.582031 181.738281 C 192.582031 182.699219 194.023438 182.699219 194.023438 181.738281 "/>
<path style=" stroke:none;fill-rule:evenodd;fill:rgb(45.098039%,45.098039%,87.058824%);fill-opacity:1;" d="M 195.464844 191.097656 C 195.464844 190.140625 194.023438 190.140625 194.023438 191.097656 C 194.023438 192.058594 195.464844 192.058594 195.464844 191.097656 "/>
<path style=" stroke:none;fill-rule:evenodd;fill:rgb(45.098039%,45.098039%,87.058824%);fill-opacity:1;" d="M 200.503906 160.859375 C 200.503906 159.898438 199.0625 159.898438 199.0625 160.859375 C 199.0625 161.820312 200.503906 161.820312 200.503906 160.859375 "/>
<path style=" stroke:none;fill-rule:evenodd;fill:rgb(45.098039%,45.098039%,87.058824%);fill-opacity:1;" d="M 200.863281 210.179688 C 200.863281 209.21875 199.421875 209.21875 199.421875 210.179688 C 199.421875 211.140625 200.863281 211.140625 200.863281 210.179688 "/>
<path style=" stroke:none;fill-rule:evenodd;fill:rgb(45.098039%,45.098039%,87.058824%);fill-opacity:1;" d="M 208.421875 132.058594 C 208.421875 131.097656 206.984375 131.097656 206.984375 132.058594 C 206.984375 133.019531 208.421875 133.019531 208.421875 132.058594 "/>
<path style=" stroke:none;fill-rule:evenodd;fill:rgb(45.098039%,45.098039%,87.058824%);fill-opacity:1;" d="M 209.863281 135.660156 C 209.863281 134.699219 208.421875 134.699219 208.421875 135.660156 C 208.421875 136.617188 209.863281 136.617188 209.863281 135.660156 "/>
<path style=" stroke:none;fill-rule:evenodd;fill:rgb(45.098039%,45.098039%,87.058824%);fill-opacity:1;" d="M 210.945312 142.859375 C 210.945312 141.898438 209.503906 141.898438 209.503906 142.859375 C 209.503906 143.820312 210.945312 143.820312 210.945312 142.859375 "/>
<path style=" stroke:none;fill-rule:evenodd;fill:rgb(45.098039%,45.098039%,87.058824%);fill-opacity:1;" d="M 217.785156 165.898438 C 217.785156 164.9375 216.34375 164.9375 216.34375 165.898438 C 216.34375 166.859375 217.785156 166.859375 217.785156 165.898438 "/>
<path style=" stroke:none;fill-rule:evenodd;fill:rgb(45.098039%,45.098039%,87.058824%);fill-opacity:1;" d="M 217.785156 170.9375 C 217.785156 169.980469 216.34375 169.980469 216.34375 170.9375 C 216.34375 171.898438 217.785156 171.898438 217.785156 170.9375 "/>
<path style=" stroke:none;fill-rule:evenodd;fill:rgb(45.098039%,45.098039%,87.058824%);fill-opacity:1;" d="M 217.785156 174.179688 C 217.785156 173.21875 216.34375 173.21875 216.34375 174.179688 C 216.34375 175.140625 217.785156 175.140625 217.785156 174.179688 "/>
<path style=" stroke:none;fill-rule:evenodd;fill:rgb(45.098039%,45.098039%,87.058824%);fill-opacity:1;" d="M 217.785156 179.578125 C 217.785156 178.617188 216.34375 178.617188 216.34375 179.578125 C 216.34375 180.539062 217.785156 180.539062 217.785156 179.578125 "/>
<path style=" stroke:none;fill-rule:evenodd;fill:rgb(45.098039%,45.098039%,87.058824%);fill-opacity:1;" d="M 218.863281 159.417969 C 218.863281 158.457031 217.421875 158.457031 217.421875 159.417969 C 217.421875 160.378906 218.863281 160.378906 218.863281 159.417969 "/>
<path style=" stroke:none;fill-rule:evenodd;fill:rgb(45.098039%,45.098039%,87.058824%);fill-opacity:1;" d="M 220.664062 141.777344 C 220.664062 140.820312 219.222656 140.820312 219.222656 141.777344 C 219.222656 142.738281 220.664062 142.738281 220.664062 141.777344 "/>
<path style=" stroke:none;fill-rule:evenodd;fill:rgb(45.098039%,45.098039%,87.058824%);fill-opacity:1;" d="M 15.644531 176.339844 C 15.644531 174.660156 13.125 174.660156 13.125 176.339844 C 13.125 178.019531 15.644531 178.019531 15.644531 176.339844 "/>
<path style=" stroke:none;fill-rule:evenodd;fill:rgb(45.098039%,45.098039%,87.058824%);fill-opacity:1;" d="M 19.242188 192.179688 C 19.242188 190.5 16.722656 190.5 16.722656 192.179688 C 16.722656 193.859375 19.242188 193.859375 19.242188 192.179688 "/>
<path style=" stroke:none;fill-rule:evenodd;fill:rgb(45.098039%,45.098039%,87.058824%);fill-opacity:1;" d="M 23.203125 160.5 C 23.203125 158.820312 20.683594 158.820312 20.683594 160.5 C 20.683594 162.179688 23.203125 162.179688 23.203125 160.5 "/>
<path style=" stroke:none;fill-rule:evenodd;fill:rgb(45.098039%,45.098039%,87.058824%);fill-opacity:1;" d="M 216.523438 141.417969 C 216.523438 139.738281 214.003906 139.738281 214.003906 141.417969 C 214.003906 143.097656 216.523438 143.097656 216.523438 141.417969 "/>
<path style=" stroke:none;fill-rule:evenodd;fill:rgb(45.098039%,45.098039%,87.058824%);fill-opacity:1;" d="M 228.765625 31.617188 C 228.765625 29.9375 226.242188 29.9375 226.242188 31.617188 C 226.242188 33.300781 228.765625 33.300781 228.765625 31.617188 "/>
<path style=" stroke:none;fill-rule:evenodd;fill:rgb(45.098039%,45.098039%,87.058824%);fill-opacity:1;" d="M 228.765625 38.820312 C 228.765625 37.140625 226.242188 37.140625 226.242188 38.820312 C 226.242188 40.5 228.765625 40.5 228.765625 38.820312 "/>
<path style=" stroke:none;fill-rule:evenodd;fill:rgb(45.098039%,45.098039%,87.058824%);fill-opacity:1;" d="M 228.765625 74.820312 C 228.765625 73.140625 226.242188 73.140625 226.242188 74.820312 C 226.242188 76.5 228.765625 76.5 228.765625 74.820312 "/>
<path style=" stroke:none;fill-rule:evenodd;fill:rgb(45.098039%,45.098039%,87.058824%);fill-opacity:1;" d="M 228.765625 82.019531 C 228.765625 80.339844 226.242188 80.339844 226.242188 82.019531 C 226.242188 83.699219 228.765625 83.699219 228.765625 82.019531 "/>
<path style=" stroke:none;fill-rule:evenodd;fill:rgb(45.098039%,45.098039%,87.058824%);fill-opacity:1;" d="M 228.765625 118.019531 C 228.765625 116.339844 226.242188 116.339844 226.242188 118.019531 C 226.242188 119.699219 228.765625 119.699219 228.765625 118.019531 "/>
<path style=" stroke:none;fill-rule:evenodd;fill:rgb(45.098039%,45.098039%,87.058824%);fill-opacity:1;" d="M 228.765625 125.21875 C 228.765625 123.539062 226.242188 123.539062 226.242188 125.21875 C 226.242188 126.898438 228.765625 126.898438 228.765625 125.21875 "/>
<path style=" stroke:none;fill-rule:evenodd;fill:rgb(45.098039%,45.098039%,87.058824%);fill-opacity:1;" d="M 28.214844 21.878906 C 28.214844 20.199219 25.695312 20.199219 25.695312 21.878906 C 25.695312 23.558594 28.214844 23.558594 28.214844 21.878906 "/>
<path style=" stroke:none;fill-rule:evenodd;fill:rgb(45.098039%,45.098039%,87.058824%);fill-opacity:1;" d="M 28.214844 27.667969 C 28.214844 25.984375 25.695312 25.984375 25.695312 27.667969 C 25.695312 29.347656 28.214844 29.347656 28.214844 27.667969 "/>
<path style=" stroke:none;fill-rule:evenodd;fill:rgb(45.098039%,45.098039%,87.058824%);fill-opacity:1;" d="M 28.214844 33.449219 C 28.214844 31.769531 25.695312 31.769531 25.695312 33.449219 C 25.695312 35.128906 28.214844 35.128906 28.214844 33.449219 "/>
<path style=" stroke:none;fill-rule:evenodd;fill:rgb(45.098039%,45.098039%,87.058824%);fill-opacity:1;" d="M 28.214844 39.230469 C 28.214844 37.550781 25.695312 37.550781 25.695312 39.230469 C 25.695312 40.910156 28.214844 40.910156 28.214844 39.230469 "/>
<path style=" stroke:none;fill-rule:evenodd;fill:rgb(45.098039%,45.098039%,87.058824%);fill-opacity:1;" d="M 28.214844 181.695312 C 28.214844 180.015625 25.695312 180.015625 25.695312 181.695312 C 25.695312 183.375 28.214844 183.375 28.214844 181.695312 "/>
<path style=" stroke:none;fill-rule:evenodd;fill:rgb(45.098039%,45.098039%,87.058824%);fill-opacity:1;" d="M 28.214844 187.476562 C 28.214844 185.796875 25.695312 185.796875 25.695312 187.476562 C 25.695312 189.15625 28.214844 189.15625 28.214844 187.476562 "/>
<path style=" stroke:none;fill-rule:evenodd;fill:rgb(45.098039%,45.098039%,87.058824%);fill-opacity:1;" d="M 28.214844 193.265625 C 28.214844 191.585938 25.695312 191.585938 25.695312 193.265625 C 25.695312 194.945312 28.214844 194.945312 28.214844 193.265625 "/>
<path style=" stroke:none;fill-rule:evenodd;fill:rgb(45.098039%,45.098039%,87.058824%);fill-opacity:1;" d="M 28.214844 199.046875 C 28.214844 197.367188 25.695312 197.367188 25.695312 199.046875 C 25.695312 200.726562 28.214844 200.726562 28.214844 199.046875 "/>
<path style=" stroke:none;fill-rule:evenodd;fill:rgb(45.098039%,45.098039%,87.058824%);fill-opacity:1;" d="M 33.3125 18.988281 C 33.3125 17.308594 30.792969 17.308594 30.792969 18.988281 C 30.792969 20.671875 33.3125 20.671875 33.3125 18.988281 "/>
<path style=" stroke:none;fill-rule:evenodd;fill:rgb(45.098039%,45.098039%,87.058824%);fill-opacity:1;" d="M 33.3125 24.773438 C 33.3125 23.089844 30.792969 23.089844 30.792969 24.773438 C 30.792969 26.453125 33.3125 26.453125 33.3125 24.773438 "/>
<path style=" stroke:none;fill-rule:evenodd;fill:rgb(45.098039%,45.098039%,87.058824%);fill-opacity:1;" d="M 33.3125 30.554688 C 33.3125 28.875 30.792969 28.875 30.792969 30.554688 C 30.792969 32.234375 33.3125 32.234375 33.3125 30.554688 "/>
<path style=" stroke:none;fill-rule:evenodd;fill:rgb(45.098039%,45.098039%,87.058824%);fill-opacity:1;" d="M 33.3125 36.335938 C 33.3125 34.65625 30.792969 34.65625 30.792969 36.335938 C 30.792969 38.015625 33.3125 38.015625 33.3125 36.335938 "/>
<path style=" stroke:none;fill-rule:evenodd;fill:rgb(45.098039%,45.098039%,87.058824%);fill-opacity:1;" d="M 33.3125 178.808594 C 33.3125 177.128906 30.792969 177.128906 30.792969 178.808594 C 30.792969 180.488281 33.3125 180.488281 33.3125 178.808594 "/>
<path style=" stroke:none;fill-rule:evenodd;fill:rgb(45.098039%,45.098039%,87.058824%);fill-opacity:1;" d="M 33.3125 184.589844 C 33.3125 182.910156 30.792969 182.910156 30.792969 184.589844 C 30.792969 186.269531 33.3125 186.269531 33.3125 184.589844 "/>
<path style=" stroke:none;fill-rule:evenodd;fill:rgb(45.098039%,45.098039%,87.058824%);fill-opacity:1;" d="M 33.3125 190.371094 C 33.3125 188.691406 30.792969 188.691406 30.792969 190.371094 C 30.792969 192.050781 33.3125 192.050781 33.3125 190.371094 "/>
<path style=" stroke:none;fill-rule:evenodd;fill:rgb(45.098039%,45.098039%,87.058824%);fill-opacity:1;" d="M 33.3125 196.152344 C 33.3125 194.472656 30.792969 194.472656 30.792969 196.152344 C 30.792969 197.832031 33.3125 197.832031 33.3125 196.152344 "/>
<path style=" stroke:none;fill-rule:evenodd;fill:rgb(45.098039%,45.098039%,87.058824%);fill-opacity:1;" d="M 49.46875 9.269531 C 49.46875 7.589844 46.949219 7.589844 46.949219 9.269531 C 46.949219 10.949219 49.46875 10.949219 49.46875 9.269531 "/>
<path style=" stroke:none;fill-rule:evenodd;fill:rgb(45.098039%,45.098039%,87.058824%);fill-opacity:1;" d="M 49.46875 16.492188 C 49.46875 14.8125 46.949219 14.8125 46.949219 16.492188 C 46.949219 18.171875 49.46875 18.171875 49.46875 16.492188 "/>
<path style=" stroke:none;fill-rule:evenodd;fill:rgb(45.098039%,45.098039%,87.058824%);fill-opacity:1;" d="M 49.46875 41.71875 C 49.46875 40.039062 46.949219 40.039062 46.949219 41.71875 C 46.949219 43.402344 49.46875 43.402344 49.46875 41.71875 "/>
<path style=" stroke:none;fill-rule:evenodd;fill:rgb(45.098039%,45.098039%,87.058824%);fill-opacity:1;" d="M 49.46875 48.949219 C 49.46875 47.269531 46.949219 47.269531 46.949219 48.949219 C 46.949219 50.628906 49.46875 50.628906 49.46875 48.949219 "/>
<path style=" stroke:none;fill-rule:evenodd;fill:rgb(45.098039%,45.098039%,87.058824%);fill-opacity:1;" d="M 49.46875 169.082031 C 49.46875 167.402344 46.949219 167.402344 46.949219 169.082031 C 46.949219 170.761719 49.46875 170.761719 49.46875 169.082031 "/>
<path style=" stroke:none;fill-rule:evenodd;fill:rgb(45.098039%,45.098039%,87.058824%);fill-opacity:1;" d="M 49.46875 176.308594 C 49.46875 174.628906 46.949219 174.628906 46.949219 176.308594 C 46.949219 177.988281 49.46875 177.988281 49.46875 176.308594 "/>
<path style=" stroke:none;fill-rule:evenodd;fill:rgb(45.098039%,45.098039%,87.058824%);fill-opacity:1;" d="M 49.46875 201.539062 C 49.46875 199.859375 46.949219 199.859375 46.949219 201.539062 C 46.949219 203.21875 49.46875 203.21875 49.46875 201.539062 "/>
<path style=" stroke:none;fill-rule:evenodd;fill:rgb(45.098039%,45.098039%,87.058824%);fill-opacity:1;" d="M 49.46875 208.769531 C 49.46875 207.085938 46.949219 207.085938 46.949219 208.769531 C 46.949219 210.449219 49.46875 210.449219 49.46875 208.769531 "/>
<path style=" stroke:none;fill-rule:evenodd;fill:rgb(45.098039%,45.098039%,87.058824%);fill-opacity:1;" d="M 224.457031 159.375 C 224.457031 157.695312 221.9375 157.695312 221.9375 159.375 C 221.9375 161.054688 224.457031 161.054688 224.457031 159.375 "/>
<path style=" stroke:none;fill-rule:evenodd;fill:rgb(45.098039%,45.098039%,87.058824%);fill-opacity:1;" d="M 224.457031 166.605469 C 224.457031 164.925781 221.9375 164.925781 221.9375 166.605469 C 221.9375 168.285156 224.457031 168.285156 224.457031 166.605469 "/>
<path style=" stroke:none;fill-rule:evenodd;fill:rgb(45.098039%,45.098039%,87.058824%);fill-opacity:1;" d="M 224.457031 191.832031 C 224.457031 190.152344 221.9375 190.152344 221.9375 191.832031 C 221.9375 193.511719 224.457031 193.511719 224.457031 191.832031 "/>
<path style=" stroke:none;fill-rule:evenodd;fill:rgb(45.098039%,45.098039%,87.058824%);fill-opacity:1;" d="M 224.457031 199.0625 C 224.457031 197.382812 221.9375 197.382812 221.9375 199.0625 C 221.9375 200.742188 224.457031 200.742188 224.457031 199.0625 "/>
<path style=" stroke:none;fill-rule:evenodd;fill:rgb(45.098039%,45.098039%,87.058824%);fill-opacity:1;" d="M 240.613281 171.988281 C 240.613281 170.308594 238.09375 170.308594 238.09375 171.988281 C 238.09375 173.671875 240.613281 173.671875 240.613281 171.988281 "/>
<path style=" stroke:none;fill-rule:evenodd;fill:rgb(45.098039%,45.098039%,87.058824%);fill-opacity:1;" d="M 240.613281 177.773438 C 240.613281 176.089844 238.09375 176.089844 238.09375 177.773438 C 238.09375 179.453125 240.613281 179.453125 240.613281 177.773438 "/>
<path style=" stroke:none;fill-rule:evenodd;fill:rgb(45.098039%,45.098039%,87.058824%);fill-opacity:1;" d="M 240.613281 183.554688 C 240.613281 181.875 238.09375 181.875 238.09375 183.554688 C 238.09375 185.234375 240.613281 185.234375 240.613281 183.554688 "/>
<path style=" stroke:none;fill-rule:evenodd;fill:rgb(45.098039%,45.098039%,87.058824%);fill-opacity:1;" d="M 240.613281 189.335938 C 240.613281 187.65625 238.09375 187.65625 238.09375 189.335938 C 238.09375 191.015625 240.613281 191.015625 240.613281 189.335938 "/>
<path style=" stroke:none;fill-rule:evenodd;fill:rgb(45.098039%,45.098039%,87.058824%);fill-opacity:1;" d="M 245.710938 169.097656 C 245.710938 167.414062 243.191406 167.414062 243.191406 169.097656 C 243.191406 170.777344 245.710938 170.777344 245.710938 169.097656 "/>
<path style=" stroke:none;fill-rule:evenodd;fill:rgb(45.098039%,45.098039%,87.058824%);fill-opacity:1;" d="M 245.710938 174.878906 C 245.710938 173.199219 243.191406 173.199219 243.191406 174.878906 C 243.191406 176.558594 245.710938 176.558594 245.710938 174.878906 "/>
<path style=" stroke:none;fill-rule:evenodd;fill:rgb(45.098039%,45.098039%,87.058824%);fill-opacity:1;" d="M 245.710938 180.667969 C 245.710938 178.984375 243.191406 178.984375 243.191406 180.667969 C 243.191406 182.347656 245.710938 182.347656 245.710938 180.667969 "/>
<path style=" stroke:none;fill-rule:evenodd;fill:rgb(45.098039%,45.098039%,87.058824%);fill-opacity:1;" d="M 245.710938 186.449219 C 245.710938 184.769531 243.191406 184.769531 243.191406 186.449219 C 243.191406 188.128906 245.710938 188.128906 245.710938 186.449219 "/>
<path style=" stroke:none;fill-rule:evenodd;fill:rgb(45.098039%,45.098039%,87.058824%);fill-opacity:1;" d="M 14.671875 152.21875 C 14.671875 150.394531 11.9375 150.394531 11.9375 152.21875 C 11.9375 154.042969 14.671875 154.042969 14.671875 152.21875 "/>
<path style=" stroke:none;fill-rule:evenodd;fill:rgb(45.098039%,45.098039%,87.058824%);fill-opacity:1;" d="M 21.871094 152.21875 C 21.871094 150.394531 19.136719 150.394531 19.136719 152.21875 C 19.136719 154.042969 21.871094 154.042969 21.871094 152.21875 "/>
<path style=" stroke:none;fill-rule:evenodd;fill:rgb(45.098039%,45.098039%,87.058824%);fill-opacity:1;" d="M 29.070312 152.21875 C 29.070312 150.394531 26.335938 150.394531 26.335938 152.21875 C 26.335938 154.042969 29.070312 154.042969 29.070312 152.21875 "/>
<path style=" stroke:none;fill-rule:evenodd;fill:rgb(45.098039%,45.098039%,87.058824%);fill-opacity:1;" d="M 36.273438 152.21875 C 36.273438 150.394531 33.535156 150.394531 33.535156 152.21875 C 33.535156 154.042969 36.273438 154.042969 36.273438 152.21875 "/>
<path style=" stroke:none;fill-rule:evenodd;fill:rgb(45.098039%,45.098039%,87.058824%);fill-opacity:1;" d="M 43.472656 152.21875 C 43.472656 150.394531 40.734375 150.394531 40.734375 152.21875 C 40.734375 154.042969 43.472656 154.042969 43.472656 152.21875 "/>
<path style=" stroke:none;fill-rule:evenodd;fill:rgb(45.098039%,45.098039%,87.058824%);fill-opacity:1;" d="M 50.671875 152.21875 C 50.671875 150.394531 47.9375 150.394531 47.9375 152.21875 C 47.9375 154.042969 50.671875 154.042969 50.671875 152.21875 "/>
<path style=" stroke:none;fill-rule:evenodd;fill:rgb(45.098039%,45.098039%,87.058824%);fill-opacity:1;" d="M 61.472656 152.21875 C 61.472656 150.394531 58.734375 150.394531 58.734375 152.21875 C 58.734375 154.042969 61.472656 154.042969 61.472656 152.21875 "/>
<path style=" stroke:none;fill-rule:evenodd;fill:rgb(45.098039%,45.098039%,87.058824%);fill-opacity:1;" d="M 61.472656 159.417969 C 61.472656 157.59375 58.734375 157.59375 58.734375 159.417969 C 58.734375 161.242188 61.472656 161.242188 61.472656 159.417969 "/>
<path style=" stroke:none;fill-rule:evenodd;fill:rgb(45.098039%,45.098039%,87.058824%);fill-opacity:1;" d="M 68.671875 152.21875 C 68.671875 150.394531 65.9375 150.394531 65.9375 152.21875 C 65.9375 154.042969 68.671875 154.042969 68.671875 152.21875 "/>
<path style=" stroke:none;fill-rule:evenodd;fill:rgb(45.098039%,45.098039%,87.058824%);fill-opacity:1;" d="M 68.671875 159.417969 C 68.671875 157.59375 65.9375 157.59375 65.9375 159.417969 C 65.9375 161.242188 68.671875 161.242188 68.671875 159.417969 "/>
<path style=" stroke:none;fill-rule:evenodd;fill:rgb(45.098039%,45.098039%,87.058824%);fill-opacity:1;" d="M 89.550781 152.21875 C 89.550781 150.394531 86.816406 150.394531 86.816406 152.21875 C 86.816406 154.042969 89.550781 154.042969 89.550781 152.21875 "/>
<path style=" stroke:none;fill-rule:evenodd;fill:rgb(45.098039%,45.098039%,87.058824%);fill-opacity:1;" d="M 89.550781 159.417969 C 89.550781 157.59375 86.816406 157.59375 86.816406 159.417969 C 86.816406 161.242188 89.550781 161.242188 89.550781 159.417969 "/>
<path style=" stroke:none;fill-rule:evenodd;fill:rgb(45.098039%,45.098039%,87.058824%);fill-opacity:1;" d="M 96.75 152.21875 C 96.75 150.394531 94.015625 150.394531 94.015625 152.21875 C 94.015625 154.042969 96.75 154.042969 96.75 152.21875 "/>
<path style=" stroke:none;fill-rule:evenodd;fill:rgb(45.098039%,45.098039%,87.058824%);fill-opacity:1;" d="M 96.75 159.417969 C 96.75 157.59375 94.015625 157.59375 94.015625 159.417969 C 94.015625 161.242188 96.75 161.242188 96.75 159.417969 "/>
<path style=" stroke:none;fill-rule:evenodd;fill:rgb(45.098039%,45.098039%,87.058824%);fill-opacity:1;" d="M 103.953125 152.21875 C 103.953125 150.394531 101.214844 150.394531 101.214844 152.21875 C 101.214844 154.042969 103.953125 154.042969 103.953125 152.21875 "/>
<path style=" stroke:none;fill-rule:evenodd;fill:rgb(45.098039%,45.098039%,87.058824%);fill-opacity:1;" d="M 103.953125 159.417969 C 103.953125 157.59375 101.214844 157.59375 101.214844 159.417969 C 101.214844 161.242188 103.953125 161.242188 103.953125 159.417969 "/>
<path style=" stroke:none;fill-rule:evenodd;fill:rgb(45.098039%,45.098039%,87.058824%);fill-opacity:1;" d="M 111.152344 152.21875 C 111.152344 150.394531 108.414062 150.394531 108.414062 152.21875 C 108.414062 154.042969 111.152344 154.042969 111.152344 152.21875 "/>
<path style=" stroke:none;fill-rule:evenodd;fill:rgb(45.098039%,45.098039%,87.058824%);fill-opacity:1;" d="M 111.152344 159.417969 C 111.152344 157.59375 108.414062 157.59375 108.414062 159.417969 C 108.414062 161.242188 111.152344 161.242188 111.152344 159.417969 "/>
<path style=" stroke:none;fill-rule:evenodd;fill:rgb(45.098039%,45.098039%,87.058824%);fill-opacity:1;" d="M 118.351562 152.21875 C 118.351562 150.394531 115.617188 150.394531 115.617188 152.21875 C 115.617188 154.042969 118.351562 154.042969 118.351562 152.21875 "/>
<path style=" stroke:none;fill-rule:evenodd;fill:rgb(45.098039%,45.098039%,87.058824%);fill-opacity:1;" d="M 118.351562 159.417969 C 118.351562 157.59375 115.617188 157.59375 115.617188 159.417969 C 115.617188 161.242188 118.351562 161.242188 118.351562 159.417969 "/>
<path style=" stroke:none;fill-rule:evenodd;fill:rgb(45.098039%,45.098039%,87.058824%);fill-opacity:1;" d="M 132.390625 170.21875 C 132.390625 168.394531 129.65625 168.394531 129.65625 170.21875 C 129.65625 172.042969 132.390625 172.042969 132.390625 170.21875 "/>
<path style=" stroke:none;fill-rule:evenodd;fill:rgb(45.098039%,45.098039%,87.058824%);fill-opacity:1;" d="M 132.390625 177.417969 C 132.390625 175.59375 129.65625 175.59375 129.65625 177.417969 C 129.65625 179.242188 132.390625 179.242188 132.390625 177.417969 "/>
<path style=" stroke:none;fill-rule:evenodd;fill:rgb(45.098039%,45.098039%,87.058824%);fill-opacity:1;" d="M 132.390625 184.617188 C 132.390625 182.792969 129.65625 182.792969 129.65625 184.617188 C 129.65625 186.441406 132.390625 186.441406 132.390625 184.617188 "/>
<path style=" stroke:none;fill-rule:evenodd;fill:rgb(45.098039%,45.098039%,87.058824%);fill-opacity:1;" d="M 132.390625 191.820312 C 132.390625 189.996094 129.65625 189.996094 129.65625 191.820312 C 129.65625 193.644531 132.390625 193.644531 132.390625 191.820312 "/>
<path style=" stroke:none;fill-rule:evenodd;fill:rgb(45.098039%,45.098039%,87.058824%);fill-opacity:1;" d="M 132.390625 199.019531 C 132.390625 197.195312 129.65625 197.195312 129.65625 199.019531 C 129.65625 200.84375 132.390625 200.84375 132.390625 199.019531 "/>
<path style=" stroke:none;fill-rule:evenodd;fill:rgb(45.098039%,45.098039%,87.058824%);fill-opacity:1;" d="M 132.390625 206.21875 C 132.390625 204.394531 129.65625 204.394531 129.65625 206.21875 C 129.65625 208.042969 132.390625 208.042969 132.390625 206.21875 "/>
<path style=" stroke:none;fill-rule:evenodd;fill:rgb(45.098039%,45.098039%,87.058824%);fill-opacity:1;" d="M 139.59375 152.21875 C 139.59375 150.394531 136.855469 150.394531 136.855469 152.21875 C 136.855469 154.042969 139.59375 154.042969 139.59375 152.21875 "/>
<path style=" stroke:none;fill-rule:evenodd;fill:rgb(45.098039%,45.098039%,87.058824%);fill-opacity:1;" d="M 139.59375 159.417969 C 139.59375 157.59375 136.855469 157.59375 136.855469 159.417969 C 136.855469 161.242188 139.59375 161.242188 139.59375 159.417969 "/>
<path style=" stroke:none;fill-rule:evenodd;fill:rgb(45.098039%,45.098039%,87.058824%);fill-opacity:1;" d="M 146.070312 170.21875 C 146.070312 168.394531 143.335938 168.394531 143.335938 170.21875 C 143.335938 172.042969 146.070312 172.042969 146.070312 170.21875 "/>
<path style=" stroke:none;fill-rule:evenodd;fill:rgb(45.098039%,45.098039%,87.058824%);fill-opacity:1;" d="M 146.070312 206.21875 C 146.070312 204.394531 143.335938 204.394531 143.335938 206.21875 C 143.335938 208.042969 146.070312 208.042969 146.070312 206.21875 "/>
<path style=" stroke:none;fill-rule:evenodd;fill:rgb(45.098039%,45.098039%,87.058824%);fill-opacity:1;" d="M 146.792969 152.21875 C 146.792969 150.394531 144.054688 150.394531 144.054688 152.21875 C 144.054688 154.042969 146.792969 154.042969 146.792969 152.21875 "/>
<path style=" stroke:none;fill-rule:evenodd;fill:rgb(45.098039%,45.098039%,87.058824%);fill-opacity:1;" d="M 146.792969 159.417969 C 146.792969 157.59375 144.054688 157.59375 144.054688 159.417969 C 144.054688 161.242188 146.792969 161.242188 146.792969 159.417969 "/>
<path style=" stroke:none;fill-rule:evenodd;fill:rgb(45.098039%,45.098039%,87.058824%);fill-opacity:1;" d="M 153.273438 170.21875 C 153.273438 168.394531 150.535156 168.394531 150.535156 170.21875 C 150.535156 172.042969 153.273438 172.042969 153.273438 170.21875 "/>
<path style=" stroke:none;fill-rule:evenodd;fill:rgb(45.098039%,45.098039%,87.058824%);fill-opacity:1;" d="M 153.273438 206.21875 C 153.273438 204.394531 150.535156 204.394531 150.535156 206.21875 C 150.535156 208.042969 153.273438 208.042969 153.273438 206.21875 "/>
<path style=" stroke:none;fill-rule:evenodd;fill:rgb(45.098039%,45.098039%,87.058824%);fill-opacity:1;" d="M 153.992188 152.21875 C 153.992188 150.394531 151.253906 150.394531 151.253906 152.21875 C 151.253906 154.042969 153.992188 154.042969 153.992188 152.21875 "/>
<path style=" stroke:none;fill-rule:evenodd;fill:rgb(45.098039%,45.098039%,87.058824%);fill-opacity:1;" d="M 153.992188 159.417969 C 153.992188 157.59375 151.253906 157.59375 151.253906 159.417969 C 151.253906 161.242188 153.992188 161.242188 153.992188 159.417969 "/>
<path style=" stroke:none;fill-rule:evenodd;fill:rgb(45.098039%,45.098039%,87.058824%);fill-opacity:1;" d="M 160.472656 170.21875 C 160.472656 168.394531 157.734375 168.394531 157.734375 170.21875 C 157.734375 172.042969 160.472656 172.042969 160.472656 170.21875 "/>
<path style=" stroke:none;fill-rule:evenodd;fill:rgb(45.098039%,45.098039%,87.058824%);fill-opacity:1;" d="M 160.472656 206.21875 C 160.472656 204.394531 157.734375 204.394531 157.734375 206.21875 C 157.734375 208.042969 160.472656 208.042969 160.472656 206.21875 "/>
<path style=" stroke:none;fill-rule:evenodd;fill:rgb(45.098039%,45.098039%,87.058824%);fill-opacity:1;" d="M 161.191406 152.21875 C 161.191406 150.394531 158.457031 150.394531 158.457031 152.21875 C 158.457031 154.042969 161.191406 154.042969 161.191406 152.21875 "/>
<path style=" stroke:none;fill-rule:evenodd;fill:rgb(45.098039%,45.098039%,87.058824%);fill-opacity:1;" d="M 161.191406 159.417969 C 161.191406 157.59375 158.457031 157.59375 158.457031 159.417969 C 158.457031 161.242188 161.191406 161.242188 161.191406 159.417969 "/>
<path style=" stroke:none;fill-rule:evenodd;fill:rgb(45.098039%,45.098039%,87.058824%);fill-opacity:1;" d="M 167.671875 170.21875 C 167.671875 168.394531 164.9375 168.394531 164.9375 170.21875 C 164.9375 172.042969 167.671875 172.042969 167.671875 170.21875 "/>
<path style=" stroke:none;fill-rule:evenodd;fill:rgb(45.098039%,45.098039%,87.058824%);fill-opacity:1;" d="M 167.671875 206.21875 C 167.671875 204.394531 164.9375 204.394531 164.9375 206.21875 C 164.9375 208.042969 167.671875 208.042969 167.671875 206.21875 "/>
<path style=" stroke:none;fill-rule:evenodd;fill:rgb(45.098039%,45.098039%,87.058824%);fill-opacity:1;" d="M 168.390625 152.21875 C 168.390625 150.394531 165.65625 150.394531 165.65625 152.21875 C 165.65625 154.042969 168.390625 154.042969 168.390625 152.21875 "/>
<path style=" stroke:none;fill-rule:evenodd;fill:rgb(45.098039%,45.098039%,87.058824%);fill-opacity:1;" d="M 168.390625 159.417969 C 168.390625 157.59375 165.65625 157.59375 165.65625 159.417969 C 165.65625 161.242188 168.390625 161.242188 168.390625 159.417969 "/>
<path style=" stroke:none;fill-rule:evenodd;fill:rgb(45.098039%,45.098039%,87.058824%);fill-opacity:1;" d="M 174.871094 170.21875 C 174.871094 168.394531 172.136719 168.394531 172.136719 170.21875 C 172.136719 172.042969 174.871094 172.042969 174.871094 170.21875 "/>
<path style=" stroke:none;fill-rule:evenodd;fill:rgb(45.098039%,45.098039%,87.058824%);fill-opacity:1;" d="M 174.871094 206.21875 C 174.871094 204.394531 172.136719 204.394531 172.136719 206.21875 C 172.136719 208.042969 174.871094 208.042969 174.871094 206.21875 "/>
<path style=" stroke:none;fill-rule:evenodd;fill:rgb(45.098039%,45.098039%,87.058824%);fill-opacity:1;" d="M 182.070312 170.21875 C 182.070312 168.394531 179.335938 168.394531 179.335938 170.21875 C 179.335938 172.042969 182.070312 172.042969 182.070312 170.21875 "/>
<path style=" stroke:none;fill-rule:evenodd;fill:rgb(45.098039%,45.098039%,87.058824%);fill-opacity:1;" d="M 182.070312 206.21875 C 182.070312 204.394531 179.335938 204.394531 179.335938 206.21875 C 179.335938 208.042969 182.070312 208.042969 182.070312 206.21875 "/>
<path style=" stroke:none;fill-rule:evenodd;fill:rgb(45.098039%,45.098039%,87.058824%);fill-opacity:1;" d="M 189.273438 152.21875 C 189.273438 150.394531 186.535156 150.394531 186.535156 152.21875 C 186.535156 154.042969 189.273438 154.042969 189.273438 152.21875 "/>
<path style=" stroke:none;fill-rule:evenodd;fill:rgb(45.098039%,45.098039%,87.058824%);fill-opacity:1;" d="M 189.273438 159.417969 C 189.273438 157.59375 186.535156 157.59375 186.535156 159.417969 C 186.535156 161.242188 189.273438 161.242188 189.273438 159.417969 "/>
<path style=" stroke:none;fill-rule:evenodd;fill:rgb(45.098039%,45.098039%,87.058824%);fill-opacity:1;" d="M 189.273438 170.21875 C 189.273438 168.394531 186.535156 168.394531 186.535156 170.21875 C 186.535156 172.042969 189.273438 172.042969 189.273438 170.21875 "/>
<path style=" stroke:none;fill-rule:evenodd;fill:rgb(45.098039%,45.098039%,87.058824%);fill-opacity:1;" d="M 189.273438 206.21875 C 189.273438 204.394531 186.535156 204.394531 186.535156 206.21875 C 186.535156 208.042969 189.273438 208.042969 189.273438 206.21875 "/>
<path style=" stroke:none;fill-rule:evenodd;fill:rgb(45.098039%,45.098039%,87.058824%);fill-opacity:1;" d="M 196.472656 152.21875 C 196.472656 150.394531 193.734375 150.394531 193.734375 152.21875 C 193.734375 154.042969 196.472656 154.042969 196.472656 152.21875 "/>
<path style=" stroke:none;fill-rule:evenodd;fill:rgb(45.098039%,45.098039%,87.058824%);fill-opacity:1;" d="M 196.472656 159.417969 C 196.472656 157.59375 193.734375 157.59375 193.734375 159.417969 C 193.734375 161.242188 196.472656 161.242188 196.472656 159.417969 "/>
<path style=" stroke:none;fill-rule:evenodd;fill:rgb(45.098039%,45.098039%,87.058824%);fill-opacity:1;" d="M 196.472656 170.21875 C 196.472656 168.394531 193.734375 168.394531 193.734375 170.21875 C 193.734375 172.042969 196.472656 172.042969 196.472656 170.21875 "/>
<path style=" stroke:none;fill-rule:evenodd;fill:rgb(45.098039%,45.098039%,87.058824%);fill-opacity:1;" d="M 196.472656 206.21875 C 196.472656 204.394531 193.734375 204.394531 193.734375 206.21875 C 193.734375 208.042969 196.472656 208.042969 196.472656 206.21875 "/>
<path style=" stroke:none;fill-rule:evenodd;fill:rgb(45.098039%,45.098039%,87.058824%);fill-opacity:1;" d="M 210.871094 152.21875 C 210.871094 150.394531 208.136719 150.394531 208.136719 152.21875 C 208.136719 154.042969 210.871094 154.042969 210.871094 152.21875 "/>
<path style=" stroke:none;fill-rule:evenodd;fill:rgb(45.098039%,45.098039%,87.058824%);fill-opacity:1;" d="M 210.871094 206.21875 C 210.871094 204.394531 208.136719 204.394531 208.136719 206.21875 C 208.136719 208.042969 210.871094 208.042969 210.871094 206.21875 "/>
<path style=" stroke:none;fill-rule:evenodd;fill:rgb(45.098039%,45.098039%,87.058824%);fill-opacity:1;" d="M 218.070312 152.21875 C 218.070312 150.394531 215.335938 150.394531 215.335938 152.21875 C 215.335938 154.042969 218.070312 154.042969 218.070312 152.21875 "/>
<path style=" stroke:none;fill-rule:evenodd;fill:rgb(45.098039%,45.098039%,87.058824%);fill-opacity:1;" d="M 218.070312 206.21875 C 218.070312 204.394531 215.335938 204.394531 215.335938 206.21875 C 215.335938 208.042969 218.070312 208.042969 218.070312 206.21875 "/>
<path style=" stroke:none;fill-rule:evenodd;fill:rgb(45.098039%,45.098039%,87.058824%);fill-opacity:1;" d="M 225.273438 152.21875 C 225.273438 150.394531 222.535156 150.394531 222.535156 152.21875 C 222.535156 154.042969 225.273438 154.042969 225.273438 152.21875 "/>
<path style=" stroke:none;fill-rule:evenodd;fill:rgb(45.098039%,45.098039%,87.058824%);fill-opacity:1;" d="M 225.273438 206.21875 C 225.273438 204.394531 222.535156 204.394531 222.535156 206.21875 C 222.535156 208.042969 225.273438 208.042969 225.273438 206.21875 "/>
<path style=" stroke:none;fill-rule:evenodd;fill:rgb(45.098039%,45.098039%,87.058824%);fill-opacity:1;" d="M 232.472656 152.21875 C 232.472656 150.394531 229.734375 150.394531 229.734375 152.21875 C 229.734375 154.042969 232.472656 154.042969 232.472656 152.21875 "/>
<path style=" stroke:none;fill-rule:evenodd;fill:rgb(45.098039%,45.098039%,87.058824%);fill-opacity:1;" d="M 232.472656 206.21875 C 232.472656 204.394531 229.734375 204.394531 229.734375 206.21875 C 229.734375 208.042969 232.472656 208.042969 232.472656 206.21875 "/>
<path style=" stroke:none;fill-rule:evenodd;fill:rgb(45.098039%,45.098039%,87.058824%);fill-opacity:1;" d="M 239.671875 152.21875 C 239.671875 150.394531 236.9375 150.394531 236.9375 152.21875 C 236.9375 154.042969 239.671875 154.042969 239.671875 152.21875 "/>
<path style=" stroke:none;fill-rule:evenodd;fill:rgb(45.098039%,45.098039%,87.058824%);fill-opacity:1;" d="M 239.671875 206.21875 C 239.671875 204.394531 236.9375 204.394531 236.9375 206.21875 C 236.9375 208.042969 239.671875 208.042969 239.671875 206.21875 "/>
<path style=" stroke:none;fill-rule:evenodd;fill:rgb(45.098039%,45.098039%,87.058824%);fill-opacity:1;" d="M 246.871094 152.21875 C 246.871094 150.394531 244.136719 150.394531 244.136719 152.21875 C 244.136719 154.042969 246.871094 154.042969 246.871094 152.21875 "/>
<path style=" stroke:none;fill-rule:evenodd;fill:rgb(45.098039%,45.098039%,87.058824%);fill-opacity:1;" d="M 246.871094 206.21875 C 246.871094 204.394531 244.136719 204.394531 244.136719 206.21875 C 244.136719 208.042969 246.871094 208.042969 246.871094 206.21875 "/>
<path style=" stroke:none;fill-rule:evenodd;fill:rgb(45.098039%,45.098039%,87.058824%);fill-opacity:1;" d="M 254.070312 152.21875 C 254.070312 150.394531 251.335938 150.394531 251.335938 152.21875 C 251.335938 154.042969 254.070312 154.042969 254.070312 152.21875 "/>
<path style=" stroke:none;fill-rule:evenodd;fill:rgb(45.098039%,45.098039%,87.058824%);fill-opacity:1;" d="M 254.070312 206.21875 C 254.070312 204.394531 251.335938 204.394531 251.335938 206.21875 C 251.335938 208.042969 254.070312 208.042969 254.070312 206.21875 "/>
<path style=" stroke:none;fill-rule:evenodd;fill:rgb(45.098039%,45.098039%,87.058824%);fill-opacity:1;" d="M 261.273438 152.21875 C 261.273438 150.394531 258.535156 150.394531 258.535156 152.21875 C 258.535156 154.042969 261.273438 154.042969 261.273438 152.21875 "/>
<path style=" stroke:none;fill-rule:evenodd;fill:rgb(45.098039%,45.098039%,87.058824%);fill-opacity:1;" d="M 261.273438 206.21875 C 261.273438 204.394531 258.535156 204.394531 258.535156 206.21875 C 258.535156 208.042969 261.273438 208.042969 261.273438 206.21875 "/>
<path style=" stroke:none;fill-rule:evenodd;fill:rgb(45.098039%,45.098039%,87.058824%);fill-opacity:1;" d="M 24.109375 10.96875 C 24.109375 8.519531 20.4375 8.519531 20.4375 10.96875 C 20.4375 13.417969 24.109375 13.417969 24.109375 10.96875 "/>
<path style=" stroke:none;fill-rule:evenodd;fill:rgb(45.098039%,45.098039%,87.058824%);fill-opacity:1;" d="M 24.109375 47.25 C 24.109375 44.800781 20.4375 44.800781 20.4375 47.25 C 20.4375 49.699219 24.109375 49.699219 24.109375 47.25 "/>
<path style=" stroke:none;fill-rule:evenodd;fill:rgb(45.098039%,45.098039%,87.058824%);fill-opacity:1;" d="M 24.109375 170.789062 C 24.109375 168.339844 20.4375 168.339844 20.4375 170.789062 C 20.4375 173.234375 24.109375 173.234375 24.109375 170.789062 "/>
<path style=" stroke:none;fill-rule:evenodd;fill:rgb(45.098039%,45.098039%,87.058824%);fill-opacity:1;" d="M 24.109375 207.070312 C 24.109375 204.621094 20.4375 204.621094 20.4375 207.070312 C 20.4375 209.515625 24.109375 209.515625 24.109375 207.070312 "/>
<path style=" stroke:none;fill-rule:evenodd;fill:rgb(45.098039%,45.098039%,87.058824%);fill-opacity:1;" d="M 250.96875 161.074219 C 250.96875 158.625 247.296875 158.625 247.296875 161.074219 C 247.296875 163.523438 250.96875 163.523438 250.96875 161.074219 "/>
<path style=" stroke:none;fill-rule:evenodd;fill:rgb(45.098039%,45.098039%,87.058824%);fill-opacity:1;" d="M 250.96875 197.363281 C 250.96875 194.914062 247.296875 194.914062 247.296875 197.363281 C 247.296875 199.8125 250.96875 199.8125 250.96875 197.363281 "/>
<path style=" stroke:none;fill-rule:evenodd;fill:rgb(45.098039%,45.098039%,87.058824%);fill-opacity:1;" d="M 244.820312 24.417969 C 244.820312 20.53125 238.988281 20.53125 238.988281 24.417969 C 238.988281 28.308594 244.820312 28.308594 244.820312 24.417969 "/>
<path style=" stroke:none;fill-rule:evenodd;fill:rgb(45.098039%,45.098039%,87.058824%);fill-opacity:1;" d="M 244.820312 53.21875 C 244.820312 49.332031 238.988281 49.332031 238.988281 53.21875 C 238.988281 57.105469 244.820312 57.105469 244.820312 53.21875 "/>
<path style=" stroke:none;fill-rule:evenodd;fill:rgb(45.098039%,45.098039%,87.058824%);fill-opacity:1;" d="M 244.820312 67.617188 C 244.820312 63.730469 238.988281 63.730469 238.988281 67.617188 C 238.988281 71.507812 244.820312 71.507812 244.820312 67.617188 "/>
<path style=" stroke:none;fill-rule:evenodd;fill:rgb(45.098039%,45.098039%,87.058824%);fill-opacity:1;" d="M 244.820312 96.417969 C 244.820312 92.53125 238.988281 92.53125 238.988281 96.417969 C 238.988281 100.308594 244.820312 100.308594 244.820312 96.417969 "/>
<path style=" stroke:none;fill-rule:evenodd;fill:rgb(45.098039%,45.098039%,87.058824%);fill-opacity:1;" d="M 244.820312 110.820312 C 244.820312 106.929688 238.988281 106.929688 238.988281 110.820312 C 238.988281 114.707031 244.820312 114.707031 244.820312 110.820312 "/>
<path style=" stroke:none;fill-rule:evenodd;fill:rgb(45.098039%,45.098039%,87.058824%);fill-opacity:1;" d="M 244.820312 139.617188 C 244.820312 135.730469 238.988281 135.730469 238.988281 139.617188 C 238.988281 143.507812 244.820312 143.507812 244.820312 139.617188 "/>
<path style=" stroke:none;fill-rule:evenodd;fill:rgb(45.098039%,45.098039%,87.058824%);fill-opacity:1;" d="M 32.886719 10.402344 C 32.886719 5.886719 26.121094 5.886719 26.121094 10.402344 C 26.121094 14.914062 32.886719 14.914062 32.886719 10.402344 "/>
<path style=" stroke:none;fill-rule:evenodd;fill:rgb(45.098039%,45.098039%,87.058824%);fill-opacity:1;" d="M 32.886719 47.820312 C 32.886719 43.308594 26.121094 43.308594 26.121094 47.820312 C 26.121094 52.332031 32.886719 52.332031 32.886719 47.820312 "/>
<path style=" stroke:none;fill-rule:evenodd;fill:rgb(45.098039%,45.098039%,87.058824%);fill-opacity:1;" d="M 32.886719 170.21875 C 32.886719 165.707031 26.121094 165.707031 26.121094 170.21875 C 26.121094 174.730469 32.886719 174.730469 32.886719 170.21875 "/>
<path style=" stroke:none;fill-rule:evenodd;fill:rgb(45.098039%,45.098039%,87.058824%);fill-opacity:1;" d="M 32.886719 207.636719 C 32.886719 203.125 26.121094 203.125 26.121094 207.636719 C 26.121094 212.148438 32.886719 212.148438 32.886719 207.636719 "/>
<path style=" stroke:none;fill-rule:evenodd;fill:rgb(45.098039%,45.098039%,87.058824%);fill-opacity:1;" d="M 245.289062 160.507812 C 245.289062 155.992188 238.519531 155.992188 238.519531 160.507812 C 238.519531 165.019531 245.289062 165.019531 245.289062 160.507812 "/>
<path style=" stroke:none;fill-rule:evenodd;fill:rgb(45.098039%,45.098039%,87.058824%);fill-opacity:1;" d="M 245.289062 197.925781 C 245.289062 193.414062 238.519531 193.414062 238.519531 197.925781 C 238.519531 202.4375 245.289062 202.4375 245.289062 197.925781 "/>
<path style=" stroke:none;fill-rule:evenodd;fill:rgb(45.098039%,45.098039%,87.058824%);fill-opacity:1;" d="M 26.625 65.097656 C 26.625 56.121094 13.160156 56.121094 13.160156 65.097656 C 13.160156 74.074219 26.625 74.074219 26.625 65.097656 "/>
<path style=" stroke:none;fill-rule:evenodd;fill:rgb(45.098039%,45.098039%,87.058824%);fill-opacity:1;" d="M 26.625 88.140625 C 26.625 79.164062 13.160156 79.164062 13.160156 88.140625 C 13.160156 97.113281 26.625 97.113281 26.625 88.140625 "/>
<path style=" stroke:none;fill-rule:evenodd;fill:rgb(45.098039%,45.098039%,87.058824%);fill-opacity:1;" d="M 26.625 111.179688 C 26.625 102.203125 13.160156 102.203125 13.160156 111.179688 C 13.160156 120.15625 26.625 120.15625 26.625 111.179688 "/>
<path style=" stroke:none;fill-rule:evenodd;fill:rgb(45.098039%,45.098039%,87.058824%);fill-opacity:1;" d="M 26.625 134.21875 C 26.625 125.242188 13.160156 125.242188 13.160156 134.21875 C 13.160156 143.195312 26.625 143.195312 26.625 134.21875 "/>
<path style=" stroke:none;fill-rule:evenodd;fill:rgb(45.098039%,45.098039%,87.058824%);fill-opacity:1;" d="M 47.035156 65.097656 C 47.035156 56.121094 33.570312 56.121094 33.570312 65.097656 C 33.570312 74.074219 47.035156 74.074219 47.035156 65.097656 "/>
<path style=" stroke:none;fill-rule:evenodd;fill:rgb(45.098039%,45.098039%,87.058824%);fill-opacity:1;" d="M 47.035156 88.140625 C 47.035156 79.164062 33.570312 79.164062 33.570312 88.140625 C 33.570312 97.113281 47.035156 97.113281 47.035156 88.140625 "/>
<path style=" stroke:none;fill-rule:evenodd;fill:rgb(45.098039%,45.098039%,87.058824%);fill-opacity:1;" d="M 47.035156 111.179688 C 47.035156 102.203125 33.570312 102.203125 33.570312 111.179688 C 33.570312 120.15625 47.035156 120.15625 47.035156 111.179688 "/>
<path style=" stroke:none;fill-rule:evenodd;fill:rgb(45.098039%,45.098039%,87.058824%);fill-opacity:1;" d="M 47.035156 134.21875 C 47.035156 125.242188 33.570312 125.242188 33.570312 134.21875 C 33.570312 143.195312 47.035156 143.195312 47.035156 134.21875 "/>
</g>
</svg>
