%
M48
M72
T01C0.0150
T02C0.0197
T03C0.0236
T04C0.0374
T05C0.0394
T06C0.0400
T07C0.0472
T08C0.0550
T09C0.0590
T10C0.0866
T11C0.1181
%
T01
X10956Y9038
X11418Y12013
X11668Y12013
X11643Y12913
X11393Y12913
X13018Y12913
X13268Y12913
X13268Y12013
X13018Y12013
X15581Y12038
X15581Y12538
X15581Y13038
X16706Y13038
X16706Y12538
X16706Y12038
X18643Y12013
X18893Y12013
X18893Y12913
X18643Y12913
X20268Y12913
X20518Y12913
X20518Y12013
X20268Y12013
X23206Y12038
X23206Y12538
X23206Y13038
X24331Y13038
X24331Y12538
X24331Y12038
X25693Y12263
X25893Y12413
X26393Y12913
X26643Y12913
X28018Y12913
X28268Y12913
X28143Y11988
X27441Y10373
X30331Y12038
X30331Y12538
X30331Y12963
X31456Y12963
X31456Y12538
X31456Y12038
X33393Y12913
X33643Y12913
X33568Y11938
X33743Y11738
X35143Y12013
X35018Y12913
X35268Y12913
X37331Y13038
X37331Y12538
X37331Y12038
X38456Y12038
X38456Y12538
X38456Y13038
X38493Y14200
X38493Y14550
X38493Y14900
X40393Y12913
X40643Y12913
X40643Y11938
X40393Y11938
X41993Y11938
X42243Y11938
X42268Y12913
X42018Y12913
X41706Y15788
X41706Y16163
X41706Y16538
X41331Y16538
X41331Y16163
X41331Y15788
X40956Y15788
X40956Y16163
X40956Y16538
X39107Y18506
X38706Y18188
X38563Y20655
X37364Y20584
X35775Y19163
X34706Y16538
X34706Y16163
X34706Y15788
X34331Y15788
X34331Y16163
X34331Y16538
X33956Y16538
X33956Y16163
X33956Y15788
X31481Y14900
X31481Y14550
X31481Y14200
X27706Y15788
X27706Y16163
X27706Y16538
X27331Y16538
X27331Y16163
X27331Y15788
X26956Y15788
X26956Y16163
X26956Y16538
X28393Y19225
X27051Y20249
X26143Y20624
X26430Y21841
X26732Y22144
X27331Y22334
X26338Y23091
X27014Y23723
X26288Y24591
X24831Y24800
X24910Y25413
X25074Y27096
X25456Y27473
X26192Y26966
X27093Y27635
X28227Y26966
X29518Y27850
X29893Y27600
X30357Y27198
X30048Y26126
X29587Y24332
X29548Y23781
X29548Y23309
X28792Y23381
X28792Y23809
X28792Y22920
X28857Y21693
X30363Y20114
X30831Y20525
X31081Y20913
X31695Y20623
X30798Y19600
X32502Y18420
X25120Y21874
X24721Y22777
X24831Y23395
X24488Y20624
X23870Y20615
X23386Y20689
X22967Y20589
X22252Y20615
X20706Y19212
X19956Y16538
X19956Y16163
X19956Y15788
X19581Y15788
X19581Y16163
X19581Y16538
X19206Y16538
X19206Y16163
X19206Y15788
X16718Y14913
X16718Y14563
X16718Y14213
X12706Y15788
X12706Y16163
X12706Y16538
X12331Y16538
X12331Y16163
X12331Y15788
X11956Y15788
X11956Y16163
X11956Y16538
X13356Y19163
X16120Y20615
X18704Y22533
X17581Y27788
X18081Y28327
X17081Y28725
X16081Y30413
X16581Y30663
X15768Y31538
X14808Y31538
X14808Y32499
X15768Y32499
X15456Y30538
X13858Y30413
X12956Y29850
X12768Y28663
X12518Y28663
X13643Y28225
X13643Y27975
X11018Y25413
X8146Y24411
X7456Y21038
X9036Y20623
X7456Y16538
X7456Y12538
X15456Y9038
X19956Y9038
X24356Y14188
X24356Y14538
X24356Y14888
X32456Y9038
X37956Y9038
X43456Y9038
X45081Y12288
X45081Y12663
X45081Y13038
X45081Y13413
X44956Y14288
X44956Y14788
X44956Y15288
X45706Y16038
X46456Y15288
X46456Y14788
X46456Y14288
X46206Y13413
X46206Y13038
X46206Y12663
X46206Y12288
X47456Y12538
X44206Y18413
X44831Y19225
X45080Y20953
X44580Y20953
X45452Y21499
X45098Y22010
X44598Y22010
X44098Y22010
X43737Y21556
X44206Y23163
X44706Y23163
X45206Y23163
X45206Y24413
X44706Y24413
X44206Y24413
X44956Y24913
X45956Y24913
X46581Y25663
X47456Y25038
X46581Y29288
X46081Y29913
X44956Y29913
X44331Y29288
X44264Y31913
X43831Y31913
X44697Y31913
X45102Y31932
X45482Y31920
X47456Y31038
X44530Y33985
X43664Y34152
X43664Y35192
X44530Y35349
X45632Y34680
X44530Y38041
X43481Y38632
X44530Y39311
X45579Y38672
X46331Y40163
X46331Y40663
X46331Y41163
X45831Y40913
X45831Y40413
X45581Y41413
X45081Y41413
X44581Y41413
X44081Y41413
X43581Y41163
X44491Y42017
X43479Y42672
X42531Y43363
X42081Y43238
X41581Y43288
X42531Y43863
X42531Y44363
X43081Y44413
X43581Y44413
X44081Y44413
X44081Y45413
X42831Y45913
X42831Y46663
X44081Y46663
X44081Y47913
X44081Y48663
X42831Y48163
X42456Y48788
X39206Y48788
X37206Y48788
X36581Y48788
X36331Y48438
X36081Y48788
X35831Y48438
X35581Y48788
X35331Y48438
X35081Y48788
X34831Y48438
X34581Y48788
X34331Y48438
X34081Y48788
X34456Y47863
X36206Y47863
X37556Y45913
X37056Y45663
X37056Y45163
X37056Y44663
X37556Y44913
X37556Y45413
X37556Y44413
X38581Y43788
X39081Y43788
X39581Y43788
X39581Y44288
X39081Y44288
X40081Y44038
X40081Y43538
X40081Y43038
X39581Y43288
X39581Y42788
X39631Y41213
X39456Y39513
X40131Y39513
X37893Y39475
X37331Y39363
X37081Y39363
X36831Y39363
X36581Y39363
X36331Y39363
X36781Y38638
X36656Y37863
X37431Y37863
X39331Y37388
X37081Y40163
X37081Y40413
X37081Y40663
X37081Y40913
X36831Y40913
X36831Y40663
X36831Y40413
X36831Y40163
X36581Y40163
X36581Y40413
X36581Y40663
X36581Y40913
X36581Y41288
X36831Y41288
X37081Y41288
X37081Y41538
X36831Y41538
X36581Y41538
X36481Y42463
X36731Y42463
X36981Y42463
X34530Y43387
X33581Y43413
X33435Y43881
X32670Y44142
X31081Y45163
X31081Y45663
X30581Y45913
X30081Y46163
X30081Y45663
X30581Y45413
X30581Y44913
X30081Y43163
X29331Y43163
X29331Y42413
X30081Y42413
X30081Y41663
X30081Y41163
X30081Y40663
X30081Y40163
X30081Y39663
X29581Y39788
X29581Y40163
X29581Y40538
X29206Y40538
X29206Y40163
X29206Y39788
X29206Y39413
X29581Y39413
X28831Y39413
X28831Y39788
X28831Y40163
X28831Y40538
X28456Y40538
X28456Y40163
X28456Y39788
X28456Y39413
X28081Y39413
X28081Y39788
X28081Y40163
X28081Y40538
X27581Y40663
X27581Y41163
X28081Y41163
X28581Y41163
X29081Y41163
X29581Y41163
X29581Y41663
X29081Y41663
X28581Y41663
X28081Y41663
X27581Y41663
X27831Y42413
X28581Y42413
X28581Y43163
X27831Y43163
X27081Y43163
X26331Y43163
X26331Y42413
X26081Y41913
X26081Y41163
X25331Y41163
X25331Y41913
X26831Y41913
X27081Y42413
X26831Y41163
X26831Y40413
X26831Y39663
X27581Y39663
X27581Y40163
X26081Y40413
X26081Y39663
X25331Y39663
X25331Y40413
X26081Y38988
X27706Y38538
X27706Y38163
X28081Y38163
X28331Y37788
X28581Y38163
X28831Y37788
X29206Y37788
X29581Y37788
X29081Y38163
X27831Y37788
X27331Y35800
X26893Y35900
X25943Y36038
X25981Y36563
X25531Y36538
X25335Y35474
X25335Y34372
X25768Y34372
X25950Y33956
X26417Y33082
X25963Y33062
X26766Y33392
X27933Y33466
X27933Y33033
X28398Y33006
X28331Y32545
X27912Y32401
X27442Y32295
X28206Y31413
X28669Y31417
X29123Y31399
X29450Y31707
X30281Y32288
X30256Y32788
X30706Y32769
X29643Y33350
X28713Y33371
X28631Y35375
X28243Y35563
X29156Y35963
X29581Y35950
X29206Y35525
X32831Y38113
X33081Y39663
X33081Y40413
X33081Y41163
X33081Y41913
X32331Y41913
X32331Y41163
X32331Y40413
X32331Y39663
X31581Y39663
X31581Y40413
X30831Y40413
X30831Y39663
X30831Y41163
X31581Y41163
X31581Y41913
X30831Y41913
X28581Y44413
X28069Y44413
X27581Y44413
X27069Y44413
X26581Y44413
X26069Y44413
X25412Y43932
X23256Y43063
X22906Y42238
X23256Y41988
X22331Y41913
X22331Y41163
X21581Y40913
X21331Y40663
X21581Y40413
X21331Y40163
X21581Y39913
X21331Y39663
X21581Y39413
X22331Y39663
X22331Y40413
X21456Y41288
X21206Y41038
X20956Y41288
X20706Y41038
X20456Y41288
X20206Y41038
X19956Y41288
X19706Y41038
X19456Y41288
X19206Y41038
X18956Y41288
X18831Y40913
X18581Y41163
X18581Y40663
X18831Y40413
X18581Y40163
X18831Y39913
X18581Y39663
X18831Y39413
X19331Y39413
X19706Y39413
X20081Y39413
X20456Y39413
X20831Y39413
X20831Y39788
X20831Y40163
X20831Y40538
X20456Y40538
X20456Y40163
X20456Y39788
X20081Y39788
X20081Y40163
X20081Y40538
X19706Y40538
X19706Y40163
X19706Y39788
X19331Y39788
X19331Y40163
X19331Y40538
X19331Y41913
X18581Y41913
X17831Y41913
X17831Y41163
X17831Y40413
X17831Y39663
X16831Y39788
X16831Y40163
X16831Y40538
X16456Y40538
X16456Y40163
X16456Y39788
X16456Y39413
X16831Y39413
X16081Y39413
X16081Y39788
X16081Y40163
X16081Y40538
X15706Y40538
X15706Y40163
X15706Y39788
X15706Y39413
X15331Y39413
X15331Y39788
X15331Y40163
X15331Y40538
X15331Y41288
X16081Y41288
X16831Y41288
X14331Y41163
X14081Y40913
X14331Y40663
X14081Y40413
X14331Y40163
X14081Y39913
X14331Y39663
X14081Y39413
X13581Y39413
X13581Y39913
X13581Y40413
X13581Y40913
X13581Y41413
X13081Y41663
X13081Y41163
X12581Y41163
X12581Y41663
X12081Y41663
X12081Y41163
X11581Y41163
X11581Y41663
X11081Y41413
X11081Y40913
X11081Y40413
X11081Y39913
X11081Y39413
X11581Y39413
X11956Y39413
X12331Y39413
X12706Y39413
X13081Y39413
X13081Y39788
X13081Y40163
X13081Y40538
X12706Y40538
X12706Y40163
X12706Y39788
X12331Y39788
X12331Y40163
X12331Y40538
X11956Y40538
X11956Y40163
X11956Y39788
X11581Y39788
X11581Y40163
X11581Y40538
X10581Y40413
X10581Y40913
X9831Y40913
X9831Y40163
X10581Y39913
X10581Y39413
X9831Y39413
X9705Y38033
X9823Y36891
X11331Y38038
X11706Y38038
X12081Y38038
X12456Y38038
X12831Y37288
X14631Y37258
X15331Y38188
X15831Y38188
X16081Y38063
X16331Y38188
X17831Y37600
X18768Y36913
X19331Y37038
X19306Y38163
X19831Y38163
X20356Y38163
X20831Y37038
X19006Y38613
X20081Y41913
X20831Y41913
X21581Y41913
X21581Y42663
X22331Y42663
X22331Y43413
X21581Y43413
X20831Y43413
X20831Y42663
X20081Y42663
X20081Y43413
X19331Y43413
X19037Y44300
X19798Y44316
X20537Y44300
X18298Y44316
X16620Y44584
X16095Y44584
X15620Y44584
X15095Y44584
X13581Y43913
X12831Y43913
X12831Y43163
X12831Y42413
X12081Y42413
X11331Y42413
X11331Y43163
X12081Y43163
X12081Y43913
X11331Y43913
X11542Y44584
X11081Y44584
X10581Y43913
X10581Y43163
X9831Y43163
X9831Y43913
X9831Y42413
X10581Y42413
X10581Y41663
X9831Y41663
X8306Y39825
X7456Y38038
X7456Y43038
X12081Y44584
X12542Y44584
X13797Y46655
X14081Y46913
X13535Y46952
X15206Y48788
X16831Y47788
X17103Y46789
X17578Y46789
X19706Y48788
X21081Y46788
X21581Y46788
X22081Y47788
X25081Y46788
X25581Y46788
X26581Y47788
X25206Y48788
X30331Y48038
X30331Y47538
X30331Y47038
X30831Y47288
X30831Y47788
X30831Y48288
X31331Y48038
X31331Y47538
X31331Y47038
X30831Y46788
X31206Y48788
X34331Y39613
X40681Y44063
X41581Y44413
X42831Y44913
X44530Y43287
X45579Y42672
X47456Y38538
X36393Y32913
X36393Y32163
X32581Y30538
X32768Y30100
X32268Y29725
X31028Y29413
X30063Y29334
X29602Y29325
X29385Y29732
X30488Y30663
X30910Y30459
X30581Y31163
X30956Y31538
X31922Y27846
X32780Y27754
X33018Y28112
X33665Y27506
X27382Y29332
X27382Y29765
X26143Y29295
X25206Y28982
X24666Y29175
X24331Y28766
X23761Y28206
X24752Y27746
X22861Y29156
X22500Y28813
X21806Y29481
X22146Y29780
X23111Y31006
X24235Y31899
X24626Y33545
X24744Y33978
X24323Y34377
X22852Y34389
X22852Y33764
X21668Y33063
X21356Y34538
X22531Y37663
X22881Y38088
X23431Y39013
X23806Y39363
X24156Y39013
X25985Y30574
X13558Y31438
X13331Y32288
X12518Y31663
X12081Y31475
X12046Y32198
X11706Y33288
X12456Y33538
X8518Y31663
X7456Y28038
X10706Y48788
X42975Y19202
X47456Y19038
T02
X42870Y21415
X42331Y21413
X41745Y21415
X42055Y20642
X40817Y20624
X39331Y20663
X38731Y22656
X40213Y23120
X40889Y22635
X40276Y24011
X38670Y24969
X40252Y25718
X40252Y26468
X40170Y27469
X40252Y28468
X40252Y29468
X39152Y30018
X40213Y31468
X40213Y32343
X40995Y32915
X42495Y32915
X42795Y31865
X42820Y30415
X42795Y28765
X42820Y27415
X42870Y25665
X36535Y23413
X35327Y21957
X35042Y20642
X33831Y20624
X32343Y20631
X30348Y21709
X25456Y18306
X20081Y20288
X18206Y20663
X16828Y20624
X14954Y20624
X12706Y20663
X11324Y20663
X9830Y20631
X10604Y18265
X17729Y18216
X19081Y25788
X23754Y32632
X19706Y35281
X18143Y33475
X16518Y33663
X16206Y33288
X15956Y33913
X15456Y33913
X14956Y33913
X14581Y33538
X14081Y33038
X14206Y36834
X29903Y30209
X30192Y29788
X31768Y28663
X32268Y28663
X33393Y30100
X34449Y29031
X34518Y29975
X35456Y30038
X33393Y31100
X32243Y34113
X32068Y35313
X38829Y33101
T03
X37806Y36713
X39331Y38163
X39831Y38163
X34506Y40313
X33981Y42563
X33956Y37763
X31831Y34413
X30048Y25002
X30206Y18288
X30206Y17538
X30206Y16788
X29456Y16788
X29456Y17538
X29456Y18288
X28456Y18288
X28456Y17538
X29006Y15613
X29706Y15788
X30456Y15788
X31456Y15788
X32206Y15788
X32206Y15038
X32806Y15213
X32706Y14538
X32456Y13788
X32456Y12288
X29206Y12538
X29206Y13288
X29193Y14100
X31456Y16788
X31456Y17538
X31406Y18238
X32206Y17538
X32956Y17538
X32206Y16788
X35381Y17538
X35381Y18288
X36456Y18288
X37206Y18288
X37206Y17538
X37206Y16788
X36456Y16788
X36456Y17538
X36706Y15788
X37081Y15313
X37456Y15788
X38456Y15788
X39206Y15788
X39206Y15038
X39456Y14538
X39831Y15163
X39456Y13788
X39456Y13038
X39456Y12288
X36206Y12538
X36206Y13288
X36206Y14100
X36031Y15713
X38456Y16788
X39206Y16788
X39206Y17538
X38456Y17538
X39956Y17538
X39956Y18163
X42381Y18288
X42581Y18863
X43456Y18288
X43456Y17538
X43956Y17038
X43456Y16788
X44206Y16413
X43631Y15588
X43006Y15713
X43706Y14538
X43956Y14038
X43206Y14038
X43206Y13288
X43206Y12588
X42381Y17538
X44331Y25663
X25956Y17538
X24956Y17538
X24956Y16788
X24206Y17038
X24456Y18288
X22706Y18288
X21956Y18288
X21956Y17538
X22706Y17538
X22706Y16788
X21956Y16788
X21956Y15788
X22456Y15288
X22706Y15788
X23456Y15788
X23956Y15788
X24706Y15788
X24956Y15038
X25456Y15788
X25856Y15313
X25706Y14538
X25456Y13788
X21468Y14100
X21456Y13288
X21456Y12538
X21456Y11788
X18081Y14588
X17606Y14913
X18056Y15338
X17606Y15663
X16706Y16038
X16706Y16788
X17456Y16788
X17456Y17538
X16706Y17538
X16706Y18288
X15206Y18288
X15206Y17538
X15206Y16788
X14456Y16788
X14456Y17538
X14456Y18288
X13381Y18288
X13381Y17538
X14006Y15688
X14706Y15788
X15456Y15788
X15206Y15038
X14218Y14038
X14206Y13288
X14206Y12538
X14206Y11788
X17706Y12538
X17706Y14038
X18206Y17538
X20706Y17538
X20706Y18288
X21281Y15663
X10831Y15288
X10206Y15038
X10206Y15788
X9456Y15788
X9456Y15038
X9456Y14288
X10206Y14288
X10206Y13538
X9456Y13538
X9456Y12788
X10206Y12788
X10206Y12038
X8706Y13538
X8706Y14288
X8706Y15038
X8706Y15788
X8706Y16788
X8706Y17538
X9456Y17538
X10206Y17538
X10206Y16788
X9456Y16788
X9456Y18288
X8706Y18288
X10956Y17538
T04
X11185Y31171
X10398Y31171
X10398Y32155
X11185Y32155
X15506Y35338
X16506Y35338
X16506Y36338
X15506Y36338
X17506Y36338
X17506Y35338
X22706Y35788
X23706Y35788
X24706Y35788
X24706Y36788
X23706Y36788
X22706Y36788
T05
X29160Y22202
T06
X31012Y22413
X31012Y23413
X31012Y24413
X31012Y25413
X31012Y26413
X32012Y26413
X32012Y25413
X32012Y24413
X32012Y23413
X32012Y22413
X33012Y22413
X33012Y23413
X33012Y24413
X33012Y25413
X33012Y26413
X28706Y26413
X28706Y25413
X27706Y25413
X27706Y26413
X26706Y26413
X26706Y25413
X25706Y25413
X25706Y26413
X23581Y26202
X23581Y25202
X23581Y24202
X23581Y23202
X22581Y23202
X22581Y24202
X22581Y25202
X22581Y26202
X20581Y27413
X20581Y28413
X20581Y29413
X20581Y30413
X20581Y31413
X20581Y32413
X20581Y33413
X20581Y34413
X19581Y34413
X19581Y33413
X19581Y32413
X19581Y31413
X19581Y30413
X19581Y29413
X19581Y28413
X19581Y27413
X20370Y25780
X20370Y24780
X20370Y23780
X20370Y22780
X18081Y23163
X17081Y23163
X16081Y23163
X14081Y23163
X13081Y23163
X12081Y23163
X10081Y23163
X9081Y23163
X8081Y23163
X8081Y25663
X9081Y25663
X10081Y25663
X12081Y25663
X13081Y25663
X14081Y25663
X16081Y25663
X17081Y25663
X18081Y25663
X22581Y22202
X23581Y22202
X33288Y34235
X33288Y35235
X34288Y35235
X35288Y35235
X36288Y35235
X37288Y35235
X38288Y35235
X39288Y35235
X40288Y35235
X41288Y35235
X42288Y35235
X42288Y34235
X41288Y34235
X40288Y34235
X39288Y34235
X38288Y34235
X37288Y34235
X36288Y34235
X35288Y34235
X34288Y34235
X31831Y36913
X30831Y36913
X29831Y36913
X28831Y36913
X27831Y36913
X26831Y36913
X24256Y40863
X23256Y40863
X18831Y42663
X17831Y42663
X16831Y42663
X15831Y42663
X14831Y42663
X13831Y42663
X9018Y44850
X8018Y44850
X7691Y40903
X7691Y39123
X12331Y36600
X12331Y35600
X12331Y34600
X31081Y42663
X32081Y42663
X37485Y32620
X37485Y31620
X37581Y29598
X37581Y28598
X37581Y27598
X37581Y26598
X37581Y25598
X37581Y24598
X37581Y23598
X37581Y22598
X41995Y23065
X41995Y22065
X41995Y25165
X41995Y26165
X41995Y28265
X41995Y29265
X41995Y31365
X41995Y32365
X46985Y45324
X45708Y17632
X44708Y17632
T07
X43304Y10493
X42304Y10493
X41304Y10493
X40304Y10493
X37304Y10493
X36304Y10493
X35304Y10493
X34304Y10493
X31304Y10493
X30304Y10493
X29304Y10493
X28304Y10493
X26304Y10493
X25304Y10493
X24304Y10493
X23304Y10493
X20304Y10493
X19304Y10493
X18304Y10493
X17304Y10493
X14331Y10493
X13331Y10493
X12331Y10493
X11331Y10493
T08
X44531Y32663
X44531Y34663
X44531Y36663
X44531Y38663
X44531Y40663
X44531Y42663
X29331Y45663
X27331Y45663
X25331Y45663
X23331Y45663
X21331Y45663
X19331Y45663
X17331Y45663
X15331Y45663
X13331Y45663
X11331Y45663
T09
X8671Y41393
X8671Y38633
T10
X9331Y34025
X9331Y29301
T11
X8331Y10163
X8331Y47663
X46331Y47663
X46331Y10163
M30
