G75*
G70*
%OFA0B0*%
%FSLAX24Y24*%
%IPPOS*%
%LPD*%
%AMOC8*
5,1,8,0,0,1.08239X$1,22.5*
%
%ADD10R,0.0392X0.0392*%
%ADD11C,0.0226*%
%ADD12R,0.0094X0.0567*%
%ADD13R,0.0567X0.0094*%
%ADD14R,0.1259X0.0668*%
%ADD15R,0.0550X0.0380*%
%ADD16C,0.0071*%
%ADD17R,0.0500X0.0500*%
%ADD18R,0.0280X0.0220*%
%ADD19R,0.0315X0.0315*%
%ADD20R,0.0217X0.0157*%
%ADD21R,0.0333X0.0432*%
%ADD22R,0.0629X0.0471*%
%ADD23R,0.0630X0.0550*%
%ADD24R,0.0315X0.0354*%
%ADD25R,0.0550X0.1298*%
%ADD26R,0.0354X0.0315*%
%ADD27R,0.0220X0.0496*%
%ADD28R,0.1900X0.0413*%
%ADD29R,0.1240X0.1220*%
%ADD30R,0.1420X0.1589*%
%ADD31R,0.0609X0.0139*%
%ADD32R,0.1298X0.0550*%
%ADD33R,0.0432X0.0333*%
%ADD34R,0.0736X0.0176*%
%ADD35R,0.0760X0.1100*%
%ADD36R,0.2085X0.0648*%
%ADD37R,0.0511X0.0432*%
%ADD38R,0.0707X0.0707*%
%ADD39R,0.0220X0.0299*%
%ADD40C,0.0177*%
%ADD41R,0.0432X0.0511*%
%ADD42R,0.1180X0.0550*%
%ADD43R,0.0700X0.1400*%
%ADD44R,0.0481X0.0471*%
%ADD45R,0.0481X0.0481*%
%ADD46R,0.0481X0.0461*%
%ADD47R,0.0291X0.0252*%
D10*
X017668Y030288D03*
X018494Y030288D03*
X018494Y031313D03*
X017668Y031313D03*
X018543Y037663D03*
X019369Y037663D03*
X016119Y037538D03*
X015293Y037538D03*
X010706Y037828D03*
X010706Y038655D03*
X008362Y037461D03*
X008362Y036538D03*
X007536Y036538D03*
X007536Y037461D03*
X023368Y043738D03*
X024194Y043738D03*
X027156Y038826D03*
X027156Y038000D03*
X025269Y038488D03*
X024443Y038488D03*
D11*
X028103Y036106D02*
X028103Y035970D01*
X028103Y036106D02*
X028159Y036106D01*
X028159Y035970D01*
X028103Y035970D01*
X028803Y035970D02*
X028803Y036106D01*
X028859Y036106D01*
X028859Y035970D01*
X028803Y035970D01*
X031688Y035580D02*
X031824Y035580D01*
X031824Y035524D01*
X031688Y035524D01*
X031688Y035580D01*
X032332Y035580D02*
X032468Y035580D01*
X032468Y035524D01*
X032332Y035524D01*
X032332Y035580D01*
X032332Y034880D02*
X032468Y034880D01*
X032468Y034824D01*
X032332Y034824D01*
X032332Y034880D01*
X031824Y034880D02*
X031688Y034880D01*
X031824Y034880D02*
X031824Y034824D01*
X031688Y034824D01*
X031688Y034880D01*
X023887Y034473D02*
X023887Y034337D01*
X023887Y034473D02*
X023943Y034473D01*
X023943Y034337D01*
X023887Y034337D01*
X023887Y033822D02*
X023887Y033686D01*
X023887Y033822D02*
X023943Y033822D01*
X023943Y033686D01*
X023887Y033686D01*
X023187Y033686D02*
X023187Y033822D01*
X023243Y033822D01*
X023243Y033686D01*
X023187Y033686D01*
X023187Y034337D02*
X023187Y034473D01*
X023243Y034473D01*
X023243Y034337D01*
X023187Y034337D01*
X022715Y033131D02*
X022715Y032995D01*
X022715Y033131D02*
X022771Y033131D01*
X022771Y032995D01*
X022715Y032995D01*
X022015Y032995D02*
X022015Y033131D01*
X022071Y033131D01*
X022071Y032995D01*
X022015Y032995D01*
X022071Y031081D02*
X022071Y030945D01*
X022015Y030945D01*
X022015Y031081D01*
X022071Y031081D01*
X022771Y031081D02*
X022771Y030945D01*
X022715Y030945D01*
X022715Y031081D01*
X022771Y031081D01*
X017624Y032341D02*
X017488Y032341D01*
X017624Y032341D02*
X017624Y032285D01*
X017488Y032285D01*
X017488Y032341D01*
X017488Y033041D02*
X017624Y033041D01*
X017624Y032985D01*
X017488Y032985D01*
X017488Y033041D01*
X019588Y035610D02*
X019724Y035610D01*
X019588Y035610D02*
X019588Y035666D01*
X019724Y035666D01*
X019724Y035610D01*
X019724Y036310D02*
X019588Y036310D01*
X019588Y036366D01*
X019724Y036366D01*
X019724Y036310D01*
X013653Y033656D02*
X013653Y033520D01*
X013653Y033656D02*
X013709Y033656D01*
X013709Y033520D01*
X013653Y033520D01*
X012953Y033520D02*
X012953Y033656D01*
X013009Y033656D01*
X013009Y033520D01*
X012953Y033520D01*
X013113Y029585D02*
X013249Y029585D01*
X013113Y029585D02*
X013113Y029641D01*
X013249Y029641D01*
X013249Y029585D01*
X013763Y029585D02*
X013899Y029585D01*
X013763Y029585D02*
X013763Y029641D01*
X013899Y029641D01*
X013899Y029585D01*
X013899Y028885D02*
X013763Y028885D01*
X013763Y028941D01*
X013899Y028941D01*
X013899Y028885D01*
X013249Y028885D02*
X013113Y028885D01*
X013113Y028941D01*
X013249Y028941D01*
X013249Y028885D01*
X012599Y028885D02*
X012463Y028885D01*
X012463Y028941D01*
X012599Y028941D01*
X012599Y028885D01*
X012599Y029585D02*
X012463Y029585D01*
X012463Y029641D01*
X012599Y029641D01*
X012599Y029585D01*
X015863Y029641D02*
X015999Y029641D01*
X015999Y029585D01*
X015863Y029585D01*
X015863Y029641D01*
X016513Y029585D02*
X016649Y029585D01*
X016513Y029585D02*
X016513Y029641D01*
X016649Y029641D01*
X016649Y029585D01*
X016649Y028885D02*
X016513Y028885D01*
X016513Y028941D01*
X016649Y028941D01*
X016649Y028885D01*
X015999Y028941D02*
X015863Y028941D01*
X015999Y028941D02*
X015999Y028885D01*
X015863Y028885D01*
X015863Y028941D01*
X029965Y027154D02*
X030101Y027154D01*
X030101Y027098D01*
X029965Y027098D01*
X029965Y027154D01*
X029965Y026454D02*
X030101Y026454D01*
X030101Y026398D01*
X029965Y026398D01*
X029965Y026454D01*
D12*
X029869Y028513D03*
X030066Y028513D03*
X030263Y028513D03*
X030459Y028513D03*
X030656Y028513D03*
X030853Y028513D03*
X029672Y028513D03*
X029475Y028513D03*
X029278Y028513D03*
X029082Y028513D03*
X028885Y028513D03*
X028688Y028513D03*
X028491Y028513D03*
X028294Y028513D03*
X028097Y028513D03*
X027900Y028513D03*
X027704Y028513D03*
X027507Y028513D03*
X027310Y028513D03*
X027113Y028513D03*
X026916Y028513D03*
X026719Y028513D03*
X026522Y028513D03*
X026326Y028513D03*
X026129Y028513D03*
X026129Y034813D03*
X026326Y034813D03*
X026522Y034813D03*
X026719Y034813D03*
X026916Y034813D03*
X027113Y034813D03*
X027310Y034813D03*
X027507Y034813D03*
X027704Y034813D03*
X027900Y034813D03*
X028097Y034813D03*
X028294Y034813D03*
X028491Y034813D03*
X028688Y034813D03*
X028885Y034813D03*
X029082Y034813D03*
X029278Y034813D03*
X029475Y034813D03*
X029672Y034813D03*
X029869Y034813D03*
X030066Y034813D03*
X030263Y034813D03*
X030459Y034813D03*
X030656Y034813D03*
X030853Y034813D03*
D13*
X031641Y034025D03*
X031641Y033828D03*
X031641Y033631D03*
X031641Y033435D03*
X031641Y033238D03*
X031641Y033041D03*
X031641Y032844D03*
X031641Y032647D03*
X031641Y032450D03*
X031641Y032254D03*
X031641Y032057D03*
X031641Y031860D03*
X031641Y031663D03*
X031641Y031466D03*
X031641Y031269D03*
X031641Y031072D03*
X031641Y030876D03*
X031641Y030679D03*
X031641Y030482D03*
X031641Y030285D03*
X031641Y030088D03*
X031641Y029891D03*
X031641Y029694D03*
X031641Y029498D03*
X031641Y029301D03*
X025341Y029301D03*
X025341Y029498D03*
X025341Y029694D03*
X025341Y029891D03*
X025341Y030088D03*
X025341Y030285D03*
X025341Y030482D03*
X025341Y030679D03*
X025341Y030876D03*
X025341Y031072D03*
X025341Y031269D03*
X025341Y031466D03*
X025341Y031663D03*
X025341Y031860D03*
X025341Y032057D03*
X025341Y032254D03*
X025341Y032450D03*
X025341Y032647D03*
X025341Y032844D03*
X025341Y033041D03*
X025341Y033238D03*
X025341Y033435D03*
X025341Y033631D03*
X025341Y033828D03*
X025341Y034025D03*
D14*
X010968Y035385D03*
X010968Y036920D03*
D15*
X018756Y036363D03*
X018756Y035763D03*
D16*
X015979Y033070D02*
X015961Y033070D01*
X015979Y033070D02*
X015979Y032886D01*
X015961Y032886D01*
X015961Y033070D01*
X015961Y032956D02*
X015979Y032956D01*
X015979Y033026D02*
X015961Y033026D01*
X015782Y033070D02*
X015764Y033070D01*
X015782Y033070D02*
X015782Y032886D01*
X015764Y032886D01*
X015764Y033070D01*
X015764Y032956D02*
X015782Y032956D01*
X015782Y033026D02*
X015764Y033026D01*
X015585Y033070D02*
X015567Y033070D01*
X015585Y033070D02*
X015585Y032886D01*
X015567Y032886D01*
X015567Y033070D01*
X015567Y032956D02*
X015585Y032956D01*
X015585Y033026D02*
X015567Y033026D01*
X015388Y033070D02*
X015370Y033070D01*
X015388Y033070D02*
X015388Y032886D01*
X015370Y032886D01*
X015370Y033070D01*
X015370Y032956D02*
X015388Y032956D01*
X015388Y033026D02*
X015370Y033026D01*
X015192Y033070D02*
X015174Y033070D01*
X015192Y033070D02*
X015192Y032886D01*
X015174Y032886D01*
X015174Y033070D01*
X015174Y032956D02*
X015192Y032956D01*
X015192Y033026D02*
X015174Y033026D01*
X014995Y033070D02*
X014977Y033070D01*
X014995Y033070D02*
X014995Y032886D01*
X014977Y032886D01*
X014977Y033070D01*
X014977Y032956D02*
X014995Y032956D01*
X014995Y033026D02*
X014977Y033026D01*
X014798Y033070D02*
X014780Y033070D01*
X014798Y033070D02*
X014798Y032886D01*
X014780Y032886D01*
X014780Y033070D01*
X014780Y032956D02*
X014798Y032956D01*
X014798Y033026D02*
X014780Y033026D01*
X014601Y033070D02*
X014583Y033070D01*
X014601Y033070D02*
X014601Y032886D01*
X014583Y032886D01*
X014583Y033070D01*
X014583Y032956D02*
X014601Y032956D01*
X014601Y033026D02*
X014583Y033026D01*
X014224Y032711D02*
X014224Y032693D01*
X014224Y032711D02*
X014408Y032711D01*
X014408Y032693D01*
X014224Y032693D01*
X014224Y032514D02*
X014224Y032496D01*
X014224Y032514D02*
X014408Y032514D01*
X014408Y032496D01*
X014224Y032496D01*
X014224Y032317D02*
X014224Y032299D01*
X014224Y032317D02*
X014408Y032317D01*
X014408Y032299D01*
X014224Y032299D01*
X014224Y032120D02*
X014224Y032102D01*
X014224Y032120D02*
X014408Y032120D01*
X014408Y032102D01*
X014224Y032102D01*
X014224Y031924D02*
X014224Y031906D01*
X014224Y031924D02*
X014408Y031924D01*
X014408Y031906D01*
X014224Y031906D01*
X014224Y031727D02*
X014224Y031709D01*
X014224Y031727D02*
X014408Y031727D01*
X014408Y031709D01*
X014224Y031709D01*
X014224Y031530D02*
X014224Y031512D01*
X014224Y031530D02*
X014408Y031530D01*
X014408Y031512D01*
X014224Y031512D01*
X014224Y031333D02*
X014224Y031315D01*
X014224Y031333D02*
X014408Y031333D01*
X014408Y031315D01*
X014224Y031315D01*
X014583Y031140D02*
X014601Y031140D01*
X014601Y030956D01*
X014583Y030956D01*
X014583Y031140D01*
X014583Y031026D02*
X014601Y031026D01*
X014601Y031096D02*
X014583Y031096D01*
X014780Y031140D02*
X014798Y031140D01*
X014798Y030956D01*
X014780Y030956D01*
X014780Y031140D01*
X014780Y031026D02*
X014798Y031026D01*
X014798Y031096D02*
X014780Y031096D01*
X014977Y031140D02*
X014995Y031140D01*
X014995Y030956D01*
X014977Y030956D01*
X014977Y031140D01*
X014977Y031026D02*
X014995Y031026D01*
X014995Y031096D02*
X014977Y031096D01*
X015174Y031140D02*
X015192Y031140D01*
X015192Y030956D01*
X015174Y030956D01*
X015174Y031140D01*
X015174Y031026D02*
X015192Y031026D01*
X015192Y031096D02*
X015174Y031096D01*
X015370Y031140D02*
X015388Y031140D01*
X015388Y030956D01*
X015370Y030956D01*
X015370Y031140D01*
X015370Y031026D02*
X015388Y031026D01*
X015388Y031096D02*
X015370Y031096D01*
X015567Y031140D02*
X015585Y031140D01*
X015585Y030956D01*
X015567Y030956D01*
X015567Y031140D01*
X015567Y031026D02*
X015585Y031026D01*
X015585Y031096D02*
X015567Y031096D01*
X015764Y031140D02*
X015782Y031140D01*
X015782Y030956D01*
X015764Y030956D01*
X015764Y031140D01*
X015764Y031026D02*
X015782Y031026D01*
X015782Y031096D02*
X015764Y031096D01*
X015961Y031140D02*
X015979Y031140D01*
X015979Y030956D01*
X015961Y030956D01*
X015961Y031140D01*
X015961Y031026D02*
X015979Y031026D01*
X015979Y031096D02*
X015961Y031096D01*
X016154Y031315D02*
X016154Y031333D01*
X016338Y031333D01*
X016338Y031315D01*
X016154Y031315D01*
X016154Y031512D02*
X016154Y031530D01*
X016338Y031530D01*
X016338Y031512D01*
X016154Y031512D01*
X016154Y031709D02*
X016154Y031727D01*
X016338Y031727D01*
X016338Y031709D01*
X016154Y031709D01*
X016154Y031906D02*
X016154Y031924D01*
X016338Y031924D01*
X016338Y031906D01*
X016154Y031906D01*
X016154Y032102D02*
X016154Y032120D01*
X016338Y032120D01*
X016338Y032102D01*
X016154Y032102D01*
X016154Y032299D02*
X016154Y032317D01*
X016338Y032317D01*
X016338Y032299D01*
X016154Y032299D01*
X016154Y032496D02*
X016154Y032514D01*
X016338Y032514D01*
X016338Y032496D01*
X016154Y032496D01*
X016154Y032693D02*
X016154Y032711D01*
X016338Y032711D01*
X016338Y032693D01*
X016154Y032693D01*
X018883Y017219D02*
X018901Y017219D01*
X018901Y016997D01*
X018883Y016997D01*
X018883Y017219D01*
X018883Y017067D02*
X018901Y017067D01*
X018901Y017137D02*
X018883Y017137D01*
X018883Y017207D02*
X018901Y017207D01*
X019080Y017219D02*
X019098Y017219D01*
X019098Y016997D01*
X019080Y016997D01*
X019080Y017219D01*
X019080Y017067D02*
X019098Y017067D01*
X019098Y017137D02*
X019080Y017137D01*
X019080Y017207D02*
X019098Y017207D01*
X019277Y017219D02*
X019295Y017219D01*
X019295Y016997D01*
X019277Y016997D01*
X019277Y017219D01*
X019277Y017067D02*
X019295Y017067D01*
X019295Y017137D02*
X019277Y017137D01*
X019277Y017207D02*
X019295Y017207D01*
X019474Y017219D02*
X019492Y017219D01*
X019492Y016997D01*
X019474Y016997D01*
X019474Y017219D01*
X019474Y017067D02*
X019492Y017067D01*
X019492Y017137D02*
X019474Y017137D01*
X019474Y017207D02*
X019492Y017207D01*
X019670Y017219D02*
X019688Y017219D01*
X019688Y016997D01*
X019670Y016997D01*
X019670Y017219D01*
X019670Y017067D02*
X019688Y017067D01*
X019688Y017137D02*
X019670Y017137D01*
X019670Y017207D02*
X019688Y017207D01*
X019867Y017219D02*
X019885Y017219D01*
X019885Y016997D01*
X019867Y016997D01*
X019867Y017219D01*
X019867Y017067D02*
X019885Y017067D01*
X019885Y017137D02*
X019867Y017137D01*
X019867Y017207D02*
X019885Y017207D01*
X020064Y017219D02*
X020082Y017219D01*
X020082Y016997D01*
X020064Y016997D01*
X020064Y017219D01*
X020064Y017067D02*
X020082Y017067D01*
X020082Y017137D02*
X020064Y017137D01*
X020064Y017207D02*
X020082Y017207D01*
X020261Y016997D02*
X020279Y016997D01*
X020261Y016997D02*
X020261Y017219D01*
X020279Y017219D01*
X020279Y016997D01*
X020279Y017067D02*
X020261Y017067D01*
X020261Y017137D02*
X020279Y017137D01*
X020279Y017207D02*
X020261Y017207D01*
X020415Y016861D02*
X020415Y016843D01*
X020415Y016861D02*
X020637Y016861D01*
X020637Y016843D01*
X020415Y016843D01*
X020415Y016664D02*
X020415Y016646D01*
X020415Y016664D02*
X020637Y016664D01*
X020637Y016646D01*
X020415Y016646D01*
X020415Y016467D02*
X020415Y016449D01*
X020415Y016467D02*
X020637Y016467D01*
X020637Y016449D01*
X020415Y016449D01*
X020415Y016270D02*
X020415Y016252D01*
X020415Y016270D02*
X020637Y016270D01*
X020637Y016252D01*
X020415Y016252D01*
X020415Y016074D02*
X020415Y016056D01*
X020415Y016074D02*
X020637Y016074D01*
X020637Y016056D01*
X020415Y016056D01*
X020415Y015877D02*
X020415Y015859D01*
X020415Y015877D02*
X020637Y015877D01*
X020637Y015859D01*
X020415Y015859D01*
X020415Y015680D02*
X020415Y015662D01*
X020415Y015680D02*
X020637Y015680D01*
X020637Y015662D01*
X020415Y015662D01*
X020415Y015483D02*
X020415Y015465D01*
X020415Y015483D02*
X020637Y015483D01*
X020637Y015465D01*
X020415Y015465D01*
X020279Y015107D02*
X020261Y015107D01*
X020261Y015329D01*
X020279Y015329D01*
X020279Y015107D01*
X020279Y015177D02*
X020261Y015177D01*
X020261Y015247D02*
X020279Y015247D01*
X020279Y015317D02*
X020261Y015317D01*
X020082Y015107D02*
X020064Y015107D01*
X020064Y015329D01*
X020082Y015329D01*
X020082Y015107D01*
X020082Y015177D02*
X020064Y015177D01*
X020064Y015247D02*
X020082Y015247D01*
X020082Y015317D02*
X020064Y015317D01*
X019885Y015107D02*
X019867Y015107D01*
X019867Y015329D01*
X019885Y015329D01*
X019885Y015107D01*
X019885Y015177D02*
X019867Y015177D01*
X019867Y015247D02*
X019885Y015247D01*
X019885Y015317D02*
X019867Y015317D01*
X019688Y015107D02*
X019670Y015107D01*
X019670Y015329D01*
X019688Y015329D01*
X019688Y015107D01*
X019688Y015177D02*
X019670Y015177D01*
X019670Y015247D02*
X019688Y015247D01*
X019688Y015317D02*
X019670Y015317D01*
X019492Y015107D02*
X019474Y015107D01*
X019474Y015329D01*
X019492Y015329D01*
X019492Y015107D01*
X019492Y015177D02*
X019474Y015177D01*
X019474Y015247D02*
X019492Y015247D01*
X019492Y015317D02*
X019474Y015317D01*
X019295Y015107D02*
X019277Y015107D01*
X019277Y015329D01*
X019295Y015329D01*
X019295Y015107D01*
X019295Y015177D02*
X019277Y015177D01*
X019277Y015247D02*
X019295Y015247D01*
X019295Y015317D02*
X019277Y015317D01*
X019098Y015107D02*
X019080Y015107D01*
X019080Y015329D01*
X019098Y015329D01*
X019098Y015107D01*
X019098Y015177D02*
X019080Y015177D01*
X019080Y015247D02*
X019098Y015247D01*
X019098Y015317D02*
X019080Y015317D01*
X018901Y015107D02*
X018883Y015107D01*
X018883Y015329D01*
X018901Y015329D01*
X018901Y015107D01*
X018901Y015177D02*
X018883Y015177D01*
X018883Y015247D02*
X018901Y015247D01*
X018901Y015317D02*
X018883Y015317D01*
X018525Y015465D02*
X018525Y015483D01*
X018747Y015483D01*
X018747Y015465D01*
X018525Y015465D01*
X018525Y015662D02*
X018525Y015680D01*
X018747Y015680D01*
X018747Y015662D01*
X018525Y015662D01*
X018525Y015859D02*
X018525Y015877D01*
X018747Y015877D01*
X018747Y015859D01*
X018525Y015859D01*
X018525Y016056D02*
X018525Y016074D01*
X018747Y016074D01*
X018747Y016056D01*
X018525Y016056D01*
X018525Y016252D02*
X018525Y016270D01*
X018747Y016270D01*
X018747Y016252D01*
X018525Y016252D01*
X018525Y016449D02*
X018525Y016467D01*
X018747Y016467D01*
X018747Y016449D01*
X018525Y016449D01*
X018525Y016646D02*
X018525Y016664D01*
X018747Y016664D01*
X018747Y016646D01*
X018525Y016646D01*
X018525Y016843D02*
X018525Y016861D01*
X018747Y016861D01*
X018747Y016843D01*
X018525Y016843D01*
X013165Y016843D02*
X013165Y016861D01*
X013387Y016861D01*
X013387Y016843D01*
X013165Y016843D01*
X013165Y016664D02*
X013165Y016646D01*
X013165Y016664D02*
X013387Y016664D01*
X013387Y016646D01*
X013165Y016646D01*
X013165Y016467D02*
X013165Y016449D01*
X013165Y016467D02*
X013387Y016467D01*
X013387Y016449D01*
X013165Y016449D01*
X013165Y016270D02*
X013165Y016252D01*
X013165Y016270D02*
X013387Y016270D01*
X013387Y016252D01*
X013165Y016252D01*
X013165Y016074D02*
X013165Y016056D01*
X013165Y016074D02*
X013387Y016074D01*
X013387Y016056D01*
X013165Y016056D01*
X013165Y015877D02*
X013165Y015859D01*
X013165Y015877D02*
X013387Y015877D01*
X013387Y015859D01*
X013165Y015859D01*
X013165Y015680D02*
X013165Y015662D01*
X013165Y015680D02*
X013387Y015680D01*
X013387Y015662D01*
X013165Y015662D01*
X013165Y015483D02*
X013165Y015465D01*
X013165Y015483D02*
X013387Y015483D01*
X013387Y015465D01*
X013165Y015465D01*
X013029Y015107D02*
X013011Y015107D01*
X013011Y015329D01*
X013029Y015329D01*
X013029Y015107D01*
X013029Y015177D02*
X013011Y015177D01*
X013011Y015247D02*
X013029Y015247D01*
X013029Y015317D02*
X013011Y015317D01*
X012832Y015107D02*
X012814Y015107D01*
X012814Y015329D01*
X012832Y015329D01*
X012832Y015107D01*
X012832Y015177D02*
X012814Y015177D01*
X012814Y015247D02*
X012832Y015247D01*
X012832Y015317D02*
X012814Y015317D01*
X012635Y015107D02*
X012617Y015107D01*
X012617Y015329D01*
X012635Y015329D01*
X012635Y015107D01*
X012635Y015177D02*
X012617Y015177D01*
X012617Y015247D02*
X012635Y015247D01*
X012635Y015317D02*
X012617Y015317D01*
X012438Y015107D02*
X012420Y015107D01*
X012420Y015329D01*
X012438Y015329D01*
X012438Y015107D01*
X012438Y015177D02*
X012420Y015177D01*
X012420Y015247D02*
X012438Y015247D01*
X012438Y015317D02*
X012420Y015317D01*
X012242Y015107D02*
X012224Y015107D01*
X012224Y015329D01*
X012242Y015329D01*
X012242Y015107D01*
X012242Y015177D02*
X012224Y015177D01*
X012224Y015247D02*
X012242Y015247D01*
X012242Y015317D02*
X012224Y015317D01*
X012045Y015107D02*
X012027Y015107D01*
X012027Y015329D01*
X012045Y015329D01*
X012045Y015107D01*
X012045Y015177D02*
X012027Y015177D01*
X012027Y015247D02*
X012045Y015247D01*
X012045Y015317D02*
X012027Y015317D01*
X011848Y015107D02*
X011830Y015107D01*
X011830Y015329D01*
X011848Y015329D01*
X011848Y015107D01*
X011848Y015177D02*
X011830Y015177D01*
X011830Y015247D02*
X011848Y015247D01*
X011848Y015317D02*
X011830Y015317D01*
X011651Y015107D02*
X011633Y015107D01*
X011633Y015329D01*
X011651Y015329D01*
X011651Y015107D01*
X011651Y015177D02*
X011633Y015177D01*
X011633Y015247D02*
X011651Y015247D01*
X011651Y015317D02*
X011633Y015317D01*
X011275Y015465D02*
X011275Y015483D01*
X011497Y015483D01*
X011497Y015465D01*
X011275Y015465D01*
X011275Y015662D02*
X011275Y015680D01*
X011497Y015680D01*
X011497Y015662D01*
X011275Y015662D01*
X011275Y015859D02*
X011275Y015877D01*
X011497Y015877D01*
X011497Y015859D01*
X011275Y015859D01*
X011275Y016056D02*
X011275Y016074D01*
X011497Y016074D01*
X011497Y016056D01*
X011275Y016056D01*
X011275Y016252D02*
X011275Y016270D01*
X011497Y016270D01*
X011497Y016252D01*
X011275Y016252D01*
X011275Y016449D02*
X011275Y016467D01*
X011497Y016467D01*
X011497Y016449D01*
X011275Y016449D01*
X011275Y016646D02*
X011275Y016664D01*
X011497Y016664D01*
X011497Y016646D01*
X011275Y016646D01*
X011275Y016843D02*
X011275Y016861D01*
X011497Y016861D01*
X011497Y016843D01*
X011275Y016843D01*
X011633Y017219D02*
X011651Y017219D01*
X011651Y016997D01*
X011633Y016997D01*
X011633Y017219D01*
X011633Y017067D02*
X011651Y017067D01*
X011651Y017137D02*
X011633Y017137D01*
X011633Y017207D02*
X011651Y017207D01*
X011830Y017219D02*
X011848Y017219D01*
X011848Y016997D01*
X011830Y016997D01*
X011830Y017219D01*
X011830Y017067D02*
X011848Y017067D01*
X011848Y017137D02*
X011830Y017137D01*
X011830Y017207D02*
X011848Y017207D01*
X012027Y017219D02*
X012045Y017219D01*
X012045Y016997D01*
X012027Y016997D01*
X012027Y017219D01*
X012027Y017067D02*
X012045Y017067D01*
X012045Y017137D02*
X012027Y017137D01*
X012027Y017207D02*
X012045Y017207D01*
X012224Y017219D02*
X012242Y017219D01*
X012242Y016997D01*
X012224Y016997D01*
X012224Y017219D01*
X012224Y017067D02*
X012242Y017067D01*
X012242Y017137D02*
X012224Y017137D01*
X012224Y017207D02*
X012242Y017207D01*
X012420Y017219D02*
X012438Y017219D01*
X012438Y016997D01*
X012420Y016997D01*
X012420Y017219D01*
X012420Y017067D02*
X012438Y017067D01*
X012438Y017137D02*
X012420Y017137D01*
X012420Y017207D02*
X012438Y017207D01*
X012617Y017219D02*
X012635Y017219D01*
X012635Y016997D01*
X012617Y016997D01*
X012617Y017219D01*
X012617Y017067D02*
X012635Y017067D01*
X012635Y017137D02*
X012617Y017137D01*
X012617Y017207D02*
X012635Y017207D01*
X012814Y017219D02*
X012832Y017219D01*
X012832Y016997D01*
X012814Y016997D01*
X012814Y017219D01*
X012814Y017067D02*
X012832Y017067D01*
X012832Y017137D02*
X012814Y017137D01*
X012814Y017207D02*
X012832Y017207D01*
X013011Y016997D02*
X013029Y016997D01*
X013011Y016997D02*
X013011Y017219D01*
X013029Y017219D01*
X013029Y016997D01*
X013029Y017067D02*
X013011Y017067D01*
X013011Y017137D02*
X013029Y017137D01*
X013029Y017207D02*
X013011Y017207D01*
X026275Y016843D02*
X026275Y016861D01*
X026497Y016861D01*
X026497Y016843D01*
X026275Y016843D01*
X026275Y016664D02*
X026275Y016646D01*
X026275Y016664D02*
X026497Y016664D01*
X026497Y016646D01*
X026275Y016646D01*
X026275Y016467D02*
X026275Y016449D01*
X026275Y016467D02*
X026497Y016467D01*
X026497Y016449D01*
X026275Y016449D01*
X026275Y016270D02*
X026275Y016252D01*
X026275Y016270D02*
X026497Y016270D01*
X026497Y016252D01*
X026275Y016252D01*
X026275Y016074D02*
X026275Y016056D01*
X026275Y016074D02*
X026497Y016074D01*
X026497Y016056D01*
X026275Y016056D01*
X026275Y015877D02*
X026275Y015859D01*
X026275Y015877D02*
X026497Y015877D01*
X026497Y015859D01*
X026275Y015859D01*
X026275Y015680D02*
X026275Y015662D01*
X026275Y015680D02*
X026497Y015680D01*
X026497Y015662D01*
X026275Y015662D01*
X026275Y015483D02*
X026275Y015465D01*
X026275Y015483D02*
X026497Y015483D01*
X026497Y015465D01*
X026275Y015465D01*
X026633Y015107D02*
X026651Y015107D01*
X026633Y015107D02*
X026633Y015329D01*
X026651Y015329D01*
X026651Y015107D01*
X026651Y015177D02*
X026633Y015177D01*
X026633Y015247D02*
X026651Y015247D01*
X026651Y015317D02*
X026633Y015317D01*
X026830Y015107D02*
X026848Y015107D01*
X026830Y015107D02*
X026830Y015329D01*
X026848Y015329D01*
X026848Y015107D01*
X026848Y015177D02*
X026830Y015177D01*
X026830Y015247D02*
X026848Y015247D01*
X026848Y015317D02*
X026830Y015317D01*
X027027Y015107D02*
X027045Y015107D01*
X027027Y015107D02*
X027027Y015329D01*
X027045Y015329D01*
X027045Y015107D01*
X027045Y015177D02*
X027027Y015177D01*
X027027Y015247D02*
X027045Y015247D01*
X027045Y015317D02*
X027027Y015317D01*
X027224Y015107D02*
X027242Y015107D01*
X027224Y015107D02*
X027224Y015329D01*
X027242Y015329D01*
X027242Y015107D01*
X027242Y015177D02*
X027224Y015177D01*
X027224Y015247D02*
X027242Y015247D01*
X027242Y015317D02*
X027224Y015317D01*
X027420Y015107D02*
X027438Y015107D01*
X027420Y015107D02*
X027420Y015329D01*
X027438Y015329D01*
X027438Y015107D01*
X027438Y015177D02*
X027420Y015177D01*
X027420Y015247D02*
X027438Y015247D01*
X027438Y015317D02*
X027420Y015317D01*
X027617Y015107D02*
X027635Y015107D01*
X027617Y015107D02*
X027617Y015329D01*
X027635Y015329D01*
X027635Y015107D01*
X027635Y015177D02*
X027617Y015177D01*
X027617Y015247D02*
X027635Y015247D01*
X027635Y015317D02*
X027617Y015317D01*
X027814Y015107D02*
X027832Y015107D01*
X027814Y015107D02*
X027814Y015329D01*
X027832Y015329D01*
X027832Y015107D01*
X027832Y015177D02*
X027814Y015177D01*
X027814Y015247D02*
X027832Y015247D01*
X027832Y015317D02*
X027814Y015317D01*
X028011Y015107D02*
X028029Y015107D01*
X028011Y015107D02*
X028011Y015329D01*
X028029Y015329D01*
X028029Y015107D01*
X028029Y015177D02*
X028011Y015177D01*
X028011Y015247D02*
X028029Y015247D01*
X028029Y015317D02*
X028011Y015317D01*
X028165Y015465D02*
X028165Y015483D01*
X028387Y015483D01*
X028387Y015465D01*
X028165Y015465D01*
X028165Y015662D02*
X028165Y015680D01*
X028387Y015680D01*
X028387Y015662D01*
X028165Y015662D01*
X028165Y015859D02*
X028165Y015877D01*
X028387Y015877D01*
X028387Y015859D01*
X028165Y015859D01*
X028165Y016056D02*
X028165Y016074D01*
X028387Y016074D01*
X028387Y016056D01*
X028165Y016056D01*
X028165Y016252D02*
X028165Y016270D01*
X028387Y016270D01*
X028387Y016252D01*
X028165Y016252D01*
X028165Y016449D02*
X028165Y016467D01*
X028387Y016467D01*
X028387Y016449D01*
X028165Y016449D01*
X028165Y016646D02*
X028165Y016664D01*
X028387Y016664D01*
X028387Y016646D01*
X028165Y016646D01*
X028165Y016843D02*
X028165Y016861D01*
X028387Y016861D01*
X028387Y016843D01*
X028165Y016843D01*
X028029Y016997D02*
X028011Y016997D01*
X028011Y017219D01*
X028029Y017219D01*
X028029Y016997D01*
X028029Y017067D02*
X028011Y017067D01*
X028011Y017137D02*
X028029Y017137D01*
X028029Y017207D02*
X028011Y017207D01*
X027832Y017219D02*
X027814Y017219D01*
X027832Y017219D02*
X027832Y016997D01*
X027814Y016997D01*
X027814Y017219D01*
X027814Y017067D02*
X027832Y017067D01*
X027832Y017137D02*
X027814Y017137D01*
X027814Y017207D02*
X027832Y017207D01*
X027635Y017219D02*
X027617Y017219D01*
X027635Y017219D02*
X027635Y016997D01*
X027617Y016997D01*
X027617Y017219D01*
X027617Y017067D02*
X027635Y017067D01*
X027635Y017137D02*
X027617Y017137D01*
X027617Y017207D02*
X027635Y017207D01*
X027438Y017219D02*
X027420Y017219D01*
X027438Y017219D02*
X027438Y016997D01*
X027420Y016997D01*
X027420Y017219D01*
X027420Y017067D02*
X027438Y017067D01*
X027438Y017137D02*
X027420Y017137D01*
X027420Y017207D02*
X027438Y017207D01*
X027242Y017219D02*
X027224Y017219D01*
X027242Y017219D02*
X027242Y016997D01*
X027224Y016997D01*
X027224Y017219D01*
X027224Y017067D02*
X027242Y017067D01*
X027242Y017137D02*
X027224Y017137D01*
X027224Y017207D02*
X027242Y017207D01*
X027045Y017219D02*
X027027Y017219D01*
X027045Y017219D02*
X027045Y016997D01*
X027027Y016997D01*
X027027Y017219D01*
X027027Y017067D02*
X027045Y017067D01*
X027045Y017137D02*
X027027Y017137D01*
X027027Y017207D02*
X027045Y017207D01*
X026848Y017219D02*
X026830Y017219D01*
X026848Y017219D02*
X026848Y016997D01*
X026830Y016997D01*
X026830Y017219D01*
X026830Y017067D02*
X026848Y017067D01*
X026848Y017137D02*
X026830Y017137D01*
X026830Y017207D02*
X026848Y017207D01*
X026651Y017219D02*
X026633Y017219D01*
X026651Y017219D02*
X026651Y016997D01*
X026633Y016997D01*
X026633Y017219D01*
X026633Y017067D02*
X026651Y017067D01*
X026651Y017137D02*
X026633Y017137D01*
X026633Y017207D02*
X026651Y017207D01*
X033275Y016843D02*
X033275Y016861D01*
X033497Y016861D01*
X033497Y016843D01*
X033275Y016843D01*
X033275Y016664D02*
X033275Y016646D01*
X033275Y016664D02*
X033497Y016664D01*
X033497Y016646D01*
X033275Y016646D01*
X033275Y016467D02*
X033275Y016449D01*
X033275Y016467D02*
X033497Y016467D01*
X033497Y016449D01*
X033275Y016449D01*
X033275Y016270D02*
X033275Y016252D01*
X033275Y016270D02*
X033497Y016270D01*
X033497Y016252D01*
X033275Y016252D01*
X033275Y016074D02*
X033275Y016056D01*
X033275Y016074D02*
X033497Y016074D01*
X033497Y016056D01*
X033275Y016056D01*
X033275Y015877D02*
X033275Y015859D01*
X033275Y015877D02*
X033497Y015877D01*
X033497Y015859D01*
X033275Y015859D01*
X033275Y015680D02*
X033275Y015662D01*
X033275Y015680D02*
X033497Y015680D01*
X033497Y015662D01*
X033275Y015662D01*
X033275Y015483D02*
X033275Y015465D01*
X033275Y015483D02*
X033497Y015483D01*
X033497Y015465D01*
X033275Y015465D01*
X033633Y015107D02*
X033651Y015107D01*
X033633Y015107D02*
X033633Y015329D01*
X033651Y015329D01*
X033651Y015107D01*
X033651Y015177D02*
X033633Y015177D01*
X033633Y015247D02*
X033651Y015247D01*
X033651Y015317D02*
X033633Y015317D01*
X033830Y015107D02*
X033848Y015107D01*
X033830Y015107D02*
X033830Y015329D01*
X033848Y015329D01*
X033848Y015107D01*
X033848Y015177D02*
X033830Y015177D01*
X033830Y015247D02*
X033848Y015247D01*
X033848Y015317D02*
X033830Y015317D01*
X034027Y015107D02*
X034045Y015107D01*
X034027Y015107D02*
X034027Y015329D01*
X034045Y015329D01*
X034045Y015107D01*
X034045Y015177D02*
X034027Y015177D01*
X034027Y015247D02*
X034045Y015247D01*
X034045Y015317D02*
X034027Y015317D01*
X034224Y015107D02*
X034242Y015107D01*
X034224Y015107D02*
X034224Y015329D01*
X034242Y015329D01*
X034242Y015107D01*
X034242Y015177D02*
X034224Y015177D01*
X034224Y015247D02*
X034242Y015247D01*
X034242Y015317D02*
X034224Y015317D01*
X034420Y015107D02*
X034438Y015107D01*
X034420Y015107D02*
X034420Y015329D01*
X034438Y015329D01*
X034438Y015107D01*
X034438Y015177D02*
X034420Y015177D01*
X034420Y015247D02*
X034438Y015247D01*
X034438Y015317D02*
X034420Y015317D01*
X034617Y015107D02*
X034635Y015107D01*
X034617Y015107D02*
X034617Y015329D01*
X034635Y015329D01*
X034635Y015107D01*
X034635Y015177D02*
X034617Y015177D01*
X034617Y015247D02*
X034635Y015247D01*
X034635Y015317D02*
X034617Y015317D01*
X034814Y015107D02*
X034832Y015107D01*
X034814Y015107D02*
X034814Y015329D01*
X034832Y015329D01*
X034832Y015107D01*
X034832Y015177D02*
X034814Y015177D01*
X034814Y015247D02*
X034832Y015247D01*
X034832Y015317D02*
X034814Y015317D01*
X035011Y015107D02*
X035029Y015107D01*
X035011Y015107D02*
X035011Y015329D01*
X035029Y015329D01*
X035029Y015107D01*
X035029Y015177D02*
X035011Y015177D01*
X035011Y015247D02*
X035029Y015247D01*
X035029Y015317D02*
X035011Y015317D01*
X035165Y015465D02*
X035165Y015483D01*
X035387Y015483D01*
X035387Y015465D01*
X035165Y015465D01*
X035165Y015662D02*
X035165Y015680D01*
X035387Y015680D01*
X035387Y015662D01*
X035165Y015662D01*
X035165Y015859D02*
X035165Y015877D01*
X035387Y015877D01*
X035387Y015859D01*
X035165Y015859D01*
X035165Y016056D02*
X035165Y016074D01*
X035387Y016074D01*
X035387Y016056D01*
X035165Y016056D01*
X035165Y016252D02*
X035165Y016270D01*
X035387Y016270D01*
X035387Y016252D01*
X035165Y016252D01*
X035165Y016449D02*
X035165Y016467D01*
X035387Y016467D01*
X035387Y016449D01*
X035165Y016449D01*
X035165Y016646D02*
X035165Y016664D01*
X035387Y016664D01*
X035387Y016646D01*
X035165Y016646D01*
X035165Y016843D02*
X035165Y016861D01*
X035387Y016861D01*
X035387Y016843D01*
X035165Y016843D01*
X035029Y016997D02*
X035011Y016997D01*
X035011Y017219D01*
X035029Y017219D01*
X035029Y016997D01*
X035029Y017067D02*
X035011Y017067D01*
X035011Y017137D02*
X035029Y017137D01*
X035029Y017207D02*
X035011Y017207D01*
X034832Y017219D02*
X034814Y017219D01*
X034832Y017219D02*
X034832Y016997D01*
X034814Y016997D01*
X034814Y017219D01*
X034814Y017067D02*
X034832Y017067D01*
X034832Y017137D02*
X034814Y017137D01*
X034814Y017207D02*
X034832Y017207D01*
X034635Y017219D02*
X034617Y017219D01*
X034635Y017219D02*
X034635Y016997D01*
X034617Y016997D01*
X034617Y017219D01*
X034617Y017067D02*
X034635Y017067D01*
X034635Y017137D02*
X034617Y017137D01*
X034617Y017207D02*
X034635Y017207D01*
X034438Y017219D02*
X034420Y017219D01*
X034438Y017219D02*
X034438Y016997D01*
X034420Y016997D01*
X034420Y017219D01*
X034420Y017067D02*
X034438Y017067D01*
X034438Y017137D02*
X034420Y017137D01*
X034420Y017207D02*
X034438Y017207D01*
X034242Y017219D02*
X034224Y017219D01*
X034242Y017219D02*
X034242Y016997D01*
X034224Y016997D01*
X034224Y017219D01*
X034224Y017067D02*
X034242Y017067D01*
X034242Y017137D02*
X034224Y017137D01*
X034224Y017207D02*
X034242Y017207D01*
X034045Y017219D02*
X034027Y017219D01*
X034045Y017219D02*
X034045Y016997D01*
X034027Y016997D01*
X034027Y017219D01*
X034027Y017067D02*
X034045Y017067D01*
X034045Y017137D02*
X034027Y017137D01*
X034027Y017207D02*
X034045Y017207D01*
X033848Y017219D02*
X033830Y017219D01*
X033848Y017219D02*
X033848Y016997D01*
X033830Y016997D01*
X033830Y017219D01*
X033830Y017067D02*
X033848Y017067D01*
X033848Y017137D02*
X033830Y017137D01*
X033830Y017207D02*
X033848Y017207D01*
X033651Y017219D02*
X033633Y017219D01*
X033651Y017219D02*
X033651Y016997D01*
X033633Y016997D01*
X033633Y017219D01*
X033633Y017067D02*
X033651Y017067D01*
X033651Y017137D02*
X033633Y017137D01*
X033633Y017207D02*
X033651Y017207D01*
X040275Y016843D02*
X040275Y016861D01*
X040497Y016861D01*
X040497Y016843D01*
X040275Y016843D01*
X040275Y016664D02*
X040275Y016646D01*
X040275Y016664D02*
X040497Y016664D01*
X040497Y016646D01*
X040275Y016646D01*
X040275Y016467D02*
X040275Y016449D01*
X040275Y016467D02*
X040497Y016467D01*
X040497Y016449D01*
X040275Y016449D01*
X040275Y016270D02*
X040275Y016252D01*
X040275Y016270D02*
X040497Y016270D01*
X040497Y016252D01*
X040275Y016252D01*
X040275Y016074D02*
X040275Y016056D01*
X040275Y016074D02*
X040497Y016074D01*
X040497Y016056D01*
X040275Y016056D01*
X040275Y015877D02*
X040275Y015859D01*
X040275Y015877D02*
X040497Y015877D01*
X040497Y015859D01*
X040275Y015859D01*
X040275Y015680D02*
X040275Y015662D01*
X040275Y015680D02*
X040497Y015680D01*
X040497Y015662D01*
X040275Y015662D01*
X040275Y015483D02*
X040275Y015465D01*
X040275Y015483D02*
X040497Y015483D01*
X040497Y015465D01*
X040275Y015465D01*
X040633Y015107D02*
X040651Y015107D01*
X040633Y015107D02*
X040633Y015329D01*
X040651Y015329D01*
X040651Y015107D01*
X040651Y015177D02*
X040633Y015177D01*
X040633Y015247D02*
X040651Y015247D01*
X040651Y015317D02*
X040633Y015317D01*
X040830Y015107D02*
X040848Y015107D01*
X040830Y015107D02*
X040830Y015329D01*
X040848Y015329D01*
X040848Y015107D01*
X040848Y015177D02*
X040830Y015177D01*
X040830Y015247D02*
X040848Y015247D01*
X040848Y015317D02*
X040830Y015317D01*
X041027Y015107D02*
X041045Y015107D01*
X041027Y015107D02*
X041027Y015329D01*
X041045Y015329D01*
X041045Y015107D01*
X041045Y015177D02*
X041027Y015177D01*
X041027Y015247D02*
X041045Y015247D01*
X041045Y015317D02*
X041027Y015317D01*
X041224Y015107D02*
X041242Y015107D01*
X041224Y015107D02*
X041224Y015329D01*
X041242Y015329D01*
X041242Y015107D01*
X041242Y015177D02*
X041224Y015177D01*
X041224Y015247D02*
X041242Y015247D01*
X041242Y015317D02*
X041224Y015317D01*
X041420Y015107D02*
X041438Y015107D01*
X041420Y015107D02*
X041420Y015329D01*
X041438Y015329D01*
X041438Y015107D01*
X041438Y015177D02*
X041420Y015177D01*
X041420Y015247D02*
X041438Y015247D01*
X041438Y015317D02*
X041420Y015317D01*
X041617Y015107D02*
X041635Y015107D01*
X041617Y015107D02*
X041617Y015329D01*
X041635Y015329D01*
X041635Y015107D01*
X041635Y015177D02*
X041617Y015177D01*
X041617Y015247D02*
X041635Y015247D01*
X041635Y015317D02*
X041617Y015317D01*
X041814Y015107D02*
X041832Y015107D01*
X041814Y015107D02*
X041814Y015329D01*
X041832Y015329D01*
X041832Y015107D01*
X041832Y015177D02*
X041814Y015177D01*
X041814Y015247D02*
X041832Y015247D01*
X041832Y015317D02*
X041814Y015317D01*
X042011Y015107D02*
X042029Y015107D01*
X042011Y015107D02*
X042011Y015329D01*
X042029Y015329D01*
X042029Y015107D01*
X042029Y015177D02*
X042011Y015177D01*
X042011Y015247D02*
X042029Y015247D01*
X042029Y015317D02*
X042011Y015317D01*
X042165Y015465D02*
X042165Y015483D01*
X042387Y015483D01*
X042387Y015465D01*
X042165Y015465D01*
X042165Y015662D02*
X042165Y015680D01*
X042387Y015680D01*
X042387Y015662D01*
X042165Y015662D01*
X042165Y015859D02*
X042165Y015877D01*
X042387Y015877D01*
X042387Y015859D01*
X042165Y015859D01*
X042165Y016056D02*
X042165Y016074D01*
X042387Y016074D01*
X042387Y016056D01*
X042165Y016056D01*
X042165Y016252D02*
X042165Y016270D01*
X042387Y016270D01*
X042387Y016252D01*
X042165Y016252D01*
X042165Y016449D02*
X042165Y016467D01*
X042387Y016467D01*
X042387Y016449D01*
X042165Y016449D01*
X042165Y016646D02*
X042165Y016664D01*
X042387Y016664D01*
X042387Y016646D01*
X042165Y016646D01*
X042165Y016843D02*
X042165Y016861D01*
X042387Y016861D01*
X042387Y016843D01*
X042165Y016843D01*
X042029Y016997D02*
X042011Y016997D01*
X042011Y017219D01*
X042029Y017219D01*
X042029Y016997D01*
X042029Y017067D02*
X042011Y017067D01*
X042011Y017137D02*
X042029Y017137D01*
X042029Y017207D02*
X042011Y017207D01*
X041832Y017219D02*
X041814Y017219D01*
X041832Y017219D02*
X041832Y016997D01*
X041814Y016997D01*
X041814Y017219D01*
X041814Y017067D02*
X041832Y017067D01*
X041832Y017137D02*
X041814Y017137D01*
X041814Y017207D02*
X041832Y017207D01*
X041635Y017219D02*
X041617Y017219D01*
X041635Y017219D02*
X041635Y016997D01*
X041617Y016997D01*
X041617Y017219D01*
X041617Y017067D02*
X041635Y017067D01*
X041635Y017137D02*
X041617Y017137D01*
X041617Y017207D02*
X041635Y017207D01*
X041438Y017219D02*
X041420Y017219D01*
X041438Y017219D02*
X041438Y016997D01*
X041420Y016997D01*
X041420Y017219D01*
X041420Y017067D02*
X041438Y017067D01*
X041438Y017137D02*
X041420Y017137D01*
X041420Y017207D02*
X041438Y017207D01*
X041242Y017219D02*
X041224Y017219D01*
X041242Y017219D02*
X041242Y016997D01*
X041224Y016997D01*
X041224Y017219D01*
X041224Y017067D02*
X041242Y017067D01*
X041242Y017137D02*
X041224Y017137D01*
X041224Y017207D02*
X041242Y017207D01*
X041045Y017219D02*
X041027Y017219D01*
X041045Y017219D02*
X041045Y016997D01*
X041027Y016997D01*
X041027Y017219D01*
X041027Y017067D02*
X041045Y017067D01*
X041045Y017137D02*
X041027Y017137D01*
X041027Y017207D02*
X041045Y017207D01*
X040848Y017219D02*
X040830Y017219D01*
X040848Y017219D02*
X040848Y016997D01*
X040830Y016997D01*
X040830Y017219D01*
X040830Y017067D02*
X040848Y017067D01*
X040848Y017137D02*
X040830Y017137D01*
X040830Y017207D02*
X040848Y017207D01*
X040651Y017219D02*
X040633Y017219D01*
X040651Y017219D02*
X040651Y016997D01*
X040633Y016997D01*
X040633Y017219D01*
X040633Y017067D02*
X040651Y017067D01*
X040651Y017137D02*
X040633Y017137D01*
X040633Y017207D02*
X040651Y017207D01*
D17*
X015281Y032013D03*
D18*
X011298Y034525D03*
X010668Y034525D03*
D19*
X012187Y032763D03*
X012975Y032763D03*
X012975Y030563D03*
X012187Y030563D03*
D20*
X017815Y029660D03*
X017815Y029345D03*
X017815Y029031D03*
X017815Y028716D03*
X018347Y028716D03*
X018347Y029031D03*
X018347Y029345D03*
X018347Y029660D03*
D21*
X015245Y029791D03*
X014517Y029791D03*
X014517Y028885D03*
X015245Y028885D03*
D22*
X014368Y035044D03*
X014368Y036382D03*
X021556Y036957D03*
X021556Y035619D03*
D23*
X011518Y012478D03*
X011518Y013598D03*
X013143Y013598D03*
X013143Y012478D03*
X018768Y012478D03*
X018768Y013598D03*
X020393Y013598D03*
X020393Y012478D03*
X026518Y012478D03*
X026518Y013598D03*
X028143Y013598D03*
X028143Y012478D03*
X033518Y012478D03*
X033518Y013598D03*
X035143Y013598D03*
X035143Y012478D03*
X040518Y012478D03*
X040518Y013598D03*
X042143Y013598D03*
X042143Y012478D03*
D24*
X042993Y014591D03*
X042993Y015260D03*
X043081Y019578D03*
X043081Y020248D03*
X043893Y020248D03*
X043893Y019578D03*
X042081Y019578D03*
X042081Y020248D03*
X039780Y022269D03*
X039110Y022269D03*
X039110Y023128D03*
X039780Y023128D03*
X039791Y024968D03*
X039121Y024968D03*
X039121Y025718D03*
X039791Y025718D03*
X039791Y027468D03*
X039121Y027468D03*
X039121Y028468D03*
X039791Y028468D03*
X039791Y030468D03*
X039121Y030468D03*
X039121Y031468D03*
X039791Y031468D03*
X037431Y036728D03*
X037431Y037398D03*
X036656Y037398D03*
X036656Y036728D03*
X034993Y039641D03*
X034993Y040310D03*
X035103Y040988D03*
X034434Y040988D03*
X034434Y042313D03*
X034434Y042963D03*
X034456Y043778D03*
X034456Y044448D03*
X035181Y044448D03*
X035181Y043778D03*
X035103Y042963D03*
X035103Y042313D03*
X032166Y037913D03*
X031496Y037913D03*
X030891Y037913D03*
X030221Y037913D03*
X025016Y037713D03*
X024346Y037713D03*
X023666Y037688D03*
X022996Y037688D03*
X022166Y037638D03*
X022166Y038288D03*
X022166Y038938D03*
X021496Y038938D03*
X021496Y038288D03*
X021496Y037638D03*
X020791Y037663D03*
X020121Y037663D03*
X017416Y037538D03*
X016746Y037538D03*
X009841Y037513D03*
X009171Y037513D03*
X009172Y036519D03*
X009841Y036519D03*
X022371Y028426D03*
X023041Y028426D03*
X023041Y027623D03*
X022371Y027623D03*
X024831Y024424D03*
X024831Y023755D03*
X024581Y020248D03*
X024581Y019578D03*
X027393Y019578D03*
X027393Y020248D03*
X028393Y020248D03*
X028393Y019578D03*
X029206Y019578D03*
X029206Y020248D03*
X032331Y020248D03*
X032331Y019578D03*
X035002Y019578D03*
X035766Y019578D03*
X035766Y020248D03*
X035002Y020248D03*
X036579Y020248D03*
X036579Y019578D03*
X039331Y019578D03*
X039331Y020248D03*
X036018Y015260D03*
X036018Y014591D03*
X028993Y014591D03*
X028993Y015260D03*
X021643Y019578D03*
X021643Y020248D03*
X020831Y020248D03*
X020831Y019578D03*
X019581Y019578D03*
X019581Y020248D03*
X016831Y020248D03*
X016831Y019578D03*
X014143Y019578D03*
X014143Y020248D03*
X013356Y020248D03*
X013356Y019578D03*
X012581Y019578D03*
X012581Y020248D03*
X009831Y020248D03*
X009831Y019578D03*
X014018Y015210D03*
X014018Y014541D03*
X021268Y014591D03*
X021268Y015260D03*
X040131Y039938D03*
X040131Y040607D03*
X039956Y041253D03*
X039956Y041923D03*
X024941Y042413D03*
X024941Y043063D03*
X024271Y043063D03*
X024271Y042413D03*
D25*
X032331Y045600D03*
X032331Y047726D03*
X045643Y014913D03*
X045643Y012788D03*
X037893Y012413D03*
X037893Y014538D03*
X030893Y014538D03*
X030893Y012413D03*
X023768Y012413D03*
X023768Y014538D03*
X016143Y014538D03*
X016143Y012413D03*
D26*
X016002Y019578D03*
X016002Y020248D03*
X014945Y020248D03*
X014945Y019578D03*
X017581Y019578D03*
X018331Y019578D03*
X018331Y020248D03*
X017581Y020248D03*
X022244Y020255D03*
X022244Y019585D03*
X023794Y019578D03*
X023794Y020248D03*
X024780Y021769D03*
X024780Y022438D03*
X025393Y020248D03*
X026143Y020248D03*
X026143Y019578D03*
X025393Y019578D03*
X029971Y019578D03*
X029971Y020248D03*
X031555Y020248D03*
X031555Y019578D03*
X033081Y019578D03*
X033831Y019578D03*
X033831Y020248D03*
X033081Y020248D03*
X037355Y020248D03*
X037355Y019578D03*
X038555Y019578D03*
X038555Y020248D03*
X040081Y020248D03*
X040831Y020248D03*
X040831Y019578D03*
X040081Y019578D03*
X039780Y024009D03*
X039110Y024009D03*
X039121Y026468D03*
X039791Y026468D03*
X039791Y029468D03*
X039121Y029468D03*
X039121Y032343D03*
X039791Y032343D03*
X039472Y039938D03*
X038815Y039938D03*
X038815Y040607D03*
X038633Y041213D03*
X039302Y041213D03*
X039472Y040607D03*
X035103Y041650D03*
X034434Y041650D03*
X026481Y038623D03*
X026481Y037953D03*
X025831Y037748D03*
X025831Y037078D03*
X020581Y036373D03*
X020581Y035703D03*
X018331Y038328D03*
X017581Y038328D03*
X017581Y038998D03*
X018331Y038998D03*
X014456Y038498D03*
X014456Y037828D03*
X013706Y037828D03*
X013706Y038498D03*
X013393Y037123D03*
X013393Y036453D03*
X013393Y035560D03*
X013393Y034891D03*
X018456Y032998D03*
X018456Y032328D03*
X011331Y020248D03*
X011331Y019578D03*
X010581Y019578D03*
X010581Y020248D03*
X009042Y020248D03*
X009042Y019578D03*
X044706Y019578D03*
X044706Y020248D03*
D27*
X029581Y038620D03*
X029081Y038620D03*
X028581Y038620D03*
X028081Y038620D03*
X020831Y038620D03*
X020331Y038620D03*
X019831Y038620D03*
X019331Y038620D03*
X016831Y038620D03*
X016331Y038620D03*
X015831Y038620D03*
X015331Y038620D03*
X013081Y038620D03*
X012581Y038620D03*
X012081Y038620D03*
X011581Y038620D03*
D28*
X012336Y040677D03*
X016086Y040677D03*
X020086Y040677D03*
X028836Y040677D03*
D29*
X028831Y039870D03*
X020081Y039870D03*
X016081Y039870D03*
X012331Y039870D03*
D30*
X041831Y039667D03*
X041831Y037159D03*
X045456Y028667D03*
X045456Y026159D03*
D31*
X028157Y024570D03*
X028157Y024315D03*
X028157Y024059D03*
X028157Y023803D03*
X028157Y023547D03*
X028157Y023291D03*
X028157Y023035D03*
X028157Y022779D03*
X028157Y022523D03*
X028157Y022267D03*
X028157Y022011D03*
X028157Y021756D03*
X025755Y021756D03*
X025755Y022011D03*
X025755Y022267D03*
X025755Y022523D03*
X025755Y022779D03*
X025755Y023035D03*
X025755Y023291D03*
X025755Y023547D03*
X025755Y023803D03*
X025755Y024059D03*
X025755Y024315D03*
X025755Y024570D03*
D32*
X036518Y043163D03*
X038644Y043163D03*
D33*
X022846Y032402D03*
X022846Y031674D03*
X021941Y031674D03*
X021941Y032402D03*
D34*
X035861Y039788D03*
X035861Y040288D03*
X035861Y040788D03*
X035861Y041288D03*
X037801Y041288D03*
X037801Y040788D03*
X037801Y040288D03*
X037801Y039788D03*
D35*
X036831Y040558D03*
D36*
X039318Y038767D03*
X039318Y036759D03*
D37*
X035818Y036699D03*
X035818Y037447D03*
D38*
X035856Y038663D03*
X037431Y038663D03*
D39*
X012837Y032100D03*
X012325Y032100D03*
X012325Y031225D03*
X012837Y031225D03*
D40*
X032915Y037357D02*
X035021Y037357D01*
X035021Y036827D01*
X032915Y036827D01*
X032915Y037357D01*
X032915Y037003D02*
X035021Y037003D01*
X035021Y037179D02*
X032915Y037179D01*
X032915Y037355D02*
X035021Y037355D01*
X035021Y038519D02*
X032915Y038519D01*
X032915Y039049D01*
X035021Y039049D01*
X035021Y038519D01*
X035021Y038695D02*
X032915Y038695D01*
X032915Y038871D02*
X035021Y038871D01*
X035021Y039047D02*
X032915Y039047D01*
D41*
X013267Y028100D03*
X012519Y028100D03*
D42*
X035331Y045482D03*
X035331Y047844D03*
X041731Y043844D03*
X041731Y041482D03*
X044581Y023844D03*
X044581Y021482D03*
D43*
X043481Y045463D03*
X043481Y047863D03*
X038181Y047863D03*
X038181Y045463D03*
D44*
X041622Y016459D03*
X041622Y015867D03*
X034622Y015867D03*
X034622Y016459D03*
X027622Y016459D03*
X027622Y015867D03*
X019872Y015867D03*
X019872Y016459D03*
X012622Y016459D03*
X012622Y015867D03*
D45*
X012040Y015872D03*
X019290Y015872D03*
X027040Y015872D03*
X034040Y015872D03*
X041040Y015872D03*
D46*
X041040Y016464D03*
X034040Y016464D03*
X027040Y016464D03*
X019290Y016464D03*
X012040Y016464D03*
D47*
X023800Y038264D03*
X022973Y038638D03*
X023800Y039012D03*
X023650Y042339D03*
X023650Y043087D03*
X022823Y042713D03*
M02*
