G75*
G70*
%OFA0B0*%
%FSLAX24Y24*%
%IPPOS*%
%LPD*%
%AMOC8*
5,1,8,0,0,1.08239X$1,22.5*
%
%ADD10OC8,0.0694*%
%ADD11OC8,0.0740*%
%ADD12C,0.1346*%
%ADD13R,0.0540X0.0710*%
%ADD14R,0.0060X0.0720*%
%ADD15C,0.0792*%
%ADD16C,0.0720*%
%ADD17R,0.2380X0.2380*%
%ADD18OC8,0.0780*%
%ADD19C,0.1080*%
%ADD20C,0.0905*%
%ADD21R,0.0820X0.0820*%
%ADD22C,0.0820*%
%ADD23OC8,0.0820*%
%ADD24OC8,0.0840*%
%ADD25C,0.0671*%
D10*
X015506Y035338D03*
X016506Y035338D03*
X016506Y036338D03*
X015506Y036338D03*
X017506Y036338D03*
X017506Y035338D03*
X022706Y035788D03*
X023706Y035788D03*
X024706Y035788D03*
X024706Y036788D03*
X023706Y036788D03*
X022706Y036788D03*
D11*
X011185Y032155D03*
X010398Y032155D03*
X010398Y031171D03*
X011185Y031171D03*
D12*
X009331Y029301D03*
X009331Y034025D03*
D13*
X011781Y029663D03*
X012381Y029663D03*
D14*
X012081Y029663D03*
D15*
X012331Y010849D02*
X012331Y010137D01*
X013331Y010137D02*
X013331Y010849D01*
X014331Y010849D02*
X014331Y010137D01*
X017304Y010137D02*
X017304Y010849D01*
X018304Y010849D02*
X018304Y010137D01*
X019304Y010137D02*
X019304Y010849D01*
X020304Y010849D02*
X020304Y010137D01*
X023304Y010137D02*
X023304Y010849D01*
X024304Y010849D02*
X024304Y010137D01*
X025304Y010137D02*
X025304Y010849D01*
X026304Y010849D02*
X026304Y010137D01*
X028304Y010137D02*
X028304Y010849D01*
X029304Y010849D02*
X029304Y010137D01*
X030304Y010137D02*
X030304Y010849D01*
X031304Y010849D02*
X031304Y010137D01*
X034304Y010137D02*
X034304Y010849D01*
X035304Y010849D02*
X035304Y010137D01*
X036304Y010137D02*
X036304Y010849D01*
X037304Y010849D02*
X037304Y010137D01*
X040304Y010137D02*
X040304Y010849D01*
X041304Y010849D02*
X041304Y010137D01*
X042304Y010137D02*
X042304Y010849D01*
X043304Y010849D02*
X043304Y010137D01*
X011331Y010137D02*
X011331Y010849D01*
D16*
X012081Y022843D02*
X012081Y023483D01*
X013081Y023483D02*
X013081Y022843D01*
X014081Y022843D02*
X014081Y023483D01*
X014081Y025343D02*
X014081Y025983D01*
X013081Y025983D02*
X013081Y025343D01*
X012081Y025343D02*
X012081Y025983D01*
X010081Y025983D02*
X010081Y025343D01*
X009081Y025343D02*
X009081Y025983D01*
X008081Y025983D02*
X008081Y025343D01*
X008081Y023483D02*
X008081Y022843D01*
X009081Y022843D02*
X009081Y023483D01*
X010081Y023483D02*
X010081Y022843D01*
X016081Y022843D02*
X016081Y023483D01*
X017081Y023483D02*
X017081Y022843D01*
X018081Y022843D02*
X018081Y023483D01*
X018081Y025343D02*
X018081Y025983D01*
X017081Y025983D02*
X017081Y025343D01*
X016081Y025343D02*
X016081Y025983D01*
X020050Y025780D02*
X020690Y025780D01*
X020690Y024780D02*
X020050Y024780D01*
X020050Y023780D02*
X020690Y023780D01*
X020690Y022780D02*
X020050Y022780D01*
X037165Y031620D02*
X037805Y031620D01*
X037805Y032620D02*
X037165Y032620D01*
X041675Y032365D02*
X042315Y032365D01*
X042315Y031365D02*
X041675Y031365D01*
X041675Y029265D02*
X042315Y029265D01*
X042315Y028265D02*
X041675Y028265D01*
X041675Y026165D02*
X042315Y026165D01*
X042315Y025165D02*
X041675Y025165D01*
X041675Y023065D02*
X042315Y023065D01*
X042315Y022065D02*
X041675Y022065D01*
X044708Y017952D02*
X044708Y017312D01*
X045708Y017312D02*
X045708Y017952D01*
X024256Y040543D02*
X024256Y041183D01*
X023256Y041183D02*
X023256Y040543D01*
X009018Y044530D02*
X009018Y045170D01*
X008018Y045170D02*
X008018Y044530D01*
D17*
X008331Y010163D03*
X008331Y047663D03*
X046331Y047663D03*
X046331Y010163D03*
D18*
X007691Y039123D03*
X007691Y040903D03*
D19*
X008671Y041393D03*
X008671Y038633D03*
D20*
X011331Y045250D02*
X011331Y046075D01*
X013331Y046075D02*
X013331Y045250D01*
X015331Y045250D02*
X015331Y046075D01*
X017331Y046075D02*
X017331Y045250D01*
X019331Y045250D02*
X019331Y046075D01*
X021331Y046075D02*
X021331Y045250D01*
X023331Y045250D02*
X023331Y046075D01*
X025331Y046075D02*
X025331Y045250D01*
X027331Y045250D02*
X027331Y046075D01*
X029331Y046075D02*
X029331Y045250D01*
X044118Y042663D02*
X044943Y042663D01*
X044943Y040663D02*
X044118Y040663D01*
X044118Y038663D02*
X044943Y038663D01*
X044943Y036663D02*
X044118Y036663D01*
X044118Y034663D02*
X044943Y034663D01*
X044943Y032663D02*
X044118Y032663D01*
D21*
X037581Y022598D03*
D22*
X037581Y023598D03*
X037581Y024598D03*
X037581Y025598D03*
X037581Y026598D03*
X037581Y027598D03*
X037581Y028598D03*
X037581Y029598D03*
X033012Y026413D03*
X032012Y026413D03*
X031012Y026413D03*
X031012Y025413D03*
X031012Y024413D03*
X031012Y023413D03*
X031012Y022413D03*
X032012Y022413D03*
X032012Y023413D03*
X032012Y024413D03*
X032012Y025413D03*
X033012Y025413D03*
X033012Y024413D03*
X033012Y023413D03*
X033012Y022413D03*
X031831Y036913D03*
X030831Y036913D03*
X029831Y036913D03*
X028831Y036913D03*
X027831Y036913D03*
X026831Y036913D03*
X031081Y042663D03*
X032081Y042663D03*
X018831Y042663D03*
X017831Y042663D03*
X016831Y042663D03*
X015831Y042663D03*
X014831Y042663D03*
X013831Y042663D03*
X012331Y036600D03*
X012331Y035600D03*
X012331Y034600D03*
D23*
X019581Y034413D03*
X020581Y034413D03*
X020581Y033413D03*
X020581Y032413D03*
X020581Y031413D03*
X020581Y030413D03*
X020581Y029413D03*
X020581Y028413D03*
X020581Y027413D03*
X019581Y027413D03*
X019581Y028413D03*
X019581Y029413D03*
X019581Y030413D03*
X019581Y031413D03*
X019581Y032413D03*
X019581Y033413D03*
X022581Y026202D03*
X022581Y025202D03*
X022581Y024202D03*
X022581Y023202D03*
X023581Y023202D03*
X023581Y024202D03*
X023581Y025202D03*
X023581Y026202D03*
X025706Y026413D03*
X026706Y026413D03*
X027706Y026413D03*
X027706Y025413D03*
X026706Y025413D03*
X025706Y025413D03*
X028706Y025413D03*
X028706Y026413D03*
X023581Y022202D03*
X022581Y022202D03*
X033288Y034235D03*
X033288Y035235D03*
X034288Y035235D03*
X035288Y035235D03*
X036288Y035235D03*
X037288Y035235D03*
X038288Y035235D03*
X039288Y035235D03*
X040288Y035235D03*
X041288Y035235D03*
X042288Y035235D03*
X042288Y034235D03*
X041288Y034235D03*
X040288Y034235D03*
X039288Y034235D03*
X038288Y034235D03*
X037288Y034235D03*
X036288Y034235D03*
X035288Y034235D03*
X034288Y034235D03*
D24*
X046985Y045324D03*
D25*
X029160Y022202D03*
M02*
