G75*
G70*
%OFA0B0*%
%FSLAX24Y24*%
%IPPOS*%
%LPD*%
%AMOC8*
5,1,8,0,0,1.08239X$1,22.5*
%
%ADD10C,0.0140*%
%ADD11OC8,0.0694*%
%ADD12R,0.0552X0.0552*%
%ADD13C,0.0347*%
%ADD14R,0.0178X0.0651*%
%ADD15R,0.0651X0.0178*%
%ADD16OC8,0.0740*%
%ADD17C,0.1346*%
%ADD18R,0.1419X0.0828*%
%ADD19R,0.0710X0.0540*%
%ADD20R,0.0720X0.0060*%
%ADD21C,0.0136*%
%ADD22C,0.0050*%
%ADD23R,0.0415X0.0356*%
%ADD24R,0.0474X0.0474*%
%ADD25R,0.0335X0.0276*%
%ADD26R,0.0493X0.0592*%
%ADD27R,0.0789X0.0631*%
%ADD28C,0.0792*%
%ADD29R,0.0790X0.0710*%
%ADD30R,0.0474X0.0513*%
%ADD31R,0.0710X0.1458*%
%ADD32R,0.0513X0.0474*%
%ADD33C,0.0720*%
%ADD34R,0.2380X0.2380*%
%ADD35OC8,0.0780*%
%ADD36C,0.1080*%
%ADD37R,0.0356X0.0631*%
%ADD38R,0.2049X0.1773*%
%ADD39R,0.1580X0.1749*%
%ADD40C,0.0905*%
%ADD41R,0.0713X0.0243*%
%ADD42R,0.0820X0.0820*%
%ADD43C,0.0820*%
%ADD44OC8,0.0820*%
%ADD45R,0.1458X0.0710*%
%ADD46R,0.0592X0.0493*%
%ADD47C,0.0580*%
%ADD48R,0.0860X0.0300*%
%ADD49R,0.0920X0.1260*%
%ADD50R,0.2245X0.0808*%
%ADD51R,0.0671X0.0592*%
%ADD52R,0.0867X0.0867*%
%ADD53R,0.0356X0.0434*%
%ADD54C,0.0217*%
%ADD55R,0.0592X0.0671*%
%ADD56OC8,0.0840*%
%ADD57R,0.1340X0.0710*%
%ADD58R,0.0780X0.1480*%
%ADD59R,0.1339X0.1339*%
%ADD60C,0.0474*%
%ADD61R,0.0434X0.0395*%
%ADD62C,0.0671*%
D10*
X010136Y012038D02*
X010138Y012054D01*
X010143Y012069D01*
X010152Y012083D01*
X010164Y012094D01*
X010178Y012102D01*
X010194Y012107D01*
X010210Y012108D01*
X010226Y012105D01*
X010241Y012099D01*
X010254Y012089D01*
X010264Y012076D01*
X010272Y012062D01*
X010276Y012046D01*
X010276Y012030D01*
X010272Y012014D01*
X010264Y012000D01*
X010254Y011987D01*
X010241Y011977D01*
X010226Y011971D01*
X010210Y011968D01*
X010194Y011969D01*
X010178Y011974D01*
X010164Y011982D01*
X010152Y011993D01*
X010143Y012007D01*
X010138Y012022D01*
X010136Y012038D01*
X010136Y012788D02*
X010138Y012804D01*
X010143Y012819D01*
X010152Y012833D01*
X010164Y012844D01*
X010178Y012852D01*
X010194Y012857D01*
X010210Y012858D01*
X010226Y012855D01*
X010241Y012849D01*
X010254Y012839D01*
X010264Y012826D01*
X010272Y012812D01*
X010276Y012796D01*
X010276Y012780D01*
X010272Y012764D01*
X010264Y012750D01*
X010254Y012737D01*
X010241Y012727D01*
X010226Y012721D01*
X010210Y012718D01*
X010194Y012719D01*
X010178Y012724D01*
X010164Y012732D01*
X010152Y012743D01*
X010143Y012757D01*
X010138Y012772D01*
X010136Y012788D01*
X009386Y012788D02*
X009388Y012804D01*
X009393Y012819D01*
X009402Y012833D01*
X009414Y012844D01*
X009428Y012852D01*
X009444Y012857D01*
X009460Y012858D01*
X009476Y012855D01*
X009491Y012849D01*
X009504Y012839D01*
X009514Y012826D01*
X009522Y012812D01*
X009526Y012796D01*
X009526Y012780D01*
X009522Y012764D01*
X009514Y012750D01*
X009504Y012737D01*
X009491Y012727D01*
X009476Y012721D01*
X009460Y012718D01*
X009444Y012719D01*
X009428Y012724D01*
X009414Y012732D01*
X009402Y012743D01*
X009393Y012757D01*
X009388Y012772D01*
X009386Y012788D01*
X009386Y013538D02*
X009388Y013554D01*
X009393Y013569D01*
X009402Y013583D01*
X009414Y013594D01*
X009428Y013602D01*
X009444Y013607D01*
X009460Y013608D01*
X009476Y013605D01*
X009491Y013599D01*
X009504Y013589D01*
X009514Y013576D01*
X009522Y013562D01*
X009526Y013546D01*
X009526Y013530D01*
X009522Y013514D01*
X009514Y013500D01*
X009504Y013487D01*
X009491Y013477D01*
X009476Y013471D01*
X009460Y013468D01*
X009444Y013469D01*
X009428Y013474D01*
X009414Y013482D01*
X009402Y013493D01*
X009393Y013507D01*
X009388Y013522D01*
X009386Y013538D01*
X009386Y014288D02*
X009388Y014304D01*
X009393Y014319D01*
X009402Y014333D01*
X009414Y014344D01*
X009428Y014352D01*
X009444Y014357D01*
X009460Y014358D01*
X009476Y014355D01*
X009491Y014349D01*
X009504Y014339D01*
X009514Y014326D01*
X009522Y014312D01*
X009526Y014296D01*
X009526Y014280D01*
X009522Y014264D01*
X009514Y014250D01*
X009504Y014237D01*
X009491Y014227D01*
X009476Y014221D01*
X009460Y014218D01*
X009444Y014219D01*
X009428Y014224D01*
X009414Y014232D01*
X009402Y014243D01*
X009393Y014257D01*
X009388Y014272D01*
X009386Y014288D01*
X010136Y014288D02*
X010138Y014304D01*
X010143Y014319D01*
X010152Y014333D01*
X010164Y014344D01*
X010178Y014352D01*
X010194Y014357D01*
X010210Y014358D01*
X010226Y014355D01*
X010241Y014349D01*
X010254Y014339D01*
X010264Y014326D01*
X010272Y014312D01*
X010276Y014296D01*
X010276Y014280D01*
X010272Y014264D01*
X010264Y014250D01*
X010254Y014237D01*
X010241Y014227D01*
X010226Y014221D01*
X010210Y014218D01*
X010194Y014219D01*
X010178Y014224D01*
X010164Y014232D01*
X010152Y014243D01*
X010143Y014257D01*
X010138Y014272D01*
X010136Y014288D01*
X010136Y013538D02*
X010138Y013554D01*
X010143Y013569D01*
X010152Y013583D01*
X010164Y013594D01*
X010178Y013602D01*
X010194Y013607D01*
X010210Y013608D01*
X010226Y013605D01*
X010241Y013599D01*
X010254Y013589D01*
X010264Y013576D01*
X010272Y013562D01*
X010276Y013546D01*
X010276Y013530D01*
X010272Y013514D01*
X010264Y013500D01*
X010254Y013487D01*
X010241Y013477D01*
X010226Y013471D01*
X010210Y013468D01*
X010194Y013469D01*
X010178Y013474D01*
X010164Y013482D01*
X010152Y013493D01*
X010143Y013507D01*
X010138Y013522D01*
X010136Y013538D01*
X008636Y013538D02*
X008638Y013554D01*
X008643Y013569D01*
X008652Y013583D01*
X008664Y013594D01*
X008678Y013602D01*
X008694Y013607D01*
X008710Y013608D01*
X008726Y013605D01*
X008741Y013599D01*
X008754Y013589D01*
X008764Y013576D01*
X008772Y013562D01*
X008776Y013546D01*
X008776Y013530D01*
X008772Y013514D01*
X008764Y013500D01*
X008754Y013487D01*
X008741Y013477D01*
X008726Y013471D01*
X008710Y013468D01*
X008694Y013469D01*
X008678Y013474D01*
X008664Y013482D01*
X008652Y013493D01*
X008643Y013507D01*
X008638Y013522D01*
X008636Y013538D01*
X008636Y014288D02*
X008638Y014304D01*
X008643Y014319D01*
X008652Y014333D01*
X008664Y014344D01*
X008678Y014352D01*
X008694Y014357D01*
X008710Y014358D01*
X008726Y014355D01*
X008741Y014349D01*
X008754Y014339D01*
X008764Y014326D01*
X008772Y014312D01*
X008776Y014296D01*
X008776Y014280D01*
X008772Y014264D01*
X008764Y014250D01*
X008754Y014237D01*
X008741Y014227D01*
X008726Y014221D01*
X008710Y014218D01*
X008694Y014219D01*
X008678Y014224D01*
X008664Y014232D01*
X008652Y014243D01*
X008643Y014257D01*
X008638Y014272D01*
X008636Y014288D01*
X008636Y015038D02*
X008638Y015054D01*
X008643Y015069D01*
X008652Y015083D01*
X008664Y015094D01*
X008678Y015102D01*
X008694Y015107D01*
X008710Y015108D01*
X008726Y015105D01*
X008741Y015099D01*
X008754Y015089D01*
X008764Y015076D01*
X008772Y015062D01*
X008776Y015046D01*
X008776Y015030D01*
X008772Y015014D01*
X008764Y015000D01*
X008754Y014987D01*
X008741Y014977D01*
X008726Y014971D01*
X008710Y014968D01*
X008694Y014969D01*
X008678Y014974D01*
X008664Y014982D01*
X008652Y014993D01*
X008643Y015007D01*
X008638Y015022D01*
X008636Y015038D01*
X008636Y015788D02*
X008638Y015804D01*
X008643Y015819D01*
X008652Y015833D01*
X008664Y015844D01*
X008678Y015852D01*
X008694Y015857D01*
X008710Y015858D01*
X008726Y015855D01*
X008741Y015849D01*
X008754Y015839D01*
X008764Y015826D01*
X008772Y015812D01*
X008776Y015796D01*
X008776Y015780D01*
X008772Y015764D01*
X008764Y015750D01*
X008754Y015737D01*
X008741Y015727D01*
X008726Y015721D01*
X008710Y015718D01*
X008694Y015719D01*
X008678Y015724D01*
X008664Y015732D01*
X008652Y015743D01*
X008643Y015757D01*
X008638Y015772D01*
X008636Y015788D01*
X009386Y015788D02*
X009388Y015804D01*
X009393Y015819D01*
X009402Y015833D01*
X009414Y015844D01*
X009428Y015852D01*
X009444Y015857D01*
X009460Y015858D01*
X009476Y015855D01*
X009491Y015849D01*
X009504Y015839D01*
X009514Y015826D01*
X009522Y015812D01*
X009526Y015796D01*
X009526Y015780D01*
X009522Y015764D01*
X009514Y015750D01*
X009504Y015737D01*
X009491Y015727D01*
X009476Y015721D01*
X009460Y015718D01*
X009444Y015719D01*
X009428Y015724D01*
X009414Y015732D01*
X009402Y015743D01*
X009393Y015757D01*
X009388Y015772D01*
X009386Y015788D01*
X009386Y015038D02*
X009388Y015054D01*
X009393Y015069D01*
X009402Y015083D01*
X009414Y015094D01*
X009428Y015102D01*
X009444Y015107D01*
X009460Y015108D01*
X009476Y015105D01*
X009491Y015099D01*
X009504Y015089D01*
X009514Y015076D01*
X009522Y015062D01*
X009526Y015046D01*
X009526Y015030D01*
X009522Y015014D01*
X009514Y015000D01*
X009504Y014987D01*
X009491Y014977D01*
X009476Y014971D01*
X009460Y014968D01*
X009444Y014969D01*
X009428Y014974D01*
X009414Y014982D01*
X009402Y014993D01*
X009393Y015007D01*
X009388Y015022D01*
X009386Y015038D01*
X010136Y015038D02*
X010138Y015054D01*
X010143Y015069D01*
X010152Y015083D01*
X010164Y015094D01*
X010178Y015102D01*
X010194Y015107D01*
X010210Y015108D01*
X010226Y015105D01*
X010241Y015099D01*
X010254Y015089D01*
X010264Y015076D01*
X010272Y015062D01*
X010276Y015046D01*
X010276Y015030D01*
X010272Y015014D01*
X010264Y015000D01*
X010254Y014987D01*
X010241Y014977D01*
X010226Y014971D01*
X010210Y014968D01*
X010194Y014969D01*
X010178Y014974D01*
X010164Y014982D01*
X010152Y014993D01*
X010143Y015007D01*
X010138Y015022D01*
X010136Y015038D01*
X010136Y015788D02*
X010138Y015804D01*
X010143Y015819D01*
X010152Y015833D01*
X010164Y015844D01*
X010178Y015852D01*
X010194Y015857D01*
X010210Y015858D01*
X010226Y015855D01*
X010241Y015849D01*
X010254Y015839D01*
X010264Y015826D01*
X010272Y015812D01*
X010276Y015796D01*
X010276Y015780D01*
X010272Y015764D01*
X010264Y015750D01*
X010254Y015737D01*
X010241Y015727D01*
X010226Y015721D01*
X010210Y015718D01*
X010194Y015719D01*
X010178Y015724D01*
X010164Y015732D01*
X010152Y015743D01*
X010143Y015757D01*
X010138Y015772D01*
X010136Y015788D01*
X010136Y016788D02*
X010138Y016804D01*
X010143Y016819D01*
X010152Y016833D01*
X010164Y016844D01*
X010178Y016852D01*
X010194Y016857D01*
X010210Y016858D01*
X010226Y016855D01*
X010241Y016849D01*
X010254Y016839D01*
X010264Y016826D01*
X010272Y016812D01*
X010276Y016796D01*
X010276Y016780D01*
X010272Y016764D01*
X010264Y016750D01*
X010254Y016737D01*
X010241Y016727D01*
X010226Y016721D01*
X010210Y016718D01*
X010194Y016719D01*
X010178Y016724D01*
X010164Y016732D01*
X010152Y016743D01*
X010143Y016757D01*
X010138Y016772D01*
X010136Y016788D01*
X009386Y016788D02*
X009388Y016804D01*
X009393Y016819D01*
X009402Y016833D01*
X009414Y016844D01*
X009428Y016852D01*
X009444Y016857D01*
X009460Y016858D01*
X009476Y016855D01*
X009491Y016849D01*
X009504Y016839D01*
X009514Y016826D01*
X009522Y016812D01*
X009526Y016796D01*
X009526Y016780D01*
X009522Y016764D01*
X009514Y016750D01*
X009504Y016737D01*
X009491Y016727D01*
X009476Y016721D01*
X009460Y016718D01*
X009444Y016719D01*
X009428Y016724D01*
X009414Y016732D01*
X009402Y016743D01*
X009393Y016757D01*
X009388Y016772D01*
X009386Y016788D01*
X009386Y017538D02*
X009388Y017554D01*
X009393Y017569D01*
X009402Y017583D01*
X009414Y017594D01*
X009428Y017602D01*
X009444Y017607D01*
X009460Y017608D01*
X009476Y017605D01*
X009491Y017599D01*
X009504Y017589D01*
X009514Y017576D01*
X009522Y017562D01*
X009526Y017546D01*
X009526Y017530D01*
X009522Y017514D01*
X009514Y017500D01*
X009504Y017487D01*
X009491Y017477D01*
X009476Y017471D01*
X009460Y017468D01*
X009444Y017469D01*
X009428Y017474D01*
X009414Y017482D01*
X009402Y017493D01*
X009393Y017507D01*
X009388Y017522D01*
X009386Y017538D01*
X010136Y017538D02*
X010138Y017554D01*
X010143Y017569D01*
X010152Y017583D01*
X010164Y017594D01*
X010178Y017602D01*
X010194Y017607D01*
X010210Y017608D01*
X010226Y017605D01*
X010241Y017599D01*
X010254Y017589D01*
X010264Y017576D01*
X010272Y017562D01*
X010276Y017546D01*
X010276Y017530D01*
X010272Y017514D01*
X010264Y017500D01*
X010254Y017487D01*
X010241Y017477D01*
X010226Y017471D01*
X010210Y017468D01*
X010194Y017469D01*
X010178Y017474D01*
X010164Y017482D01*
X010152Y017493D01*
X010143Y017507D01*
X010138Y017522D01*
X010136Y017538D01*
X010886Y017538D02*
X010888Y017554D01*
X010893Y017569D01*
X010902Y017583D01*
X010914Y017594D01*
X010928Y017602D01*
X010944Y017607D01*
X010960Y017608D01*
X010976Y017605D01*
X010991Y017599D01*
X011004Y017589D01*
X011014Y017576D01*
X011022Y017562D01*
X011026Y017546D01*
X011026Y017530D01*
X011022Y017514D01*
X011014Y017500D01*
X011004Y017487D01*
X010991Y017477D01*
X010976Y017471D01*
X010960Y017468D01*
X010944Y017469D01*
X010928Y017474D01*
X010914Y017482D01*
X010902Y017493D01*
X010893Y017507D01*
X010888Y017522D01*
X010886Y017538D01*
X009386Y018288D02*
X009388Y018304D01*
X009393Y018319D01*
X009402Y018333D01*
X009414Y018344D01*
X009428Y018352D01*
X009444Y018357D01*
X009460Y018358D01*
X009476Y018355D01*
X009491Y018349D01*
X009504Y018339D01*
X009514Y018326D01*
X009522Y018312D01*
X009526Y018296D01*
X009526Y018280D01*
X009522Y018264D01*
X009514Y018250D01*
X009504Y018237D01*
X009491Y018227D01*
X009476Y018221D01*
X009460Y018218D01*
X009444Y018219D01*
X009428Y018224D01*
X009414Y018232D01*
X009402Y018243D01*
X009393Y018257D01*
X009388Y018272D01*
X009386Y018288D01*
X008636Y018288D02*
X008638Y018304D01*
X008643Y018319D01*
X008652Y018333D01*
X008664Y018344D01*
X008678Y018352D01*
X008694Y018357D01*
X008710Y018358D01*
X008726Y018355D01*
X008741Y018349D01*
X008754Y018339D01*
X008764Y018326D01*
X008772Y018312D01*
X008776Y018296D01*
X008776Y018280D01*
X008772Y018264D01*
X008764Y018250D01*
X008754Y018237D01*
X008741Y018227D01*
X008726Y018221D01*
X008710Y018218D01*
X008694Y018219D01*
X008678Y018224D01*
X008664Y018232D01*
X008652Y018243D01*
X008643Y018257D01*
X008638Y018272D01*
X008636Y018288D01*
X008636Y017538D02*
X008638Y017554D01*
X008643Y017569D01*
X008652Y017583D01*
X008664Y017594D01*
X008678Y017602D01*
X008694Y017607D01*
X008710Y017608D01*
X008726Y017605D01*
X008741Y017599D01*
X008754Y017589D01*
X008764Y017576D01*
X008772Y017562D01*
X008776Y017546D01*
X008776Y017530D01*
X008772Y017514D01*
X008764Y017500D01*
X008754Y017487D01*
X008741Y017477D01*
X008726Y017471D01*
X008710Y017468D01*
X008694Y017469D01*
X008678Y017474D01*
X008664Y017482D01*
X008652Y017493D01*
X008643Y017507D01*
X008638Y017522D01*
X008636Y017538D01*
X008636Y016788D02*
X008638Y016804D01*
X008643Y016819D01*
X008652Y016833D01*
X008664Y016844D01*
X008678Y016852D01*
X008694Y016857D01*
X008710Y016858D01*
X008726Y016855D01*
X008741Y016849D01*
X008754Y016839D01*
X008764Y016826D01*
X008772Y016812D01*
X008776Y016796D01*
X008776Y016780D01*
X008772Y016764D01*
X008764Y016750D01*
X008754Y016737D01*
X008741Y016727D01*
X008726Y016721D01*
X008710Y016718D01*
X008694Y016719D01*
X008678Y016724D01*
X008664Y016732D01*
X008652Y016743D01*
X008643Y016757D01*
X008638Y016772D01*
X008636Y016788D01*
X013311Y017538D02*
X013313Y017554D01*
X013318Y017569D01*
X013327Y017583D01*
X013339Y017594D01*
X013353Y017602D01*
X013369Y017607D01*
X013385Y017608D01*
X013401Y017605D01*
X013416Y017599D01*
X013429Y017589D01*
X013439Y017576D01*
X013447Y017562D01*
X013451Y017546D01*
X013451Y017530D01*
X013447Y017514D01*
X013439Y017500D01*
X013429Y017487D01*
X013416Y017477D01*
X013401Y017471D01*
X013385Y017468D01*
X013369Y017469D01*
X013353Y017474D01*
X013339Y017482D01*
X013327Y017493D01*
X013318Y017507D01*
X013313Y017522D01*
X013311Y017538D01*
X013311Y018288D02*
X013313Y018304D01*
X013318Y018319D01*
X013327Y018333D01*
X013339Y018344D01*
X013353Y018352D01*
X013369Y018357D01*
X013385Y018358D01*
X013401Y018355D01*
X013416Y018349D01*
X013429Y018339D01*
X013439Y018326D01*
X013447Y018312D01*
X013451Y018296D01*
X013451Y018280D01*
X013447Y018264D01*
X013439Y018250D01*
X013429Y018237D01*
X013416Y018227D01*
X013401Y018221D01*
X013385Y018218D01*
X013369Y018219D01*
X013353Y018224D01*
X013339Y018232D01*
X013327Y018243D01*
X013318Y018257D01*
X013313Y018272D01*
X013311Y018288D01*
X014386Y018288D02*
X014388Y018304D01*
X014393Y018319D01*
X014402Y018333D01*
X014414Y018344D01*
X014428Y018352D01*
X014444Y018357D01*
X014460Y018358D01*
X014476Y018355D01*
X014491Y018349D01*
X014504Y018339D01*
X014514Y018326D01*
X014522Y018312D01*
X014526Y018296D01*
X014526Y018280D01*
X014522Y018264D01*
X014514Y018250D01*
X014504Y018237D01*
X014491Y018227D01*
X014476Y018221D01*
X014460Y018218D01*
X014444Y018219D01*
X014428Y018224D01*
X014414Y018232D01*
X014402Y018243D01*
X014393Y018257D01*
X014388Y018272D01*
X014386Y018288D01*
X014386Y017538D02*
X014388Y017554D01*
X014393Y017569D01*
X014402Y017583D01*
X014414Y017594D01*
X014428Y017602D01*
X014444Y017607D01*
X014460Y017608D01*
X014476Y017605D01*
X014491Y017599D01*
X014504Y017589D01*
X014514Y017576D01*
X014522Y017562D01*
X014526Y017546D01*
X014526Y017530D01*
X014522Y017514D01*
X014514Y017500D01*
X014504Y017487D01*
X014491Y017477D01*
X014476Y017471D01*
X014460Y017468D01*
X014444Y017469D01*
X014428Y017474D01*
X014414Y017482D01*
X014402Y017493D01*
X014393Y017507D01*
X014388Y017522D01*
X014386Y017538D01*
X014386Y016788D02*
X014388Y016804D01*
X014393Y016819D01*
X014402Y016833D01*
X014414Y016844D01*
X014428Y016852D01*
X014444Y016857D01*
X014460Y016858D01*
X014476Y016855D01*
X014491Y016849D01*
X014504Y016839D01*
X014514Y016826D01*
X014522Y016812D01*
X014526Y016796D01*
X014526Y016780D01*
X014522Y016764D01*
X014514Y016750D01*
X014504Y016737D01*
X014491Y016727D01*
X014476Y016721D01*
X014460Y016718D01*
X014444Y016719D01*
X014428Y016724D01*
X014414Y016732D01*
X014402Y016743D01*
X014393Y016757D01*
X014388Y016772D01*
X014386Y016788D01*
X015136Y016788D02*
X015138Y016804D01*
X015143Y016819D01*
X015152Y016833D01*
X015164Y016844D01*
X015178Y016852D01*
X015194Y016857D01*
X015210Y016858D01*
X015226Y016855D01*
X015241Y016849D01*
X015254Y016839D01*
X015264Y016826D01*
X015272Y016812D01*
X015276Y016796D01*
X015276Y016780D01*
X015272Y016764D01*
X015264Y016750D01*
X015254Y016737D01*
X015241Y016727D01*
X015226Y016721D01*
X015210Y016718D01*
X015194Y016719D01*
X015178Y016724D01*
X015164Y016732D01*
X015152Y016743D01*
X015143Y016757D01*
X015138Y016772D01*
X015136Y016788D01*
X015136Y017538D02*
X015138Y017554D01*
X015143Y017569D01*
X015152Y017583D01*
X015164Y017594D01*
X015178Y017602D01*
X015194Y017607D01*
X015210Y017608D01*
X015226Y017605D01*
X015241Y017599D01*
X015254Y017589D01*
X015264Y017576D01*
X015272Y017562D01*
X015276Y017546D01*
X015276Y017530D01*
X015272Y017514D01*
X015264Y017500D01*
X015254Y017487D01*
X015241Y017477D01*
X015226Y017471D01*
X015210Y017468D01*
X015194Y017469D01*
X015178Y017474D01*
X015164Y017482D01*
X015152Y017493D01*
X015143Y017507D01*
X015138Y017522D01*
X015136Y017538D01*
X015136Y018288D02*
X015138Y018304D01*
X015143Y018319D01*
X015152Y018333D01*
X015164Y018344D01*
X015178Y018352D01*
X015194Y018357D01*
X015210Y018358D01*
X015226Y018355D01*
X015241Y018349D01*
X015254Y018339D01*
X015264Y018326D01*
X015272Y018312D01*
X015276Y018296D01*
X015276Y018280D01*
X015272Y018264D01*
X015264Y018250D01*
X015254Y018237D01*
X015241Y018227D01*
X015226Y018221D01*
X015210Y018218D01*
X015194Y018219D01*
X015178Y018224D01*
X015164Y018232D01*
X015152Y018243D01*
X015143Y018257D01*
X015138Y018272D01*
X015136Y018288D01*
X016636Y018288D02*
X016638Y018304D01*
X016643Y018319D01*
X016652Y018333D01*
X016664Y018344D01*
X016678Y018352D01*
X016694Y018357D01*
X016710Y018358D01*
X016726Y018355D01*
X016741Y018349D01*
X016754Y018339D01*
X016764Y018326D01*
X016772Y018312D01*
X016776Y018296D01*
X016776Y018280D01*
X016772Y018264D01*
X016764Y018250D01*
X016754Y018237D01*
X016741Y018227D01*
X016726Y018221D01*
X016710Y018218D01*
X016694Y018219D01*
X016678Y018224D01*
X016664Y018232D01*
X016652Y018243D01*
X016643Y018257D01*
X016638Y018272D01*
X016636Y018288D01*
X016636Y017538D02*
X016638Y017554D01*
X016643Y017569D01*
X016652Y017583D01*
X016664Y017594D01*
X016678Y017602D01*
X016694Y017607D01*
X016710Y017608D01*
X016726Y017605D01*
X016741Y017599D01*
X016754Y017589D01*
X016764Y017576D01*
X016772Y017562D01*
X016776Y017546D01*
X016776Y017530D01*
X016772Y017514D01*
X016764Y017500D01*
X016754Y017487D01*
X016741Y017477D01*
X016726Y017471D01*
X016710Y017468D01*
X016694Y017469D01*
X016678Y017474D01*
X016664Y017482D01*
X016652Y017493D01*
X016643Y017507D01*
X016638Y017522D01*
X016636Y017538D01*
X016636Y016788D02*
X016638Y016804D01*
X016643Y016819D01*
X016652Y016833D01*
X016664Y016844D01*
X016678Y016852D01*
X016694Y016857D01*
X016710Y016858D01*
X016726Y016855D01*
X016741Y016849D01*
X016754Y016839D01*
X016764Y016826D01*
X016772Y016812D01*
X016776Y016796D01*
X016776Y016780D01*
X016772Y016764D01*
X016764Y016750D01*
X016754Y016737D01*
X016741Y016727D01*
X016726Y016721D01*
X016710Y016718D01*
X016694Y016719D01*
X016678Y016724D01*
X016664Y016732D01*
X016652Y016743D01*
X016643Y016757D01*
X016638Y016772D01*
X016636Y016788D01*
X017386Y016788D02*
X017388Y016804D01*
X017393Y016819D01*
X017402Y016833D01*
X017414Y016844D01*
X017428Y016852D01*
X017444Y016857D01*
X017460Y016858D01*
X017476Y016855D01*
X017491Y016849D01*
X017504Y016839D01*
X017514Y016826D01*
X017522Y016812D01*
X017526Y016796D01*
X017526Y016780D01*
X017522Y016764D01*
X017514Y016750D01*
X017504Y016737D01*
X017491Y016727D01*
X017476Y016721D01*
X017460Y016718D01*
X017444Y016719D01*
X017428Y016724D01*
X017414Y016732D01*
X017402Y016743D01*
X017393Y016757D01*
X017388Y016772D01*
X017386Y016788D01*
X017386Y017538D02*
X017388Y017554D01*
X017393Y017569D01*
X017402Y017583D01*
X017414Y017594D01*
X017428Y017602D01*
X017444Y017607D01*
X017460Y017608D01*
X017476Y017605D01*
X017491Y017599D01*
X017504Y017589D01*
X017514Y017576D01*
X017522Y017562D01*
X017526Y017546D01*
X017526Y017530D01*
X017522Y017514D01*
X017514Y017500D01*
X017504Y017487D01*
X017491Y017477D01*
X017476Y017471D01*
X017460Y017468D01*
X017444Y017469D01*
X017428Y017474D01*
X017414Y017482D01*
X017402Y017493D01*
X017393Y017507D01*
X017388Y017522D01*
X017386Y017538D01*
X018136Y017538D02*
X018138Y017554D01*
X018143Y017569D01*
X018152Y017583D01*
X018164Y017594D01*
X018178Y017602D01*
X018194Y017607D01*
X018210Y017608D01*
X018226Y017605D01*
X018241Y017599D01*
X018254Y017589D01*
X018264Y017576D01*
X018272Y017562D01*
X018276Y017546D01*
X018276Y017530D01*
X018272Y017514D01*
X018264Y017500D01*
X018254Y017487D01*
X018241Y017477D01*
X018226Y017471D01*
X018210Y017468D01*
X018194Y017469D01*
X018178Y017474D01*
X018164Y017482D01*
X018152Y017493D01*
X018143Y017507D01*
X018138Y017522D01*
X018136Y017538D01*
X016636Y016038D02*
X016638Y016054D01*
X016643Y016069D01*
X016652Y016083D01*
X016664Y016094D01*
X016678Y016102D01*
X016694Y016107D01*
X016710Y016108D01*
X016726Y016105D01*
X016741Y016099D01*
X016754Y016089D01*
X016764Y016076D01*
X016772Y016062D01*
X016776Y016046D01*
X016776Y016030D01*
X016772Y016014D01*
X016764Y016000D01*
X016754Y015987D01*
X016741Y015977D01*
X016726Y015971D01*
X016710Y015968D01*
X016694Y015969D01*
X016678Y015974D01*
X016664Y015982D01*
X016652Y015993D01*
X016643Y016007D01*
X016638Y016022D01*
X016636Y016038D01*
X017536Y015663D02*
X017538Y015679D01*
X017543Y015694D01*
X017552Y015708D01*
X017564Y015719D01*
X017578Y015727D01*
X017594Y015732D01*
X017610Y015733D01*
X017626Y015730D01*
X017641Y015724D01*
X017654Y015714D01*
X017664Y015701D01*
X017672Y015687D01*
X017676Y015671D01*
X017676Y015655D01*
X017672Y015639D01*
X017664Y015625D01*
X017654Y015612D01*
X017641Y015602D01*
X017626Y015596D01*
X017610Y015593D01*
X017594Y015594D01*
X017578Y015599D01*
X017564Y015607D01*
X017552Y015618D01*
X017543Y015632D01*
X017538Y015647D01*
X017536Y015663D01*
X017536Y014913D02*
X017538Y014929D01*
X017543Y014944D01*
X017552Y014958D01*
X017564Y014969D01*
X017578Y014977D01*
X017594Y014982D01*
X017610Y014983D01*
X017626Y014980D01*
X017641Y014974D01*
X017654Y014964D01*
X017664Y014951D01*
X017672Y014937D01*
X017676Y014921D01*
X017676Y014905D01*
X017672Y014889D01*
X017664Y014875D01*
X017654Y014862D01*
X017641Y014852D01*
X017626Y014846D01*
X017610Y014843D01*
X017594Y014844D01*
X017578Y014849D01*
X017564Y014857D01*
X017552Y014868D01*
X017543Y014882D01*
X017538Y014897D01*
X017536Y014913D01*
X018011Y014588D02*
X018013Y014604D01*
X018018Y014619D01*
X018027Y014633D01*
X018039Y014644D01*
X018053Y014652D01*
X018069Y014657D01*
X018085Y014658D01*
X018101Y014655D01*
X018116Y014649D01*
X018129Y014639D01*
X018139Y014626D01*
X018147Y014612D01*
X018151Y014596D01*
X018151Y014580D01*
X018147Y014564D01*
X018139Y014550D01*
X018129Y014537D01*
X018116Y014527D01*
X018101Y014521D01*
X018085Y014518D01*
X018069Y014519D01*
X018053Y014524D01*
X018039Y014532D01*
X018027Y014543D01*
X018018Y014557D01*
X018013Y014572D01*
X018011Y014588D01*
X017636Y014038D02*
X017638Y014054D01*
X017643Y014069D01*
X017652Y014083D01*
X017664Y014094D01*
X017678Y014102D01*
X017694Y014107D01*
X017710Y014108D01*
X017726Y014105D01*
X017741Y014099D01*
X017754Y014089D01*
X017764Y014076D01*
X017772Y014062D01*
X017776Y014046D01*
X017776Y014030D01*
X017772Y014014D01*
X017764Y014000D01*
X017754Y013987D01*
X017741Y013977D01*
X017726Y013971D01*
X017710Y013968D01*
X017694Y013969D01*
X017678Y013974D01*
X017664Y013982D01*
X017652Y013993D01*
X017643Y014007D01*
X017638Y014022D01*
X017636Y014038D01*
X017636Y012538D02*
X017638Y012554D01*
X017643Y012569D01*
X017652Y012583D01*
X017664Y012594D01*
X017678Y012602D01*
X017694Y012607D01*
X017710Y012608D01*
X017726Y012605D01*
X017741Y012599D01*
X017754Y012589D01*
X017764Y012576D01*
X017772Y012562D01*
X017776Y012546D01*
X017776Y012530D01*
X017772Y012514D01*
X017764Y012500D01*
X017754Y012487D01*
X017741Y012477D01*
X017726Y012471D01*
X017710Y012468D01*
X017694Y012469D01*
X017678Y012474D01*
X017664Y012482D01*
X017652Y012493D01*
X017643Y012507D01*
X017638Y012522D01*
X017636Y012538D01*
X015136Y015038D02*
X015138Y015054D01*
X015143Y015069D01*
X015152Y015083D01*
X015164Y015094D01*
X015178Y015102D01*
X015194Y015107D01*
X015210Y015108D01*
X015226Y015105D01*
X015241Y015099D01*
X015254Y015089D01*
X015264Y015076D01*
X015272Y015062D01*
X015276Y015046D01*
X015276Y015030D01*
X015272Y015014D01*
X015264Y015000D01*
X015254Y014987D01*
X015241Y014977D01*
X015226Y014971D01*
X015210Y014968D01*
X015194Y014969D01*
X015178Y014974D01*
X015164Y014982D01*
X015152Y014993D01*
X015143Y015007D01*
X015138Y015022D01*
X015136Y015038D01*
X015386Y015788D02*
X015388Y015804D01*
X015393Y015819D01*
X015402Y015833D01*
X015414Y015844D01*
X015428Y015852D01*
X015444Y015857D01*
X015460Y015858D01*
X015476Y015855D01*
X015491Y015849D01*
X015504Y015839D01*
X015514Y015826D01*
X015522Y015812D01*
X015526Y015796D01*
X015526Y015780D01*
X015522Y015764D01*
X015514Y015750D01*
X015504Y015737D01*
X015491Y015727D01*
X015476Y015721D01*
X015460Y015718D01*
X015444Y015719D01*
X015428Y015724D01*
X015414Y015732D01*
X015402Y015743D01*
X015393Y015757D01*
X015388Y015772D01*
X015386Y015788D01*
X014636Y015788D02*
X014638Y015804D01*
X014643Y015819D01*
X014652Y015833D01*
X014664Y015844D01*
X014678Y015852D01*
X014694Y015857D01*
X014710Y015858D01*
X014726Y015855D01*
X014741Y015849D01*
X014754Y015839D01*
X014764Y015826D01*
X014772Y015812D01*
X014776Y015796D01*
X014776Y015780D01*
X014772Y015764D01*
X014764Y015750D01*
X014754Y015737D01*
X014741Y015727D01*
X014726Y015721D01*
X014710Y015718D01*
X014694Y015719D01*
X014678Y015724D01*
X014664Y015732D01*
X014652Y015743D01*
X014643Y015757D01*
X014638Y015772D01*
X014636Y015788D01*
X014136Y013288D02*
X014138Y013304D01*
X014143Y013319D01*
X014152Y013333D01*
X014164Y013344D01*
X014178Y013352D01*
X014194Y013357D01*
X014210Y013358D01*
X014226Y013355D01*
X014241Y013349D01*
X014254Y013339D01*
X014264Y013326D01*
X014272Y013312D01*
X014276Y013296D01*
X014276Y013280D01*
X014272Y013264D01*
X014264Y013250D01*
X014254Y013237D01*
X014241Y013227D01*
X014226Y013221D01*
X014210Y013218D01*
X014194Y013219D01*
X014178Y013224D01*
X014164Y013232D01*
X014152Y013243D01*
X014143Y013257D01*
X014138Y013272D01*
X014136Y013288D01*
X014136Y012538D02*
X014138Y012554D01*
X014143Y012569D01*
X014152Y012583D01*
X014164Y012594D01*
X014178Y012602D01*
X014194Y012607D01*
X014210Y012608D01*
X014226Y012605D01*
X014241Y012599D01*
X014254Y012589D01*
X014264Y012576D01*
X014272Y012562D01*
X014276Y012546D01*
X014276Y012530D01*
X014272Y012514D01*
X014264Y012500D01*
X014254Y012487D01*
X014241Y012477D01*
X014226Y012471D01*
X014210Y012468D01*
X014194Y012469D01*
X014178Y012474D01*
X014164Y012482D01*
X014152Y012493D01*
X014143Y012507D01*
X014138Y012522D01*
X014136Y012538D01*
X020636Y017538D02*
X020638Y017554D01*
X020643Y017569D01*
X020652Y017583D01*
X020664Y017594D01*
X020678Y017602D01*
X020694Y017607D01*
X020710Y017608D01*
X020726Y017605D01*
X020741Y017599D01*
X020754Y017589D01*
X020764Y017576D01*
X020772Y017562D01*
X020776Y017546D01*
X020776Y017530D01*
X020772Y017514D01*
X020764Y017500D01*
X020754Y017487D01*
X020741Y017477D01*
X020726Y017471D01*
X020710Y017468D01*
X020694Y017469D01*
X020678Y017474D01*
X020664Y017482D01*
X020652Y017493D01*
X020643Y017507D01*
X020638Y017522D01*
X020636Y017538D01*
X020636Y018288D02*
X020638Y018304D01*
X020643Y018319D01*
X020652Y018333D01*
X020664Y018344D01*
X020678Y018352D01*
X020694Y018357D01*
X020710Y018358D01*
X020726Y018355D01*
X020741Y018349D01*
X020754Y018339D01*
X020764Y018326D01*
X020772Y018312D01*
X020776Y018296D01*
X020776Y018280D01*
X020772Y018264D01*
X020764Y018250D01*
X020754Y018237D01*
X020741Y018227D01*
X020726Y018221D01*
X020710Y018218D01*
X020694Y018219D01*
X020678Y018224D01*
X020664Y018232D01*
X020652Y018243D01*
X020643Y018257D01*
X020638Y018272D01*
X020636Y018288D01*
X021886Y018288D02*
X021888Y018304D01*
X021893Y018319D01*
X021902Y018333D01*
X021914Y018344D01*
X021928Y018352D01*
X021944Y018357D01*
X021960Y018358D01*
X021976Y018355D01*
X021991Y018349D01*
X022004Y018339D01*
X022014Y018326D01*
X022022Y018312D01*
X022026Y018296D01*
X022026Y018280D01*
X022022Y018264D01*
X022014Y018250D01*
X022004Y018237D01*
X021991Y018227D01*
X021976Y018221D01*
X021960Y018218D01*
X021944Y018219D01*
X021928Y018224D01*
X021914Y018232D01*
X021902Y018243D01*
X021893Y018257D01*
X021888Y018272D01*
X021886Y018288D01*
X022636Y018288D02*
X022638Y018304D01*
X022643Y018319D01*
X022652Y018333D01*
X022664Y018344D01*
X022678Y018352D01*
X022694Y018357D01*
X022710Y018358D01*
X022726Y018355D01*
X022741Y018349D01*
X022754Y018339D01*
X022764Y018326D01*
X022772Y018312D01*
X022776Y018296D01*
X022776Y018280D01*
X022772Y018264D01*
X022764Y018250D01*
X022754Y018237D01*
X022741Y018227D01*
X022726Y018221D01*
X022710Y018218D01*
X022694Y018219D01*
X022678Y018224D01*
X022664Y018232D01*
X022652Y018243D01*
X022643Y018257D01*
X022638Y018272D01*
X022636Y018288D01*
X022636Y017538D02*
X022638Y017554D01*
X022643Y017569D01*
X022652Y017583D01*
X022664Y017594D01*
X022678Y017602D01*
X022694Y017607D01*
X022710Y017608D01*
X022726Y017605D01*
X022741Y017599D01*
X022754Y017589D01*
X022764Y017576D01*
X022772Y017562D01*
X022776Y017546D01*
X022776Y017530D01*
X022772Y017514D01*
X022764Y017500D01*
X022754Y017487D01*
X022741Y017477D01*
X022726Y017471D01*
X022710Y017468D01*
X022694Y017469D01*
X022678Y017474D01*
X022664Y017482D01*
X022652Y017493D01*
X022643Y017507D01*
X022638Y017522D01*
X022636Y017538D01*
X021886Y017538D02*
X021888Y017554D01*
X021893Y017569D01*
X021902Y017583D01*
X021914Y017594D01*
X021928Y017602D01*
X021944Y017607D01*
X021960Y017608D01*
X021976Y017605D01*
X021991Y017599D01*
X022004Y017589D01*
X022014Y017576D01*
X022022Y017562D01*
X022026Y017546D01*
X022026Y017530D01*
X022022Y017514D01*
X022014Y017500D01*
X022004Y017487D01*
X021991Y017477D01*
X021976Y017471D01*
X021960Y017468D01*
X021944Y017469D01*
X021928Y017474D01*
X021914Y017482D01*
X021902Y017493D01*
X021893Y017507D01*
X021888Y017522D01*
X021886Y017538D01*
X021886Y016788D02*
X021888Y016804D01*
X021893Y016819D01*
X021902Y016833D01*
X021914Y016844D01*
X021928Y016852D01*
X021944Y016857D01*
X021960Y016858D01*
X021976Y016855D01*
X021991Y016849D01*
X022004Y016839D01*
X022014Y016826D01*
X022022Y016812D01*
X022026Y016796D01*
X022026Y016780D01*
X022022Y016764D01*
X022014Y016750D01*
X022004Y016737D01*
X021991Y016727D01*
X021976Y016721D01*
X021960Y016718D01*
X021944Y016719D01*
X021928Y016724D01*
X021914Y016732D01*
X021902Y016743D01*
X021893Y016757D01*
X021888Y016772D01*
X021886Y016788D01*
X022636Y016788D02*
X022638Y016804D01*
X022643Y016819D01*
X022652Y016833D01*
X022664Y016844D01*
X022678Y016852D01*
X022694Y016857D01*
X022710Y016858D01*
X022726Y016855D01*
X022741Y016849D01*
X022754Y016839D01*
X022764Y016826D01*
X022772Y016812D01*
X022776Y016796D01*
X022776Y016780D01*
X022772Y016764D01*
X022764Y016750D01*
X022754Y016737D01*
X022741Y016727D01*
X022726Y016721D01*
X022710Y016718D01*
X022694Y016719D01*
X022678Y016724D01*
X022664Y016732D01*
X022652Y016743D01*
X022643Y016757D01*
X022638Y016772D01*
X022636Y016788D01*
X022636Y015788D02*
X022638Y015804D01*
X022643Y015819D01*
X022652Y015833D01*
X022664Y015844D01*
X022678Y015852D01*
X022694Y015857D01*
X022710Y015858D01*
X022726Y015855D01*
X022741Y015849D01*
X022754Y015839D01*
X022764Y015826D01*
X022772Y015812D01*
X022776Y015796D01*
X022776Y015780D01*
X022772Y015764D01*
X022764Y015750D01*
X022754Y015737D01*
X022741Y015727D01*
X022726Y015721D01*
X022710Y015718D01*
X022694Y015719D01*
X022678Y015724D01*
X022664Y015732D01*
X022652Y015743D01*
X022643Y015757D01*
X022638Y015772D01*
X022636Y015788D01*
X022386Y015288D02*
X022388Y015304D01*
X022393Y015319D01*
X022402Y015333D01*
X022414Y015344D01*
X022428Y015352D01*
X022444Y015357D01*
X022460Y015358D01*
X022476Y015355D01*
X022491Y015349D01*
X022504Y015339D01*
X022514Y015326D01*
X022522Y015312D01*
X022526Y015296D01*
X022526Y015280D01*
X022522Y015264D01*
X022514Y015250D01*
X022504Y015237D01*
X022491Y015227D01*
X022476Y015221D01*
X022460Y015218D01*
X022444Y015219D01*
X022428Y015224D01*
X022414Y015232D01*
X022402Y015243D01*
X022393Y015257D01*
X022388Y015272D01*
X022386Y015288D01*
X021886Y015788D02*
X021888Y015804D01*
X021893Y015819D01*
X021902Y015833D01*
X021914Y015844D01*
X021928Y015852D01*
X021944Y015857D01*
X021960Y015858D01*
X021976Y015855D01*
X021991Y015849D01*
X022004Y015839D01*
X022014Y015826D01*
X022022Y015812D01*
X022026Y015796D01*
X022026Y015780D01*
X022022Y015764D01*
X022014Y015750D01*
X022004Y015737D01*
X021991Y015727D01*
X021976Y015721D01*
X021960Y015718D01*
X021944Y015719D01*
X021928Y015724D01*
X021914Y015732D01*
X021902Y015743D01*
X021893Y015757D01*
X021888Y015772D01*
X021886Y015788D01*
X023386Y015788D02*
X023388Y015804D01*
X023393Y015819D01*
X023402Y015833D01*
X023414Y015844D01*
X023428Y015852D01*
X023444Y015857D01*
X023460Y015858D01*
X023476Y015855D01*
X023491Y015849D01*
X023504Y015839D01*
X023514Y015826D01*
X023522Y015812D01*
X023526Y015796D01*
X023526Y015780D01*
X023522Y015764D01*
X023514Y015750D01*
X023504Y015737D01*
X023491Y015727D01*
X023476Y015721D01*
X023460Y015718D01*
X023444Y015719D01*
X023428Y015724D01*
X023414Y015732D01*
X023402Y015743D01*
X023393Y015757D01*
X023388Y015772D01*
X023386Y015788D01*
X023886Y015788D02*
X023888Y015804D01*
X023893Y015819D01*
X023902Y015833D01*
X023914Y015844D01*
X023928Y015852D01*
X023944Y015857D01*
X023960Y015858D01*
X023976Y015855D01*
X023991Y015849D01*
X024004Y015839D01*
X024014Y015826D01*
X024022Y015812D01*
X024026Y015796D01*
X024026Y015780D01*
X024022Y015764D01*
X024014Y015750D01*
X024004Y015737D01*
X023991Y015727D01*
X023976Y015721D01*
X023960Y015718D01*
X023944Y015719D01*
X023928Y015724D01*
X023914Y015732D01*
X023902Y015743D01*
X023893Y015757D01*
X023888Y015772D01*
X023886Y015788D01*
X024636Y015788D02*
X024638Y015804D01*
X024643Y015819D01*
X024652Y015833D01*
X024664Y015844D01*
X024678Y015852D01*
X024694Y015857D01*
X024710Y015858D01*
X024726Y015855D01*
X024741Y015849D01*
X024754Y015839D01*
X024764Y015826D01*
X024772Y015812D01*
X024776Y015796D01*
X024776Y015780D01*
X024772Y015764D01*
X024764Y015750D01*
X024754Y015737D01*
X024741Y015727D01*
X024726Y015721D01*
X024710Y015718D01*
X024694Y015719D01*
X024678Y015724D01*
X024664Y015732D01*
X024652Y015743D01*
X024643Y015757D01*
X024638Y015772D01*
X024636Y015788D01*
X024886Y015038D02*
X024888Y015054D01*
X024893Y015069D01*
X024902Y015083D01*
X024914Y015094D01*
X024928Y015102D01*
X024944Y015107D01*
X024960Y015108D01*
X024976Y015105D01*
X024991Y015099D01*
X025004Y015089D01*
X025014Y015076D01*
X025022Y015062D01*
X025026Y015046D01*
X025026Y015030D01*
X025022Y015014D01*
X025014Y015000D01*
X025004Y014987D01*
X024991Y014977D01*
X024976Y014971D01*
X024960Y014968D01*
X024944Y014969D01*
X024928Y014974D01*
X024914Y014982D01*
X024902Y014993D01*
X024893Y015007D01*
X024888Y015022D01*
X024886Y015038D01*
X025386Y015788D02*
X025388Y015804D01*
X025393Y015819D01*
X025402Y015833D01*
X025414Y015844D01*
X025428Y015852D01*
X025444Y015857D01*
X025460Y015858D01*
X025476Y015855D01*
X025491Y015849D01*
X025504Y015839D01*
X025514Y015826D01*
X025522Y015812D01*
X025526Y015796D01*
X025526Y015780D01*
X025522Y015764D01*
X025514Y015750D01*
X025504Y015737D01*
X025491Y015727D01*
X025476Y015721D01*
X025460Y015718D01*
X025444Y015719D01*
X025428Y015724D01*
X025414Y015732D01*
X025402Y015743D01*
X025393Y015757D01*
X025388Y015772D01*
X025386Y015788D01*
X025636Y014538D02*
X025638Y014554D01*
X025643Y014569D01*
X025652Y014583D01*
X025664Y014594D01*
X025678Y014602D01*
X025694Y014607D01*
X025710Y014608D01*
X025726Y014605D01*
X025741Y014599D01*
X025754Y014589D01*
X025764Y014576D01*
X025772Y014562D01*
X025776Y014546D01*
X025776Y014530D01*
X025772Y014514D01*
X025764Y014500D01*
X025754Y014487D01*
X025741Y014477D01*
X025726Y014471D01*
X025710Y014468D01*
X025694Y014469D01*
X025678Y014474D01*
X025664Y014482D01*
X025652Y014493D01*
X025643Y014507D01*
X025638Y014522D01*
X025636Y014538D01*
X025386Y013788D02*
X025388Y013804D01*
X025393Y013819D01*
X025402Y013833D01*
X025414Y013844D01*
X025428Y013852D01*
X025444Y013857D01*
X025460Y013858D01*
X025476Y013855D01*
X025491Y013849D01*
X025504Y013839D01*
X025514Y013826D01*
X025522Y013812D01*
X025526Y013796D01*
X025526Y013780D01*
X025522Y013764D01*
X025514Y013750D01*
X025504Y013737D01*
X025491Y013727D01*
X025476Y013721D01*
X025460Y013718D01*
X025444Y013719D01*
X025428Y013724D01*
X025414Y013732D01*
X025402Y013743D01*
X025393Y013757D01*
X025388Y013772D01*
X025386Y013788D01*
X024886Y016788D02*
X024888Y016804D01*
X024893Y016819D01*
X024902Y016833D01*
X024914Y016844D01*
X024928Y016852D01*
X024944Y016857D01*
X024960Y016858D01*
X024976Y016855D01*
X024991Y016849D01*
X025004Y016839D01*
X025014Y016826D01*
X025022Y016812D01*
X025026Y016796D01*
X025026Y016780D01*
X025022Y016764D01*
X025014Y016750D01*
X025004Y016737D01*
X024991Y016727D01*
X024976Y016721D01*
X024960Y016718D01*
X024944Y016719D01*
X024928Y016724D01*
X024914Y016732D01*
X024902Y016743D01*
X024893Y016757D01*
X024888Y016772D01*
X024886Y016788D01*
X024886Y017538D02*
X024888Y017554D01*
X024893Y017569D01*
X024902Y017583D01*
X024914Y017594D01*
X024928Y017602D01*
X024944Y017607D01*
X024960Y017608D01*
X024976Y017605D01*
X024991Y017599D01*
X025004Y017589D01*
X025014Y017576D01*
X025022Y017562D01*
X025026Y017546D01*
X025026Y017530D01*
X025022Y017514D01*
X025014Y017500D01*
X025004Y017487D01*
X024991Y017477D01*
X024976Y017471D01*
X024960Y017468D01*
X024944Y017469D01*
X024928Y017474D01*
X024914Y017482D01*
X024902Y017493D01*
X024893Y017507D01*
X024888Y017522D01*
X024886Y017538D01*
X024136Y017038D02*
X024138Y017054D01*
X024143Y017069D01*
X024152Y017083D01*
X024164Y017094D01*
X024178Y017102D01*
X024194Y017107D01*
X024210Y017108D01*
X024226Y017105D01*
X024241Y017099D01*
X024254Y017089D01*
X024264Y017076D01*
X024272Y017062D01*
X024276Y017046D01*
X024276Y017030D01*
X024272Y017014D01*
X024264Y017000D01*
X024254Y016987D01*
X024241Y016977D01*
X024226Y016971D01*
X024210Y016968D01*
X024194Y016969D01*
X024178Y016974D01*
X024164Y016982D01*
X024152Y016993D01*
X024143Y017007D01*
X024138Y017022D01*
X024136Y017038D01*
X025886Y017538D02*
X025888Y017554D01*
X025893Y017569D01*
X025902Y017583D01*
X025914Y017594D01*
X025928Y017602D01*
X025944Y017607D01*
X025960Y017608D01*
X025976Y017605D01*
X025991Y017599D01*
X026004Y017589D01*
X026014Y017576D01*
X026022Y017562D01*
X026026Y017546D01*
X026026Y017530D01*
X026022Y017514D01*
X026014Y017500D01*
X026004Y017487D01*
X025991Y017477D01*
X025976Y017471D01*
X025960Y017468D01*
X025944Y017469D01*
X025928Y017474D01*
X025914Y017482D01*
X025902Y017493D01*
X025893Y017507D01*
X025888Y017522D01*
X025886Y017538D01*
X028386Y017538D02*
X028388Y017554D01*
X028393Y017569D01*
X028402Y017583D01*
X028414Y017594D01*
X028428Y017602D01*
X028444Y017607D01*
X028460Y017608D01*
X028476Y017605D01*
X028491Y017599D01*
X028504Y017589D01*
X028514Y017576D01*
X028522Y017562D01*
X028526Y017546D01*
X028526Y017530D01*
X028522Y017514D01*
X028514Y017500D01*
X028504Y017487D01*
X028491Y017477D01*
X028476Y017471D01*
X028460Y017468D01*
X028444Y017469D01*
X028428Y017474D01*
X028414Y017482D01*
X028402Y017493D01*
X028393Y017507D01*
X028388Y017522D01*
X028386Y017538D01*
X028386Y018288D02*
X028388Y018304D01*
X028393Y018319D01*
X028402Y018333D01*
X028414Y018344D01*
X028428Y018352D01*
X028444Y018357D01*
X028460Y018358D01*
X028476Y018355D01*
X028491Y018349D01*
X028504Y018339D01*
X028514Y018326D01*
X028522Y018312D01*
X028526Y018296D01*
X028526Y018280D01*
X028522Y018264D01*
X028514Y018250D01*
X028504Y018237D01*
X028491Y018227D01*
X028476Y018221D01*
X028460Y018218D01*
X028444Y018219D01*
X028428Y018224D01*
X028414Y018232D01*
X028402Y018243D01*
X028393Y018257D01*
X028388Y018272D01*
X028386Y018288D01*
X029386Y018288D02*
X029388Y018304D01*
X029393Y018319D01*
X029402Y018333D01*
X029414Y018344D01*
X029428Y018352D01*
X029444Y018357D01*
X029460Y018358D01*
X029476Y018355D01*
X029491Y018349D01*
X029504Y018339D01*
X029514Y018326D01*
X029522Y018312D01*
X029526Y018296D01*
X029526Y018280D01*
X029522Y018264D01*
X029514Y018250D01*
X029504Y018237D01*
X029491Y018227D01*
X029476Y018221D01*
X029460Y018218D01*
X029444Y018219D01*
X029428Y018224D01*
X029414Y018232D01*
X029402Y018243D01*
X029393Y018257D01*
X029388Y018272D01*
X029386Y018288D01*
X029386Y017538D02*
X029388Y017554D01*
X029393Y017569D01*
X029402Y017583D01*
X029414Y017594D01*
X029428Y017602D01*
X029444Y017607D01*
X029460Y017608D01*
X029476Y017605D01*
X029491Y017599D01*
X029504Y017589D01*
X029514Y017576D01*
X029522Y017562D01*
X029526Y017546D01*
X029526Y017530D01*
X029522Y017514D01*
X029514Y017500D01*
X029504Y017487D01*
X029491Y017477D01*
X029476Y017471D01*
X029460Y017468D01*
X029444Y017469D01*
X029428Y017474D01*
X029414Y017482D01*
X029402Y017493D01*
X029393Y017507D01*
X029388Y017522D01*
X029386Y017538D01*
X029386Y016788D02*
X029388Y016804D01*
X029393Y016819D01*
X029402Y016833D01*
X029414Y016844D01*
X029428Y016852D01*
X029444Y016857D01*
X029460Y016858D01*
X029476Y016855D01*
X029491Y016849D01*
X029504Y016839D01*
X029514Y016826D01*
X029522Y016812D01*
X029526Y016796D01*
X029526Y016780D01*
X029522Y016764D01*
X029514Y016750D01*
X029504Y016737D01*
X029491Y016727D01*
X029476Y016721D01*
X029460Y016718D01*
X029444Y016719D01*
X029428Y016724D01*
X029414Y016732D01*
X029402Y016743D01*
X029393Y016757D01*
X029388Y016772D01*
X029386Y016788D01*
X030136Y016788D02*
X030138Y016804D01*
X030143Y016819D01*
X030152Y016833D01*
X030164Y016844D01*
X030178Y016852D01*
X030194Y016857D01*
X030210Y016858D01*
X030226Y016855D01*
X030241Y016849D01*
X030254Y016839D01*
X030264Y016826D01*
X030272Y016812D01*
X030276Y016796D01*
X030276Y016780D01*
X030272Y016764D01*
X030264Y016750D01*
X030254Y016737D01*
X030241Y016727D01*
X030226Y016721D01*
X030210Y016718D01*
X030194Y016719D01*
X030178Y016724D01*
X030164Y016732D01*
X030152Y016743D01*
X030143Y016757D01*
X030138Y016772D01*
X030136Y016788D01*
X030136Y017538D02*
X030138Y017554D01*
X030143Y017569D01*
X030152Y017583D01*
X030164Y017594D01*
X030178Y017602D01*
X030194Y017607D01*
X030210Y017608D01*
X030226Y017605D01*
X030241Y017599D01*
X030254Y017589D01*
X030264Y017576D01*
X030272Y017562D01*
X030276Y017546D01*
X030276Y017530D01*
X030272Y017514D01*
X030264Y017500D01*
X030254Y017487D01*
X030241Y017477D01*
X030226Y017471D01*
X030210Y017468D01*
X030194Y017469D01*
X030178Y017474D01*
X030164Y017482D01*
X030152Y017493D01*
X030143Y017507D01*
X030138Y017522D01*
X030136Y017538D01*
X030136Y018288D02*
X030138Y018304D01*
X030143Y018319D01*
X030152Y018333D01*
X030164Y018344D01*
X030178Y018352D01*
X030194Y018357D01*
X030210Y018358D01*
X030226Y018355D01*
X030241Y018349D01*
X030254Y018339D01*
X030264Y018326D01*
X030272Y018312D01*
X030276Y018296D01*
X030276Y018280D01*
X030272Y018264D01*
X030264Y018250D01*
X030254Y018237D01*
X030241Y018227D01*
X030226Y018221D01*
X030210Y018218D01*
X030194Y018219D01*
X030178Y018224D01*
X030164Y018232D01*
X030152Y018243D01*
X030143Y018257D01*
X030138Y018272D01*
X030136Y018288D01*
X031336Y018238D02*
X031338Y018254D01*
X031343Y018269D01*
X031352Y018283D01*
X031364Y018294D01*
X031378Y018302D01*
X031394Y018307D01*
X031410Y018308D01*
X031426Y018305D01*
X031441Y018299D01*
X031454Y018289D01*
X031464Y018276D01*
X031472Y018262D01*
X031476Y018246D01*
X031476Y018230D01*
X031472Y018214D01*
X031464Y018200D01*
X031454Y018187D01*
X031441Y018177D01*
X031426Y018171D01*
X031410Y018168D01*
X031394Y018169D01*
X031378Y018174D01*
X031364Y018182D01*
X031352Y018193D01*
X031343Y018207D01*
X031338Y018222D01*
X031336Y018238D01*
X031386Y017538D02*
X031388Y017554D01*
X031393Y017569D01*
X031402Y017583D01*
X031414Y017594D01*
X031428Y017602D01*
X031444Y017607D01*
X031460Y017608D01*
X031476Y017605D01*
X031491Y017599D01*
X031504Y017589D01*
X031514Y017576D01*
X031522Y017562D01*
X031526Y017546D01*
X031526Y017530D01*
X031522Y017514D01*
X031514Y017500D01*
X031504Y017487D01*
X031491Y017477D01*
X031476Y017471D01*
X031460Y017468D01*
X031444Y017469D01*
X031428Y017474D01*
X031414Y017482D01*
X031402Y017493D01*
X031393Y017507D01*
X031388Y017522D01*
X031386Y017538D01*
X031386Y016788D02*
X031388Y016804D01*
X031393Y016819D01*
X031402Y016833D01*
X031414Y016844D01*
X031428Y016852D01*
X031444Y016857D01*
X031460Y016858D01*
X031476Y016855D01*
X031491Y016849D01*
X031504Y016839D01*
X031514Y016826D01*
X031522Y016812D01*
X031526Y016796D01*
X031526Y016780D01*
X031522Y016764D01*
X031514Y016750D01*
X031504Y016737D01*
X031491Y016727D01*
X031476Y016721D01*
X031460Y016718D01*
X031444Y016719D01*
X031428Y016724D01*
X031414Y016732D01*
X031402Y016743D01*
X031393Y016757D01*
X031388Y016772D01*
X031386Y016788D01*
X032136Y016788D02*
X032138Y016804D01*
X032143Y016819D01*
X032152Y016833D01*
X032164Y016844D01*
X032178Y016852D01*
X032194Y016857D01*
X032210Y016858D01*
X032226Y016855D01*
X032241Y016849D01*
X032254Y016839D01*
X032264Y016826D01*
X032272Y016812D01*
X032276Y016796D01*
X032276Y016780D01*
X032272Y016764D01*
X032264Y016750D01*
X032254Y016737D01*
X032241Y016727D01*
X032226Y016721D01*
X032210Y016718D01*
X032194Y016719D01*
X032178Y016724D01*
X032164Y016732D01*
X032152Y016743D01*
X032143Y016757D01*
X032138Y016772D01*
X032136Y016788D01*
X032136Y017538D02*
X032138Y017554D01*
X032143Y017569D01*
X032152Y017583D01*
X032164Y017594D01*
X032178Y017602D01*
X032194Y017607D01*
X032210Y017608D01*
X032226Y017605D01*
X032241Y017599D01*
X032254Y017589D01*
X032264Y017576D01*
X032272Y017562D01*
X032276Y017546D01*
X032276Y017530D01*
X032272Y017514D01*
X032264Y017500D01*
X032254Y017487D01*
X032241Y017477D01*
X032226Y017471D01*
X032210Y017468D01*
X032194Y017469D01*
X032178Y017474D01*
X032164Y017482D01*
X032152Y017493D01*
X032143Y017507D01*
X032138Y017522D01*
X032136Y017538D01*
X032886Y017538D02*
X032888Y017554D01*
X032893Y017569D01*
X032902Y017583D01*
X032914Y017594D01*
X032928Y017602D01*
X032944Y017607D01*
X032960Y017608D01*
X032976Y017605D01*
X032991Y017599D01*
X033004Y017589D01*
X033014Y017576D01*
X033022Y017562D01*
X033026Y017546D01*
X033026Y017530D01*
X033022Y017514D01*
X033014Y017500D01*
X033004Y017487D01*
X032991Y017477D01*
X032976Y017471D01*
X032960Y017468D01*
X032944Y017469D01*
X032928Y017474D01*
X032914Y017482D01*
X032902Y017493D01*
X032893Y017507D01*
X032888Y017522D01*
X032886Y017538D01*
X032136Y015788D02*
X032138Y015804D01*
X032143Y015819D01*
X032152Y015833D01*
X032164Y015844D01*
X032178Y015852D01*
X032194Y015857D01*
X032210Y015858D01*
X032226Y015855D01*
X032241Y015849D01*
X032254Y015839D01*
X032264Y015826D01*
X032272Y015812D01*
X032276Y015796D01*
X032276Y015780D01*
X032272Y015764D01*
X032264Y015750D01*
X032254Y015737D01*
X032241Y015727D01*
X032226Y015721D01*
X032210Y015718D01*
X032194Y015719D01*
X032178Y015724D01*
X032164Y015732D01*
X032152Y015743D01*
X032143Y015757D01*
X032138Y015772D01*
X032136Y015788D01*
X032136Y015038D02*
X032138Y015054D01*
X032143Y015069D01*
X032152Y015083D01*
X032164Y015094D01*
X032178Y015102D01*
X032194Y015107D01*
X032210Y015108D01*
X032226Y015105D01*
X032241Y015099D01*
X032254Y015089D01*
X032264Y015076D01*
X032272Y015062D01*
X032276Y015046D01*
X032276Y015030D01*
X032272Y015014D01*
X032264Y015000D01*
X032254Y014987D01*
X032241Y014977D01*
X032226Y014971D01*
X032210Y014968D01*
X032194Y014969D01*
X032178Y014974D01*
X032164Y014982D01*
X032152Y014993D01*
X032143Y015007D01*
X032138Y015022D01*
X032136Y015038D01*
X032636Y014538D02*
X032638Y014554D01*
X032643Y014569D01*
X032652Y014583D01*
X032664Y014594D01*
X032678Y014602D01*
X032694Y014607D01*
X032710Y014608D01*
X032726Y014605D01*
X032741Y014599D01*
X032754Y014589D01*
X032764Y014576D01*
X032772Y014562D01*
X032776Y014546D01*
X032776Y014530D01*
X032772Y014514D01*
X032764Y014500D01*
X032754Y014487D01*
X032741Y014477D01*
X032726Y014471D01*
X032710Y014468D01*
X032694Y014469D01*
X032678Y014474D01*
X032664Y014482D01*
X032652Y014493D01*
X032643Y014507D01*
X032638Y014522D01*
X032636Y014538D01*
X032386Y013788D02*
X032388Y013804D01*
X032393Y013819D01*
X032402Y013833D01*
X032414Y013844D01*
X032428Y013852D01*
X032444Y013857D01*
X032460Y013858D01*
X032476Y013855D01*
X032491Y013849D01*
X032504Y013839D01*
X032514Y013826D01*
X032522Y013812D01*
X032526Y013796D01*
X032526Y013780D01*
X032522Y013764D01*
X032514Y013750D01*
X032504Y013737D01*
X032491Y013727D01*
X032476Y013721D01*
X032460Y013718D01*
X032444Y013719D01*
X032428Y013724D01*
X032414Y013732D01*
X032402Y013743D01*
X032393Y013757D01*
X032388Y013772D01*
X032386Y013788D01*
X032386Y012288D02*
X032388Y012304D01*
X032393Y012319D01*
X032402Y012333D01*
X032414Y012344D01*
X032428Y012352D01*
X032444Y012357D01*
X032460Y012358D01*
X032476Y012355D01*
X032491Y012349D01*
X032504Y012339D01*
X032514Y012326D01*
X032522Y012312D01*
X032526Y012296D01*
X032526Y012280D01*
X032522Y012264D01*
X032514Y012250D01*
X032504Y012237D01*
X032491Y012227D01*
X032476Y012221D01*
X032460Y012218D01*
X032444Y012219D01*
X032428Y012224D01*
X032414Y012232D01*
X032402Y012243D01*
X032393Y012257D01*
X032388Y012272D01*
X032386Y012288D01*
X029136Y012538D02*
X029138Y012554D01*
X029143Y012569D01*
X029152Y012583D01*
X029164Y012594D01*
X029178Y012602D01*
X029194Y012607D01*
X029210Y012608D01*
X029226Y012605D01*
X029241Y012599D01*
X029254Y012589D01*
X029264Y012576D01*
X029272Y012562D01*
X029276Y012546D01*
X029276Y012530D01*
X029272Y012514D01*
X029264Y012500D01*
X029254Y012487D01*
X029241Y012477D01*
X029226Y012471D01*
X029210Y012468D01*
X029194Y012469D01*
X029178Y012474D01*
X029164Y012482D01*
X029152Y012493D01*
X029143Y012507D01*
X029138Y012522D01*
X029136Y012538D01*
X029136Y013288D02*
X029138Y013304D01*
X029143Y013319D01*
X029152Y013333D01*
X029164Y013344D01*
X029178Y013352D01*
X029194Y013357D01*
X029210Y013358D01*
X029226Y013355D01*
X029241Y013349D01*
X029254Y013339D01*
X029264Y013326D01*
X029272Y013312D01*
X029276Y013296D01*
X029276Y013280D01*
X029272Y013264D01*
X029264Y013250D01*
X029254Y013237D01*
X029241Y013227D01*
X029226Y013221D01*
X029210Y013218D01*
X029194Y013219D01*
X029178Y013224D01*
X029164Y013232D01*
X029152Y013243D01*
X029143Y013257D01*
X029138Y013272D01*
X029136Y013288D01*
X029636Y015788D02*
X029638Y015804D01*
X029643Y015819D01*
X029652Y015833D01*
X029664Y015844D01*
X029678Y015852D01*
X029694Y015857D01*
X029710Y015858D01*
X029726Y015855D01*
X029741Y015849D01*
X029754Y015839D01*
X029764Y015826D01*
X029772Y015812D01*
X029776Y015796D01*
X029776Y015780D01*
X029772Y015764D01*
X029764Y015750D01*
X029754Y015737D01*
X029741Y015727D01*
X029726Y015721D01*
X029710Y015718D01*
X029694Y015719D01*
X029678Y015724D01*
X029664Y015732D01*
X029652Y015743D01*
X029643Y015757D01*
X029638Y015772D01*
X029636Y015788D01*
X030386Y015788D02*
X030388Y015804D01*
X030393Y015819D01*
X030402Y015833D01*
X030414Y015844D01*
X030428Y015852D01*
X030444Y015857D01*
X030460Y015858D01*
X030476Y015855D01*
X030491Y015849D01*
X030504Y015839D01*
X030514Y015826D01*
X030522Y015812D01*
X030526Y015796D01*
X030526Y015780D01*
X030522Y015764D01*
X030514Y015750D01*
X030504Y015737D01*
X030491Y015727D01*
X030476Y015721D01*
X030460Y015718D01*
X030444Y015719D01*
X030428Y015724D01*
X030414Y015732D01*
X030402Y015743D01*
X030393Y015757D01*
X030388Y015772D01*
X030386Y015788D01*
X031386Y015788D02*
X031388Y015804D01*
X031393Y015819D01*
X031402Y015833D01*
X031414Y015844D01*
X031428Y015852D01*
X031444Y015857D01*
X031460Y015858D01*
X031476Y015855D01*
X031491Y015849D01*
X031504Y015839D01*
X031514Y015826D01*
X031522Y015812D01*
X031526Y015796D01*
X031526Y015780D01*
X031522Y015764D01*
X031514Y015750D01*
X031504Y015737D01*
X031491Y015727D01*
X031476Y015721D01*
X031460Y015718D01*
X031444Y015719D01*
X031428Y015724D01*
X031414Y015732D01*
X031402Y015743D01*
X031393Y015757D01*
X031388Y015772D01*
X031386Y015788D01*
X035311Y017538D02*
X035313Y017554D01*
X035318Y017569D01*
X035327Y017583D01*
X035339Y017594D01*
X035353Y017602D01*
X035369Y017607D01*
X035385Y017608D01*
X035401Y017605D01*
X035416Y017599D01*
X035429Y017589D01*
X035439Y017576D01*
X035447Y017562D01*
X035451Y017546D01*
X035451Y017530D01*
X035447Y017514D01*
X035439Y017500D01*
X035429Y017487D01*
X035416Y017477D01*
X035401Y017471D01*
X035385Y017468D01*
X035369Y017469D01*
X035353Y017474D01*
X035339Y017482D01*
X035327Y017493D01*
X035318Y017507D01*
X035313Y017522D01*
X035311Y017538D01*
X035311Y018288D02*
X035313Y018304D01*
X035318Y018319D01*
X035327Y018333D01*
X035339Y018344D01*
X035353Y018352D01*
X035369Y018357D01*
X035385Y018358D01*
X035401Y018355D01*
X035416Y018349D01*
X035429Y018339D01*
X035439Y018326D01*
X035447Y018312D01*
X035451Y018296D01*
X035451Y018280D01*
X035447Y018264D01*
X035439Y018250D01*
X035429Y018237D01*
X035416Y018227D01*
X035401Y018221D01*
X035385Y018218D01*
X035369Y018219D01*
X035353Y018224D01*
X035339Y018232D01*
X035327Y018243D01*
X035318Y018257D01*
X035313Y018272D01*
X035311Y018288D01*
X036386Y018288D02*
X036388Y018304D01*
X036393Y018319D01*
X036402Y018333D01*
X036414Y018344D01*
X036428Y018352D01*
X036444Y018357D01*
X036460Y018358D01*
X036476Y018355D01*
X036491Y018349D01*
X036504Y018339D01*
X036514Y018326D01*
X036522Y018312D01*
X036526Y018296D01*
X036526Y018280D01*
X036522Y018264D01*
X036514Y018250D01*
X036504Y018237D01*
X036491Y018227D01*
X036476Y018221D01*
X036460Y018218D01*
X036444Y018219D01*
X036428Y018224D01*
X036414Y018232D01*
X036402Y018243D01*
X036393Y018257D01*
X036388Y018272D01*
X036386Y018288D01*
X036386Y017538D02*
X036388Y017554D01*
X036393Y017569D01*
X036402Y017583D01*
X036414Y017594D01*
X036428Y017602D01*
X036444Y017607D01*
X036460Y017608D01*
X036476Y017605D01*
X036491Y017599D01*
X036504Y017589D01*
X036514Y017576D01*
X036522Y017562D01*
X036526Y017546D01*
X036526Y017530D01*
X036522Y017514D01*
X036514Y017500D01*
X036504Y017487D01*
X036491Y017477D01*
X036476Y017471D01*
X036460Y017468D01*
X036444Y017469D01*
X036428Y017474D01*
X036414Y017482D01*
X036402Y017493D01*
X036393Y017507D01*
X036388Y017522D01*
X036386Y017538D01*
X036386Y016788D02*
X036388Y016804D01*
X036393Y016819D01*
X036402Y016833D01*
X036414Y016844D01*
X036428Y016852D01*
X036444Y016857D01*
X036460Y016858D01*
X036476Y016855D01*
X036491Y016849D01*
X036504Y016839D01*
X036514Y016826D01*
X036522Y016812D01*
X036526Y016796D01*
X036526Y016780D01*
X036522Y016764D01*
X036514Y016750D01*
X036504Y016737D01*
X036491Y016727D01*
X036476Y016721D01*
X036460Y016718D01*
X036444Y016719D01*
X036428Y016724D01*
X036414Y016732D01*
X036402Y016743D01*
X036393Y016757D01*
X036388Y016772D01*
X036386Y016788D01*
X037136Y016788D02*
X037138Y016804D01*
X037143Y016819D01*
X037152Y016833D01*
X037164Y016844D01*
X037178Y016852D01*
X037194Y016857D01*
X037210Y016858D01*
X037226Y016855D01*
X037241Y016849D01*
X037254Y016839D01*
X037264Y016826D01*
X037272Y016812D01*
X037276Y016796D01*
X037276Y016780D01*
X037272Y016764D01*
X037264Y016750D01*
X037254Y016737D01*
X037241Y016727D01*
X037226Y016721D01*
X037210Y016718D01*
X037194Y016719D01*
X037178Y016724D01*
X037164Y016732D01*
X037152Y016743D01*
X037143Y016757D01*
X037138Y016772D01*
X037136Y016788D01*
X037136Y017538D02*
X037138Y017554D01*
X037143Y017569D01*
X037152Y017583D01*
X037164Y017594D01*
X037178Y017602D01*
X037194Y017607D01*
X037210Y017608D01*
X037226Y017605D01*
X037241Y017599D01*
X037254Y017589D01*
X037264Y017576D01*
X037272Y017562D01*
X037276Y017546D01*
X037276Y017530D01*
X037272Y017514D01*
X037264Y017500D01*
X037254Y017487D01*
X037241Y017477D01*
X037226Y017471D01*
X037210Y017468D01*
X037194Y017469D01*
X037178Y017474D01*
X037164Y017482D01*
X037152Y017493D01*
X037143Y017507D01*
X037138Y017522D01*
X037136Y017538D01*
X037136Y018288D02*
X037138Y018304D01*
X037143Y018319D01*
X037152Y018333D01*
X037164Y018344D01*
X037178Y018352D01*
X037194Y018357D01*
X037210Y018358D01*
X037226Y018355D01*
X037241Y018349D01*
X037254Y018339D01*
X037264Y018326D01*
X037272Y018312D01*
X037276Y018296D01*
X037276Y018280D01*
X037272Y018264D01*
X037264Y018250D01*
X037254Y018237D01*
X037241Y018227D01*
X037226Y018221D01*
X037210Y018218D01*
X037194Y018219D01*
X037178Y018224D01*
X037164Y018232D01*
X037152Y018243D01*
X037143Y018257D01*
X037138Y018272D01*
X037136Y018288D01*
X038386Y017538D02*
X038388Y017554D01*
X038393Y017569D01*
X038402Y017583D01*
X038414Y017594D01*
X038428Y017602D01*
X038444Y017607D01*
X038460Y017608D01*
X038476Y017605D01*
X038491Y017599D01*
X038504Y017589D01*
X038514Y017576D01*
X038522Y017562D01*
X038526Y017546D01*
X038526Y017530D01*
X038522Y017514D01*
X038514Y017500D01*
X038504Y017487D01*
X038491Y017477D01*
X038476Y017471D01*
X038460Y017468D01*
X038444Y017469D01*
X038428Y017474D01*
X038414Y017482D01*
X038402Y017493D01*
X038393Y017507D01*
X038388Y017522D01*
X038386Y017538D01*
X038386Y016788D02*
X038388Y016804D01*
X038393Y016819D01*
X038402Y016833D01*
X038414Y016844D01*
X038428Y016852D01*
X038444Y016857D01*
X038460Y016858D01*
X038476Y016855D01*
X038491Y016849D01*
X038504Y016839D01*
X038514Y016826D01*
X038522Y016812D01*
X038526Y016796D01*
X038526Y016780D01*
X038522Y016764D01*
X038514Y016750D01*
X038504Y016737D01*
X038491Y016727D01*
X038476Y016721D01*
X038460Y016718D01*
X038444Y016719D01*
X038428Y016724D01*
X038414Y016732D01*
X038402Y016743D01*
X038393Y016757D01*
X038388Y016772D01*
X038386Y016788D01*
X039136Y016788D02*
X039138Y016804D01*
X039143Y016819D01*
X039152Y016833D01*
X039164Y016844D01*
X039178Y016852D01*
X039194Y016857D01*
X039210Y016858D01*
X039226Y016855D01*
X039241Y016849D01*
X039254Y016839D01*
X039264Y016826D01*
X039272Y016812D01*
X039276Y016796D01*
X039276Y016780D01*
X039272Y016764D01*
X039264Y016750D01*
X039254Y016737D01*
X039241Y016727D01*
X039226Y016721D01*
X039210Y016718D01*
X039194Y016719D01*
X039178Y016724D01*
X039164Y016732D01*
X039152Y016743D01*
X039143Y016757D01*
X039138Y016772D01*
X039136Y016788D01*
X039136Y017538D02*
X039138Y017554D01*
X039143Y017569D01*
X039152Y017583D01*
X039164Y017594D01*
X039178Y017602D01*
X039194Y017607D01*
X039210Y017608D01*
X039226Y017605D01*
X039241Y017599D01*
X039254Y017589D01*
X039264Y017576D01*
X039272Y017562D01*
X039276Y017546D01*
X039276Y017530D01*
X039272Y017514D01*
X039264Y017500D01*
X039254Y017487D01*
X039241Y017477D01*
X039226Y017471D01*
X039210Y017468D01*
X039194Y017469D01*
X039178Y017474D01*
X039164Y017482D01*
X039152Y017493D01*
X039143Y017507D01*
X039138Y017522D01*
X039136Y017538D01*
X039886Y017538D02*
X039888Y017554D01*
X039893Y017569D01*
X039902Y017583D01*
X039914Y017594D01*
X039928Y017602D01*
X039944Y017607D01*
X039960Y017608D01*
X039976Y017605D01*
X039991Y017599D01*
X040004Y017589D01*
X040014Y017576D01*
X040022Y017562D01*
X040026Y017546D01*
X040026Y017530D01*
X040022Y017514D01*
X040014Y017500D01*
X040004Y017487D01*
X039991Y017477D01*
X039976Y017471D01*
X039960Y017468D01*
X039944Y017469D01*
X039928Y017474D01*
X039914Y017482D01*
X039902Y017493D01*
X039893Y017507D01*
X039888Y017522D01*
X039886Y017538D01*
X039886Y018163D02*
X039888Y018179D01*
X039893Y018194D01*
X039902Y018208D01*
X039914Y018219D01*
X039928Y018227D01*
X039944Y018232D01*
X039960Y018233D01*
X039976Y018230D01*
X039991Y018224D01*
X040004Y018214D01*
X040014Y018201D01*
X040022Y018187D01*
X040026Y018171D01*
X040026Y018155D01*
X040022Y018139D01*
X040014Y018125D01*
X040004Y018112D01*
X039991Y018102D01*
X039976Y018096D01*
X039960Y018093D01*
X039944Y018094D01*
X039928Y018099D01*
X039914Y018107D01*
X039902Y018118D01*
X039893Y018132D01*
X039888Y018147D01*
X039886Y018163D01*
X039136Y015788D02*
X039138Y015804D01*
X039143Y015819D01*
X039152Y015833D01*
X039164Y015844D01*
X039178Y015852D01*
X039194Y015857D01*
X039210Y015858D01*
X039226Y015855D01*
X039241Y015849D01*
X039254Y015839D01*
X039264Y015826D01*
X039272Y015812D01*
X039276Y015796D01*
X039276Y015780D01*
X039272Y015764D01*
X039264Y015750D01*
X039254Y015737D01*
X039241Y015727D01*
X039226Y015721D01*
X039210Y015718D01*
X039194Y015719D01*
X039178Y015724D01*
X039164Y015732D01*
X039152Y015743D01*
X039143Y015757D01*
X039138Y015772D01*
X039136Y015788D01*
X038386Y015788D02*
X038388Y015804D01*
X038393Y015819D01*
X038402Y015833D01*
X038414Y015844D01*
X038428Y015852D01*
X038444Y015857D01*
X038460Y015858D01*
X038476Y015855D01*
X038491Y015849D01*
X038504Y015839D01*
X038514Y015826D01*
X038522Y015812D01*
X038526Y015796D01*
X038526Y015780D01*
X038522Y015764D01*
X038514Y015750D01*
X038504Y015737D01*
X038491Y015727D01*
X038476Y015721D01*
X038460Y015718D01*
X038444Y015719D01*
X038428Y015724D01*
X038414Y015732D01*
X038402Y015743D01*
X038393Y015757D01*
X038388Y015772D01*
X038386Y015788D01*
X037386Y015788D02*
X037388Y015804D01*
X037393Y015819D01*
X037402Y015833D01*
X037414Y015844D01*
X037428Y015852D01*
X037444Y015857D01*
X037460Y015858D01*
X037476Y015855D01*
X037491Y015849D01*
X037504Y015839D01*
X037514Y015826D01*
X037522Y015812D01*
X037526Y015796D01*
X037526Y015780D01*
X037522Y015764D01*
X037514Y015750D01*
X037504Y015737D01*
X037491Y015727D01*
X037476Y015721D01*
X037460Y015718D01*
X037444Y015719D01*
X037428Y015724D01*
X037414Y015732D01*
X037402Y015743D01*
X037393Y015757D01*
X037388Y015772D01*
X037386Y015788D01*
X037011Y015313D02*
X037013Y015329D01*
X037018Y015344D01*
X037027Y015358D01*
X037039Y015369D01*
X037053Y015377D01*
X037069Y015382D01*
X037085Y015383D01*
X037101Y015380D01*
X037116Y015374D01*
X037129Y015364D01*
X037139Y015351D01*
X037147Y015337D01*
X037151Y015321D01*
X037151Y015305D01*
X037147Y015289D01*
X037139Y015275D01*
X037129Y015262D01*
X037116Y015252D01*
X037101Y015246D01*
X037085Y015243D01*
X037069Y015244D01*
X037053Y015249D01*
X037039Y015257D01*
X037027Y015268D01*
X037018Y015282D01*
X037013Y015297D01*
X037011Y015313D01*
X036636Y015788D02*
X036638Y015804D01*
X036643Y015819D01*
X036652Y015833D01*
X036664Y015844D01*
X036678Y015852D01*
X036694Y015857D01*
X036710Y015858D01*
X036726Y015855D01*
X036741Y015849D01*
X036754Y015839D01*
X036764Y015826D01*
X036772Y015812D01*
X036776Y015796D01*
X036776Y015780D01*
X036772Y015764D01*
X036764Y015750D01*
X036754Y015737D01*
X036741Y015727D01*
X036726Y015721D01*
X036710Y015718D01*
X036694Y015719D01*
X036678Y015724D01*
X036664Y015732D01*
X036652Y015743D01*
X036643Y015757D01*
X036638Y015772D01*
X036636Y015788D01*
X036136Y013288D02*
X036138Y013304D01*
X036143Y013319D01*
X036152Y013333D01*
X036164Y013344D01*
X036178Y013352D01*
X036194Y013357D01*
X036210Y013358D01*
X036226Y013355D01*
X036241Y013349D01*
X036254Y013339D01*
X036264Y013326D01*
X036272Y013312D01*
X036276Y013296D01*
X036276Y013280D01*
X036272Y013264D01*
X036264Y013250D01*
X036254Y013237D01*
X036241Y013227D01*
X036226Y013221D01*
X036210Y013218D01*
X036194Y013219D01*
X036178Y013224D01*
X036164Y013232D01*
X036152Y013243D01*
X036143Y013257D01*
X036138Y013272D01*
X036136Y013288D01*
X036136Y012538D02*
X036138Y012554D01*
X036143Y012569D01*
X036152Y012583D01*
X036164Y012594D01*
X036178Y012602D01*
X036194Y012607D01*
X036210Y012608D01*
X036226Y012605D01*
X036241Y012599D01*
X036254Y012589D01*
X036264Y012576D01*
X036272Y012562D01*
X036276Y012546D01*
X036276Y012530D01*
X036272Y012514D01*
X036264Y012500D01*
X036254Y012487D01*
X036241Y012477D01*
X036226Y012471D01*
X036210Y012468D01*
X036194Y012469D01*
X036178Y012474D01*
X036164Y012482D01*
X036152Y012493D01*
X036143Y012507D01*
X036138Y012522D01*
X036136Y012538D01*
X039136Y015038D02*
X039138Y015054D01*
X039143Y015069D01*
X039152Y015083D01*
X039164Y015094D01*
X039178Y015102D01*
X039194Y015107D01*
X039210Y015108D01*
X039226Y015105D01*
X039241Y015099D01*
X039254Y015089D01*
X039264Y015076D01*
X039272Y015062D01*
X039276Y015046D01*
X039276Y015030D01*
X039272Y015014D01*
X039264Y015000D01*
X039254Y014987D01*
X039241Y014977D01*
X039226Y014971D01*
X039210Y014968D01*
X039194Y014969D01*
X039178Y014974D01*
X039164Y014982D01*
X039152Y014993D01*
X039143Y015007D01*
X039138Y015022D01*
X039136Y015038D01*
X039386Y014538D02*
X039388Y014554D01*
X039393Y014569D01*
X039402Y014583D01*
X039414Y014594D01*
X039428Y014602D01*
X039444Y014607D01*
X039460Y014608D01*
X039476Y014605D01*
X039491Y014599D01*
X039504Y014589D01*
X039514Y014576D01*
X039522Y014562D01*
X039526Y014546D01*
X039526Y014530D01*
X039522Y014514D01*
X039514Y014500D01*
X039504Y014487D01*
X039491Y014477D01*
X039476Y014471D01*
X039460Y014468D01*
X039444Y014469D01*
X039428Y014474D01*
X039414Y014482D01*
X039402Y014493D01*
X039393Y014507D01*
X039388Y014522D01*
X039386Y014538D01*
X039386Y013788D02*
X039388Y013804D01*
X039393Y013819D01*
X039402Y013833D01*
X039414Y013844D01*
X039428Y013852D01*
X039444Y013857D01*
X039460Y013858D01*
X039476Y013855D01*
X039491Y013849D01*
X039504Y013839D01*
X039514Y013826D01*
X039522Y013812D01*
X039526Y013796D01*
X039526Y013780D01*
X039522Y013764D01*
X039514Y013750D01*
X039504Y013737D01*
X039491Y013727D01*
X039476Y013721D01*
X039460Y013718D01*
X039444Y013719D01*
X039428Y013724D01*
X039414Y013732D01*
X039402Y013743D01*
X039393Y013757D01*
X039388Y013772D01*
X039386Y013788D01*
X039386Y013038D02*
X039388Y013054D01*
X039393Y013069D01*
X039402Y013083D01*
X039414Y013094D01*
X039428Y013102D01*
X039444Y013107D01*
X039460Y013108D01*
X039476Y013105D01*
X039491Y013099D01*
X039504Y013089D01*
X039514Y013076D01*
X039522Y013062D01*
X039526Y013046D01*
X039526Y013030D01*
X039522Y013014D01*
X039514Y013000D01*
X039504Y012987D01*
X039491Y012977D01*
X039476Y012971D01*
X039460Y012968D01*
X039444Y012969D01*
X039428Y012974D01*
X039414Y012982D01*
X039402Y012993D01*
X039393Y013007D01*
X039388Y013022D01*
X039386Y013038D01*
X039386Y012288D02*
X039388Y012304D01*
X039393Y012319D01*
X039402Y012333D01*
X039414Y012344D01*
X039428Y012352D01*
X039444Y012357D01*
X039460Y012358D01*
X039476Y012355D01*
X039491Y012349D01*
X039504Y012339D01*
X039514Y012326D01*
X039522Y012312D01*
X039526Y012296D01*
X039526Y012280D01*
X039522Y012264D01*
X039514Y012250D01*
X039504Y012237D01*
X039491Y012227D01*
X039476Y012221D01*
X039460Y012218D01*
X039444Y012219D01*
X039428Y012224D01*
X039414Y012232D01*
X039402Y012243D01*
X039393Y012257D01*
X039388Y012272D01*
X039386Y012288D01*
X043136Y012588D02*
X043138Y012604D01*
X043143Y012619D01*
X043152Y012633D01*
X043164Y012644D01*
X043178Y012652D01*
X043194Y012657D01*
X043210Y012658D01*
X043226Y012655D01*
X043241Y012649D01*
X043254Y012639D01*
X043264Y012626D01*
X043272Y012612D01*
X043276Y012596D01*
X043276Y012580D01*
X043272Y012564D01*
X043264Y012550D01*
X043254Y012537D01*
X043241Y012527D01*
X043226Y012521D01*
X043210Y012518D01*
X043194Y012519D01*
X043178Y012524D01*
X043164Y012532D01*
X043152Y012543D01*
X043143Y012557D01*
X043138Y012572D01*
X043136Y012588D01*
X043136Y013288D02*
X043138Y013304D01*
X043143Y013319D01*
X043152Y013333D01*
X043164Y013344D01*
X043178Y013352D01*
X043194Y013357D01*
X043210Y013358D01*
X043226Y013355D01*
X043241Y013349D01*
X043254Y013339D01*
X043264Y013326D01*
X043272Y013312D01*
X043276Y013296D01*
X043276Y013280D01*
X043272Y013264D01*
X043264Y013250D01*
X043254Y013237D01*
X043241Y013227D01*
X043226Y013221D01*
X043210Y013218D01*
X043194Y013219D01*
X043178Y013224D01*
X043164Y013232D01*
X043152Y013243D01*
X043143Y013257D01*
X043138Y013272D01*
X043136Y013288D01*
X043136Y014038D02*
X043138Y014054D01*
X043143Y014069D01*
X043152Y014083D01*
X043164Y014094D01*
X043178Y014102D01*
X043194Y014107D01*
X043210Y014108D01*
X043226Y014105D01*
X043241Y014099D01*
X043254Y014089D01*
X043264Y014076D01*
X043272Y014062D01*
X043276Y014046D01*
X043276Y014030D01*
X043272Y014014D01*
X043264Y014000D01*
X043254Y013987D01*
X043241Y013977D01*
X043226Y013971D01*
X043210Y013968D01*
X043194Y013969D01*
X043178Y013974D01*
X043164Y013982D01*
X043152Y013993D01*
X043143Y014007D01*
X043138Y014022D01*
X043136Y014038D01*
X043636Y014538D02*
X043638Y014554D01*
X043643Y014569D01*
X043652Y014583D01*
X043664Y014594D01*
X043678Y014602D01*
X043694Y014607D01*
X043710Y014608D01*
X043726Y014605D01*
X043741Y014599D01*
X043754Y014589D01*
X043764Y014576D01*
X043772Y014562D01*
X043776Y014546D01*
X043776Y014530D01*
X043772Y014514D01*
X043764Y014500D01*
X043754Y014487D01*
X043741Y014477D01*
X043726Y014471D01*
X043710Y014468D01*
X043694Y014469D01*
X043678Y014474D01*
X043664Y014482D01*
X043652Y014493D01*
X043643Y014507D01*
X043638Y014522D01*
X043636Y014538D01*
X043886Y014038D02*
X043888Y014054D01*
X043893Y014069D01*
X043902Y014083D01*
X043914Y014094D01*
X043928Y014102D01*
X043944Y014107D01*
X043960Y014108D01*
X043976Y014105D01*
X043991Y014099D01*
X044004Y014089D01*
X044014Y014076D01*
X044022Y014062D01*
X044026Y014046D01*
X044026Y014030D01*
X044022Y014014D01*
X044014Y014000D01*
X044004Y013987D01*
X043991Y013977D01*
X043976Y013971D01*
X043960Y013968D01*
X043944Y013969D01*
X043928Y013974D01*
X043914Y013982D01*
X043902Y013993D01*
X043893Y014007D01*
X043888Y014022D01*
X043886Y014038D01*
X043561Y015588D02*
X043563Y015604D01*
X043568Y015619D01*
X043577Y015633D01*
X043589Y015644D01*
X043603Y015652D01*
X043619Y015657D01*
X043635Y015658D01*
X043651Y015655D01*
X043666Y015649D01*
X043679Y015639D01*
X043689Y015626D01*
X043697Y015612D01*
X043701Y015596D01*
X043701Y015580D01*
X043697Y015564D01*
X043689Y015550D01*
X043679Y015537D01*
X043666Y015527D01*
X043651Y015521D01*
X043635Y015518D01*
X043619Y015519D01*
X043603Y015524D01*
X043589Y015532D01*
X043577Y015543D01*
X043568Y015557D01*
X043563Y015572D01*
X043561Y015588D01*
X043386Y016788D02*
X043388Y016804D01*
X043393Y016819D01*
X043402Y016833D01*
X043414Y016844D01*
X043428Y016852D01*
X043444Y016857D01*
X043460Y016858D01*
X043476Y016855D01*
X043491Y016849D01*
X043504Y016839D01*
X043514Y016826D01*
X043522Y016812D01*
X043526Y016796D01*
X043526Y016780D01*
X043522Y016764D01*
X043514Y016750D01*
X043504Y016737D01*
X043491Y016727D01*
X043476Y016721D01*
X043460Y016718D01*
X043444Y016719D01*
X043428Y016724D01*
X043414Y016732D01*
X043402Y016743D01*
X043393Y016757D01*
X043388Y016772D01*
X043386Y016788D01*
X043386Y017538D02*
X043388Y017554D01*
X043393Y017569D01*
X043402Y017583D01*
X043414Y017594D01*
X043428Y017602D01*
X043444Y017607D01*
X043460Y017608D01*
X043476Y017605D01*
X043491Y017599D01*
X043504Y017589D01*
X043514Y017576D01*
X043522Y017562D01*
X043526Y017546D01*
X043526Y017530D01*
X043522Y017514D01*
X043514Y017500D01*
X043504Y017487D01*
X043491Y017477D01*
X043476Y017471D01*
X043460Y017468D01*
X043444Y017469D01*
X043428Y017474D01*
X043414Y017482D01*
X043402Y017493D01*
X043393Y017507D01*
X043388Y017522D01*
X043386Y017538D01*
X043386Y018288D02*
X043388Y018304D01*
X043393Y018319D01*
X043402Y018333D01*
X043414Y018344D01*
X043428Y018352D01*
X043444Y018357D01*
X043460Y018358D01*
X043476Y018355D01*
X043491Y018349D01*
X043504Y018339D01*
X043514Y018326D01*
X043522Y018312D01*
X043526Y018296D01*
X043526Y018280D01*
X043522Y018264D01*
X043514Y018250D01*
X043504Y018237D01*
X043491Y018227D01*
X043476Y018221D01*
X043460Y018218D01*
X043444Y018219D01*
X043428Y018224D01*
X043414Y018232D01*
X043402Y018243D01*
X043393Y018257D01*
X043388Y018272D01*
X043386Y018288D01*
X042511Y018863D02*
X042513Y018879D01*
X042518Y018894D01*
X042527Y018908D01*
X042539Y018919D01*
X042553Y018927D01*
X042569Y018932D01*
X042585Y018933D01*
X042601Y018930D01*
X042616Y018924D01*
X042629Y018914D01*
X042639Y018901D01*
X042647Y018887D01*
X042651Y018871D01*
X042651Y018855D01*
X042647Y018839D01*
X042639Y018825D01*
X042629Y018812D01*
X042616Y018802D01*
X042601Y018796D01*
X042585Y018793D01*
X042569Y018794D01*
X042553Y018799D01*
X042539Y018807D01*
X042527Y018818D01*
X042518Y018832D01*
X042513Y018847D01*
X042511Y018863D01*
X042311Y018288D02*
X042313Y018304D01*
X042318Y018319D01*
X042327Y018333D01*
X042339Y018344D01*
X042353Y018352D01*
X042369Y018357D01*
X042385Y018358D01*
X042401Y018355D01*
X042416Y018349D01*
X042429Y018339D01*
X042439Y018326D01*
X042447Y018312D01*
X042451Y018296D01*
X042451Y018280D01*
X042447Y018264D01*
X042439Y018250D01*
X042429Y018237D01*
X042416Y018227D01*
X042401Y018221D01*
X042385Y018218D01*
X042369Y018219D01*
X042353Y018224D01*
X042339Y018232D01*
X042327Y018243D01*
X042318Y018257D01*
X042313Y018272D01*
X042311Y018288D01*
X042311Y017538D02*
X042313Y017554D01*
X042318Y017569D01*
X042327Y017583D01*
X042339Y017594D01*
X042353Y017602D01*
X042369Y017607D01*
X042385Y017608D01*
X042401Y017605D01*
X042416Y017599D01*
X042429Y017589D01*
X042439Y017576D01*
X042447Y017562D01*
X042451Y017546D01*
X042451Y017530D01*
X042447Y017514D01*
X042439Y017500D01*
X042429Y017487D01*
X042416Y017477D01*
X042401Y017471D01*
X042385Y017468D01*
X042369Y017469D01*
X042353Y017474D01*
X042339Y017482D01*
X042327Y017493D01*
X042318Y017507D01*
X042313Y017522D01*
X042311Y017538D01*
X021386Y013288D02*
X021388Y013304D01*
X021393Y013319D01*
X021402Y013333D01*
X021414Y013344D01*
X021428Y013352D01*
X021444Y013357D01*
X021460Y013358D01*
X021476Y013355D01*
X021491Y013349D01*
X021504Y013339D01*
X021514Y013326D01*
X021522Y013312D01*
X021526Y013296D01*
X021526Y013280D01*
X021522Y013264D01*
X021514Y013250D01*
X021504Y013237D01*
X021491Y013227D01*
X021476Y013221D01*
X021460Y013218D01*
X021444Y013219D01*
X021428Y013224D01*
X021414Y013232D01*
X021402Y013243D01*
X021393Y013257D01*
X021388Y013272D01*
X021386Y013288D01*
X021386Y012538D02*
X021388Y012554D01*
X021393Y012569D01*
X021402Y012583D01*
X021414Y012594D01*
X021428Y012602D01*
X021444Y012607D01*
X021460Y012608D01*
X021476Y012605D01*
X021491Y012599D01*
X021504Y012589D01*
X021514Y012576D01*
X021522Y012562D01*
X021526Y012546D01*
X021526Y012530D01*
X021522Y012514D01*
X021514Y012500D01*
X021504Y012487D01*
X021491Y012477D01*
X021476Y012471D01*
X021460Y012468D01*
X021444Y012469D01*
X021428Y012474D01*
X021414Y012482D01*
X021402Y012493D01*
X021393Y012507D01*
X021388Y012522D01*
X021386Y012538D01*
X021386Y011788D02*
X021388Y011804D01*
X021393Y011819D01*
X021402Y011833D01*
X021414Y011844D01*
X021428Y011852D01*
X021444Y011857D01*
X021460Y011858D01*
X021476Y011855D01*
X021491Y011849D01*
X021504Y011839D01*
X021514Y011826D01*
X021522Y011812D01*
X021526Y011796D01*
X021526Y011780D01*
X021522Y011764D01*
X021514Y011750D01*
X021504Y011737D01*
X021491Y011727D01*
X021476Y011721D01*
X021460Y011718D01*
X021444Y011719D01*
X021428Y011724D01*
X021414Y011732D01*
X021402Y011743D01*
X021393Y011757D01*
X021388Y011772D01*
X021386Y011788D01*
D11*
X017506Y035338D03*
X017506Y036338D03*
X016506Y036338D03*
X016506Y035338D03*
X015506Y035338D03*
X015506Y036338D03*
X022706Y036788D03*
X023706Y036788D03*
X024706Y036788D03*
X024706Y035788D03*
X023706Y035788D03*
X022706Y035788D03*
D12*
X024443Y038488D03*
X025269Y038488D03*
X027156Y038826D03*
X027156Y038000D03*
X024194Y043738D03*
X023368Y043738D03*
X019369Y037663D03*
X018543Y037663D03*
X016119Y037538D03*
X015293Y037538D03*
X010706Y037828D03*
X010706Y038655D03*
X008362Y037461D03*
X008362Y036538D03*
X007536Y036538D03*
X007536Y037461D03*
X017668Y031313D03*
X018494Y031313D03*
X018494Y030288D03*
X017668Y030288D03*
D13*
X016664Y029569D02*
X016498Y029569D01*
X016498Y029657D01*
X016664Y029657D01*
X016664Y029569D01*
X016664Y028869D02*
X016498Y028869D01*
X016498Y028957D01*
X016664Y028957D01*
X016664Y028869D01*
X016014Y028957D02*
X015848Y028957D01*
X016014Y028957D02*
X016014Y028869D01*
X015848Y028869D01*
X015848Y028957D01*
X015848Y029657D02*
X016014Y029657D01*
X016014Y029569D01*
X015848Y029569D01*
X015848Y029657D01*
X013914Y029569D02*
X013748Y029569D01*
X013748Y029657D01*
X013914Y029657D01*
X013914Y029569D01*
X013914Y028869D02*
X013748Y028869D01*
X013748Y028957D01*
X013914Y028957D01*
X013914Y028869D01*
X013264Y028869D02*
X013098Y028869D01*
X013098Y028957D01*
X013264Y028957D01*
X013264Y028869D01*
X013264Y029569D02*
X013098Y029569D01*
X013098Y029657D01*
X013264Y029657D01*
X013264Y029569D01*
X012614Y029569D02*
X012448Y029569D01*
X012448Y029657D01*
X012614Y029657D01*
X012614Y029569D01*
X012614Y028869D02*
X012448Y028869D01*
X012448Y028957D01*
X012614Y028957D01*
X012614Y028869D01*
X012937Y033505D02*
X012937Y033671D01*
X013025Y033671D01*
X013025Y033505D01*
X012937Y033505D01*
X013637Y033505D02*
X013637Y033671D01*
X013725Y033671D01*
X013725Y033505D01*
X013637Y033505D01*
X017473Y033057D02*
X017639Y033057D01*
X017639Y032969D01*
X017473Y032969D01*
X017473Y033057D01*
X017473Y032357D02*
X017639Y032357D01*
X017639Y032269D01*
X017473Y032269D01*
X017473Y032357D01*
X019573Y035594D02*
X019739Y035594D01*
X019573Y035594D02*
X019573Y035682D01*
X019739Y035682D01*
X019739Y035594D01*
X019739Y036294D02*
X019573Y036294D01*
X019573Y036382D01*
X019739Y036382D01*
X019739Y036294D01*
X023171Y034488D02*
X023171Y034322D01*
X023171Y034488D02*
X023259Y034488D01*
X023259Y034322D01*
X023171Y034322D01*
X023171Y033837D02*
X023171Y033671D01*
X023171Y033837D02*
X023259Y033837D01*
X023259Y033671D01*
X023171Y033671D01*
X022699Y033146D02*
X022699Y032980D01*
X022699Y033146D02*
X022787Y033146D01*
X022787Y032980D01*
X022699Y032980D01*
X021999Y032980D02*
X021999Y033146D01*
X022087Y033146D01*
X022087Y032980D01*
X021999Y032980D01*
X022087Y031096D02*
X022087Y030930D01*
X021999Y030930D01*
X021999Y031096D01*
X022087Y031096D01*
X022787Y031096D02*
X022787Y030930D01*
X022699Y030930D01*
X022699Y031096D01*
X022787Y031096D01*
X023871Y033671D02*
X023871Y033837D01*
X023959Y033837D01*
X023959Y033671D01*
X023871Y033671D01*
X023871Y034322D02*
X023871Y034488D01*
X023959Y034488D01*
X023959Y034322D01*
X023871Y034322D01*
X028087Y035955D02*
X028087Y036121D01*
X028175Y036121D01*
X028175Y035955D01*
X028087Y035955D01*
X028787Y035955D02*
X028787Y036121D01*
X028875Y036121D01*
X028875Y035955D01*
X028787Y035955D01*
X031673Y035596D02*
X031839Y035596D01*
X031839Y035508D01*
X031673Y035508D01*
X031673Y035596D01*
X032317Y035596D02*
X032483Y035596D01*
X032483Y035508D01*
X032317Y035508D01*
X032317Y035596D01*
X032317Y034896D02*
X032483Y034896D01*
X032483Y034808D01*
X032317Y034808D01*
X032317Y034896D01*
X031839Y034896D02*
X031673Y034896D01*
X031839Y034896D02*
X031839Y034808D01*
X031673Y034808D01*
X031673Y034896D01*
X030116Y027170D02*
X029950Y027170D01*
X030116Y027170D02*
X030116Y027082D01*
X029950Y027082D01*
X029950Y027170D01*
X029950Y026470D02*
X030116Y026470D01*
X030116Y026382D01*
X029950Y026382D01*
X029950Y026470D01*
D14*
X029869Y028513D03*
X030066Y028513D03*
X030263Y028513D03*
X030459Y028513D03*
X030656Y028513D03*
X030853Y028513D03*
X029672Y028513D03*
X029475Y028513D03*
X029278Y028513D03*
X029082Y028513D03*
X028885Y028513D03*
X028688Y028513D03*
X028491Y028513D03*
X028294Y028513D03*
X028097Y028513D03*
X027900Y028513D03*
X027704Y028513D03*
X027507Y028513D03*
X027310Y028513D03*
X027113Y028513D03*
X026916Y028513D03*
X026719Y028513D03*
X026522Y028513D03*
X026326Y028513D03*
X026129Y028513D03*
X026129Y034813D03*
X026326Y034813D03*
X026522Y034813D03*
X026719Y034813D03*
X026916Y034813D03*
X027113Y034813D03*
X027310Y034813D03*
X027507Y034813D03*
X027704Y034813D03*
X027900Y034813D03*
X028097Y034813D03*
X028294Y034813D03*
X028491Y034813D03*
X028688Y034813D03*
X028885Y034813D03*
X029082Y034813D03*
X029278Y034813D03*
X029475Y034813D03*
X029672Y034813D03*
X029869Y034813D03*
X030066Y034813D03*
X030263Y034813D03*
X030459Y034813D03*
X030656Y034813D03*
X030853Y034813D03*
D15*
X031641Y034025D03*
X031641Y033828D03*
X031641Y033631D03*
X031641Y033435D03*
X031641Y033238D03*
X031641Y033041D03*
X031641Y032844D03*
X031641Y032647D03*
X031641Y032450D03*
X031641Y032254D03*
X031641Y032057D03*
X031641Y031860D03*
X031641Y031663D03*
X031641Y031466D03*
X031641Y031269D03*
X031641Y031072D03*
X031641Y030876D03*
X031641Y030679D03*
X031641Y030482D03*
X031641Y030285D03*
X031641Y030088D03*
X031641Y029891D03*
X031641Y029694D03*
X031641Y029498D03*
X031641Y029301D03*
X025341Y029301D03*
X025341Y029498D03*
X025341Y029694D03*
X025341Y029891D03*
X025341Y030088D03*
X025341Y030285D03*
X025341Y030482D03*
X025341Y030679D03*
X025341Y030876D03*
X025341Y031072D03*
X025341Y031269D03*
X025341Y031466D03*
X025341Y031663D03*
X025341Y031860D03*
X025341Y032057D03*
X025341Y032254D03*
X025341Y032450D03*
X025341Y032647D03*
X025341Y032844D03*
X025341Y033041D03*
X025341Y033238D03*
X025341Y033435D03*
X025341Y033631D03*
X025341Y033828D03*
X025341Y034025D03*
D16*
X011185Y032155D03*
X010398Y032155D03*
X010398Y031171D03*
X011185Y031171D03*
D17*
X009331Y029301D03*
X009331Y034025D03*
D18*
X010968Y035385D03*
X010968Y036920D03*
D19*
X018756Y036363D03*
X018756Y035763D03*
D20*
X018756Y036063D03*
D21*
X015987Y033078D02*
X015953Y033078D01*
X015987Y033078D02*
X015987Y032878D01*
X015953Y032878D01*
X015953Y033078D01*
X015953Y033013D02*
X015987Y033013D01*
X015790Y033078D02*
X015756Y033078D01*
X015790Y033078D02*
X015790Y032878D01*
X015756Y032878D01*
X015756Y033078D01*
X015756Y033013D02*
X015790Y033013D01*
X015593Y033078D02*
X015559Y033078D01*
X015593Y033078D02*
X015593Y032878D01*
X015559Y032878D01*
X015559Y033078D01*
X015559Y033013D02*
X015593Y033013D01*
X015396Y033078D02*
X015362Y033078D01*
X015396Y033078D02*
X015396Y032878D01*
X015362Y032878D01*
X015362Y033078D01*
X015362Y033013D02*
X015396Y033013D01*
X015200Y033078D02*
X015166Y033078D01*
X015200Y033078D02*
X015200Y032878D01*
X015166Y032878D01*
X015166Y033078D01*
X015166Y033013D02*
X015200Y033013D01*
X015003Y033078D02*
X014969Y033078D01*
X015003Y033078D02*
X015003Y032878D01*
X014969Y032878D01*
X014969Y033078D01*
X014969Y033013D02*
X015003Y033013D01*
X014806Y033078D02*
X014772Y033078D01*
X014806Y033078D02*
X014806Y032878D01*
X014772Y032878D01*
X014772Y033078D01*
X014772Y033013D02*
X014806Y033013D01*
X014609Y033078D02*
X014575Y033078D01*
X014609Y033078D02*
X014609Y032878D01*
X014575Y032878D01*
X014575Y033078D01*
X014575Y033013D02*
X014609Y033013D01*
X014216Y032719D02*
X014216Y032685D01*
X014216Y032719D02*
X014416Y032719D01*
X014416Y032685D01*
X014216Y032685D01*
X014216Y032522D02*
X014216Y032488D01*
X014216Y032522D02*
X014416Y032522D01*
X014416Y032488D01*
X014216Y032488D01*
X014216Y032325D02*
X014216Y032291D01*
X014216Y032325D02*
X014416Y032325D01*
X014416Y032291D01*
X014216Y032291D01*
X014216Y032128D02*
X014216Y032094D01*
X014216Y032128D02*
X014416Y032128D01*
X014416Y032094D01*
X014216Y032094D01*
X014216Y031932D02*
X014216Y031898D01*
X014216Y031932D02*
X014416Y031932D01*
X014416Y031898D01*
X014216Y031898D01*
X014216Y031735D02*
X014216Y031701D01*
X014216Y031735D02*
X014416Y031735D01*
X014416Y031701D01*
X014216Y031701D01*
X014216Y031538D02*
X014216Y031504D01*
X014216Y031538D02*
X014416Y031538D01*
X014416Y031504D01*
X014216Y031504D01*
X014216Y031341D02*
X014216Y031307D01*
X014216Y031341D02*
X014416Y031341D01*
X014416Y031307D01*
X014216Y031307D01*
X014575Y031148D02*
X014609Y031148D01*
X014609Y030948D01*
X014575Y030948D01*
X014575Y031148D01*
X014575Y031083D02*
X014609Y031083D01*
X014772Y031148D02*
X014806Y031148D01*
X014806Y030948D01*
X014772Y030948D01*
X014772Y031148D01*
X014772Y031083D02*
X014806Y031083D01*
X014969Y031148D02*
X015003Y031148D01*
X015003Y030948D01*
X014969Y030948D01*
X014969Y031148D01*
X014969Y031083D02*
X015003Y031083D01*
X015166Y031148D02*
X015200Y031148D01*
X015200Y030948D01*
X015166Y030948D01*
X015166Y031148D01*
X015166Y031083D02*
X015200Y031083D01*
X015362Y031148D02*
X015396Y031148D01*
X015396Y030948D01*
X015362Y030948D01*
X015362Y031148D01*
X015362Y031083D02*
X015396Y031083D01*
X015559Y031148D02*
X015593Y031148D01*
X015593Y030948D01*
X015559Y030948D01*
X015559Y031148D01*
X015559Y031083D02*
X015593Y031083D01*
X015756Y031148D02*
X015790Y031148D01*
X015790Y030948D01*
X015756Y030948D01*
X015756Y031148D01*
X015756Y031083D02*
X015790Y031083D01*
X015953Y031148D02*
X015987Y031148D01*
X015987Y030948D01*
X015953Y030948D01*
X015953Y031148D01*
X015953Y031083D02*
X015987Y031083D01*
X016146Y031307D02*
X016146Y031341D01*
X016346Y031341D01*
X016346Y031307D01*
X016146Y031307D01*
X016146Y031504D02*
X016146Y031538D01*
X016346Y031538D01*
X016346Y031504D01*
X016146Y031504D01*
X016146Y031701D02*
X016146Y031735D01*
X016346Y031735D01*
X016346Y031701D01*
X016146Y031701D01*
X016146Y031898D02*
X016146Y031932D01*
X016346Y031932D01*
X016346Y031898D01*
X016146Y031898D01*
X016146Y032094D02*
X016146Y032128D01*
X016346Y032128D01*
X016346Y032094D01*
X016146Y032094D01*
X016146Y032291D02*
X016146Y032325D01*
X016346Y032325D01*
X016346Y032291D01*
X016146Y032291D01*
X016146Y032488D02*
X016146Y032522D01*
X016346Y032522D01*
X016346Y032488D01*
X016146Y032488D01*
X016146Y032685D02*
X016146Y032719D01*
X016346Y032719D01*
X016346Y032685D01*
X016146Y032685D01*
X018875Y017227D02*
X018909Y017227D01*
X018909Y016989D01*
X018875Y016989D01*
X018875Y017227D01*
X018875Y017124D02*
X018909Y017124D01*
X019072Y017227D02*
X019106Y017227D01*
X019106Y016989D01*
X019072Y016989D01*
X019072Y017227D01*
X019072Y017124D02*
X019106Y017124D01*
X019269Y017227D02*
X019303Y017227D01*
X019303Y016989D01*
X019269Y016989D01*
X019269Y017227D01*
X019269Y017124D02*
X019303Y017124D01*
X019466Y017227D02*
X019500Y017227D01*
X019500Y016989D01*
X019466Y016989D01*
X019466Y017227D01*
X019466Y017124D02*
X019500Y017124D01*
X019662Y017227D02*
X019696Y017227D01*
X019696Y016989D01*
X019662Y016989D01*
X019662Y017227D01*
X019662Y017124D02*
X019696Y017124D01*
X019859Y017227D02*
X019893Y017227D01*
X019893Y016989D01*
X019859Y016989D01*
X019859Y017227D01*
X019859Y017124D02*
X019893Y017124D01*
X020056Y017227D02*
X020090Y017227D01*
X020090Y016989D01*
X020056Y016989D01*
X020056Y017227D01*
X020056Y017124D02*
X020090Y017124D01*
X020253Y016989D02*
X020287Y016989D01*
X020253Y016989D02*
X020253Y017227D01*
X020287Y017227D01*
X020287Y016989D01*
X020287Y017124D02*
X020253Y017124D01*
X020407Y016869D02*
X020407Y016835D01*
X020407Y016869D02*
X020645Y016869D01*
X020645Y016835D01*
X020407Y016835D01*
X020407Y016672D02*
X020407Y016638D01*
X020407Y016672D02*
X020645Y016672D01*
X020645Y016638D01*
X020407Y016638D01*
X020407Y016475D02*
X020407Y016441D01*
X020407Y016475D02*
X020645Y016475D01*
X020645Y016441D01*
X020407Y016441D01*
X020407Y016278D02*
X020407Y016244D01*
X020407Y016278D02*
X020645Y016278D01*
X020645Y016244D01*
X020407Y016244D01*
X020407Y016082D02*
X020407Y016048D01*
X020407Y016082D02*
X020645Y016082D01*
X020645Y016048D01*
X020407Y016048D01*
X020407Y015885D02*
X020407Y015851D01*
X020407Y015885D02*
X020645Y015885D01*
X020645Y015851D01*
X020407Y015851D01*
X020407Y015688D02*
X020407Y015654D01*
X020407Y015688D02*
X020645Y015688D01*
X020645Y015654D01*
X020407Y015654D01*
X020407Y015491D02*
X020407Y015457D01*
X020407Y015491D02*
X020645Y015491D01*
X020645Y015457D01*
X020407Y015457D01*
X020287Y015099D02*
X020253Y015099D01*
X020253Y015337D01*
X020287Y015337D01*
X020287Y015099D01*
X020287Y015234D02*
X020253Y015234D01*
X020090Y015099D02*
X020056Y015099D01*
X020056Y015337D01*
X020090Y015337D01*
X020090Y015099D01*
X020090Y015234D02*
X020056Y015234D01*
X019893Y015099D02*
X019859Y015099D01*
X019859Y015337D01*
X019893Y015337D01*
X019893Y015099D01*
X019893Y015234D02*
X019859Y015234D01*
X019696Y015099D02*
X019662Y015099D01*
X019662Y015337D01*
X019696Y015337D01*
X019696Y015099D01*
X019696Y015234D02*
X019662Y015234D01*
X019500Y015099D02*
X019466Y015099D01*
X019466Y015337D01*
X019500Y015337D01*
X019500Y015099D01*
X019500Y015234D02*
X019466Y015234D01*
X019303Y015099D02*
X019269Y015099D01*
X019269Y015337D01*
X019303Y015337D01*
X019303Y015099D01*
X019303Y015234D02*
X019269Y015234D01*
X019106Y015099D02*
X019072Y015099D01*
X019072Y015337D01*
X019106Y015337D01*
X019106Y015099D01*
X019106Y015234D02*
X019072Y015234D01*
X018909Y015099D02*
X018875Y015099D01*
X018875Y015337D01*
X018909Y015337D01*
X018909Y015099D01*
X018909Y015234D02*
X018875Y015234D01*
X018517Y015457D02*
X018517Y015491D01*
X018755Y015491D01*
X018755Y015457D01*
X018517Y015457D01*
X018517Y015654D02*
X018517Y015688D01*
X018755Y015688D01*
X018755Y015654D01*
X018517Y015654D01*
X018517Y015851D02*
X018517Y015885D01*
X018755Y015885D01*
X018755Y015851D01*
X018517Y015851D01*
X018517Y016048D02*
X018517Y016082D01*
X018755Y016082D01*
X018755Y016048D01*
X018517Y016048D01*
X018517Y016244D02*
X018517Y016278D01*
X018755Y016278D01*
X018755Y016244D01*
X018517Y016244D01*
X018517Y016441D02*
X018517Y016475D01*
X018755Y016475D01*
X018755Y016441D01*
X018517Y016441D01*
X018517Y016638D02*
X018517Y016672D01*
X018755Y016672D01*
X018755Y016638D01*
X018517Y016638D01*
X018517Y016835D02*
X018517Y016869D01*
X018755Y016869D01*
X018755Y016835D01*
X018517Y016835D01*
X013157Y016835D02*
X013157Y016869D01*
X013395Y016869D01*
X013395Y016835D01*
X013157Y016835D01*
X013157Y016672D02*
X013157Y016638D01*
X013157Y016672D02*
X013395Y016672D01*
X013395Y016638D01*
X013157Y016638D01*
X013157Y016475D02*
X013157Y016441D01*
X013157Y016475D02*
X013395Y016475D01*
X013395Y016441D01*
X013157Y016441D01*
X013157Y016278D02*
X013157Y016244D01*
X013157Y016278D02*
X013395Y016278D01*
X013395Y016244D01*
X013157Y016244D01*
X013157Y016082D02*
X013157Y016048D01*
X013157Y016082D02*
X013395Y016082D01*
X013395Y016048D01*
X013157Y016048D01*
X013157Y015885D02*
X013157Y015851D01*
X013157Y015885D02*
X013395Y015885D01*
X013395Y015851D01*
X013157Y015851D01*
X013157Y015688D02*
X013157Y015654D01*
X013157Y015688D02*
X013395Y015688D01*
X013395Y015654D01*
X013157Y015654D01*
X013157Y015491D02*
X013157Y015457D01*
X013157Y015491D02*
X013395Y015491D01*
X013395Y015457D01*
X013157Y015457D01*
X013037Y015099D02*
X013003Y015099D01*
X013003Y015337D01*
X013037Y015337D01*
X013037Y015099D01*
X013037Y015234D02*
X013003Y015234D01*
X012840Y015099D02*
X012806Y015099D01*
X012806Y015337D01*
X012840Y015337D01*
X012840Y015099D01*
X012840Y015234D02*
X012806Y015234D01*
X012643Y015099D02*
X012609Y015099D01*
X012609Y015337D01*
X012643Y015337D01*
X012643Y015099D01*
X012643Y015234D02*
X012609Y015234D01*
X012446Y015099D02*
X012412Y015099D01*
X012412Y015337D01*
X012446Y015337D01*
X012446Y015099D01*
X012446Y015234D02*
X012412Y015234D01*
X012250Y015099D02*
X012216Y015099D01*
X012216Y015337D01*
X012250Y015337D01*
X012250Y015099D01*
X012250Y015234D02*
X012216Y015234D01*
X012053Y015099D02*
X012019Y015099D01*
X012019Y015337D01*
X012053Y015337D01*
X012053Y015099D01*
X012053Y015234D02*
X012019Y015234D01*
X011856Y015099D02*
X011822Y015099D01*
X011822Y015337D01*
X011856Y015337D01*
X011856Y015099D01*
X011856Y015234D02*
X011822Y015234D01*
X011659Y015099D02*
X011625Y015099D01*
X011625Y015337D01*
X011659Y015337D01*
X011659Y015099D01*
X011659Y015234D02*
X011625Y015234D01*
X011267Y015457D02*
X011267Y015491D01*
X011505Y015491D01*
X011505Y015457D01*
X011267Y015457D01*
X011267Y015654D02*
X011267Y015688D01*
X011505Y015688D01*
X011505Y015654D01*
X011267Y015654D01*
X011267Y015851D02*
X011267Y015885D01*
X011505Y015885D01*
X011505Y015851D01*
X011267Y015851D01*
X011267Y016048D02*
X011267Y016082D01*
X011505Y016082D01*
X011505Y016048D01*
X011267Y016048D01*
X011267Y016244D02*
X011267Y016278D01*
X011505Y016278D01*
X011505Y016244D01*
X011267Y016244D01*
X011267Y016441D02*
X011267Y016475D01*
X011505Y016475D01*
X011505Y016441D01*
X011267Y016441D01*
X011267Y016638D02*
X011267Y016672D01*
X011505Y016672D01*
X011505Y016638D01*
X011267Y016638D01*
X011267Y016835D02*
X011267Y016869D01*
X011505Y016869D01*
X011505Y016835D01*
X011267Y016835D01*
X011625Y017227D02*
X011659Y017227D01*
X011659Y016989D01*
X011625Y016989D01*
X011625Y017227D01*
X011625Y017124D02*
X011659Y017124D01*
X011822Y017227D02*
X011856Y017227D01*
X011856Y016989D01*
X011822Y016989D01*
X011822Y017227D01*
X011822Y017124D02*
X011856Y017124D01*
X012019Y017227D02*
X012053Y017227D01*
X012053Y016989D01*
X012019Y016989D01*
X012019Y017227D01*
X012019Y017124D02*
X012053Y017124D01*
X012216Y017227D02*
X012250Y017227D01*
X012250Y016989D01*
X012216Y016989D01*
X012216Y017227D01*
X012216Y017124D02*
X012250Y017124D01*
X012412Y017227D02*
X012446Y017227D01*
X012446Y016989D01*
X012412Y016989D01*
X012412Y017227D01*
X012412Y017124D02*
X012446Y017124D01*
X012609Y017227D02*
X012643Y017227D01*
X012643Y016989D01*
X012609Y016989D01*
X012609Y017227D01*
X012609Y017124D02*
X012643Y017124D01*
X012806Y017227D02*
X012840Y017227D01*
X012840Y016989D01*
X012806Y016989D01*
X012806Y017227D01*
X012806Y017124D02*
X012840Y017124D01*
X013003Y016989D02*
X013037Y016989D01*
X013003Y016989D02*
X013003Y017227D01*
X013037Y017227D01*
X013037Y016989D01*
X013037Y017124D02*
X013003Y017124D01*
X026267Y016869D02*
X026267Y016835D01*
X026267Y016869D02*
X026505Y016869D01*
X026505Y016835D01*
X026267Y016835D01*
X026267Y016672D02*
X026267Y016638D01*
X026267Y016672D02*
X026505Y016672D01*
X026505Y016638D01*
X026267Y016638D01*
X026267Y016475D02*
X026267Y016441D01*
X026267Y016475D02*
X026505Y016475D01*
X026505Y016441D01*
X026267Y016441D01*
X026267Y016278D02*
X026267Y016244D01*
X026267Y016278D02*
X026505Y016278D01*
X026505Y016244D01*
X026267Y016244D01*
X026267Y016082D02*
X026267Y016048D01*
X026267Y016082D02*
X026505Y016082D01*
X026505Y016048D01*
X026267Y016048D01*
X026267Y015885D02*
X026267Y015851D01*
X026267Y015885D02*
X026505Y015885D01*
X026505Y015851D01*
X026267Y015851D01*
X026267Y015688D02*
X026267Y015654D01*
X026267Y015688D02*
X026505Y015688D01*
X026505Y015654D01*
X026267Y015654D01*
X026267Y015491D02*
X026267Y015457D01*
X026267Y015491D02*
X026505Y015491D01*
X026505Y015457D01*
X026267Y015457D01*
X026625Y015099D02*
X026659Y015099D01*
X026625Y015099D02*
X026625Y015337D01*
X026659Y015337D01*
X026659Y015099D01*
X026659Y015234D02*
X026625Y015234D01*
X026822Y015099D02*
X026856Y015099D01*
X026822Y015099D02*
X026822Y015337D01*
X026856Y015337D01*
X026856Y015099D01*
X026856Y015234D02*
X026822Y015234D01*
X027019Y015099D02*
X027053Y015099D01*
X027019Y015099D02*
X027019Y015337D01*
X027053Y015337D01*
X027053Y015099D01*
X027053Y015234D02*
X027019Y015234D01*
X027216Y015099D02*
X027250Y015099D01*
X027216Y015099D02*
X027216Y015337D01*
X027250Y015337D01*
X027250Y015099D01*
X027250Y015234D02*
X027216Y015234D01*
X027412Y015099D02*
X027446Y015099D01*
X027412Y015099D02*
X027412Y015337D01*
X027446Y015337D01*
X027446Y015099D01*
X027446Y015234D02*
X027412Y015234D01*
X027609Y015099D02*
X027643Y015099D01*
X027609Y015099D02*
X027609Y015337D01*
X027643Y015337D01*
X027643Y015099D01*
X027643Y015234D02*
X027609Y015234D01*
X027806Y015099D02*
X027840Y015099D01*
X027806Y015099D02*
X027806Y015337D01*
X027840Y015337D01*
X027840Y015099D01*
X027840Y015234D02*
X027806Y015234D01*
X028003Y015099D02*
X028037Y015099D01*
X028003Y015099D02*
X028003Y015337D01*
X028037Y015337D01*
X028037Y015099D01*
X028037Y015234D02*
X028003Y015234D01*
X028157Y015457D02*
X028157Y015491D01*
X028395Y015491D01*
X028395Y015457D01*
X028157Y015457D01*
X028157Y015654D02*
X028157Y015688D01*
X028395Y015688D01*
X028395Y015654D01*
X028157Y015654D01*
X028157Y015851D02*
X028157Y015885D01*
X028395Y015885D01*
X028395Y015851D01*
X028157Y015851D01*
X028157Y016048D02*
X028157Y016082D01*
X028395Y016082D01*
X028395Y016048D01*
X028157Y016048D01*
X028157Y016244D02*
X028157Y016278D01*
X028395Y016278D01*
X028395Y016244D01*
X028157Y016244D01*
X028157Y016441D02*
X028157Y016475D01*
X028395Y016475D01*
X028395Y016441D01*
X028157Y016441D01*
X028157Y016638D02*
X028157Y016672D01*
X028395Y016672D01*
X028395Y016638D01*
X028157Y016638D01*
X028157Y016835D02*
X028157Y016869D01*
X028395Y016869D01*
X028395Y016835D01*
X028157Y016835D01*
X028037Y016989D02*
X028003Y016989D01*
X028003Y017227D01*
X028037Y017227D01*
X028037Y016989D01*
X028037Y017124D02*
X028003Y017124D01*
X027840Y017227D02*
X027806Y017227D01*
X027840Y017227D02*
X027840Y016989D01*
X027806Y016989D01*
X027806Y017227D01*
X027806Y017124D02*
X027840Y017124D01*
X027643Y017227D02*
X027609Y017227D01*
X027643Y017227D02*
X027643Y016989D01*
X027609Y016989D01*
X027609Y017227D01*
X027609Y017124D02*
X027643Y017124D01*
X027446Y017227D02*
X027412Y017227D01*
X027446Y017227D02*
X027446Y016989D01*
X027412Y016989D01*
X027412Y017227D01*
X027412Y017124D02*
X027446Y017124D01*
X027250Y017227D02*
X027216Y017227D01*
X027250Y017227D02*
X027250Y016989D01*
X027216Y016989D01*
X027216Y017227D01*
X027216Y017124D02*
X027250Y017124D01*
X027053Y017227D02*
X027019Y017227D01*
X027053Y017227D02*
X027053Y016989D01*
X027019Y016989D01*
X027019Y017227D01*
X027019Y017124D02*
X027053Y017124D01*
X026856Y017227D02*
X026822Y017227D01*
X026856Y017227D02*
X026856Y016989D01*
X026822Y016989D01*
X026822Y017227D01*
X026822Y017124D02*
X026856Y017124D01*
X026659Y017227D02*
X026625Y017227D01*
X026659Y017227D02*
X026659Y016989D01*
X026625Y016989D01*
X026625Y017227D01*
X026625Y017124D02*
X026659Y017124D01*
X033267Y016869D02*
X033267Y016835D01*
X033267Y016869D02*
X033505Y016869D01*
X033505Y016835D01*
X033267Y016835D01*
X033267Y016672D02*
X033267Y016638D01*
X033267Y016672D02*
X033505Y016672D01*
X033505Y016638D01*
X033267Y016638D01*
X033267Y016475D02*
X033267Y016441D01*
X033267Y016475D02*
X033505Y016475D01*
X033505Y016441D01*
X033267Y016441D01*
X033267Y016278D02*
X033267Y016244D01*
X033267Y016278D02*
X033505Y016278D01*
X033505Y016244D01*
X033267Y016244D01*
X033267Y016082D02*
X033267Y016048D01*
X033267Y016082D02*
X033505Y016082D01*
X033505Y016048D01*
X033267Y016048D01*
X033267Y015885D02*
X033267Y015851D01*
X033267Y015885D02*
X033505Y015885D01*
X033505Y015851D01*
X033267Y015851D01*
X033267Y015688D02*
X033267Y015654D01*
X033267Y015688D02*
X033505Y015688D01*
X033505Y015654D01*
X033267Y015654D01*
X033267Y015491D02*
X033267Y015457D01*
X033267Y015491D02*
X033505Y015491D01*
X033505Y015457D01*
X033267Y015457D01*
X033625Y015099D02*
X033659Y015099D01*
X033625Y015099D02*
X033625Y015337D01*
X033659Y015337D01*
X033659Y015099D01*
X033659Y015234D02*
X033625Y015234D01*
X033822Y015099D02*
X033856Y015099D01*
X033822Y015099D02*
X033822Y015337D01*
X033856Y015337D01*
X033856Y015099D01*
X033856Y015234D02*
X033822Y015234D01*
X034019Y015099D02*
X034053Y015099D01*
X034019Y015099D02*
X034019Y015337D01*
X034053Y015337D01*
X034053Y015099D01*
X034053Y015234D02*
X034019Y015234D01*
X034216Y015099D02*
X034250Y015099D01*
X034216Y015099D02*
X034216Y015337D01*
X034250Y015337D01*
X034250Y015099D01*
X034250Y015234D02*
X034216Y015234D01*
X034412Y015099D02*
X034446Y015099D01*
X034412Y015099D02*
X034412Y015337D01*
X034446Y015337D01*
X034446Y015099D01*
X034446Y015234D02*
X034412Y015234D01*
X034609Y015099D02*
X034643Y015099D01*
X034609Y015099D02*
X034609Y015337D01*
X034643Y015337D01*
X034643Y015099D01*
X034643Y015234D02*
X034609Y015234D01*
X034806Y015099D02*
X034840Y015099D01*
X034806Y015099D02*
X034806Y015337D01*
X034840Y015337D01*
X034840Y015099D01*
X034840Y015234D02*
X034806Y015234D01*
X035003Y015099D02*
X035037Y015099D01*
X035003Y015099D02*
X035003Y015337D01*
X035037Y015337D01*
X035037Y015099D01*
X035037Y015234D02*
X035003Y015234D01*
X035157Y015457D02*
X035157Y015491D01*
X035395Y015491D01*
X035395Y015457D01*
X035157Y015457D01*
X035157Y015654D02*
X035157Y015688D01*
X035395Y015688D01*
X035395Y015654D01*
X035157Y015654D01*
X035157Y015851D02*
X035157Y015885D01*
X035395Y015885D01*
X035395Y015851D01*
X035157Y015851D01*
X035157Y016048D02*
X035157Y016082D01*
X035395Y016082D01*
X035395Y016048D01*
X035157Y016048D01*
X035157Y016244D02*
X035157Y016278D01*
X035395Y016278D01*
X035395Y016244D01*
X035157Y016244D01*
X035157Y016441D02*
X035157Y016475D01*
X035395Y016475D01*
X035395Y016441D01*
X035157Y016441D01*
X035157Y016638D02*
X035157Y016672D01*
X035395Y016672D01*
X035395Y016638D01*
X035157Y016638D01*
X035157Y016835D02*
X035157Y016869D01*
X035395Y016869D01*
X035395Y016835D01*
X035157Y016835D01*
X035037Y016989D02*
X035003Y016989D01*
X035003Y017227D01*
X035037Y017227D01*
X035037Y016989D01*
X035037Y017124D02*
X035003Y017124D01*
X034840Y017227D02*
X034806Y017227D01*
X034840Y017227D02*
X034840Y016989D01*
X034806Y016989D01*
X034806Y017227D01*
X034806Y017124D02*
X034840Y017124D01*
X034643Y017227D02*
X034609Y017227D01*
X034643Y017227D02*
X034643Y016989D01*
X034609Y016989D01*
X034609Y017227D01*
X034609Y017124D02*
X034643Y017124D01*
X034446Y017227D02*
X034412Y017227D01*
X034446Y017227D02*
X034446Y016989D01*
X034412Y016989D01*
X034412Y017227D01*
X034412Y017124D02*
X034446Y017124D01*
X034250Y017227D02*
X034216Y017227D01*
X034250Y017227D02*
X034250Y016989D01*
X034216Y016989D01*
X034216Y017227D01*
X034216Y017124D02*
X034250Y017124D01*
X034053Y017227D02*
X034019Y017227D01*
X034053Y017227D02*
X034053Y016989D01*
X034019Y016989D01*
X034019Y017227D01*
X034019Y017124D02*
X034053Y017124D01*
X033856Y017227D02*
X033822Y017227D01*
X033856Y017227D02*
X033856Y016989D01*
X033822Y016989D01*
X033822Y017227D01*
X033822Y017124D02*
X033856Y017124D01*
X033659Y017227D02*
X033625Y017227D01*
X033659Y017227D02*
X033659Y016989D01*
X033625Y016989D01*
X033625Y017227D01*
X033625Y017124D02*
X033659Y017124D01*
X040267Y016869D02*
X040267Y016835D01*
X040267Y016869D02*
X040505Y016869D01*
X040505Y016835D01*
X040267Y016835D01*
X040267Y016672D02*
X040267Y016638D01*
X040267Y016672D02*
X040505Y016672D01*
X040505Y016638D01*
X040267Y016638D01*
X040267Y016475D02*
X040267Y016441D01*
X040267Y016475D02*
X040505Y016475D01*
X040505Y016441D01*
X040267Y016441D01*
X040267Y016278D02*
X040267Y016244D01*
X040267Y016278D02*
X040505Y016278D01*
X040505Y016244D01*
X040267Y016244D01*
X040267Y016082D02*
X040267Y016048D01*
X040267Y016082D02*
X040505Y016082D01*
X040505Y016048D01*
X040267Y016048D01*
X040267Y015885D02*
X040267Y015851D01*
X040267Y015885D02*
X040505Y015885D01*
X040505Y015851D01*
X040267Y015851D01*
X040267Y015688D02*
X040267Y015654D01*
X040267Y015688D02*
X040505Y015688D01*
X040505Y015654D01*
X040267Y015654D01*
X040267Y015491D02*
X040267Y015457D01*
X040267Y015491D02*
X040505Y015491D01*
X040505Y015457D01*
X040267Y015457D01*
X040625Y015099D02*
X040659Y015099D01*
X040625Y015099D02*
X040625Y015337D01*
X040659Y015337D01*
X040659Y015099D01*
X040659Y015234D02*
X040625Y015234D01*
X040822Y015099D02*
X040856Y015099D01*
X040822Y015099D02*
X040822Y015337D01*
X040856Y015337D01*
X040856Y015099D01*
X040856Y015234D02*
X040822Y015234D01*
X041019Y015099D02*
X041053Y015099D01*
X041019Y015099D02*
X041019Y015337D01*
X041053Y015337D01*
X041053Y015099D01*
X041053Y015234D02*
X041019Y015234D01*
X041216Y015099D02*
X041250Y015099D01*
X041216Y015099D02*
X041216Y015337D01*
X041250Y015337D01*
X041250Y015099D01*
X041250Y015234D02*
X041216Y015234D01*
X041412Y015099D02*
X041446Y015099D01*
X041412Y015099D02*
X041412Y015337D01*
X041446Y015337D01*
X041446Y015099D01*
X041446Y015234D02*
X041412Y015234D01*
X041609Y015099D02*
X041643Y015099D01*
X041609Y015099D02*
X041609Y015337D01*
X041643Y015337D01*
X041643Y015099D01*
X041643Y015234D02*
X041609Y015234D01*
X041806Y015099D02*
X041840Y015099D01*
X041806Y015099D02*
X041806Y015337D01*
X041840Y015337D01*
X041840Y015099D01*
X041840Y015234D02*
X041806Y015234D01*
X042003Y015099D02*
X042037Y015099D01*
X042003Y015099D02*
X042003Y015337D01*
X042037Y015337D01*
X042037Y015099D01*
X042037Y015234D02*
X042003Y015234D01*
X042157Y015457D02*
X042157Y015491D01*
X042395Y015491D01*
X042395Y015457D01*
X042157Y015457D01*
X042157Y015654D02*
X042157Y015688D01*
X042395Y015688D01*
X042395Y015654D01*
X042157Y015654D01*
X042157Y015851D02*
X042157Y015885D01*
X042395Y015885D01*
X042395Y015851D01*
X042157Y015851D01*
X042157Y016048D02*
X042157Y016082D01*
X042395Y016082D01*
X042395Y016048D01*
X042157Y016048D01*
X042157Y016244D02*
X042157Y016278D01*
X042395Y016278D01*
X042395Y016244D01*
X042157Y016244D01*
X042157Y016441D02*
X042157Y016475D01*
X042395Y016475D01*
X042395Y016441D01*
X042157Y016441D01*
X042157Y016638D02*
X042157Y016672D01*
X042395Y016672D01*
X042395Y016638D01*
X042157Y016638D01*
X042157Y016835D02*
X042157Y016869D01*
X042395Y016869D01*
X042395Y016835D01*
X042157Y016835D01*
X042037Y016989D02*
X042003Y016989D01*
X042003Y017227D01*
X042037Y017227D01*
X042037Y016989D01*
X042037Y017124D02*
X042003Y017124D01*
X041840Y017227D02*
X041806Y017227D01*
X041840Y017227D02*
X041840Y016989D01*
X041806Y016989D01*
X041806Y017227D01*
X041806Y017124D02*
X041840Y017124D01*
X041643Y017227D02*
X041609Y017227D01*
X041643Y017227D02*
X041643Y016989D01*
X041609Y016989D01*
X041609Y017227D01*
X041609Y017124D02*
X041643Y017124D01*
X041446Y017227D02*
X041412Y017227D01*
X041446Y017227D02*
X041446Y016989D01*
X041412Y016989D01*
X041412Y017227D01*
X041412Y017124D02*
X041446Y017124D01*
X041250Y017227D02*
X041216Y017227D01*
X041250Y017227D02*
X041250Y016989D01*
X041216Y016989D01*
X041216Y017227D01*
X041216Y017124D02*
X041250Y017124D01*
X041053Y017227D02*
X041019Y017227D01*
X041053Y017227D02*
X041053Y016989D01*
X041019Y016989D01*
X041019Y017227D01*
X041019Y017124D02*
X041053Y017124D01*
X040856Y017227D02*
X040822Y017227D01*
X040856Y017227D02*
X040856Y016989D01*
X040822Y016989D01*
X040822Y017227D01*
X040822Y017124D02*
X040856Y017124D01*
X040659Y017227D02*
X040625Y017227D01*
X040659Y017227D02*
X040659Y016989D01*
X040625Y016989D01*
X040625Y017227D01*
X040625Y017124D02*
X040659Y017124D01*
D22*
X015714Y031763D02*
X015664Y031692D01*
X015602Y031630D01*
X015531Y031580D01*
X015452Y031543D01*
X015368Y031521D01*
X015281Y031513D01*
X015194Y031521D01*
X015110Y031543D01*
X015031Y031580D01*
X014960Y031630D01*
X014898Y031692D01*
X014848Y031763D01*
X014811Y031842D01*
X014789Y031926D01*
X014781Y032013D01*
X014789Y032100D01*
X014811Y032184D01*
X014848Y032263D01*
X014898Y032334D01*
X014960Y032396D01*
X015031Y032446D01*
X015110Y032483D01*
X015194Y032505D01*
X015281Y032513D01*
X015368Y032505D01*
X015452Y032483D01*
X015531Y032446D01*
X015602Y032396D01*
X015664Y032334D01*
X015714Y032263D01*
X015751Y032184D01*
X015773Y032100D01*
X015781Y032013D01*
X015773Y031926D01*
X015751Y031842D01*
X015714Y031763D01*
X015704Y031749D02*
X014858Y031749D01*
X014832Y031798D02*
X015730Y031798D01*
X015752Y031846D02*
X014810Y031846D01*
X014797Y031895D02*
X015765Y031895D01*
X015775Y031943D02*
X014787Y031943D01*
X014783Y031992D02*
X015779Y031992D01*
X015779Y032040D02*
X014783Y032040D01*
X014788Y032089D02*
X015774Y032089D01*
X015763Y032137D02*
X014799Y032137D01*
X014812Y032186D02*
X015750Y032186D01*
X015727Y032234D02*
X014834Y032234D01*
X014862Y032283D02*
X015700Y032283D01*
X015666Y032331D02*
X014896Y032331D01*
X014943Y032380D02*
X015619Y032380D01*
X015557Y032428D02*
X015005Y032428D01*
X015097Y032477D02*
X015465Y032477D01*
X015670Y031701D02*
X014892Y031701D01*
X014937Y031652D02*
X015625Y031652D01*
X015565Y031604D02*
X014997Y031604D01*
X015084Y031555D02*
X015478Y031555D01*
D23*
X011298Y034525D03*
X010668Y034525D03*
D24*
X012187Y032763D03*
X012975Y032763D03*
X012975Y030563D03*
X012187Y030563D03*
D25*
X017815Y029660D03*
X017815Y029345D03*
X017815Y029031D03*
X017815Y028716D03*
X018347Y028716D03*
X018347Y029031D03*
X018347Y029345D03*
X018347Y029660D03*
D26*
X015245Y029791D03*
X014517Y029791D03*
X014517Y028885D03*
X015245Y028885D03*
D27*
X014368Y035044D03*
X014368Y036382D03*
X021556Y036957D03*
X021556Y035619D03*
D28*
X020304Y010849D02*
X020304Y010137D01*
X019304Y010137D02*
X019304Y010849D01*
X018304Y010849D02*
X018304Y010137D01*
X017304Y010137D02*
X017304Y010849D01*
X014331Y010849D02*
X014331Y010137D01*
X013331Y010137D02*
X013331Y010849D01*
X012331Y010849D02*
X012331Y010137D01*
X011331Y010137D02*
X011331Y010849D01*
X023304Y010849D02*
X023304Y010137D01*
X024304Y010137D02*
X024304Y010849D01*
X025304Y010849D02*
X025304Y010137D01*
X026304Y010137D02*
X026304Y010849D01*
X028304Y010849D02*
X028304Y010137D01*
X029304Y010137D02*
X029304Y010849D01*
X030304Y010849D02*
X030304Y010137D01*
X031304Y010137D02*
X031304Y010849D01*
X034304Y010849D02*
X034304Y010137D01*
X035304Y010137D02*
X035304Y010849D01*
X036304Y010849D02*
X036304Y010137D01*
X037304Y010137D02*
X037304Y010849D01*
X040304Y010849D02*
X040304Y010137D01*
X041304Y010137D02*
X041304Y010849D01*
X042304Y010849D02*
X042304Y010137D01*
X043304Y010137D02*
X043304Y010849D01*
D29*
X042143Y012478D03*
X042143Y013598D03*
X040518Y013598D03*
X040518Y012478D03*
X035143Y012478D03*
X035143Y013598D03*
X033518Y013598D03*
X033518Y012478D03*
X028143Y012478D03*
X028143Y013598D03*
X026518Y013598D03*
X026518Y012478D03*
X020393Y012478D03*
X020393Y013598D03*
X018768Y013598D03*
X018768Y012478D03*
X013143Y012478D03*
X013143Y013598D03*
X011518Y013598D03*
X011518Y012478D03*
D30*
X014018Y014541D03*
X014018Y015210D03*
X014143Y019578D03*
X014143Y020248D03*
X013356Y020248D03*
X013356Y019578D03*
X012581Y019578D03*
X012581Y020248D03*
X009831Y020248D03*
X009831Y019578D03*
X016831Y019578D03*
X016831Y020248D03*
X019581Y020248D03*
X019581Y019578D03*
X020831Y019578D03*
X020831Y020248D03*
X021643Y020248D03*
X021643Y019578D03*
X024581Y019578D03*
X024581Y020248D03*
X027393Y020248D03*
X027393Y019578D03*
X028393Y019578D03*
X028393Y020248D03*
X029206Y020248D03*
X029206Y019578D03*
X032331Y019578D03*
X032331Y020248D03*
X035002Y020248D03*
X035766Y020248D03*
X035766Y019578D03*
X035002Y019578D03*
X036579Y019578D03*
X036579Y020248D03*
X039331Y020248D03*
X039331Y019578D03*
X039110Y022269D03*
X039780Y022269D03*
X039780Y023128D03*
X039110Y023128D03*
X039121Y024968D03*
X039791Y024968D03*
X039791Y025718D03*
X039121Y025718D03*
X039121Y027468D03*
X039791Y027468D03*
X039791Y028468D03*
X039121Y028468D03*
X039121Y030468D03*
X039791Y030468D03*
X039791Y031468D03*
X039121Y031468D03*
X037431Y036728D03*
X037431Y037398D03*
X036656Y037398D03*
X036656Y036728D03*
X034993Y039641D03*
X034993Y040310D03*
X035103Y040988D03*
X034434Y040988D03*
X034434Y042313D03*
X034434Y042963D03*
X034456Y043778D03*
X034456Y044448D03*
X035181Y044448D03*
X035181Y043778D03*
X035103Y042963D03*
X035103Y042313D03*
X032166Y037913D03*
X031496Y037913D03*
X030891Y037913D03*
X030221Y037913D03*
X025016Y037713D03*
X024346Y037713D03*
X023666Y037688D03*
X022996Y037688D03*
X022166Y037638D03*
X022166Y038288D03*
X022166Y038938D03*
X021496Y038938D03*
X021496Y038288D03*
X021496Y037638D03*
X020791Y037663D03*
X020121Y037663D03*
X017416Y037538D03*
X016746Y037538D03*
X009841Y037513D03*
X009171Y037513D03*
X009172Y036519D03*
X009841Y036519D03*
X022371Y028426D03*
X023041Y028426D03*
X023041Y027623D03*
X022371Y027623D03*
X024831Y024424D03*
X024831Y023755D03*
X021268Y015260D03*
X021268Y014591D03*
X028993Y014591D03*
X028993Y015260D03*
X036018Y015260D03*
X036018Y014591D03*
X042081Y019578D03*
X042081Y020248D03*
X043081Y020248D03*
X043081Y019578D03*
X043893Y019578D03*
X043893Y020248D03*
X042993Y015260D03*
X042993Y014591D03*
X040131Y039938D03*
X040131Y040607D03*
X039956Y041253D03*
X039956Y041923D03*
X024941Y042413D03*
X024941Y043063D03*
X024271Y043063D03*
X024271Y042413D03*
D31*
X032331Y045600D03*
X032331Y047726D03*
X045643Y014913D03*
X045643Y012788D03*
X037893Y012413D03*
X037893Y014538D03*
X030893Y014538D03*
X030893Y012413D03*
X023768Y012413D03*
X023768Y014538D03*
X016143Y014538D03*
X016143Y012413D03*
D32*
X016002Y019578D03*
X016002Y020248D03*
X014945Y020248D03*
X014945Y019578D03*
X017581Y019578D03*
X018331Y019578D03*
X018331Y020248D03*
X017581Y020248D03*
X022244Y020255D03*
X022244Y019585D03*
X023794Y019578D03*
X023794Y020248D03*
X024780Y021769D03*
X024780Y022438D03*
X025393Y020248D03*
X026143Y020248D03*
X026143Y019578D03*
X025393Y019578D03*
X029971Y019578D03*
X029971Y020248D03*
X031555Y020248D03*
X031555Y019578D03*
X033081Y019578D03*
X033831Y019578D03*
X033831Y020248D03*
X033081Y020248D03*
X037355Y020248D03*
X037355Y019578D03*
X038555Y019578D03*
X038555Y020248D03*
X040081Y020248D03*
X040831Y020248D03*
X040831Y019578D03*
X040081Y019578D03*
X039780Y024009D03*
X039110Y024009D03*
X039121Y026468D03*
X039791Y026468D03*
X039791Y029468D03*
X039121Y029468D03*
X039121Y032343D03*
X039791Y032343D03*
X039472Y039938D03*
X038815Y039938D03*
X038815Y040607D03*
X038633Y041213D03*
X039302Y041213D03*
X039472Y040607D03*
X035103Y041650D03*
X034434Y041650D03*
X026481Y038623D03*
X026481Y037953D03*
X025831Y037748D03*
X025831Y037078D03*
X020581Y036373D03*
X020581Y035703D03*
X018331Y038328D03*
X017581Y038328D03*
X017581Y038998D03*
X018331Y038998D03*
X014456Y038498D03*
X014456Y037828D03*
X013706Y037828D03*
X013706Y038498D03*
X013393Y037123D03*
X013393Y036453D03*
X013393Y035560D03*
X013393Y034891D03*
X018456Y032998D03*
X018456Y032328D03*
X011331Y020248D03*
X011331Y019578D03*
X010581Y019578D03*
X010581Y020248D03*
X009042Y020248D03*
X009042Y019578D03*
X044706Y019578D03*
X044706Y020248D03*
D33*
X042315Y022065D02*
X041675Y022065D01*
X041675Y023065D02*
X042315Y023065D01*
X042315Y025165D02*
X041675Y025165D01*
X041675Y026165D02*
X042315Y026165D01*
X042315Y028265D02*
X041675Y028265D01*
X041675Y029265D02*
X042315Y029265D01*
X042315Y031365D02*
X041675Y031365D01*
X041675Y032365D02*
X042315Y032365D01*
X037805Y032620D02*
X037165Y032620D01*
X037165Y031620D02*
X037805Y031620D01*
X044708Y017952D02*
X044708Y017312D01*
X045708Y017312D02*
X045708Y017952D01*
X024256Y040543D02*
X024256Y041183D01*
X023256Y041183D02*
X023256Y040543D01*
X009018Y044530D02*
X009018Y045170D01*
X008018Y045170D02*
X008018Y044530D01*
X008081Y025983D02*
X008081Y025343D01*
X009081Y025343D02*
X009081Y025983D01*
X010081Y025983D02*
X010081Y025343D01*
X010081Y023483D02*
X010081Y022843D01*
X009081Y022843D02*
X009081Y023483D01*
X008081Y023483D02*
X008081Y022843D01*
X012081Y022843D02*
X012081Y023483D01*
X013081Y023483D02*
X013081Y022843D01*
X014081Y022843D02*
X014081Y023483D01*
X014081Y025343D02*
X014081Y025983D01*
X013081Y025983D02*
X013081Y025343D01*
X012081Y025343D02*
X012081Y025983D01*
X016081Y025983D02*
X016081Y025343D01*
X017081Y025343D02*
X017081Y025983D01*
X018081Y025983D02*
X018081Y025343D01*
X018081Y023483D02*
X018081Y022843D01*
X017081Y022843D02*
X017081Y023483D01*
X016081Y023483D02*
X016081Y022843D01*
X020050Y022780D02*
X020690Y022780D01*
X020690Y023780D02*
X020050Y023780D01*
X020050Y024780D02*
X020690Y024780D01*
X020690Y025780D02*
X020050Y025780D01*
D34*
X008331Y010163D03*
X008331Y047663D03*
X046331Y047663D03*
X046331Y010163D03*
D35*
X007691Y039123D03*
X007691Y040903D03*
D36*
X008671Y041393D03*
X008671Y038633D03*
D37*
X011581Y038620D03*
X012081Y038620D03*
X012581Y038620D03*
X013081Y038620D03*
X015331Y038620D03*
X015831Y038620D03*
X016331Y038620D03*
X016831Y038620D03*
X019331Y038620D03*
X019831Y038620D03*
X020331Y038620D03*
X020831Y038620D03*
X028081Y038620D03*
X028581Y038620D03*
X029081Y038620D03*
X029581Y038620D03*
D38*
X028831Y040057D03*
X020081Y040057D03*
X016081Y040057D03*
X012331Y040057D03*
D39*
X041831Y039667D03*
X041831Y037159D03*
X045456Y028667D03*
X045456Y026159D03*
D40*
X044943Y032663D02*
X044118Y032663D01*
X044118Y034663D02*
X044943Y034663D01*
X044943Y036663D02*
X044118Y036663D01*
X044118Y038663D02*
X044943Y038663D01*
X044943Y040663D02*
X044118Y040663D01*
X044118Y042663D02*
X044943Y042663D01*
X029331Y045250D02*
X029331Y046075D01*
X027331Y046075D02*
X027331Y045250D01*
X025331Y045250D02*
X025331Y046075D01*
X023331Y046075D02*
X023331Y045250D01*
X021331Y045250D02*
X021331Y046075D01*
X019331Y046075D02*
X019331Y045250D01*
X017331Y045250D02*
X017331Y046075D01*
X015331Y046075D02*
X015331Y045250D01*
X013331Y045250D02*
X013331Y046075D01*
X011331Y046075D02*
X011331Y045250D01*
D41*
X025755Y024570D03*
X025755Y024315D03*
X025755Y024059D03*
X025755Y023803D03*
X025755Y023547D03*
X025755Y023291D03*
X025755Y023035D03*
X025755Y022779D03*
X025755Y022523D03*
X025755Y022267D03*
X025755Y022011D03*
X025755Y021756D03*
X028157Y021756D03*
X028157Y022011D03*
X028157Y022267D03*
X028157Y022523D03*
X028157Y022779D03*
X028157Y023035D03*
X028157Y023291D03*
X028157Y023547D03*
X028157Y023803D03*
X028157Y024059D03*
X028157Y024315D03*
X028157Y024570D03*
D42*
X037581Y022598D03*
D43*
X037581Y023598D03*
X037581Y024598D03*
X037581Y025598D03*
X037581Y026598D03*
X037581Y027598D03*
X037581Y028598D03*
X037581Y029598D03*
X033012Y026413D03*
X032012Y026413D03*
X031012Y026413D03*
X031012Y025413D03*
X031012Y024413D03*
X031012Y023413D03*
X031012Y022413D03*
X032012Y022413D03*
X032012Y023413D03*
X032012Y024413D03*
X032012Y025413D03*
X033012Y025413D03*
X033012Y024413D03*
X033012Y023413D03*
X033012Y022413D03*
X031831Y036913D03*
X030831Y036913D03*
X029831Y036913D03*
X028831Y036913D03*
X027831Y036913D03*
X026831Y036913D03*
X031081Y042663D03*
X032081Y042663D03*
X018831Y042663D03*
X017831Y042663D03*
X016831Y042663D03*
X015831Y042663D03*
X014831Y042663D03*
X013831Y042663D03*
X012331Y036600D03*
X012331Y035600D03*
X012331Y034600D03*
D44*
X019581Y034413D03*
X020581Y034413D03*
X020581Y033413D03*
X020581Y032413D03*
X020581Y031413D03*
X020581Y030413D03*
X020581Y029413D03*
X020581Y028413D03*
X020581Y027413D03*
X019581Y027413D03*
X019581Y028413D03*
X019581Y029413D03*
X019581Y030413D03*
X019581Y031413D03*
X019581Y032413D03*
X019581Y033413D03*
X022581Y026202D03*
X022581Y025202D03*
X022581Y024202D03*
X022581Y023202D03*
X023581Y023202D03*
X023581Y024202D03*
X023581Y025202D03*
X023581Y026202D03*
X025706Y026413D03*
X026706Y026413D03*
X027706Y026413D03*
X027706Y025413D03*
X026706Y025413D03*
X025706Y025413D03*
X028706Y025413D03*
X028706Y026413D03*
X023581Y022202D03*
X022581Y022202D03*
X033288Y034235D03*
X033288Y035235D03*
X034288Y035235D03*
X035288Y035235D03*
X036288Y035235D03*
X037288Y035235D03*
X038288Y035235D03*
X039288Y035235D03*
X040288Y035235D03*
X041288Y035235D03*
X042288Y035235D03*
X042288Y034235D03*
X041288Y034235D03*
X040288Y034235D03*
X039288Y034235D03*
X038288Y034235D03*
X037288Y034235D03*
X036288Y034235D03*
X035288Y034235D03*
X034288Y034235D03*
D45*
X036518Y043163D03*
X038644Y043163D03*
D46*
X022846Y032402D03*
X022846Y031674D03*
X021941Y031674D03*
X021941Y032402D03*
D47*
X035346Y033027D03*
X038565Y027804D03*
X038502Y026844D03*
X038445Y022128D03*
X038840Y018973D03*
X038127Y018725D03*
X037331Y018913D03*
X039505Y018570D03*
X043473Y016188D03*
X033020Y018509D03*
X032262Y018767D03*
X031393Y018788D03*
X030018Y018788D03*
X025081Y018475D03*
X024220Y018804D03*
X024002Y017764D03*
X022694Y018989D03*
X017315Y018600D03*
X016518Y018788D03*
X015699Y018598D03*
X010206Y018288D03*
X009067Y018966D03*
X008292Y019081D03*
X007500Y018249D03*
D48*
X035861Y039788D03*
X035861Y040288D03*
X035861Y040788D03*
X035861Y041288D03*
X037801Y041288D03*
X037801Y040788D03*
X037801Y040288D03*
X037801Y039788D03*
D49*
X036831Y040558D03*
D50*
X039318Y038767D03*
X039318Y036759D03*
D51*
X035818Y036699D03*
X035818Y037447D03*
D52*
X035856Y038663D03*
X037431Y038663D03*
D53*
X012837Y032100D03*
X012325Y032100D03*
X012325Y031225D03*
X012837Y031225D03*
D54*
X032855Y037417D02*
X035081Y037417D01*
X035081Y036767D01*
X032855Y036767D01*
X032855Y037417D01*
X032855Y036983D02*
X035081Y036983D01*
X035081Y037199D02*
X032855Y037199D01*
X032855Y037415D02*
X035081Y037415D01*
X035081Y038459D02*
X032855Y038459D01*
X032855Y039109D01*
X035081Y039109D01*
X035081Y038459D01*
X035081Y038675D02*
X032855Y038675D01*
X032855Y038891D02*
X035081Y038891D01*
X035081Y039107D02*
X032855Y039107D01*
D55*
X013267Y028100D03*
X012519Y028100D03*
D56*
X046985Y045324D03*
D57*
X041731Y043844D03*
X041731Y041482D03*
X035331Y045482D03*
X035331Y047844D03*
X044581Y023844D03*
X044581Y021482D03*
D58*
X043481Y045463D03*
X043481Y047863D03*
X038181Y047863D03*
X038181Y045463D03*
D59*
X041331Y016163D03*
X034331Y016163D03*
X027331Y016163D03*
X019581Y016163D03*
X012331Y016163D03*
D60*
X008456Y012163D03*
X015081Y025663D03*
X024306Y034913D03*
X035581Y021163D03*
X043906Y012163D03*
X008456Y042963D03*
D61*
X022823Y042713D03*
X023650Y043087D03*
X023650Y042339D03*
X023800Y039012D03*
X022973Y038638D03*
X023800Y038264D03*
D62*
X029160Y022202D03*
M02*
