G04 start of page 13 for group -4078 idx -4078 *
G04 Title: (unknown), bottomsilk *
G04 Creator: pcb 4.2.0 *
G04 CreationDate: Sat Jun 20 18:16:57 2020 UTC *
G04 For: commonadmin *
G04 Format: Gerber/RS-274X *
G04 PCB-Dimensions (mil): 4000.00 3500.00 *
G04 PCB-Coordinate-Origin: lower left *
%MOIN*%
%FSLAX25Y25*%
%LNBOTTOMSILK*%
%ADD180C,0.0100*%
%ADD179C,0.0080*%
%ADD178C,0.0038*%
%ADD177C,0.0040*%
%ADD176C,0.0060*%
G54D176*X52000Y83469D02*X45500D01*
X43000D02*X44000D01*
X260500Y96969D02*Y94969D01*
X261500Y95969D02*X259500D01*
X258500Y91969D02*X260500Y89969D01*
X258500Y97469D02*Y91969D01*
X261000Y99969D02*X258500Y97469D01*
X43000Y90469D02*Y83469D01*
X69000D02*X68000D01*
X66500D02*X58000D01*
X43000Y90469D02*X69000D01*
Y83469D01*
X54000Y81469D02*X52000Y83469D01*
G54D177*X257000Y94969D02*X256000Y90969D01*
X255000Y94969D01*
X251800Y90969D02*X253300D01*
X253800Y91469D02*X253300Y90969D01*
X253800Y91469D02*Y92469D01*
X253300Y92969D01*
X252300D02*X253300D01*
X252300D02*X251800Y92469D01*
Y91969D02*X253800D01*
X251800D02*Y92469D01*
X250600Y92969D02*X248600Y90969D01*
X250600D02*X248600Y92969D01*
X246900Y91469D02*Y94969D01*
Y91469D02*X246400Y90969D01*
Y93469D02*X247400D01*
G54D178*X66500Y88999D02*X65530Y85119D01*
X64560Y88999D01*
X61456Y85119D02*X62911D01*
X63396Y85604D02*X62911Y85119D01*
X63396Y85604D02*Y86574D01*
X62911Y87059D01*
X61941D02*X62911D01*
X61941D02*X61456Y86574D01*
Y86089D02*X63396D01*
X61456D02*Y86574D01*
X58352Y85119D02*X59807D01*
X60292Y85604D02*X59807Y85119D01*
X60292Y85604D02*Y86574D01*
X59807Y87059D01*
X58837D02*X59807D01*
X58837D02*X58352Y86574D01*
Y86089D02*X60292D01*
X58352D02*Y86574D01*
X55248Y87059D02*X57188D01*
X52144Y88999D02*X51659Y88514D01*
X52144Y88999D02*X53599D01*
X54084Y88514D02*X53599Y88999D01*
X54084Y85604D02*Y88514D01*
Y85604D02*X53599Y85119D01*
X52144D02*X53599D01*
X52144D02*X51659Y85604D01*
Y86574D01*
X52144Y87059D02*X51659Y86574D01*
X52144Y87059D02*X53114D01*
X50495Y85119D02*Y88999D01*
X48070Y85119D01*
Y88999D01*
X46421Y85119D02*Y88999D01*
X45160D02*X44481Y88320D01*
Y85798D02*Y88320D01*
X45160Y85119D02*X44481Y85798D01*
X45160Y85119D02*X46906D01*
X45160Y88999D02*X46906D01*
G54D179*X302755Y53436D02*Y52650D01*
X297245Y53436D02*Y52650D01*
X60150Y246214D02*X60936D01*
X60150Y251724D02*X60936D01*
X60650Y291214D02*X61436D01*
X60650Y296724D02*X61436D01*
X31000Y266000D02*X38000D01*
Y254000D01*
X31000D02*X38000D01*
X31000Y266000D02*Y254000D01*
Y265000D02*X38000D01*
X31000Y272000D02*X38000D01*
X31000Y284000D02*Y272000D01*
Y284000D02*X38000D01*
Y272000D01*
X31000Y273000D02*X38000D01*
X65755Y73862D02*Y73076D01*
X60245Y73862D02*Y73076D01*
G54D176*X54900Y32300D02*X54100Y33100D01*
X54900Y32300D02*X58400D01*
X59100Y33000D02*X58400Y32300D01*
X58300Y36300D02*X59000Y35600D01*
X54800Y36300D02*X58300D01*
X54100Y35600D02*X54800Y36300D01*
G54D180*X72900Y47300D02*Y38100D01*
Y60400D02*Y51100D01*
X61100Y60400D02*X72900D01*
X61100D02*Y38100D01*
X72900D01*
Y51100D02*G75*G03X72900Y47300I0J-1900D01*G01*
G54D176*X55850Y38600D02*X55050Y39400D01*
X55850Y38600D02*X59350D01*
X60050Y39300D02*X59350Y38600D01*
X59250Y42600D02*X59950Y41900D01*
X55750Y42600D02*X59250D01*
X55050Y41900D02*X55750Y42600D01*
X53400Y25900D02*X52600Y26700D01*
X53400Y25900D02*X56900D01*
X57600Y26600D02*X56900Y25900D01*
X56800Y29900D02*X57500Y29200D01*
X53300Y29900D02*X56800D01*
X52600Y29200D02*X53300Y29900D01*
G54D179*X60245Y26319D02*Y25533D01*
X65755Y26319D02*Y25533D01*
G54D176*X56750Y62600D02*X55950Y63400D01*
X56750Y62600D02*X60250D01*
X60950Y63300D02*X60250Y62600D01*
X60150Y66600D02*X60850Y65900D01*
X56650Y66600D02*X60150D01*
X55950Y65900D02*X56650Y66600D01*
X54750Y56300D02*X53950Y57100D01*
X54750Y56300D02*X58250D01*
X58950Y57000D02*X58250Y56300D01*
X58150Y60300D02*X58850Y59600D01*
X54650Y60300D02*X58150D01*
X53950Y59600D02*X54650Y60300D01*
X55400Y49800D02*X54600Y50600D01*
X55400Y49800D02*X58900D01*
X59600Y50500D02*X58900Y49800D01*
X58800Y53800D02*X59500Y53100D01*
X55300Y53800D02*X58800D01*
X54600Y53100D02*X55300Y53800D01*
X55750Y44300D02*X54950Y45100D01*
X55750Y44300D02*X59250D01*
X59950Y45000D02*X59250Y44300D01*
X59150Y48300D02*X59850Y47600D01*
X55650Y48300D02*X59150D01*
X54950Y47600D02*X55650Y48300D01*
G54D179*X198755Y39350D02*Y38564D01*
X193245Y39350D02*Y38564D01*
G54D177*X39500Y263000D02*X35500Y260500D01*
Y263000D02*X39500Y260500D01*
X36300Y259300D02*X35500Y258500D01*
X39500D01*
Y257800D02*Y259300D01*
X39000Y256600D02*X36000Y253600D01*
X35500Y251900D02*X39500D01*
X35500Y250600D02*X36200Y249900D01*
X38800D01*
X39500Y250600D02*X38800Y249900D01*
X39500Y250600D02*Y252400D01*
X35500Y250600D02*Y252400D01*
X36300Y248700D02*X35500Y247900D01*
X39500D01*
Y247200D02*Y248700D01*
X29500Y275000D02*X33500Y277500D01*
Y275000D02*X29500Y277500D01*
X32700Y278700D02*X33500Y279500D01*
X29500D02*X33500D01*
X29500Y278700D02*Y280200D01*
X30000Y281400D02*X33000Y284400D01*
X29500Y286100D02*X33500D01*
Y287400D02*X32800Y288100D01*
X30200D02*X32800D01*
X29500Y287400D02*X30200Y288100D01*
X29500Y285600D02*Y287400D01*
X33500Y285600D02*Y287400D01*
X33000Y289300D02*X33500Y289800D01*
Y291300D01*
X33000Y291800D01*
X32000D02*X33000D01*
X29500Y289300D02*X32000Y291800D01*
X29500Y289300D02*Y291800D01*
M02*
