G04 start of page 15 for group -4014 idx -4014 *
G04 Title: (unknown), bottompaste *
G04 Creator: pcb 4.2.0 *
G04 CreationDate: Sat Jun 20 18:16:57 2020 UTC *
G04 For: commonadmin *
G04 Format: Gerber/RS-274X *
G04 PCB-Dimensions (mil): 4000.00 3500.00 *
G04 PCB-Coordinate-Origin: lower left *
%MOIN*%
%FSLAX25Y25*%
%LNBOTTOMPASTE*%
%ADD184C,0.0120*%
%ADD183C,0.0060*%
%ADD182C,0.0001*%
G54D182*G36*
X60048Y72485D02*Y67367D01*
X65952D01*
Y72485D01*
X60048D01*
G37*
G36*
Y79571D02*Y74453D01*
X65952D01*
Y79571D01*
X60048D01*
G37*
G36*
X66213Y38555D02*Y36981D01*
X67787D01*
Y38555D01*
X66213D01*
G37*
G36*
Y36193D02*Y34619D01*
X67787D01*
Y36193D01*
X66213D01*
G37*
G36*
X190213Y22787D02*Y21213D01*
X191787D01*
Y22787D01*
X190213D01*
G37*
G36*
X192575D02*Y21213D01*
X194149D01*
Y22787D01*
X192575D01*
G37*
G36*
X193048Y37973D02*Y32855D01*
X198952D01*
Y37973D01*
X193048D01*
G37*
G36*
Y45059D02*Y39941D01*
X198952D01*
Y45059D01*
X193048D01*
G37*
G36*
X192713Y48287D02*Y46713D01*
X194287D01*
Y48287D01*
X192713D01*
G37*
G36*
X190351D02*Y46713D01*
X191925D01*
Y48287D01*
X190351D01*
G37*
G36*
X297048Y52059D02*Y46941D01*
X302952D01*
Y52059D01*
X297048D01*
G37*
G36*
Y59145D02*Y54027D01*
X302952D01*
Y59145D01*
X297048D01*
G37*
G36*
X60048Y32028D02*Y26910D01*
X65952D01*
Y32028D01*
X60048D01*
G37*
G36*
Y24942D02*Y19824D01*
X65952D01*
Y24942D01*
X60048D01*
G37*
G36*
X59559Y251921D02*X54441D01*
Y246017D01*
X59559D01*
Y251921D01*
G37*
G36*
X66645D02*X61527D01*
Y246017D01*
X66645D01*
Y251921D01*
G37*
G36*
X60059Y296921D02*X54941D01*
Y291017D01*
X60059D01*
Y296921D01*
G37*
G36*
X67145D02*X62027D01*
Y291017D01*
X67145D01*
Y296921D01*
G37*
G36*
X246713Y68425D02*Y66851D01*
X248287D01*
Y68425D01*
X246713D01*
G37*
G36*
Y70787D02*Y69213D01*
X248287D01*
Y70787D01*
X246713D01*
G37*
G36*
X266713Y68425D02*Y66851D01*
X268287D01*
Y68425D01*
X266713D01*
G37*
G36*
Y70787D02*Y69213D01*
X268287D01*
Y70787D01*
X266713D01*
G37*
G36*
X256713Y68425D02*Y66851D01*
X258287D01*
Y68425D01*
X256713D01*
G37*
G36*
Y70787D02*Y69213D01*
X258287D01*
Y70787D01*
X256713D01*
G37*
G36*
X352575Y104787D02*Y103213D01*
X354149D01*
Y104787D01*
X352575D01*
G37*
G36*
X350213D02*Y103213D01*
X351787D01*
Y104787D01*
X350213D01*
G37*
G36*
X352713Y97287D02*Y95713D01*
X354287D01*
Y97287D01*
X352713D01*
G37*
G36*
X350351D02*Y95713D01*
X351925D01*
Y97287D01*
X350351D01*
G37*
G36*
X54713Y84468D02*Y82894D01*
X56287D01*
Y84468D01*
X54713D01*
G37*
G36*
Y82106D02*Y80532D01*
X56287D01*
Y82106D01*
X54713D01*
G37*
G36*
X38575Y269787D02*Y268213D01*
X40149D01*
Y269787D01*
X38575D01*
G37*
G36*
X36213D02*Y268213D01*
X37787D01*
Y269787D01*
X36213D01*
G37*
G36*
X37213Y39787D02*Y38213D01*
X38787D01*
Y39787D01*
X37213D01*
G37*
G36*
Y37425D02*Y35851D01*
X38787D01*
Y37425D01*
X37213D01*
G37*
G36*
X73623Y41484D02*Y39516D01*
X76377D01*
Y41484D01*
X73623D01*
G37*
G36*
Y44632D02*Y42664D01*
X76377D01*
Y44632D01*
X73623D01*
G37*
G36*
X60213Y38787D02*Y37213D01*
X61787D01*
Y38787D01*
X60213D01*
G37*
G36*
X57851D02*Y37213D01*
X59425D01*
Y38787D01*
X57851D01*
G37*
G36*
X67132Y35846D02*X65164D01*
Y33092D01*
X67132D01*
Y35846D01*
G37*
G36*
X63984D02*X62016D01*
Y33092D01*
X63984D01*
Y35846D01*
G37*
G54D183*X56950Y63300D02*X59950D01*
X56250Y64000D02*X56950Y63300D01*
X59950D02*X60650Y64000D01*
G54D182*G36*
X60350Y64300D02*Y63700D01*
X62450D01*
Y64300D01*
X60350D01*
G37*
G36*
X55450D02*Y63700D01*
X56550D01*
Y64300D01*
X55450D01*
G37*
G54D183*X59050Y63900D02*X59650Y63300D01*
X58450D02*X59050Y63900D01*
X57250Y63300D02*X57850Y63900D01*
X58450Y63300D01*
X56850Y65900D02*X59950D01*
X56250Y65300D02*X56850Y65900D01*
X59950D02*X60550Y65300D01*
G54D182*G36*
X60250Y65600D02*Y65000D01*
X62450D01*
Y65600D01*
X60250D01*
G37*
G36*
X55450D02*Y65000D01*
X56550D01*
Y65600D01*
X55450D01*
G37*
G54D183*X59050Y65200D02*X59750Y65900D01*
X59950D01*
X58350D02*X59050Y65200D01*
X57850D02*X58550Y65900D01*
X57150D02*X57850Y65200D01*
X54950Y57000D02*X57950D01*
X54250Y57700D02*X54950Y57000D01*
X57950D02*X58650Y57700D01*
G54D182*G36*
X58350Y58000D02*Y57400D01*
X60450D01*
Y58000D01*
X58350D01*
G37*
G36*
X53450D02*Y57400D01*
X54550D01*
Y58000D01*
X53450D01*
G37*
G54D183*X57050Y57600D02*X57650Y57000D01*
X56450D02*X57050Y57600D01*
X55250Y57000D02*X55850Y57600D01*
X56450Y57000D01*
X54850Y59600D02*X57950D01*
X54250Y59000D02*X54850Y59600D01*
X57950D02*X58550Y59000D01*
G54D182*G36*
X58250Y59300D02*Y58700D01*
X60450D01*
Y59300D01*
X58250D01*
G37*
G36*
X53450D02*Y58700D01*
X54550D01*
Y59300D01*
X53450D01*
G37*
G54D183*X57050Y58900D02*X57750Y59600D01*
X57950D01*
X56350D02*X57050Y58900D01*
X55850D02*X56550Y59600D01*
X55150D02*X55850Y58900D01*
X55600Y50500D02*X58600D01*
X54900Y51200D02*X55600Y50500D01*
X58600D02*X59300Y51200D01*
G54D182*G36*
X59000Y51500D02*Y50900D01*
X61100D01*
Y51500D01*
X59000D01*
G37*
G36*
X54100D02*Y50900D01*
X55200D01*
Y51500D01*
X54100D01*
G37*
G54D183*X57700Y51100D02*X58300Y50500D01*
X57100D02*X57700Y51100D01*
X55900Y50500D02*X56500Y51100D01*
X57100Y50500D01*
X55500Y53100D02*X58600D01*
X54900Y52500D02*X55500Y53100D01*
X58600D02*X59200Y52500D01*
G54D182*G36*
X58900Y52800D02*Y52200D01*
X61100D01*
Y52800D01*
X58900D01*
G37*
G36*
X54100D02*Y52200D01*
X55200D01*
Y52800D01*
X54100D01*
G37*
G54D183*X57700Y52400D02*X58400Y53100D01*
X58600D01*
X57000D02*X57700Y52400D01*
X56500D02*X57200Y53100D01*
X55800D02*X56500Y52400D01*
X55950Y45000D02*X58950D01*
X55250Y45700D02*X55950Y45000D01*
X58950D02*X59650Y45700D01*
G54D182*G36*
X59350Y46000D02*Y45400D01*
X61450D01*
Y46000D01*
X59350D01*
G37*
G36*
X54450D02*Y45400D01*
X55550D01*
Y46000D01*
X54450D01*
G37*
G54D183*X58050Y45600D02*X58650Y45000D01*
X57450D02*X58050Y45600D01*
X56250Y45000D02*X56850Y45600D01*
X57450Y45000D01*
X55850Y47600D02*X58950D01*
X55250Y47000D02*X55850Y47600D01*
X58950D02*X59550Y47000D01*
G54D182*G36*
X59250Y47300D02*Y46700D01*
X61450D01*
Y47300D01*
X59250D01*
G37*
G36*
X54450D02*Y46700D01*
X55550D01*
Y47300D01*
X54450D01*
G37*
G54D183*X58050Y46900D02*X58750Y47600D01*
X58950D01*
X57350D02*X58050Y46900D01*
X56850D02*X57550Y47600D01*
X56150D02*X56850Y46900D01*
X55100Y33000D02*X58100D01*
X54400Y33700D02*X55100Y33000D01*
X58100D02*X58800Y33700D01*
G54D182*G36*
X58500Y34000D02*Y33400D01*
X60600D01*
Y34000D01*
X58500D01*
G37*
G36*
X53600D02*Y33400D01*
X54700D01*
Y34000D01*
X53600D01*
G37*
G54D183*X57200Y33600D02*X57800Y33000D01*
X56600D02*X57200Y33600D01*
X55400Y33000D02*X56000Y33600D01*
X56600Y33000D01*
X55000Y35600D02*X58100D01*
X54400Y35000D02*X55000Y35600D01*
X58100D02*X58700Y35000D01*
G54D182*G36*
X58400Y35300D02*Y34700D01*
X60600D01*
Y35300D01*
X58400D01*
G37*
G36*
X53600D02*Y34700D01*
X54700D01*
Y35300D01*
X53600D01*
G37*
G54D183*X57200Y34900D02*X57900Y35600D01*
X58100D01*
X56500D02*X57200Y34900D01*
X56000D02*X56700Y35600D01*
X55300D02*X56000Y34900D01*
G54D184*X71000Y42300D02*Y39700D01*
G54D182*G36*
X69600Y42900D02*X68400D01*
Y39100D01*
X69600D01*
Y42900D01*
G37*
G36*
X67600D02*X66400D01*
Y39100D01*
X67600D01*
Y42900D01*
G37*
G36*
X65700D02*X64500D01*
Y39100D01*
X65700D01*
Y42900D01*
G37*
G36*
X63700D02*X62500D01*
Y39100D01*
X63700D01*
Y42900D01*
G37*
G36*
X63600Y59400D02*X62400D01*
Y55600D01*
X63600D01*
Y59400D01*
G37*
G36*
X65600D02*X64400D01*
Y55600D01*
X65600D01*
Y59400D01*
G37*
G36*
X67600D02*X66400D01*
Y55600D01*
X67600D01*
Y59400D01*
G37*
G36*
X69500D02*X68300D01*
Y55600D01*
X69500D01*
Y59400D01*
G37*
G36*
X71500D02*X70300D01*
Y55600D01*
X71500D01*
Y59400D01*
G37*
G54D183*X56050Y39300D02*X59050D01*
X55350Y40000D02*X56050Y39300D01*
X59050D02*X59750Y40000D01*
G54D182*G36*
X59450Y40300D02*Y39700D01*
X61550D01*
Y40300D01*
X59450D01*
G37*
G36*
X54550D02*Y39700D01*
X55650D01*
Y40300D01*
X54550D01*
G37*
G54D183*X58150Y39900D02*X58750Y39300D01*
X57550D02*X58150Y39900D01*
X56350Y39300D02*X56950Y39900D01*
X57550Y39300D01*
X55950Y41900D02*X59050D01*
X55350Y41300D02*X55950Y41900D01*
X59050D02*X59650Y41300D01*
G54D182*G36*
X59350Y41600D02*Y41000D01*
X61550D01*
Y41600D01*
X59350D01*
G37*
G36*
X54550D02*Y41000D01*
X55650D01*
Y41600D01*
X54550D01*
G37*
G54D183*X58150Y41200D02*X58850Y41900D01*
X59050D01*
X57450D02*X58150Y41200D01*
X56950D02*X57650Y41900D01*
X56250D02*X56950Y41200D01*
X53600Y26600D02*X56600D01*
X52900Y27300D02*X53600Y26600D01*
X56600D02*X57300Y27300D01*
G54D182*G36*
X57000Y27600D02*Y27000D01*
X59100D01*
Y27600D01*
X57000D01*
G37*
G36*
X52100D02*Y27000D01*
X53200D01*
Y27600D01*
X52100D01*
G37*
G54D183*X55700Y27200D02*X56300Y26600D01*
X55100D02*X55700Y27200D01*
X53900Y26600D02*X54500Y27200D01*
X55100Y26600D01*
X53500Y29200D02*X56600D01*
X52900Y28600D02*X53500Y29200D01*
X56600D02*X57200Y28600D01*
G54D182*G36*
X56900Y28900D02*Y28300D01*
X59100D01*
Y28900D01*
X56900D01*
G37*
G36*
X52100D02*Y28300D01*
X53200D01*
Y28900D01*
X52100D01*
G37*
G54D183*X55700Y28500D02*X56400Y29200D01*
X56600D01*
X55000D02*X55700Y28500D01*
X54500D02*X55200Y29200D01*
X53800D02*X54500Y28500D01*
G54D182*G36*
X96713Y88287D02*Y86713D01*
X98287D01*
Y88287D01*
X96713D01*
G37*
G36*
X94351D02*Y86713D01*
X95925D01*
Y88287D01*
X94351D01*
G37*
G36*
X32500Y264500D02*Y261500D01*
X36500D01*
Y264500D01*
X32500D01*
G37*
G36*
Y258500D02*Y255500D01*
X36500D01*
Y258500D01*
X32500D01*
G37*
G36*
Y276500D02*Y273500D01*
X36500D01*
Y276500D01*
X32500D01*
G37*
G36*
Y282500D02*Y279500D01*
X36500D01*
Y282500D01*
X32500D01*
G37*
M02*
