<?xml version="1.0" encoding="UTF-8"?>
<svg xmlns="http://www.w3.org/2000/svg" xmlns:xlink="http://www.w3.org/1999/xlink" width="271pt" height="70pt" viewBox="0 0 271 70" version="1.1">
<g id="surface1">
<path style="fill:none;stroke-width:0.01;stroke-linecap:round;stroke-linejoin:miter;stroke:rgb(100%,49.803922%,45.098039%);stroke-opacity:1;stroke-miterlimit:10;" d="M 3.739975 0.149991 L 1.785006 0.149991 " transform="matrix(72,0,0,-72,-4.6962,78.764199)"/>
<path style="fill:none;stroke-width:0.01;stroke-linecap:round;stroke-linejoin:miter;stroke:rgb(100%,49.803922%,45.098039%);stroke-opacity:1;stroke-miterlimit:10;" d="M 3.739975 0.149991 L 3.739975 1.070021 " transform="matrix(72,0,0,-72,-4.6962,78.764199)"/>
<path style="fill:none;stroke-width:0.01;stroke-linecap:round;stroke-linejoin:miter;stroke:rgb(100%,49.803922%,45.098039%);stroke-opacity:1;stroke-miterlimit:10;" d="M 1.785006 0.800002 L 1.785006 0.149991 " transform="matrix(72,0,0,-72,-4.6962,78.764199)"/>
<path style="fill:none;stroke-width:0.01;stroke-linecap:round;stroke-linejoin:miter;stroke:rgb(100%,49.803922%,45.098039%);stroke-opacity:1;stroke-miterlimit:10;" d="M 0.84501 0.800002 L 1.785006 0.800002 " transform="matrix(72,0,0,-72,-4.6962,78.764199)"/>
<path style="fill:none;stroke-width:0.01;stroke-linecap:round;stroke-linejoin:miter;stroke:rgb(100%,49.803922%,45.098039%);stroke-opacity:1;stroke-miterlimit:10;" d="M 0.84501 0.149991 L 0.84501 0.800002 " transform="matrix(72,0,0,-72,-4.6962,78.764199)"/>
<path style="fill:none;stroke-width:0.01;stroke-linecap:round;stroke-linejoin:miter;stroke:rgb(100%,49.803922%,45.098039%);stroke-opacity:1;stroke-miterlimit:10;" d="M 0.160006 0.149991 L 0.84501 0.149991 " transform="matrix(72,0,0,-72,-4.6962,78.764199)"/>
<path style="fill:none;stroke-width:0.01;stroke-linecap:round;stroke-linejoin:miter;stroke:rgb(100%,49.803922%,45.098039%);stroke-opacity:1;stroke-miterlimit:10;" d="M 0.160006 0.149991 L 0.160006 1.070021 " transform="matrix(72,0,0,-72,-4.6962,78.764199)"/>
<path style="fill:none;stroke-width:0.01;stroke-linecap:round;stroke-linejoin:miter;stroke:rgb(100%,49.803922%,45.098039%);stroke-opacity:1;stroke-miterlimit:10;" d="M 0.160006 1.070021 L 3.739975 1.070021 " transform="matrix(72,0,0,-72,-4.6962,78.764199)"/>
<path style=" stroke:none;fill-rule:evenodd;fill:rgb(45.098039%,45.098039%,87.058824%);fill-opacity:1;" d="M 23.851562 33.785156 C 23.851562 33.160156 22.914062 33.160156 22.914062 33.785156 C 22.914062 34.410156 23.851562 34.410156 23.851562 33.785156 "/>
<path style=" stroke:none;fill-rule:evenodd;fill:rgb(45.098039%,45.098039%,87.058824%);fill-opacity:1;" d="M 23.851562 44.945312 C 23.851562 44.320312 22.914062 44.320312 22.914062 44.945312 C 22.914062 45.570312 23.851562 45.570312 23.851562 44.945312 "/>
<path style=" stroke:none;fill-rule:evenodd;fill:rgb(45.098039%,45.098039%,87.058824%);fill-opacity:1;" d="M 24.933594 18.304688 C 24.933594 17.683594 23.996094 17.683594 23.996094 18.304688 C 23.996094 18.929688 24.933594 18.929688 24.933594 18.304688 "/>
<path style=" stroke:none;fill-rule:evenodd;fill:rgb(45.098039%,45.098039%,87.058824%);fill-opacity:1;" d="M 34.292969 55.363281 C 34.292969 54.738281 33.355469 54.738281 33.355469 55.363281 C 33.355469 55.988281 34.292969 55.988281 34.292969 55.363281 "/>
<path style=" stroke:none;fill-rule:evenodd;fill:rgb(45.098039%,45.098039%,87.058824%);fill-opacity:1;" d="M 35.011719 42.765625 C 35.011719 42.140625 34.074219 42.140625 34.074219 42.765625 C 34.074219 43.386719 35.011719 43.386719 35.011719 42.765625 "/>
<path style=" stroke:none;fill-rule:evenodd;fill:rgb(45.098039%,45.098039%,87.058824%);fill-opacity:1;" d="M 35.371094 46.722656 C 35.371094 46.101562 34.4375 46.101562 34.4375 46.722656 C 34.4375 47.347656 35.371094 47.347656 35.371094 46.722656 "/>
<path style=" stroke:none;fill-rule:evenodd;fill:rgb(45.098039%,45.098039%,87.058824%);fill-opacity:1;" d="M 35.804688 51.1875 C 35.804688 50.5625 34.867188 50.5625 34.867188 51.1875 C 34.867188 51.8125 35.804688 51.8125 35.804688 51.1875 "/>
<path style=" stroke:none;fill-rule:evenodd;fill:rgb(45.098039%,45.098039%,87.058824%);fill-opacity:1;" d="M 35.875 38.804688 C 35.875 38.179688 34.941406 38.179688 34.941406 38.804688 C 34.941406 39.429688 35.875 39.429688 35.875 38.804688 "/>
<path style=" stroke:none;fill-rule:evenodd;fill:rgb(45.098039%,45.098039%,87.058824%);fill-opacity:1;" d="M 36.09375 33.765625 C 36.09375 33.140625 35.15625 33.140625 35.15625 33.765625 C 35.15625 34.386719 36.09375 34.386719 36.09375 33.765625 "/>
<path style=" stroke:none;fill-rule:evenodd;fill:rgb(45.098039%,45.098039%,87.058824%);fill-opacity:1;" d="M 40.410156 34.484375 C 40.410156 33.859375 39.476562 33.859375 39.476562 34.484375 C 39.476562 35.109375 40.410156 35.109375 40.410156 34.484375 "/>
<path style=" stroke:none;fill-rule:evenodd;fill:rgb(45.098039%,45.098039%,87.058824%);fill-opacity:1;" d="M 47.25 45.285156 C 47.25 44.660156 46.316406 44.660156 46.316406 45.285156 C 46.316406 45.90625 47.25 45.90625 47.25 45.285156 "/>
<path style=" stroke:none;fill-rule:evenodd;fill:rgb(45.098039%,45.098039%,87.058824%);fill-opacity:1;" d="M 75.332031 11.804688 C 75.332031 11.179688 74.394531 11.179688 74.394531 11.804688 C 74.394531 12.429688 75.332031 12.429688 75.332031 11.804688 "/>
<path style=" stroke:none;fill-rule:evenodd;fill:rgb(45.098039%,45.098039%,87.058824%);fill-opacity:1;" d="M 75.332031 14.324219 C 75.332031 13.699219 74.394531 13.699219 74.394531 14.324219 C 74.394531 14.949219 75.332031 14.949219 75.332031 14.324219 "/>
<path style=" stroke:none;fill-rule:evenodd;fill:rgb(45.098039%,45.098039%,87.058824%);fill-opacity:1;" d="M 75.332031 16.84375 C 75.332031 16.21875 74.394531 16.21875 74.394531 16.84375 C 74.394531 17.46875 75.332031 17.46875 75.332031 16.84375 "/>
<path style=" stroke:none;fill-rule:evenodd;fill:rgb(45.098039%,45.098039%,87.058824%);fill-opacity:1;" d="M 78.570312 11.804688 C 78.570312 11.179688 77.636719 11.179688 77.636719 11.804688 C 77.636719 12.429688 78.570312 12.429688 78.570312 11.804688 "/>
<path style=" stroke:none;fill-rule:evenodd;fill:rgb(45.098039%,45.098039%,87.058824%);fill-opacity:1;" d="M 78.570312 14.324219 C 78.570312 13.699219 77.636719 13.699219 77.636719 14.324219 C 77.636719 14.949219 78.570312 14.949219 78.570312 14.324219 "/>
<path style=" stroke:none;fill-rule:evenodd;fill:rgb(45.098039%,45.098039%,87.058824%);fill-opacity:1;" d="M 78.570312 16.84375 C 78.570312 16.21875 77.636719 16.21875 77.636719 16.84375 C 77.636719 17.46875 78.570312 17.46875 78.570312 16.84375 "/>
<path style=" stroke:none;fill-rule:evenodd;fill:rgb(45.098039%,45.098039%,87.058824%);fill-opacity:1;" d="M 124.148438 15.980469 C 124.148438 15.355469 123.210938 15.355469 123.210938 15.980469 C 123.210938 16.605469 124.148438 16.605469 124.148438 15.980469 "/>
<path style=" stroke:none;fill-rule:evenodd;fill:rgb(45.098039%,45.098039%,87.058824%);fill-opacity:1;" d="M 126.957031 15.980469 C 126.957031 15.355469 126.019531 15.355469 126.019531 15.980469 C 126.019531 16.605469 126.957031 16.605469 126.957031 15.980469 "/>
<path style=" stroke:none;fill-rule:evenodd;fill:rgb(45.098039%,45.098039%,87.058824%);fill-opacity:1;" d="M 130.410156 15.980469 C 130.410156 15.355469 129.476562 15.355469 129.476562 15.980469 C 129.476562 16.605469 130.410156 16.605469 130.410156 15.980469 "/>
<path style=" stroke:none;fill-rule:evenodd;fill:rgb(45.098039%,45.098039%,87.058824%);fill-opacity:1;" d="M 133.21875 15.980469 C 133.21875 15.355469 132.285156 15.355469 132.285156 15.980469 C 132.285156 16.605469 133.21875 16.605469 133.21875 15.980469 "/>
<path style=" stroke:none;fill-rule:evenodd;fill:rgb(45.098039%,45.098039%,87.058824%);fill-opacity:1;" d="M 140.851562 20.445312 C 140.851562 19.820312 139.914062 19.820312 139.914062 20.445312 C 139.914062 21.066406 140.851562 21.066406 140.851562 20.445312 "/>
<path style=" stroke:none;fill-rule:evenodd;fill:rgb(45.098039%,45.098039%,87.058824%);fill-opacity:1;" d="M 143.730469 19.722656 C 143.730469 19.101562 142.796875 19.101562 142.796875 19.722656 C 142.796875 20.347656 143.730469 20.347656 143.730469 19.722656 "/>
<path style=" stroke:none;fill-rule:evenodd;fill:rgb(45.098039%,45.098039%,87.058824%);fill-opacity:1;" d="M 151.292969 21.164062 C 151.292969 20.539062 150.355469 20.539062 150.355469 21.164062 C 150.355469 21.789062 151.292969 21.789062 151.292969 21.164062 "/>
<path style=" stroke:none;fill-rule:evenodd;fill:rgb(45.098039%,45.098039%,87.058824%);fill-opacity:1;" d="M 167.492188 40.984375 C 167.492188 40.363281 166.554688 40.363281 166.554688 40.984375 C 166.554688 41.609375 167.492188 41.609375 167.492188 40.984375 "/>
<path style=" stroke:none;fill-rule:evenodd;fill:rgb(45.098039%,45.098039%,87.058824%);fill-opacity:1;" d="M 174.691406 40.625 C 174.691406 40 173.753906 40 173.753906 40.625 C 173.753906 41.25 174.691406 41.25 174.691406 40.625 "/>
<path style=" stroke:none;fill-rule:evenodd;fill:rgb(45.098039%,45.098039%,87.058824%);fill-opacity:1;" d="M 182.25 40.625 C 182.25 40 181.316406 40 181.316406 40.625 C 181.316406 41.25 182.25 41.25 182.25 40.625 "/>
<path style=" stroke:none;fill-rule:evenodd;fill:rgb(45.098039%,45.098039%,87.058824%);fill-opacity:1;" d="M 209.972656 48.882812 C 209.972656 48.261719 209.035156 48.261719 209.035156 48.882812 C 209.035156 49.507812 209.972656 49.507812 209.972656 48.882812 "/>
<path style=" stroke:none;fill-rule:evenodd;fill:rgb(45.098039%,45.098039%,87.058824%);fill-opacity:1;" d="M 212.492188 48.164062 C 212.492188 47.539062 211.554688 47.539062 211.554688 48.164062 C 211.554688 48.789062 212.492188 48.789062 212.492188 48.164062 "/>
<path style=" stroke:none;fill-rule:evenodd;fill:rgb(45.098039%,45.098039%,87.058824%);fill-opacity:1;" d="M 215.730469 43.484375 C 215.730469 42.859375 214.796875 42.859375 214.796875 43.484375 C 214.796875 44.109375 215.730469 44.109375 215.730469 43.484375 "/>
<path style=" stroke:none;fill-rule:evenodd;fill:rgb(45.098039%,45.098039%,87.058824%);fill-opacity:1;" d="M 217.53125 40.964844 C 217.53125 40.339844 216.597656 40.339844 216.597656 40.964844 C 216.597656 41.589844 217.53125 41.589844 217.53125 40.964844 "/>
<path style=" stroke:none;fill-rule:evenodd;fill:rgb(45.098039%,45.098039%,87.058824%);fill-opacity:1;" d="M 226.890625 27.644531 C 226.890625 27.019531 225.957031 27.019531 225.957031 27.644531 C 225.957031 28.269531 226.890625 28.269531 226.890625 27.644531 "/>
<path style=" stroke:none;fill-rule:evenodd;fill:rgb(45.098039%,45.098039%,87.058824%);fill-opacity:1;" d="M 233.371094 38.804688 C 233.371094 38.179688 232.4375 38.179688 232.4375 38.804688 C 232.4375 39.429688 233.371094 39.429688 233.371094 38.804688 "/>
<path style=" stroke:none;fill-rule:evenodd;fill:rgb(45.098039%,45.098039%,87.058824%);fill-opacity:1;" d="M 233.371094 46.003906 C 233.371094 45.378906 232.4375 45.378906 232.4375 46.003906 C 232.4375 46.628906 233.371094 46.628906 233.371094 46.003906 "/>
<path style=" stroke:none;fill-rule:evenodd;fill:rgb(45.098039%,45.098039%,87.058824%);fill-opacity:1;" d="M 251.371094 24.402344 C 251.371094 23.78125 250.4375 23.78125 250.4375 24.402344 C 250.4375 25.027344 251.371094 25.027344 251.371094 24.402344 "/>
<path style=" stroke:none;fill-rule:evenodd;fill:rgb(45.098039%,45.098039%,87.058824%);fill-opacity:1;" d="M 15.105469 16.484375 C 15.105469 15.523438 13.664062 15.523438 13.664062 16.484375 C 13.664062 17.445312 15.105469 17.445312 15.105469 16.484375 "/>
<path style=" stroke:none;fill-rule:evenodd;fill:rgb(45.098039%,45.098039%,87.058824%);fill-opacity:1;" d="M 21.222656 54.664062 C 21.222656 53.707031 19.785156 53.707031 19.785156 54.664062 C 19.785156 55.625 21.222656 55.625 21.222656 54.664062 "/>
<path style=" stroke:none;fill-rule:evenodd;fill:rgb(45.098039%,45.098039%,87.058824%);fill-opacity:1;" d="M 36.703125 23.347656 C 36.703125 22.386719 35.265625 22.386719 35.265625 23.347656 C 35.265625 24.304688 36.703125 24.304688 36.703125 23.347656 "/>
<path style=" stroke:none;fill-rule:evenodd;fill:rgb(45.098039%,45.098039%,87.058824%);fill-opacity:1;" d="M 41.382812 28.414062 C 41.382812 27.453125 39.945312 27.453125 39.945312 28.414062 C 39.945312 29.375 41.382812 29.375 41.382812 28.414062 "/>
<path style=" stroke:none;fill-rule:evenodd;fill:rgb(45.098039%,45.098039%,87.058824%);fill-opacity:1;" d="M 49.734375 27.210938 C 49.734375 26.253906 48.296875 26.253906 48.296875 27.210938 C 48.296875 28.171875 49.734375 28.171875 49.734375 27.210938 "/>
<path style=" stroke:none;fill-rule:evenodd;fill:rgb(45.098039%,45.098039%,87.058824%);fill-opacity:1;" d="M 51.03125 38.589844 C 51.03125 37.628906 49.59375 37.628906 49.59375 38.589844 C 49.59375 39.546875 51.03125 39.546875 51.03125 38.589844 "/>
<path style=" stroke:none;fill-rule:evenodd;fill:rgb(45.098039%,45.098039%,87.058824%);fill-opacity:1;" d="M 137.144531 53.269531 C 137.144531 52.308594 135.703125 52.308594 135.703125 53.269531 C 135.703125 54.230469 137.144531 54.230469 137.144531 53.269531 "/>
<path style=" stroke:none;fill-rule:evenodd;fill:rgb(45.098039%,45.098039%,87.058824%);fill-opacity:1;" d="M 137.144531 61.125 C 137.144531 60.164062 135.703125 60.164062 135.703125 61.125 C 135.703125 62.085938 137.144531 62.085938 137.144531 61.125 "/>
<path style=" stroke:none;fill-rule:evenodd;fill:rgb(45.098039%,45.098039%,87.058824%);fill-opacity:1;" d="M 148.664062 28.363281 C 148.664062 27.402344 147.222656 27.402344 147.222656 28.363281 C 147.222656 29.324219 148.664062 29.324219 148.664062 28.363281 "/>
<path style=" stroke:none;fill-rule:evenodd;fill:rgb(45.098039%,45.098039%,87.058824%);fill-opacity:1;" d="M 172.421875 7.125 C 172.421875 6.164062 170.984375 6.164062 170.984375 7.125 C 170.984375 8.085938 172.421875 8.085938 172.421875 7.125 "/>
<path style=" stroke:none;fill-rule:evenodd;fill:rgb(45.098039%,45.098039%,87.058824%);fill-opacity:1;" d="M 172.421875 46.746094 C 172.421875 45.785156 170.984375 45.785156 170.984375 46.746094 C 170.984375 47.707031 172.421875 47.707031 172.421875 46.746094 "/>
<path style=" stroke:none;fill-rule:evenodd;fill:rgb(45.098039%,45.098039%,87.058824%);fill-opacity:1;" d="M 176.382812 7.125 C 176.382812 6.164062 174.945312 6.164062 174.945312 7.125 C 174.945312 8.085938 176.382812 8.085938 176.382812 7.125 "/>
<path style=" stroke:none;fill-rule:evenodd;fill:rgb(45.098039%,45.098039%,87.058824%);fill-opacity:1;" d="M 192.582031 29.824219 C 192.582031 28.867188 191.144531 28.867188 191.144531 29.824219 C 191.144531 30.785156 192.582031 30.785156 192.582031 29.824219 "/>
<path style=" stroke:none;fill-rule:evenodd;fill:rgb(45.098039%,45.098039%,87.058824%);fill-opacity:1;" d="M 194.023438 33.042969 C 194.023438 32.085938 192.582031 32.085938 192.582031 33.042969 C 192.582031 34.003906 194.023438 34.003906 194.023438 33.042969 "/>
<path style=" stroke:none;fill-rule:evenodd;fill:rgb(45.098039%,45.098039%,87.058824%);fill-opacity:1;" d="M 194.023438 36.285156 C 194.023438 35.324219 192.582031 35.324219 192.582031 36.285156 C 192.582031 37.246094 194.023438 37.246094 194.023438 36.285156 "/>
<path style=" stroke:none;fill-rule:evenodd;fill:rgb(45.098039%,45.098039%,87.058824%);fill-opacity:1;" d="M 195.464844 45.644531 C 195.464844 44.683594 194.023438 44.683594 194.023438 45.644531 C 194.023438 46.605469 195.464844 46.605469 195.464844 45.644531 "/>
<path style=" stroke:none;fill-rule:evenodd;fill:rgb(45.098039%,45.098039%,87.058824%);fill-opacity:1;" d="M 200.503906 15.402344 C 200.503906 14.445312 199.0625 14.445312 199.0625 15.402344 C 199.0625 16.363281 200.503906 16.363281 200.503906 15.402344 "/>
<path style=" stroke:none;fill-rule:evenodd;fill:rgb(45.098039%,45.098039%,87.058824%);fill-opacity:1;" d="M 200.863281 64.722656 C 200.863281 63.765625 199.421875 63.765625 199.421875 64.722656 C 199.421875 65.683594 200.863281 65.683594 200.863281 64.722656 "/>
<path style=" stroke:none;fill-rule:evenodd;fill:rgb(45.098039%,45.098039%,87.058824%);fill-opacity:1;" d="M 217.785156 20.445312 C 217.785156 19.484375 216.34375 19.484375 216.34375 20.445312 C 216.34375 21.402344 217.785156 21.402344 217.785156 20.445312 "/>
<path style=" stroke:none;fill-rule:evenodd;fill:rgb(45.098039%,45.098039%,87.058824%);fill-opacity:1;" d="M 217.785156 25.484375 C 217.785156 24.523438 216.34375 24.523438 216.34375 25.484375 C 216.34375 26.445312 217.785156 26.445312 217.785156 25.484375 "/>
<path style=" stroke:none;fill-rule:evenodd;fill:rgb(45.098039%,45.098039%,87.058824%);fill-opacity:1;" d="M 217.785156 28.722656 C 217.785156 27.765625 216.34375 27.765625 216.34375 28.722656 C 216.34375 29.683594 217.785156 29.683594 217.785156 28.722656 "/>
<path style=" stroke:none;fill-rule:evenodd;fill:rgb(45.098039%,45.098039%,87.058824%);fill-opacity:1;" d="M 217.785156 34.125 C 217.785156 33.164062 216.34375 33.164062 216.34375 34.125 C 216.34375 35.085938 217.785156 35.085938 217.785156 34.125 "/>
<path style=" stroke:none;fill-rule:evenodd;fill:rgb(45.098039%,45.098039%,87.058824%);fill-opacity:1;" d="M 218.863281 13.964844 C 218.863281 13.003906 217.421875 13.003906 217.421875 13.964844 C 217.421875 14.925781 218.863281 14.925781 218.863281 13.964844 "/>
<path style=" stroke:none;fill-rule:evenodd;fill:rgb(45.098039%,45.098039%,87.058824%);fill-opacity:1;" d="M 15.644531 30.882812 C 15.644531 29.203125 13.125 29.203125 13.125 30.882812 C 13.125 32.5625 15.644531 32.5625 15.644531 30.882812 "/>
<path style=" stroke:none;fill-rule:evenodd;fill:rgb(45.098039%,45.098039%,87.058824%);fill-opacity:1;" d="M 17.445312 45.664062 C 17.445312 43.984375 14.921875 43.984375 14.921875 45.664062 C 14.921875 47.347656 17.445312 47.347656 17.445312 45.664062 "/>
<path style=" stroke:none;fill-rule:evenodd;fill:rgb(45.098039%,45.098039%,87.058824%);fill-opacity:1;" d="M 23.203125 15.042969 C 23.203125 13.363281 20.683594 13.363281 20.683594 15.042969 C 20.683594 16.722656 23.203125 16.722656 23.203125 15.042969 "/>
<path style=" stroke:none;fill-rule:evenodd;fill:rgb(45.098039%,45.098039%,87.058824%);fill-opacity:1;" d="M 148.84375 33.066406 C 148.84375 31.386719 146.324219 31.386719 146.324219 33.066406 C 146.324219 34.746094 148.84375 34.746094 148.84375 33.066406 "/>
<path style=" stroke:none;fill-rule:evenodd;fill:rgb(45.098039%,45.098039%,87.058824%);fill-opacity:1;" d="M 257.5625 43.503906 C 257.5625 41.824219 255.042969 41.824219 255.042969 43.503906 C 255.042969 45.1875 257.5625 45.1875 257.5625 43.503906 "/>
<path style=" stroke:none;fill-rule:evenodd;fill:rgb(45.098039%,45.098039%,87.058824%);fill-opacity:1;" d="M 28.242188 36.242188 C 28.242188 34.5625 25.722656 34.5625 25.722656 36.242188 C 25.722656 37.921875 28.242188 37.921875 28.242188 36.242188 "/>
<path style=" stroke:none;fill-rule:evenodd;fill:rgb(45.098039%,45.098039%,87.058824%);fill-opacity:1;" d="M 28.242188 42.023438 C 28.242188 40.34375 25.722656 40.34375 25.722656 42.023438 C 25.722656 43.703125 28.242188 43.703125 28.242188 42.023438 "/>
<path style=" stroke:none;fill-rule:evenodd;fill:rgb(45.098039%,45.098039%,87.058824%);fill-opacity:1;" d="M 28.242188 47.804688 C 28.242188 46.125 25.722656 46.125 25.722656 47.804688 C 25.722656 49.484375 28.242188 49.484375 28.242188 47.804688 "/>
<path style=" stroke:none;fill-rule:evenodd;fill:rgb(45.098039%,45.098039%,87.058824%);fill-opacity:1;" d="M 28.242188 53.585938 C 28.242188 51.90625 25.722656 51.90625 25.722656 53.585938 C 25.722656 55.265625 28.242188 55.265625 28.242188 53.585938 "/>
<path style=" stroke:none;fill-rule:evenodd;fill:rgb(45.098039%,45.098039%,87.058824%);fill-opacity:1;" d="M 33.347656 33.347656 C 33.347656 31.667969 30.828125 31.667969 30.828125 33.347656 C 30.828125 35.027344 33.347656 35.027344 33.347656 33.347656 "/>
<path style=" stroke:none;fill-rule:evenodd;fill:rgb(45.098039%,45.098039%,87.058824%);fill-opacity:1;" d="M 33.347656 39.128906 C 33.347656 37.449219 30.828125 37.449219 30.828125 39.128906 C 30.828125 40.808594 33.347656 40.808594 33.347656 39.128906 "/>
<path style=" stroke:none;fill-rule:evenodd;fill:rgb(45.098039%,45.098039%,87.058824%);fill-opacity:1;" d="M 33.347656 44.910156 C 33.347656 43.230469 30.828125 43.230469 30.828125 44.910156 C 30.828125 46.589844 33.347656 46.589844 33.347656 44.910156 "/>
<path style=" stroke:none;fill-rule:evenodd;fill:rgb(45.098039%,45.098039%,87.058824%);fill-opacity:1;" d="M 33.347656 50.699219 C 33.347656 49.019531 30.828125 49.019531 30.828125 50.699219 C 30.828125 52.378906 33.347656 52.378906 33.347656 50.699219 "/>
<path style=" stroke:none;fill-rule:evenodd;fill:rgb(45.098039%,45.098039%,87.058824%);fill-opacity:1;" d="M 46.976562 23.625 C 46.976562 21.945312 44.457031 21.945312 44.457031 23.625 C 44.457031 25.304688 46.976562 25.304688 46.976562 23.625 "/>
<path style=" stroke:none;fill-rule:evenodd;fill:rgb(45.098039%,45.098039%,87.058824%);fill-opacity:1;" d="M 46.976562 30.855469 C 46.976562 29.175781 44.457031 29.175781 44.457031 30.855469 C 44.457031 32.535156 46.976562 32.535156 46.976562 30.855469 "/>
<path style=" stroke:none;fill-rule:evenodd;fill:rgb(45.098039%,45.098039%,87.058824%);fill-opacity:1;" d="M 46.976562 56.085938 C 46.976562 54.402344 44.457031 54.402344 44.457031 56.085938 C 44.457031 57.765625 46.976562 57.765625 46.976562 56.085938 "/>
<path style=" stroke:none;fill-rule:evenodd;fill:rgb(45.098039%,45.098039%,87.058824%);fill-opacity:1;" d="M 46.976562 63.3125 C 46.976562 61.632812 44.457031 61.632812 44.457031 63.3125 C 44.457031 64.992188 46.976562 64.992188 46.976562 63.3125 "/>
<path style=" stroke:none;fill-rule:evenodd;fill:rgb(45.098039%,45.098039%,87.058824%);fill-opacity:1;" d="M 226.976562 13.921875 C 226.976562 12.242188 224.457031 12.242188 224.457031 13.921875 C 224.457031 15.601562 226.976562 15.601562 226.976562 13.921875 "/>
<path style=" stroke:none;fill-rule:evenodd;fill:rgb(45.098039%,45.098039%,87.058824%);fill-opacity:1;" d="M 226.976562 21.148438 C 226.976562 19.46875 224.457031 19.46875 224.457031 21.148438 C 224.457031 22.828125 226.976562 22.828125 226.976562 21.148438 "/>
<path style=" stroke:none;fill-rule:evenodd;fill:rgb(45.098039%,45.098039%,87.058824%);fill-opacity:1;" d="M 226.976562 46.378906 C 226.976562 44.699219 224.457031 44.699219 224.457031 46.378906 C 224.457031 48.058594 226.976562 48.058594 226.976562 46.378906 "/>
<path style=" stroke:none;fill-rule:evenodd;fill:rgb(45.098039%,45.098039%,87.058824%);fill-opacity:1;" d="M 226.976562 53.605469 C 226.976562 51.925781 224.457031 51.925781 224.457031 53.605469 C 224.457031 55.289062 226.976562 55.289062 226.976562 53.605469 "/>
<path style=" stroke:none;fill-rule:evenodd;fill:rgb(45.098039%,45.098039%,87.058824%);fill-opacity:1;" d="M 240.613281 26.535156 C 240.613281 24.855469 238.09375 24.855469 238.09375 26.535156 C 238.09375 28.214844 240.613281 28.214844 240.613281 26.535156 "/>
<path style=" stroke:none;fill-rule:evenodd;fill:rgb(45.098039%,45.098039%,87.058824%);fill-opacity:1;" d="M 240.613281 32.316406 C 240.613281 30.636719 238.09375 30.636719 238.09375 32.316406 C 238.09375 33.996094 240.613281 33.996094 240.613281 32.316406 "/>
<path style=" stroke:none;fill-rule:evenodd;fill:rgb(45.098039%,45.098039%,87.058824%);fill-opacity:1;" d="M 240.613281 38.097656 C 240.613281 36.417969 238.09375 36.417969 238.09375 38.097656 C 238.09375 39.777344 240.613281 39.777344 240.613281 38.097656 "/>
<path style=" stroke:none;fill-rule:evenodd;fill:rgb(45.098039%,45.098039%,87.058824%);fill-opacity:1;" d="M 240.613281 43.886719 C 240.613281 42.207031 238.09375 42.207031 238.09375 43.886719 C 238.09375 45.566406 240.613281 45.566406 240.613281 43.886719 "/>
<path style=" stroke:none;fill-rule:evenodd;fill:rgb(45.098039%,45.098039%,87.058824%);fill-opacity:1;" d="M 245.710938 23.640625 C 245.710938 21.960938 243.191406 21.960938 243.191406 23.640625 C 243.191406 25.320312 245.710938 25.320312 245.710938 23.640625 "/>
<path style=" stroke:none;fill-rule:evenodd;fill:rgb(45.098039%,45.098039%,87.058824%);fill-opacity:1;" d="M 245.710938 29.429688 C 245.710938 27.75 243.191406 27.75 243.191406 29.429688 C 243.191406 31.109375 245.710938 31.109375 245.710938 29.429688 "/>
<path style=" stroke:none;fill-rule:evenodd;fill:rgb(45.098039%,45.098039%,87.058824%);fill-opacity:1;" d="M 245.710938 35.210938 C 245.710938 33.53125 243.191406 33.53125 243.191406 35.210938 C 243.191406 36.890625 245.710938 36.890625 245.710938 35.210938 "/>
<path style=" stroke:none;fill-rule:evenodd;fill:rgb(45.098039%,45.098039%,87.058824%);fill-opacity:1;" d="M 245.710938 40.992188 C 245.710938 39.3125 243.191406 39.3125 243.191406 40.992188 C 243.191406 42.671875 245.710938 42.671875 245.710938 40.992188 "/>
<path style=" stroke:none;fill-rule:evenodd;fill:rgb(45.098039%,45.098039%,87.058824%);fill-opacity:1;" d="M 14.671875 6.765625 C 14.671875 4.941406 11.9375 4.941406 11.9375 6.765625 C 11.9375 8.589844 14.671875 8.589844 14.671875 6.765625 "/>
<path style=" stroke:none;fill-rule:evenodd;fill:rgb(45.098039%,45.098039%,87.058824%);fill-opacity:1;" d="M 21.871094 6.765625 C 21.871094 4.941406 19.136719 4.941406 19.136719 6.765625 C 19.136719 8.589844 21.871094 8.589844 21.871094 6.765625 "/>
<path style=" stroke:none;fill-rule:evenodd;fill:rgb(45.098039%,45.098039%,87.058824%);fill-opacity:1;" d="M 29.070312 6.765625 C 29.070312 4.941406 26.335938 4.941406 26.335938 6.765625 C 26.335938 8.589844 29.070312 8.589844 29.070312 6.765625 "/>
<path style=" stroke:none;fill-rule:evenodd;fill:rgb(45.098039%,45.098039%,87.058824%);fill-opacity:1;" d="M 36.273438 6.765625 C 36.273438 4.941406 33.535156 4.941406 33.535156 6.765625 C 33.535156 8.589844 36.273438 8.589844 36.273438 6.765625 "/>
<path style=" stroke:none;fill-rule:evenodd;fill:rgb(45.098039%,45.098039%,87.058824%);fill-opacity:1;" d="M 43.472656 6.765625 C 43.472656 4.941406 40.734375 4.941406 40.734375 6.765625 C 40.734375 8.589844 43.472656 8.589844 43.472656 6.765625 "/>
<path style=" stroke:none;fill-rule:evenodd;fill:rgb(45.098039%,45.098039%,87.058824%);fill-opacity:1;" d="M 50.671875 6.765625 C 50.671875 4.941406 47.9375 4.941406 47.9375 6.765625 C 47.9375 8.589844 50.671875 8.589844 50.671875 6.765625 "/>
<path style=" stroke:none;fill-rule:evenodd;fill:rgb(45.098039%,45.098039%,87.058824%);fill-opacity:1;" d="M 61.472656 6.765625 C 61.472656 4.941406 58.734375 4.941406 58.734375 6.765625 C 58.734375 8.589844 61.472656 8.589844 61.472656 6.765625 "/>
<path style=" stroke:none;fill-rule:evenodd;fill:rgb(45.098039%,45.098039%,87.058824%);fill-opacity:1;" d="M 61.472656 13.964844 C 61.472656 12.140625 58.734375 12.140625 58.734375 13.964844 C 58.734375 15.789062 61.472656 15.789062 61.472656 13.964844 "/>
<path style=" stroke:none;fill-rule:evenodd;fill:rgb(45.098039%,45.098039%,87.058824%);fill-opacity:1;" d="M 68.671875 6.765625 C 68.671875 4.941406 65.9375 4.941406 65.9375 6.765625 C 65.9375 8.589844 68.671875 8.589844 68.671875 6.765625 "/>
<path style=" stroke:none;fill-rule:evenodd;fill:rgb(45.098039%,45.098039%,87.058824%);fill-opacity:1;" d="M 68.671875 13.964844 C 68.671875 12.140625 65.9375 12.140625 65.9375 13.964844 C 65.9375 15.789062 68.671875 15.789062 68.671875 13.964844 "/>
<path style=" stroke:none;fill-rule:evenodd;fill:rgb(45.098039%,45.098039%,87.058824%);fill-opacity:1;" d="M 89.550781 6.765625 C 89.550781 4.941406 86.816406 4.941406 86.816406 6.765625 C 86.816406 8.589844 89.550781 8.589844 89.550781 6.765625 "/>
<path style=" stroke:none;fill-rule:evenodd;fill:rgb(45.098039%,45.098039%,87.058824%);fill-opacity:1;" d="M 89.550781 13.964844 C 89.550781 12.140625 86.816406 12.140625 86.816406 13.964844 C 86.816406 15.789062 89.550781 15.789062 89.550781 13.964844 "/>
<path style=" stroke:none;fill-rule:evenodd;fill:rgb(45.098039%,45.098039%,87.058824%);fill-opacity:1;" d="M 96.75 6.765625 C 96.75 4.941406 94.015625 4.941406 94.015625 6.765625 C 94.015625 8.589844 96.75 8.589844 96.75 6.765625 "/>
<path style=" stroke:none;fill-rule:evenodd;fill:rgb(45.098039%,45.098039%,87.058824%);fill-opacity:1;" d="M 96.75 13.964844 C 96.75 12.140625 94.015625 12.140625 94.015625 13.964844 C 94.015625 15.789062 96.75 15.789062 96.75 13.964844 "/>
<path style=" stroke:none;fill-rule:evenodd;fill:rgb(45.098039%,45.098039%,87.058824%);fill-opacity:1;" d="M 103.953125 6.765625 C 103.953125 4.941406 101.214844 4.941406 101.214844 6.765625 C 101.214844 8.589844 103.953125 8.589844 103.953125 6.765625 "/>
<path style=" stroke:none;fill-rule:evenodd;fill:rgb(45.098039%,45.098039%,87.058824%);fill-opacity:1;" d="M 103.953125 13.964844 C 103.953125 12.140625 101.214844 12.140625 101.214844 13.964844 C 101.214844 15.789062 103.953125 15.789062 103.953125 13.964844 "/>
<path style=" stroke:none;fill-rule:evenodd;fill:rgb(45.098039%,45.098039%,87.058824%);fill-opacity:1;" d="M 111.152344 6.765625 C 111.152344 4.941406 108.414062 4.941406 108.414062 6.765625 C 108.414062 8.589844 111.152344 8.589844 111.152344 6.765625 "/>
<path style=" stroke:none;fill-rule:evenodd;fill:rgb(45.098039%,45.098039%,87.058824%);fill-opacity:1;" d="M 111.152344 13.964844 C 111.152344 12.140625 108.414062 12.140625 108.414062 13.964844 C 108.414062 15.789062 111.152344 15.789062 111.152344 13.964844 "/>
<path style=" stroke:none;fill-rule:evenodd;fill:rgb(45.098039%,45.098039%,87.058824%);fill-opacity:1;" d="M 118.351562 6.765625 C 118.351562 4.941406 115.617188 4.941406 115.617188 6.765625 C 115.617188 8.589844 118.351562 8.589844 118.351562 6.765625 "/>
<path style=" stroke:none;fill-rule:evenodd;fill:rgb(45.098039%,45.098039%,87.058824%);fill-opacity:1;" d="M 118.351562 13.964844 C 118.351562 12.140625 115.617188 12.140625 115.617188 13.964844 C 115.617188 15.789062 118.351562 15.789062 118.351562 13.964844 "/>
<path style=" stroke:none;fill-rule:evenodd;fill:rgb(45.098039%,45.098039%,87.058824%);fill-opacity:1;" d="M 132.390625 24.765625 C 132.390625 22.941406 129.65625 22.941406 129.65625 24.765625 C 129.65625 26.589844 132.390625 26.589844 132.390625 24.765625 "/>
<path style=" stroke:none;fill-rule:evenodd;fill:rgb(45.098039%,45.098039%,87.058824%);fill-opacity:1;" d="M 132.390625 31.964844 C 132.390625 30.140625 129.65625 30.140625 129.65625 31.964844 C 129.65625 33.789062 132.390625 33.789062 132.390625 31.964844 "/>
<path style=" stroke:none;fill-rule:evenodd;fill:rgb(45.098039%,45.098039%,87.058824%);fill-opacity:1;" d="M 132.390625 39.164062 C 132.390625 37.339844 129.65625 37.339844 129.65625 39.164062 C 129.65625 40.988281 132.390625 40.988281 132.390625 39.164062 "/>
<path style=" stroke:none;fill-rule:evenodd;fill:rgb(45.098039%,45.098039%,87.058824%);fill-opacity:1;" d="M 132.390625 46.363281 C 132.390625 44.539062 129.65625 44.539062 129.65625 46.363281 C 129.65625 48.1875 132.390625 48.1875 132.390625 46.363281 "/>
<path style=" stroke:none;fill-rule:evenodd;fill:rgb(45.098039%,45.098039%,87.058824%);fill-opacity:1;" d="M 132.390625 53.5625 C 132.390625 51.738281 129.65625 51.738281 129.65625 53.5625 C 129.65625 55.386719 132.390625 55.386719 132.390625 53.5625 "/>
<path style=" stroke:none;fill-rule:evenodd;fill:rgb(45.098039%,45.098039%,87.058824%);fill-opacity:1;" d="M 132.390625 60.765625 C 132.390625 58.941406 129.65625 58.941406 129.65625 60.765625 C 129.65625 62.589844 132.390625 62.589844 132.390625 60.765625 "/>
<path style=" stroke:none;fill-rule:evenodd;fill:rgb(45.098039%,45.098039%,87.058824%);fill-opacity:1;" d="M 139.59375 6.765625 C 139.59375 4.941406 136.855469 4.941406 136.855469 6.765625 C 136.855469 8.589844 139.59375 8.589844 139.59375 6.765625 "/>
<path style=" stroke:none;fill-rule:evenodd;fill:rgb(45.098039%,45.098039%,87.058824%);fill-opacity:1;" d="M 139.59375 13.964844 C 139.59375 12.140625 136.855469 12.140625 136.855469 13.964844 C 136.855469 15.789062 139.59375 15.789062 139.59375 13.964844 "/>
<path style=" stroke:none;fill-rule:evenodd;fill:rgb(45.098039%,45.098039%,87.058824%);fill-opacity:1;" d="M 146.070312 24.765625 C 146.070312 22.941406 143.335938 22.941406 143.335938 24.765625 C 143.335938 26.589844 146.070312 26.589844 146.070312 24.765625 "/>
<path style=" stroke:none;fill-rule:evenodd;fill:rgb(45.098039%,45.098039%,87.058824%);fill-opacity:1;" d="M 146.070312 60.765625 C 146.070312 58.941406 143.335938 58.941406 143.335938 60.765625 C 143.335938 62.589844 146.070312 62.589844 146.070312 60.765625 "/>
<path style=" stroke:none;fill-rule:evenodd;fill:rgb(45.098039%,45.098039%,87.058824%);fill-opacity:1;" d="M 146.792969 6.765625 C 146.792969 4.941406 144.054688 4.941406 144.054688 6.765625 C 144.054688 8.589844 146.792969 8.589844 146.792969 6.765625 "/>
<path style=" stroke:none;fill-rule:evenodd;fill:rgb(45.098039%,45.098039%,87.058824%);fill-opacity:1;" d="M 146.792969 13.964844 C 146.792969 12.140625 144.054688 12.140625 144.054688 13.964844 C 144.054688 15.789062 146.792969 15.789062 146.792969 13.964844 "/>
<path style=" stroke:none;fill-rule:evenodd;fill:rgb(45.098039%,45.098039%,87.058824%);fill-opacity:1;" d="M 153.273438 24.765625 C 153.273438 22.941406 150.535156 22.941406 150.535156 24.765625 C 150.535156 26.589844 153.273438 26.589844 153.273438 24.765625 "/>
<path style=" stroke:none;fill-rule:evenodd;fill:rgb(45.098039%,45.098039%,87.058824%);fill-opacity:1;" d="M 153.273438 60.765625 C 153.273438 58.941406 150.535156 58.941406 150.535156 60.765625 C 150.535156 62.589844 153.273438 62.589844 153.273438 60.765625 "/>
<path style=" stroke:none;fill-rule:evenodd;fill:rgb(45.098039%,45.098039%,87.058824%);fill-opacity:1;" d="M 153.992188 6.765625 C 153.992188 4.941406 151.253906 4.941406 151.253906 6.765625 C 151.253906 8.589844 153.992188 8.589844 153.992188 6.765625 "/>
<path style=" stroke:none;fill-rule:evenodd;fill:rgb(45.098039%,45.098039%,87.058824%);fill-opacity:1;" d="M 153.992188 13.964844 C 153.992188 12.140625 151.253906 12.140625 151.253906 13.964844 C 151.253906 15.789062 153.992188 15.789062 153.992188 13.964844 "/>
<path style=" stroke:none;fill-rule:evenodd;fill:rgb(45.098039%,45.098039%,87.058824%);fill-opacity:1;" d="M 160.472656 24.765625 C 160.472656 22.941406 157.734375 22.941406 157.734375 24.765625 C 157.734375 26.589844 160.472656 26.589844 160.472656 24.765625 "/>
<path style=" stroke:none;fill-rule:evenodd;fill:rgb(45.098039%,45.098039%,87.058824%);fill-opacity:1;" d="M 160.472656 60.765625 C 160.472656 58.941406 157.734375 58.941406 157.734375 60.765625 C 157.734375 62.589844 160.472656 62.589844 160.472656 60.765625 "/>
<path style=" stroke:none;fill-rule:evenodd;fill:rgb(45.098039%,45.098039%,87.058824%);fill-opacity:1;" d="M 161.191406 6.765625 C 161.191406 4.941406 158.457031 4.941406 158.457031 6.765625 C 158.457031 8.589844 161.191406 8.589844 161.191406 6.765625 "/>
<path style=" stroke:none;fill-rule:evenodd;fill:rgb(45.098039%,45.098039%,87.058824%);fill-opacity:1;" d="M 161.191406 13.964844 C 161.191406 12.140625 158.457031 12.140625 158.457031 13.964844 C 158.457031 15.789062 161.191406 15.789062 161.191406 13.964844 "/>
<path style=" stroke:none;fill-rule:evenodd;fill:rgb(45.098039%,45.098039%,87.058824%);fill-opacity:1;" d="M 167.671875 24.765625 C 167.671875 22.941406 164.9375 22.941406 164.9375 24.765625 C 164.9375 26.589844 167.671875 26.589844 167.671875 24.765625 "/>
<path style=" stroke:none;fill-rule:evenodd;fill:rgb(45.098039%,45.098039%,87.058824%);fill-opacity:1;" d="M 167.671875 60.765625 C 167.671875 58.941406 164.9375 58.941406 164.9375 60.765625 C 164.9375 62.589844 167.671875 62.589844 167.671875 60.765625 "/>
<path style=" stroke:none;fill-rule:evenodd;fill:rgb(45.098039%,45.098039%,87.058824%);fill-opacity:1;" d="M 168.390625 6.765625 C 168.390625 4.941406 165.65625 4.941406 165.65625 6.765625 C 165.65625 8.589844 168.390625 8.589844 168.390625 6.765625 "/>
<path style=" stroke:none;fill-rule:evenodd;fill:rgb(45.098039%,45.098039%,87.058824%);fill-opacity:1;" d="M 168.390625 13.964844 C 168.390625 12.140625 165.65625 12.140625 165.65625 13.964844 C 165.65625 15.789062 168.390625 15.789062 168.390625 13.964844 "/>
<path style=" stroke:none;fill-rule:evenodd;fill:rgb(45.098039%,45.098039%,87.058824%);fill-opacity:1;" d="M 174.871094 24.765625 C 174.871094 22.941406 172.136719 22.941406 172.136719 24.765625 C 172.136719 26.589844 174.871094 26.589844 174.871094 24.765625 "/>
<path style=" stroke:none;fill-rule:evenodd;fill:rgb(45.098039%,45.098039%,87.058824%);fill-opacity:1;" d="M 174.871094 60.765625 C 174.871094 58.941406 172.136719 58.941406 172.136719 60.765625 C 172.136719 62.589844 174.871094 62.589844 174.871094 60.765625 "/>
<path style=" stroke:none;fill-rule:evenodd;fill:rgb(45.098039%,45.098039%,87.058824%);fill-opacity:1;" d="M 182.070312 24.765625 C 182.070312 22.941406 179.335938 22.941406 179.335938 24.765625 C 179.335938 26.589844 182.070312 26.589844 182.070312 24.765625 "/>
<path style=" stroke:none;fill-rule:evenodd;fill:rgb(45.098039%,45.098039%,87.058824%);fill-opacity:1;" d="M 182.070312 60.765625 C 182.070312 58.941406 179.335938 58.941406 179.335938 60.765625 C 179.335938 62.589844 182.070312 62.589844 182.070312 60.765625 "/>
<path style=" stroke:none;fill-rule:evenodd;fill:rgb(45.098039%,45.098039%,87.058824%);fill-opacity:1;" d="M 189.273438 6.765625 C 189.273438 4.941406 186.535156 4.941406 186.535156 6.765625 C 186.535156 8.589844 189.273438 8.589844 189.273438 6.765625 "/>
<path style=" stroke:none;fill-rule:evenodd;fill:rgb(45.098039%,45.098039%,87.058824%);fill-opacity:1;" d="M 189.273438 13.964844 C 189.273438 12.140625 186.535156 12.140625 186.535156 13.964844 C 186.535156 15.789062 189.273438 15.789062 189.273438 13.964844 "/>
<path style=" stroke:none;fill-rule:evenodd;fill:rgb(45.098039%,45.098039%,87.058824%);fill-opacity:1;" d="M 189.273438 24.765625 C 189.273438 22.941406 186.535156 22.941406 186.535156 24.765625 C 186.535156 26.589844 189.273438 26.589844 189.273438 24.765625 "/>
<path style=" stroke:none;fill-rule:evenodd;fill:rgb(45.098039%,45.098039%,87.058824%);fill-opacity:1;" d="M 189.273438 60.765625 C 189.273438 58.941406 186.535156 58.941406 186.535156 60.765625 C 186.535156 62.589844 189.273438 62.589844 189.273438 60.765625 "/>
<path style=" stroke:none;fill-rule:evenodd;fill:rgb(45.098039%,45.098039%,87.058824%);fill-opacity:1;" d="M 196.472656 6.765625 C 196.472656 4.941406 193.734375 4.941406 193.734375 6.765625 C 193.734375 8.589844 196.472656 8.589844 196.472656 6.765625 "/>
<path style=" stroke:none;fill-rule:evenodd;fill:rgb(45.098039%,45.098039%,87.058824%);fill-opacity:1;" d="M 196.472656 13.964844 C 196.472656 12.140625 193.734375 12.140625 193.734375 13.964844 C 193.734375 15.789062 196.472656 15.789062 196.472656 13.964844 "/>
<path style=" stroke:none;fill-rule:evenodd;fill:rgb(45.098039%,45.098039%,87.058824%);fill-opacity:1;" d="M 196.472656 24.765625 C 196.472656 22.941406 193.734375 22.941406 193.734375 24.765625 C 193.734375 26.589844 196.472656 26.589844 196.472656 24.765625 "/>
<path style=" stroke:none;fill-rule:evenodd;fill:rgb(45.098039%,45.098039%,87.058824%);fill-opacity:1;" d="M 196.472656 60.765625 C 196.472656 58.941406 193.734375 58.941406 193.734375 60.765625 C 193.734375 62.589844 196.472656 62.589844 196.472656 60.765625 "/>
<path style=" stroke:none;fill-rule:evenodd;fill:rgb(45.098039%,45.098039%,87.058824%);fill-opacity:1;" d="M 210.871094 6.765625 C 210.871094 4.941406 208.136719 4.941406 208.136719 6.765625 C 208.136719 8.589844 210.871094 8.589844 210.871094 6.765625 "/>
<path style=" stroke:none;fill-rule:evenodd;fill:rgb(45.098039%,45.098039%,87.058824%);fill-opacity:1;" d="M 210.871094 60.765625 C 210.871094 58.941406 208.136719 58.941406 208.136719 60.765625 C 208.136719 62.589844 210.871094 62.589844 210.871094 60.765625 "/>
<path style=" stroke:none;fill-rule:evenodd;fill:rgb(45.098039%,45.098039%,87.058824%);fill-opacity:1;" d="M 218.070312 6.765625 C 218.070312 4.941406 215.335938 4.941406 215.335938 6.765625 C 215.335938 8.589844 218.070312 8.589844 218.070312 6.765625 "/>
<path style=" stroke:none;fill-rule:evenodd;fill:rgb(45.098039%,45.098039%,87.058824%);fill-opacity:1;" d="M 218.070312 60.765625 C 218.070312 58.941406 215.335938 58.941406 215.335938 60.765625 C 215.335938 62.589844 218.070312 62.589844 218.070312 60.765625 "/>
<path style=" stroke:none;fill-rule:evenodd;fill:rgb(45.098039%,45.098039%,87.058824%);fill-opacity:1;" d="M 225.273438 6.765625 C 225.273438 4.941406 222.535156 4.941406 222.535156 6.765625 C 222.535156 8.589844 225.273438 8.589844 225.273438 6.765625 "/>
<path style=" stroke:none;fill-rule:evenodd;fill:rgb(45.098039%,45.098039%,87.058824%);fill-opacity:1;" d="M 225.273438 60.765625 C 225.273438 58.941406 222.535156 58.941406 222.535156 60.765625 C 222.535156 62.589844 225.273438 62.589844 225.273438 60.765625 "/>
<path style=" stroke:none;fill-rule:evenodd;fill:rgb(45.098039%,45.098039%,87.058824%);fill-opacity:1;" d="M 232.472656 6.765625 C 232.472656 4.941406 229.734375 4.941406 229.734375 6.765625 C 229.734375 8.589844 232.472656 8.589844 232.472656 6.765625 "/>
<path style=" stroke:none;fill-rule:evenodd;fill:rgb(45.098039%,45.098039%,87.058824%);fill-opacity:1;" d="M 232.472656 60.765625 C 232.472656 58.941406 229.734375 58.941406 229.734375 60.765625 C 229.734375 62.589844 232.472656 62.589844 232.472656 60.765625 "/>
<path style=" stroke:none;fill-rule:evenodd;fill:rgb(45.098039%,45.098039%,87.058824%);fill-opacity:1;" d="M 239.671875 6.765625 C 239.671875 4.941406 236.9375 4.941406 236.9375 6.765625 C 236.9375 8.589844 239.671875 8.589844 239.671875 6.765625 "/>
<path style=" stroke:none;fill-rule:evenodd;fill:rgb(45.098039%,45.098039%,87.058824%);fill-opacity:1;" d="M 239.671875 60.765625 C 239.671875 58.941406 236.9375 58.941406 236.9375 60.765625 C 236.9375 62.589844 239.671875 62.589844 239.671875 60.765625 "/>
<path style=" stroke:none;fill-rule:evenodd;fill:rgb(45.098039%,45.098039%,87.058824%);fill-opacity:1;" d="M 246.871094 6.765625 C 246.871094 4.941406 244.136719 4.941406 244.136719 6.765625 C 244.136719 8.589844 246.871094 8.589844 246.871094 6.765625 "/>
<path style=" stroke:none;fill-rule:evenodd;fill:rgb(45.098039%,45.098039%,87.058824%);fill-opacity:1;" d="M 246.871094 60.765625 C 246.871094 58.941406 244.136719 58.941406 244.136719 60.765625 C 244.136719 62.589844 246.871094 62.589844 246.871094 60.765625 "/>
<path style=" stroke:none;fill-rule:evenodd;fill:rgb(45.098039%,45.098039%,87.058824%);fill-opacity:1;" d="M 254.070312 6.765625 C 254.070312 4.941406 251.335938 4.941406 251.335938 6.765625 C 251.335938 8.589844 254.070312 8.589844 254.070312 6.765625 "/>
<path style=" stroke:none;fill-rule:evenodd;fill:rgb(45.098039%,45.098039%,87.058824%);fill-opacity:1;" d="M 254.070312 60.765625 C 254.070312 58.941406 251.335938 58.941406 251.335938 60.765625 C 251.335938 62.589844 254.070312 62.589844 254.070312 60.765625 "/>
<path style=" stroke:none;fill-rule:evenodd;fill:rgb(45.098039%,45.098039%,87.058824%);fill-opacity:1;" d="M 261.273438 6.765625 C 261.273438 4.941406 258.535156 4.941406 258.535156 6.765625 C 258.535156 8.589844 261.273438 8.589844 261.273438 6.765625 "/>
<path style=" stroke:none;fill-rule:evenodd;fill:rgb(45.098039%,45.098039%,87.058824%);fill-opacity:1;" d="M 261.273438 60.765625 C 261.273438 58.941406 258.535156 58.941406 258.535156 60.765625 C 258.535156 62.589844 261.273438 62.589844 261.273438 60.765625 "/>
<path style=" stroke:none;fill-rule:evenodd;fill:rgb(45.098039%,45.098039%,87.058824%);fill-opacity:1;" d="M 21.648438 25.324219 C 21.648438 22.878906 17.976562 22.878906 17.976562 25.324219 C 17.976562 27.773438 21.648438 27.773438 21.648438 25.324219 "/>
<path style=" stroke:none;fill-rule:evenodd;fill:rgb(45.098039%,45.098039%,87.058824%);fill-opacity:1;" d="M 21.648438 61.605469 C 21.648438 59.160156 17.976562 59.160156 17.976562 61.605469 C 17.976562 64.054688 21.648438 64.054688 21.648438 61.605469 "/>
<path style=" stroke:none;fill-rule:evenodd;fill:rgb(45.098039%,45.098039%,87.058824%);fill-opacity:1;" d="M 253.460938 15.621094 C 253.460938 13.171875 249.789062 13.171875 249.789062 15.621094 C 249.789062 18.066406 253.460938 18.066406 253.460938 15.621094 "/>
<path style=" stroke:none;fill-rule:evenodd;fill:rgb(45.098039%,45.098039%,87.058824%);fill-opacity:1;" d="M 253.460938 51.90625 C 253.460938 49.460938 249.789062 49.460938 249.789062 51.90625 C 249.789062 54.355469 253.460938 54.355469 253.460938 51.90625 "/>
<path style=" stroke:none;fill-rule:evenodd;fill:rgb(45.098039%,45.098039%,87.058824%);fill-opacity:1;" d="M 32.917969 24.757812 C 32.917969 20.246094 26.148438 20.246094 26.148438 24.757812 C 26.148438 29.269531 32.917969 29.269531 32.917969 24.757812 "/>
<path style=" stroke:none;fill-rule:evenodd;fill:rgb(45.098039%,45.098039%,87.058824%);fill-opacity:1;" d="M 32.917969 62.175781 C 32.917969 57.664062 26.148438 57.664062 26.148438 62.175781 C 26.148438 66.6875 32.917969 66.6875 32.917969 62.175781 "/>
<path style=" stroke:none;fill-rule:evenodd;fill:rgb(45.098039%,45.098039%,87.058824%);fill-opacity:1;" d="M 245.289062 15.058594 C 245.289062 10.546875 238.519531 10.546875 238.519531 15.058594 C 238.519531 19.570312 245.289062 19.570312 245.289062 15.058594 "/>
<path style=" stroke:none;fill-rule:evenodd;fill:rgb(45.098039%,45.098039%,87.058824%);fill-opacity:1;" d="M 245.289062 52.46875 C 245.289062 47.957031 238.519531 47.957031 238.519531 52.46875 C 238.519531 56.980469 245.289062 56.980469 245.289062 52.46875 "/>
</g>
</svg>
