G04 start of page 15 for group -4015 idx -4015 *
G04 Title: (unknown), toppaste *
G04 Creator: pcb 4.2.0 *
G04 CreationDate: Sat Jul  4 21:02:03 2020 UTC *
G04 For: commonadmin *
G04 Format: Gerber/RS-274X *
G04 PCB-Dimensions (mil): 3500.00 8250.00 *
G04 PCB-Coordinate-Origin: lower left *
%MOIN*%
%FSLAX25Y25*%
%LNTOPPASTE*%
%ADD209C,0.0394*%
%ADD208C,0.0001*%
%ADD207C,0.0060*%
G54D207*X70207Y716750D02*X73207D01*
X73907Y717450D01*
X69507D02*X70207Y716750D01*
G54D208*G36*
X67707Y717750D02*Y717150D01*
X69807D01*
Y717750D01*
X67707D01*
G37*
G36*
X73607D02*Y717150D01*
X74707D01*
Y717750D01*
X73607D01*
G37*
G54D207*X70507Y716750D02*X71107Y717350D01*
X71707Y716750D01*
X72307Y717350D02*X72907Y716750D01*
X71707D02*X72307Y717350D01*
X70207Y719350D02*X73307D01*
X73907Y718750D01*
X69607D02*X70207Y719350D01*
G54D208*G36*
X67707Y719050D02*Y718450D01*
X69907D01*
Y719050D01*
X67707D01*
G37*
G36*
X73607D02*Y718450D01*
X74707D01*
Y719050D01*
X73607D01*
G37*
G54D207*X70407Y719350D02*X71107Y718650D01*
X70207Y719350D02*X70407D01*
X71107Y718650D02*X71807Y719350D01*
X71607D02*X72307Y718650D01*
X73007Y719350D01*
G54D208*G36*
X195532Y535787D02*Y534213D01*
X197106D01*
Y535787D01*
X195532D01*
G37*
G36*
X197894D02*Y534213D01*
X199468D01*
Y535787D01*
X197894D01*
G37*
G36*
X150331Y802866D02*X149504D01*
Y800110D01*
X150331D01*
Y802866D01*
G37*
G36*
Y808890D02*X149504D01*
Y806134D01*
X150331D01*
Y808890D01*
G37*
G36*
X107457Y802866D02*X106630D01*
Y800110D01*
X107457D01*
Y802866D01*
G37*
G36*
Y808890D02*X106630D01*
Y806134D01*
X107457D01*
Y808890D01*
G37*
G36*
X148776Y801862D02*X148146D01*
Y800051D01*
X148776D01*
Y801862D01*
G37*
G36*
X147398D02*X146768D01*
Y800051D01*
X147398D01*
Y801862D01*
G37*
G36*
X146020D02*X145390D01*
Y800051D01*
X146020D01*
Y801862D01*
G37*
G36*
X144642D02*X144012D01*
Y800051D01*
X144642D01*
Y801862D01*
G37*
G36*
X143264D02*X142634D01*
Y800051D01*
X143264D01*
Y801862D01*
G37*
G36*
X141886D02*X141256D01*
Y800051D01*
X141886D01*
Y801862D01*
G37*
G36*
X140508D02*X139878D01*
Y800051D01*
X140508D01*
Y801862D01*
G37*
G36*
X139130D02*X138500D01*
Y800051D01*
X139130D01*
Y801862D01*
G37*
G36*
X137752D02*X137122D01*
Y800051D01*
X137752D01*
Y801862D01*
G37*
G36*
X136374D02*X135744D01*
Y800051D01*
X136374D01*
Y801862D01*
G37*
G36*
X134996D02*X134366D01*
Y800051D01*
X134996D01*
Y801862D01*
G37*
G36*
X133618D02*X132988D01*
Y800051D01*
X133618D01*
Y801862D01*
G37*
G36*
X132240D02*X131610D01*
Y800051D01*
X132240D01*
Y801862D01*
G37*
G36*
X130862D02*X130232D01*
Y800051D01*
X130862D01*
Y801862D01*
G37*
G36*
X129484D02*X128854D01*
Y800051D01*
X129484D01*
Y801862D01*
G37*
G36*
X128106D02*X127476D01*
Y800051D01*
X128106D01*
Y801862D01*
G37*
G36*
X126728D02*X126098D01*
Y800051D01*
X126728D01*
Y801862D01*
G37*
G36*
X125350D02*X124720D01*
Y800051D01*
X125350D01*
Y801862D01*
G37*
G36*
X123972D02*X123343D01*
Y800051D01*
X123972D01*
Y801862D01*
G37*
G36*
X122594D02*X121965D01*
Y800051D01*
X122594D01*
Y801862D01*
G37*
G36*
X121217D02*X120587D01*
Y800051D01*
X121217D01*
Y801862D01*
G37*
G36*
X119839D02*X119209D01*
Y800051D01*
X119839D01*
Y801862D01*
G37*
G36*
X118461D02*X117831D01*
Y800051D01*
X118461D01*
Y801862D01*
G37*
G36*
X117083D02*X116453D01*
Y800051D01*
X117083D01*
Y801862D01*
G37*
G36*
X115705D02*X115075D01*
Y800051D01*
X115705D01*
Y801862D01*
G37*
G36*
X114327D02*X113697D01*
Y800051D01*
X114327D01*
Y801862D01*
G37*
G36*
X112949D02*X112319D01*
Y800051D01*
X112949D01*
Y801862D01*
G37*
G36*
X111571D02*X110941D01*
Y800051D01*
X111571D01*
Y801862D01*
G37*
G36*
X110193D02*X109563D01*
Y800051D01*
X110193D01*
Y801862D01*
G37*
G36*
X108815D02*X108185D01*
Y800051D01*
X108815D01*
Y801862D01*
G37*
G36*
X148776Y808949D02*X148146D01*
Y807138D01*
X148776D01*
Y808949D01*
G37*
G36*
X147398D02*X146768D01*
Y807138D01*
X147398D01*
Y808949D01*
G37*
G36*
X146020D02*X145390D01*
Y807138D01*
X146020D01*
Y808949D01*
G37*
G36*
X144642D02*X144012D01*
Y807138D01*
X144642D01*
Y808949D01*
G37*
G36*
X143264D02*X142634D01*
Y807138D01*
X143264D01*
Y808949D01*
G37*
G36*
X141886D02*X141256D01*
Y807138D01*
X141886D01*
Y808949D01*
G37*
G36*
X140508D02*X139878D01*
Y807138D01*
X140508D01*
Y808949D01*
G37*
G36*
X139130D02*X138500D01*
Y807138D01*
X139130D01*
Y808949D01*
G37*
G36*
X137752D02*X137122D01*
Y807138D01*
X137752D01*
Y808949D01*
G37*
G36*
X136374D02*X135744D01*
Y807138D01*
X136374D01*
Y808949D01*
G37*
G36*
X134996D02*X134366D01*
Y807138D01*
X134996D01*
Y808949D01*
G37*
G36*
X133618D02*X132988D01*
Y807138D01*
X133618D01*
Y808949D01*
G37*
G36*
X132240D02*X131610D01*
Y807138D01*
X132240D01*
Y808949D01*
G37*
G36*
X130862D02*X130232D01*
Y807138D01*
X130862D01*
Y808949D01*
G37*
G36*
X129484D02*X128854D01*
Y807138D01*
X129484D01*
Y808949D01*
G37*
G36*
X128106D02*X127476D01*
Y807138D01*
X128106D01*
Y808949D01*
G37*
G36*
X126728D02*X126098D01*
Y807138D01*
X126728D01*
Y808949D01*
G37*
G36*
X125350D02*X124720D01*
Y807138D01*
X125350D01*
Y808949D01*
G37*
G36*
X123972D02*X123343D01*
Y807138D01*
X123972D01*
Y808949D01*
G37*
G36*
X122594D02*X121965D01*
Y807138D01*
X122594D01*
Y808949D01*
G37*
G36*
X121217D02*X120587D01*
Y807138D01*
X121217D01*
Y808949D01*
G37*
G36*
X119839D02*X119209D01*
Y807138D01*
X119839D01*
Y808949D01*
G37*
G36*
X118461D02*X117831D01*
Y807138D01*
X118461D01*
Y808949D01*
G37*
G36*
X117083D02*X116453D01*
Y807138D01*
X117083D01*
Y808949D01*
G37*
G36*
X115705D02*X115075D01*
Y807138D01*
X115705D01*
Y808949D01*
G37*
G36*
X114327D02*X113697D01*
Y807138D01*
X114327D01*
Y808949D01*
G37*
G36*
X112949D02*X112319D01*
Y807138D01*
X112949D01*
Y808949D01*
G37*
G36*
X111571D02*X110941D01*
Y807138D01*
X111571D01*
Y808949D01*
G37*
G36*
X110193D02*X109563D01*
Y807138D01*
X110193D01*
Y808949D01*
G37*
G36*
X108815D02*X108185D01*
Y807138D01*
X108815D01*
Y808949D01*
G37*
G36*
X108315Y792646D02*X107685D01*
Y790835D01*
X108315D01*
Y792646D01*
G37*
G36*
X109693D02*X109063D01*
Y790835D01*
X109693D01*
Y792646D01*
G37*
G36*
X111071D02*X110441D01*
Y790835D01*
X111071D01*
Y792646D01*
G37*
G36*
X112449D02*X111819D01*
Y790835D01*
X112449D01*
Y792646D01*
G37*
G36*
X113827D02*X113197D01*
Y790835D01*
X113827D01*
Y792646D01*
G37*
G36*
X115205D02*X114575D01*
Y790835D01*
X115205D01*
Y792646D01*
G37*
G36*
X116583D02*X115953D01*
Y790835D01*
X116583D01*
Y792646D01*
G37*
G36*
X117961D02*X117331D01*
Y790835D01*
X117961D01*
Y792646D01*
G37*
G36*
X119339D02*X118709D01*
Y790835D01*
X119339D01*
Y792646D01*
G37*
G36*
X120717D02*X120087D01*
Y790835D01*
X120717D01*
Y792646D01*
G37*
G36*
X122094D02*X121465D01*
Y790835D01*
X122094D01*
Y792646D01*
G37*
G36*
X123472D02*X122843D01*
Y790835D01*
X123472D01*
Y792646D01*
G37*
G36*
X124850D02*X124220D01*
Y790835D01*
X124850D01*
Y792646D01*
G37*
G36*
X126228D02*X125598D01*
Y790835D01*
X126228D01*
Y792646D01*
G37*
G36*
X127606D02*X126976D01*
Y790835D01*
X127606D01*
Y792646D01*
G37*
G36*
X128984D02*X128354D01*
Y790835D01*
X128984D01*
Y792646D01*
G37*
G36*
X130362D02*X129732D01*
Y790835D01*
X130362D01*
Y792646D01*
G37*
G36*
X131740D02*X131110D01*
Y790835D01*
X131740D01*
Y792646D01*
G37*
G36*
X133118D02*X132488D01*
Y790835D01*
X133118D01*
Y792646D01*
G37*
G36*
X134496D02*X133866D01*
Y790835D01*
X134496D01*
Y792646D01*
G37*
G36*
X135874D02*X135244D01*
Y790835D01*
X135874D01*
Y792646D01*
G37*
G36*
X137252D02*X136622D01*
Y790835D01*
X137252D01*
Y792646D01*
G37*
G36*
X138630D02*X138000D01*
Y790835D01*
X138630D01*
Y792646D01*
G37*
G36*
X140008D02*X139378D01*
Y790835D01*
X140008D01*
Y792646D01*
G37*
G36*
X141386D02*X140756D01*
Y790835D01*
X141386D01*
Y792646D01*
G37*
G36*
X142764D02*X142134D01*
Y790835D01*
X142764D01*
Y792646D01*
G37*
G36*
X144142D02*X143512D01*
Y790835D01*
X144142D01*
Y792646D01*
G37*
G36*
X145520D02*X144890D01*
Y790835D01*
X145520D01*
Y792646D01*
G37*
G36*
X146898D02*X146268D01*
Y790835D01*
X146898D01*
Y792646D01*
G37*
G36*
X148276D02*X147646D01*
Y790835D01*
X148276D01*
Y792646D01*
G37*
G36*
X108315Y784969D02*X107685D01*
Y783157D01*
X108315D01*
Y784969D01*
G37*
G36*
X109693D02*X109063D01*
Y783157D01*
X109693D01*
Y784969D01*
G37*
G36*
X111071D02*X110441D01*
Y783157D01*
X111071D01*
Y784969D01*
G37*
G36*
X112449D02*X111819D01*
Y783157D01*
X112449D01*
Y784969D01*
G37*
G36*
X113827D02*X113197D01*
Y783157D01*
X113827D01*
Y784969D01*
G37*
G36*
X115205D02*X114575D01*
Y783157D01*
X115205D01*
Y784969D01*
G37*
G36*
X116583D02*X115953D01*
Y783157D01*
X116583D01*
Y784969D01*
G37*
G36*
X117961D02*X117331D01*
Y783157D01*
X117961D01*
Y784969D01*
G37*
G36*
X119339D02*X118709D01*
Y783157D01*
X119339D01*
Y784969D01*
G37*
G36*
X120717D02*X120087D01*
Y783157D01*
X120717D01*
Y784969D01*
G37*
G36*
X122094D02*X121465D01*
Y783157D01*
X122094D01*
Y784969D01*
G37*
G36*
X123472D02*X122843D01*
Y783157D01*
X123472D01*
Y784969D01*
G37*
G36*
X124850D02*X124220D01*
Y783157D01*
X124850D01*
Y784969D01*
G37*
G36*
X126228D02*X125598D01*
Y783157D01*
X126228D01*
Y784969D01*
G37*
G36*
X127606D02*X126976D01*
Y783157D01*
X127606D01*
Y784969D01*
G37*
G36*
X128984D02*X128354D01*
Y783157D01*
X128984D01*
Y784969D01*
G37*
G36*
X130362D02*X129732D01*
Y783157D01*
X130362D01*
Y784969D01*
G37*
G36*
X131740D02*X131110D01*
Y783157D01*
X131740D01*
Y784969D01*
G37*
G36*
X133118D02*X132488D01*
Y783157D01*
X133118D01*
Y784969D01*
G37*
G36*
X134496D02*X133866D01*
Y783157D01*
X134496D01*
Y784969D01*
G37*
G36*
X135874D02*X135244D01*
Y783157D01*
X135874D01*
Y784969D01*
G37*
G36*
X137252D02*X136622D01*
Y783157D01*
X137252D01*
Y784969D01*
G37*
G36*
X138630D02*X138000D01*
Y783157D01*
X138630D01*
Y784969D01*
G37*
G36*
X140008D02*X139378D01*
Y783157D01*
X140008D01*
Y784969D01*
G37*
G36*
X141386D02*X140756D01*
Y783157D01*
X141386D01*
Y784969D01*
G37*
G36*
X142764D02*X142134D01*
Y783157D01*
X142764D01*
Y784969D01*
G37*
G36*
X144142D02*X143512D01*
Y783157D01*
X144142D01*
Y784969D01*
G37*
G36*
X145520D02*X144890D01*
Y783157D01*
X145520D01*
Y784969D01*
G37*
G36*
X146898D02*X146268D01*
Y783157D01*
X146898D01*
Y784969D01*
G37*
G36*
X148276D02*X147646D01*
Y783157D01*
X148276D01*
Y784969D01*
G37*
G36*
X103591Y791268D02*X102173D01*
Y788472D01*
X103591D01*
Y791268D01*
G37*
G36*
Y787528D02*X102173D01*
Y784732D01*
X103591D01*
Y787528D01*
G37*
G36*
X153787D02*X152370D01*
Y784732D01*
X153787D01*
Y787528D01*
G37*
G36*
Y791268D02*X152370D01*
Y788472D01*
X153787D01*
Y791268D01*
G37*
G54D209*X92500Y787000D03*
G54D208*G36*
X19351Y533287D02*Y531713D01*
X20925D01*
Y533287D01*
X19351D01*
G37*
G36*
X21713D02*Y531713D01*
X23287D01*
Y533287D01*
X21713D01*
G37*
G36*
X19351Y540787D02*Y539213D01*
X20925D01*
Y540787D01*
X19351D01*
G37*
G36*
X21713D02*Y539213D01*
X23287D01*
Y540787D01*
X21713D01*
G37*
G36*
X72016Y729452D02*X66898D01*
Y723548D01*
X72016D01*
Y729452D01*
G37*
G36*
X79102D02*X73984D01*
Y723548D01*
X79102D01*
Y729452D01*
G37*
G36*
X91516Y730452D02*X86398D01*
Y724548D01*
X91516D01*
Y730452D01*
G37*
G36*
X98602D02*X93484D01*
Y724548D01*
X98602D01*
Y730452D01*
G37*
M02*
