G04 start of page 8 for group -4079 idx -4079 *
G04 Title: (unknown), topsilk *
G04 Creator: pcb 1.99z *
G04 CreationDate: Sat 29 Oct 2016 01:04:33 AM GMT UTC *
G04 For: commonadmin *
G04 Format: Gerber/RS-274X *
G04 PCB-Dimensions (mil): 4000.00 3000.00 *
G04 PCB-Coordinate-Origin: lower left *
%MOIN*%
%FSLAX25Y25*%
%LNTOPSILK*%
%ADD95C,0.0040*%
%ADD94C,0.0030*%
%ADD93C,0.0060*%
%ADD92C,0.0100*%
G54D92*X77500Y93031D02*Y83031D01*
X4500Y100031D02*X70000D01*
Y10531D01*
Y75531D02*X5000D01*
G54D93*X32358Y28705D02*X30783Y27130D01*
Y28705D02*X32358Y27130D01*
G54D92*X257500Y93031D02*Y83031D01*
X267500Y93031D02*Y83031D01*
X275000Y100531D02*Y10531D01*
Y75531D02*X168531D01*
X166000Y73000D01*
G54D93*X32358Y250673D02*X30783Y249098D01*
Y250673D02*X32358Y249098D01*
X332642Y68874D02*X334217Y70449D01*
Y68874D02*X332642Y70449D01*
G54D94*X51726Y22543D02*Y21043D01*
X48726Y21793D02*X51726D01*
Y20143D02*Y18643D01*
X50226Y20143D02*X51726D01*
X50226D02*X50601Y19768D01*
Y19018D01*
X50226Y18643D01*
X49101D02*X50226D01*
X48726Y19018D02*X49101Y18643D01*
X48726Y19768D02*Y19018D01*
X49101Y20143D02*X48726Y19768D01*
X51726Y16618D02*X51351Y16243D01*
X51726Y17368D02*Y16618D01*
X51351Y17743D02*X51726Y17368D01*
X49101Y17743D02*X51351D01*
X49101D02*X48726Y17368D01*
X50376Y16618D02*X50001Y16243D01*
X50376Y17743D02*Y16618D01*
X48726Y17368D02*Y16618D01*
X49101Y16243D01*
X50001D01*
X49101Y15343D02*X48726Y14968D01*
X49101Y15343D02*X49701D01*
X50226Y14818D01*
Y14368D01*
X49701Y13843D01*
X49101D02*X49701D01*
X48726Y14218D02*X49101Y13843D01*
X48726Y14968D02*Y14218D01*
X50751Y15343D02*X50226Y14818D01*
X50751Y15343D02*X51351D01*
X51726Y14968D01*
Y14218D01*
X51351Y13843D01*
X50751D02*X51351D01*
X50226Y14368D02*X50751Y13843D01*
X48726Y12943D02*X50976D01*
X51726Y12418D01*
Y11593D01*
X50976Y11068D01*
X48726D02*X50976D01*
X50226Y12943D02*Y11068D01*
X52220Y29908D02*X51845Y29533D01*
X50720D02*X51845D01*
X50720D02*X50345Y29908D01*
Y30658D02*Y29908D01*
X52220Y32533D02*X50345Y30658D01*
Y32533D02*X52220D01*
X49445Y32158D02*X47195Y29908D01*
X44795Y29533D02*X44420Y29908D01*
X44795Y29533D02*X45920D01*
X46295Y29908D02*X45920Y29533D01*
X46295Y32158D02*Y29908D01*
Y32158D02*X45920Y32533D01*
X44795D02*X45920D01*
X44795D02*X44420Y32158D01*
Y31408D01*
X44795Y31033D02*X44420Y31408D01*
X44795Y31033D02*X45545D01*
X52220Y39066D02*X50720Y37191D01*
X50345Y39066D02*X52220D01*
X50720Y40191D02*Y37191D01*
X49445Y39816D02*X47195Y37566D01*
X44795Y40191D02*X46295D01*
X44795D02*X44420Y39816D01*
Y38916D01*
X44795Y38541D02*X44420Y38916D01*
X44795Y38541D02*X45920D01*
Y40191D02*Y37191D01*
X44795D02*X46295D01*
X44795D02*X44420Y37566D01*
Y38166D02*Y37566D01*
X44795Y38541D02*X44420Y38166D01*
X43520Y39816D02*Y37191D01*
Y39816D02*X43145Y40191D01*
X50702Y47348D02*X50327Y47723D01*
X50702Y47348D02*X51452D01*
X51827Y47723D02*X51452Y47348D01*
X51827Y49973D02*Y47723D01*
Y49973D02*X51452Y50348D01*
X50702Y48698D02*X50327Y49073D01*
X50702Y48698D02*X51827D01*
X50702Y50348D02*X51452D01*
X50702D02*X50327Y49973D01*
Y49073D01*
X49427Y49973D02*X47177Y47723D01*
X46277Y49973D02*Y47723D01*
X45902Y47348D01*
X45152D02*X45902D01*
X45152D02*X44777Y47723D01*
Y49973D02*Y47723D01*
X45152Y50348D02*X44777Y49973D01*
X45152Y50348D02*X45902D01*
X46277Y49973D02*X45902Y50348D01*
X51827Y57237D02*X51452Y57612D01*
X51827Y57237D02*Y56637D01*
X51302Y56112D01*
X50852D02*X51302D01*
X50852D02*X50327Y56637D01*
Y57237D02*Y56637D01*
X50702Y57612D02*X50327Y57237D01*
X50702Y57612D02*X51452D01*
X51827Y55587D02*X51302Y56112D01*
X51827Y55587D02*Y54987D01*
X51452Y54612D01*
X50702D02*X51452D01*
X50702D02*X50327Y54987D01*
Y55587D02*Y54987D01*
X50852Y56112D02*X50327Y55587D01*
X49427Y57237D02*X47177Y54987D01*
X44777Y57612D02*X46277D01*
X44777D02*X44402Y57237D01*
Y56337D01*
X44777Y55962D02*X44402Y56337D01*
X44777Y55962D02*X45902D01*
Y57612D02*Y54612D01*
X44777D02*X46277D01*
X44777D02*X44402Y54987D01*
Y55587D02*Y54987D01*
X44777Y55962D02*X44402Y55587D01*
X43127Y57612D02*Y56487D01*
X42752Y56112D01*
X42002D02*X42752D01*
X43502D02*X43127Y56487D01*
X313274Y76535D02*Y75035D01*
Y75785D02*X316274D01*
X313274Y78935D02*Y77435D01*
X314774D01*
X314399Y77810D01*
Y78560D02*Y77810D01*
Y78560D02*X314774Y78935D01*
X315899D01*
X316274Y78560D02*X315899Y78935D01*
X316274Y78560D02*Y77810D01*
X315899Y77435D02*X316274Y77810D01*
X313274Y80960D02*X313649Y81335D01*
X313274Y80960D02*Y80210D01*
X313649Y79835D02*X313274Y80210D01*
X313649Y79835D02*X315899D01*
X316274Y80210D01*
X314624Y80960D02*X314999Y81335D01*
X314624Y80960D02*Y79835D01*
X316274Y80960D02*Y80210D01*
Y80960D02*X315899Y81335D01*
X314999D02*X315899D01*
Y82235D02*X316274Y82610D01*
X315299Y82235D02*X315899D01*
X315299D02*X314774Y82760D01*
Y83210D02*Y82760D01*
Y83210D02*X315299Y83735D01*
X315899D01*
X316274Y83360D02*X315899Y83735D01*
X316274Y83360D02*Y82610D01*
X314249Y82235D02*X314774Y82760D01*
X313649Y82235D02*X314249D01*
X313649D02*X313274Y82610D01*
Y83360D02*Y82610D01*
Y83360D02*X313649Y83735D01*
X314249D01*
X314774Y83210D02*X314249Y83735D01*
X314024Y84635D02*X316274D01*
X314024D02*X313274Y85160D01*
Y85985D02*Y85160D01*
Y85985D02*X314024Y86510D01*
X316274D01*
X314774D02*Y84635D01*
X337957Y70516D02*X338557Y71116D01*
Y68116D01*
X337957D02*X339082D01*
X339982Y68491D02*X342232Y70741D01*
X343132Y71116D02*Y69616D01*
X343507Y68116D01*
X344257Y69616D01*
X345007Y68116D01*
X345382Y69616D01*
Y71116D02*Y69616D01*
X347782Y71116D02*X348157Y70741D01*
X346657Y71116D02*X347782D01*
X346282Y70741D02*X346657Y71116D01*
X346282Y70741D02*Y68491D01*
X346657Y68116D01*
X347782D01*
X348157Y68491D01*
Y69241D02*Y68491D01*
X347782Y69616D02*X348157Y69241D01*
X347032Y69616D02*X347782D01*
X312780Y67670D02*X313155Y68045D01*
X314280D01*
X314655Y67670D01*
Y66920D01*
X312780Y65045D02*X314655Y66920D01*
X312780Y65045D02*X314655D01*
X315555Y65420D02*X317805Y67670D01*
X320205Y68045D02*X320580Y67670D01*
X319080Y68045D02*X320205D01*
X318705Y67670D02*X319080Y68045D01*
X318705Y67670D02*Y65420D01*
X319080Y65045D01*
X320205D01*
X320580Y65420D01*
Y66170D02*Y65420D01*
X320205Y66545D02*X320580Y66170D01*
X319455Y66545D02*X320205D01*
X338016Y62788D02*X338391Y63163D01*
X339141D01*
X339516Y62788D01*
X339141Y60163D02*X339516Y60538D01*
X338391Y60163D02*X339141D01*
X338016Y60538D02*X338391Y60163D01*
Y61813D02*X339141D01*
X339516Y62788D02*Y62188D01*
Y61438D02*Y60538D01*
Y61438D02*X339141Y61813D01*
X339516Y62188D02*X339141Y61813D01*
X340416Y60538D02*X342666Y62788D01*
X343566Y63163D02*Y61663D01*
X343941Y60163D01*
X344691Y61663D01*
X345441Y60163D01*
X345816Y61663D01*
Y63163D02*Y61663D01*
X346716Y62788D02*Y60538D01*
Y62788D02*X347091Y63163D01*
X347841D01*
X348216Y62788D01*
Y60538D01*
X347841Y60163D02*X348216Y60538D01*
X347091Y60163D02*X347841D01*
X346716Y60538D02*X347091Y60163D01*
X312780Y58513D02*X314280Y60388D01*
X312780Y58513D02*X314655D01*
X314280Y60388D02*Y57388D01*
X315555Y57763D02*X317805Y60013D01*
X318705Y57388D02*X320205D01*
X320580Y57763D01*
Y58663D02*Y57763D01*
X320205Y59038D02*X320580Y58663D01*
X319080Y59038D02*X320205D01*
X319080Y60388D02*Y57388D01*
X318705Y60388D02*X320205D01*
X320580Y60013D01*
Y59413D01*
X320205Y59038D02*X320580Y59413D01*
X321480Y60388D02*Y57763D01*
X321855Y57388D01*
X338016Y55900D02*X339516D01*
X338016D02*Y54400D01*
X338391Y54775D01*
X339141D01*
X339516Y54400D01*
Y53275D01*
X339141Y52900D02*X339516Y53275D01*
X338391Y52900D02*X339141D01*
X338016Y53275D02*X338391Y52900D01*
X340416Y53275D02*X342666Y55525D01*
X343566Y55900D02*Y54400D01*
X343941Y52900D01*
X344691Y54400D01*
X345441Y52900D01*
X345816Y54400D01*
Y55900D02*Y54400D01*
X346716Y52900D02*X348216D01*
X348591Y53275D01*
Y54175D02*Y53275D01*
X348216Y54550D02*X348591Y54175D01*
X347091Y54550D02*X348216D01*
X347091Y55900D02*Y52900D01*
X346716Y55900D02*X348216D01*
X348591Y55525D01*
Y54925D01*
X348216Y54550D02*X348591Y54925D01*
X349491Y55900D02*Y53275D01*
X349866Y52900D01*
X338391Y44848D02*X339891Y47848D01*
X338016D02*X339891D01*
X340791Y45223D02*X343041Y47473D01*
X343941Y47848D02*Y46348D01*
X344316Y44848D01*
X345066Y46348D01*
X345816Y44848D01*
X346191Y46348D01*
Y47848D02*Y46348D01*
X347091Y44848D02*X348591D01*
X348966Y45223D01*
Y46123D02*Y45223D01*
X348591Y46498D02*X348966Y46123D01*
X347466Y46498D02*X348591D01*
X347466Y47848D02*Y44848D01*
X347091Y47848D02*X348591D01*
X348966Y47473D01*
Y46873D01*
X348591Y46498D02*X348966Y46873D01*
X350241Y45973D02*Y44848D01*
Y45973D02*X350616Y46348D01*
X351366D01*
X349866D02*X350241Y45973D01*
X314298Y50230D02*X314673Y49855D01*
X313548Y50230D02*X314298D01*
X313173Y49855D02*X313548Y50230D01*
X313173Y49855D02*Y47605D01*
X313548Y47230D01*
X314298Y48880D02*X314673Y48505D01*
X313173Y48880D02*X314298D01*
X313548Y47230D02*X314298D01*
X314673Y47605D01*
Y48505D02*Y47605D01*
X315573D02*X317823Y49855D01*
X318723D02*Y47605D01*
Y49855D02*X319098Y50230D01*
X319848D01*
X320223Y49855D01*
Y47605D01*
X319848Y47230D02*X320223Y47605D01*
X319098Y47230D02*X319848D01*
X318723Y47605D02*X319098Y47230D01*
X313173Y40342D02*X313548Y39967D01*
X313173Y40942D02*Y40342D01*
Y40942D02*X313698Y41467D01*
X314148D01*
X314673Y40942D01*
Y40342D01*
X314298Y39967D02*X314673Y40342D01*
X313548Y39967D02*X314298D01*
X313173Y41992D02*X313698Y41467D01*
X313173Y42592D02*Y41992D01*
Y42592D02*X313548Y42967D01*
X314298D01*
X314673Y42592D01*
Y41992D01*
X314148Y41467D02*X314673Y41992D01*
X315573Y40342D02*X317823Y42592D01*
X318723Y39967D02*X320223D01*
X320598Y40342D01*
Y41242D02*Y40342D01*
X320223Y41617D02*X320598Y41242D01*
X319098Y41617D02*X320223D01*
X319098Y42967D02*Y39967D01*
X318723Y42967D02*X320223D01*
X320598Y42592D01*
Y41992D01*
X320223Y41617D02*X320598Y41992D01*
X321873Y41092D02*Y39967D01*
Y41092D02*X322248Y41467D01*
X322998D01*
X321498D02*X321873Y41092D01*
X27043Y249031D02*X26443Y248431D01*
Y251431D02*Y248431D01*
X25918Y251431D02*X27043D01*
X25018Y251056D02*X22768Y248806D01*
X21868Y249931D02*Y248431D01*
Y249931D02*X21493Y251431D01*
X20743Y249931D01*
X19993Y251431D01*
X19618Y249931D01*
Y248431D01*
X17218D02*X16843Y248806D01*
X17218Y248431D02*X18343D01*
X18718Y248806D02*X18343Y248431D01*
X18718Y251056D02*Y248806D01*
Y251056D02*X18343Y251431D01*
X17218D02*X18343D01*
X17218D02*X16843Y251056D01*
Y250306D01*
X17218Y249931D02*X16843Y250306D01*
X17218Y249931D02*X17968D01*
X26984Y256759D02*X26609Y256384D01*
X25859D02*X26609D01*
X25859D02*X25484Y256759D01*
X25859Y259384D02*X25484Y259009D01*
X25859Y259384D02*X26609D01*
X26984Y259009D02*X26609Y259384D01*
X25859Y257734D02*X26609D01*
X25484Y257359D02*Y256759D01*
Y259009D02*Y258109D01*
X25859Y257734D01*
X25484Y257359D02*X25859Y257734D01*
X24584Y259009D02*X22334Y256759D01*
X21434Y257884D02*Y256384D01*
Y257884D02*X21059Y259384D01*
X20309Y257884D01*
X19559Y259384D01*
X19184Y257884D01*
Y256384D01*
X18284Y259009D02*Y256759D01*
X17909Y256384D01*
X17159D02*X17909D01*
X17159D02*X16784Y256759D01*
Y259009D02*Y256759D01*
X17159Y259384D02*X16784Y259009D01*
X17159Y259384D02*X17909D01*
X18284Y259009D02*X17909Y259384D01*
X25484Y263648D02*X26984D01*
Y265148D02*Y263648D01*
Y265148D02*X26609Y264773D01*
X25859D02*X26609D01*
X25859D02*X25484Y265148D01*
Y266273D02*Y265148D01*
X25859Y266648D02*X25484Y266273D01*
X25859Y266648D02*X26609D01*
X26984Y266273D02*X26609Y266648D01*
X24584Y266273D02*X22334Y264023D01*
X21434Y265148D02*Y263648D01*
Y265148D02*X21059Y266648D01*
X20309Y265148D01*
X19559Y266648D01*
X19184Y265148D01*
Y263648D01*
X16784Y266648D02*X18284D01*
X16784D02*X16409Y266273D01*
Y265373D01*
X16784Y264998D02*X16409Y265373D01*
X16784Y264998D02*X17909D01*
Y266648D02*Y263648D01*
X16784D02*X18284D01*
X16784D02*X16409Y264023D01*
Y264623D02*Y264023D01*
X16784Y264998D02*X16409Y264623D01*
X15509Y266273D02*Y263648D01*
Y266273D02*X15134Y266648D01*
X51726Y244512D02*Y243012D01*
X48726Y243762D02*X51726D01*
Y242112D02*Y240612D01*
X50226Y242112D02*X51726D01*
X50226D02*X50601Y241737D01*
Y240987D01*
X50226Y240612D01*
X49101D02*X50226D01*
X48726Y240987D02*X49101Y240612D01*
X48726Y241737D02*Y240987D01*
X49101Y242112D02*X48726Y241737D01*
X51726Y238587D02*X51351Y238212D01*
X51726Y239337D02*Y238587D01*
X51351Y239712D02*X51726Y239337D01*
X49101Y239712D02*X51351D01*
X49101D02*X48726Y239337D01*
X50376Y238587D02*X50001Y238212D01*
X50376Y239712D02*Y238587D01*
X48726Y239337D02*Y238587D01*
X49101Y238212D01*
X50001D01*
X49101Y237312D02*X48726Y236937D01*
X49101Y237312D02*X49701D01*
X50226Y236787D01*
Y236337D01*
X49701Y235812D01*
X49101D02*X49701D01*
X48726Y236187D02*X49101Y235812D01*
X48726Y236937D02*Y236187D01*
X50751Y237312D02*X50226Y236787D01*
X50751Y237312D02*X51351D01*
X51726Y236937D01*
Y236187D01*
X51351Y235812D01*
X50751D02*X51351D01*
X50226Y236337D02*X50751Y235812D01*
X48726Y234912D02*X50976D01*
X51726Y234387D01*
Y233562D01*
X50976Y233037D01*
X48726D02*X50976D01*
X50226Y234912D02*Y233037D01*
X52220Y251877D02*X51845Y251502D01*
X50720D02*X51845D01*
X50720D02*X50345Y251877D01*
Y252627D02*Y251877D01*
X52220Y254502D02*X50345Y252627D01*
Y254502D02*X52220D01*
X49445Y254127D02*X47195Y251877D01*
X44795Y251502D02*X44420Y251877D01*
X44795Y251502D02*X45920D01*
X46295Y251877D02*X45920Y251502D01*
X46295Y254127D02*Y251877D01*
Y254127D02*X45920Y254502D01*
X44795D02*X45920D01*
X44795D02*X44420Y254127D01*
Y253377D01*
X44795Y253002D02*X44420Y253377D01*
X44795Y253002D02*X45545D01*
X52220Y261034D02*X50720Y259159D01*
X50345Y261034D02*X52220D01*
X50720Y262159D02*Y259159D01*
X49445Y261784D02*X47195Y259534D01*
X44795Y262159D02*X46295D01*
X44795D02*X44420Y261784D01*
Y260884D01*
X44795Y260509D02*X44420Y260884D01*
X44795Y260509D02*X45920D01*
Y262159D02*Y259159D01*
X44795D02*X46295D01*
X44795D02*X44420Y259534D01*
Y260134D02*Y259534D01*
X44795Y260509D02*X44420Y260134D01*
X43520Y261784D02*Y259159D01*
Y261784D02*X43145Y262159D01*
X50702Y269317D02*X50327Y269692D01*
X50702Y269317D02*X51452D01*
X51827Y269692D02*X51452Y269317D01*
X51827Y271942D02*Y269692D01*
Y271942D02*X51452Y272317D01*
X50702Y270667D02*X50327Y271042D01*
X50702Y270667D02*X51827D01*
X50702Y272317D02*X51452D01*
X50702D02*X50327Y271942D01*
Y271042D01*
X49427Y271942D02*X47177Y269692D01*
X46277Y271942D02*Y269692D01*
X45902Y269317D01*
X45152D02*X45902D01*
X45152D02*X44777Y269692D01*
Y271942D02*Y269692D01*
X45152Y272317D02*X44777Y271942D01*
X45152Y272317D02*X45902D01*
X46277Y271942D02*X45902Y272317D01*
X26609Y274699D02*X25109Y271699D01*
X26984D01*
X24209Y274324D02*X21959Y272074D01*
X21059Y273199D02*Y271699D01*
Y273199D02*X20684Y274699D01*
X19934Y273199D01*
X19184Y274699D01*
X18809Y273199D01*
Y271699D01*
X16409Y274699D02*X17909D01*
X16409D02*X16034Y274324D01*
Y273424D01*
X16409Y273049D02*X16034Y273424D01*
X16409Y273049D02*X17534D01*
Y274699D02*Y271699D01*
X16409D02*X17909D01*
X16409D02*X16034Y272074D01*
Y272674D02*Y272074D01*
X16409Y273049D02*X16034Y272674D01*
X14759Y274699D02*Y273574D01*
X14384Y273199D01*
X13634D02*X14384D01*
X15134D02*X14759Y273574D01*
X51827Y279206D02*X51452Y279581D01*
X51827Y279206D02*Y278606D01*
X51302Y278081D01*
X50852D02*X51302D01*
X50852D02*X50327Y278606D01*
Y279206D02*Y278606D01*
X50702Y279581D02*X50327Y279206D01*
X50702Y279581D02*X51452D01*
X51827Y277556D02*X51302Y278081D01*
X51827Y277556D02*Y276956D01*
X51452Y276581D01*
X50702D02*X51452D01*
X50702D02*X50327Y276956D01*
Y277556D02*Y276956D01*
X50852Y278081D02*X50327Y277556D01*
X49427Y279206D02*X47177Y276956D01*
X44777Y279581D02*X46277D01*
X44777D02*X44402Y279206D01*
Y278306D01*
X44777Y277931D02*X44402Y278306D01*
X44777Y277931D02*X45902D01*
Y279581D02*Y276581D01*
X44777D02*X46277D01*
X44777D02*X44402Y276956D01*
Y277556D02*Y276956D01*
X44777Y277931D02*X44402Y277556D01*
X43127Y279581D02*Y278456D01*
X42752Y278081D01*
X42002D02*X42752D01*
X43502D02*X43127Y278456D01*
X27043Y27063D02*X26443Y26463D01*
Y29463D02*Y26463D01*
X25918Y29463D02*X27043D01*
X25018Y29088D02*X22768Y26838D01*
X21868Y27963D02*Y26463D01*
Y27963D02*X21493Y29463D01*
X20743Y27963D01*
X19993Y29463D01*
X19618Y27963D01*
Y26463D01*
X17218D02*X16843Y26838D01*
X17218Y26463D02*X18343D01*
X18718Y26838D02*X18343Y26463D01*
X18718Y29088D02*Y26838D01*
Y29088D02*X18343Y29463D01*
X17218D02*X18343D01*
X17218D02*X16843Y29088D01*
Y28338D01*
X17218Y27963D02*X16843Y28338D01*
X17218Y27963D02*X17968D01*
X26984Y34790D02*X26609Y34415D01*
X25859D02*X26609D01*
X25859D02*X25484Y34790D01*
X25859Y37415D02*X25484Y37040D01*
X25859Y37415D02*X26609D01*
X26984Y37040D02*X26609Y37415D01*
X25859Y35765D02*X26609D01*
X25484Y35390D02*Y34790D01*
Y37040D02*Y36140D01*
X25859Y35765D01*
X25484Y35390D02*X25859Y35765D01*
X24584Y37040D02*X22334Y34790D01*
X21434Y35915D02*Y34415D01*
Y35915D02*X21059Y37415D01*
X20309Y35915D01*
X19559Y37415D01*
X19184Y35915D01*
Y34415D01*
X18284Y37040D02*Y34790D01*
X17909Y34415D01*
X17159D02*X17909D01*
X17159D02*X16784Y34790D01*
Y37040D02*Y34790D01*
X17159Y37415D02*X16784Y37040D01*
X17159Y37415D02*X17909D01*
X18284Y37040D02*X17909Y37415D01*
X25484Y41679D02*X26984D01*
Y43179D02*Y41679D01*
Y43179D02*X26609Y42804D01*
X25859D02*X26609D01*
X25859D02*X25484Y43179D01*
Y44304D02*Y43179D01*
X25859Y44679D02*X25484Y44304D01*
X25859Y44679D02*X26609D01*
X26984Y44304D02*X26609Y44679D01*
X24584Y44304D02*X22334Y42054D01*
X21434Y43179D02*Y41679D01*
Y43179D02*X21059Y44679D01*
X20309Y43179D01*
X19559Y44679D01*
X19184Y43179D01*
Y41679D01*
X16784Y44679D02*X18284D01*
X16784D02*X16409Y44304D01*
Y43404D01*
X16784Y43029D02*X16409Y43404D01*
X16784Y43029D02*X17909D01*
Y44679D02*Y41679D01*
X16784D02*X18284D01*
X16784D02*X16409Y42054D01*
Y42654D02*Y42054D01*
X16784Y43029D02*X16409Y42654D01*
X15509Y44304D02*Y41679D01*
Y44304D02*X15134Y44679D01*
X26609Y52730D02*X25109Y49730D01*
X26984D01*
X24209Y52355D02*X21959Y50105D01*
X21059Y51230D02*Y49730D01*
Y51230D02*X20684Y52730D01*
X19934Y51230D01*
X19184Y52730D01*
X18809Y51230D01*
Y49730D01*
X16409Y52730D02*X17909D01*
X16409D02*X16034Y52355D01*
Y51455D01*
X16409Y51080D02*X16034Y51455D01*
X16409Y51080D02*X17534D01*
Y52730D02*Y49730D01*
X16409D02*X17909D01*
X16409D02*X16034Y50105D01*
Y50705D02*Y50105D01*
X16409Y51080D02*X16034Y50705D01*
X14759Y52730D02*Y51605D01*
X14384Y51230D01*
X13634D02*X14384D01*
X15134D02*X14759Y51605D01*
G54D92*X72500Y98031D02*Y78031D01*
X92500D01*
Y98031D01*
X72500D01*
Y88031D02*X82500D01*
Y98031D01*
X7500Y88031D02*X67500D01*
Y98031D02*Y88031D01*
X7500Y98031D02*X67500D01*
X7500D02*Y88031D01*
X17500Y98031D02*Y88031D01*
X7500Y98031D02*X17500D01*
X4724Y165780D02*Y133890D01*
X66535D01*
Y165780D02*Y133890D01*
X4724Y165780D02*X66535D01*
X59843D02*X66535Y159087D01*
X59843Y133890D02*X66535Y140583D01*
X21654Y165780D02*Y133890D01*
X50000Y165780D02*Y133890D01*
X4724Y150031D02*X66535D01*
X4724Y133780D02*Y101890D01*
X66535D01*
Y133780D02*Y101890D01*
X4724Y133780D02*X66535D01*
X59843D02*X66535Y127087D01*
X59843Y101890D02*X66535Y108583D01*
X21654Y133780D02*Y101890D01*
X50000Y133780D02*Y101890D01*
X4724Y118031D02*X66535D01*
G54D93*X28898Y24921D02*X29882Y23937D01*
Y24921D02*X28898Y23937D01*
X60984Y66063D02*Y65276D01*
Y63898D02*Y63110D01*
X59803Y63898D02*X62165D01*
X60000Y65276D02*X61969D01*
X60984Y64291D02*X60000Y65276D01*
X61969D02*X60984Y64291D01*
Y20984D02*Y20197D01*
Y18819D02*Y18031D01*
X59803Y18819D02*X62165D01*
X60000Y20197D02*X61969D01*
X60984Y19213D02*X60000Y20197D01*
X61969D02*X60984Y19213D01*
X64528Y12126D02*Y10157D01*
X62559D02*X64528D01*
Y73937D02*Y71969D01*
X62559Y73937D02*X64528D01*
X5472Y12126D02*Y10157D01*
X7441D01*
X5472Y73937D02*Y71969D01*
Y73937D02*X7441D01*
X34213Y42047D02*X35787D01*
X35000Y42835D02*Y41260D01*
X38543Y63701D02*Y20591D01*
X31457Y63701D02*Y20591D01*
G54D92*Y56024D02*X38543D01*
X31457Y28071D02*X38543D01*
X250000Y98031D02*Y78031D01*
X270000D01*
Y98031D01*
X250000D01*
Y88031D02*X260000D01*
Y98031D01*
X181000Y78031D02*X231000D01*
Y98031D02*Y78031D01*
X181000Y98031D02*X231000D01*
X181000D02*Y78031D01*
X191000Y88031D02*Y78031D01*
X181000Y88031D02*X191000D01*
X190000Y73031D02*X270000D01*
X190000D02*Y63031D01*
X270000D01*
Y73031D02*Y63031D01*
X260000Y73031D02*Y63031D01*
X270000D01*
X171000Y73031D02*Y13031D01*
X181000D01*
Y73031D01*
X171000D01*
Y63031D02*X181000D01*
Y73031D01*
X111500Y78031D02*X161500D01*
Y98031D02*Y78031D01*
X111500Y98031D02*X161500D01*
X111500D02*Y78031D01*
X121500Y88031D02*Y78031D01*
X111500Y88031D02*X121500D01*
X280000Y23031D02*X360000D01*
X280000D02*Y13031D01*
X360000D01*
Y23031D02*Y13031D01*
X350000Y23031D02*Y13031D01*
X360000D01*
X190000Y23031D02*X270000D01*
X190000D02*Y13031D01*
X270000D01*
Y23031D02*Y13031D01*
X260000Y23031D02*Y13031D01*
X270000D01*
X280000Y98031D02*X360000D01*
X280000D02*Y88031D01*
X360000D01*
Y98031D02*Y88031D01*
X350000Y98031D02*Y88031D01*
X360000D01*
G54D93*X336102Y72657D02*X335118Y73642D01*
Y72657D02*X336102Y73642D01*
X304016Y32303D02*Y31516D01*
Y34469D02*Y33681D01*
X302835D02*X305197D01*
X303031Y32303D02*X305000D01*
X304016Y33287D02*X305000Y32303D01*
X303031D02*X304016Y33287D01*
Y77382D02*Y76594D01*
Y79547D02*Y78760D01*
X302835D02*X305197D01*
X303031Y77382D02*X305000D01*
X304016Y78366D02*X305000Y77382D01*
X303031D02*X304016Y78366D01*
X300472Y87421D02*Y85453D01*
Y87421D02*X302441D01*
X300472Y25610D02*Y23642D01*
X302441D01*
X359528Y87421D02*Y85453D01*
X357559Y87421D02*X359528D01*
Y25610D02*Y23642D01*
X357559D02*X359528D01*
X329213Y55531D02*X330787D01*
X330000Y56319D02*Y54744D01*
X326457Y76988D02*Y33878D01*
X333543Y76988D02*Y33878D01*
G54D92*X326457Y41555D02*X333543D01*
X326457Y69508D02*X333543D01*
X304000Y159531D02*X359000D01*
Y101531D01*
X304000D02*X359000D01*
X304000Y159531D02*Y101531D01*
X4724Y197780D02*Y165890D01*
X66535D01*
Y197780D02*Y165890D01*
X4724Y197780D02*X66535D01*
X59843D02*X66535Y191087D01*
X59843Y165890D02*X66535Y172583D01*
X21654Y197780D02*Y165890D01*
X50000Y197780D02*Y165890D01*
X4724Y182031D02*X66535D01*
X4724Y229780D02*Y197890D01*
X66535D01*
Y229780D02*Y197890D01*
X4724Y229780D02*X66535D01*
X59843D02*X66535Y223087D01*
X59843Y197890D02*X66535Y204583D01*
X21654Y229780D02*Y197890D01*
X50000Y229780D02*Y197890D01*
X4724Y214031D02*X66535D01*
X304000Y279531D02*X359000D01*
Y221531D01*
X304000D02*X359000D01*
X304000Y279531D02*Y221531D01*
Y219531D02*X359000D01*
Y161531D01*
X304000D02*X359000D01*
X304000Y219531D02*Y161531D01*
G54D93*X28898Y246890D02*X29882Y245906D01*
Y246890D02*X28898Y245906D01*
X60984Y288031D02*Y287244D01*
Y285866D02*Y285079D01*
X59803Y285866D02*X62165D01*
X60000Y287244D02*X61969D01*
X60984Y286260D02*X60000Y287244D01*
X61969D02*X60984Y286260D01*
Y242953D02*Y242165D01*
Y240787D02*Y240000D01*
X59803Y240787D02*X62165D01*
X60000Y242165D02*X61969D01*
X60984Y241181D02*X60000Y242165D01*
X61969D02*X60984Y241181D01*
X64528Y234094D02*Y232126D01*
X62559D02*X64528D01*
Y295906D02*Y293937D01*
X62559Y295906D02*X64528D01*
X5472Y234094D02*Y232126D01*
X7441D01*
X5472Y295906D02*Y293937D01*
Y295906D02*X7441D01*
X34213Y264016D02*X35787D01*
X35000Y264803D02*Y263228D01*
X38543Y285669D02*Y242559D01*
X31457Y285669D02*Y242559D01*
G54D92*Y277992D02*X38543D01*
X31457Y250039D02*X38543D01*
G54D95*X7500Y269016D02*X11500Y266516D01*
Y269016D02*X7500Y266516D01*
X10700Y265316D02*X11500Y264516D01*
X7500D02*X11500D01*
X7500Y265316D02*Y263816D01*
X8000Y262616D02*X11000Y259616D01*
X7500Y257916D02*X11500D01*
Y258416D02*Y256416D01*
X11000Y255916D01*
X10000D02*X11000D01*
X9500Y256416D02*X10000Y255916D01*
X9500Y257916D02*Y256416D01*
X11500Y252716D02*X11000Y252216D01*
X11500Y254216D02*Y252716D01*
X11000Y254716D02*X11500Y254216D01*
X10000Y254716D02*X11000D01*
X10000D02*X9500Y254216D01*
Y252716D01*
X9000Y252216D01*
X8000D02*X9000D01*
X7500Y252716D02*X8000Y252216D01*
X7500Y254216D02*Y252716D01*
X8000Y254716D02*X7500Y254216D01*
X8000Y251016D02*X11500D01*
X8000D02*X7500Y250516D01*
Y249516D01*
X8000Y249016D01*
X11500D01*
X27500Y198531D02*X30000Y202531D01*
X27500D02*X30000Y198531D01*
X31200Y201731D02*X32000Y202531D01*
Y198531D01*
X31200D02*X32700D01*
X33900Y199031D02*X36900Y202031D01*
X38100Y202531D02*X39100Y198531D01*
X40100Y202531D01*
X41800Y198531D02*X43300D01*
X43800Y199031D01*
X43300Y199531D02*X43800Y199031D01*
X41800Y199531D02*X43300D01*
X41300Y200031D02*X41800Y199531D01*
X41300Y200031D02*X41800Y200531D01*
X43300D01*
X43800Y200031D01*
X41300Y199031D02*X41800Y198531D01*
X45000Y200531D02*Y199031D01*
X45500Y198531D01*
X47000Y200531D02*Y197531D01*
X46500Y197031D02*X47000Y197531D01*
X45500Y197031D02*X46500D01*
X45000Y197531D02*X45500Y197031D01*
Y198531D02*X46500D01*
X47000Y199031D01*
X48700Y198531D02*X50200D01*
X50700Y199031D01*
X50200Y199531D02*X50700Y199031D01*
X48700Y199531D02*X50200D01*
X48200Y200031D02*X48700Y199531D01*
X48200Y200031D02*X48700Y200531D01*
X50200D01*
X50700Y200031D01*
X48200Y199031D02*X48700Y198531D01*
X51900Y200031D02*X53900Y202531D01*
X51900Y200031D02*X54400D01*
X53900Y202531D02*Y198531D01*
X352500Y260531D02*X356500Y258031D01*
Y260531D02*X352500Y258031D01*
X356000Y256831D02*X356500Y256331D01*
Y255331D01*
X356000Y254831D01*
X352500Y255331D02*X353000Y254831D01*
X352500Y256331D02*Y255331D01*
X353000Y256831D02*X352500Y256331D01*
X354700D02*Y255331D01*
X355200Y254831D02*X356000D01*
X353000D02*X354200D01*
X354700Y255331D01*
X355200Y254831D02*X354700Y255331D01*
X353000Y253631D02*X356000Y250631D01*
X352500Y249431D02*X355500D01*
X356500Y248731D01*
Y247631D01*
X355500Y246931D01*
X352500D02*X355500D01*
X354500Y249431D02*Y246931D01*
X356500Y245731D02*Y244731D01*
X352500Y245231D02*X356500D01*
X352500Y245731D02*Y244731D01*
X353000Y243531D02*X356000D01*
X356500Y243031D01*
Y242031D01*
X356000Y241531D01*
X353000D02*X356000D01*
X352500Y242031D02*X353000Y241531D01*
X352500Y243031D02*Y242031D01*
X353000Y243531D02*X352500Y243031D01*
X356000Y240331D02*X356500Y239831D01*
Y238831D01*
X356000Y238331D01*
X352500Y238831D02*X353000Y238331D01*
X352500Y239831D02*Y238831D01*
X353000Y240331D02*X352500Y239831D01*
X354700D02*Y238831D01*
X355200Y238331D02*X356000D01*
X353000D02*X354200D01*
X354700Y238831D01*
X355200Y238331D02*X354700Y238831D01*
X352500Y203031D02*X356500Y200531D01*
Y203031D02*X352500Y200531D01*
X356000Y199331D02*X356500Y198831D01*
Y197831D01*
X356000Y197331D01*
X352500Y197831D02*X353000Y197331D01*
X352500Y198831D02*Y197831D01*
X353000Y199331D02*X352500Y198831D01*
X354700D02*Y197831D01*
X355200Y197331D02*X356000D01*
X353000D02*X354200D01*
X354700Y197831D01*
X355200Y197331D02*X354700Y197831D01*
X353000Y196131D02*X356000Y193131D01*
X352500Y191931D02*X355500D01*
X356500Y191231D01*
Y190131D01*
X355500Y189431D01*
X352500D02*X355500D01*
X354500Y191931D02*Y189431D01*
X356500Y188231D02*Y187231D01*
X352500Y187731D02*X356500D01*
X352500Y188231D02*Y187231D01*
X353000Y186031D02*X356000D01*
X356500Y185531D01*
Y184531D01*
X356000Y184031D01*
X353000D02*X356000D01*
X352500Y184531D02*X353000Y184031D01*
X352500Y185531D02*Y184531D01*
X353000Y186031D02*X352500Y185531D01*
X356000Y182831D02*X356500Y182331D01*
Y180831D01*
X356000Y180331D01*
X355000D02*X356000D01*
X352500Y182831D02*X355000Y180331D01*
X352500Y182831D02*Y180331D01*
X28000Y134531D02*X30500Y138531D01*
X28000D02*X30500Y134531D01*
X31700Y137731D02*X32500Y138531D01*
Y134531D01*
X31700D02*X33200D01*
X34400Y135031D02*X37400Y138031D01*
X38600Y138531D02*X39600Y134531D01*
X40600Y138531D01*
X42300Y134531D02*X43800D01*
X44300Y135031D01*
X43800Y135531D02*X44300Y135031D01*
X42300Y135531D02*X43800D01*
X41800Y136031D02*X42300Y135531D01*
X41800Y136031D02*X42300Y136531D01*
X43800D01*
X44300Y136031D01*
X41800Y135031D02*X42300Y134531D01*
X45500Y136531D02*Y135031D01*
X46000Y134531D01*
X47500Y136531D02*Y133531D01*
X47000Y133031D02*X47500Y133531D01*
X46000Y133031D02*X47000D01*
X45500Y133531D02*X46000Y133031D01*
Y134531D02*X47000D01*
X47500Y135031D01*
X49200Y134531D02*X50700D01*
X51200Y135031D01*
X50700Y135531D02*X51200Y135031D01*
X49200Y135531D02*X50700D01*
X48700Y136031D02*X49200Y135531D01*
X48700Y136031D02*X49200Y136531D01*
X50700D01*
X51200Y136031D01*
X48700Y135031D02*X49200Y134531D01*
X52400Y138031D02*X52900Y138531D01*
X54400D01*
X54900Y138031D01*
Y137031D01*
X52400Y134531D02*X54900Y137031D01*
X52400Y134531D02*X54900D01*
X27500Y166531D02*X30000Y170531D01*
X27500D02*X30000Y166531D01*
X31200Y169731D02*X32000Y170531D01*
Y166531D01*
X31200D02*X32700D01*
X33900Y167031D02*X36900Y170031D01*
X38100Y170531D02*X39100Y166531D01*
X40100Y170531D01*
X41800Y166531D02*X43300D01*
X43800Y167031D01*
X43300Y167531D02*X43800Y167031D01*
X41800Y167531D02*X43300D01*
X41300Y168031D02*X41800Y167531D01*
X41300Y168031D02*X41800Y168531D01*
X43300D01*
X43800Y168031D01*
X41300Y167031D02*X41800Y166531D01*
X45000Y168531D02*Y167031D01*
X45500Y166531D01*
X47000Y168531D02*Y165531D01*
X46500Y165031D02*X47000Y165531D01*
X45500Y165031D02*X46500D01*
X45000Y165531D02*X45500Y165031D01*
Y166531D02*X46500D01*
X47000Y167031D01*
X48700Y166531D02*X50200D01*
X50700Y167031D01*
X50200Y167531D02*X50700Y167031D01*
X48700Y167531D02*X50200D01*
X48200Y168031D02*X48700Y167531D01*
X48200Y168031D02*X48700Y168531D01*
X50200D01*
X50700Y168031D01*
X48200Y167031D02*X48700Y166531D01*
X51900Y170031D02*X52400Y170531D01*
X53400D01*
X53900Y170031D01*
X53400Y166531D02*X53900Y167031D01*
X52400Y166531D02*X53400D01*
X51900Y167031D02*X52400Y166531D01*
Y168731D02*X53400D01*
X53900Y170031D02*Y169231D01*
Y168231D02*Y167031D01*
Y168231D02*X53400Y168731D01*
X53900Y169231D02*X53400Y168731D01*
X27500Y102531D02*X30000Y106531D01*
X27500D02*X30000Y102531D01*
X31200Y105731D02*X32000Y106531D01*
Y102531D01*
X31200D02*X32700D01*
X33900Y103031D02*X36900Y106031D01*
X38100Y106531D02*X39100Y102531D01*
X40100Y106531D01*
X41800Y102531D02*X43300D01*
X43800Y103031D01*
X43300Y103531D02*X43800Y103031D01*
X41800Y103531D02*X43300D01*
X41300Y104031D02*X41800Y103531D01*
X41300Y104031D02*X41800Y104531D01*
X43300D01*
X43800Y104031D01*
X41300Y103031D02*X41800Y102531D01*
X45000Y104531D02*Y103031D01*
X45500Y102531D01*
X47000Y104531D02*Y101531D01*
X46500Y101031D02*X47000Y101531D01*
X45500Y101031D02*X46500D01*
X45000Y101531D02*X45500Y101031D01*
Y102531D02*X46500D01*
X47000Y103031D01*
X48700Y102531D02*X50200D01*
X50700Y103031D01*
X50200Y103531D02*X50700Y103031D01*
X48700Y103531D02*X50200D01*
X48200Y104031D02*X48700Y103531D01*
X48200Y104031D02*X48700Y104531D01*
X50200D01*
X50700Y104031D01*
X48200Y103031D02*X48700Y102531D01*
X51900Y105731D02*X52700Y106531D01*
Y102531D01*
X51900D02*X53400D01*
X7000Y52047D02*X11000Y49547D01*
Y52047D02*X7000Y49547D01*
X10200Y48347D02*X11000Y47547D01*
X7000D02*X11000D01*
X7000Y48347D02*Y46847D01*
X7500Y45647D02*X10500Y42647D01*
X7000Y41447D02*X11000Y38947D01*
Y41447D02*X7000Y38947D01*
X10200Y37747D02*X11000Y36947D01*
X7000D02*X11000D01*
X7000Y37747D02*Y36247D01*
X7500Y35047D02*X10500Y32047D01*
X11000Y28847D02*X10500Y28347D01*
X11000Y30347D02*Y28847D01*
X10500Y30847D02*X11000Y30347D01*
X7500Y30847D02*X10500D01*
X7500D02*X7000Y30347D01*
Y28847D01*
X7500Y28347D01*
X8500D01*
X9000Y28847D02*X8500Y28347D01*
X9000Y29847D02*Y28847D01*
X9200Y27147D02*Y25647D01*
X7000Y27147D02*Y25147D01*
Y27147D02*X11000D01*
Y25147D01*
X7000Y23947D02*X11000D01*
X7000Y21447D01*
X11000D01*
X359000Y86531D02*X356500Y82531D01*
X359000D02*X356500Y86531D01*
X355300Y83031D02*X354800Y82531D01*
X353300D02*X354800D01*
X353300D02*X352800Y83031D01*
Y84031D02*Y83031D01*
X355300Y86531D02*X352800Y84031D01*
Y86531D02*X355300D01*
X351600Y86031D02*X348600Y83031D01*
X347400Y86531D02*Y82531D01*
X345900Y84531D01*
X344400Y82531D01*
Y86531D02*Y82531D01*
X343200Y86031D02*Y83031D01*
X342700Y82531D01*
X341700D02*X342700D01*
X341700D02*X341200Y83031D01*
Y86031D02*Y83031D01*
X341700Y86531D02*X341200Y86031D01*
X341700Y86531D02*X342700D01*
X343200Y86031D02*X342700Y86531D01*
X340000Y82531D02*X339000Y86531D01*
X338000Y82531D01*
X357500Y49031D02*X353500Y51531D01*
Y49031D02*X357500Y51531D01*
X354000Y52732D02*X353500Y53232D01*
Y54732D02*Y53232D01*
Y54732D02*X354000Y55232D01*
X355000D01*
X357500Y52732D02*X355000Y55232D01*
X357500D02*Y52732D01*
X357000Y56432D02*X354000Y59432D01*
X353500Y62632D02*X354000Y63132D01*
X353500Y62632D02*Y61132D01*
X354000Y60632D02*X353500Y61132D01*
X354000Y60632D02*X355000D01*
X355500Y61132D01*
Y62632D02*Y61132D01*
Y62632D02*X356000Y63132D01*
X357000D01*
X357500Y62632D02*X357000Y63132D01*
X357500Y62632D02*Y61132D01*
X357000Y60632D02*X357500Y61132D01*
X353500Y66332D02*Y64332D01*
Y65332D02*X357500D01*
X355300Y69032D02*Y67532D01*
X357500Y69532D02*Y67532D01*
X353500D02*X357500D01*
X353500Y69532D02*Y67532D01*
Y71232D02*X357500D01*
X353500Y72732D02*Y70732D01*
Y72732D02*X354000Y73232D01*
X355000D01*
X355500Y72732D02*X355000Y73232D01*
X355500Y72732D02*Y71232D01*
X352500Y143031D02*X356500Y140531D01*
Y143031D02*X352500Y140531D01*
X356000Y139331D02*X356500Y138831D01*
Y137831D01*
X356000Y137331D01*
X352500Y137831D02*X353000Y137331D01*
X352500Y138831D02*Y137831D01*
X353000Y139331D02*X352500Y138831D01*
X354700D02*Y137831D01*
X355200Y137331D02*X356000D01*
X353000D02*X354200D01*
X354700Y137831D01*
X355200Y137331D02*X354700Y137831D01*
X353000Y136131D02*X356000Y133131D01*
X352500Y131931D02*X355500D01*
X356500Y131231D01*
Y130131D01*
X355500Y129431D01*
X352500D02*X355500D01*
X354500Y131931D02*Y129431D01*
X356500Y128231D02*Y127231D01*
X352500Y127731D02*X356500D01*
X352500Y128231D02*Y127231D01*
X353000Y126031D02*X356000D01*
X356500Y125531D01*
Y124531D01*
X356000Y124031D01*
X353000D02*X356000D01*
X352500Y124531D02*X353000Y124031D01*
X352500Y125531D02*Y124531D01*
X353000Y126031D02*X352500Y125531D01*
X355700Y122831D02*X356500Y122031D01*
X352500D02*X356500D01*
X352500Y122831D02*Y121331D01*
X359000Y28531D02*X356500Y24531D01*
X359000D02*X356500Y28531D01*
X355300Y25031D02*X354800Y24531D01*
X353300D02*X354800D01*
X353300D02*X352800Y25031D01*
Y26031D02*Y25031D01*
X355300Y28531D02*X352800Y26031D01*
Y28531D02*X355300D01*
X351600Y28031D02*X348600Y25031D01*
X345900Y26331D02*X347400D01*
X345400Y28531D02*X347400D01*
Y24531D01*
X345400D02*X347400D01*
X344200Y28531D02*X341700Y24531D01*
X344200D02*X341700Y28531D01*
X255500D02*X253000Y24531D01*
X255500D02*X253000Y28531D01*
X251800Y25031D02*X251300Y24531D01*
X249800D02*X251300D01*
X249800D02*X249300Y25031D01*
Y26031D02*Y25031D01*
X251800Y28531D02*X249300Y26031D01*
Y28531D02*X251800D01*
X248100Y28031D02*X245100Y25031D01*
X243400Y28531D02*Y24531D01*
X241900D02*X243900D01*
X241900D02*X241400Y25031D01*
Y26031D02*Y25031D01*
X241900Y26531D02*X241400Y26031D01*
X241900Y26531D02*X243400D01*
X240200Y28031D02*Y25031D01*
X239700Y24531D01*
X238700D02*X239700D01*
X238700D02*X238200Y25031D01*
Y28031D02*Y25031D01*
X238700Y28531D02*X238200Y28031D01*
X238700Y28531D02*X239700D01*
X240200Y28031D02*X239700Y28531D01*
X237000D02*Y24531D01*
X235000Y28531D02*X237000D01*
X233800Y25031D02*X233300Y24531D01*
X231800D02*X233300D01*
X231800D02*X231300Y25031D01*
Y26031D02*Y25031D01*
X233800Y28531D02*X231300Y26031D01*
Y28531D02*X233800D01*
X255500Y61031D02*X253000Y57031D01*
X255500D02*X253000Y61031D01*
X251800Y57531D02*X251300Y57031D01*
X249800D02*X251300D01*
X249800D02*X249300Y57531D01*
Y58531D02*Y57531D01*
X251800Y61031D02*X249300Y58531D01*
Y61031D02*X251800D01*
X248100Y60531D02*X245100Y57531D01*
X243400Y61031D02*Y57031D01*
X241900D02*X243900D01*
X241900D02*X241400Y57531D01*
Y58531D02*Y57531D01*
X241900Y59031D02*X241400Y58531D01*
X241900Y59031D02*X243400D01*
X240200Y60531D02*Y57531D01*
X239700Y57031D01*
X238700D02*X239700D01*
X238700D02*X238200Y57531D01*
Y60531D02*Y57531D01*
X238700Y61031D02*X238200Y60531D01*
X238700Y61031D02*X239700D01*
X240200Y60531D02*X239700Y61031D01*
X237000D02*Y57031D01*
X235000Y61031D02*X237000D01*
X233800Y57831D02*X233000Y57031D01*
Y61031D02*Y57031D01*
X232300Y61031D02*X233800D01*
M02*
