G04 start of page 12 for group -3984 idx -3984 *
G04 Title: (unknown), fab *
G04 Creator: pcb 1.99z *
G04 CreationDate: Sat 29 Oct 2016 01:04:33 AM GMT UTC *
G04 For: commonadmin *
G04 Format: Gerber/RS-274X *
G04 PCB-Dimensions (mil): 4000.00 3000.00 *
G04 PCB-Coordinate-Origin: lower left *
%MOIN*%
%FSLAX25Y25*%
%LNFAB*%
%ADD113C,0.0100*%
%ADD112C,0.0075*%
%ADD111C,0.0060*%
%ADD110R,0.0080X0.0080*%
%ADD109C,0.0001*%
G54D109*G36*
X19254Y152997D02*X24619Y147631D01*
X24054Y147066D01*
X18688Y152431D01*
X19254Y152997D01*
G37*
G36*
X18688Y147631D02*X24054Y152997D01*
X24619Y152431D01*
X19254Y147066D01*
X18688Y147631D01*
G37*
G54D110*X20054Y151631D02*X23254D01*
X20054D02*Y148431D01*
X23254D01*
Y151631D02*Y148431D01*
G54D109*G36*
X47600Y152997D02*X52966Y147631D01*
X52400Y147066D01*
X47034Y152431D01*
X47600Y152997D01*
G37*
G36*
X47034Y147631D02*X52400Y152997D01*
X52966Y152431D01*
X47600Y147066D01*
X47034Y147631D01*
G37*
G54D110*X48400Y151631D02*X51600D01*
X48400D02*Y148431D01*
X51600D01*
Y151631D02*Y148431D01*
G54D109*G36*
X19254Y184997D02*X24619Y179631D01*
X24054Y179066D01*
X18688Y184431D01*
X19254Y184997D01*
G37*
G36*
X18688Y179631D02*X24054Y184997D01*
X24619Y184431D01*
X19254Y179066D01*
X18688Y179631D01*
G37*
G54D110*X20054Y183631D02*X23254D01*
X20054D02*Y180431D01*
X23254D01*
Y183631D02*Y180431D01*
G54D109*G36*
X47600Y184997D02*X52966Y179631D01*
X52400Y179066D01*
X47034Y184431D01*
X47600Y184997D01*
G37*
G36*
X47034Y179631D02*X52400Y184997D01*
X52966Y184431D01*
X47600Y179066D01*
X47034Y179631D01*
G37*
G54D110*X48400Y183631D02*X51600D01*
X48400D02*Y180431D01*
X51600D01*
Y183631D02*Y180431D01*
G54D109*G36*
X19254Y216997D02*X24619Y211631D01*
X24054Y211066D01*
X18688Y216431D01*
X19254Y216997D01*
G37*
G36*
X18688Y211631D02*X24054Y216997D01*
X24619Y216431D01*
X19254Y211066D01*
X18688Y211631D01*
G37*
G54D110*X20054Y215631D02*X23254D01*
X20054D02*Y212431D01*
X23254D01*
Y215631D02*Y212431D01*
G54D109*G36*
X47600Y216997D02*X52966Y211631D01*
X52400Y211066D01*
X47034Y216431D01*
X47600Y216997D01*
G37*
G36*
X47034Y211631D02*X52400Y216997D01*
X52966Y216431D01*
X47600Y211066D01*
X47034Y211631D01*
G37*
G54D110*X48400Y215631D02*X51600D01*
X48400D02*Y212431D01*
X51600D01*
Y215631D02*Y212431D01*
G54D109*G36*
X19254Y120997D02*X24619Y115631D01*
X24054Y115066D01*
X18688Y120431D01*
X19254Y120997D01*
G37*
G36*
X18688Y115631D02*X24054Y120997D01*
X24619Y120431D01*
X19254Y115066D01*
X18688Y115631D01*
G37*
G54D110*X20054Y119631D02*X23254D01*
X20054D02*Y116431D01*
X23254D01*
Y119631D02*Y116431D01*
G54D109*G36*
X47600Y120997D02*X52966Y115631D01*
X52400Y115066D01*
X47034Y120431D01*
X47600Y120997D01*
G37*
G36*
X47034Y115631D02*X52400Y120997D01*
X52966Y120431D01*
X47600Y115066D01*
X47034Y115631D01*
G37*
G54D110*X48400Y119631D02*X51600D01*
X48400D02*Y116431D01*
X51600D01*
Y119631D02*Y116431D01*
G54D109*G36*
X12600Y314216D02*X17966Y308850D01*
X17400Y308284D01*
X12034Y313650D01*
X12600Y314216D01*
G37*
G36*
X12034Y308850D02*X17400Y314216D01*
X17966Y313650D01*
X12600Y308284D01*
X12034Y308850D01*
G37*
G54D110*X13400Y312850D02*X16600D01*
X13400D02*Y309650D01*
X16600D01*
Y312850D02*Y309650D01*
G54D111*X135000Y313500D02*X136500Y310500D01*
X138000Y313500D01*
X136500Y310500D02*Y307500D01*
X139800Y310800D02*X142050D01*
X139800Y307500D02*X142800D01*
X139800Y313500D02*Y307500D01*
Y313500D02*X142800D01*
X147600D02*X148350Y312750D01*
X145350Y313500D02*X147600D01*
X144600Y312750D02*X145350Y313500D01*
X144600Y312750D02*Y311250D01*
X145350Y310500D01*
X147600D01*
X148350Y309750D01*
Y308250D01*
X147600Y307500D02*X148350Y308250D01*
X145350Y307500D02*X147600D01*
X144600Y308250D02*X145350Y307500D01*
X98000Y308250D02*X98750Y307500D01*
X98000Y309450D02*Y308250D01*
Y309450D02*X99050Y310500D01*
X99950D01*
X101000Y309450D01*
Y308250D01*
X100250Y307500D02*X101000Y308250D01*
X98750Y307500D02*X100250D01*
X98000Y311550D02*X99050Y310500D01*
X98000Y312750D02*Y311550D01*
Y312750D02*X98750Y313500D01*
X100250D01*
X101000Y312750D01*
Y311550D01*
X99950Y310500D02*X101000Y311550D01*
X45000Y308250D02*X45750Y307500D01*
X45000Y312750D02*Y308250D01*
Y312750D02*X45750Y313500D01*
X47250D01*
X48000Y312750D01*
Y308250D01*
X47250Y307500D02*X48000Y308250D01*
X45750Y307500D02*X47250D01*
X45000Y309000D02*X48000Y312000D01*
X49800Y307500D02*X50550D01*
X52350Y312300D02*X53550Y313500D01*
Y307500D01*
X52350D02*X54600D01*
X56400Y308250D02*X57150Y307500D01*
X56400Y309450D02*Y308250D01*
Y309450D02*X57450Y310500D01*
X58350D01*
X59400Y309450D01*
Y308250D01*
X58650Y307500D02*X59400Y308250D01*
X57150Y307500D02*X58650D01*
X56400Y311550D02*X57450Y310500D01*
X56400Y312750D02*Y311550D01*
Y312750D02*X57150Y313500D01*
X58650D01*
X59400Y312750D01*
Y311550D01*
X58350Y310500D02*X59400Y311550D01*
X61950Y307500D02*X64950Y313500D01*
X61200D02*X64950D01*
X35000Y293200D02*Y286800D01*
X31800Y290000D02*X38200D01*
X33400Y291600D02*X36600D01*
X33400D02*Y288400D01*
X36600D01*
Y291600D02*Y288400D01*
X35000Y241231D02*Y234831D01*
X31800Y238031D02*X38200D01*
X33400Y239631D02*X36600D01*
X33400D02*Y236431D01*
X36600D01*
Y239631D02*Y236431D01*
X330000Y32747D02*Y26347D01*
X326800Y29547D02*X333200D01*
X328400Y31147D02*X331600D01*
X328400D02*Y27947D01*
X331600D01*
Y31147D02*Y27947D01*
X330000Y84716D02*Y78316D01*
X326800Y81516D02*X333200D01*
X328400Y83116D02*X331600D01*
X328400D02*Y79916D01*
X331600D01*
Y83116D02*Y79916D01*
X35000Y71231D02*Y64831D01*
X31800Y68031D02*X38200D01*
X33400Y69631D02*X36600D01*
X33400D02*Y66431D01*
X36600D01*
Y69631D02*Y66431D01*
X35000Y19263D02*Y12863D01*
X31800Y16063D02*X38200D01*
X33400Y17663D02*X36600D01*
X33400D02*Y14463D01*
X36600D01*
Y17663D02*Y14463D01*
X15000Y329450D02*Y323050D01*
X11800Y326250D02*X18200D01*
X13400Y327850D02*X16600D01*
X13400D02*Y324650D01*
X16600D01*
Y327850D02*Y324650D01*
X135000Y328500D02*X136500Y325500D01*
X138000Y328500D01*
X136500Y325500D02*Y322500D01*
X139800Y325800D02*X142050D01*
X139800Y322500D02*X142800D01*
X139800Y328500D02*Y322500D01*
Y328500D02*X142800D01*
X147600D02*X148350Y327750D01*
X145350Y328500D02*X147600D01*
X144600Y327750D02*X145350Y328500D01*
X144600Y327750D02*Y326250D01*
X145350Y325500D01*
X147600D01*
X148350Y324750D01*
Y323250D01*
X147600Y322500D02*X148350Y323250D01*
X145350Y322500D02*X147600D01*
X144600Y323250D02*X145350Y322500D01*
X100250Y328500D02*X101000Y327750D01*
X98750Y328500D02*X100250D01*
X98000Y327750D02*X98750Y328500D01*
X98000Y327750D02*Y323250D01*
X98750Y322500D01*
X100250Y325800D02*X101000Y325050D01*
X98000Y325800D02*X100250D01*
X98750Y322500D02*X100250D01*
X101000Y323250D01*
Y325050D02*Y323250D01*
X45000D02*X45750Y322500D01*
X45000Y327750D02*Y323250D01*
Y327750D02*X45750Y328500D01*
X47250D01*
X48000Y327750D01*
Y323250D01*
X47250Y322500D02*X48000Y323250D01*
X45750Y322500D02*X47250D01*
X45000Y324000D02*X48000Y327000D01*
X49800Y322500D02*X50550D01*
X52350Y323250D02*X53100Y322500D01*
X52350Y327750D02*Y323250D01*
Y327750D02*X53100Y328500D01*
X54600D01*
X55350Y327750D01*
Y323250D01*
X54600Y322500D02*X55350Y323250D01*
X53100Y322500D02*X54600D01*
X52350Y324000D02*X55350Y327000D01*
X57900Y322500D02*X60150Y325500D01*
Y327750D02*Y325500D01*
X59400Y328500D02*X60150Y327750D01*
X57900Y328500D02*X59400D01*
X57150Y327750D02*X57900Y328500D01*
X57150Y327750D02*Y326250D01*
X57900Y325500D01*
X60150D01*
X61950Y324750D02*X64950Y328500D01*
X61950Y324750D02*X65700D01*
X64950Y328500D02*Y322500D01*
X330000Y270531D02*Y267331D01*
Y270531D02*X332773Y272131D01*
X330000Y270531D02*X327227Y272131D01*
X328400Y270531D02*G75*G03X331600Y270531I1600J0D01*G01*
G75*G03X328400Y270531I-1600J0D01*G01*
X330000Y230531D02*Y227331D01*
Y230531D02*X332773Y232131D01*
X330000Y230531D02*X327227Y232131D01*
X328400Y230531D02*G75*G03X331600Y230531I1600J0D01*G01*
G75*G03X328400Y230531I-1600J0D01*G01*
X330000Y210531D02*Y207331D01*
Y210531D02*X332773Y212131D01*
X330000Y210531D02*X327227Y212131D01*
X328400Y210531D02*G75*G03X331600Y210531I1600J0D01*G01*
G75*G03X328400Y210531I-1600J0D01*G01*
X330000Y170531D02*Y167331D01*
Y170531D02*X332773Y172131D01*
X330000Y170531D02*X327227Y172131D01*
X328400Y170531D02*G75*G03X331600Y170531I1600J0D01*G01*
G75*G03X328400Y170531I-1600J0D01*G01*
X330000Y150531D02*Y147331D01*
Y150531D02*X332773Y152131D01*
X330000Y150531D02*X327227Y152131D01*
X328400Y150531D02*G75*G03X331600Y150531I1600J0D01*G01*
G75*G03X328400Y150531I-1600J0D01*G01*
X330000Y110531D02*Y107331D01*
Y110531D02*X332773Y112131D01*
X330000Y110531D02*X327227Y112131D01*
X328400Y110531D02*G75*G03X331600Y110531I1600J0D01*G01*
G75*G03X328400Y110531I-1600J0D01*G01*
X15000Y341250D02*Y338050D01*
Y341250D02*X17773Y342850D01*
X15000Y341250D02*X12227Y342850D01*
X13400Y341250D02*G75*G03X16600Y341250I1600J0D01*G01*
G75*G03X13400Y341250I-1600J0D01*G01*
X135000Y343500D02*X136500Y340500D01*
X138000Y343500D01*
X136500Y340500D02*Y337500D01*
X139800Y340800D02*X142050D01*
X139800Y337500D02*X142800D01*
X139800Y343500D02*Y337500D01*
Y343500D02*X142800D01*
X147600D02*X148350Y342750D01*
X145350Y343500D02*X147600D01*
X144600Y342750D02*X145350Y343500D01*
X144600Y342750D02*Y341250D01*
X145350Y340500D01*
X147600D01*
X148350Y339750D01*
Y338250D01*
X147600Y337500D02*X148350Y338250D01*
X145350Y337500D02*X147600D01*
X144600Y338250D02*X145350Y337500D01*
X100250Y343500D02*X101000Y342750D01*
X98750Y343500D02*X100250D01*
X98000Y342750D02*X98750Y343500D01*
X98000Y342750D02*Y338250D01*
X98750Y337500D01*
X100250Y340800D02*X101000Y340050D01*
X98000Y340800D02*X100250D01*
X98750Y337500D02*X100250D01*
X101000Y338250D01*
Y340050D02*Y338250D01*
X45000D02*X45750Y337500D01*
X45000Y342750D02*Y338250D01*
Y342750D02*X45750Y343500D01*
X47250D01*
X48000Y342750D01*
Y338250D01*
X47250Y337500D02*X48000Y338250D01*
X45750Y337500D02*X47250D01*
X45000Y339000D02*X48000Y342000D01*
X49800Y337500D02*X50550D01*
X52350Y338250D02*X53100Y337500D01*
X52350Y342750D02*Y338250D01*
Y342750D02*X53100Y343500D01*
X54600D01*
X55350Y342750D01*
Y338250D01*
X54600Y337500D02*X55350Y338250D01*
X53100Y337500D02*X54600D01*
X52350Y339000D02*X55350Y342000D01*
X57150Y338250D02*X57900Y337500D01*
X57150Y339450D02*Y338250D01*
Y339450D02*X58200Y340500D01*
X59100D01*
X60150Y339450D01*
Y338250D01*
X59400Y337500D02*X60150Y338250D01*
X57900Y337500D02*X59400D01*
X57150Y341550D02*X58200Y340500D01*
X57150Y342750D02*Y341550D01*
Y342750D02*X57900Y343500D01*
X59400D01*
X60150Y342750D01*
Y341550D01*
X59100Y340500D02*X60150Y341550D01*
X61950Y342300D02*X63150Y343500D01*
Y337500D01*
X61950D02*X64200D01*
X23361Y240419D02*X26561D01*
X23361D02*Y237219D01*
X26561D01*
Y240419D02*Y237219D01*
X23361Y290813D02*X26561D01*
X23361D02*Y287613D01*
X26561D01*
Y290813D02*Y287613D01*
X338439Y82328D02*X341639D01*
X338439D02*Y79128D01*
X341639D01*
Y82328D02*Y79128D01*
X338439Y31935D02*X341639D01*
X338439D02*Y28735D01*
X341639D01*
Y31935D02*Y28735D01*
X23361Y18450D02*X26561D01*
X23361D02*Y15250D01*
X26561D01*
Y18450D02*Y15250D01*
X23361Y68844D02*X26561D01*
X23361D02*Y65644D01*
X26561D01*
Y68844D02*Y65644D01*
X13400Y357850D02*X16600D01*
X13400D02*Y354650D01*
X16600D01*
Y357850D02*Y354650D01*
X135000Y358500D02*X136500Y355500D01*
X138000Y358500D01*
X136500Y355500D02*Y352500D01*
X139800Y355800D02*X142050D01*
X139800Y352500D02*X142800D01*
X139800Y358500D02*Y352500D01*
Y358500D02*X142800D01*
X147600D02*X148350Y357750D01*
X145350Y358500D02*X147600D01*
X144600Y357750D02*X145350Y358500D01*
X144600Y357750D02*Y356250D01*
X145350Y355500D01*
X147600D01*
X148350Y354750D01*
Y353250D01*
X147600Y352500D02*X148350Y353250D01*
X145350Y352500D02*X147600D01*
X144600Y353250D02*X145350Y352500D01*
X100250Y358500D02*X101000Y357750D01*
X98750Y358500D02*X100250D01*
X98000Y357750D02*X98750Y358500D01*
X98000Y357750D02*Y353250D01*
X98750Y352500D01*
X100250Y355800D02*X101000Y355050D01*
X98000Y355800D02*X100250D01*
X98750Y352500D02*X100250D01*
X101000Y353250D01*
Y355050D02*Y353250D01*
X45000D02*X45750Y352500D01*
X45000Y357750D02*Y353250D01*
Y357750D02*X45750Y358500D01*
X47250D01*
X48000Y357750D01*
Y353250D01*
X47250Y352500D02*X48000Y353250D01*
X45750Y352500D02*X47250D01*
X45000Y354000D02*X48000Y357000D01*
X49800Y352500D02*X50550D01*
X52350Y353250D02*X53100Y352500D01*
X52350Y357750D02*Y353250D01*
Y357750D02*X53100Y358500D01*
X54600D01*
X55350Y357750D01*
Y353250D01*
X54600Y352500D02*X55350Y353250D01*
X53100Y352500D02*X54600D01*
X52350Y354000D02*X55350Y357000D01*
X57150Y358500D02*X60150D01*
X57150D02*Y355500D01*
X57900Y356250D01*
X59400D01*
X60150Y355500D01*
Y353250D01*
X59400Y352500D02*X60150Y353250D01*
X57900Y352500D02*X59400D01*
X57150Y353250D02*X57900Y352500D01*
X61950Y357300D02*X63150Y358500D01*
Y352500D01*
X61950D02*X64200D01*
X254200Y93031D02*G75*G03X255800Y93031I800J0D01*G01*
G75*G03X254200Y93031I-800J0D01*G01*
Y83031D02*G75*G03X255800Y83031I800J0D01*G01*
G75*G03X254200Y83031I-800J0D01*G01*
X264200D02*G75*G03X265800Y83031I800J0D01*G01*
G75*G03X264200Y83031I-800J0D01*G01*
Y93031D02*G75*G03X265800Y93031I800J0D01*G01*
G75*G03X264200Y93031I-800J0D01*G01*
X76700D02*G75*G03X78300Y93031I800J0D01*G01*
G75*G03X76700Y93031I-800J0D01*G01*
Y83031D02*G75*G03X78300Y83031I800J0D01*G01*
G75*G03X76700Y83031I-800J0D01*G01*
X86700D02*G75*G03X88300Y83031I800J0D01*G01*
G75*G03X86700Y83031I-800J0D01*G01*
Y93031D02*G75*G03X88300Y93031I800J0D01*G01*
G75*G03X86700Y93031I-800J0D01*G01*
X11700D02*G75*G03X13300Y93031I800J0D01*G01*
G75*G03X11700Y93031I-800J0D01*G01*
X21700D02*G75*G03X23300Y93031I800J0D01*G01*
G75*G03X21700Y93031I-800J0D01*G01*
X31700D02*G75*G03X33300Y93031I800J0D01*G01*
G75*G03X31700Y93031I-800J0D01*G01*
X41700D02*G75*G03X43300Y93031I800J0D01*G01*
G75*G03X41700Y93031I-800J0D01*G01*
X51700D02*G75*G03X53300Y93031I800J0D01*G01*
G75*G03X51700Y93031I-800J0D01*G01*
X61700D02*G75*G03X63300Y93031I800J0D01*G01*
G75*G03X61700Y93031I-800J0D01*G01*
X185200Y83031D02*G75*G03X186800Y83031I800J0D01*G01*
G75*G03X185200Y83031I-800J0D01*G01*
Y93031D02*G75*G03X186800Y93031I800J0D01*G01*
G75*G03X185200Y93031I-800J0D01*G01*
X195200Y83031D02*G75*G03X196800Y83031I800J0D01*G01*
G75*G03X195200Y83031I-800J0D01*G01*
Y93031D02*G75*G03X196800Y93031I800J0D01*G01*
G75*G03X195200Y93031I-800J0D01*G01*
X205200Y83031D02*G75*G03X206800Y83031I800J0D01*G01*
G75*G03X205200Y83031I-800J0D01*G01*
Y93031D02*G75*G03X206800Y93031I800J0D01*G01*
G75*G03X205200Y93031I-800J0D01*G01*
X215200Y83031D02*G75*G03X216800Y83031I800J0D01*G01*
G75*G03X215200Y83031I-800J0D01*G01*
Y93031D02*G75*G03X216800Y93031I800J0D01*G01*
G75*G03X215200Y93031I-800J0D01*G01*
X225200Y83031D02*G75*G03X226800Y83031I800J0D01*G01*
G75*G03X225200Y83031I-800J0D01*G01*
Y93031D02*G75*G03X226800Y93031I800J0D01*G01*
G75*G03X225200Y93031I-800J0D01*G01*
X115700Y83031D02*G75*G03X117300Y83031I800J0D01*G01*
G75*G03X115700Y83031I-800J0D01*G01*
Y93031D02*G75*G03X117300Y93031I800J0D01*G01*
G75*G03X115700Y93031I-800J0D01*G01*
X125700Y83031D02*G75*G03X127300Y83031I800J0D01*G01*
G75*G03X125700Y83031I-800J0D01*G01*
Y93031D02*G75*G03X127300Y93031I800J0D01*G01*
G75*G03X125700Y93031I-800J0D01*G01*
X135700Y83031D02*G75*G03X137300Y83031I800J0D01*G01*
G75*G03X135700Y83031I-800J0D01*G01*
Y93031D02*G75*G03X137300Y93031I800J0D01*G01*
G75*G03X135700Y93031I-800J0D01*G01*
X145700Y83031D02*G75*G03X147300Y83031I800J0D01*G01*
G75*G03X145700Y83031I-800J0D01*G01*
Y93031D02*G75*G03X147300Y93031I800J0D01*G01*
G75*G03X145700Y93031I-800J0D01*G01*
X155700Y83031D02*G75*G03X157300Y83031I800J0D01*G01*
G75*G03X155700Y83031I-800J0D01*G01*
Y93031D02*G75*G03X157300Y93031I800J0D01*G01*
G75*G03X155700Y93031I-800J0D01*G01*
X354200Y18031D02*G75*G03X355800Y18031I800J0D01*G01*
G75*G03X354200Y18031I-800J0D01*G01*
X344200D02*G75*G03X345800Y18031I800J0D01*G01*
G75*G03X344200Y18031I-800J0D01*G01*
X334200D02*G75*G03X335800Y18031I800J0D01*G01*
G75*G03X334200Y18031I-800J0D01*G01*
X324200D02*G75*G03X325800Y18031I800J0D01*G01*
G75*G03X324200Y18031I-800J0D01*G01*
X314200D02*G75*G03X315800Y18031I800J0D01*G01*
G75*G03X314200Y18031I-800J0D01*G01*
X304200D02*G75*G03X305800Y18031I800J0D01*G01*
G75*G03X304200Y18031I-800J0D01*G01*
X294200D02*G75*G03X295800Y18031I800J0D01*G01*
G75*G03X294200Y18031I-800J0D01*G01*
X284200D02*G75*G03X285800Y18031I800J0D01*G01*
G75*G03X284200Y18031I-800J0D01*G01*
X354200Y93031D02*G75*G03X355800Y93031I800J0D01*G01*
G75*G03X354200Y93031I-800J0D01*G01*
X344200D02*G75*G03X345800Y93031I800J0D01*G01*
G75*G03X344200Y93031I-800J0D01*G01*
X334200D02*G75*G03X335800Y93031I800J0D01*G01*
G75*G03X334200Y93031I-800J0D01*G01*
X324200D02*G75*G03X325800Y93031I800J0D01*G01*
G75*G03X324200Y93031I-800J0D01*G01*
X314200D02*G75*G03X315800Y93031I800J0D01*G01*
G75*G03X314200Y93031I-800J0D01*G01*
X304200D02*G75*G03X305800Y93031I800J0D01*G01*
G75*G03X304200Y93031I-800J0D01*G01*
X294200D02*G75*G03X295800Y93031I800J0D01*G01*
G75*G03X294200Y93031I-800J0D01*G01*
X284200D02*G75*G03X285800Y93031I800J0D01*G01*
G75*G03X284200Y93031I-800J0D01*G01*
X264200Y18031D02*G75*G03X265800Y18031I800J0D01*G01*
G75*G03X264200Y18031I-800J0D01*G01*
X254200D02*G75*G03X255800Y18031I800J0D01*G01*
G75*G03X254200Y18031I-800J0D01*G01*
X244200D02*G75*G03X245800Y18031I800J0D01*G01*
G75*G03X244200Y18031I-800J0D01*G01*
X234200D02*G75*G03X235800Y18031I800J0D01*G01*
G75*G03X234200Y18031I-800J0D01*G01*
X224200D02*G75*G03X225800Y18031I800J0D01*G01*
G75*G03X224200Y18031I-800J0D01*G01*
X214200D02*G75*G03X215800Y18031I800J0D01*G01*
G75*G03X214200Y18031I-800J0D01*G01*
X204200D02*G75*G03X205800Y18031I800J0D01*G01*
G75*G03X204200Y18031I-800J0D01*G01*
X194200D02*G75*G03X195800Y18031I800J0D01*G01*
G75*G03X194200Y18031I-800J0D01*G01*
X264200Y68031D02*G75*G03X265800Y68031I800J0D01*G01*
G75*G03X264200Y68031I-800J0D01*G01*
X254200D02*G75*G03X255800Y68031I800J0D01*G01*
G75*G03X254200Y68031I-800J0D01*G01*
X244200D02*G75*G03X245800Y68031I800J0D01*G01*
G75*G03X244200Y68031I-800J0D01*G01*
X234200D02*G75*G03X235800Y68031I800J0D01*G01*
G75*G03X234200Y68031I-800J0D01*G01*
X224200D02*G75*G03X225800Y68031I800J0D01*G01*
G75*G03X224200Y68031I-800J0D01*G01*
X214200D02*G75*G03X215800Y68031I800J0D01*G01*
G75*G03X214200Y68031I-800J0D01*G01*
X204200D02*G75*G03X205800Y68031I800J0D01*G01*
G75*G03X204200Y68031I-800J0D01*G01*
X194200D02*G75*G03X195800Y68031I800J0D01*G01*
G75*G03X194200Y68031I-800J0D01*G01*
X175200D02*G75*G03X176800Y68031I800J0D01*G01*
G75*G03X175200Y68031I-800J0D01*G01*
Y58031D02*G75*G03X176800Y58031I800J0D01*G01*
G75*G03X175200Y58031I-800J0D01*G01*
Y48031D02*G75*G03X176800Y48031I800J0D01*G01*
G75*G03X175200Y48031I-800J0D01*G01*
Y38031D02*G75*G03X176800Y38031I800J0D01*G01*
G75*G03X175200Y38031I-800J0D01*G01*
Y28031D02*G75*G03X176800Y28031I800J0D01*G01*
G75*G03X175200Y28031I-800J0D01*G01*
Y18031D02*G75*G03X176800Y18031I800J0D01*G01*
G75*G03X175200Y18031I-800J0D01*G01*
X14200Y371250D02*G75*G03X15800Y371250I800J0D01*G01*
G75*G03X14200Y371250I-800J0D01*G01*
X135000Y373500D02*X136500Y370500D01*
X138000Y373500D01*
X136500Y370500D02*Y367500D01*
X139800Y370800D02*X142050D01*
X139800Y367500D02*X142800D01*
X139800Y373500D02*Y367500D01*
Y373500D02*X142800D01*
X147600D02*X148350Y372750D01*
X145350Y373500D02*X147600D01*
X144600Y372750D02*X145350Y373500D01*
X144600Y372750D02*Y371250D01*
X145350Y370500D01*
X147600D01*
X148350Y369750D01*
Y368250D01*
X147600Y367500D02*X148350Y368250D01*
X145350Y367500D02*X147600D01*
X144600Y368250D02*X145350Y367500D01*
X98750D02*X101750Y373500D01*
X98000D02*X101750D01*
X103550Y372750D02*X104300Y373500D01*
X106550D01*
X107300Y372750D01*
Y371250D01*
X103550Y367500D02*X107300Y371250D01*
X103550Y367500D02*X107300D01*
X45000Y368250D02*X45750Y367500D01*
X45000Y372750D02*Y368250D01*
Y372750D02*X45750Y373500D01*
X47250D01*
X48000Y372750D01*
Y368250D01*
X47250Y367500D02*X48000Y368250D01*
X45750Y367500D02*X47250D01*
X45000Y369000D02*X48000Y372000D01*
X49800Y367500D02*X50550D01*
X52350Y368250D02*X53100Y367500D01*
X52350Y372750D02*Y368250D01*
Y372750D02*X53100Y373500D01*
X54600D01*
X55350Y372750D01*
Y368250D01*
X54600Y367500D02*X55350Y368250D01*
X53100Y367500D02*X54600D01*
X52350Y369000D02*X55350Y372000D01*
X57150Y372750D02*X57900Y373500D01*
X59400D01*
X60150Y372750D01*
X59400Y367500D02*X60150Y368250D01*
X57900Y367500D02*X59400D01*
X57150Y368250D02*X57900Y367500D01*
Y370800D02*X59400D01*
X60150Y372750D02*Y371550D01*
Y370050D02*Y368250D01*
Y370050D02*X59400Y370800D01*
X60150Y371550D02*X59400Y370800D01*
X61950Y368250D02*X62700Y367500D01*
X61950Y369450D02*Y368250D01*
Y369450D02*X63000Y370500D01*
X63900D01*
X64950Y369450D01*
Y368250D01*
X64200Y367500D02*X64950Y368250D01*
X62700Y367500D02*X64200D01*
X61950Y371550D02*X63000Y370500D01*
X61950Y372750D02*Y371550D01*
Y372750D02*X62700Y373500D01*
X64200D01*
X64950Y372750D01*
Y371550D01*
X63900Y370500D02*X64950Y371550D01*
X308800Y251731D02*X311200Y249331D01*
X308800D02*X311200Y251731D01*
X308800Y261731D02*X311200Y259331D01*
X308800D02*X311200Y261731D01*
X308800Y191731D02*X311200Y189331D01*
X308800D02*X311200Y191731D01*
X308800Y201731D02*X311200Y199331D01*
X308800D02*X311200Y201731D01*
X308800Y131731D02*X311200Y129331D01*
X308800D02*X311200Y131731D01*
X308800Y141731D02*X311200Y139331D01*
X308800D02*X311200Y141731D01*
X12800Y60731D02*X15200Y58331D01*
X12800D02*X15200Y60731D01*
X17800Y38731D02*X20200Y36331D01*
X17800D02*X20200Y38731D01*
X23300Y82731D02*X25700Y80331D01*
X23300D02*X25700Y82731D01*
X291800Y109231D02*X294200Y106831D01*
X291800D02*X294200Y109231D01*
X59784Y282735D02*X62184Y280335D01*
X59784D02*X62184Y282735D01*
X59784Y247696D02*X62184Y245296D01*
X59784D02*X62184Y247696D01*
X59784Y292775D02*X62184Y290375D01*
X59784D02*X62184Y292775D01*
X59784Y237657D02*X62184Y235257D01*
X59784D02*X62184Y237657D01*
X37343Y279271D02*X39743Y276871D01*
X37343D02*X39743Y279271D01*
X37343Y271239D02*X39743Y268839D01*
X37343D02*X39743Y271239D01*
X37343Y255176D02*X39743Y252776D01*
X37343D02*X39743Y255176D01*
X37343Y263208D02*X39743Y260808D01*
X37343D02*X39743Y263208D01*
X30257Y251161D02*X32657Y248761D01*
X30257D02*X32657Y251161D01*
X30257Y259192D02*X32657Y256792D01*
X30257D02*X32657Y259192D01*
X30257Y275255D02*X32657Y272855D01*
X30257D02*X32657Y275255D01*
X30257Y267224D02*X32657Y264824D01*
X30257D02*X32657Y267224D01*
X302816Y39212D02*X305216Y36812D01*
X302816D02*X305216Y39212D01*
X302816Y74251D02*X305216Y71851D01*
X302816D02*X305216Y74251D01*
X302816Y29172D02*X305216Y26772D01*
X302816D02*X305216Y29172D01*
X302816Y84291D02*X305216Y81891D01*
X302816D02*X305216Y84291D01*
X325257Y42676D02*X327657Y40276D01*
X325257D02*X327657Y42676D01*
X325257Y50708D02*X327657Y48308D01*
X325257D02*X327657Y50708D01*
X325257Y66771D02*X327657Y64371D01*
X325257D02*X327657Y66771D01*
X325257Y58739D02*X327657Y56339D01*
X325257D02*X327657Y58739D01*
X332343Y70787D02*X334743Y68387D01*
X332343D02*X334743Y70787D01*
X332343Y62755D02*X334743Y60355D01*
X332343D02*X334743Y62755D01*
X332343Y46692D02*X334743Y44292D01*
X332343D02*X334743Y46692D01*
X332343Y54724D02*X334743Y52324D01*
X332343D02*X334743Y54724D01*
X59784Y60767D02*X62184Y58367D01*
X59784D02*X62184Y60767D01*
X59784Y25728D02*X62184Y23328D01*
X59784D02*X62184Y25728D01*
X59784Y70806D02*X62184Y68406D01*
X59784D02*X62184Y70806D01*
X59784Y15688D02*X62184Y13288D01*
X59784D02*X62184Y15688D01*
X37343Y57302D02*X39743Y54902D01*
X37343D02*X39743Y57302D01*
X37343Y49271D02*X39743Y46871D01*
X37343D02*X39743Y49271D01*
X37343Y33208D02*X39743Y30808D01*
X37343D02*X39743Y33208D01*
X37343Y41239D02*X39743Y38839D01*
X37343D02*X39743Y41239D01*
X30257Y29192D02*X32657Y26792D01*
X30257D02*X32657Y29192D01*
X30257Y37224D02*X32657Y34824D01*
X30257D02*X32657Y37224D01*
X30257Y53287D02*X32657Y50887D01*
X30257D02*X32657Y53287D01*
X30257Y45255D02*X32657Y42855D01*
X30257D02*X32657Y45255D01*
X13800Y387450D02*X16200Y385050D01*
X13800D02*X16200Y387450D01*
X135000Y388500D02*X136500Y385500D01*
X138000Y388500D01*
X136500Y385500D02*Y382500D01*
X139800Y385800D02*X142050D01*
X139800Y382500D02*X142800D01*
X139800Y388500D02*Y382500D01*
Y388500D02*X142800D01*
X147600D02*X148350Y387750D01*
X145350Y388500D02*X147600D01*
X144600Y387750D02*X145350Y388500D01*
X144600Y387750D02*Y386250D01*
X145350Y385500D01*
X147600D01*
X148350Y384750D01*
Y383250D01*
X147600Y382500D02*X148350Y383250D01*
X145350Y382500D02*X147600D01*
X144600Y383250D02*X145350Y382500D01*
X98000Y384750D02*X101000Y388500D01*
X98000Y384750D02*X101750D01*
X101000Y388500D02*Y382500D01*
X105800Y388500D02*X106550Y387750D01*
X104300Y388500D02*X105800D01*
X103550Y387750D02*X104300Y388500D01*
X103550Y387750D02*Y383250D01*
X104300Y382500D01*
X105800Y385800D02*X106550Y385050D01*
X103550Y385800D02*X105800D01*
X104300Y382500D02*X105800D01*
X106550Y383250D01*
Y385050D02*Y383250D01*
X45000D02*X45750Y382500D01*
X45000Y387750D02*Y383250D01*
Y387750D02*X45750Y388500D01*
X47250D01*
X48000Y387750D01*
Y383250D01*
X47250Y382500D02*X48000Y383250D01*
X45750Y382500D02*X47250D01*
X45000Y384000D02*X48000Y387000D01*
X49800Y382500D02*X50550D01*
X52350Y383250D02*X53100Y382500D01*
X52350Y387750D02*Y383250D01*
Y387750D02*X53100Y388500D01*
X54600D01*
X55350Y387750D01*
Y383250D01*
X54600Y382500D02*X55350Y383250D01*
X53100Y382500D02*X54600D01*
X52350Y384000D02*X55350Y387000D01*
X57150Y387750D02*X57900Y388500D01*
X59400D01*
X60150Y387750D01*
X59400Y382500D02*X60150Y383250D01*
X57900Y382500D02*X59400D01*
X57150Y383250D02*X57900Y382500D01*
Y385800D02*X59400D01*
X60150Y387750D02*Y386550D01*
Y385050D02*Y383250D01*
Y385050D02*X59400Y385800D01*
X60150Y386550D02*X59400Y385800D01*
X61950Y388500D02*X64950D01*
X61950D02*Y385500D01*
X62700Y386250D01*
X64200D01*
X64950Y385500D01*
Y383250D01*
X64200Y382500D02*X64950Y383250D01*
X62700Y382500D02*X64200D01*
X61950Y383250D02*X62700Y382500D01*
X25500Y38131D02*Y34931D01*
X23900Y36531D02*X27100D01*
X22000Y263631D02*Y260431D01*
X20400Y262031D02*X23600D01*
X10500Y228131D02*Y224931D01*
X8900Y226531D02*X12100D01*
X12500Y237131D02*Y233931D01*
X10900Y235531D02*X14100D01*
X10500Y249131D02*Y245931D01*
X8900Y247531D02*X12100D01*
X14000Y81131D02*Y77931D01*
X12400Y79531D02*X15600D01*
X46000Y72131D02*Y68931D01*
X44400Y70531D02*X47600D01*
X54000Y64046D02*Y60846D01*
X52400Y62446D02*X55600D01*
X18000Y282631D02*Y279431D01*
X16400Y281031D02*X19600D01*
X62100Y66231D02*Y63031D01*
X60500Y64631D02*X63700D01*
X63900Y50431D02*Y47231D01*
X62300Y48831D02*X65500D01*
X183500Y30046D02*Y26846D01*
X181900Y28446D02*X185100D01*
X272000Y14131D02*Y10931D01*
X270400Y12531D02*X273600D01*
X183500Y19131D02*Y15931D01*
X181900Y17531D02*X185100D01*
X297000Y84631D02*Y81431D01*
X295400Y83031D02*X298600D01*
X271500Y82631D02*Y79431D01*
X269900Y81031D02*X273100D01*
X199500Y64631D02*Y61431D01*
X197900Y63031D02*X201100D01*
X286000Y107631D02*Y104431D01*
X284400Y106031D02*X287600D01*
X299500Y109131D02*Y105931D01*
X297900Y107531D02*X301100D01*
X284500Y117631D02*Y114431D01*
X282900Y116031D02*X286100D01*
X282500Y122631D02*Y119431D01*
X280900Y121031D02*X284100D01*
X232500Y94131D02*Y90931D01*
X230900Y92531D02*X234100D01*
X238000Y94131D02*Y90931D01*
X236400Y92531D02*X239600D01*
X264500Y40631D02*Y37431D01*
X262900Y39031D02*X266100D01*
X244000Y45131D02*Y41931D01*
X242400Y43531D02*X245600D01*
X295500Y64131D02*Y60931D01*
X293900Y62531D02*X297100D01*
X295500Y68631D02*Y65431D01*
X293900Y67031D02*X297100D01*
X295500Y75631D02*Y72431D01*
X293900Y74031D02*X297100D01*
X295500Y56631D02*Y53431D01*
X293900Y55031D02*X297100D01*
X262500Y58131D02*Y54931D01*
X260900Y56531D02*X264100D01*
X262500Y53631D02*Y50431D01*
X260900Y52031D02*X264100D01*
X15000Y402850D02*Y399650D01*
X13400Y401250D02*X16600D01*
X135000Y403500D02*X136500Y400500D01*
X138000Y403500D01*
X136500Y400500D02*Y397500D01*
X139800Y400800D02*X142050D01*
X139800Y397500D02*X142800D01*
X139800Y403500D02*Y397500D01*
Y403500D02*X142800D01*
X147600D02*X148350Y402750D01*
X145350Y403500D02*X147600D01*
X144600Y402750D02*X145350Y403500D01*
X144600Y402750D02*Y401250D01*
X145350Y400500D01*
X147600D01*
X148350Y399750D01*
Y398250D01*
X147600Y397500D02*X148350Y398250D01*
X145350Y397500D02*X147600D01*
X144600Y398250D02*X145350Y397500D01*
X98000Y402750D02*X98750Y403500D01*
X100250D01*
X101000Y402750D01*
X100250Y397500D02*X101000Y398250D01*
X98750Y397500D02*X100250D01*
X98000Y398250D02*X98750Y397500D01*
Y400800D02*X100250D01*
X101000Y402750D02*Y401550D01*
Y400050D02*Y398250D01*
Y400050D02*X100250Y400800D01*
X101000Y401550D02*X100250Y400800D01*
X102800Y402300D02*X104000Y403500D01*
Y397500D01*
X102800D02*X105050D01*
X45000Y398250D02*X45750Y397500D01*
X45000Y402750D02*Y398250D01*
Y402750D02*X45750Y403500D01*
X47250D01*
X48000Y402750D01*
Y398250D01*
X47250Y397500D02*X48000Y398250D01*
X45750Y397500D02*X47250D01*
X45000Y399000D02*X48000Y402000D01*
X49800Y397500D02*X50550D01*
X52350Y398250D02*X53100Y397500D01*
X52350Y402750D02*Y398250D01*
Y402750D02*X53100Y403500D01*
X54600D01*
X55350Y402750D01*
Y398250D01*
X54600Y397500D02*X55350Y398250D01*
X53100Y397500D02*X54600D01*
X52350Y399000D02*X55350Y402000D01*
X57150Y402750D02*X57900Y403500D01*
X60150D01*
X60900Y402750D01*
Y401250D01*
X57150Y397500D02*X60900Y401250D01*
X57150Y397500D02*X60900D01*
X62700Y398250D02*X63450Y397500D01*
X62700Y402750D02*Y398250D01*
Y402750D02*X63450Y403500D01*
X64950D01*
X65700Y402750D01*
Y398250D01*
X64950Y397500D02*X65700Y398250D01*
X63450Y397500D02*X64950D01*
X62700Y399000D02*X65700Y402000D01*
X59000Y39531D02*Y37931D01*
Y39531D02*X60387Y40331D01*
X59000Y39531D02*X57613Y40331D01*
X49500Y54531D02*Y52931D01*
Y54531D02*X50887Y55331D01*
X49500Y54531D02*X48113Y55331D01*
X43500Y55531D02*Y53931D01*
Y55531D02*X44887Y56331D01*
X43500Y55531D02*X42113Y56331D01*
X41000Y25531D02*Y23931D01*
Y25531D02*X42387Y26331D01*
X41000Y25531D02*X39613Y26331D01*
X42000Y43031D02*Y41431D01*
Y43031D02*X43387Y43831D01*
X42000Y43031D02*X40613Y43831D01*
X43100Y31331D02*Y29731D01*
Y31331D02*X44487Y32131D01*
X43100Y31331D02*X41713Y32131D01*
X42500Y37531D02*Y35931D01*
Y37531D02*X43887Y38331D01*
X42500Y37531D02*X41113Y38331D01*
X33900Y40131D02*Y38531D01*
Y40131D02*X35287Y40931D01*
X33900Y40131D02*X32513Y40931D01*
X43200Y48531D02*Y46931D01*
Y48531D02*X44587Y49331D01*
X43200Y48531D02*X41813Y49331D01*
X342500Y35531D02*Y33931D01*
Y35531D02*X343887Y36331D01*
X342500Y35531D02*X341113Y36331D01*
X342500Y68531D02*Y66931D01*
Y68531D02*X343887Y69331D01*
X342500Y68531D02*X341113Y69331D01*
X308500Y64031D02*Y62431D01*
Y64031D02*X309887Y64831D01*
X308500Y64031D02*X307113Y64831D01*
X317500Y38531D02*Y36931D01*
Y38531D02*X318887Y39331D01*
X317500Y38531D02*X316113Y39331D01*
X317500Y48531D02*Y46931D01*
Y48531D02*X318887Y49331D01*
X317500Y48531D02*X316113Y49331D01*
X288500Y35531D02*Y33931D01*
Y35531D02*X289887Y36331D01*
X288500Y35531D02*X287113Y36331D01*
X285000Y34531D02*Y32931D01*
Y34531D02*X286387Y35331D01*
X285000Y34531D02*X283613Y35331D01*
X293000Y42031D02*Y40431D01*
Y42031D02*X294387Y42831D01*
X293000Y42031D02*X291613Y42831D01*
X295500Y45531D02*Y43931D01*
Y45531D02*X296887Y46331D01*
X295500Y45531D02*X294113Y46331D01*
X169700Y80231D02*Y78631D01*
Y80231D02*X171087Y81031D01*
X169700Y80231D02*X168313Y81031D01*
X165800Y80231D02*Y78631D01*
Y80231D02*X167187Y81031D01*
X165800Y80231D02*X164413Y81031D01*
X178400Y80231D02*Y78631D01*
Y80231D02*X179787Y81031D01*
X178400Y80231D02*X177013Y81031D01*
X174500Y80231D02*Y78631D01*
Y80231D02*X175887Y81031D01*
X174500Y80231D02*X173113Y81031D01*
X189000Y74031D02*Y72431D01*
Y74031D02*X190387Y74831D01*
X189000Y74031D02*X187613Y74831D01*
X203500Y73031D02*Y71431D01*
Y73031D02*X204887Y73831D01*
X203500Y73031D02*X202113Y73831D01*
X193000Y75031D02*Y73431D01*
Y75031D02*X194387Y75831D01*
X193000Y75031D02*X191613Y75831D01*
X15000Y416250D02*Y414650D01*
Y416250D02*X16387Y417050D01*
X15000Y416250D02*X13613Y417050D01*
X135000Y418500D02*X136500Y415500D01*
X138000Y418500D01*
X136500Y415500D02*Y412500D01*
X139800Y415800D02*X142050D01*
X139800Y412500D02*X142800D01*
X139800Y418500D02*Y412500D01*
Y418500D02*X142800D01*
X147600D02*X148350Y417750D01*
X145350Y418500D02*X147600D01*
X144600Y417750D02*X145350Y418500D01*
X144600Y417750D02*Y416250D01*
X145350Y415500D01*
X147600D01*
X148350Y414750D01*
Y413250D01*
X147600Y412500D02*X148350Y413250D01*
X145350Y412500D02*X147600D01*
X144600Y413250D02*X145350Y412500D01*
X98000Y417750D02*X98750Y418500D01*
X101000D01*
X101750Y417750D01*
Y416250D01*
X98000Y412500D02*X101750Y416250D01*
X98000Y412500D02*X101750D01*
X103550Y418500D02*X106550D01*
X103550D02*Y415500D01*
X104300Y416250D01*
X105800D01*
X106550Y415500D01*
Y413250D01*
X105800Y412500D02*X106550Y413250D01*
X104300Y412500D02*X105800D01*
X103550Y413250D02*X104300Y412500D01*
X45000Y413250D02*X45750Y412500D01*
X45000Y417750D02*Y413250D01*
Y417750D02*X45750Y418500D01*
X47250D01*
X48000Y417750D01*
Y413250D01*
X47250Y412500D02*X48000Y413250D01*
X45750Y412500D02*X47250D01*
X45000Y414000D02*X48000Y417000D01*
X49800Y412500D02*X50550D01*
X52350Y413250D02*X53100Y412500D01*
X52350Y417750D02*Y413250D01*
Y417750D02*X53100Y418500D01*
X54600D01*
X55350Y417750D01*
Y413250D01*
X54600Y412500D02*X55350Y413250D01*
X53100Y412500D02*X54600D01*
X52350Y414000D02*X55350Y417000D01*
X57150Y417300D02*X58350Y418500D01*
Y412500D01*
X57150D02*X59400D01*
X61200Y417750D02*X61950Y418500D01*
X63450D01*
X64200Y417750D01*
X63450Y412500D02*X64200Y413250D01*
X61950Y412500D02*X63450D01*
X61200Y413250D02*X61950Y412500D01*
Y415800D02*X63450D01*
X64200Y417750D02*Y416550D01*
Y415050D02*Y413250D01*
Y415050D02*X63450Y415800D01*
X64200Y416550D02*X63450Y415800D01*
X3000Y433500D02*X3750Y432750D01*
X750Y433500D02*X3000D01*
X0Y432750D02*X750Y433500D01*
X0Y432750D02*Y431250D01*
X750Y430500D01*
X3000D01*
X3750Y429750D01*
Y428250D01*
X3000Y427500D02*X3750Y428250D01*
X750Y427500D02*X3000D01*
X0Y428250D02*X750Y427500D01*
X5550Y430500D02*Y428250D01*
X6300Y427500D01*
X8550Y430500D02*Y426000D01*
X7800Y425250D02*X8550Y426000D01*
X6300Y425250D02*X7800D01*
X5550Y426000D02*X6300Y425250D01*
Y427500D02*X7800D01*
X8550Y428250D01*
X11100Y429750D02*Y427500D01*
Y429750D02*X11850Y430500D01*
X12600D01*
X13350Y429750D01*
Y427500D01*
Y429750D02*X14100Y430500D01*
X14850D01*
X15600Y429750D01*
Y427500D01*
X10350Y430500D02*X11100Y429750D01*
X17400Y433500D02*Y427500D01*
Y428250D02*X18150Y427500D01*
X19650D01*
X20400Y428250D01*
Y429750D02*Y428250D01*
X19650Y430500D02*X20400Y429750D01*
X18150Y430500D02*X19650D01*
X17400Y429750D02*X18150Y430500D01*
X22200Y429750D02*Y428250D01*
Y429750D02*X22950Y430500D01*
X24450D01*
X25200Y429750D01*
Y428250D01*
X24450Y427500D02*X25200Y428250D01*
X22950Y427500D02*X24450D01*
X22200Y428250D02*X22950Y427500D01*
X27000Y433500D02*Y428250D01*
X27750Y427500D01*
X0Y424250D02*X29250D01*
X41750Y433500D02*Y427500D01*
X43700Y433500D02*X44750Y432450D01*
Y428550D01*
X43700Y427500D02*X44750Y428550D01*
X41000Y427500D02*X43700D01*
X41000Y433500D02*X43700D01*
G54D112*X46550Y432000D02*Y431850D01*
G54D111*Y429750D02*Y427500D01*
X50300Y430500D02*X51050Y429750D01*
X48800Y430500D02*X50300D01*
X48050Y429750D02*X48800Y430500D01*
X48050Y429750D02*Y428250D01*
X48800Y427500D01*
X51050Y430500D02*Y428250D01*
X51800Y427500D01*
X48800D02*X50300D01*
X51050Y428250D01*
X54350Y429750D02*Y427500D01*
Y429750D02*X55100Y430500D01*
X55850D01*
X56600Y429750D01*
Y427500D01*
Y429750D02*X57350Y430500D01*
X58100D01*
X58850Y429750D01*
Y427500D01*
X53600Y430500D02*X54350Y429750D01*
X60650Y427500D02*X61400D01*
X65900Y428250D02*X66650Y427500D01*
X65900Y432750D02*X66650Y433500D01*
X65900Y432750D02*Y428250D01*
X68450Y433500D02*X69950D01*
X69200D02*Y427500D01*
X68450D02*X69950D01*
X72500Y429750D02*Y427500D01*
Y429750D02*X73250Y430500D01*
X74000D01*
X74750Y429750D01*
Y427500D01*
X71750Y430500D02*X72500Y429750D01*
X77300Y430500D02*X79550D01*
X76550Y429750D02*X77300Y430500D01*
X76550Y429750D02*Y428250D01*
X77300Y427500D01*
X79550D01*
X81350Y433500D02*Y427500D01*
Y429750D02*X82100Y430500D01*
X83600D01*
X84350Y429750D01*
Y427500D01*
X86150Y433500D02*X86900Y432750D01*
Y428250D01*
X86150Y427500D02*X86900Y428250D01*
X41000Y424250D02*X88700D01*
X96050Y427500D02*X98000D01*
X95000Y428550D02*X96050Y427500D01*
X95000Y432450D02*Y428550D01*
Y432450D02*X96050Y433500D01*
X98000D01*
X99800Y429750D02*Y428250D01*
Y429750D02*X100550Y430500D01*
X102050D01*
X102800Y429750D01*
Y428250D01*
X102050Y427500D02*X102800Y428250D01*
X100550Y427500D02*X102050D01*
X99800Y428250D02*X100550Y427500D01*
X104600Y430500D02*Y428250D01*
X105350Y427500D01*
X106850D01*
X107600Y428250D01*
Y430500D02*Y428250D01*
X110150Y429750D02*Y427500D01*
Y429750D02*X110900Y430500D01*
X111650D01*
X112400Y429750D01*
Y427500D01*
X109400Y430500D02*X110150Y429750D01*
X114950Y433500D02*Y428250D01*
X115700Y427500D01*
X114200Y431250D02*X115700D01*
X95000Y424250D02*X117200D01*
X130750Y433500D02*Y427500D01*
X130000Y433500D02*X133000D01*
X133750Y432750D01*
Y431250D01*
X133000Y430500D02*X133750Y431250D01*
X130750Y430500D02*X133000D01*
X135550Y433500D02*Y428250D01*
X136300Y427500D01*
X140050Y430500D02*X140800Y429750D01*
X138550Y430500D02*X140050D01*
X137800Y429750D02*X138550Y430500D01*
X137800Y429750D02*Y428250D01*
X138550Y427500D01*
X140800Y430500D02*Y428250D01*
X141550Y427500D01*
X138550D02*X140050D01*
X140800Y428250D01*
X144100Y433500D02*Y428250D01*
X144850Y427500D01*
X143350Y431250D02*X144850D01*
X147100Y427500D02*X149350D01*
X146350Y428250D02*X147100Y427500D01*
X146350Y429750D02*Y428250D01*
Y429750D02*X147100Y430500D01*
X148600D01*
X149350Y429750D01*
X146350Y429000D02*X149350D01*
Y429750D02*Y429000D01*
X154150Y433500D02*Y427500D01*
X153400D02*X154150Y428250D01*
X151900Y427500D02*X153400D01*
X151150Y428250D02*X151900Y427500D01*
X151150Y429750D02*Y428250D01*
Y429750D02*X151900Y430500D01*
X153400D01*
X154150Y429750D01*
X157450Y430500D02*Y429750D01*
Y428250D02*Y427500D01*
X155950Y432750D02*Y432000D01*
Y432750D02*X156700Y433500D01*
X158200D01*
X158950Y432750D01*
Y432000D01*
X157450Y430500D02*X158950Y432000D01*
X130000Y424250D02*X160750D01*
X0Y448500D02*X3000D01*
X1500D02*Y442500D01*
X4800Y448500D02*Y442500D01*
Y444750D02*X5550Y445500D01*
X7050D01*
X7800Y444750D01*
Y442500D01*
X10350D02*X12600D01*
X9600Y443250D02*X10350Y442500D01*
X9600Y444750D02*Y443250D01*
Y444750D02*X10350Y445500D01*
X11850D01*
X12600Y444750D01*
X9600Y444000D02*X12600D01*
Y444750D02*Y444000D01*
X15150Y444750D02*Y442500D01*
Y444750D02*X15900Y445500D01*
X17400D01*
X14400D02*X15150Y444750D01*
X19950Y442500D02*X22200D01*
X19200Y443250D02*X19950Y442500D01*
X19200Y444750D02*Y443250D01*
Y444750D02*X19950Y445500D01*
X21450D01*
X22200Y444750D01*
X19200Y444000D02*X22200D01*
Y444750D02*Y444000D01*
X28950Y445500D02*X29700Y444750D01*
X27450Y445500D02*X28950D01*
X26700Y444750D02*X27450Y445500D01*
X26700Y444750D02*Y443250D01*
X27450Y442500D01*
X29700Y445500D02*Y443250D01*
X30450Y442500D01*
X27450D02*X28950D01*
X29700Y443250D01*
X33000Y444750D02*Y442500D01*
Y444750D02*X33750Y445500D01*
X35250D01*
X32250D02*X33000Y444750D01*
X37800Y442500D02*X40050D01*
X37050Y443250D02*X37800Y442500D01*
X37050Y444750D02*Y443250D01*
Y444750D02*X37800Y445500D01*
X39300D01*
X40050Y444750D01*
X37050Y444000D02*X40050D01*
Y444750D02*Y444000D01*
X44550Y443250D02*X45300Y442500D01*
X44550Y444450D02*Y443250D01*
Y444450D02*X45600Y445500D01*
X46500D01*
X47550Y444450D01*
Y443250D01*
X46800Y442500D02*X47550Y443250D01*
X45300Y442500D02*X46800D01*
X44550Y446550D02*X45600Y445500D01*
X44550Y447750D02*Y446550D01*
Y447750D02*X45300Y448500D01*
X46800D01*
X47550Y447750D01*
Y446550D01*
X46500Y445500D02*X47550Y446550D01*
X55050Y448500D02*Y442500D01*
X54300D02*X55050Y443250D01*
X52800Y442500D02*X54300D01*
X52050Y443250D02*X52800Y442500D01*
X52050Y444750D02*Y443250D01*
Y444750D02*X52800Y445500D01*
X54300D01*
X55050Y444750D01*
G54D112*X56850Y447000D02*Y446850D01*
G54D111*Y444750D02*Y442500D01*
X59100Y447750D02*Y442500D01*
Y447750D02*X59850Y448500D01*
X60600D01*
X58350Y445500D02*X59850D01*
X62850Y447750D02*Y442500D01*
Y447750D02*X63600Y448500D01*
X64350D01*
X62100Y445500D02*X63600D01*
X66600Y442500D02*X68850D01*
X65850Y443250D02*X66600Y442500D01*
X65850Y444750D02*Y443250D01*
Y444750D02*X66600Y445500D01*
X68100D01*
X68850Y444750D01*
X65850Y444000D02*X68850D01*
Y444750D02*Y444000D01*
X71400Y444750D02*Y442500D01*
Y444750D02*X72150Y445500D01*
X73650D01*
X70650D02*X71400Y444750D01*
X76200Y442500D02*X78450D01*
X75450Y443250D02*X76200Y442500D01*
X75450Y444750D02*Y443250D01*
Y444750D02*X76200Y445500D01*
X77700D01*
X78450Y444750D01*
X75450Y444000D02*X78450D01*
Y444750D02*Y444000D01*
X81000Y444750D02*Y442500D01*
Y444750D02*X81750Y445500D01*
X82500D01*
X83250Y444750D01*
Y442500D01*
X80250Y445500D02*X81000Y444750D01*
X85800Y448500D02*Y443250D01*
X86550Y442500D01*
X85050Y446250D02*X86550D01*
X93750Y448500D02*Y442500D01*
X93000D02*X93750Y443250D01*
X91500Y442500D02*X93000D01*
X90750Y443250D02*X91500Y442500D01*
X90750Y444750D02*Y443250D01*
Y444750D02*X91500Y445500D01*
X93000D01*
X93750Y444750D01*
X96300D02*Y442500D01*
Y444750D02*X97050Y445500D01*
X98550D01*
X95550D02*X96300Y444750D01*
G54D112*X100350Y447000D02*Y446850D01*
G54D111*Y444750D02*Y442500D01*
X101850Y448500D02*Y443250D01*
X102600Y442500D01*
X104100Y448500D02*Y443250D01*
X104850Y442500D01*
X109800D02*X112050D01*
X112800Y443250D01*
X112050Y444000D02*X112800Y443250D01*
X109800Y444000D02*X112050D01*
X109050Y444750D02*X109800Y444000D01*
X109050Y444750D02*X109800Y445500D01*
X112050D01*
X112800Y444750D01*
X109050Y443250D02*X109800Y442500D01*
G54D112*X114600Y447000D02*Y446850D01*
G54D111*Y444750D02*Y442500D01*
X116100Y445500D02*X119100D01*
X116100Y442500D02*X119100Y445500D01*
X116100Y442500D02*X119100D01*
X121650D02*X123900D01*
X120900Y443250D02*X121650Y442500D01*
X120900Y444750D02*Y443250D01*
Y444750D02*X121650Y445500D01*
X123150D01*
X123900Y444750D01*
X120900Y444000D02*X123900D01*
Y444750D02*Y444000D01*
X126450Y442500D02*X128700D01*
X129450Y443250D01*
X128700Y444000D02*X129450Y443250D01*
X126450Y444000D02*X128700D01*
X125700Y444750D02*X126450Y444000D01*
X125700Y444750D02*X126450Y445500D01*
X128700D01*
X129450Y444750D01*
X125700Y443250D02*X126450Y442500D01*
X133950Y445500D02*Y443250D01*
X134700Y442500D01*
X136200D01*
X136950Y443250D01*
Y445500D02*Y443250D01*
X139500Y442500D02*X141750D01*
X142500Y443250D01*
X141750Y444000D02*X142500Y443250D01*
X139500Y444000D02*X141750D01*
X138750Y444750D02*X139500Y444000D01*
X138750Y444750D02*X139500Y445500D01*
X141750D01*
X142500Y444750D01*
X138750Y443250D02*X139500Y442500D01*
X145050D02*X147300D01*
X144300Y443250D02*X145050Y442500D01*
X144300Y444750D02*Y443250D01*
Y444750D02*X145050Y445500D01*
X146550D01*
X147300Y444750D01*
X144300Y444000D02*X147300D01*
Y444750D02*Y444000D01*
X152100Y448500D02*Y442500D01*
X151350D02*X152100Y443250D01*
X149850Y442500D02*X151350D01*
X149100Y443250D02*X149850Y442500D01*
X149100Y444750D02*Y443250D01*
Y444750D02*X149850Y445500D01*
X151350D01*
X152100Y444750D01*
G54D112*X156600Y447000D02*Y446850D01*
G54D111*Y444750D02*Y442500D01*
X158850Y444750D02*Y442500D01*
Y444750D02*X159600Y445500D01*
X160350D01*
X161100Y444750D01*
Y442500D01*
X158100Y445500D02*X158850Y444750D01*
X166350Y448500D02*Y443250D01*
X167100Y442500D01*
X165600Y446250D02*X167100D01*
X168600Y448500D02*Y442500D01*
Y444750D02*X169350Y445500D01*
X170850D01*
X171600Y444750D01*
Y442500D01*
G54D112*X173400Y447000D02*Y446850D01*
G54D111*Y444750D02*Y442500D01*
X175650D02*X177900D01*
X178650Y443250D01*
X177900Y444000D02*X178650Y443250D01*
X175650Y444000D02*X177900D01*
X174900Y444750D02*X175650Y444000D01*
X174900Y444750D02*X175650Y445500D01*
X177900D01*
X178650Y444750D01*
X174900Y443250D02*X175650Y442500D01*
X183150Y448500D02*Y443250D01*
X183900Y442500D01*
X187650Y445500D02*X188400Y444750D01*
X186150Y445500D02*X187650D01*
X185400Y444750D02*X186150Y445500D01*
X185400Y444750D02*Y443250D01*
X186150Y442500D01*
X188400Y445500D02*Y443250D01*
X189150Y442500D01*
X186150D02*X187650D01*
X188400Y443250D01*
X190950Y445500D02*Y443250D01*
X191700Y442500D01*
X193950Y445500D02*Y441000D01*
X193200Y440250D02*X193950Y441000D01*
X191700Y440250D02*X193200D01*
X190950Y441000D02*X191700Y440250D01*
Y442500D02*X193200D01*
X193950Y443250D01*
X195750Y444750D02*Y443250D01*
Y444750D02*X196500Y445500D01*
X198000D01*
X198750Y444750D01*
Y443250D01*
X198000Y442500D02*X198750Y443250D01*
X196500Y442500D02*X198000D01*
X195750Y443250D02*X196500Y442500D01*
X200550Y445500D02*Y443250D01*
X201300Y442500D01*
X202800D01*
X203550Y443250D01*
Y445500D02*Y443250D01*
X206100Y448500D02*Y443250D01*
X206850Y442500D01*
X205350Y446250D02*X206850D01*
X208350Y441000D02*X209850Y442500D01*
X214350Y447750D02*X215100Y448500D01*
X217350D01*
X218100Y447750D01*
Y446250D01*
X214350Y442500D02*X218100Y446250D01*
X214350Y442500D02*X218100D01*
X219900Y443250D02*X220650Y442500D01*
X219900Y447750D02*Y443250D01*
Y447750D02*X220650Y448500D01*
X222150D01*
X222900Y447750D01*
Y443250D01*
X222150Y442500D02*X222900Y443250D01*
X220650Y442500D02*X222150D01*
X219900Y444000D02*X222900Y447000D01*
X224700Y443250D02*X225450Y442500D01*
X224700Y447750D02*Y443250D01*
Y447750D02*X225450Y448500D01*
X226950D01*
X227700Y447750D01*
Y443250D01*
X226950Y442500D02*X227700Y443250D01*
X225450Y442500D02*X226950D01*
X224700Y444000D02*X227700Y447000D01*
X232200Y448500D02*Y442500D01*
Y444750D02*X232950Y445500D01*
X234450D01*
X235200Y444750D01*
Y442500D01*
X237000Y444750D02*Y443250D01*
Y444750D02*X237750Y445500D01*
X239250D01*
X240000Y444750D01*
Y443250D01*
X239250Y442500D02*X240000Y443250D01*
X237750Y442500D02*X239250D01*
X237000Y443250D02*X237750Y442500D01*
X241800Y448500D02*Y443250D01*
X242550Y442500D01*
X244800D02*X247050D01*
X244050Y443250D02*X244800Y442500D01*
X244050Y444750D02*Y443250D01*
Y444750D02*X244800Y445500D01*
X246300D01*
X247050Y444750D01*
X244050Y444000D02*X247050D01*
Y444750D02*Y444000D01*
X249600Y442500D02*X251850D01*
X252600Y443250D01*
X251850Y444000D02*X252600Y443250D01*
X249600Y444000D02*X251850D01*
X248850Y444750D02*X249600Y444000D01*
X248850Y444750D02*X249600Y445500D01*
X251850D01*
X252600Y444750D01*
X248850Y443250D02*X249600Y442500D01*
X257850Y448500D02*Y443250D01*
X258600Y442500D01*
X257100Y446250D02*X258600D01*
X260100Y444750D02*Y443250D01*
Y444750D02*X260850Y445500D01*
X262350D01*
X263100Y444750D01*
Y443250D01*
X262350Y442500D02*X263100Y443250D01*
X260850Y442500D02*X262350D01*
X260100Y443250D02*X260850Y442500D01*
X265650Y448500D02*Y443250D01*
X266400Y442500D01*
X264900Y446250D02*X266400D01*
X270150Y445500D02*X270900Y444750D01*
X268650Y445500D02*X270150D01*
X267900Y444750D02*X268650Y445500D01*
X267900Y444750D02*Y443250D01*
X268650Y442500D01*
X270900Y445500D02*Y443250D01*
X271650Y442500D01*
X268650D02*X270150D01*
X270900Y443250D01*
X273450Y448500D02*Y443250D01*
X274200Y442500D01*
G54D113*X3500Y297031D02*Y8031D01*
X72000D01*
Y100031D02*Y297031D01*
X3500D02*X72000D01*
Y100031D02*X275000D01*
X361500Y8031D02*Y297031D01*
X275000D01*
Y100031D01*
X361500Y8031D02*X166000D01*
X72000D02*Y73031D01*
X166000D01*
Y8031D01*
G54D111*X113675Y-9500D02*X116675D01*
X117425Y-8750D01*
Y-6950D02*Y-8750D01*
X116675Y-6200D02*X117425Y-6950D01*
X114425Y-6200D02*X116675D01*
X114425Y-3500D02*Y-9500D01*
X113675Y-3500D02*X116675D01*
X117425Y-4250D01*
Y-5450D01*
X116675Y-6200D02*X117425Y-5450D01*
X119225Y-7250D02*Y-8750D01*
Y-7250D02*X119975Y-6500D01*
X121475D01*
X122225Y-7250D01*
Y-8750D01*
X121475Y-9500D02*X122225Y-8750D01*
X119975Y-9500D02*X121475D01*
X119225Y-8750D02*X119975Y-9500D01*
X126275Y-6500D02*X127025Y-7250D01*
X124775Y-6500D02*X126275D01*
X124025Y-7250D02*X124775Y-6500D01*
X124025Y-7250D02*Y-8750D01*
X124775Y-9500D01*
X127025Y-6500D02*Y-8750D01*
X127775Y-9500D01*
X124775D02*X126275D01*
X127025Y-8750D01*
X130325Y-7250D02*Y-9500D01*
Y-7250D02*X131075Y-6500D01*
X132575D01*
X129575D02*X130325Y-7250D01*
X137375Y-3500D02*Y-9500D01*
X136625D02*X137375Y-8750D01*
X135125Y-9500D02*X136625D01*
X134375Y-8750D02*X135125Y-9500D01*
X134375Y-7250D02*Y-8750D01*
Y-7250D02*X135125Y-6500D01*
X136625D01*
X137375Y-7250D01*
X141875D02*Y-8750D01*
Y-7250D02*X142625Y-6500D01*
X144125D01*
X144875Y-7250D01*
Y-8750D01*
X144125Y-9500D02*X144875Y-8750D01*
X142625Y-9500D02*X144125D01*
X141875Y-8750D02*X142625Y-9500D01*
X146675Y-6500D02*Y-8750D01*
X147425Y-9500D01*
X148925D01*
X149675Y-8750D01*
Y-6500D02*Y-8750D01*
X152225Y-3500D02*Y-8750D01*
X152975Y-9500D01*
X151475Y-5750D02*X152975D01*
X154475Y-3500D02*Y-8750D01*
X155225Y-9500D01*
G54D112*X156725Y-5000D02*Y-5150D01*
G54D111*Y-7250D02*Y-9500D01*
X158975Y-7250D02*Y-9500D01*
Y-7250D02*X159725Y-6500D01*
X160475D01*
X161225Y-7250D01*
Y-9500D01*
X158225Y-6500D02*X158975Y-7250D01*
X163775Y-9500D02*X166025D01*
X163025Y-8750D02*X163775Y-9500D01*
X163025Y-7250D02*Y-8750D01*
Y-7250D02*X163775Y-6500D01*
X165275D01*
X166025Y-7250D01*
X163025Y-8000D02*X166025D01*
Y-7250D02*Y-8000D01*
G54D112*X170525Y-5000D02*Y-5150D01*
G54D111*Y-7250D02*Y-9500D01*
X172775D02*X175025D01*
X175775Y-8750D01*
X175025Y-8000D02*X175775Y-8750D01*
X172775Y-8000D02*X175025D01*
X172025Y-7250D02*X172775Y-8000D01*
X172025Y-7250D02*X172775Y-6500D01*
X175025D01*
X175775Y-7250D01*
X172025Y-8750D02*X172775Y-9500D01*
X181025Y-3500D02*Y-8750D01*
X181775Y-9500D01*
X180275Y-5750D02*X181775D01*
X183275Y-3500D02*Y-9500D01*
Y-7250D02*X184025Y-6500D01*
X185525D01*
X186275Y-7250D01*
Y-9500D01*
X188825D02*X191075D01*
X188075Y-8750D02*X188825Y-9500D01*
X188075Y-7250D02*Y-8750D01*
Y-7250D02*X188825Y-6500D01*
X190325D01*
X191075Y-7250D01*
X188075Y-8000D02*X191075D01*
Y-7250D02*Y-8000D01*
X196325Y-6500D02*X198575D01*
X195575Y-7250D02*X196325Y-6500D01*
X195575Y-7250D02*Y-8750D01*
X196325Y-9500D01*
X198575D01*
X201125D02*X203375D01*
X200375Y-8750D02*X201125Y-9500D01*
X200375Y-7250D02*Y-8750D01*
Y-7250D02*X201125Y-6500D01*
X202625D01*
X203375Y-7250D01*
X200375Y-8000D02*X203375D01*
Y-7250D02*Y-8000D01*
X205925Y-7250D02*Y-9500D01*
Y-7250D02*X206675Y-6500D01*
X207425D01*
X208175Y-7250D01*
Y-9500D01*
X205175Y-6500D02*X205925Y-7250D01*
X210725Y-3500D02*Y-8750D01*
X211475Y-9500D01*
X209975Y-5750D02*X211475D01*
X213725Y-9500D02*X215975D01*
X212975Y-8750D02*X213725Y-9500D01*
X212975Y-7250D02*Y-8750D01*
Y-7250D02*X213725Y-6500D01*
X215225D01*
X215975Y-7250D01*
X212975Y-8000D02*X215975D01*
Y-7250D02*Y-8000D01*
X218525Y-7250D02*Y-9500D01*
Y-7250D02*X219275Y-6500D01*
X220775D01*
X217775D02*X218525Y-7250D01*
X222575Y-3500D02*Y-8750D01*
X223325Y-9500D01*
G54D112*X224825Y-5000D02*Y-5150D01*
G54D111*Y-7250D02*Y-9500D01*
X227075Y-7250D02*Y-9500D01*
Y-7250D02*X227825Y-6500D01*
X228575D01*
X229325Y-7250D01*
Y-9500D01*
X226325Y-6500D02*X227075Y-7250D01*
X231875Y-9500D02*X234125D01*
X231125Y-8750D02*X231875Y-9500D01*
X231125Y-7250D02*Y-8750D01*
Y-7250D02*X231875Y-6500D01*
X233375D01*
X234125Y-7250D01*
X231125Y-8000D02*X234125D01*
Y-7250D02*Y-8000D01*
X238625Y-7250D02*Y-8750D01*
Y-7250D02*X239375Y-6500D01*
X240875D01*
X241625Y-7250D01*
Y-8750D01*
X240875Y-9500D02*X241625Y-8750D01*
X239375Y-9500D02*X240875D01*
X238625Y-8750D02*X239375Y-9500D01*
X244175Y-4250D02*Y-9500D01*
Y-4250D02*X244925Y-3500D01*
X245675D01*
X243425Y-6500D02*X244925D01*
X250625Y-3500D02*Y-8750D01*
X251375Y-9500D01*
X249875Y-5750D02*X251375D01*
X252875Y-3500D02*Y-9500D01*
Y-7250D02*X253625Y-6500D01*
X255125D01*
X255875Y-7250D01*
Y-9500D01*
G54D112*X257675Y-5000D02*Y-5150D01*
G54D111*Y-7250D02*Y-9500D01*
X259925D02*X262175D01*
X262925Y-8750D01*
X262175Y-8000D02*X262925Y-8750D01*
X259925Y-8000D02*X262175D01*
X259175Y-7250D02*X259925Y-8000D01*
X259175Y-7250D02*X259925Y-6500D01*
X262175D01*
X262925Y-7250D01*
X259175Y-8750D02*X259925Y-9500D01*
X268175Y-7250D02*Y-11750D01*
X267425Y-6500D02*X268175Y-7250D01*
X268925Y-6500D01*
X270425D01*
X271175Y-7250D01*
Y-8750D01*
X270425Y-9500D02*X271175Y-8750D01*
X268925Y-9500D02*X270425D01*
X268175Y-8750D02*X268925Y-9500D01*
X275225Y-6500D02*X275975Y-7250D01*
X273725Y-6500D02*X275225D01*
X272975Y-7250D02*X273725Y-6500D01*
X272975Y-7250D02*Y-8750D01*
X273725Y-9500D01*
X275975Y-6500D02*Y-8750D01*
X276725Y-9500D01*
X273725D02*X275225D01*
X275975Y-8750D01*
X279275Y-3500D02*Y-8750D01*
X280025Y-9500D01*
X278525Y-5750D02*X280025D01*
X281525Y-3500D02*Y-9500D01*
Y-7250D02*X282275Y-6500D01*
X283775D01*
X284525Y-7250D01*
Y-9500D01*
X200750Y328500D02*Y322500D01*
X202700Y328500D02*X203750Y327450D01*
Y323550D01*
X202700Y322500D02*X203750Y323550D01*
X200000Y322500D02*X202700D01*
X200000Y328500D02*X202700D01*
X207800Y325500D02*X208550Y324750D01*
X206300Y325500D02*X207800D01*
X205550Y324750D02*X206300Y325500D01*
X205550Y324750D02*Y323250D01*
X206300Y322500D01*
X208550Y325500D02*Y323250D01*
X209300Y322500D01*
X206300D02*X207800D01*
X208550Y323250D01*
X211850Y328500D02*Y323250D01*
X212600Y322500D01*
X211100Y326250D02*X212600D01*
X214850Y322500D02*X217100D01*
X214100Y323250D02*X214850Y322500D01*
X214100Y324750D02*Y323250D01*
Y324750D02*X214850Y325500D01*
X216350D01*
X217100Y324750D01*
X214100Y324000D02*X217100D01*
Y324750D02*Y324000D01*
X218900Y326250D02*X219650D01*
X218900Y324750D02*X219650D01*
X227150Y328500D02*X227900Y327750D01*
X224900Y328500D02*X227150D01*
X224150Y327750D02*X224900Y328500D01*
X224150Y327750D02*Y326250D01*
X224900Y325500D01*
X227150D01*
X227900Y324750D01*
Y323250D01*
X227150Y322500D02*X227900Y323250D01*
X224900Y322500D02*X227150D01*
X224150Y323250D02*X224900Y322500D01*
X231950Y325500D02*X232700Y324750D01*
X230450Y325500D02*X231950D01*
X229700Y324750D02*X230450Y325500D01*
X229700Y324750D02*Y323250D01*
X230450Y322500D01*
X232700Y325500D02*Y323250D01*
X233450Y322500D01*
X230450D02*X231950D01*
X232700Y323250D01*
X236000Y328500D02*Y323250D01*
X236750Y322500D01*
X235250Y326250D02*X236750D01*
X240950Y327750D02*X241700Y328500D01*
X243950D01*
X244700Y327750D01*
Y326250D01*
X240950Y322500D02*X244700Y326250D01*
X240950Y322500D02*X244700D01*
X247250D02*X249500Y325500D01*
Y327750D02*Y325500D01*
X248750Y328500D02*X249500Y327750D01*
X247250Y328500D02*X248750D01*
X246500Y327750D02*X247250Y328500D01*
X246500Y327750D02*Y326250D01*
X247250Y325500D01*
X249500D01*
X254000Y327750D02*Y323250D01*
Y327750D02*X254750Y328500D01*
X256250D01*
X257000Y327750D01*
Y323250D01*
X256250Y322500D02*X257000Y323250D01*
X254750Y322500D02*X256250D01*
X254000Y323250D02*X254750Y322500D01*
X259550Y325500D02*X261800D01*
X258800Y324750D02*X259550Y325500D01*
X258800Y324750D02*Y323250D01*
X259550Y322500D01*
X261800D01*
X264350Y328500D02*Y323250D01*
X265100Y322500D01*
X263600Y326250D02*X265100D01*
X269300Y327750D02*X270050Y328500D01*
X272300D01*
X273050Y327750D01*
Y326250D01*
X269300Y322500D02*X273050Y326250D01*
X269300Y322500D02*X273050D01*
X274850Y323250D02*X275600Y322500D01*
X274850Y327750D02*Y323250D01*
Y327750D02*X275600Y328500D01*
X277100D01*
X277850Y327750D01*
Y323250D01*
X277100Y322500D02*X277850Y323250D01*
X275600Y322500D02*X277100D01*
X274850Y324000D02*X277850Y327000D01*
X279650Y327300D02*X280850Y328500D01*
Y322500D01*
X279650D02*X281900D01*
X285950Y328500D02*X286700Y327750D01*
X284450Y328500D02*X285950D01*
X283700Y327750D02*X284450Y328500D01*
X283700Y327750D02*Y323250D01*
X284450Y322500D01*
X285950Y325800D02*X286700Y325050D01*
X283700Y325800D02*X285950D01*
X284450Y322500D02*X285950D01*
X286700Y323250D01*
Y325050D02*Y323250D01*
X291200D02*X291950Y322500D01*
X291200Y327750D02*Y323250D01*
Y327750D02*X291950Y328500D01*
X293450D01*
X294200Y327750D01*
Y323250D01*
X293450Y322500D02*X294200Y323250D01*
X291950Y322500D02*X293450D01*
X291200Y324000D02*X294200Y327000D01*
X296000Y327300D02*X297200Y328500D01*
Y322500D01*
X296000D02*X298250D01*
X300050Y326250D02*X300800D01*
X300050Y324750D02*X300800D01*
X302600Y323250D02*X303350Y322500D01*
X302600Y327750D02*Y323250D01*
Y327750D02*X303350Y328500D01*
X304850D01*
X305600Y327750D01*
Y323250D01*
X304850Y322500D02*X305600Y323250D01*
X303350Y322500D02*X304850D01*
X302600Y324000D02*X305600Y327000D01*
X307400Y324750D02*X310400Y328500D01*
X307400Y324750D02*X311150D01*
X310400Y328500D02*Y322500D01*
X312950Y326250D02*X313700D01*
X312950Y324750D02*X313700D01*
X315500Y327750D02*X316250Y328500D01*
X317750D01*
X318500Y327750D01*
X317750Y322500D02*X318500Y323250D01*
X316250Y322500D02*X317750D01*
X315500Y323250D02*X316250Y322500D01*
Y325800D02*X317750D01*
X318500Y327750D02*Y326550D01*
Y325050D02*Y323250D01*
Y325050D02*X317750Y325800D01*
X318500Y326550D02*X317750Y325800D01*
X320300Y327750D02*X321050Y328500D01*
X322550D01*
X323300Y327750D01*
X322550Y322500D02*X323300Y323250D01*
X321050Y322500D02*X322550D01*
X320300Y323250D02*X321050Y322500D01*
Y325800D02*X322550D01*
X323300Y327750D02*Y326550D01*
Y325050D02*Y323250D01*
Y325050D02*X322550Y325800D01*
X323300Y326550D02*X322550Y325800D01*
X327800Y327000D02*Y322500D01*
Y327000D02*X328850Y328500D01*
X330500D01*
X331550Y327000D01*
Y322500D01*
X327800Y325500D02*X331550D01*
X333350Y328500D02*Y322500D01*
Y328500D02*X335600Y325500D01*
X337850Y328500D01*
Y322500D01*
X345350Y328500D02*X346100Y327750D01*
X343100Y328500D02*X345350D01*
X342350Y327750D02*X343100Y328500D01*
X342350Y327750D02*Y323250D01*
X343100Y322500D01*
X345350D01*
X346100Y323250D01*
Y324750D02*Y323250D01*
X345350Y325500D02*X346100Y324750D01*
X343850Y325500D02*X345350D01*
X347900Y328500D02*Y322500D01*
Y328500D02*X350150Y325500D01*
X352400Y328500D01*
Y322500D01*
X354200Y328500D02*X357200D01*
X355700D02*Y322500D01*
X361700Y328500D02*Y323250D01*
X362450Y322500D01*
X363950D01*
X364700Y323250D01*
Y328500D02*Y323250D01*
X366500Y328500D02*X369500D01*
X368000D02*Y322500D01*
X372350D02*X374300D01*
X371300Y323550D02*X372350Y322500D01*
X371300Y327450D02*Y323550D01*
Y327450D02*X372350Y328500D01*
X374300D01*
X200000Y342000D02*Y337500D01*
Y342000D02*X201050Y343500D01*
X202700D01*
X203750Y342000D01*
Y337500D01*
X200000Y340500D02*X203750D01*
X205550D02*Y338250D01*
X206300Y337500D01*
X207800D01*
X208550Y338250D01*
Y340500D02*Y338250D01*
X211100Y343500D02*Y338250D01*
X211850Y337500D01*
X210350Y341250D02*X211850D01*
X213350Y343500D02*Y337500D01*
Y339750D02*X214100Y340500D01*
X215600D01*
X216350Y339750D01*
Y337500D01*
X218150Y339750D02*Y338250D01*
Y339750D02*X218900Y340500D01*
X220400D01*
X221150Y339750D01*
Y338250D01*
X220400Y337500D02*X221150Y338250D01*
X218900Y337500D02*X220400D01*
X218150Y338250D02*X218900Y337500D01*
X223700Y339750D02*Y337500D01*
Y339750D02*X224450Y340500D01*
X225950D01*
X222950D02*X223700Y339750D01*
X227750Y341250D02*X228500D01*
X227750Y339750D02*X228500D01*
X200000Y358500D02*X203000D01*
X201500D02*Y352500D01*
G54D112*X204800Y357000D02*Y356850D01*
G54D111*Y354750D02*Y352500D01*
X207050Y358500D02*Y353250D01*
X207800Y352500D01*
X206300Y356250D02*X207800D01*
X209300Y358500D02*Y353250D01*
X210050Y352500D01*
X212300D02*X214550D01*
X211550Y353250D02*X212300Y352500D01*
X211550Y354750D02*Y353250D01*
Y354750D02*X212300Y355500D01*
X213800D01*
X214550Y354750D01*
X211550Y354000D02*X214550D01*
Y354750D02*Y354000D01*
X216350Y356250D02*X217100D01*
X216350Y354750D02*X217100D01*
X221600Y353250D02*X222350Y352500D01*
X221600Y357750D02*X222350Y358500D01*
X221600Y357750D02*Y353250D01*
X224150Y355500D02*Y353250D01*
X224900Y352500D01*
X226400D01*
X227150Y353250D01*
Y355500D02*Y353250D01*
X229700Y354750D02*Y352500D01*
Y354750D02*X230450Y355500D01*
X231200D01*
X231950Y354750D01*
Y352500D01*
X228950Y355500D02*X229700Y354750D01*
X233750Y358500D02*Y352500D01*
Y354750D02*X236000Y352500D01*
X233750Y354750D02*X235250Y356250D01*
X238550Y354750D02*Y352500D01*
Y354750D02*X239300Y355500D01*
X240050D01*
X240800Y354750D01*
Y352500D01*
X237800Y355500D02*X238550Y354750D01*
X242600D02*Y353250D01*
Y354750D02*X243350Y355500D01*
X244850D01*
X245600Y354750D01*
Y353250D01*
X244850Y352500D02*X245600Y353250D01*
X243350Y352500D02*X244850D01*
X242600Y353250D02*X243350Y352500D01*
X247400Y355500D02*Y353250D01*
X248150Y352500D01*
X248900D01*
X249650Y353250D01*
Y355500D02*Y353250D01*
X250400Y352500D01*
X251150D01*
X251900Y353250D01*
Y355500D02*Y353250D01*
X254450Y354750D02*Y352500D01*
Y354750D02*X255200Y355500D01*
X255950D01*
X256700Y354750D01*
Y352500D01*
X253700Y355500D02*X254450Y354750D01*
X258500Y358500D02*X259250Y357750D01*
Y353250D01*
X258500Y352500D02*X259250Y353250D01*
X263750Y355500D02*X266750D01*
X271250Y358500D02*Y352500D01*
Y358500D02*X274250D01*
X271250Y355800D02*X273500D01*
X278300Y355500D02*X279050Y354750D01*
X276800Y355500D02*X278300D01*
X276050Y354750D02*X276800Y355500D01*
X276050Y354750D02*Y353250D01*
X276800Y352500D01*
X279050Y355500D02*Y353250D01*
X279800Y352500D01*
X276800D02*X278300D01*
X279050Y353250D01*
X281600Y358500D02*Y352500D01*
Y353250D02*X282350Y352500D01*
X283850D01*
X284600Y353250D01*
Y354750D02*Y353250D01*
X283850Y355500D02*X284600Y354750D01*
X282350Y355500D02*X283850D01*
X281600Y354750D02*X282350Y355500D01*
X287150Y354750D02*Y352500D01*
Y354750D02*X287900Y355500D01*
X289400D01*
X286400D02*X287150Y354750D01*
G54D112*X291200Y357000D02*Y356850D01*
G54D111*Y354750D02*Y352500D01*
X293450Y355500D02*X295700D01*
X292700Y354750D02*X293450Y355500D01*
X292700Y354750D02*Y353250D01*
X293450Y352500D01*
X295700D01*
X299750Y355500D02*X300500Y354750D01*
X298250Y355500D02*X299750D01*
X297500Y354750D02*X298250Y355500D01*
X297500Y354750D02*Y353250D01*
X298250Y352500D01*
X300500Y355500D02*Y353250D01*
X301250Y352500D01*
X298250D02*X299750D01*
X300500Y353250D01*
X303800Y358500D02*Y353250D01*
X304550Y352500D01*
X303050Y356250D02*X304550D01*
G54D112*X306050Y357000D02*Y356850D01*
G54D111*Y354750D02*Y352500D01*
X307550Y354750D02*Y353250D01*
Y354750D02*X308300Y355500D01*
X309800D01*
X310550Y354750D01*
Y353250D01*
X309800Y352500D02*X310550Y353250D01*
X308300Y352500D02*X309800D01*
X307550Y353250D02*X308300Y352500D01*
X313100Y354750D02*Y352500D01*
Y354750D02*X313850Y355500D01*
X314600D01*
X315350Y354750D01*
Y352500D01*
X312350Y355500D02*X313100Y354750D01*
X320600Y358500D02*Y352500D01*
X322550Y358500D02*X323600Y357450D01*
Y353550D01*
X322550Y352500D02*X323600Y353550D01*
X319850Y352500D02*X322550D01*
X319850Y358500D02*X322550D01*
X326150Y354750D02*Y352500D01*
Y354750D02*X326900Y355500D01*
X328400D01*
X325400D02*X326150Y354750D01*
X332450Y355500D02*X333200Y354750D01*
X330950Y355500D02*X332450D01*
X330200Y354750D02*X330950Y355500D01*
X330200Y354750D02*Y353250D01*
X330950Y352500D01*
X333200Y355500D02*Y353250D01*
X333950Y352500D01*
X330950D02*X332450D01*
X333200Y353250D01*
X335750Y355500D02*Y353250D01*
X336500Y352500D01*
X337250D01*
X338000Y353250D01*
Y355500D02*Y353250D01*
X338750Y352500D01*
X339500D01*
X340250Y353250D01*
Y355500D02*Y353250D01*
G54D112*X342050Y357000D02*Y356850D01*
G54D111*Y354750D02*Y352500D01*
X344300Y354750D02*Y352500D01*
Y354750D02*X345050Y355500D01*
X345800D01*
X346550Y354750D01*
Y352500D01*
X343550Y355500D02*X344300Y354750D01*
X350600Y355500D02*X351350Y354750D01*
X349100Y355500D02*X350600D01*
X348350Y354750D02*X349100Y355500D01*
X348350Y354750D02*Y353250D01*
X349100Y352500D01*
X350600D01*
X351350Y353250D01*
X348350Y351000D02*X349100Y350250D01*
X350600D01*
X351350Y351000D01*
Y355500D02*Y351000D01*
M02*
