G04 start of page 12 for group -4079 idx -4079 *
G04 Title: (unknown), topsilk *
G04 Creator: pcb 4.2.0 *
G04 CreationDate: Sat Jun 20 18:17:33 2020 UTC *
G04 For: commonadmin *
G04 Format: Gerber/RS-274X *
G04 PCB-Dimensions (mil): 4000.00 3500.00 *
G04 PCB-Coordinate-Origin: lower left *
%MOIN*%
%FSLAX25Y25*%
%LNTOPSILK*%
%ADD143C,0.0038*%
%ADD142C,0.0050*%
%ADD141C,0.0040*%
%ADD140C,0.0030*%
%ADD139C,0.0060*%
%ADD138C,0.0100*%
G54D138*X90000Y100000D02*Y90000D01*
X82500Y107000D02*Y17500D01*
Y82500D02*X17500D01*
G54D139*X44858Y35673D02*X43283Y34098D01*
Y35673D02*X44858Y34098D01*
G54D138*X270000Y100000D02*Y90000D01*
X280000Y100000D02*Y90000D01*
X287500Y107500D02*Y17500D01*
Y82500D02*X181031D01*
X260000Y98469D02*Y104469D01*
X181031Y82500D02*X178500Y79969D01*
G54D139*X345142Y75843D02*X346717Y77417D01*
Y75843D02*X345142Y77417D01*
G54D138*X17000Y107000D02*X82500D01*
G54D140*X325774Y83504D02*Y82004D01*
Y82754D02*X328774D01*
X325774Y85904D02*Y84404D01*
X327274D01*
X326899Y84779D01*
Y85529D02*Y84779D01*
Y85529D02*X327274Y85904D01*
X328399D01*
X328774Y85529D02*X328399Y85904D01*
X328774Y85529D02*Y84779D01*
X328399Y84404D02*X328774Y84779D01*
X325774Y87929D02*X326149Y88304D01*
X325774Y87929D02*Y87179D01*
X326149Y86804D02*X325774Y87179D01*
X326149Y86804D02*X328399D01*
X328774Y87179D01*
X327124Y87929D02*X327499Y88304D01*
X327124Y87929D02*Y86804D01*
X328774Y87929D02*Y87179D01*
Y87929D02*X328399Y88304D01*
X327499D02*X328399D01*
Y89204D02*X328774Y89579D01*
X327799Y89204D02*X328399D01*
X327799D02*X327274Y89729D01*
Y90179D02*Y89729D01*
Y90179D02*X327799Y90704D01*
X328399D01*
X328774Y90329D02*X328399Y90704D01*
X328774Y90329D02*Y89579D01*
X326749Y89204D02*X327274Y89729D01*
X326149Y89204D02*X326749D01*
X326149D02*X325774Y89579D01*
Y90329D02*Y89579D01*
Y90329D02*X326149Y90704D01*
X326749D01*
X327274Y90179D02*X326749Y90704D01*
X326524Y91604D02*X328774D01*
X326524D02*X325774Y92129D01*
Y92954D02*Y92129D01*
Y92954D02*X326524Y93479D01*
X328774D01*
X327274D02*Y91604D01*
X325280Y74639D02*X325655Y75014D01*
X326780D01*
X327155Y74639D01*
Y73889D01*
X325280Y72014D02*X327155Y73889D01*
X325280Y72014D02*X327155D01*
X328055Y72389D02*X330305Y74639D01*
X332705Y75014D02*X333080Y74639D01*
X331580Y75014D02*X332705D01*
X331205Y74639D02*X331580Y75014D01*
X331205Y74639D02*Y72389D01*
X331580Y72014D01*
X332705D01*
X333080Y72389D01*
Y73139D02*Y72389D01*
X332705Y73514D02*X333080Y73139D01*
X331955Y73514D02*X332705D01*
X325280Y65481D02*X326780Y67356D01*
X325280Y65481D02*X327155D01*
X326780Y67356D02*Y64356D01*
X328055Y64731D02*X330305Y66981D01*
X331205Y64356D02*X332705D01*
X333080Y64731D01*
Y65631D02*Y64731D01*
X332705Y66006D02*X333080Y65631D01*
X331580Y66006D02*X332705D01*
X331580Y67356D02*Y64356D01*
X331205Y67356D02*X332705D01*
X333080Y66981D01*
Y66381D01*
X332705Y66006D02*X333080Y66381D01*
X333980Y67356D02*Y64731D01*
X334355Y64356D01*
X326798Y57199D02*X327173Y56824D01*
X326048Y57199D02*X326798D01*
X325673Y56824D02*X326048Y57199D01*
X325673Y56824D02*Y54574D01*
X326048Y54199D01*
X326798Y55849D02*X327173Y55474D01*
X325673Y55849D02*X326798D01*
X326048Y54199D02*X326798D01*
X327173Y54574D01*
Y55474D02*Y54574D01*
X328073D02*X330323Y56824D01*
X331223D02*Y54574D01*
Y56824D02*X331598Y57199D01*
X332348D01*
X332723Y56824D01*
Y54574D01*
X332348Y54199D02*X332723Y54574D01*
X331598Y54199D02*X332348D01*
X331223Y54574D02*X331598Y54199D01*
X325673Y47310D02*X326048Y46935D01*
X325673Y47910D02*Y47310D01*
Y47910D02*X326198Y48435D01*
X326648D01*
X327173Y47910D01*
Y47310D01*
X326798Y46935D02*X327173Y47310D01*
X326048Y46935D02*X326798D01*
X325673Y48960D02*X326198Y48435D01*
X325673Y49560D02*Y48960D01*
Y49560D02*X326048Y49935D01*
X326798D01*
X327173Y49560D01*
Y48960D01*
X326648Y48435D02*X327173Y48960D01*
X328073Y47310D02*X330323Y49560D01*
X331223Y46935D02*X332723D01*
X333098Y47310D01*
Y48210D02*Y47310D01*
X332723Y48585D02*X333098Y48210D01*
X331598Y48585D02*X332723D01*
X331598Y49935D02*Y46935D01*
X331223Y49935D02*X332723D01*
X333098Y49560D01*
Y48960D01*
X332723Y48585D02*X333098Y48960D01*
X334373Y48060D02*Y46935D01*
Y48060D02*X334748Y48435D01*
X335498D01*
X333998D02*X334373Y48060D01*
X350457Y77485D02*X351057Y78085D01*
Y75085D01*
X350457D02*X351582D01*
X352482Y75460D02*X354732Y77710D01*
X355632Y78085D02*Y76585D01*
X356007Y75085D01*
X356757Y76585D01*
X357507Y75085D01*
X357882Y76585D01*
Y78085D02*Y76585D01*
X360282Y78085D02*X360657Y77710D01*
X359157Y78085D02*X360282D01*
X358782Y77710D02*X359157Y78085D01*
X358782Y77710D02*Y75460D01*
X359157Y75085D01*
X360282D01*
X360657Y75460D01*
Y76210D02*Y75460D01*
X360282Y76585D02*X360657Y76210D01*
X359532Y76585D02*X360282D01*
X350516Y69757D02*X350891Y70132D01*
X351641D01*
X352016Y69757D01*
X351641Y67132D02*X352016Y67507D01*
X350891Y67132D02*X351641D01*
X350516Y67507D02*X350891Y67132D01*
Y68782D02*X351641D01*
X352016Y69757D02*Y69157D01*
Y68407D02*Y67507D01*
Y68407D02*X351641Y68782D01*
X352016Y69157D02*X351641Y68782D01*
X352916Y67507D02*X355166Y69757D01*
X356066Y70132D02*Y68632D01*
X356441Y67132D01*
X357191Y68632D01*
X357941Y67132D01*
X358316Y68632D01*
Y70132D02*Y68632D01*
X359216Y69757D02*Y67507D01*
Y69757D02*X359591Y70132D01*
X360341D01*
X360716Y69757D01*
Y67507D01*
X360341Y67132D02*X360716Y67507D01*
X359591Y67132D02*X360341D01*
X359216Y67507D02*X359591Y67132D01*
X350516Y62868D02*X352016D01*
X350516D02*Y61368D01*
X350891Y61743D01*
X351641D01*
X352016Y61368D01*
Y60243D01*
X351641Y59868D02*X352016Y60243D01*
X350891Y59868D02*X351641D01*
X350516Y60243D02*X350891Y59868D01*
X352916Y60243D02*X355166Y62493D01*
X356066Y62868D02*Y61368D01*
X356441Y59868D01*
X357191Y61368D01*
X357941Y59868D01*
X358316Y61368D01*
Y62868D02*Y61368D01*
X359216Y59868D02*X360716D01*
X361091Y60243D01*
Y61143D02*Y60243D01*
X360716Y61518D02*X361091Y61143D01*
X359591Y61518D02*X360716D01*
X359591Y62868D02*Y59868D01*
X359216Y62868D02*X360716D01*
X361091Y62493D01*
Y61893D01*
X360716Y61518D02*X361091Y61893D01*
X361991Y62868D02*Y60243D01*
X362366Y59868D01*
X350891Y51817D02*X352391Y54817D01*
X350516D02*X352391D01*
X353291Y52192D02*X355541Y54442D01*
X356441Y54817D02*Y53317D01*
X356816Y51817D01*
X357566Y53317D01*
X358316Y51817D01*
X358691Y53317D01*
Y54817D02*Y53317D01*
X359591Y51817D02*X361091D01*
X361466Y52192D01*
Y53092D02*Y52192D01*
X361091Y53467D02*X361466Y53092D01*
X359966Y53467D02*X361091D01*
X359966Y54817D02*Y51817D01*
X359591Y54817D02*X361091D01*
X361466Y54442D01*
Y53842D01*
X361091Y53467D02*X361466Y53842D01*
X362741Y52942D02*Y51817D01*
Y52942D02*X363116Y53317D01*
X363866D01*
X362366D02*X362741Y52942D01*
G54D141*X250000Y97469D02*X251000Y93469D01*
X252000Y97469D01*
X253700Y93469D02*X255200D01*
X253200Y93969D02*X253700Y93469D01*
X253200Y94969D02*Y93969D01*
Y94969D02*X253700Y95469D01*
X254700D01*
X255200Y94969D01*
X253200Y94469D02*X255200D01*
Y94969D02*Y94469D01*
X256400Y95469D02*X258400Y93469D01*
X256400D02*X258400Y95469D01*
X260100Y97469D02*Y93969D01*
X260600Y93469D01*
X259600Y95969D02*X260600D01*
X244500Y93469D02*Y90469D01*
Y93469D02*X245000Y93969D01*
X246000D01*
X246500Y93469D01*
Y90469D01*
X246000Y89969D02*X246500Y90469D01*
X245000Y89969D02*X246000D01*
X244500Y90469D02*X245000Y89969D01*
X247700Y93969D02*X249700D01*
X250200Y93469D01*
Y92469D01*
X249700Y91969D02*X250200Y92469D01*
X248200Y91969D02*X249700D01*
X248200Y93969D02*Y89969D01*
X249000Y91969D02*X250200Y89969D01*
X249000Y88969D02*X249500Y88469D01*
X247500Y88969D02*X249000D01*
X247000Y88469D02*X247500Y88969D01*
X247000Y88469D02*Y87469D01*
X247500Y86969D01*
X249000D01*
X249500Y86469D01*
Y85469D01*
X249000Y84969D02*X249500Y85469D01*
X247500Y84969D02*X249000D01*
X247000Y85469D02*X247500Y84969D01*
G54D142*X250700Y87969D02*Y87869D01*
G54D141*Y86469D02*Y84969D01*
X253200Y86969D02*X253700Y86469D01*
X252200Y86969D02*X253200D01*
X251700Y86469D02*X252200Y86969D01*
X251700Y86469D02*Y85469D01*
X252200Y84969D01*
X253200D01*
X253700Y85469D01*
X251700Y83969D02*X252200Y83469D01*
X253200D01*
X253700Y83969D01*
Y86969D02*Y83969D01*
X254900Y87969D02*Y84969D01*
Y87969D02*X255600Y88969D01*
X256700D01*
X257400Y87969D01*
Y84969D01*
X254900Y86969D02*X257400D01*
X258600Y88969D02*Y85469D01*
X259100Y84969D01*
X260600Y88969D02*Y85469D01*
X261100Y84969D01*
X260100Y87469D02*X261100D01*
G54D140*X39543Y34031D02*X38943Y33431D01*
Y36431D02*Y33431D01*
X38418Y36431D02*X39543D01*
X37518Y36056D02*X35268Y33806D01*
X34368Y34931D02*Y33431D01*
Y34931D02*X33993Y36431D01*
X33243Y34931D01*
X32493Y36431D01*
X32118Y34931D01*
Y33431D01*
X29718D02*X29343Y33806D01*
X29718Y33431D02*X30843D01*
X31218Y33806D02*X30843Y33431D01*
X31218Y36056D02*Y33806D01*
Y36056D02*X30843Y36431D01*
X29718D02*X30843D01*
X29718D02*X29343Y36056D01*
Y35306D01*
X29718Y34931D02*X29343Y35306D01*
X29718Y34931D02*X30468D01*
X39484Y41759D02*X39109Y41384D01*
X38359D02*X39109D01*
X38359D02*X37984Y41759D01*
X38359Y44384D02*X37984Y44009D01*
X38359Y44384D02*X39109D01*
X39484Y44009D02*X39109Y44384D01*
X38359Y42734D02*X39109D01*
X37984Y42359D02*Y41759D01*
Y44009D02*Y43109D01*
X38359Y42734D01*
X37984Y42359D02*X38359Y42734D01*
X37084Y44009D02*X34834Y41759D01*
X33934Y42884D02*Y41384D01*
Y42884D02*X33559Y44384D01*
X32809Y42884D01*
X32059Y44384D01*
X31684Y42884D01*
Y41384D01*
X30784Y44009D02*Y41759D01*
X30409Y41384D01*
X29659D02*X30409D01*
X29659D02*X29284Y41759D01*
Y44009D02*Y41759D01*
X29659Y44384D02*X29284Y44009D01*
X29659Y44384D02*X30409D01*
X30784Y44009D02*X30409Y44384D01*
X37984Y48648D02*X39484D01*
Y50148D02*Y48648D01*
Y50148D02*X39109Y49773D01*
X38359D02*X39109D01*
X38359D02*X37984Y50148D01*
Y51273D02*Y50148D01*
X38359Y51648D02*X37984Y51273D01*
X38359Y51648D02*X39109D01*
X39484Y51273D02*X39109Y51648D01*
X37084Y51273D02*X34834Y49023D01*
X33934Y50148D02*Y48648D01*
Y50148D02*X33559Y51648D01*
X32809Y50148D01*
X32059Y51648D01*
X31684Y50148D01*
Y48648D01*
X29284Y51648D02*X30784D01*
X29284D02*X28909Y51273D01*
Y50373D01*
X29284Y49998D02*X28909Y50373D01*
X29284Y49998D02*X30409D01*
Y51648D02*Y48648D01*
X29284D02*X30784D01*
X29284D02*X28909Y49023D01*
Y49623D02*Y49023D01*
X29284Y49998D02*X28909Y49623D01*
X28009Y51273D02*Y48648D01*
Y51273D02*X27634Y51648D01*
X64226Y29512D02*Y28012D01*
X61226Y28762D02*X64226D01*
Y27112D02*Y25612D01*
X62726Y27112D02*X64226D01*
X62726D02*X63101Y26737D01*
Y25987D01*
X62726Y25612D01*
X61601D02*X62726D01*
X61226Y25987D02*X61601Y25612D01*
X61226Y26737D02*Y25987D01*
X61601Y27112D02*X61226Y26737D01*
X64226Y23587D02*X63851Y23212D01*
X64226Y24337D02*Y23587D01*
X63851Y24712D02*X64226Y24337D01*
X61601Y24712D02*X63851D01*
X61601D02*X61226Y24337D01*
X62876Y23587D02*X62501Y23212D01*
X62876Y24712D02*Y23587D01*
X61226Y24337D02*Y23587D01*
X61601Y23212D01*
X62501D01*
X61601Y22312D02*X61226Y21937D01*
X61601Y22312D02*X62201D01*
X62726Y21787D01*
Y21337D01*
X62201Y20812D01*
X61601D02*X62201D01*
X61226Y21187D02*X61601Y20812D01*
X61226Y21937D02*Y21187D01*
X63251Y22312D02*X62726Y21787D01*
X63251Y22312D02*X63851D01*
X64226Y21937D01*
Y21187D01*
X63851Y20812D01*
X63251D02*X63851D01*
X62726Y21337D02*X63251Y20812D01*
X61226Y19912D02*X63476D01*
X64226Y19387D01*
Y18562D01*
X63476Y18037D01*
X61226D02*X63476D01*
X62726Y19912D02*Y18037D01*
X64720Y36877D02*X64345Y36502D01*
X63220D02*X64345D01*
X63220D02*X62845Y36877D01*
Y37627D02*Y36877D01*
X64720Y39502D02*X62845Y37627D01*
Y39502D02*X64720D01*
X61945Y39127D02*X59695Y36877D01*
X57295Y36502D02*X56920Y36877D01*
X57295Y36502D02*X58420D01*
X58795Y36877D02*X58420Y36502D01*
X58795Y39127D02*Y36877D01*
Y39127D02*X58420Y39502D01*
X57295D02*X58420D01*
X57295D02*X56920Y39127D01*
Y38377D01*
X57295Y38002D02*X56920Y38377D01*
X57295Y38002D02*X58045D01*
X64720Y46034D02*X63220Y44159D01*
X62845Y46034D02*X64720D01*
X63220Y47159D02*Y44159D01*
X61945Y46784D02*X59695Y44534D01*
X57295Y47159D02*X58795D01*
X57295D02*X56920Y46784D01*
Y45884D01*
X57295Y45509D02*X56920Y45884D01*
X57295Y45509D02*X58420D01*
Y47159D02*Y44159D01*
X57295D02*X58795D01*
X57295D02*X56920Y44534D01*
Y45134D02*Y44534D01*
X57295Y45509D02*X56920Y45134D01*
X56020Y46784D02*Y44159D01*
Y46784D02*X55645Y47159D01*
X63202Y54317D02*X62827Y54692D01*
X63202Y54317D02*X63952D01*
X64327Y54692D02*X63952Y54317D01*
X64327Y56942D02*Y54692D01*
Y56942D02*X63952Y57317D01*
X63202Y55667D02*X62827Y56042D01*
X63202Y55667D02*X64327D01*
X63202Y57317D02*X63952D01*
X63202D02*X62827Y56942D01*
Y56042D01*
X61927Y56942D02*X59677Y54692D01*
X58777Y56942D02*Y54692D01*
X58402Y54317D01*
X57652D02*X58402D01*
X57652D02*X57277Y54692D01*
Y56942D02*Y54692D01*
X57652Y57317D02*X57277Y56942D01*
X57652Y57317D02*X58402D01*
X58777Y56942D02*X58402Y57317D01*
X39109Y59699D02*X37609Y56699D01*
X39484D01*
X36709Y59324D02*X34459Y57074D01*
X33559Y58199D02*Y56699D01*
Y58199D02*X33184Y59699D01*
X32434Y58199D01*
X31684Y59699D01*
X31309Y58199D01*
Y56699D01*
X28909Y59699D02*X30409D01*
X28909D02*X28534Y59324D01*
Y58424D01*
X28909Y58049D02*X28534Y58424D01*
X28909Y58049D02*X30034D01*
Y59699D02*Y56699D01*
X28909D02*X30409D01*
X28909D02*X28534Y57074D01*
Y57674D02*Y57074D01*
X28909Y58049D02*X28534Y57674D01*
X27259Y59699D02*Y58574D01*
X26884Y58199D01*
X26134D02*X26884D01*
X27634D02*X27259Y58574D01*
X64327Y64206D02*X63952Y64581D01*
X64327Y64206D02*Y63606D01*
X63802Y63081D01*
X63352D02*X63802D01*
X63352D02*X62827Y63606D01*
Y64206D02*Y63606D01*
X63202Y64581D02*X62827Y64206D01*
X63202Y64581D02*X63952D01*
X64327Y62556D02*X63802Y63081D01*
X64327Y62556D02*Y61956D01*
X63952Y61581D01*
X63202D02*X63952D01*
X63202D02*X62827Y61956D01*
Y62556D02*Y61956D01*
X63352Y63081D02*X62827Y62556D01*
X61927Y64206D02*X59677Y61956D01*
X57277Y64581D02*X58777D01*
X57277D02*X56902Y64206D01*
Y63306D01*
X57277Y62931D02*X56902Y63306D01*
X57277Y62931D02*X58402D01*
Y64581D02*Y61581D01*
X57277D02*X58777D01*
X57277D02*X56902Y61956D01*
Y62556D02*Y61956D01*
X57277Y62931D02*X56902Y62556D01*
X55627Y64581D02*Y63456D01*
X55252Y63081D01*
X54502D02*X55252D01*
X56002D02*X55627Y63456D01*
G54D143*X119440Y87040D02*X119920Y86560D01*
X118480Y87040D02*X119440D01*
X118000Y86560D02*X118480Y87040D01*
X118000Y86560D02*Y83680D01*
X118480Y83200D01*
X119440Y85312D02*X119920Y84832D01*
X118000Y85312D02*X119440D01*
X118480Y83200D02*X119440D01*
X119920Y83680D01*
Y84832D02*Y83680D01*
X121072Y87040D02*Y83680D01*
X121552Y83200D01*
X117500Y90105D02*X119440Y92530D01*
X117500Y90105D02*X119925D01*
X119440Y92530D02*Y88650D01*
X121089Y92530D02*Y89135D01*
X121574Y88650D01*
X118000Y97560D02*X118480Y98040D01*
X119920D01*
X120400Y97560D01*
Y96600D01*
X118000Y94200D02*X120400Y96600D01*
X118000Y94200D02*X120400D01*
X121552Y98040D02*Y94680D01*
X122032Y94200D01*
G54D139*X320020Y39272D02*Y38484D01*
Y41437D02*Y40650D01*
X318839D02*X321201D01*
X319035Y39272D02*X321004D01*
X320020Y40256D02*X321004Y39272D01*
X319035D02*X320020Y40256D01*
X318961Y84567D02*X319945Y85551D01*
X320929Y84567D01*
X318961D02*X320929D01*
X318764Y85945D02*X321126D01*
X319945Y86732D02*Y85945D01*
Y84567D02*Y83780D01*
G54D138*X338957Y76476D02*X346043D01*
X338957Y48524D02*X346043D01*
G54D139*Y83957D02*Y40846D01*
X338957Y83957D02*Y40846D01*
X342500Y63287D02*Y61713D01*
X341713Y62500D02*X343287D01*
X370059Y30610D02*X372028D01*
Y32579D02*Y30610D01*
X370059Y94390D02*X372028D01*
Y92421D01*
X312972Y30610D02*X314941D01*
X312972Y32579D02*Y30610D01*
Y94390D02*X314941D01*
X312972D02*Y92421D01*
X347618Y79626D02*X348602Y80610D01*
Y79626D02*X347618Y80610D01*
G54D138*X202500Y80000D02*X282500D01*
X202500D02*Y70000D01*
X282500D01*
Y80000D02*Y70000D01*
X272500Y80000D02*Y70000D01*
X282500D01*
X193500Y85000D02*X243500D01*
Y105000D02*Y85000D01*
X193500Y105000D02*X243500D01*
X193500D02*Y85000D01*
X203500Y95000D02*Y85000D01*
X193500Y95000D02*X203500D01*
X262500Y105000D02*Y85000D01*
X282500D01*
Y105000D01*
X262500D01*
Y95000D02*X272500D01*
Y105000D01*
X202500Y30000D02*X282500D01*
X202500D02*Y20000D01*
X282500D01*
Y30000D02*Y20000D01*
X272500Y30000D02*Y20000D01*
X282500D01*
X292500Y30000D02*X372500D01*
X292500D02*Y20000D01*
X372500D01*
Y30000D02*Y20000D01*
X362500Y30000D02*Y20000D01*
X372500D01*
X292500Y105000D02*X372500D01*
X292500D02*Y95000D01*
X372500D01*
Y105000D02*Y95000D01*
X362500Y105000D02*Y95000D01*
X372500D01*
X183500Y80000D02*Y20000D01*
X193500D01*
Y80000D01*
X183500D01*
Y70000D02*X193500D01*
Y80000D01*
X124000Y85000D02*X174000D01*
Y105000D02*Y85000D01*
X124000Y105000D02*X174000D01*
X124000D02*Y85000D01*
X134000Y95000D02*Y85000D01*
X124000Y95000D02*X134000D01*
G54D139*X70024Y73039D02*Y72252D01*
Y70874D02*Y70087D01*
X68843Y70874D02*X71205D01*
X69039Y72252D02*X71008D01*
X70024Y71268D02*X69039Y72252D01*
X71008D02*X70024Y71268D01*
X71083Y26957D02*X70098Y25972D01*
X69114Y26957D01*
X71083D01*
X68917Y25579D02*X71280D01*
X70098D02*Y24791D01*
Y27744D02*Y26957D01*
G54D138*X44000Y35047D02*X51087D01*
X44000Y63000D02*X51087D01*
G54D139*X44000Y70677D02*Y27567D01*
X51087Y70677D02*Y27567D01*
X47543Y49811D02*Y48236D01*
X46756Y49024D02*X48331D01*
X18016Y80913D02*X19984D01*
X18016D02*Y78945D01*
Y17134D02*X19984D01*
X18016Y19102D02*Y17134D01*
X75102Y80913D02*X77071D01*
Y78945D01*
X75102Y17134D02*X77071D01*
Y19102D02*Y17134D01*
X42425Y31898D02*X41441Y30913D01*
Y31898D02*X42425Y30913D01*
G54D138*X20000Y95000D02*X80000D01*
Y105000D02*Y95000D01*
X20000Y105000D02*X80000D01*
X20000D02*Y95000D01*
X30000Y105000D02*Y95000D01*
X20000Y105000D02*X30000D01*
X85000D02*Y85000D01*
X105000D01*
Y105000D01*
X85000D01*
Y95000D02*X95000D01*
Y105000D01*
G54D141*X298000Y51500D02*X294000Y54000D01*
Y51500D02*X298000Y54000D01*
X294500Y55200D02*X294000Y55700D01*
Y57200D02*Y55700D01*
Y57200D02*X294500Y57700D01*
X295500D01*
X298000Y55200D02*X295500Y57700D01*
X298000D02*Y55200D01*
X297500Y58900D02*X294500Y61900D01*
X294000Y65100D02*X294500Y65600D01*
X294000Y65100D02*Y63600D01*
X294500Y63100D02*X294000Y63600D01*
X294500Y63100D02*X295500D01*
X296000Y63600D01*
Y65100D02*Y63600D01*
Y65100D02*X296500Y65600D01*
X297500D01*
X298000Y65100D02*X297500Y65600D01*
X298000Y65100D02*Y63600D01*
X297500Y63100D02*X298000Y63600D01*
X294000Y68800D02*Y66800D01*
Y67800D02*X298000D01*
X295800Y71500D02*Y70000D01*
X298000Y72000D02*Y70000D01*
X294000D02*X298000D01*
X294000Y72000D02*Y70000D01*
Y73700D02*X298000D01*
X294000Y75200D02*Y73200D01*
Y75200D02*X294500Y75700D01*
X295500D01*
X296000Y75200D02*X295500Y75700D01*
X296000Y75200D02*Y73700D01*
X268000Y68000D02*X265500Y64000D01*
X268000D02*X265500Y68000D01*
X264300Y64500D02*X263800Y64000D01*
X262300D02*X263800D01*
X262300D02*X261800Y64500D01*
Y65500D02*Y64500D01*
X264300Y68000D02*X261800Y65500D01*
Y68000D02*X264300D01*
X260600Y67500D02*X257600Y64500D01*
X255900Y68000D02*Y64000D01*
X254400D02*X256400D01*
X254400D02*X253900Y64500D01*
Y65500D02*Y64500D01*
X254400Y66000D02*X253900Y65500D01*
X254400Y66000D02*X255900D01*
X252700Y67500D02*Y64500D01*
X252200Y64000D01*
X251200D02*X252200D01*
X251200D02*X250700Y64500D01*
Y67500D02*Y64500D01*
X251200Y68000D02*X250700Y67500D01*
X251200Y68000D02*X252200D01*
X252700Y67500D02*X252200Y68000D01*
X249500D02*Y64000D01*
X247500Y68000D02*X249500D01*
X246300Y64800D02*X245500Y64000D01*
Y68000D02*Y64000D01*
X244800Y68000D02*X246300D01*
X316500Y87500D02*X314000Y83500D01*
X316500D02*X314000Y87500D01*
X312800Y84000D02*X312300Y83500D01*
X310800D02*X312300D01*
X310800D02*X310300Y84000D01*
Y85000D02*Y84000D01*
X312800Y87500D02*X310300Y85000D01*
Y87500D02*X312800D01*
X309100Y87000D02*X306100Y84000D01*
X304900Y87500D02*Y83500D01*
X303400Y85500D01*
X301900Y83500D01*
Y87500D02*Y83500D01*
X300700Y87000D02*Y84000D01*
X300200Y83500D01*
X299200D02*X300200D01*
X299200D02*X298700Y84000D01*
Y87000D02*Y84000D01*
X299200Y87500D02*X298700Y87000D01*
X299200Y87500D02*X300200D01*
X300700Y87000D02*X300200Y87500D01*
X297500Y83500D02*X296500Y87500D01*
X295500Y83500D01*
X268000Y35500D02*X265500Y31500D01*
X268000D02*X265500Y35500D01*
X264300Y32000D02*X263800Y31500D01*
X262300D02*X263800D01*
X262300D02*X261800Y32000D01*
Y33000D02*Y32000D01*
X264300Y35500D02*X261800Y33000D01*
Y35500D02*X264300D01*
X260600Y35000D02*X257600Y32000D01*
X255900Y35500D02*Y31500D01*
X254400D02*X256400D01*
X254400D02*X253900Y32000D01*
Y33000D02*Y32000D01*
X254400Y33500D02*X253900Y33000D01*
X254400Y33500D02*X255900D01*
X252700Y35000D02*Y32000D01*
X252200Y31500D01*
X251200D02*X252200D01*
X251200D02*X250700Y32000D01*
Y35000D02*Y32000D01*
X251200Y35500D02*X250700Y35000D01*
X251200Y35500D02*X252200D01*
X252700Y35000D02*X252200Y35500D01*
X249500D02*Y31500D01*
X247500Y35500D02*X249500D01*
X246300Y32000D02*X245800Y31500D01*
X244300D02*X245800D01*
X244300D02*X243800Y32000D01*
Y33000D02*Y32000D01*
X246300Y35500D02*X243800Y33000D01*
Y35500D02*X246300D01*
X311500D02*X309000Y31500D01*
X311500D02*X309000Y35500D01*
X307800Y32000D02*X307300Y31500D01*
X305800D02*X307300D01*
X305800D02*X305300Y32000D01*
Y33000D02*Y32000D01*
X307800Y35500D02*X305300Y33000D01*
Y35500D02*X307800D01*
X304100Y35000D02*X301100Y32000D01*
X298400Y33300D02*X299900D01*
X297900Y35500D02*X299900D01*
Y31500D01*
X297900D02*X299900D01*
X296700Y35500D02*X294200Y31500D01*
X296700D02*X294200Y35500D01*
X19543Y59524D02*X23543Y57024D01*
Y59524D02*X19543Y57024D01*
X22743Y55824D02*X23543Y55024D01*
X19543D02*X23543D01*
X19543Y55824D02*Y54324D01*
X20043Y53124D02*X23043Y50124D01*
X19543Y48924D02*X23543Y46424D01*
Y48924D02*X19543Y46424D01*
X22743Y45224D02*X23543Y44424D01*
X19543D02*X23543D01*
X19543Y45224D02*Y43724D01*
X20043Y42524D02*X23043Y39524D01*
X23543Y36324D02*X23043Y35824D01*
X23543Y37824D02*Y36324D01*
X23043Y38324D02*X23543Y37824D01*
X20043Y38324D02*X23043D01*
X20043D02*X19543Y37824D01*
Y36324D01*
X20043Y35824D01*
X21043D01*
X21543Y36324D02*X21043Y35824D01*
X21543Y37324D02*Y36324D01*
X21743Y34624D02*Y33124D01*
X19543Y34624D02*Y32624D01*
Y34624D02*X23543D01*
Y32624D01*
X19543Y31424D02*X23543D01*
X19543Y28924D01*
X23543D01*
M02*
