  0
SECTION
  2
HEADER
  9
$ACADVER
  1
AC1009
  9
$EXTMIN
 10
0.0
 20
0.0
 30
0.0
  9
$EXTMAX
 10
1000.0
 20
1000.0
 30
0.0
  9
$FILLMODE
 70
 0
  9
$SPLFRAME
 70
 1
  0
ENDSEC
  0
SECTION
  2
TABLES
  0
TABLE
  2
LAYER
 70
1
  0
LAYER
  2
0
 70
     0
 62
     7
  6
CONTINUOUS
  0
ENDTAB
  0
ENDSEC
  0
SECTION
  2
ENTITIES
  0
POLYLINE
  8
0
 62
     13
 66
     1
 10
0
 20
0
 30
0.0
 40
0.72
 41
0.72
  0
VERTEX
  8
0
 10
3.58501
 20
0.00509983
 30
0.0
 40
0.01
 41
0.01
  0
VERTEX
  8
0
 10
1.63004
 20
0.00509983
 30
0.0
 40
0.01
 41
0.01
  0
SEQEND
 8
0
  0
POLYLINE
  8
0
 62
     13
 66
     1
 10
0
 20
0
 30
0.0
 40
0.72
 41
0.72
  0
VERTEX
  8
0
 10
0.69005
 20
0.655111
 30
0.0
 40
0.01
 41
0.01
  0
VERTEX
  8
0
 10
1.63004
 20
0.655111
 30
0.0
 40
0.01
 41
0.01
  0
SEQEND
 8
0
  0
POLYLINE
  8
0
 62
     13
 66
     1
 10
0
 20
0
 30
0.0
 40
0.72
 41
0.72
  0
VERTEX
  8
0
 10
1.63004
 20
0.655111
 30
0.0
 40
0.01
 41
0.01
  0
VERTEX
  8
0
 10
1.63004
 20
0.00509983
 30
0.0
 40
0.01
 41
0.01
  0
SEQEND
 8
0
  0
POLYLINE
  8
0
 62
     13
 66
     1
 10
0
 20
0
 30
0.0
 40
0.72
 41
0.72
  0
VERTEX
  8
0
 10
0.00504557
 20
0.00509983
 30
0.0
 40
0.01
 41
0.01
  0
VERTEX
  8
0
 10
0.69005
 20
0.00509983
 30
0.0
 40
0.01
 41
0.01
  0
SEQEND
 8
0
  0
POLYLINE
  8
0
 62
     13
 66
     1
 10
0
 20
0
 30
0.0
 40
0.72
 41
0.72
  0
VERTEX
  8
0
 10
0.69005
 20
0.00509983
 30
0.0
 40
0.01
 41
0.01
  0
VERTEX
  8
0
 10
0.69005
 20
0.655111
 30
0.0
 40
0.01
 41
0.01
  0
SEQEND
 8
0
  0
POLYLINE
  8
0
 62
     13
 66
     1
 10
0
 20
0
 30
0.0
 40
0.72
 41
0.72
  0
VERTEX
  8
0
 10
0.00504557
 20
0.00509983
 30
0.0
 40
0.01
 41
0.01
  0
VERTEX
  8
0
 10
0.00504557
 20
0.924804
 30
0.0
 40
0.01
 41
0.01
  0
SEQEND
 8
0
  0
POLYLINE
  8
0
 62
     13
 66
     1
 10
0
 20
0
 30
0.0
 40
0.72
 41
0.72
  0
VERTEX
  8
0
 10
0.69005
 20
0.925131
 30
0.0
 40
0.01
 41
0.01
  0
VERTEX
  8
0
 10
0.0053711
 20
0.925131
 30
0.0
 40
0.01
 41
0.01
  0
SEQEND
 8
0
  0
POLYLINE
  8
0
 62
     13
 66
     1
 10
0
 20
0
 30
0.0
 40
0.72
 41
0.72
  0
VERTEX
  8
0
 10
0.0053711
 20
0.925131
 30
0.0
 40
0.01
 41
0.01
  0
VERTEX
  8
0
 10
0.00504557
 20
0.924804
 30
0.0
 40
0.01
 41
0.01
  0
SEQEND
 8
0
  0
POLYLINE
  8
0
 62
     13
 66
     1
 10
0
 20
0
 30
0.0
 40
0.72
 41
0.72
  0
VERTEX
  8
0
 10
3.58501
 20
0.00509983
 30
0.0
 40
0.01
 41
0.01
  0
VERTEX
  8
0
 10
3.58501
 20
0.924804
 30
0.0
 40
0.01
 41
0.01
  0
SEQEND
 8
0
  0
POLYLINE
  8
0
 62
     13
 66
     1
 10
0
 20
0
 30
0.0
 40
0.72
 41
0.72
  0
VERTEX
  8
0
 10
0.69005
 20
0.925131
 30
0.0
 40
0.01
 41
0.01
  0
VERTEX
  8
0
 10
3.58475
 20
0.925131
 30
0.0
 40
0.01
 41
0.01
  0
SEQEND
 8
0
  0
POLYLINE
  8
0
 62
     13
 66
     1
 10
0
 20
0
 30
0.0
 40
0.72
 41
0.72
  0
VERTEX
  8
0
 10
3.58475
 20
0.925131
 30
0.0
 40
0.01
 41
0.01
  0
VERTEX
  8
0
 10
3.58501
 20
0.924804
 30
0.0
 40
0.01
 41
0.01
  0
SEQEND
 8
0
  0
POLYLINE
  8
0
 62
     173
 66
     1
 10
0
 20
0
 30
0.0
 70
     1
 40
0
 41
0
  0
VERTEX
  8
0
 10
0.315539
 20
0.326118
 30
0.0
 40
0
 41
0
  0
VERTEX
  8
0
 10
0.315539
 20
0.327746
 30
0.0
 40
0
 41
0
  0
VERTEX
  8
0
 10
0.309028
 20
0.332628
 30
0.0
 40
0
 41
0
  0
VERTEX
  8
0
 10
0.302518
 20
0.327746
 30
0.0
 40
0
 41
0
  0
VERTEX
  8
0
 10
0.302518
 20
0.326118
 30
0.0
 40
0
 41
0
  0
VERTEX
  8
0
 10
0.302518
 20
0.32449
 30
0.0
 40
0
 41
0
  0
VERTEX
  8
0
 10
0.309028
 20
0.319607
 30
0.0
 40
0
 41
0
  0
VERTEX
  8
0
 10
0.315539
 20
0.32449
 30
0.0
 40
0
 41
0
  0
VERTEX
  8
0
 10
0.315539
 20
0.326118
 30
0.0
 40
0
 41
0
  0
SEQEND
 8
0
  0
POLYLINE
  8
0
 62
     173
 66
     1
 10
0
 20
0
 30
0.0
 70
     1
 40
0
 41
0
  0
VERTEX
  8
0
 10
0.386556
 20
0.180122
 30
0.0
 40
0
 41
0
  0
VERTEX
  8
0
 10
0.386556
 20
0.181749
 30
0.0
 40
0
 41
0
  0
VERTEX
  8
0
 10
0.380046
 20
0.186632
 30
0.0
 40
0
 41
0
  0
VERTEX
  8
0
 10
0.373535
 20
0.181749
 30
0.0
 40
0
 41
0
  0
VERTEX
  8
0
 10
0.373535
 20
0.180122
 30
0.0
 40
0
 41
0
  0
VERTEX
  8
0
 10
0.373535
 20
0.178494
 30
0.0
 40
0
 41
0
  0
VERTEX
  8
0
 10
0.380046
 20
0.173611
 30
0.0
 40
0
 41
0
  0
VERTEX
  8
0
 10
0.386556
 20
0.178494
 30
0.0
 40
0
 41
0
  0
VERTEX
  8
0
 10
0.386556
 20
0.180122
 30
0.0
 40
0
 41
0
  0
SEQEND
 8
0
  0
POLYLINE
  8
0
 62
     173
 66
     1
 10
0
 20
0
 30
0.0
 70
     1
 40
0
 41
0
  0
VERTEX
  8
0
 10
0.396539
 20
0.355089
 30
0.0
 40
0
 41
0
  0
VERTEX
  8
0
 10
0.396539
 20
0.356717
 30
0.0
 40
0
 41
0
  0
VERTEX
  8
0
 10
0.390028
 20
0.3616
 30
0.0
 40
0
 41
0
  0
VERTEX
  8
0
 10
0.383518
 20
0.356717
 30
0.0
 40
0
 41
0
  0
VERTEX
  8
0
 10
0.383518
 20
0.355089
 30
0.0
 40
0
 41
0
  0
VERTEX
  8
0
 10
0.383518
 20
0.353461
 30
0.0
 40
0
 41
0
  0
VERTEX
  8
0
 10
0.390028
 20
0.348579
 30
0.0
 40
0
 41
0
  0
VERTEX
  8
0
 10
0.396539
 20
0.353461
 30
0.0
 40
0
 41
0
  0
VERTEX
  8
0
 10
0.396539
 20
0.355089
 30
0.0
 40
0
 41
0
  0
SEQEND
 8
0
  0
POLYLINE
  8
0
 62
     173
 66
     1
 10
0
 20
0
 30
0.0
 70
     1
 40
0
 41
0
  0
VERTEX
  8
0
 10
0.401531
 20
0.300076
 30
0.0
 40
0
 41
0
  0
VERTEX
  8
0
 10
0.401531
 20
0.301704
 30
0.0
 40
0
 41
0
  0
VERTEX
  8
0
 10
0.395019
 20
0.306586
 30
0.0
 40
0
 41
0
  0
VERTEX
  8
0
 10
0.388564
 20
0.301704
 30
0.0
 40
0
 41
0
  0
VERTEX
  8
0
 10
0.388564
 20
0.300076
 30
0.0
 40
0
 41
0
  0
VERTEX
  8
0
 10
0.388564
 20
0.298503
 30
0.0
 40
0
 41
0
  0
VERTEX
  8
0
 10
0.395019
 20
0.293619
 30
0.0
 40
0
 41
0
  0
VERTEX
  8
0
 10
0.401531
 20
0.298503
 30
0.0
 40
0
 41
0
  0
VERTEX
  8
0
 10
0.401531
 20
0.300076
 30
0.0
 40
0
 41
0
  0
SEQEND
 8
0
  0
POLYLINE
  8
0
 62
     173
 66
     1
 10
0
 20
0
 30
0.0
 70
     1
 40
0
 41
0
  0
VERTEX
  8
0
 10
0.407553
 20
0.238118
 30
0.0
 40
0
 41
0
  0
VERTEX
  8
0
 10
0.407553
 20
0.239746
 30
0.0
 40
0
 41
0
  0
VERTEX
  8
0
 10
0.401042
 20
0.244629
 30
0.0
 40
0
 41
0
  0
VERTEX
  8
0
 10
0.394532
 20
0.239746
 30
0.0
 40
0
 41
0
  0
VERTEX
  8
0
 10
0.394532
 20
0.238118
 30
0.0
 40
0
 41
0
  0
VERTEX
  8
0
 10
0.394532
 20
0.23649
 30
0.0
 40
0
 41
0
  0
VERTEX
  8
0
 10
0.401042
 20
0.231608
 30
0.0
 40
0
 41
0
  0
VERTEX
  8
0
 10
0.407553
 20
0.23649
 30
0.0
 40
0
 41
0
  0
VERTEX
  8
0
 10
0.407553
 20
0.238118
 30
0.0
 40
0
 41
0
  0
SEQEND
 8
0
  0
POLYLINE
  8
0
 62
     173
 66
     1
 10
0
 20
0
 30
0.0
 70
     1
 40
0
 41
0
  0
VERTEX
  8
0
 10
0.408529
 20
0.410101
 30
0.0
 40
0
 41
0
  0
VERTEX
  8
0
 10
0.408529
 20
0.411729
 30
0.0
 40
0
 41
0
  0
VERTEX
  8
0
 10
0.402018
 20
0.416612
 30
0.0
 40
0
 41
0
  0
VERTEX
  8
0
 10
0.395562
 20
0.411729
 30
0.0
 40
0
 41
0
  0
VERTEX
  8
0
 10
0.395562
 20
0.410101
 30
0.0
 40
0
 41
0
  0
VERTEX
  8
0
 10
0.395562
 20
0.408475
 30
0.0
 40
0
 41
0
  0
VERTEX
  8
0
 10
0.402018
 20
0.403592
 30
0.0
 40
0
 41
0
  0
VERTEX
  8
0
 10
0.408529
 20
0.408475
 30
0.0
 40
0
 41
0
  0
VERTEX
  8
0
 10
0.408529
 20
0.410101
 30
0.0
 40
0
 41
0
  0
SEQEND
 8
0
  0
POLYLINE
  8
0
 62
     173
 66
     1
 10
0
 20
0
 30
0.0
 70
     1
 40
0
 41
0
  0
VERTEX
  8
0
 10
0.411567
 20
0.480089
 30
0.0
 40
0
 41
0
  0
VERTEX
  8
0
 10
0.411567
 20
0.481717
 30
0.0
 40
0
 41
0
  0
VERTEX
  8
0
 10
0.405057
 20
0.4866
 30
0.0
 40
0
 41
0
  0
VERTEX
  8
0
 10
0.398546
 20
0.481717
 30
0.0
 40
0
 41
0
  0
VERTEX
  8
0
 10
0.398546
 20
0.480089
 30
0.0
 40
0
 41
0
  0
VERTEX
  8
0
 10
0.398546
 20
0.478461
 30
0.0
 40
0
 41
0
  0
VERTEX
  8
0
 10
0.405057
 20
0.473579
 30
0.0
 40
0
 41
0
  0
VERTEX
  8
0
 10
0.411567
 20
0.478461
 30
0.0
 40
0
 41
0
  0
VERTEX
  8
0
 10
0.411567
 20
0.480089
 30
0.0
 40
0
 41
0
  0
SEQEND
 8
0
  0
POLYLINE
  8
0
 62
     173
 66
     1
 10
0
 20
0
 30
0.0
 70
     1
 40
0
 41
0
  0
VERTEX
  8
0
 10
0.471517
 20
0.470107
 30
0.0
 40
0
 41
0
  0
VERTEX
  8
0
 10
0.471517
 20
0.471733
 30
0.0
 40
0
 41
0
  0
VERTEX
  8
0
 10
0.465007
 20
0.476617
 30
0.0
 40
0
 41
0
  0
VERTEX
  8
0
 10
0.45855
 20
0.471733
 30
0.0
 40
0
 41
0
  0
VERTEX
  8
0
 10
0.45855
 20
0.470107
 30
0.0
 40
0
 41
0
  0
VERTEX
  8
0
 10
0.45855
 20
0.468479
 30
0.0
 40
0
 41
0
  0
VERTEX
  8
0
 10
0.465007
 20
0.463596
 30
0.0
 40
0
 41
0
  0
VERTEX
  8
0
 10
0.471517
 20
0.468479
 30
0.0
 40
0
 41
0
  0
VERTEX
  8
0
 10
0.471517
 20
0.470107
 30
0.0
 40
0
 41
0
  0
SEQEND
 8
0
  0
POLYLINE
  8
0
 62
     173
 66
     1
 10
0
 20
0
 30
0.0
 70
     1
 40
0
 41
0
  0
VERTEX
  8
0
 10
0.566515
 20
0.320096
 30
0.0
 40
0
 41
0
  0
VERTEX
  8
0
 10
0.566515
 20
0.321724
 30
0.0
 40
0
 41
0
  0
VERTEX
  8
0
 10
0.560004
 20
0.326606
 30
0.0
 40
0
 41
0
  0
VERTEX
  8
0
 10
0.553549
 20
0.321724
 30
0.0
 40
0
 41
0
  0
VERTEX
  8
0
 10
0.553549
 20
0.320096
 30
0.0
 40
0
 41
0
  0
VERTEX
  8
0
 10
0.553549
 20
0.318468
 30
0.0
 40
0
 41
0
  0
VERTEX
  8
0
 10
0.560004
 20
0.313585
 30
0.0
 40
0
 41
0
  0
VERTEX
  8
0
 10
0.566515
 20
0.318468
 30
0.0
 40
0
 41
0
  0
VERTEX
  8
0
 10
0.566515
 20
0.320096
 30
0.0
 40
0
 41
0
  0
SEQEND
 8
0
  0
POLYLINE
  8
0
 62
     173
 66
     1
 10
0
 20
0
 30
0.0
 70
     1
 40
0
 41
0
  0
VERTEX
  8
0
 10
1.63456
 20
0.727106
 30
0.0
 40
0
 41
0
  0
VERTEX
  8
0
 10
1.63456
 20
0.728733
 30
0.0
 40
0
 41
0
  0
VERTEX
  8
0
 10
1.62804
 20
0.733615
 30
0.0
 40
0
 41
0
  0
VERTEX
  8
0
 10
1.62153
 20
0.728733
 30
0.0
 40
0
 41
0
  0
VERTEX
  8
0
 10
1.62153
 20
0.727106
 30
0.0
 40
0
 41
0
  0
VERTEX
  8
0
 10
1.62153
 20
0.725478
 30
0.0
 40
0
 41
0
  0
VERTEX
  8
0
 10
1.62804
 20
0.720594
 30
0.0
 40
0
 41
0
  0
VERTEX
  8
0
 10
1.63456
 20
0.725478
 30
0.0
 40
0
 41
0
  0
VERTEX
  8
0
 10
1.63456
 20
0.727106
 30
0.0
 40
0
 41
0
  0
SEQEND
 8
0
  0
POLYLINE
  8
0
 62
     173
 66
     1
 10
0
 20
0
 30
0.0
 70
     1
 40
0
 41
0
  0
VERTEX
  8
0
 10
1.67356
 20
0.727106
 30
0.0
 40
0
 41
0
  0
VERTEX
  8
0
 10
1.67356
 20
0.728733
 30
0.0
 40
0
 41
0
  0
VERTEX
  8
0
 10
1.66704
 20
0.733615
 30
0.0
 40
0
 41
0
  0
VERTEX
  8
0
 10
1.66054
 20
0.728733
 30
0.0
 40
0
 41
0
  0
VERTEX
  8
0
 10
1.66054
 20
0.727106
 30
0.0
 40
0
 41
0
  0
VERTEX
  8
0
 10
1.66054
 20
0.725478
 30
0.0
 40
0
 41
0
  0
VERTEX
  8
0
 10
1.66704
 20
0.720594
 30
0.0
 40
0
 41
0
  0
VERTEX
  8
0
 10
1.67356
 20
0.725478
 30
0.0
 40
0
 41
0
  0
VERTEX
  8
0
 10
1.67356
 20
0.727106
 30
0.0
 40
0
 41
0
  0
SEQEND
 8
0
  0
POLYLINE
  8
0
 62
     173
 66
     1
 10
0
 20
0
 30
0.0
 70
     1
 40
0
 41
0
  0
VERTEX
  8
0
 10
1.72151
 20
0.727106
 30
0.0
 40
0
 41
0
  0
VERTEX
  8
0
 10
1.72151
 20
0.728733
 30
0.0
 40
0
 41
0
  0
VERTEX
  8
0
 10
1.715
 20
0.733615
 30
0.0
 40
0
 41
0
  0
VERTEX
  8
0
 10
1.70856
 20
0.728733
 30
0.0
 40
0
 41
0
  0
VERTEX
  8
0
 10
1.70856
 20
0.727106
 30
0.0
 40
0
 41
0
  0
VERTEX
  8
0
 10
1.70856
 20
0.725478
 30
0.0
 40
0
 41
0
  0
VERTEX
  8
0
 10
1.715
 20
0.720594
 30
0.0
 40
0
 41
0
  0
VERTEX
  8
0
 10
1.72151
 20
0.725478
 30
0.0
 40
0
 41
0
  0
VERTEX
  8
0
 10
1.72151
 20
0.727106
 30
0.0
 40
0
 41
0
  0
SEQEND
 8
0
  0
POLYLINE
  8
0
 62
     173
 66
     1
 10
0
 20
0
 30
0.0
 70
     1
 40
0
 41
0
  0
VERTEX
  8
0
 10
1.76053
 20
0.727106
 30
0.0
 40
0
 41
0
  0
VERTEX
  8
0
 10
1.76053
 20
0.728733
 30
0.0
 40
0
 41
0
  0
VERTEX
  8
0
 10
1.75401
 20
0.733615
 30
0.0
 40
0
 41
0
  0
VERTEX
  8
0
 10
1.74756
 20
0.728733
 30
0.0
 40
0
 41
0
  0
VERTEX
  8
0
 10
1.74756
 20
0.727106
 30
0.0
 40
0
 41
0
  0
VERTEX
  8
0
 10
1.74756
 20
0.725478
 30
0.0
 40
0
 41
0
  0
VERTEX
  8
0
 10
1.75401
 20
0.720594
 30
0.0
 40
0
 41
0
  0
VERTEX
  8
0
 10
1.76053
 20
0.725478
 30
0.0
 40
0
 41
0
  0
VERTEX
  8
0
 10
1.76053
 20
0.727106
 30
0.0
 40
0
 41
0
  0
SEQEND
 8
0
  0
POLYLINE
  8
0
 62
     173
 66
     1
 10
0
 20
0
 30
0.0
 70
     1
 40
0
 41
0
  0
VERTEX
  8
0
 10
1.86654
 20
0.665093
 30
0.0
 40
0
 41
0
  0
VERTEX
  8
0
 10
1.86654
 20
0.666721
 30
0.0
 40
0
 41
0
  0
VERTEX
  8
0
 10
1.86003
 20
0.671604
 30
0.0
 40
0
 41
0
  0
VERTEX
  8
0
 10
1.85351
 20
0.666721
 30
0.0
 40
0
 41
0
  0
VERTEX
  8
0
 10
1.85351
 20
0.665093
 30
0.0
 40
0
 41
0
  0
VERTEX
  8
0
 10
1.85351
 20
0.663465
 30
0.0
 40
0
 41
0
  0
VERTEX
  8
0
 10
1.86003
 20
0.658583
 30
0.0
 40
0
 41
0
  0
VERTEX
  8
0
 10
1.86654
 20
0.663465
 30
0.0
 40
0
 41
0
  0
VERTEX
  8
0
 10
1.86654
 20
0.665093
 30
0.0
 40
0
 41
0
  0
SEQEND
 8
0
  0
POLYLINE
  8
0
 62
     173
 66
     1
 10
0
 20
0
 30
0.0
 70
     1
 40
0
 41
0
  0
VERTEX
  8
0
 10
1.90653
 20
0.675076
 30
0.0
 40
0
 41
0
  0
VERTEX
  8
0
 10
1.90653
 20
0.676704
 30
0.0
 40
0
 41
0
  0
VERTEX
  8
0
 10
1.90001
 20
0.681586
 30
0.0
 40
0
 41
0
  0
VERTEX
  8
0
 10
1.89356
 20
0.676704
 30
0.0
 40
0
 41
0
  0
VERTEX
  8
0
 10
1.89356
 20
0.675076
 30
0.0
 40
0
 41
0
  0
VERTEX
  8
0
 10
1.89356
 20
0.673503
 30
0.0
 40
0
 41
0
  0
VERTEX
  8
0
 10
1.90001
 20
0.668619
 30
0.0
 40
0
 41
0
  0
VERTEX
  8
0
 10
1.90653
 20
0.673503
 30
0.0
 40
0
 41
0
  0
VERTEX
  8
0
 10
1.90653
 20
0.675076
 30
0.0
 40
0
 41
0
  0
SEQEND
 8
0
  0
POLYLINE
  8
0
 62
     173
 66
     1
 10
0
 20
0
 30
0.0
 70
     1
 40
0
 41
0
  0
VERTEX
  8
0
 10
2.01156
 20
0.655111
 30
0.0
 40
0
 41
0
  0
VERTEX
  8
0
 10
2.01156
 20
0.656739
 30
0.0
 40
0
 41
0
  0
VERTEX
  8
0
 10
2.00504
 20
0.661621
 30
0.0
 40
0
 41
0
  0
VERTEX
  8
0
 10
1.99854
 20
0.656739
 30
0.0
 40
0
 41
0
  0
VERTEX
  8
0
 10
1.99854
 20
0.655111
 30
0.0
 40
0
 41
0
  0
VERTEX
  8
0
 10
1.99854
 20
0.653483
 30
0.0
 40
0
 41
0
  0
VERTEX
  8
0
 10
2.00504
 20
0.6486
 30
0.0
 40
0
 41
0
  0
VERTEX
  8
0
 10
2.01156
 20
0.653483
 30
0.0
 40
0
 41
0
  0
VERTEX
  8
0
 10
2.01156
 20
0.655111
 30
0.0
 40
0
 41
0
  0
SEQEND
 8
0
  0
POLYLINE
  8
0
 62
     173
 66
     1
 10
0
 20
0
 30
0.0
 70
     1
 40
0
 41
0
  0
VERTEX
  8
0
 10
2.82656
 20
0.270074
 30
0.0
 40
0
 41
0
  0
VERTEX
  8
0
 10
2.82656
 20
0.271701
 30
0.0
 40
0
 41
0
  0
VERTEX
  8
0
 10
2.82004
 20
0.276585
 30
0.0
 40
0
 41
0
  0
VERTEX
  8
0
 10
2.81353
 20
0.271701
 30
0.0
 40
0
 41
0
  0
VERTEX
  8
0
 10
2.81353
 20
0.270074
 30
0.0
 40
0
 41
0
  0
VERTEX
  8
0
 10
2.81353
 20
0.2685
 30
0.0
 40
0
 41
0
  0
VERTEX
  8
0
 10
2.82004
 20
0.263618
 30
0.0
 40
0
 41
0
  0
VERTEX
  8
0
 10
2.82656
 20
0.2685
 30
0.0
 40
0
 41
0
  0
VERTEX
  8
0
 10
2.82656
 20
0.270074
 30
0.0
 40
0
 41
0
  0
SEQEND
 8
0
  0
POLYLINE
  8
0
 62
     173
 66
     1
 10
0
 20
0
 30
0.0
 70
     1
 40
0
 41
0
  0
VERTEX
  8
0
 10
2.86154
 20
0.280111
 30
0.0
 40
0
 41
0
  0
VERTEX
  8
0
 10
2.86154
 20
0.281739
 30
0.0
 40
0
 41
0
  0
VERTEX
  8
0
 10
2.85504
 20
0.286621
 30
0.0
 40
0
 41
0
  0
VERTEX
  8
0
 10
2.84853
 20
0.281739
 30
0.0
 40
0
 41
0
  0
VERTEX
  8
0
 10
2.84853
 20
0.280111
 30
0.0
 40
0
 41
0
  0
VERTEX
  8
0
 10
2.84853
 20
0.278483
 30
0.0
 40
0
 41
0
  0
VERTEX
  8
0
 10
2.85504
 20
0.2736
 30
0.0
 40
0
 41
0
  0
VERTEX
  8
0
 10
2.86154
 20
0.278483
 30
0.0
 40
0
 41
0
  0
VERTEX
  8
0
 10
2.86154
 20
0.280111
 30
0.0
 40
0
 41
0
  0
SEQEND
 8
0
  0
POLYLINE
  8
0
 62
     173
 66
     1
 10
0
 20
0
 30
0.0
 70
     1
 40
0
 41
0
  0
VERTEX
  8
0
 10
2.90653
 20
0.345107
 30
0.0
 40
0
 41
0
  0
VERTEX
  8
0
 10
2.90653
 20
0.346733
 30
0.0
 40
0
 41
0
  0
VERTEX
  8
0
 10
2.90001
 20
0.351617
 30
0.0
 40
0
 41
0
  0
VERTEX
  8
0
 10
2.89356
 20
0.346733
 30
0.0
 40
0
 41
0
  0
VERTEX
  8
0
 10
2.89356
 20
0.345107
 30
0.0
 40
0
 41
0
  0
VERTEX
  8
0
 10
2.89356
 20
0.343479
 30
0.0
 40
0
 41
0
  0
VERTEX
  8
0
 10
2.90001
 20
0.338596
 30
0.0
 40
0
 41
0
  0
VERTEX
  8
0
 10
2.90653
 20
0.343479
 30
0.0
 40
0
 41
0
  0
VERTEX
  8
0
 10
2.90653
 20
0.345107
 30
0.0
 40
0
 41
0
  0
SEQEND
 8
0
  0
POLYLINE
  8
0
 62
     173
 66
     1
 10
0
 20
0
 30
0.0
 70
     1
 40
0
 41
0
  0
VERTEX
  8
0
 10
2.93153
 20
0.3801
 30
0.0
 40
0
 41
0
  0
VERTEX
  8
0
 10
2.93153
 20
0.381728
 30
0.0
 40
0
 41
0
  0
VERTEX
  8
0
 10
2.92503
 20
0.38661
 30
0.0
 40
0
 41
0
  0
VERTEX
  8
0
 10
2.91857
 20
0.381728
 30
0.0
 40
0
 41
0
  0
VERTEX
  8
0
 10
2.91857
 20
0.3801
 30
0.0
 40
0
 41
0
  0
VERTEX
  8
0
 10
2.91857
 20
0.378472
 30
0.0
 40
0
 41
0
  0
VERTEX
  8
0
 10
2.92503
 20
0.373589
 30
0.0
 40
0
 41
0
  0
VERTEX
  8
0
 10
2.93153
 20
0.378472
 30
0.0
 40
0
 41
0
  0
VERTEX
  8
0
 10
2.93153
 20
0.3801
 30
0.0
 40
0
 41
0
  0
SEQEND
 8
0
  0
POLYLINE
  8
0
 62
     173
 66
     1
 10
0
 20
0
 30
0.0
 70
     1
 40
0
 41
0
  0
VERTEX
  8
0
 10
3.06153
 20
0.565104
 30
0.0
 40
0
 41
0
  0
VERTEX
  8
0
 10
3.06153
 20
0.566732
 30
0.0
 40
0
 41
0
  0
VERTEX
  8
0
 10
3.05501
 20
0.571615
 30
0.0
 40
0
 41
0
  0
VERTEX
  8
0
 10
3.04856
 20
0.566732
 30
0.0
 40
0
 41
0
  0
VERTEX
  8
0
 10
3.04856
 20
0.565104
 30
0.0
 40
0
 41
0
  0
VERTEX
  8
0
 10
3.04856
 20
0.563476
 30
0.0
 40
0
 41
0
  0
VERTEX
  8
0
 10
3.05501
 20
0.558594
 30
0.0
 40
0
 41
0
  0
VERTEX
  8
0
 10
3.06153
 20
0.563476
 30
0.0
 40
0
 41
0
  0
VERTEX
  8
0
 10
3.06153
 20
0.565104
 30
0.0
 40
0
 41
0
  0
SEQEND
 8
0
  0
POLYLINE
  8
0
 62
     173
 66
     1
 10
0
 20
0
 30
0.0
 70
     1
 40
0
 41
0
  0
VERTEX
  8
0
 10
3.15153
 20
0.410101
 30
0.0
 40
0
 41
0
  0
VERTEX
  8
0
 10
3.15153
 20
0.411729
 30
0.0
 40
0
 41
0
  0
VERTEX
  8
0
 10
3.14501
 20
0.416612
 30
0.0
 40
0
 41
0
  0
VERTEX
  8
0
 10
3.13857
 20
0.411729
 30
0.0
 40
0
 41
0
  0
VERTEX
  8
0
 10
3.13857
 20
0.410101
 30
0.0
 40
0
 41
0
  0
VERTEX
  8
0
 10
3.13857
 20
0.408475
 30
0.0
 40
0
 41
0
  0
VERTEX
  8
0
 10
3.14501
 20
0.403592
 30
0.0
 40
0
 41
0
  0
VERTEX
  8
0
 10
3.15153
 20
0.408475
 30
0.0
 40
0
 41
0
  0
VERTEX
  8
0
 10
3.15153
 20
0.410101
 30
0.0
 40
0
 41
0
  0
SEQEND
 8
0
  0
POLYLINE
  8
0
 62
     173
 66
     1
 10
0
 20
0
 30
0.0
 70
     1
 40
0
 41
0
  0
VERTEX
  8
0
 10
3.15153
 20
0.310113
 30
0.0
 40
0
 41
0
  0
VERTEX
  8
0
 10
3.15153
 20
0.31174
 30
0.0
 40
0
 41
0
  0
VERTEX
  8
0
 10
3.14501
 20
0.316624
 30
0.0
 40
0
 41
0
  0
VERTEX
  8
0
 10
3.13857
 20
0.31174
 30
0.0
 40
0
 41
0
  0
VERTEX
  8
0
 10
3.13857
 20
0.310113
 30
0.0
 40
0
 41
0
  0
VERTEX
  8
0
 10
3.13857
 20
0.308485
 30
0.0
 40
0
 41
0
  0
VERTEX
  8
0
 10
3.14501
 20
0.303603
 30
0.0
 40
0
 41
0
  0
VERTEX
  8
0
 10
3.15153
 20
0.308485
 30
0.0
 40
0
 41
0
  0
VERTEX
  8
0
 10
3.15153
 20
0.310113
 30
0.0
 40
0
 41
0
  0
SEQEND
 8
0
  0
POLYLINE
  8
0
 62
     173
 66
     1
 10
0
 20
0
 30
0.0
 70
     1
 40
0
 41
0
  0
VERTEX
  8
0
 10
3.40153
 20
0.610081
 30
0.0
 40
0
 41
0
  0
VERTEX
  8
0
 10
3.40153
 20
0.611708
 30
0.0
 40
0
 41
0
  0
VERTEX
  8
0
 10
3.39501
 20
0.61659
 30
0.0
 40
0
 41
0
  0
VERTEX
  8
0
 10
3.38857
 20
0.611708
 30
0.0
 40
0
 41
0
  0
VERTEX
  8
0
 10
3.38857
 20
0.610081
 30
0.0
 40
0
 41
0
  0
VERTEX
  8
0
 10
3.38857
 20
0.608507
 30
0.0
 40
0
 41
0
  0
VERTEX
  8
0
 10
3.39501
 20
0.603624
 30
0.0
 40
0
 41
0
  0
VERTEX
  8
0
 10
3.40153
 20
0.608507
 30
0.0
 40
0
 41
0
  0
VERTEX
  8
0
 10
3.40153
 20
0.610081
 30
0.0
 40
0
 41
0
  0
SEQEND
 8
0
  0
POLYLINE
  8
0
 62
     173
 66
     1
 10
0
 20
0
 30
0.0
 70
     1
 40
0
 41
0
  0
VERTEX
  8
0
 10
3.40153
 20
0.280111
 30
0.0
 40
0
 41
0
  0
VERTEX
  8
0
 10
3.40153
 20
0.281739
 30
0.0
 40
0
 41
0
  0
VERTEX
  8
0
 10
3.39501
 20
0.286621
 30
0.0
 40
0
 41
0
  0
VERTEX
  8
0
 10
3.38857
 20
0.281739
 30
0.0
 40
0
 41
0
  0
VERTEX
  8
0
 10
3.38857
 20
0.280111
 30
0.0
 40
0
 41
0
  0
VERTEX
  8
0
 10
3.38857
 20
0.278483
 30
0.0
 40
0
 41
0
  0
VERTEX
  8
0
 10
3.39501
 20
0.2736
 30
0.0
 40
0
 41
0
  0
VERTEX
  8
0
 10
3.40153
 20
0.278483
 30
0.0
 40
0
 41
0
  0
VERTEX
  8
0
 10
3.40153
 20
0.280111
 30
0.0
 40
0
 41
0
  0
SEQEND
 8
0
  0
POLYLINE
  8
0
 62
     173
 66
     1
 10
0
 20
0
 30
0.0
 70
     1
 40
0
 41
0
  0
VERTEX
  8
0
 10
0.120063
 20
0.720107
 30
0.0
 40
0
 41
0
  0
VERTEX
  8
0
 10
0.120063
 20
0.722657
 30
0.0
 40
0
 41
0
  0
VERTEX
  8
0
 10
0.110026
 20
0.730143
 30
0.0
 40
0
 41
0
  0
VERTEX
  8
0
 10
0.100043
 20
0.722657
 30
0.0
 40
0
 41
0
  0
VERTEX
  8
0
 10
0.100043
 20
0.720107
 30
0.0
 40
0
 41
0
  0
VERTEX
  8
0
 10
0.100043
 20
0.717611
 30
0.0
 40
0
 41
0
  0
VERTEX
  8
0
 10
0.110026
 20
0.710124
 30
0.0
 40
0
 41
0
  0
VERTEX
  8
0
 10
0.120063
 20
0.717611
 30
0.0
 40
0
 41
0
  0
VERTEX
  8
0
 10
0.120063
 20
0.720107
 30
0.0
 40
0
 41
0
  0
SEQEND
 8
0
  0
POLYLINE
  8
0
 62
     173
 66
     1
 10
0
 20
0
 30
0.0
 70
     1
 40
0
 41
0
  0
VERTEX
  8
0
 10
0.235026
 20
0.290093
 30
0.0
 40
0
 41
0
  0
VERTEX
  8
0
 10
0.235026
 20
0.292643
 30
0.0
 40
0
 41
0
  0
VERTEX
  8
0
 10
0.225043
 20
0.300131
 30
0.0
 40
0
 41
0
  0
VERTEX
  8
0
 10
0.215061
 20
0.292643
 30
0.0
 40
0
 41
0
  0
VERTEX
  8
0
 10
0.215061
 20
0.290093
 30
0.0
 40
0
 41
0
  0
VERTEX
  8
0
 10
0.215061
 20
0.287597
 30
0.0
 40
0
 41
0
  0
VERTEX
  8
0
 10
0.225043
 20
0.280111
 30
0.0
 40
0
 41
0
  0
VERTEX
  8
0
 10
0.235026
 20
0.287597
 30
0.0
 40
0
 41
0
  0
VERTEX
  8
0
 10
0.235026
 20
0.290093
 30
0.0
 40
0
 41
0
  0
SEQEND
 8
0
  0
POLYLINE
  8
0
 62
     173
 66
     1
 10
0
 20
0
 30
0.0
 70
     1
 40
0
 41
0
  0
VERTEX
  8
0
 10
0.44005
 20
0.6301
 30
0.0
 40
0
 41
0
  0
VERTEX
  8
0
 10
0.44005
 20
0.63265
 30
0.0
 40
0
 41
0
  0
VERTEX
  8
0
 10
0.430012
 20
0.640136
 30
0.0
 40
0
 41
0
  0
VERTEX
  8
0
 10
0.420031
 20
0.63265
 30
0.0
 40
0
 41
0
  0
VERTEX
  8
0
 10
0.420031
 20
0.6301
 30
0.0
 40
0
 41
0
  0
VERTEX
  8
0
 10
0.420031
 20
0.627604
 30
0.0
 40
0
 41
0
  0
VERTEX
  8
0
 10
0.430012
 20
0.620117
 30
0.0
 40
0
 41
0
  0
VERTEX
  8
0
 10
0.44005
 20
0.627604
 30
0.0
 40
0
 41
0
  0
VERTEX
  8
0
 10
0.44005
 20
0.6301
 30
0.0
 40
0
 41
0
  0
SEQEND
 8
0
  0
POLYLINE
  8
0
 62
     173
 66
     1
 10
0
 20
0
 30
0.0
 70
     1
 40
0
 41
0
  0
VERTEX
  8
0
 10
0.520019
 20
0.549317
 30
0.0
 40
0
 41
0
  0
VERTEX
  8
0
 10
0.520019
 20
0.551812
 30
0.0
 40
0
 41
0
  0
VERTEX
  8
0
 10
0.510037
 20
0.559299
 30
0.0
 40
0
 41
0
  0
VERTEX
  8
0
 10
0.500054
 20
0.551812
 30
0.0
 40
0
 41
0
  0
VERTEX
  8
0
 10
0.500054
 20
0.549317
 30
0.0
 40
0
 41
0
  0
VERTEX
  8
0
 10
0.500054
 20
0.546821
 30
0.0
 40
0
 41
0
  0
VERTEX
  8
0
 10
0.510037
 20
0.539333
 30
0.0
 40
0
 41
0
  0
VERTEX
  8
0
 10
0.520019
 20
0.546821
 30
0.0
 40
0
 41
0
  0
VERTEX
  8
0
 10
0.520019
 20
0.549317
 30
0.0
 40
0
 41
0
  0
SEQEND
 8
0
  0
POLYLINE
  8
0
 62
     173
 66
     1
 10
0
 20
0
 30
0.0
 70
     1
 40
0
 41
0
  0
VERTEX
  8
0
 10
0.601019
 20
0.571072
 30
0.0
 40
0
 41
0
  0
VERTEX
  8
0
 10
0.601019
 20
0.573622
 30
0.0
 40
0
 41
0
  0
VERTEX
  8
0
 10
0.591037
 20
0.581108
 30
0.0
 40
0
 41
0
  0
VERTEX
  8
0
 10
0.581054
 20
0.573622
 30
0.0
 40
0
 41
0
  0
VERTEX
  8
0
 10
0.581054
 20
0.571072
 30
0.0
 40
0
 41
0
  0
VERTEX
  8
0
 10
0.581054
 20
0.568631
 30
0.0
 40
0
 41
0
  0
VERTEX
  8
0
 10
0.591037
 20
0.561143
 30
0.0
 40
0
 41
0
  0
VERTEX
  8
0
 10
0.601019
 20
0.568631
 30
0.0
 40
0
 41
0
  0
VERTEX
  8
0
 10
0.601019
 20
0.571072
 30
0.0
 40
0
 41
0
  0
SEQEND
 8
0
  0
POLYLINE
  8
0
 62
     173
 66
     1
 10
0
 20
0
 30
0.0
 70
     1
 40
0
 41
0
  0
VERTEX
  8
0
 10
0.619032
 20
0.413086
 30
0.0
 40
0
 41
0
  0
VERTEX
  8
0
 10
0.619032
 20
0.415636
 30
0.0
 40
0
 41
0
  0
VERTEX
  8
0
 10
0.60905
 20
0.423122
 30
0.0
 40
0
 41
0
  0
VERTEX
  8
0
 10
0.599067
 20
0.415636
 30
0.0
 40
0
 41
0
  0
VERTEX
  8
0
 10
0.599067
 20
0.413086
 30
0.0
 40
0
 41
0
  0
VERTEX
  8
0
 10
0.599067
 20
0.41059
 30
0.0
 40
0
 41
0
  0
VERTEX
  8
0
 10
0.60905
 20
0.403103
 30
0.0
 40
0
 41
0
  0
VERTEX
  8
0
 10
0.619032
 20
0.41059
 30
0.0
 40
0
 41
0
  0
VERTEX
  8
0
 10
0.619032
 20
0.413086
 30
0.0
 40
0
 41
0
  0
SEQEND
 8
0
  0
POLYLINE
  8
0
 62
     173
 66
     1
 10
0
 20
0
 30
0.0
 70
     1
 40
0
 41
0
  0
VERTEX
  8
0
 10
1.81506
 20
0.20931
 30
0.0
 40
0
 41
0
  0
VERTEX
  8
0
 10
1.81506
 20
0.21186
 30
0.0
 40
0
 41
0
  0
VERTEX
  8
0
 10
1.80501
 20
0.219347
 30
0.0
 40
0
 41
0
  0
VERTEX
  8
0
 10
1.79503
 20
0.21186
 30
0.0
 40
0
 41
0
  0
VERTEX
  8
0
 10
1.79503
 20
0.20931
 30
0.0
 40
0
 41
0
  0
VERTEX
  8
0
 10
1.79503
 20
0.206814
 30
0.0
 40
0
 41
0
  0
VERTEX
  8
0
 10
1.80501
 20
0.199328
 30
0.0
 40
0
 41
0
  0
VERTEX
  8
0
 10
1.81506
 20
0.206814
 30
0.0
 40
0
 41
0
  0
VERTEX
  8
0
 10
1.81506
 20
0.20931
 30
0.0
 40
0
 41
0
  0
SEQEND
 8
0
  0
POLYLINE
  8
0
 62
     173
 66
     1
 10
0
 20
0
 30
0.0
 70
     1
 40
0
 41
0
  0
VERTEX
  8
0
 10
1.81506
 20
0.100098
 30
0.0
 40
0
 41
0
  0
VERTEX
  8
0
 10
1.81506
 20
0.102648
 30
0.0
 40
0
 41
0
  0
VERTEX
  8
0
 10
1.80501
 20
0.110135
 30
0.0
 40
0
 41
0
  0
VERTEX
  8
0
 10
1.79503
 20
0.102648
 30
0.0
 40
0
 41
0
  0
VERTEX
  8
0
 10
1.79503
 20
0.100098
 30
0.0
 40
0
 41
0
  0
VERTEX
  8
0
 10
1.79503
 20
0.0976019
 30
0.0
 40
0
 41
0
  0
VERTEX
  8
0
 10
1.80501
 20
0.090115
 30
0.0
 40
0
 41
0
  0
VERTEX
  8
0
 10
1.81506
 20
0.0976019
 30
0.0
 40
0
 41
0
  0
VERTEX
  8
0
 10
1.81506
 20
0.100098
 30
0.0
 40
0
 41
0
  0
SEQEND
 8
0
  0
POLYLINE
  8
0
 62
     173
 66
     1
 10
0
 20
0
 30
0.0
 70
     1
 40
0
 41
0
  0
VERTEX
  8
0
 10
1.97504
 20
0.555122
 30
0.0
 40
0
 41
0
  0
VERTEX
  8
0
 10
1.97504
 20
0.557617
 30
0.0
 40
0
 41
0
  0
VERTEX
  8
0
 10
1.965
 20
0.565104
 30
0.0
 40
0
 41
0
  0
VERTEX
  8
0
 10
1.95503
 20
0.557617
 30
0.0
 40
0
 41
0
  0
VERTEX
  8
0
 10
1.95503
 20
0.555122
 30
0.0
 40
0
 41
0
  0
VERTEX
  8
0
 10
1.95503
 20
0.552626
 30
0.0
 40
0
 41
0
  0
VERTEX
  8
0
 10
1.965
 20
0.545139
 30
0.0
 40
0
 41
0
  0
VERTEX
  8
0
 10
1.97504
 20
0.552626
 30
0.0
 40
0
 41
0
  0
VERTEX
  8
0
 10
1.97504
 20
0.555122
 30
0.0
 40
0
 41
0
  0
SEQEND
 8
0
  0
POLYLINE
  8
0
 62
     173
 66
     1
 10
0
 20
0
 30
0.0
 70
     1
 40
0
 41
0
  0
VERTEX
  8
0
 10
2.30501
 20
0.850097
 30
0.0
 40
0
 41
0
  0
VERTEX
  8
0
 10
2.30501
 20
0.852647
 30
0.0
 40
0
 41
0
  0
VERTEX
  8
0
 10
2.29503
 20
0.860135
 30
0.0
 40
0
 41
0
  0
VERTEX
  8
0
 10
2.28504
 20
0.852647
 30
0.0
 40
0
 41
0
  0
VERTEX
  8
0
 10
2.28504
 20
0.850097
 30
0.0
 40
0
 41
0
  0
VERTEX
  8
0
 10
2.28504
 20
0.847601
 30
0.0
 40
0
 41
0
  0
VERTEX
  8
0
 10
2.29503
 20
0.840115
 30
0.0
 40
0
 41
0
  0
VERTEX
  8
0
 10
2.30501
 20
0.847601
 30
0.0
 40
0
 41
0
  0
VERTEX
  8
0
 10
2.30501
 20
0.850097
 30
0.0
 40
0
 41
0
  0
SEQEND
 8
0
  0
POLYLINE
  8
0
 62
     173
 66
     1
 10
0
 20
0
 30
0.0
 70
     1
 40
0
 41
0
  0
VERTEX
  8
0
 10
2.36003
 20
0.850097
 30
0.0
 40
0
 41
0
  0
VERTEX
  8
0
 10
2.36003
 20
0.852647
 30
0.0
 40
0
 41
0
  0
VERTEX
  8
0
 10
2.35004
 20
0.860135
 30
0.0
 40
0
 41
0
  0
VERTEX
  8
0
 10
2.34006
 20
0.852647
 30
0.0
 40
0
 41
0
  0
VERTEX
  8
0
 10
2.34006
 20
0.850097
 30
0.0
 40
0
 41
0
  0
VERTEX
  8
0
 10
2.34006
 20
0.847601
 30
0.0
 40
0
 41
0
  0
VERTEX
  8
0
 10
2.35004
 20
0.840115
 30
0.0
 40
0
 41
0
  0
VERTEX
  8
0
 10
2.36003
 20
0.847601
 30
0.0
 40
0
 41
0
  0
VERTEX
  8
0
 10
2.36003
 20
0.850097
 30
0.0
 40
0
 41
0
  0
SEQEND
 8
0
  0
POLYLINE
  8
0
 62
     173
 66
     1
 10
0
 20
0
 30
0.0
 70
     1
 40
0
 41
0
  0
VERTEX
  8
0
 10
2.42003
 20
0.360081
 30
0.0
 40
0
 41
0
  0
VERTEX
  8
0
 10
2.42003
 20
0.362631
 30
0.0
 40
0
 41
0
  0
VERTEX
  8
0
 10
2.41004
 20
0.370117
 30
0.0
 40
0
 41
0
  0
VERTEX
  8
0
 10
2.40007
 20
0.362631
 30
0.0
 40
0
 41
0
  0
VERTEX
  8
0
 10
2.40007
 20
0.360081
 30
0.0
 40
0
 41
0
  0
VERTEX
  8
0
 10
2.40007
 20
0.357639
 30
0.0
 40
0
 41
0
  0
VERTEX
  8
0
 10
2.41004
 20
0.350151
 30
0.0
 40
0
 41
0
  0
VERTEX
  8
0
 10
2.42003
 20
0.357639
 30
0.0
 40
0
 41
0
  0
VERTEX
  8
0
 10
2.42003
 20
0.360081
 30
0.0
 40
0
 41
0
  0
SEQEND
 8
0
  0
POLYLINE
  8
0
 62
     173
 66
     1
 10
0
 20
0
 30
0.0
 70
     1
 40
0
 41
0
  0
VERTEX
  8
0
 10
2.60504
 20
0.490126
 30
0.0
 40
0
 41
0
  0
VERTEX
  8
0
 10
2.60504
 20
0.492622
 30
0.0
 40
0
 41
0
  0
VERTEX
  8
0
 10
2.595
 20
0.500108
 30
0.0
 40
0
 41
0
  0
VERTEX
  8
0
 10
2.58501
 20
0.492622
 30
0.0
 40
0
 41
0
  0
VERTEX
  8
0
 10
2.58501
 20
0.490126
 30
0.0
 40
0
 41
0
  0
VERTEX
  8
0
 10
2.58501
 20
0.487631
 30
0.0
 40
0
 41
0
  0
VERTEX
  8
0
 10
2.595
 20
0.480143
 30
0.0
 40
0
 41
0
  0
VERTEX
  8
0
 10
2.60504
 20
0.487631
 30
0.0
 40
0
 41
0
  0
VERTEX
  8
0
 10
2.60504
 20
0.490126
 30
0.0
 40
0
 41
0
  0
SEQEND
 8
0
  0
POLYLINE
  8
0
 62
     173
 66
     1
 10
0
 20
0
 30
0.0
 70
     1
 40
0
 41
0
  0
VERTEX
  8
0
 10
2.60504
 20
0.445096
 30
0.0
 40
0
 41
0
  0
VERTEX
  8
0
 10
2.60504
 20
0.447646
 30
0.0
 40
0
 41
0
  0
VERTEX
  8
0
 10
2.595
 20
0.455132
 30
0.0
 40
0
 41
0
  0
VERTEX
  8
0
 10
2.58501
 20
0.447646
 30
0.0
 40
0
 41
0
  0
VERTEX
  8
0
 10
2.58501
 20
0.445096
 30
0.0
 40
0
 41
0
  0
VERTEX
  8
0
 10
2.58501
 20
0.4426
 30
0.0
 40
0
 41
0
  0
VERTEX
  8
0
 10
2.595
 20
0.435113
 30
0.0
 40
0
 41
0
  0
VERTEX
  8
0
 10
2.60504
 20
0.4426
 30
0.0
 40
0
 41
0
  0
VERTEX
  8
0
 10
2.60504
 20
0.445096
 30
0.0
 40
0
 41
0
  0
SEQEND
 8
0
  0
POLYLINE
  8
0
 62
     173
 66
     1
 10
0
 20
0
 30
0.0
 70
     1
 40
0
 41
0
  0
VERTEX
  8
0
 10
2.62506
 20
0.315104
 30
0.0
 40
0
 41
0
  0
VERTEX
  8
0
 10
2.62506
 20
0.317654
 30
0.0
 40
0
 41
0
  0
VERTEX
  8
0
 10
2.61501
 20
0.325142
 30
0.0
 40
0
 41
0
  0
VERTEX
  8
0
 10
2.60504
 20
0.317654
 30
0.0
 40
0
 41
0
  0
VERTEX
  8
0
 10
2.60504
 20
0.315104
 30
0.0
 40
0
 41
0
  0
VERTEX
  8
0
 10
2.60504
 20
0.312608
 30
0.0
 40
0
 41
0
  0
VERTEX
  8
0
 10
2.61501
 20
0.305122
 30
0.0
 40
0
 41
0
  0
VERTEX
  8
0
 10
2.62506
 20
0.312608
 30
0.0
 40
0
 41
0
  0
VERTEX
  8
0
 10
2.62506
 20
0.315104
 30
0.0
 40
0
 41
0
  0
SEQEND
 8
0
  0
POLYLINE
  8
0
 62
     173
 66
     1
 10
0
 20
0
 30
0.0
 70
     1
 40
0
 41
0
  0
VERTEX
  8
0
 10
2.69504
 20
0.735081
 30
0.0
 40
0
 41
0
  0
VERTEX
  8
0
 10
2.69504
 20
0.737631
 30
0.0
 40
0
 41
0
  0
VERTEX
  8
0
 10
2.685
 20
0.745117
 30
0.0
 40
0
 41
0
  0
VERTEX
  8
0
 10
2.67503
 20
0.737631
 30
0.0
 40
0
 41
0
  0
VERTEX
  8
0
 10
2.67503
 20
0.735081
 30
0.0
 40
0
 41
0
  0
VERTEX
  8
0
 10
2.67503
 20
0.732639
 30
0.0
 40
0
 41
0
  0
VERTEX
  8
0
 10
2.685
 20
0.725151
 30
0.0
 40
0
 41
0
  0
VERTEX
  8
0
 10
2.69504
 20
0.732639
 30
0.0
 40
0
 41
0
  0
VERTEX
  8
0
 10
2.69504
 20
0.735081
 30
0.0
 40
0
 41
0
  0
SEQEND
 8
0
  0
POLYLINE
  8
0
 62
     173
 66
     1
 10
0
 20
0
 30
0.0
 70
     1
 40
0
 41
0
  0
VERTEX
  8
0
 10
2.70003
 20
0.050076
 30
0.0
 40
0
 41
0
  0
VERTEX
  8
0
 10
2.70003
 20
0.0526258
 30
0.0
 40
0
 41
0
  0
VERTEX
  8
0
 10
2.69
 20
0.0601129
 30
0.0
 40
0
 41
0
  0
VERTEX
  8
0
 10
2.68001
 20
0.0526258
 30
0.0
 40
0
 41
0
  0
VERTEX
  8
0
 10
2.68001
 20
0.050076
 30
0.0
 40
0
 41
0
  0
VERTEX
  8
0
 10
2.68001
 20
0.0476346
 30
0.0
 40
0
 41
0
  0
VERTEX
  8
0
 10
2.69
 20
0.0401476
 30
0.0
 40
0
 41
0
  0
VERTEX
  8
0
 10
2.70003
 20
0.0476346
 30
0.0
 40
0
 41
0
  0
VERTEX
  8
0
 10
2.70003
 20
0.050076
 30
0.0
 40
0
 41
0
  0
SEQEND
 8
0
  0
POLYLINE
  8
0
 62
     173
 66
     1
 10
0
 20
0
 30
0.0
 70
     1
 40
0
 41
0
  0
VERTEX
  8
0
 10
2.93506
 20
0.665093
 30
0.0
 40
0
 41
0
  0
VERTEX
  8
0
 10
2.93506
 20
0.667643
 30
0.0
 40
0
 41
0
  0
VERTEX
  8
0
 10
2.92503
 20
0.675131
 30
0.0
 40
0
 41
0
  0
VERTEX
  8
0
 10
2.91504
 20
0.667643
 30
0.0
 40
0
 41
0
  0
VERTEX
  8
0
 10
2.91504
 20
0.665093
 30
0.0
 40
0
 41
0
  0
VERTEX
  8
0
 10
2.91504
 20
0.662597
 30
0.0
 40
0
 41
0
  0
VERTEX
  8
0
 10
2.92503
 20
0.655111
 30
0.0
 40
0
 41
0
  0
VERTEX
  8
0
 10
2.93506
 20
0.662597
 30
0.0
 40
0
 41
0
  0
VERTEX
  8
0
 10
2.93506
 20
0.665093
 30
0.0
 40
0
 41
0
  0
SEQEND
 8
0
  0
POLYLINE
  8
0
 62
     173
 66
     1
 10
0
 20
0
 30
0.0
 70
     1
 40
0
 41
0
  0
VERTEX
  8
0
 10
2.93506
 20
0.595107
 30
0.0
 40
0
 41
0
  0
VERTEX
  8
0
 10
2.93506
 20
0.597657
 30
0.0
 40
0
 41
0
  0
VERTEX
  8
0
 10
2.92503
 20
0.605143
 30
0.0
 40
0
 41
0
  0
VERTEX
  8
0
 10
2.91504
 20
0.597657
 30
0.0
 40
0
 41
0
  0
VERTEX
  8
0
 10
2.91504
 20
0.595107
 30
0.0
 40
0
 41
0
  0
VERTEX
  8
0
 10
2.91504
 20
0.592611
 30
0.0
 40
0
 41
0
  0
VERTEX
  8
0
 10
2.92503
 20
0.585124
 30
0.0
 40
0
 41
0
  0
VERTEX
  8
0
 10
2.93506
 20
0.592611
 30
0.0
 40
0
 41
0
  0
VERTEX
  8
0
 10
2.93506
 20
0.595107
 30
0.0
 40
0
 41
0
  0
SEQEND
 8
0
  0
POLYLINE
  8
0
 62
     173
 66
     1
 10
0
 20
0
 30
0.0
 70
     1
 40
0
 41
0
  0
VERTEX
  8
0
 10
2.93506
 20
0.550076
 30
0.0
 40
0
 41
0
  0
VERTEX
  8
0
 10
2.93506
 20
0.552626
 30
0.0
 40
0
 41
0
  0
VERTEX
  8
0
 10
2.92503
 20
0.560112
 30
0.0
 40
0
 41
0
  0
VERTEX
  8
0
 10
2.91504
 20
0.552626
 30
0.0
 40
0
 41
0
  0
VERTEX
  8
0
 10
2.91504
 20
0.550076
 30
0.0
 40
0
 41
0
  0
VERTEX
  8
0
 10
2.91504
 20
0.547635
 30
0.0
 40
0
 41
0
  0
VERTEX
  8
0
 10
2.92503
 20
0.540147
 30
0.0
 40
0
 41
0
  0
VERTEX
  8
0
 10
2.93506
 20
0.547635
 30
0.0
 40
0
 41
0
  0
VERTEX
  8
0
 10
2.93506
 20
0.550076
 30
0.0
 40
0
 41
0
  0
SEQEND
 8
0
  0
POLYLINE
  8
0
 62
     173
 66
     1
 10
0
 20
0
 30
0.0
 70
     1
 40
0
 41
0
  0
VERTEX
  8
0
 10
2.93506
 20
0.475097
 30
0.0
 40
0
 41
0
  0
VERTEX
  8
0
 10
2.93506
 20
0.477647
 30
0.0
 40
0
 41
0
  0
VERTEX
  8
0
 10
2.92503
 20
0.485135
 30
0.0
 40
0
 41
0
  0
VERTEX
  8
0
 10
2.91504
 20
0.477647
 30
0.0
 40
0
 41
0
  0
VERTEX
  8
0
 10
2.91504
 20
0.475097
 30
0.0
 40
0
 41
0
  0
VERTEX
  8
0
 10
2.91504
 20
0.472601
 30
0.0
 40
0
 41
0
  0
VERTEX
  8
0
 10
2.92503
 20
0.465115
 30
0.0
 40
0
 41
0
  0
VERTEX
  8
0
 10
2.93506
 20
0.472601
 30
0.0
 40
0
 41
0
  0
VERTEX
  8
0
 10
2.93506
 20
0.475097
 30
0.0
 40
0
 41
0
  0
SEQEND
 8
0
  0
POLYLINE
  8
0
 62
     173
 66
     1
 10
0
 20
0
 30
0.0
 70
     1
 40
0
 41
0
  0
VERTEX
  8
0
 10
2.95003
 20
0.7551
 30
0.0
 40
0
 41
0
  0
VERTEX
  8
0
 10
2.95003
 20
0.75765
 30
0.0
 40
0
 41
0
  0
VERTEX
  8
0
 10
2.94
 20
0.765136
 30
0.0
 40
0
 41
0
  0
VERTEX
  8
0
 10
2.93001
 20
0.75765
 30
0.0
 40
0
 41
0
  0
VERTEX
  8
0
 10
2.93001
 20
0.7551
 30
0.0
 40
0
 41
0
  0
VERTEX
  8
0
 10
2.93001
 20
0.752604
 30
0.0
 40
0
 41
0
  0
VERTEX
  8
0
 10
2.94
 20
0.745117
 30
0.0
 40
0
 41
0
  0
VERTEX
  8
0
 10
2.95003
 20
0.752604
 30
0.0
 40
0
 41
0
  0
VERTEX
  8
0
 10
2.95003
 20
0.7551
 30
0.0
 40
0
 41
0
  0
SEQEND
 8
0
  0
POLYLINE
  8
0
 62
     173
 66
     1
 10
0
 20
0
 30
0.0
 70
     1
 40
0
 41
0
  0
VERTEX
  8
0
 10
0.12755
 20
0.520074
 30
0.0
 40
0
 41
0
  0
VERTEX
  8
0
 10
0.12755
 20
0.523383
 30
0.0
 40
0
 41
0
  0
VERTEX
  8
0
 10
0.12207
 20
0.533257
 30
0.0
 40
0
 41
0
  0
VERTEX
  8
0
 10
0.110026
 20
0.537651
 30
0.0
 40
0
 41
0
  0
VERTEX
  8
0
 10
0.0979818
 20
0.533257
 30
0.0
 40
0
 41
0
  0
VERTEX
  8
0
 10
0.0925564
 20
0.523383
 30
0.0
 40
0
 41
0
  0
VERTEX
  8
0
 10
0.0925564
 20
0.520074
 30
0.0
 40
0
 41
0
  0
VERTEX
  8
0
 10
0.0925564
 20
0.516818
 30
0.0
 40
0
 41
0
  0
VERTEX
  8
0
 10
0.0979818
 20
0.506999
 30
0.0
 40
0
 41
0
  0
VERTEX
  8
0
 10
0.110026
 20
0.502604
 30
0.0
 40
0
 41
0
  0
VERTEX
  8
0
 10
0.12207
 20
0.506999
 30
0.0
 40
0
 41
0
  0
VERTEX
  8
0
 10
0.12755
 20
0.516818
 30
0.0
 40
0
 41
0
  0
VERTEX
  8
0
 10
0.12755
 20
0.520074
 30
0.0
 40
0
 41
0
  0
SEQEND
 8
0
  0
POLYLINE
  8
0
 62
     173
 66
     1
 10
0
 20
0
 30
0.0
 70
     1
 40
0
 41
0
  0
VERTEX
  8
0
 10
0.177518
 20
0.300076
 30
0.0
 40
0
 41
0
  0
VERTEX
  8
0
 10
0.177518
 20
0.303386
 30
0.0
 40
0
 41
0
  0
VERTEX
  8
0
 10
0.172037
 20
0.31326
 30
0.0
 40
0
 41
0
  0
VERTEX
  8
0
 10
0.159993
 20
0.317654
 30
0.0
 40
0
 41
0
  0
VERTEX
  8
0
 10
0.147949
 20
0.31326
 30
0.0
 40
0
 41
0
  0
VERTEX
  8
0
 10
0.142524
 20
0.303386
 30
0.0
 40
0
 41
0
  0
VERTEX
  8
0
 10
0.142524
 20
0.300076
 30
0.0
 40
0
 41
0
  0
VERTEX
  8
0
 10
0.142524
 20
0.296821
 30
0.0
 40
0
 41
0
  0
VERTEX
  8
0
 10
0.147949
 20
0.287001
 30
0.0
 40
0
 41
0
  0
VERTEX
  8
0
 10
0.159993
 20
0.282607
 30
0.0
 40
0
 41
0
  0
VERTEX
  8
0
 10
0.172037
 20
0.287001
 30
0.0
 40
0
 41
0
  0
VERTEX
  8
0
 10
0.177518
 20
0.296821
 30
0.0
 40
0
 41
0
  0
VERTEX
  8
0
 10
0.177518
 20
0.300076
 30
0.0
 40
0
 41
0
  0
SEQEND
 8
0
  0
POLYLINE
  8
0
 62
     173
 66
     1
 10
0
 20
0
 30
0.0
 70
     1
 40
0
 41
0
  0
VERTEX
  8
0
 10
0.232531
 20
0.740126
 30
0.0
 40
0
 41
0
  0
VERTEX
  8
0
 10
0.232531
 20
0.743435
 30
0.0
 40
0
 41
0
  0
VERTEX
  8
0
 10
0.227051
 20
0.753256
 30
0.0
 40
0
 41
0
  0
VERTEX
  8
0
 10
0.215007
 20
0.75765
 30
0.0
 40
0
 41
0
  0
VERTEX
  8
0
 10
0.202963
 20
0.753256
 30
0.0
 40
0
 41
0
  0
VERTEX
  8
0
 10
0.197538
 20
0.743435
 30
0.0
 40
0
 41
0
  0
VERTEX
  8
0
 10
0.197538
 20
0.740126
 30
0.0
 40
0
 41
0
  0
VERTEX
  8
0
 10
0.197538
 20
0.736871
 30
0.0
 40
0
 41
0
  0
VERTEX
  8
0
 10
0.202963
 20
0.726997
 30
0.0
 40
0
 41
0
  0
VERTEX
  8
0
 10
0.215007
 20
0.722601
 30
0.0
 40
0
 41
0
  0
VERTEX
  8
0
 10
0.227051
 20
0.726997
 30
0.0
 40
0
 41
0
  0
VERTEX
  8
0
 10
0.232531
 20
0.736871
 30
0.0
 40
0
 41
0
  0
VERTEX
  8
0
 10
0.232531
 20
0.740126
 30
0.0
 40
0
 41
0
  0
SEQEND
 8
0
  0
POLYLINE
  8
0
 62
     173
 66
     1
 10
0
 20
0
 30
0.0
 70
     1
 40
0
 41
0
  0
VERTEX
  8
0
 10
0.302138
 20
0.445692
 30
0.0
 40
0
 41
0
  0
VERTEX
  8
0
 10
0.302138
 20
0.449001
 30
0.0
 40
0
 41
0
  0
VERTEX
  8
0
 10
0.296658
 20
0.458822
 30
0.0
 40
0
 41
0
  0
VERTEX
  8
0
 10
0.284614
 20
0.463217
 30
0.0
 40
0
 41
0
  0
VERTEX
  8
0
 10
0.272569
 20
0.458822
 30
0.0
 40
0
 41
0
  0
VERTEX
  8
0
 10
0.267144
 20
0.449001
 30
0.0
 40
0
 41
0
  0
VERTEX
  8
0
 10
0.267144
 20
0.445692
 30
0.0
 40
0
 41
0
  0
VERTEX
  8
0
 10
0.267144
 20
0.442437
 30
0.0
 40
0
 41
0
  0
VERTEX
  8
0
 10
0.272569
 20
0.432617
 30
0.0
 40
0
 41
0
  0
VERTEX
  8
0
 10
0.284614
 20
0.428222
 30
0.0
 40
0
 41
0
  0
VERTEX
  8
0
 10
0.296658
 20
0.432617
 30
0.0
 40
0
 41
0
  0
VERTEX
  8
0
 10
0.302138
 20
0.442437
 30
0.0
 40
0
 41
0
  0
VERTEX
  8
0
 10
0.302138
 20
0.445692
 30
0.0
 40
0
 41
0
  0
SEQEND
 8
0
  0
POLYLINE
  8
0
 62
     173
 66
     1
 10
0
 20
0
 30
0.0
 70
     1
 40
0
 41
0
  0
VERTEX
  8
0
 10
0.302138
 20
0.365397
 30
0.0
 40
0
 41
0
  0
VERTEX
  8
0
 10
0.302138
 20
0.368707
 30
0.0
 40
0
 41
0
  0
VERTEX
  8
0
 10
0.296658
 20
0.378526
 30
0.0
 40
0
 41
0
  0
VERTEX
  8
0
 10
0.284614
 20
0.382921
 30
0.0
 40
0
 41
0
  0
VERTEX
  8
0
 10
0.272569
 20
0.378526
 30
0.0
 40
0
 41
0
  0
VERTEX
  8
0
 10
0.267144
 20
0.368707
 30
0.0
 40
0
 41
0
  0
VERTEX
  8
0
 10
0.267144
 20
0.365397
 30
0.0
 40
0
 41
0
  0
VERTEX
  8
0
 10
0.267144
 20
0.362142
 30
0.0
 40
0
 41
0
  0
VERTEX
  8
0
 10
0.272569
 20
0.352322
 30
0.0
 40
0
 41
0
  0
VERTEX
  8
0
 10
0.284614
 20
0.347928
 30
0.0
 40
0
 41
0
  0
VERTEX
  8
0
 10
0.296658
 20
0.352322
 30
0.0
 40
0
 41
0
  0
VERTEX
  8
0
 10
0.302138
 20
0.362142
 30
0.0
 40
0
 41
0
  0
VERTEX
  8
0
 10
0.302138
 20
0.365397
 30
0.0
 40
0
 41
0
  0
SEQEND
 8
0
  0
POLYLINE
  8
0
 62
     173
 66
     1
 10
0
 20
0
 30
0.0
 70
     1
 40
0
 41
0
  0
VERTEX
  8
0
 10
0.302138
 20
0.284993
 30
0.0
 40
0
 41
0
  0
VERTEX
  8
0
 10
0.302138
 20
0.288303
 30
0.0
 40
0
 41
0
  0
VERTEX
  8
0
 10
0.296658
 20
0.298122
 30
0.0
 40
0
 41
0
  0
VERTEX
  8
0
 10
0.284614
 20
0.302518
 30
0.0
 40
0
 41
0
  0
VERTEX
  8
0
 10
0.272569
 20
0.298122
 30
0.0
 40
0
 41
0
  0
VERTEX
  8
0
 10
0.267144
 20
0.288303
 30
0.0
 40
0
 41
0
  0
VERTEX
  8
0
 10
0.267144
 20
0.284993
 30
0.0
 40
0
 41
0
  0
VERTEX
  8
0
 10
0.267144
 20
0.281739
 30
0.0
 40
0
 41
0
  0
VERTEX
  8
0
 10
0.272569
 20
0.271918
 30
0.0
 40
0
 41
0
  0
VERTEX
  8
0
 10
0.284614
 20
0.267524
 30
0.0
 40
0
 41
0
  0
VERTEX
  8
0
 10
0.296658
 20
0.271918
 30
0.0
 40
0
 41
0
  0
VERTEX
  8
0
 10
0.302138
 20
0.281739
 30
0.0
 40
0
 41
0
  0
VERTEX
  8
0
 10
0.302138
 20
0.284993
 30
0.0
 40
0
 41
0
  0
SEQEND
 8
0
  0
POLYLINE
  8
0
 62
     173
 66
     1
 10
0
 20
0
 30
0.0
 70
     1
 40
0
 41
0
  0
VERTEX
  8
0
 10
0.302138
 20
0.204699
 30
0.0
 40
0
 41
0
  0
VERTEX
  8
0
 10
0.302138
 20
0.208008
 30
0.0
 40
0
 41
0
  0
VERTEX
  8
0
 10
0.296658
 20
0.217828
 30
0.0
 40
0
 41
0
  0
VERTEX
  8
0
 10
0.284614
 20
0.222222
 30
0.0
 40
0
 41
0
  0
VERTEX
  8
0
 10
0.272569
 20
0.217828
 30
0.0
 40
0
 41
0
  0
VERTEX
  8
0
 10
0.267144
 20
0.208008
 30
0.0
 40
0
 41
0
  0
VERTEX
  8
0
 10
0.267144
 20
0.204699
 30
0.0
 40
0
 41
0
  0
VERTEX
  8
0
 10
0.267144
 20
0.201443
 30
0.0
 40
0
 41
0
  0
VERTEX
  8
0
 10
0.272569
 20
0.191624
 30
0.0
 40
0
 41
0
  0
VERTEX
  8
0
 10
0.284614
 20
0.187229
 30
0.0
 40
0
 41
0
  0
VERTEX
  8
0
 10
0.296658
 20
0.191624
 30
0.0
 40
0
 41
0
  0
VERTEX
  8
0
 10
0.302138
 20
0.201443
 30
0.0
 40
0
 41
0
  0
VERTEX
  8
0
 10
0.302138
 20
0.204699
 30
0.0
 40
0
 41
0
  0
SEQEND
 8
0
  0
POLYLINE
  8
0
 62
     173
 66
     1
 10
0
 20
0
 30
0.0
 70
     1
 40
0
 41
0
  0
VERTEX
  8
0
 10
0.372939
 20
0.485786
 30
0.0
 40
0
 41
0
  0
VERTEX
  8
0
 10
0.372939
 20
0.489094
 30
0.0
 40
0
 41
0
  0
VERTEX
  8
0
 10
0.367458
 20
0.498915
 30
0.0
 40
0
 41
0
  0
VERTEX
  8
0
 10
0.355414
 20
0.50331
 30
0.0
 40
0
 41
0
  0
VERTEX
  8
0
 10
0.343371
 20
0.498915
 30
0.0
 40
0
 41
0
  0
VERTEX
  8
0
 10
0.337944
 20
0.489094
 30
0.0
 40
0
 41
0
  0
VERTEX
  8
0
 10
0.337944
 20
0.485786
 30
0.0
 40
0
 41
0
  0
VERTEX
  8
0
 10
0.337944
 20
0.482531
 30
0.0
 40
0
 41
0
  0
VERTEX
  8
0
 10
0.343371
 20
0.472711
 30
0.0
 40
0
 41
0
  0
VERTEX
  8
0
 10
0.355414
 20
0.468317
 30
0.0
 40
0
 41
0
  0
VERTEX
  8
0
 10
0.367458
 20
0.472711
 30
0.0
 40
0
 41
0
  0
VERTEX
  8
0
 10
0.372939
 20
0.482531
 30
0.0
 40
0
 41
0
  0
VERTEX
  8
0
 10
0.372939
 20
0.485786
 30
0.0
 40
0
 41
0
  0
SEQEND
 8
0
  0
POLYLINE
  8
0
 62
     173
 66
     1
 10
0
 20
0
 30
0.0
 70
     1
 40
0
 41
0
  0
VERTEX
  8
0
 10
0.372939
 20
0.40549
 30
0.0
 40
0
 41
0
  0
VERTEX
  8
0
 10
0.372939
 20
0.4088
 30
0.0
 40
0
 41
0
  0
VERTEX
  8
0
 10
0.367458
 20
0.418619
 30
0.0
 40
0
 41
0
  0
VERTEX
  8
0
 10
0.355414
 20
0.423014
 30
0.0
 40
0
 41
0
  0
VERTEX
  8
0
 10
0.343371
 20
0.418619
 30
0.0
 40
0
 41
0
  0
VERTEX
  8
0
 10
0.337944
 20
0.4088
 30
0.0
 40
0
 41
0
  0
VERTEX
  8
0
 10
0.337944
 20
0.40549
 30
0.0
 40
0
 41
0
  0
VERTEX
  8
0
 10
0.337944
 20
0.402235
 30
0.0
 40
0
 41
0
  0
VERTEX
  8
0
 10
0.343371
 20
0.392415
 30
0.0
 40
0
 41
0
  0
VERTEX
  8
0
 10
0.355414
 20
0.388021
 30
0.0
 40
0
 41
0
  0
VERTEX
  8
0
 10
0.367458
 20
0.392415
 30
0.0
 40
0
 41
0
  0
VERTEX
  8
0
 10
0.372939
 20
0.402235
 30
0.0
 40
0
 41
0
  0
VERTEX
  8
0
 10
0.372939
 20
0.40549
 30
0.0
 40
0
 41
0
  0
SEQEND
 8
0
  0
POLYLINE
  8
0
 62
     173
 66
     1
 10
0
 20
0
 30
0.0
 70
     1
 40
0
 41
0
  0
VERTEX
  8
0
 10
0.372939
 20
0.325196
 30
0.0
 40
0
 41
0
  0
VERTEX
  8
0
 10
0.372939
 20
0.328504
 30
0.0
 40
0
 41
0
  0
VERTEX
  8
0
 10
0.367458
 20
0.338325
 30
0.0
 40
0
 41
0
  0
VERTEX
  8
0
 10
0.355414
 20
0.342719
 30
0.0
 40
0
 41
0
  0
VERTEX
  8
0
 10
0.343371
 20
0.338325
 30
0.0
 40
0
 41
0
  0
VERTEX
  8
0
 10
0.337944
 20
0.328504
 30
0.0
 40
0
 41
0
  0
VERTEX
  8
0
 10
0.337944
 20
0.325196
 30
0.0
 40
0
 41
0
  0
VERTEX
  8
0
 10
0.337944
 20
0.32194
 30
0.0
 40
0
 41
0
  0
VERTEX
  8
0
 10
0.343371
 20
0.312121
 30
0.0
 40
0
 41
0
  0
VERTEX
  8
0
 10
0.355414
 20
0.307726
 30
0.0
 40
0
 41
0
  0
VERTEX
  8
0
 10
0.367458
 20
0.312121
 30
0.0
 40
0
 41
0
  0
VERTEX
  8
0
 10
0.372939
 20
0.32194
 30
0.0
 40
0
 41
0
  0
VERTEX
  8
0
 10
0.372939
 20
0.325196
 30
0.0
 40
0
 41
0
  0
SEQEND
 8
0
  0
POLYLINE
  8
0
 62
     173
 66
     1
 10
0
 20
0
 30
0.0
 70
     1
 40
0
 41
0
  0
VERTEX
  8
0
 10
0.372939
 20
0.2449
 30
0.0
 40
0
 41
0
  0
VERTEX
  8
0
 10
0.372939
 20
0.24821
 30
0.0
 40
0
 41
0
  0
VERTEX
  8
0
 10
0.367458
 20
0.258029
 30
0.0
 40
0
 41
0
  0
VERTEX
  8
0
 10
0.355414
 20
0.262424
 30
0.0
 40
0
 41
0
  0
VERTEX
  8
0
 10
0.343371
 20
0.258029
 30
0.0
 40
0
 41
0
  0
VERTEX
  8
0
 10
0.337944
 20
0.24821
 30
0.0
 40
0
 41
0
  0
VERTEX
  8
0
 10
0.337944
 20
0.2449
 30
0.0
 40
0
 41
0
  0
VERTEX
  8
0
 10
0.337944
 20
0.241644
 30
0.0
 40
0
 41
0
  0
VERTEX
  8
0
 10
0.343371
 20
0.231825
 30
0.0
 40
0
 41
0
  0
VERTEX
  8
0
 10
0.355414
 20
0.227431
 30
0.0
 40
0
 41
0
  0
VERTEX
  8
0
 10
0.367458
 20
0.231825
 30
0.0
 40
0
 41
0
  0
VERTEX
  8
0
 10
0.372939
 20
0.241644
 30
0.0
 40
0
 41
0
  0
VERTEX
  8
0
 10
0.372939
 20
0.2449
 30
0.0
 40
0
 41
0
  0
SEQEND
 8
0
  0
POLYLINE
  8
0
 62
     173
 66
     1
 10
0
 20
0
 30
0.0
 70
     1
 40
0
 41
0
  0
VERTEX
  8
0
 10
0.597331
 20
0.620876
 30
0.0
 40
0
 41
0
  0
VERTEX
  8
0
 10
0.597331
 20
0.624186
 30
0.0
 40
0
 41
0
  0
VERTEX
  8
0
 10
0.591851
 20
0.634006
 30
0.0
 40
0
 41
0
  0
VERTEX
  8
0
 10
0.579807
 20
0.6384
 30
0.0
 40
0
 41
0
  0
VERTEX
  8
0
 10
0.567762
 20
0.634006
 30
0.0
 40
0
 41
0
  0
VERTEX
  8
0
 10
0.562338
 20
0.624186
 30
0.0
 40
0
 41
0
  0
VERTEX
  8
0
 10
0.562338
 20
0.620876
 30
0.0
 40
0
 41
0
  0
VERTEX
  8
0
 10
0.562338
 20
0.617622
 30
0.0
 40
0
 41
0
  0
VERTEX
  8
0
 10
0.567762
 20
0.607801
 30
0.0
 40
0
 41
0
  0
VERTEX
  8
0
 10
0.579807
 20
0.603407
 30
0.0
 40
0
 41
0
  0
VERTEX
  8
0
 10
0.591851
 20
0.607801
 30
0.0
 40
0
 41
0
  0
VERTEX
  8
0
 10
0.597331
 20
0.617622
 30
0.0
 40
0
 41
0
  0
VERTEX
  8
0
 10
0.597331
 20
0.620876
 30
0.0
 40
0
 41
0
  0
SEQEND
 8
0
  0
POLYLINE
  8
0
 62
     173
 66
     1
 10
0
 20
0
 30
0.0
 70
     1
 40
0
 41
0
  0
VERTEX
  8
0
 10
0.597331
 20
0.520508
 30
0.0
 40
0
 41
0
  0
VERTEX
  8
0
 10
0.597331
 20
0.523817
 30
0.0
 40
0
 41
0
  0
VERTEX
  8
0
 10
0.591851
 20
0.533638
 30
0.0
 40
0
 41
0
  0
VERTEX
  8
0
 10
0.579807
 20
0.538032
 30
0.0
 40
0
 41
0
  0
VERTEX
  8
0
 10
0.567762
 20
0.533638
 30
0.0
 40
0
 41
0
  0
VERTEX
  8
0
 10
0.562338
 20
0.523817
 30
0.0
 40
0
 41
0
  0
VERTEX
  8
0
 10
0.562338
 20
0.520508
 30
0.0
 40
0
 41
0
  0
VERTEX
  8
0
 10
0.562338
 20
0.517253
 30
0.0
 40
0
 41
0
  0
VERTEX
  8
0
 10
0.567762
 20
0.507433
 30
0.0
 40
0
 41
0
  0
VERTEX
  8
0
 10
0.579807
 20
0.503039
 30
0.0
 40
0
 41
0
  0
VERTEX
  8
0
 10
0.591851
 20
0.507433
 30
0.0
 40
0
 41
0
  0
VERTEX
  8
0
 10
0.597331
 20
0.517253
 30
0.0
 40
0
 41
0
  0
VERTEX
  8
0
 10
0.597331
 20
0.520508
 30
0.0
 40
0
 41
0
  0
SEQEND
 8
0
  0
POLYLINE
  8
0
 62
     173
 66
     1
 10
0
 20
0
 30
0.0
 70
     1
 40
0
 41
0
  0
VERTEX
  8
0
 10
0.597331
 20
0.170085
 30
0.0
 40
0
 41
0
  0
VERTEX
  8
0
 10
0.597331
 20
0.173394
 30
0.0
 40
0
 41
0
  0
VERTEX
  8
0
 10
0.591851
 20
0.183214
 30
0.0
 40
0
 41
0
  0
VERTEX
  8
0
 10
0.579807
 20
0.187608
 30
0.0
 40
0
 41
0
  0
VERTEX
  8
0
 10
0.567762
 20
0.183214
 30
0.0
 40
0
 41
0
  0
VERTEX
  8
0
 10
0.562338
 20
0.173394
 30
0.0
 40
0
 41
0
  0
VERTEX
  8
0
 10
0.562338
 20
0.170085
 30
0.0
 40
0
 41
0
  0
VERTEX
  8
0
 10
0.562338
 20
0.166829
 30
0.0
 40
0
 41
0
  0
VERTEX
  8
0
 10
0.567762
 20
0.15701
 30
0.0
 40
0
 41
0
  0
VERTEX
  8
0
 10
0.579807
 20
0.152615
 30
0.0
 40
0
 41
0
  0
VERTEX
  8
0
 10
0.591851
 20
0.15701
 30
0.0
 40
0
 41
0
  0
VERTEX
  8
0
 10
0.597331
 20
0.166829
 30
0.0
 40
0
 41
0
  0
VERTEX
  8
0
 10
0.597331
 20
0.170085
 30
0.0
 40
0
 41
0
  0
SEQEND
 8
0
  0
POLYLINE
  8
0
 62
     173
 66
     1
 10
0
 20
0
 30
0.0
 70
     1
 40
0
 41
0
  0
VERTEX
  8
0
 10
0.597331
 20
0.0697157
 30
0.0
 40
0
 41
0
  0
VERTEX
  8
0
 10
0.597331
 20
0.0730251
 30
0.0
 40
0
 41
0
  0
VERTEX
  8
0
 10
0.591851
 20
0.082845
 30
0.0
 40
0
 41
0
  0
VERTEX
  8
0
 10
0.579807
 20
0.0872396
 30
0.0
 40
0
 41
0
  0
VERTEX
  8
0
 10
0.567762
 20
0.082845
 30
0.0
 40
0
 41
0
  0
VERTEX
  8
0
 10
0.562338
 20
0.0730251
 30
0.0
 40
0
 41
0
  0
VERTEX
  8
0
 10
0.562338
 20
0.0697157
 30
0.0
 40
0
 41
0
  0
VERTEX
  8
0
 10
0.562338
 20
0.0664606
 30
0.0
 40
0
 41
0
  0
VERTEX
  8
0
 10
0.567762
 20
0.0566407
 30
0.0
 40
0
 41
0
  0
VERTEX
  8
0
 10
0.579807
 20
0.0522461
 30
0.0
 40
0
 41
0
  0
VERTEX
  8
0
 10
0.591851
 20
0.0566407
 30
0.0
 40
0
 41
0
  0
VERTEX
  8
0
 10
0.597331
 20
0.0664606
 30
0.0
 40
0
 41
0
  0
VERTEX
  8
0
 10
0.597331
 20
0.0697157
 30
0.0
 40
0
 41
0
  0
SEQEND
 8
0
  0
POLYLINE
  8
0
 62
     173
 66
     1
 10
0
 20
0
 30
0.0
 70
     1
 40
0
 41
0
  0
VERTEX
  8
0
 10
3.02772
 20
0.755697
 30
0.0
 40
0
 41
0
  0
VERTEX
  8
0
 10
3.02772
 20
0.759006
 30
0.0
 40
0
 41
0
  0
VERTEX
  8
0
 10
3.02225
 20
0.768826
 30
0.0
 40
0
 41
0
  0
VERTEX
  8
0
 10
3.01019
 20
0.773221
 30
0.0
 40
0
 41
0
  0
VERTEX
  8
0
 10
2.99815
 20
0.768826
 30
0.0
 40
0
 41
0
  0
VERTEX
  8
0
 10
2.99274
 20
0.759006
 30
0.0
 40
0
 41
0
  0
VERTEX
  8
0
 10
2.99274
 20
0.755697
 30
0.0
 40
0
 41
0
  0
VERTEX
  8
0
 10
2.99274
 20
0.752442
 30
0.0
 40
0
 41
0
  0
VERTEX
  8
0
 10
2.99815
 20
0.742622
 30
0.0
 40
0
 41
0
  0
VERTEX
  8
0
 10
3.01019
 20
0.738226
 30
0.0
 40
0
 41
0
  0
VERTEX
  8
0
 10
3.02225
 20
0.742622
 30
0.0
 40
0
 41
0
  0
VERTEX
  8
0
 10
3.02772
 20
0.752442
 30
0.0
 40
0
 41
0
  0
VERTEX
  8
0
 10
3.02772
 20
0.755697
 30
0.0
 40
0
 41
0
  0
SEQEND
 8
0
  0
POLYLINE
  8
0
 62
     173
 66
     1
 10
0
 20
0
 30
0.0
 70
     1
 40
0
 41
0
  0
VERTEX
  8
0
 10
3.02772
 20
0.655274
 30
0.0
 40
0
 41
0
  0
VERTEX
  8
0
 10
3.02772
 20
0.658583
 30
0.0
 40
0
 41
0
  0
VERTEX
  8
0
 10
3.02225
 20
0.668457
 30
0.0
 40
0
 41
0
  0
VERTEX
  8
0
 10
3.01019
 20
0.672851
 30
0.0
 40
0
 41
0
  0
VERTEX
  8
0
 10
2.99815
 20
0.668457
 30
0.0
 40
0
 41
0
  0
VERTEX
  8
0
 10
2.99274
 20
0.658583
 30
0.0
 40
0
 41
0
  0
VERTEX
  8
0
 10
2.99274
 20
0.655274
 30
0.0
 40
0
 41
0
  0
VERTEX
  8
0
 10
2.99274
 20
0.652018
 30
0.0
 40
0
 41
0
  0
VERTEX
  8
0
 10
2.99815
 20
0.642199
 30
0.0
 40
0
 41
0
  0
VERTEX
  8
0
 10
3.01019
 20
0.637804
 30
0.0
 40
0
 41
0
  0
VERTEX
  8
0
 10
3.02225
 20
0.642199
 30
0.0
 40
0
 41
0
  0
VERTEX
  8
0
 10
3.02772
 20
0.652018
 30
0.0
 40
0
 41
0
  0
VERTEX
  8
0
 10
3.02772
 20
0.655274
 30
0.0
 40
0
 41
0
  0
SEQEND
 8
0
  0
POLYLINE
  8
0
 62
     173
 66
     1
 10
0
 20
0
 30
0.0
 70
     1
 40
0
 41
0
  0
VERTEX
  8
0
 10
3.02772
 20
0.304904
 30
0.0
 40
0
 41
0
  0
VERTEX
  8
0
 10
3.02772
 20
0.308214
 30
0.0
 40
0
 41
0
  0
VERTEX
  8
0
 10
3.02225
 20
0.318033
 30
0.0
 40
0
 41
0
  0
VERTEX
  8
0
 10
3.01019
 20
0.322428
 30
0.0
 40
0
 41
0
  0
VERTEX
  8
0
 10
2.99815
 20
0.318033
 30
0.0
 40
0
 41
0
  0
VERTEX
  8
0
 10
2.99274
 20
0.308214
 30
0.0
 40
0
 41
0
  0
VERTEX
  8
0
 10
2.99274
 20
0.304904
 30
0.0
 40
0
 41
0
  0
VERTEX
  8
0
 10
2.99274
 20
0.30165
 30
0.0
 40
0
 41
0
  0
VERTEX
  8
0
 10
2.99815
 20
0.291829
 30
0.0
 40
0
 41
0
  0
VERTEX
  8
0
 10
3.01019
 20
0.287435
 30
0.0
 40
0
 41
0
  0
VERTEX
  8
0
 10
3.02225
 20
0.291829
 30
0.0
 40
0
 41
0
  0
VERTEX
  8
0
 10
3.02772
 20
0.30165
 30
0.0
 40
0
 41
0
  0
VERTEX
  8
0
 10
3.02772
 20
0.304904
 30
0.0
 40
0
 41
0
  0
SEQEND
 8
0
  0
POLYLINE
  8
0
 62
     173
 66
     1
 10
0
 20
0
 30
0.0
 70
     1
 40
0
 41
0
  0
VERTEX
  8
0
 10
3.02772
 20
0.204482
 30
0.0
 40
0
 41
0
  0
VERTEX
  8
0
 10
3.02772
 20
0.20779
 30
0.0
 40
0
 41
0
  0
VERTEX
  8
0
 10
3.02225
 20
0.217611
 30
0.0
 40
0
 41
0
  0
VERTEX
  8
0
 10
3.01019
 20
0.222006
 30
0.0
 40
0
 41
0
  0
VERTEX
  8
0
 10
2.99815
 20
0.217611
 30
0.0
 40
0
 41
0
  0
VERTEX
  8
0
 10
2.99274
 20
0.20779
 30
0.0
 40
0
 41
0
  0
VERTEX
  8
0
 10
2.99274
 20
0.204482
 30
0.0
 40
0
 41
0
  0
VERTEX
  8
0
 10
2.99274
 20
0.201226
 30
0.0
 40
0
 41
0
  0
VERTEX
  8
0
 10
2.99815
 20
0.191407
 30
0.0
 40
0
 41
0
  0
VERTEX
  8
0
 10
3.01019
 20
0.187011
 30
0.0
 40
0
 41
0
  0
VERTEX
  8
0
 10
3.02225
 20
0.191407
 30
0.0
 40
0
 41
0
  0
VERTEX
  8
0
 10
3.02772
 20
0.201226
 30
0.0
 40
0
 41
0
  0
VERTEX
  8
0
 10
3.02772
 20
0.204482
 30
0.0
 40
0
 41
0
  0
SEQEND
 8
0
  0
POLYLINE
  8
0
 62
     173
 66
     1
 10
0
 20
0
 30
0.0
 70
     1
 40
0
 41
0
  0
VERTEX
  8
0
 10
3.25211
 20
0.580513
 30
0.0
 40
0
 41
0
  0
VERTEX
  8
0
 10
3.25211
 20
0.583822
 30
0.0
 40
0
 41
0
  0
VERTEX
  8
0
 10
3.24664
 20
0.593642
 30
0.0
 40
0
 41
0
  0
VERTEX
  8
0
 10
3.2346
 20
0.598036
 30
0.0
 40
0
 41
0
  0
VERTEX
  8
0
 10
3.22254
 20
0.593642
 30
0.0
 40
0
 41
0
  0
VERTEX
  8
0
 10
3.21712
 20
0.583822
 30
0.0
 40
0
 41
0
  0
VERTEX
  8
0
 10
3.21712
 20
0.580513
 30
0.0
 40
0
 41
0
  0
VERTEX
  8
0
 10
3.21712
 20
0.577257
 30
0.0
 40
0
 41
0
  0
VERTEX
  8
0
 10
3.22254
 20
0.567437
 30
0.0
 40
0
 41
0
  0
VERTEX
  8
0
 10
3.2346
 20
0.563043
 30
0.0
 40
0
 41
0
  0
VERTEX
  8
0
 10
3.24664
 20
0.567437
 30
0.0
 40
0
 41
0
  0
VERTEX
  8
0
 10
3.25211
 20
0.577257
 30
0.0
 40
0
 41
0
  0
VERTEX
  8
0
 10
3.25211
 20
0.580513
 30
0.0
 40
0
 41
0
  0
SEQEND
 8
0
  0
POLYLINE
  8
0
 62
     173
 66
     1
 10
0
 20
0
 30
0.0
 70
     1
 40
0
 41
0
  0
VERTEX
  8
0
 10
3.25211
 20
0.500217
 30
0.0
 40
0
 41
0
  0
VERTEX
  8
0
 10
3.25211
 20
0.503526
 30
0.0
 40
0
 41
0
  0
VERTEX
  8
0
 10
3.24664
 20
0.513346
 30
0.0
 40
0
 41
0
  0
VERTEX
  8
0
 10
3.2346
 20
0.51774
 30
0.0
 40
0
 41
0
  0
VERTEX
  8
0
 10
3.22254
 20
0.513346
 30
0.0
 40
0
 41
0
  0
VERTEX
  8
0
 10
3.21712
 20
0.503526
 30
0.0
 40
0
 41
0
  0
VERTEX
  8
0
 10
3.21712
 20
0.500217
 30
0.0
 40
0
 41
0
  0
VERTEX
  8
0
 10
3.21712
 20
0.496962
 30
0.0
 40
0
 41
0
  0
VERTEX
  8
0
 10
3.22254
 20
0.487142
 30
0.0
 40
0
 41
0
  0
VERTEX
  8
0
 10
3.2346
 20
0.482747
 30
0.0
 40
0
 41
0
  0
VERTEX
  8
0
 10
3.24664
 20
0.487142
 30
0.0
 40
0
 41
0
  0
VERTEX
  8
0
 10
3.25211
 20
0.496962
 30
0.0
 40
0
 41
0
  0
VERTEX
  8
0
 10
3.25211
 20
0.500217
 30
0.0
 40
0
 41
0
  0
SEQEND
 8
0
  0
POLYLINE
  8
0
 62
     173
 66
     1
 10
0
 20
0
 30
0.0
 70
     1
 40
0
 41
0
  0
VERTEX
  8
0
 10
3.25211
 20
0.419922
 30
0.0
 40
0
 41
0
  0
VERTEX
  8
0
 10
3.25211
 20
0.423232
 30
0.0
 40
0
 41
0
  0
VERTEX
  8
0
 10
3.24664
 20
0.433051
 30
0.0
 40
0
 41
0
  0
VERTEX
  8
0
 10
3.2346
 20
0.437446
 30
0.0
 40
0
 41
0
  0
VERTEX
  8
0
 10
3.22254
 20
0.433051
 30
0.0
 40
0
 41
0
  0
VERTEX
  8
0
 10
3.21712
 20
0.423232
 30
0.0
 40
0
 41
0
  0
VERTEX
  8
0
 10
3.21712
 20
0.419922
 30
0.0
 40
0
 41
0
  0
VERTEX
  8
0
 10
3.21712
 20
0.416667
 30
0.0
 40
0
 41
0
  0
VERTEX
  8
0
 10
3.22254
 20
0.406793
 30
0.0
 40
0
 41
0
  0
VERTEX
  8
0
 10
3.2346
 20
0.402399
 30
0.0
 40
0
 41
0
  0
VERTEX
  8
0
 10
3.24664
 20
0.406793
 30
0.0
 40
0
 41
0
  0
VERTEX
  8
0
 10
3.25211
 20
0.416667
 30
0.0
 40
0
 41
0
  0
VERTEX
  8
0
 10
3.25211
 20
0.419922
 30
0.0
 40
0
 41
0
  0
SEQEND
 8
0
  0
POLYLINE
  8
0
 62
     173
 66
     1
 10
0
 20
0
 30
0.0
 70
     1
 40
0
 41
0
  0
VERTEX
  8
0
 10
3.25211
 20
0.339572
 30
0.0
 40
0
 41
0
  0
VERTEX
  8
0
 10
3.25211
 20
0.342882
 30
0.0
 40
0
 41
0
  0
VERTEX
  8
0
 10
3.24664
 20
0.352756
 30
0.0
 40
0
 41
0
  0
VERTEX
  8
0
 10
3.2346
 20
0.35715
 30
0.0
 40
0
 41
0
  0
VERTEX
  8
0
 10
3.22254
 20
0.352756
 30
0.0
 40
0
 41
0
  0
VERTEX
  8
0
 10
3.21712
 20
0.342882
 30
0.0
 40
0
 41
0
  0
VERTEX
  8
0
 10
3.21712
 20
0.339572
 30
0.0
 40
0
 41
0
  0
VERTEX
  8
0
 10
3.21712
 20
0.336317
 30
0.0
 40
0
 41
0
  0
VERTEX
  8
0
 10
3.22254
 20
0.326497
 30
0.0
 40
0
 41
0
  0
VERTEX
  8
0
 10
3.2346
 20
0.322103
 30
0.0
 40
0
 41
0
  0
VERTEX
  8
0
 10
3.24664
 20
0.326497
 30
0.0
 40
0
 41
0
  0
VERTEX
  8
0
 10
3.25211
 20
0.336317
 30
0.0
 40
0
 41
0
  0
VERTEX
  8
0
 10
3.25211
 20
0.339572
 30
0.0
 40
0
 41
0
  0
SEQEND
 8
0
  0
POLYLINE
  8
0
 62
     173
 66
     1
 10
0
 20
0
 30
0.0
 70
     1
 40
0
 41
0
  0
VERTEX
  8
0
 10
3.32292
 20
0.620714
 30
0.0
 40
0
 41
0
  0
VERTEX
  8
0
 10
3.32292
 20
0.624024
 30
0.0
 40
0
 41
0
  0
VERTEX
  8
0
 10
3.31743
 20
0.633843
 30
0.0
 40
0
 41
0
  0
VERTEX
  8
0
 10
3.30539
 20
0.638237
 30
0.0
 40
0
 41
0
  0
VERTEX
  8
0
 10
3.29335
 20
0.633843
 30
0.0
 40
0
 41
0
  0
VERTEX
  8
0
 10
3.28792
 20
0.624024
 30
0.0
 40
0
 41
0
  0
VERTEX
  8
0
 10
3.28792
 20
0.620714
 30
0.0
 40
0
 41
0
  0
VERTEX
  8
0
 10
3.28792
 20
0.617458
 30
0.0
 40
0
 41
0
  0
VERTEX
  8
0
 10
3.29335
 20
0.607639
 30
0.0
 40
0
 41
0
  0
VERTEX
  8
0
 10
3.30539
 20
0.603244
 30
0.0
 40
0
 41
0
  0
VERTEX
  8
0
 10
3.31743
 20
0.607639
 30
0.0
 40
0
 41
0
  0
VERTEX
  8
0
 10
3.32292
 20
0.617458
 30
0.0
 40
0
 41
0
  0
VERTEX
  8
0
 10
3.32292
 20
0.620714
 30
0.0
 40
0
 41
0
  0
SEQEND
 8
0
  0
POLYLINE
  8
0
 62
     173
 66
     1
 10
0
 20
0
 30
0.0
 70
     1
 40
0
 41
0
  0
VERTEX
  8
0
 10
3.32292
 20
0.540419
 30
0.0
 40
0
 41
0
  0
VERTEX
  8
0
 10
3.32292
 20
0.543728
 30
0.0
 40
0
 41
0
  0
VERTEX
  8
0
 10
3.31743
 20
0.553549
 30
0.0
 40
0
 41
0
  0
VERTEX
  8
0
 10
3.30539
 20
0.557943
 30
0.0
 40
0
 41
0
  0
VERTEX
  8
0
 10
3.29335
 20
0.553549
 30
0.0
 40
0
 41
0
  0
VERTEX
  8
0
 10
3.28792
 20
0.543728
 30
0.0
 40
0
 41
0
  0
VERTEX
  8
0
 10
3.28792
 20
0.540419
 30
0.0
 40
0
 41
0
  0
VERTEX
  8
0
 10
3.28792
 20
0.537164
 30
0.0
 40
0
 41
0
  0
VERTEX
  8
0
 10
3.29335
 20
0.527344
 30
0.0
 40
0
 41
0
  0
VERTEX
  8
0
 10
3.30539
 20
0.522949
 30
0.0
 40
0
 41
0
  0
VERTEX
  8
0
 10
3.31743
 20
0.527344
 30
0.0
 40
0
 41
0
  0
VERTEX
  8
0
 10
3.32292
 20
0.537164
 30
0.0
 40
0
 41
0
  0
VERTEX
  8
0
 10
3.32292
 20
0.540419
 30
0.0
 40
0
 41
0
  0
SEQEND
 8
0
  0
POLYLINE
  8
0
 62
     173
 66
     1
 10
0
 20
0
 30
0.0
 70
     1
 40
0
 41
0
  0
VERTEX
  8
0
 10
3.32292
 20
0.460015
 30
0.0
 40
0
 41
0
  0
VERTEX
  8
0
 10
3.32292
 20
0.463325
 30
0.0
 40
0
 41
0
  0
VERTEX
  8
0
 10
3.31743
 20
0.473144
 30
0.0
 40
0
 41
0
  0
VERTEX
  8
0
 10
3.30539
 20
0.477539
 30
0.0
 40
0
 41
0
  0
VERTEX
  8
0
 10
3.29335
 20
0.473144
 30
0.0
 40
0
 41
0
  0
VERTEX
  8
0
 10
3.28792
 20
0.463325
 30
0.0
 40
0
 41
0
  0
VERTEX
  8
0
 10
3.28792
 20
0.460015
 30
0.0
 40
0
 41
0
  0
VERTEX
  8
0
 10
3.28792
 20
0.45676
 30
0.0
 40
0
 41
0
  0
VERTEX
  8
0
 10
3.29335
 20
0.44694
 30
0.0
 40
0
 41
0
  0
VERTEX
  8
0
 10
3.30539
 20
0.442546
 30
0.0
 40
0
 41
0
  0
VERTEX
  8
0
 10
3.31743
 20
0.44694
 30
0.0
 40
0
 41
0
  0
VERTEX
  8
0
 10
3.32292
 20
0.45676
 30
0.0
 40
0
 41
0
  0
VERTEX
  8
0
 10
3.32292
 20
0.460015
 30
0.0
 40
0
 41
0
  0
SEQEND
 8
0
  0
POLYLINE
  8
0
 62
     173
 66
     1
 10
0
 20
0
 30
0.0
 70
     1
 40
0
 41
0
  0
VERTEX
  8
0
 10
3.32292
 20
0.379719
 30
0.0
 40
0
 41
0
  0
VERTEX
  8
0
 10
3.32292
 20
0.383029
 30
0.0
 40
0
 41
0
  0
VERTEX
  8
0
 10
3.31743
 20
0.39285
 30
0.0
 40
0
 41
0
  0
VERTEX
  8
0
 10
3.30539
 20
0.397244
 30
0.0
 40
0
 41
0
  0
VERTEX
  8
0
 10
3.29335
 20
0.39285
 30
0.0
 40
0
 41
0
  0
VERTEX
  8
0
 10
3.28792
 20
0.383029
 30
0.0
 40
0
 41
0
  0
VERTEX
  8
0
 10
3.28792
 20
0.379719
 30
0.0
 40
0
 41
0
  0
VERTEX
  8
0
 10
3.28792
 20
0.376465
 30
0.0
 40
0
 41
0
  0
VERTEX
  8
0
 10
3.29335
 20
0.366644
 30
0.0
 40
0
 41
0
  0
VERTEX
  8
0
 10
3.30539
 20
0.36225
 30
0.0
 40
0
 41
0
  0
VERTEX
  8
0
 10
3.31743
 20
0.366644
 30
0.0
 40
0
 41
0
  0
VERTEX
  8
0
 10
3.32292
 20
0.376465
 30
0.0
 40
0
 41
0
  0
VERTEX
  8
0
 10
3.32292
 20
0.379719
 30
0.0
 40
0
 41
0
  0
SEQEND
 8
0
  0
POLYLINE
  8
0
 62
     173
 66
     1
 10
0
 20
0
 30
0.0
 70
     1
 40
0
 41
0
  0
VERTEX
  8
0
 10
0.114041
 20
0.855089
 30
0.0
 40
0
 41
0
  0
VERTEX
  8
0
 10
0.114041
 20
0.858669
 30
0.0
 40
0
 41
0
  0
VERTEX
  8
0
 10
0.108073
 20
0.869358
 30
0.0
 40
0
 41
0
  0
VERTEX
  8
0
 10
0.0950521
 20
0.874132
 30
0.0
 40
0
 41
0
  0
VERTEX
  8
0
 10
0.0819769
 20
0.869358
 30
0.0
 40
0
 41
0
  0
VERTEX
  8
0
 10
0.0760633
 20
0.858669
 30
0.0
 40
0
 41
0
  0
VERTEX
  8
0
 10
0.0760633
 20
0.855089
 30
0.0
 40
0
 41
0
  0
VERTEX
  8
0
 10
0.0760633
 20
0.851563
 30
0.0
 40
0
 41
0
  0
VERTEX
  8
0
 10
0.0819769
 20
0.840875
 30
0.0
 40
0
 41
0
  0
VERTEX
  8
0
 10
0.0950521
 20
0.8361
 30
0.0
 40
0
 41
0
  0
VERTEX
  8
0
 10
0.108073
 20
0.840875
 30
0.0
 40
0
 41
0
  0
VERTEX
  8
0
 10
0.114041
 20
0.851563
 30
0.0
 40
0
 41
0
  0
VERTEX
  8
0
 10
0.114041
 20
0.855089
 30
0.0
 40
0
 41
0
  0
SEQEND
 8
0
  0
POLYLINE
  8
0
 62
     173
 66
     1
 10
0
 20
0
 30
0.0
 70
     1
 40
0
 41
0
  0
VERTEX
  8
0
 10
0.214031
 20
0.855089
 30
0.0
 40
0
 41
0
  0
VERTEX
  8
0
 10
0.214031
 20
0.858669
 30
0.0
 40
0
 41
0
  0
VERTEX
  8
0
 10
0.208063
 20
0.869358
 30
0.0
 40
0
 41
0
  0
VERTEX
  8
0
 10
0.195042
 20
0.874132
 30
0.0
 40
0
 41
0
  0
VERTEX
  8
0
 10
0.181967
 20
0.869358
 30
0.0
 40
0
 41
0
  0
VERTEX
  8
0
 10
0.176053
 20
0.858669
 30
0.0
 40
0
 41
0
  0
VERTEX
  8
0
 10
0.176053
 20
0.855089
 30
0.0
 40
0
 41
0
  0
VERTEX
  8
0
 10
0.176053
 20
0.851563
 30
0.0
 40
0
 41
0
  0
VERTEX
  8
0
 10
0.181967
 20
0.840875
 30
0.0
 40
0
 41
0
  0
VERTEX
  8
0
 10
0.195042
 20
0.8361
 30
0.0
 40
0
 41
0
  0
VERTEX
  8
0
 10
0.208063
 20
0.840875
 30
0.0
 40
0
 41
0
  0
VERTEX
  8
0
 10
0.214031
 20
0.851563
 30
0.0
 40
0
 41
0
  0
VERTEX
  8
0
 10
0.214031
 20
0.855089
 30
0.0
 40
0
 41
0
  0
SEQEND
 8
0
  0
POLYLINE
  8
0
 62
     173
 66
     1
 10
0
 20
0
 30
0.0
 70
     1
 40
0
 41
0
  0
VERTEX
  8
0
 10
0.314019
 20
0.855089
 30
0.0
 40
0
 41
0
  0
VERTEX
  8
0
 10
0.314019
 20
0.858669
 30
0.0
 40
0
 41
0
  0
VERTEX
  8
0
 10
0.308051
 20
0.869358
 30
0.0
 40
0
 41
0
  0
VERTEX
  8
0
 10
0.295031
 20
0.874132
 30
0.0
 40
0
 41
0
  0
VERTEX
  8
0
 10
0.281956
 20
0.869358
 30
0.0
 40
0
 41
0
  0
VERTEX
  8
0
 10
0.276042
 20
0.858669
 30
0.0
 40
0
 41
0
  0
VERTEX
  8
0
 10
0.276042
 20
0.855089
 30
0.0
 40
0
 41
0
  0
VERTEX
  8
0
 10
0.276042
 20
0.851563
 30
0.0
 40
0
 41
0
  0
VERTEX
  8
0
 10
0.281956
 20
0.840875
 30
0.0
 40
0
 41
0
  0
VERTEX
  8
0
 10
0.295031
 20
0.8361
 30
0.0
 40
0
 41
0
  0
VERTEX
  8
0
 10
0.308051
 20
0.840875
 30
0.0
 40
0
 41
0
  0
VERTEX
  8
0
 10
0.314019
 20
0.851563
 30
0.0
 40
0
 41
0
  0
VERTEX
  8
0
 10
0.314019
 20
0.855089
 30
0.0
 40
0
 41
0
  0
SEQEND
 8
0
  0
POLYLINE
  8
0
 62
     173
 66
     1
 10
0
 20
0
 30
0.0
 70
     1
 40
0
 41
0
  0
VERTEX
  8
0
 10
0.414063
 20
0.855089
 30
0.0
 40
0
 41
0
  0
VERTEX
  8
0
 10
0.414063
 20
0.858669
 30
0.0
 40
0
 41
0
  0
VERTEX
  8
0
 10
0.408094
 20
0.869358
 30
0.0
 40
0
 41
0
  0
VERTEX
  8
0
 10
0.395019
 20
0.874132
 30
0.0
 40
0
 41
0
  0
VERTEX
  8
0
 10
0.381944
 20
0.869358
 30
0.0
 40
0
 41
0
  0
VERTEX
  8
0
 10
0.376031
 20
0.858669
 30
0.0
 40
0
 41
0
  0
VERTEX
  8
0
 10
0.376031
 20
0.855089
 30
0.0
 40
0
 41
0
  0
VERTEX
  8
0
 10
0.376031
 20
0.851563
 30
0.0
 40
0
 41
0
  0
VERTEX
  8
0
 10
0.381944
 20
0.840875
 30
0.0
 40
0
 41
0
  0
VERTEX
  8
0
 10
0.395019
 20
0.8361
 30
0.0
 40
0
 41
0
  0
VERTEX
  8
0
 10
0.408094
 20
0.840875
 30
0.0
 40
0
 41
0
  0
VERTEX
  8
0
 10
0.414063
 20
0.851563
 30
0.0
 40
0
 41
0
  0
VERTEX
  8
0
 10
0.414063
 20
0.855089
 30
0.0
 40
0
 41
0
  0
SEQEND
 8
0
  0
POLYLINE
  8
0
 62
     173
 66
     1
 10
0
 20
0
 30
0.0
 70
     1
 40
0
 41
0
  0
VERTEX
  8
0
 10
0.514051
 20
0.855089
 30
0.0
 40
0
 41
0
  0
VERTEX
  8
0
 10
0.514051
 20
0.858669
 30
0.0
 40
0
 41
0
  0
VERTEX
  8
0
 10
0.508083
 20
0.869358
 30
0.0
 40
0
 41
0
  0
VERTEX
  8
0
 10
0.495008
 20
0.874132
 30
0.0
 40
0
 41
0
  0
VERTEX
  8
0
 10
0.481933
 20
0.869358
 30
0.0
 40
0
 41
0
  0
VERTEX
  8
0
 10
0.476019
 20
0.858669
 30
0.0
 40
0
 41
0
  0
VERTEX
  8
0
 10
0.476019
 20
0.855089
 30
0.0
 40
0
 41
0
  0
VERTEX
  8
0
 10
0.476019
 20
0.851563
 30
0.0
 40
0
 41
0
  0
VERTEX
  8
0
 10
0.481933
 20
0.840875
 30
0.0
 40
0
 41
0
  0
VERTEX
  8
0
 10
0.495008
 20
0.8361
 30
0.0
 40
0
 41
0
  0
VERTEX
  8
0
 10
0.508083
 20
0.840875
 30
0.0
 40
0
 41
0
  0
VERTEX
  8
0
 10
0.514051
 20
0.851563
 30
0.0
 40
0
 41
0
  0
VERTEX
  8
0
 10
0.514051
 20
0.855089
 30
0.0
 40
0
 41
0
  0
SEQEND
 8
0
  0
POLYLINE
  8
0
 62
     173
 66
     1
 10
0
 20
0
 30
0.0
 70
     1
 40
0
 41
0
  0
VERTEX
  8
0
 10
0.61404
 20
0.855089
 30
0.0
 40
0
 41
0
  0
VERTEX
  8
0
 10
0.61404
 20
0.858669
 30
0.0
 40
0
 41
0
  0
VERTEX
  8
0
 10
0.608074
 20
0.869358
 30
0.0
 40
0
 41
0
  0
VERTEX
  8
0
 10
0.595053
 20
0.874132
 30
0.0
 40
0
 41
0
  0
VERTEX
  8
0
 10
0.581976
 20
0.869358
 30
0.0
 40
0
 41
0
  0
VERTEX
  8
0
 10
0.576064
 20
0.858669
 30
0.0
 40
0
 41
0
  0
VERTEX
  8
0
 10
0.576064
 20
0.855089
 30
0.0
 40
0
 41
0
  0
VERTEX
  8
0
 10
0.576064
 20
0.851563
 30
0.0
 40
0
 41
0
  0
VERTEX
  8
0
 10
0.581976
 20
0.840875
 30
0.0
 40
0
 41
0
  0
VERTEX
  8
0
 10
0.595053
 20
0.8361
 30
0.0
 40
0
 41
0
  0
VERTEX
  8
0
 10
0.608074
 20
0.840875
 30
0.0
 40
0
 41
0
  0
VERTEX
  8
0
 10
0.61404
 20
0.851563
 30
0.0
 40
0
 41
0
  0
VERTEX
  8
0
 10
0.61404
 20
0.855089
 30
0.0
 40
0
 41
0
  0
SEQEND
 8
0
  0
POLYLINE
  8
0
 62
     173
 66
     1
 10
0
 20
0
 30
0.0
 70
     1
 40
0
 41
0
  0
VERTEX
  8
0
 10
0.764051
 20
0.855089
 30
0.0
 40
0
 41
0
  0
VERTEX
  8
0
 10
0.764051
 20
0.858669
 30
0.0
 40
0
 41
0
  0
VERTEX
  8
0
 10
0.758083
 20
0.869358
 30
0.0
 40
0
 41
0
  0
VERTEX
  8
0
 10
0.745008
 20
0.874132
 30
0.0
 40
0
 41
0
  0
VERTEX
  8
0
 10
0.731933
 20
0.869358
 30
0.0
 40
0
 41
0
  0
VERTEX
  8
0
 10
0.726019
 20
0.858669
 30
0.0
 40
0
 41
0
  0
VERTEX
  8
0
 10
0.726019
 20
0.855089
 30
0.0
 40
0
 41
0
  0
VERTEX
  8
0
 10
0.726019
 20
0.851563
 30
0.0
 40
0
 41
0
  0
VERTEX
  8
0
 10
0.731933
 20
0.840875
 30
0.0
 40
0
 41
0
  0
VERTEX
  8
0
 10
0.745008
 20
0.8361
 30
0.0
 40
0
 41
0
  0
VERTEX
  8
0
 10
0.758083
 20
0.840875
 30
0.0
 40
0
 41
0
  0
VERTEX
  8
0
 10
0.764051
 20
0.851563
 30
0.0
 40
0
 41
0
  0
VERTEX
  8
0
 10
0.764051
 20
0.855089
 30
0.0
 40
0
 41
0
  0
SEQEND
 8
0
  0
POLYLINE
  8
0
 62
     173
 66
     1
 10
0
 20
0
 30
0.0
 70
     1
 40
0
 41
0
  0
VERTEX
  8
0
 10
0.764051
 20
0.7551
 30
0.0
 40
0
 41
0
  0
VERTEX
  8
0
 10
0.764051
 20
0.758681
 30
0.0
 40
0
 41
0
  0
VERTEX
  8
0
 10
0.758083
 20
0.769368
 30
0.0
 40
0
 41
0
  0
VERTEX
  8
0
 10
0.745008
 20
0.774143
 30
0.0
 40
0
 41
0
  0
VERTEX
  8
0
 10
0.731933
 20
0.769368
 30
0.0
 40
0
 41
0
  0
VERTEX
  8
0
 10
0.726019
 20
0.758681
 30
0.0
 40
0
 41
0
  0
VERTEX
  8
0
 10
0.726019
 20
0.7551
 30
0.0
 40
0
 41
0
  0
VERTEX
  8
0
 10
0.726019
 20
0.751574
 30
0.0
 40
0
 41
0
  0
VERTEX
  8
0
 10
0.731933
 20
0.740886
 30
0.0
 40
0
 41
0
  0
VERTEX
  8
0
 10
0.745008
 20
0.736111
 30
0.0
 40
0
 41
0
  0
VERTEX
  8
0
 10
0.758083
 20
0.740886
 30
0.0
 40
0
 41
0
  0
VERTEX
  8
0
 10
0.764051
 20
0.751574
 30
0.0
 40
0
 41
0
  0
VERTEX
  8
0
 10
0.764051
 20
0.7551
 30
0.0
 40
0
 41
0
  0
SEQEND
 8
0
  0
POLYLINE
  8
0
 62
     173
 66
     1
 10
0
 20
0
 30
0.0
 70
     1
 40
0
 41
0
  0
VERTEX
  8
0
 10
0.86404
 20
0.855089
 30
0.0
 40
0
 41
0
  0
VERTEX
  8
0
 10
0.86404
 20
0.858669
 30
0.0
 40
0
 41
0
  0
VERTEX
  8
0
 10
0.858074
 20
0.869358
 30
0.0
 40
0
 41
0
  0
VERTEX
  8
0
 10
0.845053
 20
0.874132
 30
0.0
 40
0
 41
0
  0
VERTEX
  8
0
 10
0.831976
 20
0.869358
 30
0.0
 40
0
 41
0
  0
VERTEX
  8
0
 10
0.826064
 20
0.858669
 30
0.0
 40
0
 41
0
  0
VERTEX
  8
0
 10
0.826064
 20
0.855089
 30
0.0
 40
0
 41
0
  0
VERTEX
  8
0
 10
0.826064
 20
0.851563
 30
0.0
 40
0
 41
0
  0
VERTEX
  8
0
 10
0.831976
 20
0.840875
 30
0.0
 40
0
 41
0
  0
VERTEX
  8
0
 10
0.845053
 20
0.8361
 30
0.0
 40
0
 41
0
  0
VERTEX
  8
0
 10
0.858074
 20
0.840875
 30
0.0
 40
0
 41
0
  0
VERTEX
  8
0
 10
0.86404
 20
0.851563
 30
0.0
 40
0
 41
0
  0
VERTEX
  8
0
 10
0.86404
 20
0.855089
 30
0.0
 40
0
 41
0
  0
SEQEND
 8
0
  0
POLYLINE
  8
0
 62
     173
 66
     1
 10
0
 20
0
 30
0.0
 70
     1
 40
0
 41
0
  0
VERTEX
  8
0
 10
0.86404
 20
0.7551
 30
0.0
 40
0
 41
0
  0
VERTEX
  8
0
 10
0.86404
 20
0.758681
 30
0.0
 40
0
 41
0
  0
VERTEX
  8
0
 10
0.858074
 20
0.769368
 30
0.0
 40
0
 41
0
  0
VERTEX
  8
0
 10
0.845053
 20
0.774143
 30
0.0
 40
0
 41
0
  0
VERTEX
  8
0
 10
0.831976
 20
0.769368
 30
0.0
 40
0
 41
0
  0
VERTEX
  8
0
 10
0.826064
 20
0.758681
 30
0.0
 40
0
 41
0
  0
VERTEX
  8
0
 10
0.826064
 20
0.7551
 30
0.0
 40
0
 41
0
  0
VERTEX
  8
0
 10
0.826064
 20
0.751574
 30
0.0
 40
0
 41
0
  0
VERTEX
  8
0
 10
0.831976
 20
0.740886
 30
0.0
 40
0
 41
0
  0
VERTEX
  8
0
 10
0.845053
 20
0.736111
 30
0.0
 40
0
 41
0
  0
VERTEX
  8
0
 10
0.858074
 20
0.740886
 30
0.0
 40
0
 41
0
  0
VERTEX
  8
0
 10
0.86404
 20
0.751574
 30
0.0
 40
0
 41
0
  0
VERTEX
  8
0
 10
0.86404
 20
0.7551
 30
0.0
 40
0
 41
0
  0
SEQEND
 8
0
  0
POLYLINE
  8
0
 62
     173
 66
     1
 10
0
 20
0
 30
0.0
 70
     1
 40
0
 41
0
  0
VERTEX
  8
0
 10
1.15402
 20
0.855089
 30
0.0
 40
0
 41
0
  0
VERTEX
  8
0
 10
1.15402
 20
0.858669
 30
0.0
 40
0
 41
0
  0
VERTEX
  8
0
 10
1.14806
 20
0.869358
 30
0.0
 40
0
 41
0
  0
VERTEX
  8
0
 10
1.13504
 20
0.874132
 30
0.0
 40
0
 41
0
  0
VERTEX
  8
0
 10
1.12196
 20
0.869358
 30
0.0
 40
0
 41
0
  0
VERTEX
  8
0
 10
1.11605
 20
0.858669
 30
0.0
 40
0
 41
0
  0
VERTEX
  8
0
 10
1.11605
 20
0.855089
 30
0.0
 40
0
 41
0
  0
VERTEX
  8
0
 10
1.11605
 20
0.851563
 30
0.0
 40
0
 41
0
  0
VERTEX
  8
0
 10
1.12196
 20
0.840875
 30
0.0
 40
0
 41
0
  0
VERTEX
  8
0
 10
1.13504
 20
0.8361
 30
0.0
 40
0
 41
0
  0
VERTEX
  8
0
 10
1.14806
 20
0.840875
 30
0.0
 40
0
 41
0
  0
VERTEX
  8
0
 10
1.15402
 20
0.851563
 30
0.0
 40
0
 41
0
  0
VERTEX
  8
0
 10
1.15402
 20
0.855089
 30
0.0
 40
0
 41
0
  0
SEQEND
 8
0
  0
POLYLINE
  8
0
 62
     173
 66
     1
 10
0
 20
0
 30
0.0
 70
     1
 40
0
 41
0
  0
VERTEX
  8
0
 10
1.15402
 20
0.7551
 30
0.0
 40
0
 41
0
  0
VERTEX
  8
0
 10
1.15402
 20
0.758681
 30
0.0
 40
0
 41
0
  0
VERTEX
  8
0
 10
1.14806
 20
0.769368
 30
0.0
 40
0
 41
0
  0
VERTEX
  8
0
 10
1.13504
 20
0.774143
 30
0.0
 40
0
 41
0
  0
VERTEX
  8
0
 10
1.12196
 20
0.769368
 30
0.0
 40
0
 41
0
  0
VERTEX
  8
0
 10
1.11605
 20
0.758681
 30
0.0
 40
0
 41
0
  0
VERTEX
  8
0
 10
1.11605
 20
0.7551
 30
0.0
 40
0
 41
0
  0
VERTEX
  8
0
 10
1.11605
 20
0.751574
 30
0.0
 40
0
 41
0
  0
VERTEX
  8
0
 10
1.12196
 20
0.740886
 30
0.0
 40
0
 41
0
  0
VERTEX
  8
0
 10
1.13504
 20
0.736111
 30
0.0
 40
0
 41
0
  0
VERTEX
  8
0
 10
1.14806
 20
0.740886
 30
0.0
 40
0
 41
0
  0
VERTEX
  8
0
 10
1.15402
 20
0.751574
 30
0.0
 40
0
 41
0
  0
VERTEX
  8
0
 10
1.15402
 20
0.7551
 30
0.0
 40
0
 41
0
  0
SEQEND
 8
0
  0
POLYLINE
  8
0
 62
     173
 66
     1
 10
0
 20
0
 30
0.0
 70
     1
 40
0
 41
0
  0
VERTEX
  8
0
 10
1.25402
 20
0.855089
 30
0.0
 40
0
 41
0
  0
VERTEX
  8
0
 10
1.25402
 20
0.858669
 30
0.0
 40
0
 41
0
  0
VERTEX
  8
0
 10
1.24805
 20
0.869358
 30
0.0
 40
0
 41
0
  0
VERTEX
  8
0
 10
1.23503
 20
0.874132
 30
0.0
 40
0
 41
0
  0
VERTEX
  8
0
 10
1.22195
 20
0.869358
 30
0.0
 40
0
 41
0
  0
VERTEX
  8
0
 10
1.21604
 20
0.858669
 30
0.0
 40
0
 41
0
  0
VERTEX
  8
0
 10
1.21604
 20
0.855089
 30
0.0
 40
0
 41
0
  0
VERTEX
  8
0
 10
1.21604
 20
0.851563
 30
0.0
 40
0
 41
0
  0
VERTEX
  8
0
 10
1.22195
 20
0.840875
 30
0.0
 40
0
 41
0
  0
VERTEX
  8
0
 10
1.23503
 20
0.8361
 30
0.0
 40
0
 41
0
  0
VERTEX
  8
0
 10
1.24805
 20
0.840875
 30
0.0
 40
0
 41
0
  0
VERTEX
  8
0
 10
1.25402
 20
0.851563
 30
0.0
 40
0
 41
0
  0
VERTEX
  8
0
 10
1.25402
 20
0.855089
 30
0.0
 40
0
 41
0
  0
SEQEND
 8
0
  0
POLYLINE
  8
0
 62
     173
 66
     1
 10
0
 20
0
 30
0.0
 70
     1
 40
0
 41
0
  0
VERTEX
  8
0
 10
1.25402
 20
0.7551
 30
0.0
 40
0
 41
0
  0
VERTEX
  8
0
 10
1.25402
 20
0.758681
 30
0.0
 40
0
 41
0
  0
VERTEX
  8
0
 10
1.24805
 20
0.769368
 30
0.0
 40
0
 41
0
  0
VERTEX
  8
0
 10
1.23503
 20
0.774143
 30
0.0
 40
0
 41
0
  0
VERTEX
  8
0
 10
1.22195
 20
0.769368
 30
0.0
 40
0
 41
0
  0
VERTEX
  8
0
 10
1.21604
 20
0.758681
 30
0.0
 40
0
 41
0
  0
VERTEX
  8
0
 10
1.21604
 20
0.7551
 30
0.0
 40
0
 41
0
  0
VERTEX
  8
0
 10
1.21604
 20
0.751574
 30
0.0
 40
0
 41
0
  0
VERTEX
  8
0
 10
1.22195
 20
0.740886
 30
0.0
 40
0
 41
0
  0
VERTEX
  8
0
 10
1.23503
 20
0.736111
 30
0.0
 40
0
 41
0
  0
VERTEX
  8
0
 10
1.24805
 20
0.740886
 30
0.0
 40
0
 41
0
  0
VERTEX
  8
0
 10
1.25402
 20
0.751574
 30
0.0
 40
0
 41
0
  0
VERTEX
  8
0
 10
1.25402
 20
0.7551
 30
0.0
 40
0
 41
0
  0
SEQEND
 8
0
  0
POLYLINE
  8
0
 62
     173
 66
     1
 10
0
 20
0
 30
0.0
 70
     1
 40
0
 41
0
  0
VERTEX
  8
0
 10
1.35406
 20
0.855089
 30
0.0
 40
0
 41
0
  0
VERTEX
  8
0
 10
1.35406
 20
0.858669
 30
0.0
 40
0
 41
0
  0
VERTEX
  8
0
 10
1.34809
 20
0.869358
 30
0.0
 40
0
 41
0
  0
VERTEX
  8
0
 10
1.33502
 20
0.874132
 30
0.0
 40
0
 41
0
  0
VERTEX
  8
0
 10
1.32194
 20
0.869358
 30
0.0
 40
0
 41
0
  0
VERTEX
  8
0
 10
1.31603
 20
0.858669
 30
0.0
 40
0
 41
0
  0
VERTEX
  8
0
 10
1.31603
 20
0.855089
 30
0.0
 40
0
 41
0
  0
VERTEX
  8
0
 10
1.31603
 20
0.851563
 30
0.0
 40
0
 41
0
  0
VERTEX
  8
0
 10
1.32194
 20
0.840875
 30
0.0
 40
0
 41
0
  0
VERTEX
  8
0
 10
1.33502
 20
0.8361
 30
0.0
 40
0
 41
0
  0
VERTEX
  8
0
 10
1.34809
 20
0.840875
 30
0.0
 40
0
 41
0
  0
VERTEX
  8
0
 10
1.35406
 20
0.851563
 30
0.0
 40
0
 41
0
  0
VERTEX
  8
0
 10
1.35406
 20
0.855089
 30
0.0
 40
0
 41
0
  0
SEQEND
 8
0
  0
POLYLINE
  8
0
 62
     173
 66
     1
 10
0
 20
0
 30
0.0
 70
     1
 40
0
 41
0
  0
VERTEX
  8
0
 10
1.35406
 20
0.7551
 30
0.0
 40
0
 41
0
  0
VERTEX
  8
0
 10
1.35406
 20
0.758681
 30
0.0
 40
0
 41
0
  0
VERTEX
  8
0
 10
1.34809
 20
0.769368
 30
0.0
 40
0
 41
0
  0
VERTEX
  8
0
 10
1.33502
 20
0.774143
 30
0.0
 40
0
 41
0
  0
VERTEX
  8
0
 10
1.32194
 20
0.769368
 30
0.0
 40
0
 41
0
  0
VERTEX
  8
0
 10
1.31603
 20
0.758681
 30
0.0
 40
0
 41
0
  0
VERTEX
  8
0
 10
1.31603
 20
0.7551
 30
0.0
 40
0
 41
0
  0
VERTEX
  8
0
 10
1.31603
 20
0.751574
 30
0.0
 40
0
 41
0
  0
VERTEX
  8
0
 10
1.32194
 20
0.740886
 30
0.0
 40
0
 41
0
  0
VERTEX
  8
0
 10
1.33502
 20
0.736111
 30
0.0
 40
0
 41
0
  0
VERTEX
  8
0
 10
1.34809
 20
0.740886
 30
0.0
 40
0
 41
0
  0
VERTEX
  8
0
 10
1.35406
 20
0.751574
 30
0.0
 40
0
 41
0
  0
VERTEX
  8
0
 10
1.35406
 20
0.7551
 30
0.0
 40
0
 41
0
  0
SEQEND
 8
0
  0
POLYLINE
  8
0
 62
     173
 66
     1
 10
0
 20
0
 30
0.0
 70
     1
 40
0
 41
0
  0
VERTEX
  8
0
 10
1.45404
 20
0.855089
 30
0.0
 40
0
 41
0
  0
VERTEX
  8
0
 10
1.45404
 20
0.858669
 30
0.0
 40
0
 41
0
  0
VERTEX
  8
0
 10
1.44808
 20
0.869358
 30
0.0
 40
0
 41
0
  0
VERTEX
  8
0
 10
1.435
 20
0.874132
 30
0.0
 40
0
 41
0
  0
VERTEX
  8
0
 10
1.42193
 20
0.869358
 30
0.0
 40
0
 41
0
  0
VERTEX
  8
0
 10
1.41601
 20
0.858669
 30
0.0
 40
0
 41
0
  0
VERTEX
  8
0
 10
1.41601
 20
0.855089
 30
0.0
 40
0
 41
0
  0
VERTEX
  8
0
 10
1.41601
 20
0.851563
 30
0.0
 40
0
 41
0
  0
VERTEX
  8
0
 10
1.42193
 20
0.840875
 30
0.0
 40
0
 41
0
  0
VERTEX
  8
0
 10
1.435
 20
0.8361
 30
0.0
 40
0
 41
0
  0
VERTEX
  8
0
 10
1.44808
 20
0.840875
 30
0.0
 40
0
 41
0
  0
VERTEX
  8
0
 10
1.45404
 20
0.851563
 30
0.0
 40
0
 41
0
  0
VERTEX
  8
0
 10
1.45404
 20
0.855089
 30
0.0
 40
0
 41
0
  0
SEQEND
 8
0
  0
POLYLINE
  8
0
 62
     173
 66
     1
 10
0
 20
0
 30
0.0
 70
     1
 40
0
 41
0
  0
VERTEX
  8
0
 10
1.45404
 20
0.7551
 30
0.0
 40
0
 41
0
  0
VERTEX
  8
0
 10
1.45404
 20
0.758681
 30
0.0
 40
0
 41
0
  0
VERTEX
  8
0
 10
1.44808
 20
0.769368
 30
0.0
 40
0
 41
0
  0
VERTEX
  8
0
 10
1.435
 20
0.774143
 30
0.0
 40
0
 41
0
  0
VERTEX
  8
0
 10
1.42193
 20
0.769368
 30
0.0
 40
0
 41
0
  0
VERTEX
  8
0
 10
1.41601
 20
0.758681
 30
0.0
 40
0
 41
0
  0
VERTEX
  8
0
 10
1.41601
 20
0.7551
 30
0.0
 40
0
 41
0
  0
VERTEX
  8
0
 10
1.41601
 20
0.751574
 30
0.0
 40
0
 41
0
  0
VERTEX
  8
0
 10
1.42193
 20
0.740886
 30
0.0
 40
0
 41
0
  0
VERTEX
  8
0
 10
1.435
 20
0.736111
 30
0.0
 40
0
 41
0
  0
VERTEX
  8
0
 10
1.44808
 20
0.740886
 30
0.0
 40
0
 41
0
  0
VERTEX
  8
0
 10
1.45404
 20
0.751574
 30
0.0
 40
0
 41
0
  0
VERTEX
  8
0
 10
1.45404
 20
0.7551
 30
0.0
 40
0
 41
0
  0
SEQEND
 8
0
  0
POLYLINE
  8
0
 62
     173
 66
     1
 10
0
 20
0
 30
0.0
 70
     1
 40
0
 41
0
  0
VERTEX
  8
0
 10
1.55404
 20
0.855089
 30
0.0
 40
0
 41
0
  0
VERTEX
  8
0
 10
1.55404
 20
0.858669
 30
0.0
 40
0
 41
0
  0
VERTEX
  8
0
 10
1.54807
 20
0.869358
 30
0.0
 40
0
 41
0
  0
VERTEX
  8
0
 10
1.53504
 20
0.874132
 30
0.0
 40
0
 41
0
  0
VERTEX
  8
0
 10
1.52197
 20
0.869358
 30
0.0
 40
0
 41
0
  0
VERTEX
  8
0
 10
1.51606
 20
0.858669
 30
0.0
 40
0
 41
0
  0
VERTEX
  8
0
 10
1.51606
 20
0.855089
 30
0.0
 40
0
 41
0
  0
VERTEX
  8
0
 10
1.51606
 20
0.851563
 30
0.0
 40
0
 41
0
  0
VERTEX
  8
0
 10
1.52197
 20
0.840875
 30
0.0
 40
0
 41
0
  0
VERTEX
  8
0
 10
1.53504
 20
0.8361
 30
0.0
 40
0
 41
0
  0
VERTEX
  8
0
 10
1.54807
 20
0.840875
 30
0.0
 40
0
 41
0
  0
VERTEX
  8
0
 10
1.55404
 20
0.851563
 30
0.0
 40
0
 41
0
  0
VERTEX
  8
0
 10
1.55404
 20
0.855089
 30
0.0
 40
0
 41
0
  0
SEQEND
 8
0
  0
POLYLINE
  8
0
 62
     173
 66
     1
 10
0
 20
0
 30
0.0
 70
     1
 40
0
 41
0
  0
VERTEX
  8
0
 10
1.55404
 20
0.7551
 30
0.0
 40
0
 41
0
  0
VERTEX
  8
0
 10
1.55404
 20
0.758681
 30
0.0
 40
0
 41
0
  0
VERTEX
  8
0
 10
1.54807
 20
0.769368
 30
0.0
 40
0
 41
0
  0
VERTEX
  8
0
 10
1.53504
 20
0.774143
 30
0.0
 40
0
 41
0
  0
VERTEX
  8
0
 10
1.52197
 20
0.769368
 30
0.0
 40
0
 41
0
  0
VERTEX
  8
0
 10
1.51606
 20
0.758681
 30
0.0
 40
0
 41
0
  0
VERTEX
  8
0
 10
1.51606
 20
0.7551
 30
0.0
 40
0
 41
0
  0
VERTEX
  8
0
 10
1.51606
 20
0.751574
 30
0.0
 40
0
 41
0
  0
VERTEX
  8
0
 10
1.52197
 20
0.740886
 30
0.0
 40
0
 41
0
  0
VERTEX
  8
0
 10
1.53504
 20
0.736111
 30
0.0
 40
0
 41
0
  0
VERTEX
  8
0
 10
1.54807
 20
0.740886
 30
0.0
 40
0
 41
0
  0
VERTEX
  8
0
 10
1.55404
 20
0.751574
 30
0.0
 40
0
 41
0
  0
VERTEX
  8
0
 10
1.55404
 20
0.7551
 30
0.0
 40
0
 41
0
  0
SEQEND
 8
0
  0
POLYLINE
  8
0
 62
     173
 66
     1
 10
0
 20
0
 30
0.0
 70
     1
 40
0
 41
0
  0
VERTEX
  8
0
 10
1.74903
 20
0.605089
 30
0.0
 40
0
 41
0
  0
VERTEX
  8
0
 10
1.74903
 20
0.608669
 30
0.0
 40
0
 41
0
  0
VERTEX
  8
0
 10
1.74306
 20
0.619358
 30
0.0
 40
0
 41
0
  0
VERTEX
  8
0
 10
1.73004
 20
0.624132
 30
0.0
 40
0
 41
0
  0
VERTEX
  8
0
 10
1.71696
 20
0.619358
 30
0.0
 40
0
 41
0
  0
VERTEX
  8
0
 10
1.71104
 20
0.608669
 30
0.0
 40
0
 41
0
  0
VERTEX
  8
0
 10
1.71104
 20
0.605089
 30
0.0
 40
0
 41
0
  0
VERTEX
  8
0
 10
1.71104
 20
0.601563
 30
0.0
 40
0
 41
0
  0
VERTEX
  8
0
 10
1.71696
 20
0.590875
 30
0.0
 40
0
 41
0
  0
VERTEX
  8
0
 10
1.73004
 20
0.5861
 30
0.0
 40
0
 41
0
  0
VERTEX
  8
0
 10
1.74306
 20
0.590875
 30
0.0
 40
0
 41
0
  0
VERTEX
  8
0
 10
1.74903
 20
0.601563
 30
0.0
 40
0
 41
0
  0
VERTEX
  8
0
 10
1.74903
 20
0.605089
 30
0.0
 40
0
 41
0
  0
SEQEND
 8
0
  0
POLYLINE
  8
0
 62
     173
 66
     1
 10
0
 20
0
 30
0.0
 70
     1
 40
0
 41
0
  0
VERTEX
  8
0
 10
1.74903
 20
0.5051
 30
0.0
 40
0
 41
0
  0
VERTEX
  8
0
 10
1.74903
 20
0.508681
 30
0.0
 40
0
 41
0
  0
VERTEX
  8
0
 10
1.74306
 20
0.519368
 30
0.0
 40
0
 41
0
  0
VERTEX
  8
0
 10
1.73004
 20
0.524143
 30
0.0
 40
0
 41
0
  0
VERTEX
  8
0
 10
1.71696
 20
0.519368
 30
0.0
 40
0
 41
0
  0
VERTEX
  8
0
 10
1.71104
 20
0.508681
 30
0.0
 40
0
 41
0
  0
VERTEX
  8
0
 10
1.71104
 20
0.5051
 30
0.0
 40
0
 41
0
  0
VERTEX
  8
0
 10
1.71104
 20
0.501574
 30
0.0
 40
0
 41
0
  0
VERTEX
  8
0
 10
1.71696
 20
0.490886
 30
0.0
 40
0
 41
0
  0
VERTEX
  8
0
 10
1.73004
 20
0.486111
 30
0.0
 40
0
 41
0
  0
VERTEX
  8
0
 10
1.74306
 20
0.490886
 30
0.0
 40
0
 41
0
  0
VERTEX
  8
0
 10
1.74903
 20
0.501574
 30
0.0
 40
0
 41
0
  0
VERTEX
  8
0
 10
1.74903
 20
0.5051
 30
0.0
 40
0
 41
0
  0
SEQEND
 8
0
  0
POLYLINE
  8
0
 62
     173
 66
     1
 10
0
 20
0
 30
0.0
 70
     1
 40
0
 41
0
  0
VERTEX
  8
0
 10
1.74903
 20
0.405111
 30
0.0
 40
0
 41
0
  0
VERTEX
  8
0
 10
1.74903
 20
0.408692
 30
0.0
 40
0
 41
0
  0
VERTEX
  8
0
 10
1.74306
 20
0.419379
 30
0.0
 40
0
 41
0
  0
VERTEX
  8
0
 10
1.73004
 20
0.424154
 30
0.0
 40
0
 41
0
  0
VERTEX
  8
0
 10
1.71696
 20
0.419379
 30
0.0
 40
0
 41
0
  0
VERTEX
  8
0
 10
1.71104
 20
0.408692
 30
0.0
 40
0
 41
0
  0
VERTEX
  8
0
 10
1.71104
 20
0.405111
 30
0.0
 40
0
 41
0
  0
VERTEX
  8
0
 10
1.71104
 20
0.401585
 30
0.0
 40
0
 41
0
  0
VERTEX
  8
0
 10
1.71696
 20
0.390896
 30
0.0
 40
0
 41
0
  0
VERTEX
  8
0
 10
1.73004
 20
0.386122
 30
0.0
 40
0
 41
0
  0
VERTEX
  8
0
 10
1.74306
 20
0.390896
 30
0.0
 40
0
 41
0
  0
VERTEX
  8
0
 10
1.74903
 20
0.401585
 30
0.0
 40
0
 41
0
  0
VERTEX
  8
0
 10
1.74903
 20
0.405111
 30
0.0
 40
0
 41
0
  0
SEQEND
 8
0
  0
POLYLINE
  8
0
 62
     173
 66
     1
 10
0
 20
0
 30
0.0
 70
     1
 40
0
 41
0
  0
VERTEX
  8
0
 10
1.74903
 20
0.305122
 30
0.0
 40
0
 41
0
  0
VERTEX
  8
0
 10
1.74903
 20
0.308703
 30
0.0
 40
0
 41
0
  0
VERTEX
  8
0
 10
1.74306
 20
0.31939
 30
0.0
 40
0
 41
0
  0
VERTEX
  8
0
 10
1.73004
 20
0.324164
 30
0.0
 40
0
 41
0
  0
VERTEX
  8
0
 10
1.71696
 20
0.31939
 30
0.0
 40
0
 41
0
  0
VERTEX
  8
0
 10
1.71104
 20
0.308703
 30
0.0
 40
0
 41
0
  0
VERTEX
  8
0
 10
1.71104
 20
0.305122
 30
0.0
 40
0
 41
0
  0
VERTEX
  8
0
 10
1.71104
 20
0.301594
 30
0.0
 40
0
 41
0
  0
VERTEX
  8
0
 10
1.71696
 20
0.290907
 30
0.0
 40
0
 41
0
  0
VERTEX
  8
0
 10
1.73004
 20
0.286133
 30
0.0
 40
0
 41
0
  0
VERTEX
  8
0
 10
1.74306
 20
0.290907
 30
0.0
 40
0
 41
0
  0
VERTEX
  8
0
 10
1.74903
 20
0.301594
 30
0.0
 40
0
 41
0
  0
VERTEX
  8
0
 10
1.74903
 20
0.305122
 30
0.0
 40
0
 41
0
  0
SEQEND
 8
0
  0
POLYLINE
  8
0
 62
     173
 66
     1
 10
0
 20
0
 30
0.0
 70
     1
 40
0
 41
0
  0
VERTEX
  8
0
 10
1.74903
 20
0.205078
 30
0.0
 40
0
 41
0
  0
VERTEX
  8
0
 10
1.74903
 20
0.208658
 30
0.0
 40
0
 41
0
  0
VERTEX
  8
0
 10
1.74306
 20
0.219347
 30
0.0
 40
0
 41
0
  0
VERTEX
  8
0
 10
1.73004
 20
0.224121
 30
0.0
 40
0
 41
0
  0
VERTEX
  8
0
 10
1.71696
 20
0.219347
 30
0.0
 40
0
 41
0
  0
VERTEX
  8
0
 10
1.71104
 20
0.208658
 30
0.0
 40
0
 41
0
  0
VERTEX
  8
0
 10
1.71104
 20
0.205078
 30
0.0
 40
0
 41
0
  0
VERTEX
  8
0
 10
1.71104
 20
0.201551
 30
0.0
 40
0
 41
0
  0
VERTEX
  8
0
 10
1.71696
 20
0.190864
 30
0.0
 40
0
 41
0
  0
VERTEX
  8
0
 10
1.73004
 20
0.186089
 30
0.0
 40
0
 41
0
  0
VERTEX
  8
0
 10
1.74306
 20
0.190864
 30
0.0
 40
0
 41
0
  0
VERTEX
  8
0
 10
1.74903
 20
0.201551
 30
0.0
 40
0
 41
0
  0
VERTEX
  8
0
 10
1.74903
 20
0.205078
 30
0.0
 40
0
 41
0
  0
SEQEND
 8
0
  0
POLYLINE
  8
0
 62
     173
 66
     1
 10
0
 20
0
 30
0.0
 70
     1
 40
0
 41
0
  0
VERTEX
  8
0
 10
1.74903
 20
0.105089
 30
0.0
 40
0
 41
0
  0
VERTEX
  8
0
 10
1.74903
 20
0.10867
 30
0.0
 40
0
 41
0
  0
VERTEX
  8
0
 10
1.74306
 20
0.119358
 30
0.0
 40
0
 41
0
  0
VERTEX
  8
0
 10
1.73004
 20
0.124132
 30
0.0
 40
0
 41
0
  0
VERTEX
  8
0
 10
1.71696
 20
0.119358
 30
0.0
 40
0
 41
0
  0
VERTEX
  8
0
 10
1.71104
 20
0.10867
 30
0.0
 40
0
 41
0
  0
VERTEX
  8
0
 10
1.71104
 20
0.105089
 30
0.0
 40
0
 41
0
  0
VERTEX
  8
0
 10
1.71104
 20
0.101563
 30
0.0
 40
0
 41
0
  0
VERTEX
  8
0
 10
1.71696
 20
0.0908746
 30
0.0
 40
0
 41
0
  0
VERTEX
  8
0
 10
1.73004
 20
0.0861003
 30
0.0
 40
0
 41
0
  0
VERTEX
  8
0
 10
1.74306
 20
0.0908746
 30
0.0
 40
0
 41
0
  0
VERTEX
  8
0
 10
1.74903
 20
0.101563
 30
0.0
 40
0
 41
0
  0
VERTEX
  8
0
 10
1.74903
 20
0.105089
 30
0.0
 40
0
 41
0
  0
SEQEND
 8
0
  0
POLYLINE
  8
0
 62
     173
 66
     1
 10
0
 20
0
 30
0.0
 70
     1
 40
0
 41
0
  0
VERTEX
  8
0
 10
1.84907
 20
0.855089
 30
0.0
 40
0
 41
0
  0
VERTEX
  8
0
 10
1.84907
 20
0.858669
 30
0.0
 40
0
 41
0
  0
VERTEX
  8
0
 10
1.8431
 20
0.869358
 30
0.0
 40
0
 41
0
  0
VERTEX
  8
0
 10
1.83003
 20
0.874132
 30
0.0
 40
0
 41
0
  0
VERTEX
  8
0
 10
1.81694
 20
0.869358
 30
0.0
 40
0
 41
0
  0
VERTEX
  8
0
 10
1.81104
 20
0.858669
 30
0.0
 40
0
 41
0
  0
VERTEX
  8
0
 10
1.81104
 20
0.855089
 30
0.0
 40
0
 41
0
  0
VERTEX
  8
0
 10
1.81104
 20
0.851563
 30
0.0
 40
0
 41
0
  0
VERTEX
  8
0
 10
1.81694
 20
0.840875
 30
0.0
 40
0
 41
0
  0
VERTEX
  8
0
 10
1.83003
 20
0.8361
 30
0.0
 40
0
 41
0
  0
VERTEX
  8
0
 10
1.8431
 20
0.840875
 30
0.0
 40
0
 41
0
  0
VERTEX
  8
0
 10
1.84907
 20
0.851563
 30
0.0
 40
0
 41
0
  0
VERTEX
  8
0
 10
1.84907
 20
0.855089
 30
0.0
 40
0
 41
0
  0
SEQEND
 8
0
  0
POLYLINE
  8
0
 62
     173
 66
     1
 10
0
 20
0
 30
0.0
 70
     1
 40
0
 41
0
  0
VERTEX
  8
0
 10
1.84907
 20
0.7551
 30
0.0
 40
0
 41
0
  0
VERTEX
  8
0
 10
1.84907
 20
0.758681
 30
0.0
 40
0
 41
0
  0
VERTEX
  8
0
 10
1.8431
 20
0.769368
 30
0.0
 40
0
 41
0
  0
VERTEX
  8
0
 10
1.83003
 20
0.774143
 30
0.0
 40
0
 41
0
  0
VERTEX
  8
0
 10
1.81694
 20
0.769368
 30
0.0
 40
0
 41
0
  0
VERTEX
  8
0
 10
1.81104
 20
0.758681
 30
0.0
 40
0
 41
0
  0
VERTEX
  8
0
 10
1.81104
 20
0.7551
 30
0.0
 40
0
 41
0
  0
VERTEX
  8
0
 10
1.81104
 20
0.751574
 30
0.0
 40
0
 41
0
  0
VERTEX
  8
0
 10
1.81694
 20
0.740886
 30
0.0
 40
0
 41
0
  0
VERTEX
  8
0
 10
1.83003
 20
0.736111
 30
0.0
 40
0
 41
0
  0
VERTEX
  8
0
 10
1.8431
 20
0.740886
 30
0.0
 40
0
 41
0
  0
VERTEX
  8
0
 10
1.84907
 20
0.751574
 30
0.0
 40
0
 41
0
  0
VERTEX
  8
0
 10
1.84907
 20
0.7551
 30
0.0
 40
0
 41
0
  0
SEQEND
 8
0
  0
POLYLINE
  8
0
 62
     173
 66
     1
 10
0
 20
0
 30
0.0
 70
     1
 40
0
 41
0
  0
VERTEX
  8
0
 10
1.93901
 20
0.605089
 30
0.0
 40
0
 41
0
  0
VERTEX
  8
0
 10
1.93901
 20
0.608669
 30
0.0
 40
0
 41
0
  0
VERTEX
  8
0
 10
1.93306
 20
0.619358
 30
0.0
 40
0
 41
0
  0
VERTEX
  8
0
 10
1.92003
 20
0.624132
 30
0.0
 40
0
 41
0
  0
VERTEX
  8
0
 10
1.90696
 20
0.619358
 30
0.0
 40
0
 41
0
  0
VERTEX
  8
0
 10
1.90104
 20
0.608669
 30
0.0
 40
0
 41
0
  0
VERTEX
  8
0
 10
1.90104
 20
0.605089
 30
0.0
 40
0
 41
0
  0
VERTEX
  8
0
 10
1.90104
 20
0.601563
 30
0.0
 40
0
 41
0
  0
VERTEX
  8
0
 10
1.90696
 20
0.590875
 30
0.0
 40
0
 41
0
  0
VERTEX
  8
0
 10
1.92003
 20
0.5861
 30
0.0
 40
0
 41
0
  0
VERTEX
  8
0
 10
1.93306
 20
0.590875
 30
0.0
 40
0
 41
0
  0
VERTEX
  8
0
 10
1.93901
 20
0.601563
 30
0.0
 40
0
 41
0
  0
VERTEX
  8
0
 10
1.93901
 20
0.605089
 30
0.0
 40
0
 41
0
  0
SEQEND
 8
0
  0
POLYLINE
  8
0
 62
     173
 66
     1
 10
0
 20
0
 30
0.0
 70
     1
 40
0
 41
0
  0
VERTEX
  8
0
 10
1.93901
 20
0.105089
 30
0.0
 40
0
 41
0
  0
VERTEX
  8
0
 10
1.93901
 20
0.10867
 30
0.0
 40
0
 41
0
  0
VERTEX
  8
0
 10
1.93306
 20
0.119358
 30
0.0
 40
0
 41
0
  0
VERTEX
  8
0
 10
1.92003
 20
0.124132
 30
0.0
 40
0
 41
0
  0
VERTEX
  8
0
 10
1.90696
 20
0.119358
 30
0.0
 40
0
 41
0
  0
VERTEX
  8
0
 10
1.90104
 20
0.10867
 30
0.0
 40
0
 41
0
  0
VERTEX
  8
0
 10
1.90104
 20
0.105089
 30
0.0
 40
0
 41
0
  0
VERTEX
  8
0
 10
1.90104
 20
0.101563
 30
0.0
 40
0
 41
0
  0
VERTEX
  8
0
 10
1.90696
 20
0.0908746
 30
0.0
 40
0
 41
0
  0
VERTEX
  8
0
 10
1.92003
 20
0.0861003
 30
0.0
 40
0
 41
0
  0
VERTEX
  8
0
 10
1.93306
 20
0.0908746
 30
0.0
 40
0
 41
0
  0
VERTEX
  8
0
 10
1.93901
 20
0.101563
 30
0.0
 40
0
 41
0
  0
VERTEX
  8
0
 10
1.93901
 20
0.105089
 30
0.0
 40
0
 41
0
  0
SEQEND
 8
0
  0
POLYLINE
  8
0
 62
     173
 66
     1
 10
0
 20
0
 30
0.0
 70
     1
 40
0
 41
0
  0
VERTEX
  8
0
 10
1.94906
 20
0.855089
 30
0.0
 40
0
 41
0
  0
VERTEX
  8
0
 10
1.94906
 20
0.858669
 30
0.0
 40
0
 41
0
  0
VERTEX
  8
0
 10
1.94308
 20
0.869358
 30
0.0
 40
0
 41
0
  0
VERTEX
  8
0
 10
1.93001
 20
0.874132
 30
0.0
 40
0
 41
0
  0
VERTEX
  8
0
 10
1.91694
 20
0.869358
 30
0.0
 40
0
 41
0
  0
VERTEX
  8
0
 10
1.91103
 20
0.858669
 30
0.0
 40
0
 41
0
  0
VERTEX
  8
0
 10
1.91103
 20
0.855089
 30
0.0
 40
0
 41
0
  0
VERTEX
  8
0
 10
1.91103
 20
0.851563
 30
0.0
 40
0
 41
0
  0
VERTEX
  8
0
 10
1.91694
 20
0.840875
 30
0.0
 40
0
 41
0
  0
VERTEX
  8
0
 10
1.93001
 20
0.8361
 30
0.0
 40
0
 41
0
  0
VERTEX
  8
0
 10
1.94308
 20
0.840875
 30
0.0
 40
0
 41
0
  0
VERTEX
  8
0
 10
1.94906
 20
0.851563
 30
0.0
 40
0
 41
0
  0
VERTEX
  8
0
 10
1.94906
 20
0.855089
 30
0.0
 40
0
 41
0
  0
SEQEND
 8
0
  0
POLYLINE
  8
0
 62
     173
 66
     1
 10
0
 20
0
 30
0.0
 70
     1
 40
0
 41
0
  0
VERTEX
  8
0
 10
1.94906
 20
0.7551
 30
0.0
 40
0
 41
0
  0
VERTEX
  8
0
 10
1.94906
 20
0.758681
 30
0.0
 40
0
 41
0
  0
VERTEX
  8
0
 10
1.94308
 20
0.769368
 30
0.0
 40
0
 41
0
  0
VERTEX
  8
0
 10
1.93001
 20
0.774143
 30
0.0
 40
0
 41
0
  0
VERTEX
  8
0
 10
1.91694
 20
0.769368
 30
0.0
 40
0
 41
0
  0
VERTEX
  8
0
 10
1.91103
 20
0.758681
 30
0.0
 40
0
 41
0
  0
VERTEX
  8
0
 10
1.91103
 20
0.7551
 30
0.0
 40
0
 41
0
  0
VERTEX
  8
0
 10
1.91103
 20
0.751574
 30
0.0
 40
0
 41
0
  0
VERTEX
  8
0
 10
1.91694
 20
0.740886
 30
0.0
 40
0
 41
0
  0
VERTEX
  8
0
 10
1.93001
 20
0.736111
 30
0.0
 40
0
 41
0
  0
VERTEX
  8
0
 10
1.94308
 20
0.740886
 30
0.0
 40
0
 41
0
  0
VERTEX
  8
0
 10
1.94906
 20
0.751574
 30
0.0
 40
0
 41
0
  0
VERTEX
  8
0
 10
1.94906
 20
0.7551
 30
0.0
 40
0
 41
0
  0
SEQEND
 8
0
  0
POLYLINE
  8
0
 62
     173
 66
     1
 10
0
 20
0
 30
0.0
 70
     1
 40
0
 41
0
  0
VERTEX
  8
0
 10
2.03907
 20
0.605089
 30
0.0
 40
0
 41
0
  0
VERTEX
  8
0
 10
2.03907
 20
0.608669
 30
0.0
 40
0
 41
0
  0
VERTEX
  8
0
 10
2.0331
 20
0.619358
 30
0.0
 40
0
 41
0
  0
VERTEX
  8
0
 10
2.02001
 20
0.624132
 30
0.0
 40
0
 41
0
  0
VERTEX
  8
0
 10
2.00694
 20
0.619358
 30
0.0
 40
0
 41
0
  0
VERTEX
  8
0
 10
2.00103
 20
0.608669
 30
0.0
 40
0
 41
0
  0
VERTEX
  8
0
 10
2.00103
 20
0.605089
 30
0.0
 40
0
 41
0
  0
VERTEX
  8
0
 10
2.00103
 20
0.601563
 30
0.0
 40
0
 41
0
  0
VERTEX
  8
0
 10
2.00694
 20
0.590875
 30
0.0
 40
0
 41
0
  0
VERTEX
  8
0
 10
2.02001
 20
0.5861
 30
0.0
 40
0
 41
0
  0
VERTEX
  8
0
 10
2.0331
 20
0.590875
 30
0.0
 40
0
 41
0
  0
VERTEX
  8
0
 10
2.03907
 20
0.601563
 30
0.0
 40
0
 41
0
  0
VERTEX
  8
0
 10
2.03907
 20
0.605089
 30
0.0
 40
0
 41
0
  0
SEQEND
 8
0
  0
POLYLINE
  8
0
 62
     173
 66
     1
 10
0
 20
0
 30
0.0
 70
     1
 40
0
 41
0
  0
VERTEX
  8
0
 10
2.03907
 20
0.105089
 30
0.0
 40
0
 41
0
  0
VERTEX
  8
0
 10
2.03907
 20
0.10867
 30
0.0
 40
0
 41
0
  0
VERTEX
  8
0
 10
2.0331
 20
0.119358
 30
0.0
 40
0
 41
0
  0
VERTEX
  8
0
 10
2.02001
 20
0.124132
 30
0.0
 40
0
 41
0
  0
VERTEX
  8
0
 10
2.00694
 20
0.119358
 30
0.0
 40
0
 41
0
  0
VERTEX
  8
0
 10
2.00103
 20
0.10867
 30
0.0
 40
0
 41
0
  0
VERTEX
  8
0
 10
2.00103
 20
0.105089
 30
0.0
 40
0
 41
0
  0
VERTEX
  8
0
 10
2.00103
 20
0.101563
 30
0.0
 40
0
 41
0
  0
VERTEX
  8
0
 10
2.00694
 20
0.0908746
 30
0.0
 40
0
 41
0
  0
VERTEX
  8
0
 10
2.02001
 20
0.0861003
 30
0.0
 40
0
 41
0
  0
VERTEX
  8
0
 10
2.0331
 20
0.0908746
 30
0.0
 40
0
 41
0
  0
VERTEX
  8
0
 10
2.03907
 20
0.101563
 30
0.0
 40
0
 41
0
  0
VERTEX
  8
0
 10
2.03907
 20
0.105089
 30
0.0
 40
0
 41
0
  0
SEQEND
 8
0
  0
POLYLINE
  8
0
 62
     173
 66
     1
 10
0
 20
0
 30
0.0
 70
     1
 40
0
 41
0
  0
VERTEX
  8
0
 10
2.04904
 20
0.855089
 30
0.0
 40
0
 41
0
  0
VERTEX
  8
0
 10
2.04904
 20
0.858669
 30
0.0
 40
0
 41
0
  0
VERTEX
  8
0
 10
2.04308
 20
0.869358
 30
0.0
 40
0
 41
0
  0
VERTEX
  8
0
 10
2.03
 20
0.874132
 30
0.0
 40
0
 41
0
  0
VERTEX
  8
0
 10
2.01693
 20
0.869358
 30
0.0
 40
0
 41
0
  0
VERTEX
  8
0
 10
2.01101
 20
0.858669
 30
0.0
 40
0
 41
0
  0
VERTEX
  8
0
 10
2.01101
 20
0.855089
 30
0.0
 40
0
 41
0
  0
VERTEX
  8
0
 10
2.01101
 20
0.851563
 30
0.0
 40
0
 41
0
  0
VERTEX
  8
0
 10
2.01693
 20
0.840875
 30
0.0
 40
0
 41
0
  0
VERTEX
  8
0
 10
2.03
 20
0.8361
 30
0.0
 40
0
 41
0
  0
VERTEX
  8
0
 10
2.04308
 20
0.840875
 30
0.0
 40
0
 41
0
  0
VERTEX
  8
0
 10
2.04904
 20
0.851563
 30
0.0
 40
0
 41
0
  0
VERTEX
  8
0
 10
2.04904
 20
0.855089
 30
0.0
 40
0
 41
0
  0
SEQEND
 8
0
  0
POLYLINE
  8
0
 62
     173
 66
     1
 10
0
 20
0
 30
0.0
 70
     1
 40
0
 41
0
  0
VERTEX
  8
0
 10
2.04904
 20
0.7551
 30
0.0
 40
0
 41
0
  0
VERTEX
  8
0
 10
2.04904
 20
0.758681
 30
0.0
 40
0
 41
0
  0
VERTEX
  8
0
 10
2.04308
 20
0.769368
 30
0.0
 40
0
 41
0
  0
VERTEX
  8
0
 10
2.03
 20
0.774143
 30
0.0
 40
0
 41
0
  0
VERTEX
  8
0
 10
2.01693
 20
0.769368
 30
0.0
 40
0
 41
0
  0
VERTEX
  8
0
 10
2.01101
 20
0.758681
 30
0.0
 40
0
 41
0
  0
VERTEX
  8
0
 10
2.01101
 20
0.7551
 30
0.0
 40
0
 41
0
  0
VERTEX
  8
0
 10
2.01101
 20
0.751574
 30
0.0
 40
0
 41
0
  0
VERTEX
  8
0
 10
2.01693
 20
0.740886
 30
0.0
 40
0
 41
0
  0
VERTEX
  8
0
 10
2.03
 20
0.736111
 30
0.0
 40
0
 41
0
  0
VERTEX
  8
0
 10
2.04308
 20
0.740886
 30
0.0
 40
0
 41
0
  0
VERTEX
  8
0
 10
2.04904
 20
0.751574
 30
0.0
 40
0
 41
0
  0
VERTEX
  8
0
 10
2.04904
 20
0.7551
 30
0.0
 40
0
 41
0
  0
SEQEND
 8
0
  0
POLYLINE
  8
0
 62
     173
 66
     1
 10
0
 20
0
 30
0.0
 70
     1
 40
0
 41
0
  0
VERTEX
  8
0
 10
2.13906
 20
0.605089
 30
0.0
 40
0
 41
0
  0
VERTEX
  8
0
 10
2.13906
 20
0.608669
 30
0.0
 40
0
 41
0
  0
VERTEX
  8
0
 10
2.13308
 20
0.619358
 30
0.0
 40
0
 41
0
  0
VERTEX
  8
0
 10
2.12001
 20
0.624132
 30
0.0
 40
0
 41
0
  0
VERTEX
  8
0
 10
2.10693
 20
0.619358
 30
0.0
 40
0
 41
0
  0
VERTEX
  8
0
 10
2.10101
 20
0.608669
 30
0.0
 40
0
 41
0
  0
VERTEX
  8
0
 10
2.10101
 20
0.605089
 30
0.0
 40
0
 41
0
  0
VERTEX
  8
0
 10
2.10101
 20
0.601563
 30
0.0
 40
0
 41
0
  0
VERTEX
  8
0
 10
2.10693
 20
0.590875
 30
0.0
 40
0
 41
0
  0
VERTEX
  8
0
 10
2.12001
 20
0.5861
 30
0.0
 40
0
 41
0
  0
VERTEX
  8
0
 10
2.13308
 20
0.590875
 30
0.0
 40
0
 41
0
  0
VERTEX
  8
0
 10
2.13906
 20
0.601563
 30
0.0
 40
0
 41
0
  0
VERTEX
  8
0
 10
2.13906
 20
0.605089
 30
0.0
 40
0
 41
0
  0
SEQEND
 8
0
  0
POLYLINE
  8
0
 62
     173
 66
     1
 10
0
 20
0
 30
0.0
 70
     1
 40
0
 41
0
  0
VERTEX
  8
0
 10
2.13906
 20
0.105089
 30
0.0
 40
0
 41
0
  0
VERTEX
  8
0
 10
2.13906
 20
0.10867
 30
0.0
 40
0
 41
0
  0
VERTEX
  8
0
 10
2.13308
 20
0.119358
 30
0.0
 40
0
 41
0
  0
VERTEX
  8
0
 10
2.12001
 20
0.124132
 30
0.0
 40
0
 41
0
  0
VERTEX
  8
0
 10
2.10693
 20
0.119358
 30
0.0
 40
0
 41
0
  0
VERTEX
  8
0
 10
2.10101
 20
0.10867
 30
0.0
 40
0
 41
0
  0
VERTEX
  8
0
 10
2.10101
 20
0.105089
 30
0.0
 40
0
 41
0
  0
VERTEX
  8
0
 10
2.10101
 20
0.101563
 30
0.0
 40
0
 41
0
  0
VERTEX
  8
0
 10
2.10693
 20
0.0908746
 30
0.0
 40
0
 41
0
  0
VERTEX
  8
0
 10
2.12001
 20
0.0861003
 30
0.0
 40
0
 41
0
  0
VERTEX
  8
0
 10
2.13308
 20
0.0908746
 30
0.0
 40
0
 41
0
  0
VERTEX
  8
0
 10
2.13906
 20
0.101563
 30
0.0
 40
0
 41
0
  0
VERTEX
  8
0
 10
2.13906
 20
0.105089
 30
0.0
 40
0
 41
0
  0
SEQEND
 8
0
  0
POLYLINE
  8
0
 62
     173
 66
     1
 10
0
 20
0
 30
0.0
 70
     1
 40
0
 41
0
  0
VERTEX
  8
0
 10
2.14903
 20
0.855089
 30
0.0
 40
0
 41
0
  0
VERTEX
  8
0
 10
2.14903
 20
0.858669
 30
0.0
 40
0
 41
0
  0
VERTEX
  8
0
 10
2.14307
 20
0.869358
 30
0.0
 40
0
 41
0
  0
VERTEX
  8
0
 10
2.13004
 20
0.874132
 30
0.0
 40
0
 41
0
  0
VERTEX
  8
0
 10
2.11697
 20
0.869358
 30
0.0
 40
0
 41
0
  0
VERTEX
  8
0
 10
2.11106
 20
0.858669
 30
0.0
 40
0
 41
0
  0
VERTEX
  8
0
 10
2.11106
 20
0.855089
 30
0.0
 40
0
 41
0
  0
VERTEX
  8
0
 10
2.11106
 20
0.851563
 30
0.0
 40
0
 41
0
  0
VERTEX
  8
0
 10
2.11697
 20
0.840875
 30
0.0
 40
0
 41
0
  0
VERTEX
  8
0
 10
2.13004
 20
0.8361
 30
0.0
 40
0
 41
0
  0
VERTEX
  8
0
 10
2.14307
 20
0.840875
 30
0.0
 40
0
 41
0
  0
VERTEX
  8
0
 10
2.14903
 20
0.851563
 30
0.0
 40
0
 41
0
  0
VERTEX
  8
0
 10
2.14903
 20
0.855089
 30
0.0
 40
0
 41
0
  0
SEQEND
 8
0
  0
POLYLINE
  8
0
 62
     173
 66
     1
 10
0
 20
0
 30
0.0
 70
     1
 40
0
 41
0
  0
VERTEX
  8
0
 10
2.14903
 20
0.7551
 30
0.0
 40
0
 41
0
  0
VERTEX
  8
0
 10
2.14903
 20
0.758681
 30
0.0
 40
0
 41
0
  0
VERTEX
  8
0
 10
2.14307
 20
0.769368
 30
0.0
 40
0
 41
0
  0
VERTEX
  8
0
 10
2.13004
 20
0.774143
 30
0.0
 40
0
 41
0
  0
VERTEX
  8
0
 10
2.11697
 20
0.769368
 30
0.0
 40
0
 41
0
  0
VERTEX
  8
0
 10
2.11106
 20
0.758681
 30
0.0
 40
0
 41
0
  0
VERTEX
  8
0
 10
2.11106
 20
0.7551
 30
0.0
 40
0
 41
0
  0
VERTEX
  8
0
 10
2.11106
 20
0.751574
 30
0.0
 40
0
 41
0
  0
VERTEX
  8
0
 10
2.11697
 20
0.740886
 30
0.0
 40
0
 41
0
  0
VERTEX
  8
0
 10
2.13004
 20
0.736111
 30
0.0
 40
0
 41
0
  0
VERTEX
  8
0
 10
2.14307
 20
0.740886
 30
0.0
 40
0
 41
0
  0
VERTEX
  8
0
 10
2.14903
 20
0.751574
 30
0.0
 40
0
 41
0
  0
VERTEX
  8
0
 10
2.14903
 20
0.7551
 30
0.0
 40
0
 41
0
  0
SEQEND
 8
0
  0
POLYLINE
  8
0
 62
     173
 66
     1
 10
0
 20
0
 30
0.0
 70
     1
 40
0
 41
0
  0
VERTEX
  8
0
 10
2.23904
 20
0.605089
 30
0.0
 40
0
 41
0
  0
VERTEX
  8
0
 10
2.23904
 20
0.608669
 30
0.0
 40
0
 41
0
  0
VERTEX
  8
0
 10
2.23307
 20
0.619358
 30
0.0
 40
0
 41
0
  0
VERTEX
  8
0
 10
2.22006
 20
0.624132
 30
0.0
 40
0
 41
0
  0
VERTEX
  8
0
 10
2.20697
 20
0.619358
 30
0.0
 40
0
 41
0
  0
VERTEX
  8
0
 10
2.20107
 20
0.608669
 30
0.0
 40
0
 41
0
  0
VERTEX
  8
0
 10
2.20107
 20
0.605089
 30
0.0
 40
0
 41
0
  0
VERTEX
  8
0
 10
2.20107
 20
0.601563
 30
0.0
 40
0
 41
0
  0
VERTEX
  8
0
 10
2.20697
 20
0.590875
 30
0.0
 40
0
 41
0
  0
VERTEX
  8
0
 10
2.22006
 20
0.5861
 30
0.0
 40
0
 41
0
  0
VERTEX
  8
0
 10
2.23307
 20
0.590875
 30
0.0
 40
0
 41
0
  0
VERTEX
  8
0
 10
2.23904
 20
0.601563
 30
0.0
 40
0
 41
0
  0
VERTEX
  8
0
 10
2.23904
 20
0.605089
 30
0.0
 40
0
 41
0
  0
SEQEND
 8
0
  0
POLYLINE
  8
0
 62
     173
 66
     1
 10
0
 20
0
 30
0.0
 70
     1
 40
0
 41
0
  0
VERTEX
  8
0
 10
2.23904
 20
0.105089
 30
0.0
 40
0
 41
0
  0
VERTEX
  8
0
 10
2.23904
 20
0.10867
 30
0.0
 40
0
 41
0
  0
VERTEX
  8
0
 10
2.23307
 20
0.119358
 30
0.0
 40
0
 41
0
  0
VERTEX
  8
0
 10
2.22006
 20
0.124132
 30
0.0
 40
0
 41
0
  0
VERTEX
  8
0
 10
2.20697
 20
0.119358
 30
0.0
 40
0
 41
0
  0
VERTEX
  8
0
 10
2.20107
 20
0.10867
 30
0.0
 40
0
 41
0
  0
VERTEX
  8
0
 10
2.20107
 20
0.105089
 30
0.0
 40
0
 41
0
  0
VERTEX
  8
0
 10
2.20107
 20
0.101563
 30
0.0
 40
0
 41
0
  0
VERTEX
  8
0
 10
2.20697
 20
0.0908746
 30
0.0
 40
0
 41
0
  0
VERTEX
  8
0
 10
2.22006
 20
0.0861003
 30
0.0
 40
0
 41
0
  0
VERTEX
  8
0
 10
2.23307
 20
0.0908746
 30
0.0
 40
0
 41
0
  0
VERTEX
  8
0
 10
2.23904
 20
0.101563
 30
0.0
 40
0
 41
0
  0
VERTEX
  8
0
 10
2.23904
 20
0.105089
 30
0.0
 40
0
 41
0
  0
SEQEND
 8
0
  0
POLYLINE
  8
0
 62
     173
 66
     1
 10
0
 20
0
 30
0.0
 70
     1
 40
0
 41
0
  0
VERTEX
  8
0
 10
2.24903
 20
0.855089
 30
0.0
 40
0
 41
0
  0
VERTEX
  8
0
 10
2.24903
 20
0.858669
 30
0.0
 40
0
 41
0
  0
VERTEX
  8
0
 10
2.24306
 20
0.869358
 30
0.0
 40
0
 41
0
  0
VERTEX
  8
0
 10
2.23004
 20
0.874132
 30
0.0
 40
0
 41
0
  0
VERTEX
  8
0
 10
2.21696
 20
0.869358
 30
0.0
 40
0
 41
0
  0
VERTEX
  8
0
 10
2.21104
 20
0.858669
 30
0.0
 40
0
 41
0
  0
VERTEX
  8
0
 10
2.21104
 20
0.855089
 30
0.0
 40
0
 41
0
  0
VERTEX
  8
0
 10
2.21104
 20
0.851563
 30
0.0
 40
0
 41
0
  0
VERTEX
  8
0
 10
2.21696
 20
0.840875
 30
0.0
 40
0
 41
0
  0
VERTEX
  8
0
 10
2.23004
 20
0.8361
 30
0.0
 40
0
 41
0
  0
VERTEX
  8
0
 10
2.24306
 20
0.840875
 30
0.0
 40
0
 41
0
  0
VERTEX
  8
0
 10
2.24903
 20
0.851563
 30
0.0
 40
0
 41
0
  0
VERTEX
  8
0
 10
2.24903
 20
0.855089
 30
0.0
 40
0
 41
0
  0
SEQEND
 8
0
  0
POLYLINE
  8
0
 62
     173
 66
     1
 10
0
 20
0
 30
0.0
 70
     1
 40
0
 41
0
  0
VERTEX
  8
0
 10
2.24903
 20
0.7551
 30
0.0
 40
0
 41
0
  0
VERTEX
  8
0
 10
2.24903
 20
0.758681
 30
0.0
 40
0
 41
0
  0
VERTEX
  8
0
 10
2.24306
 20
0.769368
 30
0.0
 40
0
 41
0
  0
VERTEX
  8
0
 10
2.23004
 20
0.774143
 30
0.0
 40
0
 41
0
  0
VERTEX
  8
0
 10
2.21696
 20
0.769368
 30
0.0
 40
0
 41
0
  0
VERTEX
  8
0
 10
2.21104
 20
0.758681
 30
0.0
 40
0
 41
0
  0
VERTEX
  8
0
 10
2.21104
 20
0.7551
 30
0.0
 40
0
 41
0
  0
VERTEX
  8
0
 10
2.21104
 20
0.751574
 30
0.0
 40
0
 41
0
  0
VERTEX
  8
0
 10
2.21696
 20
0.740886
 30
0.0
 40
0
 41
0
  0
VERTEX
  8
0
 10
2.23004
 20
0.736111
 30
0.0
 40
0
 41
0
  0
VERTEX
  8
0
 10
2.24306
 20
0.740886
 30
0.0
 40
0
 41
0
  0
VERTEX
  8
0
 10
2.24903
 20
0.751574
 30
0.0
 40
0
 41
0
  0
VERTEX
  8
0
 10
2.24903
 20
0.7551
 30
0.0
 40
0
 41
0
  0
SEQEND
 8
0
  0
POLYLINE
  8
0
 62
     173
 66
     1
 10
0
 20
0
 30
0.0
 70
     1
 40
0
 41
0
  0
VERTEX
  8
0
 10
2.33903
 20
0.605089
 30
0.0
 40
0
 41
0
  0
VERTEX
  8
0
 10
2.33903
 20
0.608669
 30
0.0
 40
0
 41
0
  0
VERTEX
  8
0
 10
2.33306
 20
0.619358
 30
0.0
 40
0
 41
0
  0
VERTEX
  8
0
 10
2.32004
 20
0.624132
 30
0.0
 40
0
 41
0
  0
VERTEX
  8
0
 10
2.30697
 20
0.619358
 30
0.0
 40
0
 41
0
  0
VERTEX
  8
0
 10
2.30106
 20
0.608669
 30
0.0
 40
0
 41
0
  0
VERTEX
  8
0
 10
2.30106
 20
0.605089
 30
0.0
 40
0
 41
0
  0
VERTEX
  8
0
 10
2.30106
 20
0.601563
 30
0.0
 40
0
 41
0
  0
VERTEX
  8
0
 10
2.30697
 20
0.590875
 30
0.0
 40
0
 41
0
  0
VERTEX
  8
0
 10
2.32004
 20
0.5861
 30
0.0
 40
0
 41
0
  0
VERTEX
  8
0
 10
2.33306
 20
0.590875
 30
0.0
 40
0
 41
0
  0
VERTEX
  8
0
 10
2.33903
 20
0.601563
 30
0.0
 40
0
 41
0
  0
VERTEX
  8
0
 10
2.33903
 20
0.605089
 30
0.0
 40
0
 41
0
  0
SEQEND
 8
0
  0
POLYLINE
  8
0
 62
     173
 66
     1
 10
0
 20
0
 30
0.0
 70
     1
 40
0
 41
0
  0
VERTEX
  8
0
 10
2.33903
 20
0.105089
 30
0.0
 40
0
 41
0
  0
VERTEX
  8
0
 10
2.33903
 20
0.10867
 30
0.0
 40
0
 41
0
  0
VERTEX
  8
0
 10
2.33306
 20
0.119358
 30
0.0
 40
0
 41
0
  0
VERTEX
  8
0
 10
2.32004
 20
0.124132
 30
0.0
 40
0
 41
0
  0
VERTEX
  8
0
 10
2.30697
 20
0.119358
 30
0.0
 40
0
 41
0
  0
VERTEX
  8
0
 10
2.30106
 20
0.10867
 30
0.0
 40
0
 41
0
  0
VERTEX
  8
0
 10
2.30106
 20
0.105089
 30
0.0
 40
0
 41
0
  0
VERTEX
  8
0
 10
2.30106
 20
0.101563
 30
0.0
 40
0
 41
0
  0
VERTEX
  8
0
 10
2.30697
 20
0.0908746
 30
0.0
 40
0
 41
0
  0
VERTEX
  8
0
 10
2.32004
 20
0.0861003
 30
0.0
 40
0
 41
0
  0
VERTEX
  8
0
 10
2.33306
 20
0.0908746
 30
0.0
 40
0
 41
0
  0
VERTEX
  8
0
 10
2.33903
 20
0.101563
 30
0.0
 40
0
 41
0
  0
VERTEX
  8
0
 10
2.33903
 20
0.105089
 30
0.0
 40
0
 41
0
  0
SEQEND
 8
0
  0
POLYLINE
  8
0
 62
     173
 66
     1
 10
0
 20
0
 30
0.0
 70
     1
 40
0
 41
0
  0
VERTEX
  8
0
 10
2.43901
 20
0.605089
 30
0.0
 40
0
 41
0
  0
VERTEX
  8
0
 10
2.43901
 20
0.608669
 30
0.0
 40
0
 41
0
  0
VERTEX
  8
0
 10
2.43306
 20
0.619358
 30
0.0
 40
0
 41
0
  0
VERTEX
  8
0
 10
2.42003
 20
0.624132
 30
0.0
 40
0
 41
0
  0
VERTEX
  8
0
 10
2.40696
 20
0.619358
 30
0.0
 40
0
 41
0
  0
VERTEX
  8
0
 10
2.40104
 20
0.608669
 30
0.0
 40
0
 41
0
  0
VERTEX
  8
0
 10
2.40104
 20
0.605089
 30
0.0
 40
0
 41
0
  0
VERTEX
  8
0
 10
2.40104
 20
0.601563
 30
0.0
 40
0
 41
0
  0
VERTEX
  8
0
 10
2.40696
 20
0.590875
 30
0.0
 40
0
 41
0
  0
VERTEX
  8
0
 10
2.42003
 20
0.5861
 30
0.0
 40
0
 41
0
  0
VERTEX
  8
0
 10
2.43306
 20
0.590875
 30
0.0
 40
0
 41
0
  0
VERTEX
  8
0
 10
2.43901
 20
0.601563
 30
0.0
 40
0
 41
0
  0
VERTEX
  8
0
 10
2.43901
 20
0.605089
 30
0.0
 40
0
 41
0
  0
SEQEND
 8
0
  0
POLYLINE
  8
0
 62
     173
 66
     1
 10
0
 20
0
 30
0.0
 70
     1
 40
0
 41
0
  0
VERTEX
  8
0
 10
2.43901
 20
0.105089
 30
0.0
 40
0
 41
0
  0
VERTEX
  8
0
 10
2.43901
 20
0.10867
 30
0.0
 40
0
 41
0
  0
VERTEX
  8
0
 10
2.43306
 20
0.119358
 30
0.0
 40
0
 41
0
  0
VERTEX
  8
0
 10
2.42003
 20
0.124132
 30
0.0
 40
0
 41
0
  0
VERTEX
  8
0
 10
2.40696
 20
0.119358
 30
0.0
 40
0
 41
0
  0
VERTEX
  8
0
 10
2.40104
 20
0.10867
 30
0.0
 40
0
 41
0
  0
VERTEX
  8
0
 10
2.40104
 20
0.105089
 30
0.0
 40
0
 41
0
  0
VERTEX
  8
0
 10
2.40104
 20
0.101563
 30
0.0
 40
0
 41
0
  0
VERTEX
  8
0
 10
2.40696
 20
0.0908746
 30
0.0
 40
0
 41
0
  0
VERTEX
  8
0
 10
2.42003
 20
0.0861003
 30
0.0
 40
0
 41
0
  0
VERTEX
  8
0
 10
2.43306
 20
0.0908746
 30
0.0
 40
0
 41
0
  0
VERTEX
  8
0
 10
2.43901
 20
0.101563
 30
0.0
 40
0
 41
0
  0
VERTEX
  8
0
 10
2.43901
 20
0.105089
 30
0.0
 40
0
 41
0
  0
SEQEND
 8
0
  0
POLYLINE
  8
0
 62
     173
 66
     1
 10
0
 20
0
 30
0.0
 70
     1
 40
0
 41
0
  0
VERTEX
  8
0
 10
2.53907
 20
0.855089
 30
0.0
 40
0
 41
0
  0
VERTEX
  8
0
 10
2.53907
 20
0.858669
 30
0.0
 40
0
 41
0
  0
VERTEX
  8
0
 10
2.5331
 20
0.869358
 30
0.0
 40
0
 41
0
  0
VERTEX
  8
0
 10
2.52001
 20
0.874132
 30
0.0
 40
0
 41
0
  0
VERTEX
  8
0
 10
2.50694
 20
0.869358
 30
0.0
 40
0
 41
0
  0
VERTEX
  8
0
 10
2.50103
 20
0.858669
 30
0.0
 40
0
 41
0
  0
VERTEX
  8
0
 10
2.50103
 20
0.855089
 30
0.0
 40
0
 41
0
  0
VERTEX
  8
0
 10
2.50103
 20
0.851563
 30
0.0
 40
0
 41
0
  0
VERTEX
  8
0
 10
2.50694
 20
0.840875
 30
0.0
 40
0
 41
0
  0
VERTEX
  8
0
 10
2.52001
 20
0.8361
 30
0.0
 40
0
 41
0
  0
VERTEX
  8
0
 10
2.5331
 20
0.840875
 30
0.0
 40
0
 41
0
  0
VERTEX
  8
0
 10
2.53907
 20
0.851563
 30
0.0
 40
0
 41
0
  0
VERTEX
  8
0
 10
2.53907
 20
0.855089
 30
0.0
 40
0
 41
0
  0
SEQEND
 8
0
  0
POLYLINE
  8
0
 62
     173
 66
     1
 10
0
 20
0
 30
0.0
 70
     1
 40
0
 41
0
  0
VERTEX
  8
0
 10
2.53907
 20
0.7551
 30
0.0
 40
0
 41
0
  0
VERTEX
  8
0
 10
2.53907
 20
0.758681
 30
0.0
 40
0
 41
0
  0
VERTEX
  8
0
 10
2.5331
 20
0.769368
 30
0.0
 40
0
 41
0
  0
VERTEX
  8
0
 10
2.52001
 20
0.774143
 30
0.0
 40
0
 41
0
  0
VERTEX
  8
0
 10
2.50694
 20
0.769368
 30
0.0
 40
0
 41
0
  0
VERTEX
  8
0
 10
2.50103
 20
0.758681
 30
0.0
 40
0
 41
0
  0
VERTEX
  8
0
 10
2.50103
 20
0.7551
 30
0.0
 40
0
 41
0
  0
VERTEX
  8
0
 10
2.50103
 20
0.751574
 30
0.0
 40
0
 41
0
  0
VERTEX
  8
0
 10
2.50694
 20
0.740886
 30
0.0
 40
0
 41
0
  0
VERTEX
  8
0
 10
2.52001
 20
0.736111
 30
0.0
 40
0
 41
0
  0
VERTEX
  8
0
 10
2.5331
 20
0.740886
 30
0.0
 40
0
 41
0
  0
VERTEX
  8
0
 10
2.53907
 20
0.751574
 30
0.0
 40
0
 41
0
  0
VERTEX
  8
0
 10
2.53907
 20
0.7551
 30
0.0
 40
0
 41
0
  0
SEQEND
 8
0
  0
POLYLINE
  8
0
 62
     173
 66
     1
 10
0
 20
0
 30
0.0
 70
     1
 40
0
 41
0
  0
VERTEX
  8
0
 10
2.53907
 20
0.605089
 30
0.0
 40
0
 41
0
  0
VERTEX
  8
0
 10
2.53907
 20
0.608669
 30
0.0
 40
0
 41
0
  0
VERTEX
  8
0
 10
2.5331
 20
0.619358
 30
0.0
 40
0
 41
0
  0
VERTEX
  8
0
 10
2.52001
 20
0.624132
 30
0.0
 40
0
 41
0
  0
VERTEX
  8
0
 10
2.50694
 20
0.619358
 30
0.0
 40
0
 41
0
  0
VERTEX
  8
0
 10
2.50103
 20
0.608669
 30
0.0
 40
0
 41
0
  0
VERTEX
  8
0
 10
2.50103
 20
0.605089
 30
0.0
 40
0
 41
0
  0
VERTEX
  8
0
 10
2.50103
 20
0.601563
 30
0.0
 40
0
 41
0
  0
VERTEX
  8
0
 10
2.50694
 20
0.590875
 30
0.0
 40
0
 41
0
  0
VERTEX
  8
0
 10
2.52001
 20
0.5861
 30
0.0
 40
0
 41
0
  0
VERTEX
  8
0
 10
2.5331
 20
0.590875
 30
0.0
 40
0
 41
0
  0
VERTEX
  8
0
 10
2.53907
 20
0.601563
 30
0.0
 40
0
 41
0
  0
VERTEX
  8
0
 10
2.53907
 20
0.605089
 30
0.0
 40
0
 41
0
  0
SEQEND
 8
0
  0
POLYLINE
  8
0
 62
     173
 66
     1
 10
0
 20
0
 30
0.0
 70
     1
 40
0
 41
0
  0
VERTEX
  8
0
 10
2.53907
 20
0.105089
 30
0.0
 40
0
 41
0
  0
VERTEX
  8
0
 10
2.53907
 20
0.10867
 30
0.0
 40
0
 41
0
  0
VERTEX
  8
0
 10
2.5331
 20
0.119358
 30
0.0
 40
0
 41
0
  0
VERTEX
  8
0
 10
2.52001
 20
0.124132
 30
0.0
 40
0
 41
0
  0
VERTEX
  8
0
 10
2.50694
 20
0.119358
 30
0.0
 40
0
 41
0
  0
VERTEX
  8
0
 10
2.50103
 20
0.10867
 30
0.0
 40
0
 41
0
  0
VERTEX
  8
0
 10
2.50103
 20
0.105089
 30
0.0
 40
0
 41
0
  0
VERTEX
  8
0
 10
2.50103
 20
0.101563
 30
0.0
 40
0
 41
0
  0
VERTEX
  8
0
 10
2.50694
 20
0.0908746
 30
0.0
 40
0
 41
0
  0
VERTEX
  8
0
 10
2.52001
 20
0.0861003
 30
0.0
 40
0
 41
0
  0
VERTEX
  8
0
 10
2.5331
 20
0.0908746
 30
0.0
 40
0
 41
0
  0
VERTEX
  8
0
 10
2.53907
 20
0.101563
 30
0.0
 40
0
 41
0
  0
VERTEX
  8
0
 10
2.53907
 20
0.105089
 30
0.0
 40
0
 41
0
  0
SEQEND
 8
0
  0
POLYLINE
  8
0
 62
     173
 66
     1
 10
0
 20
0
 30
0.0
 70
     1
 40
0
 41
0
  0
VERTEX
  8
0
 10
2.63906
 20
0.855089
 30
0.0
 40
0
 41
0
  0
VERTEX
  8
0
 10
2.63906
 20
0.858669
 30
0.0
 40
0
 41
0
  0
VERTEX
  8
0
 10
2.63308
 20
0.869358
 30
0.0
 40
0
 41
0
  0
VERTEX
  8
0
 10
2.62001
 20
0.874132
 30
0.0
 40
0
 41
0
  0
VERTEX
  8
0
 10
2.60693
 20
0.869358
 30
0.0
 40
0
 41
0
  0
VERTEX
  8
0
 10
2.60101
 20
0.858669
 30
0.0
 40
0
 41
0
  0
VERTEX
  8
0
 10
2.60101
 20
0.855089
 30
0.0
 40
0
 41
0
  0
VERTEX
  8
0
 10
2.60101
 20
0.851563
 30
0.0
 40
0
 41
0
  0
VERTEX
  8
0
 10
2.60693
 20
0.840875
 30
0.0
 40
0
 41
0
  0
VERTEX
  8
0
 10
2.62001
 20
0.8361
 30
0.0
 40
0
 41
0
  0
VERTEX
  8
0
 10
2.63308
 20
0.840875
 30
0.0
 40
0
 41
0
  0
VERTEX
  8
0
 10
2.63906
 20
0.851563
 30
0.0
 40
0
 41
0
  0
VERTEX
  8
0
 10
2.63906
 20
0.855089
 30
0.0
 40
0
 41
0
  0
SEQEND
 8
0
  0
POLYLINE
  8
0
 62
     173
 66
     1
 10
0
 20
0
 30
0.0
 70
     1
 40
0
 41
0
  0
VERTEX
  8
0
 10
2.63906
 20
0.7551
 30
0.0
 40
0
 41
0
  0
VERTEX
  8
0
 10
2.63906
 20
0.758681
 30
0.0
 40
0
 41
0
  0
VERTEX
  8
0
 10
2.63308
 20
0.769368
 30
0.0
 40
0
 41
0
  0
VERTEX
  8
0
 10
2.62001
 20
0.774143
 30
0.0
 40
0
 41
0
  0
VERTEX
  8
0
 10
2.60693
 20
0.769368
 30
0.0
 40
0
 41
0
  0
VERTEX
  8
0
 10
2.60101
 20
0.758681
 30
0.0
 40
0
 41
0
  0
VERTEX
  8
0
 10
2.60101
 20
0.7551
 30
0.0
 40
0
 41
0
  0
VERTEX
  8
0
 10
2.60101
 20
0.751574
 30
0.0
 40
0
 41
0
  0
VERTEX
  8
0
 10
2.60693
 20
0.740886
 30
0.0
 40
0
 41
0
  0
VERTEX
  8
0
 10
2.62001
 20
0.736111
 30
0.0
 40
0
 41
0
  0
VERTEX
  8
0
 10
2.63308
 20
0.740886
 30
0.0
 40
0
 41
0
  0
VERTEX
  8
0
 10
2.63906
 20
0.751574
 30
0.0
 40
0
 41
0
  0
VERTEX
  8
0
 10
2.63906
 20
0.7551
 30
0.0
 40
0
 41
0
  0
SEQEND
 8
0
  0
POLYLINE
  8
0
 62
     173
 66
     1
 10
0
 20
0
 30
0.0
 70
     1
 40
0
 41
0
  0
VERTEX
  8
0
 10
2.63906
 20
0.605089
 30
0.0
 40
0
 41
0
  0
VERTEX
  8
0
 10
2.63906
 20
0.608669
 30
0.0
 40
0
 41
0
  0
VERTEX
  8
0
 10
2.63308
 20
0.619358
 30
0.0
 40
0
 41
0
  0
VERTEX
  8
0
 10
2.62001
 20
0.624132
 30
0.0
 40
0
 41
0
  0
VERTEX
  8
0
 10
2.60693
 20
0.619358
 30
0.0
 40
0
 41
0
  0
VERTEX
  8
0
 10
2.60101
 20
0.608669
 30
0.0
 40
0
 41
0
  0
VERTEX
  8
0
 10
2.60101
 20
0.605089
 30
0.0
 40
0
 41
0
  0
VERTEX
  8
0
 10
2.60101
 20
0.601563
 30
0.0
 40
0
 41
0
  0
VERTEX
  8
0
 10
2.60693
 20
0.590875
 30
0.0
 40
0
 41
0
  0
VERTEX
  8
0
 10
2.62001
 20
0.5861
 30
0.0
 40
0
 41
0
  0
VERTEX
  8
0
 10
2.63308
 20
0.590875
 30
0.0
 40
0
 41
0
  0
VERTEX
  8
0
 10
2.63906
 20
0.601563
 30
0.0
 40
0
 41
0
  0
VERTEX
  8
0
 10
2.63906
 20
0.605089
 30
0.0
 40
0
 41
0
  0
SEQEND
 8
0
  0
POLYLINE
  8
0
 62
     173
 66
     1
 10
0
 20
0
 30
0.0
 70
     1
 40
0
 41
0
  0
VERTEX
  8
0
 10
2.63906
 20
0.105089
 30
0.0
 40
0
 41
0
  0
VERTEX
  8
0
 10
2.63906
 20
0.10867
 30
0.0
 40
0
 41
0
  0
VERTEX
  8
0
 10
2.63308
 20
0.119358
 30
0.0
 40
0
 41
0
  0
VERTEX
  8
0
 10
2.62001
 20
0.124132
 30
0.0
 40
0
 41
0
  0
VERTEX
  8
0
 10
2.60693
 20
0.119358
 30
0.0
 40
0
 41
0
  0
VERTEX
  8
0
 10
2.60101
 20
0.10867
 30
0.0
 40
0
 41
0
  0
VERTEX
  8
0
 10
2.60101
 20
0.105089
 30
0.0
 40
0
 41
0
  0
VERTEX
  8
0
 10
2.60101
 20
0.101563
 30
0.0
 40
0
 41
0
  0
VERTEX
  8
0
 10
2.60693
 20
0.0908746
 30
0.0
 40
0
 41
0
  0
VERTEX
  8
0
 10
2.62001
 20
0.0861003
 30
0.0
 40
0
 41
0
  0
VERTEX
  8
0
 10
2.63308
 20
0.0908746
 30
0.0
 40
0
 41
0
  0
VERTEX
  8
0
 10
2.63906
 20
0.101563
 30
0.0
 40
0
 41
0
  0
VERTEX
  8
0
 10
2.63906
 20
0.105089
 30
0.0
 40
0
 41
0
  0
SEQEND
 8
0
  0
POLYLINE
  8
0
 62
     173
 66
     1
 10
0
 20
0
 30
0.0
 70
     1
 40
0
 41
0
  0
VERTEX
  8
0
 10
2.83903
 20
0.855089
 30
0.0
 40
0
 41
0
  0
VERTEX
  8
0
 10
2.83903
 20
0.858669
 30
0.0
 40
0
 41
0
  0
VERTEX
  8
0
 10
2.83306
 20
0.869358
 30
0.0
 40
0
 41
0
  0
VERTEX
  8
0
 10
2.82004
 20
0.874132
 30
0.0
 40
0
 41
0
  0
VERTEX
  8
0
 10
2.80697
 20
0.869358
 30
0.0
 40
0
 41
0
  0
VERTEX
  8
0
 10
2.80106
 20
0.858669
 30
0.0
 40
0
 41
0
  0
VERTEX
  8
0
 10
2.80106
 20
0.855089
 30
0.0
 40
0
 41
0
  0
VERTEX
  8
0
 10
2.80106
 20
0.851563
 30
0.0
 40
0
 41
0
  0
VERTEX
  8
0
 10
2.80697
 20
0.840875
 30
0.0
 40
0
 41
0
  0
VERTEX
  8
0
 10
2.82004
 20
0.8361
 30
0.0
 40
0
 41
0
  0
VERTEX
  8
0
 10
2.83306
 20
0.840875
 30
0.0
 40
0
 41
0
  0
VERTEX
  8
0
 10
2.83903
 20
0.851563
 30
0.0
 40
0
 41
0
  0
VERTEX
  8
0
 10
2.83903
 20
0.855089
 30
0.0
 40
0
 41
0
  0
SEQEND
 8
0
  0
POLYLINE
  8
0
 62
     173
 66
     1
 10
0
 20
0
 30
0.0
 70
     1
 40
0
 41
0
  0
VERTEX
  8
0
 10
2.83903
 20
0.105089
 30
0.0
 40
0
 41
0
  0
VERTEX
  8
0
 10
2.83903
 20
0.10867
 30
0.0
 40
0
 41
0
  0
VERTEX
  8
0
 10
2.83306
 20
0.119358
 30
0.0
 40
0
 41
0
  0
VERTEX
  8
0
 10
2.82004
 20
0.124132
 30
0.0
 40
0
 41
0
  0
VERTEX
  8
0
 10
2.80697
 20
0.119358
 30
0.0
 40
0
 41
0
  0
VERTEX
  8
0
 10
2.80106
 20
0.10867
 30
0.0
 40
0
 41
0
  0
VERTEX
  8
0
 10
2.80106
 20
0.105089
 30
0.0
 40
0
 41
0
  0
VERTEX
  8
0
 10
2.80106
 20
0.101563
 30
0.0
 40
0
 41
0
  0
VERTEX
  8
0
 10
2.80697
 20
0.0908746
 30
0.0
 40
0
 41
0
  0
VERTEX
  8
0
 10
2.82004
 20
0.0861003
 30
0.0
 40
0
 41
0
  0
VERTEX
  8
0
 10
2.83306
 20
0.0908746
 30
0.0
 40
0
 41
0
  0
VERTEX
  8
0
 10
2.83903
 20
0.101563
 30
0.0
 40
0
 41
0
  0
VERTEX
  8
0
 10
2.83903
 20
0.105089
 30
0.0
 40
0
 41
0
  0
SEQEND
 8
0
  0
POLYLINE
  8
0
 62
     173
 66
     1
 10
0
 20
0
 30
0.0
 70
     1
 40
0
 41
0
  0
VERTEX
  8
0
 10
2.93901
 20
0.855089
 30
0.0
 40
0
 41
0
  0
VERTEX
  8
0
 10
2.93901
 20
0.858669
 30
0.0
 40
0
 41
0
  0
VERTEX
  8
0
 10
2.93306
 20
0.869358
 30
0.0
 40
0
 41
0
  0
VERTEX
  8
0
 10
2.92003
 20
0.874132
 30
0.0
 40
0
 41
0
  0
VERTEX
  8
0
 10
2.90696
 20
0.869358
 30
0.0
 40
0
 41
0
  0
VERTEX
  8
0
 10
2.90104
 20
0.858669
 30
0.0
 40
0
 41
0
  0
VERTEX
  8
0
 10
2.90104
 20
0.855089
 30
0.0
 40
0
 41
0
  0
VERTEX
  8
0
 10
2.90104
 20
0.851563
 30
0.0
 40
0
 41
0
  0
VERTEX
  8
0
 10
2.90696
 20
0.840875
 30
0.0
 40
0
 41
0
  0
VERTEX
  8
0
 10
2.92003
 20
0.8361
 30
0.0
 40
0
 41
0
  0
VERTEX
  8
0
 10
2.93306
 20
0.840875
 30
0.0
 40
0
 41
0
  0
VERTEX
  8
0
 10
2.93901
 20
0.851563
 30
0.0
 40
0
 41
0
  0
VERTEX
  8
0
 10
2.93901
 20
0.855089
 30
0.0
 40
0
 41
0
  0
SEQEND
 8
0
  0
POLYLINE
  8
0
 62
     173
 66
     1
 10
0
 20
0
 30
0.0
 70
     1
 40
0
 41
0
  0
VERTEX
  8
0
 10
2.93901
 20
0.105089
 30
0.0
 40
0
 41
0
  0
VERTEX
  8
0
 10
2.93901
 20
0.10867
 30
0.0
 40
0
 41
0
  0
VERTEX
  8
0
 10
2.93306
 20
0.119358
 30
0.0
 40
0
 41
0
  0
VERTEX
  8
0
 10
2.92003
 20
0.124132
 30
0.0
 40
0
 41
0
  0
VERTEX
  8
0
 10
2.90696
 20
0.119358
 30
0.0
 40
0
 41
0
  0
VERTEX
  8
0
 10
2.90104
 20
0.10867
 30
0.0
 40
0
 41
0
  0
VERTEX
  8
0
 10
2.90104
 20
0.105089
 30
0.0
 40
0
 41
0
  0
VERTEX
  8
0
 10
2.90104
 20
0.101563
 30
0.0
 40
0
 41
0
  0
VERTEX
  8
0
 10
2.90696
 20
0.0908746
 30
0.0
 40
0
 41
0
  0
VERTEX
  8
0
 10
2.92003
 20
0.0861003
 30
0.0
 40
0
 41
0
  0
VERTEX
  8
0
 10
2.93306
 20
0.0908746
 30
0.0
 40
0
 41
0
  0
VERTEX
  8
0
 10
2.93901
 20
0.101563
 30
0.0
 40
0
 41
0
  0
VERTEX
  8
0
 10
2.93901
 20
0.105089
 30
0.0
 40
0
 41
0
  0
SEQEND
 8
0
  0
POLYLINE
  8
0
 62
     173
 66
     1
 10
0
 20
0
 30
0.0
 70
     1
 40
0
 41
0
  0
VERTEX
  8
0
 10
3.03907
 20
0.855089
 30
0.0
 40
0
 41
0
  0
VERTEX
  8
0
 10
3.03907
 20
0.858669
 30
0.0
 40
0
 41
0
  0
VERTEX
  8
0
 10
3.0331
 20
0.869358
 30
0.0
 40
0
 41
0
  0
VERTEX
  8
0
 10
3.02001
 20
0.874132
 30
0.0
 40
0
 41
0
  0
VERTEX
  8
0
 10
3.00694
 20
0.869358
 30
0.0
 40
0
 41
0
  0
VERTEX
  8
0
 10
3.00103
 20
0.858669
 30
0.0
 40
0
 41
0
  0
VERTEX
  8
0
 10
3.00103
 20
0.855089
 30
0.0
 40
0
 41
0
  0
VERTEX
  8
0
 10
3.00103
 20
0.851563
 30
0.0
 40
0
 41
0
  0
VERTEX
  8
0
 10
3.00694
 20
0.840875
 30
0.0
 40
0
 41
0
  0
VERTEX
  8
0
 10
3.02001
 20
0.8361
 30
0.0
 40
0
 41
0
  0
VERTEX
  8
0
 10
3.0331
 20
0.840875
 30
0.0
 40
0
 41
0
  0
VERTEX
  8
0
 10
3.03907
 20
0.851563
 30
0.0
 40
0
 41
0
  0
VERTEX
  8
0
 10
3.03907
 20
0.855089
 30
0.0
 40
0
 41
0
  0
SEQEND
 8
0
  0
POLYLINE
  8
0
 62
     173
 66
     1
 10
0
 20
0
 30
0.0
 70
     1
 40
0
 41
0
  0
VERTEX
  8
0
 10
3.03907
 20
0.105089
 30
0.0
 40
0
 41
0
  0
VERTEX
  8
0
 10
3.03907
 20
0.10867
 30
0.0
 40
0
 41
0
  0
VERTEX
  8
0
 10
3.0331
 20
0.119358
 30
0.0
 40
0
 41
0
  0
VERTEX
  8
0
 10
3.02001
 20
0.124132
 30
0.0
 40
0
 41
0
  0
VERTEX
  8
0
 10
3.00694
 20
0.119358
 30
0.0
 40
0
 41
0
  0
VERTEX
  8
0
 10
3.00103
 20
0.10867
 30
0.0
 40
0
 41
0
  0
VERTEX
  8
0
 10
3.00103
 20
0.105089
 30
0.0
 40
0
 41
0
  0
VERTEX
  8
0
 10
3.00103
 20
0.101563
 30
0.0
 40
0
 41
0
  0
VERTEX
  8
0
 10
3.00694
 20
0.0908746
 30
0.0
 40
0
 41
0
  0
VERTEX
  8
0
 10
3.02001
 20
0.0861003
 30
0.0
 40
0
 41
0
  0
VERTEX
  8
0
 10
3.0331
 20
0.0908746
 30
0.0
 40
0
 41
0
  0
VERTEX
  8
0
 10
3.03907
 20
0.101563
 30
0.0
 40
0
 41
0
  0
VERTEX
  8
0
 10
3.03907
 20
0.105089
 30
0.0
 40
0
 41
0
  0
SEQEND
 8
0
  0
POLYLINE
  8
0
 62
     173
 66
     1
 10
0
 20
0
 30
0.0
 70
     1
 40
0
 41
0
  0
VERTEX
  8
0
 10
3.13906
 20
0.855089
 30
0.0
 40
0
 41
0
  0
VERTEX
  8
0
 10
3.13906
 20
0.858669
 30
0.0
 40
0
 41
0
  0
VERTEX
  8
0
 10
3.13308
 20
0.869358
 30
0.0
 40
0
 41
0
  0
VERTEX
  8
0
 10
3.12001
 20
0.874132
 30
0.0
 40
0
 41
0
  0
VERTEX
  8
0
 10
3.10693
 20
0.869358
 30
0.0
 40
0
 41
0
  0
VERTEX
  8
0
 10
3.10101
 20
0.858669
 30
0.0
 40
0
 41
0
  0
VERTEX
  8
0
 10
3.10101
 20
0.855089
 30
0.0
 40
0
 41
0
  0
VERTEX
  8
0
 10
3.10101
 20
0.851563
 30
0.0
 40
0
 41
0
  0
VERTEX
  8
0
 10
3.10693
 20
0.840875
 30
0.0
 40
0
 41
0
  0
VERTEX
  8
0
 10
3.12001
 20
0.8361
 30
0.0
 40
0
 41
0
  0
VERTEX
  8
0
 10
3.13308
 20
0.840875
 30
0.0
 40
0
 41
0
  0
VERTEX
  8
0
 10
3.13906
 20
0.851563
 30
0.0
 40
0
 41
0
  0
VERTEX
  8
0
 10
3.13906
 20
0.855089
 30
0.0
 40
0
 41
0
  0
SEQEND
 8
0
  0
POLYLINE
  8
0
 62
     173
 66
     1
 10
0
 20
0
 30
0.0
 70
     1
 40
0
 41
0
  0
VERTEX
  8
0
 10
3.13906
 20
0.105089
 30
0.0
 40
0
 41
0
  0
VERTEX
  8
0
 10
3.13906
 20
0.10867
 30
0.0
 40
0
 41
0
  0
VERTEX
  8
0
 10
3.13308
 20
0.119358
 30
0.0
 40
0
 41
0
  0
VERTEX
  8
0
 10
3.12001
 20
0.124132
 30
0.0
 40
0
 41
0
  0
VERTEX
  8
0
 10
3.10693
 20
0.119358
 30
0.0
 40
0
 41
0
  0
VERTEX
  8
0
 10
3.10101
 20
0.10867
 30
0.0
 40
0
 41
0
  0
VERTEX
  8
0
 10
3.10101
 20
0.105089
 30
0.0
 40
0
 41
0
  0
VERTEX
  8
0
 10
3.10101
 20
0.101563
 30
0.0
 40
0
 41
0
  0
VERTEX
  8
0
 10
3.10693
 20
0.0908746
 30
0.0
 40
0
 41
0
  0
VERTEX
  8
0
 10
3.12001
 20
0.0861003
 30
0.0
 40
0
 41
0
  0
VERTEX
  8
0
 10
3.13308
 20
0.0908746
 30
0.0
 40
0
 41
0
  0
VERTEX
  8
0
 10
3.13906
 20
0.101563
 30
0.0
 40
0
 41
0
  0
VERTEX
  8
0
 10
3.13906
 20
0.105089
 30
0.0
 40
0
 41
0
  0
SEQEND
 8
0
  0
POLYLINE
  8
0
 62
     173
 66
     1
 10
0
 20
0
 30
0.0
 70
     1
 40
0
 41
0
  0
VERTEX
  8
0
 10
3.23904
 20
0.855089
 30
0.0
 40
0
 41
0
  0
VERTEX
  8
0
 10
3.23904
 20
0.858669
 30
0.0
 40
0
 41
0
  0
VERTEX
  8
0
 10
3.23307
 20
0.869358
 30
0.0
 40
0
 41
0
  0
VERTEX
  8
0
 10
3.22006
 20
0.874132
 30
0.0
 40
0
 41
0
  0
VERTEX
  8
0
 10
3.20697
 20
0.869358
 30
0.0
 40
0
 41
0
  0
VERTEX
  8
0
 10
3.20107
 20
0.858669
 30
0.0
 40
0
 41
0
  0
VERTEX
  8
0
 10
3.20107
 20
0.855089
 30
0.0
 40
0
 41
0
  0
VERTEX
  8
0
 10
3.20107
 20
0.851563
 30
0.0
 40
0
 41
0
  0
VERTEX
  8
0
 10
3.20697
 20
0.840875
 30
0.0
 40
0
 41
0
  0
VERTEX
  8
0
 10
3.22006
 20
0.8361
 30
0.0
 40
0
 41
0
  0
VERTEX
  8
0
 10
3.23307
 20
0.840875
 30
0.0
 40
0
 41
0
  0
VERTEX
  8
0
 10
3.23904
 20
0.851563
 30
0.0
 40
0
 41
0
  0
VERTEX
  8
0
 10
3.23904
 20
0.855089
 30
0.0
 40
0
 41
0
  0
SEQEND
 8
0
  0
POLYLINE
  8
0
 62
     173
 66
     1
 10
0
 20
0
 30
0.0
 70
     1
 40
0
 41
0
  0
VERTEX
  8
0
 10
3.23904
 20
0.105089
 30
0.0
 40
0
 41
0
  0
VERTEX
  8
0
 10
3.23904
 20
0.10867
 30
0.0
 40
0
 41
0
  0
VERTEX
  8
0
 10
3.23307
 20
0.119358
 30
0.0
 40
0
 41
0
  0
VERTEX
  8
0
 10
3.22006
 20
0.124132
 30
0.0
 40
0
 41
0
  0
VERTEX
  8
0
 10
3.20697
 20
0.119358
 30
0.0
 40
0
 41
0
  0
VERTEX
  8
0
 10
3.20107
 20
0.10867
 30
0.0
 40
0
 41
0
  0
VERTEX
  8
0
 10
3.20107
 20
0.105089
 30
0.0
 40
0
 41
0
  0
VERTEX
  8
0
 10
3.20107
 20
0.101563
 30
0.0
 40
0
 41
0
  0
VERTEX
  8
0
 10
3.20697
 20
0.0908746
 30
0.0
 40
0
 41
0
  0
VERTEX
  8
0
 10
3.22006
 20
0.0861003
 30
0.0
 40
0
 41
0
  0
VERTEX
  8
0
 10
3.23307
 20
0.0908746
 30
0.0
 40
0
 41
0
  0
VERTEX
  8
0
 10
3.23904
 20
0.101563
 30
0.0
 40
0
 41
0
  0
VERTEX
  8
0
 10
3.23904
 20
0.105089
 30
0.0
 40
0
 41
0
  0
SEQEND
 8
0
  0
POLYLINE
  8
0
 62
     173
 66
     1
 10
0
 20
0
 30
0.0
 70
     1
 40
0
 41
0
  0
VERTEX
  8
0
 10
3.33903
 20
0.855089
 30
0.0
 40
0
 41
0
  0
VERTEX
  8
0
 10
3.33903
 20
0.858669
 30
0.0
 40
0
 41
0
  0
VERTEX
  8
0
 10
3.33306
 20
0.869358
 30
0.0
 40
0
 41
0
  0
VERTEX
  8
0
 10
3.32004
 20
0.874132
 30
0.0
 40
0
 41
0
  0
VERTEX
  8
0
 10
3.30697
 20
0.869358
 30
0.0
 40
0
 41
0
  0
VERTEX
  8
0
 10
3.30106
 20
0.858669
 30
0.0
 40
0
 41
0
  0
VERTEX
  8
0
 10
3.30106
 20
0.855089
 30
0.0
 40
0
 41
0
  0
VERTEX
  8
0
 10
3.30106
 20
0.851563
 30
0.0
 40
0
 41
0
  0
VERTEX
  8
0
 10
3.30697
 20
0.840875
 30
0.0
 40
0
 41
0
  0
VERTEX
  8
0
 10
3.32004
 20
0.8361
 30
0.0
 40
0
 41
0
  0
VERTEX
  8
0
 10
3.33306
 20
0.840875
 30
0.0
 40
0
 41
0
  0
VERTEX
  8
0
 10
3.33903
 20
0.851563
 30
0.0
 40
0
 41
0
  0
VERTEX
  8
0
 10
3.33903
 20
0.855089
 30
0.0
 40
0
 41
0
  0
SEQEND
 8
0
  0
POLYLINE
  8
0
 62
     173
 66
     1
 10
0
 20
0
 30
0.0
 70
     1
 40
0
 41
0
  0
VERTEX
  8
0
 10
3.33903
 20
0.105089
 30
0.0
 40
0
 41
0
  0
VERTEX
  8
0
 10
3.33903
 20
0.10867
 30
0.0
 40
0
 41
0
  0
VERTEX
  8
0
 10
3.33306
 20
0.119358
 30
0.0
 40
0
 41
0
  0
VERTEX
  8
0
 10
3.32004
 20
0.124132
 30
0.0
 40
0
 41
0
  0
VERTEX
  8
0
 10
3.30697
 20
0.119358
 30
0.0
 40
0
 41
0
  0
VERTEX
  8
0
 10
3.30106
 20
0.10867
 30
0.0
 40
0
 41
0
  0
VERTEX
  8
0
 10
3.30106
 20
0.105089
 30
0.0
 40
0
 41
0
  0
VERTEX
  8
0
 10
3.30106
 20
0.101563
 30
0.0
 40
0
 41
0
  0
VERTEX
  8
0
 10
3.30697
 20
0.0908746
 30
0.0
 40
0
 41
0
  0
VERTEX
  8
0
 10
3.32004
 20
0.0861003
 30
0.0
 40
0
 41
0
  0
VERTEX
  8
0
 10
3.33306
 20
0.0908746
 30
0.0
 40
0
 41
0
  0
VERTEX
  8
0
 10
3.33903
 20
0.101563
 30
0.0
 40
0
 41
0
  0
VERTEX
  8
0
 10
3.33903
 20
0.105089
 30
0.0
 40
0
 41
0
  0
SEQEND
 8
0
  0
POLYLINE
  8
0
 62
     173
 66
     1
 10
0
 20
0
 30
0.0
 70
     1
 40
0
 41
0
  0
VERTEX
  8
0
 10
3.43901
 20
0.855089
 30
0.0
 40
0
 41
0
  0
VERTEX
  8
0
 10
3.43901
 20
0.858669
 30
0.0
 40
0
 41
0
  0
VERTEX
  8
0
 10
3.43306
 20
0.869358
 30
0.0
 40
0
 41
0
  0
VERTEX
  8
0
 10
3.42003
 20
0.874132
 30
0.0
 40
0
 41
0
  0
VERTEX
  8
0
 10
3.40696
 20
0.869358
 30
0.0
 40
0
 41
0
  0
VERTEX
  8
0
 10
3.40104
 20
0.858669
 30
0.0
 40
0
 41
0
  0
VERTEX
  8
0
 10
3.40104
 20
0.855089
 30
0.0
 40
0
 41
0
  0
VERTEX
  8
0
 10
3.40104
 20
0.851563
 30
0.0
 40
0
 41
0
  0
VERTEX
  8
0
 10
3.40696
 20
0.840875
 30
0.0
 40
0
 41
0
  0
VERTEX
  8
0
 10
3.42003
 20
0.8361
 30
0.0
 40
0
 41
0
  0
VERTEX
  8
0
 10
3.43306
 20
0.840875
 30
0.0
 40
0
 41
0
  0
VERTEX
  8
0
 10
3.43901
 20
0.851563
 30
0.0
 40
0
 41
0
  0
VERTEX
  8
0
 10
3.43901
 20
0.855089
 30
0.0
 40
0
 41
0
  0
SEQEND
 8
0
  0
POLYLINE
  8
0
 62
     173
 66
     1
 10
0
 20
0
 30
0.0
 70
     1
 40
0
 41
0
  0
VERTEX
  8
0
 10
3.43901
 20
0.105089
 30
0.0
 40
0
 41
0
  0
VERTEX
  8
0
 10
3.43901
 20
0.10867
 30
0.0
 40
0
 41
0
  0
VERTEX
  8
0
 10
3.43306
 20
0.119358
 30
0.0
 40
0
 41
0
  0
VERTEX
  8
0
 10
3.42003
 20
0.124132
 30
0.0
 40
0
 41
0
  0
VERTEX
  8
0
 10
3.40696
 20
0.119358
 30
0.0
 40
0
 41
0
  0
VERTEX
  8
0
 10
3.40104
 20
0.10867
 30
0.0
 40
0
 41
0
  0
VERTEX
  8
0
 10
3.40104
 20
0.105089
 30
0.0
 40
0
 41
0
  0
VERTEX
  8
0
 10
3.40104
 20
0.101563
 30
0.0
 40
0
 41
0
  0
VERTEX
  8
0
 10
3.40696
 20
0.0908746
 30
0.0
 40
0
 41
0
  0
VERTEX
  8
0
 10
3.42003
 20
0.0861003
 30
0.0
 40
0
 41
0
  0
VERTEX
  8
0
 10
3.43306
 20
0.0908746
 30
0.0
 40
0
 41
0
  0
VERTEX
  8
0
 10
3.43901
 20
0.101563
 30
0.0
 40
0
 41
0
  0
VERTEX
  8
0
 10
3.43901
 20
0.105089
 30
0.0
 40
0
 41
0
  0
SEQEND
 8
0
  0
POLYLINE
  8
0
 62
     173
 66
     1
 10
0
 20
0
 30
0.0
 70
     1
 40
0
 41
0
  0
VERTEX
  8
0
 10
3.53907
 20
0.855089
 30
0.0
 40
0
 41
0
  0
VERTEX
  8
0
 10
3.53907
 20
0.858669
 30
0.0
 40
0
 41
0
  0
VERTEX
  8
0
 10
3.5331
 20
0.869358
 30
0.0
 40
0
 41
0
  0
VERTEX
  8
0
 10
3.52001
 20
0.874132
 30
0.0
 40
0
 41
0
  0
VERTEX
  8
0
 10
3.50694
 20
0.869358
 30
0.0
 40
0
 41
0
  0
VERTEX
  8
0
 10
3.50103
 20
0.858669
 30
0.0
 40
0
 41
0
  0
VERTEX
  8
0
 10
3.50103
 20
0.855089
 30
0.0
 40
0
 41
0
  0
VERTEX
  8
0
 10
3.50103
 20
0.851563
 30
0.0
 40
0
 41
0
  0
VERTEX
  8
0
 10
3.50694
 20
0.840875
 30
0.0
 40
0
 41
0
  0
VERTEX
  8
0
 10
3.52001
 20
0.8361
 30
0.0
 40
0
 41
0
  0
VERTEX
  8
0
 10
3.5331
 20
0.840875
 30
0.0
 40
0
 41
0
  0
VERTEX
  8
0
 10
3.53907
 20
0.851563
 30
0.0
 40
0
 41
0
  0
VERTEX
  8
0
 10
3.53907
 20
0.855089
 30
0.0
 40
0
 41
0
  0
SEQEND
 8
0
  0
POLYLINE
  8
0
 62
     173
 66
     1
 10
0
 20
0
 30
0.0
 70
     1
 40
0
 41
0
  0
VERTEX
  8
0
 10
3.53907
 20
0.105089
 30
0.0
 40
0
 41
0
  0
VERTEX
  8
0
 10
3.53907
 20
0.10867
 30
0.0
 40
0
 41
0
  0
VERTEX
  8
0
 10
3.5331
 20
0.119358
 30
0.0
 40
0
 41
0
  0
VERTEX
  8
0
 10
3.52001
 20
0.124132
 30
0.0
 40
0
 41
0
  0
VERTEX
  8
0
 10
3.50694
 20
0.119358
 30
0.0
 40
0
 41
0
  0
VERTEX
  8
0
 10
3.50103
 20
0.10867
 30
0.0
 40
0
 41
0
  0
VERTEX
  8
0
 10
3.50103
 20
0.105089
 30
0.0
 40
0
 41
0
  0
VERTEX
  8
0
 10
3.50103
 20
0.101563
 30
0.0
 40
0
 41
0
  0
VERTEX
  8
0
 10
3.50694
 20
0.0908746
 30
0.0
 40
0
 41
0
  0
VERTEX
  8
0
 10
3.52001
 20
0.0861003
 30
0.0
 40
0
 41
0
  0
VERTEX
  8
0
 10
3.5331
 20
0.0908746
 30
0.0
 40
0
 41
0
  0
VERTEX
  8
0
 10
3.53907
 20
0.101563
 30
0.0
 40
0
 41
0
  0
VERTEX
  8
0
 10
3.53907
 20
0.105089
 30
0.0
 40
0
 41
0
  0
SEQEND
 8
0
  0
POLYLINE
  8
0
 62
     173
 66
     1
 10
0
 20
0
 30
0.0
 70
     1
 40
0
 41
0
  0
VERTEX
  8
0
 10
0.245117
 20
0.597222
 30
0.0
 40
0
 41
0
  0
VERTEX
  8
0
 10
0.245117
 20
0.602051
 30
0.0
 40
0
 41
0
  0
VERTEX
  8
0
 10
0.237142
 20
0.616374
 30
0.0
 40
0
 41
0
  0
VERTEX
  8
0
 10
0.219618
 20
0.622721
 30
0.0
 40
0
 41
0
  0
VERTEX
  8
0
 10
0.20204
 20
0.616374
 30
0.0
 40
0
 41
0
  0
VERTEX
  8
0
 10
0.194119
 20
0.602051
 30
0.0
 40
0
 41
0
  0
VERTEX
  8
0
 10
0.194119
 20
0.597222
 30
0.0
 40
0
 41
0
  0
VERTEX
  8
0
 10
0.194119
 20
0.592449
 30
0.0
 40
0
 41
0
  0
VERTEX
  8
0
 10
0.20204
 20
0.578125
 30
0.0
 40
0
 41
0
  0
VERTEX
  8
0
 10
0.219618
 20
0.571724
 30
0.0
 40
0
 41
0
  0
VERTEX
  8
0
 10
0.237142
 20
0.578125
 30
0.0
 40
0
 41
0
  0
VERTEX
  8
0
 10
0.245117
 20
0.592449
 30
0.0
 40
0
 41
0
  0
VERTEX
  8
0
 10
0.245117
 20
0.597222
 30
0.0
 40
0
 41
0
  0
SEQEND
 8
0
  0
POLYLINE
  8
0
 62
     173
 66
     1
 10
0
 20
0
 30
0.0
 70
     1
 40
0
 41
0
  0
VERTEX
  8
0
 10
0.245117
 20
0.093316
 30
0.0
 40
0
 41
0
  0
VERTEX
  8
0
 10
0.245117
 20
0.0981446
 30
0.0
 40
0
 41
0
  0
VERTEX
  8
0
 10
0.237142
 20
0.112468
 30
0.0
 40
0
 41
0
  0
VERTEX
  8
0
 10
0.219618
 20
0.118815
 30
0.0
 40
0
 41
0
  0
VERTEX
  8
0
 10
0.20204
 20
0.112468
 30
0.0
 40
0
 41
0
  0
VERTEX
  8
0
 10
0.194119
 20
0.0981446
 30
0.0
 40
0
 41
0
  0
VERTEX
  8
0
 10
0.194119
 20
0.093316
 30
0.0
 40
0
 41
0
  0
VERTEX
  8
0
 10
0.194119
 20
0.0885417
 30
0.0
 40
0
 41
0
  0
VERTEX
  8
0
 10
0.20204
 20
0.0742188
 30
0.0
 40
0
 41
0
  0
VERTEX
  8
0
 10
0.219618
 20
0.0678168
 30
0.0
 40
0
 41
0
  0
VERTEX
  8
0
 10
0.237142
 20
0.0742188
 30
0.0
 40
0
 41
0
  0
VERTEX
  8
0
 10
0.245117
 20
0.0885417
 30
0.0
 40
0
 41
0
  0
VERTEX
  8
0
 10
0.245117
 20
0.093316
 30
0.0
 40
0
 41
0
  0
SEQEND
 8
0
  0
POLYLINE
  8
0
 62
     173
 66
     1
 10
0
 20
0
 30
0.0
 70
     1
 40
0
 41
0
  0
VERTEX
  8
0
 10
3.39594
 20
0.732096
 30
0.0
 40
0
 41
0
  0
VERTEX
  8
0
 10
3.39594
 20
0.736925
 30
0.0
 40
0
 41
0
  0
VERTEX
  8
0
 10
3.38797
 20
0.751247
 30
0.0
 40
0
 41
0
  0
VERTEX
  8
0
 10
3.37044
 20
0.75765
 30
0.0
 40
0
 41
0
  0
VERTEX
  8
0
 10
3.35286
 20
0.751247
 30
0.0
 40
0
 41
0
  0
VERTEX
  8
0
 10
3.34494
 20
0.736925
 30
0.0
 40
0
 41
0
  0
VERTEX
  8
0
 10
3.34494
 20
0.732096
 30
0.0
 40
0
 41
0
  0
VERTEX
  8
0
 10
3.34494
 20
0.727322
 30
0.0
 40
0
 41
0
  0
VERTEX
  8
0
 10
3.35286
 20
0.712999
 30
0.0
 40
0
 41
0
  0
VERTEX
  8
0
 10
3.37044
 20
0.706597
 30
0.0
 40
0
 41
0
  0
VERTEX
  8
0
 10
3.38797
 20
0.712999
 30
0.0
 40
0
 41
0
  0
VERTEX
  8
0
 10
3.39594
 20
0.727322
 30
0.0
 40
0
 41
0
  0
VERTEX
  8
0
 10
3.39594
 20
0.732096
 30
0.0
 40
0
 41
0
  0
SEQEND
 8
0
  0
POLYLINE
  8
0
 62
     173
 66
     1
 10
0
 20
0
 30
0.0
 70
     1
 40
0
 41
0
  0
VERTEX
  8
0
 10
3.39594
 20
0.228082
 30
0.0
 40
0
 41
0
  0
VERTEX
  8
0
 10
3.39594
 20
0.23291
 30
0.0
 40
0
 41
0
  0
VERTEX
  8
0
 10
3.38797
 20
0.247233
 30
0.0
 40
0
 41
0
  0
VERTEX
  8
0
 10
3.37044
 20
0.253635
 30
0.0
 40
0
 41
0
  0
VERTEX
  8
0
 10
3.35286
 20
0.247233
 30
0.0
 40
0
 41
0
  0
VERTEX
  8
0
 10
3.34494
 20
0.23291
 30
0.0
 40
0
 41
0
  0
VERTEX
  8
0
 10
3.34494
 20
0.228082
 30
0.0
 40
0
 41
0
  0
VERTEX
  8
0
 10
3.34494
 20
0.223307
 30
0.0
 40
0
 41
0
  0
VERTEX
  8
0
 10
3.35286
 20
0.208985
 30
0.0
 40
0
 41
0
  0
VERTEX
  8
0
 10
3.37044
 20
0.202636
 30
0.0
 40
0
 41
0
  0
VERTEX
  8
0
 10
3.38797
 20
0.208985
 30
0.0
 40
0
 41
0
  0
VERTEX
  8
0
 10
3.39594
 20
0.223307
 30
0.0
 40
0
 41
0
  0
VERTEX
  8
0
 10
3.39594
 20
0.228082
 30
0.0
 40
0
 41
0
  0
SEQEND
 8
0
  0
POLYLINE
  8
0
 62
     173
 66
     1
 10
0
 20
0
 30
0.0
 70
     1
 40
0
 41
0
  0
VERTEX
  8
0
 10
0.367025
 20
0.605089
 30
0.0
 40
0
 41
0
  0
VERTEX
  8
0
 10
0.367025
 20
0.610243
 30
0.0
 40
0
 41
0
  0
VERTEX
  8
0
 10
0.362956
 20
0.625651
 30
0.0
 40
0
 41
0
  0
VERTEX
  8
0
 10
0.352322
 20
0.640354
 30
0.0
 40
0
 41
0
  0
VERTEX
  8
0
 10
0.33724
 20
0.649197
 30
0.0
 40
0
 41
0
  0
VERTEX
  8
0
 10
0.320042
 20
0.652126
 30
0.0
 40
0
 41
0
  0
VERTEX
  8
0
 10
0.302789
 20
0.649197
 30
0.0
 40
0
 41
0
  0
VERTEX
  8
0
 10
0.287706
 20
0.640354
 30
0.0
 40
0
 41
0
  0
VERTEX
  8
0
 10
0.277072
 20
0.625651
 30
0.0
 40
0
 41
0
  0
VERTEX
  8
0
 10
0.273058
 20
0.610243
 30
0.0
 40
0
 41
0
  0
VERTEX
  8
0
 10
0.273058
 20
0.605089
 30
0.0
 40
0
 41
0
  0
VERTEX
  8
0
 10
0.273058
 20
0.599989
 30
0.0
 40
0
 41
0
  0
VERTEX
  8
0
 10
0.277072
 20
0.584581
 30
0.0
 40
0
 41
0
  0
VERTEX
  8
0
 10
0.287706
 20
0.569879
 30
0.0
 40
0
 41
0
  0
VERTEX
  8
0
 10
0.302789
 20
0.561035
 30
0.0
 40
0
 41
0
  0
VERTEX
  8
0
 10
0.320042
 20
0.558106
 30
0.0
 40
0
 41
0
  0
VERTEX
  8
0
 10
0.33724
 20
0.561035
 30
0.0
 40
0
 41
0
  0
VERTEX
  8
0
 10
0.352322
 20
0.569879
 30
0.0
 40
0
 41
0
  0
VERTEX
  8
0
 10
0.362956
 20
0.584581
 30
0.0
 40
0
 41
0
  0
VERTEX
  8
0
 10
0.367025
 20
0.599989
 30
0.0
 40
0
 41
0
  0
VERTEX
  8
0
 10
0.367025
 20
0.605089
 30
0.0
 40
0
 41
0
  0
SEQEND
 8
0
  0
POLYLINE
  8
0
 62
     173
 66
     1
 10
0
 20
0
 30
0.0
 70
     1
 40
0
 41
0
  0
VERTEX
  8
0
 10
0.367025
 20
0.085395
 30
0.0
 40
0
 41
0
  0
VERTEX
  8
0
 10
0.367025
 20
0.090549
 30
0.0
 40
0
 41
0
  0
VERTEX
  8
0
 10
0.362956
 20
0.105957
 30
0.0
 40
0
 41
0
  0
VERTEX
  8
0
 10
0.352322
 20
0.12066
 30
0.0
 40
0
 41
0
  0
VERTEX
  8
0
 10
0.33724
 20
0.129503
 30
0.0
 40
0
 41
0
  0
VERTEX
  8
0
 10
0.320042
 20
0.132433
 30
0.0
 40
0
 41
0
  0
VERTEX
  8
0
 10
0.302789
 20
0.129503
 30
0.0
 40
0
 41
0
  0
VERTEX
  8
0
 10
0.287706
 20
0.12066
 30
0.0
 40
0
 41
0
  0
VERTEX
  8
0
 10
0.277072
 20
0.105957
 30
0.0
 40
0
 41
0
  0
VERTEX
  8
0
 10
0.273058
 20
0.090549
 30
0.0
 40
0
 41
0
  0
VERTEX
  8
0
 10
0.273058
 20
0.085395
 30
0.0
 40
0
 41
0
  0
VERTEX
  8
0
 10
0.273058
 20
0.0802951
 30
0.0
 40
0
 41
0
  0
VERTEX
  8
0
 10
0.277072
 20
0.0648872
 30
0.0
 40
0
 41
0
  0
VERTEX
  8
0
 10
0.287706
 20
0.0501844
 30
0.0
 40
0
 41
0
  0
VERTEX
  8
0
 10
0.302789
 20
0.0413411
 30
0.0
 40
0
 41
0
  0
VERTEX
  8
0
 10
0.320042
 20
0.0384115
 30
0.0
 40
0
 41
0
  0
VERTEX
  8
0
 10
0.33724
 20
0.0413411
 30
0.0
 40
0
 41
0
  0
VERTEX
  8
0
 10
0.352322
 20
0.0501844
 30
0.0
 40
0
 41
0
  0
VERTEX
  8
0
 10
0.362956
 20
0.0648872
 30
0.0
 40
0
 41
0
  0
VERTEX
  8
0
 10
0.367025
 20
0.0802951
 30
0.0
 40
0
 41
0
  0
VERTEX
  8
0
 10
0.367025
 20
0.085395
 30
0.0
 40
0
 41
0
  0
SEQEND
 8
0
  0
POLYLINE
  8
0
 62
     173
 66
     1
 10
0
 20
0
 30
0.0
 70
     1
 40
0
 41
0
  0
VERTEX
  8
0
 10
3.31706
 20
0.740018
 30
0.0
 40
0
 41
0
  0
VERTEX
  8
0
 10
3.31706
 20
0.745171
 30
0.0
 40
0
 41
0
  0
VERTEX
  8
0
 10
3.31299
 20
0.760579
 30
0.0
 40
0
 41
0
  0
VERTEX
  8
0
 10
3.30236
 20
0.775282
 30
0.0
 40
0
 41
0
  0
VERTEX
  8
0
 10
3.28728
 20
0.784125
 30
0.0
 40
0
 41
0
  0
VERTEX
  8
0
 10
3.27001
 20
0.787056
 30
0.0
 40
0
 41
0
  0
VERTEX
  8
0
 10
3.25276
 20
0.784125
 30
0.0
 40
0
 41
0
  0
VERTEX
  8
0
 10
3.23768
 20
0.775282
 30
0.0
 40
0
 41
0
  0
VERTEX
  8
0
 10
3.22706
 20
0.760579
 30
0.0
 40
0
 41
0
  0
VERTEX
  8
0
 10
3.22304
 20
0.745171
 30
0.0
 40
0
 41
0
  0
VERTEX
  8
0
 10
3.22304
 20
0.740018
 30
0.0
 40
0
 41
0
  0
VERTEX
  8
0
 10
3.22304
 20
0.734918
 30
0.0
 40
0
 41
0
  0
VERTEX
  8
0
 10
3.22706
 20
0.71951
 30
0.0
 40
0
 41
0
  0
VERTEX
  8
0
 10
3.23768
 20
0.704807
 30
0.0
 40
0
 41
0
  0
VERTEX
  8
0
 10
3.25276
 20
0.695964
 30
0.0
 40
0
 41
0
  0
VERTEX
  8
0
 10
3.27001
 20
0.693033
 30
0.0
 40
0
 41
0
  0
VERTEX
  8
0
 10
3.28728
 20
0.695964
 30
0.0
 40
0
 41
0
  0
VERTEX
  8
0
 10
3.30236
 20
0.704807
 30
0.0
 40
0
 41
0
  0
VERTEX
  8
0
 10
3.31299
 20
0.71951
 30
0.0
 40
0
 41
0
  0
VERTEX
  8
0
 10
3.31706
 20
0.734918
 30
0.0
 40
0
 41
0
  0
VERTEX
  8
0
 10
3.31706
 20
0.740018
 30
0.0
 40
0
 41
0
  0
SEQEND
 8
0
  0
POLYLINE
  8
0
 62
     173
 66
     1
 10
0
 20
0
 30
0.0
 70
     1
 40
0
 41
0
  0
VERTEX
  8
0
 10
3.31706
 20
0.220324
 30
0.0
 40
0
 41
0
  0
VERTEX
  8
0
 10
3.31706
 20
0.225478
 30
0.0
 40
0
 41
0
  0
VERTEX
  8
0
 10
3.31299
 20
0.240886
 30
0.0
 40
0
 41
0
  0
VERTEX
  8
0
 10
3.30236
 20
0.255588
 30
0.0
 40
0
 41
0
  0
VERTEX
  8
0
 10
3.28728
 20
0.264432
 30
0.0
 40
0
 41
0
  0
VERTEX
  8
0
 10
3.27001
 20
0.267361
 30
0.0
 40
0
 41
0
  0
VERTEX
  8
0
 10
3.25276
 20
0.264432
 30
0.0
 40
0
 41
0
  0
VERTEX
  8
0
 10
3.23768
 20
0.255588
 30
0.0
 40
0
 41
0
  0
VERTEX
  8
0
 10
3.22706
 20
0.240886
 30
0.0
 40
0
 41
0
  0
VERTEX
  8
0
 10
3.22304
 20
0.225478
 30
0.0
 40
0
 41
0
  0
VERTEX
  8
0
 10
3.22304
 20
0.220324
 30
0.0
 40
0
 41
0
  0
VERTEX
  8
0
 10
3.22304
 20
0.215224
 30
0.0
 40
0
 41
0
  0
VERTEX
  8
0
 10
3.22706
 20
0.199761
 30
0.0
 40
0
 41
0
  0
VERTEX
  8
0
 10
3.23768
 20
0.185058
 30
0.0
 40
0
 41
0
  0
VERTEX
  8
0
 10
3.25276
 20
0.176269
 30
0.0
 40
0
 41
0
  0
VERTEX
  8
0
 10
3.27001
 20
0.173286
 30
0.0
 40
0
 41
0
  0
VERTEX
  8
0
 10
3.28728
 20
0.176269
 30
0.0
 40
0
 41
0
  0
VERTEX
  8
0
 10
3.30236
 20
0.185058
 30
0.0
 40
0
 41
0
  0
VERTEX
  8
0
 10
3.31299
 20
0.199761
 30
0.0
 40
0
 41
0
  0
VERTEX
  8
0
 10
3.31706
 20
0.215224
 30
0.0
 40
0
 41
0
  0
VERTEX
  8
0
 10
3.31706
 20
0.220324
 30
0.0
 40
0
 41
0
  0
SEQEND
 8
0
  0
ENDSEC
  0
EOF
