<?xml version="1.0" encoding="UTF-8"?>
<svg xmlns="http://www.w3.org/2000/svg" xmlns:xlink="http://www.w3.org/1999/xlink" width="80pt" height="222pt" viewBox="0 0 80 222" version="1.1">
<g id="surface1">
<path style="fill:none;stroke-width:0.01;stroke-linecap:round;stroke-linejoin:miter;stroke:rgb(100%,49.803922%,45.098039%);stroke-opacity:1;stroke-miterlimit:10;" d="M -0.00000373357 0.825019 L -0.00000373357 2.075019 " transform="matrix(72,0,0,-72,2.2698,218.8662)"/>
<path style="fill:none;stroke-width:0.01;stroke-linecap:round;stroke-linejoin:miter;stroke:rgb(100%,49.803922%,45.098039%);stroke-opacity:1;stroke-miterlimit:10;" d="M -0.00000373357 0.825019 L 0.150007 0.675008 " transform="matrix(72,0,0,-72,2.2698,218.8662)"/>
<path style="fill:none;stroke-width:0.01;stroke-linecap:round;stroke-linejoin:miter;stroke:rgb(100%,49.803922%,45.098039%);stroke-opacity:1;stroke-miterlimit:10;" d="M 0.150007 0.675008 L 0.150007 0.0349798 " transform="matrix(72,0,0,-72,2.2698,218.8662)"/>
<path style="fill:none;stroke-width:0.01;stroke-linecap:round;stroke-linejoin:miter;stroke:rgb(100%,49.803922%,45.098039%);stroke-opacity:1;stroke-miterlimit:10;" d="M 0.150007 2.950019 L 0.150007 2.224975 " transform="matrix(72,0,0,-72,2.2698,218.8662)"/>
<path style="fill:none;stroke-width:0.01;stroke-linecap:round;stroke-linejoin:miter;stroke:rgb(100%,49.803922%,45.098039%);stroke-opacity:1;stroke-miterlimit:10;" d="M 0.150007 2.224975 L -0.00000373357 2.075019 " transform="matrix(72,0,0,-72,2.2698,218.8662)"/>
<path style="fill:none;stroke-width:0.01;stroke-linecap:round;stroke-linejoin:miter;stroke:rgb(100%,49.803922%,45.098039%);stroke-opacity:1;stroke-miterlimit:10;" d="M 0.150007 2.944973 L 0.150007 2.964993 " transform="matrix(72,0,0,-72,2.2698,218.8662)"/>
<path style="fill:none;stroke-width:0.01;stroke-linecap:round;stroke-linejoin:miter;stroke:rgb(100%,49.803922%,45.098039%);stroke-opacity:1;stroke-miterlimit:10;" d="M 0.900007 2.224975 L 1.050018 2.075019 " transform="matrix(72,0,0,-72,2.2698,218.8662)"/>
<path style="fill:none;stroke-width:0.01;stroke-linecap:round;stroke-linejoin:miter;stroke:rgb(100%,49.803922%,45.098039%);stroke-opacity:1;stroke-miterlimit:10;" d="M 0.900007 2.224975 L 0.900007 2.964993 " transform="matrix(72,0,0,-72,2.2698,218.8662)"/>
<path style="fill:none;stroke-width:0.01;stroke-linecap:round;stroke-linejoin:miter;stroke:rgb(100%,49.803922%,45.098039%);stroke-opacity:1;stroke-miterlimit:10;" d="M 0.150007 2.964993 L 0.900007 2.964993 " transform="matrix(72,0,0,-72,2.2698,218.8662)"/>
<path style="fill:none;stroke-width:0.01;stroke-linecap:round;stroke-linejoin:miter;stroke:rgb(100%,49.803922%,45.098039%);stroke-opacity:1;stroke-miterlimit:10;" d="M 1.050018 2.075019 L 1.050018 0.825019 " transform="matrix(72,0,0,-72,2.2698,218.8662)"/>
<path style="fill:none;stroke-width:0.01;stroke-linecap:round;stroke-linejoin:miter;stroke:rgb(100%,49.803922%,45.098039%);stroke-opacity:1;stroke-miterlimit:10;" d="M 1.050018 0.825019 L 0.900007 0.675008 " transform="matrix(72,0,0,-72,2.2698,218.8662)"/>
<path style="fill:none;stroke-width:0.01;stroke-linecap:round;stroke-linejoin:miter;stroke:rgb(100%,49.803922%,45.098039%);stroke-opacity:1;stroke-miterlimit:10;" d="M 0.900007 0.675008 L 0.900007 0.0349798 " transform="matrix(72,0,0,-72,2.2698,218.8662)"/>
<path style="fill:none;stroke-width:0.01;stroke-linecap:round;stroke-linejoin:miter;stroke:rgb(100%,49.803922%,45.098039%);stroke-opacity:1;stroke-miterlimit:10;" d="M 0.900007 0.0349798 L 0.150007 0.0349798 " transform="matrix(72,0,0,-72,2.2698,218.8662)"/>
<path style=" stroke:none;fill-rule:evenodd;fill:rgb(45.098039%,45.098039%,87.058824%);fill-opacity:1;" d="M 28.730469 53.265625 C 28.730469 51.585938 26.210938 51.585938 26.210938 53.265625 C 26.210938 54.945312 28.730469 54.945312 28.730469 53.265625 "/>
<path style=" stroke:none;fill-rule:evenodd;fill:rgb(45.098039%,45.098039%,87.058824%);fill-opacity:1;" d="M 28.730469 91.066406 C 28.730469 89.386719 26.210938 89.386719 26.210938 91.066406 C 26.210938 92.746094 28.730469 92.746094 28.730469 91.066406 "/>
<path style=" stroke:none;fill-rule:evenodd;fill:rgb(45.098039%,45.098039%,87.058824%);fill-opacity:1;" d="M 28.730469 125.265625 C 28.730469 123.585938 26.210938 123.585938 26.210938 125.265625 C 26.210938 126.945312 28.730469 126.945312 28.730469 125.265625 "/>
<path style=" stroke:none;fill-rule:evenodd;fill:rgb(45.098039%,45.098039%,87.058824%);fill-opacity:1;" d="M 28.730469 175.667969 C 28.730469 173.984375 26.210938 173.984375 26.210938 175.667969 C 26.210938 177.347656 28.730469 177.347656 28.730469 175.667969 "/>
<path style=" stroke:none;fill-rule:evenodd;fill:rgb(45.098039%,45.098039%,87.058824%);fill-opacity:1;" d="M 32.328125 46.066406 C 32.328125 44.386719 29.808594 44.386719 29.808594 46.066406 C 29.808594 47.746094 32.328125 47.746094 32.328125 46.066406 "/>
<path style=" stroke:none;fill-rule:evenodd;fill:rgb(45.098039%,45.098039%,87.058824%);fill-opacity:1;" d="M 32.328125 98.265625 C 32.328125 96.585938 29.808594 96.585938 29.808594 98.265625 C 29.808594 99.945312 32.328125 99.945312 32.328125 98.265625 "/>
<path style=" stroke:none;fill-rule:evenodd;fill:rgb(45.098039%,45.098039%,87.058824%);fill-opacity:1;" d="M 32.328125 132.464844 C 32.328125 130.785156 29.808594 130.785156 29.808594 132.464844 C 29.808594 134.144531 32.328125 134.144531 32.328125 132.464844 "/>
<path style=" stroke:none;fill-rule:evenodd;fill:rgb(45.098039%,45.098039%,87.058824%);fill-opacity:1;" d="M 32.328125 168.464844 C 32.328125 166.785156 29.808594 166.785156 29.808594 168.464844 C 29.808594 170.144531 32.328125 170.144531 32.328125 168.464844 "/>
<path style=" stroke:none;fill-rule:evenodd;fill:rgb(45.098039%,45.098039%,87.058824%);fill-opacity:1;" d="M 35.929688 53.265625 C 35.929688 51.585938 33.410156 51.585938 33.410156 53.265625 C 33.410156 54.945312 35.929688 54.945312 35.929688 53.265625 "/>
<path style=" stroke:none;fill-rule:evenodd;fill:rgb(45.098039%,45.098039%,87.058824%);fill-opacity:1;" d="M 35.929688 91.066406 C 35.929688 89.386719 33.410156 89.386719 33.410156 91.066406 C 33.410156 92.746094 35.929688 92.746094 35.929688 91.066406 "/>
<path style=" stroke:none;fill-rule:evenodd;fill:rgb(45.098039%,45.098039%,87.058824%);fill-opacity:1;" d="M 35.929688 125.265625 C 35.929688 123.585938 33.410156 123.585938 33.410156 125.265625 C 33.410156 126.945312 35.929688 126.945312 35.929688 125.265625 "/>
<path style=" stroke:none;fill-rule:evenodd;fill:rgb(45.098039%,45.098039%,87.058824%);fill-opacity:1;" d="M 35.929688 175.667969 C 35.929688 173.984375 33.410156 173.984375 33.410156 175.667969 C 33.410156 177.347656 35.929688 177.347656 35.929688 175.667969 "/>
<path style=" stroke:none;fill-rule:evenodd;fill:rgb(45.098039%,45.098039%,87.058824%);fill-opacity:1;" d="M 39.53125 46.066406 C 39.53125 44.386719 37.011719 44.386719 37.011719 46.066406 C 37.011719 47.746094 39.53125 47.746094 39.53125 46.066406 "/>
<path style=" stroke:none;fill-rule:evenodd;fill:rgb(45.098039%,45.098039%,87.058824%);fill-opacity:1;" d="M 39.53125 98.265625 C 39.53125 96.585938 37.011719 96.585938 37.011719 98.265625 C 37.011719 99.945312 39.53125 99.945312 39.53125 98.265625 "/>
<path style=" stroke:none;fill-rule:evenodd;fill:rgb(45.098039%,45.098039%,87.058824%);fill-opacity:1;" d="M 39.53125 132.464844 C 39.53125 130.785156 37.011719 130.785156 37.011719 132.464844 C 37.011719 134.144531 39.53125 134.144531 39.53125 132.464844 "/>
<path style=" stroke:none;fill-rule:evenodd;fill:rgb(45.098039%,45.098039%,87.058824%);fill-opacity:1;" d="M 39.53125 168.464844 C 39.53125 166.785156 37.011719 166.785156 37.011719 168.464844 C 37.011719 170.144531 39.53125 170.144531 39.53125 168.464844 "/>
<path style=" stroke:none;fill-rule:evenodd;fill:rgb(45.098039%,45.098039%,87.058824%);fill-opacity:1;" d="M 43.128906 53.265625 C 43.128906 51.585938 40.609375 51.585938 40.609375 53.265625 C 40.609375 54.945312 43.128906 54.945312 43.128906 53.265625 "/>
<path style=" stroke:none;fill-rule:evenodd;fill:rgb(45.098039%,45.098039%,87.058824%);fill-opacity:1;" d="M 43.128906 91.066406 C 43.128906 89.386719 40.609375 89.386719 40.609375 91.066406 C 40.609375 92.746094 43.128906 92.746094 43.128906 91.066406 "/>
<path style=" stroke:none;fill-rule:evenodd;fill:rgb(45.098039%,45.098039%,87.058824%);fill-opacity:1;" d="M 43.128906 125.265625 C 43.128906 123.585938 40.609375 123.585938 40.609375 125.265625 C 40.609375 126.945312 43.128906 126.945312 43.128906 125.265625 "/>
<path style=" stroke:none;fill-rule:evenodd;fill:rgb(45.098039%,45.098039%,87.058824%);fill-opacity:1;" d="M 43.128906 175.667969 C 43.128906 173.984375 40.609375 173.984375 40.609375 175.667969 C 40.609375 177.347656 43.128906 177.347656 43.128906 175.667969 "/>
<path style=" stroke:none;fill-rule:evenodd;fill:rgb(45.098039%,45.098039%,87.058824%);fill-opacity:1;" d="M 46.730469 46.066406 C 46.730469 44.386719 44.210938 44.386719 44.210938 46.066406 C 44.210938 47.746094 46.730469 47.746094 46.730469 46.066406 "/>
<path style=" stroke:none;fill-rule:evenodd;fill:rgb(45.098039%,45.098039%,87.058824%);fill-opacity:1;" d="M 46.730469 98.265625 C 46.730469 96.585938 44.210938 96.585938 44.210938 98.265625 C 44.210938 99.945312 46.730469 99.945312 46.730469 98.265625 "/>
<path style=" stroke:none;fill-rule:evenodd;fill:rgb(45.098039%,45.098039%,87.058824%);fill-opacity:1;" d="M 46.730469 132.464844 C 46.730469 130.785156 44.210938 130.785156 44.210938 132.464844 C 44.210938 134.144531 46.730469 134.144531 46.730469 132.464844 "/>
<path style=" stroke:none;fill-rule:evenodd;fill:rgb(45.098039%,45.098039%,87.058824%);fill-opacity:1;" d="M 46.730469 168.464844 C 46.730469 166.785156 44.210938 166.785156 44.210938 168.464844 C 44.210938 170.144531 46.730469 170.144531 46.730469 168.464844 "/>
<path style=" stroke:none;fill-rule:evenodd;fill:rgb(45.098039%,45.098039%,87.058824%);fill-opacity:1;" d="M 50.328125 53.265625 C 50.328125 51.585938 47.808594 51.585938 47.808594 53.265625 C 47.808594 54.945312 50.328125 54.945312 50.328125 53.265625 "/>
<path style=" stroke:none;fill-rule:evenodd;fill:rgb(45.098039%,45.098039%,87.058824%);fill-opacity:1;" d="M 50.328125 91.066406 C 50.328125 89.386719 47.808594 89.386719 47.808594 91.066406 C 47.808594 92.746094 50.328125 92.746094 50.328125 91.066406 "/>
<path style=" stroke:none;fill-rule:evenodd;fill:rgb(45.098039%,45.098039%,87.058824%);fill-opacity:1;" d="M 50.328125 125.265625 C 50.328125 123.585938 47.808594 123.585938 47.808594 125.265625 C 47.808594 126.945312 50.328125 126.945312 50.328125 125.265625 "/>
<path style=" stroke:none;fill-rule:evenodd;fill:rgb(45.098039%,45.098039%,87.058824%);fill-opacity:1;" d="M 50.328125 175.667969 C 50.328125 173.984375 47.808594 173.984375 47.808594 175.667969 C 47.808594 177.347656 50.328125 177.347656 50.328125 175.667969 "/>
<path style=" stroke:none;fill-rule:evenodd;fill:rgb(45.098039%,45.098039%,87.058824%);fill-opacity:1;" d="M 53.929688 46.066406 C 53.929688 44.386719 51.410156 44.386719 51.410156 46.066406 C 51.410156 47.746094 53.929688 47.746094 53.929688 46.066406 "/>
<path style=" stroke:none;fill-rule:evenodd;fill:rgb(45.098039%,45.098039%,87.058824%);fill-opacity:1;" d="M 53.929688 98.265625 C 53.929688 96.585938 51.410156 96.585938 51.410156 98.265625 C 51.410156 99.945312 53.929688 99.945312 53.929688 98.265625 "/>
<path style=" stroke:none;fill-rule:evenodd;fill:rgb(45.098039%,45.098039%,87.058824%);fill-opacity:1;" d="M 53.929688 132.464844 C 53.929688 130.785156 51.410156 130.785156 51.410156 132.464844 C 51.410156 134.144531 53.929688 134.144531 53.929688 132.464844 "/>
<path style=" stroke:none;fill-rule:evenodd;fill:rgb(45.098039%,45.098039%,87.058824%);fill-opacity:1;" d="M 53.929688 168.464844 C 53.929688 166.785156 51.410156 166.785156 51.410156 168.464844 C 51.410156 170.144531 53.929688 170.144531 53.929688 168.464844 "/>
<path style=" stroke:none;fill-rule:evenodd;fill:rgb(45.098039%,45.098039%,87.058824%);fill-opacity:1;" d="M 10.835938 74.867188 C 10.835938 73.042969 8.101562 73.042969 8.101562 74.867188 C 8.101562 76.691406 10.835938 76.691406 10.835938 74.867188 "/>
<path style=" stroke:none;fill-rule:evenodd;fill:rgb(45.098039%,45.098039%,87.058824%);fill-opacity:1;" d="M 10.835938 82.066406 C 10.835938 80.242188 8.101562 80.242188 8.101562 82.066406 C 8.101562 83.890625 10.835938 83.890625 10.835938 82.066406 "/>
<path style=" stroke:none;fill-rule:evenodd;fill:rgb(45.098039%,45.098039%,87.058824%);fill-opacity:1;" d="M 10.835938 89.265625 C 10.835938 87.441406 8.101562 87.441406 8.101562 89.265625 C 8.101562 91.089844 10.835938 91.089844 10.835938 89.265625 "/>
<path style=" stroke:none;fill-rule:evenodd;fill:rgb(45.098039%,45.098039%,87.058824%);fill-opacity:1;" d="M 10.835938 96.464844 C 10.835938 94.640625 8.101562 94.640625 8.101562 96.464844 C 8.101562 98.289062 10.835938 98.289062 10.835938 96.464844 "/>
<path style=" stroke:none;fill-rule:evenodd;fill:rgb(45.098039%,45.098039%,87.058824%);fill-opacity:1;" d="M 10.835938 103.667969 C 10.835938 101.84375 8.101562 101.84375 8.101562 103.667969 C 8.101562 105.488281 10.835938 105.488281 10.835938 103.667969 "/>
<path style=" stroke:none;fill-rule:evenodd;fill:rgb(45.098039%,45.098039%,87.058824%);fill-opacity:1;" d="M 10.835938 110.867188 C 10.835938 109.042969 8.101562 109.042969 8.101562 110.867188 C 8.101562 112.691406 10.835938 112.691406 10.835938 110.867188 "/>
<path style=" stroke:none;fill-rule:evenodd;fill:rgb(45.098039%,45.098039%,87.058824%);fill-opacity:1;" d="M 10.835938 118.066406 C 10.835938 116.242188 8.101562 116.242188 8.101562 118.066406 C 8.101562 119.890625 10.835938 119.890625 10.835938 118.066406 "/>
<path style=" stroke:none;fill-rule:evenodd;fill:rgb(45.098039%,45.098039%,87.058824%);fill-opacity:1;" d="M 10.835938 125.265625 C 10.835938 123.441406 8.101562 123.441406 8.101562 125.265625 C 8.101562 127.089844 10.835938 127.089844 10.835938 125.265625 "/>
<path style=" stroke:none;fill-rule:evenodd;fill:rgb(45.098039%,45.098039%,87.058824%);fill-opacity:1;" d="M 10.835938 132.464844 C 10.835938 130.640625 8.101562 130.640625 8.101562 132.464844 C 8.101562 134.289062 10.835938 134.289062 10.835938 132.464844 "/>
<path style=" stroke:none;fill-rule:evenodd;fill:rgb(45.098039%,45.098039%,87.058824%);fill-opacity:1;" d="M 10.835938 139.667969 C 10.835938 137.84375 8.101562 137.84375 8.101562 139.667969 C 8.101562 141.488281 10.835938 141.488281 10.835938 139.667969 "/>
<path style=" stroke:none;fill-rule:evenodd;fill:rgb(45.098039%,45.098039%,87.058824%);fill-opacity:1;" d="M 10.835938 146.867188 C 10.835938 145.042969 8.101562 145.042969 8.101562 146.867188 C 8.101562 148.691406 10.835938 148.691406 10.835938 146.867188 "/>
<path style=" stroke:none;fill-rule:evenodd;fill:rgb(45.098039%,45.098039%,87.058824%);fill-opacity:1;" d="M 10.835938 154.066406 C 10.835938 152.242188 8.101562 152.242188 8.101562 154.066406 C 8.101562 155.890625 10.835938 155.890625 10.835938 154.066406 "/>
<path style=" stroke:none;fill-rule:evenodd;fill:rgb(45.098039%,45.098039%,87.058824%);fill-opacity:1;" d="M 72.039062 74.867188 C 72.039062 73.042969 69.300781 73.042969 69.300781 74.867188 C 69.300781 76.691406 72.039062 76.691406 72.039062 74.867188 "/>
<path style=" stroke:none;fill-rule:evenodd;fill:rgb(45.098039%,45.098039%,87.058824%);fill-opacity:1;" d="M 72.039062 82.066406 C 72.039062 80.242188 69.300781 80.242188 69.300781 82.066406 C 69.300781 83.890625 72.039062 83.890625 72.039062 82.066406 "/>
<path style=" stroke:none;fill-rule:evenodd;fill:rgb(45.098039%,45.098039%,87.058824%);fill-opacity:1;" d="M 72.039062 89.265625 C 72.039062 87.441406 69.300781 87.441406 69.300781 89.265625 C 69.300781 91.089844 72.039062 91.089844 72.039062 89.265625 "/>
<path style=" stroke:none;fill-rule:evenodd;fill:rgb(45.098039%,45.098039%,87.058824%);fill-opacity:1;" d="M 72.039062 96.464844 C 72.039062 94.640625 69.300781 94.640625 69.300781 96.464844 C 69.300781 98.289062 72.039062 98.289062 72.039062 96.464844 "/>
<path style=" stroke:none;fill-rule:evenodd;fill:rgb(45.098039%,45.098039%,87.058824%);fill-opacity:1;" d="M 72.039062 103.667969 C 72.039062 101.84375 69.300781 101.84375 69.300781 103.667969 C 69.300781 105.488281 72.039062 105.488281 72.039062 103.667969 "/>
<path style=" stroke:none;fill-rule:evenodd;fill:rgb(45.098039%,45.098039%,87.058824%);fill-opacity:1;" d="M 72.039062 110.867188 C 72.039062 109.042969 69.300781 109.042969 69.300781 110.867188 C 69.300781 112.691406 72.039062 112.691406 72.039062 110.867188 "/>
<path style=" stroke:none;fill-rule:evenodd;fill:rgb(45.098039%,45.098039%,87.058824%);fill-opacity:1;" d="M 72.039062 118.066406 C 72.039062 116.242188 69.300781 116.242188 69.300781 118.066406 C 69.300781 119.890625 72.039062 119.890625 72.039062 118.066406 "/>
<path style=" stroke:none;fill-rule:evenodd;fill:rgb(45.098039%,45.098039%,87.058824%);fill-opacity:1;" d="M 72.039062 125.265625 C 72.039062 123.441406 69.300781 123.441406 69.300781 125.265625 C 69.300781 127.089844 72.039062 127.089844 72.039062 125.265625 "/>
<path style=" stroke:none;fill-rule:evenodd;fill:rgb(45.098039%,45.098039%,87.058824%);fill-opacity:1;" d="M 72.039062 132.464844 C 72.039062 130.640625 69.300781 130.640625 69.300781 132.464844 C 69.300781 134.289062 72.039062 134.289062 72.039062 132.464844 "/>
<path style=" stroke:none;fill-rule:evenodd;fill:rgb(45.098039%,45.098039%,87.058824%);fill-opacity:1;" d="M 72.039062 139.667969 C 72.039062 137.84375 69.300781 137.84375 69.300781 139.667969 C 69.300781 141.488281 72.039062 141.488281 72.039062 139.667969 "/>
<path style=" stroke:none;fill-rule:evenodd;fill:rgb(45.098039%,45.098039%,87.058824%);fill-opacity:1;" d="M 72.039062 146.867188 C 72.039062 145.042969 69.300781 145.042969 69.300781 146.867188 C 69.300781 148.691406 72.039062 148.691406 72.039062 146.867188 "/>
<path style=" stroke:none;fill-rule:evenodd;fill:rgb(45.098039%,45.098039%,87.058824%);fill-opacity:1;" d="M 72.039062 154.066406 C 72.039062 152.242188 69.300781 152.242188 69.300781 154.066406 C 69.300781 155.890625 72.039062 155.890625 72.039062 154.066406 "/>
<path style=" stroke:none;fill-rule:evenodd;fill:rgb(45.098039%,45.098039%,87.058824%);fill-opacity:1;" d="M 19.988281 64.417969 C 19.988281 61.394531 15.453125 61.394531 15.453125 64.417969 C 15.453125 67.441406 19.988281 67.441406 19.988281 64.417969 "/>
<path style=" stroke:none;fill-rule:evenodd;fill:rgb(45.098039%,45.098039%,87.058824%);fill-opacity:1;" d="M 19.988281 202.3125 C 19.988281 199.289062 15.453125 199.289062 15.453125 202.3125 C 15.453125 205.335938 19.988281 205.335938 19.988281 202.3125 "/>
<path style=" stroke:none;fill-rule:evenodd;fill:rgb(45.098039%,45.098039%,87.058824%);fill-opacity:1;" d="M 20.046875 19.417969 C 20.046875 16.394531 15.511719 16.394531 15.511719 19.417969 C 15.511719 22.441406 20.046875 22.441406 20.046875 19.417969 "/>
<path style=" stroke:none;fill-rule:evenodd;fill:rgb(45.098039%,45.098039%,87.058824%);fill-opacity:1;" d="M 20.046875 159.113281 C 20.046875 156.089844 15.511719 156.089844 15.511719 159.113281 C 15.511719 162.136719 20.046875 162.136719 20.046875 159.113281 "/>
<path style=" stroke:none;fill-rule:evenodd;fill:rgb(45.098039%,45.098039%,87.058824%);fill-opacity:1;" d="M 64.628906 64.417969 C 64.628906 61.394531 60.09375 61.394531 60.09375 64.417969 C 60.09375 67.441406 64.628906 67.441406 64.628906 64.417969 "/>
<path style=" stroke:none;fill-rule:evenodd;fill:rgb(45.098039%,45.098039%,87.058824%);fill-opacity:1;" d="M 64.628906 202.3125 C 64.628906 199.289062 60.09375 199.289062 60.09375 202.3125 C 60.09375 205.335938 64.628906 205.335938 64.628906 202.3125 "/>
<path style=" stroke:none;fill-rule:evenodd;fill:rgb(45.098039%,45.098039%,87.058824%);fill-opacity:1;" d="M 64.6875 19.417969 C 64.6875 16.394531 60.152344 16.394531 60.152344 19.417969 C 60.152344 22.441406 64.6875 22.441406 64.6875 19.417969 "/>
<path style=" stroke:none;fill-rule:evenodd;fill:rgb(45.098039%,45.098039%,87.058824%);fill-opacity:1;" d="M 64.6875 159.113281 C 64.6875 156.089844 60.152344 156.089844 60.152344 159.113281 C 60.152344 162.136719 64.6875 162.136719 64.6875 159.113281 "/>
<path style=" stroke:none;fill-rule:evenodd;fill:rgb(45.098039%,45.098039%,87.058824%);fill-opacity:1;" d="M 28.476562 28.066406 C 28.476562 21.921875 19.261719 21.921875 19.261719 28.066406 C 19.261719 34.210938 28.476562 34.210938 28.476562 28.066406 "/>
<path style=" stroke:none;fill-rule:evenodd;fill:rgb(45.098039%,45.098039%,87.058824%);fill-opacity:1;" d="M 28.476562 73.066406 C 28.476562 66.921875 19.261719 66.921875 19.261719 73.066406 C 19.261719 79.210938 28.476562 79.210938 28.476562 73.066406 "/>
<path style=" stroke:none;fill-rule:evenodd;fill:rgb(45.098039%,45.098039%,87.058824%);fill-opacity:1;" d="M 28.476562 150.464844 C 28.476562 144.320312 19.261719 144.320312 19.261719 150.464844 C 19.261719 156.609375 28.476562 156.609375 28.476562 150.464844 "/>
<path style=" stroke:none;fill-rule:evenodd;fill:rgb(45.098039%,45.098039%,87.058824%);fill-opacity:1;" d="M 28.476562 193.667969 C 28.476562 187.523438 19.261719 187.523438 19.261719 193.667969 C 19.261719 199.808594 28.476562 199.808594 28.476562 193.667969 "/>
<path style=" stroke:none;fill-rule:evenodd;fill:rgb(45.098039%,45.098039%,87.058824%);fill-opacity:1;" d="M 60.878906 28.066406 C 60.878906 21.921875 51.660156 21.921875 51.660156 28.066406 C 51.660156 34.210938 60.878906 34.210938 60.878906 28.066406 "/>
<path style=" stroke:none;fill-rule:evenodd;fill:rgb(45.098039%,45.098039%,87.058824%);fill-opacity:1;" d="M 60.878906 73.066406 C 60.878906 66.921875 51.660156 66.921875 51.660156 73.066406 C 51.660156 79.210938 60.878906 79.210938 60.878906 73.066406 "/>
<path style=" stroke:none;fill-rule:evenodd;fill:rgb(45.098039%,45.098039%,87.058824%);fill-opacity:1;" d="M 60.878906 150.464844 C 60.878906 144.320312 51.660156 144.320312 51.660156 150.464844 C 51.660156 156.609375 60.878906 156.609375 60.878906 150.464844 "/>
<path style=" stroke:none;fill-rule:evenodd;fill:rgb(45.098039%,45.098039%,87.058824%);fill-opacity:1;" d="M 60.878906 193.667969 C 60.878906 187.523438 51.660156 187.523438 51.660156 193.667969 C 51.660156 199.808594 60.878906 199.808594 60.878906 193.667969 "/>
</g>
</svg>
