  0
SECTION
  2
HEADER
  9
$ACADVER
  1
AC1009
  9
$EXTMIN
 10
0.0
 20
0.0
 30
0.0
  9
$EXTMAX
 10
1000.0
 20
1000.0
 30
0.0
  9
$FILLMODE
 70
 0
  9
$SPLFRAME
 70
 1
  0
ENDSEC
  0
SECTION
  2
TABLES
  0
TABLE
  2
LAYER
 70
1
  0
LAYER
  2
0
 70
     0
 62
     7
  6
CONTINUOUS
  0
ENDTAB
  0
ENDSEC
  0
SECTION
  2
ENTITIES
  0
POLYLINE
  8
0
 62
     13
 66
     1
 10
0
 20
0
 30
0.0
 40
0.72
 41
0.72
  0
VERTEX
  8
0
 10
0.00504557
 20
0.795139
 30
0.0
 40
0.01
 41
0.01
  0
VERTEX
  8
0
 10
0.00504557
 20
2.04514
 30
0.0
 40
0.01
 41
0.01
  0
SEQEND
 8
0
  0
POLYLINE
  8
0
 62
     13
 66
     1
 10
0
 20
0
 30
0.0
 40
0.72
 41
0.72
  0
VERTEX
  8
0
 10
0.00504557
 20
0.795139
 30
0.0
 40
0.01
 41
0.01
  0
VERTEX
  8
0
 10
0.155057
 20
0.645128
 30
0.0
 40
0.01
 41
0.01
  0
SEQEND
 8
0
  0
POLYLINE
  8
0
 62
     13
 66
     1
 10
0
 20
0
 30
0.0
 40
0.72
 41
0.72
  0
VERTEX
  8
0
 10
0.155057
 20
0.645128
 30
0.0
 40
0.01
 41
0.01
  0
VERTEX
  8
0
 10
0.155057
 20
0.00509983
 30
0.0
 40
0.01
 41
0.01
  0
SEQEND
 8
0
  0
POLYLINE
  8
0
 62
     13
 66
     1
 10
0
 20
0
 30
0.0
 40
0.72
 41
0.72
  0
VERTEX
  8
0
 10
0.155057
 20
2.92014
 30
0.0
 40
0.01
 41
0.01
  0
VERTEX
  8
0
 10
0.155057
 20
2.1951
 30
0.0
 40
0.01
 41
0.01
  0
SEQEND
 8
0
  0
POLYLINE
  8
0
 62
     13
 66
     1
 10
0
 20
0
 30
0.0
 40
0.72
 41
0.72
  0
VERTEX
  8
0
 10
0.155057
 20
2.1951
 30
0.0
 40
0.01
 41
0.01
  0
VERTEX
  8
0
 10
0.00504557
 20
2.04514
 30
0.0
 40
0.01
 41
0.01
  0
SEQEND
 8
0
  0
POLYLINE
  8
0
 62
     13
 66
     1
 10
0
 20
0
 30
0.0
 40
0.72
 41
0.72
  0
VERTEX
  8
0
 10
0.155057
 20
2.9151
 30
0.0
 40
0.01
 41
0.01
  0
VERTEX
  8
0
 10
0.155057
 20
2.93511
 30
0.0
 40
0.01
 41
0.01
  0
SEQEND
 8
0
  0
POLYLINE
  8
0
 62
     13
 66
     1
 10
0
 20
0
 30
0.0
 40
0.72
 41
0.72
  0
VERTEX
  8
0
 10
0.905057
 20
2.1951
 30
0.0
 40
0.01
 41
0.01
  0
VERTEX
  8
0
 10
1.05507
 20
2.04514
 30
0.0
 40
0.01
 41
0.01
  0
SEQEND
 8
0
  0
POLYLINE
  8
0
 62
     13
 66
     1
 10
0
 20
0
 30
0.0
 40
0.72
 41
0.72
  0
VERTEX
  8
0
 10
0.905057
 20
2.1951
 30
0.0
 40
0.01
 41
0.01
  0
VERTEX
  8
0
 10
0.905057
 20
2.93511
 30
0.0
 40
0.01
 41
0.01
  0
SEQEND
 8
0
  0
POLYLINE
  8
0
 62
     13
 66
     1
 10
0
 20
0
 30
0.0
 40
0.72
 41
0.72
  0
VERTEX
  8
0
 10
0.155057
 20
2.93511
 30
0.0
 40
0.01
 41
0.01
  0
VERTEX
  8
0
 10
0.905057
 20
2.93511
 30
0.0
 40
0.01
 41
0.01
  0
SEQEND
 8
0
  0
POLYLINE
  8
0
 62
     13
 66
     1
 10
0
 20
0
 30
0.0
 40
0.72
 41
0.72
  0
VERTEX
  8
0
 10
1.05507
 20
2.04514
 30
0.0
 40
0.01
 41
0.01
  0
VERTEX
  8
0
 10
1.05507
 20
0.795139
 30
0.0
 40
0.01
 41
0.01
  0
SEQEND
 8
0
  0
POLYLINE
  8
0
 62
     13
 66
     1
 10
0
 20
0
 30
0.0
 40
0.72
 41
0.72
  0
VERTEX
  8
0
 10
1.05507
 20
0.795139
 30
0.0
 40
0.01
 41
0.01
  0
VERTEX
  8
0
 10
0.905057
 20
0.645128
 30
0.0
 40
0.01
 41
0.01
  0
SEQEND
 8
0
  0
POLYLINE
  8
0
 62
     13
 66
     1
 10
0
 20
0
 30
0.0
 40
0.72
 41
0.72
  0
VERTEX
  8
0
 10
0.905057
 20
0.645128
 30
0.0
 40
0.01
 41
0.01
  0
VERTEX
  8
0
 10
0.905057
 20
0.00509983
 30
0.0
 40
0.01
 41
0.01
  0
SEQEND
 8
0
  0
POLYLINE
  8
0
 62
     13
 66
     1
 10
0
 20
0
 30
0.0
 40
0.72
 41
0.72
  0
VERTEX
  8
0
 10
0.905057
 20
0.00509983
 30
0.0
 40
0.01
 41
0.01
  0
VERTEX
  8
0
 10
0.155057
 20
0.00509983
 30
0.0
 40
0.01
 41
0.01
  0
SEQEND
 8
0
  0
POLYLINE
  8
0
 62
     173
 66
     1
 10
0
 20
0
 30
0.0
 70
     1
 40
0
 41
0
  0
VERTEX
  8
0
 10
0.372558
 20
2.27013
 30
0.0
 40
0
 41
0
  0
VERTEX
  8
0
 10
0.367079
 20
2.28326
 30
0.0
 40
0
 41
0
  0
VERTEX
  8
0
 10
0.355035
 20
2.28765
 30
0.0
 40
0
 41
0
  0
VERTEX
  8
0
 10
0.34299
 20
2.28326
 30
0.0
 40
0
 41
0
  0
VERTEX
  8
0
 10
0.337565
 20
2.27013
 30
0.0
 40
0
 41
0
  0
VERTEX
  8
0
 10
0.34299
 20
2.25706
 30
0.0
 40
0
 41
0
  0
VERTEX
  8
0
 10
0.355035
 20
2.25265
 30
0.0
 40
0
 41
0
  0
VERTEX
  8
0
 10
0.367079
 20
2.25706
 30
0.0
 40
0
 41
0
  0
VERTEX
  8
0
 10
0.372558
 20
2.27013
 30
0.0
 40
0
 41
0
  0
SEQEND
 8
0
  0
POLYLINE
  8
0
 62
     173
 66
     1
 10
0
 20
0
 30
0.0
 70
     1
 40
0
 41
0
  0
VERTEX
  8
0
 10
0.372558
 20
1.74511
 30
0.0
 40
0
 41
0
  0
VERTEX
  8
0
 10
0.367079
 20
1.75825
 30
0.0
 40
0
 41
0
  0
VERTEX
  8
0
 10
0.355035
 20
1.76264
 30
0.0
 40
0
 41
0
  0
VERTEX
  8
0
 10
0.34299
 20
1.75825
 30
0.0
 40
0
 41
0
  0
VERTEX
  8
0
 10
0.337565
 20
1.74511
 30
0.0
 40
0
 41
0
  0
VERTEX
  8
0
 10
0.34299
 20
1.73204
 30
0.0
 40
0
 41
0
  0
VERTEX
  8
0
 10
0.355035
 20
1.72765
 30
0.0
 40
0
 41
0
  0
VERTEX
  8
0
 10
0.367079
 20
1.73204
 30
0.0
 40
0
 41
0
  0
VERTEX
  8
0
 10
0.372558
 20
1.74511
 30
0.0
 40
0
 41
0
  0
SEQEND
 8
0
  0
POLYLINE
  8
0
 62
     173
 66
     1
 10
0
 20
0
 30
0.0
 70
     1
 40
0
 41
0
  0
VERTEX
  8
0
 10
0.372558
 20
1.27013
 30
0.0
 40
0
 41
0
  0
VERTEX
  8
0
 10
0.367079
 20
1.28326
 30
0.0
 40
0
 41
0
  0
VERTEX
  8
0
 10
0.355035
 20
1.28765
 30
0.0
 40
0
 41
0
  0
VERTEX
  8
0
 10
0.34299
 20
1.28326
 30
0.0
 40
0
 41
0
  0
VERTEX
  8
0
 10
0.337565
 20
1.27013
 30
0.0
 40
0
 41
0
  0
VERTEX
  8
0
 10
0.34299
 20
1.25705
 30
0.0
 40
0
 41
0
  0
VERTEX
  8
0
 10
0.355035
 20
1.25266
 30
0.0
 40
0
 41
0
  0
VERTEX
  8
0
 10
0.367079
 20
1.25705
 30
0.0
 40
0
 41
0
  0
VERTEX
  8
0
 10
0.372558
 20
1.27013
 30
0.0
 40
0
 41
0
  0
SEQEND
 8
0
  0
POLYLINE
  8
0
 62
     173
 66
     1
 10
0
 20
0
 30
0.0
 70
     1
 40
0
 41
0
  0
VERTEX
  8
0
 10
0.372558
 20
0.570096
 30
0.0
 40
0
 41
0
  0
VERTEX
  8
0
 10
0.367079
 20
0.583279
 30
0.0
 40
0
 41
0
  0
VERTEX
  8
0
 10
0.355035
 20
0.587674
 30
0.0
 40
0
 41
0
  0
VERTEX
  8
0
 10
0.34299
 20
0.583279
 30
0.0
 40
0
 41
0
  0
VERTEX
  8
0
 10
0.337565
 20
0.570096
 30
0.0
 40
0
 41
0
  0
VERTEX
  8
0
 10
0.34299
 20
0.557021
 30
0.0
 40
0
 41
0
  0
VERTEX
  8
0
 10
0.355035
 20
0.552626
 30
0.0
 40
0
 41
0
  0
VERTEX
  8
0
 10
0.367079
 20
0.557021
 30
0.0
 40
0
 41
0
  0
VERTEX
  8
0
 10
0.372558
 20
0.570096
 30
0.0
 40
0
 41
0
  0
SEQEND
 8
0
  0
POLYLINE
  8
0
 62
     173
 66
     1
 10
0
 20
0
 30
0.0
 70
     1
 40
0
 41
0
  0
VERTEX
  8
0
 10
0.422526
 20
2.37011
 30
0.0
 40
0
 41
0
  0
VERTEX
  8
0
 10
0.417046
 20
2.38325
 30
0.0
 40
0
 41
0
  0
VERTEX
  8
0
 10
0.405003
 20
2.38764
 30
0.0
 40
0
 41
0
  0
VERTEX
  8
0
 10
0.392958
 20
2.38325
 30
0.0
 40
0
 41
0
  0
VERTEX
  8
0
 10
0.387532
 20
2.37011
 30
0.0
 40
0
 41
0
  0
VERTEX
  8
0
 10
0.392958
 20
2.35704
 30
0.0
 40
0
 41
0
  0
VERTEX
  8
0
 10
0.405003
 20
2.35265
 30
0.0
 40
0
 41
0
  0
VERTEX
  8
0
 10
0.417046
 20
2.35704
 30
0.0
 40
0
 41
0
  0
VERTEX
  8
0
 10
0.422526
 20
2.37011
 30
0.0
 40
0
 41
0
  0
SEQEND
 8
0
  0
POLYLINE
  8
0
 62
     173
 66
     1
 10
0
 20
0
 30
0.0
 70
     1
 40
0
 41
0
  0
VERTEX
  8
0
 10
0.422526
 20
1.64512
 30
0.0
 40
0
 41
0
  0
VERTEX
  8
0
 10
0.417046
 20
1.65826
 30
0.0
 40
0
 41
0
  0
VERTEX
  8
0
 10
0.405003
 20
1.66265
 30
0.0
 40
0
 41
0
  0
VERTEX
  8
0
 10
0.392958
 20
1.65826
 30
0.0
 40
0
 41
0
  0
VERTEX
  8
0
 10
0.387532
 20
1.64512
 30
0.0
 40
0
 41
0
  0
VERTEX
  8
0
 10
0.392958
 20
1.63206
 30
0.0
 40
0
 41
0
  0
VERTEX
  8
0
 10
0.405003
 20
1.62765
 30
0.0
 40
0
 41
0
  0
VERTEX
  8
0
 10
0.417046
 20
1.63206
 30
0.0
 40
0
 41
0
  0
VERTEX
  8
0
 10
0.422526
 20
1.64512
 30
0.0
 40
0
 41
0
  0
SEQEND
 8
0
  0
POLYLINE
  8
0
 62
     173
 66
     1
 10
0
 20
0
 30
0.0
 70
     1
 40
0
 41
0
  0
VERTEX
  8
0
 10
0.422526
 20
1.17014
 30
0.0
 40
0
 41
0
  0
VERTEX
  8
0
 10
0.417046
 20
1.18327
 30
0.0
 40
0
 41
0
  0
VERTEX
  8
0
 10
0.405003
 20
1.18766
 30
0.0
 40
0
 41
0
  0
VERTEX
  8
0
 10
0.392958
 20
1.18327
 30
0.0
 40
0
 41
0
  0
VERTEX
  8
0
 10
0.387532
 20
1.17014
 30
0.0
 40
0
 41
0
  0
VERTEX
  8
0
 10
0.392958
 20
1.15706
 30
0.0
 40
0
 41
0
  0
VERTEX
  8
0
 10
0.405003
 20
1.15267
 30
0.0
 40
0
 41
0
  0
VERTEX
  8
0
 10
0.417046
 20
1.15706
 30
0.0
 40
0
 41
0
  0
VERTEX
  8
0
 10
0.422526
 20
1.17014
 30
0.0
 40
0
 41
0
  0
SEQEND
 8
0
  0
POLYLINE
  8
0
 62
     173
 66
     1
 10
0
 20
0
 30
0.0
 70
     1
 40
0
 41
0
  0
VERTEX
  8
0
 10
0.422526
 20
0.670139
 30
0.0
 40
0
 41
0
  0
VERTEX
  8
0
 10
0.417046
 20
0.683268
 30
0.0
 40
0
 41
0
  0
VERTEX
  8
0
 10
0.405003
 20
0.687663
 30
0.0
 40
0
 41
0
  0
VERTEX
  8
0
 10
0.392958
 20
0.683268
 30
0.0
 40
0
 41
0
  0
VERTEX
  8
0
 10
0.387532
 20
0.670139
 30
0.0
 40
0
 41
0
  0
VERTEX
  8
0
 10
0.392958
 20
0.657064
 30
0.0
 40
0
 41
0
  0
VERTEX
  8
0
 10
0.405003
 20
0.652669
 30
0.0
 40
0
 41
0
  0
VERTEX
  8
0
 10
0.417046
 20
0.657064
 30
0.0
 40
0
 41
0
  0
VERTEX
  8
0
 10
0.422526
 20
0.670139
 30
0.0
 40
0
 41
0
  0
SEQEND
 8
0
  0
POLYLINE
  8
0
 62
     173
 66
     1
 10
0
 20
0
 30
0.0
 70
     1
 40
0
 41
0
  0
VERTEX
  8
0
 10
0.472547
 20
2.27013
 30
0.0
 40
0
 41
0
  0
VERTEX
  8
0
 10
0.467068
 20
2.28326
 30
0.0
 40
0
 41
0
  0
VERTEX
  8
0
 10
0.455024
 20
2.28765
 30
0.0
 40
0
 41
0
  0
VERTEX
  8
0
 10
0.442979
 20
2.28326
 30
0.0
 40
0
 41
0
  0
VERTEX
  8
0
 10
0.437554
 20
2.27013
 30
0.0
 40
0
 41
0
  0
VERTEX
  8
0
 10
0.442979
 20
2.25706
 30
0.0
 40
0
 41
0
  0
VERTEX
  8
0
 10
0.455024
 20
2.25265
 30
0.0
 40
0
 41
0
  0
VERTEX
  8
0
 10
0.467068
 20
2.25706
 30
0.0
 40
0
 41
0
  0
VERTEX
  8
0
 10
0.472547
 20
2.27013
 30
0.0
 40
0
 41
0
  0
SEQEND
 8
0
  0
POLYLINE
  8
0
 62
     173
 66
     1
 10
0
 20
0
 30
0.0
 70
     1
 40
0
 41
0
  0
VERTEX
  8
0
 10
0.472547
 20
1.74511
 30
0.0
 40
0
 41
0
  0
VERTEX
  8
0
 10
0.467068
 20
1.75825
 30
0.0
 40
0
 41
0
  0
VERTEX
  8
0
 10
0.455024
 20
1.76264
 30
0.0
 40
0
 41
0
  0
VERTEX
  8
0
 10
0.442979
 20
1.75825
 30
0.0
 40
0
 41
0
  0
VERTEX
  8
0
 10
0.437554
 20
1.74511
 30
0.0
 40
0
 41
0
  0
VERTEX
  8
0
 10
0.442979
 20
1.73204
 30
0.0
 40
0
 41
0
  0
VERTEX
  8
0
 10
0.455024
 20
1.72765
 30
0.0
 40
0
 41
0
  0
VERTEX
  8
0
 10
0.467068
 20
1.73204
 30
0.0
 40
0
 41
0
  0
VERTEX
  8
0
 10
0.472547
 20
1.74511
 30
0.0
 40
0
 41
0
  0
SEQEND
 8
0
  0
POLYLINE
  8
0
 62
     173
 66
     1
 10
0
 20
0
 30
0.0
 70
     1
 40
0
 41
0
  0
VERTEX
  8
0
 10
0.472547
 20
1.27013
 30
0.0
 40
0
 41
0
  0
VERTEX
  8
0
 10
0.467068
 20
1.28326
 30
0.0
 40
0
 41
0
  0
VERTEX
  8
0
 10
0.455024
 20
1.28765
 30
0.0
 40
0
 41
0
  0
VERTEX
  8
0
 10
0.442979
 20
1.28326
 30
0.0
 40
0
 41
0
  0
VERTEX
  8
0
 10
0.437554
 20
1.27013
 30
0.0
 40
0
 41
0
  0
VERTEX
  8
0
 10
0.442979
 20
1.25705
 30
0.0
 40
0
 41
0
  0
VERTEX
  8
0
 10
0.455024
 20
1.25266
 30
0.0
 40
0
 41
0
  0
VERTEX
  8
0
 10
0.467068
 20
1.25705
 30
0.0
 40
0
 41
0
  0
VERTEX
  8
0
 10
0.472547
 20
1.27013
 30
0.0
 40
0
 41
0
  0
SEQEND
 8
0
  0
POLYLINE
  8
0
 62
     173
 66
     1
 10
0
 20
0
 30
0.0
 70
     1
 40
0
 41
0
  0
VERTEX
  8
0
 10
0.472547
 20
0.570096
 30
0.0
 40
0
 41
0
  0
VERTEX
  8
0
 10
0.467068
 20
0.583279
 30
0.0
 40
0
 41
0
  0
VERTEX
  8
0
 10
0.455024
 20
0.587674
 30
0.0
 40
0
 41
0
  0
VERTEX
  8
0
 10
0.442979
 20
0.583279
 30
0.0
 40
0
 41
0
  0
VERTEX
  8
0
 10
0.437554
 20
0.570096
 30
0.0
 40
0
 41
0
  0
VERTEX
  8
0
 10
0.442979
 20
0.557021
 30
0.0
 40
0
 41
0
  0
VERTEX
  8
0
 10
0.455024
 20
0.552626
 30
0.0
 40
0
 41
0
  0
VERTEX
  8
0
 10
0.467068
 20
0.557021
 30
0.0
 40
0
 41
0
  0
VERTEX
  8
0
 10
0.472547
 20
0.570096
 30
0.0
 40
0
 41
0
  0
SEQEND
 8
0
  0
POLYLINE
  8
0
 62
     173
 66
     1
 10
0
 20
0
 30
0.0
 70
     1
 40
0
 41
0
  0
VERTEX
  8
0
 10
0.522569
 20
2.37011
 30
0.0
 40
0
 41
0
  0
VERTEX
  8
0
 10
0.51709
 20
2.38325
 30
0.0
 40
0
 41
0
  0
VERTEX
  8
0
 10
0.505046
 20
2.38764
 30
0.0
 40
0
 41
0
  0
VERTEX
  8
0
 10
0.493001
 20
2.38325
 30
0.0
 40
0
 41
0
  0
VERTEX
  8
0
 10
0.487576
 20
2.37011
 30
0.0
 40
0
 41
0
  0
VERTEX
  8
0
 10
0.493001
 20
2.35704
 30
0.0
 40
0
 41
0
  0
VERTEX
  8
0
 10
0.505046
 20
2.35265
 30
0.0
 40
0
 41
0
  0
VERTEX
  8
0
 10
0.51709
 20
2.35704
 30
0.0
 40
0
 41
0
  0
VERTEX
  8
0
 10
0.522569
 20
2.37011
 30
0.0
 40
0
 41
0
  0
SEQEND
 8
0
  0
POLYLINE
  8
0
 62
     173
 66
     1
 10
0
 20
0
 30
0.0
 70
     1
 40
0
 41
0
  0
VERTEX
  8
0
 10
0.522569
 20
1.64512
 30
0.0
 40
0
 41
0
  0
VERTEX
  8
0
 10
0.51709
 20
1.65826
 30
0.0
 40
0
 41
0
  0
VERTEX
  8
0
 10
0.505046
 20
1.66265
 30
0.0
 40
0
 41
0
  0
VERTEX
  8
0
 10
0.493001
 20
1.65826
 30
0.0
 40
0
 41
0
  0
VERTEX
  8
0
 10
0.487576
 20
1.64512
 30
0.0
 40
0
 41
0
  0
VERTEX
  8
0
 10
0.493001
 20
1.63206
 30
0.0
 40
0
 41
0
  0
VERTEX
  8
0
 10
0.505046
 20
1.62765
 30
0.0
 40
0
 41
0
  0
VERTEX
  8
0
 10
0.51709
 20
1.63206
 30
0.0
 40
0
 41
0
  0
VERTEX
  8
0
 10
0.522569
 20
1.64512
 30
0.0
 40
0
 41
0
  0
SEQEND
 8
0
  0
POLYLINE
  8
0
 62
     173
 66
     1
 10
0
 20
0
 30
0.0
 70
     1
 40
0
 41
0
  0
VERTEX
  8
0
 10
0.522569
 20
1.17014
 30
0.0
 40
0
 41
0
  0
VERTEX
  8
0
 10
0.51709
 20
1.18327
 30
0.0
 40
0
 41
0
  0
VERTEX
  8
0
 10
0.505046
 20
1.18766
 30
0.0
 40
0
 41
0
  0
VERTEX
  8
0
 10
0.493001
 20
1.18327
 30
0.0
 40
0
 41
0
  0
VERTEX
  8
0
 10
0.487576
 20
1.17014
 30
0.0
 40
0
 41
0
  0
VERTEX
  8
0
 10
0.493001
 20
1.15706
 30
0.0
 40
0
 41
0
  0
VERTEX
  8
0
 10
0.505046
 20
1.15267
 30
0.0
 40
0
 41
0
  0
VERTEX
  8
0
 10
0.51709
 20
1.15706
 30
0.0
 40
0
 41
0
  0
VERTEX
  8
0
 10
0.522569
 20
1.17014
 30
0.0
 40
0
 41
0
  0
SEQEND
 8
0
  0
POLYLINE
  8
0
 62
     173
 66
     1
 10
0
 20
0
 30
0.0
 70
     1
 40
0
 41
0
  0
VERTEX
  8
0
 10
0.522569
 20
0.670139
 30
0.0
 40
0
 41
0
  0
VERTEX
  8
0
 10
0.51709
 20
0.683268
 30
0.0
 40
0
 41
0
  0
VERTEX
  8
0
 10
0.505046
 20
0.687663
 30
0.0
 40
0
 41
0
  0
VERTEX
  8
0
 10
0.493001
 20
0.683268
 30
0.0
 40
0
 41
0
  0
VERTEX
  8
0
 10
0.487576
 20
0.670139
 30
0.0
 40
0
 41
0
  0
VERTEX
  8
0
 10
0.493001
 20
0.657064
 30
0.0
 40
0
 41
0
  0
VERTEX
  8
0
 10
0.505046
 20
0.652669
 30
0.0
 40
0
 41
0
  0
VERTEX
  8
0
 10
0.51709
 20
0.657064
 30
0.0
 40
0
 41
0
  0
VERTEX
  8
0
 10
0.522569
 20
0.670139
 30
0.0
 40
0
 41
0
  0
SEQEND
 8
0
  0
POLYLINE
  8
0
 62
     173
 66
     1
 10
0
 20
0
 30
0.0
 70
     1
 40
0
 41
0
  0
VERTEX
  8
0
 10
0.572537
 20
2.27013
 30
0.0
 40
0
 41
0
  0
VERTEX
  8
0
 10
0.567057
 20
2.28326
 30
0.0
 40
0
 41
0
  0
VERTEX
  8
0
 10
0.555012
 20
2.28765
 30
0.0
 40
0
 41
0
  0
VERTEX
  8
0
 10
0.542969
 20
2.28326
 30
0.0
 40
0
 41
0
  0
VERTEX
  8
0
 10
0.537543
 20
2.27013
 30
0.0
 40
0
 41
0
  0
VERTEX
  8
0
 10
0.542969
 20
2.25706
 30
0.0
 40
0
 41
0
  0
VERTEX
  8
0
 10
0.555012
 20
2.25265
 30
0.0
 40
0
 41
0
  0
VERTEX
  8
0
 10
0.567057
 20
2.25706
 30
0.0
 40
0
 41
0
  0
VERTEX
  8
0
 10
0.572537
 20
2.27013
 30
0.0
 40
0
 41
0
  0
SEQEND
 8
0
  0
POLYLINE
  8
0
 62
     173
 66
     1
 10
0
 20
0
 30
0.0
 70
     1
 40
0
 41
0
  0
VERTEX
  8
0
 10
0.572537
 20
1.74511
 30
0.0
 40
0
 41
0
  0
VERTEX
  8
0
 10
0.567057
 20
1.75825
 30
0.0
 40
0
 41
0
  0
VERTEX
  8
0
 10
0.555012
 20
1.76264
 30
0.0
 40
0
 41
0
  0
VERTEX
  8
0
 10
0.542969
 20
1.75825
 30
0.0
 40
0
 41
0
  0
VERTEX
  8
0
 10
0.537543
 20
1.74511
 30
0.0
 40
0
 41
0
  0
VERTEX
  8
0
 10
0.542969
 20
1.73204
 30
0.0
 40
0
 41
0
  0
VERTEX
  8
0
 10
0.555012
 20
1.72765
 30
0.0
 40
0
 41
0
  0
VERTEX
  8
0
 10
0.567057
 20
1.73204
 30
0.0
 40
0
 41
0
  0
VERTEX
  8
0
 10
0.572537
 20
1.74511
 30
0.0
 40
0
 41
0
  0
SEQEND
 8
0
  0
POLYLINE
  8
0
 62
     173
 66
     1
 10
0
 20
0
 30
0.0
 70
     1
 40
0
 41
0
  0
VERTEX
  8
0
 10
0.572537
 20
1.27013
 30
0.0
 40
0
 41
0
  0
VERTEX
  8
0
 10
0.567057
 20
1.28326
 30
0.0
 40
0
 41
0
  0
VERTEX
  8
0
 10
0.555012
 20
1.28765
 30
0.0
 40
0
 41
0
  0
VERTEX
  8
0
 10
0.542969
 20
1.28326
 30
0.0
 40
0
 41
0
  0
VERTEX
  8
0
 10
0.537543
 20
1.27013
 30
0.0
 40
0
 41
0
  0
VERTEX
  8
0
 10
0.542969
 20
1.25705
 30
0.0
 40
0
 41
0
  0
VERTEX
  8
0
 10
0.555012
 20
1.25266
 30
0.0
 40
0
 41
0
  0
VERTEX
  8
0
 10
0.567057
 20
1.25705
 30
0.0
 40
0
 41
0
  0
VERTEX
  8
0
 10
0.572537
 20
1.27013
 30
0.0
 40
0
 41
0
  0
SEQEND
 8
0
  0
POLYLINE
  8
0
 62
     173
 66
     1
 10
0
 20
0
 30
0.0
 70
     1
 40
0
 41
0
  0
VERTEX
  8
0
 10
0.572537
 20
0.570096
 30
0.0
 40
0
 41
0
  0
VERTEX
  8
0
 10
0.567057
 20
0.583279
 30
0.0
 40
0
 41
0
  0
VERTEX
  8
0
 10
0.555012
 20
0.587674
 30
0.0
 40
0
 41
0
  0
VERTEX
  8
0
 10
0.542969
 20
0.583279
 30
0.0
 40
0
 41
0
  0
VERTEX
  8
0
 10
0.537543
 20
0.570096
 30
0.0
 40
0
 41
0
  0
VERTEX
  8
0
 10
0.542969
 20
0.557021
 30
0.0
 40
0
 41
0
  0
VERTEX
  8
0
 10
0.555012
 20
0.552626
 30
0.0
 40
0
 41
0
  0
VERTEX
  8
0
 10
0.567057
 20
0.557021
 30
0.0
 40
0
 41
0
  0
VERTEX
  8
0
 10
0.572537
 20
0.570096
 30
0.0
 40
0
 41
0
  0
SEQEND
 8
0
  0
POLYLINE
  8
0
 62
     173
 66
     1
 10
0
 20
0
 30
0.0
 70
     1
 40
0
 41
0
  0
VERTEX
  8
0
 10
0.622558
 20
2.37011
 30
0.0
 40
0
 41
0
  0
VERTEX
  8
0
 10
0.617079
 20
2.38325
 30
0.0
 40
0
 41
0
  0
VERTEX
  8
0
 10
0.605035
 20
2.38764
 30
0.0
 40
0
 41
0
  0
VERTEX
  8
0
 10
0.59299
 20
2.38325
 30
0.0
 40
0
 41
0
  0
VERTEX
  8
0
 10
0.587565
 20
2.37011
 30
0.0
 40
0
 41
0
  0
VERTEX
  8
0
 10
0.59299
 20
2.35704
 30
0.0
 40
0
 41
0
  0
VERTEX
  8
0
 10
0.605035
 20
2.35265
 30
0.0
 40
0
 41
0
  0
VERTEX
  8
0
 10
0.617079
 20
2.35704
 30
0.0
 40
0
 41
0
  0
VERTEX
  8
0
 10
0.622558
 20
2.37011
 30
0.0
 40
0
 41
0
  0
SEQEND
 8
0
  0
POLYLINE
  8
0
 62
     173
 66
     1
 10
0
 20
0
 30
0.0
 70
     1
 40
0
 41
0
  0
VERTEX
  8
0
 10
0.622558
 20
1.64512
 30
0.0
 40
0
 41
0
  0
VERTEX
  8
0
 10
0.617079
 20
1.65826
 30
0.0
 40
0
 41
0
  0
VERTEX
  8
0
 10
0.605035
 20
1.66265
 30
0.0
 40
0
 41
0
  0
VERTEX
  8
0
 10
0.59299
 20
1.65826
 30
0.0
 40
0
 41
0
  0
VERTEX
  8
0
 10
0.587565
 20
1.64512
 30
0.0
 40
0
 41
0
  0
VERTEX
  8
0
 10
0.59299
 20
1.63206
 30
0.0
 40
0
 41
0
  0
VERTEX
  8
0
 10
0.605035
 20
1.62765
 30
0.0
 40
0
 41
0
  0
VERTEX
  8
0
 10
0.617079
 20
1.63206
 30
0.0
 40
0
 41
0
  0
VERTEX
  8
0
 10
0.622558
 20
1.64512
 30
0.0
 40
0
 41
0
  0
SEQEND
 8
0
  0
POLYLINE
  8
0
 62
     173
 66
     1
 10
0
 20
0
 30
0.0
 70
     1
 40
0
 41
0
  0
VERTEX
  8
0
 10
0.622558
 20
1.17014
 30
0.0
 40
0
 41
0
  0
VERTEX
  8
0
 10
0.617079
 20
1.18327
 30
0.0
 40
0
 41
0
  0
VERTEX
  8
0
 10
0.605035
 20
1.18766
 30
0.0
 40
0
 41
0
  0
VERTEX
  8
0
 10
0.59299
 20
1.18327
 30
0.0
 40
0
 41
0
  0
VERTEX
  8
0
 10
0.587565
 20
1.17014
 30
0.0
 40
0
 41
0
  0
VERTEX
  8
0
 10
0.59299
 20
1.15706
 30
0.0
 40
0
 41
0
  0
VERTEX
  8
0
 10
0.605035
 20
1.15267
 30
0.0
 40
0
 41
0
  0
VERTEX
  8
0
 10
0.617079
 20
1.15706
 30
0.0
 40
0
 41
0
  0
VERTEX
  8
0
 10
0.622558
 20
1.17014
 30
0.0
 40
0
 41
0
  0
SEQEND
 8
0
  0
POLYLINE
  8
0
 62
     173
 66
     1
 10
0
 20
0
 30
0.0
 70
     1
 40
0
 41
0
  0
VERTEX
  8
0
 10
0.622558
 20
0.670139
 30
0.0
 40
0
 41
0
  0
VERTEX
  8
0
 10
0.617079
 20
0.683268
 30
0.0
 40
0
 41
0
  0
VERTEX
  8
0
 10
0.605035
 20
0.687663
 30
0.0
 40
0
 41
0
  0
VERTEX
  8
0
 10
0.59299
 20
0.683268
 30
0.0
 40
0
 41
0
  0
VERTEX
  8
0
 10
0.587565
 20
0.670139
 30
0.0
 40
0
 41
0
  0
VERTEX
  8
0
 10
0.59299
 20
0.657064
 30
0.0
 40
0
 41
0
  0
VERTEX
  8
0
 10
0.605035
 20
0.652669
 30
0.0
 40
0
 41
0
  0
VERTEX
  8
0
 10
0.617079
 20
0.657064
 30
0.0
 40
0
 41
0
  0
VERTEX
  8
0
 10
0.622558
 20
0.670139
 30
0.0
 40
0
 41
0
  0
SEQEND
 8
0
  0
POLYLINE
  8
0
 62
     173
 66
     1
 10
0
 20
0
 30
0.0
 70
     1
 40
0
 41
0
  0
VERTEX
  8
0
 10
0.672526
 20
2.27013
 30
0.0
 40
0
 41
0
  0
VERTEX
  8
0
 10
0.667046
 20
2.28326
 30
0.0
 40
0
 41
0
  0
VERTEX
  8
0
 10
0.655003
 20
2.28765
 30
0.0
 40
0
 41
0
  0
VERTEX
  8
0
 10
0.642958
 20
2.28326
 30
0.0
 40
0
 41
0
  0
VERTEX
  8
0
 10
0.637532
 20
2.27013
 30
0.0
 40
0
 41
0
  0
VERTEX
  8
0
 10
0.642958
 20
2.25706
 30
0.0
 40
0
 41
0
  0
VERTEX
  8
0
 10
0.655003
 20
2.25265
 30
0.0
 40
0
 41
0
  0
VERTEX
  8
0
 10
0.667046
 20
2.25706
 30
0.0
 40
0
 41
0
  0
VERTEX
  8
0
 10
0.672526
 20
2.27013
 30
0.0
 40
0
 41
0
  0
SEQEND
 8
0
  0
POLYLINE
  8
0
 62
     173
 66
     1
 10
0
 20
0
 30
0.0
 70
     1
 40
0
 41
0
  0
VERTEX
  8
0
 10
0.672526
 20
1.74511
 30
0.0
 40
0
 41
0
  0
VERTEX
  8
0
 10
0.667046
 20
1.75825
 30
0.0
 40
0
 41
0
  0
VERTEX
  8
0
 10
0.655003
 20
1.76264
 30
0.0
 40
0
 41
0
  0
VERTEX
  8
0
 10
0.642958
 20
1.75825
 30
0.0
 40
0
 41
0
  0
VERTEX
  8
0
 10
0.637532
 20
1.74511
 30
0.0
 40
0
 41
0
  0
VERTEX
  8
0
 10
0.642958
 20
1.73204
 30
0.0
 40
0
 41
0
  0
VERTEX
  8
0
 10
0.655003
 20
1.72765
 30
0.0
 40
0
 41
0
  0
VERTEX
  8
0
 10
0.667046
 20
1.73204
 30
0.0
 40
0
 41
0
  0
VERTEX
  8
0
 10
0.672526
 20
1.74511
 30
0.0
 40
0
 41
0
  0
SEQEND
 8
0
  0
POLYLINE
  8
0
 62
     173
 66
     1
 10
0
 20
0
 30
0.0
 70
     1
 40
0
 41
0
  0
VERTEX
  8
0
 10
0.672526
 20
1.27013
 30
0.0
 40
0
 41
0
  0
VERTEX
  8
0
 10
0.667046
 20
1.28326
 30
0.0
 40
0
 41
0
  0
VERTEX
  8
0
 10
0.655003
 20
1.28765
 30
0.0
 40
0
 41
0
  0
VERTEX
  8
0
 10
0.642958
 20
1.28326
 30
0.0
 40
0
 41
0
  0
VERTEX
  8
0
 10
0.637532
 20
1.27013
 30
0.0
 40
0
 41
0
  0
VERTEX
  8
0
 10
0.642958
 20
1.25705
 30
0.0
 40
0
 41
0
  0
VERTEX
  8
0
 10
0.655003
 20
1.25266
 30
0.0
 40
0
 41
0
  0
VERTEX
  8
0
 10
0.667046
 20
1.25705
 30
0.0
 40
0
 41
0
  0
VERTEX
  8
0
 10
0.672526
 20
1.27013
 30
0.0
 40
0
 41
0
  0
SEQEND
 8
0
  0
POLYLINE
  8
0
 62
     173
 66
     1
 10
0
 20
0
 30
0.0
 70
     1
 40
0
 41
0
  0
VERTEX
  8
0
 10
0.672526
 20
0.570096
 30
0.0
 40
0
 41
0
  0
VERTEX
  8
0
 10
0.667046
 20
0.583279
 30
0.0
 40
0
 41
0
  0
VERTEX
  8
0
 10
0.655003
 20
0.587674
 30
0.0
 40
0
 41
0
  0
VERTEX
  8
0
 10
0.642958
 20
0.583279
 30
0.0
 40
0
 41
0
  0
VERTEX
  8
0
 10
0.637532
 20
0.570096
 30
0.0
 40
0
 41
0
  0
VERTEX
  8
0
 10
0.642958
 20
0.557021
 30
0.0
 40
0
 41
0
  0
VERTEX
  8
0
 10
0.655003
 20
0.552626
 30
0.0
 40
0
 41
0
  0
VERTEX
  8
0
 10
0.667046
 20
0.557021
 30
0.0
 40
0
 41
0
  0
VERTEX
  8
0
 10
0.672526
 20
0.570096
 30
0.0
 40
0
 41
0
  0
SEQEND
 8
0
  0
POLYLINE
  8
0
 62
     173
 66
     1
 10
0
 20
0
 30
0.0
 70
     1
 40
0
 41
0
  0
VERTEX
  8
0
 10
0.722547
 20
2.37011
 30
0.0
 40
0
 41
0
  0
VERTEX
  8
0
 10
0.717068
 20
2.38325
 30
0.0
 40
0
 41
0
  0
VERTEX
  8
0
 10
0.705024
 20
2.38764
 30
0.0
 40
0
 41
0
  0
VERTEX
  8
0
 10
0.692979
 20
2.38325
 30
0.0
 40
0
 41
0
  0
VERTEX
  8
0
 10
0.687554
 20
2.37011
 30
0.0
 40
0
 41
0
  0
VERTEX
  8
0
 10
0.692979
 20
2.35704
 30
0.0
 40
0
 41
0
  0
VERTEX
  8
0
 10
0.705024
 20
2.35265
 30
0.0
 40
0
 41
0
  0
VERTEX
  8
0
 10
0.717068
 20
2.35704
 30
0.0
 40
0
 41
0
  0
VERTEX
  8
0
 10
0.722547
 20
2.37011
 30
0.0
 40
0
 41
0
  0
SEQEND
 8
0
  0
POLYLINE
  8
0
 62
     173
 66
     1
 10
0
 20
0
 30
0.0
 70
     1
 40
0
 41
0
  0
VERTEX
  8
0
 10
0.722547
 20
1.64512
 30
0.0
 40
0
 41
0
  0
VERTEX
  8
0
 10
0.717068
 20
1.65826
 30
0.0
 40
0
 41
0
  0
VERTEX
  8
0
 10
0.705024
 20
1.66265
 30
0.0
 40
0
 41
0
  0
VERTEX
  8
0
 10
0.692979
 20
1.65826
 30
0.0
 40
0
 41
0
  0
VERTEX
  8
0
 10
0.687554
 20
1.64512
 30
0.0
 40
0
 41
0
  0
VERTEX
  8
0
 10
0.692979
 20
1.63206
 30
0.0
 40
0
 41
0
  0
VERTEX
  8
0
 10
0.705024
 20
1.62765
 30
0.0
 40
0
 41
0
  0
VERTEX
  8
0
 10
0.717068
 20
1.63206
 30
0.0
 40
0
 41
0
  0
VERTEX
  8
0
 10
0.722547
 20
1.64512
 30
0.0
 40
0
 41
0
  0
SEQEND
 8
0
  0
POLYLINE
  8
0
 62
     173
 66
     1
 10
0
 20
0
 30
0.0
 70
     1
 40
0
 41
0
  0
VERTEX
  8
0
 10
0.722547
 20
1.17014
 30
0.0
 40
0
 41
0
  0
VERTEX
  8
0
 10
0.717068
 20
1.18327
 30
0.0
 40
0
 41
0
  0
VERTEX
  8
0
 10
0.705024
 20
1.18766
 30
0.0
 40
0
 41
0
  0
VERTEX
  8
0
 10
0.692979
 20
1.18327
 30
0.0
 40
0
 41
0
  0
VERTEX
  8
0
 10
0.687554
 20
1.17014
 30
0.0
 40
0
 41
0
  0
VERTEX
  8
0
 10
0.692979
 20
1.15706
 30
0.0
 40
0
 41
0
  0
VERTEX
  8
0
 10
0.705024
 20
1.15267
 30
0.0
 40
0
 41
0
  0
VERTEX
  8
0
 10
0.717068
 20
1.15706
 30
0.0
 40
0
 41
0
  0
VERTEX
  8
0
 10
0.722547
 20
1.17014
 30
0.0
 40
0
 41
0
  0
SEQEND
 8
0
  0
POLYLINE
  8
0
 62
     173
 66
     1
 10
0
 20
0
 30
0.0
 70
     1
 40
0
 41
0
  0
VERTEX
  8
0
 10
0.722547
 20
0.670139
 30
0.0
 40
0
 41
0
  0
VERTEX
  8
0
 10
0.717068
 20
0.683268
 30
0.0
 40
0
 41
0
  0
VERTEX
  8
0
 10
0.705024
 20
0.687663
 30
0.0
 40
0
 41
0
  0
VERTEX
  8
0
 10
0.692979
 20
0.683268
 30
0.0
 40
0
 41
0
  0
VERTEX
  8
0
 10
0.687554
 20
0.670139
 30
0.0
 40
0
 41
0
  0
VERTEX
  8
0
 10
0.692979
 20
0.657064
 30
0.0
 40
0
 41
0
  0
VERTEX
  8
0
 10
0.705024
 20
0.652669
 30
0.0
 40
0
 41
0
  0
VERTEX
  8
0
 10
0.717068
 20
0.657064
 30
0.0
 40
0
 41
0
  0
VERTEX
  8
0
 10
0.722547
 20
0.670139
 30
0.0
 40
0
 41
0
  0
SEQEND
 8
0
  0
POLYLINE
  8
0
 62
     173
 66
     1
 10
0
 20
0
 30
0.0
 70
     1
 40
0
 41
0
  0
VERTEX
  8
0
 10
0.124023
 20
1.97011
 30
0.0
 40
0
 41
0
  0
VERTEX
  8
0
 10
0.118056
 20
1.98438
 30
0.0
 40
0
 41
0
  0
VERTEX
  8
0
 10
0.105035
 20
1.98915
 30
0.0
 40
0
 41
0
  0
VERTEX
  8
0
 10
0.0919596
 20
1.98438
 30
0.0
 40
0
 41
0
  0
VERTEX
  8
0
 10
0.086046
 20
1.97011
 30
0.0
 40
0
 41
0
  0
VERTEX
  8
0
 10
0.0919596
 20
1.95589
 30
0.0
 40
0
 41
0
  0
VERTEX
  8
0
 10
0.105035
 20
1.95111
 30
0.0
 40
0
 41
0
  0
VERTEX
  8
0
 10
0.118056
 20
1.95589
 30
0.0
 40
0
 41
0
  0
VERTEX
  8
0
 10
0.124023
 20
1.97011
 30
0.0
 40
0
 41
0
  0
SEQEND
 8
0
  0
POLYLINE
  8
0
 62
     173
 66
     1
 10
0
 20
0
 30
0.0
 70
     1
 40
0
 41
0
  0
VERTEX
  8
0
 10
0.124023
 20
1.87011
 30
0.0
 40
0
 41
0
  0
VERTEX
  8
0
 10
0.118056
 20
1.88439
 30
0.0
 40
0
 41
0
  0
VERTEX
  8
0
 10
0.105035
 20
1.88917
 30
0.0
 40
0
 41
0
  0
VERTEX
  8
0
 10
0.0919596
 20
1.88439
 30
0.0
 40
0
 41
0
  0
VERTEX
  8
0
 10
0.086046
 20
1.87011
 30
0.0
 40
0
 41
0
  0
VERTEX
  8
0
 10
0.0919596
 20
1.8559
 30
0.0
 40
0
 41
0
  0
VERTEX
  8
0
 10
0.105035
 20
1.85113
 30
0.0
 40
0
 41
0
  0
VERTEX
  8
0
 10
0.118056
 20
1.8559
 30
0.0
 40
0
 41
0
  0
VERTEX
  8
0
 10
0.124023
 20
1.87011
 30
0.0
 40
0
 41
0
  0
SEQEND
 8
0
  0
POLYLINE
  8
0
 62
     173
 66
     1
 10
0
 20
0
 30
0.0
 70
     1
 40
0
 41
0
  0
VERTEX
  8
0
 10
0.124023
 20
1.77012
 30
0.0
 40
0
 41
0
  0
VERTEX
  8
0
 10
0.118056
 20
1.7844
 30
0.0
 40
0
 41
0
  0
VERTEX
  8
0
 10
0.105035
 20
1.78917
 30
0.0
 40
0
 41
0
  0
VERTEX
  8
0
 10
0.0919596
 20
1.7844
 30
0.0
 40
0
 41
0
  0
VERTEX
  8
0
 10
0.086046
 20
1.77012
 30
0.0
 40
0
 41
0
  0
VERTEX
  8
0
 10
0.0919596
 20
1.75592
 30
0.0
 40
0
 41
0
  0
VERTEX
  8
0
 10
0.105035
 20
1.75114
 30
0.0
 40
0
 41
0
  0
VERTEX
  8
0
 10
0.118056
 20
1.75592
 30
0.0
 40
0
 41
0
  0
VERTEX
  8
0
 10
0.124023
 20
1.77012
 30
0.0
 40
0
 41
0
  0
SEQEND
 8
0
  0
POLYLINE
  8
0
 62
     173
 66
     1
 10
0
 20
0
 30
0.0
 70
     1
 40
0
 41
0
  0
VERTEX
  8
0
 10
0.124023
 20
1.67014
 30
0.0
 40
0
 41
0
  0
VERTEX
  8
0
 10
0.118056
 20
1.6844
 30
0.0
 40
0
 41
0
  0
VERTEX
  8
0
 10
0.105035
 20
1.68918
 30
0.0
 40
0
 41
0
  0
VERTEX
  8
0
 10
0.0919596
 20
1.6844
 30
0.0
 40
0
 41
0
  0
VERTEX
  8
0
 10
0.086046
 20
1.67014
 30
0.0
 40
0
 41
0
  0
VERTEX
  8
0
 10
0.0919596
 20
1.65593
 30
0.0
 40
0
 41
0
  0
VERTEX
  8
0
 10
0.105035
 20
1.65115
 30
0.0
 40
0
 41
0
  0
VERTEX
  8
0
 10
0.118056
 20
1.65593
 30
0.0
 40
0
 41
0
  0
VERTEX
  8
0
 10
0.124023
 20
1.67014
 30
0.0
 40
0
 41
0
  0
SEQEND
 8
0
  0
POLYLINE
  8
0
 62
     173
 66
     1
 10
0
 20
0
 30
0.0
 70
     1
 40
0
 41
0
  0
VERTEX
  8
0
 10
0.124023
 20
1.5701
 30
0.0
 40
0
 41
0
  0
VERTEX
  8
0
 10
0.118056
 20
1.58436
 30
0.0
 40
0
 41
0
  0
VERTEX
  8
0
 10
0.105035
 20
1.58914
 30
0.0
 40
0
 41
0
  0
VERTEX
  8
0
 10
0.0919596
 20
1.58436
 30
0.0
 40
0
 41
0
  0
VERTEX
  8
0
 10
0.086046
 20
1.5701
 30
0.0
 40
0
 41
0
  0
VERTEX
  8
0
 10
0.0919596
 20
1.55588
 30
0.0
 40
0
 41
0
  0
VERTEX
  8
0
 10
0.105035
 20
1.55117
 30
0.0
 40
0
 41
0
  0
VERTEX
  8
0
 10
0.118056
 20
1.55588
 30
0.0
 40
0
 41
0
  0
VERTEX
  8
0
 10
0.124023
 20
1.5701
 30
0.0
 40
0
 41
0
  0
SEQEND
 8
0
  0
POLYLINE
  8
0
 62
     173
 66
     1
 10
0
 20
0
 30
0.0
 70
     1
 40
0
 41
0
  0
VERTEX
  8
0
 10
0.124023
 20
1.47011
 30
0.0
 40
0
 41
0
  0
VERTEX
  8
0
 10
0.118056
 20
1.48438
 30
0.0
 40
0
 41
0
  0
VERTEX
  8
0
 10
0.105035
 20
1.48915
 30
0.0
 40
0
 41
0
  0
VERTEX
  8
0
 10
0.0919596
 20
1.48438
 30
0.0
 40
0
 41
0
  0
VERTEX
  8
0
 10
0.086046
 20
1.47011
 30
0.0
 40
0
 41
0
  0
VERTEX
  8
0
 10
0.0919596
 20
1.45589
 30
0.0
 40
0
 41
0
  0
VERTEX
  8
0
 10
0.105035
 20
1.45111
 30
0.0
 40
0
 41
0
  0
VERTEX
  8
0
 10
0.118056
 20
1.45589
 30
0.0
 40
0
 41
0
  0
VERTEX
  8
0
 10
0.124023
 20
1.47011
 30
0.0
 40
0
 41
0
  0
SEQEND
 8
0
  0
POLYLINE
  8
0
 62
     173
 66
     1
 10
0
 20
0
 30
0.0
 70
     1
 40
0
 41
0
  0
VERTEX
  8
0
 10
0.124023
 20
1.37012
 30
0.0
 40
0
 41
0
  0
VERTEX
  8
0
 10
0.118056
 20
1.38439
 30
0.0
 40
0
 41
0
  0
VERTEX
  8
0
 10
0.105035
 20
1.38917
 30
0.0
 40
0
 41
0
  0
VERTEX
  8
0
 10
0.0919596
 20
1.38439
 30
0.0
 40
0
 41
0
  0
VERTEX
  8
0
 10
0.086046
 20
1.37012
 30
0.0
 40
0
 41
0
  0
VERTEX
  8
0
 10
0.0919596
 20
1.3559
 30
0.0
 40
0
 41
0
  0
VERTEX
  8
0
 10
0.105035
 20
1.35113
 30
0.0
 40
0
 41
0
  0
VERTEX
  8
0
 10
0.118056
 20
1.3559
 30
0.0
 40
0
 41
0
  0
VERTEX
  8
0
 10
0.124023
 20
1.37012
 30
0.0
 40
0
 41
0
  0
SEQEND
 8
0
  0
POLYLINE
  8
0
 62
     173
 66
     1
 10
0
 20
0
 30
0.0
 70
     1
 40
0
 41
0
  0
VERTEX
  8
0
 10
0.124023
 20
1.27013
 30
0.0
 40
0
 41
0
  0
VERTEX
  8
0
 10
0.118056
 20
1.2844
 30
0.0
 40
0
 41
0
  0
VERTEX
  8
0
 10
0.105035
 20
1.28917
 30
0.0
 40
0
 41
0
  0
VERTEX
  8
0
 10
0.0919596
 20
1.2844
 30
0.0
 40
0
 41
0
  0
VERTEX
  8
0
 10
0.086046
 20
1.27013
 30
0.0
 40
0
 41
0
  0
VERTEX
  8
0
 10
0.0919596
 20
1.25591
 30
0.0
 40
0
 41
0
  0
VERTEX
  8
0
 10
0.105035
 20
1.25114
 30
0.0
 40
0
 41
0
  0
VERTEX
  8
0
 10
0.118056
 20
1.25591
 30
0.0
 40
0
 41
0
  0
VERTEX
  8
0
 10
0.124023
 20
1.27013
 30
0.0
 40
0
 41
0
  0
SEQEND
 8
0
  0
POLYLINE
  8
0
 62
     173
 66
     1
 10
0
 20
0
 30
0.0
 70
     1
 40
0
 41
0
  0
VERTEX
  8
0
 10
0.124023
 20
1.17014
 30
0.0
 40
0
 41
0
  0
VERTEX
  8
0
 10
0.118056
 20
1.18441
 30
0.0
 40
0
 41
0
  0
VERTEX
  8
0
 10
0.105035
 20
1.18918
 30
0.0
 40
0
 41
0
  0
VERTEX
  8
0
 10
0.0919596
 20
1.18441
 30
0.0
 40
0
 41
0
  0
VERTEX
  8
0
 10
0.086046
 20
1.17014
 30
0.0
 40
0
 41
0
  0
VERTEX
  8
0
 10
0.0919596
 20
1.15593
 30
0.0
 40
0
 41
0
  0
VERTEX
  8
0
 10
0.105035
 20
1.15115
 30
0.0
 40
0
 41
0
  0
VERTEX
  8
0
 10
0.118056
 20
1.15593
 30
0.0
 40
0
 41
0
  0
VERTEX
  8
0
 10
0.124023
 20
1.17014
 30
0.0
 40
0
 41
0
  0
SEQEND
 8
0
  0
POLYLINE
  8
0
 62
     173
 66
     1
 10
0
 20
0
 30
0.0
 70
     1
 40
0
 41
0
  0
VERTEX
  8
0
 10
0.124023
 20
1.0701
 30
0.0
 40
0
 41
0
  0
VERTEX
  8
0
 10
0.118056
 20
1.08436
 30
0.0
 40
0
 41
0
  0
VERTEX
  8
0
 10
0.105035
 20
1.08914
 30
0.0
 40
0
 41
0
  0
VERTEX
  8
0
 10
0.0919596
 20
1.08436
 30
0.0
 40
0
 41
0
  0
VERTEX
  8
0
 10
0.086046
 20
1.0701
 30
0.0
 40
0
 41
0
  0
VERTEX
  8
0
 10
0.0919596
 20
1.05588
 30
0.0
 40
0
 41
0
  0
VERTEX
  8
0
 10
0.105035
 20
1.05116
 30
0.0
 40
0
 41
0
  0
VERTEX
  8
0
 10
0.118056
 20
1.05588
 30
0.0
 40
0
 41
0
  0
VERTEX
  8
0
 10
0.124023
 20
1.0701
 30
0.0
 40
0
 41
0
  0
SEQEND
 8
0
  0
POLYLINE
  8
0
 62
     173
 66
     1
 10
0
 20
0
 30
0.0
 70
     1
 40
0
 41
0
  0
VERTEX
  8
0
 10
0.124023
 20
0.970107
 30
0.0
 40
0
 41
0
  0
VERTEX
  8
0
 10
0.118056
 20
0.984375
 30
0.0
 40
0
 41
0
  0
VERTEX
  8
0
 10
0.105035
 20
0.98915
 30
0.0
 40
0
 41
0
  0
VERTEX
  8
0
 10
0.0919596
 20
0.984375
 30
0.0
 40
0
 41
0
  0
VERTEX
  8
0
 10
0.086046
 20
0.970107
 30
0.0
 40
0
 41
0
  0
VERTEX
  8
0
 10
0.0919596
 20
0.955892
 30
0.0
 40
0
 41
0
  0
VERTEX
  8
0
 10
0.105035
 20
0.951118
 30
0.0
 40
0
 41
0
  0
VERTEX
  8
0
 10
0.118056
 20
0.955892
 30
0.0
 40
0
 41
0
  0
VERTEX
  8
0
 10
0.124023
 20
0.970107
 30
0.0
 40
0
 41
0
  0
SEQEND
 8
0
  0
POLYLINE
  8
0
 62
     173
 66
     1
 10
0
 20
0
 30
0.0
 70
     1
 40
0
 41
0
  0
VERTEX
  8
0
 10
0.124023
 20
0.870117
 30
0.0
 40
0
 41
0
  0
VERTEX
  8
0
 10
0.118056
 20
0.884386
 30
0.0
 40
0
 41
0
  0
VERTEX
  8
0
 10
0.105035
 20
0.88916
 30
0.0
 40
0
 41
0
  0
VERTEX
  8
0
 10
0.0919596
 20
0.884386
 30
0.0
 40
0
 41
0
  0
VERTEX
  8
0
 10
0.086046
 20
0.870117
 30
0.0
 40
0
 41
0
  0
VERTEX
  8
0
 10
0.0919596
 20
0.855903
 30
0.0
 40
0
 41
0
  0
VERTEX
  8
0
 10
0.105035
 20
0.851129
 30
0.0
 40
0
 41
0
  0
VERTEX
  8
0
 10
0.118056
 20
0.855903
 30
0.0
 40
0
 41
0
  0
VERTEX
  8
0
 10
0.124023
 20
0.870117
 30
0.0
 40
0
 41
0
  0
SEQEND
 8
0
  0
POLYLINE
  8
0
 62
     173
 66
     1
 10
0
 20
0
 30
0.0
 70
     1
 40
0
 41
0
  0
VERTEX
  8
0
 10
0.974067
 20
1.97011
 30
0.0
 40
0
 41
0
  0
VERTEX
  8
0
 10
0.968099
 20
1.98438
 30
0.0
 40
0
 41
0
  0
VERTEX
  8
0
 10
0.955024
 20
1.98915
 30
0.0
 40
0
 41
0
  0
VERTEX
  8
0
 10
0.941949
 20
1.98438
 30
0.0
 40
0
 41
0
  0
VERTEX
  8
0
 10
0.936035
 20
1.97011
 30
0.0
 40
0
 41
0
  0
VERTEX
  8
0
 10
0.941949
 20
1.95589
 30
0.0
 40
0
 41
0
  0
VERTEX
  8
0
 10
0.955024
 20
1.95111
 30
0.0
 40
0
 41
0
  0
VERTEX
  8
0
 10
0.968099
 20
1.95589
 30
0.0
 40
0
 41
0
  0
VERTEX
  8
0
 10
0.974067
 20
1.97011
 30
0.0
 40
0
 41
0
  0
SEQEND
 8
0
  0
POLYLINE
  8
0
 62
     173
 66
     1
 10
0
 20
0
 30
0.0
 70
     1
 40
0
 41
0
  0
VERTEX
  8
0
 10
0.974067
 20
1.87011
 30
0.0
 40
0
 41
0
  0
VERTEX
  8
0
 10
0.968099
 20
1.88439
 30
0.0
 40
0
 41
0
  0
VERTEX
  8
0
 10
0.955024
 20
1.88917
 30
0.0
 40
0
 41
0
  0
VERTEX
  8
0
 10
0.941949
 20
1.88439
 30
0.0
 40
0
 41
0
  0
VERTEX
  8
0
 10
0.936035
 20
1.87011
 30
0.0
 40
0
 41
0
  0
VERTEX
  8
0
 10
0.941949
 20
1.8559
 30
0.0
 40
0
 41
0
  0
VERTEX
  8
0
 10
0.955024
 20
1.85113
 30
0.0
 40
0
 41
0
  0
VERTEX
  8
0
 10
0.968099
 20
1.8559
 30
0.0
 40
0
 41
0
  0
VERTEX
  8
0
 10
0.974067
 20
1.87011
 30
0.0
 40
0
 41
0
  0
SEQEND
 8
0
  0
POLYLINE
  8
0
 62
     173
 66
     1
 10
0
 20
0
 30
0.0
 70
     1
 40
0
 41
0
  0
VERTEX
  8
0
 10
0.974067
 20
1.77012
 30
0.0
 40
0
 41
0
  0
VERTEX
  8
0
 10
0.968099
 20
1.7844
 30
0.0
 40
0
 41
0
  0
VERTEX
  8
0
 10
0.955024
 20
1.78917
 30
0.0
 40
0
 41
0
  0
VERTEX
  8
0
 10
0.941949
 20
1.7844
 30
0.0
 40
0
 41
0
  0
VERTEX
  8
0
 10
0.936035
 20
1.77012
 30
0.0
 40
0
 41
0
  0
VERTEX
  8
0
 10
0.941949
 20
1.75592
 30
0.0
 40
0
 41
0
  0
VERTEX
  8
0
 10
0.955024
 20
1.75114
 30
0.0
 40
0
 41
0
  0
VERTEX
  8
0
 10
0.968099
 20
1.75592
 30
0.0
 40
0
 41
0
  0
VERTEX
  8
0
 10
0.974067
 20
1.77012
 30
0.0
 40
0
 41
0
  0
SEQEND
 8
0
  0
POLYLINE
  8
0
 62
     173
 66
     1
 10
0
 20
0
 30
0.0
 70
     1
 40
0
 41
0
  0
VERTEX
  8
0
 10
0.974067
 20
1.67014
 30
0.0
 40
0
 41
0
  0
VERTEX
  8
0
 10
0.968099
 20
1.6844
 30
0.0
 40
0
 41
0
  0
VERTEX
  8
0
 10
0.955024
 20
1.68918
 30
0.0
 40
0
 41
0
  0
VERTEX
  8
0
 10
0.941949
 20
1.6844
 30
0.0
 40
0
 41
0
  0
VERTEX
  8
0
 10
0.936035
 20
1.67014
 30
0.0
 40
0
 41
0
  0
VERTEX
  8
0
 10
0.941949
 20
1.65593
 30
0.0
 40
0
 41
0
  0
VERTEX
  8
0
 10
0.955024
 20
1.65115
 30
0.0
 40
0
 41
0
  0
VERTEX
  8
0
 10
0.968099
 20
1.65593
 30
0.0
 40
0
 41
0
  0
VERTEX
  8
0
 10
0.974067
 20
1.67014
 30
0.0
 40
0
 41
0
  0
SEQEND
 8
0
  0
POLYLINE
  8
0
 62
     173
 66
     1
 10
0
 20
0
 30
0.0
 70
     1
 40
0
 41
0
  0
VERTEX
  8
0
 10
0.974067
 20
1.5701
 30
0.0
 40
0
 41
0
  0
VERTEX
  8
0
 10
0.968099
 20
1.58436
 30
0.0
 40
0
 41
0
  0
VERTEX
  8
0
 10
0.955024
 20
1.58914
 30
0.0
 40
0
 41
0
  0
VERTEX
  8
0
 10
0.941949
 20
1.58436
 30
0.0
 40
0
 41
0
  0
VERTEX
  8
0
 10
0.936035
 20
1.5701
 30
0.0
 40
0
 41
0
  0
VERTEX
  8
0
 10
0.941949
 20
1.55588
 30
0.0
 40
0
 41
0
  0
VERTEX
  8
0
 10
0.955024
 20
1.55117
 30
0.0
 40
0
 41
0
  0
VERTEX
  8
0
 10
0.968099
 20
1.55588
 30
0.0
 40
0
 41
0
  0
VERTEX
  8
0
 10
0.974067
 20
1.5701
 30
0.0
 40
0
 41
0
  0
SEQEND
 8
0
  0
POLYLINE
  8
0
 62
     173
 66
     1
 10
0
 20
0
 30
0.0
 70
     1
 40
0
 41
0
  0
VERTEX
  8
0
 10
0.974067
 20
1.47011
 30
0.0
 40
0
 41
0
  0
VERTEX
  8
0
 10
0.968099
 20
1.48438
 30
0.0
 40
0
 41
0
  0
VERTEX
  8
0
 10
0.955024
 20
1.48915
 30
0.0
 40
0
 41
0
  0
VERTEX
  8
0
 10
0.941949
 20
1.48438
 30
0.0
 40
0
 41
0
  0
VERTEX
  8
0
 10
0.936035
 20
1.47011
 30
0.0
 40
0
 41
0
  0
VERTEX
  8
0
 10
0.941949
 20
1.45589
 30
0.0
 40
0
 41
0
  0
VERTEX
  8
0
 10
0.955024
 20
1.45111
 30
0.0
 40
0
 41
0
  0
VERTEX
  8
0
 10
0.968099
 20
1.45589
 30
0.0
 40
0
 41
0
  0
VERTEX
  8
0
 10
0.974067
 20
1.47011
 30
0.0
 40
0
 41
0
  0
SEQEND
 8
0
  0
POLYLINE
  8
0
 62
     173
 66
     1
 10
0
 20
0
 30
0.0
 70
     1
 40
0
 41
0
  0
VERTEX
  8
0
 10
0.974067
 20
1.37012
 30
0.0
 40
0
 41
0
  0
VERTEX
  8
0
 10
0.968099
 20
1.38439
 30
0.0
 40
0
 41
0
  0
VERTEX
  8
0
 10
0.955024
 20
1.38917
 30
0.0
 40
0
 41
0
  0
VERTEX
  8
0
 10
0.941949
 20
1.38439
 30
0.0
 40
0
 41
0
  0
VERTEX
  8
0
 10
0.936035
 20
1.37012
 30
0.0
 40
0
 41
0
  0
VERTEX
  8
0
 10
0.941949
 20
1.3559
 30
0.0
 40
0
 41
0
  0
VERTEX
  8
0
 10
0.955024
 20
1.35113
 30
0.0
 40
0
 41
0
  0
VERTEX
  8
0
 10
0.968099
 20
1.3559
 30
0.0
 40
0
 41
0
  0
VERTEX
  8
0
 10
0.974067
 20
1.37012
 30
0.0
 40
0
 41
0
  0
SEQEND
 8
0
  0
POLYLINE
  8
0
 62
     173
 66
     1
 10
0
 20
0
 30
0.0
 70
     1
 40
0
 41
0
  0
VERTEX
  8
0
 10
0.974067
 20
1.27013
 30
0.0
 40
0
 41
0
  0
VERTEX
  8
0
 10
0.968099
 20
1.2844
 30
0.0
 40
0
 41
0
  0
VERTEX
  8
0
 10
0.955024
 20
1.28917
 30
0.0
 40
0
 41
0
  0
VERTEX
  8
0
 10
0.941949
 20
1.2844
 30
0.0
 40
0
 41
0
  0
VERTEX
  8
0
 10
0.936035
 20
1.27013
 30
0.0
 40
0
 41
0
  0
VERTEX
  8
0
 10
0.941949
 20
1.25591
 30
0.0
 40
0
 41
0
  0
VERTEX
  8
0
 10
0.955024
 20
1.25114
 30
0.0
 40
0
 41
0
  0
VERTEX
  8
0
 10
0.968099
 20
1.25591
 30
0.0
 40
0
 41
0
  0
VERTEX
  8
0
 10
0.974067
 20
1.27013
 30
0.0
 40
0
 41
0
  0
SEQEND
 8
0
  0
POLYLINE
  8
0
 62
     173
 66
     1
 10
0
 20
0
 30
0.0
 70
     1
 40
0
 41
0
  0
VERTEX
  8
0
 10
0.974067
 20
1.17014
 30
0.0
 40
0
 41
0
  0
VERTEX
  8
0
 10
0.968099
 20
1.18441
 30
0.0
 40
0
 41
0
  0
VERTEX
  8
0
 10
0.955024
 20
1.18918
 30
0.0
 40
0
 41
0
  0
VERTEX
  8
0
 10
0.941949
 20
1.18441
 30
0.0
 40
0
 41
0
  0
VERTEX
  8
0
 10
0.936035
 20
1.17014
 30
0.0
 40
0
 41
0
  0
VERTEX
  8
0
 10
0.941949
 20
1.15593
 30
0.0
 40
0
 41
0
  0
VERTEX
  8
0
 10
0.955024
 20
1.15115
 30
0.0
 40
0
 41
0
  0
VERTEX
  8
0
 10
0.968099
 20
1.15593
 30
0.0
 40
0
 41
0
  0
VERTEX
  8
0
 10
0.974067
 20
1.17014
 30
0.0
 40
0
 41
0
  0
SEQEND
 8
0
  0
POLYLINE
  8
0
 62
     173
 66
     1
 10
0
 20
0
 30
0.0
 70
     1
 40
0
 41
0
  0
VERTEX
  8
0
 10
0.974067
 20
1.0701
 30
0.0
 40
0
 41
0
  0
VERTEX
  8
0
 10
0.968099
 20
1.08436
 30
0.0
 40
0
 41
0
  0
VERTEX
  8
0
 10
0.955024
 20
1.08914
 30
0.0
 40
0
 41
0
  0
VERTEX
  8
0
 10
0.941949
 20
1.08436
 30
0.0
 40
0
 41
0
  0
VERTEX
  8
0
 10
0.936035
 20
1.0701
 30
0.0
 40
0
 41
0
  0
VERTEX
  8
0
 10
0.941949
 20
1.05588
 30
0.0
 40
0
 41
0
  0
VERTEX
  8
0
 10
0.955024
 20
1.05116
 30
0.0
 40
0
 41
0
  0
VERTEX
  8
0
 10
0.968099
 20
1.05588
 30
0.0
 40
0
 41
0
  0
VERTEX
  8
0
 10
0.974067
 20
1.0701
 30
0.0
 40
0
 41
0
  0
SEQEND
 8
0
  0
POLYLINE
  8
0
 62
     173
 66
     1
 10
0
 20
0
 30
0.0
 70
     1
 40
0
 41
0
  0
VERTEX
  8
0
 10
0.974067
 20
0.970107
 30
0.0
 40
0
 41
0
  0
VERTEX
  8
0
 10
0.968099
 20
0.984375
 30
0.0
 40
0
 41
0
  0
VERTEX
  8
0
 10
0.955024
 20
0.98915
 30
0.0
 40
0
 41
0
  0
VERTEX
  8
0
 10
0.941949
 20
0.984375
 30
0.0
 40
0
 41
0
  0
VERTEX
  8
0
 10
0.936035
 20
0.970107
 30
0.0
 40
0
 41
0
  0
VERTEX
  8
0
 10
0.941949
 20
0.955892
 30
0.0
 40
0
 41
0
  0
VERTEX
  8
0
 10
0.955024
 20
0.951118
 30
0.0
 40
0
 41
0
  0
VERTEX
  8
0
 10
0.968099
 20
0.955892
 30
0.0
 40
0
 41
0
  0
VERTEX
  8
0
 10
0.974067
 20
0.970107
 30
0.0
 40
0
 41
0
  0
SEQEND
 8
0
  0
POLYLINE
  8
0
 62
     173
 66
     1
 10
0
 20
0
 30
0.0
 70
     1
 40
0
 41
0
  0
VERTEX
  8
0
 10
0.974067
 20
0.870117
 30
0.0
 40
0
 41
0
  0
VERTEX
  8
0
 10
0.968099
 20
0.884386
 30
0.0
 40
0
 41
0
  0
VERTEX
  8
0
 10
0.955024
 20
0.88916
 30
0.0
 40
0
 41
0
  0
VERTEX
  8
0
 10
0.941949
 20
0.884386
 30
0.0
 40
0
 41
0
  0
VERTEX
  8
0
 10
0.936035
 20
0.870117
 30
0.0
 40
0
 41
0
  0
VERTEX
  8
0
 10
0.941949
 20
0.855903
 30
0.0
 40
0
 41
0
  0
VERTEX
  8
0
 10
0.955024
 20
0.851129
 30
0.0
 40
0
 41
0
  0
VERTEX
  8
0
 10
0.968099
 20
0.855903
 30
0.0
 40
0
 41
0
  0
VERTEX
  8
0
 10
0.974067
 20
0.870117
 30
0.0
 40
0
 41
0
  0
SEQEND
 8
0
  0
POLYLINE
  8
0
 62
     173
 66
     1
 10
0
 20
0
 30
0.0
 70
     1
 40
0
 41
0
  0
VERTEX
  8
0
 10
0.251139
 20
2.11524
 30
0.0
 40
0
 41
0
  0
VERTEX
  8
0
 10
0.241265
 20
2.13889
 30
0.0
 40
0
 41
0
  0
VERTEX
  8
0
 10
0.219618
 20
2.14675
 30
0.0
 40
0
 41
0
  0
VERTEX
  8
0
 10
0.197971
 20
2.13889
 30
0.0
 40
0
 41
0
  0
VERTEX
  8
0
 10
0.188151
 20
2.11524
 30
0.0
 40
0
 41
0
  0
VERTEX
  8
0
 10
0.197971
 20
2.09164
 30
0.0
 40
0
 41
0
  0
VERTEX
  8
0
 10
0.219618
 20
2.08376
 30
0.0
 40
0
 41
0
  0
VERTEX
  8
0
 10
0.241265
 20
2.09164
 30
0.0
 40
0
 41
0
  0
VERTEX
  8
0
 10
0.251139
 20
2.11524
 30
0.0
 40
0
 41
0
  0
SEQEND
 8
0
  0
POLYLINE
  8
0
 62
     173
 66
     1
 10
0
 20
0
 30
0.0
 70
     1
 40
0
 41
0
  0
VERTEX
  8
0
 10
0.251139
 20
0.200032
 30
0.0
 40
0
 41
0
  0
VERTEX
  8
0
 10
0.241265
 20
0.223687
 30
0.0
 40
0
 41
0
  0
VERTEX
  8
0
 10
0.219618
 20
0.231554
 30
0.0
 40
0
 41
0
  0
VERTEX
  8
0
 10
0.197971
 20
0.223687
 30
0.0
 40
0
 41
0
  0
VERTEX
  8
0
 10
0.188151
 20
0.200032
 30
0.0
 40
0
 41
0
  0
VERTEX
  8
0
 10
0.197971
 20
0.176432
 30
0.0
 40
0
 41
0
  0
VERTEX
  8
0
 10
0.219618
 20
0.168565
 30
0.0
 40
0
 41
0
  0
VERTEX
  8
0
 10
0.241265
 20
0.176432
 30
0.0
 40
0
 41
0
  0
VERTEX
  8
0
 10
0.251139
 20
0.200032
 30
0.0
 40
0
 41
0
  0
SEQEND
 8
0
  0
POLYLINE
  8
0
 62
     173
 66
     1
 10
0
 20
0
 30
0.0
 70
     1
 40
0
 41
0
  0
VERTEX
  8
0
 10
0.251953
 20
2.74024
 30
0.0
 40
0
 41
0
  0
VERTEX
  8
0
 10
0.242079
 20
2.76389
 30
0.0
 40
0
 41
0
  0
VERTEX
  8
0
 10
0.220432
 20
2.77175
 30
0.0
 40
0
 41
0
  0
VERTEX
  8
0
 10
0.198785
 20
2.76389
 30
0.0
 40
0
 41
0
  0
VERTEX
  8
0
 10
0.188965
 20
2.74024
 30
0.0
 40
0
 41
0
  0
VERTEX
  8
0
 10
0.198785
 20
2.71664
 30
0.0
 40
0
 41
0
  0
VERTEX
  8
0
 10
0.220432
 20
2.70876
 30
0.0
 40
0
 41
0
  0
VERTEX
  8
0
 10
0.242079
 20
2.71664
 30
0.0
 40
0
 41
0
  0
VERTEX
  8
0
 10
0.251953
 20
2.74024
 30
0.0
 40
0
 41
0
  0
SEQEND
 8
0
  0
POLYLINE
  8
0
 62
     173
 66
     1
 10
0
 20
0
 30
0.0
 70
     1
 40
0
 41
0
  0
VERTEX
  8
0
 10
0.251953
 20
0.800022
 30
0.0
 40
0
 41
0
  0
VERTEX
  8
0
 10
0.242079
 20
0.823676
 30
0.0
 40
0
 41
0
  0
VERTEX
  8
0
 10
0.220432
 20
0.831543
 30
0.0
 40
0
 41
0
  0
VERTEX
  8
0
 10
0.198785
 20
0.823676
 30
0.0
 40
0
 41
0
  0
VERTEX
  8
0
 10
0.188965
 20
0.800022
 30
0.0
 40
0
 41
0
  0
VERTEX
  8
0
 10
0.198785
 20
0.776421
 30
0.0
 40
0
 41
0
  0
VERTEX
  8
0
 10
0.220432
 20
0.768554
 30
0.0
 40
0
 41
0
  0
VERTEX
  8
0
 10
0.242079
 20
0.776421
 30
0.0
 40
0
 41
0
  0
VERTEX
  8
0
 10
0.251953
 20
0.800022
 30
0.0
 40
0
 41
0
  0
SEQEND
 8
0
  0
POLYLINE
  8
0
 62
     173
 66
     1
 10
0
 20
0
 30
0.0
 70
     1
 40
0
 41
0
  0
VERTEX
  8
0
 10
0.871149
 20
2.11524
 30
0.0
 40
0
 41
0
  0
VERTEX
  8
0
 10
0.861274
 20
2.13889
 30
0.0
 40
0
 41
0
  0
VERTEX
  8
0
 10
0.839626
 20
2.14675
 30
0.0
 40
0
 41
0
  0
VERTEX
  8
0
 10
0.817979
 20
2.13889
 30
0.0
 40
0
 41
0
  0
VERTEX
  8
0
 10
0.80816
 20
2.11524
 30
0.0
 40
0
 41
0
  0
VERTEX
  8
0
 10
0.817979
 20
2.09164
 30
0.0
 40
0
 41
0
  0
VERTEX
  8
0
 10
0.839626
 20
2.08376
 30
0.0
 40
0
 41
0
  0
VERTEX
  8
0
 10
0.861274
 20
2.09164
 30
0.0
 40
0
 41
0
  0
VERTEX
  8
0
 10
0.871149
 20
2.11524
 30
0.0
 40
0
 41
0
  0
SEQEND
 8
0
  0
POLYLINE
  8
0
 62
     173
 66
     1
 10
0
 20
0
 30
0.0
 70
     1
 40
0
 41
0
  0
VERTEX
  8
0
 10
0.871149
 20
0.200032
 30
0.0
 40
0
 41
0
  0
VERTEX
  8
0
 10
0.861274
 20
0.223687
 30
0.0
 40
0
 41
0
  0
VERTEX
  8
0
 10
0.839626
 20
0.231554
 30
0.0
 40
0
 41
0
  0
VERTEX
  8
0
 10
0.817979
 20
0.223687
 30
0.0
 40
0
 41
0
  0
VERTEX
  8
0
 10
0.80816
 20
0.200032
 30
0.0
 40
0
 41
0
  0
VERTEX
  8
0
 10
0.817979
 20
0.176432
 30
0.0
 40
0
 41
0
  0
VERTEX
  8
0
 10
0.839626
 20
0.168565
 30
0.0
 40
0
 41
0
  0
VERTEX
  8
0
 10
0.861274
 20
0.176432
 30
0.0
 40
0
 41
0
  0
VERTEX
  8
0
 10
0.871149
 20
0.200032
 30
0.0
 40
0
 41
0
  0
SEQEND
 8
0
  0
POLYLINE
  8
0
 62
     173
 66
     1
 10
0
 20
0
 30
0.0
 70
     1
 40
0
 41
0
  0
VERTEX
  8
0
 10
0.871963
 20
2.74024
 30
0.0
 40
0
 41
0
  0
VERTEX
  8
0
 10
0.862088
 20
2.76389
 30
0.0
 40
0
 41
0
  0
VERTEX
  8
0
 10
0.84044
 20
2.77175
 30
0.0
 40
0
 41
0
  0
VERTEX
  8
0
 10
0.818793
 20
2.76389
 30
0.0
 40
0
 41
0
  0
VERTEX
  8
0
 10
0.808974
 20
2.74024
 30
0.0
 40
0
 41
0
  0
VERTEX
  8
0
 10
0.818793
 20
2.71664
 30
0.0
 40
0
 41
0
  0
VERTEX
  8
0
 10
0.84044
 20
2.70876
 30
0.0
 40
0
 41
0
  0
VERTEX
  8
0
 10
0.862088
 20
2.71664
 30
0.0
 40
0
 41
0
  0
VERTEX
  8
0
 10
0.871963
 20
2.74024
 30
0.0
 40
0
 41
0
  0
SEQEND
 8
0
  0
POLYLINE
  8
0
 62
     173
 66
     1
 10
0
 20
0
 30
0.0
 70
     1
 40
0
 41
0
  0
VERTEX
  8
0
 10
0.871963
 20
0.800022
 30
0.0
 40
0
 41
0
  0
VERTEX
  8
0
 10
0.862088
 20
0.823676
 30
0.0
 40
0
 41
0
  0
VERTEX
  8
0
 10
0.84044
 20
0.831543
 30
0.0
 40
0
 41
0
  0
VERTEX
  8
0
 10
0.818793
 20
0.823676
 30
0.0
 40
0
 41
0
  0
VERTEX
  8
0
 10
0.808974
 20
0.800022
 30
0.0
 40
0
 41
0
  0
VERTEX
  8
0
 10
0.818793
 20
0.776421
 30
0.0
 40
0
 41
0
  0
VERTEX
  8
0
 10
0.84044
 20
0.768554
 30
0.0
 40
0
 41
0
  0
VERTEX
  8
0
 10
0.862088
 20
0.776421
 30
0.0
 40
0
 41
0
  0
VERTEX
  8
0
 10
0.871963
 20
0.800022
 30
0.0
 40
0
 41
0
  0
SEQEND
 8
0
  0
POLYLINE
  8
0
 62
     173
 66
     1
 10
0
 20
0
 30
0.0
 70
     1
 40
0
 41
0
  0
VERTEX
  8
0
 10
0.369032
 20
2.62011
 30
0.0
 40
0
 41
0
  0
VERTEX
  8
0
 10
0.363499
 20
2.64817
 30
0.0
 40
0
 41
0
  0
VERTEX
  8
0
 10
0.349013
 20
2.66812
 30
0.0
 40
0
 41
0
  0
VERTEX
  8
0
 10
0.328504
 20
2.68018
 30
0.0
 40
0
 41
0
  0
VERTEX
  8
0
 10
0.305012
 20
2.68414
 30
0.0
 40
0
 41
0
  0
VERTEX
  8
0
 10
0.281521
 20
2.68018
 30
0.0
 40
0
 41
0
  0
VERTEX
  8
0
 10
0.261014
 20
2.66812
 30
0.0
 40
0
 41
0
  0
VERTEX
  8
0
 10
0.246528
 20
2.64817
 30
0.0
 40
0
 41
0
  0
VERTEX
  8
0
 10
0.241049
 20
2.62011
 30
0.0
 40
0
 41
0
  0
VERTEX
  8
0
 10
0.246528
 20
2.59212
 30
0.0
 40
0
 41
0
  0
VERTEX
  8
0
 10
0.261014
 20
2.57215
 30
0.0
 40
0
 41
0
  0
VERTEX
  8
0
 10
0.281521
 20
2.56011
 30
0.0
 40
0
 41
0
  0
VERTEX
  8
0
 10
0.305012
 20
2.55615
 30
0.0
 40
0
 41
0
  0
VERTEX
  8
0
 10
0.328504
 20
2.56011
 30
0.0
 40
0
 41
0
  0
VERTEX
  8
0
 10
0.349013
 20
2.57215
 30
0.0
 40
0
 41
0
  0
VERTEX
  8
0
 10
0.363499
 20
2.59212
 30
0.0
 40
0
 41
0
  0
VERTEX
  8
0
 10
0.369032
 20
2.62011
 30
0.0
 40
0
 41
0
  0
SEQEND
 8
0
  0
POLYLINE
  8
0
 62
     173
 66
     1
 10
0
 20
0
 30
0.0
 70
     1
 40
0
 41
0
  0
VERTEX
  8
0
 10
0.369032
 20
1.99511
 30
0.0
 40
0
 41
0
  0
VERTEX
  8
0
 10
0.363499
 20
2.02317
 30
0.0
 40
0
 41
0
  0
VERTEX
  8
0
 10
0.349013
 20
2.04312
 30
0.0
 40
0
 41
0
  0
VERTEX
  8
0
 10
0.328504
 20
2.05518
 30
0.0
 40
0
 41
0
  0
VERTEX
  8
0
 10
0.305012
 20
2.05914
 30
0.0
 40
0
 41
0
  0
VERTEX
  8
0
 10
0.281521
 20
2.05518
 30
0.0
 40
0
 41
0
  0
VERTEX
  8
0
 10
0.261014
 20
2.04312
 30
0.0
 40
0
 41
0
  0
VERTEX
  8
0
 10
0.246528
 20
2.02317
 30
0.0
 40
0
 41
0
  0
VERTEX
  8
0
 10
0.241049
 20
1.99511
 30
0.0
 40
0
 41
0
  0
VERTEX
  8
0
 10
0.246528
 20
1.96712
 30
0.0
 40
0
 41
0
  0
VERTEX
  8
0
 10
0.261014
 20
1.94715
 30
0.0
 40
0
 41
0
  0
VERTEX
  8
0
 10
0.281521
 20
1.93511
 30
0.0
 40
0
 41
0
  0
VERTEX
  8
0
 10
0.305012
 20
1.93115
 30
0.0
 40
0
 41
0
  0
VERTEX
  8
0
 10
0.328504
 20
1.93511
 30
0.0
 40
0
 41
0
  0
VERTEX
  8
0
 10
0.349013
 20
1.94715
 30
0.0
 40
0
 41
0
  0
VERTEX
  8
0
 10
0.363499
 20
1.96712
 30
0.0
 40
0
 41
0
  0
VERTEX
  8
0
 10
0.369032
 20
1.99511
 30
0.0
 40
0
 41
0
  0
SEQEND
 8
0
  0
POLYLINE
  8
0
 62
     173
 66
     1
 10
0
 20
0
 30
0.0
 70
     1
 40
0
 41
0
  0
VERTEX
  8
0
 10
0.369032
 20
0.920139
 30
0.0
 40
0
 41
0
  0
VERTEX
  8
0
 10
0.363499
 20
0.948188
 30
0.0
 40
0
 41
0
  0
VERTEX
  8
0
 10
0.349013
 20
0.968153
 30
0.0
 40
0
 41
0
  0
VERTEX
  8
0
 10
0.328504
 20
0.980197
 30
0.0
 40
0
 41
0
  0
VERTEX
  8
0
 10
0.305012
 20
0.984158
 30
0.0
 40
0
 41
0
  0
VERTEX
  8
0
 10
0.281521
 20
0.980197
 30
0.0
 40
0
 41
0
  0
VERTEX
  8
0
 10
0.261014
 20
0.968153
 30
0.0
 40
0
 41
0
  0
VERTEX
  8
0
 10
0.246528
 20
0.948188
 30
0.0
 40
0
 41
0
  0
VERTEX
  8
0
 10
0.241049
 20
0.920139
 30
0.0
 40
0
 41
0
  0
VERTEX
  8
0
 10
0.246528
 20
0.892144
 30
0.0
 40
0
 41
0
  0
VERTEX
  8
0
 10
0.261014
 20
0.872179
 30
0.0
 40
0
 41
0
  0
VERTEX
  8
0
 10
0.281521
 20
0.860135
 30
0.0
 40
0
 41
0
  0
VERTEX
  8
0
 10
0.305012
 20
0.856174
 30
0.0
 40
0
 41
0
  0
VERTEX
  8
0
 10
0.328504
 20
0.860135
 30
0.0
 40
0
 41
0
  0
VERTEX
  8
0
 10
0.349013
 20
0.872179
 30
0.0
 40
0
 41
0
  0
VERTEX
  8
0
 10
0.363499
 20
0.892144
 30
0.0
 40
0
 41
0
  0
VERTEX
  8
0
 10
0.369032
 20
0.920139
 30
0.0
 40
0
 41
0
  0
SEQEND
 8
0
  0
POLYLINE
  8
0
 62
     173
 66
     1
 10
0
 20
0
 30
0.0
 70
     1
 40
0
 41
0
  0
VERTEX
  8
0
 10
0.369032
 20
0.320096
 30
0.0
 40
0
 41
0
  0
VERTEX
  8
0
 10
0.363499
 20
0.348144
 30
0.0
 40
0
 41
0
  0
VERTEX
  8
0
 10
0.349013
 20
0.36811
 30
0.0
 40
0
 41
0
  0
VERTEX
  8
0
 10
0.328504
 20
0.380154
 30
0.0
 40
0
 41
0
  0
VERTEX
  8
0
 10
0.305012
 20
0.384115
 30
0.0
 40
0
 41
0
  0
VERTEX
  8
0
 10
0.281521
 20
0.380154
 30
0.0
 40
0
 41
0
  0
VERTEX
  8
0
 10
0.261014
 20
0.36811
 30
0.0
 40
0
 41
0
  0
VERTEX
  8
0
 10
0.246528
 20
0.348144
 30
0.0
 40
0
 41
0
  0
VERTEX
  8
0
 10
0.241049
 20
0.320096
 30
0.0
 40
0
 41
0
  0
VERTEX
  8
0
 10
0.246528
 20
0.292156
 30
0.0
 40
0
 41
0
  0
VERTEX
  8
0
 10
0.261014
 20
0.272136
 30
0.0
 40
0
 41
0
  0
VERTEX
  8
0
 10
0.281521
 20
0.260146
 30
0.0
 40
0
 41
0
  0
VERTEX
  8
0
 10
0.305012
 20
0.256131
 30
0.0
 40
0
 41
0
  0
VERTEX
  8
0
 10
0.328504
 20
0.260146
 30
0.0
 40
0
 41
0
  0
VERTEX
  8
0
 10
0.349013
 20
0.272136
 30
0.0
 40
0
 41
0
  0
VERTEX
  8
0
 10
0.363499
 20
0.292156
 30
0.0
 40
0
 41
0
  0
VERTEX
  8
0
 10
0.369032
 20
0.320096
 30
0.0
 40
0
 41
0
  0
SEQEND
 8
0
  0
POLYLINE
  8
0
 62
     173
 66
     1
 10
0
 20
0
 30
0.0
 70
     1
 40
0
 41
0
  0
VERTEX
  8
0
 10
0.819065
 20
2.62011
 30
0.0
 40
0
 41
0
  0
VERTEX
  8
0
 10
0.813531
 20
2.64817
 30
0.0
 40
0
 41
0
  0
VERTEX
  8
0
 10
0.799046
 20
2.66812
 30
0.0
 40
0
 41
0
  0
VERTEX
  8
0
 10
0.778537
 20
2.68018
 30
0.0
 40
0
 41
0
  0
VERTEX
  8
0
 10
0.755046
 20
2.68414
 30
0.0
 40
0
 41
0
  0
VERTEX
  8
0
 10
0.7315
 20
2.68018
 30
0.0
 40
0
 41
0
  0
VERTEX
  8
0
 10
0.710992
 20
2.66812
 30
0.0
 40
0
 41
0
  0
VERTEX
  8
0
 10
0.696506
 20
2.64817
 30
0.0
 40
0
 41
0
  0
VERTEX
  8
0
 10
0.691026
 20
2.62011
 30
0.0
 40
0
 41
0
  0
VERTEX
  8
0
 10
0.696506
 20
2.59212
 30
0.0
 40
0
 41
0
  0
VERTEX
  8
0
 10
0.710992
 20
2.57215
 30
0.0
 40
0
 41
0
  0
VERTEX
  8
0
 10
0.7315
 20
2.56011
 30
0.0
 40
0
 41
0
  0
VERTEX
  8
0
 10
0.755046
 20
2.55615
 30
0.0
 40
0
 41
0
  0
VERTEX
  8
0
 10
0.778537
 20
2.56011
 30
0.0
 40
0
 41
0
  0
VERTEX
  8
0
 10
0.799046
 20
2.57215
 30
0.0
 40
0
 41
0
  0
VERTEX
  8
0
 10
0.813531
 20
2.59212
 30
0.0
 40
0
 41
0
  0
VERTEX
  8
0
 10
0.819065
 20
2.62011
 30
0.0
 40
0
 41
0
  0
SEQEND
 8
0
  0
POLYLINE
  8
0
 62
     173
 66
     1
 10
0
 20
0
 30
0.0
 70
     1
 40
0
 41
0
  0
VERTEX
  8
0
 10
0.819065
 20
1.99511
 30
0.0
 40
0
 41
0
  0
VERTEX
  8
0
 10
0.813531
 20
2.02317
 30
0.0
 40
0
 41
0
  0
VERTEX
  8
0
 10
0.799046
 20
2.04312
 30
0.0
 40
0
 41
0
  0
VERTEX
  8
0
 10
0.778537
 20
2.05518
 30
0.0
 40
0
 41
0
  0
VERTEX
  8
0
 10
0.755046
 20
2.05914
 30
0.0
 40
0
 41
0
  0
VERTEX
  8
0
 10
0.7315
 20
2.05518
 30
0.0
 40
0
 41
0
  0
VERTEX
  8
0
 10
0.710992
 20
2.04312
 30
0.0
 40
0
 41
0
  0
VERTEX
  8
0
 10
0.696506
 20
2.02317
 30
0.0
 40
0
 41
0
  0
VERTEX
  8
0
 10
0.691026
 20
1.99511
 30
0.0
 40
0
 41
0
  0
VERTEX
  8
0
 10
0.696506
 20
1.96712
 30
0.0
 40
0
 41
0
  0
VERTEX
  8
0
 10
0.710992
 20
1.94715
 30
0.0
 40
0
 41
0
  0
VERTEX
  8
0
 10
0.7315
 20
1.93511
 30
0.0
 40
0
 41
0
  0
VERTEX
  8
0
 10
0.755046
 20
1.93115
 30
0.0
 40
0
 41
0
  0
VERTEX
  8
0
 10
0.778537
 20
1.93511
 30
0.0
 40
0
 41
0
  0
VERTEX
  8
0
 10
0.799046
 20
1.94715
 30
0.0
 40
0
 41
0
  0
VERTEX
  8
0
 10
0.813531
 20
1.96712
 30
0.0
 40
0
 41
0
  0
VERTEX
  8
0
 10
0.819065
 20
1.99511
 30
0.0
 40
0
 41
0
  0
SEQEND
 8
0
  0
POLYLINE
  8
0
 62
     173
 66
     1
 10
0
 20
0
 30
0.0
 70
     1
 40
0
 41
0
  0
VERTEX
  8
0
 10
0.819065
 20
0.920139
 30
0.0
 40
0
 41
0
  0
VERTEX
  8
0
 10
0.813531
 20
0.948188
 30
0.0
 40
0
 41
0
  0
VERTEX
  8
0
 10
0.799046
 20
0.968153
 30
0.0
 40
0
 41
0
  0
VERTEX
  8
0
 10
0.778537
 20
0.980197
 30
0.0
 40
0
 41
0
  0
VERTEX
  8
0
 10
0.755046
 20
0.984158
 30
0.0
 40
0
 41
0
  0
VERTEX
  8
0
 10
0.7315
 20
0.980197
 30
0.0
 40
0
 41
0
  0
VERTEX
  8
0
 10
0.710992
 20
0.968153
 30
0.0
 40
0
 41
0
  0
VERTEX
  8
0
 10
0.696506
 20
0.948188
 30
0.0
 40
0
 41
0
  0
VERTEX
  8
0
 10
0.691026
 20
0.920139
 30
0.0
 40
0
 41
0
  0
VERTEX
  8
0
 10
0.696506
 20
0.892144
 30
0.0
 40
0
 41
0
  0
VERTEX
  8
0
 10
0.710992
 20
0.872179
 30
0.0
 40
0
 41
0
  0
VERTEX
  8
0
 10
0.7315
 20
0.860135
 30
0.0
 40
0
 41
0
  0
VERTEX
  8
0
 10
0.755046
 20
0.856174
 30
0.0
 40
0
 41
0
  0
VERTEX
  8
0
 10
0.778537
 20
0.860135
 30
0.0
 40
0
 41
0
  0
VERTEX
  8
0
 10
0.799046
 20
0.872179
 30
0.0
 40
0
 41
0
  0
VERTEX
  8
0
 10
0.813531
 20
0.892144
 30
0.0
 40
0
 41
0
  0
VERTEX
  8
0
 10
0.819065
 20
0.920139
 30
0.0
 40
0
 41
0
  0
SEQEND
 8
0
  0
POLYLINE
  8
0
 62
     173
 66
     1
 10
0
 20
0
 30
0.0
 70
     1
 40
0
 41
0
  0
VERTEX
  8
0
 10
0.819065
 20
0.320096
 30
0.0
 40
0
 41
0
  0
VERTEX
  8
0
 10
0.813531
 20
0.348144
 30
0.0
 40
0
 41
0
  0
VERTEX
  8
0
 10
0.799046
 20
0.36811
 30
0.0
 40
0
 41
0
  0
VERTEX
  8
0
 10
0.778537
 20
0.380154
 30
0.0
 40
0
 41
0
  0
VERTEX
  8
0
 10
0.755046
 20
0.384115
 30
0.0
 40
0
 41
0
  0
VERTEX
  8
0
 10
0.7315
 20
0.380154
 30
0.0
 40
0
 41
0
  0
VERTEX
  8
0
 10
0.710992
 20
0.36811
 30
0.0
 40
0
 41
0
  0
VERTEX
  8
0
 10
0.696506
 20
0.348144
 30
0.0
 40
0
 41
0
  0
VERTEX
  8
0
 10
0.691026
 20
0.320096
 30
0.0
 40
0
 41
0
  0
VERTEX
  8
0
 10
0.696506
 20
0.292156
 30
0.0
 40
0
 41
0
  0
VERTEX
  8
0
 10
0.710992
 20
0.272136
 30
0.0
 40
0
 41
0
  0
VERTEX
  8
0
 10
0.7315
 20
0.260146
 30
0.0
 40
0
 41
0
  0
VERTEX
  8
0
 10
0.755046
 20
0.256131
 30
0.0
 40
0
 41
0
  0
VERTEX
  8
0
 10
0.778537
 20
0.260146
 30
0.0
 40
0
 41
0
  0
VERTEX
  8
0
 10
0.799046
 20
0.272136
 30
0.0
 40
0
 41
0
  0
VERTEX
  8
0
 10
0.813531
 20
0.292156
 30
0.0
 40
0
 41
0
  0
VERTEX
  8
0
 10
0.819065
 20
0.320096
 30
0.0
 40
0
 41
0
  0
SEQEND
 8
0
  0
ENDSEC
  0
EOF
