  0
SECTION
  2
HEADER
  9
$ACADVER
  1
AC1009
  9
$EXTMIN
 10
0.0
 20
0.0
 30
0.0
  9
$EXTMAX
 10
1000.0
 20
1000.0
 30
0.0
  9
$FILLMODE
 70
 0
  9
$SPLFRAME
 70
 1
  0
ENDSEC
  0
SECTION
  2
TABLES
  0
TABLE
  2
LAYER
 70
1
  0
LAYER
  2
0
 70
     0
 62
     7
  6
CONTINUOUS
  0
ENDTAB
  0
ENDSEC
  0
SECTION
  2
ENTITIES
  0
POLYLINE
  8
0
 62
     13
 66
     1
 10
0
 20
0
 30
0.0
 40
0.432
 41
0.432
  0
VERTEX
  8
0
 10
0.00303819
 20
1.47803
 30
0.0
 40
0.006
 41
0.006
  0
VERTEX
  8
0
 10
0.00303819
 20
0.00303819
 30
0.0
 40
0.006
 41
0.006
  0
SEQEND
 8
0
  0
POLYLINE
  8
0
 62
     13
 66
     1
 10
0
 20
0
 30
0.0
 40
0.432
 41
0.432
  0
VERTEX
  8
0
 10
0.00303819
 20
0.00303819
 30
0.0
 40
0.006
 41
0.006
  0
VERTEX
  8
0
 10
1.75304
 20
0.00303819
 30
0.0
 40
0.006
 41
0.006
  0
SEQEND
 8
0
  0
POLYLINE
  8
0
 62
     13
 66
     1
 10
0
 20
0
 30
0.0
 40
0.432
 41
0.432
  0
VERTEX
  8
0
 10
1.75304
 20
0.00303819
 30
0.0
 40
0.006
 41
0.006
  0
VERTEX
  8
0
 10
1.75304
 20
1.47803
 30
0.0
 40
0.006
 41
0.006
  0
SEQEND
 8
0
  0
POLYLINE
  8
0
 62
     13
 66
     1
 10
0
 20
0
 30
0.0
 40
0.432
 41
0.432
  0
VERTEX
  8
0
 10
1.75304
 20
1.47803
 30
0.0
 40
0.006
 41
0.006
  0
VERTEX
  8
0
 10
0.00303819
 20
1.47803
 30
0.0
 40
0.006
 41
0.006
  0
SEQEND
 8
0
  0
POLYLINE
  8
0
 62
     173
 66
     1
 10
0
 20
0
 30
0.0
 70
     1
 40
0
 41
0
  0
VERTEX
  8
0
 10
0.154514
 20
1.29302
 30
0.0
 40
0
 41
0
  0
VERTEX
  8
0
 10
0.154514
 20
1.29465
 30
0.0
 40
0
 41
0
  0
VERTEX
  8
0
 10
0.148004
 20
1.29953
 30
0.0
 40
0
 41
0
  0
VERTEX
  8
0
 10
0.141547
 20
1.29465
 30
0.0
 40
0
 41
0
  0
VERTEX
  8
0
 10
0.141547
 20
1.29302
 30
0.0
 40
0
 41
0
  0
VERTEX
  8
0
 10
0.141547
 20
1.29145
 30
0.0
 40
0
 41
0
  0
VERTEX
  8
0
 10
0.148004
 20
1.28657
 30
0.0
 40
0
 41
0
  0
VERTEX
  8
0
 10
0.154514
 20
1.29145
 30
0.0
 40
0
 41
0
  0
VERTEX
  8
0
 10
0.154514
 20
1.29302
 30
0.0
 40
0
 41
0
  0
SEQEND
 8
0
  0
POLYLINE
  8
0
 62
     173
 66
     1
 10
0
 20
0
 30
0.0
 70
     1
 40
0
 41
0
  0
VERTEX
  8
0
 10
0.154514
 20
1.24306
 30
0.0
 40
0
 41
0
  0
VERTEX
  8
0
 10
0.154514
 20
1.24468
 30
0.0
 40
0
 41
0
  0
VERTEX
  8
0
 10
0.148004
 20
1.24957
 30
0.0
 40
0
 41
0
  0
VERTEX
  8
0
 10
0.141547
 20
1.24468
 30
0.0
 40
0
 41
0
  0
VERTEX
  8
0
 10
0.141547
 20
1.24306
 30
0.0
 40
0
 41
0
  0
VERTEX
  8
0
 10
0.141547
 20
1.24143
 30
0.0
 40
0
 41
0
  0
VERTEX
  8
0
 10
0.148004
 20
1.23655
 30
0.0
 40
0
 41
0
  0
VERTEX
  8
0
 10
0.154514
 20
1.24143
 30
0.0
 40
0
 41
0
  0
VERTEX
  8
0
 10
0.154514
 20
1.24306
 30
0.0
 40
0
 41
0
  0
SEQEND
 8
0
  0
POLYLINE
  8
0
 62
     173
 66
     1
 10
0
 20
0
 30
0.0
 70
     1
 40
0
 41
0
  0
VERTEX
  8
0
 10
0.154514
 20
1.19303
 30
0.0
 40
0
 41
0
  0
VERTEX
  8
0
 10
0.154514
 20
1.19466
 30
0.0
 40
0
 41
0
  0
VERTEX
  8
0
 10
0.148004
 20
1.19954
 30
0.0
 40
0
 41
0
  0
VERTEX
  8
0
 10
0.141547
 20
1.19466
 30
0.0
 40
0
 41
0
  0
VERTEX
  8
0
 10
0.141547
 20
1.19303
 30
0.0
 40
0
 41
0
  0
VERTEX
  8
0
 10
0.141547
 20
1.19146
 30
0.0
 40
0
 41
0
  0
VERTEX
  8
0
 10
0.148004
 20
1.18658
 30
0.0
 40
0
 41
0
  0
VERTEX
  8
0
 10
0.154514
 20
1.19146
 30
0.0
 40
0
 41
0
  0
VERTEX
  8
0
 10
0.154514
 20
1.19303
 30
0.0
 40
0
 41
0
  0
SEQEND
 8
0
  0
POLYLINE
  8
0
 62
     173
 66
     1
 10
0
 20
0
 30
0.0
 70
     1
 40
0
 41
0
  0
VERTEX
  8
0
 10
0.154514
 20
1.14307
 30
0.0
 40
0
 41
0
  0
VERTEX
  8
0
 10
0.154514
 20
1.14469
 30
0.0
 40
0
 41
0
  0
VERTEX
  8
0
 10
0.148004
 20
1.14958
 30
0.0
 40
0
 41
0
  0
VERTEX
  8
0
 10
0.141547
 20
1.14469
 30
0.0
 40
0
 41
0
  0
VERTEX
  8
0
 10
0.141547
 20
1.14307
 30
0.0
 40
0
 41
0
  0
VERTEX
  8
0
 10
0.141547
 20
1.14144
 30
0.0
 40
0
 41
0
  0
VERTEX
  8
0
 10
0.148004
 20
1.13656
 30
0.0
 40
0
 41
0
  0
VERTEX
  8
0
 10
0.154514
 20
1.14144
 30
0.0
 40
0
 41
0
  0
VERTEX
  8
0
 10
0.154514
 20
1.14307
 30
0.0
 40
0
 41
0
  0
SEQEND
 8
0
  0
POLYLINE
  8
0
 62
     173
 66
     1
 10
0
 20
0
 30
0.0
 70
     1
 40
0
 41
0
  0
VERTEX
  8
0
 10
0.154514
 20
1.09304
 30
0.0
 40
0
 41
0
  0
VERTEX
  8
0
 10
0.154514
 20
1.09467
 30
0.0
 40
0
 41
0
  0
VERTEX
  8
0
 10
0.148004
 20
1.09956
 30
0.0
 40
0
 41
0
  0
VERTEX
  8
0
 10
0.141547
 20
1.09467
 30
0.0
 40
0
 41
0
  0
VERTEX
  8
0
 10
0.141547
 20
1.09304
 30
0.0
 40
0
 41
0
  0
VERTEX
  8
0
 10
0.141547
 20
1.09142
 30
0.0
 40
0
 41
0
  0
VERTEX
  8
0
 10
0.148004
 20
1.08653
 30
0.0
 40
0
 41
0
  0
VERTEX
  8
0
 10
0.154514
 20
1.09142
 30
0.0
 40
0
 41
0
  0
VERTEX
  8
0
 10
0.154514
 20
1.09304
 30
0.0
 40
0
 41
0
  0
SEQEND
 8
0
  0
POLYLINE
  8
0
 62
     173
 66
     1
 10
0
 20
0
 30
0.0
 70
     1
 40
0
 41
0
  0
VERTEX
  8
0
 10
0.154514
 20
1.04302
 30
0.0
 40
0
 41
0
  0
VERTEX
  8
0
 10
0.154514
 20
1.04465
 30
0.0
 40
0
 41
0
  0
VERTEX
  8
0
 10
0.148004
 20
1.04953
 30
0.0
 40
0
 41
0
  0
VERTEX
  8
0
 10
0.141547
 20
1.04465
 30
0.0
 40
0
 41
0
  0
VERTEX
  8
0
 10
0.141547
 20
1.04302
 30
0.0
 40
0
 41
0
  0
VERTEX
  8
0
 10
0.141547
 20
1.04145
 30
0.0
 40
0
 41
0
  0
VERTEX
  8
0
 10
0.148004
 20
1.03657
 30
0.0
 40
0
 41
0
  0
VERTEX
  8
0
 10
0.154514
 20
1.04145
 30
0.0
 40
0
 41
0
  0
VERTEX
  8
0
 10
0.154514
 20
1.04302
 30
0.0
 40
0
 41
0
  0
SEQEND
 8
0
  0
POLYLINE
  8
0
 62
     173
 66
     1
 10
0
 20
0
 30
0.0
 70
     1
 40
0
 41
0
  0
VERTEX
  8
0
 10
0.154514
 20
0.993056
 30
0.0
 40
0
 41
0
  0
VERTEX
  8
0
 10
0.154514
 20
0.994683
 30
0.0
 40
0
 41
0
  0
VERTEX
  8
0
 10
0.148004
 20
0.999567
 30
0.0
 40
0
 41
0
  0
VERTEX
  8
0
 10
0.141547
 20
0.994683
 30
0.0
 40
0
 41
0
  0
VERTEX
  8
0
 10
0.141547
 20
0.993056
 30
0.0
 40
0
 41
0
  0
VERTEX
  8
0
 10
0.141547
 20
0.991428
 30
0.0
 40
0
 41
0
  0
VERTEX
  8
0
 10
0.148004
 20
0.986546
 30
0.0
 40
0
 41
0
  0
VERTEX
  8
0
 10
0.154514
 20
0.991428
 30
0.0
 40
0
 41
0
  0
VERTEX
  8
0
 10
0.154514
 20
0.993056
 30
0.0
 40
0
 41
0
  0
SEQEND
 8
0
  0
POLYLINE
  8
0
 62
     173
 66
     1
 10
0
 20
0
 30
0.0
 70
     1
 40
0
 41
0
  0
VERTEX
  8
0
 10
0.154514
 20
0.943033
 30
0.0
 40
0
 41
0
  0
VERTEX
  8
0
 10
0.154514
 20
0.944661
 30
0.0
 40
0
 41
0
  0
VERTEX
  8
0
 10
0.148004
 20
0.949544
 30
0.0
 40
0
 41
0
  0
VERTEX
  8
0
 10
0.141547
 20
0.944661
 30
0.0
 40
0
 41
0
  0
VERTEX
  8
0
 10
0.141547
 20
0.943033
 30
0.0
 40
0
 41
0
  0
VERTEX
  8
0
 10
0.141547
 20
0.941461
 30
0.0
 40
0
 41
0
  0
VERTEX
  8
0
 10
0.148004
 20
0.936578
 30
0.0
 40
0
 41
0
  0
VERTEX
  8
0
 10
0.154514
 20
0.941461
 30
0.0
 40
0
 41
0
  0
VERTEX
  8
0
 10
0.154514
 20
0.943033
 30
0.0
 40
0
 41
0
  0
SEQEND
 8
0
  0
POLYLINE
  8
0
 62
     173
 66
     1
 10
0
 20
0
 30
0.0
 70
     1
 40
0
 41
0
  0
VERTEX
  8
0
 10
0.154514
 20
0.53304
 30
0.0
 40
0
 41
0
  0
VERTEX
  8
0
 10
0.154514
 20
0.534668
 30
0.0
 40
0
 41
0
  0
VERTEX
  8
0
 10
0.148004
 20
0.539551
 30
0.0
 40
0
 41
0
  0
VERTEX
  8
0
 10
0.141547
 20
0.534668
 30
0.0
 40
0
 41
0
  0
VERTEX
  8
0
 10
0.141547
 20
0.53304
 30
0.0
 40
0
 41
0
  0
VERTEX
  8
0
 10
0.141547
 20
0.531412
 30
0.0
 40
0
 41
0
  0
VERTEX
  8
0
 10
0.148004
 20
0.526531
 30
0.0
 40
0
 41
0
  0
VERTEX
  8
0
 10
0.154514
 20
0.531412
 30
0.0
 40
0
 41
0
  0
VERTEX
  8
0
 10
0.154514
 20
0.53304
 30
0.0
 40
0
 41
0
  0
SEQEND
 8
0
  0
POLYLINE
  8
0
 62
     173
 66
     1
 10
0
 20
0
 30
0.0
 70
     1
 40
0
 41
0
  0
VERTEX
  8
0
 10
0.154514
 20
0.483074
 30
0.0
 40
0
 41
0
  0
VERTEX
  8
0
 10
0.154514
 20
0.4847
 30
0.0
 40
0
 41
0
  0
VERTEX
  8
0
 10
0.148004
 20
0.489583
 30
0.0
 40
0
 41
0
  0
VERTEX
  8
0
 10
0.141547
 20
0.4847
 30
0.0
 40
0
 41
0
  0
VERTEX
  8
0
 10
0.141547
 20
0.483074
 30
0.0
 40
0
 41
0
  0
VERTEX
  8
0
 10
0.141547
 20
0.481446
 30
0.0
 40
0
 41
0
  0
VERTEX
  8
0
 10
0.148004
 20
0.476563
 30
0.0
 40
0
 41
0
  0
VERTEX
  8
0
 10
0.154514
 20
0.481446
 30
0.0
 40
0
 41
0
  0
VERTEX
  8
0
 10
0.154514
 20
0.483074
 30
0.0
 40
0
 41
0
  0
SEQEND
 8
0
  0
POLYLINE
  8
0
 62
     173
 66
     1
 10
0
 20
0
 30
0.0
 70
     1
 40
0
 41
0
  0
VERTEX
  8
0
 10
0.154514
 20
0.433051
 30
0.0
 40
0
 41
0
  0
VERTEX
  8
0
 10
0.154514
 20
0.434679
 30
0.0
 40
0
 41
0
  0
VERTEX
  8
0
 10
0.148004
 20
0.439561
 30
0.0
 40
0
 41
0
  0
VERTEX
  8
0
 10
0.141547
 20
0.434679
 30
0.0
 40
0
 41
0
  0
VERTEX
  8
0
 10
0.141547
 20
0.433051
 30
0.0
 40
0
 41
0
  0
VERTEX
  8
0
 10
0.141547
 20
0.431424
 30
0.0
 40
0
 41
0
  0
VERTEX
  8
0
 10
0.148004
 20
0.42654
 30
0.0
 40
0
 41
0
  0
VERTEX
  8
0
 10
0.154514
 20
0.431424
 30
0.0
 40
0
 41
0
  0
VERTEX
  8
0
 10
0.154514
 20
0.433051
 30
0.0
 40
0
 41
0
  0
SEQEND
 8
0
  0
POLYLINE
  8
0
 62
     173
 66
     1
 10
0
 20
0
 30
0.0
 70
     1
 40
0
 41
0
  0
VERTEX
  8
0
 10
0.154514
 20
0.383029
 30
0.0
 40
0
 41
0
  0
VERTEX
  8
0
 10
0.154514
 20
0.384657
 30
0.0
 40
0
 41
0
  0
VERTEX
  8
0
 10
0.148004
 20
0.38954
 30
0.0
 40
0
 41
0
  0
VERTEX
  8
0
 10
0.141547
 20
0.384657
 30
0.0
 40
0
 41
0
  0
VERTEX
  8
0
 10
0.141547
 20
0.383029
 30
0.0
 40
0
 41
0
  0
VERTEX
  8
0
 10
0.141547
 20
0.381456
 30
0.0
 40
0
 41
0
  0
VERTEX
  8
0
 10
0.148004
 20
0.376574
 30
0.0
 40
0
 41
0
  0
VERTEX
  8
0
 10
0.154514
 20
0.381456
 30
0.0
 40
0
 41
0
  0
VERTEX
  8
0
 10
0.154514
 20
0.383029
 30
0.0
 40
0
 41
0
  0
SEQEND
 8
0
  0
POLYLINE
  8
0
 62
     173
 66
     1
 10
0
 20
0
 30
0.0
 70
     1
 40
0
 41
0
  0
VERTEX
  8
0
 10
0.154514
 20
0.333062
 30
0.0
 40
0
 41
0
  0
VERTEX
  8
0
 10
0.154514
 20
0.33469
 30
0.0
 40
0
 41
0
  0
VERTEX
  8
0
 10
0.148004
 20
0.339572
 30
0.0
 40
0
 41
0
  0
VERTEX
  8
0
 10
0.141547
 20
0.33469
 30
0.0
 40
0
 41
0
  0
VERTEX
  8
0
 10
0.141547
 20
0.333062
 30
0.0
 40
0
 41
0
  0
VERTEX
  8
0
 10
0.141547
 20
0.331435
 30
0.0
 40
0
 41
0
  0
VERTEX
  8
0
 10
0.148004
 20
0.326551
 30
0.0
 40
0
 41
0
  0
VERTEX
  8
0
 10
0.154514
 20
0.331435
 30
0.0
 40
0
 41
0
  0
VERTEX
  8
0
 10
0.154514
 20
0.333062
 30
0.0
 40
0
 41
0
  0
SEQEND
 8
0
  0
POLYLINE
  8
0
 62
     173
 66
     1
 10
0
 20
0
 30
0.0
 70
     1
 40
0
 41
0
  0
VERTEX
  8
0
 10
0.154514
 20
0.28304
 30
0.0
 40
0
 41
0
  0
VERTEX
  8
0
 10
0.154514
 20
0.284668
 30
0.0
 40
0
 41
0
  0
VERTEX
  8
0
 10
0.148004
 20
0.289551
 30
0.0
 40
0
 41
0
  0
VERTEX
  8
0
 10
0.141547
 20
0.284668
 30
0.0
 40
0
 41
0
  0
VERTEX
  8
0
 10
0.141547
 20
0.28304
 30
0.0
 40
0
 41
0
  0
VERTEX
  8
0
 10
0.141547
 20
0.281412
 30
0.0
 40
0
 41
0
  0
VERTEX
  8
0
 10
0.148004
 20
0.276531
 30
0.0
 40
0
 41
0
  0
VERTEX
  8
0
 10
0.154514
 20
0.281412
 30
0.0
 40
0
 41
0
  0
VERTEX
  8
0
 10
0.154514
 20
0.28304
 30
0.0
 40
0
 41
0
  0
SEQEND
 8
0
  0
POLYLINE
  8
0
 62
     173
 66
     1
 10
0
 20
0
 30
0.0
 70
     1
 40
0
 41
0
  0
VERTEX
  8
0
 10
0.154514
 20
0.233074
 30
0.0
 40
0
 41
0
  0
VERTEX
  8
0
 10
0.154514
 20
0.2347
 30
0.0
 40
0
 41
0
  0
VERTEX
  8
0
 10
0.148004
 20
0.239583
 30
0.0
 40
0
 41
0
  0
VERTEX
  8
0
 10
0.141547
 20
0.2347
 30
0.0
 40
0
 41
0
  0
VERTEX
  8
0
 10
0.141547
 20
0.233074
 30
0.0
 40
0
 41
0
  0
VERTEX
  8
0
 10
0.141547
 20
0.231446
 30
0.0
 40
0
 41
0
  0
VERTEX
  8
0
 10
0.148004
 20
0.226563
 30
0.0
 40
0
 41
0
  0
VERTEX
  8
0
 10
0.154514
 20
0.231446
 30
0.0
 40
0
 41
0
  0
VERTEX
  8
0
 10
0.154514
 20
0.233074
 30
0.0
 40
0
 41
0
  0
SEQEND
 8
0
  0
POLYLINE
  8
0
 62
     173
 66
     1
 10
0
 20
0
 30
0.0
 70
     1
 40
0
 41
0
  0
VERTEX
  8
0
 10
0.154514
 20
0.183051
 30
0.0
 40
0
 41
0
  0
VERTEX
  8
0
 10
0.154514
 20
0.184679
 30
0.0
 40
0
 41
0
  0
VERTEX
  8
0
 10
0.148004
 20
0.189561
 30
0.0
 40
0
 41
0
  0
VERTEX
  8
0
 10
0.141547
 20
0.184679
 30
0.0
 40
0
 41
0
  0
VERTEX
  8
0
 10
0.141547
 20
0.183051
 30
0.0
 40
0
 41
0
  0
VERTEX
  8
0
 10
0.141547
 20
0.181424
 30
0.0
 40
0
 41
0
  0
VERTEX
  8
0
 10
0.148004
 20
0.17654
 30
0.0
 40
0
 41
0
  0
VERTEX
  8
0
 10
0.154514
 20
0.181424
 30
0.0
 40
0
 41
0
  0
VERTEX
  8
0
 10
0.154514
 20
0.183051
 30
0.0
 40
0
 41
0
  0
SEQEND
 8
0
  0
POLYLINE
  8
0
 62
     173
 66
     1
 10
0
 20
0
 30
0.0
 70
     1
 40
0
 41
0
  0
VERTEX
  8
0
 10
0.429525
 20
1.33805
 30
0.0
 40
0
 41
0
  0
VERTEX
  8
0
 10
0.429525
 20
1.33968
 30
0.0
 40
0
 41
0
  0
VERTEX
  8
0
 10
0.423014
 20
1.34456
 30
0.0
 40
0
 41
0
  0
VERTEX
  8
0
 10
0.416558
 20
1.33968
 30
0.0
 40
0
 41
0
  0
VERTEX
  8
0
 10
0.416558
 20
1.33805
 30
0.0
 40
0
 41
0
  0
VERTEX
  8
0
 10
0.416558
 20
1.33643
 30
0.0
 40
0
 41
0
  0
VERTEX
  8
0
 10
0.423014
 20
1.33154
 30
0.0
 40
0
 41
0
  0
VERTEX
  8
0
 10
0.429525
 20
1.33643
 30
0.0
 40
0
 41
0
  0
VERTEX
  8
0
 10
0.429525
 20
1.33805
 30
0.0
 40
0
 41
0
  0
SEQEND
 8
0
  0
POLYLINE
  8
0
 62
     173
 66
     1
 10
0
 20
0
 30
0.0
 70
     1
 40
0
 41
0
  0
VERTEX
  8
0
 10
0.429525
 20
1.28304
 30
0.0
 40
0
 41
0
  0
VERTEX
  8
0
 10
0.429525
 20
1.28467
 30
0.0
 40
0
 41
0
  0
VERTEX
  8
0
 10
0.423014
 20
1.28955
 30
0.0
 40
0
 41
0
  0
VERTEX
  8
0
 10
0.416558
 20
1.28467
 30
0.0
 40
0
 41
0
  0
VERTEX
  8
0
 10
0.416558
 20
1.28304
 30
0.0
 40
0
 41
0
  0
VERTEX
  8
0
 10
0.416558
 20
1.28141
 30
0.0
 40
0
 41
0
  0
VERTEX
  8
0
 10
0.423014
 20
1.27653
 30
0.0
 40
0
 41
0
  0
VERTEX
  8
0
 10
0.429525
 20
1.28141
 30
0.0
 40
0
 41
0
  0
VERTEX
  8
0
 10
0.429525
 20
1.28304
 30
0.0
 40
0
 41
0
  0
SEQEND
 8
0
  0
POLYLINE
  8
0
 62
     173
 66
     1
 10
0
 20
0
 30
0.0
 70
     1
 40
0
 41
0
  0
VERTEX
  8
0
 10
0.429525
 20
1.23307
 30
0.0
 40
0
 41
0
  0
VERTEX
  8
0
 10
0.429525
 20
1.2347
 30
0.0
 40
0
 41
0
  0
VERTEX
  8
0
 10
0.423014
 20
1.23958
 30
0.0
 40
0
 41
0
  0
VERTEX
  8
0
 10
0.416558
 20
1.2347
 30
0.0
 40
0
 41
0
  0
VERTEX
  8
0
 10
0.416558
 20
1.23307
 30
0.0
 40
0
 41
0
  0
VERTEX
  8
0
 10
0.416558
 20
1.23145
 30
0.0
 40
0
 41
0
  0
VERTEX
  8
0
 10
0.423014
 20
1.22656
 30
0.0
 40
0
 41
0
  0
VERTEX
  8
0
 10
0.429525
 20
1.23145
 30
0.0
 40
0
 41
0
  0
VERTEX
  8
0
 10
0.429525
 20
1.23307
 30
0.0
 40
0
 41
0
  0
SEQEND
 8
0
  0
POLYLINE
  8
0
 62
     173
 66
     1
 10
0
 20
0
 30
0.0
 70
     1
 40
0
 41
0
  0
VERTEX
  8
0
 10
0.429525
 20
1.17806
 30
0.0
 40
0
 41
0
  0
VERTEX
  8
0
 10
0.429525
 20
1.17969
 30
0.0
 40
0
 41
0
  0
VERTEX
  8
0
 10
0.423014
 20
1.18457
 30
0.0
 40
0
 41
0
  0
VERTEX
  8
0
 10
0.416558
 20
1.17969
 30
0.0
 40
0
 41
0
  0
VERTEX
  8
0
 10
0.416558
 20
1.17806
 30
0.0
 40
0
 41
0
  0
VERTEX
  8
0
 10
0.416558
 20
1.17643
 30
0.0
 40
0
 41
0
  0
VERTEX
  8
0
 10
0.423014
 20
1.17155
 30
0.0
 40
0
 41
0
  0
VERTEX
  8
0
 10
0.429525
 20
1.17643
 30
0.0
 40
0
 41
0
  0
VERTEX
  8
0
 10
0.429525
 20
1.17806
 30
0.0
 40
0
 41
0
  0
SEQEND
 8
0
  0
POLYLINE
  8
0
 62
     173
 66
     1
 10
0
 20
0
 30
0.0
 70
     1
 40
0
 41
0
  0
VERTEX
  8
0
 10
0.429525
 20
1.12305
 30
0.0
 40
0
 41
0
  0
VERTEX
  8
0
 10
0.429525
 20
1.12468
 30
0.0
 40
0
 41
0
  0
VERTEX
  8
0
 10
0.423014
 20
1.12956
 30
0.0
 40
0
 41
0
  0
VERTEX
  8
0
 10
0.416558
 20
1.12468
 30
0.0
 40
0
 41
0
  0
VERTEX
  8
0
 10
0.416558
 20
1.12305
 30
0.0
 40
0
 41
0
  0
VERTEX
  8
0
 10
0.416558
 20
1.12142
 30
0.0
 40
0
 41
0
  0
VERTEX
  8
0
 10
0.423014
 20
1.11654
 30
0.0
 40
0
 41
0
  0
VERTEX
  8
0
 10
0.429525
 20
1.12142
 30
0.0
 40
0
 41
0
  0
VERTEX
  8
0
 10
0.429525
 20
1.12305
 30
0.0
 40
0
 41
0
  0
SEQEND
 8
0
  0
POLYLINE
  8
0
 62
     173
 66
     1
 10
0
 20
0
 30
0.0
 70
     1
 40
0
 41
0
  0
VERTEX
  8
0
 10
0.429525
 20
1.06803
 30
0.0
 40
0
 41
0
  0
VERTEX
  8
0
 10
0.429525
 20
1.06966
 30
0.0
 40
0
 41
0
  0
VERTEX
  8
0
 10
0.423014
 20
1.07454
 30
0.0
 40
0
 41
0
  0
VERTEX
  8
0
 10
0.416558
 20
1.06966
 30
0.0
 40
0
 41
0
  0
VERTEX
  8
0
 10
0.416558
 20
1.06803
 30
0.0
 40
0
 41
0
  0
VERTEX
  8
0
 10
0.416558
 20
1.06646
 30
0.0
 40
0
 41
0
  0
VERTEX
  8
0
 10
0.423014
 20
1.06158
 30
0.0
 40
0
 41
0
  0
VERTEX
  8
0
 10
0.429525
 20
1.06646
 30
0.0
 40
0
 41
0
  0
VERTEX
  8
0
 10
0.429525
 20
1.06803
 30
0.0
 40
0
 41
0
  0
SEQEND
 8
0
  0
POLYLINE
  8
0
 62
     173
 66
     1
 10
0
 20
0
 30
0.0
 70
     1
 40
0
 41
0
  0
VERTEX
  8
0
 10
0.429525
 20
1.01307
 30
0.0
 40
0
 41
0
  0
VERTEX
  8
0
 10
0.429525
 20
1.0147
 30
0.0
 40
0
 41
0
  0
VERTEX
  8
0
 10
0.423014
 20
1.01959
 30
0.0
 40
0
 41
0
  0
VERTEX
  8
0
 10
0.416558
 20
1.0147
 30
0.0
 40
0
 41
0
  0
VERTEX
  8
0
 10
0.416558
 20
1.01307
 30
0.0
 40
0
 41
0
  0
VERTEX
  8
0
 10
0.416558
 20
1.01145
 30
0.0
 40
0
 41
0
  0
VERTEX
  8
0
 10
0.423014
 20
1.00657
 30
0.0
 40
0
 41
0
  0
VERTEX
  8
0
 10
0.429525
 20
1.01145
 30
0.0
 40
0
 41
0
  0
VERTEX
  8
0
 10
0.429525
 20
1.01307
 30
0.0
 40
0
 41
0
  0
SEQEND
 8
0
  0
POLYLINE
  8
0
 62
     173
 66
     1
 10
0
 20
0
 30
0.0
 70
     1
 40
0
 41
0
  0
VERTEX
  8
0
 10
0.429525
 20
0.958062
 30
0.0
 40
0
 41
0
  0
VERTEX
  8
0
 10
0.429525
 20
0.95969
 30
0.0
 40
0
 41
0
  0
VERTEX
  8
0
 10
0.423014
 20
0.964572
 30
0.0
 40
0
 41
0
  0
VERTEX
  8
0
 10
0.416558
 20
0.95969
 30
0.0
 40
0
 41
0
  0
VERTEX
  8
0
 10
0.416558
 20
0.958062
 30
0.0
 40
0
 41
0
  0
VERTEX
  8
0
 10
0.416558
 20
0.956435
 30
0.0
 40
0
 41
0
  0
VERTEX
  8
0
 10
0.423014
 20
0.951551
 30
0.0
 40
0
 41
0
  0
VERTEX
  8
0
 10
0.429525
 20
0.956435
 30
0.0
 40
0
 41
0
  0
VERTEX
  8
0
 10
0.429525
 20
0.958062
 30
0.0
 40
0
 41
0
  0
SEQEND
 8
0
  0
POLYLINE
  8
0
 62
     173
 66
     1
 10
0
 20
0
 30
0.0
 70
     1
 40
0
 41
0
  0
VERTEX
  8
0
 10
0.429525
 20
0.578071
 30
0.0
 40
0
 41
0
  0
VERTEX
  8
0
 10
0.429525
 20
0.579699
 30
0.0
 40
0
 41
0
  0
VERTEX
  8
0
 10
0.423014
 20
0.584581
 30
0.0
 40
0
 41
0
  0
VERTEX
  8
0
 10
0.416558
 20
0.579699
 30
0.0
 40
0
 41
0
  0
VERTEX
  8
0
 10
0.416558
 20
0.578071
 30
0.0
 40
0
 41
0
  0
VERTEX
  8
0
 10
0.416558
 20
0.576443
 30
0.0
 40
0
 41
0
  0
VERTEX
  8
0
 10
0.423014
 20
0.57156
 30
0.0
 40
0
 41
0
  0
VERTEX
  8
0
 10
0.429525
 20
0.576443
 30
0.0
 40
0
 41
0
  0
VERTEX
  8
0
 10
0.429525
 20
0.578071
 30
0.0
 40
0
 41
0
  0
SEQEND
 8
0
  0
POLYLINE
  8
0
 62
     173
 66
     1
 10
0
 20
0
 30
0.0
 70
     1
 40
0
 41
0
  0
VERTEX
  8
0
 10
0.429525
 20
0.523058
 30
0.0
 40
0
 41
0
  0
VERTEX
  8
0
 10
0.429525
 20
0.524685
 30
0.0
 40
0
 41
0
  0
VERTEX
  8
0
 10
0.423014
 20
0.529568
 30
0.0
 40
0
 41
0
  0
VERTEX
  8
0
 10
0.416558
 20
0.524685
 30
0.0
 40
0
 41
0
  0
VERTEX
  8
0
 10
0.416558
 20
0.523058
 30
0.0
 40
0
 41
0
  0
VERTEX
  8
0
 10
0.416558
 20
0.521431
 30
0.0
 40
0
 41
0
  0
VERTEX
  8
0
 10
0.423014
 20
0.516547
 30
0.0
 40
0
 41
0
  0
VERTEX
  8
0
 10
0.429525
 20
0.521431
 30
0.0
 40
0
 41
0
  0
VERTEX
  8
0
 10
0.429525
 20
0.523058
 30
0.0
 40
0
 41
0
  0
SEQEND
 8
0
  0
POLYLINE
  8
0
 62
     173
 66
     1
 10
0
 20
0
 30
0.0
 70
     1
 40
0
 41
0
  0
VERTEX
  8
0
 10
0.429525
 20
0.473036
 30
0.0
 40
0
 41
0
  0
VERTEX
  8
0
 10
0.429525
 20
0.474664
 30
0.0
 40
0
 41
0
  0
VERTEX
  8
0
 10
0.423014
 20
0.479546
 30
0.0
 40
0
 41
0
  0
VERTEX
  8
0
 10
0.416558
 20
0.474664
 30
0.0
 40
0
 41
0
  0
VERTEX
  8
0
 10
0.416558
 20
0.473036
 30
0.0
 40
0
 41
0
  0
VERTEX
  8
0
 10
0.416558
 20
0.471408
 30
0.0
 40
0
 41
0
  0
VERTEX
  8
0
 10
0.423014
 20
0.466525
 30
0.0
 40
0
 41
0
  0
VERTEX
  8
0
 10
0.429525
 20
0.471408
 30
0.0
 40
0
 41
0
  0
VERTEX
  8
0
 10
0.429525
 20
0.473036
 30
0.0
 40
0
 41
0
  0
SEQEND
 8
0
  0
POLYLINE
  8
0
 62
     173
 66
     1
 10
0
 20
0
 30
0.0
 70
     1
 40
0
 41
0
  0
VERTEX
  8
0
 10
0.429525
 20
0.418024
 30
0.0
 40
0
 41
0
  0
VERTEX
  8
0
 10
0.429525
 20
0.41965
 30
0.0
 40
0
 41
0
  0
VERTEX
  8
0
 10
0.423014
 20
0.424533
 30
0.0
 40
0
 41
0
  0
VERTEX
  8
0
 10
0.416558
 20
0.41965
 30
0.0
 40
0
 41
0
  0
VERTEX
  8
0
 10
0.416558
 20
0.418024
 30
0.0
 40
0
 41
0
  0
VERTEX
  8
0
 10
0.416558
 20
0.41645
 30
0.0
 40
0
 41
0
  0
VERTEX
  8
0
 10
0.423014
 20
0.411567
 30
0.0
 40
0
 41
0
  0
VERTEX
  8
0
 10
0.429525
 20
0.41645
 30
0.0
 40
0
 41
0
  0
VERTEX
  8
0
 10
0.429525
 20
0.418024
 30
0.0
 40
0
 41
0
  0
SEQEND
 8
0
  0
POLYLINE
  8
0
 62
     173
 66
     1
 10
0
 20
0
 30
0.0
 70
     1
 40
0
 41
0
  0
VERTEX
  8
0
 10
0.429525
 20
0.363064
 30
0.0
 40
0
 41
0
  0
VERTEX
  8
0
 10
0.429525
 20
0.364692
 30
0.0
 40
0
 41
0
  0
VERTEX
  8
0
 10
0.423014
 20
0.369575
 30
0.0
 40
0
 41
0
  0
VERTEX
  8
0
 10
0.416558
 20
0.364692
 30
0.0
 40
0
 41
0
  0
VERTEX
  8
0
 10
0.416558
 20
0.363064
 30
0.0
 40
0
 41
0
  0
VERTEX
  8
0
 10
0.416558
 20
0.361436
 30
0.0
 40
0
 41
0
  0
VERTEX
  8
0
 10
0.423014
 20
0.356554
 30
0.0
 40
0
 41
0
  0
VERTEX
  8
0
 10
0.429525
 20
0.361436
 30
0.0
 40
0
 41
0
  0
VERTEX
  8
0
 10
0.429525
 20
0.363064
 30
0.0
 40
0
 41
0
  0
SEQEND
 8
0
  0
POLYLINE
  8
0
 62
     173
 66
     1
 10
0
 20
0
 30
0.0
 70
     1
 40
0
 41
0
  0
VERTEX
  8
0
 10
0.429525
 20
0.308051
 30
0.0
 40
0
 41
0
  0
VERTEX
  8
0
 10
0.429525
 20
0.309679
 30
0.0
 40
0
 41
0
  0
VERTEX
  8
0
 10
0.423014
 20
0.314561
 30
0.0
 40
0
 41
0
  0
VERTEX
  8
0
 10
0.416558
 20
0.309679
 30
0.0
 40
0
 41
0
  0
VERTEX
  8
0
 10
0.416558
 20
0.308051
 30
0.0
 40
0
 41
0
  0
VERTEX
  8
0
 10
0.416558
 20
0.306424
 30
0.0
 40
0
 41
0
  0
VERTEX
  8
0
 10
0.423014
 20
0.30154
 30
0.0
 40
0
 41
0
  0
VERTEX
  8
0
 10
0.429525
 20
0.306424
 30
0.0
 40
0
 41
0
  0
VERTEX
  8
0
 10
0.429525
 20
0.308051
 30
0.0
 40
0
 41
0
  0
SEQEND
 8
0
  0
POLYLINE
  8
0
 62
     173
 66
     1
 10
0
 20
0
 30
0.0
 70
     1
 40
0
 41
0
  0
VERTEX
  8
0
 10
0.429525
 20
0.253039
 30
0.0
 40
0
 41
0
  0
VERTEX
  8
0
 10
0.429525
 20
0.254665
 30
0.0
 40
0
 41
0
  0
VERTEX
  8
0
 10
0.423014
 20
0.259549
 30
0.0
 40
0
 41
0
  0
VERTEX
  8
0
 10
0.416558
 20
0.254665
 30
0.0
 40
0
 41
0
  0
VERTEX
  8
0
 10
0.416558
 20
0.253039
 30
0.0
 40
0
 41
0
  0
VERTEX
  8
0
 10
0.416558
 20
0.251411
 30
0.0
 40
0
 41
0
  0
VERTEX
  8
0
 10
0.423014
 20
0.246528
 30
0.0
 40
0
 41
0
  0
VERTEX
  8
0
 10
0.429525
 20
0.251411
 30
0.0
 40
0
 41
0
  0
VERTEX
  8
0
 10
0.429525
 20
0.253039
 30
0.0
 40
0
 41
0
  0
SEQEND
 8
0
  0
POLYLINE
  8
0
 62
     173
 66
     1
 10
0
 20
0
 30
0.0
 70
     1
 40
0
 41
0
  0
VERTEX
  8
0
 10
0.429525
 20
0.198025
 30
0.0
 40
0
 41
0
  0
VERTEX
  8
0
 10
0.429525
 20
0.199653
 30
0.0
 40
0
 41
0
  0
VERTEX
  8
0
 10
0.423014
 20
0.204536
 30
0.0
 40
0
 41
0
  0
VERTEX
  8
0
 10
0.416558
 20
0.199653
 30
0.0
 40
0
 41
0
  0
VERTEX
  8
0
 10
0.416558
 20
0.198025
 30
0.0
 40
0
 41
0
  0
VERTEX
  8
0
 10
0.416558
 20
0.196451
 30
0.0
 40
0
 41
0
  0
VERTEX
  8
0
 10
0.423014
 20
0.191569
 30
0.0
 40
0
 41
0
  0
VERTEX
  8
0
 10
0.429525
 20
0.196451
 30
0.0
 40
0
 41
0
  0
VERTEX
  8
0
 10
0.429525
 20
0.198025
 30
0.0
 40
0
 41
0
  0
SEQEND
 8
0
  0
POLYLINE
  8
0
 62
     173
 66
     1
 10
0
 20
0
 30
0.0
 70
     1
 40
0
 41
0
  0
VERTEX
  8
0
 10
0.489529
 20
1.19802
 30
0.0
 40
0
 41
0
  0
VERTEX
  8
0
 10
0.489529
 20
1.19965
 30
0.0
 40
0
 41
0
  0
VERTEX
  8
0
 10
0.483018
 20
1.20454
 30
0.0
 40
0
 41
0
  0
VERTEX
  8
0
 10
0.476508
 20
1.19965
 30
0.0
 40
0
 41
0
  0
VERTEX
  8
0
 10
0.476508
 20
1.19802
 30
0.0
 40
0
 41
0
  0
VERTEX
  8
0
 10
0.476508
 20
1.19645
 30
0.0
 40
0
 41
0
  0
VERTEX
  8
0
 10
0.483018
 20
1.19157
 30
0.0
 40
0
 41
0
  0
VERTEX
  8
0
 10
0.489529
 20
1.19645
 30
0.0
 40
0
 41
0
  0
VERTEX
  8
0
 10
0.489529
 20
1.19802
 30
0.0
 40
0
 41
0
  0
SEQEND
 8
0
  0
POLYLINE
  8
0
 62
     173
 66
     1
 10
0
 20
0
 30
0.0
 70
     1
 40
0
 41
0
  0
VERTEX
  8
0
 10
0.489529
 20
0.438043
 30
0.0
 40
0
 41
0
  0
VERTEX
  8
0
 10
0.489529
 20
0.439671
 30
0.0
 40
0
 41
0
  0
VERTEX
  8
0
 10
0.483018
 20
0.444553
 30
0.0
 40
0
 41
0
  0
VERTEX
  8
0
 10
0.476508
 20
0.439671
 30
0.0
 40
0
 41
0
  0
VERTEX
  8
0
 10
0.476508
 20
0.438043
 30
0.0
 40
0
 41
0
  0
VERTEX
  8
0
 10
0.476508
 20
0.436415
 30
0.0
 40
0
 41
0
  0
VERTEX
  8
0
 10
0.483018
 20
0.431532
 30
0.0
 40
0
 41
0
  0
VERTEX
  8
0
 10
0.489529
 20
0.436415
 30
0.0
 40
0
 41
0
  0
VERTEX
  8
0
 10
0.489529
 20
0.438043
 30
0.0
 40
0
 41
0
  0
SEQEND
 8
0
  0
POLYLINE
  8
0
 62
     173
 66
     1
 10
0
 20
0
 30
0.0
 70
     1
 40
0
 41
0
  0
VERTEX
  8
0
 10
0.519532
 20
1.07302
 30
0.0
 40
0
 41
0
  0
VERTEX
  8
0
 10
0.519532
 20
1.07465
 30
0.0
 40
0
 41
0
  0
VERTEX
  8
0
 10
0.513021
 20
1.07954
 30
0.0
 40
0
 41
0
  0
VERTEX
  8
0
 10
0.506511
 20
1.07465
 30
0.0
 40
0
 41
0
  0
VERTEX
  8
0
 10
0.506511
 20
1.07302
 30
0.0
 40
0
 41
0
  0
VERTEX
  8
0
 10
0.506511
 20
1.07145
 30
0.0
 40
0
 41
0
  0
VERTEX
  8
0
 10
0.513021
 20
1.06657
 30
0.0
 40
0
 41
0
  0
VERTEX
  8
0
 10
0.519532
 20
1.07145
 30
0.0
 40
0
 41
0
  0
VERTEX
  8
0
 10
0.519532
 20
1.07302
 30
0.0
 40
0
 41
0
  0
SEQEND
 8
0
  0
POLYLINE
  8
0
 62
     173
 66
     1
 10
0
 20
0
 30
0.0
 70
     1
 40
0
 41
0
  0
VERTEX
  8
0
 10
0.519532
 20
0.313043
 30
0.0
 40
0
 41
0
  0
VERTEX
  8
0
 10
0.519532
 20
0.314671
 30
0.0
 40
0
 41
0
  0
VERTEX
  8
0
 10
0.513021
 20
0.319553
 30
0.0
 40
0
 41
0
  0
VERTEX
  8
0
 10
0.506511
 20
0.314671
 30
0.0
 40
0
 41
0
  0
VERTEX
  8
0
 10
0.506511
 20
0.313043
 30
0.0
 40
0
 41
0
  0
VERTEX
  8
0
 10
0.506511
 20
0.311415
 30
0.0
 40
0
 41
0
  0
VERTEX
  8
0
 10
0.513021
 20
0.306532
 30
0.0
 40
0
 41
0
  0
VERTEX
  8
0
 10
0.519532
 20
0.311415
 30
0.0
 40
0
 41
0
  0
VERTEX
  8
0
 10
0.519532
 20
0.313043
 30
0.0
 40
0
 41
0
  0
SEQEND
 8
0
  0
POLYLINE
  8
0
 62
     173
 66
     1
 10
0
 20
0
 30
0.0
 70
     1
 40
0
 41
0
  0
VERTEX
  8
0
 10
0.554525
 20
1.18804
 30
0.0
 40
0
 41
0
  0
VERTEX
  8
0
 10
0.554525
 20
1.18967
 30
0.0
 40
0
 41
0
  0
VERTEX
  8
0
 10
0.548014
 20
1.19455
 30
0.0
 40
0
 41
0
  0
VERTEX
  8
0
 10
0.541558
 20
1.18967
 30
0.0
 40
0
 41
0
  0
VERTEX
  8
0
 10
0.541558
 20
1.18804
 30
0.0
 40
0
 41
0
  0
VERTEX
  8
0
 10
0.541558
 20
1.18642
 30
0.0
 40
0
 41
0
  0
VERTEX
  8
0
 10
0.548014
 20
1.18153
 30
0.0
 40
0
 41
0
  0
VERTEX
  8
0
 10
0.554525
 20
1.18642
 30
0.0
 40
0
 41
0
  0
VERTEX
  8
0
 10
0.554525
 20
1.18804
 30
0.0
 40
0
 41
0
  0
SEQEND
 8
0
  0
POLYLINE
  8
0
 62
     173
 66
     1
 10
0
 20
0
 30
0.0
 70
     1
 40
0
 41
0
  0
VERTEX
  8
0
 10
0.554525
 20
0.42806
 30
0.0
 40
0
 41
0
  0
VERTEX
  8
0
 10
0.554525
 20
0.429688
 30
0.0
 40
0
 41
0
  0
VERTEX
  8
0
 10
0.548014
 20
0.434571
 30
0.0
 40
0
 41
0
  0
VERTEX
  8
0
 10
0.541558
 20
0.429688
 30
0.0
 40
0
 41
0
  0
VERTEX
  8
0
 10
0.541558
 20
0.42806
 30
0.0
 40
0
 41
0
  0
VERTEX
  8
0
 10
0.541558
 20
0.426432
 30
0.0
 40
0
 41
0
  0
VERTEX
  8
0
 10
0.548014
 20
0.42155
 30
0.0
 40
0
 41
0
  0
VERTEX
  8
0
 10
0.554525
 20
0.426432
 30
0.0
 40
0
 41
0
  0
VERTEX
  8
0
 10
0.554525
 20
0.42806
 30
0.0
 40
0
 41
0
  0
SEQEND
 8
0
  0
POLYLINE
  8
0
 62
     173
 66
     1
 10
0
 20
0
 30
0.0
 70
     1
 40
0
 41
0
  0
VERTEX
  8
0
 10
0.584526
 20
1.08306
 30
0.0
 40
0
 41
0
  0
VERTEX
  8
0
 10
0.584526
 20
1.08469
 30
0.0
 40
0
 41
0
  0
VERTEX
  8
0
 10
0.578017
 20
1.08957
 30
0.0
 40
0
 41
0
  0
VERTEX
  8
0
 10
0.57156
 20
1.08469
 30
0.0
 40
0
 41
0
  0
VERTEX
  8
0
 10
0.57156
 20
1.08306
 30
0.0
 40
0
 41
0
  0
VERTEX
  8
0
 10
0.57156
 20
1.08143
 30
0.0
 40
0
 41
0
  0
VERTEX
  8
0
 10
0.578017
 20
1.07655
 30
0.0
 40
0
 41
0
  0
VERTEX
  8
0
 10
0.584526
 20
1.08143
 30
0.0
 40
0
 41
0
  0
VERTEX
  8
0
 10
0.584526
 20
1.08306
 30
0.0
 40
0
 41
0
  0
SEQEND
 8
0
  0
POLYLINE
  8
0
 62
     173
 66
     1
 10
0
 20
0
 30
0.0
 70
     1
 40
0
 41
0
  0
VERTEX
  8
0
 10
0.584526
 20
0.323025
 30
0.0
 40
0
 41
0
  0
VERTEX
  8
0
 10
0.584526
 20
0.324653
 30
0.0
 40
0
 41
0
  0
VERTEX
  8
0
 10
0.578017
 20
0.329536
 30
0.0
 40
0
 41
0
  0
VERTEX
  8
0
 10
0.57156
 20
0.324653
 30
0.0
 40
0
 41
0
  0
VERTEX
  8
0
 10
0.57156
 20
0.323025
 30
0.0
 40
0
 41
0
  0
VERTEX
  8
0
 10
0.57156
 20
0.321451
 30
0.0
 40
0
 41
0
  0
VERTEX
  8
0
 10
0.578017
 20
0.316569
 30
0.0
 40
0
 41
0
  0
VERTEX
  8
0
 10
0.584526
 20
0.321451
 30
0.0
 40
0
 41
0
  0
VERTEX
  8
0
 10
0.584526
 20
0.323025
 30
0.0
 40
0
 41
0
  0
SEQEND
 8
0
  0
POLYLINE
  8
0
 62
     173
 66
     1
 10
0
 20
0
 30
0.0
 70
     1
 40
0
 41
0
  0
VERTEX
  8
0
 10
0.604546
 20
1.17806
 30
0.0
 40
0
 41
0
  0
VERTEX
  8
0
 10
0.604546
 20
1.17969
 30
0.0
 40
0
 41
0
  0
VERTEX
  8
0
 10
0.598036
 20
1.18457
 30
0.0
 40
0
 41
0
  0
VERTEX
  8
0
 10
0.591525
 20
1.17969
 30
0.0
 40
0
 41
0
  0
VERTEX
  8
0
 10
0.591525
 20
1.17806
 30
0.0
 40
0
 41
0
  0
VERTEX
  8
0
 10
0.591525
 20
1.17643
 30
0.0
 40
0
 41
0
  0
VERTEX
  8
0
 10
0.598036
 20
1.17155
 30
0.0
 40
0
 41
0
  0
VERTEX
  8
0
 10
0.604546
 20
1.17643
 30
0.0
 40
0
 41
0
  0
VERTEX
  8
0
 10
0.604546
 20
1.17806
 30
0.0
 40
0
 41
0
  0
SEQEND
 8
0
  0
POLYLINE
  8
0
 62
     173
 66
     1
 10
0
 20
0
 30
0.0
 70
     1
 40
0
 41
0
  0
VERTEX
  8
0
 10
0.604546
 20
0.418024
 30
0.0
 40
0
 41
0
  0
VERTEX
  8
0
 10
0.604546
 20
0.41965
 30
0.0
 40
0
 41
0
  0
VERTEX
  8
0
 10
0.598036
 20
0.424533
 30
0.0
 40
0
 41
0
  0
VERTEX
  8
0
 10
0.591525
 20
0.41965
 30
0.0
 40
0
 41
0
  0
VERTEX
  8
0
 10
0.591525
 20
0.418024
 30
0.0
 40
0
 41
0
  0
VERTEX
  8
0
 10
0.591525
 20
0.41645
 30
0.0
 40
0
 41
0
  0
VERTEX
  8
0
 10
0.598036
 20
0.411567
 30
0.0
 40
0
 41
0
  0
VERTEX
  8
0
 10
0.604546
 20
0.41645
 30
0.0
 40
0
 41
0
  0
VERTEX
  8
0
 10
0.604546
 20
0.418024
 30
0.0
 40
0
 41
0
  0
SEQEND
 8
0
  0
POLYLINE
  8
0
 62
     173
 66
     1
 10
0
 20
0
 30
0.0
 70
     1
 40
0
 41
0
  0
VERTEX
  8
0
 10
0.709526
 20
1.38807
 30
0.0
 40
0
 41
0
  0
VERTEX
  8
0
 10
0.709526
 20
1.38971
 30
0.0
 40
0
 41
0
  0
VERTEX
  8
0
 10
0.703017
 20
1.39458
 30
0.0
 40
0
 41
0
  0
VERTEX
  8
0
 10
0.69656
 20
1.38971
 30
0.0
 40
0
 41
0
  0
VERTEX
  8
0
 10
0.69656
 20
1.38807
 30
0.0
 40
0
 41
0
  0
VERTEX
  8
0
 10
0.69656
 20
1.38645
 30
0.0
 40
0
 41
0
  0
VERTEX
  8
0
 10
0.703017
 20
1.38157
 30
0.0
 40
0
 41
0
  0
VERTEX
  8
0
 10
0.709526
 20
1.38645
 30
0.0
 40
0
 41
0
  0
VERTEX
  8
0
 10
0.709526
 20
1.38807
 30
0.0
 40
0
 41
0
  0
SEQEND
 8
0
  0
POLYLINE
  8
0
 62
     173
 66
     1
 10
0
 20
0
 30
0.0
 70
     1
 40
0
 41
0
  0
VERTEX
  8
0
 10
0.709526
 20
1.03803
 30
0.0
 40
0
 41
0
  0
VERTEX
  8
0
 10
0.709526
 20
1.03966
 30
0.0
 40
0
 41
0
  0
VERTEX
  8
0
 10
0.703017
 20
1.04454
 30
0.0
 40
0
 41
0
  0
VERTEX
  8
0
 10
0.69656
 20
1.03966
 30
0.0
 40
0
 41
0
  0
VERTEX
  8
0
 10
0.69656
 20
1.03803
 30
0.0
 40
0
 41
0
  0
VERTEX
  8
0
 10
0.69656
 20
1.03646
 30
0.0
 40
0
 41
0
  0
VERTEX
  8
0
 10
0.703017
 20
1.03157
 30
0.0
 40
0
 41
0
  0
VERTEX
  8
0
 10
0.709526
 20
1.03646
 30
0.0
 40
0
 41
0
  0
VERTEX
  8
0
 10
0.709526
 20
1.03803
 30
0.0
 40
0
 41
0
  0
SEQEND
 8
0
  0
POLYLINE
  8
0
 62
     173
 66
     1
 10
0
 20
0
 30
0.0
 70
     1
 40
0
 41
0
  0
VERTEX
  8
0
 10
0.709526
 20
0.628039
 30
0.0
 40
0
 41
0
  0
VERTEX
  8
0
 10
0.709526
 20
0.629665
 30
0.0
 40
0
 41
0
  0
VERTEX
  8
0
 10
0.703017
 20
0.634549
 30
0.0
 40
0
 41
0
  0
VERTEX
  8
0
 10
0.69656
 20
0.629665
 30
0.0
 40
0
 41
0
  0
VERTEX
  8
0
 10
0.69656
 20
0.628039
 30
0.0
 40
0
 41
0
  0
VERTEX
  8
0
 10
0.69656
 20
0.626411
 30
0.0
 40
0
 41
0
  0
VERTEX
  8
0
 10
0.703017
 20
0.621528
 30
0.0
 40
0
 41
0
  0
VERTEX
  8
0
 10
0.709526
 20
0.626411
 30
0.0
 40
0
 41
0
  0
VERTEX
  8
0
 10
0.709526
 20
0.628039
 30
0.0
 40
0
 41
0
  0
SEQEND
 8
0
  0
POLYLINE
  8
0
 62
     173
 66
     1
 10
0
 20
0
 30
0.0
 70
     1
 40
0
 41
0
  0
VERTEX
  8
0
 10
0.709526
 20
0.278049
 30
0.0
 40
0
 41
0
  0
VERTEX
  8
0
 10
0.709526
 20
0.279676
 30
0.0
 40
0
 41
0
  0
VERTEX
  8
0
 10
0.703017
 20
0.28456
 30
0.0
 40
0
 41
0
  0
VERTEX
  8
0
 10
0.69656
 20
0.279676
 30
0.0
 40
0
 41
0
  0
VERTEX
  8
0
 10
0.69656
 20
0.278049
 30
0.0
 40
0
 41
0
  0
VERTEX
  8
0
 10
0.69656
 20
0.276421
 30
0.0
 40
0
 41
0
  0
VERTEX
  8
0
 10
0.703017
 20
0.271539
 30
0.0
 40
0
 41
0
  0
VERTEX
  8
0
 10
0.709526
 20
0.276421
 30
0.0
 40
0
 41
0
  0
VERTEX
  8
0
 10
0.709526
 20
0.278049
 30
0.0
 40
0
 41
0
  0
SEQEND
 8
0
  0
POLYLINE
  8
0
 62
     173
 66
     1
 10
0
 20
0
 30
0.0
 70
     1
 40
0
 41
0
  0
VERTEX
  8
0
 10
0.734538
 20
1.36306
 30
0.0
 40
0
 41
0
  0
VERTEX
  8
0
 10
0.734538
 20
1.36469
 30
0.0
 40
0
 41
0
  0
VERTEX
  8
0
 10
0.728028
 20
1.36957
 30
0.0
 40
0
 41
0
  0
VERTEX
  8
0
 10
0.721517
 20
1.36469
 30
0.0
 40
0
 41
0
  0
VERTEX
  8
0
 10
0.721517
 20
1.36306
 30
0.0
 40
0
 41
0
  0
VERTEX
  8
0
 10
0.721517
 20
1.36144
 30
0.0
 40
0
 41
0
  0
VERTEX
  8
0
 10
0.728028
 20
1.35655
 30
0.0
 40
0
 41
0
  0
VERTEX
  8
0
 10
0.734538
 20
1.36144
 30
0.0
 40
0
 41
0
  0
VERTEX
  8
0
 10
0.734538
 20
1.36306
 30
0.0
 40
0
 41
0
  0
SEQEND
 8
0
  0
POLYLINE
  8
0
 62
     173
 66
     1
 10
0
 20
0
 30
0.0
 70
     1
 40
0
 41
0
  0
VERTEX
  8
0
 10
0.734538
 20
1.06304
 30
0.0
 40
0
 41
0
  0
VERTEX
  8
0
 10
0.734538
 20
1.06467
 30
0.0
 40
0
 41
0
  0
VERTEX
  8
0
 10
0.728028
 20
1.06955
 30
0.0
 40
0
 41
0
  0
VERTEX
  8
0
 10
0.721517
 20
1.06467
 30
0.0
 40
0
 41
0
  0
VERTEX
  8
0
 10
0.721517
 20
1.06304
 30
0.0
 40
0
 41
0
  0
VERTEX
  8
0
 10
0.721517
 20
1.06142
 30
0.0
 40
0
 41
0
  0
VERTEX
  8
0
 10
0.728028
 20
1.05653
 30
0.0
 40
0
 41
0
  0
VERTEX
  8
0
 10
0.734538
 20
1.06142
 30
0.0
 40
0
 41
0
  0
VERTEX
  8
0
 10
0.734538
 20
1.06304
 30
0.0
 40
0
 41
0
  0
SEQEND
 8
0
  0
POLYLINE
  8
0
 62
     173
 66
     1
 10
0
 20
0
 30
0.0
 70
     1
 40
0
 41
0
  0
VERTEX
  8
0
 10
0.734538
 20
0.603028
 30
0.0
 40
0
 41
0
  0
VERTEX
  8
0
 10
0.734538
 20
0.604656
 30
0.0
 40
0
 41
0
  0
VERTEX
  8
0
 10
0.728028
 20
0.609538
 30
0.0
 40
0
 41
0
  0
VERTEX
  8
0
 10
0.721517
 20
0.604656
 30
0.0
 40
0
 41
0
  0
VERTEX
  8
0
 10
0.721517
 20
0.603028
 30
0.0
 40
0
 41
0
  0
VERTEX
  8
0
 10
0.721517
 20
0.601454
 30
0.0
 40
0
 41
0
  0
VERTEX
  8
0
 10
0.728028
 20
0.596571
 30
0.0
 40
0
 41
0
  0
VERTEX
  8
0
 10
0.734538
 20
0.601454
 30
0.0
 40
0
 41
0
  0
VERTEX
  8
0
 10
0.734538
 20
0.603028
 30
0.0
 40
0
 41
0
  0
SEQEND
 8
0
  0
POLYLINE
  8
0
 62
     173
 66
     1
 10
0
 20
0
 30
0.0
 70
     1
 40
0
 41
0
  0
VERTEX
  8
0
 10
0.734538
 20
0.30306
 30
0.0
 40
0
 41
0
  0
VERTEX
  8
0
 10
0.734538
 20
0.304688
 30
0.0
 40
0
 41
0
  0
VERTEX
  8
0
 10
0.728028
 20
0.309571
 30
0.0
 40
0
 41
0
  0
VERTEX
  8
0
 10
0.721517
 20
0.304688
 30
0.0
 40
0
 41
0
  0
VERTEX
  8
0
 10
0.721517
 20
0.30306
 30
0.0
 40
0
 41
0
  0
VERTEX
  8
0
 10
0.721517
 20
0.301432
 30
0.0
 40
0
 41
0
  0
VERTEX
  8
0
 10
0.728028
 20
0.29655
 30
0.0
 40
0
 41
0
  0
VERTEX
  8
0
 10
0.734538
 20
0.301432
 30
0.0
 40
0
 41
0
  0
VERTEX
  8
0
 10
0.734538
 20
0.30306
 30
0.0
 40
0
 41
0
  0
SEQEND
 8
0
  0
POLYLINE
  8
0
 62
     173
 66
     1
 10
0
 20
0
 30
0.0
 70
     1
 40
0
 41
0
  0
VERTEX
  8
0
 10
0.759549
 20
1.33805
 30
0.0
 40
0
 41
0
  0
VERTEX
  8
0
 10
0.759549
 20
1.33968
 30
0.0
 40
0
 41
0
  0
VERTEX
  8
0
 10
0.753039
 20
1.34456
 30
0.0
 40
0
 41
0
  0
VERTEX
  8
0
 10
0.746528
 20
1.33968
 30
0.0
 40
0
 41
0
  0
VERTEX
  8
0
 10
0.746528
 20
1.33805
 30
0.0
 40
0
 41
0
  0
VERTEX
  8
0
 10
0.746528
 20
1.33643
 30
0.0
 40
0
 41
0
  0
VERTEX
  8
0
 10
0.753039
 20
1.33154
 30
0.0
 40
0
 41
0
  0
VERTEX
  8
0
 10
0.759549
 20
1.33643
 30
0.0
 40
0
 41
0
  0
VERTEX
  8
0
 10
0.759549
 20
1.33805
 30
0.0
 40
0
 41
0
  0
SEQEND
 8
0
  0
POLYLINE
  8
0
 62
     173
 66
     1
 10
0
 20
0
 30
0.0
 70
     1
 40
0
 41
0
  0
VERTEX
  8
0
 10
0.759549
 20
1.08805
 30
0.0
 40
0
 41
0
  0
VERTEX
  8
0
 10
0.759549
 20
1.08968
 30
0.0
 40
0
 41
0
  0
VERTEX
  8
0
 10
0.753039
 20
1.09456
 30
0.0
 40
0
 41
0
  0
VERTEX
  8
0
 10
0.746528
 20
1.08968
 30
0.0
 40
0
 41
0
  0
VERTEX
  8
0
 10
0.746528
 20
1.08805
 30
0.0
 40
0
 41
0
  0
VERTEX
  8
0
 10
0.746528
 20
1.08643
 30
0.0
 40
0
 41
0
  0
VERTEX
  8
0
 10
0.753039
 20
1.08154
 30
0.0
 40
0
 41
0
  0
VERTEX
  8
0
 10
0.759549
 20
1.08643
 30
0.0
 40
0
 41
0
  0
VERTEX
  8
0
 10
0.759549
 20
1.08805
 30
0.0
 40
0
 41
0
  0
SEQEND
 8
0
  0
POLYLINE
  8
0
 62
     173
 66
     1
 10
0
 20
0
 30
0.0
 70
     1
 40
0
 41
0
  0
VERTEX
  8
0
 10
0.759549
 20
0.578071
 30
0.0
 40
0
 41
0
  0
VERTEX
  8
0
 10
0.759549
 20
0.579699
 30
0.0
 40
0
 41
0
  0
VERTEX
  8
0
 10
0.753039
 20
0.584581
 30
0.0
 40
0
 41
0
  0
VERTEX
  8
0
 10
0.746528
 20
0.579699
 30
0.0
 40
0
 41
0
  0
VERTEX
  8
0
 10
0.746528
 20
0.578071
 30
0.0
 40
0
 41
0
  0
VERTEX
  8
0
 10
0.746528
 20
0.576443
 30
0.0
 40
0
 41
0
  0
VERTEX
  8
0
 10
0.753039
 20
0.57156
 30
0.0
 40
0
 41
0
  0
VERTEX
  8
0
 10
0.759549
 20
0.576443
 30
0.0
 40
0
 41
0
  0
VERTEX
  8
0
 10
0.759549
 20
0.578071
 30
0.0
 40
0
 41
0
  0
SEQEND
 8
0
  0
POLYLINE
  8
0
 62
     173
 66
     1
 10
0
 20
0
 30
0.0
 70
     1
 40
0
 41
0
  0
VERTEX
  8
0
 10
0.759549
 20
0.328071
 30
0.0
 40
0
 41
0
  0
VERTEX
  8
0
 10
0.759549
 20
0.329699
 30
0.0
 40
0
 41
0
  0
VERTEX
  8
0
 10
0.753039
 20
0.334581
 30
0.0
 40
0
 41
0
  0
VERTEX
  8
0
 10
0.746528
 20
0.329699
 30
0.0
 40
0
 41
0
  0
VERTEX
  8
0
 10
0.746528
 20
0.328071
 30
0.0
 40
0
 41
0
  0
VERTEX
  8
0
 10
0.746528
 20
0.326443
 30
0.0
 40
0
 41
0
  0
VERTEX
  8
0
 10
0.753039
 20
0.32156
 30
0.0
 40
0
 41
0
  0
VERTEX
  8
0
 10
0.759549
 20
0.326443
 30
0.0
 40
0
 41
0
  0
VERTEX
  8
0
 10
0.759549
 20
0.328071
 30
0.0
 40
0
 41
0
  0
SEQEND
 8
0
  0
POLYLINE
  8
0
 62
     173
 66
     1
 10
0
 20
0
 30
0.0
 70
     1
 40
0
 41
0
  0
VERTEX
  8
0
 10
0.78456
 20
1.31304
 30
0.0
 40
0
 41
0
  0
VERTEX
  8
0
 10
0.78456
 20
1.31467
 30
0.0
 40
0
 41
0
  0
VERTEX
  8
0
 10
0.778049
 20
1.31955
 30
0.0
 40
0
 41
0
  0
VERTEX
  8
0
 10
0.771539
 20
1.31467
 30
0.0
 40
0
 41
0
  0
VERTEX
  8
0
 10
0.771539
 20
1.31304
 30
0.0
 40
0
 41
0
  0
VERTEX
  8
0
 10
0.771539
 20
1.31142
 30
0.0
 40
0
 41
0
  0
VERTEX
  8
0
 10
0.778049
 20
1.30653
 30
0.0
 40
0
 41
0
  0
VERTEX
  8
0
 10
0.78456
 20
1.31142
 30
0.0
 40
0
 41
0
  0
VERTEX
  8
0
 10
0.78456
 20
1.31304
 30
0.0
 40
0
 41
0
  0
SEQEND
 8
0
  0
POLYLINE
  8
0
 62
     173
 66
     1
 10
0
 20
0
 30
0.0
 70
     1
 40
0
 41
0
  0
VERTEX
  8
0
 10
0.78456
 20
1.11306
 30
0.0
 40
0
 41
0
  0
VERTEX
  8
0
 10
0.78456
 20
1.11469
 30
0.0
 40
0
 41
0
  0
VERTEX
  8
0
 10
0.778049
 20
1.11957
 30
0.0
 40
0
 41
0
  0
VERTEX
  8
0
 10
0.771539
 20
1.11469
 30
0.0
 40
0
 41
0
  0
VERTEX
  8
0
 10
0.771539
 20
1.11306
 30
0.0
 40
0
 41
0
  0
VERTEX
  8
0
 10
0.771539
 20
1.11144
 30
0.0
 40
0
 41
0
  0
VERTEX
  8
0
 10
0.778049
 20
1.10655
 30
0.0
 40
0
 41
0
  0
VERTEX
  8
0
 10
0.78456
 20
1.11144
 30
0.0
 40
0
 41
0
  0
VERTEX
  8
0
 10
0.78456
 20
1.11306
 30
0.0
 40
0
 41
0
  0
SEQEND
 8
0
  0
POLYLINE
  8
0
 62
     173
 66
     1
 10
0
 20
0
 30
0.0
 70
     1
 40
0
 41
0
  0
VERTEX
  8
0
 10
0.78456
 20
0.55306
 30
0.0
 40
0
 41
0
  0
VERTEX
  8
0
 10
0.78456
 20
0.554688
 30
0.0
 40
0
 41
0
  0
VERTEX
  8
0
 10
0.778049
 20
0.559571
 30
0.0
 40
0
 41
0
  0
VERTEX
  8
0
 10
0.771539
 20
0.554688
 30
0.0
 40
0
 41
0
  0
VERTEX
  8
0
 10
0.771539
 20
0.55306
 30
0.0
 40
0
 41
0
  0
VERTEX
  8
0
 10
0.771539
 20
0.551432
 30
0.0
 40
0
 41
0
  0
VERTEX
  8
0
 10
0.778049
 20
0.54655
 30
0.0
 40
0
 41
0
  0
VERTEX
  8
0
 10
0.78456
 20
0.551432
 30
0.0
 40
0
 41
0
  0
VERTEX
  8
0
 10
0.78456
 20
0.55306
 30
0.0
 40
0
 41
0
  0
SEQEND
 8
0
  0
POLYLINE
  8
0
 62
     173
 66
     1
 10
0
 20
0
 30
0.0
 70
     1
 40
0
 41
0
  0
VERTEX
  8
0
 10
0.78456
 20
0.353028
 30
0.0
 40
0
 41
0
  0
VERTEX
  8
0
 10
0.78456
 20
0.354656
 30
0.0
 40
0
 41
0
  0
VERTEX
  8
0
 10
0.778049
 20
0.359537
 30
0.0
 40
0
 41
0
  0
VERTEX
  8
0
 10
0.771539
 20
0.354656
 30
0.0
 40
0
 41
0
  0
VERTEX
  8
0
 10
0.771539
 20
0.353028
 30
0.0
 40
0
 41
0
  0
VERTEX
  8
0
 10
0.771539
 20
0.351454
 30
0.0
 40
0
 41
0
  0
VERTEX
  8
0
 10
0.778049
 20
0.346571
 30
0.0
 40
0
 41
0
  0
VERTEX
  8
0
 10
0.78456
 20
0.351454
 30
0.0
 40
0
 41
0
  0
VERTEX
  8
0
 10
0.78456
 20
0.353028
 30
0.0
 40
0
 41
0
  0
SEQEND
 8
0
  0
POLYLINE
  8
0
 62
     173
 66
     1
 10
0
 20
0
 30
0.0
 70
     1
 40
0
 41
0
  0
VERTEX
  8
0
 10
0.809517
 20
1.28803
 30
0.0
 40
0
 41
0
  0
VERTEX
  8
0
 10
0.809517
 20
1.28966
 30
0.0
 40
0
 41
0
  0
VERTEX
  8
0
 10
0.803006
 20
1.29454
 30
0.0
 40
0
 41
0
  0
VERTEX
  8
0
 10
0.79655
 20
1.28966
 30
0.0
 40
0
 41
0
  0
VERTEX
  8
0
 10
0.79655
 20
1.28803
 30
0.0
 40
0
 41
0
  0
VERTEX
  8
0
 10
0.79655
 20
1.28646
 30
0.0
 40
0
 41
0
  0
VERTEX
  8
0
 10
0.803006
 20
1.28158
 30
0.0
 40
0
 41
0
  0
VERTEX
  8
0
 10
0.809517
 20
1.28646
 30
0.0
 40
0
 41
0
  0
VERTEX
  8
0
 10
0.809517
 20
1.28803
 30
0.0
 40
0
 41
0
  0
SEQEND
 8
0
  0
POLYLINE
  8
0
 62
     173
 66
     1
 10
0
 20
0
 30
0.0
 70
     1
 40
0
 41
0
  0
VERTEX
  8
0
 10
0.809517
 20
1.13807
 30
0.0
 40
0
 41
0
  0
VERTEX
  8
0
 10
0.809517
 20
1.1397
 30
0.0
 40
0
 41
0
  0
VERTEX
  8
0
 10
0.803006
 20
1.14459
 30
0.0
 40
0
 41
0
  0
VERTEX
  8
0
 10
0.79655
 20
1.1397
 30
0.0
 40
0
 41
0
  0
VERTEX
  8
0
 10
0.79655
 20
1.13807
 30
0.0
 40
0
 41
0
  0
VERTEX
  8
0
 10
0.79655
 20
1.13645
 30
0.0
 40
0
 41
0
  0
VERTEX
  8
0
 10
0.803006
 20
1.13157
 30
0.0
 40
0
 41
0
  0
VERTEX
  8
0
 10
0.809517
 20
1.13645
 30
0.0
 40
0
 41
0
  0
VERTEX
  8
0
 10
0.809517
 20
1.13807
 30
0.0
 40
0
 41
0
  0
SEQEND
 8
0
  0
POLYLINE
  8
0
 62
     173
 66
     1
 10
0
 20
0
 30
0.0
 70
     1
 40
0
 41
0
  0
VERTEX
  8
0
 10
0.809517
 20
0.528049
 30
0.0
 40
0
 41
0
  0
VERTEX
  8
0
 10
0.809517
 20
0.529676
 30
0.0
 40
0
 41
0
  0
VERTEX
  8
0
 10
0.803006
 20
0.53456
 30
0.0
 40
0
 41
0
  0
VERTEX
  8
0
 10
0.79655
 20
0.529676
 30
0.0
 40
0
 41
0
  0
VERTEX
  8
0
 10
0.79655
 20
0.528049
 30
0.0
 40
0
 41
0
  0
VERTEX
  8
0
 10
0.79655
 20
0.526421
 30
0.0
 40
0
 41
0
  0
VERTEX
  8
0
 10
0.803006
 20
0.521539
 30
0.0
 40
0
 41
0
  0
VERTEX
  8
0
 10
0.809517
 20
0.526421
 30
0.0
 40
0
 41
0
  0
VERTEX
  8
0
 10
0.809517
 20
0.528049
 30
0.0
 40
0
 41
0
  0
SEQEND
 8
0
  0
POLYLINE
  8
0
 62
     173
 66
     1
 10
0
 20
0
 30
0.0
 70
     1
 40
0
 41
0
  0
VERTEX
  8
0
 10
0.809517
 20
0.378039
 30
0.0
 40
0
 41
0
  0
VERTEX
  8
0
 10
0.809517
 20
0.379665
 30
0.0
 40
0
 41
0
  0
VERTEX
  8
0
 10
0.803006
 20
0.384549
 30
0.0
 40
0
 41
0
  0
VERTEX
  8
0
 10
0.79655
 20
0.379665
 30
0.0
 40
0
 41
0
  0
VERTEX
  8
0
 10
0.79655
 20
0.378039
 30
0.0
 40
0
 41
0
  0
VERTEX
  8
0
 10
0.79655
 20
0.376411
 30
0.0
 40
0
 41
0
  0
VERTEX
  8
0
 10
0.803006
 20
0.371528
 30
0.0
 40
0
 41
0
  0
VERTEX
  8
0
 10
0.809517
 20
0.376411
 30
0.0
 40
0
 41
0
  0
VERTEX
  8
0
 10
0.809517
 20
0.378039
 30
0.0
 40
0
 41
0
  0
SEQEND
 8
0
  0
POLYLINE
  8
0
 62
     173
 66
     1
 10
0
 20
0
 30
0.0
 70
     1
 40
0
 41
0
  0
VERTEX
  8
0
 10
0.814507
 20
1.03304
 30
0.0
 40
0
 41
0
  0
VERTEX
  8
0
 10
0.814507
 20
1.03467
 30
0.0
 40
0
 41
0
  0
VERTEX
  8
0
 10
0.807997
 20
1.03955
 30
0.0
 40
0
 41
0
  0
VERTEX
  8
0
 10
0.80154
 20
1.03467
 30
0.0
 40
0
 41
0
  0
VERTEX
  8
0
 10
0.80154
 20
1.03304
 30
0.0
 40
0
 41
0
  0
VERTEX
  8
0
 10
0.80154
 20
1.03141
 30
0.0
 40
0
 41
0
  0
VERTEX
  8
0
 10
0.807997
 20
1.02653
 30
0.0
 40
0
 41
0
  0
VERTEX
  8
0
 10
0.814507
 20
1.03141
 30
0.0
 40
0
 41
0
  0
VERTEX
  8
0
 10
0.814507
 20
1.03304
 30
0.0
 40
0
 41
0
  0
SEQEND
 8
0
  0
POLYLINE
  8
0
 62
     173
 66
     1
 10
0
 20
0
 30
0.0
 70
     1
 40
0
 41
0
  0
VERTEX
  8
0
 10
0.834526
 20
1.26307
 30
0.0
 40
0
 41
0
  0
VERTEX
  8
0
 10
0.834526
 20
1.2647
 30
0.0
 40
0
 41
0
  0
VERTEX
  8
0
 10
0.828017
 20
1.26959
 30
0.0
 40
0
 41
0
  0
VERTEX
  8
0
 10
0.82156
 20
1.2647
 30
0.0
 40
0
 41
0
  0
VERTEX
  8
0
 10
0.82156
 20
1.26307
 30
0.0
 40
0
 41
0
  0
VERTEX
  8
0
 10
0.82156
 20
1.26145
 30
0.0
 40
0
 41
0
  0
VERTEX
  8
0
 10
0.828017
 20
1.25657
 30
0.0
 40
0
 41
0
  0
VERTEX
  8
0
 10
0.834526
 20
1.26145
 30
0.0
 40
0
 41
0
  0
VERTEX
  8
0
 10
0.834526
 20
1.26307
 30
0.0
 40
0
 41
0
  0
SEQEND
 8
0
  0
POLYLINE
  8
0
 62
     173
 66
     1
 10
0
 20
0
 30
0.0
 70
     1
 40
0
 41
0
  0
VERTEX
  8
0
 10
0.834526
 20
1.16303
 30
0.0
 40
0
 41
0
  0
VERTEX
  8
0
 10
0.834526
 20
1.16466
 30
0.0
 40
0
 41
0
  0
VERTEX
  8
0
 10
0.828017
 20
1.16954
 30
0.0
 40
0
 41
0
  0
VERTEX
  8
0
 10
0.82156
 20
1.16466
 30
0.0
 40
0
 41
0
  0
VERTEX
  8
0
 10
0.82156
 20
1.16303
 30
0.0
 40
0
 41
0
  0
VERTEX
  8
0
 10
0.82156
 20
1.16146
 30
0.0
 40
0
 41
0
  0
VERTEX
  8
0
 10
0.828017
 20
1.15657
 30
0.0
 40
0
 41
0
  0
VERTEX
  8
0
 10
0.834526
 20
1.16146
 30
0.0
 40
0
 41
0
  0
VERTEX
  8
0
 10
0.834526
 20
1.16303
 30
0.0
 40
0
 41
0
  0
SEQEND
 8
0
  0
POLYLINE
  8
0
 62
     173
 66
     1
 10
0
 20
0
 30
0.0
 70
     1
 40
0
 41
0
  0
VERTEX
  8
0
 10
0.834526
 20
0.503039
 30
0.0
 40
0
 41
0
  0
VERTEX
  8
0
 10
0.834526
 20
0.504665
 30
0.0
 40
0
 41
0
  0
VERTEX
  8
0
 10
0.828017
 20
0.509549
 30
0.0
 40
0
 41
0
  0
VERTEX
  8
0
 10
0.82156
 20
0.504665
 30
0.0
 40
0
 41
0
  0
VERTEX
  8
0
 10
0.82156
 20
0.503039
 30
0.0
 40
0
 41
0
  0
VERTEX
  8
0
 10
0.82156
 20
0.501411
 30
0.0
 40
0
 41
0
  0
VERTEX
  8
0
 10
0.828017
 20
0.496528
 30
0.0
 40
0
 41
0
  0
VERTEX
  8
0
 10
0.834526
 20
0.501411
 30
0.0
 40
0
 41
0
  0
VERTEX
  8
0
 10
0.834526
 20
0.503039
 30
0.0
 40
0
 41
0
  0
SEQEND
 8
0
  0
POLYLINE
  8
0
 62
     173
 66
     1
 10
0
 20
0
 30
0.0
 70
     1
 40
0
 41
0
  0
VERTEX
  8
0
 10
0.834526
 20
0.403049
 30
0.0
 40
0
 41
0
  0
VERTEX
  8
0
 10
0.834526
 20
0.404676
 30
0.0
 40
0
 41
0
  0
VERTEX
  8
0
 10
0.828017
 20
0.40956
 30
0.0
 40
0
 41
0
  0
VERTEX
  8
0
 10
0.82156
 20
0.404676
 30
0.0
 40
0
 41
0
  0
VERTEX
  8
0
 10
0.82156
 20
0.403049
 30
0.0
 40
0
 41
0
  0
VERTEX
  8
0
 10
0.82156
 20
0.401421
 30
0.0
 40
0
 41
0
  0
VERTEX
  8
0
 10
0.828017
 20
0.396539
 30
0.0
 40
0
 41
0
  0
VERTEX
  8
0
 10
0.834526
 20
0.401421
 30
0.0
 40
0
 41
0
  0
VERTEX
  8
0
 10
0.834526
 20
0.403049
 30
0.0
 40
0
 41
0
  0
SEQEND
 8
0
  0
POLYLINE
  8
0
 62
     173
 66
     1
 10
0
 20
0
 30
0.0
 70
     1
 40
0
 41
0
  0
VERTEX
  8
0
 10
0.859538
 20
1.23806
 30
0.0
 40
0
 41
0
  0
VERTEX
  8
0
 10
0.859538
 20
1.23969
 30
0.0
 40
0
 41
0
  0
VERTEX
  8
0
 10
0.853028
 20
1.24457
 30
0.0
 40
0
 41
0
  0
VERTEX
  8
0
 10
0.846517
 20
1.23969
 30
0.0
 40
0
 41
0
  0
VERTEX
  8
0
 10
0.846517
 20
1.23806
 30
0.0
 40
0
 41
0
  0
VERTEX
  8
0
 10
0.846517
 20
1.23644
 30
0.0
 40
0
 41
0
  0
VERTEX
  8
0
 10
0.853028
 20
1.23155
 30
0.0
 40
0
 41
0
  0
VERTEX
  8
0
 10
0.859538
 20
1.23644
 30
0.0
 40
0
 41
0
  0
VERTEX
  8
0
 10
0.859538
 20
1.23806
 30
0.0
 40
0
 41
0
  0
SEQEND
 8
0
  0
POLYLINE
  8
0
 62
     173
 66
     1
 10
0
 20
0
 30
0.0
 70
     1
 40
0
 41
0
  0
VERTEX
  8
0
 10
0.859538
 20
1.18804
 30
0.0
 40
0
 41
0
  0
VERTEX
  8
0
 10
0.859538
 20
1.18967
 30
0.0
 40
0
 41
0
  0
VERTEX
  8
0
 10
0.853028
 20
1.19455
 30
0.0
 40
0
 41
0
  0
VERTEX
  8
0
 10
0.846517
 20
1.18967
 30
0.0
 40
0
 41
0
  0
VERTEX
  8
0
 10
0.846517
 20
1.18804
 30
0.0
 40
0
 41
0
  0
VERTEX
  8
0
 10
0.846517
 20
1.18642
 30
0.0
 40
0
 41
0
  0
VERTEX
  8
0
 10
0.853028
 20
1.18153
 30
0.0
 40
0
 41
0
  0
VERTEX
  8
0
 10
0.859538
 20
1.18642
 30
0.0
 40
0
 41
0
  0
VERTEX
  8
0
 10
0.859538
 20
1.18804
 30
0.0
 40
0
 41
0
  0
SEQEND
 8
0
  0
POLYLINE
  8
0
 62
     173
 66
     1
 10
0
 20
0
 30
0.0
 70
     1
 40
0
 41
0
  0
VERTEX
  8
0
 10
0.859538
 20
0.478028
 30
0.0
 40
0
 41
0
  0
VERTEX
  8
0
 10
0.859538
 20
0.479656
 30
0.0
 40
0
 41
0
  0
VERTEX
  8
0
 10
0.853028
 20
0.484537
 30
0.0
 40
0
 41
0
  0
VERTEX
  8
0
 10
0.846517
 20
0.479656
 30
0.0
 40
0
 41
0
  0
VERTEX
  8
0
 10
0.846517
 20
0.478028
 30
0.0
 40
0
 41
0
  0
VERTEX
  8
0
 10
0.846517
 20
0.476454
 30
0.0
 40
0
 41
0
  0
VERTEX
  8
0
 10
0.853028
 20
0.471571
 30
0.0
 40
0
 41
0
  0
VERTEX
  8
0
 10
0.859538
 20
0.476454
 30
0.0
 40
0
 41
0
  0
VERTEX
  8
0
 10
0.859538
 20
0.478028
 30
0.0
 40
0
 41
0
  0
SEQEND
 8
0
  0
POLYLINE
  8
0
 62
     173
 66
     1
 10
0
 20
0
 30
0.0
 70
     1
 40
0
 41
0
  0
VERTEX
  8
0
 10
0.859538
 20
0.42806
 30
0.0
 40
0
 41
0
  0
VERTEX
  8
0
 10
0.859538
 20
0.429688
 30
0.0
 40
0
 41
0
  0
VERTEX
  8
0
 10
0.853028
 20
0.434571
 30
0.0
 40
0
 41
0
  0
VERTEX
  8
0
 10
0.846517
 20
0.429688
 30
0.0
 40
0
 41
0
  0
VERTEX
  8
0
 10
0.846517
 20
0.42806
 30
0.0
 40
0
 41
0
  0
VERTEX
  8
0
 10
0.846517
 20
0.426432
 30
0.0
 40
0
 41
0
  0
VERTEX
  8
0
 10
0.853028
 20
0.42155
 30
0.0
 40
0
 41
0
  0
VERTEX
  8
0
 10
0.859538
 20
0.426432
 30
0.0
 40
0
 41
0
  0
VERTEX
  8
0
 10
0.859538
 20
0.42806
 30
0.0
 40
0
 41
0
  0
SEQEND
 8
0
  0
POLYLINE
  8
0
 62
     173
 66
     1
 10
0
 20
0
 30
0.0
 70
     1
 40
0
 41
0
  0
VERTEX
  8
0
 10
0.864529
 20
0.55306
 30
0.0
 40
0
 41
0
  0
VERTEX
  8
0
 10
0.864529
 20
0.554688
 30
0.0
 40
0
 41
0
  0
VERTEX
  8
0
 10
0.858018
 20
0.559571
 30
0.0
 40
0
 41
0
  0
VERTEX
  8
0
 10
0.851508
 20
0.554688
 30
0.0
 40
0
 41
0
  0
VERTEX
  8
0
 10
0.851508
 20
0.55306
 30
0.0
 40
0
 41
0
  0
VERTEX
  8
0
 10
0.851508
 20
0.551432
 30
0.0
 40
0
 41
0
  0
VERTEX
  8
0
 10
0.858018
 20
0.54655
 30
0.0
 40
0
 41
0
  0
VERTEX
  8
0
 10
0.864529
 20
0.551432
 30
0.0
 40
0
 41
0
  0
VERTEX
  8
0
 10
0.864529
 20
0.55306
 30
0.0
 40
0
 41
0
  0
SEQEND
 8
0
  0
POLYLINE
  8
0
 62
     173
 66
     1
 10
0
 20
0
 30
0.0
 70
     1
 40
0
 41
0
  0
VERTEX
  8
0
 10
0.884549
 20
1.21305
 30
0.0
 40
0
 41
0
  0
VERTEX
  8
0
 10
0.884549
 20
1.21468
 30
0.0
 40
0
 41
0
  0
VERTEX
  8
0
 10
0.878039
 20
1.21956
 30
0.0
 40
0
 41
0
  0
VERTEX
  8
0
 10
0.871528
 20
1.21468
 30
0.0
 40
0
 41
0
  0
VERTEX
  8
0
 10
0.871528
 20
1.21305
 30
0.0
 40
0
 41
0
  0
VERTEX
  8
0
 10
0.871528
 20
1.21143
 30
0.0
 40
0
 41
0
  0
VERTEX
  8
0
 10
0.878039
 20
1.20654
 30
0.0
 40
0
 41
0
  0
VERTEX
  8
0
 10
0.884549
 20
1.21143
 30
0.0
 40
0
 41
0
  0
VERTEX
  8
0
 10
0.884549
 20
1.21305
 30
0.0
 40
0
 41
0
  0
SEQEND
 8
0
  0
POLYLINE
  8
0
 62
     173
 66
     1
 10
0
 20
0
 30
0.0
 70
     1
 40
0
 41
0
  0
VERTEX
  8
0
 10
0.884549
 20
1.03277
 30
0.0
 40
0
 41
0
  0
VERTEX
  8
0
 10
0.884549
 20
1.0344
 30
0.0
 40
0
 41
0
  0
VERTEX
  8
0
 10
0.878039
 20
1.03928
 30
0.0
 40
0
 41
0
  0
VERTEX
  8
0
 10
0.871528
 20
1.0344
 30
0.0
 40
0
 41
0
  0
VERTEX
  8
0
 10
0.871528
 20
1.03277
 30
0.0
 40
0
 41
0
  0
VERTEX
  8
0
 10
0.871528
 20
1.03114
 30
0.0
 40
0
 41
0
  0
VERTEX
  8
0
 10
0.878039
 20
1.02626
 30
0.0
 40
0
 41
0
  0
VERTEX
  8
0
 10
0.884549
 20
1.03114
 30
0.0
 40
0
 41
0
  0
VERTEX
  8
0
 10
0.884549
 20
1.03277
 30
0.0
 40
0
 41
0
  0
SEQEND
 8
0
  0
POLYLINE
  8
0
 62
     173
 66
     1
 10
0
 20
0
 30
0.0
 70
     1
 40
0
 41
0
  0
VERTEX
  8
0
 10
0.884549
 20
0.453071
 30
0.0
 40
0
 41
0
  0
VERTEX
  8
0
 10
0.884549
 20
0.454699
 30
0.0
 40
0
 41
0
  0
VERTEX
  8
0
 10
0.878039
 20
0.459581
 30
0.0
 40
0
 41
0
  0
VERTEX
  8
0
 10
0.871528
 20
0.454699
 30
0.0
 40
0
 41
0
  0
VERTEX
  8
0
 10
0.871528
 20
0.453071
 30
0.0
 40
0
 41
0
  0
VERTEX
  8
0
 10
0.871528
 20
0.451443
 30
0.0
 40
0
 41
0
  0
VERTEX
  8
0
 10
0.878039
 20
0.44656
 30
0.0
 40
0
 41
0
  0
VERTEX
  8
0
 10
0.884549
 20
0.451443
 30
0.0
 40
0
 41
0
  0
VERTEX
  8
0
 10
0.884549
 20
0.453071
 30
0.0
 40
0
 41
0
  0
SEQEND
 8
0
  0
POLYLINE
  8
0
 62
     173
 66
     1
 10
0
 20
0
 30
0.0
 70
     1
 40
0
 41
0
  0
VERTEX
  8
0
 10
0.884549
 20
0.272732
 30
0.0
 40
0
 41
0
  0
VERTEX
  8
0
 10
0.884549
 20
0.27436
 30
0.0
 40
0
 41
0
  0
VERTEX
  8
0
 10
0.878039
 20
0.279243
 30
0.0
 40
0
 41
0
  0
VERTEX
  8
0
 10
0.871528
 20
0.27436
 30
0.0
 40
0
 41
0
  0
VERTEX
  8
0
 10
0.871528
 20
0.272732
 30
0.0
 40
0
 41
0
  0
VERTEX
  8
0
 10
0.871528
 20
0.271158
 30
0.0
 40
0
 41
0
  0
VERTEX
  8
0
 10
0.878039
 20
0.266276
 30
0.0
 40
0
 41
0
  0
VERTEX
  8
0
 10
0.884549
 20
0.271158
 30
0.0
 40
0
 41
0
  0
VERTEX
  8
0
 10
0.884549
 20
0.272732
 30
0.0
 40
0
 41
0
  0
SEQEND
 8
0
  0
POLYLINE
  8
0
 62
     173
 66
     1
 10
0
 20
0
 30
0.0
 70
     1
 40
0
 41
0
  0
VERTEX
  8
0
 10
0.90956
 20
1.05773
 30
0.0
 40
0
 41
0
  0
VERTEX
  8
0
 10
0.90956
 20
1.05935
 30
0.0
 40
0
 41
0
  0
VERTEX
  8
0
 10
0.903049
 20
1.06424
 30
0.0
 40
0
 41
0
  0
VERTEX
  8
0
 10
0.896539
 20
1.05935
 30
0.0
 40
0
 41
0
  0
VERTEX
  8
0
 10
0.896539
 20
1.05773
 30
0.0
 40
0
 41
0
  0
VERTEX
  8
0
 10
0.896539
 20
1.05615
 30
0.0
 40
0
 41
0
  0
VERTEX
  8
0
 10
0.903049
 20
1.05127
 30
0.0
 40
0
 41
0
  0
VERTEX
  8
0
 10
0.90956
 20
1.05615
 30
0.0
 40
0
 41
0
  0
VERTEX
  8
0
 10
0.90956
 20
1.05773
 30
0.0
 40
0
 41
0
  0
SEQEND
 8
0
  0
POLYLINE
  8
0
 62
     173
 66
     1
 10
0
 20
0
 30
0.0
 70
     1
 40
0
 41
0
  0
VERTEX
  8
0
 10
0.90956
 20
1.00776
 30
0.0
 40
0
 41
0
  0
VERTEX
  8
0
 10
0.90956
 20
1.00939
 30
0.0
 40
0
 41
0
  0
VERTEX
  8
0
 10
0.903049
 20
1.01427
 30
0.0
 40
0
 41
0
  0
VERTEX
  8
0
 10
0.896539
 20
1.00939
 30
0.0
 40
0
 41
0
  0
VERTEX
  8
0
 10
0.896539
 20
1.00776
 30
0.0
 40
0
 41
0
  0
VERTEX
  8
0
 10
0.896539
 20
1.00613
 30
0.0
 40
0
 41
0
  0
VERTEX
  8
0
 10
0.903049
 20
1.00125
 30
0.0
 40
0
 41
0
  0
VERTEX
  8
0
 10
0.90956
 20
1.00613
 30
0.0
 40
0
 41
0
  0
VERTEX
  8
0
 10
0.90956
 20
1.00776
 30
0.0
 40
0
 41
0
  0
SEQEND
 8
0
  0
POLYLINE
  8
0
 62
     173
 66
     1
 10
0
 20
0
 30
0.0
 70
     1
 40
0
 41
0
  0
VERTEX
  8
0
 10
0.90956
 20
0.297743
 30
0.0
 40
0
 41
0
  0
VERTEX
  8
0
 10
0.90956
 20
0.299371
 30
0.0
 40
0
 41
0
  0
VERTEX
  8
0
 10
0.903049
 20
0.304254
 30
0.0
 40
0
 41
0
  0
VERTEX
  8
0
 10
0.896539
 20
0.299371
 30
0.0
 40
0
 41
0
  0
VERTEX
  8
0
 10
0.896539
 20
0.297743
 30
0.0
 40
0
 41
0
  0
VERTEX
  8
0
 10
0.896539
 20
0.296115
 30
0.0
 40
0
 41
0
  0
VERTEX
  8
0
 10
0.903049
 20
0.291233
 30
0.0
 40
0
 41
0
  0
VERTEX
  8
0
 10
0.90956
 20
0.296115
 30
0.0
 40
0
 41
0
  0
VERTEX
  8
0
 10
0.90956
 20
0.297743
 30
0.0
 40
0
 41
0
  0
SEQEND
 8
0
  0
POLYLINE
  8
0
 62
     173
 66
     1
 10
0
 20
0
 30
0.0
 70
     1
 40
0
 41
0
  0
VERTEX
  8
0
 10
0.934517
 20
1.08274
 30
0.0
 40
0
 41
0
  0
VERTEX
  8
0
 10
0.934517
 20
1.08436
 30
0.0
 40
0
 41
0
  0
VERTEX
  8
0
 10
0.928006
 20
1.08925
 30
0.0
 40
0
 41
0
  0
VERTEX
  8
0
 10
0.92155
 20
1.08436
 30
0.0
 40
0
 41
0
  0
VERTEX
  8
0
 10
0.92155
 20
1.08274
 30
0.0
 40
0
 41
0
  0
VERTEX
  8
0
 10
0.92155
 20
1.08111
 30
0.0
 40
0
 41
0
  0
VERTEX
  8
0
 10
0.928006
 20
1.07623
 30
0.0
 40
0
 41
0
  0
VERTEX
  8
0
 10
0.934517
 20
1.08111
 30
0.0
 40
0
 41
0
  0
VERTEX
  8
0
 10
0.934517
 20
1.08274
 30
0.0
 40
0
 41
0
  0
SEQEND
 8
0
  0
POLYLINE
  8
0
 62
     173
 66
     1
 10
0
 20
0
 30
0.0
 70
     1
 40
0
 41
0
  0
VERTEX
  8
0
 10
0.934517
 20
0.982747
 30
0.0
 40
0
 41
0
  0
VERTEX
  8
0
 10
0.934517
 20
0.984375
 30
0.0
 40
0
 41
0
  0
VERTEX
  8
0
 10
0.928006
 20
0.989258
 30
0.0
 40
0
 41
0
  0
VERTEX
  8
0
 10
0.92155
 20
0.984375
 30
0.0
 40
0
 41
0
  0
VERTEX
  8
0
 10
0.92155
 20
0.982747
 30
0.0
 40
0
 41
0
  0
VERTEX
  8
0
 10
0.92155
 20
0.981119
 30
0.0
 40
0
 41
0
  0
VERTEX
  8
0
 10
0.928006
 20
0.976238
 30
0.0
 40
0
 41
0
  0
VERTEX
  8
0
 10
0.934517
 20
0.981119
 30
0.0
 40
0
 41
0
  0
VERTEX
  8
0
 10
0.934517
 20
0.982747
 30
0.0
 40
0
 41
0
  0
SEQEND
 8
0
  0
POLYLINE
  8
0
 62
     173
 66
     1
 10
0
 20
0
 30
0.0
 70
     1
 40
0
 41
0
  0
VERTEX
  8
0
 10
0.934517
 20
0.322754
 30
0.0
 40
0
 41
0
  0
VERTEX
  8
0
 10
0.934517
 20
0.324382
 30
0.0
 40
0
 41
0
  0
VERTEX
  8
0
 10
0.928006
 20
0.329264
 30
0.0
 40
0
 41
0
  0
VERTEX
  8
0
 10
0.92155
 20
0.324382
 30
0.0
 40
0
 41
0
  0
VERTEX
  8
0
 10
0.92155
 20
0.322754
 30
0.0
 40
0
 41
0
  0
VERTEX
  8
0
 10
0.92155
 20
0.321126
 30
0.0
 40
0
 41
0
  0
VERTEX
  8
0
 10
0.928006
 20
0.316243
 30
0.0
 40
0
 41
0
  0
VERTEX
  8
0
 10
0.934517
 20
0.321126
 30
0.0
 40
0
 41
0
  0
VERTEX
  8
0
 10
0.934517
 20
0.322754
 30
0.0
 40
0
 41
0
  0
SEQEND
 8
0
  0
POLYLINE
  8
0
 62
     173
 66
     1
 10
0
 20
0
 30
0.0
 70
     1
 40
0
 41
0
  0
VERTEX
  8
0
 10
0.959526
 20
1.10775
 30
0.0
 40
0
 41
0
  0
VERTEX
  8
0
 10
0.959526
 20
1.10938
 30
0.0
 40
0
 41
0
  0
VERTEX
  8
0
 10
0.953017
 20
1.11426
 30
0.0
 40
0
 41
0
  0
VERTEX
  8
0
 10
0.94656
 20
1.10938
 30
0.0
 40
0
 41
0
  0
VERTEX
  8
0
 10
0.94656
 20
1.10775
 30
0.0
 40
0
 41
0
  0
VERTEX
  8
0
 10
0.94656
 20
1.10612
 30
0.0
 40
0
 41
0
  0
VERTEX
  8
0
 10
0.953017
 20
1.10124
 30
0.0
 40
0
 41
0
  0
VERTEX
  8
0
 10
0.959526
 20
1.10612
 30
0.0
 40
0
 41
0
  0
VERTEX
  8
0
 10
0.959526
 20
1.10775
 30
0.0
 40
0
 41
0
  0
SEQEND
 8
0
  0
POLYLINE
  8
0
 62
     173
 66
     1
 10
0
 20
0
 30
0.0
 70
     1
 40
0
 41
0
  0
VERTEX
  8
0
 10
0.959526
 20
0.957736
 30
0.0
 40
0
 41
0
  0
VERTEX
  8
0
 10
0.959526
 20
0.959364
 30
0.0
 40
0
 41
0
  0
VERTEX
  8
0
 10
0.953017
 20
0.964247
 30
0.0
 40
0
 41
0
  0
VERTEX
  8
0
 10
0.94656
 20
0.959364
 30
0.0
 40
0
 41
0
  0
VERTEX
  8
0
 10
0.94656
 20
0.957736
 30
0.0
 40
0
 41
0
  0
VERTEX
  8
0
 10
0.94656
 20
0.956108
 30
0.0
 40
0
 41
0
  0
VERTEX
  8
0
 10
0.953017
 20
0.951226
 30
0.0
 40
0
 41
0
  0
VERTEX
  8
0
 10
0.959526
 20
0.956108
 30
0.0
 40
0
 41
0
  0
VERTEX
  8
0
 10
0.959526
 20
0.957736
 30
0.0
 40
0
 41
0
  0
SEQEND
 8
0
  0
POLYLINE
  8
0
 62
     173
 66
     1
 10
0
 20
0
 30
0.0
 70
     1
 40
0
 41
0
  0
VERTEX
  8
0
 10
0.959526
 20
0.347765
 30
0.0
 40
0
 41
0
  0
VERTEX
  8
0
 10
0.959526
 20
0.349393
 30
0.0
 40
0
 41
0
  0
VERTEX
  8
0
 10
0.953017
 20
0.354275
 30
0.0
 40
0
 41
0
  0
VERTEX
  8
0
 10
0.94656
 20
0.349393
 30
0.0
 40
0
 41
0
  0
VERTEX
  8
0
 10
0.94656
 20
0.347765
 30
0.0
 40
0
 41
0
  0
VERTEX
  8
0
 10
0.94656
 20
0.346137
 30
0.0
 40
0
 41
0
  0
VERTEX
  8
0
 10
0.953017
 20
0.341254
 30
0.0
 40
0
 41
0
  0
VERTEX
  8
0
 10
0.959526
 20
0.346137
 30
0.0
 40
0
 41
0
  0
VERTEX
  8
0
 10
0.959526
 20
0.347765
 30
0.0
 40
0
 41
0
  0
SEQEND
 8
0
  0
POLYLINE
  8
0
 62
     173
 66
     1
 10
0
 20
0
 30
0.0
 70
     1
 40
0
 41
0
  0
VERTEX
  8
0
 10
0.984538
 20
1.13276
 30
0.0
 40
0
 41
0
  0
VERTEX
  8
0
 10
0.984538
 20
1.13439
 30
0.0
 40
0
 41
0
  0
VERTEX
  8
0
 10
0.978028
 20
1.13927
 30
0.0
 40
0
 41
0
  0
VERTEX
  8
0
 10
0.971517
 20
1.13439
 30
0.0
 40
0
 41
0
  0
VERTEX
  8
0
 10
0.971517
 20
1.13276
 30
0.0
 40
0
 41
0
  0
VERTEX
  8
0
 10
0.971517
 20
1.13113
 30
0.0
 40
0
 41
0
  0
VERTEX
  8
0
 10
0.978028
 20
1.12625
 30
0.0
 40
0
 41
0
  0
VERTEX
  8
0
 10
0.984538
 20
1.13113
 30
0.0
 40
0
 41
0
  0
VERTEX
  8
0
 10
0.984538
 20
1.13276
 30
0.0
 40
0
 41
0
  0
SEQEND
 8
0
  0
POLYLINE
  8
0
 62
     173
 66
     1
 10
0
 20
0
 30
0.0
 70
     1
 40
0
 41
0
  0
VERTEX
  8
0
 10
0.984538
 20
0.932726
 30
0.0
 40
0
 41
0
  0
VERTEX
  8
0
 10
0.984538
 20
0.934353
 30
0.0
 40
0
 41
0
  0
VERTEX
  8
0
 10
0.978028
 20
0.939236
 30
0.0
 40
0
 41
0
  0
VERTEX
  8
0
 10
0.971517
 20
0.934353
 30
0.0
 40
0
 41
0
  0
VERTEX
  8
0
 10
0.971517
 20
0.932726
 30
0.0
 40
0
 41
0
  0
VERTEX
  8
0
 10
0.971517
 20
0.931153
 30
0.0
 40
0
 41
0
  0
VERTEX
  8
0
 10
0.978028
 20
0.926269
 30
0.0
 40
0
 41
0
  0
VERTEX
  8
0
 10
0.984538
 20
0.931153
 30
0.0
 40
0
 41
0
  0
VERTEX
  8
0
 10
0.984538
 20
0.932726
 30
0.0
 40
0
 41
0
  0
SEQEND
 8
0
  0
POLYLINE
  8
0
 62
     173
 66
     1
 10
0
 20
0
 30
0.0
 70
     1
 40
0
 41
0
  0
VERTEX
  8
0
 10
0.984538
 20
0.372775
 30
0.0
 40
0
 41
0
  0
VERTEX
  8
0
 10
0.984538
 20
0.374403
 30
0.0
 40
0
 41
0
  0
VERTEX
  8
0
 10
0.978028
 20
0.379286
 30
0.0
 40
0
 41
0
  0
VERTEX
  8
0
 10
0.971517
 20
0.374403
 30
0.0
 40
0
 41
0
  0
VERTEX
  8
0
 10
0.971517
 20
0.372775
 30
0.0
 40
0
 41
0
  0
VERTEX
  8
0
 10
0.971517
 20
0.371149
 30
0.0
 40
0
 41
0
  0
VERTEX
  8
0
 10
0.978028
 20
0.366265
 30
0.0
 40
0
 41
0
  0
VERTEX
  8
0
 10
0.984538
 20
0.371149
 30
0.0
 40
0
 41
0
  0
VERTEX
  8
0
 10
0.984538
 20
0.372775
 30
0.0
 40
0
 41
0
  0
SEQEND
 8
0
  0
POLYLINE
  8
0
 62
     173
 66
     1
 10
0
 20
0
 30
0.0
 70
     1
 40
0
 41
0
  0
VERTEX
  8
0
 10
1.00955
 20
1.15777
 30
0.0
 40
0
 41
0
  0
VERTEX
  8
0
 10
1.00955
 20
1.1594
 30
0.0
 40
0
 41
0
  0
VERTEX
  8
0
 10
1.00304
 20
1.16428
 30
0.0
 40
0
 41
0
  0
VERTEX
  8
0
 10
0.996528
 20
1.1594
 30
0.0
 40
0
 41
0
  0
VERTEX
  8
0
 10
0.996528
 20
1.15777
 30
0.0
 40
0
 41
0
  0
VERTEX
  8
0
 10
0.996528
 20
1.15614
 30
0.0
 40
0
 41
0
  0
VERTEX
  8
0
 10
1.00304
 20
1.15126
 30
0.0
 40
0
 41
0
  0
VERTEX
  8
0
 10
1.00955
 20
1.15614
 30
0.0
 40
0
 41
0
  0
VERTEX
  8
0
 10
1.00955
 20
1.15777
 30
0.0
 40
0
 41
0
  0
SEQEND
 8
0
  0
POLYLINE
  8
0
 62
     173
 66
     1
 10
0
 20
0
 30
0.0
 70
     1
 40
0
 41
0
  0
VERTEX
  8
0
 10
1.00955
 20
0.907769
 30
0.0
 40
0
 41
0
  0
VERTEX
  8
0
 10
1.00955
 20
0.909397
 30
0.0
 40
0
 41
0
  0
VERTEX
  8
0
 10
1.00304
 20
0.914279
 30
0.0
 40
0
 41
0
  0
VERTEX
  8
0
 10
0.996528
 20
0.909397
 30
0.0
 40
0
 41
0
  0
VERTEX
  8
0
 10
0.996528
 20
0.907769
 30
0.0
 40
0
 41
0
  0
VERTEX
  8
0
 10
0.996528
 20
0.906142
 30
0.0
 40
0
 41
0
  0
VERTEX
  8
0
 10
1.00304
 20
0.901258
 30
0.0
 40
0
 41
0
  0
VERTEX
  8
0
 10
1.00955
 20
0.906142
 30
0.0
 40
0
 41
0
  0
VERTEX
  8
0
 10
1.00955
 20
0.907769
 30
0.0
 40
0
 41
0
  0
SEQEND
 8
0
  0
POLYLINE
  8
0
 62
     173
 66
     1
 10
0
 20
0
 30
0.0
 70
     1
 40
0
 41
0
  0
VERTEX
  8
0
 10
1.00955
 20
0.397732
 30
0.0
 40
0
 41
0
  0
VERTEX
  8
0
 10
1.00955
 20
0.39936
 30
0.0
 40
0
 41
0
  0
VERTEX
  8
0
 10
1.00304
 20
0.404243
 30
0.0
 40
0
 41
0
  0
VERTEX
  8
0
 10
0.996528
 20
0.39936
 30
0.0
 40
0
 41
0
  0
VERTEX
  8
0
 10
0.996528
 20
0.397732
 30
0.0
 40
0
 41
0
  0
VERTEX
  8
0
 10
0.996528
 20
0.396158
 30
0.0
 40
0
 41
0
  0
VERTEX
  8
0
 10
1.00304
 20
0.391276
 30
0.0
 40
0
 41
0
  0
VERTEX
  8
0
 10
1.00955
 20
0.396158
 30
0.0
 40
0
 41
0
  0
VERTEX
  8
0
 10
1.00955
 20
0.397732
 30
0.0
 40
0
 41
0
  0
SEQEND
 8
0
  0
POLYLINE
  8
0
 62
     173
 66
     1
 10
0
 20
0
 30
0.0
 70
     1
 40
0
 41
0
  0
VERTEX
  8
0
 10
1.03456
 20
1.18273
 30
0.0
 40
0
 41
0
  0
VERTEX
  8
0
 10
1.03456
 20
1.18435
 30
0.0
 40
0
 41
0
  0
VERTEX
  8
0
 10
1.02805
 20
1.18924
 30
0.0
 40
0
 41
0
  0
VERTEX
  8
0
 10
1.02154
 20
1.18435
 30
0.0
 40
0
 41
0
  0
VERTEX
  8
0
 10
1.02154
 20
1.18273
 30
0.0
 40
0
 41
0
  0
VERTEX
  8
0
 10
1.02154
 20
1.18115
 30
0.0
 40
0
 41
0
  0
VERTEX
  8
0
 10
1.02805
 20
1.17627
 30
0.0
 40
0
 41
0
  0
VERTEX
  8
0
 10
1.03456
 20
1.18115
 30
0.0
 40
0
 41
0
  0
VERTEX
  8
0
 10
1.03456
 20
1.18273
 30
0.0
 40
0
 41
0
  0
SEQEND
 8
0
  0
POLYLINE
  8
0
 62
     173
 66
     1
 10
0
 20
0
 30
0.0
 70
     1
 40
0
 41
0
  0
VERTEX
  8
0
 10
1.03456
 20
0.882758
 30
0.0
 40
0
 41
0
  0
VERTEX
  8
0
 10
1.03456
 20
0.884386
 30
0.0
 40
0
 41
0
  0
VERTEX
  8
0
 10
1.02805
 20
0.889268
 30
0.0
 40
0
 41
0
  0
VERTEX
  8
0
 10
1.02154
 20
0.884386
 30
0.0
 40
0
 41
0
  0
VERTEX
  8
0
 10
1.02154
 20
0.882758
 30
0.0
 40
0
 41
0
  0
VERTEX
  8
0
 10
1.02154
 20
0.881131
 30
0.0
 40
0
 41
0
  0
VERTEX
  8
0
 10
1.02805
 20
0.876247
 30
0.0
 40
0
 41
0
  0
VERTEX
  8
0
 10
1.03456
 20
0.881131
 30
0.0
 40
0
 41
0
  0
VERTEX
  8
0
 10
1.03456
 20
0.882758
 30
0.0
 40
0
 41
0
  0
SEQEND
 8
0
  0
POLYLINE
  8
0
 62
     173
 66
     1
 10
0
 20
0
 30
0.0
 70
     1
 40
0
 41
0
  0
VERTEX
  8
0
 10
1.03456
 20
0.422743
 30
0.0
 40
0
 41
0
  0
VERTEX
  8
0
 10
1.03456
 20
0.424371
 30
0.0
 40
0
 41
0
  0
VERTEX
  8
0
 10
1.02805
 20
0.429254
 30
0.0
 40
0
 41
0
  0
VERTEX
  8
0
 10
1.02154
 20
0.424371
 30
0.0
 40
0
 41
0
  0
VERTEX
  8
0
 10
1.02154
 20
0.422743
 30
0.0
 40
0
 41
0
  0
VERTEX
  8
0
 10
1.02154
 20
0.421115
 30
0.0
 40
0
 41
0
  0
VERTEX
  8
0
 10
1.02805
 20
0.416233
 30
0.0
 40
0
 41
0
  0
VERTEX
  8
0
 10
1.03456
 20
0.421115
 30
0.0
 40
0
 41
0
  0
VERTEX
  8
0
 10
1.03456
 20
0.422743
 30
0.0
 40
0
 41
0
  0
SEQEND
 8
0
  0
POLYLINE
  8
0
 62
     173
 66
     1
 10
0
 20
0
 30
0.0
 70
     1
 40
0
 41
0
  0
VERTEX
  8
0
 10
1.05952
 20
1.20774
 30
0.0
 40
0
 41
0
  0
VERTEX
  8
0
 10
1.05952
 20
1.20936
 30
0.0
 40
0
 41
0
  0
VERTEX
  8
0
 10
1.05301
 20
1.21425
 30
0.0
 40
0
 41
0
  0
VERTEX
  8
0
 10
1.04655
 20
1.20936
 30
0.0
 40
0
 41
0
  0
VERTEX
  8
0
 10
1.04655
 20
1.20774
 30
0.0
 40
0
 41
0
  0
VERTEX
  8
0
 10
1.04655
 20
1.20611
 30
0.0
 40
0
 41
0
  0
VERTEX
  8
0
 10
1.05301
 20
1.20123
 30
0.0
 40
0
 41
0
  0
VERTEX
  8
0
 10
1.05952
 20
1.20611
 30
0.0
 40
0
 41
0
  0
VERTEX
  8
0
 10
1.05952
 20
1.20774
 30
0.0
 40
0
 41
0
  0
SEQEND
 8
0
  0
POLYLINE
  8
0
 62
     173
 66
     1
 10
0
 20
0
 30
0.0
 70
     1
 40
0
 41
0
  0
VERTEX
  8
0
 10
1.05952
 20
0.857747
 30
0.0
 40
0
 41
0
  0
VERTEX
  8
0
 10
1.05952
 20
0.859375
 30
0.0
 40
0
 41
0
  0
VERTEX
  8
0
 10
1.05301
 20
0.864258
 30
0.0
 40
0
 41
0
  0
VERTEX
  8
0
 10
1.04655
 20
0.859375
 30
0.0
 40
0
 41
0
  0
VERTEX
  8
0
 10
1.04655
 20
0.857747
 30
0.0
 40
0
 41
0
  0
VERTEX
  8
0
 10
1.04655
 20
0.856119
 30
0.0
 40
0
 41
0
  0
VERTEX
  8
0
 10
1.05301
 20
0.851238
 30
0.0
 40
0
 41
0
  0
VERTEX
  8
0
 10
1.05952
 20
0.856119
 30
0.0
 40
0
 41
0
  0
VERTEX
  8
0
 10
1.05952
 20
0.857747
 30
0.0
 40
0
 41
0
  0
SEQEND
 8
0
  0
POLYLINE
  8
0
 62
     173
 66
     1
 10
0
 20
0
 30
0.0
 70
     1
 40
0
 41
0
  0
VERTEX
  8
0
 10
1.05952
 20
0.447754
 30
0.0
 40
0
 41
0
  0
VERTEX
  8
0
 10
1.05952
 20
0.449382
 30
0.0
 40
0
 41
0
  0
VERTEX
  8
0
 10
1.05301
 20
0.454264
 30
0.0
 40
0
 41
0
  0
VERTEX
  8
0
 10
1.04655
 20
0.449382
 30
0.0
 40
0
 41
0
  0
VERTEX
  8
0
 10
1.04655
 20
0.447754
 30
0.0
 40
0
 41
0
  0
VERTEX
  8
0
 10
1.04655
 20
0.446126
 30
0.0
 40
0
 41
0
  0
VERTEX
  8
0
 10
1.05301
 20
0.441243
 30
0.0
 40
0
 41
0
  0
VERTEX
  8
0
 10
1.05952
 20
0.446126
 30
0.0
 40
0
 41
0
  0
VERTEX
  8
0
 10
1.05952
 20
0.447754
 30
0.0
 40
0
 41
0
  0
SEQEND
 8
0
  0
POLYLINE
  8
0
 62
     173
 66
     1
 10
0
 20
0
 30
0.0
 70
     1
 40
0
 41
0
  0
VERTEX
  8
0
 10
1.16455
 20
1.06776
 30
0.0
 40
0
 41
0
  0
VERTEX
  8
0
 10
1.16455
 20
1.06939
 30
0.0
 40
0
 41
0
  0
VERTEX
  8
0
 10
1.15804
 20
1.07427
 30
0.0
 40
0
 41
0
  0
VERTEX
  8
0
 10
1.15153
 20
1.06939
 30
0.0
 40
0
 41
0
  0
VERTEX
  8
0
 10
1.15153
 20
1.06776
 30
0.0
 40
0
 41
0
  0
VERTEX
  8
0
 10
1.15153
 20
1.06613
 30
0.0
 40
0
 41
0
  0
VERTEX
  8
0
 10
1.15804
 20
1.06125
 30
0.0
 40
0
 41
0
  0
VERTEX
  8
0
 10
1.16455
 20
1.06613
 30
0.0
 40
0
 41
0
  0
VERTEX
  8
0
 10
1.16455
 20
1.06776
 30
0.0
 40
0
 41
0
  0
SEQEND
 8
0
  0
POLYLINE
  8
0
 62
     173
 66
     1
 10
0
 20
0
 30
0.0
 70
     1
 40
0
 41
0
  0
VERTEX
  8
0
 10
1.16455
 20
0.307726
 30
0.0
 40
0
 41
0
  0
VERTEX
  8
0
 10
1.16455
 20
0.309353
 30
0.0
 40
0
 41
0
  0
VERTEX
  8
0
 10
1.15804
 20
0.314236
 30
0.0
 40
0
 41
0
  0
VERTEX
  8
0
 10
1.15153
 20
0.309353
 30
0.0
 40
0
 41
0
  0
VERTEX
  8
0
 10
1.15153
 20
0.307726
 30
0.0
 40
0
 41
0
  0
VERTEX
  8
0
 10
1.15153
 20
0.306153
 30
0.0
 40
0
 41
0
  0
VERTEX
  8
0
 10
1.15804
 20
0.301269
 30
0.0
 40
0
 41
0
  0
VERTEX
  8
0
 10
1.16455
 20
0.306153
 30
0.0
 40
0
 41
0
  0
VERTEX
  8
0
 10
1.16455
 20
0.307726
 30
0.0
 40
0
 41
0
  0
SEQEND
 8
0
  0
POLYLINE
  8
0
 62
     173
 66
     1
 10
0
 20
0
 30
0.0
 70
     1
 40
0
 41
0
  0
VERTEX
  8
0
 10
1.18452
 20
1.16276
 30
0.0
 40
0
 41
0
  0
VERTEX
  8
0
 10
1.18452
 20
1.16439
 30
0.0
 40
0
 41
0
  0
VERTEX
  8
0
 10
1.17801
 20
1.16927
 30
0.0
 40
0
 41
0
  0
VERTEX
  8
0
 10
1.17155
 20
1.16439
 30
0.0
 40
0
 41
0
  0
VERTEX
  8
0
 10
1.17155
 20
1.16276
 30
0.0
 40
0
 41
0
  0
VERTEX
  8
0
 10
1.17155
 20
1.16113
 30
0.0
 40
0
 41
0
  0
VERTEX
  8
0
 10
1.17801
 20
1.15625
 30
0.0
 40
0
 41
0
  0
VERTEX
  8
0
 10
1.18452
 20
1.16113
 30
0.0
 40
0
 41
0
  0
VERTEX
  8
0
 10
1.18452
 20
1.16276
 30
0.0
 40
0
 41
0
  0
SEQEND
 8
0
  0
POLYLINE
  8
0
 62
     173
 66
     1
 10
0
 20
0
 30
0.0
 70
     1
 40
0
 41
0
  0
VERTEX
  8
0
 10
1.18452
 20
0.402724
 30
0.0
 40
0
 41
0
  0
VERTEX
  8
0
 10
1.18452
 20
0.404351
 30
0.0
 40
0
 41
0
  0
VERTEX
  8
0
 10
1.17801
 20
0.409233
 30
0.0
 40
0
 41
0
  0
VERTEX
  8
0
 10
1.17155
 20
0.404351
 30
0.0
 40
0
 41
0
  0
VERTEX
  8
0
 10
1.17155
 20
0.402724
 30
0.0
 40
0
 41
0
  0
VERTEX
  8
0
 10
1.17155
 20
0.40115
 30
0.0
 40
0
 41
0
  0
VERTEX
  8
0
 10
1.17801
 20
0.396268
 30
0.0
 40
0
 41
0
  0
VERTEX
  8
0
 10
1.18452
 20
0.40115
 30
0.0
 40
0
 41
0
  0
VERTEX
  8
0
 10
1.18452
 20
0.402724
 30
0.0
 40
0
 41
0
  0
SEQEND
 8
0
  0
POLYLINE
  8
0
 62
     173
 66
     1
 10
0
 20
0
 30
0.0
 70
     1
 40
0
 41
0
  0
VERTEX
  8
0
 10
1.21452
 20
1.05773
 30
0.0
 40
0
 41
0
  0
VERTEX
  8
0
 10
1.21452
 20
1.05935
 30
0.0
 40
0
 41
0
  0
VERTEX
  8
0
 10
1.20801
 20
1.06424
 30
0.0
 40
0
 41
0
  0
VERTEX
  8
0
 10
1.20155
 20
1.05935
 30
0.0
 40
0
 41
0
  0
VERTEX
  8
0
 10
1.20155
 20
1.05773
 30
0.0
 40
0
 41
0
  0
VERTEX
  8
0
 10
1.20155
 20
1.05615
 30
0.0
 40
0
 41
0
  0
VERTEX
  8
0
 10
1.20801
 20
1.05127
 30
0.0
 40
0
 41
0
  0
VERTEX
  8
0
 10
1.21452
 20
1.05615
 30
0.0
 40
0
 41
0
  0
VERTEX
  8
0
 10
1.21452
 20
1.05773
 30
0.0
 40
0
 41
0
  0
SEQEND
 8
0
  0
POLYLINE
  8
0
 62
     173
 66
     1
 10
0
 20
0
 30
0.0
 70
     1
 40
0
 41
0
  0
VERTEX
  8
0
 10
1.21452
 20
0.297743
 30
0.0
 40
0
 41
0
  0
VERTEX
  8
0
 10
1.21452
 20
0.299371
 30
0.0
 40
0
 41
0
  0
VERTEX
  8
0
 10
1.20801
 20
0.304254
 30
0.0
 40
0
 41
0
  0
VERTEX
  8
0
 10
1.20155
 20
0.299371
 30
0.0
 40
0
 41
0
  0
VERTEX
  8
0
 10
1.20155
 20
0.297743
 30
0.0
 40
0
 41
0
  0
VERTEX
  8
0
 10
1.20155
 20
0.296115
 30
0.0
 40
0
 41
0
  0
VERTEX
  8
0
 10
1.20801
 20
0.291233
 30
0.0
 40
0
 41
0
  0
VERTEX
  8
0
 10
1.21452
 20
0.296115
 30
0.0
 40
0
 41
0
  0
VERTEX
  8
0
 10
1.21452
 20
0.297743
 30
0.0
 40
0
 41
0
  0
SEQEND
 8
0
  0
POLYLINE
  8
0
 62
     173
 66
     1
 10
0
 20
0
 30
0.0
 70
     1
 40
0
 41
0
  0
VERTEX
  8
0
 10
1.24951
 20
1.17274
 30
0.0
 40
0
 41
0
  0
VERTEX
  8
0
 10
1.24951
 20
1.17437
 30
0.0
 40
0
 41
0
  0
VERTEX
  8
0
 10
1.243
 20
1.17925
 30
0.0
 40
0
 41
0
  0
VERTEX
  8
0
 10
1.23655
 20
1.17437
 30
0.0
 40
0
 41
0
  0
VERTEX
  8
0
 10
1.23655
 20
1.17274
 30
0.0
 40
0
 41
0
  0
VERTEX
  8
0
 10
1.23655
 20
1.17112
 30
0.0
 40
0
 41
0
  0
VERTEX
  8
0
 10
1.243
 20
1.16623
 30
0.0
 40
0
 41
0
  0
VERTEX
  8
0
 10
1.24951
 20
1.17112
 30
0.0
 40
0
 41
0
  0
VERTEX
  8
0
 10
1.24951
 20
1.17274
 30
0.0
 40
0
 41
0
  0
SEQEND
 8
0
  0
POLYLINE
  8
0
 62
     173
 66
     1
 10
0
 20
0
 30
0.0
 70
     1
 40
0
 41
0
  0
VERTEX
  8
0
 10
1.24951
 20
0.412761
 30
0.0
 40
0
 41
0
  0
VERTEX
  8
0
 10
1.24951
 20
0.414387
 30
0.0
 40
0
 41
0
  0
VERTEX
  8
0
 10
1.243
 20
0.419271
 30
0.0
 40
0
 41
0
  0
VERTEX
  8
0
 10
1.23655
 20
0.414387
 30
0.0
 40
0
 41
0
  0
VERTEX
  8
0
 10
1.23655
 20
0.412761
 30
0.0
 40
0
 41
0
  0
VERTEX
  8
0
 10
1.23655
 20
0.411133
 30
0.0
 40
0
 41
0
  0
VERTEX
  8
0
 10
1.243
 20
0.40625
 30
0.0
 40
0
 41
0
  0
VERTEX
  8
0
 10
1.24951
 20
0.411133
 30
0.0
 40
0
 41
0
  0
VERTEX
  8
0
 10
1.24951
 20
0.412761
 30
0.0
 40
0
 41
0
  0
SEQEND
 8
0
  0
POLYLINE
  8
0
 62
     173
 66
     1
 10
0
 20
0
 30
0.0
 70
     1
 40
0
 41
0
  0
VERTEX
  8
0
 10
1.27951
 20
1.04774
 30
0.0
 40
0
 41
0
  0
VERTEX
  8
0
 10
1.27951
 20
1.04937
 30
0.0
 40
0
 41
0
  0
VERTEX
  8
0
 10
1.273
 20
1.05425
 30
0.0
 40
0
 41
0
  0
VERTEX
  8
0
 10
1.26655
 20
1.04937
 30
0.0
 40
0
 41
0
  0
VERTEX
  8
0
 10
1.26655
 20
1.04774
 30
0.0
 40
0
 41
0
  0
VERTEX
  8
0
 10
1.26655
 20
1.04612
 30
0.0
 40
0
 41
0
  0
VERTEX
  8
0
 10
1.273
 20
1.04123
 30
0.0
 40
0
 41
0
  0
VERTEX
  8
0
 10
1.27951
 20
1.04612
 30
0.0
 40
0
 41
0
  0
VERTEX
  8
0
 10
1.27951
 20
1.04774
 30
0.0
 40
0
 41
0
  0
SEQEND
 8
0
  0
POLYLINE
  8
0
 62
     173
 66
     1
 10
0
 20
0
 30
0.0
 70
     1
 40
0
 41
0
  0
VERTEX
  8
0
 10
1.27951
 20
0.287761
 30
0.0
 40
0
 41
0
  0
VERTEX
  8
0
 10
1.27951
 20
0.289387
 30
0.0
 40
0
 41
0
  0
VERTEX
  8
0
 10
1.273
 20
0.294271
 30
0.0
 40
0
 41
0
  0
VERTEX
  8
0
 10
1.26655
 20
0.289387
 30
0.0
 40
0
 41
0
  0
VERTEX
  8
0
 10
1.26655
 20
0.287761
 30
0.0
 40
0
 41
0
  0
VERTEX
  8
0
 10
1.26655
 20
0.286133
 30
0.0
 40
0
 41
0
  0
VERTEX
  8
0
 10
1.273
 20
0.28125
 30
0.0
 40
0
 41
0
  0
VERTEX
  8
0
 10
1.27951
 20
0.286133
 30
0.0
 40
0
 41
0
  0
VERTEX
  8
0
 10
1.27951
 20
0.287761
 30
0.0
 40
0
 41
0
  0
SEQEND
 8
0
  0
POLYLINE
  8
0
 62
     173
 66
     1
 10
0
 20
0
 30
0.0
 70
     1
 40
0
 41
0
  0
VERTEX
  8
0
 10
1.33952
 20
1.28776
 30
0.0
 40
0
 41
0
  0
VERTEX
  8
0
 10
1.33952
 20
1.28939
 30
0.0
 40
0
 41
0
  0
VERTEX
  8
0
 10
1.33301
 20
1.29427
 30
0.0
 40
0
 41
0
  0
VERTEX
  8
0
 10
1.32655
 20
1.28939
 30
0.0
 40
0
 41
0
  0
VERTEX
  8
0
 10
1.32655
 20
1.28776
 30
0.0
 40
0
 41
0
  0
VERTEX
  8
0
 10
1.32655
 20
1.28613
 30
0.0
 40
0
 41
0
  0
VERTEX
  8
0
 10
1.33301
 20
1.28125
 30
0.0
 40
0
 41
0
  0
VERTEX
  8
0
 10
1.33952
 20
1.28613
 30
0.0
 40
0
 41
0
  0
VERTEX
  8
0
 10
1.33952
 20
1.28776
 30
0.0
 40
0
 41
0
  0
SEQEND
 8
0
  0
POLYLINE
  8
0
 62
     173
 66
     1
 10
0
 20
0
 30
0.0
 70
     1
 40
0
 41
0
  0
VERTEX
  8
0
 10
1.33952
 20
1.23275
 30
0.0
 40
0
 41
0
  0
VERTEX
  8
0
 10
1.33952
 20
1.23438
 30
0.0
 40
0
 41
0
  0
VERTEX
  8
0
 10
1.33301
 20
1.23926
 30
0.0
 40
0
 41
0
  0
VERTEX
  8
0
 10
1.32655
 20
1.23438
 30
0.0
 40
0
 41
0
  0
VERTEX
  8
0
 10
1.32655
 20
1.23275
 30
0.0
 40
0
 41
0
  0
VERTEX
  8
0
 10
1.32655
 20
1.23112
 30
0.0
 40
0
 41
0
  0
VERTEX
  8
0
 10
1.33301
 20
1.22624
 30
0.0
 40
0
 41
0
  0
VERTEX
  8
0
 10
1.33952
 20
1.23112
 30
0.0
 40
0
 41
0
  0
VERTEX
  8
0
 10
1.33952
 20
1.23275
 30
0.0
 40
0
 41
0
  0
SEQEND
 8
0
  0
POLYLINE
  8
0
 62
     173
 66
     1
 10
0
 20
0
 30
0.0
 70
     1
 40
0
 41
0
  0
VERTEX
  8
0
 10
1.33952
 20
1.17773
 30
0.0
 40
0
 41
0
  0
VERTEX
  8
0
 10
1.33952
 20
1.17936
 30
0.0
 40
0
 41
0
  0
VERTEX
  8
0
 10
1.33301
 20
1.18424
 30
0.0
 40
0
 41
0
  0
VERTEX
  8
0
 10
1.32655
 20
1.17936
 30
0.0
 40
0
 41
0
  0
VERTEX
  8
0
 10
1.32655
 20
1.17773
 30
0.0
 40
0
 41
0
  0
VERTEX
  8
0
 10
1.32655
 20
1.17616
 30
0.0
 40
0
 41
0
  0
VERTEX
  8
0
 10
1.33301
 20
1.17128
 30
0.0
 40
0
 41
0
  0
VERTEX
  8
0
 10
1.33952
 20
1.17616
 30
0.0
 40
0
 41
0
  0
VERTEX
  8
0
 10
1.33952
 20
1.17773
 30
0.0
 40
0
 41
0
  0
SEQEND
 8
0
  0
POLYLINE
  8
0
 62
     173
 66
     1
 10
0
 20
0
 30
0.0
 70
     1
 40
0
 41
0
  0
VERTEX
  8
0
 10
1.33952
 20
1.12277
 30
0.0
 40
0
 41
0
  0
VERTEX
  8
0
 10
1.33952
 20
1.1244
 30
0.0
 40
0
 41
0
  0
VERTEX
  8
0
 10
1.33301
 20
1.12929
 30
0.0
 40
0
 41
0
  0
VERTEX
  8
0
 10
1.32655
 20
1.1244
 30
0.0
 40
0
 41
0
  0
VERTEX
  8
0
 10
1.32655
 20
1.12277
 30
0.0
 40
0
 41
0
  0
VERTEX
  8
0
 10
1.32655
 20
1.12115
 30
0.0
 40
0
 41
0
  0
VERTEX
  8
0
 10
1.33301
 20
1.11627
 30
0.0
 40
0
 41
0
  0
VERTEX
  8
0
 10
1.33952
 20
1.12115
 30
0.0
 40
0
 41
0
  0
VERTEX
  8
0
 10
1.33952
 20
1.12277
 30
0.0
 40
0
 41
0
  0
SEQEND
 8
0
  0
POLYLINE
  8
0
 62
     173
 66
     1
 10
0
 20
0
 30
0.0
 70
     1
 40
0
 41
0
  0
VERTEX
  8
0
 10
1.33952
 20
1.06776
 30
0.0
 40
0
 41
0
  0
VERTEX
  8
0
 10
1.33952
 20
1.06939
 30
0.0
 40
0
 41
0
  0
VERTEX
  8
0
 10
1.33301
 20
1.07427
 30
0.0
 40
0
 41
0
  0
VERTEX
  8
0
 10
1.32655
 20
1.06939
 30
0.0
 40
0
 41
0
  0
VERTEX
  8
0
 10
1.32655
 20
1.06776
 30
0.0
 40
0
 41
0
  0
VERTEX
  8
0
 10
1.32655
 20
1.06613
 30
0.0
 40
0
 41
0
  0
VERTEX
  8
0
 10
1.33301
 20
1.06125
 30
0.0
 40
0
 41
0
  0
VERTEX
  8
0
 10
1.33952
 20
1.06613
 30
0.0
 40
0
 41
0
  0
VERTEX
  8
0
 10
1.33952
 20
1.06776
 30
0.0
 40
0
 41
0
  0
SEQEND
 8
0
  0
POLYLINE
  8
0
 62
     173
 66
     1
 10
0
 20
0
 30
0.0
 70
     1
 40
0
 41
0
  0
VERTEX
  8
0
 10
1.33952
 20
1.01275
 30
0.0
 40
0
 41
0
  0
VERTEX
  8
0
 10
1.33952
 20
1.01438
 30
0.0
 40
0
 41
0
  0
VERTEX
  8
0
 10
1.33301
 20
1.01926
 30
0.0
 40
0
 41
0
  0
VERTEX
  8
0
 10
1.32655
 20
1.01438
 30
0.0
 40
0
 41
0
  0
VERTEX
  8
0
 10
1.32655
 20
1.01275
 30
0.0
 40
0
 41
0
  0
VERTEX
  8
0
 10
1.32655
 20
1.01112
 30
0.0
 40
0
 41
0
  0
VERTEX
  8
0
 10
1.33301
 20
1.00624
 30
0.0
 40
0
 41
0
  0
VERTEX
  8
0
 10
1.33952
 20
1.01112
 30
0.0
 40
0
 41
0
  0
VERTEX
  8
0
 10
1.33952
 20
1.01275
 30
0.0
 40
0
 41
0
  0
SEQEND
 8
0
  0
POLYLINE
  8
0
 62
     173
 66
     1
 10
0
 20
0
 30
0.0
 70
     1
 40
0
 41
0
  0
VERTEX
  8
0
 10
1.33952
 20
0.962728
 30
0.0
 40
0
 41
0
  0
VERTEX
  8
0
 10
1.33952
 20
0.964356
 30
0.0
 40
0
 41
0
  0
VERTEX
  8
0
 10
1.33301
 20
0.969239
 30
0.0
 40
0
 41
0
  0
VERTEX
  8
0
 10
1.32655
 20
0.964356
 30
0.0
 40
0
 41
0
  0
VERTEX
  8
0
 10
1.32655
 20
0.962728
 30
0.0
 40
0
 41
0
  0
VERTEX
  8
0
 10
1.32655
 20
0.961154
 30
0.0
 40
0
 41
0
  0
VERTEX
  8
0
 10
1.33301
 20
0.956272
 30
0.0
 40
0
 41
0
  0
VERTEX
  8
0
 10
1.33952
 20
0.961154
 30
0.0
 40
0
 41
0
  0
VERTEX
  8
0
 10
1.33952
 20
0.962728
 30
0.0
 40
0
 41
0
  0
SEQEND
 8
0
  0
POLYLINE
  8
0
 62
     173
 66
     1
 10
0
 20
0
 30
0.0
 70
     1
 40
0
 41
0
  0
VERTEX
  8
0
 10
1.33952
 20
0.907769
 30
0.0
 40
0
 41
0
  0
VERTEX
  8
0
 10
1.33952
 20
0.909397
 30
0.0
 40
0
 41
0
  0
VERTEX
  8
0
 10
1.33301
 20
0.914279
 30
0.0
 40
0
 41
0
  0
VERTEX
  8
0
 10
1.32655
 20
0.909397
 30
0.0
 40
0
 41
0
  0
VERTEX
  8
0
 10
1.32655
 20
0.907769
 30
0.0
 40
0
 41
0
  0
VERTEX
  8
0
 10
1.32655
 20
0.906142
 30
0.0
 40
0
 41
0
  0
VERTEX
  8
0
 10
1.33301
 20
0.901258
 30
0.0
 40
0
 41
0
  0
VERTEX
  8
0
 10
1.33952
 20
0.906142
 30
0.0
 40
0
 41
0
  0
VERTEX
  8
0
 10
1.33952
 20
0.907769
 30
0.0
 40
0
 41
0
  0
SEQEND
 8
0
  0
POLYLINE
  8
0
 62
     173
 66
     1
 10
0
 20
0
 30
0.0
 70
     1
 40
0
 41
0
  0
VERTEX
  8
0
 10
1.33952
 20
0.527724
 30
0.0
 40
0
 41
0
  0
VERTEX
  8
0
 10
1.33952
 20
0.529351
 30
0.0
 40
0
 41
0
  0
VERTEX
  8
0
 10
1.33301
 20
0.534233
 30
0.0
 40
0
 41
0
  0
VERTEX
  8
0
 10
1.32655
 20
0.529351
 30
0.0
 40
0
 41
0
  0
VERTEX
  8
0
 10
1.32655
 20
0.527724
 30
0.0
 40
0
 41
0
  0
VERTEX
  8
0
 10
1.32655
 20
0.52615
 30
0.0
 40
0
 41
0
  0
VERTEX
  8
0
 10
1.33301
 20
0.521268
 30
0.0
 40
0
 41
0
  0
VERTEX
  8
0
 10
1.33952
 20
0.52615
 30
0.0
 40
0
 41
0
  0
VERTEX
  8
0
 10
1.33952
 20
0.527724
 30
0.0
 40
0
 41
0
  0
SEQEND
 8
0
  0
POLYLINE
  8
0
 62
     173
 66
     1
 10
0
 20
0
 30
0.0
 70
     1
 40
0
 41
0
  0
VERTEX
  8
0
 10
1.33952
 20
0.472765
 30
0.0
 40
0
 41
0
  0
VERTEX
  8
0
 10
1.33952
 20
0.474393
 30
0.0
 40
0
 41
0
  0
VERTEX
  8
0
 10
1.33301
 20
0.479275
 30
0.0
 40
0
 41
0
  0
VERTEX
  8
0
 10
1.32655
 20
0.474393
 30
0.0
 40
0
 41
0
  0
VERTEX
  8
0
 10
1.32655
 20
0.472765
 30
0.0
 40
0
 41
0
  0
VERTEX
  8
0
 10
1.32655
 20
0.471138
 30
0.0
 40
0
 41
0
  0
VERTEX
  8
0
 10
1.33301
 20
0.466254
 30
0.0
 40
0
 41
0
  0
VERTEX
  8
0
 10
1.33952
 20
0.471138
 30
0.0
 40
0
 41
0
  0
VERTEX
  8
0
 10
1.33952
 20
0.472765
 30
0.0
 40
0
 41
0
  0
SEQEND
 8
0
  0
POLYLINE
  8
0
 62
     173
 66
     1
 10
0
 20
0
 30
0.0
 70
     1
 40
0
 41
0
  0
VERTEX
  8
0
 10
1.33952
 20
0.417751
 30
0.0
 40
0
 41
0
  0
VERTEX
  8
0
 10
1.33952
 20
0.419379
 30
0.0
 40
0
 41
0
  0
VERTEX
  8
0
 10
1.33301
 20
0.424263
 30
0.0
 40
0
 41
0
  0
VERTEX
  8
0
 10
1.32655
 20
0.419379
 30
0.0
 40
0
 41
0
  0
VERTEX
  8
0
 10
1.32655
 20
0.417751
 30
0.0
 40
0
 41
0
  0
VERTEX
  8
0
 10
1.32655
 20
0.416124
 30
0.0
 40
0
 41
0
  0
VERTEX
  8
0
 10
1.33301
 20
0.411242
 30
0.0
 40
0
 41
0
  0
VERTEX
  8
0
 10
1.33952
 20
0.416124
 30
0.0
 40
0
 41
0
  0
VERTEX
  8
0
 10
1.33952
 20
0.417751
 30
0.0
 40
0
 41
0
  0
SEQEND
 8
0
  0
POLYLINE
  8
0
 62
     173
 66
     1
 10
0
 20
0
 30
0.0
 70
     1
 40
0
 41
0
  0
VERTEX
  8
0
 10
1.33952
 20
0.362739
 30
0.0
 40
0
 41
0
  0
VERTEX
  8
0
 10
1.33952
 20
0.364367
 30
0.0
 40
0
 41
0
  0
VERTEX
  8
0
 10
1.33301
 20
0.369249
 30
0.0
 40
0
 41
0
  0
VERTEX
  8
0
 10
1.32655
 20
0.364367
 30
0.0
 40
0
 41
0
  0
VERTEX
  8
0
 10
1.32655
 20
0.362739
 30
0.0
 40
0
 41
0
  0
VERTEX
  8
0
 10
1.32655
 20
0.361111
 30
0.0
 40
0
 41
0
  0
VERTEX
  8
0
 10
1.33301
 20
0.356228
 30
0.0
 40
0
 41
0
  0
VERTEX
  8
0
 10
1.33952
 20
0.361111
 30
0.0
 40
0
 41
0
  0
VERTEX
  8
0
 10
1.33952
 20
0.362739
 30
0.0
 40
0
 41
0
  0
SEQEND
 8
0
  0
POLYLINE
  8
0
 62
     173
 66
     1
 10
0
 20
0
 30
0.0
 70
     1
 40
0
 41
0
  0
VERTEX
  8
0
 10
1.33952
 20
0.307726
 30
0.0
 40
0
 41
0
  0
VERTEX
  8
0
 10
1.33952
 20
0.309353
 30
0.0
 40
0
 41
0
  0
VERTEX
  8
0
 10
1.33301
 20
0.314236
 30
0.0
 40
0
 41
0
  0
VERTEX
  8
0
 10
1.32655
 20
0.309353
 30
0.0
 40
0
 41
0
  0
VERTEX
  8
0
 10
1.32655
 20
0.307726
 30
0.0
 40
0
 41
0
  0
VERTEX
  8
0
 10
1.32655
 20
0.306153
 30
0.0
 40
0
 41
0
  0
VERTEX
  8
0
 10
1.33301
 20
0.301269
 30
0.0
 40
0
 41
0
  0
VERTEX
  8
0
 10
1.33952
 20
0.306153
 30
0.0
 40
0
 41
0
  0
VERTEX
  8
0
 10
1.33952
 20
0.307726
 30
0.0
 40
0
 41
0
  0
SEQEND
 8
0
  0
POLYLINE
  8
0
 62
     173
 66
     1
 10
0
 20
0
 30
0.0
 70
     1
 40
0
 41
0
  0
VERTEX
  8
0
 10
1.33952
 20
0.252767
 30
0.0
 40
0
 41
0
  0
VERTEX
  8
0
 10
1.33952
 20
0.254394
 30
0.0
 40
0
 41
0
  0
VERTEX
  8
0
 10
1.33301
 20
0.259278
 30
0.0
 40
0
 41
0
  0
VERTEX
  8
0
 10
1.32655
 20
0.254394
 30
0.0
 40
0
 41
0
  0
VERTEX
  8
0
 10
1.32655
 20
0.252767
 30
0.0
 40
0
 41
0
  0
VERTEX
  8
0
 10
1.32655
 20
0.251139
 30
0.0
 40
0
 41
0
  0
VERTEX
  8
0
 10
1.33301
 20
0.246257
 30
0.0
 40
0
 41
0
  0
VERTEX
  8
0
 10
1.33952
 20
0.251139
 30
0.0
 40
0
 41
0
  0
VERTEX
  8
0
 10
1.33952
 20
0.252767
 30
0.0
 40
0
 41
0
  0
SEQEND
 8
0
  0
POLYLINE
  8
0
 62
     173
 66
     1
 10
0
 20
0
 30
0.0
 70
     1
 40
0
 41
0
  0
VERTEX
  8
0
 10
1.33952
 20
0.202746
 30
0.0
 40
0
 41
0
  0
VERTEX
  8
0
 10
1.33952
 20
0.204372
 30
0.0
 40
0
 41
0
  0
VERTEX
  8
0
 10
1.33301
 20
0.209256
 30
0.0
 40
0
 41
0
  0
VERTEX
  8
0
 10
1.32655
 20
0.204372
 30
0.0
 40
0
 41
0
  0
VERTEX
  8
0
 10
1.32655
 20
0.202746
 30
0.0
 40
0
 41
0
  0
VERTEX
  8
0
 10
1.32655
 20
0.201118
 30
0.0
 40
0
 41
0
  0
VERTEX
  8
0
 10
1.33301
 20
0.196235
 30
0.0
 40
0
 41
0
  0
VERTEX
  8
0
 10
1.33952
 20
0.201118
 30
0.0
 40
0
 41
0
  0
VERTEX
  8
0
 10
1.33952
 20
0.202746
 30
0.0
 40
0
 41
0
  0
SEQEND
 8
0
  0
POLYLINE
  8
0
 62
     173
 66
     1
 10
0
 20
0
 30
0.0
 70
     1
 40
0
 41
0
  0
VERTEX
  8
0
 10
1.33952
 20
0.147732
 30
0.0
 40
0
 41
0
  0
VERTEX
  8
0
 10
1.33952
 20
0.14936
 30
0.0
 40
0
 41
0
  0
VERTEX
  8
0
 10
1.33301
 20
0.154243
 30
0.0
 40
0
 41
0
  0
VERTEX
  8
0
 10
1.32655
 20
0.14936
 30
0.0
 40
0
 41
0
  0
VERTEX
  8
0
 10
1.32655
 20
0.147732
 30
0.0
 40
0
 41
0
  0
VERTEX
  8
0
 10
1.32655
 20
0.146158
 30
0.0
 40
0
 41
0
  0
VERTEX
  8
0
 10
1.33301
 20
0.141276
 30
0.0
 40
0
 41
0
  0
VERTEX
  8
0
 10
1.33952
 20
0.146158
 30
0.0
 40
0
 41
0
  0
VERTEX
  8
0
 10
1.33952
 20
0.147732
 30
0.0
 40
0
 41
0
  0
SEQEND
 8
0
  0
POLYLINE
  8
0
 62
     173
 66
     1
 10
0
 20
0
 30
0.0
 70
     1
 40
0
 41
0
  0
VERTEX
  8
0
 10
1.61453
 20
1.30273
 30
0.0
 40
0
 41
0
  0
VERTEX
  8
0
 10
1.61453
 20
1.30436
 30
0.0
 40
0
 41
0
  0
VERTEX
  8
0
 10
1.60801
 20
1.30924
 30
0.0
 40
0
 41
0
  0
VERTEX
  8
0
 10
1.60151
 20
1.30436
 30
0.0
 40
0
 41
0
  0
VERTEX
  8
0
 10
1.60151
 20
1.30273
 30
0.0
 40
0
 41
0
  0
VERTEX
  8
0
 10
1.60151
 20
1.30116
 30
0.0
 40
0
 41
0
  0
VERTEX
  8
0
 10
1.60801
 20
1.29628
 30
0.0
 40
0
 41
0
  0
VERTEX
  8
0
 10
1.61453
 20
1.30116
 30
0.0
 40
0
 41
0
  0
VERTEX
  8
0
 10
1.61453
 20
1.30273
 30
0.0
 40
0
 41
0
  0
SEQEND
 8
0
  0
POLYLINE
  8
0
 62
     173
 66
     1
 10
0
 20
0
 30
0.0
 70
     1
 40
0
 41
0
  0
VERTEX
  8
0
 10
1.61453
 20
1.25277
 30
0.0
 40
0
 41
0
  0
VERTEX
  8
0
 10
1.61453
 20
1.25439
 30
0.0
 40
0
 41
0
  0
VERTEX
  8
0
 10
1.60801
 20
1.25928
 30
0.0
 40
0
 41
0
  0
VERTEX
  8
0
 10
1.60151
 20
1.25439
 30
0.0
 40
0
 41
0
  0
VERTEX
  8
0
 10
1.60151
 20
1.25277
 30
0.0
 40
0
 41
0
  0
VERTEX
  8
0
 10
1.60151
 20
1.25114
 30
0.0
 40
0
 41
0
  0
VERTEX
  8
0
 10
1.60801
 20
1.24626
 30
0.0
 40
0
 41
0
  0
VERTEX
  8
0
 10
1.61453
 20
1.25114
 30
0.0
 40
0
 41
0
  0
VERTEX
  8
0
 10
1.61453
 20
1.25277
 30
0.0
 40
0
 41
0
  0
SEQEND
 8
0
  0
POLYLINE
  8
0
 62
     173
 66
     1
 10
0
 20
0
 30
0.0
 70
     1
 40
0
 41
0
  0
VERTEX
  8
0
 10
1.61453
 20
1.20275
 30
0.0
 40
0
 41
0
  0
VERTEX
  8
0
 10
1.61453
 20
1.20437
 30
0.0
 40
0
 41
0
  0
VERTEX
  8
0
 10
1.60801
 20
1.20926
 30
0.0
 40
0
 41
0
  0
VERTEX
  8
0
 10
1.60151
 20
1.20437
 30
0.0
 40
0
 41
0
  0
VERTEX
  8
0
 10
1.60151
 20
1.20275
 30
0.0
 40
0
 41
0
  0
VERTEX
  8
0
 10
1.60151
 20
1.20112
 30
0.0
 40
0
 41
0
  0
VERTEX
  8
0
 10
1.60801
 20
1.19623
 30
0.0
 40
0
 41
0
  0
VERTEX
  8
0
 10
1.61453
 20
1.20112
 30
0.0
 40
0
 41
0
  0
VERTEX
  8
0
 10
1.61453
 20
1.20275
 30
0.0
 40
0
 41
0
  0
SEQEND
 8
0
  0
POLYLINE
  8
0
 62
     173
 66
     1
 10
0
 20
0
 30
0.0
 70
     1
 40
0
 41
0
  0
VERTEX
  8
0
 10
1.61453
 20
1.15272
 30
0.0
 40
0
 41
0
  0
VERTEX
  8
0
 10
1.61453
 20
1.15435
 30
0.0
 40
0
 41
0
  0
VERTEX
  8
0
 10
1.60801
 20
1.15923
 30
0.0
 40
0
 41
0
  0
VERTEX
  8
0
 10
1.60151
 20
1.15435
 30
0.0
 40
0
 41
0
  0
VERTEX
  8
0
 10
1.60151
 20
1.15272
 30
0.0
 40
0
 41
0
  0
VERTEX
  8
0
 10
1.60151
 20
1.15115
 30
0.0
 40
0
 41
0
  0
VERTEX
  8
0
 10
1.60801
 20
1.14627
 30
0.0
 40
0
 41
0
  0
VERTEX
  8
0
 10
1.61453
 20
1.15115
 30
0.0
 40
0
 41
0
  0
VERTEX
  8
0
 10
1.61453
 20
1.15272
 30
0.0
 40
0
 41
0
  0
SEQEND
 8
0
  0
POLYLINE
  8
0
 62
     173
 66
     1
 10
0
 20
0
 30
0.0
 70
     1
 40
0
 41
0
  0
VERTEX
  8
0
 10
1.61453
 20
1.10276
 30
0.0
 40
0
 41
0
  0
VERTEX
  8
0
 10
1.61453
 20
1.10438
 30
0.0
 40
0
 41
0
  0
VERTEX
  8
0
 10
1.60801
 20
1.10927
 30
0.0
 40
0
 41
0
  0
VERTEX
  8
0
 10
1.60151
 20
1.10438
 30
0.0
 40
0
 41
0
  0
VERTEX
  8
0
 10
1.60151
 20
1.10276
 30
0.0
 40
0
 41
0
  0
VERTEX
  8
0
 10
1.60151
 20
1.10113
 30
0.0
 40
0
 41
0
  0
VERTEX
  8
0
 10
1.60801
 20
1.09625
 30
0.0
 40
0
 41
0
  0
VERTEX
  8
0
 10
1.61453
 20
1.10113
 30
0.0
 40
0
 41
0
  0
VERTEX
  8
0
 10
1.61453
 20
1.10276
 30
0.0
 40
0
 41
0
  0
SEQEND
 8
0
  0
POLYLINE
  8
0
 62
     173
 66
     1
 10
0
 20
0
 30
0.0
 70
     1
 40
0
 41
0
  0
VERTEX
  8
0
 10
1.61453
 20
1.05273
 30
0.0
 40
0
 41
0
  0
VERTEX
  8
0
 10
1.61453
 20
1.05436
 30
0.0
 40
0
 41
0
  0
VERTEX
  8
0
 10
1.60801
 20
1.05924
 30
0.0
 40
0
 41
0
  0
VERTEX
  8
0
 10
1.60151
 20
1.05436
 30
0.0
 40
0
 41
0
  0
VERTEX
  8
0
 10
1.60151
 20
1.05273
 30
0.0
 40
0
 41
0
  0
VERTEX
  8
0
 10
1.60151
 20
1.05116
 30
0.0
 40
0
 41
0
  0
VERTEX
  8
0
 10
1.60801
 20
1.04628
 30
0.0
 40
0
 41
0
  0
VERTEX
  8
0
 10
1.61453
 20
1.05116
 30
0.0
 40
0
 41
0
  0
VERTEX
  8
0
 10
1.61453
 20
1.05273
 30
0.0
 40
0
 41
0
  0
SEQEND
 8
0
  0
POLYLINE
  8
0
 62
     173
 66
     1
 10
0
 20
0
 30
0.0
 70
     1
 40
0
 41
0
  0
VERTEX
  8
0
 10
1.61453
 20
1.00277
 30
0.0
 40
0
 41
0
  0
VERTEX
  8
0
 10
1.61453
 20
1.00439
 30
0.0
 40
0
 41
0
  0
VERTEX
  8
0
 10
1.60801
 20
1.00928
 30
0.0
 40
0
 41
0
  0
VERTEX
  8
0
 10
1.60151
 20
1.00439
 30
0.0
 40
0
 41
0
  0
VERTEX
  8
0
 10
1.60151
 20
1.00277
 30
0.0
 40
0
 41
0
  0
VERTEX
  8
0
 10
1.60151
 20
1.00114
 30
0.0
 40
0
 41
0
  0
VERTEX
  8
0
 10
1.60801
 20
0.996257
 30
0.0
 40
0
 41
0
  0
VERTEX
  8
0
 10
1.61453
 20
1.00114
 30
0.0
 40
0
 41
0
  0
VERTEX
  8
0
 10
1.61453
 20
1.00277
 30
0.0
 40
0
 41
0
  0
SEQEND
 8
0
  0
POLYLINE
  8
0
 62
     173
 66
     1
 10
0
 20
0
 30
0.0
 70
     1
 40
0
 41
0
  0
VERTEX
  8
0
 10
1.61453
 20
0.952746
 30
0.0
 40
0
 41
0
  0
VERTEX
  8
0
 10
1.61453
 20
0.954372
 30
0.0
 40
0
 41
0
  0
VERTEX
  8
0
 10
1.60801
 20
0.959256
 30
0.0
 40
0
 41
0
  0
VERTEX
  8
0
 10
1.60151
 20
0.954372
 30
0.0
 40
0
 41
0
  0
VERTEX
  8
0
 10
1.60151
 20
0.952746
 30
0.0
 40
0
 41
0
  0
VERTEX
  8
0
 10
1.60151
 20
0.951118
 30
0.0
 40
0
 41
0
  0
VERTEX
  8
0
 10
1.60801
 20
0.946235
 30
0.0
 40
0
 41
0
  0
VERTEX
  8
0
 10
1.61453
 20
0.951118
 30
0.0
 40
0
 41
0
  0
VERTEX
  8
0
 10
1.61453
 20
0.952746
 30
0.0
 40
0
 41
0
  0
SEQEND
 8
0
  0
POLYLINE
  8
0
 62
     173
 66
     1
 10
0
 20
0
 30
0.0
 70
     1
 40
0
 41
0
  0
VERTEX
  8
0
 10
1.61453
 20
0.542751
 30
0.0
 40
0
 41
0
  0
VERTEX
  8
0
 10
1.61453
 20
0.544379
 30
0.0
 40
0
 41
0
  0
VERTEX
  8
0
 10
1.60801
 20
0.549263
 30
0.0
 40
0
 41
0
  0
VERTEX
  8
0
 10
1.60151
 20
0.544379
 30
0.0
 40
0
 41
0
  0
VERTEX
  8
0
 10
1.60151
 20
0.542751
 30
0.0
 40
0
 41
0
  0
VERTEX
  8
0
 10
1.60151
 20
0.541124
 30
0.0
 40
0
 41
0
  0
VERTEX
  8
0
 10
1.60801
 20
0.536242
 30
0.0
 40
0
 41
0
  0
VERTEX
  8
0
 10
1.61453
 20
0.541124
 30
0.0
 40
0
 41
0
  0
VERTEX
  8
0
 10
1.61453
 20
0.542751
 30
0.0
 40
0
 41
0
  0
SEQEND
 8
0
  0
POLYLINE
  8
0
 62
     173
 66
     1
 10
0
 20
0
 30
0.0
 70
     1
 40
0
 41
0
  0
VERTEX
  8
0
 10
1.61453
 20
0.492731
 30
0.0
 40
0
 41
0
  0
VERTEX
  8
0
 10
1.61453
 20
0.494358
 30
0.0
 40
0
 41
0
  0
VERTEX
  8
0
 10
1.60801
 20
0.49924
 30
0.0
 40
0
 41
0
  0
VERTEX
  8
0
 10
1.60151
 20
0.494358
 30
0.0
 40
0
 41
0
  0
VERTEX
  8
0
 10
1.60151
 20
0.492731
 30
0.0
 40
0
 41
0
  0
VERTEX
  8
0
 10
1.60151
 20
0.491157
 30
0.0
 40
0
 41
0
  0
VERTEX
  8
0
 10
1.60801
 20
0.486274
 30
0.0
 40
0
 41
0
  0
VERTEX
  8
0
 10
1.61453
 20
0.491157
 30
0.0
 40
0
 41
0
  0
VERTEX
  8
0
 10
1.61453
 20
0.492731
 30
0.0
 40
0
 41
0
  0
SEQEND
 8
0
  0
POLYLINE
  8
0
 62
     173
 66
     1
 10
0
 20
0
 30
0.0
 70
     1
 40
0
 41
0
  0
VERTEX
  8
0
 10
1.61453
 20
0.442763
 30
0.0
 40
0
 41
0
  0
VERTEX
  8
0
 10
1.61453
 20
0.44439
 30
0.0
 40
0
 41
0
  0
VERTEX
  8
0
 10
1.60801
 20
0.449274
 30
0.0
 40
0
 41
0
  0
VERTEX
  8
0
 10
1.60151
 20
0.44439
 30
0.0
 40
0
 41
0
  0
VERTEX
  8
0
 10
1.60151
 20
0.442763
 30
0.0
 40
0
 41
0
  0
VERTEX
  8
0
 10
1.60151
 20
0.441135
 30
0.0
 40
0
 41
0
  0
VERTEX
  8
0
 10
1.60801
 20
0.436253
 30
0.0
 40
0
 41
0
  0
VERTEX
  8
0
 10
1.61453
 20
0.441135
 30
0.0
 40
0
 41
0
  0
VERTEX
  8
0
 10
1.61453
 20
0.442763
 30
0.0
 40
0
 41
0
  0
SEQEND
 8
0
  0
POLYLINE
  8
0
 62
     173
 66
     1
 10
0
 20
0
 30
0.0
 70
     1
 40
0
 41
0
  0
VERTEX
  8
0
 10
1.61453
 20
0.39274
 30
0.0
 40
0
 41
0
  0
VERTEX
  8
0
 10
1.61453
 20
0.394368
 30
0.0
 40
0
 41
0
  0
VERTEX
  8
0
 10
1.60801
 20
0.399251
 30
0.0
 40
0
 41
0
  0
VERTEX
  8
0
 10
1.60151
 20
0.394368
 30
0.0
 40
0
 41
0
  0
VERTEX
  8
0
 10
1.60151
 20
0.39274
 30
0.0
 40
0
 41
0
  0
VERTEX
  8
0
 10
1.60151
 20
0.391114
 30
0.0
 40
0
 41
0
  0
VERTEX
  8
0
 10
1.60801
 20
0.386231
 30
0.0
 40
0
 41
0
  0
VERTEX
  8
0
 10
1.61453
 20
0.391114
 30
0.0
 40
0
 41
0
  0
VERTEX
  8
0
 10
1.61453
 20
0.39274
 30
0.0
 40
0
 41
0
  0
SEQEND
 8
0
  0
POLYLINE
  8
0
 62
     173
 66
     1
 10
0
 20
0
 30
0.0
 70
     1
 40
0
 41
0
  0
VERTEX
  8
0
 10
1.61453
 20
0.342774
 30
0.0
 40
0
 41
0
  0
VERTEX
  8
0
 10
1.61453
 20
0.344401
 30
0.0
 40
0
 41
0
  0
VERTEX
  8
0
 10
1.60801
 20
0.349283
 30
0.0
 40
0
 41
0
  0
VERTEX
  8
0
 10
1.60151
 20
0.344401
 30
0.0
 40
0
 41
0
  0
VERTEX
  8
0
 10
1.60151
 20
0.342774
 30
0.0
 40
0
 41
0
  0
VERTEX
  8
0
 10
1.60151
 20
0.341146
 30
0.0
 40
0
 41
0
  0
VERTEX
  8
0
 10
1.60801
 20
0.336262
 30
0.0
 40
0
 41
0
  0
VERTEX
  8
0
 10
1.61453
 20
0.341146
 30
0.0
 40
0
 41
0
  0
VERTEX
  8
0
 10
1.61453
 20
0.342774
 30
0.0
 40
0
 41
0
  0
SEQEND
 8
0
  0
POLYLINE
  8
0
 62
     173
 66
     1
 10
0
 20
0
 30
0.0
 70
     1
 40
0
 41
0
  0
VERTEX
  8
0
 10
1.61453
 20
0.292751
 30
0.0
 40
0
 41
0
  0
VERTEX
  8
0
 10
1.61453
 20
0.294379
 30
0.0
 40
0
 41
0
  0
VERTEX
  8
0
 10
1.60801
 20
0.299262
 30
0.0
 40
0
 41
0
  0
VERTEX
  8
0
 10
1.60151
 20
0.294379
 30
0.0
 40
0
 41
0
  0
VERTEX
  8
0
 10
1.60151
 20
0.292751
 30
0.0
 40
0
 41
0
  0
VERTEX
  8
0
 10
1.60151
 20
0.291124
 30
0.0
 40
0
 41
0
  0
VERTEX
  8
0
 10
1.60801
 20
0.286242
 30
0.0
 40
0
 41
0
  0
VERTEX
  8
0
 10
1.61453
 20
0.291124
 30
0.0
 40
0
 41
0
  0
VERTEX
  8
0
 10
1.61453
 20
0.292751
 30
0.0
 40
0
 41
0
  0
SEQEND
 8
0
  0
POLYLINE
  8
0
 62
     173
 66
     1
 10
0
 20
0
 30
0.0
 70
     1
 40
0
 41
0
  0
VERTEX
  8
0
 10
1.61453
 20
0.242731
 30
0.0
 40
0
 41
0
  0
VERTEX
  8
0
 10
1.61453
 20
0.244358
 30
0.0
 40
0
 41
0
  0
VERTEX
  8
0
 10
1.60801
 20
0.24924
 30
0.0
 40
0
 41
0
  0
VERTEX
  8
0
 10
1.60151
 20
0.244358
 30
0.0
 40
0
 41
0
  0
VERTEX
  8
0
 10
1.60151
 20
0.242731
 30
0.0
 40
0
 41
0
  0
VERTEX
  8
0
 10
1.60151
 20
0.241157
 30
0.0
 40
0
 41
0
  0
VERTEX
  8
0
 10
1.60801
 20
0.236274
 30
0.0
 40
0
 41
0
  0
VERTEX
  8
0
 10
1.61453
 20
0.241157
 30
0.0
 40
0
 41
0
  0
VERTEX
  8
0
 10
1.61453
 20
0.242731
 30
0.0
 40
0
 41
0
  0
SEQEND
 8
0
  0
POLYLINE
  8
0
 62
     173
 66
     1
 10
0
 20
0
 30
0.0
 70
     1
 40
0
 41
0
  0
VERTEX
  8
0
 10
1.61453
 20
0.192762
 30
0.0
 40
0
 41
0
  0
VERTEX
  8
0
 10
1.61453
 20
0.19439
 30
0.0
 40
0
 41
0
  0
VERTEX
  8
0
 10
1.60801
 20
0.199274
 30
0.0
 40
0
 41
0
  0
VERTEX
  8
0
 10
1.60151
 20
0.19439
 30
0.0
 40
0
 41
0
  0
VERTEX
  8
0
 10
1.60151
 20
0.192762
 30
0.0
 40
0
 41
0
  0
VERTEX
  8
0
 10
1.60151
 20
0.191135
 30
0.0
 40
0
 41
0
  0
VERTEX
  8
0
 10
1.60801
 20
0.186253
 30
0.0
 40
0
 41
0
  0
VERTEX
  8
0
 10
1.61453
 20
0.191135
 30
0.0
 40
0
 41
0
  0
VERTEX
  8
0
 10
1.61453
 20
0.192762
 30
0.0
 40
0
 41
0
  0
SEQEND
 8
0
  0
POLYLINE
  8
0
 62
     173
 66
     1
 10
0
 20
0
 30
0.0
 70
     1
 40
0
 41
0
  0
VERTEX
  8
0
 10
0.310113
 20
1.22325
 30
0.0
 40
0
 41
0
  0
VERTEX
  8
0
 10
0.310113
 20
1.22656
 30
0.0
 40
0
 41
0
  0
VERTEX
  8
0
 10
0.304633
 20
1.23638
 30
0.0
 40
0
 41
0
  0
VERTEX
  8
0
 10
0.292589
 20
1.24078
 30
0.0
 40
0
 41
0
  0
VERTEX
  8
0
 10
0.280544
 20
1.23638
 30
0.0
 40
0
 41
0
  0
VERTEX
  8
0
 10
0.275119
 20
1.22656
 30
0.0
 40
0
 41
0
  0
VERTEX
  8
0
 10
0.275119
 20
1.22325
 30
0.0
 40
0
 41
0
  0
VERTEX
  8
0
 10
0.275119
 20
1.22
 30
0.0
 40
0
 41
0
  0
VERTEX
  8
0
 10
0.280544
 20
1.21018
 30
0.0
 40
0
 41
0
  0
VERTEX
  8
0
 10
0.292589
 20
1.20578
 30
0.0
 40
0
 41
0
  0
VERTEX
  8
0
 10
0.304633
 20
1.21018
 30
0.0
 40
0
 41
0
  0
VERTEX
  8
0
 10
0.310113
 20
1.22
 30
0.0
 40
0
 41
0
  0
VERTEX
  8
0
 10
0.310113
 20
1.22325
 30
0.0
 40
0
 41
0
  0
SEQEND
 8
0
  0
POLYLINE
  8
0
 62
     173
 66
     1
 10
0
 20
0
 30
0.0
 70
     1
 40
0
 41
0
  0
VERTEX
  8
0
 10
0.310113
 20
1.14296
 30
0.0
 40
0
 41
0
  0
VERTEX
  8
0
 10
0.310113
 20
1.14627
 30
0.0
 40
0
 41
0
  0
VERTEX
  8
0
 10
0.304633
 20
1.15609
 30
0.0
 40
0
 41
0
  0
VERTEX
  8
0
 10
0.292589
 20
1.16048
 30
0.0
 40
0
 41
0
  0
VERTEX
  8
0
 10
0.280544
 20
1.15609
 30
0.0
 40
0
 41
0
  0
VERTEX
  8
0
 10
0.275119
 20
1.14627
 30
0.0
 40
0
 41
0
  0
VERTEX
  8
0
 10
0.275119
 20
1.14296
 30
0.0
 40
0
 41
0
  0
VERTEX
  8
0
 10
0.275119
 20
1.1397
 30
0.0
 40
0
 41
0
  0
VERTEX
  8
0
 10
0.280544
 20
1.12988
 30
0.0
 40
0
 41
0
  0
VERTEX
  8
0
 10
0.292589
 20
1.12549
 30
0.0
 40
0
 41
0
  0
VERTEX
  8
0
 10
0.304633
 20
1.12988
 30
0.0
 40
0
 41
0
  0
VERTEX
  8
0
 10
0.310113
 20
1.1397
 30
0.0
 40
0
 41
0
  0
VERTEX
  8
0
 10
0.310113
 20
1.14296
 30
0.0
 40
0
 41
0
  0
SEQEND
 8
0
  0
POLYLINE
  8
0
 62
     173
 66
     1
 10
0
 20
0
 30
0.0
 70
     1
 40
0
 41
0
  0
VERTEX
  8
0
 10
0.310113
 20
1.06266
 30
0.0
 40
0
 41
0
  0
VERTEX
  8
0
 10
0.310113
 20
1.06597
 30
0.0
 40
0
 41
0
  0
VERTEX
  8
0
 10
0.304633
 20
1.07579
 30
0.0
 40
0
 41
0
  0
VERTEX
  8
0
 10
0.292589
 20
1.08019
 30
0.0
 40
0
 41
0
  0
VERTEX
  8
0
 10
0.280544
 20
1.07579
 30
0.0
 40
0
 41
0
  0
VERTEX
  8
0
 10
0.275119
 20
1.06597
 30
0.0
 40
0
 41
0
  0
VERTEX
  8
0
 10
0.275119
 20
1.06266
 30
0.0
 40
0
 41
0
  0
VERTEX
  8
0
 10
0.275119
 20
1.05941
 30
0.0
 40
0
 41
0
  0
VERTEX
  8
0
 10
0.280544
 20
1.04959
 30
0.0
 40
0
 41
0
  0
VERTEX
  8
0
 10
0.292589
 20
1.04519
 30
0.0
 40
0
 41
0
  0
VERTEX
  8
0
 10
0.304633
 20
1.04959
 30
0.0
 40
0
 41
0
  0
VERTEX
  8
0
 10
0.310113
 20
1.05941
 30
0.0
 40
0
 41
0
  0
VERTEX
  8
0
 10
0.310113
 20
1.06266
 30
0.0
 40
0
 41
0
  0
SEQEND
 8
0
  0
POLYLINE
  8
0
 62
     173
 66
     1
 10
0
 20
0
 30
0.0
 70
     1
 40
0
 41
0
  0
VERTEX
  8
0
 10
0.310113
 20
0.982368
 30
0.0
 40
0
 41
0
  0
VERTEX
  8
0
 10
0.310113
 20
0.985678
 30
0.0
 40
0
 41
0
  0
VERTEX
  8
0
 10
0.304633
 20
0.995497
 30
0.0
 40
0
 41
0
  0
VERTEX
  8
0
 10
0.292589
 20
0.999892
 30
0.0
 40
0
 41
0
  0
VERTEX
  8
0
 10
0.280544
 20
0.995497
 30
0.0
 40
0
 41
0
  0
VERTEX
  8
0
 10
0.275119
 20
0.985678
 30
0.0
 40
0
 41
0
  0
VERTEX
  8
0
 10
0.275119
 20
0.982368
 30
0.0
 40
0
 41
0
  0
VERTEX
  8
0
 10
0.275119
 20
0.979113
 30
0.0
 40
0
 41
0
  0
VERTEX
  8
0
 10
0.280544
 20
0.969293
 30
0.0
 40
0
 41
0
  0
VERTEX
  8
0
 10
0.292589
 20
0.964899
 30
0.0
 40
0
 41
0
  0
VERTEX
  8
0
 10
0.304633
 20
0.969293
 30
0.0
 40
0
 41
0
  0
VERTEX
  8
0
 10
0.310113
 20
0.979113
 30
0.0
 40
0
 41
0
  0
VERTEX
  8
0
 10
0.310113
 20
0.982368
 30
0.0
 40
0
 41
0
  0
SEQEND
 8
0
  0
POLYLINE
  8
0
 62
     173
 66
     1
 10
0
 20
0
 30
0.0
 70
     1
 40
0
 41
0
  0
VERTEX
  8
0
 10
0.310113
 20
0.463271
 30
0.0
 40
0
 41
0
  0
VERTEX
  8
0
 10
0.310113
 20
0.466581
 30
0.0
 40
0
 41
0
  0
VERTEX
  8
0
 10
0.304633
 20
0.4764
 30
0.0
 40
0
 41
0
  0
VERTEX
  8
0
 10
0.292589
 20
0.480794
 30
0.0
 40
0
 41
0
  0
VERTEX
  8
0
 10
0.280544
 20
0.4764
 30
0.0
 40
0
 41
0
  0
VERTEX
  8
0
 10
0.275119
 20
0.466581
 30
0.0
 40
0
 41
0
  0
VERTEX
  8
0
 10
0.275119
 20
0.463271
 30
0.0
 40
0
 41
0
  0
VERTEX
  8
0
 10
0.275119
 20
0.460015
 30
0.0
 40
0
 41
0
  0
VERTEX
  8
0
 10
0.280544
 20
0.450196
 30
0.0
 40
0
 41
0
  0
VERTEX
  8
0
 10
0.292589
 20
0.445801
 30
0.0
 40
0
 41
0
  0
VERTEX
  8
0
 10
0.304633
 20
0.450196
 30
0.0
 40
0
 41
0
  0
VERTEX
  8
0
 10
0.310113
 20
0.460015
 30
0.0
 40
0
 41
0
  0
VERTEX
  8
0
 10
0.310113
 20
0.463271
 30
0.0
 40
0
 41
0
  0
SEQEND
 8
0
  0
POLYLINE
  8
0
 62
     173
 66
     1
 10
0
 20
0
 30
0.0
 70
     1
 40
0
 41
0
  0
VERTEX
  8
0
 10
0.310113
 20
0.382975
 30
0.0
 40
0
 41
0
  0
VERTEX
  8
0
 10
0.310113
 20
0.386285
 30
0.0
 40
0
 41
0
  0
VERTEX
  8
0
 10
0.304633
 20
0.396104
 30
0.0
 40
0
 41
0
  0
VERTEX
  8
0
 10
0.292589
 20
0.400499
 30
0.0
 40
0
 41
0
  0
VERTEX
  8
0
 10
0.280544
 20
0.396104
 30
0.0
 40
0
 41
0
  0
VERTEX
  8
0
 10
0.275119
 20
0.386285
 30
0.0
 40
0
 41
0
  0
VERTEX
  8
0
 10
0.275119
 20
0.382975
 30
0.0
 40
0
 41
0
  0
VERTEX
  8
0
 10
0.275119
 20
0.379719
 30
0.0
 40
0
 41
0
  0
VERTEX
  8
0
 10
0.280544
 20
0.369846
 30
0.0
 40
0
 41
0
  0
VERTEX
  8
0
 10
0.292589
 20
0.365451
 30
0.0
 40
0
 41
0
  0
VERTEX
  8
0
 10
0.304633
 20
0.369846
 30
0.0
 40
0
 41
0
  0
VERTEX
  8
0
 10
0.310113
 20
0.379719
 30
0.0
 40
0
 41
0
  0
VERTEX
  8
0
 10
0.310113
 20
0.382975
 30
0.0
 40
0
 41
0
  0
SEQEND
 8
0
  0
POLYLINE
  8
0
 62
     173
 66
     1
 10
0
 20
0
 30
0.0
 70
     1
 40
0
 41
0
  0
VERTEX
  8
0
 10
0.310113
 20
0.302626
 30
0.0
 40
0
 41
0
  0
VERTEX
  8
0
 10
0.310113
 20
0.305935
 30
0.0
 40
0
 41
0
  0
VERTEX
  8
0
 10
0.304633
 20
0.31581
 30
0.0
 40
0
 41
0
  0
VERTEX
  8
0
 10
0.292589
 20
0.320204
 30
0.0
 40
0
 41
0
  0
VERTEX
  8
0
 10
0.280544
 20
0.31581
 30
0.0
 40
0
 41
0
  0
VERTEX
  8
0
 10
0.275119
 20
0.305935
 30
0.0
 40
0
 41
0
  0
VERTEX
  8
0
 10
0.275119
 20
0.302626
 30
0.0
 40
0
 41
0
  0
VERTEX
  8
0
 10
0.275119
 20
0.299371
 30
0.0
 40
0
 41
0
  0
VERTEX
  8
0
 10
0.280544
 20
0.289551
 30
0.0
 40
0
 41
0
  0
VERTEX
  8
0
 10
0.292589
 20
0.285157
 30
0.0
 40
0
 41
0
  0
VERTEX
  8
0
 10
0.304633
 20
0.289551
 30
0.0
 40
0
 41
0
  0
VERTEX
  8
0
 10
0.310113
 20
0.299371
 30
0.0
 40
0
 41
0
  0
VERTEX
  8
0
 10
0.310113
 20
0.302626
 30
0.0
 40
0
 41
0
  0
SEQEND
 8
0
  0
POLYLINE
  8
0
 62
     173
 66
     1
 10
0
 20
0
 30
0.0
 70
     1
 40
0
 41
0
  0
VERTEX
  8
0
 10
0.310113
 20
0.222331
 30
0.0
 40
0
 41
0
  0
VERTEX
  8
0
 10
0.310113
 20
0.22564
 30
0.0
 40
0
 41
0
  0
VERTEX
  8
0
 10
0.304633
 20
0.23546
 30
0.0
 40
0
 41
0
  0
VERTEX
  8
0
 10
0.292589
 20
0.239854
 30
0.0
 40
0
 41
0
  0
VERTEX
  8
0
 10
0.280544
 20
0.23546
 30
0.0
 40
0
 41
0
  0
VERTEX
  8
0
 10
0.275119
 20
0.22564
 30
0.0
 40
0
 41
0
  0
VERTEX
  8
0
 10
0.275119
 20
0.222331
 30
0.0
 40
0
 41
0
  0
VERTEX
  8
0
 10
0.275119
 20
0.219075
 30
0.0
 40
0
 41
0
  0
VERTEX
  8
0
 10
0.280544
 20
0.209256
 30
0.0
 40
0
 41
0
  0
VERTEX
  8
0
 10
0.292589
 20
0.204861
 30
0.0
 40
0
 41
0
  0
VERTEX
  8
0
 10
0.304633
 20
0.209256
 30
0.0
 40
0
 41
0
  0
VERTEX
  8
0
 10
0.310113
 20
0.219075
 30
0.0
 40
0
 41
0
  0
VERTEX
  8
0
 10
0.310113
 20
0.222331
 30
0.0
 40
0
 41
0
  0
SEQEND
 8
0
  0
POLYLINE
  8
0
 62
     173
 66
     1
 10
0
 20
0
 30
0.0
 70
     1
 40
0
 41
0
  0
VERTEX
  8
0
 10
0.380914
 20
1.26346
 30
0.0
 40
0
 41
0
  0
VERTEX
  8
0
 10
0.380914
 20
1.26676
 30
0.0
 40
0
 41
0
  0
VERTEX
  8
0
 10
0.375435
 20
1.27658
 30
0.0
 40
0
 41
0
  0
VERTEX
  8
0
 10
0.36339
 20
1.28098
 30
0.0
 40
0
 41
0
  0
VERTEX
  8
0
 10
0.351346
 20
1.27658
 30
0.0
 40
0
 41
0
  0
VERTEX
  8
0
 10
0.345921
 20
1.26676
 30
0.0
 40
0
 41
0
  0
VERTEX
  8
0
 10
0.345921
 20
1.26346
 30
0.0
 40
0
 41
0
  0
VERTEX
  8
0
 10
0.345921
 20
1.2602
 30
0.0
 40
0
 41
0
  0
VERTEX
  8
0
 10
0.351346
 20
1.25038
 30
0.0
 40
0
 41
0
  0
VERTEX
  8
0
 10
0.36339
 20
1.24598
 30
0.0
 40
0
 41
0
  0
VERTEX
  8
0
 10
0.375435
 20
1.25038
 30
0.0
 40
0
 41
0
  0
VERTEX
  8
0
 10
0.380914
 20
1.2602
 30
0.0
 40
0
 41
0
  0
VERTEX
  8
0
 10
0.380914
 20
1.26346
 30
0.0
 40
0
 41
0
  0
SEQEND
 8
0
  0
POLYLINE
  8
0
 62
     173
 66
     1
 10
0
 20
0
 30
0.0
 70
     1
 40
0
 41
0
  0
VERTEX
  8
0
 10
0.380914
 20
1.18316
 30
0.0
 40
0
 41
0
  0
VERTEX
  8
0
 10
0.380914
 20
1.18647
 30
0.0
 40
0
 41
0
  0
VERTEX
  8
0
 10
0.375435
 20
1.19629
 30
0.0
 40
0
 41
0
  0
VERTEX
  8
0
 10
0.36339
 20
1.20068
 30
0.0
 40
0
 41
0
  0
VERTEX
  8
0
 10
0.351346
 20
1.19629
 30
0.0
 40
0
 41
0
  0
VERTEX
  8
0
 10
0.345921
 20
1.18647
 30
0.0
 40
0
 41
0
  0
VERTEX
  8
0
 10
0.345921
 20
1.18316
 30
0.0
 40
0
 41
0
  0
VERTEX
  8
0
 10
0.345921
 20
1.1799
 30
0.0
 40
0
 41
0
  0
VERTEX
  8
0
 10
0.351346
 20
1.17008
 30
0.0
 40
0
 41
0
  0
VERTEX
  8
0
 10
0.36339
 20
1.16569
 30
0.0
 40
0
 41
0
  0
VERTEX
  8
0
 10
0.375435
 20
1.17008
 30
0.0
 40
0
 41
0
  0
VERTEX
  8
0
 10
0.380914
 20
1.1799
 30
0.0
 40
0
 41
0
  0
VERTEX
  8
0
 10
0.380914
 20
1.18316
 30
0.0
 40
0
 41
0
  0
SEQEND
 8
0
  0
POLYLINE
  8
0
 62
     173
 66
     1
 10
0
 20
0
 30
0.0
 70
     1
 40
0
 41
0
  0
VERTEX
  8
0
 10
0.380914
 20
1.10287
 30
0.0
 40
0
 41
0
  0
VERTEX
  8
0
 10
0.380914
 20
1.10617
 30
0.0
 40
0
 41
0
  0
VERTEX
  8
0
 10
0.375435
 20
1.11599
 30
0.0
 40
0
 41
0
  0
VERTEX
  8
0
 10
0.36339
 20
1.12039
 30
0.0
 40
0
 41
0
  0
VERTEX
  8
0
 10
0.351346
 20
1.11599
 30
0.0
 40
0
 41
0
  0
VERTEX
  8
0
 10
0.345921
 20
1.10617
 30
0.0
 40
0
 41
0
  0
VERTEX
  8
0
 10
0.345921
 20
1.10287
 30
0.0
 40
0
 41
0
  0
VERTEX
  8
0
 10
0.345921
 20
1.09961
 30
0.0
 40
0
 41
0
  0
VERTEX
  8
0
 10
0.351346
 20
1.08979
 30
0.0
 40
0
 41
0
  0
VERTEX
  8
0
 10
0.36339
 20
1.08539
 30
0.0
 40
0
 41
0
  0
VERTEX
  8
0
 10
0.375435
 20
1.08979
 30
0.0
 40
0
 41
0
  0
VERTEX
  8
0
 10
0.380914
 20
1.09961
 30
0.0
 40
0
 41
0
  0
VERTEX
  8
0
 10
0.380914
 20
1.10287
 30
0.0
 40
0
 41
0
  0
SEQEND
 8
0
  0
POLYLINE
  8
0
 62
     173
 66
     1
 10
0
 20
0
 30
0.0
 70
     1
 40
0
 41
0
  0
VERTEX
  8
0
 10
0.380914
 20
1.02246
 30
0.0
 40
0
 41
0
  0
VERTEX
  8
0
 10
0.380914
 20
1.02577
 30
0.0
 40
0
 41
0
  0
VERTEX
  8
0
 10
0.375435
 20
1.03559
 30
0.0
 40
0
 41
0
  0
VERTEX
  8
0
 10
0.36339
 20
1.03998
 30
0.0
 40
0
 41
0
  0
VERTEX
  8
0
 10
0.351346
 20
1.03559
 30
0.0
 40
0
 41
0
  0
VERTEX
  8
0
 10
0.345921
 20
1.02577
 30
0.0
 40
0
 41
0
  0
VERTEX
  8
0
 10
0.345921
 20
1.02246
 30
0.0
 40
0
 41
0
  0
VERTEX
  8
0
 10
0.345921
 20
1.01921
 30
0.0
 40
0
 41
0
  0
VERTEX
  8
0
 10
0.351346
 20
1.00939
 30
0.0
 40
0
 41
0
  0
VERTEX
  8
0
 10
0.36339
 20
1.00499
 30
0.0
 40
0
 41
0
  0
VERTEX
  8
0
 10
0.375435
 20
1.00939
 30
0.0
 40
0
 41
0
  0
VERTEX
  8
0
 10
0.380914
 20
1.01921
 30
0.0
 40
0
 41
0
  0
VERTEX
  8
0
 10
0.380914
 20
1.02246
 30
0.0
 40
0
 41
0
  0
SEQEND
 8
0
  0
POLYLINE
  8
0
 62
     173
 66
     1
 10
0
 20
0
 30
0.0
 70
     1
 40
0
 41
0
  0
VERTEX
  8
0
 10
0.380914
 20
0.503472
 30
0.0
 40
0
 41
0
  0
VERTEX
  8
0
 10
0.380914
 20
0.506782
 30
0.0
 40
0
 41
0
  0
VERTEX
  8
0
 10
0.375435
 20
0.516601
 30
0.0
 40
0
 41
0
  0
VERTEX
  8
0
 10
0.36339
 20
0.520996
 30
0.0
 40
0
 41
0
  0
VERTEX
  8
0
 10
0.351346
 20
0.516601
 30
0.0
 40
0
 41
0
  0
VERTEX
  8
0
 10
0.345921
 20
0.506782
 30
0.0
 40
0
 41
0
  0
VERTEX
  8
0
 10
0.345921
 20
0.503472
 30
0.0
 40
0
 41
0
  0
VERTEX
  8
0
 10
0.345921
 20
0.500217
 30
0.0
 40
0
 41
0
  0
VERTEX
  8
0
 10
0.351346
 20
0.490343
 30
0.0
 40
0
 41
0
  0
VERTEX
  8
0
 10
0.36339
 20
0.485949
 30
0.0
 40
0
 41
0
  0
VERTEX
  8
0
 10
0.375435
 20
0.490343
 30
0.0
 40
0
 41
0
  0
VERTEX
  8
0
 10
0.380914
 20
0.500217
 30
0.0
 40
0
 41
0
  0
VERTEX
  8
0
 10
0.380914
 20
0.503472
 30
0.0
 40
0
 41
0
  0
SEQEND
 8
0
  0
POLYLINE
  8
0
 62
     173
 66
     1
 10
0
 20
0
 30
0.0
 70
     1
 40
0
 41
0
  0
VERTEX
  8
0
 10
0.380914
 20
0.423122
 30
0.0
 40
0
 41
0
  0
VERTEX
  8
0
 10
0.380914
 20
0.426432
 30
0.0
 40
0
 41
0
  0
VERTEX
  8
0
 10
0.375435
 20
0.436307
 30
0.0
 40
0
 41
0
  0
VERTEX
  8
0
 10
0.36339
 20
0.440701
 30
0.0
 40
0
 41
0
  0
VERTEX
  8
0
 10
0.351346
 20
0.436307
 30
0.0
 40
0
 41
0
  0
VERTEX
  8
0
 10
0.345921
 20
0.426432
 30
0.0
 40
0
 41
0
  0
VERTEX
  8
0
 10
0.345921
 20
0.423122
 30
0.0
 40
0
 41
0
  0
VERTEX
  8
0
 10
0.345921
 20
0.419868
 30
0.0
 40
0
 41
0
  0
VERTEX
  8
0
 10
0.351346
 20
0.410047
 30
0.0
 40
0
 41
0
  0
VERTEX
  8
0
 10
0.36339
 20
0.405653
 30
0.0
 40
0
 41
0
  0
VERTEX
  8
0
 10
0.375435
 20
0.410047
 30
0.0
 40
0
 41
0
  0
VERTEX
  8
0
 10
0.380914
 20
0.419868
 30
0.0
 40
0
 41
0
  0
VERTEX
  8
0
 10
0.380914
 20
0.423122
 30
0.0
 40
0
 41
0
  0
SEQEND
 8
0
  0
POLYLINE
  8
0
 62
     173
 66
     1
 10
0
 20
0
 30
0.0
 70
     1
 40
0
 41
0
  0
VERTEX
  8
0
 10
0.380914
 20
0.342828
 30
0.0
 40
0
 41
0
  0
VERTEX
  8
0
 10
0.380914
 20
0.346137
 30
0.0
 40
0
 41
0
  0
VERTEX
  8
0
 10
0.375435
 20
0.355957
 30
0.0
 40
0
 41
0
  0
VERTEX
  8
0
 10
0.36339
 20
0.360351
 30
0.0
 40
0
 41
0
  0
VERTEX
  8
0
 10
0.351346
 20
0.355957
 30
0.0
 40
0
 41
0
  0
VERTEX
  8
0
 10
0.345921
 20
0.346137
 30
0.0
 40
0
 41
0
  0
VERTEX
  8
0
 10
0.345921
 20
0.342828
 30
0.0
 40
0
 41
0
  0
VERTEX
  8
0
 10
0.345921
 20
0.339572
 30
0.0
 40
0
 41
0
  0
VERTEX
  8
0
 10
0.351346
 20
0.329753
 30
0.0
 40
0
 41
0
  0
VERTEX
  8
0
 10
0.36339
 20
0.325358
 30
0.0
 40
0
 41
0
  0
VERTEX
  8
0
 10
0.375435
 20
0.329753
 30
0.0
 40
0
 41
0
  0
VERTEX
  8
0
 10
0.380914
 20
0.339572
 30
0.0
 40
0
 41
0
  0
VERTEX
  8
0
 10
0.380914
 20
0.342828
 30
0.0
 40
0
 41
0
  0
SEQEND
 8
0
  0
POLYLINE
  8
0
 62
     173
 66
     1
 10
0
 20
0
 30
0.0
 70
     1
 40
0
 41
0
  0
VERTEX
  8
0
 10
0.380914
 20
0.262424
 30
0.0
 40
0
 41
0
  0
VERTEX
  8
0
 10
0.380914
 20
0.265733
 30
0.0
 40
0
 41
0
  0
VERTEX
  8
0
 10
0.375435
 20
0.275608
 30
0.0
 40
0
 41
0
  0
VERTEX
  8
0
 10
0.36339
 20
0.280003
 30
0.0
 40
0
 41
0
  0
VERTEX
  8
0
 10
0.351346
 20
0.275608
 30
0.0
 40
0
 41
0
  0
VERTEX
  8
0
 10
0.345921
 20
0.265733
 30
0.0
 40
0
 41
0
  0
VERTEX
  8
0
 10
0.345921
 20
0.262424
 30
0.0
 40
0
 41
0
  0
VERTEX
  8
0
 10
0.345921
 20
0.259169
 30
0.0
 40
0
 41
0
  0
VERTEX
  8
0
 10
0.351346
 20
0.249349
 30
0.0
 40
0
 41
0
  0
VERTEX
  8
0
 10
0.36339
 20
0.244954
 30
0.0
 40
0
 41
0
  0
VERTEX
  8
0
 10
0.375435
 20
0.249349
 30
0.0
 40
0
 41
0
  0
VERTEX
  8
0
 10
0.380914
 20
0.259169
 30
0.0
 40
0
 41
0
  0
VERTEX
  8
0
 10
0.380914
 20
0.262424
 30
0.0
 40
0
 41
0
  0
SEQEND
 8
0
  0
POLYLINE
  8
0
 62
     173
 66
     1
 10
0
 20
0
 30
0.0
 70
     1
 40
0
 41
0
  0
VERTEX
  8
0
 10
0.60536
 20
1.39844
 30
0.0
 40
0
 41
0
  0
VERTEX
  8
0
 10
0.60536
 20
1.40175
 30
0.0
 40
0
 41
0
  0
VERTEX
  8
0
 10
0.599881
 20
1.41157
 30
0.0
 40
0
 41
0
  0
VERTEX
  8
0
 10
0.587836
 20
1.41596
 30
0.0
 40
0
 41
0
  0
VERTEX
  8
0
 10
0.575737
 20
1.41157
 30
0.0
 40
0
 41
0
  0
VERTEX
  8
0
 10
0.570313
 20
1.40175
 30
0.0
 40
0
 41
0
  0
VERTEX
  8
0
 10
0.570313
 20
1.39844
 30
0.0
 40
0
 41
0
  0
VERTEX
  8
0
 10
0.570313
 20
1.39518
 30
0.0
 40
0
 41
0
  0
VERTEX
  8
0
 10
0.575737
 20
1.38536
 30
0.0
 40
0
 41
0
  0
VERTEX
  8
0
 10
0.587836
 20
1.38097
 30
0.0
 40
0
 41
0
  0
VERTEX
  8
0
 10
0.599881
 20
1.38536
 30
0.0
 40
0
 41
0
  0
VERTEX
  8
0
 10
0.60536
 20
1.39518
 30
0.0
 40
0
 41
0
  0
VERTEX
  8
0
 10
0.60536
 20
1.39844
 30
0.0
 40
0
 41
0
  0
SEQEND
 8
0
  0
POLYLINE
  8
0
 62
     173
 66
     1
 10
0
 20
0
 30
0.0
 70
     1
 40
0
 41
0
  0
VERTEX
  8
0
 10
0.60536
 20
1.29807
 30
0.0
 40
0
 41
0
  0
VERTEX
  8
0
 10
0.60536
 20
1.30138
 30
0.0
 40
0
 41
0
  0
VERTEX
  8
0
 10
0.599881
 20
1.3112
 30
0.0
 40
0
 41
0
  0
VERTEX
  8
0
 10
0.587836
 20
1.31559
 30
0.0
 40
0
 41
0
  0
VERTEX
  8
0
 10
0.575737
 20
1.3112
 30
0.0
 40
0
 41
0
  0
VERTEX
  8
0
 10
0.570313
 20
1.30138
 30
0.0
 40
0
 41
0
  0
VERTEX
  8
0
 10
0.570313
 20
1.29807
 30
0.0
 40
0
 41
0
  0
VERTEX
  8
0
 10
0.570313
 20
1.29481
 30
0.0
 40
0
 41
0
  0
VERTEX
  8
0
 10
0.575737
 20
1.28499
 30
0.0
 40
0
 41
0
  0
VERTEX
  8
0
 10
0.587836
 20
1.2806
 30
0.0
 40
0
 41
0
  0
VERTEX
  8
0
 10
0.599881
 20
1.28499
 30
0.0
 40
0
 41
0
  0
VERTEX
  8
0
 10
0.60536
 20
1.29481
 30
0.0
 40
0
 41
0
  0
VERTEX
  8
0
 10
0.60536
 20
1.29807
 30
0.0
 40
0
 41
0
  0
SEQEND
 8
0
  0
POLYLINE
  8
0
 62
     173
 66
     1
 10
0
 20
0
 30
0.0
 70
     1
 40
0
 41
0
  0
VERTEX
  8
0
 10
0.60536
 20
0.947646
 30
0.0
 40
0
 41
0
  0
VERTEX
  8
0
 10
0.60536
 20
0.950956
 30
0.0
 40
0
 41
0
  0
VERTEX
  8
0
 10
0.599881
 20
0.960775
 30
0.0
 40
0
 41
0
  0
VERTEX
  8
0
 10
0.587836
 20
0.965169
 30
0.0
 40
0
 41
0
  0
VERTEX
  8
0
 10
0.575737
 20
0.960775
 30
0.0
 40
0
 41
0
  0
VERTEX
  8
0
 10
0.570313
 20
0.950956
 30
0.0
 40
0
 41
0
  0
VERTEX
  8
0
 10
0.570313
 20
0.947646
 30
0.0
 40
0
 41
0
  0
VERTEX
  8
0
 10
0.570313
 20
0.94439
 30
0.0
 40
0
 41
0
  0
VERTEX
  8
0
 10
0.575737
 20
0.934571
 30
0.0
 40
0
 41
0
  0
VERTEX
  8
0
 10
0.587836
 20
0.930176
 30
0.0
 40
0
 41
0
  0
VERTEX
  8
0
 10
0.599881
 20
0.934571
 30
0.0
 40
0
 41
0
  0
VERTEX
  8
0
 10
0.60536
 20
0.94439
 30
0.0
 40
0
 41
0
  0
VERTEX
  8
0
 10
0.60536
 20
0.947646
 30
0.0
 40
0
 41
0
  0
SEQEND
 8
0
  0
POLYLINE
  8
0
 62
     173
 66
     1
 10
0
 20
0
 30
0.0
 70
     1
 40
0
 41
0
  0
VERTEX
  8
0
 10
0.60536
 20
0.847331
 30
0.0
 40
0
 41
0
  0
VERTEX
  8
0
 10
0.60536
 20
0.85064
 30
0.0
 40
0
 41
0
  0
VERTEX
  8
0
 10
0.599881
 20
0.86046
 30
0.0
 40
0
 41
0
  0
VERTEX
  8
0
 10
0.587836
 20
0.864854
 30
0.0
 40
0
 41
0
  0
VERTEX
  8
0
 10
0.575737
 20
0.86046
 30
0.0
 40
0
 41
0
  0
VERTEX
  8
0
 10
0.570313
 20
0.85064
 30
0.0
 40
0
 41
0
  0
VERTEX
  8
0
 10
0.570313
 20
0.847331
 30
0.0
 40
0
 41
0
  0
VERTEX
  8
0
 10
0.570313
 20
0.844075
 30
0.0
 40
0
 41
0
  0
VERTEX
  8
0
 10
0.575737
 20
0.834256
 30
0.0
 40
0
 41
0
  0
VERTEX
  8
0
 10
0.587836
 20
0.829861
 30
0.0
 40
0
 41
0
  0
VERTEX
  8
0
 10
0.599881
 20
0.834256
 30
0.0
 40
0
 41
0
  0
VERTEX
  8
0
 10
0.60536
 20
0.844075
 30
0.0
 40
0
 41
0
  0
VERTEX
  8
0
 10
0.60536
 20
0.847331
 30
0.0
 40
0
 41
0
  0
SEQEND
 8
0
  0
POLYLINE
  8
0
 62
     173
 66
     1
 10
0
 20
0
 30
0.0
 70
     1
 40
0
 41
0
  0
VERTEX
  8
0
 10
0.60536
 20
0.638456
 30
0.0
 40
0
 41
0
  0
VERTEX
  8
0
 10
0.60536
 20
0.641764
 30
0.0
 40
0
 41
0
  0
VERTEX
  8
0
 10
0.599881
 20
0.651585
 30
0.0
 40
0
 41
0
  0
VERTEX
  8
0
 10
0.587836
 20
0.655979
 30
0.0
 40
0
 41
0
  0
VERTEX
  8
0
 10
0.575737
 20
0.651585
 30
0.0
 40
0
 41
0
  0
VERTEX
  8
0
 10
0.570313
 20
0.641764
 30
0.0
 40
0
 41
0
  0
VERTEX
  8
0
 10
0.570313
 20
0.638456
 30
0.0
 40
0
 41
0
  0
VERTEX
  8
0
 10
0.570313
 20
0.6352
 30
0.0
 40
0
 41
0
  0
VERTEX
  8
0
 10
0.575737
 20
0.625379
 30
0.0
 40
0
 41
0
  0
VERTEX
  8
0
 10
0.587836
 20
0.620985
 30
0.0
 40
0
 41
0
  0
VERTEX
  8
0
 10
0.599881
 20
0.625379
 30
0.0
 40
0
 41
0
  0
VERTEX
  8
0
 10
0.60536
 20
0.6352
 30
0.0
 40
0
 41
0
  0
VERTEX
  8
0
 10
0.60536
 20
0.638456
 30
0.0
 40
0
 41
0
  0
SEQEND
 8
0
  0
POLYLINE
  8
0
 62
     173
 66
     1
 10
0
 20
0
 30
0.0
 70
     1
 40
0
 41
0
  0
VERTEX
  8
0
 10
0.60536
 20
0.538032
 30
0.0
 40
0
 41
0
  0
VERTEX
  8
0
 10
0.60536
 20
0.541342
 30
0.0
 40
0
 41
0
  0
VERTEX
  8
0
 10
0.599881
 20
0.551161
 30
0.0
 40
0
 41
0
  0
VERTEX
  8
0
 10
0.587836
 20
0.555556
 30
0.0
 40
0
 41
0
  0
VERTEX
  8
0
 10
0.575737
 20
0.551161
 30
0.0
 40
0
 41
0
  0
VERTEX
  8
0
 10
0.570313
 20
0.541342
 30
0.0
 40
0
 41
0
  0
VERTEX
  8
0
 10
0.570313
 20
0.538032
 30
0.0
 40
0
 41
0
  0
VERTEX
  8
0
 10
0.570313
 20
0.534776
 30
0.0
 40
0
 41
0
  0
VERTEX
  8
0
 10
0.575737
 20
0.524957
 30
0.0
 40
0
 41
0
  0
VERTEX
  8
0
 10
0.587836
 20
0.520562
 30
0.0
 40
0
 41
0
  0
VERTEX
  8
0
 10
0.599881
 20
0.524957
 30
0.0
 40
0
 41
0
  0
VERTEX
  8
0
 10
0.60536
 20
0.534776
 30
0.0
 40
0
 41
0
  0
VERTEX
  8
0
 10
0.60536
 20
0.538032
 30
0.0
 40
0
 41
0
  0
SEQEND
 8
0
  0
POLYLINE
  8
0
 62
     173
 66
     1
 10
0
 20
0
 30
0.0
 70
     1
 40
0
 41
0
  0
VERTEX
  8
0
 10
0.60536
 20
0.187662
 30
0.0
 40
0
 41
0
  0
VERTEX
  8
0
 10
0.60536
 20
0.190972
 30
0.0
 40
0
 41
0
  0
VERTEX
  8
0
 10
0.599881
 20
0.200792
 30
0.0
 40
0
 41
0
  0
VERTEX
  8
0
 10
0.587836
 20
0.205186
 30
0.0
 40
0
 41
0
  0
VERTEX
  8
0
 10
0.575737
 20
0.200792
 30
0.0
 40
0
 41
0
  0
VERTEX
  8
0
 10
0.570313
 20
0.190972
 30
0.0
 40
0
 41
0
  0
VERTEX
  8
0
 10
0.570313
 20
0.187662
 30
0.0
 40
0
 41
0
  0
VERTEX
  8
0
 10
0.570313
 20
0.184407
 30
0.0
 40
0
 41
0
  0
VERTEX
  8
0
 10
0.575737
 20
0.174588
 30
0.0
 40
0
 41
0
  0
VERTEX
  8
0
 10
0.587836
 20
0.170193
 30
0.0
 40
0
 41
0
  0
VERTEX
  8
0
 10
0.599881
 20
0.174588
 30
0.0
 40
0
 41
0
  0
VERTEX
  8
0
 10
0.60536
 20
0.184407
 30
0.0
 40
0
 41
0
  0
VERTEX
  8
0
 10
0.60536
 20
0.187662
 30
0.0
 40
0
 41
0
  0
SEQEND
 8
0
  0
POLYLINE
  8
0
 62
     173
 66
     1
 10
0
 20
0
 30
0.0
 70
     1
 40
0
 41
0
  0
VERTEX
  8
0
 10
0.60536
 20
0.0873481
 30
0.0
 40
0
 41
0
  0
VERTEX
  8
0
 10
0.60536
 20
0.0906575
 30
0.0
 40
0
 41
0
  0
VERTEX
  8
0
 10
0.599881
 20
0.100477
 30
0.0
 40
0
 41
0
  0
VERTEX
  8
0
 10
0.587836
 20
0.104872
 30
0.0
 40
0
 41
0
  0
VERTEX
  8
0
 10
0.575737
 20
0.100477
 30
0.0
 40
0
 41
0
  0
VERTEX
  8
0
 10
0.570313
 20
0.0906575
 30
0.0
 40
0
 41
0
  0
VERTEX
  8
0
 10
0.570313
 20
0.0873481
 30
0.0
 40
0
 41
0
  0
VERTEX
  8
0
 10
0.570313
 20
0.0840929
 30
0.0
 40
0
 41
0
  0
VERTEX
  8
0
 10
0.575737
 20
0.0742731
 30
0.0
 40
0
 41
0
  0
VERTEX
  8
0
 10
0.587836
 20
0.0698785
 30
0.0
 40
0
 41
0
  0
VERTEX
  8
0
 10
0.599881
 20
0.0742731
 30
0.0
 40
0
 41
0
  0
VERTEX
  8
0
 10
0.60536
 20
0.0840929
 30
0.0
 40
0
 41
0
  0
VERTEX
  8
0
 10
0.60536
 20
0.0873481
 30
0.0
 40
0
 41
0
  0
SEQEND
 8
0
  0
POLYLINE
  8
0
 62
     173
 66
     1
 10
0
 20
0
 30
0.0
 70
     1
 40
0
 41
0
  0
VERTEX
  8
0
 10
1.18571
 20
1.39844
 30
0.0
 40
0
 41
0
  0
VERTEX
  8
0
 10
1.18571
 20
1.40175
 30
0.0
 40
0
 41
0
  0
VERTEX
  8
0
 10
1.18023
 20
1.41157
 30
0.0
 40
0
 41
0
  0
VERTEX
  8
0
 10
1.16819
 20
1.41596
 30
0.0
 40
0
 41
0
  0
VERTEX
  8
0
 10
1.15614
 20
1.41157
 30
0.0
 40
0
 41
0
  0
VERTEX
  8
0
 10
1.15072
 20
1.40175
 30
0.0
 40
0
 41
0
  0
VERTEX
  8
0
 10
1.15072
 20
1.39844
 30
0.0
 40
0
 41
0
  0
VERTEX
  8
0
 10
1.15072
 20
1.39518
 30
0.0
 40
0
 41
0
  0
VERTEX
  8
0
 10
1.15614
 20
1.38536
 30
0.0
 40
0
 41
0
  0
VERTEX
  8
0
 10
1.16819
 20
1.38097
 30
0.0
 40
0
 41
0
  0
VERTEX
  8
0
 10
1.18023
 20
1.38536
 30
0.0
 40
0
 41
0
  0
VERTEX
  8
0
 10
1.18571
 20
1.39518
 30
0.0
 40
0
 41
0
  0
VERTEX
  8
0
 10
1.18571
 20
1.39844
 30
0.0
 40
0
 41
0
  0
SEQEND
 8
0
  0
POLYLINE
  8
0
 62
     173
 66
     1
 10
0
 20
0
 30
0.0
 70
     1
 40
0
 41
0
  0
VERTEX
  8
0
 10
1.18571
 20
1.29807
 30
0.0
 40
0
 41
0
  0
VERTEX
  8
0
 10
1.18571
 20
1.30138
 30
0.0
 40
0
 41
0
  0
VERTEX
  8
0
 10
1.18023
 20
1.3112
 30
0.0
 40
0
 41
0
  0
VERTEX
  8
0
 10
1.16819
 20
1.31559
 30
0.0
 40
0
 41
0
  0
VERTEX
  8
0
 10
1.15614
 20
1.3112
 30
0.0
 40
0
 41
0
  0
VERTEX
  8
0
 10
1.15072
 20
1.30138
 30
0.0
 40
0
 41
0
  0
VERTEX
  8
0
 10
1.15072
 20
1.29807
 30
0.0
 40
0
 41
0
  0
VERTEX
  8
0
 10
1.15072
 20
1.29481
 30
0.0
 40
0
 41
0
  0
VERTEX
  8
0
 10
1.15614
 20
1.28499
 30
0.0
 40
0
 41
0
  0
VERTEX
  8
0
 10
1.16819
 20
1.2806
 30
0.0
 40
0
 41
0
  0
VERTEX
  8
0
 10
1.18023
 20
1.28499
 30
0.0
 40
0
 41
0
  0
VERTEX
  8
0
 10
1.18571
 20
1.29481
 30
0.0
 40
0
 41
0
  0
VERTEX
  8
0
 10
1.18571
 20
1.29807
 30
0.0
 40
0
 41
0
  0
SEQEND
 8
0
  0
POLYLINE
  8
0
 62
     173
 66
     1
 10
0
 20
0
 30
0.0
 70
     1
 40
0
 41
0
  0
VERTEX
  8
0
 10
1.18571
 20
0.947646
 30
0.0
 40
0
 41
0
  0
VERTEX
  8
0
 10
1.18571
 20
0.950956
 30
0.0
 40
0
 41
0
  0
VERTEX
  8
0
 10
1.18023
 20
0.960775
 30
0.0
 40
0
 41
0
  0
VERTEX
  8
0
 10
1.16819
 20
0.965169
 30
0.0
 40
0
 41
0
  0
VERTEX
  8
0
 10
1.15614
 20
0.960775
 30
0.0
 40
0
 41
0
  0
VERTEX
  8
0
 10
1.15072
 20
0.950956
 30
0.0
 40
0
 41
0
  0
VERTEX
  8
0
 10
1.15072
 20
0.947646
 30
0.0
 40
0
 41
0
  0
VERTEX
  8
0
 10
1.15072
 20
0.94439
 30
0.0
 40
0
 41
0
  0
VERTEX
  8
0
 10
1.15614
 20
0.934571
 30
0.0
 40
0
 41
0
  0
VERTEX
  8
0
 10
1.16819
 20
0.930176
 30
0.0
 40
0
 41
0
  0
VERTEX
  8
0
 10
1.18023
 20
0.934571
 30
0.0
 40
0
 41
0
  0
VERTEX
  8
0
 10
1.18571
 20
0.94439
 30
0.0
 40
0
 41
0
  0
VERTEX
  8
0
 10
1.18571
 20
0.947646
 30
0.0
 40
0
 41
0
  0
SEQEND
 8
0
  0
POLYLINE
  8
0
 62
     173
 66
     1
 10
0
 20
0
 30
0.0
 70
     1
 40
0
 41
0
  0
VERTEX
  8
0
 10
1.18571
 20
0.847331
 30
0.0
 40
0
 41
0
  0
VERTEX
  8
0
 10
1.18571
 20
0.85064
 30
0.0
 40
0
 41
0
  0
VERTEX
  8
0
 10
1.18023
 20
0.86046
 30
0.0
 40
0
 41
0
  0
VERTEX
  8
0
 10
1.16819
 20
0.864854
 30
0.0
 40
0
 41
0
  0
VERTEX
  8
0
 10
1.15614
 20
0.86046
 30
0.0
 40
0
 41
0
  0
VERTEX
  8
0
 10
1.15072
 20
0.85064
 30
0.0
 40
0
 41
0
  0
VERTEX
  8
0
 10
1.15072
 20
0.847331
 30
0.0
 40
0
 41
0
  0
VERTEX
  8
0
 10
1.15072
 20
0.844075
 30
0.0
 40
0
 41
0
  0
VERTEX
  8
0
 10
1.15614
 20
0.834256
 30
0.0
 40
0
 41
0
  0
VERTEX
  8
0
 10
1.16819
 20
0.829861
 30
0.0
 40
0
 41
0
  0
VERTEX
  8
0
 10
1.18023
 20
0.834256
 30
0.0
 40
0
 41
0
  0
VERTEX
  8
0
 10
1.18571
 20
0.844075
 30
0.0
 40
0
 41
0
  0
VERTEX
  8
0
 10
1.18571
 20
0.847331
 30
0.0
 40
0
 41
0
  0
SEQEND
 8
0
  0
POLYLINE
  8
0
 62
     173
 66
     1
 10
0
 20
0
 30
0.0
 70
     1
 40
0
 41
0
  0
VERTEX
  8
0
 10
1.18571
 20
0.638456
 30
0.0
 40
0
 41
0
  0
VERTEX
  8
0
 10
1.18571
 20
0.641764
 30
0.0
 40
0
 41
0
  0
VERTEX
  8
0
 10
1.18023
 20
0.651585
 30
0.0
 40
0
 41
0
  0
VERTEX
  8
0
 10
1.16819
 20
0.655979
 30
0.0
 40
0
 41
0
  0
VERTEX
  8
0
 10
1.15614
 20
0.651585
 30
0.0
 40
0
 41
0
  0
VERTEX
  8
0
 10
1.15072
 20
0.641764
 30
0.0
 40
0
 41
0
  0
VERTEX
  8
0
 10
1.15072
 20
0.638456
 30
0.0
 40
0
 41
0
  0
VERTEX
  8
0
 10
1.15072
 20
0.6352
 30
0.0
 40
0
 41
0
  0
VERTEX
  8
0
 10
1.15614
 20
0.625379
 30
0.0
 40
0
 41
0
  0
VERTEX
  8
0
 10
1.16819
 20
0.620985
 30
0.0
 40
0
 41
0
  0
VERTEX
  8
0
 10
1.18023
 20
0.625379
 30
0.0
 40
0
 41
0
  0
VERTEX
  8
0
 10
1.18571
 20
0.6352
 30
0.0
 40
0
 41
0
  0
VERTEX
  8
0
 10
1.18571
 20
0.638456
 30
0.0
 40
0
 41
0
  0
SEQEND
 8
0
  0
POLYLINE
  8
0
 62
     173
 66
     1
 10
0
 20
0
 30
0.0
 70
     1
 40
0
 41
0
  0
VERTEX
  8
0
 10
1.18571
 20
0.538032
 30
0.0
 40
0
 41
0
  0
VERTEX
  8
0
 10
1.18571
 20
0.541342
 30
0.0
 40
0
 41
0
  0
VERTEX
  8
0
 10
1.18023
 20
0.551161
 30
0.0
 40
0
 41
0
  0
VERTEX
  8
0
 10
1.16819
 20
0.555556
 30
0.0
 40
0
 41
0
  0
VERTEX
  8
0
 10
1.15614
 20
0.551161
 30
0.0
 40
0
 41
0
  0
VERTEX
  8
0
 10
1.15072
 20
0.541342
 30
0.0
 40
0
 41
0
  0
VERTEX
  8
0
 10
1.15072
 20
0.538032
 30
0.0
 40
0
 41
0
  0
VERTEX
  8
0
 10
1.15072
 20
0.534776
 30
0.0
 40
0
 41
0
  0
VERTEX
  8
0
 10
1.15614
 20
0.524957
 30
0.0
 40
0
 41
0
  0
VERTEX
  8
0
 10
1.16819
 20
0.520562
 30
0.0
 40
0
 41
0
  0
VERTEX
  8
0
 10
1.18023
 20
0.524957
 30
0.0
 40
0
 41
0
  0
VERTEX
  8
0
 10
1.18571
 20
0.534776
 30
0.0
 40
0
 41
0
  0
VERTEX
  8
0
 10
1.18571
 20
0.538032
 30
0.0
 40
0
 41
0
  0
SEQEND
 8
0
  0
POLYLINE
  8
0
 62
     173
 66
     1
 10
0
 20
0
 30
0.0
 70
     1
 40
0
 41
0
  0
VERTEX
  8
0
 10
1.18571
 20
0.187662
 30
0.0
 40
0
 41
0
  0
VERTEX
  8
0
 10
1.18571
 20
0.190972
 30
0.0
 40
0
 41
0
  0
VERTEX
  8
0
 10
1.18023
 20
0.200792
 30
0.0
 40
0
 41
0
  0
VERTEX
  8
0
 10
1.16819
 20
0.205186
 30
0.0
 40
0
 41
0
  0
VERTEX
  8
0
 10
1.15614
 20
0.200792
 30
0.0
 40
0
 41
0
  0
VERTEX
  8
0
 10
1.15072
 20
0.190972
 30
0.0
 40
0
 41
0
  0
VERTEX
  8
0
 10
1.15072
 20
0.187662
 30
0.0
 40
0
 41
0
  0
VERTEX
  8
0
 10
1.15072
 20
0.184407
 30
0.0
 40
0
 41
0
  0
VERTEX
  8
0
 10
1.15614
 20
0.174588
 30
0.0
 40
0
 41
0
  0
VERTEX
  8
0
 10
1.16819
 20
0.170193
 30
0.0
 40
0
 41
0
  0
VERTEX
  8
0
 10
1.18023
 20
0.174588
 30
0.0
 40
0
 41
0
  0
VERTEX
  8
0
 10
1.18571
 20
0.184407
 30
0.0
 40
0
 41
0
  0
VERTEX
  8
0
 10
1.18571
 20
0.187662
 30
0.0
 40
0
 41
0
  0
SEQEND
 8
0
  0
POLYLINE
  8
0
 62
     173
 66
     1
 10
0
 20
0
 30
0.0
 70
     1
 40
0
 41
0
  0
VERTEX
  8
0
 10
1.18571
 20
0.0873481
 30
0.0
 40
0
 41
0
  0
VERTEX
  8
0
 10
1.18571
 20
0.0906575
 30
0.0
 40
0
 41
0
  0
VERTEX
  8
0
 10
1.18023
 20
0.100477
 30
0.0
 40
0
 41
0
  0
VERTEX
  8
0
 10
1.16819
 20
0.104872
 30
0.0
 40
0
 41
0
  0
VERTEX
  8
0
 10
1.15614
 20
0.100477
 30
0.0
 40
0
 41
0
  0
VERTEX
  8
0
 10
1.15072
 20
0.0906575
 30
0.0
 40
0
 41
0
  0
VERTEX
  8
0
 10
1.15072
 20
0.0873481
 30
0.0
 40
0
 41
0
  0
VERTEX
  8
0
 10
1.15072
 20
0.0840929
 30
0.0
 40
0
 41
0
  0
VERTEX
  8
0
 10
1.15614
 20
0.0742731
 30
0.0
 40
0
 41
0
  0
VERTEX
  8
0
 10
1.16819
 20
0.0698785
 30
0.0
 40
0
 41
0
  0
VERTEX
  8
0
 10
1.18023
 20
0.0742731
 30
0.0
 40
0
 41
0
  0
VERTEX
  8
0
 10
1.18571
 20
0.0840929
 30
0.0
 40
0
 41
0
  0
VERTEX
  8
0
 10
1.18571
 20
0.0873481
 30
0.0
 40
0
 41
0
  0
SEQEND
 8
0
  0
POLYLINE
  8
0
 62
     173
 66
     1
 10
0
 20
0
 30
0.0
 70
     1
 40
0
 41
0
  0
VERTEX
  8
0
 10
1.41015
 20
1.22325
 30
0.0
 40
0
 41
0
  0
VERTEX
  8
0
 10
1.41015
 20
1.22656
 30
0.0
 40
0
 41
0
  0
VERTEX
  8
0
 10
1.40468
 20
1.23638
 30
0.0
 40
0
 41
0
  0
VERTEX
  8
0
 10
1.39264
 20
1.24078
 30
0.0
 40
0
 41
0
  0
VERTEX
  8
0
 10
1.38053
 20
1.23638
 30
0.0
 40
0
 41
0
  0
VERTEX
  8
0
 10
1.37511
 20
1.22656
 30
0.0
 40
0
 41
0
  0
VERTEX
  8
0
 10
1.37511
 20
1.22325
 30
0.0
 40
0
 41
0
  0
VERTEX
  8
0
 10
1.37511
 20
1.22
 30
0.0
 40
0
 41
0
  0
VERTEX
  8
0
 10
1.38053
 20
1.21018
 30
0.0
 40
0
 41
0
  0
VERTEX
  8
0
 10
1.39264
 20
1.20578
 30
0.0
 40
0
 41
0
  0
VERTEX
  8
0
 10
1.40468
 20
1.21018
 30
0.0
 40
0
 41
0
  0
VERTEX
  8
0
 10
1.41015
 20
1.22
 30
0.0
 40
0
 41
0
  0
VERTEX
  8
0
 10
1.41015
 20
1.22325
 30
0.0
 40
0
 41
0
  0
SEQEND
 8
0
  0
POLYLINE
  8
0
 62
     173
 66
     1
 10
0
 20
0
 30
0.0
 70
     1
 40
0
 41
0
  0
VERTEX
  8
0
 10
1.41015
 20
1.14296
 30
0.0
 40
0
 41
0
  0
VERTEX
  8
0
 10
1.41015
 20
1.14627
 30
0.0
 40
0
 41
0
  0
VERTEX
  8
0
 10
1.40468
 20
1.15609
 30
0.0
 40
0
 41
0
  0
VERTEX
  8
0
 10
1.39264
 20
1.16048
 30
0.0
 40
0
 41
0
  0
VERTEX
  8
0
 10
1.38053
 20
1.15609
 30
0.0
 40
0
 41
0
  0
VERTEX
  8
0
 10
1.37511
 20
1.14627
 30
0.0
 40
0
 41
0
  0
VERTEX
  8
0
 10
1.37511
 20
1.14296
 30
0.0
 40
0
 41
0
  0
VERTEX
  8
0
 10
1.37511
 20
1.1397
 30
0.0
 40
0
 41
0
  0
VERTEX
  8
0
 10
1.38053
 20
1.12988
 30
0.0
 40
0
 41
0
  0
VERTEX
  8
0
 10
1.39264
 20
1.12549
 30
0.0
 40
0
 41
0
  0
VERTEX
  8
0
 10
1.40468
 20
1.12988
 30
0.0
 40
0
 41
0
  0
VERTEX
  8
0
 10
1.41015
 20
1.1397
 30
0.0
 40
0
 41
0
  0
VERTEX
  8
0
 10
1.41015
 20
1.14296
 30
0.0
 40
0
 41
0
  0
SEQEND
 8
0
  0
POLYLINE
  8
0
 62
     173
 66
     1
 10
0
 20
0
 30
0.0
 70
     1
 40
0
 41
0
  0
VERTEX
  8
0
 10
1.41015
 20
1.06266
 30
0.0
 40
0
 41
0
  0
VERTEX
  8
0
 10
1.41015
 20
1.06597
 30
0.0
 40
0
 41
0
  0
VERTEX
  8
0
 10
1.40468
 20
1.07579
 30
0.0
 40
0
 41
0
  0
VERTEX
  8
0
 10
1.39264
 20
1.08019
 30
0.0
 40
0
 41
0
  0
VERTEX
  8
0
 10
1.38053
 20
1.07579
 30
0.0
 40
0
 41
0
  0
VERTEX
  8
0
 10
1.37511
 20
1.06597
 30
0.0
 40
0
 41
0
  0
VERTEX
  8
0
 10
1.37511
 20
1.06266
 30
0.0
 40
0
 41
0
  0
VERTEX
  8
0
 10
1.37511
 20
1.05941
 30
0.0
 40
0
 41
0
  0
VERTEX
  8
0
 10
1.38053
 20
1.04959
 30
0.0
 40
0
 41
0
  0
VERTEX
  8
0
 10
1.39264
 20
1.04519
 30
0.0
 40
0
 41
0
  0
VERTEX
  8
0
 10
1.40468
 20
1.04959
 30
0.0
 40
0
 41
0
  0
VERTEX
  8
0
 10
1.41015
 20
1.05941
 30
0.0
 40
0
 41
0
  0
VERTEX
  8
0
 10
1.41015
 20
1.06266
 30
0.0
 40
0
 41
0
  0
SEQEND
 8
0
  0
POLYLINE
  8
0
 62
     173
 66
     1
 10
0
 20
0
 30
0.0
 70
     1
 40
0
 41
0
  0
VERTEX
  8
0
 10
1.41015
 20
0.982368
 30
0.0
 40
0
 41
0
  0
VERTEX
  8
0
 10
1.41015
 20
0.985678
 30
0.0
 40
0
 41
0
  0
VERTEX
  8
0
 10
1.40468
 20
0.995497
 30
0.0
 40
0
 41
0
  0
VERTEX
  8
0
 10
1.39264
 20
0.999892
 30
0.0
 40
0
 41
0
  0
VERTEX
  8
0
 10
1.38053
 20
0.995497
 30
0.0
 40
0
 41
0
  0
VERTEX
  8
0
 10
1.37511
 20
0.985678
 30
0.0
 40
0
 41
0
  0
VERTEX
  8
0
 10
1.37511
 20
0.982368
 30
0.0
 40
0
 41
0
  0
VERTEX
  8
0
 10
1.37511
 20
0.979113
 30
0.0
 40
0
 41
0
  0
VERTEX
  8
0
 10
1.38053
 20
0.969293
 30
0.0
 40
0
 41
0
  0
VERTEX
  8
0
 10
1.39264
 20
0.964899
 30
0.0
 40
0
 41
0
  0
VERTEX
  8
0
 10
1.40468
 20
0.969293
 30
0.0
 40
0
 41
0
  0
VERTEX
  8
0
 10
1.41015
 20
0.979113
 30
0.0
 40
0
 41
0
  0
VERTEX
  8
0
 10
1.41015
 20
0.982368
 30
0.0
 40
0
 41
0
  0
SEQEND
 8
0
  0
POLYLINE
  8
0
 62
     173
 66
     1
 10
0
 20
0
 30
0.0
 70
     1
 40
0
 41
0
  0
VERTEX
  8
0
 10
1.41015
 20
0.463271
 30
0.0
 40
0
 41
0
  0
VERTEX
  8
0
 10
1.41015
 20
0.466581
 30
0.0
 40
0
 41
0
  0
VERTEX
  8
0
 10
1.40468
 20
0.4764
 30
0.0
 40
0
 41
0
  0
VERTEX
  8
0
 10
1.39264
 20
0.480794
 30
0.0
 40
0
 41
0
  0
VERTEX
  8
0
 10
1.38053
 20
0.4764
 30
0.0
 40
0
 41
0
  0
VERTEX
  8
0
 10
1.37511
 20
0.466581
 30
0.0
 40
0
 41
0
  0
VERTEX
  8
0
 10
1.37511
 20
0.463271
 30
0.0
 40
0
 41
0
  0
VERTEX
  8
0
 10
1.37511
 20
0.460015
 30
0.0
 40
0
 41
0
  0
VERTEX
  8
0
 10
1.38053
 20
0.450196
 30
0.0
 40
0
 41
0
  0
VERTEX
  8
0
 10
1.39264
 20
0.445801
 30
0.0
 40
0
 41
0
  0
VERTEX
  8
0
 10
1.40468
 20
0.450196
 30
0.0
 40
0
 41
0
  0
VERTEX
  8
0
 10
1.41015
 20
0.460015
 30
0.0
 40
0
 41
0
  0
VERTEX
  8
0
 10
1.41015
 20
0.463271
 30
0.0
 40
0
 41
0
  0
SEQEND
 8
0
  0
POLYLINE
  8
0
 62
     173
 66
     1
 10
0
 20
0
 30
0.0
 70
     1
 40
0
 41
0
  0
VERTEX
  8
0
 10
1.41015
 20
0.382975
 30
0.0
 40
0
 41
0
  0
VERTEX
  8
0
 10
1.41015
 20
0.386285
 30
0.0
 40
0
 41
0
  0
VERTEX
  8
0
 10
1.40468
 20
0.396104
 30
0.0
 40
0
 41
0
  0
VERTEX
  8
0
 10
1.39264
 20
0.400499
 30
0.0
 40
0
 41
0
  0
VERTEX
  8
0
 10
1.38053
 20
0.396104
 30
0.0
 40
0
 41
0
  0
VERTEX
  8
0
 10
1.37511
 20
0.386285
 30
0.0
 40
0
 41
0
  0
VERTEX
  8
0
 10
1.37511
 20
0.382975
 30
0.0
 40
0
 41
0
  0
VERTEX
  8
0
 10
1.37511
 20
0.379719
 30
0.0
 40
0
 41
0
  0
VERTEX
  8
0
 10
1.38053
 20
0.369846
 30
0.0
 40
0
 41
0
  0
VERTEX
  8
0
 10
1.39264
 20
0.365451
 30
0.0
 40
0
 41
0
  0
VERTEX
  8
0
 10
1.40468
 20
0.369846
 30
0.0
 40
0
 41
0
  0
VERTEX
  8
0
 10
1.41015
 20
0.379719
 30
0.0
 40
0
 41
0
  0
VERTEX
  8
0
 10
1.41015
 20
0.382975
 30
0.0
 40
0
 41
0
  0
SEQEND
 8
0
  0
POLYLINE
  8
0
 62
     173
 66
     1
 10
0
 20
0
 30
0.0
 70
     1
 40
0
 41
0
  0
VERTEX
  8
0
 10
1.41015
 20
0.302626
 30
0.0
 40
0
 41
0
  0
VERTEX
  8
0
 10
1.41015
 20
0.305935
 30
0.0
 40
0
 41
0
  0
VERTEX
  8
0
 10
1.40468
 20
0.31581
 30
0.0
 40
0
 41
0
  0
VERTEX
  8
0
 10
1.39264
 20
0.320204
 30
0.0
 40
0
 41
0
  0
VERTEX
  8
0
 10
1.38053
 20
0.31581
 30
0.0
 40
0
 41
0
  0
VERTEX
  8
0
 10
1.37511
 20
0.305935
 30
0.0
 40
0
 41
0
  0
VERTEX
  8
0
 10
1.37511
 20
0.302626
 30
0.0
 40
0
 41
0
  0
VERTEX
  8
0
 10
1.37511
 20
0.299371
 30
0.0
 40
0
 41
0
  0
VERTEX
  8
0
 10
1.38053
 20
0.289551
 30
0.0
 40
0
 41
0
  0
VERTEX
  8
0
 10
1.39264
 20
0.285157
 30
0.0
 40
0
 41
0
  0
VERTEX
  8
0
 10
1.40468
 20
0.289551
 30
0.0
 40
0
 41
0
  0
VERTEX
  8
0
 10
1.41015
 20
0.299371
 30
0.0
 40
0
 41
0
  0
VERTEX
  8
0
 10
1.41015
 20
0.302626
 30
0.0
 40
0
 41
0
  0
SEQEND
 8
0
  0
POLYLINE
  8
0
 62
     173
 66
     1
 10
0
 20
0
 30
0.0
 70
     1
 40
0
 41
0
  0
VERTEX
  8
0
 10
1.41015
 20
0.222331
 30
0.0
 40
0
 41
0
  0
VERTEX
  8
0
 10
1.41015
 20
0.22564
 30
0.0
 40
0
 41
0
  0
VERTEX
  8
0
 10
1.40468
 20
0.23546
 30
0.0
 40
0
 41
0
  0
VERTEX
  8
0
 10
1.39264
 20
0.239854
 30
0.0
 40
0
 41
0
  0
VERTEX
  8
0
 10
1.38053
 20
0.23546
 30
0.0
 40
0
 41
0
  0
VERTEX
  8
0
 10
1.37511
 20
0.22564
 30
0.0
 40
0
 41
0
  0
VERTEX
  8
0
 10
1.37511
 20
0.222331
 30
0.0
 40
0
 41
0
  0
VERTEX
  8
0
 10
1.37511
 20
0.219075
 30
0.0
 40
0
 41
0
  0
VERTEX
  8
0
 10
1.38053
 20
0.209256
 30
0.0
 40
0
 41
0
  0
VERTEX
  8
0
 10
1.39264
 20
0.204861
 30
0.0
 40
0
 41
0
  0
VERTEX
  8
0
 10
1.40468
 20
0.209256
 30
0.0
 40
0
 41
0
  0
VERTEX
  8
0
 10
1.41015
 20
0.219075
 30
0.0
 40
0
 41
0
  0
VERTEX
  8
0
 10
1.41015
 20
0.222331
 30
0.0
 40
0
 41
0
  0
SEQEND
 8
0
  0
POLYLINE
  8
0
 62
     173
 66
     1
 10
0
 20
0
 30
0.0
 70
     1
 40
0
 41
0
  0
VERTEX
  8
0
 10
1.48096
 20
1.26346
 30
0.0
 40
0
 41
0
  0
VERTEX
  8
0
 10
1.48096
 20
1.26676
 30
0.0
 40
0
 41
0
  0
VERTEX
  8
0
 10
1.47547
 20
1.27658
 30
0.0
 40
0
 41
0
  0
VERTEX
  8
0
 10
1.46343
 20
1.28098
 30
0.0
 40
0
 41
0
  0
VERTEX
  8
0
 10
1.45133
 20
1.27658
 30
0.0
 40
0
 41
0
  0
VERTEX
  8
0
 10
1.4459
 20
1.26676
 30
0.0
 40
0
 41
0
  0
VERTEX
  8
0
 10
1.4459
 20
1.26346
 30
0.0
 40
0
 41
0
  0
VERTEX
  8
0
 10
1.4459
 20
1.2602
 30
0.0
 40
0
 41
0
  0
VERTEX
  8
0
 10
1.45133
 20
1.25038
 30
0.0
 40
0
 41
0
  0
VERTEX
  8
0
 10
1.46343
 20
1.24598
 30
0.0
 40
0
 41
0
  0
VERTEX
  8
0
 10
1.47547
 20
1.25038
 30
0.0
 40
0
 41
0
  0
VERTEX
  8
0
 10
1.48096
 20
1.2602
 30
0.0
 40
0
 41
0
  0
VERTEX
  8
0
 10
1.48096
 20
1.26346
 30
0.0
 40
0
 41
0
  0
SEQEND
 8
0
  0
POLYLINE
  8
0
 62
     173
 66
     1
 10
0
 20
0
 30
0.0
 70
     1
 40
0
 41
0
  0
VERTEX
  8
0
 10
1.48096
 20
1.18316
 30
0.0
 40
0
 41
0
  0
VERTEX
  8
0
 10
1.48096
 20
1.18647
 30
0.0
 40
0
 41
0
  0
VERTEX
  8
0
 10
1.47547
 20
1.19629
 30
0.0
 40
0
 41
0
  0
VERTEX
  8
0
 10
1.46343
 20
1.20068
 30
0.0
 40
0
 41
0
  0
VERTEX
  8
0
 10
1.45133
 20
1.19629
 30
0.0
 40
0
 41
0
  0
VERTEX
  8
0
 10
1.4459
 20
1.18647
 30
0.0
 40
0
 41
0
  0
VERTEX
  8
0
 10
1.4459
 20
1.18316
 30
0.0
 40
0
 41
0
  0
VERTEX
  8
0
 10
1.4459
 20
1.1799
 30
0.0
 40
0
 41
0
  0
VERTEX
  8
0
 10
1.45133
 20
1.17008
 30
0.0
 40
0
 41
0
  0
VERTEX
  8
0
 10
1.46343
 20
1.16569
 30
0.0
 40
0
 41
0
  0
VERTEX
  8
0
 10
1.47547
 20
1.17008
 30
0.0
 40
0
 41
0
  0
VERTEX
  8
0
 10
1.48096
 20
1.1799
 30
0.0
 40
0
 41
0
  0
VERTEX
  8
0
 10
1.48096
 20
1.18316
 30
0.0
 40
0
 41
0
  0
SEQEND
 8
0
  0
POLYLINE
  8
0
 62
     173
 66
     1
 10
0
 20
0
 30
0.0
 70
     1
 40
0
 41
0
  0
VERTEX
  8
0
 10
1.48096
 20
1.10287
 30
0.0
 40
0
 41
0
  0
VERTEX
  8
0
 10
1.48096
 20
1.10617
 30
0.0
 40
0
 41
0
  0
VERTEX
  8
0
 10
1.47547
 20
1.11599
 30
0.0
 40
0
 41
0
  0
VERTEX
  8
0
 10
1.46343
 20
1.12039
 30
0.0
 40
0
 41
0
  0
VERTEX
  8
0
 10
1.45133
 20
1.11599
 30
0.0
 40
0
 41
0
  0
VERTEX
  8
0
 10
1.4459
 20
1.10617
 30
0.0
 40
0
 41
0
  0
VERTEX
  8
0
 10
1.4459
 20
1.10287
 30
0.0
 40
0
 41
0
  0
VERTEX
  8
0
 10
1.4459
 20
1.09961
 30
0.0
 40
0
 41
0
  0
VERTEX
  8
0
 10
1.45133
 20
1.08979
 30
0.0
 40
0
 41
0
  0
VERTEX
  8
0
 10
1.46343
 20
1.08539
 30
0.0
 40
0
 41
0
  0
VERTEX
  8
0
 10
1.47547
 20
1.08979
 30
0.0
 40
0
 41
0
  0
VERTEX
  8
0
 10
1.48096
 20
1.09961
 30
0.0
 40
0
 41
0
  0
VERTEX
  8
0
 10
1.48096
 20
1.10287
 30
0.0
 40
0
 41
0
  0
SEQEND
 8
0
  0
POLYLINE
  8
0
 62
     173
 66
     1
 10
0
 20
0
 30
0.0
 70
     1
 40
0
 41
0
  0
VERTEX
  8
0
 10
1.48096
 20
1.02246
 30
0.0
 40
0
 41
0
  0
VERTEX
  8
0
 10
1.48096
 20
1.02577
 30
0.0
 40
0
 41
0
  0
VERTEX
  8
0
 10
1.47547
 20
1.03559
 30
0.0
 40
0
 41
0
  0
VERTEX
  8
0
 10
1.46343
 20
1.03998
 30
0.0
 40
0
 41
0
  0
VERTEX
  8
0
 10
1.45133
 20
1.03559
 30
0.0
 40
0
 41
0
  0
VERTEX
  8
0
 10
1.4459
 20
1.02577
 30
0.0
 40
0
 41
0
  0
VERTEX
  8
0
 10
1.4459
 20
1.02246
 30
0.0
 40
0
 41
0
  0
VERTEX
  8
0
 10
1.4459
 20
1.01921
 30
0.0
 40
0
 41
0
  0
VERTEX
  8
0
 10
1.45133
 20
1.00939
 30
0.0
 40
0
 41
0
  0
VERTEX
  8
0
 10
1.46343
 20
1.00499
 30
0.0
 40
0
 41
0
  0
VERTEX
  8
0
 10
1.47547
 20
1.00939
 30
0.0
 40
0
 41
0
  0
VERTEX
  8
0
 10
1.48096
 20
1.01921
 30
0.0
 40
0
 41
0
  0
VERTEX
  8
0
 10
1.48096
 20
1.02246
 30
0.0
 40
0
 41
0
  0
SEQEND
 8
0
  0
POLYLINE
  8
0
 62
     173
 66
     1
 10
0
 20
0
 30
0.0
 70
     1
 40
0
 41
0
  0
VERTEX
  8
0
 10
1.48096
 20
0.503472
 30
0.0
 40
0
 41
0
  0
VERTEX
  8
0
 10
1.48096
 20
0.506782
 30
0.0
 40
0
 41
0
  0
VERTEX
  8
0
 10
1.47547
 20
0.516601
 30
0.0
 40
0
 41
0
  0
VERTEX
  8
0
 10
1.46343
 20
0.520996
 30
0.0
 40
0
 41
0
  0
VERTEX
  8
0
 10
1.45133
 20
0.516601
 30
0.0
 40
0
 41
0
  0
VERTEX
  8
0
 10
1.4459
 20
0.506782
 30
0.0
 40
0
 41
0
  0
VERTEX
  8
0
 10
1.4459
 20
0.503472
 30
0.0
 40
0
 41
0
  0
VERTEX
  8
0
 10
1.4459
 20
0.500217
 30
0.0
 40
0
 41
0
  0
VERTEX
  8
0
 10
1.45133
 20
0.490343
 30
0.0
 40
0
 41
0
  0
VERTEX
  8
0
 10
1.46343
 20
0.485949
 30
0.0
 40
0
 41
0
  0
VERTEX
  8
0
 10
1.47547
 20
0.490343
 30
0.0
 40
0
 41
0
  0
VERTEX
  8
0
 10
1.48096
 20
0.500217
 30
0.0
 40
0
 41
0
  0
VERTEX
  8
0
 10
1.48096
 20
0.503472
 30
0.0
 40
0
 41
0
  0
SEQEND
 8
0
  0
POLYLINE
  8
0
 62
     173
 66
     1
 10
0
 20
0
 30
0.0
 70
     1
 40
0
 41
0
  0
VERTEX
  8
0
 10
1.48096
 20
0.423122
 30
0.0
 40
0
 41
0
  0
VERTEX
  8
0
 10
1.48096
 20
0.426432
 30
0.0
 40
0
 41
0
  0
VERTEX
  8
0
 10
1.47547
 20
0.436307
 30
0.0
 40
0
 41
0
  0
VERTEX
  8
0
 10
1.46343
 20
0.440701
 30
0.0
 40
0
 41
0
  0
VERTEX
  8
0
 10
1.45133
 20
0.436307
 30
0.0
 40
0
 41
0
  0
VERTEX
  8
0
 10
1.4459
 20
0.426432
 30
0.0
 40
0
 41
0
  0
VERTEX
  8
0
 10
1.4459
 20
0.423122
 30
0.0
 40
0
 41
0
  0
VERTEX
  8
0
 10
1.4459
 20
0.419868
 30
0.0
 40
0
 41
0
  0
VERTEX
  8
0
 10
1.45133
 20
0.410047
 30
0.0
 40
0
 41
0
  0
VERTEX
  8
0
 10
1.46343
 20
0.405653
 30
0.0
 40
0
 41
0
  0
VERTEX
  8
0
 10
1.47547
 20
0.410047
 30
0.0
 40
0
 41
0
  0
VERTEX
  8
0
 10
1.48096
 20
0.419868
 30
0.0
 40
0
 41
0
  0
VERTEX
  8
0
 10
1.48096
 20
0.423122
 30
0.0
 40
0
 41
0
  0
SEQEND
 8
0
  0
POLYLINE
  8
0
 62
     173
 66
     1
 10
0
 20
0
 30
0.0
 70
     1
 40
0
 41
0
  0
VERTEX
  8
0
 10
1.48096
 20
0.342828
 30
0.0
 40
0
 41
0
  0
VERTEX
  8
0
 10
1.48096
 20
0.346137
 30
0.0
 40
0
 41
0
  0
VERTEX
  8
0
 10
1.47547
 20
0.355957
 30
0.0
 40
0
 41
0
  0
VERTEX
  8
0
 10
1.46343
 20
0.360351
 30
0.0
 40
0
 41
0
  0
VERTEX
  8
0
 10
1.45133
 20
0.355957
 30
0.0
 40
0
 41
0
  0
VERTEX
  8
0
 10
1.4459
 20
0.346137
 30
0.0
 40
0
 41
0
  0
VERTEX
  8
0
 10
1.4459
 20
0.342828
 30
0.0
 40
0
 41
0
  0
VERTEX
  8
0
 10
1.4459
 20
0.339572
 30
0.0
 40
0
 41
0
  0
VERTEX
  8
0
 10
1.45133
 20
0.329753
 30
0.0
 40
0
 41
0
  0
VERTEX
  8
0
 10
1.46343
 20
0.325358
 30
0.0
 40
0
 41
0
  0
VERTEX
  8
0
 10
1.47547
 20
0.329753
 30
0.0
 40
0
 41
0
  0
VERTEX
  8
0
 10
1.48096
 20
0.339572
 30
0.0
 40
0
 41
0
  0
VERTEX
  8
0
 10
1.48096
 20
0.342828
 30
0.0
 40
0
 41
0
  0
SEQEND
 8
0
  0
POLYLINE
  8
0
 62
     173
 66
     1
 10
0
 20
0
 30
0.0
 70
     1
 40
0
 41
0
  0
VERTEX
  8
0
 10
1.48096
 20
0.262424
 30
0.0
 40
0
 41
0
  0
VERTEX
  8
0
 10
1.48096
 20
0.265733
 30
0.0
 40
0
 41
0
  0
VERTEX
  8
0
 10
1.47547
 20
0.275608
 30
0.0
 40
0
 41
0
  0
VERTEX
  8
0
 10
1.46343
 20
0.280003
 30
0.0
 40
0
 41
0
  0
VERTEX
  8
0
 10
1.45133
 20
0.275608
 30
0.0
 40
0
 41
0
  0
VERTEX
  8
0
 10
1.4459
 20
0.265733
 30
0.0
 40
0
 41
0
  0
VERTEX
  8
0
 10
1.4459
 20
0.262424
 30
0.0
 40
0
 41
0
  0
VERTEX
  8
0
 10
1.4459
 20
0.259169
 30
0.0
 40
0
 41
0
  0
VERTEX
  8
0
 10
1.45133
 20
0.249349
 30
0.0
 40
0
 41
0
  0
VERTEX
  8
0
 10
1.46343
 20
0.244954
 30
0.0
 40
0
 41
0
  0
VERTEX
  8
0
 10
1.47547
 20
0.249349
 30
0.0
 40
0
 41
0
  0
VERTEX
  8
0
 10
1.48096
 20
0.259169
 30
0.0
 40
0
 41
0
  0
VERTEX
  8
0
 10
1.48096
 20
0.262424
 30
0.0
 40
0
 41
0
  0
SEQEND
 8
0
  0
POLYLINE
  8
0
 62
     173
 66
     1
 10
0
 20
0
 30
0.0
 70
     1
 40
0
 41
0
  0
VERTEX
  8
0
 10
0.547037
 20
0.743056
 30
0.0
 40
0
 41
0
  0
VERTEX
  8
0
 10
0.547037
 20
0.746636
 30
0.0
 40
0
 41
0
  0
VERTEX
  8
0
 10
0.541069
 20
0.757324
 30
0.0
 40
0
 41
0
  0
VERTEX
  8
0
 10
0.528049
 20
0.762099
 30
0.0
 40
0
 41
0
  0
VERTEX
  8
0
 10
0.514974
 20
0.757324
 30
0.0
 40
0
 41
0
  0
VERTEX
  8
0
 10
0.50906
 20
0.746636
 30
0.0
 40
0
 41
0
  0
VERTEX
  8
0
 10
0.50906
 20
0.743056
 30
0.0
 40
0
 41
0
  0
VERTEX
  8
0
 10
0.50906
 20
0.739529
 30
0.0
 40
0
 41
0
  0
VERTEX
  8
0
 10
0.514974
 20
0.728842
 30
0.0
 40
0
 41
0
  0
VERTEX
  8
0
 10
0.528049
 20
0.724067
 30
0.0
 40
0
 41
0
  0
VERTEX
  8
0
 10
0.541069
 20
0.728842
 30
0.0
 40
0
 41
0
  0
VERTEX
  8
0
 10
0.547037
 20
0.739529
 30
0.0
 40
0
 41
0
  0
VERTEX
  8
0
 10
0.547037
 20
0.743056
 30
0.0
 40
0
 41
0
  0
SEQEND
 8
0
  0
POLYLINE
  8
0
 62
     173
 66
     1
 10
0
 20
0
 30
0.0
 70
     1
 40
0
 41
0
  0
VERTEX
  8
0
 10
0.647026
 20
0.743056
 30
0.0
 40
0
 41
0
  0
VERTEX
  8
0
 10
0.647026
 20
0.746636
 30
0.0
 40
0
 41
0
  0
VERTEX
  8
0
 10
0.64106
 20
0.757324
 30
0.0
 40
0
 41
0
  0
VERTEX
  8
0
 10
0.628039
 20
0.762099
 30
0.0
 40
0
 41
0
  0
VERTEX
  8
0
 10
0.614963
 20
0.757324
 30
0.0
 40
0
 41
0
  0
VERTEX
  8
0
 10
0.60905
 20
0.746636
 30
0.0
 40
0
 41
0
  0
VERTEX
  8
0
 10
0.60905
 20
0.743056
 30
0.0
 40
0
 41
0
  0
VERTEX
  8
0
 10
0.60905
 20
0.739529
 30
0.0
 40
0
 41
0
  0
VERTEX
  8
0
 10
0.614963
 20
0.728842
 30
0.0
 40
0
 41
0
  0
VERTEX
  8
0
 10
0.628039
 20
0.724067
 30
0.0
 40
0
 41
0
  0
VERTEX
  8
0
 10
0.64106
 20
0.728842
 30
0.0
 40
0
 41
0
  0
VERTEX
  8
0
 10
0.647026
 20
0.739529
 30
0.0
 40
0
 41
0
  0
VERTEX
  8
0
 10
0.647026
 20
0.743056
 30
0.0
 40
0
 41
0
  0
SEQEND
 8
0
  0
POLYLINE
  8
0
 62
     173
 66
     1
 10
0
 20
0
 30
0.0
 70
     1
 40
0
 41
0
  0
VERTEX
  8
0
 10
0.747017
 20
0.743056
 30
0.0
 40
0
 41
0
  0
VERTEX
  8
0
 10
0.747017
 20
0.746636
 30
0.0
 40
0
 41
0
  0
VERTEX
  8
0
 10
0.741049
 20
0.757324
 30
0.0
 40
0
 41
0
  0
VERTEX
  8
0
 10
0.728028
 20
0.762099
 30
0.0
 40
0
 41
0
  0
VERTEX
  8
0
 10
0.714953
 20
0.757324
 30
0.0
 40
0
 41
0
  0
VERTEX
  8
0
 10
0.709039
 20
0.746636
 30
0.0
 40
0
 41
0
  0
VERTEX
  8
0
 10
0.709039
 20
0.743056
 30
0.0
 40
0
 41
0
  0
VERTEX
  8
0
 10
0.709039
 20
0.739529
 30
0.0
 40
0
 41
0
  0
VERTEX
  8
0
 10
0.714953
 20
0.728842
 30
0.0
 40
0
 41
0
  0
VERTEX
  8
0
 10
0.728028
 20
0.724067
 30
0.0
 40
0
 41
0
  0
VERTEX
  8
0
 10
0.741049
 20
0.728842
 30
0.0
 40
0
 41
0
  0
VERTEX
  8
0
 10
0.747017
 20
0.739529
 30
0.0
 40
0
 41
0
  0
VERTEX
  8
0
 10
0.747017
 20
0.743056
 30
0.0
 40
0
 41
0
  0
SEQEND
 8
0
  0
POLYLINE
  8
0
 62
     173
 66
     1
 10
0
 20
0
 30
0.0
 70
     1
 40
0
 41
0
  0
VERTEX
  8
0
 10
0.84706
 20
0.743056
 30
0.0
 40
0
 41
0
  0
VERTEX
  8
0
 10
0.84706
 20
0.746636
 30
0.0
 40
0
 41
0
  0
VERTEX
  8
0
 10
0.841092
 20
0.757324
 30
0.0
 40
0
 41
0
  0
VERTEX
  8
0
 10
0.828017
 20
0.762099
 30
0.0
 40
0
 41
0
  0
VERTEX
  8
0
 10
0.814942
 20
0.757324
 30
0.0
 40
0
 41
0
  0
VERTEX
  8
0
 10
0.809028
 20
0.746636
 30
0.0
 40
0
 41
0
  0
VERTEX
  8
0
 10
0.809028
 20
0.743056
 30
0.0
 40
0
 41
0
  0
VERTEX
  8
0
 10
0.809028
 20
0.739529
 30
0.0
 40
0
 41
0
  0
VERTEX
  8
0
 10
0.814942
 20
0.728842
 30
0.0
 40
0
 41
0
  0
VERTEX
  8
0
 10
0.828017
 20
0.724067
 30
0.0
 40
0
 41
0
  0
VERTEX
  8
0
 10
0.841092
 20
0.728842
 30
0.0
 40
0
 41
0
  0
VERTEX
  8
0
 10
0.84706
 20
0.739529
 30
0.0
 40
0
 41
0
  0
VERTEX
  8
0
 10
0.84706
 20
0.743056
 30
0.0
 40
0
 41
0
  0
SEQEND
 8
0
  0
POLYLINE
  8
0
 62
     173
 66
     1
 10
0
 20
0
 30
0.0
 70
     1
 40
0
 41
0
  0
VERTEX
  8
0
 10
0.947049
 20
0.743056
 30
0.0
 40
0
 41
0
  0
VERTEX
  8
0
 10
0.947049
 20
0.746636
 30
0.0
 40
0
 41
0
  0
VERTEX
  8
0
 10
0.941081
 20
0.757324
 30
0.0
 40
0
 41
0
  0
VERTEX
  8
0
 10
0.928006
 20
0.762099
 30
0.0
 40
0
 41
0
  0
VERTEX
  8
0
 10
0.914931
 20
0.757324
 30
0.0
 40
0
 41
0
  0
VERTEX
  8
0
 10
0.909017
 20
0.746636
 30
0.0
 40
0
 41
0
  0
VERTEX
  8
0
 10
0.909017
 20
0.743056
 30
0.0
 40
0
 41
0
  0
VERTEX
  8
0
 10
0.909017
 20
0.739529
 30
0.0
 40
0
 41
0
  0
VERTEX
  8
0
 10
0.914931
 20
0.728842
 30
0.0
 40
0
 41
0
  0
VERTEX
  8
0
 10
0.928006
 20
0.724067
 30
0.0
 40
0
 41
0
  0
VERTEX
  8
0
 10
0.941081
 20
0.728842
 30
0.0
 40
0
 41
0
  0
VERTEX
  8
0
 10
0.947049
 20
0.739529
 30
0.0
 40
0
 41
0
  0
VERTEX
  8
0
 10
0.947049
 20
0.743056
 30
0.0
 40
0
 41
0
  0
SEQEND
 8
0
  0
POLYLINE
  8
0
 62
     173
 66
     1
 10
0
 20
0
 30
0.0
 70
     1
 40
0
 41
0
  0
VERTEX
  8
0
 10
1.04704
 20
0.743056
 30
0.0
 40
0
 41
0
  0
VERTEX
  8
0
 10
1.04704
 20
0.746636
 30
0.0
 40
0
 41
0
  0
VERTEX
  8
0
 10
1.04107
 20
0.757324
 30
0.0
 40
0
 41
0
  0
VERTEX
  8
0
 10
1.02805
 20
0.762099
 30
0.0
 40
0
 41
0
  0
VERTEX
  8
0
 10
1.01497
 20
0.757324
 30
0.0
 40
0
 41
0
  0
VERTEX
  8
0
 10
1.00906
 20
0.746636
 30
0.0
 40
0
 41
0
  0
VERTEX
  8
0
 10
1.00906
 20
0.743056
 30
0.0
 40
0
 41
0
  0
VERTEX
  8
0
 10
1.00906
 20
0.739529
 30
0.0
 40
0
 41
0
  0
VERTEX
  8
0
 10
1.01497
 20
0.728842
 30
0.0
 40
0
 41
0
  0
VERTEX
  8
0
 10
1.02805
 20
0.724067
 30
0.0
 40
0
 41
0
  0
VERTEX
  8
0
 10
1.04107
 20
0.728842
 30
0.0
 40
0
 41
0
  0
VERTEX
  8
0
 10
1.04704
 20
0.739529
 30
0.0
 40
0
 41
0
  0
VERTEX
  8
0
 10
1.04704
 20
0.743056
 30
0.0
 40
0
 41
0
  0
SEQEND
 8
0
  0
POLYLINE
  8
0
 62
     173
 66
     1
 10
0
 20
0
 30
0.0
 70
     1
 40
0
 41
0
  0
VERTEX
  8
0
 10
1.14703
 20
0.743056
 30
0.0
 40
0
 41
0
  0
VERTEX
  8
0
 10
1.14703
 20
0.746636
 30
0.0
 40
0
 41
0
  0
VERTEX
  8
0
 10
1.14106
 20
0.757324
 30
0.0
 40
0
 41
0
  0
VERTEX
  8
0
 10
1.12804
 20
0.762099
 30
0.0
 40
0
 41
0
  0
VERTEX
  8
0
 10
1.11496
 20
0.757324
 30
0.0
 40
0
 41
0
  0
VERTEX
  8
0
 10
1.10905
 20
0.746636
 30
0.0
 40
0
 41
0
  0
VERTEX
  8
0
 10
1.10905
 20
0.743056
 30
0.0
 40
0
 41
0
  0
VERTEX
  8
0
 10
1.10905
 20
0.739529
 30
0.0
 40
0
 41
0
  0
VERTEX
  8
0
 10
1.11496
 20
0.728842
 30
0.0
 40
0
 41
0
  0
VERTEX
  8
0
 10
1.12804
 20
0.724067
 30
0.0
 40
0
 41
0
  0
VERTEX
  8
0
 10
1.14106
 20
0.728842
 30
0.0
 40
0
 41
0
  0
VERTEX
  8
0
 10
1.14703
 20
0.739529
 30
0.0
 40
0
 41
0
  0
VERTEX
  8
0
 10
1.14703
 20
0.743056
 30
0.0
 40
0
 41
0
  0
SEQEND
 8
0
  0
POLYLINE
  8
0
 62
     173
 66
     1
 10
0
 20
0
 30
0.0
 70
     1
 40
0
 41
0
  0
VERTEX
  8
0
 10
1.24702
 20
0.743056
 30
0.0
 40
0
 41
0
  0
VERTEX
  8
0
 10
1.24702
 20
0.746636
 30
0.0
 40
0
 41
0
  0
VERTEX
  8
0
 10
1.24105
 20
0.757324
 30
0.0
 40
0
 41
0
  0
VERTEX
  8
0
 10
1.22803
 20
0.762099
 30
0.0
 40
0
 41
0
  0
VERTEX
  8
0
 10
1.21495
 20
0.757324
 30
0.0
 40
0
 41
0
  0
VERTEX
  8
0
 10
1.20904
 20
0.746636
 30
0.0
 40
0
 41
0
  0
VERTEX
  8
0
 10
1.20904
 20
0.743056
 30
0.0
 40
0
 41
0
  0
VERTEX
  8
0
 10
1.20904
 20
0.739529
 30
0.0
 40
0
 41
0
  0
VERTEX
  8
0
 10
1.21495
 20
0.728842
 30
0.0
 40
0
 41
0
  0
VERTEX
  8
0
 10
1.22803
 20
0.724067
 30
0.0
 40
0
 41
0
  0
VERTEX
  8
0
 10
1.24105
 20
0.728842
 30
0.0
 40
0
 41
0
  0
VERTEX
  8
0
 10
1.24702
 20
0.739529
 30
0.0
 40
0
 41
0
  0
VERTEX
  8
0
 10
1.24702
 20
0.743056
 30
0.0
 40
0
 41
0
  0
SEQEND
 8
0
  0
POLYLINE
  8
0
 62
     173
 66
     1
 10
0
 20
0
 30
0.0
 70
     1
 40
0
 41
0
  0
VERTEX
  8
0
 10
0.253147
 20
1.37484
 30
0.0
 40
0
 41
0
  0
VERTEX
  8
0
 10
0.253147
 20
1.37967
 30
0.0
 40
0
 41
0
  0
VERTEX
  8
0
 10
0.245171
 20
1.39399
 30
0.0
 40
0
 41
0
  0
VERTEX
  8
0
 10
0.227647
 20
1.40039
 30
0.0
 40
0
 41
0
  0
VERTEX
  8
0
 10
0.210069
 20
1.39399
 30
0.0
 40
0
 41
0
  0
VERTEX
  8
0
 10
0.202149
 20
1.37967
 30
0.0
 40
0
 41
0
  0
VERTEX
  8
0
 10
0.202149
 20
1.37484
 30
0.0
 40
0
 41
0
  0
VERTEX
  8
0
 10
0.202149
 20
1.37006
 30
0.0
 40
0
 41
0
  0
VERTEX
  8
0
 10
0.210069
 20
1.35574
 30
0.0
 40
0
 41
0
  0
VERTEX
  8
0
 10
0.227647
 20
1.34939
 30
0.0
 40
0
 41
0
  0
VERTEX
  8
0
 10
0.245171
 20
1.35574
 30
0.0
 40
0
 41
0
  0
VERTEX
  8
0
 10
0.253147
 20
1.37006
 30
0.0
 40
0
 41
0
  0
VERTEX
  8
0
 10
0.253147
 20
1.37484
 30
0.0
 40
0
 41
0
  0
SEQEND
 8
0
  0
POLYLINE
  8
0
 62
     173
 66
     1
 10
0
 20
0
 30
0.0
 70
     1
 40
0
 41
0
  0
VERTEX
  8
0
 10
0.253147
 20
0.870931
 30
0.0
 40
0
 41
0
  0
VERTEX
  8
0
 10
0.253147
 20
0.87576
 30
0.0
 40
0
 41
0
  0
VERTEX
  8
0
 10
0.245171
 20
0.890082
 30
0.0
 40
0
 41
0
  0
VERTEX
  8
0
 10
0.227647
 20
0.896485
 30
0.0
 40
0
 41
0
  0
VERTEX
  8
0
 10
0.210069
 20
0.890082
 30
0.0
 40
0
 41
0
  0
VERTEX
  8
0
 10
0.202149
 20
0.87576
 30
0.0
 40
0
 41
0
  0
VERTEX
  8
0
 10
0.202149
 20
0.870931
 30
0.0
 40
0
 41
0
  0
VERTEX
  8
0
 10
0.202149
 20
0.866157
 30
0.0
 40
0
 41
0
  0
VERTEX
  8
0
 10
0.210069
 20
0.851833
 30
0.0
 40
0
 41
0
  0
VERTEX
  8
0
 10
0.227647
 20
0.845486
 30
0.0
 40
0
 41
0
  0
VERTEX
  8
0
 10
0.245171
 20
0.851833
 30
0.0
 40
0
 41
0
  0
VERTEX
  8
0
 10
0.253147
 20
0.866157
 30
0.0
 40
0
 41
0
  0
VERTEX
  8
0
 10
0.253147
 20
0.870931
 30
0.0
 40
0
 41
0
  0
SEQEND
 8
0
  0
POLYLINE
  8
0
 62
     173
 66
     1
 10
0
 20
0
 30
0.0
 70
     1
 40
0
 41
0
  0
VERTEX
  8
0
 10
0.253147
 20
0.614854
 30
0.0
 40
0
 41
0
  0
VERTEX
  8
0
 10
0.253147
 20
0.619683
 30
0.0
 40
0
 41
0
  0
VERTEX
  8
0
 10
0.245171
 20
0.634006
 30
0.0
 40
0
 41
0
  0
VERTEX
  8
0
 10
0.227647
 20
0.640408
 30
0.0
 40
0
 41
0
  0
VERTEX
  8
0
 10
0.210069
 20
0.634006
 30
0.0
 40
0
 41
0
  0
VERTEX
  8
0
 10
0.202149
 20
0.619683
 30
0.0
 40
0
 41
0
  0
VERTEX
  8
0
 10
0.202149
 20
0.614854
 30
0.0
 40
0
 41
0
  0
VERTEX
  8
0
 10
0.202149
 20
0.610081
 30
0.0
 40
0
 41
0
  0
VERTEX
  8
0
 10
0.210069
 20
0.595757
 30
0.0
 40
0
 41
0
  0
VERTEX
  8
0
 10
0.227647
 20
0.589356
 30
0.0
 40
0
 41
0
  0
VERTEX
  8
0
 10
0.245171
 20
0.595757
 30
0.0
 40
0
 41
0
  0
VERTEX
  8
0
 10
0.253147
 20
0.610081
 30
0.0
 40
0
 41
0
  0
VERTEX
  8
0
 10
0.253147
 20
0.614854
 30
0.0
 40
0
 41
0
  0
SEQEND
 8
0
  0
POLYLINE
  8
0
 62
     173
 66
     1
 10
0
 20
0
 30
0.0
 70
     1
 40
0
 41
0
  0
VERTEX
  8
0
 10
0.253147
 20
0.110948
 30
0.0
 40
0
 41
0
  0
VERTEX
  8
0
 10
0.253147
 20
0.115777
 30
0.0
 40
0
 41
0
  0
VERTEX
  8
0
 10
0.245171
 20
0.1301
 30
0.0
 40
0
 41
0
  0
VERTEX
  8
0
 10
0.227647
 20
0.136502
 30
0.0
 40
0
 41
0
  0
VERTEX
  8
0
 10
0.210069
 20
0.1301
 30
0.0
 40
0
 41
0
  0
VERTEX
  8
0
 10
0.202149
 20
0.115777
 30
0.0
 40
0
 41
0
  0
VERTEX
  8
0
 10
0.202149
 20
0.110948
 30
0.0
 40
0
 41
0
  0
VERTEX
  8
0
 10
0.202149
 20
0.106174
 30
0.0
 40
0
 41
0
  0
VERTEX
  8
0
 10
0.210069
 20
0.0918511
 30
0.0
 40
0
 41
0
  0
VERTEX
  8
0
 10
0.227647
 20
0.0854492
 30
0.0
 40
0
 41
0
  0
VERTEX
  8
0
 10
0.245171
 20
0.0918511
 30
0.0
 40
0
 41
0
  0
VERTEX
  8
0
 10
0.253147
 20
0.106174
 30
0.0
 40
0
 41
0
  0
VERTEX
  8
0
 10
0.253147
 20
0.110948
 30
0.0
 40
0
 41
0
  0
SEQEND
 8
0
  0
POLYLINE
  8
0
 62
     173
 66
     1
 10
0
 20
0
 30
0.0
 70
     1
 40
0
 41
0
  0
VERTEX
  8
0
 10
1.55393
 20
1.37484
 30
0.0
 40
0
 41
0
  0
VERTEX
  8
0
 10
1.55393
 20
1.37967
 30
0.0
 40
0
 41
0
  0
VERTEX
  8
0
 10
1.54596
 20
1.39399
 30
0.0
 40
0
 41
0
  0
VERTEX
  8
0
 10
1.52843
 20
1.40039
 30
0.0
 40
0
 41
0
  0
VERTEX
  8
0
 10
1.51085
 20
1.39399
 30
0.0
 40
0
 41
0
  0
VERTEX
  8
0
 10
1.50293
 20
1.37967
 30
0.0
 40
0
 41
0
  0
VERTEX
  8
0
 10
1.50293
 20
1.37484
 30
0.0
 40
0
 41
0
  0
VERTEX
  8
0
 10
1.50293
 20
1.37006
 30
0.0
 40
0
 41
0
  0
VERTEX
  8
0
 10
1.51085
 20
1.35574
 30
0.0
 40
0
 41
0
  0
VERTEX
  8
0
 10
1.52843
 20
1.34939
 30
0.0
 40
0
 41
0
  0
VERTEX
  8
0
 10
1.54596
 20
1.35574
 30
0.0
 40
0
 41
0
  0
VERTEX
  8
0
 10
1.55393
 20
1.37006
 30
0.0
 40
0
 41
0
  0
VERTEX
  8
0
 10
1.55393
 20
1.37484
 30
0.0
 40
0
 41
0
  0
SEQEND
 8
0
  0
POLYLINE
  8
0
 62
     173
 66
     1
 10
0
 20
0
 30
0.0
 70
     1
 40
0
 41
0
  0
VERTEX
  8
0
 10
1.55393
 20
0.870931
 30
0.0
 40
0
 41
0
  0
VERTEX
  8
0
 10
1.55393
 20
0.87576
 30
0.0
 40
0
 41
0
  0
VERTEX
  8
0
 10
1.54596
 20
0.890082
 30
0.0
 40
0
 41
0
  0
VERTEX
  8
0
 10
1.52843
 20
0.896485
 30
0.0
 40
0
 41
0
  0
VERTEX
  8
0
 10
1.51085
 20
0.890082
 30
0.0
 40
0
 41
0
  0
VERTEX
  8
0
 10
1.50293
 20
0.87576
 30
0.0
 40
0
 41
0
  0
VERTEX
  8
0
 10
1.50293
 20
0.870931
 30
0.0
 40
0
 41
0
  0
VERTEX
  8
0
 10
1.50293
 20
0.866157
 30
0.0
 40
0
 41
0
  0
VERTEX
  8
0
 10
1.51085
 20
0.851833
 30
0.0
 40
0
 41
0
  0
VERTEX
  8
0
 10
1.52843
 20
0.845486
 30
0.0
 40
0
 41
0
  0
VERTEX
  8
0
 10
1.54596
 20
0.851833
 30
0.0
 40
0
 41
0
  0
VERTEX
  8
0
 10
1.55393
 20
0.866157
 30
0.0
 40
0
 41
0
  0
VERTEX
  8
0
 10
1.55393
 20
0.870931
 30
0.0
 40
0
 41
0
  0
SEQEND
 8
0
  0
POLYLINE
  8
0
 62
     173
 66
     1
 10
0
 20
0
 30
0.0
 70
     1
 40
0
 41
0
  0
VERTEX
  8
0
 10
1.55393
 20
0.614854
 30
0.0
 40
0
 41
0
  0
VERTEX
  8
0
 10
1.55393
 20
0.619683
 30
0.0
 40
0
 41
0
  0
VERTEX
  8
0
 10
1.54596
 20
0.634006
 30
0.0
 40
0
 41
0
  0
VERTEX
  8
0
 10
1.52843
 20
0.640408
 30
0.0
 40
0
 41
0
  0
VERTEX
  8
0
 10
1.51085
 20
0.634006
 30
0.0
 40
0
 41
0
  0
VERTEX
  8
0
 10
1.50293
 20
0.619683
 30
0.0
 40
0
 41
0
  0
VERTEX
  8
0
 10
1.50293
 20
0.614854
 30
0.0
 40
0
 41
0
  0
VERTEX
  8
0
 10
1.50293
 20
0.610081
 30
0.0
 40
0
 41
0
  0
VERTEX
  8
0
 10
1.51085
 20
0.595757
 30
0.0
 40
0
 41
0
  0
VERTEX
  8
0
 10
1.52843
 20
0.589356
 30
0.0
 40
0
 41
0
  0
VERTEX
  8
0
 10
1.54596
 20
0.595757
 30
0.0
 40
0
 41
0
  0
VERTEX
  8
0
 10
1.55393
 20
0.610081
 30
0.0
 40
0
 41
0
  0
VERTEX
  8
0
 10
1.55393
 20
0.614854
 30
0.0
 40
0
 41
0
  0
SEQEND
 8
0
  0
POLYLINE
  8
0
 62
     173
 66
     1
 10
0
 20
0
 30
0.0
 70
     1
 40
0
 41
0
  0
VERTEX
  8
0
 10
1.55393
 20
0.110948
 30
0.0
 40
0
 41
0
  0
VERTEX
  8
0
 10
1.55393
 20
0.115777
 30
0.0
 40
0
 41
0
  0
VERTEX
  8
0
 10
1.54596
 20
0.1301
 30
0.0
 40
0
 41
0
  0
VERTEX
  8
0
 10
1.52843
 20
0.136502
 30
0.0
 40
0
 41
0
  0
VERTEX
  8
0
 10
1.51085
 20
0.1301
 30
0.0
 40
0
 41
0
  0
VERTEX
  8
0
 10
1.50293
 20
0.115777
 30
0.0
 40
0
 41
0
  0
VERTEX
  8
0
 10
1.50293
 20
0.110948
 30
0.0
 40
0
 41
0
  0
VERTEX
  8
0
 10
1.50293
 20
0.106174
 30
0.0
 40
0
 41
0
  0
VERTEX
  8
0
 10
1.51085
 20
0.0918511
 30
0.0
 40
0
 41
0
  0
VERTEX
  8
0
 10
1.52843
 20
0.0854492
 30
0.0
 40
0
 41
0
  0
VERTEX
  8
0
 10
1.54596
 20
0.0918511
 30
0.0
 40
0
 41
0
  0
VERTEX
  8
0
 10
1.55393
 20
0.106174
 30
0.0
 40
0
 41
0
  0
VERTEX
  8
0
 10
1.55393
 20
0.110948
 30
0.0
 40
0
 41
0
  0
SEQEND
 8
0
  0
POLYLINE
  8
0
 62
     173
 66
     1
 10
0
 20
0
 30
0.0
 70
     1
 40
0
 41
0
  0
VERTEX
  8
0
 10
0.375054
 20
1.38276
 30
0.0
 40
0
 41
0
  0
VERTEX
  8
0
 10
0.375054
 20
1.38791
 30
0.0
 40
0
 41
0
  0
VERTEX
  8
0
 10
0.370985
 20
1.40332
 30
0.0
 40
0
 41
0
  0
VERTEX
  8
0
 10
0.360351
 20
1.41803
 30
0.0
 40
0
 41
0
  0
VERTEX
  8
0
 10
0.345269
 20
1.42686
 30
0.0
 40
0
 41
0
  0
VERTEX
  8
0
 10
0.328017
 20
1.42979
 30
0.0
 40
0
 41
0
  0
VERTEX
  8
0
 10
0.310764
 20
1.42686
 30
0.0
 40
0
 41
0
  0
VERTEX
  8
0
 10
0.295682
 20
1.41803
 30
0.0
 40
0
 41
0
  0
VERTEX
  8
0
 10
0.285047
 20
1.40332
 30
0.0
 40
0
 41
0
  0
VERTEX
  8
0
 10
0.281033
 20
1.38791
 30
0.0
 40
0
 41
0
  0
VERTEX
  8
0
 10
0.281033
 20
1.38276
 30
0.0
 40
0
 41
0
  0
VERTEX
  8
0
 10
0.281033
 20
1.37766
 30
0.0
 40
0
 41
0
  0
VERTEX
  8
0
 10
0.285047
 20
1.36225
 30
0.0
 40
0
 41
0
  0
VERTEX
  8
0
 10
0.295682
 20
1.34755
 30
0.0
 40
0
 41
0
  0
VERTEX
  8
0
 10
0.310764
 20
1.3387
 30
0.0
 40
0
 41
0
  0
VERTEX
  8
0
 10
0.328017
 20
1.33577
 30
0.0
 40
0
 41
0
  0
VERTEX
  8
0
 10
0.345269
 20
1.3387
 30
0.0
 40
0
 41
0
  0
VERTEX
  8
0
 10
0.360351
 20
1.34755
 30
0.0
 40
0
 41
0
  0
VERTEX
  8
0
 10
0.370985
 20
1.36225
 30
0.0
 40
0
 41
0
  0
VERTEX
  8
0
 10
0.375054
 20
1.37766
 30
0.0
 40
0
 41
0
  0
VERTEX
  8
0
 10
0.375054
 20
1.38276
 30
0.0
 40
0
 41
0
  0
SEQEND
 8
0
  0
POLYLINE
  8
0
 62
     173
 66
     1
 10
0
 20
0
 30
0.0
 70
     1
 40
0
 41
0
  0
VERTEX
  8
0
 10
0.375054
 20
0.863064
 30
0.0
 40
0
 41
0
  0
VERTEX
  8
0
 10
0.375054
 20
0.868218
 30
0.0
 40
0
 41
0
  0
VERTEX
  8
0
 10
0.370985
 20
0.883626
 30
0.0
 40
0
 41
0
  0
VERTEX
  8
0
 10
0.360351
 20
0.898329
 30
0.0
 40
0
 41
0
  0
VERTEX
  8
0
 10
0.345269
 20
0.907172
 30
0.0
 40
0
 41
0
  0
VERTEX
  8
0
 10
0.328017
 20
0.910101
 30
0.0
 40
0
 41
0
  0
VERTEX
  8
0
 10
0.310764
 20
0.907172
 30
0.0
 40
0
 41
0
  0
VERTEX
  8
0
 10
0.295682
 20
0.898329
 30
0.0
 40
0
 41
0
  0
VERTEX
  8
0
 10
0.285047
 20
0.883626
 30
0.0
 40
0
 41
0
  0
VERTEX
  8
0
 10
0.281033
 20
0.868218
 30
0.0
 40
0
 41
0
  0
VERTEX
  8
0
 10
0.281033
 20
0.863064
 30
0.0
 40
0
 41
0
  0
VERTEX
  8
0
 10
0.281033
 20
0.857964
 30
0.0
 40
0
 41
0
  0
VERTEX
  8
0
 10
0.285047
 20
0.842557
 30
0.0
 40
0
 41
0
  0
VERTEX
  8
0
 10
0.295682
 20
0.827854
 30
0.0
 40
0
 41
0
  0
VERTEX
  8
0
 10
0.310764
 20
0.819011
 30
0.0
 40
0
 41
0
  0
VERTEX
  8
0
 10
0.328017
 20
0.816081
 30
0.0
 40
0
 41
0
  0
VERTEX
  8
0
 10
0.345269
 20
0.819011
 30
0.0
 40
0
 41
0
  0
VERTEX
  8
0
 10
0.360351
 20
0.827854
 30
0.0
 40
0
 41
0
  0
VERTEX
  8
0
 10
0.370985
 20
0.842557
 30
0.0
 40
0
 41
0
  0
VERTEX
  8
0
 10
0.375054
 20
0.857964
 30
0.0
 40
0
 41
0
  0
VERTEX
  8
0
 10
0.375054
 20
0.863064
 30
0.0
 40
0
 41
0
  0
SEQEND
 8
0
  0
POLYLINE
  8
0
 62
     173
 66
     1
 10
0
 20
0
 30
0.0
 70
     1
 40
0
 41
0
  0
VERTEX
  8
0
 10
0.375054
 20
0.622775
 30
0.0
 40
0
 41
0
  0
VERTEX
  8
0
 10
0.375054
 20
0.627929
 30
0.0
 40
0
 41
0
  0
VERTEX
  8
0
 10
0.370985
 20
0.643338
 30
0.0
 40
0
 41
0
  0
VERTEX
  8
0
 10
0.360351
 20
0.65804
 30
0.0
 40
0
 41
0
  0
VERTEX
  8
0
 10
0.345269
 20
0.666883
 30
0.0
 40
0
 41
0
  0
VERTEX
  8
0
 10
0.328017
 20
0.669814
 30
0.0
 40
0
 41
0
  0
VERTEX
  8
0
 10
0.310764
 20
0.666883
 30
0.0
 40
0
 41
0
  0
VERTEX
  8
0
 10
0.295682
 20
0.65804
 30
0.0
 40
0
 41
0
  0
VERTEX
  8
0
 10
0.285047
 20
0.643338
 30
0.0
 40
0
 41
0
  0
VERTEX
  8
0
 10
0.281033
 20
0.627929
 30
0.0
 40
0
 41
0
  0
VERTEX
  8
0
 10
0.281033
 20
0.622775
 30
0.0
 40
0
 41
0
  0
VERTEX
  8
0
 10
0.281033
 20
0.617676
 30
0.0
 40
0
 41
0
  0
VERTEX
  8
0
 10
0.285047
 20
0.602214
 30
0.0
 40
0
 41
0
  0
VERTEX
  8
0
 10
0.295682
 20
0.587511
 30
0.0
 40
0
 41
0
  0
VERTEX
  8
0
 10
0.310764
 20
0.578722
 30
0.0
 40
0
 41
0
  0
VERTEX
  8
0
 10
0.328017
 20
0.575737
 30
0.0
 40
0
 41
0
  0
VERTEX
  8
0
 10
0.345269
 20
0.578722
 30
0.0
 40
0
 41
0
  0
VERTEX
  8
0
 10
0.360351
 20
0.587511
 30
0.0
 40
0
 41
0
  0
VERTEX
  8
0
 10
0.370985
 20
0.602214
 30
0.0
 40
0
 41
0
  0
VERTEX
  8
0
 10
0.375054
 20
0.617676
 30
0.0
 40
0
 41
0
  0
VERTEX
  8
0
 10
0.375054
 20
0.622775
 30
0.0
 40
0
 41
0
  0
SEQEND
 8
0
  0
POLYLINE
  8
0
 62
     173
 66
     1
 10
0
 20
0
 30
0.0
 70
     1
 40
0
 41
0
  0
VERTEX
  8
0
 10
0.375054
 20
0.103027
 30
0.0
 40
0
 41
0
  0
VERTEX
  8
0
 10
0.375054
 20
0.108181
 30
0.0
 40
0
 41
0
  0
VERTEX
  8
0
 10
0.370985
 20
0.123589
 30
0.0
 40
0
 41
0
  0
VERTEX
  8
0
 10
0.360351
 20
0.138292
 30
0.0
 40
0
 41
0
  0
VERTEX
  8
0
 10
0.345269
 20
0.147136
 30
0.0
 40
0
 41
0
  0
VERTEX
  8
0
 10
0.328017
 20
0.150065
 30
0.0
 40
0
 41
0
  0
VERTEX
  8
0
 10
0.310764
 20
0.147136
 30
0.0
 40
0
 41
0
  0
VERTEX
  8
0
 10
0.295682
 20
0.138292
 30
0.0
 40
0
 41
0
  0
VERTEX
  8
0
 10
0.285047
 20
0.123589
 30
0.0
 40
0
 41
0
  0
VERTEX
  8
0
 10
0.281033
 20
0.108181
 30
0.0
 40
0
 41
0
  0
VERTEX
  8
0
 10
0.281033
 20
0.103027
 30
0.0
 40
0
 41
0
  0
VERTEX
  8
0
 10
0.281033
 20
0.0979275
 30
0.0
 40
0
 41
0
  0
VERTEX
  8
0
 10
0.285047
 20
0.0825196
 30
0.0
 40
0
 41
0
  0
VERTEX
  8
0
 10
0.295682
 20
0.0678168
 30
0.0
 40
0
 41
0
  0
VERTEX
  8
0
 10
0.310764
 20
0.0589735
 30
0.0
 40
0
 41
0
  0
VERTEX
  8
0
 10
0.328017
 20
0.0560439
 30
0.0
 40
0
 41
0
  0
VERTEX
  8
0
 10
0.345269
 20
0.0589735
 30
0.0
 40
0
 41
0
  0
VERTEX
  8
0
 10
0.360351
 20
0.0678168
 30
0.0
 40
0
 41
0
  0
VERTEX
  8
0
 10
0.370985
 20
0.0825196
 30
0.0
 40
0
 41
0
  0
VERTEX
  8
0
 10
0.375054
 20
0.0979275
 30
0.0
 40
0
 41
0
  0
VERTEX
  8
0
 10
0.375054
 20
0.103027
 30
0.0
 40
0
 41
0
  0
SEQEND
 8
0
  0
POLYLINE
  8
0
 62
     173
 66
     1
 10
0
 20
0
 30
0.0
 70
     1
 40
0
 41
0
  0
VERTEX
  8
0
 10
1.47504
 20
1.38276
 30
0.0
 40
0
 41
0
  0
VERTEX
  8
0
 10
1.47504
 20
1.38791
 30
0.0
 40
0
 41
0
  0
VERTEX
  8
0
 10
1.47097
 20
1.40332
 30
0.0
 40
0
 41
0
  0
VERTEX
  8
0
 10
1.46035
 20
1.41803
 30
0.0
 40
0
 41
0
  0
VERTEX
  8
0
 10
1.44526
 20
1.42686
 30
0.0
 40
0
 41
0
  0
VERTEX
  8
0
 10
1.428
 20
1.42979
 30
0.0
 40
0
 41
0
  0
VERTEX
  8
0
 10
1.41075
 20
1.42686
 30
0.0
 40
0
 41
0
  0
VERTEX
  8
0
 10
1.39567
 20
1.41803
 30
0.0
 40
0
 41
0
  0
VERTEX
  8
0
 10
1.38504
 20
1.40332
 30
0.0
 40
0
 41
0
  0
VERTEX
  8
0
 10
1.38102
 20
1.38791
 30
0.0
 40
0
 41
0
  0
VERTEX
  8
0
 10
1.38102
 20
1.38276
 30
0.0
 40
0
 41
0
  0
VERTEX
  8
0
 10
1.38102
 20
1.37766
 30
0.0
 40
0
 41
0
  0
VERTEX
  8
0
 10
1.38504
 20
1.36225
 30
0.0
 40
0
 41
0
  0
VERTEX
  8
0
 10
1.39567
 20
1.34755
 30
0.0
 40
0
 41
0
  0
VERTEX
  8
0
 10
1.41075
 20
1.3387
 30
0.0
 40
0
 41
0
  0
VERTEX
  8
0
 10
1.428
 20
1.33577
 30
0.0
 40
0
 41
0
  0
VERTEX
  8
0
 10
1.44526
 20
1.3387
 30
0.0
 40
0
 41
0
  0
VERTEX
  8
0
 10
1.46035
 20
1.34755
 30
0.0
 40
0
 41
0
  0
VERTEX
  8
0
 10
1.47097
 20
1.36225
 30
0.0
 40
0
 41
0
  0
VERTEX
  8
0
 10
1.47504
 20
1.37766
 30
0.0
 40
0
 41
0
  0
VERTEX
  8
0
 10
1.47504
 20
1.38276
 30
0.0
 40
0
 41
0
  0
SEQEND
 8
0
  0
POLYLINE
  8
0
 62
     173
 66
     1
 10
0
 20
0
 30
0.0
 70
     1
 40
0
 41
0
  0
VERTEX
  8
0
 10
1.47504
 20
0.863064
 30
0.0
 40
0
 41
0
  0
VERTEX
  8
0
 10
1.47504
 20
0.868218
 30
0.0
 40
0
 41
0
  0
VERTEX
  8
0
 10
1.47097
 20
0.883626
 30
0.0
 40
0
 41
0
  0
VERTEX
  8
0
 10
1.46035
 20
0.898329
 30
0.0
 40
0
 41
0
  0
VERTEX
  8
0
 10
1.44526
 20
0.907172
 30
0.0
 40
0
 41
0
  0
VERTEX
  8
0
 10
1.428
 20
0.910101
 30
0.0
 40
0
 41
0
  0
VERTEX
  8
0
 10
1.41075
 20
0.907172
 30
0.0
 40
0
 41
0
  0
VERTEX
  8
0
 10
1.39567
 20
0.898329
 30
0.0
 40
0
 41
0
  0
VERTEX
  8
0
 10
1.38504
 20
0.883626
 30
0.0
 40
0
 41
0
  0
VERTEX
  8
0
 10
1.38102
 20
0.868218
 30
0.0
 40
0
 41
0
  0
VERTEX
  8
0
 10
1.38102
 20
0.863064
 30
0.0
 40
0
 41
0
  0
VERTEX
  8
0
 10
1.38102
 20
0.857964
 30
0.0
 40
0
 41
0
  0
VERTEX
  8
0
 10
1.38504
 20
0.842557
 30
0.0
 40
0
 41
0
  0
VERTEX
  8
0
 10
1.39567
 20
0.827854
 30
0.0
 40
0
 41
0
  0
VERTEX
  8
0
 10
1.41075
 20
0.819011
 30
0.0
 40
0
 41
0
  0
VERTEX
  8
0
 10
1.428
 20
0.816081
 30
0.0
 40
0
 41
0
  0
VERTEX
  8
0
 10
1.44526
 20
0.819011
 30
0.0
 40
0
 41
0
  0
VERTEX
  8
0
 10
1.46035
 20
0.827854
 30
0.0
 40
0
 41
0
  0
VERTEX
  8
0
 10
1.47097
 20
0.842557
 30
0.0
 40
0
 41
0
  0
VERTEX
  8
0
 10
1.47504
 20
0.857964
 30
0.0
 40
0
 41
0
  0
VERTEX
  8
0
 10
1.47504
 20
0.863064
 30
0.0
 40
0
 41
0
  0
SEQEND
 8
0
  0
POLYLINE
  8
0
 62
     173
 66
     1
 10
0
 20
0
 30
0.0
 70
     1
 40
0
 41
0
  0
VERTEX
  8
0
 10
1.47504
 20
0.622775
 30
0.0
 40
0
 41
0
  0
VERTEX
  8
0
 10
1.47504
 20
0.627929
 30
0.0
 40
0
 41
0
  0
VERTEX
  8
0
 10
1.47097
 20
0.643338
 30
0.0
 40
0
 41
0
  0
VERTEX
  8
0
 10
1.46035
 20
0.65804
 30
0.0
 40
0
 41
0
  0
VERTEX
  8
0
 10
1.44526
 20
0.666883
 30
0.0
 40
0
 41
0
  0
VERTEX
  8
0
 10
1.428
 20
0.669814
 30
0.0
 40
0
 41
0
  0
VERTEX
  8
0
 10
1.41075
 20
0.666883
 30
0.0
 40
0
 41
0
  0
VERTEX
  8
0
 10
1.39567
 20
0.65804
 30
0.0
 40
0
 41
0
  0
VERTEX
  8
0
 10
1.38504
 20
0.643338
 30
0.0
 40
0
 41
0
  0
VERTEX
  8
0
 10
1.38102
 20
0.627929
 30
0.0
 40
0
 41
0
  0
VERTEX
  8
0
 10
1.38102
 20
0.622775
 30
0.0
 40
0
 41
0
  0
VERTEX
  8
0
 10
1.38102
 20
0.617676
 30
0.0
 40
0
 41
0
  0
VERTEX
  8
0
 10
1.38504
 20
0.602214
 30
0.0
 40
0
 41
0
  0
VERTEX
  8
0
 10
1.39567
 20
0.587511
 30
0.0
 40
0
 41
0
  0
VERTEX
  8
0
 10
1.41075
 20
0.578722
 30
0.0
 40
0
 41
0
  0
VERTEX
  8
0
 10
1.428
 20
0.575737
 30
0.0
 40
0
 41
0
  0
VERTEX
  8
0
 10
1.44526
 20
0.578722
 30
0.0
 40
0
 41
0
  0
VERTEX
  8
0
 10
1.46035
 20
0.587511
 30
0.0
 40
0
 41
0
  0
VERTEX
  8
0
 10
1.47097
 20
0.602214
 30
0.0
 40
0
 41
0
  0
VERTEX
  8
0
 10
1.47504
 20
0.617676
 30
0.0
 40
0
 41
0
  0
VERTEX
  8
0
 10
1.47504
 20
0.622775
 30
0.0
 40
0
 41
0
  0
SEQEND
 8
0
  0
POLYLINE
  8
0
 62
     173
 66
     1
 10
0
 20
0
 30
0.0
 70
     1
 40
0
 41
0
  0
VERTEX
  8
0
 10
1.47504
 20
0.103027
 30
0.0
 40
0
 41
0
  0
VERTEX
  8
0
 10
1.47504
 20
0.108181
 30
0.0
 40
0
 41
0
  0
VERTEX
  8
0
 10
1.47097
 20
0.123589
 30
0.0
 40
0
 41
0
  0
VERTEX
  8
0
 10
1.46035
 20
0.138292
 30
0.0
 40
0
 41
0
  0
VERTEX
  8
0
 10
1.44526
 20
0.147136
 30
0.0
 40
0
 41
0
  0
VERTEX
  8
0
 10
1.428
 20
0.150065
 30
0.0
 40
0
 41
0
  0
VERTEX
  8
0
 10
1.41075
 20
0.147136
 30
0.0
 40
0
 41
0
  0
VERTEX
  8
0
 10
1.39567
 20
0.138292
 30
0.0
 40
0
 41
0
  0
VERTEX
  8
0
 10
1.38504
 20
0.123589
 30
0.0
 40
0
 41
0
  0
VERTEX
  8
0
 10
1.38102
 20
0.108181
 30
0.0
 40
0
 41
0
  0
VERTEX
  8
0
 10
1.38102
 20
0.103027
 30
0.0
 40
0
 41
0
  0
VERTEX
  8
0
 10
1.38102
 20
0.0979275
 30
0.0
 40
0
 41
0
  0
VERTEX
  8
0
 10
1.38504
 20
0.0825196
 30
0.0
 40
0
 41
0
  0
VERTEX
  8
0
 10
1.39567
 20
0.0678168
 30
0.0
 40
0
 41
0
  0
VERTEX
  8
0
 10
1.41075
 20
0.0589735
 30
0.0
 40
0
 41
0
  0
VERTEX
  8
0
 10
1.428
 20
0.0560439
 30
0.0
 40
0
 41
0
  0
VERTEX
  8
0
 10
1.44526
 20
0.0589735
 30
0.0
 40
0
 41
0
  0
VERTEX
  8
0
 10
1.46035
 20
0.0678168
 30
0.0
 40
0
 41
0
  0
VERTEX
  8
0
 10
1.47097
 20
0.0825196
 30
0.0
 40
0
 41
0
  0
VERTEX
  8
0
 10
1.47504
 20
0.0979275
 30
0.0
 40
0
 41
0
  0
VERTEX
  8
0
 10
1.47504
 20
0.103027
 30
0.0
 40
0
 41
0
  0
SEQEND
 8
0
  0
ENDSEC
  0
EOF
