G04 start of page 10 for group -4015 idx -4015 *
G04 Title: (unknown), toppaste *
G04 Creator: pcb 1.99z *
G04 CreationDate: Mon Aug 31 21:07:20 2015 UTC *
G04 For: commonadmin *
G04 Format: Gerber/RS-274X *
G04 PCB-Dimensions (mil): 5600.00 4300.00 *
G04 PCB-Coordinate-Origin: lower left *
%MOIN*%
%FSLAX25Y25*%
%LNTOPPASTE*%
%ADD89R,0.0197X0.0197*%
G54D89*X139026Y149767D02*Y148981D01*
X142174Y149767D02*Y148981D01*
X173052Y148443D02*Y147657D01*
X176200Y148443D02*Y147657D01*
X245552Y148443D02*Y147657D01*
X248700Y148443D02*Y147657D01*
X211526Y149767D02*Y148981D01*
X214674Y149767D02*Y148981D01*
X390552Y148443D02*Y147657D01*
X393700Y148443D02*Y147657D01*
X356526Y149767D02*Y148981D01*
X359674Y149767D02*Y148981D01*
X463052Y148443D02*Y147657D01*
X466200Y148443D02*Y147657D01*
X429026Y149767D02*Y148981D01*
X432174Y149767D02*Y148981D01*
X535552Y148443D02*Y147657D01*
X538700Y148443D02*Y147657D01*
X501526Y149767D02*Y148981D01*
X504674Y149767D02*Y148981D01*
X284026Y149767D02*Y148981D01*
X287174Y149767D02*Y148981D01*
X318052Y148443D02*Y147657D01*
X321200Y148443D02*Y147657D01*
X146948Y282343D02*Y281557D01*
X143800Y282343D02*Y281557D01*
X180974Y281019D02*Y280233D01*
X177826Y281019D02*Y280233D01*
X219448Y282343D02*Y281557D01*
X216300Y282343D02*Y281557D01*
X253474Y281019D02*Y280233D01*
X250326Y281019D02*Y280233D01*
X291948Y282343D02*Y281557D01*
X288800Y282343D02*Y281557D01*
X325974Y281019D02*Y280233D01*
X322826Y281019D02*Y280233D01*
X364448Y282343D02*Y281557D01*
X361300Y282343D02*Y281557D01*
X398474Y281019D02*Y280233D01*
X395326Y281019D02*Y280233D01*
X436948Y282343D02*Y281557D01*
X433800Y282343D02*Y281557D01*
X470974Y281019D02*Y280233D01*
X467826Y281019D02*Y280233D01*
X509448Y282343D02*Y281557D01*
X506300Y282343D02*Y281557D01*
X543474Y281019D02*Y280233D01*
X540326Y281019D02*Y280233D01*
M02*
