M48
INCH
T65C0.013
T64C0.187
T63C0.038
T62C0.028
T61C0.063
T60C0.128
T59C0.035
%
T65
X000800Y042200
X000800Y000700
X004100Y032900
X004100Y032100
X004100Y025300
X004100Y024500
X004100Y020200
X004100Y019100
X006240Y036982
X007526Y002493
X008158Y025552
X008438Y020473
X010967Y026172
X011085Y031964
X011188Y024762
X011240Y023314
X011283Y012000
X011429Y003693
X012524Y004270
X012542Y022313
X012801Y027820
X012804Y012987
X013142Y004436
X013464Y023153
X013704Y011163
X013820Y016261
X014275Y030784
X014441Y015335
X014750Y004218
X016221Y037367
X017081Y037020
X017709Y026381
X017968Y038105
X018212Y030114
X019066Y031216
X019322Y032516
X019372Y015258
X021274Y007298
X021627Y016722
X021647Y032607
X021946Y026733
X022360Y002813
X022500Y038501
X023169Y033244
X024639Y033103
X025888Y023104
X026250Y030196
X028246Y005531
X028668Y001909
X028692Y004218
X028703Y025921
X028757Y016838
X029171Y007358
X029560Y027325
X031444Y015535
X032208Y026197
X032807Y026975
X033981Y015957
X034145Y020963
X034305Y026562
X034521Y025985
X035771Y004913
X036000Y026200
X036395Y022545
X036704Y021951
X036796Y027225
X037021Y023619
X038690Y015508
X039309Y027364
X039552Y016732
X041872Y007206
X042704Y015988
X043495Y017124
X044250Y004533
X045946Y015508
X047022Y035848
X047130Y025455
X047494Y013229
X048429Y017520
X055200Y042200
X055200Y000700
T62
X000750Y039000
X000750Y038000
X002250Y016000
X002500Y039000
X002500Y038000
X003250Y016000
X004250Y039000
X004250Y038000
X006000Y039000
X006000Y038000
X013000Y025000
X013000Y018000
X014000Y025000
X014000Y018000
X015000Y025000
X015000Y018000
X016000Y025000
X016000Y018000
X017000Y025000
X017000Y018000
X018000Y025000
X018000Y018000
X019000Y025000
X019000Y018000
X020000Y025000
X020000Y018000
X021000Y025000
X021000Y018000
X022000Y025000
X022000Y018000
X023000Y025000
X023000Y018000
X024000Y025000
X024000Y018000
X027500Y025000
X027500Y018000
X028500Y025000
X028500Y018000
X029500Y025000
X029500Y018000
X030500Y025000
X030500Y018000
X031500Y025000
X031500Y018000
X032500Y025000
X032500Y018000
X033500Y025000
X033500Y018000
X034500Y025000
X034500Y018000
X035500Y025000
X035500Y018000
X036500Y025000
X036500Y018000
X037500Y025000
X037500Y018000
X038500Y025000
X038500Y018000
X042000Y018000
X043000Y018000
X044000Y018000
X045000Y018000
X046000Y018000
X047000Y018000
X048000Y018000
X049000Y018000
X050000Y018000
X051000Y018000
X052000Y018000
X053000Y018000
T59
X002000Y011750
X002000Y006750
X002500Y012750
X002500Y005750
X003000Y011750
X003000Y006750
X003500Y012750
X003500Y005750
X004000Y011750
X004000Y006750
X004500Y012750
X004500Y005750
X005000Y011750
X005000Y006750
X005500Y012750
X005500Y005750
X014250Y030250
X014250Y011750
X014250Y006750
X014750Y031250
X014750Y012750
X014750Y005750
X015250Y030250
X015250Y011750
X015250Y006750
X015750Y031250
X015750Y012750
X015750Y005750
X016250Y030250
X016250Y011750
X016250Y006750
X016750Y031250
X016750Y012750
X016750Y005750
X017250Y030250
X017250Y011750
X017250Y006750
X017750Y031250
X017750Y012750
X017750Y005750
X021500Y037250
X021500Y030250
X021500Y011750
X021500Y006750
X022000Y036250
X022000Y031250
X022000Y012750
X022000Y005750
X022500Y037250
X022500Y030250
X022500Y011750
X022500Y006750
X023000Y036250
X023000Y031250
X023000Y012750
X023000Y005750
X023500Y037250
X023500Y030250
X023500Y011750
X023500Y006750
X024000Y036250
X024000Y031250
X024000Y012750
X024000Y005750
X024500Y037250
X024500Y030250
X024500Y011750
X024500Y006750
X025000Y036250
X025000Y031250
X025000Y012750
X025000Y005750
X028750Y030250
X028750Y011750
X028750Y006750
X029250Y031250
X029250Y012750
X029250Y005750
X029750Y030250
X029750Y011750
X029750Y006750
X030250Y031250
X030250Y012750
X030250Y005750
X030750Y030250
X030750Y011750
X030750Y006750
X031250Y031250
X031250Y012750
X031250Y005750
X031750Y030250
X031750Y011750
X031750Y006750
X032250Y031250
X032250Y012750
X032250Y005750
X036000Y037250
X036000Y030250
X036000Y011750
X036000Y006750
X036500Y036250
X036500Y031250
X036500Y012750
X036500Y005750
X037000Y037250
X037000Y030250
X037000Y011750
X037000Y006750
X037500Y036250
X037500Y031250
X037500Y012750
X037500Y005750
X038000Y037250
X038000Y030250
X038000Y011750
X038000Y006750
X038500Y036250
X038500Y031250
X038500Y012750
X038500Y005750
X039000Y037250
X039000Y030250
X039000Y011750
X039000Y006750
X039500Y036250
X039500Y031250
X039500Y012750
X039500Y005750
X043250Y030250
X043250Y011750
X043250Y006750
X043750Y031250
X043750Y012750
X043750Y005750
X044250Y030250
X044250Y011750
X044250Y006750
X044750Y031250
X044750Y012750
X044750Y005750
X045250Y030250
X045250Y011750
X045250Y006750
X045750Y031250
X045750Y012750
X045750Y005750
X046250Y030250
X046250Y011750
X046250Y006750
X046750Y031250
X046750Y012750
X046750Y005750
X050500Y037250
X050500Y030250
X050500Y011750
X050500Y006750
X051000Y036250
X051000Y031250
X051000Y012750
X051000Y005750
X051500Y037250
X051500Y030250
X051500Y011750
X051500Y006750
X052000Y036250
X052000Y031250
X052000Y012750
X052000Y005750
X052500Y037250
X052500Y030250
X052500Y011750
X052500Y006750
X053000Y036250
X053000Y031250
X053000Y012750
X053000Y005750
X053500Y037250
X053500Y030250
X053500Y011750
X053500Y006750
X054000Y036250
X054000Y031250
X054000Y012750
X054000Y005750
T63
X009000Y041500
X009000Y040500
X009000Y039500
X009000Y038500
X009000Y037500
X009000Y036500
X009000Y035500
X009000Y034500
X009000Y033500
X009000Y032500
X009000Y031500
X009000Y030500
X009000Y029500
X009000Y028500
X009000Y027500
X009000Y026500
X009000Y025500
X009000Y024500
X009000Y023500
X009000Y022500
X009000Y020500
X009000Y019500
X009000Y018500
X009000Y017500
X009000Y016500
X009000Y015500
X009000Y014500
X009000Y013500
X009000Y012500
X009000Y011500
X009000Y010500
X009000Y009500
X009000Y008500
X009000Y007500
X009000Y006500
X009000Y005500
X009000Y004500
X009000Y003500
X009000Y002500
X009000Y001500
X010000Y041500
X010000Y040500
X010000Y039500
X010000Y038500
X010000Y037500
X010000Y036500
X010000Y035500
X010000Y034500
X010000Y033500
X010000Y032500
X010000Y031500
X010000Y030500
X010000Y029500
X010000Y028500
X010000Y027500
X010000Y026500
X010000Y025500
X010000Y024500
X010000Y023500
X010000Y022500
X010000Y020500
X010000Y019500
X010000Y018500
X010000Y017500
X010000Y016500
X010000Y015500
X010000Y014500
X010000Y013500
X010000Y012500
X010000Y011500
X010000Y010500
X010000Y009500
X010000Y008500
X010000Y007500
X010000Y006500
X010000Y005500
X010000Y004500
X010000Y003500
X010000Y002500
X010000Y001500
T61
X000646Y008049
X000654Y002049
X006846Y008049
X006854Y002049
X012896Y008049
X012904Y034951
X012904Y002049
X019096Y008049
X019104Y034951
X019104Y002049
X020146Y040951
X020146Y008049
X020154Y034951
X020154Y002049
X026346Y040951
X026346Y008049
X026354Y034951
X026354Y002049
X027396Y008049
X027404Y034951
X027404Y002049
X033596Y008049
X033604Y034951
X033604Y002049
X034646Y040951
X034646Y008049
X034654Y034951
X034654Y002049
X040846Y040951
X040846Y008049
X040854Y034951
X040854Y002049
X041896Y008049
X041904Y034951
X041904Y002049
X048096Y008049
X048104Y034951
X048104Y002049
X049146Y040951
X049146Y008049
X049154Y034951
X049154Y002049
X055346Y040951
X055346Y008049
X055354Y034951
X055354Y002049
T60
X001500Y009250
X001500Y003250
X006000Y009250
X006000Y003250
X013750Y033750
X013750Y009250
X013750Y003250
X018250Y033750
X018250Y009250
X018250Y003250
X021000Y039750
X021000Y033750
X021000Y009250
X021000Y003250
X025500Y039750
X025500Y033750
X025500Y009250
X025500Y003250
X028250Y033750
X028250Y009250
X028250Y003250
X032750Y033750
X032750Y009250
X032750Y003250
X035500Y039750
X035500Y033750
X035500Y009250
X035500Y003250
X040000Y039750
X040000Y033750
X040000Y009250
X040000Y003250
X042750Y033750
X042750Y009250
X042750Y003250
X047250Y033750
X047250Y009250
X047250Y003250
X050000Y039750
X050000Y033750
X050000Y009250
X050000Y003250
X054500Y039750
X054500Y033750
X054500Y009250
X054500Y003250
T64
X001750Y034000
X001750Y031165
X001750Y027500
X001750Y024665
X001750Y021000
X001750Y018165
M30
